# Blender v2.83.0 OBJ File: ''
# www.blender.org
mtllib obstacle_vistestcase.mtl
g Floor_Plane_VisibilityTestCases.081
v 49.999981 0.000000 49.929520
v 49.999989 0.000000 -0.070480
v -0.000018 0.000000 49.929512
v -0.000010 0.000000 -0.070488
vn 0.0000 -1.0000 0.0000
usemtl Default_OBJ
s off
f 3//1 2//1 1//1
f 3//1 4//1 2//1
g Obstacles_VisibilityTestCases.143
v 29.999985 10.000000 29.929520
v 29.999987 10.000000 19.929520
v 39.999989 10.000000 19.929520
v 39.999985 10.000000 29.929520
v 19.999987 0.000000 19.929512
v 19.999987 10.000000 19.929512
v 19.999985 0.000000 29.929512
v 19.999985 10.000000 29.929512
v 19.999985 0.000000 29.929512
v 19.999985 10.000000 29.929512
v 29.999985 0.000000 29.929520
v 29.999985 10.000000 29.929520
v 29.999985 0.000000 29.929520
v 29.999985 10.000000 29.929520
v 29.999987 0.000000 19.929520
v 29.999987 10.000000 19.929520
v 29.999987 0.000000 19.929520
v 29.999987 10.000000 19.929520
v 19.999987 0.000000 19.929512
v 19.999987 10.000000 19.929512
v 19.999985 0.000000 29.929512
v 29.999987 0.000000 19.929520
v 19.999987 0.000000 19.929512
v 29.999985 0.000000 29.929520
v 19.999985 10.000000 29.929512
v 19.999987 10.000000 19.929512
v 29.999987 10.000000 19.929520
v 29.999985 10.000000 29.929520
v 9.999987 0.000000 19.929512
v 9.999987 10.000000 19.929512
v 9.999986 0.000000 29.929512
v 9.999986 10.000000 29.929512
v 9.999986 0.000000 29.929512
v 9.999986 10.000000 29.929512
v 19.999985 0.000000 29.929512
v 19.999985 10.000000 29.929512
v 19.999985 0.000000 29.929512
v 19.999985 10.000000 29.929512
v 19.999987 0.000000 19.929512
v 19.999987 10.000000 19.929512
v 19.999987 0.000000 19.929512
v 19.999987 10.000000 19.929512
v 9.999987 0.000000 19.929512
v 9.999987 10.000000 19.929512
v 9.999986 0.000000 29.929512
v 19.999987 0.000000 19.929512
v 9.999987 0.000000 19.929512
v 19.999985 0.000000 29.929512
v 9.999986 10.000000 29.929512
v 9.999987 10.000000 19.929512
v 19.999987 10.000000 19.929512
v 19.999985 10.000000 29.929512
v 29.999987 0.000000 19.929520
v 29.999987 10.000000 19.929520
v 29.999985 0.000000 29.929520
v 29.999985 10.000000 29.929520
v 29.999985 0.000000 29.929520
v 29.999985 10.000000 29.929520
v 39.999985 0.000000 29.929520
v 39.999985 10.000000 29.929520
v 39.999985 0.000000 29.929520
v 39.999985 10.000000 29.929520
v 39.999989 0.000000 19.929520
v 39.999989 10.000000 19.929520
v 39.999989 0.000000 19.929520
v 39.999989 10.000000 19.929520
v 29.999987 0.000000 19.929520
v 29.999987 10.000000 19.929520
v 29.999985 0.000000 29.929520
v 39.999989 0.000000 19.929520
v 29.999987 0.000000 19.929520
v 39.999985 0.000000 29.929520
v 29.999989 0.000000 9.929520
v 29.999989 10.000000 9.929520
v 29.999987 0.000000 19.929520
v 29.999987 10.000000 19.929520
v 29.999987 0.000000 19.929520
v 29.999987 10.000000 19.929520
v 39.999989 0.000000 19.929520
v 39.999989 10.000000 19.929520
v 39.999989 0.000000 19.929520
v 39.999989 10.000000 19.929520
v 39.999989 0.000000 9.929520
v 39.999989 10.000000 9.929520
v 39.999989 0.000000 9.929520
v 39.999989 10.000000 9.929520
v 29.999989 0.000000 9.929520
v 29.999989 10.000000 9.929520
v 29.999987 0.000000 19.929520
v 39.999989 0.000000 9.929520
v 29.999989 0.000000 9.929520
v 39.999989 0.000000 19.929520
v 29.999987 10.000000 19.929520
v 29.999989 10.000000 9.929520
v 39.999989 10.000000 9.929520
v 39.999989 10.000000 19.929520
v 29.999985 0.000000 29.929520
v 29.999985 10.000000 29.929520
v 29.999983 0.000000 39.929520
v 29.999983 10.000000 39.929520
v 29.999983 0.000000 39.929520
v 29.999983 10.000000 39.929520
v 39.999985 0.000000 39.929520
v 39.999985 10.000000 39.929520
v 39.999985 0.000000 39.929520
v 39.999985 10.000000 39.929520
v 39.999985 0.000000 29.929520
v 39.999985 10.000000 29.929520
v 39.999985 0.000000 29.929520
v 39.999985 10.000000 29.929520
v 29.999985 0.000000 29.929520
v 29.999985 10.000000 29.929520
v 29.999983 0.000000 39.929520
v 39.999985 0.000000 29.929520
v 29.999985 0.000000 29.929520
v 39.999985 0.000000 39.929520
v 29.999983 10.000000 39.929520
v 29.999985 10.000000 29.929520
v 39.999985 10.000000 29.929520
v 39.999985 10.000000 39.929520
vn 0.0000 1.0000 0.0000
vn -1.0000 0.0000 -0.0000
vn -0.0000 0.0000 1.0000
vn 1.0000 0.0000 0.0000
vn 0.0000 0.0000 -1.0000
vn 0.0000 -1.0000 0.0000
usemtl Default_OBJ
s off
f 5//2 7//2 6//2
f 7//2 5//2 8//2
f 11//3 10//3 9//3
f 15//4 14//4 13//4
f 19//5 18//5 17//5
f 23//6 22//6 21//6
f 26//7 28//7 25//7
f 25//7 27//7 26//7
f 29//2 31//2 30//2
f 31//2 29//2 32//2
f 35//3 34//3 33//3
f 39//4 38//4 37//4
f 43//5 42//5 41//5
f 47//6 46//6 45//6
f 50//7 52//7 49//7
f 49//7 51//7 50//7
f 53//2 55//2 54//2
f 55//2 53//2 56//2
f 59//3 58//3 57//3
f 63//4 62//4 61//4
f 67//5 66//5 65//5
f 71//6 70//6 69//6
f 74//7 76//7 73//7
f 73//7 75//7 74//7
f 79//3 78//3 77//3
f 83//4 82//4 81//4
f 87//5 86//5 85//5
f 91//6 90//6 89//6
f 94//7 96//7 93//7
f 93//7 95//7 94//7
f 97//2 99//2 98//2
f 99//2 97//2 100//2
f 103//3 102//3 101//3
f 107//4 106//4 105//4
f 111//5 110//5 109//5
f 115//6 114//6 113//6
f 118//7 120//7 117//7
f 117//7 119//7 118//7
f 121//2 123//2 122//2
f 123//2 121//2 124//2
f 11//3 12//3 10//3
f 15//4 16//4 14//4
f 19//5 20//5 18//5
f 23//6 24//6 22//6
f 35//3 36//3 34//3
f 39//4 40//4 38//4
f 43//5 44//5 42//5
f 47//6 48//6 46//6
f 59//3 60//3 58//3
f 63//4 64//4 62//4
f 67//5 68//5 66//5
f 71//6 72//6 70//6
f 79//3 80//3 78//3
f 83//4 84//4 82//4
f 87//5 88//5 86//5
f 91//6 92//6 90//6
f 103//3 104//3 102//3
f 107//4 108//4 106//4
f 111//5 112//5 110//5
f 115//6 116//6 114//6
