<?xml version="1.0" encoding="UTF-8" standalone="no"?>
<!DOCTYPE svg PUBLIC "-//W3C//DTD SVG 1.1//EN"
 "http://www.w3.org/Graphics/SVG/1.1/DTD/svg11.dtd">
<!-- Generated by graphviz version 2.38.0 (20140413.2041)
 -->
<!-- Title: HumanFactors.SpatialStructures.Graph.CompressToCSR Pages: 1 -->
<svg width="366pt" height="39pt"
 viewBox="0.00 0.00 366.00 39.00" xmlns="http://www.w3.org/2000/svg" xmlns:xlink="http://www.w3.org/1999/xlink">
<g id="graph0" class="graph" transform="scale(1 1) rotate(0) translate(4 35)">
<title>HumanFactors.SpatialStructures.Graph.CompressToCSR</title>
<polygon fill="white" stroke="none" points="-4,4 -4,-35 362,-35 362,4 -4,4"/>
<!-- Node1 -->
<g id="node1" class="node"><title>Node1</title>
<g id="a_node1"><a xlink:title="Compress the graph into a CSR representation, and get pointers to it.">
<polygon fill="#bfbfbf" stroke="black" points="197,-0.5 197,-30.5 358,-30.5 358,-0.5 197,-0.5"/>
<text text-anchor="start" x="205" y="-18.5" font-family="Helvetica,sans-Serif" font-size="10.00">HumanFactors.SpatialStructures.</text>
<text text-anchor="middle" x="277.5" y="-7.5" font-family="Helvetica,sans-Serif" font-size="10.00">Graph.CompressToCSR</text>
</a>
</g>
</g>
<!-- Node2 -->
<g id="node2" class="node"><title>Node2</title>
<g id="a_node2"><a xlink:href="class_human_factors_1_1_spatial_structures_1_1_graph.html#a45a2d5b16092f8389210dc47f722a539" target="_top" xlink:title="Summarize the edgecosts of every node in the graph.">
<polygon fill="white" stroke="black" points="0,-0.5 0,-30.5 161,-30.5 161,-0.5 0,-0.5"/>
<text text-anchor="start" x="8" y="-18.5" font-family="Helvetica,sans-Serif" font-size="10.00">HumanFactors.SpatialStructures.</text>
<text text-anchor="middle" x="80.5" y="-7.5" font-family="Helvetica,sans-Serif" font-size="10.00">Graph.AggregateEdgeCosts</text>
</a>
</g>
</g>
<!-- Node1&#45;&gt;Node2 -->
<g id="edge1" class="edge"><title>Node1&#45;&gt;Node2</title>
<path fill="none" stroke="midnightblue" d="M186.883,-15.5C178.3,-15.5 169.635,-15.5 161.157,-15.5"/>
<polygon fill="midnightblue" stroke="midnightblue" points="186.905,-19.0001 196.905,-15.5 186.905,-12.0001 186.905,-19.0001"/>
</g>
</g>
</svg>
