<?xml version="1.0" encoding="UTF-8" standalone="no"?>
<!DOCTYPE svg PUBLIC "-//W3C//DTD SVG 1.1//EN"
 "http://www.w3.org/Graphics/SVG/1.1/DTD/svg11.dtd">
<!-- Generated by graphviz version 2.38.0 (20140413.2041)
 -->
<!-- Title: HumanFactors.VisibilityGraph.NativeMethods.CreateVisibilityGraphAllToAll Pages: 1 -->
<svg width="601pt" height="50pt"
 viewBox="0.00 0.00 601.00 50.00" xmlns="http://www.w3.org/2000/svg" xmlns:xlink="http://www.w3.org/1999/xlink">
<g id="graph0" class="graph" transform="scale(1 1) rotate(0) translate(4 46)">
<title>HumanFactors.VisibilityGraph.NativeMethods.CreateVisibilityGraphAllToAll</title>
<polygon fill="white" stroke="none" points="-4,4 -4,-46 597,-46 597,4 -4,4"/>
<!-- Node1 -->
<g id="node1" class="node"><title>Node1</title>
<g id="a_node1"><a xlink:title=" ">
<polygon fill="#bfbfbf" stroke="black" points="418,-0.5 418,-41.5 593,-41.5 593,-0.5 418,-0.5"/>
<text text-anchor="start" x="426" y="-29.5" font-family="Helvetica,sans-Serif" font-size="10.00">HumanFactors.VisibilityGraph.</text>
<text text-anchor="start" x="426" y="-18.5" font-family="Helvetica,sans-Serif" font-size="10.00">NativeMethods.CreateVisibilityGraph</text>
<text text-anchor="middle" x="505.5" y="-7.5" font-family="Helvetica,sans-Serif" font-size="10.00">AllToAll</text>
</a>
</g>
</g>
<!-- Node2 -->
<g id="node2" class="node"><title>Node2</title>
<g id="a_node2"><a xlink:href="class_human_factors_1_1_visibility_graph_1_1_native_methods.html#a1d143831fb37b4a2195d70a94cb3d977" target="_top" xlink:title="Generate a visibility graph in C++.">
<polygon fill="white" stroke="black" points="191,-6 191,-36 382,-36 382,-6 191,-6"/>
<text text-anchor="start" x="199" y="-24" font-family="Helvetica,sans-Serif" font-size="10.00">HumanFactors.VisibilityGraph.</text>
<text text-anchor="middle" x="286.5" y="-13" font-family="Helvetica,sans-Serif" font-size="10.00">NativeMethods.C_AllToAllVisibilityGraph</text>
</a>
</g>
</g>
<!-- Node1&#45;&gt;Node2 -->
<g id="edge1" class="edge"><title>Node1&#45;&gt;Node2</title>
<path fill="none" stroke="midnightblue" d="M407.591,-21C399.171,-21 390.658,-21 382.256,-21"/>
<polygon fill="midnightblue" stroke="midnightblue" points="407.8,-24.5001 417.8,-21 407.8,-17.5001 407.8,-24.5001"/>
</g>
<!-- Node3 -->
<g id="node3" class="node"><title>Node3</title>
<g id="a_node3"><a xlink:href="class_human_factors_1_1_visibility_graph_1_1_visibility_graph.html#a6b9e6d59435543aebc5a42beea7e916d" target="_top" xlink:title="Create a visibility graph from every node to every node in nodes.">
<polygon fill="white" stroke="black" points="0,-6 0,-36 155,-36 155,-6 0,-6"/>
<text text-anchor="start" x="8" y="-24" font-family="Helvetica,sans-Serif" font-size="10.00">HumanFactors.VisibilityGraph.</text>
<text text-anchor="middle" x="77.5" y="-13" font-family="Helvetica,sans-Serif" font-size="10.00">VisibilityGraph.GenerateAllToAll</text>
</a>
</g>
</g>
<!-- Node2&#45;&gt;Node3 -->
<g id="edge2" class="edge"><title>Node2&#45;&gt;Node3</title>
<path fill="none" stroke="midnightblue" d="M180.701,-21C172.104,-21 163.519,-21 155.184,-21"/>
<polygon fill="midnightblue" stroke="midnightblue" points="180.784,-24.5001 190.784,-21 180.784,-17.5001 180.784,-24.5001"/>
</g>
</g>
</svg>
