<?xml version="1.0" encoding="UTF-8" standalone="no"?>
<!DOCTYPE svg PUBLIC "-//W3C//DTD SVG 1.1//EN"
 "http://www.w3.org/Graphics/SVG/1.1/DTD/svg11.dtd">
<!-- Generated by graphviz version 2.38.0 (20140413.2041)
 -->
<!-- Title: HumanFactors.Geometry.NativeMethods.C_LoadOBJ Pages: 1 -->
<svg width="379pt" height="88pt"
 viewBox="0.00 0.00 379.00 88.00" xmlns="http://www.w3.org/2000/svg" xmlns:xlink="http://www.w3.org/1999/xlink">
<g id="graph0" class="graph" transform="scale(1 1) rotate(0) translate(4 84)">
<title>HumanFactors.Geometry.NativeMethods.C_LoadOBJ</title>
<polygon fill="white" stroke="none" points="-4,4 -4,-84 375,-84 375,4 -4,4"/>
<!-- Node1 -->
<g id="node1" class="node"><title>Node1</title>
<g id="a_node1"><a xlink:title="Load an obj file from the given filepath into a MeshInfo object in native memory.">
<polygon fill="#bfbfbf" stroke="black" points="216,-24.5 216,-54.5 371,-54.5 371,-24.5 216,-24.5"/>
<text text-anchor="start" x="224" y="-42.5" font-family="Helvetica,sans-Serif" font-size="10.00">HumanFactors.Geometry.Native</text>
<text text-anchor="middle" x="293.5" y="-31.5" font-family="Helvetica,sans-Serif" font-size="10.00">Methods.C_LoadOBJ</text>
</a>
</g>
</g>
<!-- Node2 -->
<g id="node2" class="node"><title>Node2</title>
<g id="a_node2"><a xlink:href="class_human_factors_1_1_geometry_1_1_o_b_j_loader.html#a098857909670796a533833086d753fb2" target="_top" xlink:title="Load an obj from the OBJ file at the given filepath.">
<polygon fill="white" stroke="black" points="0,-49.5 0,-79.5 180,-79.5 180,-49.5 0,-49.5"/>
<text text-anchor="start" x="8" y="-67.5" font-family="Helvetica,sans-Serif" font-size="10.00">HumanFactors.Geometry.OBJLoader.</text>
<text text-anchor="middle" x="90" y="-56.5" font-family="Helvetica,sans-Serif" font-size="10.00">LoadOBJ</text>
</a>
</g>
</g>
<!-- Node1&#45;&gt;Node2 -->
<g id="edge1" class="edge"><title>Node1&#45;&gt;Node2</title>
<path fill="none" stroke="midnightblue" d="M205.8,-50.2568C197.261,-51.3163 188.584,-52.3929 180.021,-53.4552"/>
<polygon fill="midnightblue" stroke="midnightblue" points="206.254,-53.7275 215.747,-49.0227 205.392,-46.7807 206.254,-53.7275"/>
</g>
<!-- Node3 -->
<g id="node3" class="node"><title>Node3</title>
<g id="a_node3"><a xlink:href="class_human_factors_1_1_geometry_1_1_o_b_j_loader.html#a547be54200d1c611af119660ce97ef13" target="_top" xlink:title="Load an obj from the OBJ file at the given filepath.">
<polygon fill="white" stroke="black" points="0,-0.5 0,-30.5 180,-30.5 180,-0.5 0,-0.5"/>
<text text-anchor="start" x="8" y="-18.5" font-family="Helvetica,sans-Serif" font-size="10.00">HumanFactors.Geometry.OBJLoader.</text>
<text text-anchor="middle" x="90" y="-7.5" font-family="Helvetica,sans-Serif" font-size="10.00">LoadOBJSubmeshes</text>
</a>
</g>
</g>
<!-- Node1&#45;&gt;Node3 -->
<g id="edge2" class="edge"><title>Node1&#45;&gt;Node3</title>
<path fill="none" stroke="midnightblue" d="M205.8,-29.1735C197.261,-28.1563 188.584,-27.1229 180.021,-26.103"/>
<polygon fill="midnightblue" stroke="midnightblue" points="205.403,-32.6508 215.747,-30.3582 206.231,-25.6999 205.403,-32.6508"/>
</g>
</g>
</svg>
