<?xml version="1.0" encoding="UTF-8" standalone="no"?>
<!DOCTYPE svg PUBLIC "-//W3C//DTD SVG 1.1//EN"
 "http://www.w3.org/Graphics/SVG/1.1/DTD/svg11.dtd">
<!-- Generated by graphviz version 2.38.0 (20140413.2041)
 -->
<!-- Title: HumanFactors.Pathfinding.NativeMethods.CreatePaths Pages: 1 -->
<svg width="778pt" height="39pt"
 viewBox="0.00 0.00 778.00 39.00" xmlns="http://www.w3.org/2000/svg" xmlns:xlink="http://www.w3.org/1999/xlink">
<g id="graph0" class="graph" transform="scale(1 1) rotate(0) translate(4 35)">
<title>HumanFactors.Pathfinding.NativeMethods.CreatePaths</title>
<polygon fill="white" stroke="none" points="-4,4 -4,-35 774,-35 774,4 -4,4"/>
<!-- Node1 -->
<g id="node1" class="node"><title>Node1</title>
<g id="a_node1"><a xlink:title=" ">
<polygon fill="#bfbfbf" stroke="black" points="633,-0.5 633,-30.5 770,-30.5 770,-0.5 633,-0.5"/>
<text text-anchor="start" x="641" y="-18.5" font-family="Helvetica,sans-Serif" font-size="10.00">HumanFactors.Pathfinding.</text>
<text text-anchor="middle" x="701.5" y="-7.5" font-family="Helvetica,sans-Serif" font-size="10.00">NativeMethods.CreatePaths</text>
</a>
</g>
</g>
<!-- Node2 -->
<g id="node2" class="node"><title>Node2</title>
<g id="a_node2"><a xlink:href="class_human_factors_1_1_pathfinding_1_1_native_methods.html#a1b79d24699fd670918524395024e9777" target="_top" xlink:title="Generate a path from start to end.">
<polygon fill="white" stroke="black" points="448,-0.5 448,-30.5 597,-30.5 597,-0.5 448,-0.5"/>
<text text-anchor="start" x="456" y="-18.5" font-family="Helvetica,sans-Serif" font-size="10.00">HumanFactors.Pathfinding.</text>
<text text-anchor="middle" x="522.5" y="-7.5" font-family="Helvetica,sans-Serif" font-size="10.00">NativeMethods.C_CreatePaths</text>
</a>
</g>
</g>
<!-- Node1&#45;&gt;Node2 -->
<g id="edge1" class="edge"><title>Node1&#45;&gt;Node2</title>
<path fill="none" stroke="midnightblue" d="M622.563,-15.5C614.077,-15.5 605.46,-15.5 597.03,-15.5"/>
<polygon fill="midnightblue" stroke="midnightblue" points="622.826,-19.0001 632.826,-15.5 622.826,-12.0001 622.826,-19.0001"/>
</g>
<!-- Node3 -->
<g id="node3" class="node"><title>Node3</title>
<g id="a_node3"><a xlink:href="class_human_factors_1_1_pathfinding_1_1_shortest_path.html#ab7f58f298125194e33d6c69ed4797442" target="_top" xlink:title="Find the shortest paths between each pair of start_id and end_id in order.">
<polygon fill="white" stroke="black" points="224,-0.5 224,-30.5 412,-30.5 412,-0.5 224,-0.5"/>
<text text-anchor="start" x="232" y="-18.5" font-family="Helvetica,sans-Serif" font-size="10.00">HumanFactors.Pathfinding.</text>
<text text-anchor="middle" x="318" y="-7.5" font-family="Helvetica,sans-Serif" font-size="10.00">ShortestPath.DijkstraShortestPathMulti</text>
</a>
</g>
</g>
<!-- Node2&#45;&gt;Node3 -->
<g id="edge2" class="edge"><title>Node2&#45;&gt;Node3</title>
<path fill="none" stroke="midnightblue" d="M437.704,-15.5C429.33,-15.5 420.793,-15.5 412.329,-15.5"/>
<polygon fill="midnightblue" stroke="midnightblue" points="437.82,-19.0001 447.82,-15.5 437.82,-12.0001 437.82,-19.0001"/>
</g>
<!-- Node4 -->
<g id="node4" class="node"><title>Node4</title>
<g id="a_node4"><a xlink:href="class_human_factors_1_1_pathfinding_1_1_shortest_path.html#a9fb6fc6aff938136f7f9de42e5d8e5bc" target="_top" xlink:title="Find the shortest paths between each pair of start_id and end_id in order.">
<polygon fill="white" stroke="black" points="0,-0.5 0,-30.5 188,-30.5 188,-0.5 0,-0.5"/>
<text text-anchor="start" x="8" y="-18.5" font-family="Helvetica,sans-Serif" font-size="10.00">HumanFactors.Pathfinding.</text>
<text text-anchor="middle" x="94" y="-7.5" font-family="Helvetica,sans-Serif" font-size="10.00">ShortestPath.DijkstraShortestPathMulti</text>
</a>
</g>
</g>
<!-- Node3&#45;&gt;Node4 -->
<g id="edge3" class="edge"><title>Node3&#45;&gt;Node4</title>
<path fill="none" stroke="midnightblue" d="M213.575,-15.5C205.143,-15.5 196.653,-15.5 188.3,-15.5"/>
<polygon fill="midnightblue" stroke="midnightblue" points="213.817,-19.0001 223.817,-15.5 213.817,-12.0001 213.817,-19.0001"/>
</g>
</g>
</svg>
