<?xml version="1.0" encoding="UTF-8" standalone="no"?>
<!DOCTYPE svg PUBLIC "-//W3C//DTD SVG 1.1//EN"
 "http://www.w3.org/Graphics/SVG/1.1/DTD/svg11.dtd">
<!-- Generated by graphviz version 2.38.0 (20140413.2041)
 -->
<!-- Title: HumanFactors.Geometry.NativeMethods.C_LoadOBJ Pages: 1 -->
<svg width="365pt" height="88pt"
 viewBox="0.00 0.00 365.00 88.00" xmlns="http://www.w3.org/2000/svg" xmlns:xlink="http://www.w3.org/1999/xlink">
<g id="graph0" class="graph" transform="scale(1 1) rotate(0) translate(4 84)">
<title>HumanFactors.Geometry.NativeMethods.C_LoadOBJ</title>
<polygon fill="white" stroke="none" points="-4,4 -4,-84 361,-84 361,4 -4,4"/>
<!-- Node1 -->
<g id="node1" class="node"><title>Node1</title>
<g id="a_node1"><a xlink:title="Load an obj file from the given filepath into a MeshInfo object in native memory.">
<polygon fill="#bfbfbf" stroke="black" points="0,-24.5 0,-54.5 155,-54.5 155,-24.5 0,-24.5"/>
<text text-anchor="start" x="8" y="-42.5" font-family="Helvetica,sans-Serif" font-size="10.00">HumanFactors.Geometry.Native</text>
<text text-anchor="middle" x="77.5" y="-31.5" font-family="Helvetica,sans-Serif" font-size="10.00">Methods.C_LoadOBJ</text>
</a>
</g>
</g>
<!-- Node2 -->
<g id="node2" class="node"><title>Node2</title>
<g id="a_node2"><a xlink:href="class_human_factors_1_1_geometry_1_1_native_methods.html#afabb869f681644d45281bc477ea23428" target="_top" xlink:title=" ">
<polygon fill="white" stroke="black" points="191,-49.5 191,-79.5 357,-79.5 357,-49.5 191,-49.5"/>
<text text-anchor="start" x="199" y="-67.5" font-family="Helvetica,sans-Serif" font-size="10.00">HumanFactors.Geometry.Native</text>
<text text-anchor="middle" x="274" y="-56.5" font-family="Helvetica,sans-Serif" font-size="10.00">Methods.DestroyMeshInfoPtrArray</text>
</a>
</g>
</g>
<!-- Node1&#45;&gt;Node2 -->
<g id="edge1" class="edge"><title>Node1&#45;&gt;Node2</title>
<path fill="none" stroke="midnightblue" d="M155.092,-49.3448C163.497,-50.4251 172.118,-51.5331 180.687,-52.6346"/>
<polygon fill="midnightblue" stroke="midnightblue" points="180.343,-56.119 190.707,-53.9225 181.235,-49.1761 180.343,-56.119"/>
</g>
<!-- Node3 -->
<g id="node3" class="node"><title>Node3</title>
<g id="a_node3"><a xlink:href="class_human_factors_1_1_geometry_1_1_native_methods.html#af49891cdd4e8196b9e77cf51c93bb772" target="_top" xlink:title=" ">
<polygon fill="white" stroke="black" points="196.5,-0.5 196.5,-30.5 351.5,-30.5 351.5,-0.5 196.5,-0.5"/>
<text text-anchor="start" x="204.5" y="-18.5" font-family="Helvetica,sans-Serif" font-size="10.00">HumanFactors.Geometry.Native</text>
<text text-anchor="middle" x="274" y="-7.5" font-family="Helvetica,sans-Serif" font-size="10.00">Methods.LoadOBJ</text>
</a>
</g>
</g>
<!-- Node1&#45;&gt;Node3 -->
<g id="edge2" class="edge"><title>Node1&#45;&gt;Node3</title>
<path fill="none" stroke="midnightblue" d="M155.092,-30.049C165.404,-28.7766 176.04,-27.4642 186.509,-26.1725"/>
<polygon fill="midnightblue" stroke="midnightblue" points="186.981,-29.6408 196.477,-24.9424 186.124,-22.6935 186.981,-29.6408"/>
</g>
</g>
</svg>
