<?xml version="1.0" encoding="UTF-8" standalone="no"?>
<!DOCTYPE svg PUBLIC "-//W3C//DTD SVG 1.1//EN"
 "http://www.w3.org/Graphics/SVG/1.1/DTD/svg11.dtd">
<!-- Generated by graphviz version 2.38.0 (20140413.2041)
 -->
<!-- Title: HumanFactors.SpatialStructures.Graph.NumNodes Pages: 1 -->
<svg width="376pt" height="198pt"
 viewBox="0.00 0.00 376.00 197.50" xmlns="http://www.w3.org/2000/svg" xmlns:xlink="http://www.w3.org/1999/xlink">
<g id="graph0" class="graph" transform="scale(1 1) rotate(0) translate(4 193.5)">
<title>HumanFactors.SpatialStructures.Graph.NumNodes</title>
<polygon fill="white" stroke="none" points="-4,4 -4,-193.5 372,-193.5 372,4 -4,4"/>
<!-- Node1 -->
<g id="node1" class="node"><title>Node1</title>
<g id="a_node1"><a xlink:title="Get the number of nodes in this graph.">
<polygon fill="#bfbfbf" stroke="black" points="207,-85 207,-115 368,-115 368,-85 207,-85"/>
<text text-anchor="start" x="215" y="-103" font-family="Helvetica,sans-Serif" font-size="10.00">HumanFactors.SpatialStructures.</text>
<text text-anchor="middle" x="287.5" y="-92" font-family="Helvetica,sans-Serif" font-size="10.00">Graph.NumNodes</text>
</a>
</g>
</g>
<!-- Node2 -->
<g id="node2" class="node"><title>Node2</title>
<g id="a_node2"><a xlink:href="class_human_factors_1_1_spatial_structures_1_1_graph.html#a5b02773d3b7f547a8b31b90300406ca0" target="_top" xlink:title="Add attribute to all node in ids, with their respective score in scores.">
<polygon fill="white" stroke="black" points="5,-159 5,-189 166,-189 166,-159 5,-159"/>
<text text-anchor="start" x="13" y="-177" font-family="Helvetica,sans-Serif" font-size="10.00">HumanFactors.SpatialStructures.</text>
<text text-anchor="middle" x="85.5" y="-166" font-family="Helvetica,sans-Serif" font-size="10.00">Graph.AddNodeAttribute&lt; T &gt;</text>
</a>
</g>
</g>
<!-- Node1&#45;&gt;Node2 -->
<g id="edge1" class="edge"><title>Node1&#45;&gt;Node2</title>
<path fill="none" stroke="midnightblue" d="M245.305,-119.406C223.495,-129.277 196.098,-141.047 171,-150 162.238,-153.125 152.854,-156.124 143.642,-158.879"/>
<polygon fill="midnightblue" stroke="midnightblue" points="246.952,-122.502 254.595,-115.164 244.044,-116.134 246.952,-122.502"/>
</g>
<!-- Node3 -->
<g id="node3" class="node"><title>Node3</title>
<g id="a_node3"><a xlink:href="class_human_factors_1_1_spatial_structures_1_1_graph.html#a45a2d5b16092f8389210dc47f722a539" target="_top" xlink:title="Summarize the edgecosts of every node in the graph.">
<polygon fill="white" stroke="black" points="5,-110 5,-140 166,-140 166,-110 5,-110"/>
<text text-anchor="start" x="13" y="-128" font-family="Helvetica,sans-Serif" font-size="10.00">HumanFactors.SpatialStructures.</text>
<text text-anchor="middle" x="85.5" y="-117" font-family="Helvetica,sans-Serif" font-size="10.00">Graph.AggregateEdgeCosts</text>
</a>
</g>
</g>
<!-- Node1&#45;&gt;Node3 -->
<g id="edge2" class="edge"><title>Node1&#45;&gt;Node3</title>
<path fill="none" stroke="midnightblue" d="M196.751,-111.219C186.559,-112.493 176.223,-113.785 166.173,-115.041"/>
<polygon fill="midnightblue" stroke="midnightblue" points="197.391,-114.666 206.88,-109.952 196.523,-107.72 197.391,-114.666"/>
</g>
<!-- Node4 -->
<g id="node4" class="node"><title>Node4</title>
<g id="a_node4"><a xlink:href="class_human_factors_1_1_pathfinding_1_1_shortest_path.html#a3ede2597cc17a4f1a130741b0163bbab" target="_top" xlink:title="Generate a path from every node in the graph to every other node in a graph.">
<polygon fill="white" stroke="black" points="14,-61 14,-91 157,-91 157,-61 14,-61"/>
<text text-anchor="start" x="22" y="-79" font-family="Helvetica,sans-Serif" font-size="10.00">HumanFactors.Pathfinding.</text>
<text text-anchor="middle" x="85.5" y="-68" font-family="Helvetica,sans-Serif" font-size="10.00">ShortestPath.DijkstraAllToAll</text>
</a>
</g>
</g>
<!-- Node1&#45;&gt;Node4 -->
<g id="edge3" class="edge"><title>Node1&#45;&gt;Node4</title>
<path fill="none" stroke="midnightblue" d="M196.777,-89.2333C183.483,-87.6379 169.943,-86.0132 157.113,-84.4735"/>
<polygon fill="midnightblue" stroke="midnightblue" points="196.534,-92.7291 206.88,-90.4456 197.368,-85.779 196.534,-92.7291"/>
</g>
<!-- Node5 -->
<g id="node5" class="node"><title>Node5</title>
<g id="a_node5"><a xlink:href="class_human_factors_1_1_pathfinding_1_1_shortest_path.html#abf65038bac66da2c403034c05f83bee9" target="_top" xlink:title="Calculate Predecessor and Distance Matricies for a graph.">
<polygon fill="white" stroke="black" points="0,-0.5 0,-41.5 171,-41.5 171,-0.5 0,-0.5"/>
<text text-anchor="start" x="8" y="-29.5" font-family="Helvetica,sans-Serif" font-size="10.00">HumanFactors.Pathfinding.</text>
<text text-anchor="start" x="8" y="-18.5" font-family="Helvetica,sans-Serif" font-size="10.00">ShortestPath.GeneratePredecessor</text>
<text text-anchor="middle" x="85.5" y="-7.5" font-family="Helvetica,sans-Serif" font-size="10.00">AndDistanceMatricies</text>
</a>
</g>
</g>
<!-- Node1&#45;&gt;Node5 -->
<g id="edge4" class="edge"><title>Node1&#45;&gt;Node5</title>
<path fill="none" stroke="midnightblue" d="M241.813,-80.9124C220.464,-71.9262 194.5,-61.1892 171,-52 162.123,-48.5287 152.678,-44.9516 143.441,-41.5162"/>
<polygon fill="midnightblue" stroke="midnightblue" points="240.698,-84.2406 251.272,-84.9061 243.421,-77.7919 240.698,-84.2406"/>
</g>
</g>
</svg>
