<?xml version="1.0" encoding="UTF-8" standalone="no"?>
<!DOCTYPE svg PUBLIC "-//W3C//DTD SVG 1.1//EN"
 "http://www.w3.org/Graphics/SVG/1.1/DTD/svg11.dtd">
<!-- Generated by graphviz version 2.38.0 (20140413.2041)
 -->
<!-- Title: HumanFactors.NativeUtils.NativeObject.UpdatePressure Pages: 1 -->
<svg width="341pt" height="137pt"
 viewBox="0.00 0.00 341.00 137.00" xmlns="http://www.w3.org/2000/svg" xmlns:xlink="http://www.w3.org/1999/xlink">
<g id="graph0" class="graph" transform="scale(1 1) rotate(0) translate(4 133)">
<title>HumanFactors.NativeUtils.NativeObject.UpdatePressure</title>
<polygon fill="white" stroke="none" points="-4,4 -4,-133 337,-133 337,4 -4,4"/>
<!-- Node1 -->
<g id="node1" class="node"><title>Node1</title>
<g id="a_node1"><a xlink:title="Update the pressure of this object.">
<polygon fill="#bfbfbf" stroke="black" points="189,-49.5 189,-79.5 333,-79.5 333,-49.5 189,-49.5"/>
<text text-anchor="start" x="197" y="-67.5" font-family="Helvetica,sans-Serif" font-size="10.00">HumanFactors.NativeUtils.</text>
<text text-anchor="middle" x="261" y="-56.5" font-family="Helvetica,sans-Serif" font-size="10.00">NativeObject.UpdatePressure</text>
</a>
</g>
</g>
<!-- Node2 -->
<g id="node2" class="node"><title>Node2</title>
<g id="a_node2"><a xlink:href="class_human_factors_1_1_ray_tracing_1_1_embree_b_v_h.html#aeb7347e829fd81d6da236e1ca8852f09" target="_top" xlink:title="Add a new mesh to the BVH.">
<polygon fill="white" stroke="black" points="9,-98.5 9,-128.5 144,-128.5 144,-98.5 9,-98.5"/>
<text text-anchor="start" x="17" y="-116.5" font-family="Helvetica,sans-Serif" font-size="10.00">HumanFactors.RayTracing.</text>
<text text-anchor="middle" x="76.5" y="-105.5" font-family="Helvetica,sans-Serif" font-size="10.00">EmbreeBVH.AddMesh</text>
</a>
</g>
</g>
<!-- Node1&#45;&gt;Node2 -->
<g id="edge1" class="edge"><title>Node1&#45;&gt;Node2</title>
<path fill="none" stroke="midnightblue" d="M193.896,-82.2485C174.117,-87.5591 152.628,-93.3288 133.559,-98.4484"/>
<polygon fill="midnightblue" stroke="midnightblue" points="195.005,-85.5749 203.755,-79.6014 193.189,-78.8143 195.005,-85.5749"/>
</g>
<!-- Node3 -->
<g id="node3" class="node"><title>Node3</title>
<g id="a_node3"><a xlink:href="class_human_factors_1_1_ray_tracing_1_1_embree_b_v_h.html#a738510fcc29c83190c33673c14f6173b" target="_top" xlink:title="Construct a BVH from an array of meshes.">
<polygon fill="white" stroke="black" points="9,-49.5 9,-79.5 144,-79.5 144,-49.5 9,-49.5"/>
<text text-anchor="start" x="17" y="-67.5" font-family="Helvetica,sans-Serif" font-size="10.00">HumanFactors.RayTracing.</text>
<text text-anchor="middle" x="76.5" y="-56.5" font-family="Helvetica,sans-Serif" font-size="10.00">EmbreeBVH.EmbreeBVH</text>
</a>
</g>
</g>
<!-- Node1&#45;&gt;Node3 -->
<g id="edge2" class="edge"><title>Node1&#45;&gt;Node3</title>
<path fill="none" stroke="midnightblue" d="M178.824,-64.5C167.252,-64.5 155.461,-64.5 144.208,-64.5"/>
<polygon fill="midnightblue" stroke="midnightblue" points="178.918,-68.0001 188.918,-64.5 178.918,-61.0001 178.918,-68.0001"/>
</g>
<!-- Node4 -->
<g id="node4" class="node"><title>Node4</title>
<g id="a_node4"><a xlink:href="class_human_factors_1_1_geometry_1_1_mesh_info.html#a7840f891fd3f7b38f64c5e1619ebc812" target="_top" xlink:title="Create a new meshinfo instance from the given pointer.">
<polygon fill="white" stroke="black" points="0,-0.5 0,-30.5 153,-30.5 153,-0.5 0,-0.5"/>
<text text-anchor="start" x="8" y="-18.5" font-family="Helvetica,sans-Serif" font-size="10.00">HumanFactors.Geometry.Mesh</text>
<text text-anchor="middle" x="76.5" y="-7.5" font-family="Helvetica,sans-Serif" font-size="10.00">Info.MeshInfo</text>
</a>
</g>
</g>
<!-- Node1&#45;&gt;Node4 -->
<g id="edge3" class="edge"><title>Node1&#45;&gt;Node4</title>
<path fill="none" stroke="midnightblue" d="M193.896,-46.7515C174.117,-41.4409 152.628,-35.6712 133.559,-30.5516"/>
<polygon fill="midnightblue" stroke="midnightblue" points="193.189,-50.1857 203.755,-49.3986 195.005,-43.4251 193.189,-50.1857"/>
</g>
</g>
</svg>
