<?xml version="1.0" encoding="UTF-8" standalone="no"?>
<!DOCTYPE svg PUBLIC "-//W3C//DTD SVG 1.1//EN"
 "http://www.w3.org/Graphics/SVG/1.1/DTD/svg11.dtd">
<!-- Generated by graphviz version 2.38.0 (20140413.2041)
 -->
<!-- Title: HumanFactors.NativeUtils.CommonNativeArrays.UnmanagedIntArray2D.ReleaseHandle Pages: 1 -->
<svg width="400pt" height="50pt"
 viewBox="0.00 0.00 400.00 50.00" xmlns="http://www.w3.org/2000/svg" xmlns:xlink="http://www.w3.org/1999/xlink">
<g id="graph0" class="graph" transform="scale(1 1) rotate(0) translate(4 46)">
<title>HumanFactors.NativeUtils.CommonNativeArrays.UnmanagedIntArray2D.ReleaseHandle</title>
<polygon fill="white" stroke="none" points="-4,4 -4,-46 396,-46 396,4 -4,4"/>
<!-- Node1 -->
<g id="node1" class="node"><title>Node1</title>
<g id="a_node1"><a xlink:title="Free the native memory managed by this class.">
<polygon fill="#bfbfbf" stroke="black" points="0,-0.5 0,-41.5 176,-41.5 176,-0.5 0,-0.5"/>
<text text-anchor="start" x="8" y="-29.5" font-family="Helvetica,sans-Serif" font-size="10.00">HumanFactors.NativeUtils.</text>
<text text-anchor="start" x="8" y="-18.5" font-family="Helvetica,sans-Serif" font-size="10.00">CommonNativeArrays.UnmanagedInt</text>
<text text-anchor="middle" x="88" y="-7.5" font-family="Helvetica,sans-Serif" font-size="10.00">Array2D.ReleaseHandle</text>
</a>
</g>
</g>
<!-- Node2 -->
<g id="node2" class="node"><title>Node2</title>
<g id="a_node2"><a xlink:href="class_human_factors_1_1_native_utils_1_1_common_native_arrays_1_1_native_methods.html#ae12fd0bd87f452e55c19ed8d4f96dff9" target="_top" xlink:title=" ">
<polygon fill="white" stroke="black" points="212,-0.5 212,-41.5 392,-41.5 392,-0.5 212,-0.5"/>
<text text-anchor="start" x="220" y="-29.5" font-family="Helvetica,sans-Serif" font-size="10.00">HumanFactors.NativeUtils.</text>
<text text-anchor="start" x="220" y="-18.5" font-family="Helvetica,sans-Serif" font-size="10.00">CommonNativeArrays.NativeMethods.</text>
<text text-anchor="middle" x="302" y="-7.5" font-family="Helvetica,sans-Serif" font-size="10.00">DestroyIntVector</text>
</a>
</g>
</g>
<!-- Node1&#45;&gt;Node2 -->
<g id="edge1" class="edge"><title>Node1&#45;&gt;Node2</title>
<path fill="none" stroke="midnightblue" d="M176.146,-21C184.601,-21 193.221,-21 201.782,-21"/>
<polygon fill="midnightblue" stroke="midnightblue" points="201.791,-24.5001 211.791,-21 201.791,-17.5001 201.791,-24.5001"/>
</g>
</g>
</svg>
