<?xml version="1.0" encoding="UTF-8" standalone="no"?>
<!DOCTYPE svg PUBLIC "-//W3C//DTD SVG 1.1//EN"
 "http://www.w3.org/Graphics/SVG/1.1/DTD/svg11.dtd">
<!-- Generated by graphviz version 2.38.0 (20140413.2041)
 -->
<!-- Title: HumanFactors.Pathfinding.ShortestPath.DijkstraShortestPath Pages: 1 -->
<svg width="728pt" height="112pt"
 viewBox="0.00 0.00 728.00 112.00" xmlns="http://www.w3.org/2000/svg" xmlns:xlink="http://www.w3.org/1999/xlink">
<g id="graph0" class="graph" transform="scale(1 1) rotate(0) translate(4 108)">
<title>HumanFactors.Pathfinding.ShortestPath.DijkstraShortestPath</title>
<polygon fill="white" stroke="none" points="-4,4 -4,-108 724,-108 724,4 -4,4"/>
<!-- Node1 -->
<g id="node1" class="node"><title>Node1</title>
<g id="a_node1"><a xlink:title="Perform Dijkstra&#39;s shortest path algorithm to find a path between two nodes.">
<polygon fill="#bfbfbf" stroke="black" points="0,-24.5 0,-54.5 167,-54.5 167,-24.5 0,-24.5"/>
<text text-anchor="start" x="8" y="-42.5" font-family="Helvetica,sans-Serif" font-size="10.00">HumanFactors.Pathfinding.</text>
<text text-anchor="middle" x="83.5" y="-31.5" font-family="Helvetica,sans-Serif" font-size="10.00">ShortestPath.DijkstraShortestPath</text>
</a>
</g>
</g>
<!-- Node2 -->
<g id="node2" class="node"><title>Node2</title>
<g id="a_node2"><a xlink:href="class_human_factors_1_1_pathfinding_1_1_shortest_path.html#adc3fbf31af391a4ce9efd911c0c74fee" target="_top" xlink:title="Perform Dijkstra&#39;s shortest path algorithm to find a path between two nodes.">
<polygon fill="white" stroke="black" points="203,-49.5 203,-79.5 370,-79.5 370,-49.5 203,-49.5"/>
<text text-anchor="start" x="211" y="-67.5" font-family="Helvetica,sans-Serif" font-size="10.00">HumanFactors.Pathfinding.</text>
<text text-anchor="middle" x="286.5" y="-56.5" font-family="Helvetica,sans-Serif" font-size="10.00">ShortestPath.DijkstraShortestPath</text>
</a>
</g>
</g>
<!-- Node1&#45;&gt;Node2 -->
<g id="edge1" class="edge"><title>Node1&#45;&gt;Node2</title>
<path fill="none" stroke="midnightblue" d="M167.125,-49.7767C175.607,-50.8318 184.266,-51.9087 192.848,-52.9761"/>
<polygon fill="midnightblue" stroke="midnightblue" points="192.516,-56.4617 202.872,-54.2228 193.38,-49.5152 192.516,-56.4617"/>
</g>
<!-- Node6 -->
<g id="node6" class="node"><title>Node6</title>
<g id="a_node6"><a xlink:href="class_human_factors_1_1_spatial_structures_1_1_graph.html#abe9106fd9584269e1291702aa401f6ac" target="_top" xlink:title="Gets the ID of a node in the graph.">
<polygon fill="white" stroke="black" points="206,-0.5 206,-30.5 367,-30.5 367,-0.5 206,-0.5"/>
<text text-anchor="start" x="214" y="-18.5" font-family="Helvetica,sans-Serif" font-size="10.00">HumanFactors.SpatialStructures.</text>
<text text-anchor="middle" x="286.5" y="-7.5" font-family="Helvetica,sans-Serif" font-size="10.00">Graph.GetNodeID</text>
</a>
</g>
</g>
<!-- Node1&#45;&gt;Node6 -->
<g id="edge5" class="edge"><title>Node1&#45;&gt;Node6</title>
<path fill="none" stroke="midnightblue" d="M167.125,-29.6344C176.508,-28.514 186.105,-27.368 195.576,-26.2371"/>
<polygon fill="midnightblue" stroke="midnightblue" points="196.273,-29.6789 205.788,-25.0179 195.443,-22.7283 196.273,-29.6789"/>
</g>
<!-- Node3 -->
<g id="node3" class="node"><title>Node3</title>
<g id="a_node3"><a xlink:href="class_human_factors_1_1_pathfinding_1_1_native_methods.html#a000ba4e4cf47dc3eff4c6ecbd61354ab" target="_top" xlink:title="Generate a path from start to end.">
<polygon fill="white" stroke="black" points="406,-73.5 406,-103.5 550,-103.5 550,-73.5 406,-73.5"/>
<text text-anchor="start" x="414" y="-91.5" font-family="Helvetica,sans-Serif" font-size="10.00">HumanFactors.Pathfinding.</text>
<text text-anchor="middle" x="478" y="-80.5" font-family="Helvetica,sans-Serif" font-size="10.00">NativeMethods.C_CreatePath</text>
</a>
</g>
</g>
<!-- Node2&#45;&gt;Node3 -->
<g id="edge2" class="edge"><title>Node2&#45;&gt;Node3</title>
<path fill="none" stroke="midnightblue" d="M370.066,-74.9569C378.669,-76.0464 387.407,-77.1532 395.992,-78.2405"/>
<polygon fill="midnightblue" stroke="midnightblue" points="395.622,-81.7214 405.982,-79.5057 396.501,-74.7769 395.622,-81.7214"/>
</g>
<!-- Node5 -->
<g id="node5" class="node"><title>Node5</title>
<g id="a_node5"><a xlink:href="struct_human_factors_1_1_native_utils_1_1_c_vector_and_data.html#ad6bec7bcd679afd2ef978232595ebb40" target="_top" xlink:title="Determine whether or not this CVectorAndData points to a actual vector.">
<polygon fill="white" stroke="black" points="412,-24.5 412,-54.5 544,-54.5 544,-24.5 412,-24.5"/>
<text text-anchor="start" x="420" y="-42.5" font-family="Helvetica,sans-Serif" font-size="10.00">HumanFactors.NativeUtils.</text>
<text text-anchor="middle" x="478" y="-31.5" font-family="Helvetica,sans-Serif" font-size="10.00">CVectorAndData.IsValid</text>
</a>
</g>
</g>
<!-- Node2&#45;&gt;Node5 -->
<g id="edge4" class="edge"><title>Node2&#45;&gt;Node5</title>
<path fill="none" stroke="midnightblue" d="M370.066,-53.6074C380.539,-52.2258 391.213,-50.8175 401.566,-49.4517"/>
<polygon fill="midnightblue" stroke="midnightblue" points="402.337,-52.8804 411.793,-48.1025 401.421,-45.9406 402.337,-52.8804"/>
</g>
<!-- Node4 -->
<g id="node4" class="node"><title>Node4</title>
<g id="a_node4"><a xlink:href="class_human_factors_1_1_pathfinding_1_1_native_methods.html#aad3740f1d798a3bc25ede5b9c47f3cf1" target="_top" xlink:title=" ">
<polygon fill="white" stroke="black" points="586,-73.5 586,-103.5 720,-103.5 720,-73.5 586,-73.5"/>
<text text-anchor="start" x="594" y="-91.5" font-family="Helvetica,sans-Serif" font-size="10.00">HumanFactors.Pathfinding.</text>
<text text-anchor="middle" x="653" y="-80.5" font-family="Helvetica,sans-Serif" font-size="10.00">NativeMethods.CreatePath</text>
</a>
</g>
</g>
<!-- Node3&#45;&gt;Node4 -->
<g id="edge3" class="edge"><title>Node3&#45;&gt;Node4</title>
<path fill="none" stroke="midnightblue" d="M550.365,-88.5C558.702,-88.5 567.233,-88.5 575.635,-88.5"/>
<polygon fill="midnightblue" stroke="midnightblue" points="575.798,-92.0001 585.798,-88.5 575.798,-85.0001 575.798,-92.0001"/>
</g>
</g>
</svg>
