<?xml version="1.0" encoding="UTF-8" standalone="no"?>
<!DOCTYPE svg PUBLIC "-//W3C//DTD SVG 1.1//EN"
 "http://www.w3.org/Graphics/SVG/1.1/DTD/svg11.dtd">
<!-- Generated by graphviz version 2.38.0 (20140413.2041)
 -->
<!-- Title: HumanFactors.Pathfinding.NativeMethods.C_GeneratePredecessorAndDistanceMatricies Pages: 1 -->
<svg width="405pt" height="50pt"
 viewBox="0.00 0.00 405.00 50.00" xmlns="http://www.w3.org/2000/svg" xmlns:xlink="http://www.w3.org/1999/xlink">
<g id="graph0" class="graph" transform="scale(1 1) rotate(0) translate(4 46)">
<title>HumanFactors.Pathfinding.NativeMethods.C_GeneratePredecessorAndDistanceMatricies</title>
<polygon fill="white" stroke="none" points="-4,4 -4,-46 401,-46 401,4 -4,4"/>
<!-- Node1 -->
<g id="node1" class="node"><title>Node1</title>
<g id="a_node1"><a xlink:title="Calculate Predecessor and Distance Matricies for a graph in C++.">
<polygon fill="#bfbfbf" stroke="black" points="207,-0.5 207,-41.5 397,-41.5 397,-0.5 207,-0.5"/>
<text text-anchor="start" x="215" y="-29.5" font-family="Helvetica,sans-Serif" font-size="10.00">HumanFactors.Pathfinding.</text>
<text text-anchor="start" x="215" y="-18.5" font-family="Helvetica,sans-Serif" font-size="10.00">NativeMethods.C_GeneratePredecessor</text>
<text text-anchor="middle" x="302" y="-7.5" font-family="Helvetica,sans-Serif" font-size="10.00">AndDistanceMatricies</text>
</a>
</g>
</g>
<!-- Node2 -->
<g id="node2" class="node"><title>Node2</title>
<g id="a_node2"><a xlink:href="class_human_factors_1_1_pathfinding_1_1_shortest_path.html#abf65038bac66da2c403034c05f83bee9" target="_top" xlink:title="Calculate Predecessor and Distance Matricies for a graph.">
<polygon fill="white" stroke="black" points="0,-0.5 0,-41.5 171,-41.5 171,-0.5 0,-0.5"/>
<text text-anchor="start" x="8" y="-29.5" font-family="Helvetica,sans-Serif" font-size="10.00">HumanFactors.Pathfinding.</text>
<text text-anchor="start" x="8" y="-18.5" font-family="Helvetica,sans-Serif" font-size="10.00">ShortestPath.GeneratePredecessor</text>
<text text-anchor="middle" x="85.5" y="-7.5" font-family="Helvetica,sans-Serif" font-size="10.00">AndDistanceMatricies</text>
</a>
</g>
</g>
<!-- Node1&#45;&gt;Node2 -->
<g id="edge1" class="edge"><title>Node1&#45;&gt;Node2</title>
<path fill="none" stroke="midnightblue" d="M196.811,-21C188.18,-21 179.522,-21 171.062,-21"/>
<polygon fill="midnightblue" stroke="midnightblue" points="196.917,-24.5001 206.917,-21 196.917,-17.5001 196.917,-24.5001"/>
</g>
</g>
</svg>
