<?xml version="1.0" encoding="UTF-8" standalone="no"?>
<!DOCTYPE svg PUBLIC "-//W3C//DTD SVG 1.1//EN"
 "http://www.w3.org/Graphics/SVG/1.1/DTD/svg11.dtd">
<!-- Generated by graphviz version 2.38.0 (20140413.2041)
 -->
<!-- Title: HumanFactors.Pathfinding.ShortestPath.DijkstraShortestPath Pages: 1 -->
<svg width="525pt" height="88pt"
 viewBox="0.00 0.00 525.00 88.00" xmlns="http://www.w3.org/2000/svg" xmlns:xlink="http://www.w3.org/1999/xlink">
<g id="graph0" class="graph" transform="scale(1 1) rotate(0) translate(4 84)">
<title>HumanFactors.Pathfinding.ShortestPath.DijkstraShortestPath</title>
<polygon fill="white" stroke="none" points="-4,4 -4,-84 521,-84 521,4 -4,4"/>
<!-- Node1 -->
<g id="node1" class="node"><title>Node1</title>
<g id="a_node1"><a xlink:title="Perform Dijkstra&#39;s shortest path algorithm to find a path between two nodes.">
<polygon fill="#bfbfbf" stroke="black" points="0,-24.5 0,-54.5 167,-54.5 167,-24.5 0,-24.5"/>
<text text-anchor="start" x="8" y="-42.5" font-family="Helvetica,sans-Serif" font-size="10.00">HumanFactors.Pathfinding.</text>
<text text-anchor="middle" x="83.5" y="-31.5" font-family="Helvetica,sans-Serif" font-size="10.00">ShortestPath.DijkstraShortestPath</text>
</a>
</g>
</g>
<!-- Node2 -->
<g id="node2" class="node"><title>Node2</title>
<g id="a_node2"><a xlink:href="class_human_factors_1_1_pathfinding_1_1_native_methods.html#a000ba4e4cf47dc3eff4c6ecbd61354ab" target="_top" xlink:title="Generate a path from start to end.">
<polygon fill="white" stroke="black" points="203,-49.5 203,-79.5 347,-79.5 347,-49.5 203,-49.5"/>
<text text-anchor="start" x="211" y="-67.5" font-family="Helvetica,sans-Serif" font-size="10.00">HumanFactors.Pathfinding.</text>
<text text-anchor="middle" x="275" y="-56.5" font-family="Helvetica,sans-Serif" font-size="10.00">NativeMethods.C_CreatePath</text>
</a>
</g>
</g>
<!-- Node1&#45;&gt;Node2 -->
<g id="edge1" class="edge"><title>Node1&#45;&gt;Node2</title>
<path fill="none" stroke="midnightblue" d="M167.066,-50.3926C175.669,-51.5275 184.407,-52.6804 192.992,-53.813"/>
<polygon fill="midnightblue" stroke="midnightblue" points="192.61,-57.2928 202.982,-55.1309 193.526,-50.353 192.61,-57.2928"/>
</g>
<!-- Node4 -->
<g id="node4" class="node"><title>Node4</title>
<g id="a_node4"><a xlink:href="struct_human_factors_1_1_native_utils_1_1_c_vector_and_data.html#ad6bec7bcd679afd2ef978232595ebb40" target="_top" xlink:title="Determine whether or not this CVectorAndData points to a actual vector.">
<polygon fill="white" stroke="black" points="209,-0.5 209,-30.5 341,-30.5 341,-0.5 209,-0.5"/>
<text text-anchor="start" x="217" y="-18.5" font-family="Helvetica,sans-Serif" font-size="10.00">HumanFactors.NativeUtils.</text>
<text text-anchor="middle" x="275" y="-7.5" font-family="Helvetica,sans-Serif" font-size="10.00">CVectorAndData.IsValid</text>
</a>
</g>
</g>
<!-- Node1&#45;&gt;Node4 -->
<g id="edge3" class="edge"><title>Node1&#45;&gt;Node4</title>
<path fill="none" stroke="midnightblue" d="M167.066,-29.0431C177.539,-27.7167 188.213,-26.3648 198.566,-25.0536"/>
<polygon fill="midnightblue" stroke="midnightblue" points="199.312,-28.4872 208.793,-23.7584 198.433,-21.5427 199.312,-28.4872"/>
</g>
<!-- Node3 -->
<g id="node3" class="node"><title>Node3</title>
<g id="a_node3"><a xlink:href="class_human_factors_1_1_pathfinding_1_1_native_methods.html#aad3740f1d798a3bc25ede5b9c47f3cf1" target="_top" xlink:title=" ">
<polygon fill="white" stroke="black" points="383,-49.5 383,-79.5 517,-79.5 517,-49.5 383,-49.5"/>
<text text-anchor="start" x="391" y="-67.5" font-family="Helvetica,sans-Serif" font-size="10.00">HumanFactors.Pathfinding.</text>
<text text-anchor="middle" x="450" y="-56.5" font-family="Helvetica,sans-Serif" font-size="10.00">NativeMethods.CreatePath</text>
</a>
</g>
</g>
<!-- Node2&#45;&gt;Node3 -->
<g id="edge2" class="edge"><title>Node2&#45;&gt;Node3</title>
<path fill="none" stroke="midnightblue" d="M347.365,-64.5C355.702,-64.5 364.233,-64.5 372.635,-64.5"/>
<polygon fill="midnightblue" stroke="midnightblue" points="372.798,-68.0001 382.798,-64.5 372.798,-61.0001 372.798,-68.0001"/>
</g>
</g>
</svg>
