<?xml version="1.0" encoding="UTF-8" standalone="no"?>
<!DOCTYPE svg PUBLIC "-//W3C//DTD SVG 1.1//EN"
 "http://www.w3.org/Graphics/SVG/1.1/DTD/svg11.dtd">
<!-- Generated by graphviz version 2.38.0 (20140413.2041)
 -->
<!-- Title: HumanFactors.RayTracing.NativeMethods.C_FireOcclusionRays Pages: 1 -->
<svg width="394pt" height="88pt"
 viewBox="0.00 0.00 394.00 88.00" xmlns="http://www.w3.org/2000/svg" xmlns:xlink="http://www.w3.org/1999/xlink">
<g id="graph0" class="graph" transform="scale(1 1) rotate(0) translate(4 84)">
<title>HumanFactors.RayTracing.NativeMethods.C_FireOcclusionRays</title>
<polygon fill="white" stroke="none" points="-4,4 -4,-84 390,-84 390,4 -4,4"/>
<!-- Node1 -->
<g id="node1" class="node"><title>Node1</title>
<g id="a_node1"><a xlink:title="Cast occlusion rays in C++ using embree.">
<polygon fill="#bfbfbf" stroke="black" points="0,-24.5 0,-54.5 178,-54.5 178,-24.5 0,-24.5"/>
<text text-anchor="start" x="8" y="-42.5" font-family="Helvetica,sans-Serif" font-size="10.00">HumanFactors.RayTracing.</text>
<text text-anchor="middle" x="89" y="-31.5" font-family="Helvetica,sans-Serif" font-size="10.00">NativeMethods.C_FireOcclusionRays</text>
</a>
</g>
</g>
<!-- Node2 -->
<g id="node2" class="node"><title>Node2</title>
<g id="a_node2"><a xlink:href="class_human_factors_1_1_ray_tracing_1_1_native_methods.html#af942902fcb3b3fb189e0384da3791a12" target="_top" xlink:title=" ">
<polygon fill="white" stroke="black" points="217,-49.5 217,-79.5 383,-79.5 383,-49.5 217,-49.5"/>
<text text-anchor="start" x="225" y="-67.5" font-family="Helvetica,sans-Serif" font-size="10.00">HumanFactors.RayTracing.</text>
<text text-anchor="middle" x="300" y="-56.5" font-family="Helvetica,sans-Serif" font-size="10.00">NativeMethods.FireOcclusionRays</text>
</a>
</g>
</g>
<!-- Node1&#45;&gt;Node2 -->
<g id="edge1" class="edge"><title>Node1&#45;&gt;Node2</title>
<path fill="none" stroke="midnightblue" d="M178.029,-50.0298C187.451,-51.1568 197.055,-52.3057 206.527,-53.4386"/>
<polygon fill="midnightblue" stroke="midnightblue" points="206.391,-56.9473 216.736,-54.6598 207.223,-49.9968 206.391,-56.9473"/>
</g>
<!-- Node3 -->
<g id="node3" class="node"><title>Node3</title>
<g id="a_node3"><a xlink:href="class_human_factors_1_1_native_utils_1_1_helper_functions.html#a1b8660057551684c95da0edd711293e6" target="_top" xlink:title="Convert a vector array into an array of floats.">
<polygon fill="white" stroke="black" points="214,-0.5 214,-30.5 386,-30.5 386,-0.5 214,-0.5"/>
<text text-anchor="start" x="222" y="-18.5" font-family="Helvetica,sans-Serif" font-size="10.00">HumanFactors.NativeUtils.</text>
<text text-anchor="middle" x="300" y="-7.5" font-family="Helvetica,sans-Serif" font-size="10.00">HelperFunctions.FlattenVectorArray</text>
</a>
</g>
</g>
<!-- Node1&#45;&gt;Node3 -->
<g id="edge2" class="edge"><title>Node1&#45;&gt;Node3</title>
<path fill="none" stroke="midnightblue" d="M178.029,-29.3914C186.528,-28.4154 195.177,-27.4223 203.742,-26.4387"/>
<polygon fill="midnightblue" stroke="midnightblue" points="204.209,-29.9082 213.744,-25.2901 203.41,-22.9539 204.209,-29.9082"/>
</g>
</g>
</svg>
