<?xml version="1.0" encoding="UTF-8" standalone="no"?>
<!DOCTYPE svg PUBLIC "-//W3C//DTD SVG 1.1//EN"
 "http://www.w3.org/Graphics/SVG/1.1/DTD/svg11.dtd">
<!-- Generated by graphviz version 2.38.0 (20140413.2041)
 -->
<!-- Title: HumanFactors.SpatialStructures.NativeMethods.AggregateCosts Pages: 1 -->
<svg width="590pt" height="39pt"
 viewBox="0.00 0.00 590.00 39.00" xmlns="http://www.w3.org/2000/svg" xmlns:xlink="http://www.w3.org/1999/xlink">
<g id="graph0" class="graph" transform="scale(1 1) rotate(0) translate(4 35)">
<title>HumanFactors.SpatialStructures.NativeMethods.AggregateCosts</title>
<polygon fill="white" stroke="none" points="-4,4 -4,-35 586,-35 586,4 -4,4"/>
<!-- Node1 -->
<g id="node1" class="node"><title>Node1</title>
<g id="a_node1"><a xlink:title=" ">
<polygon fill="#bfbfbf" stroke="black" points="421,-0.5 421,-30.5 582,-30.5 582,-0.5 421,-0.5"/>
<text text-anchor="start" x="429" y="-18.5" font-family="Helvetica,sans-Serif" font-size="10.00">HumanFactors.SpatialStructures.</text>
<text text-anchor="middle" x="501.5" y="-7.5" font-family="Helvetica,sans-Serif" font-size="10.00">NativeMethods.AggregateCosts</text>
</a>
</g>
</g>
<!-- Node2 -->
<g id="node2" class="node"><title>Node2</title>
<g id="a_node2"><a xlink:href="class_human_factors_1_1_spatial_structures_1_1_native_methods.html#a30608108f5adb70a2e28167a41921770" target="_top" xlink:title="Summarize the edgecosts of every node in the graph.">
<polygon fill="white" stroke="black" points="197,-0.5 197,-30.5 385,-30.5 385,-0.5 197,-0.5"/>
<text text-anchor="start" x="205" y="-18.5" font-family="Helvetica,sans-Serif" font-size="10.00">HumanFactors.SpatialStructures.</text>
<text text-anchor="middle" x="291" y="-7.5" font-family="Helvetica,sans-Serif" font-size="10.00">NativeMethods.C_AggregateEdgeCosts</text>
</a>
</g>
</g>
<!-- Node1&#45;&gt;Node2 -->
<g id="edge1" class="edge"><title>Node1&#45;&gt;Node2</title>
<path fill="none" stroke="midnightblue" d="M410.621,-15.5C402.226,-15.5 393.704,-15.5 385.28,-15.5"/>
<polygon fill="midnightblue" stroke="midnightblue" points="410.783,-19.0001 420.783,-15.5 410.783,-12.0001 410.783,-19.0001"/>
</g>
<!-- Node3 -->
<g id="node3" class="node"><title>Node3</title>
<g id="a_node3"><a xlink:href="class_human_factors_1_1_spatial_structures_1_1_graph.html#a45a2d5b16092f8389210dc47f722a539" target="_top" xlink:title="Summarize the edgecosts of every node in the graph.">
<polygon fill="white" stroke="black" points="0,-0.5 0,-30.5 161,-30.5 161,-0.5 0,-0.5"/>
<text text-anchor="start" x="8" y="-18.5" font-family="Helvetica,sans-Serif" font-size="10.00">HumanFactors.SpatialStructures.</text>
<text text-anchor="middle" x="80.5" y="-7.5" font-family="Helvetica,sans-Serif" font-size="10.00">Graph.AggregateEdgeCosts</text>
</a>
</g>
</g>
<!-- Node2&#45;&gt;Node3 -->
<g id="edge2" class="edge"><title>Node2&#45;&gt;Node3</title>
<path fill="none" stroke="midnightblue" d="M186.724,-15.5C178.187,-15.5 169.642,-15.5 161.317,-15.5"/>
<polygon fill="midnightblue" stroke="midnightblue" points="186.727,-19.0001 196.727,-15.5 186.727,-12.0001 186.727,-19.0001"/>
</g>
</g>
</svg>
