<?xml version="1.0" encoding="UTF-8" standalone="no"?>
<!DOCTYPE svg PUBLIC "-//W3C//DTD SVG 1.1//EN"
 "http://www.w3.org/Graphics/SVG/1.1/DTD/svg11.dtd">
<!-- Generated by graphviz version 2.38.0 (20140413.2041)
 -->
<!-- Title: HumanFactors.Geometry.NativeMethods.TrisAndVertsReturn Pages: 1 -->
<svg width="163pt" height="117pt"
 viewBox="0.00 0.00 163.00 117.00" xmlns="http://www.w3.org/2000/svg" xmlns:xlink="http://www.w3.org/1999/xlink">
<g id="graph0" class="graph" transform="scale(1 1) rotate(0) translate(4 113)">
<title>HumanFactors.Geometry.NativeMethods.TrisAndVertsReturn</title>
<polygon fill="white" stroke="none" points="-4,4 -4,-113 159,-113 159,4 -4,4"/>
<!-- Node1 -->
<g id="node1" class="node"><title>Node1</title>
<g id="a_node1"><a xlink:title=" ">
<polygon fill="#bfbfbf" stroke="black" points="0,-0.5 0,-30.5 155,-30.5 155,-0.5 0,-0.5"/>
<text text-anchor="start" x="8" y="-18.5" font-family="Helvetica,sans-Serif" font-size="10.00">HumanFactors.Geometry.Native</text>
<text text-anchor="middle" x="77.5" y="-7.5" font-family="Helvetica,sans-Serif" font-size="10.00">Methods.TrisAndVertsReturn</text>
</a>
</g>
</g>
<!-- Node2 -->
<g id="node2" class="node"><title>Node2</title>
<g id="a_node2"><a xlink:title=" ">
<polygon fill="white" stroke="#bfbfbf" points="37,-89.5 37,-108.5 66,-108.5 66,-89.5 37,-89.5"/>
<text text-anchor="middle" x="51.5" y="-96.5" font-family="Helvetica,sans-Serif" font-size="10.00">int</text>
</a>
</g>
</g>
<!-- Node2&#45;&gt;Node1 -->
<g id="edge1" class="edge"><title>Node2&#45;&gt;Node1</title>
<path fill="none" stroke="#9a32cd" stroke-dasharray="5,2" d="M54.1951,-79.0896C55.8018,-69.8653 58.1856,-58.6956 61.5,-49 63.6157,-42.811 66.653,-36.2868 69.514,-30.7212"/>
<polygon fill="#9a32cd" stroke="#9a32cd" points="50.7097,-78.7234 52.6102,-89.1464 57.6243,-79.8131 50.7097,-78.7234"/>
<text text-anchor="middle" x="72" y="-63" font-family="Helvetica,sans-Serif" font-size="10.00"> tris</text>
<text text-anchor="middle" x="72" y="-52" font-family="Helvetica,sans-Serif" font-size="10.00">verts</text>
</g>
<!-- Node3 -->
<g id="node3" class="node"><title>Node3</title>
<g id="a_node3"><a xlink:title=" ">
<polygon fill="white" stroke="#bfbfbf" points="84.5,-89.5 84.5,-108.5 124.5,-108.5 124.5,-89.5 84.5,-89.5"/>
<text text-anchor="middle" x="104.5" y="-96.5" font-family="Helvetica,sans-Serif" font-size="10.00">IntPtr</text>
</a>
</g>
</g>
<!-- Node3&#45;&gt;Node1 -->
<g id="edge2" class="edge"><title>Node3&#45;&gt;Node1</title>
<path fill="none" stroke="#9a32cd" stroke-dasharray="5,2" d="M98.4253,-79.6633C93.5037,-64.8073 86.6709,-44.1824 82.1703,-30.5974"/>
<polygon fill="#9a32cd" stroke="#9a32cd" points="95.1432,-80.8861 101.611,-89.2781 101.788,-78.6847 95.1432,-80.8861"/>
<text text-anchor="middle" x="113" y="-63" font-family="Helvetica,sans-Serif" font-size="10.00"> vert_ptr</text>
<text text-anchor="middle" x="113" y="-52" font-family="Helvetica,sans-Serif" font-size="10.00">tri_ptr</text>
</g>
</g>
</svg>
