<?xml version="1.0" encoding="UTF-8" standalone="no"?>
<!DOCTYPE svg PUBLIC "-//W3C//DTD SVG 1.1//EN"
 "http://www.w3.org/Graphics/SVG/1.1/DTD/svg11.dtd">
<!-- Generated by graphviz version 2.38.0 (20140413.2041)
 -->
<!-- Title: HumanFactors.SpatialStructures.Node Pages: 1 -->
<svg width="192pt" height="117pt"
 viewBox="0.00 0.00 192.00 117.00" xmlns="http://www.w3.org/2000/svg" xmlns:xlink="http://www.w3.org/1999/xlink">
<g id="graph0" class="graph" transform="scale(1 1) rotate(0) translate(4 113)">
<title>HumanFactors.SpatialStructures.Node</title>
<polygon fill="white" stroke="none" points="-4,4 -4,-113 188,-113 188,4 -4,4"/>
<!-- Node1 -->
<g id="node1" class="node"><title>Node1</title>
<g id="a_node1"><a xlink:title="A point in space.">
<polygon fill="#bfbfbf" stroke="black" points="0,-0.5 0,-19.5 184,-19.5 184,-0.5 0,-0.5"/>
<text text-anchor="middle" x="92" y="-7.5" font-family="Helvetica,sans-Serif" font-size="10.00">HumanFactors.SpatialStructures.Node</text>
</a>
</g>
</g>
<!-- Node2 -->
<g id="node2" class="node"><title>Node2</title>
<g id="a_node2"><a xlink:title=" ">
<polygon fill="white" stroke="#bfbfbf" points="18,-89.5 18,-108.5 56,-108.5 56,-89.5 18,-89.5"/>
<text text-anchor="middle" x="37" y="-96.5" font-family="Helvetica,sans-Serif" font-size="10.00">short</text>
</a>
</g>
</g>
<!-- Node2&#45;&gt;Node1 -->
<g id="edge1" class="edge"><title>Node2&#45;&gt;Node1</title>
<path fill="none" stroke="#9a32cd" stroke-dasharray="5,2" d="M44.0249,-79.771C49.1973,-67.4351 56.8965,-51.0702 66,-38 70.6863,-31.2717 77.058,-24.6259 82.3208,-19.6112"/>
<polygon fill="#9a32cd" stroke="#9a32cd" points="40.6404,-78.8066 40.158,-89.3904 47.1353,-81.4175 40.6404,-78.8066"/>
<text text-anchor="middle" x="77" y="-52" font-family="Helvetica,sans-Serif" font-size="10.00"> type</text>
</g>
<!-- Node3 -->
<g id="node3" class="node"><title>Node3</title>
<g id="a_node3"><a xlink:title=" ">
<polygon fill="white" stroke="#bfbfbf" points="74.5,-89.5 74.5,-108.5 109.5,-108.5 109.5,-89.5 74.5,-89.5"/>
<text text-anchor="middle" x="92" y="-96.5" font-family="Helvetica,sans-Serif" font-size="10.00">float</text>
</a>
</g>
</g>
<!-- Node3&#45;&gt;Node1 -->
<g id="edge2" class="edge"><title>Node3&#45;&gt;Node1</title>
<path fill="none" stroke="#9a32cd" stroke-dasharray="5,2" d="M92,-79.1946C92,-60.7379 92,-33.412 92,-19.6249"/>
<polygon fill="#9a32cd" stroke="#9a32cd" points="88.5001,-79.34 92,-89.34 95.5001,-79.3401 88.5001,-79.34"/>
<text text-anchor="middle" x="96.5" y="-63" font-family="Helvetica,sans-Serif" font-size="10.00"> x</text>
<text text-anchor="middle" x="96.5" y="-52" font-family="Helvetica,sans-Serif" font-size="10.00">y</text>
<text text-anchor="middle" x="96.5" y="-41" font-family="Helvetica,sans-Serif" font-size="10.00">z</text>
</g>
<!-- Node4 -->
<g id="node4" class="node"><title>Node4</title>
<g id="a_node4"><a xlink:title=" ">
<polygon fill="white" stroke="#bfbfbf" points="127.5,-89.5 127.5,-108.5 156.5,-108.5 156.5,-89.5 127.5,-89.5"/>
<text text-anchor="middle" x="142" y="-96.5" font-family="Helvetica,sans-Serif" font-size="10.00">int</text>
</a>
</g>
</g>
<!-- Node4&#45;&gt;Node1 -->
<g id="edge3" class="edge"><title>Node4&#45;&gt;Node1</title>
<path fill="none" stroke="#9a32cd" stroke-dasharray="5,2" d="M131.934,-80.4854C121.33,-62.0344 105.067,-33.7371 96.9569,-19.6249"/>
<polygon fill="#9a32cd" stroke="#9a32cd" points="129.006,-82.4139 137.023,-89.34 135.075,-78.9259 129.006,-82.4139"/>
<text text-anchor="middle" x="131.5" y="-52" font-family="Helvetica,sans-Serif" font-size="10.00"> id</text>
</g>
</g>
</svg>
