# Rhino

mtllib plane_walled.mtl
g object_1
usemtl diffuse_Black
v -20.109973907470703 18.891495704650879 0
v -20.109973907470703 -18.891495704650879 0
v 20.109973907470703 18.891495704650879 0
v 20.109973907470703 -18.891495704650879 0
vt 0 0
vt 0 1
vt 1 0
vt 1 1
vn 0 0 -1
vn 0 0 -1
vn 0 0 -1
vn 0 0 -1
f 4/4/4 2/2/2 1/1/1 3/3/3
g object_1
usemtl diffuse_Black
v -20.109973907470703 0 18.891495704650879
v -20.109973907470703 0 -18.891495704650879
v 20.109973907470703 0 18.891495704650879
v 20.109973907470703 0 -18.891495704650879
vt 0 0
vt 0 1
vt 1 0
vt 1 1
vn 0 1 0
vn 0 1 0
vn 0 1 0
vn 0 1 0
f 8/8/8 6/6/6 5/5/5 7/7/7
