<?xml version="1.0" encoding="UTF-8" standalone="no"?>
<!DOCTYPE svg PUBLIC "-//W3C//DTD SVG 1.1//EN"
 "http://www.w3.org/Graphics/SVG/1.1/DTD/svg11.dtd">
<!-- Generated by graphviz version 4.0.0 (20220529.0937)
 -->
<!-- Title: HumanFactors.RayTracing.EmbreeBVH.AddMesh Pages: 1 -->
<svg width="714pt" height="173pt"
 viewBox="0.00 0.00 714.00 173.00" xmlns="http://www.w3.org/2000/svg" xmlns:xlink="http://www.w3.org/1999/xlink">
<g id="graph0" class="graph" transform="scale(1 1) rotate(0) translate(4 169)">
<title>HumanFactors.RayTracing.EmbreeBVH.AddMesh</title>
<polygon fill="white" stroke="transparent" points="-4,4 -4,-169 710,-169 710,4 -4,4"/>
<!-- Node1 -->
<g id="node1" class="node">
<title>Node1</title>
<g id="a_node1"><a xlink:title="Add a new mesh to the BVH.">
<polygon fill="#bfbfbf" stroke="black" points="0,-67.5 0,-97.5 135,-97.5 135,-67.5 0,-67.5"/>
<text text-anchor="start" x="8" y="-85.5" font-family="Helvetica,sans-Serif" font-size="10.00">HumanFactors.RayTracing.</text>
<text text-anchor="middle" x="67.5" y="-74.5" font-family="Helvetica,sans-Serif" font-size="10.00">EmbreeBVH.AddMesh</text>
</a>
</g>
</g>
<!-- Node2 -->
<g id="node2" class="node">
<title>Node2</title>
<g id="a_node2"><a xlink:href="class_human_factors_1_1_ray_tracing_1_1_native_methods.html#afccba3761364c8aa7fa62111482c0201" target="_top" xlink:title=" ">
<polygon fill="white" stroke="black" points="179,-116.5 179,-146.5 316,-146.5 316,-116.5 179,-116.5"/>
<text text-anchor="start" x="187" y="-134.5" font-family="Helvetica,sans-Serif" font-size="10.00">HumanFactors.RayTracing.</text>
<text text-anchor="middle" x="247.5" y="-123.5" font-family="Helvetica,sans-Serif" font-size="10.00">NativeMethods.C_AddMesh</text>
</a>
</g>
</g>
<!-- Node1&#45;&gt;Node2 -->
<g id="edge1" class="edge">
<title>Node1&#45;&gt;Node2</title>
<path fill="none" stroke="midnightblue" d="M123.36,-97.6C141.89,-102.7 162.74,-108.44 181.95,-113.73"/>
<polygon fill="midnightblue" stroke="midnightblue" points="181.25,-117.17 191.82,-116.45 183.11,-110.42 181.25,-117.17"/>
</g>
<!-- Node3 -->
<g id="node3" class="node">
<title>Node3</title>
<g id="a_node3"><a xlink:href="class_human_factors_1_1_geometry_1_1_mesh_info.html#aaad33c42141a062f1b046b15c5ad3234" target="_top" xlink:title="Updates this mesh&#39;s name, ID, and arrays with it&#39;s values from C++.">
<polygon fill="white" stroke="black" points="171,-67.5 171,-97.5 324,-97.5 324,-67.5 171,-67.5"/>
<text text-anchor="start" x="179" y="-85.5" font-family="Helvetica,sans-Serif" font-size="10.00">HumanFactors.Geometry.Mesh</text>
<text text-anchor="middle" x="247.5" y="-74.5" font-family="Helvetica,sans-Serif" font-size="10.00">Info.UpdateIDNameAndArrays</text>
</a>
</g>
</g>
<!-- Node1&#45;&gt;Node3 -->
<g id="edge2" class="edge">
<title>Node1&#45;&gt;Node3</title>
<path fill="none" stroke="midnightblue" d="M135.03,-82.5C143.41,-82.5 152.07,-82.5 160.69,-82.5"/>
<polygon fill="midnightblue" stroke="midnightblue" points="160.77,-86 170.77,-82.5 160.77,-79 160.77,-86"/>
</g>
<!-- Node9 -->
<g id="node9" class="node">
<title>Node9</title>
<g id="a_node9"><a xlink:href="class_human_factors_1_1_native_utils_1_1_native_object.html#a39dc264c3bdfaf23655dc2c6b0970609" target="_top" xlink:title="Update the pressure of this object.">
<polygon fill="white" stroke="black" points="175.5,-18.5 175.5,-48.5 319.5,-48.5 319.5,-18.5 175.5,-18.5"/>
<text text-anchor="start" x="183.5" y="-36.5" font-family="Helvetica,sans-Serif" font-size="10.00">HumanFactors.NativeUtils.</text>
<text text-anchor="middle" x="247.5" y="-25.5" font-family="Helvetica,sans-Serif" font-size="10.00">NativeObject.UpdatePressure</text>
</a>
</g>
</g>
<!-- Node1&#45;&gt;Node9 -->
<g id="edge10" class="edge">
<title>Node1&#45;&gt;Node9</title>
<path fill="none" stroke="midnightblue" d="M123.36,-67.4C141.89,-62.3 162.74,-56.56 181.95,-51.27"/>
<polygon fill="midnightblue" stroke="midnightblue" points="183.11,-54.58 191.82,-48.55 181.25,-47.83 183.11,-54.58"/>
</g>
<!-- Node4 -->
<g id="node4" class="node">
<title>Node4</title>
<g id="a_node4"><a xlink:href="class_human_factors_1_1_geometry_1_1_native_methods.html#a5b69d012d662d89072bfb19fa7001551" target="_top" xlink:title="Get pointers to the vertex and index arrays of a mesh in C++.">
<polygon fill="white" stroke="black" points="360,-134.5 360,-164.5 515,-164.5 515,-134.5 360,-134.5"/>
<text text-anchor="start" x="368" y="-152.5" font-family="Helvetica,sans-Serif" font-size="10.00">HumanFactors.Geometry.Native</text>
<text text-anchor="middle" x="437.5" y="-141.5" font-family="Helvetica,sans-Serif" font-size="10.00">Methods.C_GetTrisAndVerts</text>
</a>
</g>
</g>
<!-- Node3&#45;&gt;Node4 -->
<g id="edge3" class="edge">
<title>Node3&#45;&gt;Node4</title>
<path fill="none" stroke="midnightblue" d="M297.61,-97.62C306.48,-100.67 315.58,-104.02 324,-107.5 340.53,-114.33 343.41,-118.8 360,-125.5 364.8,-127.44 369.81,-129.32 374.89,-131.12"/>
<polygon fill="midnightblue" stroke="midnightblue" points="374.07,-134.54 384.66,-134.47 376.34,-127.92 374.07,-134.54"/>
</g>
<!-- Node6 -->
<g id="node6" class="node">
<title>Node6</title>
<g id="a_node6"><a xlink:href="class_human_factors_1_1_geometry_1_1_native_methods.html#a7654f99925f17200fafa76f242d680ee" target="_top" xlink:title="Get the ID of an instance of MeshInfo in c++.">
<polygon fill="white" stroke="black" points="360,-67.5 360,-97.5 515,-97.5 515,-67.5 360,-67.5"/>
<text text-anchor="start" x="368" y="-85.5" font-family="Helvetica,sans-Serif" font-size="10.00">HumanFactors.Geometry.Native</text>
<text text-anchor="middle" x="437.5" y="-74.5" font-family="Helvetica,sans-Serif" font-size="10.00">Methods.GetMeshID</text>
</a>
</g>
</g>
<!-- Node3&#45;&gt;Node6 -->
<g id="edge5" class="edge">
<title>Node3&#45;&gt;Node6</title>
<path fill="none" stroke="midnightblue" d="M324.15,-82.5C332.5,-82.5 341.04,-82.5 349.5,-82.5"/>
<polygon fill="midnightblue" stroke="midnightblue" points="349.78,-86 359.78,-82.5 349.78,-79 349.78,-86"/>
</g>
<!-- Node7 -->
<g id="node7" class="node">
<title>Node7</title>
<g id="a_node7"><a xlink:href="class_human_factors_1_1_geometry_1_1_native_methods.html#a96974b8d53ca2c8c22ed75d249ffe299" target="_top" xlink:title="Get the name of an instance of MeshInfo in c++.">
<polygon fill="white" stroke="black" points="360,-0.5 360,-30.5 515,-30.5 515,-0.5 360,-0.5"/>
<text text-anchor="start" x="368" y="-18.5" font-family="Helvetica,sans-Serif" font-size="10.00">HumanFactors.Geometry.Native</text>
<text text-anchor="middle" x="437.5" y="-7.5" font-family="Helvetica,sans-Serif" font-size="10.00">Methods.GetMeshName</text>
</a>
</g>
</g>
<!-- Node3&#45;&gt;Node7 -->
<g id="edge7" class="edge">
<title>Node3&#45;&gt;Node7</title>
<path fill="none" stroke="midnightblue" d="M297.37,-67.42C306.26,-64.54 315.43,-61.5 324,-58.5 345.54,-50.97 369.16,-42.04 389.18,-34.28"/>
<polygon fill="midnightblue" stroke="midnightblue" points="390.64,-37.47 398.69,-30.57 388.1,-30.94 390.64,-37.47"/>
</g>
<!-- Node5 -->
<g id="node5" class="node">
<title>Node5</title>
<g id="a_node5"><a xlink:href="class_human_factors_1_1_geometry_1_1_native_methods.html#a119a5bc688e5e614e99dc4ac35654a88" target="_top" xlink:title=" ">
<polygon fill="white" stroke="black" points="551,-134.5 551,-164.5 706,-164.5 706,-134.5 551,-134.5"/>
<text text-anchor="start" x="559" y="-152.5" font-family="Helvetica,sans-Serif" font-size="10.00">HumanFactors.Geometry.Native</text>
<text text-anchor="middle" x="628.5" y="-141.5" font-family="Helvetica,sans-Serif" font-size="10.00">Methods.GetVertsAndTris</text>
</a>
</g>
</g>
<!-- Node4&#45;&gt;Node5 -->
<g id="edge4" class="edge">
<title>Node4&#45;&gt;Node5</title>
<path fill="none" stroke="midnightblue" d="M515.1,-149.5C523.56,-149.5 532.22,-149.5 540.79,-149.5"/>
<polygon fill="midnightblue" stroke="midnightblue" points="540.79,-153 550.79,-149.5 540.79,-146 540.79,-153"/>
</g>
<!-- Node6&#45;&gt;Node6 -->
<g id="edge6" class="edge">
<title>Node6&#45;&gt;Node6</title>
<path fill="none" stroke="midnightblue" d="M404.39,-97.66C396.4,-107.06 407.44,-116 437.5,-116 455.82,-116 467.07,-112.68 471.26,-107.96"/>
<polygon fill="midnightblue" stroke="midnightblue" points="474.73,-107.42 470.61,-97.66 467.75,-107.86 474.73,-107.42"/>
</g>
<!-- Node7&#45;&gt;Node7 -->
<g id="edge9" class="edge">
<title>Node7&#45;&gt;Node7</title>
<path fill="none" stroke="midnightblue" d="M404.39,-30.66C396.4,-40.06 407.44,-49 437.5,-49 455.82,-49 467.07,-45.68 471.26,-40.96"/>
<polygon fill="midnightblue" stroke="midnightblue" points="474.73,-40.42 470.61,-30.66 467.75,-40.86 474.73,-40.42"/>
</g>
<!-- Node8 -->
<g id="node8" class="node">
<title>Node8</title>
<g id="a_node8"><a xlink:href="class_human_factors_1_1_geometry_1_1_native_methods.html#a6caa2abbb40a1663adc5df461a61a034" target="_top" xlink:title=" ">
<polygon fill="white" stroke="black" points="551,-0.5 551,-30.5 706,-30.5 706,-0.5 551,-0.5"/>
<text text-anchor="start" x="559" y="-18.5" font-family="Helvetica,sans-Serif" font-size="10.00">HumanFactors.Geometry.Native</text>
<text text-anchor="middle" x="628.5" y="-7.5" font-family="Helvetica,sans-Serif" font-size="10.00">Methods.DestroyCharArray</text>
</a>
</g>
</g>
<!-- Node7&#45;&gt;Node8 -->
<g id="edge8" class="edge">
<title>Node7&#45;&gt;Node8</title>
<path fill="none" stroke="midnightblue" d="M515.1,-15.5C523.56,-15.5 532.22,-15.5 540.79,-15.5"/>
<polygon fill="midnightblue" stroke="midnightblue" points="540.79,-19 550.79,-15.5 540.79,-12 540.79,-19"/>
</g>
</g>
</svg>
