<?xml version="1.0" encoding="UTF-8" standalone="no"?>
<!DOCTYPE svg PUBLIC "-//W3C//DTD SVG 1.1//EN"
 "http://www.w3.org/Graphics/SVG/1.1/DTD/svg11.dtd">
<!-- Generated by graphviz version 7.0.2 (20221119.0110)
 -->
<!-- Title: DHARTAPI.NativeUtils.NativeArray&lt; T &gt; Pages: 1 -->
<svg width="171pt" height="280pt"
 viewBox="0.00 0.00 171.00 280.00" xmlns="http://www.w3.org/2000/svg" xmlns:xlink="http://www.w3.org/1999/xlink">
<g id="graph0" class="graph" transform="scale(1 1) rotate(0) translate(4 276)">
<title>DHARTAPI.NativeUtils.NativeArray&lt; T &gt;</title>
<!-- Node1 -->
<g id="node1" class="node">
<title>Node1</title>
<g id="a_node1"><a xlink:title="A read&#45;only array stored in unmanaged memory.">
<polygon fill="#999999" stroke="#666666" points="153,-162 10,-162 10,-132 153,-132 153,-162"/>
<text text-anchor="start" x="18" y="-150" font-family="Helvetica,sans-Serif" font-size="10.00">DHARTAPI.NativeUtils.Native</text>
<text text-anchor="middle" x="81.5" y="-139" font-family="Helvetica,sans-Serif" font-size="10.00">Array&lt; T &gt;</text>
</a>
</g>
</g>
<!-- Node4 -->
<g id="node4" class="node">
<title>Node4</title>
<g id="a_node4"><a xlink:href="class_d_h_a_r_t_a_p_i_1_1_native_utils_1_1_native_array2_d.html" target="_top" xlink:title="A wrapper for a two dimensional array in unmanaged memory.">
<polygon fill="white" stroke="#666666" points="153,-96 10,-96 10,-66 153,-66 153,-96"/>
<text text-anchor="start" x="18" y="-84" font-family="Helvetica,sans-Serif" font-size="10.00">DHARTAPI.NativeUtils.Native</text>
<text text-anchor="middle" x="81.5" y="-73" font-family="Helvetica,sans-Serif" font-size="10.00">Array2D&lt; T &gt;</text>
</a>
</g>
</g>
<!-- Node1&#45;&gt;Node4 -->
<g id="edge3" class="edge">
<title>Node1&#45;&gt;Node4</title>
<path fill="none" stroke="#63b8ff" d="M81.5,-120.39C81.5,-112.13 81.5,-103.28 81.5,-96.16"/>
<polygon fill="#63b8ff" stroke="#63b8ff" points="78,-120.28 81.5,-130.28 85,-120.28 78,-120.28"/>
</g>
<!-- Node2 -->
<g id="node2" class="node">
<title>Node2</title>
<g id="a_node2"><a xlink:href="class_d_h_a_r_t_a_p_i_1_1_native_utils_1_1_native_object.html" target="_top" xlink:title="An object that holds a pointer to unmanaged memory or some other resource that must be freed.">
<polygon fill="white" stroke="#666666" points="117,-217 46,-217 46,-198 117,-198 117,-217"/>
<text text-anchor="middle" x="81.5" y="-205" font-family="Helvetica,sans-Serif" font-size="10.00">NativeObject</text>
</a>
</g>
</g>
<!-- Node2&#45;&gt;Node1 -->
<g id="edge1" class="edge">
<title>Node2&#45;&gt;Node1</title>
<path fill="none" stroke="#63b8ff" d="M81.5,-186.51C81.5,-178.49 81.5,-169.43 81.5,-162.11"/>
<polygon fill="#63b8ff" stroke="#63b8ff" points="78,-186.35 81.5,-196.35 85,-186.35 78,-186.35"/>
</g>
<!-- Node3 -->
<g id="node3" class="node">
<title>Node3</title>
<g id="a_node3"><a xlink:href="class_safe_handle.html" target="_top" xlink:title=" ">
<polygon fill="white" stroke="#666666" points="114.5,-272 48.5,-272 48.5,-253 114.5,-253 114.5,-272"/>
<text text-anchor="middle" x="81.5" y="-260" font-family="Helvetica,sans-Serif" font-size="10.00">SafeHandle</text>
</a>
</g>
</g>
<!-- Node3&#45;&gt;Node2 -->
<g id="edge2" class="edge">
<title>Node3&#45;&gt;Node2</title>
<path fill="none" stroke="#63b8ff" d="M81.5,-241.35C81.5,-233.1 81.5,-223.97 81.5,-217.44"/>
<polygon fill="#63b8ff" stroke="#63b8ff" points="78,-241.23 81.5,-251.23 85,-241.23 78,-241.23"/>
</g>
<!-- Node5 -->
<g id="node5" class="node">
<title>Node5</title>
<g id="a_node5"><a xlink:href="class_d_h_a_r_t_a_p_i_1_1_native_utils_1_1_dependent_native_array.html" target="_top" xlink:title="A native array 2D that doesn&#39;t require destruction.">
<polygon fill="white" stroke="#666666" points="163,-30 0,-30 0,0 163,0 163,-30"/>
<text text-anchor="start" x="8" y="-18" font-family="Helvetica,sans-Serif" font-size="10.00">DHARTAPI.NativeUtils.Dependent</text>
<text text-anchor="middle" x="81.5" y="-7" font-family="Helvetica,sans-Serif" font-size="10.00">NativeArray&lt; T &gt;</text>
</a>
</g>
</g>
<!-- Node4&#45;&gt;Node5 -->
<g id="edge4" class="edge">
<title>Node4&#45;&gt;Node5</title>
<path fill="none" stroke="#63b8ff" d="M81.5,-54.39C81.5,-46.13 81.5,-37.28 81.5,-30.16"/>
<polygon fill="#63b8ff" stroke="#63b8ff" points="78,-54.28 81.5,-64.28 85,-54.28 78,-54.28"/>
</g>
</g>
</svg>
