<?xml version="1.0" encoding="UTF-8" standalone="no"?>
<!DOCTYPE svg PUBLIC "-//W3C//DTD SVG 1.1//EN"
 "http://www.w3.org/Graphics/SVG/1.1/DTD/svg11.dtd">
<!-- Generated by graphviz version 8.0.5 (20230430.1635)
 -->
<!-- Title: DHARTAPI.Pathfinding.NativeMethods.CalculateDistanceAndPredecessor Pages: 1 -->
<svg width="657pt" height="52pt"
 viewBox="0.00 0.00 656.75 52.00" xmlns="http://www.w3.org/2000/svg" xmlns:xlink="http://www.w3.org/1999/xlink">
<g id="graph0" class="graph" transform="scale(1 1) rotate(0) translate(4 48)">
<title>DHARTAPI.Pathfinding.NativeMethods.CalculateDistanceAndPredecessor</title>
<!-- Node1 -->
<g id="node1" class="node">
<title>Node1</title>
<g id="a_node1"><a xlink:title=" ">
<polygon fill="#999999" stroke="#666666" points="648.75,-38 441.5,-38 441.5,-6 648.75,-6 648.75,-38"/>
<text text-anchor="start" x="449.5" y="-24.5" font-family="Helvetica,sans-Serif" font-size="10.00">DHARTAPI.Pathfinding.Native</text>
<text text-anchor="middle" x="545.13" y="-12.5" font-family="Helvetica,sans-Serif" font-size="10.00">Methods.CalculateDistanceAndPredecessor</text>
</a>
</g>
</g>
<!-- Node2 -->
<g id="node2" class="node">
<title>Node2</title>
<g id="a_node2"><a xlink:href="class_d_h_a_r_t_a_p_i_1_1_pathfinding_1_1_native_methods.html#a20f4321ea9e77203c4f2ddda60a792b7" target="_top" xlink:title="Calculate Predecessor and Distance Matricies for a graph in C++.">
<polygon fill="white" stroke="#666666" points="405.5,-44 225.25,-44 225.25,0 405.5,0 405.5,-44"/>
<text text-anchor="start" x="233.25" y="-30.5" font-family="Helvetica,sans-Serif" font-size="10.00">DHARTAPI.Pathfinding.Native</text>
<text text-anchor="start" x="233.25" y="-18.5" font-family="Helvetica,sans-Serif" font-size="10.00">Methods.C_GeneratePredecessorAnd</text>
<text text-anchor="middle" x="315.38" y="-6.5" font-family="Helvetica,sans-Serif" font-size="10.00">DistanceMatricies</text>
</a>
</g>
</g>
<!-- Node1&#45;&gt;Node2 -->
<g id="edge1" class="edge">
<title>Node1&#45;&gt;Node2</title>
<path fill="none" stroke="#63b8ff" d="M430.44,-22C422.21,-22 413.98,-22 405.92,-22"/>
<polygon fill="#63b8ff" stroke="#63b8ff" points="430.24,-25.5 440.24,-22 430.24,-18.5 430.24,-25.5"/>
</g>
<!-- Node3 -->
<g id="node3" class="node">
<title>Node3</title>
<g id="a_node3"><a xlink:href="class_d_h_a_r_t_a_p_i_1_1_pathfinding_1_1_shortest_path.html#aa68a818835b9ceeb6de87d86f74d739f" target="_top" xlink:title="Calculate Predecessor and Distance Matricies for a graph.">
<polygon fill="white" stroke="#666666" points="189.25,-44 0,-44 0,0 189.25,0 189.25,-44"/>
<text text-anchor="start" x="8" y="-30.5" font-family="Helvetica,sans-Serif" font-size="10.00">DHARTAPI.Pathfinding.Shortest</text>
<text text-anchor="start" x="8" y="-18.5" font-family="Helvetica,sans-Serif" font-size="10.00">Path.GeneratePredecessorAndDistance</text>
<text text-anchor="middle" x="94.63" y="-6.5" font-family="Helvetica,sans-Serif" font-size="10.00">Matricies</text>
</a>
</g>
</g>
<!-- Node2&#45;&gt;Node3 -->
<g id="edge2" class="edge">
<title>Node2&#45;&gt;Node3</title>
<path fill="none" stroke="#63b8ff" d="M213.86,-22C205.81,-22 197.7,-22 189.71,-22"/>
<polygon fill="#63b8ff" stroke="#63b8ff" points="213.77,-25.5 223.77,-22 213.77,-18.5 213.77,-25.5"/>
</g>
</g>
</svg>
