<?xml version="1.0" encoding="UTF-8" standalone="no"?>
<!DOCTYPE svg PUBLIC "-//W3C//DTD SVG 1.1//EN"
 "http://www.w3.org/Graphics/SVG/1.1/DTD/svg11.dtd">
<!-- Generated by graphviz version 4.0.0 (20220529.0937)
 -->
<!-- Title: DHARTAPI.VisibilityGraph.NativeMethods.C_AllToAllVisibilityGraph Pages: 1 -->
<svg width="384pt" height="160pt"
 viewBox="0.00 0.00 384.00 159.50" xmlns="http://www.w3.org/2000/svg" xmlns:xlink="http://www.w3.org/1999/xlink">
<g id="graph0" class="graph" transform="scale(1 1) rotate(0) translate(4 155.5)">
<title>DHARTAPI.VisibilityGraph.NativeMethods.C_AllToAllVisibilityGraph</title>
<polygon fill="white" stroke="transparent" points="-4,4 -4,-155.5 380,-155.5 380,4 -4,4"/>
<!-- Node1 -->
<g id="node1" class="node">
<title>Node1</title>
<g id="a_node1"><a xlink:title="Generate a visibility graph in C++.">
<polygon fill="#bfbfbf" stroke="black" points="0,-55.5 0,-85.5 191,-85.5 191,-55.5 0,-55.5"/>
<text text-anchor="start" x="8" y="-73.5" font-family="Helvetica,sans-Serif" font-size="10.00">DHARTAPI.VisibilityGraph.</text>
<text text-anchor="middle" x="95.5" y="-62.5" font-family="Helvetica,sans-Serif" font-size="10.00">NativeMethods.C_AllToAllVisibilityGraph</text>
</a>
</g>
</g>
<!-- Node2 -->
<g id="node2" class="node">
<title>Node2</title>
<g id="a_node2"><a xlink:href="class_d_h_a_r_t_a_p_i_1_1_visibility_graph_1_1_native_methods.html#aa284673fe8680770fe8dbfd6ebc7da47" target="_top" xlink:title=" ">
<polygon fill="white" stroke="black" points="227,-110 227,-151 376,-151 376,-110 227,-110"/>
<text text-anchor="start" x="235" y="-139" font-family="Helvetica,sans-Serif" font-size="10.00">DHARTAPI.VisibilityGraph.</text>
<text text-anchor="start" x="235" y="-128" font-family="Helvetica,sans-Serif" font-size="10.00">NativeMethods.CreateVisibility</text>
<text text-anchor="middle" x="301.5" y="-117" font-family="Helvetica,sans-Serif" font-size="10.00">GraphAllToAll</text>
</a>
</g>
</g>
<!-- Node1&#45;&gt;Node2 -->
<g id="edge1" class="edge">
<title>Node1&#45;&gt;Node2</title>
<path fill="none" stroke="midnightblue" d="M147.71,-85.56C169.91,-92.09 196.41,-99.88 221.06,-107.13"/>
<polygon fill="midnightblue" stroke="midnightblue" points="220.18,-110.52 230.76,-109.99 222.16,-103.81 220.18,-110.52"/>
</g>
<!-- Node3 -->
<g id="node3" class="node">
<title>Node3</title>
<g id="a_node3"><a xlink:href="class_d_h_a_r_t_a_p_i_1_1_visibility_graph_1_1_native_methods.html#ad1117a033a2be097eb01f0892c3b438d" target="_top" xlink:title=" ">
<polygon fill="white" stroke="black" points="227,-50 227,-91 376,-91 376,-50 227,-50"/>
<text text-anchor="start" x="235" y="-79" font-family="Helvetica,sans-Serif" font-size="10.00">DHARTAPI.VisibilityGraph.</text>
<text text-anchor="start" x="235" y="-68" font-family="Helvetica,sans-Serif" font-size="10.00">NativeMethods.CreateVisibility</text>
<text text-anchor="middle" x="301.5" y="-57" font-family="Helvetica,sans-Serif" font-size="10.00">GraphAllToAllUndirected</text>
</a>
</g>
</g>
<!-- Node1&#45;&gt;Node3 -->
<g id="edge2" class="edge">
<title>Node1&#45;&gt;Node3</title>
<path fill="none" stroke="midnightblue" d="M191.04,-70.5C199.56,-70.5 208.15,-70.5 216.57,-70.5"/>
<polygon fill="midnightblue" stroke="midnightblue" points="216.74,-74 226.74,-70.5 216.74,-67 216.74,-74"/>
</g>
<!-- Node4 -->
<g id="node4" class="node">
<title>Node4</title>
<g id="a_node4"><a xlink:href="class_d_h_a_r_t_a_p_i_1_1_native_utils_1_1_helper_functions.html#a25819207027d373e010839e97ee002d1" target="_top" xlink:title="Convert a vector array into an array of floats.">
<polygon fill="white" stroke="black" points="229.5,-0.5 229.5,-30.5 373.5,-30.5 373.5,-0.5 229.5,-0.5"/>
<text text-anchor="start" x="237.5" y="-18.5" font-family="Helvetica,sans-Serif" font-size="10.00">DHARTAPI.NativeUtils.Helper</text>
<text text-anchor="middle" x="301.5" y="-7.5" font-family="Helvetica,sans-Serif" font-size="10.00">Functions.FlattenVectorArray</text>
</a>
</g>
</g>
<!-- Node1&#45;&gt;Node4 -->
<g id="edge3" class="edge">
<title>Node1&#45;&gt;Node4</title>
<path fill="none" stroke="midnightblue" d="M152.24,-55.47C177.77,-48.59 208.19,-40.39 234.82,-33.21"/>
<polygon fill="midnightblue" stroke="midnightblue" points="236.08,-36.49 244.82,-30.51 234.26,-29.73 236.08,-36.49"/>
</g>
</g>
</svg>
