<?xml version="1.0" encoding="UTF-8" standalone="no"?>
<!DOCTYPE svg PUBLIC "-//W3C//DTD SVG 1.1//EN"
 "http://www.w3.org/Graphics/SVG/1.1/DTD/svg11.dtd">
<!-- Generated by graphviz version 5.0.0 (20220707.1540)
 -->
<!-- Title: DHARTAPI.VisibilityGraph.VisibilityGraph.GenerateAllToAll Pages: 1 -->
<svg width="575pt" height="160pt"
 viewBox="0.00 0.00 575.00 159.50" xmlns="http://www.w3.org/2000/svg" xmlns:xlink="http://www.w3.org/1999/xlink">
<g id="graph0" class="graph" transform="scale(1 1) rotate(0) translate(4 155.5)">
<title>DHARTAPI.VisibilityGraph.VisibilityGraph.GenerateAllToAll</title>
<polygon fill="white" stroke="transparent" points="-4,4 -4,-155.5 571,-155.5 571,4 -4,4"/>
<!-- Node1 -->
<g id="node1" class="node">
<title>Node1</title>
<g id="a_node1"><a xlink:title="Create a visibility graph from every node to every node in nodes.">
<polygon fill="#bfbfbf" stroke="black" points="0,-55.5 0,-85.5 155,-85.5 155,-55.5 0,-55.5"/>
<text text-anchor="start" x="8" y="-73.5" font-family="Helvetica,sans-Serif" font-size="10.00">DHARTAPI.VisibilityGraph.</text>
<text text-anchor="middle" x="77.5" y="-62.5" font-family="Helvetica,sans-Serif" font-size="10.00">VisibilityGraph.GenerateAllToAll</text>
</a>
</g>
</g>
<!-- Node2 -->
<g id="node2" class="node">
<title>Node2</title>
<g id="a_node2"><a xlink:href="class_d_h_a_r_t_a_p_i_1_1_visibility_graph_1_1_native_methods.html#a559751c33a91ae696e2969a29ce2126d" target="_top" xlink:title="Generate a visibility graph in C++.">
<polygon fill="white" stroke="black" points="191,-55.5 191,-85.5 382,-85.5 382,-55.5 191,-55.5"/>
<text text-anchor="start" x="199" y="-73.5" font-family="Helvetica,sans-Serif" font-size="10.00">DHARTAPI.VisibilityGraph.</text>
<text text-anchor="middle" x="286.5" y="-62.5" font-family="Helvetica,sans-Serif" font-size="10.00">NativeMethods.C_AllToAllVisibilityGraph</text>
</a>
</g>
</g>
<!-- Node1&#45;&gt;Node2 -->
<g id="edge1" class="edge">
<title>Node1&#45;&gt;Node2</title>
<path fill="none" stroke="midnightblue" d="M155.28,-70.5C163.64,-70.5 172.24,-70.5 180.85,-70.5"/>
<polygon fill="midnightblue" stroke="midnightblue" points="180.95,-74 190.95,-70.5 180.95,-67 180.95,-74"/>
</g>
<!-- Node3 -->
<g id="node3" class="node">
<title>Node3</title>
<g id="a_node3"><a xlink:href="class_d_h_a_r_t_a_p_i_1_1_visibility_graph_1_1_native_methods.html#aa284673fe8680770fe8dbfd6ebc7da47" target="_top" xlink:title=" ">
<polygon fill="white" stroke="black" points="418,-110 418,-151 567,-151 567,-110 418,-110"/>
<text text-anchor="start" x="426" y="-139" font-family="Helvetica,sans-Serif" font-size="10.00">DHARTAPI.VisibilityGraph.</text>
<text text-anchor="start" x="426" y="-128" font-family="Helvetica,sans-Serif" font-size="10.00">NativeMethods.CreateVisibility</text>
<text text-anchor="middle" x="492.5" y="-117" font-family="Helvetica,sans-Serif" font-size="10.00">GraphAllToAll</text>
</a>
</g>
</g>
<!-- Node2&#45;&gt;Node3 -->
<g id="edge2" class="edge">
<title>Node2&#45;&gt;Node3</title>
<path fill="none" stroke="midnightblue" d="M338.71,-85.56C360.91,-92.09 387.41,-99.88 412.06,-107.13"/>
<polygon fill="midnightblue" stroke="midnightblue" points="411.18,-110.52 421.76,-109.99 413.16,-103.81 411.18,-110.52"/>
</g>
<!-- Node4 -->
<g id="node4" class="node">
<title>Node4</title>
<g id="a_node4"><a xlink:href="class_d_h_a_r_t_a_p_i_1_1_visibility_graph_1_1_native_methods.html#ad1117a033a2be097eb01f0892c3b438d" target="_top" xlink:title=" ">
<polygon fill="white" stroke="black" points="418,-50 418,-91 567,-91 567,-50 418,-50"/>
<text text-anchor="start" x="426" y="-79" font-family="Helvetica,sans-Serif" font-size="10.00">DHARTAPI.VisibilityGraph.</text>
<text text-anchor="start" x="426" y="-68" font-family="Helvetica,sans-Serif" font-size="10.00">NativeMethods.CreateVisibility</text>
<text text-anchor="middle" x="492.5" y="-57" font-family="Helvetica,sans-Serif" font-size="10.00">GraphAllToAllUndirected</text>
</a>
</g>
</g>
<!-- Node2&#45;&gt;Node4 -->
<g id="edge3" class="edge">
<title>Node2&#45;&gt;Node4</title>
<path fill="none" stroke="midnightblue" d="M382.04,-70.5C390.56,-70.5 399.15,-70.5 407.57,-70.5"/>
<polygon fill="midnightblue" stroke="midnightblue" points="407.74,-74 417.74,-70.5 407.74,-67 407.74,-74"/>
</g>
<!-- Node5 -->
<g id="node5" class="node">
<title>Node5</title>
<g id="a_node5"><a xlink:href="class_d_h_a_r_t_a_p_i_1_1_native_utils_1_1_helper_functions.html#a25819207027d373e010839e97ee002d1" target="_top" xlink:title="Convert a vector array into an array of floats.">
<polygon fill="white" stroke="black" points="420.5,-0.5 420.5,-30.5 564.5,-30.5 564.5,-0.5 420.5,-0.5"/>
<text text-anchor="start" x="428.5" y="-18.5" font-family="Helvetica,sans-Serif" font-size="10.00">DHARTAPI.NativeUtils.Helper</text>
<text text-anchor="middle" x="492.5" y="-7.5" font-family="Helvetica,sans-Serif" font-size="10.00">Functions.FlattenVectorArray</text>
</a>
</g>
</g>
<!-- Node2&#45;&gt;Node5 -->
<g id="edge4" class="edge">
<title>Node2&#45;&gt;Node5</title>
<path fill="none" stroke="midnightblue" d="M343.24,-55.47C368.77,-48.59 399.19,-40.39 425.82,-33.21"/>
<polygon fill="midnightblue" stroke="midnightblue" points="427.08,-36.49 435.82,-30.51 425.26,-29.73 427.08,-36.49"/>
</g>
</g>
</svg>
