<?xml version="1.0" encoding="UTF-8" standalone="no"?>
<!DOCTYPE svg PUBLIC "-//W3C//DTD SVG 1.1//EN"
 "http://www.w3.org/Graphics/SVG/1.1/DTD/svg11.dtd">
<!-- Generated by graphviz version 4.0.0 (20220529.0937)
 -->
<!-- Title: HumanFactors.SpatialStructures.NativeMethods.C_GetNodes Pages: 1 -->
<svg width="392pt" height="88pt"
 viewBox="0.00 0.00 392.00 88.00" xmlns="http://www.w3.org/2000/svg" xmlns:xlink="http://www.w3.org/1999/xlink">
<g id="graph0" class="graph" transform="scale(1 1) rotate(0) translate(4 84)">
<title>HumanFactors.SpatialStructures.NativeMethods.C_GetNodes</title>
<polygon fill="white" stroke="transparent" points="-4,4 -4,-84 388,-84 388,4 -4,4"/>
<!-- Node1 -->
<g id="node1" class="node">
<title>Node1</title>
<g id="a_node1"><a xlink:title="Get the Nodes of a graph in C++.">
<polygon fill="#bfbfbf" stroke="black" points="0,-24.5 0,-54.5 161,-54.5 161,-24.5 0,-24.5"/>
<text text-anchor="start" x="8" y="-42.5" font-family="Helvetica,sans-Serif" font-size="10.00">HumanFactors.SpatialStructures.</text>
<text text-anchor="middle" x="80.5" y="-31.5" font-family="Helvetica,sans-Serif" font-size="10.00">NativeMethods.C_GetNodes</text>
</a>
</g>
</g>
<!-- Node2 -->
<g id="node2" class="node">
<title>Node2</title>
<g id="a_node2"><a xlink:href="class_human_factors_1_1_spatial_structures_1_1_native_methods.html#ad72eefdfc5dfd587e0ddbe98295debf0" target="_top" xlink:title=" ">
<polygon fill="white" stroke="black" points="197,-49.5 197,-79.5 384,-79.5 384,-49.5 197,-49.5"/>
<text text-anchor="start" x="205" y="-67.5" font-family="Helvetica,sans-Serif" font-size="10.00">HumanFactors.SpatialStructures.</text>
<text text-anchor="middle" x="290.5" y="-56.5" font-family="Helvetica,sans-Serif" font-size="10.00">NativeMethods.GetAllNodesFromGraph</text>
</a>
</g>
</g>
<!-- Node1&#45;&gt;Node2 -->
<g id="edge1" class="edge">
<title>Node1&#45;&gt;Node2</title>
<path fill="none" stroke="midnightblue" d="M161.03,-49.06C169.43,-50.07 178.07,-51.11 186.69,-52.14"/>
<polygon fill="midnightblue" stroke="midnightblue" points="186.45,-55.64 196.8,-53.36 187.28,-48.69 186.45,-55.64"/>
</g>
<!-- Node3 -->
<g id="node3" class="node">
<title>Node3</title>
<g id="a_node3"><a xlink:href="class_human_factors_1_1_spatial_structures_1_1_native_methods.html#a62d91b3fdab22aa4433ab7ef9593a83e" target="_top" xlink:title=" ">
<polygon fill="white" stroke="black" points="201,-0.5 201,-30.5 380,-30.5 380,-0.5 201,-0.5"/>
<text text-anchor="start" x="209" y="-18.5" font-family="Helvetica,sans-Serif" font-size="10.00">HumanFactors.SpatialStructures.</text>
<text text-anchor="middle" x="290.5" y="-7.5" font-family="Helvetica,sans-Serif" font-size="10.00">NativeMethods.GetSizeOfNodeVector</text>
</a>
</g>
</g>
<!-- Node1&#45;&gt;Node3 -->
<g id="edge2" class="edge">
<title>Node1&#45;&gt;Node3</title>
<path fill="none" stroke="midnightblue" d="M161.03,-30.32C170.83,-29.19 180.95,-28.03 190.99,-26.87"/>
<polygon fill="midnightblue" stroke="midnightblue" points="191.47,-30.33 201,-25.71 190.66,-23.38 191.47,-30.33"/>
</g>
</g>
</svg>
