<?xml version="1.0" encoding="UTF-8" standalone="no"?>
<!DOCTYPE svg PUBLIC "-//W3C//DTD SVG 1.1//EN"
 "http://www.w3.org/Graphics/SVG/1.1/DTD/svg11.dtd">
<!-- Generated by graphviz version 4.0.0 (20220529.0937)
 -->
<!-- Title: HumanFactors.RayTracing.EmbreeBVH.EmbreeBVH Pages: 1 -->
<svg width="323pt" height="39pt"
 viewBox="0.00 0.00 323.00 39.00" xmlns="http://www.w3.org/2000/svg" xmlns:xlink="http://www.w3.org/1999/xlink">
<g id="graph0" class="graph" transform="scale(1 1) rotate(0) translate(4 35)">
<title>HumanFactors.RayTracing.EmbreeBVH.EmbreeBVH</title>
<polygon fill="white" stroke="transparent" points="-4,4 -4,-35 319,-35 319,4 -4,4"/>
<!-- Node1 -->
<g id="node1" class="node">
<title>Node1</title>
<g id="a_node1"><a xlink:title="Construct a BVH from an array of meshes.">
<polygon fill="#bfbfbf" stroke="black" points="0,-0.5 0,-30.5 135,-30.5 135,-0.5 0,-0.5"/>
<text text-anchor="start" x="8" y="-18.5" font-family="Helvetica,sans-Serif" font-size="10.00">HumanFactors.RayTracing.</text>
<text text-anchor="middle" x="67.5" y="-7.5" font-family="Helvetica,sans-Serif" font-size="10.00">EmbreeBVH.EmbreeBVH</text>
</a>
</g>
</g>
<!-- Node2 -->
<g id="node2" class="node">
<title>Node2</title>
<g id="a_node2"><a xlink:href="class_human_factors_1_1_native_utils_1_1_native_object.html#a39dc264c3bdfaf23655dc2c6b0970609" target="_top" xlink:title="Update the pressure of this object.">
<polygon fill="white" stroke="black" points="171,-0.5 171,-30.5 315,-30.5 315,-0.5 171,-0.5"/>
<text text-anchor="start" x="179" y="-18.5" font-family="Helvetica,sans-Serif" font-size="10.00">HumanFactors.NativeUtils.</text>
<text text-anchor="middle" x="243" y="-7.5" font-family="Helvetica,sans-Serif" font-size="10.00">NativeObject.UpdatePressure</text>
</a>
</g>
</g>
<!-- Node1&#45;&gt;Node2 -->
<g id="edge1" class="edge">
<title>Node1&#45;&gt;Node2</title>
<path fill="none" stroke="midnightblue" d="M135.08,-15.5C143.53,-15.5 152.25,-15.5 160.89,-15.5"/>
<polygon fill="midnightblue" stroke="midnightblue" points="160.99,-19 170.99,-15.5 160.99,-12 160.99,-19"/>
</g>
</g>
</svg>
