<?xml version="1.0" encoding="UTF-8" standalone="no"?>
<!DOCTYPE svg PUBLIC "-//W3C//DTD SVG 1.1//EN"
 "http://www.w3.org/Graphics/SVG/1.1/DTD/svg11.dtd">
<!-- Generated by graphviz version 8.0.5 (20230430.1635)
 -->
<!-- Title: DHARTAPI.RayTracing.EmbreeBVH.AddMesh Pages: 1 -->
<svg width="703pt" height="176pt"
 viewBox="0.00 0.00 702.75 176.00" xmlns="http://www.w3.org/2000/svg" xmlns:xlink="http://www.w3.org/1999/xlink">
<g id="graph0" class="graph" transform="scale(1 1) rotate(0) translate(4 172)">
<title>DHARTAPI.RayTracing.EmbreeBVH.AddMesh</title>
<!-- Node1 -->
<g id="node1" class="node">
<title>Node1</title>
<g id="a_node1"><a xlink:title="Add a new mesh to the BVH.">
<polygon fill="#999999" stroke="#666666" points="152.5,-100 0,-100 0,-68 152.5,-68 152.5,-100"/>
<text text-anchor="start" x="8" y="-86.5" font-family="Helvetica,sans-Serif" font-size="10.00">DHARTAPI.RayTracing.Embree</text>
<text text-anchor="middle" x="76.25" y="-74.5" font-family="Helvetica,sans-Serif" font-size="10.00">BVH.AddMesh</text>
</a>
</g>
</g>
<!-- Node2 -->
<g id="node2" class="node">
<title>Node2</title>
<g id="a_node2"><a xlink:href="class_d_h_a_r_t_a_p_i_1_1_ray_tracing_1_1_native_methods.html#af57f54013a7a4b0d2bcf240e2aded5d2" target="_top" xlink:title=" ">
<polygon fill="white" stroke="#666666" points="338.38,-150 193.38,-150 193.38,-118 338.38,-118 338.38,-150"/>
<text text-anchor="start" x="201.38" y="-136.5" font-family="Helvetica,sans-Serif" font-size="10.00">DHARTAPI.RayTracing.Native</text>
<text text-anchor="middle" x="265.88" y="-124.5" font-family="Helvetica,sans-Serif" font-size="10.00">Methods.C_AddMesh</text>
</a>
</g>
</g>
<!-- Node1&#45;&gt;Node2 -->
<g id="edge1" class="edge">
<title>Node1&#45;&gt;Node2</title>
<path fill="none" stroke="#63b8ff" d="M138.95,-100.44C156.18,-105.03 175.05,-110.06 192.83,-114.8"/>
<polygon fill="#63b8ff" stroke="#63b8ff" points="191.58,-118.36 202.14,-117.55 193.38,-111.59 191.58,-118.36"/>
</g>
<!-- Node3 -->
<g id="node3" class="node">
<title>Node3</title>
<g id="a_node3"><a xlink:href="class_d_h_a_r_t_a_p_i_1_1_geometry_1_1_mesh_info.html#a0409ac3fbfba81d4d488c32defdf3655" target="_top" xlink:title="Updates this mesh&#39;s name, ID, and arrays with it&#39;s values from C++.">
<polygon fill="white" stroke="#666666" points="343.25,-100 188.5,-100 188.5,-68 343.25,-68 343.25,-100"/>
<text text-anchor="start" x="196.5" y="-86.5" font-family="Helvetica,sans-Serif" font-size="10.00">DHARTAPI.Geometry.MeshInfo.</text>
<text text-anchor="middle" x="265.88" y="-74.5" font-family="Helvetica,sans-Serif" font-size="10.00">UpdateIDNameAndArrays</text>
</a>
</g>
</g>
<!-- Node1&#45;&gt;Node3 -->
<g id="edge2" class="edge">
<title>Node1&#45;&gt;Node3</title>
<path fill="none" stroke="#63b8ff" d="M152.75,-84C160.9,-84 169.23,-84 177.5,-84"/>
<polygon fill="#63b8ff" stroke="#63b8ff" points="177.3,-87.5 187.3,-84 177.3,-80.5 177.3,-87.5"/>
</g>
<!-- Node9 -->
<g id="node9" class="node">
<title>Node9</title>
<g id="a_node9"><a xlink:href="class_d_h_a_r_t_a_p_i_1_1_native_utils_1_1_native_object.html#ab63e715d5db528edc64b3aa5233f750c" target="_top" xlink:title="Update the pressure of this object.">
<polygon fill="white" stroke="#666666" points="336.88,-50 194.88,-50 194.88,-18 336.88,-18 336.88,-50"/>
<text text-anchor="start" x="202.88" y="-36.5" font-family="Helvetica,sans-Serif" font-size="10.00">DHARTAPI.NativeUtils.Native</text>
<text text-anchor="middle" x="265.88" y="-24.5" font-family="Helvetica,sans-Serif" font-size="10.00">Object.UpdatePressure</text>
</a>
</g>
</g>
<!-- Node1&#45;&gt;Node9 -->
<g id="edge10" class="edge">
<title>Node1&#45;&gt;Node9</title>
<path fill="none" stroke="#63b8ff" d="M138.95,-67.56C156.18,-62.97 175.05,-57.94 192.83,-53.2"/>
<polygon fill="#63b8ff" stroke="#63b8ff" points="193.38,-56.41 202.14,-50.45 191.58,-49.64 193.38,-56.41"/>
</g>
<!-- Node4 -->
<g id="node4" class="node">
<title>Node4</title>
<g id="a_node4"><a xlink:href="class_d_h_a_r_t_a_p_i_1_1_geometry_1_1_native_methods.html#a8267d494ee36917f65146966a585793a" target="_top" xlink:title="Get pointers to the vertex and index arrays of a mesh in C++.">
<polygon fill="white" stroke="#666666" points="519.75,-168 379.25,-168 379.25,-136 519.75,-136 519.75,-168"/>
<text text-anchor="start" x="387.25" y="-154.5" font-family="Helvetica,sans-Serif" font-size="10.00">DHARTAPI.Geometry.Native</text>
<text text-anchor="middle" x="449.5" y="-142.5" font-family="Helvetica,sans-Serif" font-size="10.00">Methods.C_GetTrisAndVerts</text>
</a>
</g>
</g>
<!-- Node3&#45;&gt;Node4 -->
<g id="edge3" class="edge">
<title>Node3&#45;&gt;Node4</title>
<path fill="none" stroke="#63b8ff" d="M320.65,-100.5C328.3,-103.16 336.02,-106.03 343.25,-109 359.8,-115.8 362.81,-119.95 379.25,-127 382.87,-128.55 386.62,-130.09 390.42,-131.6"/>
<polygon fill="#63b8ff" stroke="#63b8ff" points="388.94,-135.17 399.53,-135.51 391.47,-128.64 388.94,-135.17"/>
</g>
<!-- Node6 -->
<g id="node6" class="node">
<title>Node6</title>
<g id="a_node6"><a xlink:href="class_d_h_a_r_t_a_p_i_1_1_geometry_1_1_native_methods.html#afa9349278d57b0497f92edb3dff2c152" target="_top" xlink:title="Get the ID of an instance of MeshInfo in c++.">
<polygon fill="white" stroke="#666666" points="519,-100 380,-100 380,-68 519,-68 519,-100"/>
<text text-anchor="start" x="388" y="-86.5" font-family="Helvetica,sans-Serif" font-size="10.00">DHARTAPI.Geometry.Native</text>
<text text-anchor="middle" x="449.5" y="-74.5" font-family="Helvetica,sans-Serif" font-size="10.00">Methods.GetMeshID</text>
</a>
</g>
</g>
<!-- Node3&#45;&gt;Node6 -->
<g id="edge5" class="edge">
<title>Node3&#45;&gt;Node6</title>
<path fill="none" stroke="#63b8ff" d="M343.64,-84C351.92,-84 360.36,-84 368.67,-84"/>
<polygon fill="#63b8ff" stroke="#63b8ff" points="368.51,-87.5 378.51,-84 368.51,-80.5 368.51,-87.5"/>
</g>
<!-- Node7 -->
<g id="node7" class="node">
<title>Node7</title>
<g id="a_node7"><a xlink:href="class_d_h_a_r_t_a_p_i_1_1_geometry_1_1_native_methods.html#a1fe911a338ef131e97f4be6feb506615" target="_top" xlink:title="Get the name of an instance of MeshInfo in c++.">
<polygon fill="white" stroke="#666666" points="519,-32 380,-32 380,0 519,0 519,-32"/>
<text text-anchor="start" x="388" y="-18.5" font-family="Helvetica,sans-Serif" font-size="10.00">DHARTAPI.Geometry.Native</text>
<text text-anchor="middle" x="449.5" y="-6.5" font-family="Helvetica,sans-Serif" font-size="10.00">Methods.GetMeshName</text>
</a>
</g>
</g>
<!-- Node3&#45;&gt;Node7 -->
<g id="edge7" class="edge">
<title>Node3&#45;&gt;Node7</title>
<path fill="none" stroke="#63b8ff" d="M318.81,-67.55C327.02,-64.79 335.39,-61.89 343.25,-59 361.99,-52.11 382.35,-43.96 400.13,-36.61"/>
<polygon fill="#63b8ff" stroke="#63b8ff" points="401.38,-39.46 409.27,-32.39 398.69,-33 401.38,-39.46"/>
</g>
<!-- Node5 -->
<g id="node5" class="node">
<title>Node5</title>
<g id="a_node5"><a xlink:href="class_d_h_a_r_t_a_p_i_1_1_geometry_1_1_native_methods.html#abbb9461128f297e7b82417a549a056e9" target="_top" xlink:title=" ">
<polygon fill="white" stroke="#666666" points="694.75,-168 555.75,-168 555.75,-136 694.75,-136 694.75,-168"/>
<text text-anchor="start" x="563.75" y="-154.5" font-family="Helvetica,sans-Serif" font-size="10.00">DHARTAPI.Geometry.Native</text>
<text text-anchor="middle" x="625.25" y="-142.5" font-family="Helvetica,sans-Serif" font-size="10.00">Methods.GetVertsAndTris</text>
</a>
</g>
</g>
<!-- Node4&#45;&gt;Node5 -->
<g id="edge4" class="edge">
<title>Node4&#45;&gt;Node5</title>
<path fill="none" stroke="#63b8ff" d="M520.17,-152C528.15,-152 536.34,-152 544.44,-152"/>
<polygon fill="#63b8ff" stroke="#63b8ff" points="544.41,-155.5 554.41,-152 544.41,-148.5 544.41,-155.5"/>
</g>
<!-- Node6&#45;&gt;Node6 -->
<g id="edge6" class="edge">
<title>Node6&#45;&gt;Node6</title>
<path fill="none" stroke="#63b8ff" d="M418.12,-100.44C412.27,-109.58 422.73,-118 449.5,-118 464.98,-118 475,-115.19 479.58,-111.05"/>
<polygon fill="#63b8ff" stroke="#63b8ff" points="483.13,-111.79 480.88,-101.44 476.19,-110.94 483.13,-111.79"/>
</g>
<!-- Node7&#45;&gt;Node7 -->
<g id="edge9" class="edge">
<title>Node7&#45;&gt;Node7</title>
<path fill="none" stroke="#63b8ff" d="M418.12,-32.44C412.27,-41.58 422.73,-50 449.5,-50 464.98,-50 475,-47.19 479.58,-43.05"/>
<polygon fill="#63b8ff" stroke="#63b8ff" points="483.13,-43.79 480.88,-33.44 476.19,-42.94 483.13,-43.79"/>
</g>
<!-- Node8 -->
<g id="node8" class="node">
<title>Node8</title>
<g id="a_node8"><a xlink:href="class_d_h_a_r_t_a_p_i_1_1_geometry_1_1_native_methods.html#a2d22148d6821031e97d7305df6e9fde0" target="_top" xlink:title=" ">
<polygon fill="white" stroke="#666666" points="694.75,-32 555.75,-32 555.75,0 694.75,0 694.75,-32"/>
<text text-anchor="start" x="563.75" y="-18.5" font-family="Helvetica,sans-Serif" font-size="10.00">DHARTAPI.Geometry.Native</text>
<text text-anchor="middle" x="625.25" y="-6.5" font-family="Helvetica,sans-Serif" font-size="10.00">Methods.DestroyCharArray</text>
</a>
</g>
</g>
<!-- Node7&#45;&gt;Node8 -->
<g id="edge8" class="edge">
<title>Node7&#45;&gt;Node8</title>
<path fill="none" stroke="#63b8ff" d="M519.17,-16C527.57,-16 536.22,-16 544.76,-16"/>
<polygon fill="#63b8ff" stroke="#63b8ff" points="544.51,-19.5 554.51,-16 544.51,-12.5 544.51,-19.5"/>
</g>
</g>
</svg>
