<?xml version="1.0" encoding="UTF-8" standalone="no"?>
<!DOCTYPE svg PUBLIC "-//W3C//DTD SVG 1.1//EN"
 "http://www.w3.org/Graphics/SVG/1.1/DTD/svg11.dtd">
<!-- Generated by graphviz version 4.0.0 (20220529.0937)
 -->
<!-- Title: HumanFactors.RayTracing.EmbreeBVH.AddMesh Pages: 1 -->
<svg width="323pt" height="137pt"
 viewBox="0.00 0.00 323.00 137.00" xmlns="http://www.w3.org/2000/svg" xmlns:xlink="http://www.w3.org/1999/xlink">
<g id="graph0" class="graph" transform="scale(1 1) rotate(0) translate(4 133)">
<title>HumanFactors.RayTracing.EmbreeBVH.AddMesh</title>
<polygon fill="white" stroke="transparent" points="-4,4 -4,-133 319,-133 319,4 -4,4"/>
<!-- Node1 -->
<g id="node1" class="node">
<title>Node1</title>
<g id="a_node1"><a xlink:title="Multiple new meshes to the BVH.">
<polygon fill="#bfbfbf" stroke="black" points="0,-49.5 0,-79.5 135,-79.5 135,-49.5 0,-49.5"/>
<text text-anchor="start" x="8" y="-67.5" font-family="Helvetica,sans-Serif" font-size="10.00">HumanFactors.RayTracing.</text>
<text text-anchor="middle" x="67.5" y="-56.5" font-family="Helvetica,sans-Serif" font-size="10.00">EmbreeBVH.AddMesh</text>
</a>
</g>
</g>
<!-- Node2 -->
<g id="node2" class="node">
<title>Node2</title>
<g id="a_node2"><a xlink:href="class_human_factors_1_1_ray_tracing_1_1_native_methods.html#afccba3761364c8aa7fa62111482c0201" target="_top" xlink:title=" ">
<polygon fill="white" stroke="black" points="174.5,-98.5 174.5,-128.5 311.5,-128.5 311.5,-98.5 174.5,-98.5"/>
<text text-anchor="start" x="182.5" y="-116.5" font-family="Helvetica,sans-Serif" font-size="10.00">HumanFactors.RayTracing.</text>
<text text-anchor="middle" x="243" y="-105.5" font-family="Helvetica,sans-Serif" font-size="10.00">NativeMethods.C_AddMesh</text>
</a>
</g>
</g>
<!-- Node1&#45;&gt;Node2 -->
<g id="edge1" class="edge">
<title>Node1&#45;&gt;Node2</title>
<path fill="none" stroke="midnightblue" d="M121.97,-79.6C140.03,-84.7 160.36,-90.44 179.08,-95.73"/>
<polygon fill="midnightblue" stroke="midnightblue" points="178.13,-99.1 188.71,-98.45 180.03,-92.36 178.13,-99.1"/>
</g>
<!-- Node3 -->
<g id="node3" class="node">
<title>Node3</title>
<g id="a_node3"><a xlink:href="class_human_factors_1_1_ray_tracing_1_1_embree_b_v_h.html#a703a8a4e28c7c17045feedc8db793a28" target="_top" xlink:title="Gets the pointer of every meshinfo in an array of meshinfo.">
<polygon fill="white" stroke="black" points="171,-49.5 171,-79.5 315,-79.5 315,-49.5 171,-49.5"/>
<text text-anchor="start" x="179" y="-67.5" font-family="Helvetica,sans-Serif" font-size="10.00">HumanFactors.RayTracing.</text>
<text text-anchor="middle" x="243" y="-56.5" font-family="Helvetica,sans-Serif" font-size="10.00">EmbreeBVH.getMeshInfoPtrs</text>
</a>
</g>
</g>
<!-- Node1&#45;&gt;Node3 -->
<g id="edge2" class="edge">
<title>Node1&#45;&gt;Node3</title>
<path fill="none" stroke="midnightblue" d="M135.08,-64.5C143.53,-64.5 152.25,-64.5 160.89,-64.5"/>
<polygon fill="midnightblue" stroke="midnightblue" points="160.99,-68 170.99,-64.5 160.99,-61 160.99,-68"/>
</g>
<!-- Node4 -->
<g id="node4" class="node">
<title>Node4</title>
<g id="a_node4"><a xlink:href="class_human_factors_1_1_native_utils_1_1_native_object.html#a39dc264c3bdfaf23655dc2c6b0970609" target="_top" xlink:title="Update the pressure of this object.">
<polygon fill="white" stroke="black" points="171,-0.5 171,-30.5 315,-30.5 315,-0.5 171,-0.5"/>
<text text-anchor="start" x="179" y="-18.5" font-family="Helvetica,sans-Serif" font-size="10.00">HumanFactors.NativeUtils.</text>
<text text-anchor="middle" x="243" y="-7.5" font-family="Helvetica,sans-Serif" font-size="10.00">NativeObject.UpdatePressure</text>
</a>
</g>
</g>
<!-- Node1&#45;&gt;Node4 -->
<g id="edge3" class="edge">
<title>Node1&#45;&gt;Node4</title>
<path fill="none" stroke="midnightblue" d="M121.97,-49.4C140.03,-44.3 160.36,-38.56 179.08,-33.27"/>
<polygon fill="midnightblue" stroke="midnightblue" points="180.03,-36.64 188.71,-30.55 178.13,-29.9 180.03,-36.64"/>
</g>
</g>
</svg>
