<?xml version="1.0" encoding="UTF-8" standalone="no"?>
<!DOCTYPE svg PUBLIC "-//W3C//DTD SVG 1.1//EN"
 "http://www.w3.org/Graphics/SVG/1.1/DTD/svg11.dtd">
<!-- Generated by graphviz version 8.0.5 (20230430.1635)
 -->
<!-- Title: DHARTAPI.Geometry.NativeMethods.C_LoadOBJ Pages: 1 -->
<svg width="347pt" height="90pt"
 viewBox="0.00 0.00 346.75 90.00" xmlns="http://www.w3.org/2000/svg" xmlns:xlink="http://www.w3.org/1999/xlink">
<g id="graph0" class="graph" transform="scale(1 1) rotate(0) translate(4 86)">
<title>DHARTAPI.Geometry.NativeMethods.C_LoadOBJ</title>
<!-- Node1 -->
<g id="node1" class="node">
<title>Node1</title>
<g id="a_node1"><a xlink:title="Load an obj file from the given filepath into a MeshInfo object in native memory.">
<polygon fill="#999999" stroke="#666666" points="338.75,-57 199.75,-57 199.75,-25 338.75,-25 338.75,-57"/>
<text text-anchor="start" x="207.75" y="-43.5" font-family="Helvetica,sans-Serif" font-size="10.00">DHARTAPI.Geometry.Native</text>
<text text-anchor="middle" x="269.25" y="-31.5" font-family="Helvetica,sans-Serif" font-size="10.00">Methods.C_LoadOBJ</text>
</a>
</g>
</g>
<!-- Node2 -->
<g id="node2" class="node">
<title>Node2</title>
<g id="a_node2"><a xlink:href="class_d_h_a_r_t_a_p_i_1_1_geometry_1_1_o_b_j_loader.html#a055d65f71455d3f77003520b53ab0aaa" target="_top" xlink:title="Load an obj from the OBJ file at the given filepath.">
<polygon fill="white" stroke="#666666" points="163.75,-82 0,-82 0,-50 163.75,-50 163.75,-82"/>
<text text-anchor="start" x="8" y="-68.5" font-family="Helvetica,sans-Serif" font-size="10.00">DHARTAPI.Geometry.OBJLoader.</text>
<text text-anchor="middle" x="81.88" y="-56.5" font-family="Helvetica,sans-Serif" font-size="10.00">LoadOBJ</text>
</a>
</g>
</g>
<!-- Node1&#45;&gt;Node2 -->
<g id="edge1" class="edge">
<title>Node1&#45;&gt;Node2</title>
<path fill="none" stroke="#63b8ff" d="M188.81,-51.71C180.61,-52.82 172.27,-53.94 164.06,-55.05"/>
<polygon fill="#63b8ff" stroke="#63b8ff" points="189.04,-55.08 198.49,-50.27 188.11,-48.14 189.04,-55.08"/>
</g>
<!-- Node3 -->
<g id="node3" class="node">
<title>Node3</title>
<g id="a_node3"><a xlink:href="class_d_h_a_r_t_a_p_i_1_1_geometry_1_1_o_b_j_loader.html#a6d7927f1fefbe49c8d374775c4d2a909" target="_top" xlink:title="Load an obj from the OBJ file at the given filepath.">
<polygon fill="white" stroke="#666666" points="163.75,-32 0,-32 0,0 163.75,0 163.75,-32"/>
<text text-anchor="start" x="8" y="-18.5" font-family="Helvetica,sans-Serif" font-size="10.00">DHARTAPI.Geometry.OBJLoader.</text>
<text text-anchor="middle" x="81.88" y="-6.5" font-family="Helvetica,sans-Serif" font-size="10.00">LoadOBJSubmeshes</text>
</a>
</g>
</g>
<!-- Node1&#45;&gt;Node3 -->
<g id="edge2" class="edge">
<title>Node1&#45;&gt;Node3</title>
<path fill="none" stroke="#63b8ff" d="M188.81,-30.29C180.61,-29.18 172.27,-28.06 164.06,-26.95"/>
<polygon fill="#63b8ff" stroke="#63b8ff" points="188.11,-33.86 198.49,-31.73 189.04,-26.92 188.11,-33.86"/>
</g>
</g>
</svg>
