<?xml version="1.0" encoding="UTF-8" standalone="no"?>
<!DOCTYPE svg PUBLIC "-//W3C//DTD SVG 1.1//EN"
 "http://www.w3.org/Graphics/SVG/1.1/DTD/svg11.dtd">
<!-- Generated by graphviz version 4.0.0 (20220529.0937)
 -->
<!-- Title: HumanFactors.Pathfinding.ShortestPath.DijkstraAllToAll Pages: 1 -->
<svg width="554pt" height="88pt"
 viewBox="0.00 0.00 554.00 88.00" xmlns="http://www.w3.org/2000/svg" xmlns:xlink="http://www.w3.org/1999/xlink">
<g id="graph0" class="graph" transform="scale(1 1) rotate(0) translate(4 84)">
<title>HumanFactors.Pathfinding.ShortestPath.DijkstraAllToAll</title>
<polygon fill="white" stroke="transparent" points="-4,4 -4,-84 550,-84 550,4 -4,4"/>
<!-- Node1 -->
<g id="node1" class="node">
<title>Node1</title>
<g id="a_node1"><a xlink:title="Generate a path from every node in the graph to every other node in a graph.">
<polygon fill="#bfbfbf" stroke="black" points="0,-24.5 0,-54.5 143,-54.5 143,-24.5 0,-24.5"/>
<text text-anchor="start" x="8" y="-42.5" font-family="Helvetica,sans-Serif" font-size="10.00">HumanFactors.Pathfinding.</text>
<text text-anchor="middle" x="71.5" y="-31.5" font-family="Helvetica,sans-Serif" font-size="10.00">ShortestPath.DijkstraAllToAll</text>
</a>
</g>
</g>
<!-- Node2 -->
<g id="node2" class="node">
<title>Node2</title>
<g id="a_node2"><a xlink:href="class_human_factors_1_1_pathfinding_1_1_native_methods.html#a895bee2da8bb6e4ca8b6a13b0267f1cf" target="_top" xlink:title="Generate all to all paths in C++.">
<polygon fill="white" stroke="black" points="182.5,-49.5 182.5,-79.5 336.5,-79.5 336.5,-49.5 182.5,-49.5"/>
<text text-anchor="start" x="190.5" y="-67.5" font-family="Helvetica,sans-Serif" font-size="10.00">HumanFactors.Pathfinding.</text>
<text text-anchor="middle" x="259.5" y="-56.5" font-family="Helvetica,sans-Serif" font-size="10.00">NativeMethods.C_AllToAllPaths</text>
</a>
</g>
</g>
<!-- Node1&#45;&gt;Node2 -->
<g id="edge1" class="edge">
<title>Node1&#45;&gt;Node2</title>
<path fill="none" stroke="midnightblue" d="M143.08,-48.99C152.62,-50.27 162.49,-51.59 172.26,-52.91"/>
<polygon fill="midnightblue" stroke="midnightblue" points="172,-56.41 182.38,-54.27 172.94,-49.47 172,-56.41"/>
</g>
<!-- Node4 -->
<g id="node4" class="node">
<title>Node4</title>
<g id="a_node4"><a xlink:href="class_human_factors_1_1_spatial_structures_1_1_graph.html#a1a40fc2bab18a5adf42fb7a49ca6ddb9" target="_top" xlink:title="Get the number of nodes in this graph.">
<polygon fill="white" stroke="black" points="179,-0.5 179,-30.5 340,-30.5 340,-0.5 179,-0.5"/>
<text text-anchor="start" x="187" y="-18.5" font-family="Helvetica,sans-Serif" font-size="10.00">HumanFactors.SpatialStructures.</text>
<text text-anchor="middle" x="259.5" y="-7.5" font-family="Helvetica,sans-Serif" font-size="10.00">Graph.NumNodes</text>
</a>
</g>
</g>
<!-- Node1&#45;&gt;Node4 -->
<g id="edge3" class="edge">
<title>Node1&#45;&gt;Node4</title>
<path fill="none" stroke="midnightblue" d="M143.08,-30.39C151.5,-29.31 160.19,-28.19 168.83,-27.07"/>
<polygon fill="midnightblue" stroke="midnightblue" points="169.47,-30.52 178.94,-25.77 168.57,-23.57 169.47,-30.52"/>
</g>
<!-- Node3 -->
<g id="node3" class="node">
<title>Node3</title>
<g id="a_node3"><a xlink:href="class_human_factors_1_1_pathfinding_1_1_native_methods.html#ac65e2c836245c0d6c6a1fab3bc61f1a4" target="_top" xlink:title=" ">
<polygon fill="white" stroke="black" points="376,-49.5 376,-79.5 546,-79.5 546,-49.5 376,-49.5"/>
<text text-anchor="start" x="384" y="-67.5" font-family="Helvetica,sans-Serif" font-size="10.00">HumanFactors.Pathfinding.</text>
<text text-anchor="middle" x="461" y="-56.5" font-family="Helvetica,sans-Serif" font-size="10.00">NativeMethods.CreateAllToAllPaths</text>
</a>
</g>
</g>
<!-- Node2&#45;&gt;Node3 -->
<g id="edge2" class="edge">
<title>Node2&#45;&gt;Node3</title>
<path fill="none" stroke="midnightblue" d="M336.78,-64.5C346.25,-64.5 356.02,-64.5 365.72,-64.5"/>
<polygon fill="midnightblue" stroke="midnightblue" points="365.78,-68 375.78,-64.5 365.78,-61 365.78,-68"/>
</g>
</g>
</svg>
