<?xml version="1.0" encoding="UTF-8" standalone="no"?>
<!DOCTYPE svg PUBLIC "-//W3C//DTD SVG 1.1//EN"
 "http://www.w3.org/Graphics/SVG/1.1/DTD/svg11.dtd">
<!-- Generated by graphviz version 8.0.5 (20230430.1635)
 -->
<!-- Title: DHARTAPI.RayTracing.NativeMethods.C_IntersectRays Pages: 1 -->
<svg width="334pt" height="90pt"
 viewBox="0.00 0.00 334.00 90.00" xmlns="http://www.w3.org/2000/svg" xmlns:xlink="http://www.w3.org/1999/xlink">
<g id="graph0" class="graph" transform="scale(1 1) rotate(0) translate(4 86)">
<title>DHARTAPI.RayTracing.NativeMethods.C_IntersectRays</title>
<!-- Node1 -->
<g id="node1" class="node">
<title>Node1</title>
<g id="a_node1"><a xlink:title="Cast multiple rays in C++ then recieve the distance and meshid of geometry intersected by each in ret...">
<polygon fill="#999999" stroke="#666666" points="145,-57 0,-57 0,-25 145,-25 145,-57"/>
<text text-anchor="start" x="8" y="-43.5" font-family="Helvetica,sans-Serif" font-size="10.00">DHARTAPI.RayTracing.Native</text>
<text text-anchor="middle" x="72.5" y="-31.5" font-family="Helvetica,sans-Serif" font-size="10.00">Methods.C_IntersectRays</text>
</a>
</g>
</g>
<!-- Node2 -->
<g id="node2" class="node">
<title>Node2</title>
<g id="a_node2"><a xlink:href="class_d_h_a_r_t_a_p_i_1_1_ray_tracing_1_1_native_methods.html#afc6db72b6bfc827a59230d4c928a12c2" target="_top" xlink:title=" ">
<polygon fill="white" stroke="#666666" points="326,-82 181,-82 181,-50 326,-50 326,-82"/>
<text text-anchor="start" x="189" y="-68.5" font-family="Helvetica,sans-Serif" font-size="10.00">DHARTAPI.RayTracing.Native</text>
<text text-anchor="middle" x="253.5" y="-56.5" font-family="Helvetica,sans-Serif" font-size="10.00">Methods.CastRaysDistance</text>
</a>
</g>
</g>
<!-- Node1&#45;&gt;Node2 -->
<g id="edge1" class="edge">
<title>Node1&#45;&gt;Node2</title>
<path fill="none" stroke="#63b8ff" d="M145.27,-51.02C153.39,-52.16 161.71,-53.32 169.95,-54.47"/>
<polygon fill="#63b8ff" stroke="#63b8ff" points="169.32,-58.06 179.71,-55.97 170.29,-51.12 169.32,-58.06"/>
</g>
<!-- Node3 -->
<g id="node3" class="node">
<title>Node3</title>
<g id="a_node3"><a xlink:href="class_d_h_a_r_t_a_p_i_1_1_native_utils_1_1_helper_functions.html#a25819207027d373e010839e97ee002d1" target="_top" xlink:title="Convert a vector array into an array of floats.">
<polygon fill="white" stroke="#666666" points="325.25,-32 181.75,-32 181.75,0 325.25,0 325.25,-32"/>
<text text-anchor="start" x="189.75" y="-18.5" font-family="Helvetica,sans-Serif" font-size="10.00">DHARTAPI.NativeUtils.Helper</text>
<text text-anchor="middle" x="253.5" y="-6.5" font-family="Helvetica,sans-Serif" font-size="10.00">Functions.FlattenVectorArray</text>
</a>
</g>
</g>
<!-- Node1&#45;&gt;Node3 -->
<g id="edge2" class="edge">
<title>Node1&#45;&gt;Node3</title>
<path fill="none" stroke="#63b8ff" d="M145.27,-30.98C153.62,-29.81 162.18,-28.62 170.64,-27.43"/>
<polygon fill="#63b8ff" stroke="#63b8ff" points="170.87,-30.79 180.29,-25.95 169.9,-23.86 170.87,-30.79"/>
</g>
</g>
</svg>
