<?xml version="1.0" encoding="UTF-8" standalone="no"?>
<!DOCTYPE svg PUBLIC "-//W3C//DTD SVG 1.1//EN"
 "http://www.w3.org/Graphics/SVG/1.1/DTD/svg11.dtd">
<!-- Generated by graphviz version 4.0.0 (20220529.0937)
 -->
<!-- Title: DHARTAPI.RayTracing.NativeMethods.C_IntersectPoints Pages: 1 -->
<svg width="360pt" height="209pt"
 viewBox="0.00 0.00 360.00 208.50" xmlns="http://www.w3.org/2000/svg" xmlns:xlink="http://www.w3.org/1999/xlink">
<g id="graph0" class="graph" transform="scale(1 1) rotate(0) translate(4 204.5)">
<title>DHARTAPI.RayTracing.NativeMethods.C_IntersectPoints</title>
<polygon fill="white" stroke="transparent" points="-4,4 -4,-204.5 356,-204.5 356,4 -4,4"/>
<!-- Node1 -->
<g id="node1" class="node">
<title>Node1</title>
<g id="a_node1"><a xlink:title="Cast multiple rays at once in C++.">
<polygon fill="#bfbfbf" stroke="black" points="0,-76.5 0,-106.5 146,-106.5 146,-76.5 0,-76.5"/>
<text text-anchor="start" x="8" y="-94.5" font-family="Helvetica,sans-Serif" font-size="10.00">DHARTAPI.RayTracing.Native</text>
<text text-anchor="middle" x="73" y="-83.5" font-family="Helvetica,sans-Serif" font-size="10.00">Methods.C_IntersectPoints</text>
</a>
</g>
</g>
<!-- Node2 -->
<g id="node2" class="node">
<title>Node2</title>
<g id="a_node2"><a xlink:href="class_d_h_a_r_t_a_p_i_1_1_ray_tracing_1_1_native_methods.html#a83096b9750d7be8fc19fa16957d9b671" target="_top" xlink:title=" ">
<polygon fill="white" stroke="black" points="189.5,-159 189.5,-200 344.5,-200 344.5,-159 189.5,-159"/>
<text text-anchor="start" x="197.5" y="-188" font-family="Helvetica,sans-Serif" font-size="10.00">DHARTAPI.RayTracing.Native</text>
<text text-anchor="start" x="197.5" y="-177" font-family="Helvetica,sans-Serif" font-size="10.00">Methods.CastMultipleDirections</text>
<text text-anchor="middle" x="267" y="-166" font-family="Helvetica,sans-Serif" font-size="10.00">OneOrigin</text>
</a>
</g>
</g>
<!-- Node1&#45;&gt;Node2 -->
<g id="edge1" class="edge">
<title>Node1&#45;&gt;Node2</title>
<path fill="none" stroke="midnightblue" d="M99.64,-106.68C121.19,-119.09 153.02,-136.63 182,-149.5 186.37,-151.44 190.91,-153.35 195.51,-155.21"/>
<polygon fill="midnightblue" stroke="midnightblue" points="194.42,-158.54 205.01,-158.94 196.98,-152.02 194.42,-158.54"/>
</g>
<!-- Node3 -->
<g id="node3" class="node">
<title>Node3</title>
<g id="a_node3"><a xlink:href="class_d_h_a_r_t_a_p_i_1_1_ray_tracing_1_1_native_methods.html#a5f1f892de2c223c8b12bb17cea9f7f6d" target="_top" xlink:title=" ">
<polygon fill="white" stroke="black" points="187,-99 187,-140 347,-140 347,-99 187,-99"/>
<text text-anchor="start" x="195" y="-128" font-family="Helvetica,sans-Serif" font-size="10.00">DHARTAPI.RayTracing.Native</text>
<text text-anchor="start" x="195" y="-117" font-family="Helvetica,sans-Serif" font-size="10.00">Methods.CastMultipleOriginsOne</text>
<text text-anchor="middle" x="267" y="-106" font-family="Helvetica,sans-Serif" font-size="10.00">Direction</text>
</a>
</g>
</g>
<!-- Node1&#45;&gt;Node3 -->
<g id="edge2" class="edge">
<title>Node1&#45;&gt;Node3</title>
<path fill="none" stroke="midnightblue" d="M146.04,-102.01C156.02,-103.46 166.36,-104.97 176.6,-106.46"/>
<polygon fill="midnightblue" stroke="midnightblue" points="176.4,-109.97 186.8,-107.95 177.41,-103.04 176.4,-109.97"/>
</g>
<!-- Node4 -->
<g id="node4" class="node">
<title>Node4</title>
<g id="a_node4"><a xlink:href="class_d_h_a_r_t_a_p_i_1_1_ray_tracing_1_1_native_methods.html#ac8268f2fcdc8cf1603059da5a72a4ca2" target="_top" xlink:title=" ">
<polygon fill="white" stroke="black" points="194,-49.5 194,-79.5 340,-79.5 340,-49.5 194,-49.5"/>
<text text-anchor="start" x="202" y="-67.5" font-family="Helvetica,sans-Serif" font-size="10.00">DHARTAPI.RayTracing.Native</text>
<text text-anchor="middle" x="267" y="-56.5" font-family="Helvetica,sans-Serif" font-size="10.00">Methods.CastMultipleRays</text>
</a>
</g>
</g>
<!-- Node1&#45;&gt;Node4 -->
<g id="edge3" class="edge">
<title>Node1&#45;&gt;Node4</title>
<path fill="none" stroke="midnightblue" d="M146.04,-81.37C158.38,-79.63 171.29,-77.82 183.87,-76.05"/>
<polygon fill="midnightblue" stroke="midnightblue" points="184.46,-79.5 193.88,-74.64 183.49,-72.57 184.46,-79.5"/>
</g>
<!-- Node5 -->
<g id="node5" class="node">
<title>Node5</title>
<g id="a_node5"><a xlink:href="class_d_h_a_r_t_a_p_i_1_1_native_utils_1_1_helper_functions.html#ae95d1223286b95f40cef0dcad143f093" target="_top" xlink:title="Convert a flat array of floats into a vector of points where result_array is true.">
<polygon fill="white" stroke="black" points="182,-0.5 182,-30.5 352,-30.5 352,-0.5 182,-0.5"/>
<text text-anchor="start" x="190" y="-18.5" font-family="Helvetica,sans-Serif" font-size="10.00">DHARTAPI.NativeUtils.Helper</text>
<text text-anchor="middle" x="267" y="-7.5" font-family="Helvetica,sans-Serif" font-size="10.00">Functions.FloatArrayToVectorArray</text>
</a>
</g>
</g>
<!-- Node1&#45;&gt;Node5 -->
<g id="edge4" class="edge">
<title>Node1&#45;&gt;Node5</title>
<path fill="none" stroke="midnightblue" d="M102.81,-76.42C124.28,-65.56 154.5,-51.02 182,-40.5 188.21,-38.13 194.74,-35.84 201.31,-33.67"/>
<polygon fill="midnightblue" stroke="midnightblue" points="202.47,-36.97 210.92,-30.58 200.33,-30.31 202.47,-36.97"/>
</g>
</g>
</svg>
