<?xml version="1.0" encoding="UTF-8" standalone="no"?>
<!DOCTYPE svg PUBLIC "-//W3C//DTD SVG 1.1//EN"
 "http://www.w3.org/Graphics/SVG/1.1/DTD/svg11.dtd">
<!-- Generated by graphviz version 2.43.0 (0)
 -->
<!-- Title: HumanFactors.SpatialStructures.Graph.NumNodes Pages: 1 -->
<svg width="405pt" height="198pt"
 viewBox="0.00 0.00 405.00 197.50" xmlns="http://www.w3.org/2000/svg" xmlns:xlink="http://www.w3.org/1999/xlink">
<g id="graph0" class="graph" transform="scale(1 1) rotate(0) translate(4 193.5)">
<title>HumanFactors.SpatialStructures.Graph.NumNodes</title>
<polygon fill="white" stroke="transparent" points="-4,4 -4,-193.5 401,-193.5 401,4 -4,4"/>
<!-- Node1 -->
<g id="node1" class="node">
<title>Node1</title>
<g id="a_node1"><a xlink:title="Get the number of nodes in this graph.">
<polygon fill="#bfbfbf" stroke="black" points="221,-85 221,-115 397,-115 397,-85 221,-85"/>
<text text-anchor="start" x="229" y="-103" font-family="Helvetica,sans-Serif" font-size="10.00">HumanFactors.SpatialStructures.</text>
<text text-anchor="middle" x="309" y="-92" font-family="Helvetica,sans-Serif" font-size="10.00">Graph.NumNodes</text>
</a>
</g>
</g>
<!-- Node2 -->
<g id="node2" class="node">
<title>Node2</title>
<g id="a_node2"><a xlink:href="class_human_factors_1_1_spatial_structures_1_1_graph.html#a5b02773d3b7f547a8b31b90300406ca0" target="_top" xlink:title="Add attribute to all node in ids, with their respective score in scores.">
<polygon fill="white" stroke="black" points="4.5,-159 4.5,-189 180.5,-189 180.5,-159 4.5,-159"/>
<text text-anchor="start" x="12.5" y="-177" font-family="Helvetica,sans-Serif" font-size="10.00">HumanFactors.SpatialStructures.</text>
<text text-anchor="middle" x="92.5" y="-166" font-family="Helvetica,sans-Serif" font-size="10.00">Graph.AddNodeAttribute&lt; T &gt;</text>
</a>
</g>
</g>
<!-- Node1&#45;&gt;Node2 -->
<g id="edge1" class="edge">
<title>Node1&#45;&gt;Node2</title>
<path fill="none" stroke="midnightblue" d="M264.96,-119.1C241.58,-129.06 212.01,-141.01 185,-150 175.49,-153.16 165.32,-156.18 155.35,-158.95"/>
<polygon fill="midnightblue" stroke="midnightblue" points="266.44,-122.27 274.25,-115.1 263.68,-115.84 266.44,-122.27"/>
</g>
<!-- Node3 -->
<g id="node3" class="node">
<title>Node3</title>
<g id="a_node3"><a xlink:href="class_human_factors_1_1_spatial_structures_1_1_graph.html#a45a2d5b16092f8389210dc47f722a539" target="_top" xlink:title="Summarize the edgecosts of every node in the graph.">
<polygon fill="white" stroke="black" points="4.5,-110 4.5,-140 180.5,-140 180.5,-110 4.5,-110"/>
<text text-anchor="start" x="12.5" y="-128" font-family="Helvetica,sans-Serif" font-size="10.00">HumanFactors.SpatialStructures.</text>
<text text-anchor="middle" x="92.5" y="-117" font-family="Helvetica,sans-Serif" font-size="10.00">Graph.AggregateEdgeCosts</text>
</a>
</g>
</g>
<!-- Node1&#45;&gt;Node3 -->
<g id="edge2" class="edge">
<title>Node1&#45;&gt;Node3</title>
<path fill="none" stroke="midnightblue" d="M210.77,-111.33C200.74,-112.5 190.58,-113.68 180.67,-114.84"/>
<polygon fill="midnightblue" stroke="midnightblue" points="211.23,-114.8 220.75,-110.17 210.42,-107.85 211.23,-114.8"/>
</g>
<!-- Node4 -->
<g id="node4" class="node">
<title>Node4</title>
<g id="a_node4"><a xlink:href="class_human_factors_1_1_pathfinding_1_1_shortest_path.html#a3ede2597cc17a4f1a130741b0163bbab" target="_top" xlink:title="Generate a path from every node in the graph to every other node in a graph.">
<polygon fill="white" stroke="black" points="15,-61 15,-91 170,-91 170,-61 15,-61"/>
<text text-anchor="start" x="23" y="-79" font-family="Helvetica,sans-Serif" font-size="10.00">HumanFactors.Pathfinding.</text>
<text text-anchor="middle" x="92.5" y="-68" font-family="Helvetica,sans-Serif" font-size="10.00">ShortestPath.DijkstraAllToAll</text>
</a>
</g>
</g>
<!-- Node1&#45;&gt;Node4 -->
<g id="edge3" class="edge">
<title>Node1&#45;&gt;Node4</title>
<path fill="none" stroke="midnightblue" d="M210.51,-89.09C197.04,-87.58 183.36,-86.05 170.33,-84.6"/>
<polygon fill="midnightblue" stroke="midnightblue" points="210.43,-92.6 220.75,-90.24 211.21,-85.65 210.43,-92.6"/>
</g>
<!-- Node5 -->
<g id="node5" class="node">
<title>Node5</title>
<g id="a_node5"><a xlink:href="class_human_factors_1_1_pathfinding_1_1_shortest_path.html#abf65038bac66da2c403034c05f83bee9" target="_top" xlink:title="Calculate Predecessor and Distance Matricies for a graph.">
<polygon fill="white" stroke="black" points="0,-0.5 0,-41.5 185,-41.5 185,-0.5 0,-0.5"/>
<text text-anchor="start" x="8" y="-29.5" font-family="Helvetica,sans-Serif" font-size="10.00">HumanFactors.Pathfinding.</text>
<text text-anchor="start" x="8" y="-18.5" font-family="Helvetica,sans-Serif" font-size="10.00">ShortestPath.GeneratePredecessor</text>
<text text-anchor="middle" x="92.5" y="-7.5" font-family="Helvetica,sans-Serif" font-size="10.00">AndDistanceMatricies</text>
</a>
</g>
</g>
<!-- Node1&#45;&gt;Node5 -->
<g id="edge4" class="edge">
<title>Node1&#45;&gt;Node5</title>
<path fill="none" stroke="midnightblue" d="M261.28,-81.19C238.38,-72.12 210.35,-61.23 185,-52 175.54,-48.56 165.5,-45.02 155.65,-41.63"/>
<polygon fill="midnightblue" stroke="midnightblue" points="260.17,-84.52 270.76,-84.96 262.76,-78.01 260.17,-84.52"/>
</g>
</g>
</svg>
