<?xml version="1.0" encoding="UTF-8" standalone="no"?>
<!DOCTYPE svg PUBLIC "-//W3C//DTD SVG 1.1//EN"
 "http://www.w3.org/Graphics/SVG/1.1/DTD/svg11.dtd">
<!-- Generated by graphviz version 7.0.3 (20221126.0506)
 -->
<!-- Title: DHARTAPI.NativeUtils.NativeArray2D&lt; T &gt; Pages: 1 -->
<svg width="171pt" height="269pt"
 viewBox="0.00 0.00 171.00 269.00" xmlns="http://www.w3.org/2000/svg" xmlns:xlink="http://www.w3.org/1999/xlink">
<g id="graph0" class="graph" transform="scale(1 1) rotate(0) translate(4 265)">
<title>DHARTAPI.NativeUtils.NativeArray2D&lt; T &gt;</title>
<!-- Node1 -->
<g id="node1" class="node">
<title>Node1</title>
<g id="a_node1"><a xlink:title="A wrapper for a two dimensional array in unmanaged memory.">
<polygon fill="#999999" stroke="#666666" points="153,-96 10,-96 10,-66 153,-66 153,-96"/>
<text text-anchor="start" x="18" y="-84" font-family="Helvetica,sans-Serif" font-size="10.00">DHARTAPI.NativeUtils.Native</text>
<text text-anchor="middle" x="81.5" y="-73" font-family="Helvetica,sans-Serif" font-size="10.00">Array2D&lt; T &gt;</text>
</a>
</g>
</g>
<!-- Node5 -->
<g id="node5" class="node">
<title>Node5</title>
<g id="a_node5"><a xlink:href="class_d_h_a_r_t_a_p_i_1_1_native_utils_1_1_dependent_native_array.html" target="_top" xlink:title="A native array 2D that doesn&#39;t require destruction.">
<polygon fill="white" stroke="#666666" points="163,-30 0,-30 0,0 163,0 163,-30"/>
<text text-anchor="start" x="8" y="-18" font-family="Helvetica,sans-Serif" font-size="10.00">DHARTAPI.NativeUtils.Dependent</text>
<text text-anchor="middle" x="81.5" y="-7" font-family="Helvetica,sans-Serif" font-size="10.00">NativeArray&lt; T &gt;</text>
</a>
</g>
</g>
<!-- Node1&#45;&gt;Node5 -->
<g id="edge4" class="edge">
<title>Node1&#45;&gt;Node5</title>
<path fill="none" stroke="#63b8ff" d="M81.5,-54.39C81.5,-46.13 81.5,-37.28 81.5,-30.16"/>
<polygon fill="#63b8ff" stroke="#63b8ff" points="78,-54.28 81.5,-64.28 85,-54.28 78,-54.28"/>
</g>
<!-- Node2 -->
<g id="node2" class="node">
<title>Node2</title>
<g id="a_node2"><a xlink:href="class_d_h_a_r_t_a_p_i_1_1_native_utils_1_1_native_array.html" target="_top" xlink:title="A read&#45;only array stored in unmanaged memory.">
<polygon fill="white" stroke="#666666" points="126,-151 37,-151 37,-132 126,-132 126,-151"/>
<text text-anchor="middle" x="81.5" y="-139" font-family="Helvetica,sans-Serif" font-size="10.00">NativeArray&lt; T &gt;</text>
</a>
</g>
</g>
<!-- Node2&#45;&gt;Node1 -->
<g id="edge1" class="edge">
<title>Node2&#45;&gt;Node1</title>
<path fill="none" stroke="#63b8ff" d="M81.5,-120.51C81.5,-112.49 81.5,-103.43 81.5,-96.11"/>
<polygon fill="#63b8ff" stroke="#63b8ff" points="78,-120.35 81.5,-130.35 85,-120.35 78,-120.35"/>
</g>
<!-- Node3 -->
<g id="node3" class="node">
<title>Node3</title>
<g id="a_node3"><a xlink:href="class_d_h_a_r_t_a_p_i_1_1_native_utils_1_1_native_object.html" target="_top" xlink:title="An object that holds a pointer to unmanaged memory or some other resource that must be freed.">
<polygon fill="white" stroke="#666666" points="117,-206 46,-206 46,-187 117,-187 117,-206"/>
<text text-anchor="middle" x="81.5" y="-194" font-family="Helvetica,sans-Serif" font-size="10.00">NativeObject</text>
</a>
</g>
</g>
<!-- Node3&#45;&gt;Node2 -->
<g id="edge2" class="edge">
<title>Node3&#45;&gt;Node2</title>
<path fill="none" stroke="#63b8ff" d="M81.5,-175.35C81.5,-167.1 81.5,-157.97 81.5,-151.44"/>
<polygon fill="#63b8ff" stroke="#63b8ff" points="78,-175.23 81.5,-185.23 85,-175.23 78,-175.23"/>
</g>
<!-- Node4 -->
<g id="node4" class="node">
<title>Node4</title>
<g id="a_node4"><a xlink:href="class_safe_handle.html" target="_top" xlink:title=" ">
<polygon fill="white" stroke="#666666" points="114.5,-261 48.5,-261 48.5,-242 114.5,-242 114.5,-261"/>
<text text-anchor="middle" x="81.5" y="-249" font-family="Helvetica,sans-Serif" font-size="10.00">SafeHandle</text>
</a>
</g>
</g>
<!-- Node4&#45;&gt;Node3 -->
<g id="edge3" class="edge">
<title>Node4&#45;&gt;Node3</title>
<path fill="none" stroke="#63b8ff" d="M81.5,-230.35C81.5,-222.1 81.5,-212.97 81.5,-206.44"/>
<polygon fill="#63b8ff" stroke="#63b8ff" points="78,-230.23 81.5,-240.23 85,-230.23 78,-230.23"/>
</g>
</g>
</svg>
