<?xml version="1.0" encoding="UTF-8" standalone="no"?>
<!DOCTYPE svg PUBLIC "-//W3C//DTD SVG 1.1//EN"
 "http://www.w3.org/Graphics/SVG/1.1/DTD/svg11.dtd">
<!-- Generated by graphviz version 5.0.0 (20220707.1540)
 -->
<!-- Title: DHARTAPI.Pathfinding.NativeMethods.CreateAllToAllPaths Pages: 1 -->
<svg width="525pt" height="39pt"
 viewBox="0.00 0.00 525.00 39.00" xmlns="http://www.w3.org/2000/svg" xmlns:xlink="http://www.w3.org/1999/xlink">
<g id="graph0" class="graph" transform="scale(1 1) rotate(0) translate(4 35)">
<title>DHARTAPI.Pathfinding.NativeMethods.CreateAllToAllPaths</title>
<polygon fill="white" stroke="transparent" points="-4,4 -4,-35 521,-35 521,4 -4,4"/>
<!-- Node1 -->
<g id="node1" class="node">
<title>Node1</title>
<g id="a_node1"><a xlink:title=" ">
<polygon fill="#bfbfbf" stroke="black" points="372,-0.5 372,-30.5 517,-30.5 517,-0.5 372,-0.5"/>
<text text-anchor="start" x="380" y="-18.5" font-family="Helvetica,sans-Serif" font-size="10.00">DHARTAPI.Pathfinding.Native</text>
<text text-anchor="middle" x="444.5" y="-7.5" font-family="Helvetica,sans-Serif" font-size="10.00">Methods.CreateAllToAllPaths</text>
</a>
</g>
</g>
<!-- Node2 -->
<g id="node2" class="node">
<title>Node2</title>
<g id="a_node2"><a xlink:href="class_d_h_a_r_t_a_p_i_1_1_pathfinding_1_1_native_methods.html#a69f39620ac0151772c22311037fe8d08" target="_top" xlink:title="Generate all to all paths in C++.">
<polygon fill="white" stroke="black" points="191,-0.5 191,-30.5 336,-30.5 336,-0.5 191,-0.5"/>
<text text-anchor="start" x="199" y="-18.5" font-family="Helvetica,sans-Serif" font-size="10.00">DHARTAPI.Pathfinding.Native</text>
<text text-anchor="middle" x="263.5" y="-7.5" font-family="Helvetica,sans-Serif" font-size="10.00">Methods.C_AllToAllPaths</text>
</a>
</g>
</g>
<!-- Node1&#45;&gt;Node2 -->
<g id="edge1" class="edge">
<title>Node1&#45;&gt;Node2</title>
<path fill="none" stroke="midnightblue" d="M361.96,-15.5C353.36,-15.5 344.67,-15.5 336.2,-15.5"/>
<polygon fill="midnightblue" stroke="midnightblue" points="361.98,-19 371.98,-15.5 361.98,-12 361.98,-19"/>
</g>
<!-- Node3 -->
<g id="node3" class="node">
<title>Node3</title>
<g id="a_node3"><a xlink:href="class_d_h_a_r_t_a_p_i_1_1_pathfinding_1_1_shortest_path.html#a5d3e810b6cef979141bd4208700a6df2" target="_top" xlink:title="Generate a path from every node in the graph to every other node in a graph.">
<polygon fill="white" stroke="black" points="0,-0.5 0,-30.5 155,-30.5 155,-0.5 0,-0.5"/>
<text text-anchor="start" x="8" y="-18.5" font-family="Helvetica,sans-Serif" font-size="10.00">DHARTAPI.Pathfinding.Shortest</text>
<text text-anchor="middle" x="77.5" y="-7.5" font-family="Helvetica,sans-Serif" font-size="10.00">Path.DijkstraAllToAll</text>
</a>
</g>
</g>
<!-- Node2&#45;&gt;Node3 -->
<g id="edge2" class="edge">
<title>Node2&#45;&gt;Node3</title>
<path fill="none" stroke="midnightblue" d="M180.59,-15.5C172.12,-15.5 163.54,-15.5 155.14,-15.5"/>
<polygon fill="midnightblue" stroke="midnightblue" points="180.83,-19 190.83,-15.5 180.83,-12 180.83,-19"/>
</g>
</g>
</svg>
