<?xml version="1.0" encoding="UTF-8" standalone="no"?>
<!DOCTYPE svg PUBLIC "-//W3C//DTD SVG 1.1//EN"
 "http://www.w3.org/Graphics/SVG/1.1/DTD/svg11.dtd">
<!-- Generated by graphviz version 4.0.0 (20220529.0937)
 -->
<!-- Title: HumanFactors.VisibilityGraph.VisibilityGraph.GenerateAllToAll Pages: 1 -->
<svg width="601pt" height="160pt"
 viewBox="0.00 0.00 601.00 159.50" xmlns="http://www.w3.org/2000/svg" xmlns:xlink="http://www.w3.org/1999/xlink">
<g id="graph0" class="graph" transform="scale(1 1) rotate(0) translate(4 155.5)">
<title>HumanFactors.VisibilityGraph.VisibilityGraph.GenerateAllToAll</title>
<polygon fill="white" stroke="transparent" points="-4,4 -4,-155.5 597,-155.5 597,4 -4,4"/>
<!-- Node1 -->
<g id="node1" class="node">
<title>Node1</title>
<g id="a_node1"><a xlink:title="Create a visibility graph from every node to every node in nodes.">
<polygon fill="#bfbfbf" stroke="black" points="0,-55.5 0,-85.5 155,-85.5 155,-55.5 0,-55.5"/>
<text text-anchor="start" x="8" y="-73.5" font-family="Helvetica,sans-Serif" font-size="10.00">HumanFactors.VisibilityGraph.</text>
<text text-anchor="middle" x="77.5" y="-62.5" font-family="Helvetica,sans-Serif" font-size="10.00">VisibilityGraph.GenerateAllToAll</text>
</a>
</g>
</g>
<!-- Node2 -->
<g id="node2" class="node">
<title>Node2</title>
<g id="a_node2"><a xlink:href="class_human_factors_1_1_visibility_graph_1_1_native_methods.html#a1d143831fb37b4a2195d70a94cb3d977" target="_top" xlink:title="Generate a visibility graph in C++.">
<polygon fill="white" stroke="black" points="191,-55.5 191,-85.5 382,-85.5 382,-55.5 191,-55.5"/>
<text text-anchor="start" x="199" y="-73.5" font-family="Helvetica,sans-Serif" font-size="10.00">HumanFactors.VisibilityGraph.</text>
<text text-anchor="middle" x="286.5" y="-62.5" font-family="Helvetica,sans-Serif" font-size="10.00">NativeMethods.C_AllToAllVisibilityGraph</text>
</a>
</g>
</g>
<!-- Node1&#45;&gt;Node2 -->
<g id="edge1" class="edge">
<title>Node1&#45;&gt;Node2</title>
<path fill="none" stroke="midnightblue" d="M155.28,-70.5C163.64,-70.5 172.24,-70.5 180.85,-70.5"/>
<polygon fill="midnightblue" stroke="midnightblue" points="180.95,-74 190.95,-70.5 180.95,-67 180.95,-74"/>
</g>
<!-- Node3 -->
<g id="node3" class="node">
<title>Node3</title>
<g id="a_node3"><a xlink:href="class_human_factors_1_1_visibility_graph_1_1_native_methods.html#aef47a7e91c6886fd55b4c7075c763826" target="_top" xlink:title=" ">
<polygon fill="white" stroke="black" points="418,-110 418,-151 593,-151 593,-110 418,-110"/>
<text text-anchor="start" x="426" y="-139" font-family="Helvetica,sans-Serif" font-size="10.00">HumanFactors.VisibilityGraph.</text>
<text text-anchor="start" x="426" y="-128" font-family="Helvetica,sans-Serif" font-size="10.00">NativeMethods.CreateVisibilityGraph</text>
<text text-anchor="middle" x="505.5" y="-117" font-family="Helvetica,sans-Serif" font-size="10.00">AllToAll</text>
</a>
</g>
</g>
<!-- Node2&#45;&gt;Node3 -->
<g id="edge2" class="edge">
<title>Node2&#45;&gt;Node3</title>
<path fill="none" stroke="midnightblue" d="M341.98,-85.56C365.69,-92.12 394.02,-99.95 420.34,-107.23"/>
<polygon fill="midnightblue" stroke="midnightblue" points="419.75,-110.7 430.32,-109.99 421.61,-103.95 419.75,-110.7"/>
</g>
<!-- Node4 -->
<g id="node4" class="node">
<title>Node4</title>
<g id="a_node4"><a xlink:href="class_human_factors_1_1_visibility_graph_1_1_native_methods.html#ade1cf7191ccdb49e0fe4f54340bf6c30" target="_top" xlink:title=" ">
<polygon fill="white" stroke="black" points="418,-50 418,-91 593,-91 593,-50 418,-50"/>
<text text-anchor="start" x="426" y="-79" font-family="Helvetica,sans-Serif" font-size="10.00">HumanFactors.VisibilityGraph.</text>
<text text-anchor="start" x="426" y="-68" font-family="Helvetica,sans-Serif" font-size="10.00">NativeMethods.CreateVisibilityGraph</text>
<text text-anchor="middle" x="505.5" y="-57" font-family="Helvetica,sans-Serif" font-size="10.00">AllToAllUndirected</text>
</a>
</g>
</g>
<!-- Node2&#45;&gt;Node4 -->
<g id="edge3" class="edge">
<title>Node2&#45;&gt;Node4</title>
<path fill="none" stroke="midnightblue" d="M382.05,-70.5C390.49,-70.5 399.05,-70.5 407.52,-70.5"/>
<polygon fill="midnightblue" stroke="midnightblue" points="407.78,-74 417.78,-70.5 407.78,-67 407.78,-74"/>
</g>
<!-- Node5 -->
<g id="node5" class="node">
<title>Node5</title>
<g id="a_node5"><a xlink:href="class_human_factors_1_1_native_utils_1_1_helper_functions.html#a5eb73d70f5a450f1dd9b5aa697e1174d" target="_top" xlink:title="Convert a vector array into an array of floats.">
<polygon fill="white" stroke="black" points="419.5,-0.5 419.5,-30.5 591.5,-30.5 591.5,-0.5 419.5,-0.5"/>
<text text-anchor="start" x="427.5" y="-18.5" font-family="Helvetica,sans-Serif" font-size="10.00">HumanFactors.NativeUtils.</text>
<text text-anchor="middle" x="505.5" y="-7.5" font-family="Helvetica,sans-Serif" font-size="10.00">HelperFunctions.FlattenVectorArray</text>
</a>
</g>
</g>
<!-- Node2&#45;&gt;Node5 -->
<g id="edge4" class="edge">
<title>Node2&#45;&gt;Node5</title>
<path fill="none" stroke="midnightblue" d="M346.8,-55.47C374.19,-48.53 406.88,-40.24 435.38,-33.02"/>
<polygon fill="midnightblue" stroke="midnightblue" points="436.44,-36.36 445.28,-30.51 434.72,-29.58 436.44,-36.36"/>
</g>
</g>
</svg>
