<?xml version="1.0" encoding="UTF-8" standalone="no"?>
<!DOCTYPE svg PUBLIC "-//W3C//DTD SVG 1.1//EN"
 "http://www.w3.org/Graphics/SVG/1.1/DTD/svg11.dtd">
<!-- Generated by graphviz version 4.0.0 (20220529.0937)
 -->
<!-- Title: DHARTAPI.NativeUtils.CommonNativeArrays.UnmanagedIntArray2D.ReleaseHandle Pages: 1 -->
<svg width="384pt" height="50pt"
 viewBox="0.00 0.00 384.00 50.00" xmlns="http://www.w3.org/2000/svg" xmlns:xlink="http://www.w3.org/1999/xlink">
<g id="graph0" class="graph" transform="scale(1 1) rotate(0) translate(4 46)">
<title>DHARTAPI.NativeUtils.CommonNativeArrays.UnmanagedIntArray2D.ReleaseHandle</title>
<polygon fill="white" stroke="transparent" points="-4,4 -4,-46 380,-46 380,4 -4,4"/>
<!-- Node1 -->
<g id="node1" class="node">
<title>Node1</title>
<g id="a_node1"><a xlink:title="Free the native memory managed by this class.">
<polygon fill="#bfbfbf" stroke="black" points="0,-0.5 0,-41.5 165,-41.5 165,-0.5 0,-0.5"/>
<text text-anchor="start" x="8" y="-29.5" font-family="Helvetica,sans-Serif" font-size="10.00">DHARTAPI.NativeUtils.Common</text>
<text text-anchor="start" x="8" y="-18.5" font-family="Helvetica,sans-Serif" font-size="10.00">NativeArrays.UnmanagedIntArray2</text>
<text text-anchor="middle" x="82.5" y="-7.5" font-family="Helvetica,sans-Serif" font-size="10.00">D.ReleaseHandle</text>
</a>
</g>
</g>
<!-- Node2 -->
<g id="node2" class="node">
<title>Node2</title>
<g id="a_node2"><a xlink:href="class_d_h_a_r_t_a_p_i_1_1_native_utils_1_1_common_native_arrays_1_1_native_methods.html#a28ba1d8a93fba5c5199104f32b7fb0ff" target="_top" xlink:title=" ">
<polygon fill="white" stroke="black" points="201,-0.5 201,-41.5 376,-41.5 376,-0.5 201,-0.5"/>
<text text-anchor="start" x="209" y="-29.5" font-family="Helvetica,sans-Serif" font-size="10.00">DHARTAPI.NativeUtils.Common</text>
<text text-anchor="start" x="209" y="-18.5" font-family="Helvetica,sans-Serif" font-size="10.00">NativeArrays.NativeMethods.Destroy</text>
<text text-anchor="middle" x="288.5" y="-7.5" font-family="Helvetica,sans-Serif" font-size="10.00">IntVector</text>
</a>
</g>
</g>
<!-- Node1&#45;&gt;Node2 -->
<g id="edge1" class="edge">
<title>Node1&#45;&gt;Node2</title>
<path fill="none" stroke="midnightblue" d="M165.01,-21C173.46,-21 182.11,-21 190.71,-21"/>
<polygon fill="midnightblue" stroke="midnightblue" points="190.77,-24.5 200.77,-21 190.77,-17.5 190.77,-24.5"/>
</g>
</g>
</svg>
