<?xml version="1.0" encoding="UTF-8" standalone="no"?>
<!DOCTYPE svg PUBLIC "-//W3C//DTD SVG 1.1//EN"
 "http://www.w3.org/Graphics/SVG/1.1/DTD/svg11.dtd">
<!-- Generated by graphviz version 7.0.3 (20221126.0506)
 -->
<!-- Title: DHARTAPI.Geometry.CommonRotations Pages: 1 -->
<svg width="160pt" height="203pt"
 viewBox="0.00 0.00 160.00 203.00" xmlns="http://www.w3.org/2000/svg" xmlns:xlink="http://www.w3.org/1999/xlink">
<g id="graph0" class="graph" transform="scale(1 1) rotate(0) translate(4 199)">
<title>DHARTAPI.Geometry.CommonRotations</title>
<!-- Node1 -->
<g id="node1" class="node">
<title>Node1</title>
<g id="a_node1"><a xlink:title="A collection of rotations that are frequently useful in DHARTAPI.">
<polygon fill="#999999" stroke="#666666" points="152,-30 0,-30 0,0 152,0 152,-30"/>
<text text-anchor="start" x="8" y="-18" font-family="Helvetica,sans-Serif" font-size="10.00">DHARTAPI.Geometry.Common</text>
<text text-anchor="middle" x="76" y="-7" font-family="Helvetica,sans-Serif" font-size="10.00">Rotations</text>
</a>
</g>
</g>
<!-- Node2 -->
<g id="node2" class="node">
<title>Node2</title>
<g id="a_node2"><a xlink:href="struct_d_h_a_r_t_a_p_i_1_1_vector3_d.html" target="_top" xlink:title="A three dimensional vector with built in utility functions.">
<polygon fill="white" stroke="#666666" points="130,-107 22,-107 22,-88 130,-88 130,-107"/>
<text text-anchor="middle" x="76" y="-95" font-family="Helvetica,sans-Serif" font-size="10.00">DHARTAPI.Vector3D</text>
</a>
</g>
</g>
<!-- Node2&#45;&gt;Node1 -->
<g id="edge1" class="edge">
<title>Node2&#45;&gt;Node1</title>
<path fill="none" stroke="#9a32cd" stroke-dasharray="5,2" d="M76,-76.45C76,-62.14 76,-43.22 76,-30.39"/>
<polygon fill="#9a32cd" stroke="#9a32cd" points="72.5,-76.06 76,-86.06 79.5,-76.06 72.5,-76.06"/>
<text text-anchor="middle" x="105" y="-62" font-family="Helvetica,sans-Serif" font-size="10.00"> Yup_To_Zup</text>
<text text-anchor="middle" x="105" y="-51" font-family="Helvetica,sans-Serif" font-size="10.00">Zup_To_Yup</text>
</g>
<!-- Node3 -->
<g id="node3" class="node">
<title>Node3</title>
<g id="a_node3"><a xlink:title=" ">
<polygon fill="white" stroke="#666666" points="93.5,-195 58.5,-195 58.5,-176 93.5,-176 93.5,-195"/>
<text text-anchor="middle" x="76" y="-183" font-family="Helvetica,sans-Serif" font-size="10.00">float</text>
</a>
</g>
</g>
<!-- Node3&#45;&gt;Node2 -->
<g id="edge2" class="edge">
<title>Node3&#45;&gt;Node2</title>
<path fill="none" stroke="#9a32cd" stroke-dasharray="5,2" d="M76,-164.37C76,-146.37 76,-120.83 76,-107.46"/>
<polygon fill="#9a32cd" stroke="#9a32cd" points="72.5,-164.11 76,-174.11 79.5,-164.11 72.5,-164.11"/>
<text text-anchor="middle" x="80.5" y="-150" font-family="Helvetica,sans-Serif" font-size="10.00"> x</text>
<text text-anchor="middle" x="80.5" y="-139" font-family="Helvetica,sans-Serif" font-size="10.00">y</text>
<text text-anchor="middle" x="80.5" y="-128" font-family="Helvetica,sans-Serif" font-size="10.00">z</text>
</g>
</g>
</svg>
