<?xml version="1.0" encoding="UTF-8" standalone="no"?>
<!DOCTYPE svg PUBLIC "-//W3C//DTD SVG 1.1//EN"
 "http://www.w3.org/Graphics/SVG/1.1/DTD/svg11.dtd">
<!-- Generated by graphviz version 5.0.0 (20220707.1540)
 -->
<!-- Title: DHARTAPI.Geometry.MeshInfo.MeshInfo Pages: 1 -->
<svg width="707pt" height="173pt"
 viewBox="0.00 0.00 707.00 173.00" xmlns="http://www.w3.org/2000/svg" xmlns:xlink="http://www.w3.org/1999/xlink">
<g id="graph0" class="graph" transform="scale(1 1) rotate(0) translate(4 169)">
<title>DHARTAPI.Geometry.MeshInfo.MeshInfo</title>
<polygon fill="white" stroke="transparent" points="-4,4 -4,-169 703,-169 703,4 -4,4"/>
<!-- Node1 -->
<g id="node1" class="node">
<title>Node1</title>
<g id="a_node1"><a xlink:title="Create a new meshinfo instance from the given pointer.">
<polygon fill="#bfbfbf" stroke="black" points="0,-67.5 0,-97.5 155,-97.5 155,-67.5 0,-67.5"/>
<text text-anchor="start" x="8" y="-85.5" font-family="Helvetica,sans-Serif" font-size="10.00">DHARTAPI.Geometry.MeshInfo.</text>
<text text-anchor="middle" x="77.5" y="-74.5" font-family="Helvetica,sans-Serif" font-size="10.00">MeshInfo</text>
</a>
</g>
</g>
<!-- Node2 -->
<g id="node2" class="node">
<title>Node2</title>
<g id="a_node2"><a xlink:href="class_d_h_a_r_t_a_p_i_1_1_geometry_1_1_mesh_info.html#a7a2f2c0e893797d7f6dac37d1514f0cb" target="_top" xlink:title="Calculates the amount of pressure this mesh should exert on the GC.">
<polygon fill="white" stroke="black" points="191,-116.5 191,-146.5 346,-146.5 346,-116.5 191,-116.5"/>
<text text-anchor="start" x="199" y="-134.5" font-family="Helvetica,sans-Serif" font-size="10.00">DHARTAPI.Geometry.MeshInfo.</text>
<text text-anchor="middle" x="268.5" y="-123.5" font-family="Helvetica,sans-Serif" font-size="10.00">CalculatePresure</text>
</a>
</g>
</g>
<!-- Node1&#45;&gt;Node2 -->
<g id="edge1" class="edge">
<title>Node1&#45;&gt;Node2</title>
<path fill="none" stroke="midnightblue" d="M136.49,-97.53C156.54,-102.73 179.17,-108.6 199.92,-113.98"/>
<polygon fill="midnightblue" stroke="midnightblue" points="199.06,-117.37 209.62,-116.49 200.82,-110.6 199.06,-117.37"/>
</g>
<!-- Node3 -->
<g id="node3" class="node">
<title>Node3</title>
<g id="a_node3"><a xlink:href="class_d_h_a_r_t_a_p_i_1_1_geometry_1_1_mesh_info.html#a0409ac3fbfba81d4d488c32defdf3655" target="_top" xlink:title="Updates this mesh&#39;s name, ID, and arrays with it&#39;s values from C++.">
<polygon fill="white" stroke="black" points="191,-67.5 191,-97.5 346,-97.5 346,-67.5 191,-67.5"/>
<text text-anchor="start" x="199" y="-85.5" font-family="Helvetica,sans-Serif" font-size="10.00">DHARTAPI.Geometry.MeshInfo.</text>
<text text-anchor="middle" x="268.5" y="-74.5" font-family="Helvetica,sans-Serif" font-size="10.00">UpdateIDNameAndArrays</text>
</a>
</g>
</g>
<!-- Node1&#45;&gt;Node3 -->
<g id="edge2" class="edge">
<title>Node1&#45;&gt;Node3</title>
<path fill="none" stroke="midnightblue" d="M155.1,-82.5C163.56,-82.5 172.22,-82.5 180.79,-82.5"/>
<polygon fill="midnightblue" stroke="midnightblue" points="180.79,-86 190.79,-82.5 180.79,-79 180.79,-86"/>
</g>
<!-- Node9 -->
<g id="node9" class="node">
<title>Node9</title>
<g id="a_node9"><a xlink:href="class_d_h_a_r_t_a_p_i_1_1_native_utils_1_1_native_object.html#ab63e715d5db528edc64b3aa5233f750c" target="_top" xlink:title="Update the pressure of this object.">
<polygon fill="white" stroke="black" points="197,-18.5 197,-48.5 340,-48.5 340,-18.5 197,-18.5"/>
<text text-anchor="start" x="205" y="-36.5" font-family="Helvetica,sans-Serif" font-size="10.00">DHARTAPI.NativeUtils.Native</text>
<text text-anchor="middle" x="268.5" y="-25.5" font-family="Helvetica,sans-Serif" font-size="10.00">Object.UpdatePressure</text>
</a>
</g>
</g>
<!-- Node1&#45;&gt;Node9 -->
<g id="edge10" class="edge">
<title>Node1&#45;&gt;Node9</title>
<path fill="none" stroke="midnightblue" d="M136.49,-67.47C156.54,-62.27 179.17,-56.4 199.92,-51.02"/>
<polygon fill="midnightblue" stroke="midnightblue" points="200.82,-54.4 209.62,-48.51 199.06,-47.63 200.82,-54.4"/>
</g>
<!-- Node4 -->
<g id="node4" class="node">
<title>Node4</title>
<g id="a_node4"><a xlink:href="class_d_h_a_r_t_a_p_i_1_1_geometry_1_1_native_methods.html#a8267d494ee36917f65146966a585793a" target="_top" xlink:title="Get pointers to the vertex and index arrays of a mesh in C++.">
<polygon fill="white" stroke="black" points="382,-134.5 382,-164.5 523,-164.5 523,-134.5 382,-134.5"/>
<text text-anchor="start" x="390" y="-152.5" font-family="Helvetica,sans-Serif" font-size="10.00">DHARTAPI.Geometry.Native</text>
<text text-anchor="middle" x="452.5" y="-141.5" font-family="Helvetica,sans-Serif" font-size="10.00">Methods.C_GetTrisAndVerts</text>
</a>
</g>
</g>
<!-- Node3&#45;&gt;Node4 -->
<g id="edge3" class="edge">
<title>Node3&#45;&gt;Node4</title>
<path fill="none" stroke="midnightblue" d="M319.27,-97.58C328.25,-100.64 337.47,-104 346,-107.5 362.55,-114.3 365.51,-118.57 382,-125.5 386.4,-127.35 391,-129.17 395.65,-130.94"/>
<polygon fill="midnightblue" stroke="midnightblue" points="394.6,-134.28 405.2,-134.46 397.03,-127.71 394.6,-134.28"/>
</g>
<!-- Node6 -->
<g id="node6" class="node">
<title>Node6</title>
<g id="a_node6"><a xlink:href="class_d_h_a_r_t_a_p_i_1_1_geometry_1_1_native_methods.html#afa9349278d57b0497f92edb3dff2c152" target="_top" xlink:title="Get the ID of an instance of MeshInfo in c++.">
<polygon fill="white" stroke="black" points="382.5,-67.5 382.5,-97.5 522.5,-97.5 522.5,-67.5 382.5,-67.5"/>
<text text-anchor="start" x="390.5" y="-85.5" font-family="Helvetica,sans-Serif" font-size="10.00">DHARTAPI.Geometry.Native</text>
<text text-anchor="middle" x="452.5" y="-74.5" font-family="Helvetica,sans-Serif" font-size="10.00">Methods.GetMeshID</text>
</a>
</g>
</g>
<!-- Node3&#45;&gt;Node6 -->
<g id="edge5" class="edge">
<title>Node3&#45;&gt;Node6</title>
<path fill="none" stroke="midnightblue" d="M346.16,-82.5C354.82,-82.5 363.65,-82.5 372.34,-82.5"/>
<polygon fill="midnightblue" stroke="midnightblue" points="372.45,-86 382.45,-82.5 372.45,-79 372.45,-86"/>
</g>
<!-- Node7 -->
<g id="node7" class="node">
<title>Node7</title>
<g id="a_node7"><a xlink:href="class_d_h_a_r_t_a_p_i_1_1_geometry_1_1_native_methods.html#a1fe911a338ef131e97f4be6feb506615" target="_top" xlink:title="Get the name of an instance of MeshInfo in c++.">
<polygon fill="white" stroke="black" points="382.5,-0.5 382.5,-30.5 522.5,-30.5 522.5,-0.5 382.5,-0.5"/>
<text text-anchor="start" x="390.5" y="-18.5" font-family="Helvetica,sans-Serif" font-size="10.00">DHARTAPI.Geometry.Native</text>
<text text-anchor="middle" x="452.5" y="-7.5" font-family="Helvetica,sans-Serif" font-size="10.00">Methods.GetMeshName</text>
</a>
</g>
</g>
<!-- Node3&#45;&gt;Node7 -->
<g id="edge7" class="edge">
<title>Node3&#45;&gt;Node7</title>
<path fill="none" stroke="midnightblue" d="M319.49,-67.47C328.37,-64.62 337.49,-61.56 346,-58.5 366.28,-51.2 388.42,-42.32 407.16,-34.53"/>
<polygon fill="midnightblue" stroke="midnightblue" points="408.74,-37.66 416.62,-30.57 406.04,-31.2 408.74,-37.66"/>
</g>
<!-- Node5 -->
<g id="node5" class="node">
<title>Node5</title>
<g id="a_node5"><a xlink:href="class_d_h_a_r_t_a_p_i_1_1_geometry_1_1_native_methods.html#abbb9461128f297e7b82417a549a056e9" target="_top" xlink:title=" ">
<polygon fill="white" stroke="black" points="559,-134.5 559,-164.5 699,-164.5 699,-134.5 559,-134.5"/>
<text text-anchor="start" x="567" y="-152.5" font-family="Helvetica,sans-Serif" font-size="10.00">DHARTAPI.Geometry.Native</text>
<text text-anchor="middle" x="629" y="-141.5" font-family="Helvetica,sans-Serif" font-size="10.00">Methods.GetVertsAndTris</text>
</a>
</g>
</g>
<!-- Node4&#45;&gt;Node5 -->
<g id="edge4" class="edge">
<title>Node4&#45;&gt;Node5</title>
<path fill="none" stroke="midnightblue" d="M523.22,-149.5C531.68,-149.5 540.37,-149.5 548.95,-149.5"/>
<polygon fill="midnightblue" stroke="midnightblue" points="548.96,-153 558.96,-149.5 548.96,-146 548.96,-153"/>
</g>
<!-- Node6&#45;&gt;Node6 -->
<g id="edge6" class="edge">
<title>Node6&#45;&gt;Node6</title>
<path fill="none" stroke="midnightblue" d="M421.83,-97.66C414.43,-107.06 424.66,-116 452.5,-116 469.47,-116 479.89,-112.68 483.77,-107.96"/>
<polygon fill="midnightblue" stroke="midnightblue" points="487.25,-107.44 483.17,-97.66 480.26,-107.85 487.25,-107.44"/>
</g>
<!-- Node7&#45;&gt;Node7 -->
<g id="edge9" class="edge">
<title>Node7&#45;&gt;Node7</title>
<path fill="none" stroke="midnightblue" d="M421.83,-30.66C414.43,-40.06 424.66,-49 452.5,-49 469.47,-49 479.89,-45.68 483.77,-40.96"/>
<polygon fill="midnightblue" stroke="midnightblue" points="487.25,-40.44 483.17,-30.66 480.26,-40.85 487.25,-40.44"/>
</g>
<!-- Node8 -->
<g id="node8" class="node">
<title>Node8</title>
<g id="a_node8"><a xlink:href="class_d_h_a_r_t_a_p_i_1_1_geometry_1_1_native_methods.html#a2d22148d6821031e97d7305df6e9fde0" target="_top" xlink:title=" ">
<polygon fill="white" stroke="black" points="559,-0.5 559,-30.5 699,-30.5 699,-0.5 559,-0.5"/>
<text text-anchor="start" x="567" y="-18.5" font-family="Helvetica,sans-Serif" font-size="10.00">DHARTAPI.Geometry.Native</text>
<text text-anchor="middle" x="629" y="-7.5" font-family="Helvetica,sans-Serif" font-size="10.00">Methods.DestroyCharArray</text>
</a>
</g>
</g>
<!-- Node7&#45;&gt;Node8 -->
<g id="edge8" class="edge">
<title>Node7&#45;&gt;Node8</title>
<path fill="none" stroke="midnightblue" d="M522.72,-15.5C531.27,-15.5 540.06,-15.5 548.74,-15.5"/>
<polygon fill="midnightblue" stroke="midnightblue" points="548.87,-19 558.87,-15.5 548.87,-12 548.87,-19"/>
</g>
</g>
</svg>
