<?xml version="1.0" encoding="UTF-8" standalone="no"?>
<!DOCTYPE svg PUBLIC "-//W3C//DTD SVG 1.1//EN"
 "http://www.w3.org/Graphics/SVG/1.1/DTD/svg11.dtd">
<!-- Generated by graphviz version 7.0.4 (20221203.1631)
 -->
<!-- Title: DHARTAPI.NativeUtils.DependentNativeArray&lt; T &gt; Pages: 1 -->
<svg width="254pt" height="304pt"
 viewBox="0.00 0.00 254.00 304.00" xmlns="http://www.w3.org/2000/svg" xmlns:xlink="http://www.w3.org/1999/xlink">
<g id="graph0" class="graph" transform="scale(1 1) rotate(0) translate(4 300)">
<title>DHARTAPI.NativeUtils.DependentNativeArray&lt; T &gt;</title>
<!-- Node1 -->
<g id="node1" class="node">
<title>Node1</title>
<g id="a_node1"><a xlink:title="A native array 2D that doesn&#39;t require destruction.">
<polygon fill="#999999" stroke="#666666" points="185.5,-30 22.5,-30 22.5,0 185.5,0 185.5,-30"/>
<text text-anchor="start" x="30.5" y="-18" font-family="Helvetica,sans-Serif" font-size="10.00">DHARTAPI.NativeUtils.Dependent</text>
<text text-anchor="middle" x="104" y="-7" font-family="Helvetica,sans-Serif" font-size="10.00">NativeArray&lt; T &gt;</text>
</a>
</g>
</g>
<!-- Node2 -->
<g id="node2" class="node">
<title>Node2</title>
<g id="a_node2"><a xlink:href="class_d_h_a_r_t_a_p_i_1_1_native_utils_1_1_native_array2_d.html" target="_top" xlink:title="A wrapper for a two dimensional array in unmanaged memory.">
<polygon fill="white" stroke="#666666" points="154.5,-86 53.5,-86 53.5,-67 154.5,-67 154.5,-86"/>
<text text-anchor="middle" x="104" y="-74" font-family="Helvetica,sans-Serif" font-size="10.00">NativeArray2D&lt; T &gt;</text>
</a>
</g>
</g>
<!-- Node2&#45;&gt;Node1 -->
<g id="edge1" class="edge">
<title>Node2&#45;&gt;Node1</title>
<path fill="none" stroke="#63b8ff" d="M104,-55.46C104,-47.23 104,-37.89 104,-30.36"/>
<polygon fill="#63b8ff" stroke="#63b8ff" points="100.5,-55.21 104,-65.21 107.5,-55.21 100.5,-55.21"/>
</g>
<!-- Node3 -->
<g id="node3" class="node">
<title>Node3</title>
<g id="a_node3"><a xlink:href="class_d_h_a_r_t_a_p_i_1_1_native_utils_1_1_native_array.html" target="_top" xlink:title="A read&#45;only array stored in unmanaged memory.">
<polygon fill="white" stroke="#666666" points="148.5,-142 59.5,-142 59.5,-123 148.5,-123 148.5,-142"/>
<text text-anchor="middle" x="104" y="-130" font-family="Helvetica,sans-Serif" font-size="10.00">NativeArray&lt; T &gt;</text>
</a>
</g>
</g>
<!-- Node3&#45;&gt;Node2 -->
<g id="edge2" class="edge">
<title>Node3&#45;&gt;Node2</title>
<path fill="none" stroke="#63b8ff" d="M104,-111.11C104,-102.52 104,-92.97 104,-86.25"/>
<polygon fill="#63b8ff" stroke="#63b8ff" points="100.5,-111.07 104,-121.07 107.5,-111.07 100.5,-111.07"/>
</g>
<!-- Node4 -->
<g id="node4" class="node">
<title>Node4</title>
<g id="a_node4"><a xlink:href="class_d_h_a_r_t_a_p_i_1_1_native_utils_1_1_native_object.html" target="_top" xlink:title="An object that holds a pointer to unmanaged memory or some other resource that must be freed.">
<polygon fill="white" stroke="#666666" points="75.5,-213.5 4.5,-213.5 4.5,-194.5 75.5,-194.5 75.5,-213.5"/>
<text text-anchor="middle" x="40" y="-201.5" font-family="Helvetica,sans-Serif" font-size="10.00">NativeObject</text>
</a>
</g>
</g>
<!-- Node4&#45;&gt;Node3 -->
<g id="edge3" class="edge">
<title>Node4&#45;&gt;Node3</title>
<path fill="none" stroke="#63b8ff" d="M55.63,-186.03C68.3,-172.27 85.65,-153.43 95.76,-142.45"/>
<polygon fill="#63b8ff" stroke="#63b8ff" points="53.33,-183.36 49.13,-193.08 58.48,-188.1 53.33,-183.36"/>
</g>
<!-- Node5 -->
<g id="node5" class="node">
<title>Node5</title>
<g id="a_node5"><a xlink:href="class_safe_handle.html" target="_top" xlink:title=" ">
<polygon fill="white" stroke="#666666" points="66,-296 0,-296 0,-277 66,-277 66,-296"/>
<text text-anchor="middle" x="33" y="-284" font-family="Helvetica,sans-Serif" font-size="10.00">SafeHandle</text>
</a>
</g>
</g>
<!-- Node5&#45;&gt;Node4 -->
<g id="edge4" class="edge">
<title>Node5&#45;&gt;Node4</title>
<path fill="none" stroke="#63b8ff" d="M34.75,-265.35C36.2,-248.75 38.17,-226 39.24,-213.72"/>
<polygon fill="#63b8ff" stroke="#63b8ff" points="31.29,-264.8 33.91,-275.07 38.26,-265.41 31.29,-264.8"/>
</g>
<!-- Node6 -->
<g id="node6" class="node">
<title>Node6</title>
<g id="a_node6"><a xlink:title=" ">
<polygon fill="white" stroke="#666666" points="126.5,-296 97.5,-296 97.5,-277 126.5,-277 126.5,-296"/>
<text text-anchor="middle" x="112" y="-284" font-family="Helvetica,sans-Serif" font-size="10.00">int</text>
</a>
</g>
</g>
<!-- Node6&#45;&gt;Node4 -->
<g id="edge5" class="edge">
<title>Node6&#45;&gt;Node4</title>
<path fill="none" stroke="#9a32cd" stroke-dasharray="5,2" d="M95.31,-268.85C92.18,-265.62 88.96,-262.23 86,-259 71.87,-243.55 56.22,-224.81 47.3,-213.96"/>
<polygon fill="#9a32cd" stroke="#9a32cd" points="92.6,-271.08 102.11,-275.74 97.58,-266.16 92.6,-271.08"/>
<text text-anchor="middle" x="106.5" y="-245.5" font-family="Helvetica,sans-Serif" font-size="10.00"> pressure</text>
</g>
<!-- Node7 -->
<g id="node7" class="node">
<title>Node7</title>
<g id="a_node7"><a xlink:href="struct_d_h_a_r_t_a_p_i_1_1_native_utils_1_1_c_vector_and_data.html" target="_top" xlink:title="Pointers to a C++ vector&#39;s data, the vector itself, and the size of the vector.">
<polygon fill="white" stroke="#666666" points="246,-219 94,-219 94,-189 246,-189 246,-219"/>
<text text-anchor="start" x="102" y="-207" font-family="Helvetica,sans-Serif" font-size="10.00">DHARTAPI.NativeUtils.CVector</text>
<text text-anchor="middle" x="170" y="-196" font-family="Helvetica,sans-Serif" font-size="10.00">AndData</text>
</a>
</g>
</g>
<!-- Node6&#45;&gt;Node7 -->
<g id="edge8" class="edge">
<title>Node6&#45;&gt;Node7</title>
<path fill="none" stroke="#9a32cd" stroke-dasharray="5,2" d="M123.85,-267.48C130.02,-258.26 137.76,-246.92 145,-237 149.32,-231.08 154.26,-224.69 158.6,-219.18"/>
<polygon fill="#9a32cd" stroke="#9a32cd" points="121.12,-265.27 118.51,-275.53 126.95,-269.13 121.12,-265.27"/>
<text text-anchor="middle" x="157" y="-251" font-family="Helvetica,sans-Serif" font-size="10.00"> size</text>
<text text-anchor="middle" x="157" y="-240" font-family="Helvetica,sans-Serif" font-size="10.00">size2</text>
</g>
<!-- Node7&#45;&gt;Node3 -->
<g id="edge6" class="edge">
<title>Node7&#45;&gt;Node3</title>
<path fill="none" stroke="#9a32cd" stroke-dasharray="5,2" d="M148.62,-180.49C136.22,-167.43 121.3,-151.72 112.24,-142.18"/>
<polygon fill="#9a32cd" stroke="#9a32cd" points="145.86,-182.66 155.28,-187.5 150.93,-177.84 145.86,-182.66"/>
<text text-anchor="middle" x="149" y="-163" font-family="Helvetica,sans-Serif" font-size="10.00"> ptrs</text>
</g>
<!-- Node8 -->
<g id="node8" class="node">
<title>Node8</title>
<g id="a_node8"><a xlink:title=" ">
<polygon fill="white" stroke="#666666" points="197,-296 157,-296 157,-277 197,-277 197,-296"/>
<text text-anchor="middle" x="177" y="-284" font-family="Helvetica,sans-Serif" font-size="10.00">IntPtr</text>
</a>
</g>
</g>
<!-- Node8&#45;&gt;Node7 -->
<g id="edge7" class="edge">
<title>Node8&#45;&gt;Node7</title>
<path fill="none" stroke="#9a32cd" stroke-dasharray="5,2" d="M175.26,-265.45C174.01,-251.14 172.37,-232.22 171.25,-219.39"/>
<polygon fill="#9a32cd" stroke="#9a32cd" points="171.74,-265.41 176.09,-275.07 178.71,-264.8 171.74,-265.41"/>
<text text-anchor="middle" x="188" y="-251" font-family="Helvetica,sans-Serif" font-size="10.00"> data</text>
<text text-anchor="middle" x="188" y="-240" font-family="Helvetica,sans-Serif" font-size="10.00">vector</text>
</g>
</g>
</svg>
