<?xml version="1.0" encoding="UTF-8" standalone="no"?>
<!DOCTYPE svg PUBLIC "-//W3C//DTD SVG 1.1//EN"
 "http://www.w3.org/Graphics/SVG/1.1/DTD/svg11.dtd">
<!-- Generated by graphviz version 5.0.0 (20220707.1540)
 -->
<!-- Title: DHARTAPI.Pathfinding.NativeMethods.CalculateDistanceAndPredecessor Pages: 1 -->
<svg width="659pt" height="50pt"
 viewBox="0.00 0.00 659.00 50.00" xmlns="http://www.w3.org/2000/svg" xmlns:xlink="http://www.w3.org/1999/xlink">
<g id="graph0" class="graph" transform="scale(1 1) rotate(0) translate(4 46)">
<title>DHARTAPI.Pathfinding.NativeMethods.CalculateDistanceAndPredecessor</title>
<polygon fill="white" stroke="transparent" points="-4,4 -4,-46 655,-46 655,4 -4,4"/>
<!-- Node1 -->
<g id="node1" class="node">
<title>Node1</title>
<g id="a_node1"><a xlink:title=" ">
<polygon fill="#bfbfbf" stroke="black" points="443,-6 443,-36 651,-36 651,-6 443,-6"/>
<text text-anchor="start" x="451" y="-24" font-family="Helvetica,sans-Serif" font-size="10.00">DHARTAPI.Pathfinding.Native</text>
<text text-anchor="middle" x="547" y="-13" font-family="Helvetica,sans-Serif" font-size="10.00">Methods.CalculateDistanceAndPredecessor</text>
</a>
</g>
</g>
<!-- Node2 -->
<g id="node2" class="node">
<title>Node2</title>
<g id="a_node2"><a xlink:href="class_d_h_a_r_t_a_p_i_1_1_pathfinding_1_1_native_methods.html#a20f4321ea9e77203c4f2ddda60a792b7" target="_top" xlink:title="Calculate Predecessor and Distance Matricies for a graph in C++.">
<polygon fill="white" stroke="black" points="226,-0.5 226,-41.5 407,-41.5 407,-0.5 226,-0.5"/>
<text text-anchor="start" x="234" y="-29.5" font-family="Helvetica,sans-Serif" font-size="10.00">DHARTAPI.Pathfinding.Native</text>
<text text-anchor="start" x="234" y="-18.5" font-family="Helvetica,sans-Serif" font-size="10.00">Methods.C_GeneratePredecessorAnd</text>
<text text-anchor="middle" x="316.5" y="-7.5" font-family="Helvetica,sans-Serif" font-size="10.00">DistanceMatricies</text>
</a>
</g>
</g>
<!-- Node1&#45;&gt;Node2 -->
<g id="edge1" class="edge">
<title>Node1&#45;&gt;Node2</title>
<path fill="none" stroke="midnightblue" d="M432.77,-21C424.24,-21 415.7,-21 407.34,-21"/>
<polygon fill="midnightblue" stroke="midnightblue" points="432.78,-24.5 442.78,-21 432.78,-17.5 432.78,-24.5"/>
</g>
<!-- Node3 -->
<g id="node3" class="node">
<title>Node3</title>
<g id="a_node3"><a xlink:href="class_d_h_a_r_t_a_p_i_1_1_pathfinding_1_1_shortest_path.html#aa68a818835b9ceeb6de87d86f74d739f" target="_top" xlink:title="Calculate Predecessor and Distance Matricies for a graph.">
<polygon fill="white" stroke="black" points="0,-0.5 0,-41.5 190,-41.5 190,-0.5 0,-0.5"/>
<text text-anchor="start" x="8" y="-29.5" font-family="Helvetica,sans-Serif" font-size="10.00">DHARTAPI.Pathfinding.Shortest</text>
<text text-anchor="start" x="8" y="-18.5" font-family="Helvetica,sans-Serif" font-size="10.00">Path.GeneratePredecessorAndDistance</text>
<text text-anchor="middle" x="95" y="-7.5" font-family="Helvetica,sans-Serif" font-size="10.00">Matricies</text>
</a>
</g>
</g>
<!-- Node2&#45;&gt;Node3 -->
<g id="edge2" class="edge">
<title>Node2&#45;&gt;Node3</title>
<path fill="none" stroke="midnightblue" d="M215.66,-21C207.22,-21 198.7,-21 190.3,-21"/>
<polygon fill="midnightblue" stroke="midnightblue" points="215.9,-24.5 225.9,-21 215.9,-17.5 215.9,-24.5"/>
</g>
</g>
</svg>
