<?xml version="1.0" encoding="UTF-8" standalone="no"?>
<!DOCTYPE svg PUBLIC "-//W3C//DTD SVG 1.1//EN"
 "http://www.w3.org/Graphics/SVG/1.1/DTD/svg11.dtd">
<!-- Generated by graphviz version 4.0.0 (20220529.0937)
 -->
<!-- Title: HumanFactors.NativeUtils.NativeObject Pages: 1 -->
<svg width="140pt" height="106pt"
 viewBox="0.00 0.00 140.00 106.00" xmlns="http://www.w3.org/2000/svg" xmlns:xlink="http://www.w3.org/1999/xlink">
<g id="graph0" class="graph" transform="scale(1 1) rotate(0) translate(4 102)">
<title>HumanFactors.NativeUtils.NativeObject</title>
<polygon fill="white" stroke="transparent" points="-4,4 -4,-102 136,-102 136,4 -4,4"/>
<!-- Node1 -->
<g id="node1" class="node">
<title>Node1</title>
<g id="a_node1"><a xlink:title="An object that holds a pointer to unmanaged memory or some other resource that must be freed.">
<polygon fill="#bfbfbf" stroke="black" points="0,-0.5 0,-30.5 132,-30.5 132,-0.5 0,-0.5"/>
<text text-anchor="start" x="8" y="-18.5" font-family="Helvetica,sans-Serif" font-size="10.00">HumanFactors.NativeUtils.</text>
<text text-anchor="middle" x="66" y="-7.5" font-family="Helvetica,sans-Serif" font-size="10.00">NativeObject</text>
</a>
</g>
</g>
<!-- Node2 -->
<g id="node2" class="node">
<title>Node2</title>
<g id="a_node2"><a xlink:href="class_safe_handle.html" target="_top" xlink:title=" ">
<polygon fill="white" stroke="black" points="0,-78.5 0,-97.5 66,-97.5 66,-78.5 0,-78.5"/>
<text text-anchor="middle" x="33" y="-85.5" font-family="Helvetica,sans-Serif" font-size="10.00">SafeHandle</text>
</a>
</g>
</g>
<!-- Node2&#45;&gt;Node1 -->
<g id="edge1" class="edge">
<title>Node2&#45;&gt;Node1</title>
<path fill="none" stroke="midnightblue" d="M41.44,-68.96C47.03,-57.03 54.25,-41.61 59.41,-30.58"/>
<polygon fill="midnightblue" stroke="midnightblue" points="38.12,-67.81 37.05,-78.36 44.46,-70.78 38.12,-67.81"/>
</g>
<!-- Node3 -->
<g id="node3" class="node">
<title>Node3</title>
<g id="a_node3"><a xlink:title=" ">
<polygon fill="white" stroke="black" points="84.5,-78.5 84.5,-97.5 113.5,-97.5 113.5,-78.5 84.5,-78.5"/>
<text text-anchor="middle" x="99" y="-85.5" font-family="Helvetica,sans-Serif" font-size="10.00">int</text>
</a>
</g>
</g>
<!-- Node3&#45;&gt;Node1 -->
<g id="edge2" class="edge">
<title>Node3&#45;&gt;Node1</title>
<path fill="none" stroke="#9a32cd" stroke-dasharray="5,2" d="M90.56,-68.96C84.97,-57.03 77.75,-41.61 72.59,-30.58"/>
<polygon fill="#9a32cd" stroke="#9a32cd" points="87.54,-70.78 94.95,-78.36 93.88,-67.81 87.54,-70.78"/>
<text text-anchor="middle" x="105.5" y="-52" font-family="Helvetica,sans-Serif" font-size="10.00"> pressure</text>
</g>
</g>
</svg>
