<?xml version="1.0" encoding="UTF-8" standalone="no"?>
<!DOCTYPE svg PUBLIC "-//W3C//DTD SVG 1.1//EN"
 "http://www.w3.org/Graphics/SVG/1.1/DTD/svg11.dtd">
<!-- Generated by graphviz version 8.0.5 (20230430.1635)
 -->
<!-- Title: DHARTAPI.NativeUtils.DependentNativeArray&lt; T &gt; Pages: 1 -->
<svg width="252pt" height="314pt"
 viewBox="0.00 0.00 252.25 314.00" xmlns="http://www.w3.org/2000/svg" xmlns:xlink="http://www.w3.org/1999/xlink">
<g id="graph0" class="graph" transform="scale(1 1) rotate(0) translate(4 310)">
<title>DHARTAPI.NativeUtils.DependentNativeArray&lt; T &gt;</title>
<!-- Node1 -->
<g id="node1" class="node">
<title>Node1</title>
<g id="a_node1"><a xlink:title="A native array 2D that doesn&#39;t require destruction.">
<polygon fill="#999999" stroke="#666666" points="184.88,-32 22.63,-32 22.63,0 184.88,0 184.88,-32"/>
<text text-anchor="start" x="30.63" y="-18.5" font-family="Helvetica,sans-Serif" font-size="10.00">DHARTAPI.NativeUtils.Dependent</text>
<text text-anchor="middle" x="103.75" y="-6.5" font-family="Helvetica,sans-Serif" font-size="10.00">NativeArray&lt; T &gt;</text>
</a>
</g>
</g>
<!-- Node2 -->
<g id="node2" class="node">
<title>Node2</title>
<g id="a_node2"><a xlink:href="class_d_h_a_r_t_a_p_i_1_1_native_utils_1_1_native_array2_d.html" target="_top" xlink:title="A wrapper for a two dimensional array in unmanaged memory.">
<polygon fill="white" stroke="#666666" points="154.13,-89 53.38,-89 53.38,-69 154.13,-69 154.13,-89"/>
<text text-anchor="middle" x="103.75" y="-75.5" font-family="Helvetica,sans-Serif" font-size="10.00">NativeArray2D&lt; T &gt;</text>
</a>
</g>
</g>
<!-- Node2&#45;&gt;Node1 -->
<g id="edge1" class="edge">
<title>Node2&#45;&gt;Node1</title>
<path fill="none" stroke="#63b8ff" d="M103.75,-57.94C103.75,-49.51 103.75,-39.86 103.75,-32.06"/>
<polygon fill="#63b8ff" stroke="#63b8ff" points="100.25,-57.74 103.75,-67.74 107.25,-57.74 100.25,-57.74"/>
</g>
<!-- Node3 -->
<g id="node3" class="node">
<title>Node3</title>
<g id="a_node3"><a xlink:href="class_d_h_a_r_t_a_p_i_1_1_native_utils_1_1_native_array.html" target="_top" xlink:title="A read&#45;only array stored in unmanaged memory.">
<polygon fill="white" stroke="#666666" points="148.13,-146 59.38,-146 59.38,-126 148.13,-126 148.13,-146"/>
<text text-anchor="middle" x="103.75" y="-132.5" font-family="Helvetica,sans-Serif" font-size="10.00">NativeArray&lt; T &gt;</text>
</a>
</g>
</g>
<!-- Node3&#45;&gt;Node2 -->
<g id="edge2" class="edge">
<title>Node3&#45;&gt;Node2</title>
<path fill="none" stroke="#63b8ff" d="M103.75,-114.99C103.75,-106.2 103.75,-96.3 103.75,-89.28"/>
<polygon fill="#63b8ff" stroke="#63b8ff" points="100.25,-114.92 103.75,-124.92 107.25,-114.92 100.25,-114.92"/>
</g>
<!-- Node4 -->
<g id="node4" class="node">
<title>Node4</title>
<g id="a_node4"><a xlink:href="class_d_h_a_r_t_a_p_i_1_1_native_utils_1_1_native_object.html" target="_top" xlink:title="An object that holds a pointer to unmanaged memory or some other resource that must be freed.">
<polygon fill="white" stroke="#666666" points="75.13,-220 4.38,-220 4.38,-200 75.13,-200 75.13,-220"/>
<text text-anchor="middle" x="39.75" y="-206.5" font-family="Helvetica,sans-Serif" font-size="10.00">NativeObject</text>
</a>
</g>
</g>
<!-- Node4&#45;&gt;Node3 -->
<g id="edge3" class="edge">
<title>Node4&#45;&gt;Node3</title>
<path fill="none" stroke="#63b8ff" d="M55.31,-191.5C68.01,-177.21 85.47,-157.57 95.58,-146.19"/>
<polygon fill="#63b8ff" stroke="#63b8ff" points="53.14,-188.79 49.12,-198.59 58.38,-193.44 53.14,-188.79"/>
</g>
<!-- Node5 -->
<g id="node5" class="node">
<title>Node5</title>
<g id="a_node5"><a xlink:href="class_safe_handle.html" target="_top" xlink:title=" ">
<polygon fill="white" stroke="#666666" points="65.5,-306 0,-306 0,-286 65.5,-286 65.5,-306"/>
<text text-anchor="middle" x="32.75" y="-292.5" font-family="Helvetica,sans-Serif" font-size="10.00">SafeHandle</text>
</a>
</g>
</g>
<!-- Node5&#45;&gt;Node4 -->
<g id="edge4" class="edge">
<title>Node5&#45;&gt;Node4</title>
<path fill="none" stroke="#63b8ff" d="M34.43,-274.8C35.87,-257.52 37.88,-233.43 38.97,-220.35"/>
<polygon fill="#63b8ff" stroke="#63b8ff" points="30.87,-274.43 33.53,-284.69 37.84,-275.01 30.87,-274.43"/>
</g>
<!-- Node6 -->
<g id="node6" class="node">
<title>Node6</title>
<g id="a_node6"><a xlink:title=" ">
<polygon fill="white" stroke="#666666" points="125.15,-306 96.35,-306 96.35,-286 125.15,-286 125.15,-306"/>
<text text-anchor="middle" x="110.75" y="-292.5" font-family="Helvetica,sans-Serif" font-size="10.00">int</text>
</a>
</g>
</g>
<!-- Node6&#45;&gt;Node4 -->
<g id="edge5" class="edge">
<title>Node6&#45;&gt;Node4</title>
<path fill="none" stroke="#9a32cd" stroke-dasharray="5,2" d="M93.45,-277.95C90.32,-274.71 87.14,-271.3 84.25,-268 70.02,-251.76 54.82,-231.61 46.38,-220.14"/>
<polygon fill="#9a32cd" stroke="#9a32cd" points="90.39,-279.85 99.91,-284.51 95.37,-274.93 90.39,-279.85"/>
<text text-anchor="middle" x="105" y="-252.5" font-family="Helvetica,sans-Serif" font-size="10.00"> pressure</text>
</g>
<!-- Node7 -->
<g id="node7" class="node">
<title>Node7</title>
<g id="a_node7"><a xlink:href="struct_d_h_a_r_t_a_p_i_1_1_native_utils_1_1_c_vector_and_data.html" target="_top" xlink:title="Pointers to a C++ vector&#39;s data, the vector itself, and the size of the vector.">
<polygon fill="white" stroke="#666666" points="244.25,-226 93.25,-226 93.25,-194 244.25,-194 244.25,-226"/>
<text text-anchor="start" x="101.25" y="-212.5" font-family="Helvetica,sans-Serif" font-size="10.00">DHARTAPI.NativeUtils.CVector</text>
<text text-anchor="middle" x="168.75" y="-200.5" font-family="Helvetica,sans-Serif" font-size="10.00">AndData</text>
</a>
</g>
</g>
<!-- Node6&#45;&gt;Node7 -->
<g id="edge8" class="edge">
<title>Node6&#45;&gt;Node7</title>
<path fill="none" stroke="#9a32cd" stroke-dasharray="5,2" d="M122.76,-276.37C129.11,-266.65 137.11,-254.6 144.5,-244 148.57,-238.17 153.16,-231.86 157.24,-226.33"/>
<polygon fill="#9a32cd" stroke="#9a32cd" points="119.34,-274.21 116.83,-284.51 125.21,-278.02 119.34,-274.21"/>
<text text-anchor="middle" x="156.38" y="-258.5" font-family="Helvetica,sans-Serif" font-size="10.00"> size</text>
<text text-anchor="middle" x="156.38" y="-246.5" font-family="Helvetica,sans-Serif" font-size="10.00">size2</text>
</g>
<!-- Node7&#45;&gt;Node3 -->
<g id="edge6" class="edge">
<title>Node7&#45;&gt;Node3</title>
<path fill="none" stroke="#9a32cd" stroke-dasharray="5,2" d="M147.82,-185.81C135.71,-172.4 121.13,-156.26 112.16,-146.31"/>
<polygon fill="#9a32cd" stroke="#9a32cd" points="144.67,-187.65 153.97,-192.73 149.86,-182.96 144.67,-187.65"/>
<text text-anchor="middle" x="148.5" y="-166.5" font-family="Helvetica,sans-Serif" font-size="10.00"> ptrs</text>
</g>
<!-- Node8 -->
<g id="node8" class="node">
<title>Node8</title>
<g id="a_node8"><a xlink:title=" ">
<polygon fill="white" stroke="#666666" points="195.38,-306 156.13,-306 156.13,-286 195.38,-286 195.38,-306"/>
<text text-anchor="middle" x="175.75" y="-292.5" font-family="Helvetica,sans-Serif" font-size="10.00">IntPtr</text>
</a>
</g>
</g>
<!-- Node8&#45;&gt;Node7 -->
<g id="edge7" class="edge">
<title>Node8&#45;&gt;Node7</title>
<path fill="none" stroke="#9a32cd" stroke-dasharray="5,2" d="M174.09,-275.05C172.84,-260.12 171.17,-240 170.03,-226.32"/>
<polygon fill="#9a32cd" stroke="#9a32cd" points="170.66,-275.01 174.97,-284.69 177.63,-274.43 170.66,-275.01"/>
<text text-anchor="middle" x="186.5" y="-258.5" font-family="Helvetica,sans-Serif" font-size="10.00"> data</text>
<text text-anchor="middle" x="186.5" y="-246.5" font-family="Helvetica,sans-Serif" font-size="10.00">vector</text>
</g>
</g>
</svg>
