<?xml version="1.0" encoding="UTF-8" standalone="no"?>
<!DOCTYPE svg PUBLIC "-//W3C//DTD SVG 1.1//EN"
 "http://www.w3.org/Graphics/SVG/1.1/DTD/svg11.dtd">
<!-- Generated by graphviz version 8.0.5 (20230430.1635)
 -->
<!-- Title: DHARTAPI.Pathfinding.NativeMethods.CreateAllToAllPaths Pages: 1 -->
<svg width="523pt" height="40pt"
 viewBox="0.00 0.00 523.25 40.00" xmlns="http://www.w3.org/2000/svg" xmlns:xlink="http://www.w3.org/1999/xlink">
<g id="graph0" class="graph" transform="scale(1 1) rotate(0) translate(4 36)">
<title>DHARTAPI.Pathfinding.NativeMethods.CreateAllToAllPaths</title>
<!-- Node1 -->
<g id="node1" class="node">
<title>Node1</title>
<g id="a_node1"><a xlink:title=" ">
<polygon fill="#999999" stroke="#666666" points="515.25,-32 371,-32 371,0 515.25,0 515.25,-32"/>
<text text-anchor="start" x="379" y="-18.5" font-family="Helvetica,sans-Serif" font-size="10.00">DHARTAPI.Pathfinding.Native</text>
<text text-anchor="middle" x="443.13" y="-6.5" font-family="Helvetica,sans-Serif" font-size="10.00">Methods.CreateAllToAllPaths</text>
</a>
</g>
</g>
<!-- Node2 -->
<g id="node2" class="node">
<title>Node2</title>
<g id="a_node2"><a xlink:href="class_d_h_a_r_t_a_p_i_1_1_pathfinding_1_1_native_methods.html#a69f39620ac0151772c22311037fe8d08" target="_top" xlink:title="Generate all to all paths in C++.">
<polygon fill="white" stroke="#666666" points="335,-32 190.75,-32 190.75,0 335,0 335,-32"/>
<text text-anchor="start" x="198.75" y="-18.5" font-family="Helvetica,sans-Serif" font-size="10.00">DHARTAPI.Pathfinding.Native</text>
<text text-anchor="middle" x="262.88" y="-6.5" font-family="Helvetica,sans-Serif" font-size="10.00">Methods.C_AllToAllPaths</text>
</a>
</g>
</g>
<!-- Node1&#45;&gt;Node2 -->
<g id="edge1" class="edge">
<title>Node1&#45;&gt;Node2</title>
<path fill="none" stroke="#63b8ff" d="M359.66,-16C351.54,-16 343.36,-16 335.37,-16"/>
<polygon fill="#63b8ff" stroke="#63b8ff" points="359.65,-19.5 369.65,-16 359.65,-12.5 359.65,-19.5"/>
</g>
<!-- Node3 -->
<g id="node3" class="node">
<title>Node3</title>
<g id="a_node3"><a xlink:href="class_d_h_a_r_t_a_p_i_1_1_pathfinding_1_1_shortest_path.html#a5d3e810b6cef979141bd4208700a6df2" target="_top" xlink:title="Generate a path from every node in the graph to every other node in a graph.">
<polygon fill="white" stroke="#666666" points="154.75,-32 0,-32 0,0 154.75,0 154.75,-32"/>
<text text-anchor="start" x="8" y="-18.5" font-family="Helvetica,sans-Serif" font-size="10.00">DHARTAPI.Pathfinding.Shortest</text>
<text text-anchor="middle" x="77.38" y="-6.5" font-family="Helvetica,sans-Serif" font-size="10.00">Path.DijkstraAllToAll</text>
</a>
</g>
</g>
<!-- Node2&#45;&gt;Node3 -->
<g id="edge2" class="edge">
<title>Node2&#45;&gt;Node3</title>
<path fill="none" stroke="#63b8ff" d="M179.45,-16C171.35,-16 163.15,-16 155.11,-16"/>
<polygon fill="#63b8ff" stroke="#63b8ff" points="179.4,-19.5 189.4,-16 179.4,-12.5 179.4,-19.5"/>
</g>
</g>
</svg>
