<?xml version="1.0" encoding="UTF-8" standalone="no"?>
<!DOCTYPE svg PUBLIC "-//W3C//DTD SVG 1.1//EN"
 "http://www.w3.org/Graphics/SVG/1.1/DTD/svg11.dtd">
<!-- Generated by graphviz version 7.0.4 (20221203.1631)
 -->
<!-- Title: DHARTAPI.SpatialStructures.NativeMethods.C_GetCSRPointers Pages: 1 -->
<svg width="539pt" height="38pt"
 viewBox="0.00 0.00 539.00 38.00" xmlns="http://www.w3.org/2000/svg" xmlns:xlink="http://www.w3.org/1999/xlink">
<g id="graph0" class="graph" transform="scale(1 1) rotate(0) translate(4 34)">
<title>DHARTAPI.SpatialStructures.NativeMethods.C_GetCSRPointers</title>
<!-- Node1 -->
<g id="node1" class="node">
<title>Node1</title>
<g id="a_node1"><a xlink:title="Compress a graph and get the data required to reconstruct its CSR.">
<polygon fill="#999999" stroke="#666666" points="531,-30 364,-30 364,0 531,0 531,-30"/>
<text text-anchor="start" x="372" y="-18" font-family="Helvetica,sans-Serif" font-size="10.00">DHARTAPI.SpatialStructures.</text>
<text text-anchor="middle" x="447.5" y="-7" font-family="Helvetica,sans-Serif" font-size="10.00">NativeMethods.C_GetCSRPointers</text>
</a>
</g>
</g>
<!-- Node2 -->
<g id="node2" class="node">
<title>Node2</title>
<g id="a_node2"><a xlink:href="class_d_h_a_r_t_a_p_i_1_1_spatial_structures_1_1_graph.html#a49e6fcb61ca17ee4ba5cb6a2045f9334" target="_top" xlink:title="Compress the graph into a CSR representation, and get pointers to it.">
<polygon fill="white" stroke="#666666" points="328,-30 182,-30 182,0 328,0 328,-30"/>
<text text-anchor="start" x="190" y="-18" font-family="Helvetica,sans-Serif" font-size="10.00">DHARTAPI.SpatialStructures.</text>
<text text-anchor="middle" x="255" y="-7" font-family="Helvetica,sans-Serif" font-size="10.00">Graph.CompressToCSR</text>
</a>
</g>
</g>
<!-- Node1&#45;&gt;Node2 -->
<g id="edge1" class="edge">
<title>Node1&#45;&gt;Node2</title>
<path fill="none" stroke="#63b8ff" d="M352.43,-15C344.38,-15 336.33,-15 328.49,-15"/>
<polygon fill="#63b8ff" stroke="#63b8ff" points="352.26,-18.5 362.26,-15 352.26,-11.5 352.26,-18.5"/>
</g>
<!-- Node3 -->
<g id="node3" class="node">
<title>Node3</title>
<g id="a_node3"><a xlink:href="class_d_h_a_r_t_a_p_i_1_1_spatial_structures_1_1_graph.html#ac31c69fa2fb19842bb3daeee06d230a1" target="_top" xlink:title="Summarize the edgecosts of every node in the graph.">
<polygon fill="white" stroke="#666666" points="146,-30 0,-30 0,0 146,0 146,-30"/>
<text text-anchor="start" x="8" y="-18" font-family="Helvetica,sans-Serif" font-size="10.00">DHARTAPI.SpatialStructures.</text>
<text text-anchor="middle" x="73" y="-7" font-family="Helvetica,sans-Serif" font-size="10.00">Graph.AggregateEdgeCosts</text>
</a>
</g>
</g>
<!-- Node2&#45;&gt;Node3 -->
<g id="edge2" class="edge">
<title>Node2&#45;&gt;Node3</title>
<path fill="none" stroke="#63b8ff" d="M170.3,-15C162.27,-15 154.19,-15 146.29,-15"/>
<polygon fill="#63b8ff" stroke="#63b8ff" points="170.05,-18.5 180.05,-15 170.05,-11.5 170.05,-18.5"/>
</g>
</g>
</svg>
