<?xml version="1.0" encoding="UTF-8" standalone="no"?>
<!DOCTYPE svg PUBLIC "-//W3C//DTD SVG 1.1//EN"
 "http://www.w3.org/Graphics/SVG/1.1/DTD/svg11.dtd">
<!-- Generated by graphviz version 4.0.0 (20220529.0937)
 -->
<!-- Title: HumanFactors.NativeUtils.NativeArray2D&lt; T &gt; Pages: 1 -->
<svg width="239pt" height="252pt"
 viewBox="0.00 0.00 239.00 252.00" xmlns="http://www.w3.org/2000/svg" xmlns:xlink="http://www.w3.org/1999/xlink">
<g id="graph0" class="graph" transform="scale(1 1) rotate(0) translate(4 248)">
<title>HumanFactors.NativeUtils.NativeArray2D&lt; T &gt;</title>
<polygon fill="white" stroke="transparent" points="-4,4 -4,-248 235,-248 235,4 -4,4"/>
<!-- Node1 -->
<g id="node1" class="node">
<title>Node1</title>
<g id="a_node1"><a xlink:title="A wrapper for a two dimensional array in unmanaged memory.">
<polygon fill="#bfbfbf" stroke="black" points="38,-0.5 38,-30.5 170,-30.5 170,-0.5 38,-0.5"/>
<text text-anchor="start" x="46" y="-18.5" font-family="Helvetica,sans-Serif" font-size="10.00">HumanFactors.NativeUtils.</text>
<text text-anchor="middle" x="104" y="-7.5" font-family="Helvetica,sans-Serif" font-size="10.00">NativeArray2D&lt; T &gt;</text>
</a>
</g>
</g>
<!-- Node2 -->
<g id="node2" class="node">
<title>Node2</title>
<g id="a_node2"><a xlink:href="class_human_factors_1_1_native_utils_1_1_native_array.html" target="_top" xlink:title="A read&#45;only array stored in unmanaged memory.">
<polygon fill="white" stroke="black" points="59.5,-68.5 59.5,-87.5 148.5,-87.5 148.5,-68.5 59.5,-68.5"/>
<text text-anchor="middle" x="104" y="-75.5" font-family="Helvetica,sans-Serif" font-size="10.00">NativeArray&lt; T &gt;</text>
</a>
</g>
</g>
<!-- Node2&#45;&gt;Node1 -->
<g id="edge1" class="edge">
<title>Node2&#45;&gt;Node1</title>
<path fill="none" stroke="midnightblue" d="M104,-58.22C104,-49.36 104,-38.96 104,-30.76"/>
<polygon fill="midnightblue" stroke="midnightblue" points="100.5,-58.33 104,-68.33 107.5,-58.33 100.5,-58.33"/>
</g>
<!-- Node3 -->
<g id="node3" class="node">
<title>Node3</title>
<g id="a_node3"><a xlink:href="class_human_factors_1_1_native_utils_1_1_native_object.html" target="_top" xlink:title="An object that holds a pointer to unmanaged memory or some other resource that must be freed.">
<polygon fill="white" stroke="black" points="9.5,-141 9.5,-160 80.5,-160 80.5,-141 9.5,-141"/>
<text text-anchor="middle" x="45" y="-148" font-family="Helvetica,sans-Serif" font-size="10.00">NativeObject</text>
</a>
</g>
</g>
<!-- Node3&#45;&gt;Node2 -->
<g id="edge2" class="edge">
<title>Node3&#45;&gt;Node2</title>
<path fill="none" stroke="midnightblue" d="M58.89,-132.9C70.74,-118.74 87.3,-98.96 96.71,-87.72"/>
<polygon fill="midnightblue" stroke="midnightblue" points="55.97,-130.94 52.23,-140.86 61.34,-135.43 55.97,-130.94"/>
</g>
<!-- Node4 -->
<g id="node4" class="node">
<title>Node4</title>
<g id="a_node4"><a xlink:href="class_safe_handle.html" target="_top" xlink:title=" ">
<polygon fill="white" stroke="black" points="0,-224.5 0,-243.5 66,-243.5 66,-224.5 0,-224.5"/>
<text text-anchor="middle" x="33" y="-231.5" font-family="Helvetica,sans-Serif" font-size="10.00">SafeHandle</text>
</a>
</g>
</g>
<!-- Node4&#45;&gt;Node3 -->
<g id="edge3" class="edge">
<title>Node4&#45;&gt;Node3</title>
<path fill="none" stroke="midnightblue" d="M35.74,-214.36C38.25,-197.36 41.84,-172.99 43.73,-160.16"/>
<polygon fill="midnightblue" stroke="midnightblue" points="32.28,-213.87 34.28,-224.28 39.2,-214.89 32.28,-213.87"/>
</g>
<!-- Node5 -->
<g id="node5" class="node">
<title>Node5</title>
<g id="a_node5"><a xlink:title=" ">
<polygon fill="white" stroke="black" points="97.5,-224.5 97.5,-243.5 126.5,-243.5 126.5,-224.5 97.5,-224.5"/>
<text text-anchor="middle" x="112" y="-231.5" font-family="Helvetica,sans-Serif" font-size="10.00">int</text>
</a>
</g>
</g>
<!-- Node5&#45;&gt;Node3 -->
<g id="edge4" class="edge">
<title>Node5&#45;&gt;Node3</title>
<path fill="none" stroke="#9a32cd" stroke-dasharray="5,2" d="M94.91,-217.49C91.19,-213.84 87.35,-209.88 84,-206 70.92,-190.85 57.81,-171.46 50.62,-160.36"/>
<polygon fill="#9a32cd" stroke="#9a32cd" points="92.56,-220.08 102.24,-224.41 97.37,-214.99 92.56,-220.08"/>
<text text-anchor="middle" x="104.5" y="-192.5" font-family="Helvetica,sans-Serif" font-size="10.00"> pressure</text>
</g>
<!-- Node6 -->
<g id="node6" class="node">
<title>Node6</title>
<g id="a_node6"><a xlink:href="struct_human_factors_1_1_native_utils_1_1_c_vector_and_data.html" target="_top" xlink:title="Pointers to a C++ vector&#39;s data, the vector itself, and the size of the vector.">
<polygon fill="white" stroke="black" points="99,-135.5 99,-165.5 231,-165.5 231,-135.5 99,-135.5"/>
<text text-anchor="start" x="107" y="-153.5" font-family="Helvetica,sans-Serif" font-size="10.00">HumanFactors.NativeUtils.</text>
<text text-anchor="middle" x="165" y="-142.5" font-family="Helvetica,sans-Serif" font-size="10.00">CVectorAndData</text>
</a>
</g>
</g>
<!-- Node5&#45;&gt;Node6 -->
<g id="edge7" class="edge">
<title>Node5&#45;&gt;Node6</title>
<path fill="none" stroke="#9a32cd" stroke-dasharray="5,2" d="M122.38,-215.41C128.04,-206 135.24,-194.26 142,-184 146.03,-177.88 150.67,-171.26 154.72,-165.6"/>
<polygon fill="#9a32cd" stroke="#9a32cd" points="119.25,-213.83 117.14,-224.22 125.26,-217.42 119.25,-213.83"/>
<text text-anchor="middle" x="154" y="-198" font-family="Helvetica,sans-Serif" font-size="10.00"> size</text>
<text text-anchor="middle" x="154" y="-187" font-family="Helvetica,sans-Serif" font-size="10.00">size2</text>
</g>
<!-- Node6&#45;&gt;Node2 -->
<g id="edge5" class="edge">
<title>Node6&#45;&gt;Node2</title>
<path fill="none" stroke="#9a32cd" stroke-dasharray="5,2" d="M145.86,-127.38C134.31,-114.04 120.23,-97.76 111.69,-87.89"/>
<polygon fill="#9a32cd" stroke="#9a32cd" points="143.47,-129.96 152.66,-135.23 148.76,-125.38 143.47,-129.96"/>
<text text-anchor="middle" x="147" y="-109" font-family="Helvetica,sans-Serif" font-size="10.00"> ptrs</text>
</g>
<!-- Node7 -->
<g id="node7" class="node">
<title>Node7</title>
<g id="a_node7"><a xlink:title=" ">
<polygon fill="white" stroke="black" points="157,-224.5 157,-243.5 197,-243.5 197,-224.5 157,-224.5"/>
<text text-anchor="middle" x="177" y="-231.5" font-family="Helvetica,sans-Serif" font-size="10.00">IntPtr</text>
</a>
</g>
</g>
<!-- Node7&#45;&gt;Node6 -->
<g id="edge6" class="edge">
<title>Node7&#45;&gt;Node6</title>
<path fill="none" stroke="#9a32cd" stroke-dasharray="5,2" d="M174.24,-214.23C172.05,-199.41 169.06,-179.05 167.08,-165.6"/>
<polygon fill="#9a32cd" stroke="#9a32cd" points="170.8,-214.89 175.72,-224.28 177.72,-213.87 170.8,-214.89"/>
<text text-anchor="middle" x="186" y="-198" font-family="Helvetica,sans-Serif" font-size="10.00"> data</text>
<text text-anchor="middle" x="186" y="-187" font-family="Helvetica,sans-Serif" font-size="10.00">vector</text>
</g>
</g>
</svg>
