<?xml version="1.0" encoding="UTF-8" standalone="no"?>
<!DOCTYPE svg PUBLIC "-//W3C//DTD SVG 1.1//EN"
 "http://www.w3.org/Graphics/SVG/1.1/DTD/svg11.dtd">
<!-- Generated by graphviz version 4.0.0 (20220529.0937)
 -->
<!-- Title: HumanFactors.Geometry.NativeMethods.C_GetTrisAndVerts Pages: 1 -->
<svg width="541pt" height="137pt"
 viewBox="0.00 0.00 541.00 137.00" xmlns="http://www.w3.org/2000/svg" xmlns:xlink="http://www.w3.org/1999/xlink">
<g id="graph0" class="graph" transform="scale(1 1) rotate(0) translate(4 133)">
<title>HumanFactors.Geometry.NativeMethods.C_GetTrisAndVerts</title>
<polygon fill="white" stroke="transparent" points="-4,4 -4,-133 537,-133 537,4 -4,4"/>
<!-- Node1 -->
<g id="node1" class="node">
<title>Node1</title>
<g id="a_node1"><a xlink:title="Get pointers to the vertex and index arrays of a mesh in C++.">
<polygon fill="#bfbfbf" stroke="black" points="378,-49.5 378,-79.5 533,-79.5 533,-49.5 378,-49.5"/>
<text text-anchor="start" x="386" y="-67.5" font-family="Helvetica,sans-Serif" font-size="10.00">HumanFactors.Geometry.Native</text>
<text text-anchor="middle" x="455.5" y="-56.5" font-family="Helvetica,sans-Serif" font-size="10.00">Methods.C_GetTrisAndVerts</text>
</a>
</g>
</g>
<!-- Node2 -->
<g id="node2" class="node">
<title>Node2</title>
<g id="a_node2"><a xlink:href="class_human_factors_1_1_geometry_1_1_mesh_info.html#aaad33c42141a062f1b046b15c5ad3234" target="_top" xlink:title="Updates this mesh&#39;s name, ID, and arrays with it&#39;s values from C++.">
<polygon fill="white" stroke="black" points="189,-49.5 189,-79.5 342,-79.5 342,-49.5 189,-49.5"/>
<text text-anchor="start" x="197" y="-67.5" font-family="Helvetica,sans-Serif" font-size="10.00">HumanFactors.Geometry.Mesh</text>
<text text-anchor="middle" x="265.5" y="-56.5" font-family="Helvetica,sans-Serif" font-size="10.00">Info.UpdateIDNameAndArrays</text>
</a>
</g>
</g>
<!-- Node1&#45;&gt;Node2 -->
<g id="edge1" class="edge">
<title>Node1&#45;&gt;Node2</title>
<path fill="none" stroke="midnightblue" d="M367.75,-64.5C359.18,-64.5 350.53,-64.5 342.08,-64.5"/>
<polygon fill="midnightblue" stroke="midnightblue" points="367.76,-68 377.76,-64.5 367.76,-61 367.76,-68"/>
</g>
<!-- Node3 -->
<g id="node3" class="node">
<title>Node3</title>
<g id="a_node3"><a xlink:href="class_human_factors_1_1_ray_tracing_1_1_embree_b_v_h.html#aeb7347e829fd81d6da236e1ca8852f09" target="_top" xlink:title="Add a new mesh to the BVH.">
<polygon fill="white" stroke="black" points="9,-98.5 9,-128.5 144,-128.5 144,-98.5 9,-98.5"/>
<text text-anchor="start" x="17" y="-116.5" font-family="Helvetica,sans-Serif" font-size="10.00">HumanFactors.RayTracing.</text>
<text text-anchor="middle" x="76.5" y="-105.5" font-family="Helvetica,sans-Serif" font-size="10.00">EmbreeBVH.AddMesh</text>
</a>
</g>
</g>
<!-- Node2&#45;&gt;Node3 -->
<g id="edge2" class="edge">
<title>Node2&#45;&gt;Node3</title>
<path fill="none" stroke="midnightblue" d="M197.25,-82.12C176.79,-87.48 154.5,-93.32 134.77,-98.49"/>
<polygon fill="midnightblue" stroke="midnightblue" points="198.34,-85.46 207.12,-79.53 196.56,-78.68 198.34,-85.46"/>
</g>
<!-- Node4 -->
<g id="node4" class="node">
<title>Node4</title>
<g id="a_node4"><a xlink:href="class_human_factors_1_1_geometry_1_1_mesh_info.html#a7840f891fd3f7b38f64c5e1619ebc812" target="_top" xlink:title="Create a new meshinfo instance from the given pointer.">
<polygon fill="white" stroke="black" points="0,-49.5 0,-79.5 153,-79.5 153,-49.5 0,-49.5"/>
<text text-anchor="start" x="8" y="-67.5" font-family="Helvetica,sans-Serif" font-size="10.00">HumanFactors.Geometry.Mesh</text>
<text text-anchor="middle" x="76.5" y="-56.5" font-family="Helvetica,sans-Serif" font-size="10.00">Info.MeshInfo</text>
</a>
</g>
</g>
<!-- Node2&#45;&gt;Node4 -->
<g id="edge3" class="edge">
<title>Node2&#45;&gt;Node4</title>
<path fill="none" stroke="midnightblue" d="M178.7,-64.5C170.23,-64.5 161.67,-64.5 153.3,-64.5"/>
<polygon fill="midnightblue" stroke="midnightblue" points="178.98,-68 188.98,-64.5 178.98,-61 178.98,-68"/>
</g>
<!-- Node5 -->
<g id="node5" class="node">
<title>Node5</title>
<g id="a_node5"><a xlink:href="class_human_factors_1_1_geometry_1_1_mesh_info.html#a3f9bd73c9c82e777bb083439d457b8ad" target="_top" xlink:title="Rotate this mesh by the desired magnitude.">
<polygon fill="white" stroke="black" points="0,-0.5 0,-30.5 153,-30.5 153,-0.5 0,-0.5"/>
<text text-anchor="start" x="8" y="-18.5" font-family="Helvetica,sans-Serif" font-size="10.00">HumanFactors.Geometry.Mesh</text>
<text text-anchor="middle" x="76.5" y="-7.5" font-family="Helvetica,sans-Serif" font-size="10.00">Info.RotateMesh</text>
</a>
</g>
</g>
<!-- Node2&#45;&gt;Node5 -->
<g id="edge4" class="edge">
<title>Node2&#45;&gt;Node5</title>
<path fill="none" stroke="midnightblue" d="M197.25,-46.88C176.79,-41.52 154.5,-35.68 134.77,-30.51"/>
<polygon fill="midnightblue" stroke="midnightblue" points="196.56,-50.32 207.12,-49.47 198.34,-43.54 196.56,-50.32"/>
</g>
</g>
</svg>
