<?xml version="1.0" encoding="UTF-8" standalone="no"?>
<!DOCTYPE svg PUBLIC "-//W3C//DTD SVG 1.1//EN"
 "http://www.w3.org/Graphics/SVG/1.1/DTD/svg11.dtd">
<!-- Generated by graphviz version 8.0.5 (20230430.1635)
 -->
<!-- Title: DHARTAPI.Pathfinding.ShortestPath.DijkstraAllToAll Pages: 1 -->
<svg width="524pt" height="90pt"
 viewBox="0.00 0.00 524.00 90.00" xmlns="http://www.w3.org/2000/svg" xmlns:xlink="http://www.w3.org/1999/xlink">
<g id="graph0" class="graph" transform="scale(1 1) rotate(0) translate(4 86)">
<title>DHARTAPI.Pathfinding.ShortestPath.DijkstraAllToAll</title>
<!-- Node1 -->
<g id="node1" class="node">
<title>Node1</title>
<g id="a_node1"><a xlink:title="Generate a path from every node in the graph to every other node in a graph.">
<polygon fill="#999999" stroke="#666666" points="154.75,-57 0,-57 0,-25 154.75,-25 154.75,-57"/>
<text text-anchor="start" x="8" y="-43.5" font-family="Helvetica,sans-Serif" font-size="10.00">DHARTAPI.Pathfinding.Shortest</text>
<text text-anchor="middle" x="77.38" y="-31.5" font-family="Helvetica,sans-Serif" font-size="10.00">Path.DijkstraAllToAll</text>
</a>
</g>
</g>
<!-- Node2 -->
<g id="node2" class="node">
<title>Node2</title>
<g id="a_node2"><a xlink:href="class_d_h_a_r_t_a_p_i_1_1_pathfinding_1_1_native_methods.html#a69f39620ac0151772c22311037fe8d08" target="_top" xlink:title="Generate all to all paths in C++.">
<polygon fill="white" stroke="#666666" points="335.38,-82 191.13,-82 191.13,-50 335.38,-50 335.38,-82"/>
<text text-anchor="start" x="199.13" y="-68.5" font-family="Helvetica,sans-Serif" font-size="10.00">DHARTAPI.Pathfinding.Native</text>
<text text-anchor="middle" x="263.25" y="-56.5" font-family="Helvetica,sans-Serif" font-size="10.00">Methods.C_AllToAllPaths</text>
</a>
</g>
</g>
<!-- Node1&#45;&gt;Node2 -->
<g id="edge1" class="edge">
<title>Node1&#45;&gt;Node2</title>
<path fill="none" stroke="#63b8ff" d="M155.02,-51.42C163.25,-52.54 171.64,-53.68 179.92,-54.81"/>
<polygon fill="#63b8ff" stroke="#63b8ff" points="179.35,-58.4 189.73,-56.28 180.29,-51.46 179.35,-58.4"/>
</g>
<!-- Node4 -->
<g id="node4" class="node">
<title>Node4</title>
<g id="a_node4"><a xlink:href="class_d_h_a_r_t_a_p_i_1_1_spatial_structures_1_1_graph.html#a7113a8d636abc5510a3f794cbc2bf2f4" target="_top" xlink:title="Get the number of nodes in this graph.">
<polygon fill="white" stroke="#666666" points="335.75,-32 190.75,-32 190.75,0 335.75,0 335.75,-32"/>
<text text-anchor="start" x="198.75" y="-18.5" font-family="Helvetica,sans-Serif" font-size="10.00">DHARTAPI.SpatialStructures.</text>
<text text-anchor="middle" x="263.25" y="-6.5" font-family="Helvetica,sans-Serif" font-size="10.00">Graph.NumNodes</text>
</a>
</g>
</g>
<!-- Node1&#45;&gt;Node4 -->
<g id="edge3" class="edge">
<title>Node1&#45;&gt;Node4</title>
<path fill="none" stroke="#63b8ff" d="M155.02,-30.58C163.18,-29.47 171.5,-28.34 179.71,-27.22"/>
<polygon fill="#63b8ff" stroke="#63b8ff" points="180,-30.58 189.43,-25.76 179.05,-23.64 180,-30.58"/>
</g>
<!-- Node3 -->
<g id="node3" class="node">
<title>Node3</title>
<g id="a_node3"><a xlink:href="class_d_h_a_r_t_a_p_i_1_1_pathfinding_1_1_native_methods.html#a0277f22cea8a9232c0837dccbbb9aaf6" target="_top" xlink:title=" ">
<polygon fill="white" stroke="#666666" points="516,-82 371.75,-82 371.75,-50 516,-50 516,-82"/>
<text text-anchor="start" x="379.75" y="-68.5" font-family="Helvetica,sans-Serif" font-size="10.00">DHARTAPI.Pathfinding.Native</text>
<text text-anchor="middle" x="443.88" y="-56.5" font-family="Helvetica,sans-Serif" font-size="10.00">Methods.CreateAllToAllPaths</text>
</a>
</g>
</g>
<!-- Node2&#45;&gt;Node3 -->
<g id="edge2" class="edge">
<title>Node2&#45;&gt;Node3</title>
<path fill="none" stroke="#63b8ff" d="M335.87,-66C344.04,-66 352.41,-66 360.7,-66"/>
<polygon fill="#63b8ff" stroke="#63b8ff" points="360.53,-69.5 370.53,-66 360.53,-62.5 360.53,-69.5"/>
</g>
</g>
</svg>
