<?xml version="1.0" encoding="UTF-8" standalone="no"?>
<!DOCTYPE svg PUBLIC "-//W3C//DTD SVG 1.1//EN"
 "http://www.w3.org/Graphics/SVG/1.1/DTD/svg11.dtd">
<!-- Generated by graphviz version 7.0.2 (20221119.0110)
 -->
<!-- Title: DHARTAPI.Pathfinding.ShortestPath.DijkstraShortestPathMulti Pages: 1 -->
<svg width="525pt" height="38pt"
 viewBox="0.00 0.00 525.00 38.00" xmlns="http://www.w3.org/2000/svg" xmlns:xlink="http://www.w3.org/1999/xlink">
<g id="graph0" class="graph" transform="scale(1 1) rotate(0) translate(4 34)">
<title>DHARTAPI.Pathfinding.ShortestPath.DijkstraShortestPathMulti</title>
<!-- Node1 -->
<g id="node1" class="node">
<title>Node1</title>
<g id="a_node1"><a xlink:title="Find the shortest paths between each pair of start_id and end_id in order.">
<polygon fill="#999999" stroke="#666666" points="155,-30 0,-30 0,0 155,0 155,-30"/>
<text text-anchor="start" x="8" y="-18" font-family="Helvetica,sans-Serif" font-size="10.00">DHARTAPI.Pathfinding.Shortest</text>
<text text-anchor="middle" x="77.5" y="-7" font-family="Helvetica,sans-Serif" font-size="10.00">Path.DijkstraShortestPathMulti</text>
</a>
</g>
</g>
<!-- Node2 -->
<g id="node2" class="node">
<title>Node2</title>
<g id="a_node2"><a xlink:href="class_d_h_a_r_t_a_p_i_1_1_pathfinding_1_1_native_methods.html#addbefb7224e89060b74066ded2e2e756" target="_top" xlink:title="Generate a path from start to end.">
<polygon fill="white" stroke="#666666" points="336,-30 191,-30 191,0 336,0 336,-30"/>
<text text-anchor="start" x="199" y="-18" font-family="Helvetica,sans-Serif" font-size="10.00">DHARTAPI.Pathfinding.Native</text>
<text text-anchor="middle" x="263.5" y="-7" font-family="Helvetica,sans-Serif" font-size="10.00">Methods.C_CreatePaths</text>
</a>
</g>
</g>
<!-- Node1&#45;&gt;Node2 -->
<g id="edge1" class="edge">
<title>Node1&#45;&gt;Node2</title>
<path fill="none" stroke="#63b8ff" d="M155.47,-15C163.27,-15 171.23,-15 179.1,-15"/>
<polygon fill="#63b8ff" stroke="#63b8ff" points="179.03,-18.5 189.03,-15 179.03,-11.5 179.03,-18.5"/>
</g>
<!-- Node3 -->
<g id="node3" class="node">
<title>Node3</title>
<g id="a_node3"><a xlink:href="class_d_h_a_r_t_a_p_i_1_1_pathfinding_1_1_native_methods.html#ac6e4b01ee8ee69bac411e165a7eded64" target="_top" xlink:title=" ">
<polygon fill="white" stroke="#666666" points="517,-30 372,-30 372,0 517,0 517,-30"/>
<text text-anchor="start" x="380" y="-18" font-family="Helvetica,sans-Serif" font-size="10.00">DHARTAPI.Pathfinding.Native</text>
<text text-anchor="middle" x="444.5" y="-7" font-family="Helvetica,sans-Serif" font-size="10.00">Methods.CreatePaths</text>
</a>
</g>
</g>
<!-- Node2&#45;&gt;Node3 -->
<g id="edge2" class="edge">
<title>Node2&#45;&gt;Node3</title>
<path fill="none" stroke="#63b8ff" d="M336.27,-15C344.21,-15 352.33,-15 360.39,-15"/>
<polygon fill="#63b8ff" stroke="#63b8ff" points="360.2,-18.5 370.2,-15 360.2,-11.5 360.2,-18.5"/>
</g>
</g>
</svg>
