<?xml version="1.0" encoding="UTF-8" standalone="no"?>
<!DOCTYPE svg PUBLIC "-//W3C//DTD SVG 1.1//EN"
 "http://www.w3.org/Graphics/SVG/1.1/DTD/svg11.dtd">
<!-- Generated by graphviz version 8.0.5 (20230430.1635)
 -->
<!-- Title: DHARTAPI.Pathfinding.NativeMethods.C_CreatePaths Pages: 1 -->
<svg width="534pt" height="40pt"
 viewBox="0.00 0.00 533.75 40.00" xmlns="http://www.w3.org/2000/svg" xmlns:xlink="http://www.w3.org/1999/xlink">
<g id="graph0" class="graph" transform="scale(1 1) rotate(0) translate(4 36)">
<title>DHARTAPI.Pathfinding.NativeMethods.C_CreatePaths</title>
<!-- Node1 -->
<g id="node1" class="node">
<title>Node1</title>
<g id="a_node1"><a xlink:title="Generate a path from start to end.">
<polygon fill="#999999" stroke="#666666" points="525.75,-32 381.5,-32 381.5,0 525.75,0 525.75,-32"/>
<text text-anchor="start" x="389.5" y="-18.5" font-family="Helvetica,sans-Serif" font-size="10.00">DHARTAPI.Pathfinding.Native</text>
<text text-anchor="middle" x="453.63" y="-6.5" font-family="Helvetica,sans-Serif" font-size="10.00">Methods.C_CreatePaths</text>
</a>
</g>
</g>
<!-- Node2 -->
<g id="node2" class="node">
<title>Node2</title>
<g id="a_node2"><a xlink:href="class_d_h_a_r_t_a_p_i_1_1_pathfinding_1_1_shortest_path.html#a0a686d8b0ab01cbdc2b8ea31a5a21e46" target="_top" xlink:title="Find the shortest paths between each pair of start_id and end_id in order.">
<polygon fill="white" stroke="#666666" points="345.5,-32 190.75,-32 190.75,0 345.5,0 345.5,-32"/>
<text text-anchor="start" x="198.75" y="-18.5" font-family="Helvetica,sans-Serif" font-size="10.00">DHARTAPI.Pathfinding.Shortest</text>
<text text-anchor="middle" x="268.13" y="-6.5" font-family="Helvetica,sans-Serif" font-size="10.00">Path.DijkstraShortestPathMulti</text>
</a>
</g>
</g>
<!-- Node1&#45;&gt;Node2 -->
<g id="edge1" class="edge">
<title>Node1&#45;&gt;Node2</title>
<path fill="none" stroke="#63b8ff" d="M370.2,-16C362.1,-16 353.9,-16 345.86,-16"/>
<polygon fill="#63b8ff" stroke="#63b8ff" points="370.15,-19.5 380.15,-16 370.15,-12.5 370.15,-19.5"/>
</g>
<!-- Node3 -->
<g id="node3" class="node">
<title>Node3</title>
<g id="a_node3"><a xlink:href="class_d_h_a_r_t_a_p_i_1_1_pathfinding_1_1_shortest_path.html#a9a7b6f8275e1f2567d56592093bb464a" target="_top" xlink:title="Find the shortest paths between each pair of start_id and end_id in order.">
<polygon fill="white" stroke="#666666" points="154.75,-32 0,-32 0,0 154.75,0 154.75,-32"/>
<text text-anchor="start" x="8" y="-18.5" font-family="Helvetica,sans-Serif" font-size="10.00">DHARTAPI.Pathfinding.Shortest</text>
<text text-anchor="middle" x="77.38" y="-6.5" font-family="Helvetica,sans-Serif" font-size="10.00">Path.DijkstraShortestPathMulti</text>
</a>
</g>
</g>
<!-- Node2&#45;&gt;Node3 -->
<g id="edge2" class="edge">
<title>Node2&#45;&gt;Node3</title>
<path fill="none" stroke="#63b8ff" d="M179.36,-16C171.25,-16 163.08,-16 155.08,-16"/>
<polygon fill="#63b8ff" stroke="#63b8ff" points="179.35,-19.5 189.35,-16 179.35,-12.5 179.35,-19.5"/>
</g>
</g>
</svg>
