<?xml version="1.0" encoding="UTF-8" standalone="no"?>
<!DOCTYPE svg PUBLIC "-//W3C//DTD SVG 1.1//EN"
 "http://www.w3.org/Graphics/SVG/1.1/DTD/svg11.dtd">
<!-- Generated by graphviz version 2.43.0 (0)
 -->
<!-- Title: HumanFactors.VisibilityGraph.NativeMethods.CreateVisibilityGraphAllToAllUndirected Pages: 1 -->
<svg width="665pt" height="50pt"
 viewBox="0.00 0.00 665.00 50.00" xmlns="http://www.w3.org/2000/svg" xmlns:xlink="http://www.w3.org/1999/xlink">
<g id="graph0" class="graph" transform="scale(1 1) rotate(0) translate(4 46)">
<title>HumanFactors.VisibilityGraph.NativeMethods.CreateVisibilityGraphAllToAllUndirected</title>
<polygon fill="white" stroke="transparent" points="-4,4 -4,-46 661,-46 661,4 -4,4"/>
<!-- Node1 -->
<g id="node1" class="node">
<title>Node1</title>
<g id="a_node1"><a xlink:title=" ">
<polygon fill="#bfbfbf" stroke="black" points="459,-0.5 459,-41.5 657,-41.5 657,-0.5 459,-0.5"/>
<text text-anchor="start" x="467" y="-29.5" font-family="Helvetica,sans-Serif" font-size="10.00">HumanFactors.VisibilityGraph.</text>
<text text-anchor="start" x="467" y="-18.5" font-family="Helvetica,sans-Serif" font-size="10.00">NativeMethods.CreateVisibilityGraph</text>
<text text-anchor="middle" x="558" y="-7.5" font-family="Helvetica,sans-Serif" font-size="10.00">AllToAllUndirected</text>
</a>
</g>
</g>
<!-- Node2 -->
<g id="node2" class="node">
<title>Node2</title>
<g id="a_node2"><a xlink:href="class_human_factors_1_1_visibility_graph_1_1_native_methods.html#a1d143831fb37b4a2195d70a94cb3d977" target="_top" xlink:title="Generate a visibility graph in C++.">
<polygon fill="white" stroke="black" points="209,-6 209,-36 423,-36 423,-6 209,-6"/>
<text text-anchor="start" x="217" y="-24" font-family="Helvetica,sans-Serif" font-size="10.00">HumanFactors.VisibilityGraph.</text>
<text text-anchor="middle" x="316" y="-13" font-family="Helvetica,sans-Serif" font-size="10.00">NativeMethods.C_AllToAllVisibilityGraph</text>
</a>
</g>
</g>
<!-- Node1&#45;&gt;Node2 -->
<g id="edge1" class="edge">
<title>Node1&#45;&gt;Node2</title>
<path fill="none" stroke="midnightblue" d="M448.53,-21C440.16,-21 431.71,-21 423.35,-21"/>
<polygon fill="midnightblue" stroke="midnightblue" points="448.69,-24.5 458.69,-21 448.69,-17.5 448.69,-24.5"/>
</g>
<!-- Node3 -->
<g id="node3" class="node">
<title>Node3</title>
<g id="a_node3"><a xlink:href="class_human_factors_1_1_visibility_graph_1_1_visibility_graph.html#a6b9e6d59435543aebc5a42beea7e916d" target="_top" xlink:title="Create a visibility graph from every node to every node in nodes.">
<polygon fill="white" stroke="black" points="0,-6 0,-36 173,-36 173,-6 0,-6"/>
<text text-anchor="start" x="8" y="-24" font-family="Helvetica,sans-Serif" font-size="10.00">HumanFactors.VisibilityGraph.</text>
<text text-anchor="middle" x="86.5" y="-13" font-family="Helvetica,sans-Serif" font-size="10.00">VisibilityGraph.GenerateAllToAll</text>
</a>
</g>
</g>
<!-- Node2&#45;&gt;Node3 -->
<g id="edge2" class="edge">
<title>Node2&#45;&gt;Node3</title>
<path fill="none" stroke="midnightblue" d="M198.83,-21C190.24,-21 181.66,-21 173.3,-21"/>
<polygon fill="midnightblue" stroke="midnightblue" points="198.91,-24.5 208.91,-21 198.91,-17.5 198.91,-24.5"/>
</g>
</g>
</svg>
