<?xml version="1.0" encoding="UTF-8" standalone="no"?>
<!DOCTYPE svg PUBLIC "-//W3C//DTD SVG 1.1//EN"
 "http://www.w3.org/Graphics/SVG/1.1/DTD/svg11.dtd">
<!-- Generated by graphviz version 5.0.0 (20220707.1540)
 -->
<!-- Title: DHARTAPI.ViewAnalysis.NativeMethods.SphereicalViewAnalysisAggregateFlat Pages: 1 -->
<svg width="434pt" height="50pt"
 viewBox="0.00 0.00 434.00 50.00" xmlns="http://www.w3.org/2000/svg" xmlns:xlink="http://www.w3.org/1999/xlink">
<g id="graph0" class="graph" transform="scale(1 1) rotate(0) translate(4 46)">
<title>DHARTAPI.ViewAnalysis.NativeMethods.SphereicalViewAnalysisAggregateFlat</title>
<polygon fill="white" stroke="transparent" points="-4,4 -4,-46 430,-46 430,4 -4,4"/>
<!-- Node1 -->
<g id="node1" class="node">
<title>Node1</title>
<g id="a_node1"><a xlink:title=" ">
<polygon fill="#bfbfbf" stroke="black" points="204,-6 204,-36 426,-36 426,-6 204,-6"/>
<text text-anchor="start" x="212" y="-24" font-family="Helvetica,sans-Serif" font-size="10.00">DHARTAPI.ViewAnalysis.Native</text>
<text text-anchor="middle" x="315" y="-13" font-family="Helvetica,sans-Serif" font-size="10.00">Methods.SphereicalViewAnalysisAggregateFlat</text>
</a>
</g>
</g>
<!-- Node2 -->
<g id="node2" class="node">
<title>Node2</title>
<g id="a_node2"><a xlink:href="class_d_h_a_r_t_a_p_i_1_1_view_analysis_1_1_native_methods.html#ab7f6b79f6dd8af643156fd062aa69116" target="_top" xlink:title="Conduct view analysis and aggregate the results for each node.">
<polygon fill="white" stroke="black" points="0,-0.5 0,-41.5 168,-41.5 168,-0.5 0,-0.5"/>
<text text-anchor="start" x="8" y="-29.5" font-family="Helvetica,sans-Serif" font-size="10.00">DHARTAPI.ViewAnalysis.Native</text>
<text text-anchor="start" x="8" y="-18.5" font-family="Helvetica,sans-Serif" font-size="10.00">Methods.C_SphericalViewAnalysis</text>
<text text-anchor="middle" x="84" y="-7.5" font-family="Helvetica,sans-Serif" font-size="10.00">Aggregate</text>
</a>
</g>
</g>
<!-- Node1&#45;&gt;Node2 -->
<g id="edge1" class="edge">
<title>Node1&#45;&gt;Node2</title>
<path fill="none" stroke="midnightblue" d="M193.71,-21C185.06,-21 176.46,-21 168.11,-21"/>
<polygon fill="midnightblue" stroke="midnightblue" points="193.86,-24.5 203.86,-21 193.86,-17.5 193.86,-24.5"/>
</g>
</g>
</svg>
