<?xml version="1.0" encoding="UTF-8" standalone="no"?>
<!DOCTYPE svg PUBLIC "-//W3C//DTD SVG 1.1//EN"
 "http://www.w3.org/Graphics/SVG/1.1/DTD/svg11.dtd">
<!-- Generated by graphviz version 2.43.0 (0)
 -->
<!-- Title: HumanFactors.RayTracing.EmbreeBVH.AddMesh Pages: 1 -->
<svg width="351pt" height="137pt"
 viewBox="0.00 0.00 351.00 137.00" xmlns="http://www.w3.org/2000/svg" xmlns:xlink="http://www.w3.org/1999/xlink">
<g id="graph0" class="graph" transform="scale(1 1) rotate(0) translate(4 133)">
<title>HumanFactors.RayTracing.EmbreeBVH.AddMesh</title>
<polygon fill="white" stroke="transparent" points="-4,4 -4,-133 347,-133 347,4 -4,4"/>
<!-- Node1 -->
<g id="node1" class="node">
<title>Node1</title>
<g id="a_node1"><a xlink:title="Multiple new meshes to the BVH.">
<polygon fill="#bfbfbf" stroke="black" points="0,-49.5 0,-79.5 146,-79.5 146,-49.5 0,-49.5"/>
<text text-anchor="start" x="8" y="-67.5" font-family="Helvetica,sans-Serif" font-size="10.00">HumanFactors.RayTracing.</text>
<text text-anchor="middle" x="73" y="-56.5" font-family="Helvetica,sans-Serif" font-size="10.00">EmbreeBVH.AddMesh</text>
</a>
</g>
</g>
<!-- Node2 -->
<g id="node2" class="node">
<title>Node2</title>
<g id="a_node2"><a xlink:href="class_human_factors_1_1_ray_tracing_1_1_native_methods.html#afccba3761364c8aa7fa62111482c0201" target="_top" xlink:title=" ">
<polygon fill="white" stroke="black" points="187,-98.5 187,-128.5 338,-128.5 338,-98.5 187,-98.5"/>
<text text-anchor="start" x="195" y="-116.5" font-family="Helvetica,sans-Serif" font-size="10.00">HumanFactors.RayTracing.</text>
<text text-anchor="middle" x="262.5" y="-105.5" font-family="Helvetica,sans-Serif" font-size="10.00">NativeMethods.C_AddMesh</text>
</a>
</g>
</g>
<!-- Node1&#45;&gt;Node2 -->
<g id="edge1" class="edge">
<title>Node1&#45;&gt;Node2</title>
<path fill="none" stroke="midnightblue" d="M131.53,-79.53C151.33,-84.71 173.67,-90.55 194.18,-95.91"/>
<polygon fill="midnightblue" stroke="midnightblue" points="193.52,-99.35 204.08,-98.49 195.29,-92.58 193.52,-99.35"/>
</g>
<!-- Node3 -->
<g id="node3" class="node">
<title>Node3</title>
<g id="a_node3"><a xlink:href="class_human_factors_1_1_ray_tracing_1_1_embree_b_v_h.html#a3a5f209d1d97926afa48dfff31b09933" target="_top" xlink:title="Gets the pointer of every meshinfo in an array of meshinfo.">
<polygon fill="white" stroke="black" points="183.5,-49.5 183.5,-79.5 341.5,-79.5 341.5,-49.5 183.5,-49.5"/>
<text text-anchor="start" x="191.5" y="-67.5" font-family="Helvetica,sans-Serif" font-size="10.00">HumanFactors.RayTracing.</text>
<text text-anchor="middle" x="262.5" y="-56.5" font-family="Helvetica,sans-Serif" font-size="10.00">EmbreeBVH.getMeshInfoPtrs</text>
</a>
</g>
</g>
<!-- Node1&#45;&gt;Node3 -->
<g id="edge2" class="edge">
<title>Node1&#45;&gt;Node3</title>
<path fill="none" stroke="midnightblue" d="M146.22,-64.5C155.07,-64.5 164.18,-64.5 173.23,-64.5"/>
<polygon fill="midnightblue" stroke="midnightblue" points="173.4,-68 183.4,-64.5 173.4,-61 173.4,-68"/>
</g>
<!-- Node4 -->
<g id="node4" class="node">
<title>Node4</title>
<g id="a_node4"><a xlink:href="class_human_factors_1_1_native_utils_1_1_native_object.html#a39dc264c3bdfaf23655dc2c6b0970609" target="_top" xlink:title="Update the pressure of this object.">
<polygon fill="white" stroke="black" points="182,-0.5 182,-30.5 343,-30.5 343,-0.5 182,-0.5"/>
<text text-anchor="start" x="190" y="-18.5" font-family="Helvetica,sans-Serif" font-size="10.00">HumanFactors.NativeUtils.</text>
<text text-anchor="middle" x="262.5" y="-7.5" font-family="Helvetica,sans-Serif" font-size="10.00">NativeObject.UpdatePressure</text>
</a>
</g>
</g>
<!-- Node1&#45;&gt;Node4 -->
<g id="edge3" class="edge">
<title>Node1&#45;&gt;Node4</title>
<path fill="none" stroke="midnightblue" d="M131.53,-49.47C151.33,-44.29 173.67,-38.45 194.18,-33.09"/>
<polygon fill="midnightblue" stroke="midnightblue" points="195.29,-36.42 204.08,-30.51 193.52,-29.65 195.29,-36.42"/>
</g>
</g>
</svg>
