<?xml version="1.0" encoding="UTF-8" standalone="no"?>
<!DOCTYPE svg PUBLIC "-//W3C//DTD SVG 1.1//EN"
 "http://www.w3.org/Graphics/SVG/1.1/DTD/svg11.dtd">
<!-- Generated by graphviz version 8.0.5 (20230430.1635)
 -->
<!-- Title: DHARTAPI.VisibilityGraph.VisibilityGraph.GenerateGroupToGroup Pages: 1 -->
<svg width="634pt" height="102pt"
 viewBox="0.00 0.00 633.50 102.00" xmlns="http://www.w3.org/2000/svg" xmlns:xlink="http://www.w3.org/1999/xlink">
<g id="graph0" class="graph" transform="scale(1 1) rotate(0) translate(4 98)">
<title>DHARTAPI.VisibilityGraph.VisibilityGraph.GenerateGroupToGroup</title>
<!-- Node1 -->
<g id="node1" class="node">
<title>Node1</title>
<g id="a_node1"><a xlink:title="Generate a directed visibility graph from nodes in group_a to the nodes in group_b.">
<polygon fill="#999999" stroke="#666666" points="184.75,-60 0,-60 0,-28 184.75,-28 184.75,-60"/>
<text text-anchor="start" x="8" y="-46.5" font-family="Helvetica,sans-Serif" font-size="10.00">DHARTAPI.VisibilityGraph.</text>
<text text-anchor="middle" x="92.38" y="-34.5" font-family="Helvetica,sans-Serif" font-size="10.00">VisibilityGraph.GenerateGroupToGroup</text>
</a>
</g>
</g>
<!-- Node2 -->
<g id="node2" class="node">
<title>Node2</title>
<g id="a_node2"><a xlink:href="class_d_h_a_r_t_a_p_i_1_1_visibility_graph_1_1_native_methods.html#a11e756fec10d67be7d1604e94d932926" target="_top" xlink:title="Generate a directed visibility graph from nodes in group_a to the nodes in group_b.">
<polygon fill="white" stroke="#666666" points="441.5,-60 220.75,-60 220.75,-28 441.5,-28 441.5,-60"/>
<text text-anchor="start" x="228.75" y="-46.5" font-family="Helvetica,sans-Serif" font-size="10.00">DHARTAPI.VisibilityGraph.</text>
<text text-anchor="middle" x="331.13" y="-34.5" font-family="Helvetica,sans-Serif" font-size="10.00">NativeMethods.C_GroupToGroupVisibilityGraph</text>
</a>
</g>
</g>
<!-- Node1&#45;&gt;Node2 -->
<g id="edge1" class="edge">
<title>Node1&#45;&gt;Node2</title>
<path fill="none" stroke="#63b8ff" d="M185.25,-44C193.29,-44 201.51,-44 209.73,-44"/>
<polygon fill="#63b8ff" stroke="#63b8ff" points="209.55,-47.5 219.55,-44 209.55,-40.5 209.55,-47.5"/>
</g>
<!-- Node3 -->
<g id="node3" class="node">
<title>Node3</title>
<g id="a_node3"><a xlink:href="class_d_h_a_r_t_a_p_i_1_1_visibility_graph_1_1_native_methods.html#aed1fbac372cde37e970b1ab0e2b46db2" target="_top" xlink:title=" ">
<polygon fill="white" stroke="#666666" points="625.5,-94 477.5,-94 477.5,-50 625.5,-50 625.5,-94"/>
<text text-anchor="start" x="485.5" y="-80.5" font-family="Helvetica,sans-Serif" font-size="10.00">DHARTAPI.VisibilityGraph.</text>
<text text-anchor="start" x="485.5" y="-68.5" font-family="Helvetica,sans-Serif" font-size="10.00">NativeMethods.CreateVisibility</text>
<text text-anchor="middle" x="551.5" y="-56.5" font-family="Helvetica,sans-Serif" font-size="10.00">GraphGroupToGroup</text>
</a>
</g>
</g>
<!-- Node2&#45;&gt;Node3 -->
<g id="edge2" class="edge">
<title>Node2&#45;&gt;Node3</title>
<path fill="none" stroke="#63b8ff" d="M441.95,-58.08C450.13,-59.13 458.3,-60.18 466.29,-61.2"/>
<polygon fill="#63b8ff" stroke="#63b8ff" points="465.68,-64.78 476.04,-62.58 466.57,-57.84 465.68,-64.78"/>
</g>
<!-- Node4 -->
<g id="node4" class="node">
<title>Node4</title>
<g id="a_node4"><a xlink:href="class_d_h_a_r_t_a_p_i_1_1_native_utils_1_1_helper_functions.html#a25819207027d373e010839e97ee002d1" target="_top" xlink:title="Convert a vector array into an array of floats. Slower than passing a Vector3D array.">
<polygon fill="white" stroke="#666666" points="623.25,-32 479.75,-32 479.75,0 623.25,0 623.25,-32"/>
<text text-anchor="start" x="487.75" y="-18.5" font-family="Helvetica,sans-Serif" font-size="10.00">DHARTAPI.NativeUtils.Helper</text>
<text text-anchor="middle" x="551.5" y="-6.5" font-family="Helvetica,sans-Serif" font-size="10.00">Functions.FlattenVectorArray</text>
</a>
</g>
</g>
<!-- Node2&#45;&gt;Node4 -->
<g id="edge3" class="edge">
<title>Node2&#45;&gt;Node4</title>
<path fill="none" stroke="#63b8ff" d="M441.95,-29.92C450.91,-28.77 459.87,-27.62 468.58,-26.5"/>
<polygon fill="#63b8ff" stroke="#63b8ff" points="468.98,-29.85 478.46,-25.11 468.09,-22.91 468.98,-29.85"/>
</g>
</g>
</svg>
