<?xml version="1.0" encoding="UTF-8" standalone="no"?>
<!DOCTYPE svg PUBLIC "-//W3C//DTD SVG 1.1//EN"
 "http://www.w3.org/Graphics/SVG/1.1/DTD/svg11.dtd">
<!-- Generated by graphviz version 8.0.5 (20230430.1635)
 -->
<!-- Title: DHARTAPI.RayTracing.EmbreeBVH.AddMesh Pages: 1 -->
<svg width="349pt" height="140pt"
 viewBox="0.00 0.00 349.00 140.00" xmlns="http://www.w3.org/2000/svg" xmlns:xlink="http://www.w3.org/1999/xlink">
<g id="graph0" class="graph" transform="scale(1 1) rotate(0) translate(4 136)">
<title>DHARTAPI.RayTracing.EmbreeBVH.AddMesh</title>
<!-- Node1 -->
<g id="node1" class="node">
<title>Node1</title>
<g id="a_node1"><a xlink:title="Multiple new meshes to the BVH.">
<polygon fill="#999999" stroke="#666666" points="152.5,-82 0,-82 0,-50 152.5,-50 152.5,-82"/>
<text text-anchor="start" x="8" y="-68.5" font-family="Helvetica,sans-Serif" font-size="10.00">DHARTAPI.RayTracing.Embree</text>
<text text-anchor="middle" x="76.25" y="-56.5" font-family="Helvetica,sans-Serif" font-size="10.00">BVH.AddMesh</text>
</a>
</g>
</g>
<!-- Node2 -->
<g id="node2" class="node">
<title>Node2</title>
<g id="a_node2"><a xlink:href="class_d_h_a_r_t_a_p_i_1_1_ray_tracing_1_1_native_methods.html#af57f54013a7a4b0d2bcf240e2aded5d2" target="_top" xlink:title=" ">
<polygon fill="white" stroke="#666666" points="337.25,-132 192.25,-132 192.25,-100 337.25,-100 337.25,-132"/>
<text text-anchor="start" x="200.25" y="-118.5" font-family="Helvetica,sans-Serif" font-size="10.00">DHARTAPI.RayTracing.Native</text>
<text text-anchor="middle" x="264.75" y="-106.5" font-family="Helvetica,sans-Serif" font-size="10.00">Methods.C_AddMesh</text>
</a>
</g>
</g>
<!-- Node1&#45;&gt;Node2 -->
<g id="edge1" class="edge">
<title>Node1&#45;&gt;Node2</title>
<path fill="none" stroke="#63b8ff" d="M138.58,-82.44C155.7,-87.03 174.47,-92.06 192.13,-96.8"/>
<polygon fill="#63b8ff" stroke="#63b8ff" points="190.82,-100.34 201.39,-99.55 192.64,-93.58 190.82,-100.34"/>
</g>
<!-- Node3 -->
<g id="node3" class="node">
<title>Node3</title>
<g id="a_node3"><a xlink:href="class_d_h_a_r_t_a_p_i_1_1_ray_tracing_1_1_embree_b_v_h.html#ab4ed958a3cf5b8255fa44661fad59405" target="_top" xlink:title="Gets the pointer of every meshinfo in an array of meshinfo.">
<polygon fill="white" stroke="#666666" points="341,-82 188.5,-82 188.5,-50 341,-50 341,-82"/>
<text text-anchor="start" x="196.5" y="-68.5" font-family="Helvetica,sans-Serif" font-size="10.00">DHARTAPI.RayTracing.Embree</text>
<text text-anchor="middle" x="264.75" y="-56.5" font-family="Helvetica,sans-Serif" font-size="10.00">BVH.getMeshInfoPtrs</text>
</a>
</g>
</g>
<!-- Node1&#45;&gt;Node3 -->
<g id="edge2" class="edge">
<title>Node1&#45;&gt;Node3</title>
<path fill="none" stroke="#63b8ff" d="M152.84,-66C160.82,-66 168.98,-66 177.08,-66"/>
<polygon fill="#63b8ff" stroke="#63b8ff" points="177.05,-69.5 187.05,-66 177.05,-62.5 177.05,-69.5"/>
</g>
<!-- Node4 -->
<g id="node4" class="node">
<title>Node4</title>
<g id="a_node4"><a xlink:href="class_d_h_a_r_t_a_p_i_1_1_native_utils_1_1_native_object.html#ab63e715d5db528edc64b3aa5233f750c" target="_top" xlink:title="Update the pressure of this object.">
<polygon fill="white" stroke="#666666" points="335.75,-32 193.75,-32 193.75,0 335.75,0 335.75,-32"/>
<text text-anchor="start" x="201.75" y="-18.5" font-family="Helvetica,sans-Serif" font-size="10.00">DHARTAPI.NativeUtils.Native</text>
<text text-anchor="middle" x="264.75" y="-6.5" font-family="Helvetica,sans-Serif" font-size="10.00">Object.UpdatePressure</text>
</a>
</g>
</g>
<!-- Node1&#45;&gt;Node4 -->
<g id="edge3" class="edge">
<title>Node1&#45;&gt;Node4</title>
<path fill="none" stroke="#63b8ff" d="M138.58,-49.56C155.7,-44.97 174.47,-39.94 192.13,-35.2"/>
<polygon fill="#63b8ff" stroke="#63b8ff" points="192.64,-38.42 201.39,-32.45 190.82,-31.66 192.64,-38.42"/>
</g>
</g>
</svg>
