<?xml version="1.0" encoding="UTF-8" standalone="no"?>
<!DOCTYPE svg PUBLIC "-//W3C//DTD SVG 1.1//EN"
 "http://www.w3.org/Graphics/SVG/1.1/DTD/svg11.dtd">
<!-- Generated by graphviz version 4.0.0 (20220529.0937)
 -->
<!-- Title: DHARTAPI.RayTracing.EmbreeBVH.AddMesh Pages: 1 -->
<svg width="705pt" height="173pt"
 viewBox="0.00 0.00 705.00 173.00" xmlns="http://www.w3.org/2000/svg" xmlns:xlink="http://www.w3.org/1999/xlink">
<g id="graph0" class="graph" transform="scale(1 1) rotate(0) translate(4 169)">
<title>DHARTAPI.RayTracing.EmbreeBVH.AddMesh</title>
<polygon fill="white" stroke="transparent" points="-4,4 -4,-169 701,-169 701,4 -4,4"/>
<!-- Node1 -->
<g id="node1" class="node">
<title>Node1</title>
<g id="a_node1"><a xlink:title="Add a new mesh to the BVH.">
<polygon fill="#bfbfbf" stroke="black" points="0,-67.5 0,-97.5 153,-97.5 153,-67.5 0,-67.5"/>
<text text-anchor="start" x="8" y="-85.5" font-family="Helvetica,sans-Serif" font-size="10.00">DHARTAPI.RayTracing.Embree</text>
<text text-anchor="middle" x="76.5" y="-74.5" font-family="Helvetica,sans-Serif" font-size="10.00">BVH.AddMesh</text>
</a>
</g>
</g>
<!-- Node2 -->
<g id="node2" class="node">
<title>Node2</title>
<g id="a_node2"><a xlink:href="class_d_h_a_r_t_a_p_i_1_1_ray_tracing_1_1_native_methods.html#af57f54013a7a4b0d2bcf240e2aded5d2" target="_top" xlink:title=" ">
<polygon fill="white" stroke="black" points="193.5,-116.5 193.5,-146.5 339.5,-146.5 339.5,-116.5 193.5,-116.5"/>
<text text-anchor="start" x="201.5" y="-134.5" font-family="Helvetica,sans-Serif" font-size="10.00">DHARTAPI.RayTracing.Native</text>
<text text-anchor="middle" x="266.5" y="-123.5" font-family="Helvetica,sans-Serif" font-size="10.00">Methods.C_AddMesh</text>
</a>
</g>
</g>
<!-- Node1&#45;&gt;Node2 -->
<g id="edge1" class="edge">
<title>Node1&#45;&gt;Node2</title>
<path fill="none" stroke="midnightblue" d="M135.18,-97.53C155.03,-102.71 177.44,-108.55 198,-113.91"/>
<polygon fill="midnightblue" stroke="midnightblue" points="197.37,-117.36 207.93,-116.49 199.13,-110.58 197.37,-117.36"/>
</g>
<!-- Node3 -->
<g id="node3" class="node">
<title>Node3</title>
<g id="a_node3"><a xlink:href="class_d_h_a_r_t_a_p_i_1_1_geometry_1_1_mesh_info.html#a0409ac3fbfba81d4d488c32defdf3655" target="_top" xlink:title="Updates this mesh&#39;s name, ID, and arrays with it&#39;s values from C++.">
<polygon fill="white" stroke="black" points="189,-67.5 189,-97.5 344,-97.5 344,-67.5 189,-67.5"/>
<text text-anchor="start" x="197" y="-85.5" font-family="Helvetica,sans-Serif" font-size="10.00">DHARTAPI.Geometry.MeshInfo.</text>
<text text-anchor="middle" x="266.5" y="-74.5" font-family="Helvetica,sans-Serif" font-size="10.00">UpdateIDNameAndArrays</text>
</a>
</g>
</g>
<!-- Node1&#45;&gt;Node3 -->
<g id="edge2" class="edge">
<title>Node1&#45;&gt;Node3</title>
<path fill="none" stroke="midnightblue" d="M153.15,-82.5C161.5,-82.5 170.04,-82.5 178.5,-82.5"/>
<polygon fill="midnightblue" stroke="midnightblue" points="178.78,-86 188.78,-82.5 178.78,-79 178.78,-86"/>
</g>
<!-- Node9 -->
<g id="node9" class="node">
<title>Node9</title>
<g id="a_node9"><a xlink:href="class_d_h_a_r_t_a_p_i_1_1_native_utils_1_1_native_object.html#ab63e715d5db528edc64b3aa5233f750c" target="_top" xlink:title="Update the pressure of this object.">
<polygon fill="white" stroke="black" points="195,-18.5 195,-48.5 338,-48.5 338,-18.5 195,-18.5"/>
<text text-anchor="start" x="203" y="-36.5" font-family="Helvetica,sans-Serif" font-size="10.00">DHARTAPI.NativeUtils.Native</text>
<text text-anchor="middle" x="266.5" y="-25.5" font-family="Helvetica,sans-Serif" font-size="10.00">Object.UpdatePressure</text>
</a>
</g>
</g>
<!-- Node1&#45;&gt;Node9 -->
<g id="edge10" class="edge">
<title>Node1&#45;&gt;Node9</title>
<path fill="none" stroke="midnightblue" d="M135.18,-67.47C155.03,-62.29 177.44,-56.45 198,-51.09"/>
<polygon fill="midnightblue" stroke="midnightblue" points="199.13,-54.42 207.93,-48.51 197.37,-47.64 199.13,-54.42"/>
</g>
<!-- Node4 -->
<g id="node4" class="node">
<title>Node4</title>
<g id="a_node4"><a xlink:href="class_d_h_a_r_t_a_p_i_1_1_geometry_1_1_native_methods.html#a8267d494ee36917f65146966a585793a" target="_top" xlink:title="Get pointers to the vertex and index arrays of a mesh in C++.">
<polygon fill="white" stroke="black" points="380,-134.5 380,-164.5 521,-164.5 521,-134.5 380,-134.5"/>
<text text-anchor="start" x="388" y="-152.5" font-family="Helvetica,sans-Serif" font-size="10.00">DHARTAPI.Geometry.Native</text>
<text text-anchor="middle" x="450.5" y="-141.5" font-family="Helvetica,sans-Serif" font-size="10.00">Methods.C_GetTrisAndVerts</text>
</a>
</g>
</g>
<!-- Node3&#45;&gt;Node4 -->
<g id="edge3" class="edge">
<title>Node3&#45;&gt;Node4</title>
<path fill="none" stroke="midnightblue" d="M317.27,-97.58C326.25,-100.64 335.47,-104 344,-107.5 360.55,-114.3 363.51,-118.57 380,-125.5 384.4,-127.35 389,-129.17 393.65,-130.94"/>
<polygon fill="midnightblue" stroke="midnightblue" points="392.6,-134.28 403.2,-134.46 395.03,-127.71 392.6,-134.28"/>
</g>
<!-- Node6 -->
<g id="node6" class="node">
<title>Node6</title>
<g id="a_node6"><a xlink:href="class_d_h_a_r_t_a_p_i_1_1_geometry_1_1_native_methods.html#afa9349278d57b0497f92edb3dff2c152" target="_top" xlink:title="Get the ID of an instance of MeshInfo in c++.">
<polygon fill="white" stroke="black" points="380.5,-67.5 380.5,-97.5 520.5,-97.5 520.5,-67.5 380.5,-67.5"/>
<text text-anchor="start" x="388.5" y="-85.5" font-family="Helvetica,sans-Serif" font-size="10.00">DHARTAPI.Geometry.Native</text>
<text text-anchor="middle" x="450.5" y="-74.5" font-family="Helvetica,sans-Serif" font-size="10.00">Methods.GetMeshID</text>
</a>
</g>
</g>
<!-- Node3&#45;&gt;Node6 -->
<g id="edge5" class="edge">
<title>Node3&#45;&gt;Node6</title>
<path fill="none" stroke="midnightblue" d="M344.16,-82.5C352.82,-82.5 361.65,-82.5 370.34,-82.5"/>
<polygon fill="midnightblue" stroke="midnightblue" points="370.45,-86 380.45,-82.5 370.45,-79 370.45,-86"/>
</g>
<!-- Node7 -->
<g id="node7" class="node">
<title>Node7</title>
<g id="a_node7"><a xlink:href="class_d_h_a_r_t_a_p_i_1_1_geometry_1_1_native_methods.html#a1fe911a338ef131e97f4be6feb506615" target="_top" xlink:title="Get the name of an instance of MeshInfo in c++.">
<polygon fill="white" stroke="black" points="380.5,-0.5 380.5,-30.5 520.5,-30.5 520.5,-0.5 380.5,-0.5"/>
<text text-anchor="start" x="388.5" y="-18.5" font-family="Helvetica,sans-Serif" font-size="10.00">DHARTAPI.Geometry.Native</text>
<text text-anchor="middle" x="450.5" y="-7.5" font-family="Helvetica,sans-Serif" font-size="10.00">Methods.GetMeshName</text>
</a>
</g>
</g>
<!-- Node3&#45;&gt;Node7 -->
<g id="edge7" class="edge">
<title>Node3&#45;&gt;Node7</title>
<path fill="none" stroke="midnightblue" d="M317.49,-67.47C326.37,-64.62 335.49,-61.56 344,-58.5 364.28,-51.2 386.42,-42.32 405.16,-34.53"/>
<polygon fill="midnightblue" stroke="midnightblue" points="406.74,-37.66 414.62,-30.57 404.04,-31.2 406.74,-37.66"/>
</g>
<!-- Node5 -->
<g id="node5" class="node">
<title>Node5</title>
<g id="a_node5"><a xlink:href="class_d_h_a_r_t_a_p_i_1_1_geometry_1_1_native_methods.html#abbb9461128f297e7b82417a549a056e9" target="_top" xlink:title=" ">
<polygon fill="white" stroke="black" points="557,-134.5 557,-164.5 697,-164.5 697,-134.5 557,-134.5"/>
<text text-anchor="start" x="565" y="-152.5" font-family="Helvetica,sans-Serif" font-size="10.00">DHARTAPI.Geometry.Native</text>
<text text-anchor="middle" x="627" y="-141.5" font-family="Helvetica,sans-Serif" font-size="10.00">Methods.GetVertsAndTris</text>
</a>
</g>
</g>
<!-- Node4&#45;&gt;Node5 -->
<g id="edge4" class="edge">
<title>Node4&#45;&gt;Node5</title>
<path fill="none" stroke="midnightblue" d="M521.22,-149.5C529.68,-149.5 538.37,-149.5 546.95,-149.5"/>
<polygon fill="midnightblue" stroke="midnightblue" points="546.96,-153 556.96,-149.5 546.96,-146 546.96,-153"/>
</g>
<!-- Node6&#45;&gt;Node6 -->
<g id="edge6" class="edge">
<title>Node6&#45;&gt;Node6</title>
<path fill="none" stroke="midnightblue" d="M419.83,-97.66C412.43,-107.06 422.66,-116 450.5,-116 467.47,-116 477.89,-112.68 481.77,-107.96"/>
<polygon fill="midnightblue" stroke="midnightblue" points="485.25,-107.44 481.17,-97.66 478.26,-107.85 485.25,-107.44"/>
</g>
<!-- Node7&#45;&gt;Node7 -->
<g id="edge9" class="edge">
<title>Node7&#45;&gt;Node7</title>
<path fill="none" stroke="midnightblue" d="M419.83,-30.66C412.43,-40.06 422.66,-49 450.5,-49 467.47,-49 477.89,-45.68 481.77,-40.96"/>
<polygon fill="midnightblue" stroke="midnightblue" points="485.25,-40.44 481.17,-30.66 478.26,-40.85 485.25,-40.44"/>
</g>
<!-- Node8 -->
<g id="node8" class="node">
<title>Node8</title>
<g id="a_node8"><a xlink:href="class_d_h_a_r_t_a_p_i_1_1_geometry_1_1_native_methods.html#a2d22148d6821031e97d7305df6e9fde0" target="_top" xlink:title=" ">
<polygon fill="white" stroke="black" points="557,-0.5 557,-30.5 697,-30.5 697,-0.5 557,-0.5"/>
<text text-anchor="start" x="565" y="-18.5" font-family="Helvetica,sans-Serif" font-size="10.00">DHARTAPI.Geometry.Native</text>
<text text-anchor="middle" x="627" y="-7.5" font-family="Helvetica,sans-Serif" font-size="10.00">Methods.DestroyCharArray</text>
</a>
</g>
</g>
<!-- Node7&#45;&gt;Node8 -->
<g id="edge8" class="edge">
<title>Node7&#45;&gt;Node8</title>
<path fill="none" stroke="midnightblue" d="M520.72,-15.5C529.27,-15.5 538.06,-15.5 546.74,-15.5"/>
<polygon fill="midnightblue" stroke="midnightblue" points="546.87,-19 556.87,-15.5 546.87,-12 546.87,-19"/>
</g>
</g>
</svg>
