<?xml version="1.0" encoding="UTF-8" standalone="no"?>
<!DOCTYPE svg PUBLIC "-//W3C//DTD SVG 1.1//EN"
 "http://www.w3.org/Graphics/SVG/1.1/DTD/svg11.dtd">
<!-- Generated by graphviz version 8.0.5 (20230430.1635)
 -->
<!-- Title: DHARTAPI.NativeUtils.NativeObject.UpdatePressure Pages: 1 -->
<svg width="341pt" height="140pt"
 viewBox="0.00 0.00 340.75 140.00" xmlns="http://www.w3.org/2000/svg" xmlns:xlink="http://www.w3.org/1999/xlink">
<g id="graph0" class="graph" transform="scale(1 1) rotate(0) translate(4 136)">
<title>DHARTAPI.NativeUtils.NativeObject.UpdatePressure</title>
<!-- Node1 -->
<g id="node1" class="node">
<title>Node1</title>
<g id="a_node1"><a xlink:title="Update the pressure of this object.">
<polygon fill="#999999" stroke="#666666" points="332.75,-82 190.75,-82 190.75,-50 332.75,-50 332.75,-82"/>
<text text-anchor="start" x="198.75" y="-68.5" font-family="Helvetica,sans-Serif" font-size="10.00">DHARTAPI.NativeUtils.Native</text>
<text text-anchor="middle" x="261.75" y="-56.5" font-family="Helvetica,sans-Serif" font-size="10.00">Object.UpdatePressure</text>
</a>
</g>
</g>
<!-- Node2 -->
<g id="node2" class="node">
<title>Node2</title>
<g id="a_node2"><a xlink:href="class_d_h_a_r_t_a_p_i_1_1_ray_tracing_1_1_embree_b_v_h.html#ae786d49adc0969b147bfcfa67fe17c50" target="_top" xlink:title="Add a new mesh to the BVH.">
<polygon fill="white" stroke="#666666" points="153.63,-132 1.13,-132 1.13,-100 153.63,-100 153.63,-132"/>
<text text-anchor="start" x="9.13" y="-118.5" font-family="Helvetica,sans-Serif" font-size="10.00">DHARTAPI.RayTracing.Embree</text>
<text text-anchor="middle" x="77.38" y="-106.5" font-family="Helvetica,sans-Serif" font-size="10.00">BVH.AddMesh</text>
</a>
</g>
</g>
<!-- Node1&#45;&gt;Node2 -->
<g id="edge1" class="edge">
<title>Node1&#45;&gt;Node2</title>
<path fill="none" stroke="#63b8ff" d="M190.27,-85.32C173.14,-90.02 154.98,-95 138.38,-99.55"/>
<polygon fill="#63b8ff" stroke="#63b8ff" points="191.06,-88.46 199.78,-82.44 189.21,-81.71 191.06,-88.46"/>
</g>
<!-- Node3 -->
<g id="node3" class="node">
<title>Node3</title>
<g id="a_node3"><a xlink:href="class_d_h_a_r_t_a_p_i_1_1_ray_tracing_1_1_embree_b_v_h.html#aab9bb7cded6aff8e5ebb7d1fc19c7e08" target="_top" xlink:title="Construct a BVH from an array of meshes.">
<polygon fill="white" stroke="#666666" points="153.63,-82 1.13,-82 1.13,-50 153.63,-50 153.63,-82"/>
<text text-anchor="start" x="9.13" y="-68.5" font-family="Helvetica,sans-Serif" font-size="10.00">DHARTAPI.RayTracing.Embree</text>
<text text-anchor="middle" x="77.38" y="-56.5" font-family="Helvetica,sans-Serif" font-size="10.00">BVH.EmbreeBVH</text>
</a>
</g>
</g>
<!-- Node1&#45;&gt;Node3 -->
<g id="edge2" class="edge">
<title>Node1&#45;&gt;Node3</title>
<path fill="none" stroke="#63b8ff" d="M179.75,-66C171.2,-66 162.53,-66 154.04,-66"/>
<polygon fill="#63b8ff" stroke="#63b8ff" points="179.5,-69.5 189.5,-66 179.5,-62.5 179.5,-69.5"/>
</g>
<!-- Node4 -->
<g id="node4" class="node">
<title>Node4</title>
<g id="a_node4"><a xlink:href="class_d_h_a_r_t_a_p_i_1_1_geometry_1_1_mesh_info.html#a95eab7157f13f269f8ed443d2dba42f6" target="_top" xlink:title="Create a new meshinfo instance from the given pointer.">
<polygon fill="white" stroke="#666666" points="154.75,-32 0,-32 0,0 154.75,0 154.75,-32"/>
<text text-anchor="start" x="8" y="-18.5" font-family="Helvetica,sans-Serif" font-size="10.00">DHARTAPI.Geometry.MeshInfo.</text>
<text text-anchor="middle" x="77.38" y="-6.5" font-family="Helvetica,sans-Serif" font-size="10.00">MeshInfo</text>
</a>
</g>
</g>
<!-- Node1&#45;&gt;Node4 -->
<g id="edge3" class="edge">
<title>Node1&#45;&gt;Node4</title>
<path fill="none" stroke="#63b8ff" d="M190.27,-46.68C173.14,-41.98 154.98,-37 138.38,-32.45"/>
<polygon fill="#63b8ff" stroke="#63b8ff" points="189.21,-50.29 199.78,-49.56 191.06,-43.54 189.21,-50.29"/>
</g>
</g>
</svg>
