<?xml version="1.0" encoding="UTF-8" standalone="no"?>
<!DOCTYPE svg PUBLIC "-//W3C//DTD SVG 1.1//EN"
 "http://www.w3.org/Graphics/SVG/1.1/DTD/svg11.dtd">
<!-- Generated by graphviz version 5.0.0 (20220707.1540)
 -->
<!-- Title: DHARTAPI.ViewAnalysis.NativeMethods.C_SphericalViewAnalysisAggregate Pages: 1 -->
<svg width="434pt" height="88pt"
 viewBox="0.00 0.00 434.00 88.00" xmlns="http://www.w3.org/2000/svg" xmlns:xlink="http://www.w3.org/1999/xlink">
<g id="graph0" class="graph" transform="scale(1 1) rotate(0) translate(4 84)">
<title>DHARTAPI.ViewAnalysis.NativeMethods.C_SphericalViewAnalysisAggregate</title>
<polygon fill="white" stroke="transparent" points="-4,4 -4,-84 430,-84 430,4 -4,4"/>
<!-- Node1 -->
<g id="node1" class="node">
<title>Node1</title>
<g id="a_node1"><a xlink:title="Conduct view analysis and aggregate the results for each node.">
<polygon fill="#bfbfbf" stroke="black" points="0,-19 0,-60 168,-60 168,-19 0,-19"/>
<text text-anchor="start" x="8" y="-48" font-family="Helvetica,sans-Serif" font-size="10.00">DHARTAPI.ViewAnalysis.Native</text>
<text text-anchor="start" x="8" y="-37" font-family="Helvetica,sans-Serif" font-size="10.00">Methods.C_SphericalViewAnalysis</text>
<text text-anchor="middle" x="84" y="-26" font-family="Helvetica,sans-Serif" font-size="10.00">Aggregate</text>
</a>
</g>
</g>
<!-- Node2 -->
<g id="node2" class="node">
<title>Node2</title>
<g id="a_node2"><a xlink:href="class_d_h_a_r_t_a_p_i_1_1_native_utils_1_1_helper_functions.html#a25819207027d373e010839e97ee002d1" target="_top" xlink:title="Convert a vector array into an array of floats.">
<polygon fill="white" stroke="black" points="243,-49.5 243,-79.5 387,-79.5 387,-49.5 243,-49.5"/>
<text text-anchor="start" x="251" y="-67.5" font-family="Helvetica,sans-Serif" font-size="10.00">DHARTAPI.NativeUtils.Helper</text>
<text text-anchor="middle" x="315" y="-56.5" font-family="Helvetica,sans-Serif" font-size="10.00">Functions.FlattenVectorArray</text>
</a>
</g>
</g>
<!-- Node1&#45;&gt;Node2 -->
<g id="edge1" class="edge">
<title>Node1&#45;&gt;Node2</title>
<path fill="none" stroke="midnightblue" d="M168.32,-48.6C189.31,-50.89 211.82,-53.34 232.71,-55.63"/>
<polygon fill="midnightblue" stroke="midnightblue" points="232.5,-59.12 242.82,-56.73 233.26,-52.16 232.5,-59.12"/>
</g>
<!-- Node3 -->
<g id="node3" class="node">
<title>Node3</title>
<g id="a_node3"><a xlink:href="class_d_h_a_r_t_a_p_i_1_1_view_analysis_1_1_native_methods.html#a4087fbffecd701c3f01bc26b88532b3a" target="_top" xlink:title=" ">
<polygon fill="white" stroke="black" points="204,-0.5 204,-30.5 426,-30.5 426,-0.5 204,-0.5"/>
<text text-anchor="start" x="212" y="-18.5" font-family="Helvetica,sans-Serif" font-size="10.00">DHARTAPI.ViewAnalysis.Native</text>
<text text-anchor="middle" x="315" y="-7.5" font-family="Helvetica,sans-Serif" font-size="10.00">Methods.SphereicalViewAnalysisAggregateFlat</text>
</a>
</g>
</g>
<!-- Node1&#45;&gt;Node3 -->
<g id="edge2" class="edge">
<title>Node1&#45;&gt;Node3</title>
<path fill="none" stroke="midnightblue" d="M168.32,-30.77C176.59,-29.9 185.1,-29.01 193.65,-28.11"/>
<polygon fill="midnightblue" stroke="midnightblue" points="194.12,-31.58 203.7,-27.06 193.39,-24.62 194.12,-31.58"/>
</g>
</g>
</svg>
