<?xml version="1.0" encoding="UTF-8" standalone="no"?>
<!DOCTYPE svg PUBLIC "-//W3C//DTD SVG 1.1//EN"
 "http://www.w3.org/Graphics/SVG/1.1/DTD/svg11.dtd">
<!-- Generated by graphviz version 8.0.5 (20230430.1635)
 -->
<!-- Title: DHARTAPI.RayTracing.EmbreeBVH Pages: 1 -->
<svg width="181pt" height="152pt"
 viewBox="0.00 0.00 180.75 152.00" xmlns="http://www.w3.org/2000/svg" xmlns:xlink="http://www.w3.org/1999/xlink">
<g id="graph0" class="graph" transform="scale(1 1) rotate(0) translate(4 148)">
<title>DHARTAPI.RayTracing.EmbreeBVH</title>
<!-- Node1 -->
<g id="node1" class="node">
<title>Node1</title>
<g id="a_node1"><a xlink:title="A Bounding Volume Hierarchy for the EmbreeRaytracer.">
<polygon fill="#999999" stroke="#666666" points="172.75,-20 0,-20 0,0 172.75,0 172.75,-20"/>
<text text-anchor="middle" x="86.38" y="-6.5" font-family="Helvetica,sans-Serif" font-size="10.00">DHARTAPI.RayTracing.EmbreeBVH</text>
</a>
</g>
</g>
<!-- Node2 -->
<g id="node2" class="node">
<title>Node2</title>
<g id="a_node2"><a xlink:href="class_d_h_a_r_t_a_p_i_1_1_native_utils_1_1_native_object.html" target="_top" xlink:title="An object that holds a pointer to unmanaged memory or some other resource that must be freed.">
<polygon fill="white" stroke="#666666" points="144.25,-88 28.5,-88 28.5,-56 144.25,-56 144.25,-88"/>
<text text-anchor="start" x="36.5" y="-74.5" font-family="Helvetica,sans-Serif" font-size="10.00">DHARTAPI::NativeUtils</text>
<text text-anchor="middle" x="86.38" y="-62.5" font-family="Helvetica,sans-Serif" font-size="10.00">::NativeObject</text>
</a>
</g>
</g>
<!-- Node2&#45;&gt;Node1 -->
<g id="edge1" class="edge">
<title>Node2&#45;&gt;Node1</title>
<path fill="none" stroke="#63b8ff" d="M86.38,-44.66C86.38,-36.01 86.38,-26.95 86.38,-20.41"/>
<polygon fill="#63b8ff" stroke="#63b8ff" points="82.88,-44.55 86.38,-54.55 89.88,-44.55 82.88,-44.55"/>
</g>
<!-- Node3 -->
<g id="node3" class="node">
<title>Node3</title>
<g id="a_node3"><a xlink:href="class_safe_handle.html" target="_top" xlink:title=" ">
<polygon fill="white" stroke="#666666" points="119.13,-144 53.63,-144 53.63,-124 119.13,-124 119.13,-144"/>
<text text-anchor="middle" x="86.38" y="-130.5" font-family="Helvetica,sans-Serif" font-size="10.00">SafeHandle</text>
</a>
</g>
</g>
<!-- Node3&#45;&gt;Node2 -->
<g id="edge2" class="edge">
<title>Node3&#45;&gt;Node2</title>
<path fill="none" stroke="#63b8ff" d="M86.38,-112.87C86.38,-104.79 86.38,-95.64 86.38,-88.14"/>
<polygon fill="#63b8ff" stroke="#63b8ff" points="82.88,-112.62 86.38,-122.63 89.88,-112.63 82.88,-112.62"/>
</g>
</g>
</svg>
