<?xml version="1.0" encoding="UTF-8" standalone="no"?>
<!DOCTYPE svg PUBLIC "-//W3C//DTD SVG 1.1//EN"
 "http://www.w3.org/Graphics/SVG/1.1/DTD/svg11.dtd">
<!-- Generated by graphviz version 2.43.0 (0)
 -->
<!-- Title: HumanFactors.GraphGenerator.GraphGenerator.GenerateGraph Pages: 1 -->
<svg width="647pt" height="137pt"
 viewBox="0.00 0.00 647.00 137.00" xmlns="http://www.w3.org/2000/svg" xmlns:xlink="http://www.w3.org/1999/xlink">
<g id="graph0" class="graph" transform="scale(1 1) rotate(0) translate(4 133)">
<title>HumanFactors.GraphGenerator.GraphGenerator.GenerateGraph</title>
<polygon fill="white" stroke="transparent" points="-4,4 -4,-133 643,-133 643,4 -4,4"/>
<!-- Node1 -->
<g id="node1" class="node">
<title>Node1</title>
<g id="a_node1"><a xlink:title="Generate a graph of accessible space with the given settings. If no graph can be generated,...">
<polygon fill="#bfbfbf" stroke="black" points="0,-49.5 0,-79.5 171,-79.5 171,-49.5 0,-49.5"/>
<text text-anchor="start" x="8" y="-67.5" font-family="Helvetica,sans-Serif" font-size="10.00">HumanFactors.GraphGenerator.</text>
<text text-anchor="middle" x="85.5" y="-56.5" font-family="Helvetica,sans-Serif" font-size="10.00">GraphGenerator.GenerateGraph</text>
</a>
</g>
</g>
<!-- Node2 -->
<g id="node2" class="node">
<title>Node2</title>
<g id="a_node2"><a xlink:href="class_human_factors_1_1_graph_generator_1_1_native_methods.html#ab5034f7ff664a662d6292b55c6bc2264" target="_top" xlink:title="Generate a graph using the C++ graph generator.">
<polygon fill="white" stroke="black" points="207,-49.5 207,-79.5 387,-79.5 387,-49.5 207,-49.5"/>
<text text-anchor="start" x="215" y="-67.5" font-family="Helvetica,sans-Serif" font-size="10.00">HumanFactors.GraphGenerator.</text>
<text text-anchor="middle" x="297" y="-56.5" font-family="Helvetica,sans-Serif" font-size="10.00">NativeMethods.C_GenerateGraph</text>
</a>
</g>
</g>
<!-- Node1&#45;&gt;Node2 -->
<g id="edge1" class="edge">
<title>Node1&#45;&gt;Node2</title>
<path fill="none" stroke="midnightblue" d="M171.11,-64.5C179.6,-64.5 188.27,-64.5 196.89,-64.5"/>
<polygon fill="midnightblue" stroke="midnightblue" points="196.97,-68 206.97,-64.5 196.97,-61 196.97,-68"/>
</g>
<!-- Node3 -->
<g id="node3" class="node">
<title>Node3</title>
<g id="a_node3"><a xlink:href="class_human_factors_1_1_graph_generator_1_1_native_methods.html#a85bdf700aeb6a2ea6992a5a63b84d231" target="_top" xlink:title=" ">
<polygon fill="white" stroke="black" points="446,-98.5 446,-128.5 616,-128.5 616,-98.5 446,-98.5"/>
<text text-anchor="start" x="454" y="-116.5" font-family="Helvetica,sans-Serif" font-size="10.00">HumanFactors.GraphGenerator.</text>
<text text-anchor="middle" x="531" y="-105.5" font-family="Helvetica,sans-Serif" font-size="10.00">NativeMethods.GenerateGraph</text>
</a>
</g>
</g>
<!-- Node2&#45;&gt;Node3 -->
<g id="edge2" class="edge">
<title>Node2&#45;&gt;Node3</title>
<path fill="none" stroke="midnightblue" d="M369.18,-79.53C394.46,-84.87 423.09,-90.92 449.12,-96.42"/>
<polygon fill="midnightblue" stroke="midnightblue" points="448.44,-99.85 458.95,-98.49 449.89,-93 448.44,-99.85"/>
</g>
<!-- Node4 -->
<g id="node4" class="node">
<title>Node4</title>
<g id="a_node4"><a xlink:href="class_human_factors_1_1_graph_generator_1_1_native_methods.html#a49f8767832baf6a3e8c907cf7ebcc0fa" target="_top" xlink:title=" ">
<polygon fill="white" stroke="black" points="423,-49.5 423,-79.5 639,-79.5 639,-49.5 423,-49.5"/>
<text text-anchor="start" x="431" y="-67.5" font-family="Helvetica,sans-Serif" font-size="10.00">HumanFactors.GraphGenerator.</text>
<text text-anchor="middle" x="531" y="-56.5" font-family="Helvetica,sans-Serif" font-size="10.00">NativeMethods.GenerateGraphObstacles</text>
</a>
</g>
</g>
<!-- Node2&#45;&gt;Node4 -->
<g id="edge3" class="edge">
<title>Node2&#45;&gt;Node4</title>
<path fill="none" stroke="midnightblue" d="M387.03,-64.5C395.48,-64.5 404.14,-64.5 412.8,-64.5"/>
<polygon fill="midnightblue" stroke="midnightblue" points="412.96,-68 422.96,-64.5 412.96,-61 412.96,-68"/>
</g>
<!-- Node5 -->
<g id="node5" class="node">
<title>Node5</title>
<g id="a_node5"><a xlink:href="struct_human_factors_1_1_vector3_d.html#a1f3e0afd7c741d15bb2572935d26aad6" target="_top" xlink:title="Convert this vector3D to an array of floats.">
<polygon fill="white" stroke="black" points="457.5,-0.5 457.5,-30.5 604.5,-30.5 604.5,-0.5 457.5,-0.5"/>
<text text-anchor="start" x="465.5" y="-18.5" font-family="Helvetica,sans-Serif" font-size="10.00">HumanFactors.Vector3D.To</text>
<text text-anchor="middle" x="531" y="-7.5" font-family="Helvetica,sans-Serif" font-size="10.00">Array</text>
</a>
</g>
</g>
<!-- Node2&#45;&gt;Node5 -->
<g id="edge4" class="edge">
<title>Node2&#45;&gt;Node5</title>
<path fill="none" stroke="midnightblue" d="M369.18,-49.47C394.46,-44.13 423.09,-38.08 449.12,-32.58"/>
<polygon fill="midnightblue" stroke="midnightblue" points="449.89,-36 458.95,-30.51 448.44,-29.15 449.89,-36"/>
</g>
</g>
</svg>
