<?xml version="1.0" encoding="UTF-8" standalone="no"?>
<!DOCTYPE svg PUBLIC "-//W3C//DTD SVG 1.1//EN"
 "http://www.w3.org/Graphics/SVG/1.1/DTD/svg11.dtd">
<!-- Generated by graphviz version 8.0.5 (20230430.1635)
 -->
<!-- Title: DHARTAPI.RayTracing.NativeMethods.C_CastOcclusionRays Pages: 1 -->
<svg width="533pt" height="80pt"
 viewBox="0.00 0.00 533.00 80.00" xmlns="http://www.w3.org/2000/svg" xmlns:xlink="http://www.w3.org/1999/xlink">
<g id="graph0" class="graph" transform="scale(1 1) rotate(0) translate(4 76)">
<title>DHARTAPI.RayTracing.NativeMethods.C_CastOcclusionRays</title>
<!-- Node1 -->
<g id="node1" class="node">
<title>Node1</title>
<g id="a_node1"><a xlink:title=" ">
<polygon fill="#999999" stroke="#666666" points="154.75,-32 0,-32 0,0 154.75,0 154.75,-32"/>
<text text-anchor="start" x="8" y="-18.5" font-family="Helvetica,sans-Serif" font-size="10.00">DHARTAPI.RayTracing.Native</text>
<text text-anchor="middle" x="77.38" y="-6.5" font-family="Helvetica,sans-Serif" font-size="10.00">Methods.C_CastOcclusionRays</text>
</a>
</g>
</g>
<!-- Node2 -->
<g id="node2" class="node">
<title>Node2</title>
<g id="a_node2"><a xlink:href="class_d_h_a_r_t_a_p_i_1_1_ray_tracing_1_1_native_methods.html#a59fe92246f1f62a542f807783b6cbe6f" target="_top" xlink:title="Cast occlusion rays in C++ using embree.">
<polygon fill="white" stroke="#666666" points="345.5,-54 190.75,-54 190.75,-22 345.5,-22 345.5,-54"/>
<text text-anchor="start" x="198.75" y="-40.5" font-family="Helvetica,sans-Serif" font-size="10.00">DHARTAPI.RayTracing.Native</text>
<text text-anchor="middle" x="268.13" y="-28.5" font-family="Helvetica,sans-Serif" font-size="10.00">Methods.C_CastOcclusionRays</text>
</a>
</g>
</g>
<!-- Node1&#45;&gt;Node2 -->
<g id="edge1" class="edge">
<title>Node1&#45;&gt;Node2</title>
<path fill="none" stroke="#63b8ff" d="M155.15,-24.95C163.24,-25.89 171.51,-26.86 179.7,-27.81"/>
<polygon fill="#63b8ff" stroke="#63b8ff" points="179.08,-31.38 189.42,-29.06 179.89,-24.43 179.08,-31.38"/>
</g>
<!-- Node3 -->
<g id="node3" class="node">
<title>Node3</title>
<g id="a_node3"><a xlink:href="class_d_h_a_r_t_a_p_i_1_1_native_utils_1_1_helper_functions.html#a25819207027d373e010839e97ee002d1" target="_top" xlink:title="Convert a vector array into an array of floats. Slower than passing a Vector3D array.">
<polygon fill="white" stroke="#666666" points="525,-32 381.5,-32 381.5,0 525,0 525,-32"/>
<text text-anchor="start" x="389.5" y="-18.5" font-family="Helvetica,sans-Serif" font-size="10.00">DHARTAPI.NativeUtils.Helper</text>
<text text-anchor="middle" x="453.25" y="-6.5" font-family="Helvetica,sans-Serif" font-size="10.00">Functions.FlattenVectorArray</text>
</a>
</g>
</g>
<!-- Node1&#45;&gt;Node3 -->
<g id="edge4" class="edge">
<title>Node1&#45;&gt;Node3</title>
<path fill="none" stroke="#63b8ff" d="M155.14,-13.68C167.06,-13.4 179.24,-13.15 190.75,-13 259.52,-12.08 276.73,-12.03 345.5,-13 353.49,-13.11 361.82,-13.27 370.14,-13.46"/>
<polygon fill="#63b8ff" stroke="#63b8ff" points="369.97,-16.98 380.05,-13.72 370.14,-9.98 369.97,-16.98"/>
</g>
<!-- Node2&#45;&gt;Node2 -->
<g id="edge2" class="edge">
<title>Node2&#45;&gt;Node2</title>
<path fill="none" stroke="#63b8ff" d="M235.08,-54.44C228.91,-63.58 239.92,-72 268.13,-72 284.43,-72 294.99,-69.19 299.81,-65.05"/>
<polygon fill="#63b8ff" stroke="#63b8ff" points="303.37,-65.81 301.17,-55.44 296.42,-64.91 303.37,-65.81"/>
</g>
<!-- Node2&#45;&gt;Node3 -->
<g id="edge3" class="edge">
<title>Node2&#45;&gt;Node3</title>
<path fill="none" stroke="#63b8ff" d="M345.99,-28.77C354,-27.8 362.16,-26.82 370.22,-25.85"/>
<polygon fill="#63b8ff" stroke="#63b8ff" points="370.62,-29.21 380.13,-24.54 369.78,-22.26 370.62,-29.21"/>
</g>
</g>
</svg>
