<?xml version="1.0" encoding="UTF-8" standalone="no"?>
<!DOCTYPE svg PUBLIC "-//W3C//DTD SVG 1.1//EN"
 "http://www.w3.org/Graphics/SVG/1.1/DTD/svg11.dtd">
<!-- Generated by graphviz version 7.0.2 (20221119.0110)
 -->
<!-- Title: DHARTAPI.NativeUtils.HelperFunctions.FlattenVectorArray Pages: 1 -->
<svg width="630pt" height="301pt"
 viewBox="0.00 0.00 630.00 300.50" xmlns="http://www.w3.org/2000/svg" xmlns:xlink="http://www.w3.org/1999/xlink">
<g id="graph0" class="graph" transform="scale(1 1) rotate(0) translate(4 296.5)">
<title>DHARTAPI.NativeUtils.HelperFunctions.FlattenVectorArray</title>
<!-- Node1 -->
<g id="node1" class="node">
<title>Node1</title>
<g id="a_node1"><a xlink:title="Convert a vector array into an array of floats.">
<polygon fill="#999999" stroke="#666666" points="622,-172.5 478,-172.5 478,-142.5 622,-142.5 622,-172.5"/>
<text text-anchor="start" x="486" y="-160.5" font-family="Helvetica,sans-Serif" font-size="10.00">DHARTAPI.NativeUtils.Helper</text>
<text text-anchor="middle" x="550" y="-149.5" font-family="Helvetica,sans-Serif" font-size="10.00">Functions.FlattenVectorArray</text>
</a>
</g>
</g>
<!-- Node2 -->
<g id="node2" class="node">
<title>Node2</title>
<g id="a_node2"><a xlink:href="class_d_h_a_r_t_a_p_i_1_1_visibility_graph_1_1_native_methods.html#a559751c33a91ae696e2969a29ce2126d" target="_top" xlink:title="Generate a visibility graph in C++.">
<polygon fill="white" stroke="#666666" points="427,-292.5 236,-292.5 236,-262.5 427,-262.5 427,-292.5"/>
<text text-anchor="start" x="244" y="-280.5" font-family="Helvetica,sans-Serif" font-size="10.00">DHARTAPI.VisibilityGraph.</text>
<text text-anchor="middle" x="331.5" y="-269.5" font-family="Helvetica,sans-Serif" font-size="10.00">NativeMethods.C_AllToAllVisibilityGraph</text>
</a>
</g>
</g>
<!-- Node1&#45;&gt;Node2 -->
<g id="edge1" class="edge">
<title>Node1&#45;&gt;Node2</title>
<path fill="none" stroke="#63b8ff" d="M529.14,-181.31C509.35,-203.44 476.94,-235.6 442,-253.5 435.59,-256.78 428.75,-259.62 421.73,-262.07"/>
<polygon fill="#63b8ff" stroke="#63b8ff" points="531.63,-183.78 535.58,-173.94 526.36,-179.17 531.63,-183.78"/>
</g>
<!-- Node4 -->
<g id="node4" class="node">
<title>Node4</title>
<g id="a_node4"><a xlink:href="class_d_h_a_r_t_a_p_i_1_1_ray_tracing_1_1_native_methods.html#a59fe92246f1f62a542f807783b6cbe6f" target="_top" xlink:title="Cast occlusion rays in C++ using embree.">
<polygon fill="white" stroke="#666666" points="409,-244.5 254,-244.5 254,-214.5 409,-214.5 409,-244.5"/>
<text text-anchor="start" x="262" y="-232.5" font-family="Helvetica,sans-Serif" font-size="10.00">DHARTAPI.RayTracing.Native</text>
<text text-anchor="middle" x="331.5" y="-221.5" font-family="Helvetica,sans-Serif" font-size="10.00">Methods.C_CastOcclusionRays</text>
</a>
</g>
</g>
<!-- Node1&#45;&gt;Node4 -->
<g id="edge3" class="edge">
<title>Node1&#45;&gt;Node4</title>
<path fill="none" stroke="#63b8ff" d="M509.04,-177.79C489.26,-187.22 464.78,-197.98 442,-205.5 431.56,-208.95 420.39,-212.04 409.33,-214.77"/>
<polygon fill="#63b8ff" stroke="#63b8ff" points="510.38,-181.03 517.86,-173.52 507.33,-174.73 510.38,-181.03"/>
</g>
<!-- Node5 -->
<g id="node5" class="node">
<title>Node5</title>
<g id="a_node5"><a xlink:href="class_d_h_a_r_t_a_p_i_1_1_visibility_graph_1_1_native_methods.html#a11e756fec10d67be7d1604e94d932926" target="_top" xlink:title="Generate a directed visibility graph from nodes in group_a to the nodes in group_b.">
<polygon fill="white" stroke="#666666" points="442,-196.5 221,-196.5 221,-166.5 442,-166.5 442,-196.5"/>
<text text-anchor="start" x="229" y="-184.5" font-family="Helvetica,sans-Serif" font-size="10.00">DHARTAPI.VisibilityGraph.</text>
<text text-anchor="middle" x="331.5" y="-173.5" font-family="Helvetica,sans-Serif" font-size="10.00">NativeMethods.C_GroupToGroupVisibilityGraph</text>
</a>
</g>
</g>
<!-- Node1&#45;&gt;Node5 -->
<g id="edge4" class="edge">
<title>Node1&#45;&gt;Node5</title>
<path fill="none" stroke="#63b8ff" d="M466.18,-166.68C458.34,-167.55 450.31,-168.44 442.27,-169.33"/>
<polygon fill="#63b8ff" stroke="#63b8ff" points="466.45,-170.17 476.01,-165.59 465.68,-163.21 466.45,-170.17"/>
</g>
<!-- Node7 -->
<g id="node7" class="node">
<title>Node7</title>
<g id="a_node7"><a xlink:href="class_d_h_a_r_t_a_p_i_1_1_ray_tracing_1_1_native_methods.html#aef86d7347e7f12f2076191b3b8df8e79" target="_top" xlink:title="Cast multiple rays in C++ then recieve the distance and meshid of geometry intersected by each in ret...">
<polygon fill="white" stroke="#666666" points="404.5,-148.5 258.5,-148.5 258.5,-118.5 404.5,-118.5 404.5,-148.5"/>
<text text-anchor="start" x="266.5" y="-136.5" font-family="Helvetica,sans-Serif" font-size="10.00">DHARTAPI.RayTracing.Native</text>
<text text-anchor="middle" x="331.5" y="-125.5" font-family="Helvetica,sans-Serif" font-size="10.00">Methods.C_IntersectRays</text>
</a>
</g>
</g>
<!-- Node1&#45;&gt;Node7 -->
<g id="edge6" class="edge">
<title>Node1&#45;&gt;Node7</title>
<path fill="none" stroke="#63b8ff" d="M466.09,-148.31C445.84,-146.06 424.35,-143.68 404.65,-141.5"/>
<polygon fill="#63b8ff" stroke="#63b8ff" points="465.68,-151.79 476.01,-149.41 466.45,-144.83 465.68,-151.79"/>
</g>
<!-- Node8 -->
<g id="node8" class="node">
<title>Node8</title>
<g id="a_node8"><a xlink:href="class_d_h_a_r_t_a_p_i_1_1_view_analysis_1_1_native_methods.html#ab7f6b79f6dd8af643156fd062aa69116" target="_top" xlink:title="Conduct view analysis and aggregate the results for each node.">
<polygon fill="white" stroke="#666666" points="415.5,-100 247.5,-100 247.5,-59 415.5,-59 415.5,-100"/>
<text text-anchor="start" x="255.5" y="-88" font-family="Helvetica,sans-Serif" font-size="10.00">DHARTAPI.ViewAnalysis.Native</text>
<text text-anchor="start" x="255.5" y="-77" font-family="Helvetica,sans-Serif" font-size="10.00">Methods.C_SphericalViewAnalysis</text>
<text text-anchor="middle" x="331.5" y="-66" font-family="Helvetica,sans-Serif" font-size="10.00">Aggregate</text>
</a>
</g>
</g>
<!-- Node1&#45;&gt;Node8 -->
<g id="edge7" class="edge">
<title>Node1&#45;&gt;Node8</title>
<path fill="none" stroke="#63b8ff" d="M508.01,-137.32C488.34,-128.1 464.25,-117.49 442,-109.5 433.19,-106.34 423.88,-103.32 414.55,-100.49"/>
<polygon fill="#63b8ff" stroke="#63b8ff" points="506.25,-140.36 516.78,-141.49 509.25,-134.04 506.25,-140.36"/>
</g>
<!-- Node9 -->
<g id="node9" class="node">
<title>Node9</title>
<g id="a_node9"><a xlink:href="class_d_h_a_r_t_a_p_i_1_1_view_analysis_1_1_native_methods.html#a382d280d1ca91c9a74198efc36675716" target="_top" xlink:title="Conduct View Analysis and access the results of every ray casted for every node. 1.">
<polygon fill="white" stroke="#666666" points="415.5,-41 247.5,-41 247.5,0 415.5,0 415.5,-41"/>
<text text-anchor="start" x="255.5" y="-29" font-family="Helvetica,sans-Serif" font-size="10.00">DHARTAPI.ViewAnalysis.Native</text>
<text text-anchor="start" x="255.5" y="-18" font-family="Helvetica,sans-Serif" font-size="10.00">Methods.C_SphericalViewAnalysis</text>
<text text-anchor="middle" x="331.5" y="-7" font-family="Helvetica,sans-Serif" font-size="10.00">NoAggregate</text>
</a>
</g>
</g>
<!-- Node1&#45;&gt;Node9 -->
<g id="edge8" class="edge">
<title>Node1&#45;&gt;Node9</title>
<path fill="none" stroke="#63b8ff" d="M531.13,-132.97C511.85,-108.27 478.91,-70.85 442,-49.5 433.91,-44.82 425.06,-40.88 416,-37.57"/>
<polygon fill="#63b8ff" stroke="#63b8ff" points="528.3,-135.03 537.14,-140.86 533.86,-130.78 528.3,-135.03"/>
</g>
<!-- Node3 -->
<g id="node3" class="node">
<title>Node3</title>
<g id="a_node3"><a xlink:href="class_d_h_a_r_t_a_p_i_1_1_visibility_graph_1_1_visibility_graph.html#ac2f5b9a059b0ba297db8098a48b2b91a" target="_top" xlink:title="Create a visibility graph from every node to every node in nodes.">
<polygon fill="white" stroke="#666666" points="170,-292.5 15,-292.5 15,-262.5 170,-262.5 170,-292.5"/>
<text text-anchor="start" x="23" y="-280.5" font-family="Helvetica,sans-Serif" font-size="10.00">DHARTAPI.VisibilityGraph.</text>
<text text-anchor="middle" x="92.5" y="-269.5" font-family="Helvetica,sans-Serif" font-size="10.00">VisibilityGraph.GenerateAllToAll</text>
</a>
</g>
</g>
<!-- Node2&#45;&gt;Node3 -->
<g id="edge2" class="edge">
<title>Node2&#45;&gt;Node3</title>
<path fill="none" stroke="#63b8ff" d="M224.49,-277.5C206.2,-277.5 187.51,-277.5 170.19,-277.5"/>
<polygon fill="#63b8ff" stroke="#63b8ff" points="224.3,-281 234.3,-277.5 224.3,-274 224.3,-281"/>
</g>
<!-- Node6 -->
<g id="node6" class="node">
<title>Node6</title>
<g id="a_node6"><a xlink:href="class_d_h_a_r_t_a_p_i_1_1_visibility_graph_1_1_visibility_graph.html#aae8c65cb810fbb1db7e314c566ee28ba" target="_top" xlink:title="Generate a directed visibility graph from nodes in group_a to the nodes in group_b.">
<polygon fill="white" stroke="#666666" points="185,-196.5 0,-196.5 0,-166.5 185,-166.5 185,-196.5"/>
<text text-anchor="start" x="8" y="-184.5" font-family="Helvetica,sans-Serif" font-size="10.00">DHARTAPI.VisibilityGraph.</text>
<text text-anchor="middle" x="92.5" y="-173.5" font-family="Helvetica,sans-Serif" font-size="10.00">VisibilityGraph.GenerateGroupToGroup</text>
</a>
</g>
</g>
<!-- Node5&#45;&gt;Node6 -->
<g id="edge5" class="edge">
<title>Node5&#45;&gt;Node6</title>
<path fill="none" stroke="#63b8ff" d="M209.25,-181.5C201.17,-181.5 193.1,-181.5 185.2,-181.5"/>
<polygon fill="#63b8ff" stroke="#63b8ff" points="209.16,-185 219.16,-181.5 209.16,-178 209.16,-185"/>
</g>
</g>
</svg>
