<?xml version="1.0" encoding="UTF-8" standalone="no"?>
<!DOCTYPE svg PUBLIC "-//W3C//DTD SVG 1.1//EN"
 "http://www.w3.org/Graphics/SVG/1.1/DTD/svg11.dtd">
<!-- Generated by graphviz version 2.43.0 (0)
 -->
<!-- Title: HumanFactors.Geometry.MeshInfo.UpdateIDNameAndArrays Pages: 1 -->
<svg width="376pt" height="137pt"
 viewBox="0.00 0.00 376.00 137.00" xmlns="http://www.w3.org/2000/svg" xmlns:xlink="http://www.w3.org/1999/xlink">
<g id="graph0" class="graph" transform="scale(1 1) rotate(0) translate(4 133)">
<title>HumanFactors.Geometry.MeshInfo.UpdateIDNameAndArrays</title>
<polygon fill="white" stroke="transparent" points="-4,4 -4,-133 372,-133 372,4 -4,4"/>
<!-- Node1 -->
<g id="node1" class="node">
<title>Node1</title>
<g id="a_node1"><a xlink:title="Updates this mesh&#39;s name, ID, and arrays with it&#39;s values from C++.">
<polygon fill="#bfbfbf" stroke="black" points="202,-49.5 202,-79.5 368,-79.5 368,-49.5 202,-49.5"/>
<text text-anchor="start" x="210" y="-67.5" font-family="Helvetica,sans-Serif" font-size="10.00">HumanFactors.Geometry.Mesh</text>
<text text-anchor="middle" x="285" y="-56.5" font-family="Helvetica,sans-Serif" font-size="10.00">Info.UpdateIDNameAndArrays</text>
</a>
</g>
</g>
<!-- Node2 -->
<g id="node2" class="node">
<title>Node2</title>
<g id="a_node2"><a xlink:href="class_human_factors_1_1_ray_tracing_1_1_embree_b_v_h.html#aeb7347e829fd81d6da236e1ca8852f09" target="_top" xlink:title="Add a new mesh to the BVH.">
<polygon fill="white" stroke="black" points="10,-98.5 10,-128.5 156,-128.5 156,-98.5 10,-98.5"/>
<text text-anchor="start" x="18" y="-116.5" font-family="Helvetica,sans-Serif" font-size="10.00">HumanFactors.RayTracing.</text>
<text text-anchor="middle" x="83" y="-105.5" font-family="Helvetica,sans-Serif" font-size="10.00">EmbreeBVH.AddMesh</text>
</a>
</g>
</g>
<!-- Node1&#45;&gt;Node2 -->
<g id="edge1" class="edge">
<title>Node1&#45;&gt;Node2</title>
<path fill="none" stroke="midnightblue" d="M212.67,-81.98C190.62,-87.38 166.55,-93.28 145.25,-98.49"/>
<polygon fill="midnightblue" stroke="midnightblue" points="213.75,-85.31 222.63,-79.53 212.09,-78.51 213.75,-85.31"/>
</g>
<!-- Node3 -->
<g id="node3" class="node">
<title>Node3</title>
<g id="a_node3"><a xlink:href="class_human_factors_1_1_geometry_1_1_mesh_info.html#a7840f891fd3f7b38f64c5e1619ebc812" target="_top" xlink:title="Create a new meshinfo instance from the given pointer.">
<polygon fill="white" stroke="black" points="0,-49.5 0,-79.5 166,-79.5 166,-49.5 0,-49.5"/>
<text text-anchor="start" x="8" y="-67.5" font-family="Helvetica,sans-Serif" font-size="10.00">HumanFactors.Geometry.Mesh</text>
<text text-anchor="middle" x="83" y="-56.5" font-family="Helvetica,sans-Serif" font-size="10.00">Info.MeshInfo</text>
</a>
</g>
</g>
<!-- Node1&#45;&gt;Node3 -->
<g id="edge2" class="edge">
<title>Node1&#45;&gt;Node3</title>
<path fill="none" stroke="midnightblue" d="M191.53,-64.5C183.09,-64.5 174.57,-64.5 166.22,-64.5"/>
<polygon fill="midnightblue" stroke="midnightblue" points="191.79,-68 201.79,-64.5 191.79,-61 191.79,-68"/>
</g>
<!-- Node4 -->
<g id="node4" class="node">
<title>Node4</title>
<g id="a_node4"><a xlink:href="class_human_factors_1_1_geometry_1_1_mesh_info.html#a3f9bd73c9c82e777bb083439d457b8ad" target="_top" xlink:title="Rotate this mesh by the desired magnitude.">
<polygon fill="white" stroke="black" points="0,-0.5 0,-30.5 166,-30.5 166,-0.5 0,-0.5"/>
<text text-anchor="start" x="8" y="-18.5" font-family="Helvetica,sans-Serif" font-size="10.00">HumanFactors.Geometry.Mesh</text>
<text text-anchor="middle" x="83" y="-7.5" font-family="Helvetica,sans-Serif" font-size="10.00">Info.RotateMesh</text>
</a>
</g>
</g>
<!-- Node1&#45;&gt;Node4 -->
<g id="edge3" class="edge">
<title>Node1&#45;&gt;Node4</title>
<path fill="none" stroke="midnightblue" d="M212.67,-47.02C190.62,-41.62 166.55,-35.72 145.25,-30.51"/>
<polygon fill="midnightblue" stroke="midnightblue" points="212.09,-50.49 222.63,-49.47 213.75,-43.69 212.09,-50.49"/>
</g>
</g>
</svg>
