<?xml version="1.0" encoding="UTF-8" standalone="no"?>
<!DOCTYPE svg PUBLIC "-//W3C//DTD SVG 1.1//EN"
 "http://www.w3.org/Graphics/SVG/1.1/DTD/svg11.dtd">
<!-- Generated by graphviz version 5.0.0 (20220707.1540)
 -->
<!-- Title: DHARTAPI.GraphGenerator.GraphGenerator.GenerateGraph Pages: 1 -->
<svg width="590pt" height="127pt"
 viewBox="0.00 0.00 590.00 126.50" xmlns="http://www.w3.org/2000/svg" xmlns:xlink="http://www.w3.org/1999/xlink">
<g id="graph0" class="graph" transform="scale(1 1) rotate(0) translate(4 122.5)">
<title>DHARTAPI.GraphGenerator.GraphGenerator.GenerateGraph</title>
<polygon fill="white" stroke="transparent" points="-4,4 -4,-122.5 586,-122.5 586,4 -4,4"/>
<!-- Node1 -->
<g id="node1" class="node">
<title>Node1</title>
<g id="a_node1"><a xlink:title="Generate a graph of accessible space with the given settings. If no graph can be generated,...">
<polygon fill="#bfbfbf" stroke="black" points="0,-39 0,-69 155,-69 155,-39 0,-39"/>
<text text-anchor="start" x="8" y="-57" font-family="Helvetica,sans-Serif" font-size="10.00">DHARTAPI.GraphGenerator.</text>
<text text-anchor="middle" x="77.5" y="-46" font-family="Helvetica,sans-Serif" font-size="10.00">GraphGenerator.GenerateGraph</text>
</a>
</g>
</g>
<!-- Node2 -->
<g id="node2" class="node">
<title>Node2</title>
<g id="a_node2"><a xlink:href="class_d_h_a_r_t_a_p_i_1_1_graph_generator_1_1_native_methods.html#a3853aa5e400bb564b7e06390ecc82559" target="_top" xlink:title="Generate a graph using the C++ graph generator.">
<polygon fill="white" stroke="black" points="191,-39 191,-69 352,-69 352,-39 191,-39"/>
<text text-anchor="start" x="199" y="-57" font-family="Helvetica,sans-Serif" font-size="10.00">DHARTAPI.GraphGenerator.</text>
<text text-anchor="middle" x="271.5" y="-46" font-family="Helvetica,sans-Serif" font-size="10.00">NativeMethods.C_GenerateGraph</text>
</a>
</g>
</g>
<!-- Node1&#45;&gt;Node2 -->
<g id="edge1" class="edge">
<title>Node1&#45;&gt;Node2</title>
<path fill="none" stroke="midnightblue" d="M155.21,-54C163.53,-54 172.05,-54 180.5,-54"/>
<polygon fill="midnightblue" stroke="midnightblue" points="180.77,-57.5 190.77,-54 180.77,-50.5 180.77,-57.5"/>
</g>
<!-- Node3 -->
<g id="node3" class="node">
<title>Node3</title>
<g id="a_node3"><a xlink:href="class_d_h_a_r_t_a_p_i_1_1_graph_generator_1_1_native_methods.html#a5d43eed5505a965fe193bfe4d53e4806" target="_top" xlink:title=" ">
<polygon fill="white" stroke="black" points="410.5,-88 410.5,-118 559.5,-118 559.5,-88 410.5,-88"/>
<text text-anchor="start" x="418.5" y="-106" font-family="Helvetica,sans-Serif" font-size="10.00">DHARTAPI.GraphGenerator.</text>
<text text-anchor="middle" x="485" y="-95" font-family="Helvetica,sans-Serif" font-size="10.00">NativeMethods.GenerateGraph</text>
</a>
</g>
</g>
<!-- Node2&#45;&gt;Node3 -->
<g id="edge2" class="edge">
<title>Node2&#45;&gt;Node3</title>
<path fill="none" stroke="midnightblue" d="M337.39,-69.03C360.13,-74.3 385.85,-80.26 409.32,-85.7"/>
<polygon fill="midnightblue" stroke="midnightblue" points="408.7,-89.15 419.23,-87.99 410.28,-82.33 408.7,-89.15"/>
</g>
<!-- Node4 -->
<g id="node4" class="node">
<title>Node4</title>
<g id="a_node4"><a xlink:href="class_d_h_a_r_t_a_p_i_1_1_graph_generator_1_1_native_methods.html#a5b951e30233e6d0708dc81fc618a27c8" target="_top" xlink:title=" ">
<polygon fill="white" stroke="black" points="388,-39 388,-69 582,-69 582,-39 388,-39"/>
<text text-anchor="start" x="396" y="-57" font-family="Helvetica,sans-Serif" font-size="10.00">DHARTAPI.GraphGenerator.</text>
<text text-anchor="middle" x="485" y="-46" font-family="Helvetica,sans-Serif" font-size="10.00">NativeMethods.GenerateGraphObstacles</text>
</a>
</g>
</g>
<!-- Node2&#45;&gt;Node4 -->
<g id="edge3" class="edge">
<title>Node2&#45;&gt;Node4</title>
<path fill="none" stroke="midnightblue" d="M352.16,-54C360.49,-54 369.05,-54 377.62,-54"/>
<polygon fill="midnightblue" stroke="midnightblue" points="377.67,-57.5 387.67,-54 377.67,-50.5 377.67,-57.5"/>
</g>
<!-- Node5 -->
<g id="node5" class="node">
<title>Node5</title>
<g id="a_node5"><a xlink:href="struct_d_h_a_r_t_a_p_i_1_1_vector3_d.html#a9e68c43e195142d59789c892e43df8ab" target="_top" xlink:title="Convert this vector3D to an array of floats.">
<polygon fill="white" stroke="black" points="412.5,-0.5 412.5,-19.5 557.5,-19.5 557.5,-0.5 412.5,-0.5"/>
<text text-anchor="middle" x="485" y="-7.5" font-family="Helvetica,sans-Serif" font-size="10.00">DHARTAPI.Vector3D.ToArray</text>
</a>
</g>
</g>
<!-- Node2&#45;&gt;Node5 -->
<g id="edge4" class="edge">
<title>Node2&#45;&gt;Node5</title>
<path fill="none" stroke="midnightblue" d="M344.69,-38.98C372.06,-33.29 402.76,-26.9 428.37,-21.57"/>
<polygon fill="midnightblue" stroke="midnightblue" points="429.2,-24.98 438.28,-19.51 427.77,-18.12 429.2,-24.98"/>
</g>
</g>
</svg>
