<?xml version="1.0" encoding="UTF-8" standalone="no"?>
<!DOCTYPE svg PUBLIC "-//W3C//DTD SVG 1.1//EN"
 "http://www.w3.org/Graphics/SVG/1.1/DTD/svg11.dtd">
<!-- Generated by graphviz version 5.0.0 (20220707.1540)
 -->
<!-- Title: DHARTAPI.VisibilityGraph.NativeMethods.CreateVisibilityGraphGroupToGroup Pages: 1 -->
<svg width="635pt" height="50pt"
 viewBox="0.00 0.00 635.00 50.00" xmlns="http://www.w3.org/2000/svg" xmlns:xlink="http://www.w3.org/1999/xlink">
<g id="graph0" class="graph" transform="scale(1 1) rotate(0) translate(4 46)">
<title>DHARTAPI.VisibilityGraph.NativeMethods.CreateVisibilityGraphGroupToGroup</title>
<polygon fill="white" stroke="transparent" points="-4,4 -4,-46 631,-46 631,4 -4,4"/>
<!-- Node1 -->
<g id="node1" class="node">
<title>Node1</title>
<g id="a_node1"><a xlink:title=" ">
<polygon fill="#bfbfbf" stroke="black" points="478,-0.5 478,-41.5 627,-41.5 627,-0.5 478,-0.5"/>
<text text-anchor="start" x="486" y="-29.5" font-family="Helvetica,sans-Serif" font-size="10.00">DHARTAPI.VisibilityGraph.</text>
<text text-anchor="start" x="486" y="-18.5" font-family="Helvetica,sans-Serif" font-size="10.00">NativeMethods.CreateVisibility</text>
<text text-anchor="middle" x="552.5" y="-7.5" font-family="Helvetica,sans-Serif" font-size="10.00">GraphGroupToGroup</text>
</a>
</g>
</g>
<!-- Node2 -->
<g id="node2" class="node">
<title>Node2</title>
<g id="a_node2"><a xlink:href="class_d_h_a_r_t_a_p_i_1_1_visibility_graph_1_1_native_methods.html#a11e756fec10d67be7d1604e94d932926" target="_top" xlink:title="Generate a directed visibility graph from nodes in group_a to the nodes in group_b.">
<polygon fill="white" stroke="black" points="221,-6 221,-36 442,-36 442,-6 221,-6"/>
<text text-anchor="start" x="229" y="-24" font-family="Helvetica,sans-Serif" font-size="10.00">DHARTAPI.VisibilityGraph.</text>
<text text-anchor="middle" x="331.5" y="-13" font-family="Helvetica,sans-Serif" font-size="10.00">NativeMethods.C_GroupToGroupVisibilityGraph</text>
</a>
</g>
</g>
<!-- Node1&#45;&gt;Node2 -->
<g id="edge1" class="edge">
<title>Node1&#45;&gt;Node2</title>
<path fill="none" stroke="midnightblue" d="M467.81,-21C459.38,-21 450.74,-21 442.09,-21"/>
<polygon fill="midnightblue" stroke="midnightblue" points="467.97,-24.5 477.97,-21 467.97,-17.5 467.97,-24.5"/>
</g>
<!-- Node3 -->
<g id="node3" class="node">
<title>Node3</title>
<g id="a_node3"><a xlink:href="class_d_h_a_r_t_a_p_i_1_1_visibility_graph_1_1_visibility_graph.html#aae8c65cb810fbb1db7e314c566ee28ba" target="_top" xlink:title="Generate a directed visibility graph from nodes in group_a to the nodes in group_b.">
<polygon fill="white" stroke="black" points="0,-6 0,-36 185,-36 185,-6 0,-6"/>
<text text-anchor="start" x="8" y="-24" font-family="Helvetica,sans-Serif" font-size="10.00">DHARTAPI.VisibilityGraph.</text>
<text text-anchor="middle" x="92.5" y="-13" font-family="Helvetica,sans-Serif" font-size="10.00">VisibilityGraph.GenerateGroupToGroup</text>
</a>
</g>
</g>
<!-- Node2&#45;&gt;Node3 -->
<g id="edge2" class="edge">
<title>Node2&#45;&gt;Node3</title>
<path fill="none" stroke="midnightblue" d="M210.64,-21C202.09,-21 193.56,-21 185.2,-21"/>
<polygon fill="midnightblue" stroke="midnightblue" points="210.67,-24.5 220.67,-21 210.67,-17.5 210.67,-24.5"/>
</g>
</g>
</svg>
