<?xml version="1.0" encoding="UTF-8" standalone="no"?>
<!DOCTYPE svg PUBLIC "-//W3C//DTD SVG 1.1//EN"
 "http://www.w3.org/Graphics/SVG/1.1/DTD/svg11.dtd">
<!-- Generated by graphviz version 8.0.5 (20230430.1635)
 -->
<!-- Title: DHARTAPI.Geometry.MeshInfo.RotateMesh Pages: 1 -->
<svg width="705pt" height="176pt"
 viewBox="0.00 0.00 705.00 176.00" xmlns="http://www.w3.org/2000/svg" xmlns:xlink="http://www.w3.org/1999/xlink">
<g id="graph0" class="graph" transform="scale(1 1) rotate(0) translate(4 172)">
<title>DHARTAPI.Geometry.MeshInfo.RotateMesh</title>
<!-- Node1 -->
<g id="node1" class="node">
<title>Node1</title>
<g id="a_node1"><a xlink:title="Rotate this mesh by the desired magnitude.">
<polygon fill="#999999" stroke="#666666" points="154.75,-125 0,-125 0,-93 154.75,-93 154.75,-125"/>
<text text-anchor="start" x="8" y="-111.5" font-family="Helvetica,sans-Serif" font-size="10.00">DHARTAPI.Geometry.MeshInfo.</text>
<text text-anchor="middle" x="77.38" y="-99.5" font-family="Helvetica,sans-Serif" font-size="10.00">RotateMesh</text>
</a>
</g>
</g>
<!-- Node2 -->
<g id="node2" class="node">
<title>Node2</title>
<g id="a_node2"><a xlink:href="class_d_h_a_r_t_a_p_i_1_1_geometry_1_1_native_methods.html#ac7438861fb6a4dc35a5d29ef84409fd3" target="_top" xlink:title="Rotate an instance of MeshInfo.">
<polygon fill="white" stroke="#666666" points="337.63,-150 198.63,-150 198.63,-118 337.63,-118 337.63,-150"/>
<text text-anchor="start" x="206.63" y="-136.5" font-family="Helvetica,sans-Serif" font-size="10.00">DHARTAPI.Geometry.Native</text>
<text text-anchor="middle" x="268.13" y="-124.5" font-family="Helvetica,sans-Serif" font-size="10.00">Methods.C_RotateMesh</text>
</a>
</g>
</g>
<!-- Node1&#45;&gt;Node2 -->
<g id="edge1" class="edge">
<title>Node1&#45;&gt;Node2</title>
<path fill="none" stroke="#63b8ff" d="M155.15,-119.17C165.86,-120.59 176.89,-122.05 187.66,-123.47"/>
<polygon fill="#63b8ff" stroke="#63b8ff" points="186.94,-127.04 197.31,-124.89 187.86,-120.1 186.94,-127.04"/>
</g>
<!-- Node3 -->
<g id="node3" class="node">
<title>Node3</title>
<g id="a_node3"><a xlink:href="class_d_h_a_r_t_a_p_i_1_1_geometry_1_1_mesh_info.html#a0409ac3fbfba81d4d488c32defdf3655" target="_top" xlink:title="Updates this mesh&#39;s name, ID, and arrays with it&#39;s values from C++.">
<polygon fill="white" stroke="#666666" points="345.5,-100 190.75,-100 190.75,-68 345.5,-68 345.5,-100"/>
<text text-anchor="start" x="198.75" y="-86.5" font-family="Helvetica,sans-Serif" font-size="10.00">DHARTAPI.Geometry.MeshInfo.</text>
<text text-anchor="middle" x="268.13" y="-74.5" font-family="Helvetica,sans-Serif" font-size="10.00">UpdateIDNameAndArrays</text>
</a>
</g>
</g>
<!-- Node1&#45;&gt;Node3 -->
<g id="edge2" class="edge">
<title>Node1&#45;&gt;Node3</title>
<path fill="none" stroke="#63b8ff" d="M155.15,-98.83C163.24,-97.76 171.51,-96.66 179.7,-95.58"/>
<polygon fill="#63b8ff" stroke="#63b8ff" points="179.97,-98.94 189.42,-94.16 179.05,-92 179.97,-98.94"/>
</g>
<!-- Node4 -->
<g id="node4" class="node">
<title>Node4</title>
<g id="a_node4"><a xlink:href="class_d_h_a_r_t_a_p_i_1_1_geometry_1_1_native_methods.html#a8267d494ee36917f65146966a585793a" target="_top" xlink:title="Get pointers to the vertex and index arrays of a mesh in C++.">
<polygon fill="white" stroke="#666666" points="522,-168 381.5,-168 381.5,-136 522,-136 522,-168"/>
<text text-anchor="start" x="389.5" y="-154.5" font-family="Helvetica,sans-Serif" font-size="10.00">DHARTAPI.Geometry.Native</text>
<text text-anchor="middle" x="451.75" y="-142.5" font-family="Helvetica,sans-Serif" font-size="10.00">Methods.C_GetTrisAndVerts</text>
</a>
</g>
</g>
<!-- Node3&#45;&gt;Node4 -->
<g id="edge3" class="edge">
<title>Node3&#45;&gt;Node4</title>
<path fill="none" stroke="#63b8ff" d="M322.9,-100.5C330.55,-103.16 338.27,-106.03 345.5,-109 362.05,-115.8 365.06,-119.95 381.5,-127 385.12,-128.55 388.87,-130.09 392.67,-131.6"/>
<polygon fill="#63b8ff" stroke="#63b8ff" points="391.19,-135.17 401.78,-135.51 393.72,-128.64 391.19,-135.17"/>
</g>
<!-- Node6 -->
<g id="node6" class="node">
<title>Node6</title>
<g id="a_node6"><a xlink:href="class_d_h_a_r_t_a_p_i_1_1_geometry_1_1_native_methods.html#afa9349278d57b0497f92edb3dff2c152" target="_top" xlink:title="Get the ID of an instance of MeshInfo in c++.">
<polygon fill="white" stroke="#666666" points="521.25,-100 382.25,-100 382.25,-68 521.25,-68 521.25,-100"/>
<text text-anchor="start" x="390.25" y="-86.5" font-family="Helvetica,sans-Serif" font-size="10.00">DHARTAPI.Geometry.Native</text>
<text text-anchor="middle" x="451.75" y="-74.5" font-family="Helvetica,sans-Serif" font-size="10.00">Methods.GetMeshID</text>
</a>
</g>
</g>
<!-- Node3&#45;&gt;Node6 -->
<g id="edge5" class="edge">
<title>Node3&#45;&gt;Node6</title>
<path fill="none" stroke="#63b8ff" d="M345.89,-84C354.17,-84 362.61,-84 370.92,-84"/>
<polygon fill="#63b8ff" stroke="#63b8ff" points="370.76,-87.5 380.76,-84 370.76,-80.5 370.76,-87.5"/>
</g>
<!-- Node7 -->
<g id="node7" class="node">
<title>Node7</title>
<g id="a_node7"><a xlink:href="class_d_h_a_r_t_a_p_i_1_1_geometry_1_1_native_methods.html#a1fe911a338ef131e97f4be6feb506615" target="_top" xlink:title="Get the name of an instance of MeshInfo in c++.">
<polygon fill="white" stroke="#666666" points="521.25,-32 382.25,-32 382.25,0 521.25,0 521.25,-32"/>
<text text-anchor="start" x="390.25" y="-18.5" font-family="Helvetica,sans-Serif" font-size="10.00">DHARTAPI.Geometry.Native</text>
<text text-anchor="middle" x="451.75" y="-6.5" font-family="Helvetica,sans-Serif" font-size="10.00">Methods.GetMeshName</text>
</a>
</g>
</g>
<!-- Node3&#45;&gt;Node7 -->
<g id="edge7" class="edge">
<title>Node3&#45;&gt;Node7</title>
<path fill="none" stroke="#63b8ff" d="M313.09,-67.54C338.32,-58.09 370.19,-46.16 396.91,-36.16"/>
<polygon fill="#63b8ff" stroke="#63b8ff" points="397.74,-39.21 405.87,-32.43 395.28,-32.66 397.74,-39.21"/>
</g>
<!-- Node5 -->
<g id="node5" class="node">
<title>Node5</title>
<g id="a_node5"><a xlink:href="class_d_h_a_r_t_a_p_i_1_1_geometry_1_1_native_methods.html#abbb9461128f297e7b82417a549a056e9" target="_top" xlink:title=" ">
<polygon fill="white" stroke="#666666" points="697,-168 558,-168 558,-136 697,-136 697,-168"/>
<text text-anchor="start" x="566" y="-154.5" font-family="Helvetica,sans-Serif" font-size="10.00">DHARTAPI.Geometry.Native</text>
<text text-anchor="middle" x="627.5" y="-142.5" font-family="Helvetica,sans-Serif" font-size="10.00">Methods.GetVertsAndTris</text>
</a>
</g>
</g>
<!-- Node4&#45;&gt;Node5 -->
<g id="edge4" class="edge">
<title>Node4&#45;&gt;Node5</title>
<path fill="none" stroke="#63b8ff" d="M522.42,-152C530.4,-152 538.59,-152 546.69,-152"/>
<polygon fill="#63b8ff" stroke="#63b8ff" points="546.66,-155.5 556.66,-152 546.66,-148.5 546.66,-155.5"/>
</g>
<!-- Node6&#45;&gt;Node6 -->
<g id="edge6" class="edge">
<title>Node6&#45;&gt;Node6</title>
<path fill="none" stroke="#63b8ff" d="M420.37,-100.44C414.52,-109.58 424.98,-118 451.75,-118 467.23,-118 477.25,-115.19 481.83,-111.05"/>
<polygon fill="#63b8ff" stroke="#63b8ff" points="485.38,-111.79 483.13,-101.44 478.44,-110.94 485.38,-111.79"/>
</g>
<!-- Node7&#45;&gt;Node7 -->
<g id="edge9" class="edge">
<title>Node7&#45;&gt;Node7</title>
<path fill="none" stroke="#63b8ff" d="M420.37,-32.44C414.52,-41.58 424.98,-50 451.75,-50 467.23,-50 477.25,-47.19 481.83,-43.05"/>
<polygon fill="#63b8ff" stroke="#63b8ff" points="485.38,-43.79 483.13,-33.44 478.44,-42.94 485.38,-43.79"/>
</g>
<!-- Node8 -->
<g id="node8" class="node">
<title>Node8</title>
<g id="a_node8"><a xlink:href="class_d_h_a_r_t_a_p_i_1_1_geometry_1_1_native_methods.html#a2d22148d6821031e97d7305df6e9fde0" target="_top" xlink:title=" ">
<polygon fill="white" stroke="#666666" points="697,-32 558,-32 558,0 697,0 697,-32"/>
<text text-anchor="start" x="566" y="-18.5" font-family="Helvetica,sans-Serif" font-size="10.00">DHARTAPI.Geometry.Native</text>
<text text-anchor="middle" x="627.5" y="-6.5" font-family="Helvetica,sans-Serif" font-size="10.00">Methods.DestroyCharArray</text>
</a>
</g>
</g>
<!-- Node7&#45;&gt;Node8 -->
<g id="edge8" class="edge">
<title>Node7&#45;&gt;Node8</title>
<path fill="none" stroke="#63b8ff" d="M521.42,-16C529.82,-16 538.47,-16 547.01,-16"/>
<polygon fill="#63b8ff" stroke="#63b8ff" points="546.76,-19.5 556.76,-16 546.76,-12.5 546.76,-19.5"/>
</g>
</g>
</svg>
