<?xml version="1.0" encoding="UTF-8" standalone="no"?>
<!DOCTYPE svg PUBLIC "-//W3C//DTD SVG 1.1//EN"
 "http://www.w3.org/Graphics/SVG/1.1/DTD/svg11.dtd">
<!-- Generated by graphviz version 8.0.5 (20230430.1635)
 -->
<!-- Title: DHARTAPI.Geometry.CommonRotations Pages: 1 -->
<svg width="160pt" height="212pt"
 viewBox="0.00 0.00 159.75 212.00" xmlns="http://www.w3.org/2000/svg" xmlns:xlink="http://www.w3.org/1999/xlink">
<g id="graph0" class="graph" transform="scale(1 1) rotate(0) translate(4 208)">
<title>DHARTAPI.Geometry.CommonRotations</title>
<!-- Node1 -->
<g id="node1" class="node">
<title>Node1</title>
<g id="a_node1"><a xlink:title="A collection of rotations that are frequently useful in DHARTAPI.">
<polygon fill="#999999" stroke="#666666" points="151.75,-32 0,-32 0,0 151.75,0 151.75,-32"/>
<text text-anchor="start" x="8" y="-18.5" font-family="Helvetica,sans-Serif" font-size="10.00">DHARTAPI.Geometry.Common</text>
<text text-anchor="middle" x="75.88" y="-6.5" font-family="Helvetica,sans-Serif" font-size="10.00">Rotations</text>
</a>
</g>
</g>
<!-- Node2 -->
<g id="node2" class="node">
<title>Node2</title>
<g id="a_node2"><a xlink:href="struct_d_h_a_r_t_a_p_i_1_1_vector3_d.html" target="_top" xlink:title="A three dimensional vector with built in utility functions.">
<polygon fill="white" stroke="#666666" points="129.63,-112 22.13,-112 22.13,-92 129.63,-92 129.63,-112"/>
<text text-anchor="middle" x="75.88" y="-98.5" font-family="Helvetica,sans-Serif" font-size="10.00">DHARTAPI.Vector3D</text>
</a>
</g>
</g>
<!-- Node2&#45;&gt;Node1 -->
<g id="edge1" class="edge">
<title>Node2&#45;&gt;Node1</title>
<path fill="none" stroke="#9a32cd" stroke-dasharray="5,2" d="M75.88,-81.05C75.88,-66.12 75.88,-46 75.88,-32.32"/>
<polygon fill="#9a32cd" stroke="#9a32cd" points="72.38,-80.69 75.88,-90.69 79.38,-80.69 72.38,-80.69"/>
<text text-anchor="middle" x="104.38" y="-64.5" font-family="Helvetica,sans-Serif" font-size="10.00"> Yup_To_Zup</text>
<text text-anchor="middle" x="104.38" y="-52.5" font-family="Helvetica,sans-Serif" font-size="10.00">Zup_To_Yup</text>
</g>
<!-- Node3 -->
<g id="node3" class="node">
<title>Node3</title>
<g id="a_node3"><a xlink:title=" ">
<polygon fill="white" stroke="#666666" points="92.88,-204 58.88,-204 58.88,-184 92.88,-184 92.88,-204"/>
<text text-anchor="middle" x="75.88" y="-190.5" font-family="Helvetica,sans-Serif" font-size="10.00">float</text>
</a>
</g>
</g>
<!-- Node3&#45;&gt;Node2 -->
<g id="edge2" class="edge">
<title>Node3&#45;&gt;Node2</title>
<path fill="none" stroke="#9a32cd" stroke-dasharray="5,2" d="M75.88,-172.75C75.88,-153.87 75.88,-126.58 75.88,-112.38"/>
<polygon fill="#9a32cd" stroke="#9a32cd" points="72.38,-172.71 75.88,-182.71 79.38,-172.71 72.38,-172.71"/>
<text text-anchor="middle" x="80" y="-156.5" font-family="Helvetica,sans-Serif" font-size="10.00"> x</text>
<text text-anchor="middle" x="80" y="-144.5" font-family="Helvetica,sans-Serif" font-size="10.00">y</text>
<text text-anchor="middle" x="80" y="-132.5" font-family="Helvetica,sans-Serif" font-size="10.00">z</text>
</g>
</g>
</svg>
