<?xml version="1.0" encoding="UTF-8" standalone="no"?>
<!DOCTYPE svg PUBLIC "-//W3C//DTD SVG 1.1//EN"
 "http://www.w3.org/Graphics/SVG/1.1/DTD/svg11.dtd">
<!-- Generated by graphviz version 2.43.0 (0)
 -->
<!-- Title: HumanFactors.Pathfinding.ShortestPath.DijkstraShortestPathMulti Pages: 1 -->
<svg width="844pt" height="39pt"
 viewBox="0.00 0.00 844.00 39.00" xmlns="http://www.w3.org/2000/svg" xmlns:xlink="http://www.w3.org/1999/xlink">
<g id="graph0" class="graph" transform="scale(1 1) rotate(0) translate(4 35)">
<title>HumanFactors.Pathfinding.ShortestPath.DijkstraShortestPathMulti</title>
<polygon fill="white" stroke="transparent" points="-4,4 -4,-35 840,-35 840,4 -4,4"/>
<!-- Node1 -->
<g id="node1" class="node">
<title>Node1</title>
<g id="a_node1"><a xlink:title="Find the shortest paths between each pair of start_id and end_id in order.">
<polygon fill="#bfbfbf" stroke="black" points="0,-0.5 0,-30.5 206,-30.5 206,-0.5 0,-0.5"/>
<text text-anchor="start" x="8" y="-18.5" font-family="Helvetica,sans-Serif" font-size="10.00">HumanFactors.Pathfinding.</text>
<text text-anchor="middle" x="103" y="-7.5" font-family="Helvetica,sans-Serif" font-size="10.00">ShortestPath.DijkstraShortestPathMulti</text>
</a>
</g>
</g>
<!-- Node2 -->
<g id="node2" class="node">
<title>Node2</title>
<g id="a_node2"><a xlink:href="class_human_factors_1_1_pathfinding_1_1_shortest_path.html#ab7f58f298125194e33d6c69ed4797442" target="_top" xlink:title="Find the shortest paths between each pair of start_id and end_id in order.">
<polygon fill="white" stroke="black" points="242,-0.5 242,-30.5 448,-30.5 448,-0.5 242,-0.5"/>
<text text-anchor="start" x="250" y="-18.5" font-family="Helvetica,sans-Serif" font-size="10.00">HumanFactors.Pathfinding.</text>
<text text-anchor="middle" x="345" y="-7.5" font-family="Helvetica,sans-Serif" font-size="10.00">ShortestPath.DijkstraShortestPathMulti</text>
</a>
</g>
</g>
<!-- Node1&#45;&gt;Node2 -->
<g id="edge1" class="edge">
<title>Node1&#45;&gt;Node2</title>
<path fill="none" stroke="midnightblue" d="M206.13,-15.5C214.66,-15.5 223.31,-15.5 231.91,-15.5"/>
<polygon fill="midnightblue" stroke="midnightblue" points="231.96,-19 241.96,-15.5 231.96,-12 231.96,-19"/>
</g>
<!-- Node3 -->
<g id="node3" class="node">
<title>Node3</title>
<g id="a_node3"><a xlink:href="class_human_factors_1_1_pathfinding_1_1_native_methods.html#a1b79d24699fd670918524395024e9777" target="_top" xlink:title="Generate a path from start to end.">
<polygon fill="white" stroke="black" points="484,-0.5 484,-30.5 648,-30.5 648,-0.5 484,-0.5"/>
<text text-anchor="start" x="492" y="-18.5" font-family="Helvetica,sans-Serif" font-size="10.00">HumanFactors.Pathfinding.</text>
<text text-anchor="middle" x="566" y="-7.5" font-family="Helvetica,sans-Serif" font-size="10.00">NativeMethods.C_CreatePaths</text>
</a>
</g>
</g>
<!-- Node2&#45;&gt;Node3 -->
<g id="edge2" class="edge">
<title>Node2&#45;&gt;Node3</title>
<path fill="none" stroke="midnightblue" d="M448.13,-15.5C456.61,-15.5 465.15,-15.5 473.55,-15.5"/>
<polygon fill="midnightblue" stroke="midnightblue" points="473.7,-19 483.7,-15.5 473.7,-12 473.7,-19"/>
</g>
<!-- Node4 -->
<g id="node4" class="node">
<title>Node4</title>
<g id="a_node4"><a xlink:href="class_human_factors_1_1_pathfinding_1_1_native_methods.html#a4c51a6d9191bd802e1d66c5bedd0ee07" target="_top" xlink:title=" ">
<polygon fill="white" stroke="black" points="684,-0.5 684,-30.5 836,-30.5 836,-0.5 684,-0.5"/>
<text text-anchor="start" x="692" y="-18.5" font-family="Helvetica,sans-Serif" font-size="10.00">HumanFactors.Pathfinding.</text>
<text text-anchor="middle" x="760" y="-7.5" font-family="Helvetica,sans-Serif" font-size="10.00">NativeMethods.CreatePaths</text>
</a>
</g>
</g>
<!-- Node3&#45;&gt;Node4 -->
<g id="edge3" class="edge">
<title>Node3&#45;&gt;Node4</title>
<path fill="none" stroke="midnightblue" d="M648.15,-15.5C656.59,-15.5 665.18,-15.5 673.67,-15.5"/>
<polygon fill="midnightblue" stroke="midnightblue" points="673.95,-19 683.95,-15.5 673.94,-12 673.95,-19"/>
</g>
</g>
</svg>
