<?xml version="1.0" encoding="UTF-8" standalone="no"?>
<!DOCTYPE svg PUBLIC "-//W3C//DTD SVG 1.1//EN"
 "http://www.w3.org/Graphics/SVG/1.1/DTD/svg11.dtd">
<!-- Generated by graphviz version 2.43.0 (0)
 -->
<!-- Title: HumanFactors.SpatialStructures.Graph.CompressToCSR Pages: 1 -->
<svg width="614pt" height="39pt"
 viewBox="0.00 0.00 614.00 39.00" xmlns="http://www.w3.org/2000/svg" xmlns:xlink="http://www.w3.org/1999/xlink">
<g id="graph0" class="graph" transform="scale(1 1) rotate(0) translate(4 35)">
<title>HumanFactors.SpatialStructures.Graph.CompressToCSR</title>
<polygon fill="white" stroke="transparent" points="-4,4 -4,-35 610,-35 610,4 -4,4"/>
<!-- Node1 -->
<g id="node1" class="node">
<title>Node1</title>
<g id="a_node1"><a xlink:title="Compress the graph into a CSR representation, and get pointers to it.">
<polygon fill="#bfbfbf" stroke="black" points="0,-0.5 0,-30.5 176,-30.5 176,-0.5 0,-0.5"/>
<text text-anchor="start" x="8" y="-18.5" font-family="Helvetica,sans-Serif" font-size="10.00">HumanFactors.SpatialStructures.</text>
<text text-anchor="middle" x="88" y="-7.5" font-family="Helvetica,sans-Serif" font-size="10.00">Graph.CompressToCSR</text>
</a>
</g>
</g>
<!-- Node2 -->
<g id="node2" class="node">
<title>Node2</title>
<g id="a_node2"><a xlink:href="class_human_factors_1_1_spatial_structures_1_1_native_methods.html#a6ed59ccf6ca4b02b79b12b724afddce9" target="_top" xlink:title="Compress a graph and get the data required to reconstruct its CSR.">
<polygon fill="white" stroke="black" points="212,-0.5 212,-30.5 394,-30.5 394,-0.5 212,-0.5"/>
<text text-anchor="start" x="220" y="-18.5" font-family="Helvetica,sans-Serif" font-size="10.00">HumanFactors.SpatialStructures.</text>
<text text-anchor="middle" x="303" y="-7.5" font-family="Helvetica,sans-Serif" font-size="10.00">NativeMethods.C_GetCSRPointers</text>
</a>
</g>
</g>
<!-- Node1&#45;&gt;Node2 -->
<g id="edge1" class="edge">
<title>Node1&#45;&gt;Node2</title>
<path fill="none" stroke="midnightblue" d="M176.25,-15.5C184.58,-15.5 193.07,-15.5 201.52,-15.5"/>
<polygon fill="midnightblue" stroke="midnightblue" points="201.78,-19 211.78,-15.5 201.78,-12 201.78,-19"/>
</g>
<!-- Node3 -->
<g id="node3" class="node">
<title>Node3</title>
<g id="a_node3"><a xlink:href="class_human_factors_1_1_spatial_structures_1_1_native_methods.html#a89e694675c5103650eaec1fff04704ad" target="_top" xlink:title=" ">
<polygon fill="white" stroke="black" points="430,-0.5 430,-30.5 606,-30.5 606,-0.5 430,-0.5"/>
<text text-anchor="start" x="438" y="-18.5" font-family="Helvetica,sans-Serif" font-size="10.00">HumanFactors.SpatialStructures.</text>
<text text-anchor="middle" x="518" y="-7.5" font-family="Helvetica,sans-Serif" font-size="10.00">NativeMethods.GetCSRPointers</text>
</a>
</g>
</g>
<!-- Node2&#45;&gt;Node3 -->
<g id="edge2" class="edge">
<title>Node2&#45;&gt;Node3</title>
<path fill="none" stroke="midnightblue" d="M394.02,-15.5C402.42,-15.5 410.95,-15.5 419.41,-15.5"/>
<polygon fill="midnightblue" stroke="midnightblue" points="419.68,-19 429.68,-15.5 419.68,-12 419.68,-19"/>
</g>
</g>
</svg>
