<?xml version="1.0" encoding="UTF-8" standalone="no"?>
<!DOCTYPE svg PUBLIC "-//W3C//DTD SVG 1.1//EN"
 "http://www.w3.org/Graphics/SVG/1.1/DTD/svg11.dtd">
<!-- Generated by graphviz version 8.0.5 (20230430.1635)
 -->
<!-- Title: DHARTAPI.SpatialStructures.NativeMethods.C_GetNodeAttributes Pages: 1 -->
<svg width="382pt" height="90pt"
 viewBox="0.00 0.00 382.00 90.00" xmlns="http://www.w3.org/2000/svg" xmlns:xlink="http://www.w3.org/1999/xlink">
<g id="graph0" class="graph" transform="scale(1 1) rotate(0) translate(4 86)">
<title>DHARTAPI.SpatialStructures.NativeMethods.C_GetNodeAttributes</title>
<!-- Node1 -->
<g id="node1" class="node">
<title>Node1</title>
<g id="a_node1"><a xlink:title="Get node attirbutes from a graph in C++.">
<polygon fill="#999999" stroke="#666666" points="175,-57 0,-57 0,-25 175,-25 175,-57"/>
<text text-anchor="start" x="8" y="-43.5" font-family="Helvetica,sans-Serif" font-size="10.00">DHARTAPI.SpatialStructures.</text>
<text text-anchor="middle" x="87.5" y="-31.5" font-family="Helvetica,sans-Serif" font-size="10.00">NativeMethods.C_GetNodeAttributes</text>
</a>
</g>
</g>
<!-- Node2 -->
<g id="node2" class="node">
<title>Node2</title>
<g id="a_node2"><a xlink:href="class_d_h_a_r_t_a_p_i_1_1_spatial_structures_1_1_native_methods.html#af9d125dd01a04240e9b14d3c1468341f" target="_top" xlink:title=" ">
<polygon fill="white" stroke="#666666" points="372.13,-82 212.88,-82 212.88,-50 372.13,-50 372.13,-82"/>
<text text-anchor="start" x="220.88" y="-68.5" font-family="Helvetica,sans-Serif" font-size="10.00">DHARTAPI.SpatialStructures.</text>
<text text-anchor="middle" x="292.5" y="-56.5" font-family="Helvetica,sans-Serif" font-size="10.00">NativeMethods.DeleteScoreArray</text>
</a>
</g>
</g>
<!-- Node1&#45;&gt;Node2 -->
<g id="edge1" class="edge">
<title>Node1&#45;&gt;Node2</title>
<path fill="none" stroke="#63b8ff" d="M175.47,-51.71C184.1,-52.77 192.87,-53.85 201.52,-54.92"/>
<polygon fill="#63b8ff" stroke="#63b8ff" points="201.05,-58.51 211.41,-56.26 201.91,-51.56 201.05,-58.51"/>
</g>
<!-- Node3 -->
<g id="node3" class="node">
<title>Node3</title>
<g id="a_node3"><a xlink:href="class_d_h_a_r_t_a_p_i_1_1_spatial_structures_1_1_native_methods.html#a388dd99e92421839d363918621f4b1ff" target="_top" xlink:title=" ">
<polygon fill="white" stroke="#666666" points="374,-32 211,-32 211,0 374,0 374,-32"/>
<text text-anchor="start" x="219" y="-18.5" font-family="Helvetica,sans-Serif" font-size="10.00">DHARTAPI.SpatialStructures.</text>
<text text-anchor="middle" x="292.5" y="-6.5" font-family="Helvetica,sans-Serif" font-size="10.00">NativeMethods.GetNodeAttributes</text>
</a>
</g>
</g>
<!-- Node1&#45;&gt;Node3 -->
<g id="edge2" class="edge">
<title>Node1&#45;&gt;Node3</title>
<path fill="none" stroke="#63b8ff" d="M175.47,-30.29C183.63,-29.28 191.91,-28.26 200.11,-27.26"/>
<polygon fill="#63b8ff" stroke="#63b8ff" points="200.31,-30.63 209.81,-25.94 199.46,-23.69 200.31,-30.63"/>
</g>
</g>
</svg>
