<?xml version="1.0" encoding="UTF-8" standalone="no"?>
<!DOCTYPE svg PUBLIC "-//W3C//DTD SVG 1.1//EN"
 "http://www.w3.org/Graphics/SVG/1.1/DTD/svg11.dtd">
<!-- Generated by graphviz version 8.0.5 (20230430.1635)
 -->
<!-- Title: DHARTAPI.Pathfinding.ShortestPath.DijkstraShortestPath Pages: 1 -->
<svg width="721pt" height="115pt"
 viewBox="0.00 0.00 720.75 115.00" xmlns="http://www.w3.org/2000/svg" xmlns:xlink="http://www.w3.org/1999/xlink">
<g id="graph0" class="graph" transform="scale(1 1) rotate(0) translate(4 111)">
<title>DHARTAPI.Pathfinding.ShortestPath.DijkstraShortestPath</title>
<!-- Node1 -->
<g id="node1" class="node">
<title>Node1</title>
<g id="a_node1"><a xlink:title="Perform Dijkstra&#39;s shortest path algorithm to find a path between two nodes.">
<polygon fill="#999999" stroke="#666666" points="154.75,-57 0,-57 0,-25 154.75,-25 154.75,-57"/>
<text text-anchor="start" x="8" y="-43.5" font-family="Helvetica,sans-Serif" font-size="10.00">DHARTAPI.Pathfinding.Shortest</text>
<text text-anchor="middle" x="77.38" y="-31.5" font-family="Helvetica,sans-Serif" font-size="10.00">Path.DijkstraShortestPath</text>
</a>
</g>
</g>
<!-- Node2 -->
<g id="node2" class="node">
<title>Node2</title>
<g id="a_node2"><a xlink:href="class_d_h_a_r_t_a_p_i_1_1_pathfinding_1_1_shortest_path.html#a5f2c0aa645a9c1c6f87a693a57c958cd" target="_top" xlink:title="Perform Dijkstra&#39;s shortest path algorithm to find a path between two nodes.">
<polygon fill="white" stroke="#666666" points="345.5,-82 190.75,-82 190.75,-50 345.5,-50 345.5,-82"/>
<text text-anchor="start" x="198.75" y="-68.5" font-family="Helvetica,sans-Serif" font-size="10.00">DHARTAPI.Pathfinding.Shortest</text>
<text text-anchor="middle" x="268.13" y="-56.5" font-family="Helvetica,sans-Serif" font-size="10.00">Path.DijkstraShortestPath</text>
</a>
</g>
</g>
<!-- Node1&#45;&gt;Node2 -->
<g id="edge1" class="edge">
<title>Node1&#45;&gt;Node2</title>
<path fill="none" stroke="#63b8ff" d="M155.15,-51.17C163.24,-52.24 171.51,-53.34 179.7,-54.42"/>
<polygon fill="#63b8ff" stroke="#63b8ff" points="179.05,-58 189.42,-55.84 179.97,-51.06 179.05,-58"/>
</g>
<!-- Node6 -->
<g id="node6" class="node">
<title>Node6</title>
<g id="a_node6"><a xlink:href="class_d_h_a_r_t_a_p_i_1_1_spatial_structures_1_1_graph.html#a77969fa86773ec1292038beaf8ed50d2" target="_top" xlink:title="Gets the ID of a node in the graph.">
<polygon fill="white" stroke="#666666" points="340.63,-32 195.63,-32 195.63,0 340.63,0 340.63,-32"/>
<text text-anchor="start" x="203.63" y="-18.5" font-family="Helvetica,sans-Serif" font-size="10.00">DHARTAPI.SpatialStructures.</text>
<text text-anchor="middle" x="268.13" y="-6.5" font-family="Helvetica,sans-Serif" font-size="10.00">Graph.GetNodeID</text>
</a>
</g>
</g>
<!-- Node1&#45;&gt;Node6 -->
<g id="edge5" class="edge">
<title>Node1&#45;&gt;Node6</title>
<path fill="none" stroke="#63b8ff" d="M155.15,-30.83C164.79,-29.55 174.68,-28.24 184.41,-26.96"/>
<polygon fill="#63b8ff" stroke="#63b8ff" points="184.84,-30.3 194.3,-25.51 183.92,-23.36 184.84,-30.3"/>
</g>
<!-- Node3 -->
<g id="node3" class="node">
<title>Node3</title>
<g id="a_node3"><a xlink:href="class_d_h_a_r_t_a_p_i_1_1_pathfinding_1_1_native_methods.html#ae3b5181186bfdce3c11c553e674ed621" target="_top" xlink:title="Generate a path from start to end.">
<polygon fill="white" stroke="#666666" points="529.13,-107 384.88,-107 384.88,-75 529.13,-75 529.13,-107"/>
<text text-anchor="start" x="392.88" y="-93.5" font-family="Helvetica,sans-Serif" font-size="10.00">DHARTAPI.Pathfinding.Native</text>
<text text-anchor="middle" x="457" y="-81.5" font-family="Helvetica,sans-Serif" font-size="10.00">Methods.C_CreatePath</text>
</a>
</g>
</g>
<!-- Node2&#45;&gt;Node3 -->
<g id="edge2" class="edge">
<title>Node2&#45;&gt;Node3</title>
<path fill="none" stroke="#63b8ff" d="M345.94,-76.28C355.13,-77.51 364.54,-78.76 373.8,-80"/>
<polygon fill="#63b8ff" stroke="#63b8ff" points="373.21,-83.59 383.59,-81.45 374.14,-76.65 373.21,-83.59"/>
</g>
<!-- Node5 -->
<g id="node5" class="node">
<title>Node5</title>
<g id="a_node5"><a xlink:href="struct_d_h_a_r_t_a_p_i_1_1_native_utils_1_1_c_vector_and_data.html#ad50dc2612c71c1c86de883129f18d947" target="_top" xlink:title="Determine whether or not this CVectorAndData points to a actual vector.">
<polygon fill="white" stroke="#666666" points="532.5,-57 381.5,-57 381.5,-25 532.5,-25 532.5,-57"/>
<text text-anchor="start" x="389.5" y="-43.5" font-family="Helvetica,sans-Serif" font-size="10.00">DHARTAPI.NativeUtils.CVector</text>
<text text-anchor="middle" x="457" y="-31.5" font-family="Helvetica,sans-Serif" font-size="10.00">AndData.IsValid</text>
</a>
</g>
</g>
<!-- Node2&#45;&gt;Node5 -->
<g id="edge4" class="edge">
<title>Node2&#45;&gt;Node5</title>
<path fill="none" stroke="#63b8ff" d="M345.94,-55.72C354.06,-54.64 362.36,-53.53 370.57,-52.43"/>
<polygon fill="#63b8ff" stroke="#63b8ff" points="370.84,-55.79 380.29,-50.99 369.91,-48.85 370.84,-55.79"/>
</g>
<!-- Node4 -->
<g id="node4" class="node">
<title>Node4</title>
<g id="a_node4"><a xlink:href="class_d_h_a_r_t_a_p_i_1_1_pathfinding_1_1_native_methods.html#a6376f474d4284b049b2045d942daa7fe" target="_top" xlink:title=" ">
<polygon fill="white" stroke="#666666" points="712.75,-107 568.5,-107 568.5,-75 712.75,-75 712.75,-107"/>
<text text-anchor="start" x="576.5" y="-93.5" font-family="Helvetica,sans-Serif" font-size="10.00">DHARTAPI.Pathfinding.Native</text>
<text text-anchor="middle" x="640.63" y="-81.5" font-family="Helvetica,sans-Serif" font-size="10.00">Methods.CreatePath</text>
</a>
</g>
</g>
<!-- Node3&#45;&gt;Node4 -->
<g id="edge3" class="edge">
<title>Node3&#45;&gt;Node4</title>
<path fill="none" stroke="#63b8ff" d="M529.52,-91C538.66,-91 548.06,-91 557.35,-91"/>
<polygon fill="#63b8ff" stroke="#63b8ff" points="557.17,-94.5 567.17,-91 557.17,-87.5 557.17,-94.5"/>
</g>
</g>
</svg>
