<?xml version="1.0" encoding="UTF-8" standalone="no"?>
<!DOCTYPE svg PUBLIC "-//W3C//DTD SVG 1.1//EN"
 "http://www.w3.org/Graphics/SVG/1.1/DTD/svg11.dtd">
<!-- Generated by graphviz version 4.0.0 (20220529.0937)
 -->
<!-- Title: HumanFactors.NativeUtils.NativeObject Pages: 1 -->
<svg width="786pt" height="176pt"
 viewBox="0.00 0.00 786.00 175.50" xmlns="http://www.w3.org/2000/svg" xmlns:xlink="http://www.w3.org/1999/xlink">
<g id="graph0" class="graph" transform="scale(1 1) rotate(0) translate(4 171.5)">
<title>HumanFactors.NativeUtils.NativeObject</title>
<polygon fill="white" stroke="transparent" points="-4,4 -4,-171.5 782,-171.5 782,4 -4,4"/>
<!-- Node1 -->
<g id="node1" class="node">
<title>Node1</title>
<g id="a_node1"><a xlink:title="An object that holds a pointer to unmanaged memory or some other resource that must be freed.">
<polygon fill="#bfbfbf" stroke="black" points="102,-73.5 102,-103.5 234,-103.5 234,-73.5 102,-73.5"/>
<text text-anchor="start" x="110" y="-91.5" font-family="Helvetica,sans-Serif" font-size="10.00">HumanFactors.NativeUtils.</text>
<text text-anchor="middle" x="168" y="-80.5" font-family="Helvetica,sans-Serif" font-size="10.00">NativeObject</text>
</a>
</g>
</g>
<!-- Node3 -->
<g id="node3" class="node">
<title>Node3</title>
<g id="a_node3"><a xlink:href="class_human_factors_1_1_geometry_1_1_mesh_info.html" target="_top" xlink:title="A collection of vertices and indices representing geometry.">
<polygon fill="white" stroke="black" points="270,-148 270,-167 438,-167 438,-148 270,-148"/>
<text text-anchor="middle" x="354" y="-155" font-family="Helvetica,sans-Serif" font-size="10.00">HumanFactors.Geometry.MeshInfo</text>
</a>
</g>
</g>
<!-- Node1&#45;&gt;Node3 -->
<g id="edge2" class="edge">
<title>Node1&#45;&gt;Node3</title>
<path fill="none" stroke="midnightblue" d="M205.04,-108.33C223.95,-118.13 247.77,-129.53 270,-137.5 281.3,-141.55 293.76,-145.04 305.51,-147.92"/>
<polygon fill="midnightblue" stroke="midnightblue" points="206.65,-105.22 196.17,-103.67 203.39,-111.42 206.65,-105.22"/>
</g>
<!-- Node4 -->
<g id="node4" class="node">
<title>Node4</title>
<g id="a_node4"><a xlink:href="class_human_factors_1_1_native_utils_1_1_native_array.html" target="_top" xlink:title="A read&#45;only array stored in unmanaged memory.">
<polygon fill="white" stroke="black" points="288,-98.5 288,-128.5 420,-128.5 420,-98.5 288,-98.5"/>
<text text-anchor="start" x="296" y="-116.5" font-family="Helvetica,sans-Serif" font-size="10.00">HumanFactors.NativeUtils.</text>
<text text-anchor="middle" x="354" y="-105.5" font-family="Helvetica,sans-Serif" font-size="10.00">NativeArray&lt; T &gt;</text>
</a>
</g>
</g>
<!-- Node1&#45;&gt;Node4 -->
<g id="edge3" class="edge">
<title>Node1&#45;&gt;Node4</title>
<path fill="none" stroke="midnightblue" d="M244.09,-98.7C258.64,-100.68 273.77,-102.73 287.96,-104.66"/>
<polygon fill="midnightblue" stroke="midnightblue" points="244.51,-95.23 234.13,-97.35 243.57,-102.16 244.51,-95.23"/>
</g>
<!-- Node7 -->
<g id="node7" class="node">
<title>Node7</title>
<g id="a_node7"><a xlink:href="class_human_factors_1_1_ray_tracing_1_1_embree_b_v_h.html" target="_top" xlink:title="A Bounding Volume Hierarchy for the EmbreeRaytracer.">
<polygon fill="white" stroke="black" points="286.5,-49.5 286.5,-79.5 421.5,-79.5 421.5,-49.5 286.5,-49.5"/>
<text text-anchor="start" x="294.5" y="-67.5" font-family="Helvetica,sans-Serif" font-size="10.00">HumanFactors.RayTracing.</text>
<text text-anchor="middle" x="354" y="-56.5" font-family="Helvetica,sans-Serif" font-size="10.00">EmbreeBVH</text>
</a>
</g>
</g>
<!-- Node1&#45;&gt;Node7 -->
<g id="edge6" class="edge">
<title>Node1&#45;&gt;Node7</title>
<path fill="none" stroke="midnightblue" d="M244.2,-78.69C258.18,-76.87 272.7,-74.97 286.4,-73.19"/>
<polygon fill="midnightblue" stroke="midnightblue" points="243.59,-75.24 234.13,-80 244.5,-82.18 243.59,-75.24"/>
</g>
<!-- Node8 -->
<g id="node8" class="node">
<title>Node8</title>
<g id="a_node8"><a xlink:href="class_human_factors_1_1_spatial_structures_1_1_graph.html" target="_top" xlink:title="A graph representing connections between points in space.">
<polygon fill="white" stroke="black" points="273.5,-0.5 273.5,-30.5 434.5,-30.5 434.5,-0.5 273.5,-0.5"/>
<text text-anchor="start" x="281.5" y="-18.5" font-family="Helvetica,sans-Serif" font-size="10.00">HumanFactors.SpatialStructures.</text>
<text text-anchor="middle" x="354" y="-7.5" font-family="Helvetica,sans-Serif" font-size="10.00">Graph</text>
</a>
</g>
</g>
<!-- Node1&#45;&gt;Node8 -->
<g id="edge7" class="edge">
<title>Node1&#45;&gt;Node8</title>
<path fill="none" stroke="midnightblue" d="M205.85,-68.75C224.7,-59.13 248.21,-47.87 270,-39.5 278.26,-36.33 287.12,-33.34 295.87,-30.63"/>
<polygon fill="midnightblue" stroke="midnightblue" points="204.01,-65.76 196.73,-73.46 207.22,-71.98 204.01,-65.76"/>
</g>
<!-- Node2 -->
<g id="node2" class="node">
<title>Node2</title>
<g id="a_node2"><a xlink:href="class_safe_handle.html" target="_top" xlink:title=" ">
<polygon fill="white" stroke="black" points="0,-79 0,-98 66,-98 66,-79 0,-79"/>
<text text-anchor="middle" x="33" y="-86" font-family="Helvetica,sans-Serif" font-size="10.00">SafeHandle</text>
</a>
</g>
</g>
<!-- Node2&#45;&gt;Node1 -->
<g id="edge1" class="edge">
<title>Node2&#45;&gt;Node1</title>
<path fill="none" stroke="midnightblue" d="M76.25,-88.5C84.46,-88.5 93.24,-88.5 101.99,-88.5"/>
<polygon fill="midnightblue" stroke="midnightblue" points="76.2,-85 66.2,-88.5 76.2,-92 76.2,-85"/>
</g>
<!-- Node5 -->
<g id="node5" class="node">
<title>Node5</title>
<g id="a_node5"><a xlink:href="class_human_factors_1_1_native_utils_1_1_native_array2_d.html" target="_top" xlink:title="A wrapper for a two dimensional array in unmanaged memory.">
<polygon fill="white" stroke="black" points="474,-98.5 474,-128.5 606,-128.5 606,-98.5 474,-98.5"/>
<text text-anchor="start" x="482" y="-116.5" font-family="Helvetica,sans-Serif" font-size="10.00">HumanFactors.NativeUtils.</text>
<text text-anchor="middle" x="540" y="-105.5" font-family="Helvetica,sans-Serif" font-size="10.00">NativeArray2D&lt; T &gt;</text>
</a>
</g>
</g>
<!-- Node4&#45;&gt;Node5 -->
<g id="edge4" class="edge">
<title>Node4&#45;&gt;Node5</title>
<path fill="none" stroke="midnightblue" d="M430.51,-113.5C444.93,-113.5 459.9,-113.5 473.96,-113.5"/>
<polygon fill="midnightblue" stroke="midnightblue" points="430.13,-110 420.13,-113.5 430.13,-117 430.13,-110"/>
</g>
<!-- Node6 -->
<g id="node6" class="node">
<title>Node6</title>
<g id="a_node6"><a xlink:href="class_human_factors_1_1_native_utils_1_1_dependent_native_array.html" target="_top" xlink:title="A native array 2D that doesn&#39;t require destruction.">
<polygon fill="white" stroke="black" points="642,-98.5 642,-128.5 778,-128.5 778,-98.5 642,-98.5"/>
<text text-anchor="start" x="650" y="-116.5" font-family="Helvetica,sans-Serif" font-size="10.00">HumanFactors.NativeUtils.</text>
<text text-anchor="middle" x="710" y="-105.5" font-family="Helvetica,sans-Serif" font-size="10.00">DependentNativeArray&lt; T &gt;</text>
</a>
</g>
</g>
<!-- Node5&#45;&gt;Node6 -->
<g id="edge5" class="edge">
<title>Node5&#45;&gt;Node6</title>
<path fill="none" stroke="midnightblue" d="M616.6,-113.5C625,-113.5 633.52,-113.5 641.81,-113.5"/>
<polygon fill="midnightblue" stroke="midnightblue" points="616.43,-110 606.43,-113.5 616.43,-117 616.43,-110"/>
</g>
</g>
</svg>
