<?xml version="1.0" encoding="UTF-8" standalone="no"?>
<!DOCTYPE svg PUBLIC "-//W3C//DTD SVG 1.1//EN"
 "http://www.w3.org/Graphics/SVG/1.1/DTD/svg11.dtd">
<!-- Generated by graphviz version 4.0.0 (20220529.0937)
 -->
<!-- Title: Graphical Class Hierarchy Pages: 1 -->
<svg width="335pt" height="137pt"
 viewBox="0.00 0.00 335.00 137.00" xmlns="http://www.w3.org/2000/svg" xmlns:xlink="http://www.w3.org/1999/xlink">
<g id="graph0" class="graph" transform="scale(1 1) rotate(0) translate(4 133)">
<title>Graphical Class Hierarchy</title>
<polygon fill="white" stroke="transparent" points="-4,4 -4,-133 331,-133 331,4 -4,4"/>
<!-- Node0 -->
<g id="node1" class="node">
<title>Node0</title>
<g id="a_node1"><a xlink:title=" ">
<polygon fill="white" stroke="#bfbfbf" points="0,-55 0,-74 145,-74 145,-55 0,-55"/>
<text text-anchor="middle" x="72.5" y="-62" font-family="Helvetica,sans-Serif" font-size="10.00">System.ApplicationException</text>
</a>
</g>
</g>
<!-- Node1 -->
<g id="node2" class="node">
<title>Node1</title>
<g id="a_node2"><a xlink:href="class_d_h_a_r_t_a_p_i_1_1_exceptions_1_1_invalid_cost_operation.html" target="_top" xlink:title="Tried to add an alternate cost to an edge without meeting the preconditions.">
<polygon fill="white" stroke="black" points="181,-98.5 181,-128.5 327,-128.5 327,-98.5 181,-98.5"/>
<text text-anchor="start" x="189" y="-116.5" font-family="Helvetica,sans-Serif" font-size="10.00">DHARTAPI.Exceptions.Invalid</text>
<text text-anchor="middle" x="254" y="-105.5" font-family="Helvetica,sans-Serif" font-size="10.00">CostOperation</text>
</a>
</g>
</g>
<!-- Node0&#45;&gt;Node1 -->
<g id="edge1" class="edge">
<title>Node0&#45;&gt;Node1</title>
<path fill="none" stroke="midnightblue" d="M118.48,-76.78C142.57,-83.35 172.44,-91.51 197.92,-98.46"/>
<polygon fill="midnightblue" stroke="midnightblue" points="119.1,-73.32 108.54,-74.06 117.26,-80.07 119.1,-73.32"/>
</g>
<!-- Node2 -->
<g id="node3" class="node">
<title>Node2</title>
<g id="a_node3"><a xlink:href="class_d_h_a_r_t_a_p_i_1_1_exceptions_1_1_invalid_mesh_exception.html" target="_top" xlink:title="The file passed was not an obj file, or was an invalid obj file.">
<polygon fill="white" stroke="black" points="181,-49.5 181,-79.5 327,-79.5 327,-49.5 181,-49.5"/>
<text text-anchor="start" x="189" y="-67.5" font-family="Helvetica,sans-Serif" font-size="10.00">DHARTAPI.Exceptions.Invalid</text>
<text text-anchor="middle" x="254" y="-56.5" font-family="Helvetica,sans-Serif" font-size="10.00">MeshException</text>
</a>
</g>
</g>
<!-- Node0&#45;&gt;Node2 -->
<g id="edge2" class="edge">
<title>Node0&#45;&gt;Node2</title>
<path fill="none" stroke="midnightblue" d="M155.47,-64.5C163.92,-64.5 172.47,-64.5 180.81,-64.5"/>
<polygon fill="midnightblue" stroke="midnightblue" points="155.22,-61 145.22,-64.5 155.22,-68 155.22,-61"/>
</g>
<!-- Node3 -->
<g id="node4" class="node">
<title>Node3</title>
<g id="a_node4"><a xlink:href="class_d_h_a_r_t_a_p_i_1_1_exceptions_1_1_logic_error.html" target="_top" xlink:title="There was some logical error with what the user was trying to perform.">
<polygon fill="white" stroke="black" points="182.5,-0.5 182.5,-30.5 325.5,-30.5 325.5,-0.5 182.5,-0.5"/>
<text text-anchor="start" x="190.5" y="-18.5" font-family="Helvetica,sans-Serif" font-size="10.00">DHARTAPI.Exceptions.Logic</text>
<text text-anchor="middle" x="254" y="-7.5" font-family="Helvetica,sans-Serif" font-size="10.00">Error</text>
</a>
</g>
</g>
<!-- Node0&#45;&gt;Node3 -->
<g id="edge3" class="edge">
<title>Node0&#45;&gt;Node3</title>
<path fill="none" stroke="midnightblue" d="M118.48,-52.22C142.57,-45.65 172.44,-37.49 197.92,-30.54"/>
<polygon fill="midnightblue" stroke="midnightblue" points="117.26,-48.93 108.54,-54.94 119.1,-55.68 117.26,-48.93"/>
</g>
</g>
</svg>
