<?xml version="1.0" encoding="UTF-8" standalone="no"?>
<!DOCTYPE svg PUBLIC "-//W3C//DTD SVG 1.1//EN"
 "http://www.w3.org/Graphics/SVG/1.1/DTD/svg11.dtd">
<!-- Generated by graphviz version 7.0.2 (20221119.0110)
 -->
<!-- Title: Graphical Class Hierarchy Pages: 1 -->
<svg width="335pt" height="134pt"
 viewBox="0.00 0.00 335.00 134.00" xmlns="http://www.w3.org/2000/svg" xmlns:xlink="http://www.w3.org/1999/xlink">
<g id="graph0" class="graph" transform="scale(1 1) rotate(0) translate(4 130)">
<title>Graphical Class Hierarchy</title>
<!-- Node0 -->
<g id="node1" class="node">
<title>Node0</title>
<g id="a_node1"><a xlink:title=" ">
<polygon fill="#e0e0e0" stroke="#999999" points="145,-72.5 0,-72.5 0,-53.5 145,-53.5 145,-72.5"/>
<text text-anchor="middle" x="72.5" y="-60.5" font-family="Helvetica,sans-Serif" font-size="10.00">System.ApplicationException</text>
</a>
</g>
</g>
<!-- Node1 -->
<g id="node2" class="node">
<title>Node1</title>
<g id="a_node2"><a xlink:href="class_d_h_a_r_t_a_p_i_1_1_exceptions_1_1_invalid_cost_operation.html" target="_top" xlink:title="Tried to add an alternate cost to an edge without meeting the preconditions.">
<polygon fill="white" stroke="#666666" points="327,-126 181,-126 181,-96 327,-96 327,-126"/>
<text text-anchor="start" x="189" y="-114" font-family="Helvetica,sans-Serif" font-size="10.00">DHARTAPI.Exceptions.Invalid</text>
<text text-anchor="middle" x="254" y="-103" font-family="Helvetica,sans-Serif" font-size="10.00">CostOperation</text>
</a>
</g>
</g>
<!-- Node0&#45;&gt;Node1 -->
<g id="edge1" class="edge">
<title>Node0&#45;&gt;Node1</title>
<path fill="none" stroke="#63b8ff" d="M121.75,-75.9C144.42,-81.96 171.61,-89.24 195.35,-95.58"/>
<polygon fill="#63b8ff" stroke="#63b8ff" points="122.72,-72.54 112.15,-73.34 120.91,-79.3 122.72,-72.54"/>
</g>
<!-- Node2 -->
<g id="node3" class="node">
<title>Node2</title>
<g id="a_node3"><a xlink:href="class_d_h_a_r_t_a_p_i_1_1_exceptions_1_1_invalid_mesh_exception.html" target="_top" xlink:title="The file passed was not an obj file, or was an invalid obj file.">
<polygon fill="white" stroke="#666666" points="327,-78 181,-78 181,-48 327,-48 327,-78"/>
<text text-anchor="start" x="189" y="-66" font-family="Helvetica,sans-Serif" font-size="10.00">DHARTAPI.Exceptions.Invalid</text>
<text text-anchor="middle" x="254" y="-55" font-family="Helvetica,sans-Serif" font-size="10.00">MeshException</text>
</a>
</g>
</g>
<!-- Node0&#45;&gt;Node2 -->
<g id="edge2" class="edge">
<title>Node0&#45;&gt;Node2</title>
<path fill="none" stroke="#63b8ff" d="M156.73,-63C164.74,-63 172.82,-63 180.72,-63"/>
<polygon fill="#63b8ff" stroke="#63b8ff" points="156.99,-59.5 146.99,-63 156.99,-66.5 156.99,-59.5"/>
</g>
<!-- Node3 -->
<g id="node4" class="node">
<title>Node3</title>
<g id="a_node4"><a xlink:href="class_d_h_a_r_t_a_p_i_1_1_exceptions_1_1_logic_error.html" target="_top" xlink:title="There was some logical error with what the user was trying to perform.">
<polygon fill="white" stroke="#666666" points="325.5,-30 182.5,-30 182.5,0 325.5,0 325.5,-30"/>
<text text-anchor="start" x="190.5" y="-18" font-family="Helvetica,sans-Serif" font-size="10.00">DHARTAPI.Exceptions.Logic</text>
<text text-anchor="middle" x="254" y="-7" font-family="Helvetica,sans-Serif" font-size="10.00">Error</text>
</a>
</g>
</g>
<!-- Node0&#45;&gt;Node3 -->
<g id="edge3" class="edge">
<title>Node0&#45;&gt;Node3</title>
<path fill="none" stroke="#63b8ff" d="M121.75,-50.1C144.42,-44.04 171.61,-36.76 195.35,-30.42"/>
<polygon fill="#63b8ff" stroke="#63b8ff" points="120.91,-46.7 112.15,-52.66 122.72,-53.46 120.91,-46.7"/>
</g>
</g>
</svg>
