<?xml version="1.0" encoding="UTF-8" standalone="no"?>
<!DOCTYPE svg PUBLIC "-//W3C//DTD SVG 1.1//EN"
 "http://www.w3.org/Graphics/SVG/1.1/DTD/svg11.dtd">
<!-- Generated by graphviz version 8.0.5 (20230430.1635)
 -->
<!-- Title: DHARTAPI.RayTracing.RayResult Pages: 1 -->
<svg width="172pt" height="96pt"
 viewBox="0.00 0.00 171.75 96.00" xmlns="http://www.w3.org/2000/svg" xmlns:xlink="http://www.w3.org/1999/xlink">
<g id="graph0" class="graph" transform="scale(1 1) rotate(0) translate(4 92)">
<title>DHARTAPI.RayTracing.RayResult</title>
<!-- Node1 -->
<g id="node1" class="node">
<title>Node1</title>
<g id="a_node1"><a xlink:title="MeshID and Distance for a casted ray.">
<polygon fill="#999999" stroke="#666666" points="163.75,-20 0,-20 0,0 163.75,0 163.75,-20"/>
<text text-anchor="middle" x="81.88" y="-6.5" font-family="Helvetica,sans-Serif" font-size="10.00">DHARTAPI.RayTracing.RayResult</text>
</a>
</g>
</g>
<!-- Node2 -->
<g id="node2" class="node">
<title>Node2</title>
<g id="a_node2"><a xlink:title=" ">
<polygon fill="white" stroke="#666666" points="67.88,-88 33.88,-88 33.88,-68 67.88,-68 67.88,-88"/>
<text text-anchor="middle" x="50.88" y="-74.5" font-family="Helvetica,sans-Serif" font-size="10.00">float</text>
</a>
</g>
</g>
<!-- Node2&#45;&gt;Node1 -->
<g id="edge1" class="edge">
<title>Node2&#45;&gt;Node1</title>
<path fill="none" stroke="#9a32cd" stroke-dasharray="5,2" d="M48.54,-56.58C48.6,-50.38 49.49,-43.7 52.13,-38 55.4,-30.91 61.51,-24.85 67.34,-20.29"/>
<polygon fill="#9a32cd" stroke="#9a32cd" points="45.1,-56.77 49.19,-66.55 52.09,-56.36 45.1,-56.77"/>
<text text-anchor="middle" x="72.75" y="-40.5" font-family="Helvetica,sans-Serif" font-size="10.00"> distance</text>
</g>
<!-- Node3 -->
<g id="node3" class="node">
<title>Node3</title>
<g id="a_node3"><a xlink:title=" ">
<polygon fill="white" stroke="#666666" points="132.38,-88 95.38,-88 95.38,-68 132.38,-68 132.38,-88"/>
<text text-anchor="middle" x="113.88" y="-74.5" font-family="Helvetica,sans-Serif" font-size="10.00">Int32</text>
</a>
</g>
</g>
<!-- Node3&#45;&gt;Node1 -->
<g id="edge2" class="edge">
<title>Node3&#45;&gt;Node1</title>
<path fill="none" stroke="#9a32cd" stroke-dasharray="5,2" d="M104.56,-57.78C98.61,-45.51 91.15,-30.14 86.45,-20.44"/>
<polygon fill="#9a32cd" stroke="#9a32cd" points="101.78,-59.07 109.29,-66.54 108.08,-56.02 101.78,-59.07"/>
<text text-anchor="middle" x="119.75" y="-40.5" font-family="Helvetica,sans-Serif" font-size="10.00"> mesh_id</text>
</g>
</g>
</svg>
