<?xml version="1.0" encoding="UTF-8" standalone="no"?>
<!DOCTYPE svg PUBLIC "-//W3C//DTD SVG 1.1//EN"
 "http://www.w3.org/Graphics/SVG/1.1/DTD/svg11.dtd">
<!-- Generated by graphviz version 4.0.0 (20220529.0937)
 -->
<!-- Title: DHARTAPI.RayTracing.RayResult Pages: 1 -->
<svg width="172pt" height="95pt"
 viewBox="0.00 0.00 172.00 95.00" xmlns="http://www.w3.org/2000/svg" xmlns:xlink="http://www.w3.org/1999/xlink">
<g id="graph0" class="graph" transform="scale(1 1) rotate(0) translate(4 91)">
<title>DHARTAPI.RayTracing.RayResult</title>
<polygon fill="white" stroke="transparent" points="-4,4 -4,-91 168,-91 168,4 -4,4"/>
<!-- Node1 -->
<g id="node1" class="node">
<title>Node1</title>
<g id="a_node1"><a xlink:title="MeshID and Distance for a casted ray.">
<polygon fill="#bfbfbf" stroke="black" points="0,-0.5 0,-19.5 164,-19.5 164,-0.5 0,-0.5"/>
<text text-anchor="middle" x="82" y="-7.5" font-family="Helvetica,sans-Serif" font-size="10.00">DHARTAPI.RayTracing.RayResult</text>
</a>
</g>
</g>
<!-- Node2 -->
<g id="node2" class="node">
<title>Node2</title>
<g id="a_node2"><a xlink:title=" ">
<polygon fill="white" stroke="black" points="33.5,-67.5 33.5,-86.5 68.5,-86.5 68.5,-67.5 33.5,-67.5"/>
<text text-anchor="middle" x="51" y="-74.5" font-family="Helvetica,sans-Serif" font-size="10.00">float</text>
</a>
</g>
</g>
<!-- Node2&#45;&gt;Node1 -->
<g id="edge1" class="edge">
<title>Node2&#45;&gt;Node1</title>
<path fill="none" stroke="#9a32cd" stroke-dasharray="5,2" d="M48.58,-57.06C48.52,-50.75 49.31,-43.84 52,-38 55.46,-30.49 62.11,-24.17 68.26,-19.53"/>
<polygon fill="#9a32cd" stroke="#9a32cd" points="45.12,-57.71 49.36,-67.41 52.1,-57.18 45.12,-57.71"/>
<text text-anchor="middle" x="72" y="-41" font-family="Helvetica,sans-Serif" font-size="10.00"> distance</text>
</g>
<!-- Node3 -->
<g id="node3" class="node">
<title>Node3</title>
<g id="a_node3"><a xlink:title=" ">
<polygon fill="white" stroke="black" points="95,-67.5 95,-86.5 133,-86.5 133,-67.5 95,-67.5"/>
<text text-anchor="middle" x="114" y="-74.5" font-family="Helvetica,sans-Serif" font-size="10.00">Int32</text>
</a>
</g>
</g>
<!-- Node3&#45;&gt;Node1 -->
<g id="edge2" class="edge">
<title>Node3&#45;&gt;Node1</title>
<path fill="none" stroke="#9a32cd" stroke-dasharray="5,2" d="M105.22,-58.16C99.05,-45.63 91.06,-29.41 86.25,-19.63"/>
<polygon fill="#9a32cd" stroke="#9a32cd" points="102.13,-59.81 109.68,-67.23 108.41,-56.72 102.13,-59.81"/>
<text text-anchor="middle" x="119" y="-41" font-family="Helvetica,sans-Serif" font-size="10.00"> mesh_id</text>
</g>
</g>
</svg>
