<?xml version="1.0" encoding="UTF-8" standalone="no"?>
<!DOCTYPE svg PUBLIC "-//W3C//DTD SVG 1.1//EN"
 "http://www.w3.org/Graphics/SVG/1.1/DTD/svg11.dtd">
<!-- Generated by graphviz version 8.0.5 (20230430.1635)
 -->
<!-- Title: DHARTAPI.Pathfinding.PathMember Pages: 1 -->
<svg width="146pt" height="108pt"
 viewBox="0.00 0.00 146.25 108.00" xmlns="http://www.w3.org/2000/svg" xmlns:xlink="http://www.w3.org/1999/xlink">
<g id="graph0" class="graph" transform="scale(1 1) rotate(0) translate(4 104)">
<title>DHARTAPI.Pathfinding.PathMember</title>
<!-- Node1 -->
<g id="node1" class="node">
<title>Node1</title>
<g id="a_node1"><a xlink:title="A ID of a Node in a Path and the cost to it&#39;s next element.">
<polygon fill="#999999" stroke="#666666" points="138.25,-32 0,-32 0,0 138.25,0 138.25,-32"/>
<text text-anchor="start" x="8" y="-18.5" font-family="Helvetica,sans-Serif" font-size="10.00">DHARTAPI.Pathfinding.Path</text>
<text text-anchor="middle" x="69.13" y="-6.5" font-family="Helvetica,sans-Serif" font-size="10.00">Member</text>
</a>
</g>
</g>
<!-- Node2 -->
<g id="node2" class="node">
<title>Node2</title>
<g id="a_node2"><a xlink:title=" ">
<polygon fill="white" stroke="#666666" points="45.13,-100 11.13,-100 11.13,-80 45.13,-80 45.13,-100"/>
<text text-anchor="middle" x="28.13" y="-86.5" font-family="Helvetica,sans-Serif" font-size="10.00">float</text>
</a>
</g>
</g>
<!-- Node2&#45;&gt;Node1 -->
<g id="edge1" class="edge">
<title>Node2&#45;&gt;Node1</title>
<path fill="none" stroke="#9a32cd" stroke-dasharray="5,2" d="M25.31,-68.99C25.24,-62.65 26.07,-55.79 28.88,-50 32.19,-43.17 37.66,-37.27 43.52,-32.42"/>
<polygon fill="#9a32cd" stroke="#9a32cd" points="21.87,-68.82 26.17,-78.51 28.84,-68.25 21.87,-68.82"/>
<text text-anchor="middle" x="58.75" y="-52.5" font-family="Helvetica,sans-Serif" font-size="10.00"> cost_to_next</text>
</g>
<!-- Node3 -->
<g id="node3" class="node">
<title>Node3</title>
<g id="a_node3"><a xlink:title=" ">
<polygon fill="white" stroke="#666666" points="124.53,-100 95.72,-100 95.72,-80 124.53,-80 124.53,-100"/>
<text text-anchor="middle" x="110.13" y="-86.5" font-family="Helvetica,sans-Serif" font-size="10.00">int</text>
</a>
</g>
</g>
<!-- Node3&#45;&gt;Node1 -->
<g id="edge2" class="edge">
<title>Node3&#45;&gt;Node1</title>
<path fill="none" stroke="#9a32cd" stroke-dasharray="5,2" d="M99.69,-70.42C96.04,-63.95 91.91,-56.65 88.13,-50 84.85,-44.26 81.24,-37.96 78.05,-32.43"/>
<polygon fill="#9a32cd" stroke="#9a32cd" points="96.95,-71.69 104.9,-78.69 103.05,-68.26 96.95,-71.69"/>
<text text-anchor="middle" x="99.38" y="-52.5" font-family="Helvetica,sans-Serif" font-size="10.00"> id</text>
</g>
</g>
</svg>
