<?xml version="1.0" encoding="UTF-8" standalone="no"?>
<!DOCTYPE svg PUBLIC "-//W3C//DTD SVG 1.1//EN"
 "http://www.w3.org/Graphics/SVG/1.1/DTD/svg11.dtd">
<!-- Generated by graphviz version 8.0.5 (20230430.1635)
 -->
<!-- Title: Cpp/analysismethods/src/unique_queue.h Pages: 1 -->
<svg width="237pt" height="152pt"
 viewBox="0.00 0.00 237.38 152.00" xmlns="http://www.w3.org/2000/svg" xmlns:xlink="http://www.w3.org/1999/xlink">
<g id="graph0" class="graph" transform="scale(1 1) rotate(0) translate(4 148)">
<title>Cpp/analysismethods/src/unique_queue.h</title>
<!-- Node1 -->
<g id="node1" class="node">
<title>Node1</title>
<g id="a_node1"><a xlink:title="Contains definitions for the UniqueQueue class.">
<polygon fill="#999999" stroke="#666666" points="165.63,-144 55.88,-144 55.88,-112 165.63,-112 165.63,-144"/>
<text text-anchor="start" x="63.88" y="-130.5" font-family="Helvetica,sans-Serif" font-size="10.00">Cpp/analysismethods</text>
<text text-anchor="middle" x="110.75" y="-118.5" font-family="Helvetica,sans-Serif" font-size="10.00">/src/unique_queue.h</text>
</a>
</g>
</g>
<!-- Node2 -->
<g id="node2" class="node">
<title>Node2</title>
<g id="a_node2"><a xlink:title=" ">
<polygon fill="#e0e0e0" stroke="#999999" points="71.5,-76 0,-76 0,-56 71.5,-56 71.5,-76"/>
<text text-anchor="middle" x="35.75" y="-62.5" font-family="Helvetica,sans-Serif" font-size="10.00">robin_hood.h</text>
</a>
</g>
</g>
<!-- Node1&#45;&gt;Node2 -->
<g id="edge1" class="edge">
<title>Node1&#45;&gt;Node2</title>
<path fill="none" stroke="#63b8ff" d="M91.44,-111.55C80.59,-102.87 67.05,-92.04 56.05,-83.24"/>
<polygon fill="#63b8ff" stroke="#63b8ff" points="58.51,-79.92 48.51,-76.41 54.13,-85.39 58.51,-79.92"/>
</g>
<!-- Node3 -->
<g id="node3" class="node">
<title>Node3</title>
<g id="a_node3"><a xlink:title=" ">
<polygon fill="#e0e0e0" stroke="#999999" points="131.88,-76 89.63,-76 89.63,-56 131.88,-56 131.88,-76"/>
<text text-anchor="middle" x="110.75" y="-62.5" font-family="Helvetica,sans-Serif" font-size="10.00">queue</text>
</a>
</g>
</g>
<!-- Node1&#45;&gt;Node3 -->
<g id="edge2" class="edge">
<title>Node1&#45;&gt;Node3</title>
<path fill="none" stroke="#63b8ff" d="M110.75,-111.55C110.75,-104.17 110.75,-95.24 110.75,-87.32"/>
<polygon fill="#63b8ff" stroke="#63b8ff" points="114.25,-87.41 110.75,-77.41 107.25,-87.41 114.25,-87.41"/>
</g>
<!-- Node4 -->
<g id="node4" class="node">
<title>Node4</title>
<g id="a_node4"><a xlink:href="a00209.html" target="_top" xlink:title="Contains definitions for the Node structure.">
<polygon fill="white" stroke="#666666" points="195.38,-76 150.13,-76 150.13,-56 195.38,-56 195.38,-76"/>
<text text-anchor="middle" x="172.75" y="-62.5" font-family="Helvetica,sans-Serif" font-size="10.00">node.h</text>
</a>
</g>
</g>
<!-- Node1&#45;&gt;Node4 -->
<g id="edge3" class="edge">
<title>Node1&#45;&gt;Node4</title>
<path fill="none" stroke="#63b8ff" d="M126.72,-111.55C135.42,-103.13 146.2,-92.69 155.15,-84.04"/>
<polygon fill="#63b8ff" stroke="#63b8ff" points="157.28,-86.88 162.03,-77.41 152.41,-81.85 157.28,-86.88"/>
</g>
<!-- Node5 -->
<g id="node5" class="node">
<title>Node5</title>
<g id="a_node5"><a xlink:title=" ">
<polygon fill="#e0e0e0" stroke="#999999" points="159.63,-20 121.88,-20 121.88,0 159.63,0 159.63,-20"/>
<text text-anchor="middle" x="140.75" y="-6.5" font-family="Helvetica,sans-Serif" font-size="10.00">array</text>
</a>
</g>
</g>
<!-- Node4&#45;&gt;Node5 -->
<g id="edge4" class="edge">
<title>Node4&#45;&gt;Node5</title>
<path fill="none" stroke="#63b8ff" d="M167.18,-55.59C162.95,-48.47 157.02,-38.45 151.84,-29.72"/>
<polygon fill="#63b8ff" stroke="#63b8ff" points="154.37,-28.12 146.26,-21.3 148.35,-31.69 154.37,-28.12"/>
</g>
<!-- Node6 -->
<g id="node6" class="node">
<title>Node6</title>
<g id="a_node6"><a xlink:title=" ">
<polygon fill="#e0e0e0" stroke="#999999" points="229.38,-20 178.13,-20 178.13,0 229.38,0 229.38,-20"/>
<text text-anchor="middle" x="203.75" y="-6.5" font-family="Helvetica,sans-Serif" font-size="10.00">ostream</text>
</a>
</g>
</g>
<!-- Node4&#45;&gt;Node6 -->
<g id="edge5" class="edge">
<title>Node4&#45;&gt;Node6</title>
<path fill="none" stroke="#63b8ff" d="M178.15,-55.59C182.24,-48.47 187.99,-38.45 193.01,-29.72"/>
<polygon fill="#63b8ff" stroke="#63b8ff" points="196.47,-31.71 198.41,-21.3 190.4,-28.23 196.47,-31.71"/>
</g>
</g>
</svg>
