<?xml version="1.0" encoding="UTF-8" standalone="no"?>
<!DOCTYPE svg PUBLIC "-//W3C//DTD SVG 1.1//EN"
 "http://www.w3.org/Graphics/SVG/1.1/DTD/svg11.dtd">
<!-- Generated by graphviz version 2.43.0 (0)
 -->
<!-- Title: Cpp/analysismethods/src/visibility_graph.cpp Pages: 1 -->
<svg width="992pt" height="263pt"
 viewBox="0.00 0.00 992.11 263.00" xmlns="http://www.w3.org/2000/svg" xmlns:xlink="http://www.w3.org/1999/xlink">
<g id="graph0" class="graph" transform="scale(1 1) rotate(0) translate(4 259)">
<title>Cpp/analysismethods/src/visibility_graph.cpp</title>
<polygon fill="white" stroke="transparent" points="-4,4 -4,-259 988.11,-259 988.11,4 -4,4"/>
<!-- Node1 -->
<g id="node1" class="node">
<title>Node1</title>
<g id="a_node1"><a xlink:title="Contains implementation for the VisibilityGraph class.">
<polygon fill="#bfbfbf" stroke="black" points="564.11,-224.5 564.11,-254.5 696.11,-254.5 696.11,-224.5 564.11,-224.5"/>
<text text-anchor="start" x="572.11" y="-242.5" font-family="Helvetica,sans-Serif" font-size="10.00">Cpp/analysismethods</text>
<text text-anchor="middle" x="630.11" y="-231.5" font-family="Helvetica,sans-Serif" font-size="10.00">/src/visibility_graph.cpp</text>
</a>
</g>
</g>
<!-- Node2 -->
<g id="node2" class="node">
<title>Node2</title>
<g id="a_node2"><a xlink:href="a00029.html" target="_top" xlink:title="Contains definitions for the VisibilityGraph class.">
<polygon fill="white" stroke="black" points="278.61,-168.5 278.61,-187.5 379.61,-187.5 379.61,-168.5 278.61,-168.5"/>
<text text-anchor="middle" x="329.11" y="-175.5" font-family="Helvetica,sans-Serif" font-size="10.00">visibility_graph.h</text>
</a>
</g>
</g>
<!-- Node1&#45;&gt;Node2 -->
<g id="edge1" class="edge">
<title>Node1&#45;&gt;Node2</title>
<path fill="none" stroke="midnightblue" d="M564.05,-225.44C509.49,-214.66 433.04,-199.54 382.34,-189.52"/>
<polygon fill="midnightblue" stroke="midnightblue" points="382.74,-186.03 372.25,-187.53 381.38,-192.9 382.74,-186.03"/>
</g>
<!-- Node4 -->
<g id="node4" class="node">
<title>Node4</title>
<g id="a_node4"><a xlink:title=" ">
<polygon fill="white" stroke="#bfbfbf" points="298.11,-0.5 298.11,-19.5 340.11,-19.5 340.11,-0.5 298.11,-0.5"/>
<text text-anchor="middle" x="319.11" y="-7.5" font-family="Helvetica,sans-Serif" font-size="10.00">array</text>
</a>
</g>
</g>
<!-- Node1&#45;&gt;Node4 -->
<g id="edge3" class="edge">
<title>Node1&#45;&gt;Node4</title>
<path fill="none" stroke="midnightblue" d="M563.8,-235.92C486.08,-231.51 354.03,-219.64 245.11,-188 131.68,-155.05 67.63,-175.57 4.11,-76 -0.67,-68.51 -1.72,-62.72 4.11,-56 40.6,-13.92 215.05,-10.21 287.47,-10.53"/>
<polygon fill="midnightblue" stroke="midnightblue" points="287.76,-14.04 297.79,-10.61 287.82,-7.04 287.76,-14.04"/>
</g>
<!-- Node5 -->
<g id="node5" class="node">
<title>Node5</title>
<g id="a_node5"><a xlink:title=" ">
<polygon fill="white" stroke="#bfbfbf" points="696.11,-168.5 696.11,-187.5 744.11,-187.5 744.11,-168.5 696.11,-168.5"/>
<text text-anchor="middle" x="720.11" y="-175.5" font-family="Helvetica,sans-Serif" font-size="10.00">thread</text>
</a>
</g>
</g>
<!-- Node1&#45;&gt;Node5 -->
<g id="edge4" class="edge">
<title>Node1&#45;&gt;Node5</title>
<path fill="none" stroke="midnightblue" d="M651.44,-224.4C665.59,-215.04 684.12,-202.79 698.36,-193.38"/>
<polygon fill="midnightblue" stroke="midnightblue" points="700.6,-196.09 707.01,-187.66 696.74,-190.25 700.6,-196.09"/>
</g>
<!-- Node6 -->
<g id="node6" class="node">
<title>Node6</title>
<g id="a_node6"><a xlink:title=" ">
<polygon fill="white" stroke="#bfbfbf" points="762.61,-168.5 762.61,-187.5 809.61,-187.5 809.61,-168.5 762.61,-168.5"/>
<text text-anchor="middle" x="786.11" y="-175.5" font-family="Helvetica,sans-Serif" font-size="10.00">omp.h</text>
</a>
</g>
</g>
<!-- Node1&#45;&gt;Node6 -->
<g id="edge5" class="edge">
<title>Node1&#45;&gt;Node6</title>
<path fill="none" stroke="midnightblue" d="M667.08,-224.4C693.48,-214.33 728.66,-200.91 753.92,-191.28"/>
<polygon fill="midnightblue" stroke="midnightblue" points="755.31,-194.49 763.41,-187.66 752.82,-187.95 755.31,-194.49"/>
</g>
<!-- Node7 -->
<g id="node7" class="node">
<title>Node7</title>
<g id="a_node7"><a xlink:title=" ">
<polygon fill="white" stroke="#bfbfbf" points="828.11,-168.5 828.11,-187.5 892.11,-187.5 892.11,-168.5 828.11,-168.5"/>
<text text-anchor="middle" x="860.11" y="-175.5" font-family="Helvetica,sans-Serif" font-size="10.00">algorithm</text>
</a>
</g>
</g>
<!-- Node1&#45;&gt;Node7 -->
<g id="edge6" class="edge">
<title>Node1&#45;&gt;Node7</title>
<path fill="none" stroke="midnightblue" d="M684.32,-224.47C725.11,-213.92 780.22,-199.67 817.79,-189.95"/>
<polygon fill="midnightblue" stroke="midnightblue" points="819.09,-193.23 827.89,-187.33 817.33,-186.45 819.09,-193.23"/>
</g>
<!-- Node8 -->
<g id="node8" class="node">
<title>Node8</title>
<g id="a_node8"><a xlink:title=" ">
<polygon fill="white" stroke="#bfbfbf" points="335.11,-112.5 335.11,-131.5 415.11,-131.5 415.11,-112.5 335.11,-112.5"/>
<text text-anchor="middle" x="375.11" y="-119.5" font-family="Helvetica,sans-Serif" font-size="10.00">robin_hood.h</text>
</a>
</g>
</g>
<!-- Node1&#45;&gt;Node8 -->
<g id="edge7" class="edge">
<title>Node1&#45;&gt;Node8</title>
<path fill="none" stroke="midnightblue" d="M588.14,-224.49C561.18,-215.08 525.63,-201.89 495.11,-188 460.46,-172.23 422.03,-150.65 398.22,-136.77"/>
<polygon fill="midnightblue" stroke="midnightblue" points="399.95,-133.72 389.55,-131.68 396.4,-139.76 399.95,-133.72"/>
</g>
<!-- Node9 -->
<g id="node9" class="node">
<title>Node9</title>
<g id="a_node9"><a xlink:href="a00203.html" target="_top" xlink:title="Contains definitions for the Graph &#160;class.">
<polygon fill="white" stroke="black" points="504.61,-168.5 504.61,-187.5 557.61,-187.5 557.61,-168.5 504.61,-168.5"/>
<text text-anchor="middle" x="531.11" y="-175.5" font-family="Helvetica,sans-Serif" font-size="10.00">graph.h</text>
</a>
</g>
</g>
<!-- Node1&#45;&gt;Node9 -->
<g id="edge8" class="edge">
<title>Node1&#45;&gt;Node9</title>
<path fill="none" stroke="midnightblue" d="M606.65,-224.4C590.78,-214.86 569.92,-202.32 554.14,-192.84"/>
<polygon fill="midnightblue" stroke="midnightblue" points="555.89,-189.81 545.51,-187.66 552.28,-195.81 555.89,-189.81"/>
</g>
<!-- Node10 -->
<g id="node10" class="node">
<title>Node10</title>
<g id="a_node10"><a xlink:href="a00197.html" target="_top" xlink:title="Contains definitions for the Edge structure.">
<polygon fill="white" stroke="black" points="649.11,-112.5 649.11,-131.5 699.11,-131.5 699.11,-112.5 649.11,-112.5"/>
<text text-anchor="middle" x="674.11" y="-119.5" font-family="Helvetica,sans-Serif" font-size="10.00">Edge.h</text>
</a>
</g>
</g>
<!-- Node1&#45;&gt;Node10 -->
<g id="edge26" class="edge">
<title>Node1&#45;&gt;Node10</title>
<path fill="none" stroke="midnightblue" d="M634.52,-224.32C639.08,-209.99 646.57,-187.26 654.11,-168 657.66,-158.93 662.01,-149.02 665.74,-140.82"/>
<polygon fill="midnightblue" stroke="midnightblue" points="669.02,-142.08 670.04,-131.53 662.67,-139.14 669.02,-142.08"/>
</g>
<!-- Node11 -->
<g id="node11" class="node">
<title>Node11</title>
<g id="a_node11"><a xlink:href="a00209.html" target="_top" xlink:title="Contains definitions for the Node structure.">
<polygon fill="white" stroke="black" points="567.11,-56.5 567.11,-75.5 617.11,-75.5 617.11,-56.5 567.11,-56.5"/>
<text text-anchor="middle" x="592.11" y="-63.5" font-family="Helvetica,sans-Serif" font-size="10.00">node.h</text>
</a>
</g>
</g>
<!-- Node1&#45;&gt;Node11 -->
<g id="edge27" class="edge">
<title>Node1&#45;&gt;Node11</title>
<path fill="none" stroke="midnightblue" d="M642.28,-224.28C662.48,-200.31 701.41,-152.48 708.11,-132 710.87,-123.55 713.13,-119.33 708.11,-112 690.14,-85.76 654.49,-74.82 627.42,-70.26"/>
<polygon fill="midnightblue" stroke="midnightblue" points="627.93,-66.8 617.53,-68.8 626.91,-73.72 627.93,-66.8"/>
</g>
<!-- Node15 -->
<g id="node15" class="node">
<title>Node15</title>
<g id="a_node15"><a xlink:href="a00146.html" target="_top" xlink:title="Contains definitions for the EmbreeRayTracer">
<polygon fill="white" stroke="black" points="167.11,-112.5 167.11,-131.5 279.11,-131.5 279.11,-112.5 167.11,-112.5"/>
<text text-anchor="middle" x="223.11" y="-119.5" font-family="Helvetica,sans-Serif" font-size="10.00">embree_raytracer.h</text>
</a>
</g>
</g>
<!-- Node1&#45;&gt;Node15 -->
<g id="edge19" class="edge">
<title>Node1&#45;&gt;Node15</title>
<path fill="none" stroke="midnightblue" d="M563.77,-235.47C473.39,-230.3 317.28,-217.33 269.11,-188 251.26,-177.13 238.46,-156.45 230.96,-141.32"/>
<polygon fill="midnightblue" stroke="midnightblue" points="233.99,-139.53 226.62,-131.92 227.63,-142.47 233.99,-139.53"/>
</g>
<!-- Node20 -->
<g id="node20" class="node">
<title>Node20</title>
<g id="a_node20"><a xlink:href="a00185.html" target="_top" xlink:title="Contains definitions for the HF::SpatialStructures namespace.">
<polygon fill="white" stroke="black" points="910.11,-168.5 910.11,-187.5 984.11,-187.5 984.11,-168.5 910.11,-168.5"/>
<text text-anchor="middle" x="947.11" y="-175.5" font-family="Helvetica,sans-Serif" font-size="10.00">Constants.h</text>
</a>
</g>
</g>
<!-- Node1&#45;&gt;Node20 -->
<g id="edge28" class="edge">
<title>Node1&#45;&gt;Node20</title>
<path fill="none" stroke="midnightblue" d="M696.13,-226.37C748.66,-216.68 824.34,-202.63 899.8,-188.24"/>
<polygon fill="midnightblue" stroke="midnightblue" points="900.79,-191.61 909.96,-186.3 899.48,-184.74 900.79,-191.61"/>
</g>
<!-- Node3 -->
<g id="node3" class="node">
<title>Node3</title>
<g id="a_node3"><a xlink:title=" ">
<polygon fill="white" stroke="#bfbfbf" points="419.61,-56.5 419.61,-75.5 466.61,-75.5 466.61,-56.5 419.61,-56.5"/>
<text text-anchor="middle" x="443.11" y="-63.5" font-family="Helvetica,sans-Serif" font-size="10.00">vector</text>
</a>
</g>
</g>
<!-- Node2&#45;&gt;Node3 -->
<g id="edge2" class="edge">
<title>Node2&#45;&gt;Node3</title>
<path fill="none" stroke="midnightblue" d="M325.58,-168.09C320.89,-154.65 314.47,-128.95 326.11,-112 331.12,-104.7 377,-88.51 409.79,-77.67"/>
<polygon fill="midnightblue" stroke="midnightblue" points="411.08,-80.94 419.49,-74.5 408.9,-74.28 411.08,-80.94"/>
</g>
<!-- Node9&#45;&gt;Node3 -->
<g id="edge10" class="edge">
<title>Node9&#45;&gt;Node3</title>
<path fill="none" stroke="midnightblue" d="M523.7,-168.47C515.96,-159.49 503.5,-144.9 493.11,-132 480.04,-115.79 465.58,-96.89 455.59,-83.66"/>
<polygon fill="midnightblue" stroke="midnightblue" points="458.27,-81.39 449.46,-75.51 452.68,-85.6 458.27,-81.39"/>
</g>
<!-- Node9&#45;&gt;Node8 -->
<g id="edge9" class="edge">
<title>Node9&#45;&gt;Node8</title>
<path fill="none" stroke="midnightblue" d="M506.39,-168.44C480.26,-159.4 438.85,-145.06 409.53,-134.92"/>
<polygon fill="midnightblue" stroke="midnightblue" points="410.31,-131.48 399.71,-131.52 408.02,-138.1 410.31,-131.48"/>
</g>
<!-- Node9&#45;&gt;Node10 -->
<g id="edge11" class="edge">
<title>Node9&#45;&gt;Node10</title>
<path fill="none" stroke="midnightblue" d="M553.77,-168.44C577.51,-159.48 615.02,-145.31 641.85,-135.18"/>
<polygon fill="midnightblue" stroke="midnightblue" points="643.44,-138.32 651.55,-131.52 640.96,-131.77 643.44,-138.32"/>
</g>
<!-- Node9&#45;&gt;Node11 -->
<g id="edge16" class="edge">
<title>Node9&#45;&gt;Node11</title>
<path fill="none" stroke="midnightblue" d="M521.38,-168.26C508.36,-155.47 488.19,-131.09 500.11,-112 512.57,-92.04 536.73,-80.69 557.17,-74.38"/>
<polygon fill="midnightblue" stroke="midnightblue" points="558.15,-77.74 566.83,-71.68 556.26,-71 558.15,-77.74"/>
</g>
<!-- Node13 -->
<g id="node13" class="node">
<title>Node13</title>
<g id="a_node13"><a xlink:title=" ">
<polygon fill="white" stroke="#bfbfbf" points="509.11,-112.5 509.11,-131.5 553.11,-131.5 553.11,-112.5 509.11,-112.5"/>
<text text-anchor="middle" x="531.11" y="-119.5" font-family="Helvetica,sans-Serif" font-size="10.00">Eigen</text>
</a>
</g>
</g>
<!-- Node9&#45;&gt;Node13 -->
<g id="edge17" class="edge">
<title>Node9&#45;&gt;Node13</title>
<path fill="none" stroke="midnightblue" d="M531.11,-168.08C531.11,-161.01 531.11,-150.86 531.11,-141.99"/>
<polygon fill="midnightblue" stroke="midnightblue" points="534.61,-141.75 531.11,-131.75 527.61,-141.75 534.61,-141.75"/>
</g>
<!-- Node14 -->
<g id="node14" class="node">
<title>Node14</title>
<g id="a_node14"><a xlink:title=" ">
<polygon fill="white" stroke="#bfbfbf" points="571.11,-112.5 571.11,-131.5 631.11,-131.5 631.11,-112.5 571.11,-112.5"/>
<text text-anchor="middle" x="601.11" y="-119.5" font-family="Helvetica,sans-Serif" font-size="10.00">iostream</text>
</a>
</g>
</g>
<!-- Node9&#45;&gt;Node14 -->
<g id="edge18" class="edge">
<title>Node9&#45;&gt;Node14</title>
<path fill="none" stroke="midnightblue" d="M542.35,-168.32C552.9,-160.18 568.91,-147.84 581.55,-138.09"/>
<polygon fill="midnightblue" stroke="midnightblue" points="583.88,-140.71 589.66,-131.83 579.6,-135.17 583.88,-140.71"/>
</g>
<!-- Node10&#45;&gt;Node3 -->
<g id="edge15" class="edge">
<title>Node10&#45;&gt;Node3</title>
<path fill="none" stroke="midnightblue" d="M648.88,-114.22C645.93,-113.46 642.95,-112.7 640.11,-112 582.89,-97.9 515.93,-82.92 476.66,-74.3"/>
<polygon fill="midnightblue" stroke="midnightblue" points="477.34,-70.86 466.82,-72.14 475.84,-77.7 477.34,-70.86"/>
</g>
<!-- Node10&#45;&gt;Node11 -->
<g id="edge12" class="edge">
<title>Node10&#45;&gt;Node11</title>
<path fill="none" stroke="midnightblue" d="M660.93,-112.32C648.26,-103.98 628.87,-91.21 613.9,-81.35"/>
<polygon fill="midnightblue" stroke="midnightblue" points="615.53,-78.23 605.25,-75.65 611.68,-84.08 615.53,-78.23"/>
</g>
<!-- Node11&#45;&gt;Node4 -->
<g id="edge13" class="edge">
<title>Node11&#45;&gt;Node4</title>
<path fill="none" stroke="midnightblue" d="M566.91,-60.02C516.92,-50.13 405.29,-28.05 350.57,-17.22"/>
<polygon fill="midnightblue" stroke="midnightblue" points="350.9,-13.72 340.42,-15.21 349.55,-20.59 350.9,-13.72"/>
</g>
<!-- Node12 -->
<g id="node12" class="node">
<title>Node12</title>
<g id="a_node12"><a xlink:title=" ">
<polygon fill="white" stroke="#bfbfbf" points="563.61,-0.5 563.61,-19.5 620.61,-19.5 620.61,-0.5 563.61,-0.5"/>
<text text-anchor="middle" x="592.11" y="-7.5" font-family="Helvetica,sans-Serif" font-size="10.00">ostream</text>
</a>
</g>
</g>
<!-- Node11&#45;&gt;Node12 -->
<g id="edge14" class="edge">
<title>Node11&#45;&gt;Node12</title>
<path fill="none" stroke="midnightblue" d="M592.11,-56.08C592.11,-49.01 592.11,-38.86 592.11,-29.99"/>
<polygon fill="midnightblue" stroke="midnightblue" points="595.61,-29.75 592.11,-19.75 588.61,-29.75 595.61,-29.75"/>
</g>
<!-- Node15&#45;&gt;Node3 -->
<g id="edge23" class="edge">
<title>Node15&#45;&gt;Node3</title>
<path fill="none" stroke="midnightblue" d="M260.09,-112.45C295.81,-104.11 351.66,-90.87 409.32,-76.14"/>
<polygon fill="midnightblue" stroke="midnightblue" points="410.52,-79.45 419.34,-73.57 408.78,-72.67 410.52,-79.45"/>
</g>
<!-- Node15&#45;&gt;Node4 -->
<g id="edge24" class="edge">
<title>Node15&#45;&gt;Node4</title>
<path fill="none" stroke="midnightblue" d="M246.88,-112.35C263.72,-105.08 285.63,-93.1 299.11,-76 309.6,-62.68 314.62,-43.85 317,-29.88"/>
<polygon fill="midnightblue" stroke="midnightblue" points="320.47,-30.31 318.39,-19.92 313.54,-29.34 320.47,-30.31"/>
</g>
<!-- Node16 -->
<g id="node16" class="node">
<title>Node16</title>
<g id="a_node16"><a xlink:title=" ">
<polygon fill="white" stroke="#bfbfbf" points="249.61,-56.5 249.61,-75.5 290.61,-75.5 290.61,-56.5 249.61,-56.5"/>
<text text-anchor="middle" x="270.11" y="-63.5" font-family="Helvetica,sans-Serif" font-size="10.00">rpc.h</text>
</a>
</g>
</g>
<!-- Node15&#45;&gt;Node16 -->
<g id="edge20" class="edge">
<title>Node15&#45;&gt;Node16</title>
<path fill="none" stroke="midnightblue" d="M230.87,-112.08C237.64,-104.3 247.65,-92.8 255.86,-83.37"/>
<polygon fill="midnightblue" stroke="midnightblue" points="258.57,-85.59 262.49,-75.75 253.29,-81 258.57,-85.59"/>
</g>
<!-- Node17 -->
<g id="node17" class="node">
<title>Node17</title>
<g id="a_node17"><a xlink:title=" ">
<polygon fill="white" stroke="#bfbfbf" points="347.11,-56.5 347.11,-75.5 401.11,-75.5 401.11,-56.5 347.11,-56.5"/>
<text text-anchor="middle" x="374.11" y="-63.5" font-family="Helvetica,sans-Serif" font-size="10.00">rtcore.h</text>
</a>
</g>
</g>
<!-- Node15&#45;&gt;Node17 -->
<g id="edge21" class="edge">
<title>Node15&#45;&gt;Node17</title>
<path fill="none" stroke="midnightblue" d="M247.03,-112.44C272.33,-103.4 312.41,-89.06 340.79,-78.92"/>
<polygon fill="midnightblue" stroke="midnightblue" points="342.06,-82.18 350.29,-75.52 339.7,-75.59 342.06,-82.18"/>
</g>
<!-- Node18 -->
<g id="node18" class="node">
<title>Node18</title>
<g id="a_node18"><a xlink:title=" ">
<polygon fill="white" stroke="#bfbfbf" points="13.61,-56.5 13.61,-75.5 144.61,-75.5 144.61,-56.5 13.61,-56.5"/>
<text text-anchor="middle" x="79.11" y="-63.5" font-family="Helvetica,sans-Serif" font-size="10.00">corecrt_math_defines.h</text>
</a>
</g>
</g>
<!-- Node15&#45;&gt;Node18 -->
<g id="edge22" class="edge">
<title>Node15&#45;&gt;Node18</title>
<path fill="none" stroke="midnightblue" d="M200.29,-112.44C176.28,-103.44 138.28,-89.19 111.24,-79.05"/>
<polygon fill="midnightblue" stroke="midnightblue" points="112.41,-75.75 101.82,-75.52 109.95,-82.3 112.41,-75.75"/>
</g>
<!-- Node19 -->
<g id="node19" class="node">
<title>Node19</title>
<g id="a_node19"><a xlink:href="a00152.html" target="_top" xlink:title=" ">
<polygon fill="white" stroke="black" points="163.11,-56.5 163.11,-75.5 231.11,-75.5 231.11,-56.5 163.11,-56.5"/>
<text text-anchor="middle" x="197.11" y="-63.5" font-family="Helvetica,sans-Serif" font-size="10.00">HitStruct.h</text>
</a>
</g>
</g>
<!-- Node15&#45;&gt;Node19 -->
<g id="edge25" class="edge">
<title>Node15&#45;&gt;Node19</title>
<path fill="none" stroke="midnightblue" d="M218.81,-112.08C215.25,-104.69 210.08,-93.95 205.68,-84.81"/>
<polygon fill="midnightblue" stroke="midnightblue" points="208.81,-83.24 201.32,-75.75 202.51,-86.28 208.81,-83.24"/>
</g>
<!-- Node21 -->
<g id="node21" class="node">
<title>Node21</title>
<g id="a_node21"><a xlink:title=" ">
<polygon fill="white" stroke="#bfbfbf" points="923.61,-112.5 923.61,-131.5 970.61,-131.5 970.61,-112.5 923.61,-112.5"/>
<text text-anchor="middle" x="947.11" y="-119.5" font-family="Helvetica,sans-Serif" font-size="10.00">cmath</text>
</a>
</g>
</g>
<!-- Node20&#45;&gt;Node21 -->
<g id="edge29" class="edge">
<title>Node20&#45;&gt;Node21</title>
<path fill="none" stroke="midnightblue" d="M947.11,-168.08C947.11,-161.01 947.11,-150.86 947.11,-141.99"/>
<polygon fill="midnightblue" stroke="midnightblue" points="950.61,-141.75 947.11,-131.75 943.61,-141.75 950.61,-141.75"/>
</g>
</g>
</svg>
