<?xml version="1.0" encoding="UTF-8" standalone="no"?>
<!DOCTYPE svg PUBLIC "-//W3C//DTD SVG 1.1//EN"
 "http://www.w3.org/Graphics/SVG/1.1/DTD/svg11.dtd">
<!-- Generated by graphviz version 2.43.0 (0)
 -->
<!-- Title: Cpp/analysismethods/src/unique_queue.h Pages: 1 -->
<svg width="260pt" height="151pt"
 viewBox="0.00 0.00 259.50 151.00" xmlns="http://www.w3.org/2000/svg" xmlns:xlink="http://www.w3.org/1999/xlink">
<g id="graph0" class="graph" transform="scale(1 1) rotate(0) translate(4 147)">
<title>Cpp/analysismethods/src/unique_queue.h</title>
<polygon fill="white" stroke="transparent" points="-4,4 -4,-147 255.5,-147 255.5,4 -4,4"/>
<!-- Node1 -->
<g id="node1" class="node">
<title>Node1</title>
<g id="a_node1"><a xlink:title="Contains definitions for the UniqueQueue class.">
<polygon fill="#bfbfbf" stroke="black" points="61,-112.5 61,-142.5 183,-142.5 183,-112.5 61,-112.5"/>
<text text-anchor="start" x="69" y="-130.5" font-family="Helvetica,sans-Serif" font-size="10.00">Cpp/analysismethods</text>
<text text-anchor="middle" x="122" y="-119.5" font-family="Helvetica,sans-Serif" font-size="10.00">/src/unique_queue.h</text>
</a>
</g>
</g>
<!-- Node2 -->
<g id="node2" class="node">
<title>Node2</title>
<g id="a_node2"><a xlink:title=" ">
<polygon fill="white" stroke="#bfbfbf" points="0,-56.5 0,-75.5 80,-75.5 80,-56.5 0,-56.5"/>
<text text-anchor="middle" x="40" y="-63.5" font-family="Helvetica,sans-Serif" font-size="10.00">robin_hood.h</text>
</a>
</g>
</g>
<!-- Node1&#45;&gt;Node2 -->
<g id="edge1" class="edge">
<title>Node1&#45;&gt;Node2</title>
<path fill="none" stroke="midnightblue" d="M102.57,-112.4C89.79,-103.13 73.11,-91.03 60.19,-81.65"/>
<polygon fill="midnightblue" stroke="midnightblue" points="62.08,-78.7 51.93,-75.66 57.97,-84.36 62.08,-78.7"/>
</g>
<!-- Node3 -->
<g id="node3" class="node">
<title>Node3</title>
<g id="a_node3"><a xlink:title=" ">
<polygon fill="white" stroke="#bfbfbf" points="98.5,-56.5 98.5,-75.5 145.5,-75.5 145.5,-56.5 98.5,-56.5"/>
<text text-anchor="middle" x="122" y="-63.5" font-family="Helvetica,sans-Serif" font-size="10.00">queue</text>
</a>
</g>
</g>
<!-- Node1&#45;&gt;Node3 -->
<g id="edge2" class="edge">
<title>Node1&#45;&gt;Node3</title>
<path fill="none" stroke="midnightblue" d="M122,-112.4C122,-104.47 122,-94.46 122,-85.86"/>
<polygon fill="midnightblue" stroke="midnightblue" points="125.5,-85.66 122,-75.66 118.5,-85.66 125.5,-85.66"/>
</g>
<!-- Node4 -->
<g id="node4" class="node">
<title>Node4</title>
<g id="a_node4"><a xlink:href="a00209.html" target="_top" xlink:title="Contains definitions for the Node structure.">
<polygon fill="white" stroke="black" points="164,-56.5 164,-75.5 214,-75.5 214,-56.5 164,-56.5"/>
<text text-anchor="middle" x="189" y="-63.5" font-family="Helvetica,sans-Serif" font-size="10.00">node.h</text>
</a>
</g>
</g>
<!-- Node1&#45;&gt;Node4 -->
<g id="edge3" class="edge">
<title>Node1&#45;&gt;Node4</title>
<path fill="none" stroke="midnightblue" d="M137.88,-112.4C148.02,-103.4 161.16,-91.72 171.59,-82.47"/>
<polygon fill="midnightblue" stroke="midnightblue" points="174.1,-84.92 179.25,-75.66 169.45,-79.68 174.1,-84.92"/>
</g>
<!-- Node5 -->
<g id="node5" class="node">
<title>Node5</title>
<g id="a_node5"><a xlink:title=" ">
<polygon fill="white" stroke="#bfbfbf" points="134,-0.5 134,-19.5 176,-19.5 176,-0.5 134,-0.5"/>
<text text-anchor="middle" x="155" y="-7.5" font-family="Helvetica,sans-Serif" font-size="10.00">array</text>
</a>
</g>
</g>
<!-- Node4&#45;&gt;Node5 -->
<g id="edge4" class="edge">
<title>Node4&#45;&gt;Node5</title>
<path fill="none" stroke="midnightblue" d="M183.39,-56.08C178.63,-48.53 171.68,-37.49 165.85,-28.23"/>
<polygon fill="midnightblue" stroke="midnightblue" points="168.8,-26.35 160.51,-19.75 162.88,-30.08 168.8,-26.35"/>
</g>
<!-- Node6 -->
<g id="node6" class="node">
<title>Node6</title>
<g id="a_node6"><a xlink:title=" ">
<polygon fill="white" stroke="#bfbfbf" points="194.5,-0.5 194.5,-19.5 251.5,-19.5 251.5,-0.5 194.5,-0.5"/>
<text text-anchor="middle" x="223" y="-7.5" font-family="Helvetica,sans-Serif" font-size="10.00">ostream</text>
</a>
</g>
</g>
<!-- Node4&#45;&gt;Node6 -->
<g id="edge5" class="edge">
<title>Node4&#45;&gt;Node6</title>
<path fill="none" stroke="midnightblue" d="M194.61,-56.08C199.37,-48.53 206.32,-37.49 212.15,-28.23"/>
<polygon fill="midnightblue" stroke="midnightblue" points="215.12,-30.08 217.49,-19.75 209.2,-26.35 215.12,-30.08"/>
</g>
</g>
</svg>
