<?xml version="1.0" encoding="UTF-8" standalone="no"?>
<!DOCTYPE svg PUBLIC "-//W3C//DTD SVG 1.1//EN"
 "http://www.w3.org/Graphics/SVG/1.1/DTD/svg11.dtd">
<!-- Generated by graphviz version 4.0.0 (20220529.0937)
 -->
<!-- Title: Cpp/analysismethods/src/graph_generator.h Pages: 1 -->
<svg width="379pt" height="106pt"
 viewBox="0.00 0.00 378.50 106.00" xmlns="http://www.w3.org/2000/svg" xmlns:xlink="http://www.w3.org/1999/xlink">
<g id="graph0" class="graph" transform="scale(1 1) rotate(0) translate(4 102)">
<title>Cpp/analysismethods/src/graph_generator.h</title>
<polygon fill="white" stroke="transparent" points="-4,4 -4,-102 374.5,-102 374.5,4 -4,4"/>
<!-- Node1 -->
<g id="node1" class="node">
<title>Node1</title>
<g id="a_node1"><a xlink:title="Contains declarations for all functions related to the graph generator.">
<polygon fill="#bfbfbf" stroke="black" points="122.5,-67.5 122.5,-97.5 236.5,-97.5 236.5,-67.5 122.5,-67.5"/>
<text text-anchor="start" x="130.5" y="-85.5" font-family="Helvetica,sans-Serif" font-size="10.00">Cpp/analysismethods</text>
<text text-anchor="middle" x="179.5" y="-74.5" font-family="Helvetica,sans-Serif" font-size="10.00">/src/graph_generator.h</text>
</a>
</g>
</g>
<!-- Node2 -->
<g id="node2" class="node">
<title>Node2</title>
<g id="a_node2"><a xlink:href="a00338.html" target="_top" xlink:title=" ">
<polygon fill="white" stroke="black" points="0,-0.5 0,-30.5 99,-30.5 99,-0.5 0,-0.5"/>
<text text-anchor="start" x="8" y="-18.5" font-family="Helvetica,sans-Serif" font-size="10.00">Cinterface/analysis</text>
<text text-anchor="middle" x="49.5" y="-7.5" font-family="Helvetica,sans-Serif" font-size="10.00">_C.cpp</text>
</a>
</g>
</g>
<!-- Node1&#45;&gt;Node2 -->
<g id="edge1" class="edge">
<title>Node1&#45;&gt;Node2</title>
<path fill="none" stroke="midnightblue" d="M142.21,-62.85C121.65,-52.58 96.55,-40.03 77.65,-30.58"/>
<polygon fill="midnightblue" stroke="midnightblue" points="140.78,-66.05 151.29,-67.4 143.91,-59.79 140.78,-66.05"/>
</g>
<!-- Node3 -->
<g id="node3" class="node">
<title>Node3</title>
<g id="a_node3"><a xlink:href="a00005.html" target="_top" xlink:title="Contains implementation for the functions in the GraphGenerator class.">
<polygon fill="white" stroke="black" points="117,-0.5 117,-30.5 242,-30.5 242,-0.5 117,-0.5"/>
<text text-anchor="start" x="125" y="-18.5" font-family="Helvetica,sans-Serif" font-size="10.00">Cpp/analysismethods</text>
<text text-anchor="middle" x="179.5" y="-7.5" font-family="Helvetica,sans-Serif" font-size="10.00">/src/graph_generator.cpp</text>
</a>
</g>
</g>
<!-- Node1&#45;&gt;Node3 -->
<g id="edge2" class="edge">
<title>Node1&#45;&gt;Node3</title>
<path fill="none" stroke="midnightblue" d="M179.5,-57.11C179.5,-48.15 179.5,-38.32 179.5,-30.58"/>
<polygon fill="midnightblue" stroke="midnightblue" points="176,-57.4 179.5,-67.4 183,-57.4 176,-57.4"/>
</g>
<!-- Node4 -->
<g id="node4" class="node">
<title>Node4</title>
<g id="a_node4"><a xlink:href="a00011.html" target="_top" xlink:title=" ">
<polygon fill="white" stroke="black" points="260.5,-0.5 260.5,-30.5 370.5,-30.5 370.5,-0.5 260.5,-0.5"/>
<text text-anchor="start" x="268.5" y="-18.5" font-family="Helvetica,sans-Serif" font-size="10.00">Cpp/analysismethods</text>
<text text-anchor="middle" x="315.5" y="-7.5" font-family="Helvetica,sans-Serif" font-size="10.00">/src/graph_utils.cpp</text>
</a>
</g>
</g>
<!-- Node1&#45;&gt;Node4 -->
<g id="edge3" class="edge">
<title>Node1&#45;&gt;Node4</title>
<path fill="none" stroke="midnightblue" d="M218.22,-62.99C239.78,-52.69 266.19,-40.07 286.05,-30.58"/>
<polygon fill="midnightblue" stroke="midnightblue" points="216.52,-59.93 209.01,-67.4 219.54,-66.24 216.52,-59.93"/>
</g>
</g>
</svg>
