<?xml version="1.0" encoding="UTF-8" standalone="no"?>
<!DOCTYPE svg PUBLIC "-//W3C//DTD SVG 1.1//EN"
 "http://www.w3.org/Graphics/SVG/1.1/DTD/svg11.dtd">
<!-- Generated by graphviz version 5.0.0 (20220707.1540)
 -->
<!-- Title: Cpp/analysismethods/src/unique_queue.cpp Pages: 1 -->
<svg width="240pt" height="207pt"
 viewBox="0.00 0.00 240.00 207.00" xmlns="http://www.w3.org/2000/svg" xmlns:xlink="http://www.w3.org/1999/xlink">
<g id="graph0" class="graph" transform="scale(1 1) rotate(0) translate(4 203)">
<title>Cpp/analysismethods/src/unique_queue.cpp</title>
<polygon fill="white" stroke="transparent" points="-4,4 -4,-203 236,-203 236,4 -4,4"/>
<!-- Node1 -->
<g id="node1" class="node">
<title>Node1</title>
<g id="a_node1"><a xlink:title="Contains implementation for the UniqueQueue class.">
<polygon fill="#bfbfbf" stroke="black" points="54.5,-168.5 54.5,-198.5 169.5,-198.5 169.5,-168.5 54.5,-168.5"/>
<text text-anchor="start" x="62.5" y="-186.5" font-family="Helvetica,sans-Serif" font-size="10.00">Cpp/analysismethods</text>
<text text-anchor="middle" x="112" y="-175.5" font-family="Helvetica,sans-Serif" font-size="10.00">/src/unique_queue.cpp</text>
</a>
</g>
</g>
<!-- Node2 -->
<g id="node2" class="node">
<title>Node2</title>
<g id="a_node2"><a xlink:href="a00017.html" target="_top" xlink:title="Contains definitions for the UniqueQueue class.">
<polygon fill="white" stroke="black" points="69.5,-112.5 69.5,-131.5 154.5,-131.5 154.5,-112.5 69.5,-112.5"/>
<text text-anchor="middle" x="112" y="-119.5" font-family="Helvetica,sans-Serif" font-size="10.00">unique_queue.h</text>
</a>
</g>
</g>
<!-- Node1&#45;&gt;Node2 -->
<g id="edge1" class="edge">
<title>Node1&#45;&gt;Node2</title>
<path fill="none" stroke="midnightblue" d="M112,-168.4C112,-160.47 112,-150.46 112,-141.86"/>
<polygon fill="midnightblue" stroke="midnightblue" points="115.5,-141.66 112,-131.66 108.5,-141.66 115.5,-141.66"/>
</g>
<!-- Node3 -->
<g id="node3" class="node">
<title>Node3</title>
<g id="a_node3"><a xlink:title=" ">
<polygon fill="white" stroke="#bfbfbf" points="0,-56.5 0,-75.5 72,-75.5 72,-56.5 0,-56.5"/>
<text text-anchor="middle" x="36" y="-63.5" font-family="Helvetica,sans-Serif" font-size="10.00">robin_hood.h</text>
</a>
</g>
</g>
<!-- Node2&#45;&gt;Node3 -->
<g id="edge2" class="edge">
<title>Node2&#45;&gt;Node3</title>
<path fill="none" stroke="midnightblue" d="M99.79,-112.32C88.22,-104.11 70.62,-91.6 56.84,-81.81"/>
<polygon fill="midnightblue" stroke="midnightblue" points="58.61,-78.77 48.43,-75.83 54.56,-84.48 58.61,-78.77"/>
</g>
<!-- Node4 -->
<g id="node4" class="node">
<title>Node4</title>
<g id="a_node4"><a xlink:title=" ">
<polygon fill="white" stroke="#bfbfbf" points="90.5,-56.5 90.5,-75.5 133.5,-75.5 133.5,-56.5 90.5,-56.5"/>
<text text-anchor="middle" x="112" y="-63.5" font-family="Helvetica,sans-Serif" font-size="10.00">queue</text>
</a>
</g>
</g>
<!-- Node2&#45;&gt;Node4 -->
<g id="edge3" class="edge">
<title>Node2&#45;&gt;Node4</title>
<path fill="none" stroke="midnightblue" d="M112,-112.08C112,-105.01 112,-94.86 112,-85.99"/>
<polygon fill="midnightblue" stroke="midnightblue" points="115.5,-85.75 112,-75.75 108.5,-85.75 115.5,-85.75"/>
</g>
<!-- Node5 -->
<g id="node5" class="node">
<title>Node5</title>
<g id="a_node5"><a xlink:href="a00209.html" target="_top" xlink:title="Contains definitions for the Node structure.">
<polygon fill="white" stroke="black" points="152,-56.5 152,-75.5 198,-75.5 198,-56.5 152,-56.5"/>
<text text-anchor="middle" x="175" y="-63.5" font-family="Helvetica,sans-Serif" font-size="10.00">node.h</text>
</a>
</g>
</g>
<!-- Node2&#45;&gt;Node5 -->
<g id="edge4" class="edge">
<title>Node2&#45;&gt;Node5</title>
<path fill="none" stroke="midnightblue" d="M122.12,-112.32C131.53,-104.26 145.74,-92.08 157.07,-82.37"/>
<polygon fill="midnightblue" stroke="midnightblue" points="159.38,-85 164.69,-75.83 154.82,-79.68 159.38,-85"/>
</g>
<!-- Node6 -->
<g id="node6" class="node">
<title>Node6</title>
<g id="a_node6"><a xlink:title=" ">
<polygon fill="white" stroke="#bfbfbf" points="124,-0.5 124,-19.5 162,-19.5 162,-0.5 124,-0.5"/>
<text text-anchor="middle" x="143" y="-7.5" font-family="Helvetica,sans-Serif" font-size="10.00">array</text>
</a>
</g>
</g>
<!-- Node5&#45;&gt;Node6 -->
<g id="edge5" class="edge">
<title>Node5&#45;&gt;Node6</title>
<path fill="none" stroke="midnightblue" d="M169.72,-56.08C165.29,-48.61 158.84,-37.72 153.38,-28.52"/>
<polygon fill="midnightblue" stroke="midnightblue" points="156.29,-26.57 148.19,-19.75 150.27,-30.14 156.29,-26.57"/>
</g>
<!-- Node7 -->
<g id="node7" class="node">
<title>Node7</title>
<g id="a_node7"><a xlink:title=" ">
<polygon fill="white" stroke="#bfbfbf" points="180,-0.5 180,-19.5 232,-19.5 232,-0.5 180,-0.5"/>
<text text-anchor="middle" x="206" y="-7.5" font-family="Helvetica,sans-Serif" font-size="10.00">ostream</text>
</a>
</g>
</g>
<!-- Node5&#45;&gt;Node7 -->
<g id="edge6" class="edge">
<title>Node5&#45;&gt;Node7</title>
<path fill="none" stroke="midnightblue" d="M180.12,-56.08C184.41,-48.61 190.66,-37.72 195.94,-28.52"/>
<polygon fill="midnightblue" stroke="midnightblue" points="199.03,-30.17 200.98,-19.75 192.96,-26.68 199.03,-30.17"/>
</g>
</g>
</svg>
