<?xml version="1.0" encoding="UTF-8" standalone="no"?>
<!DOCTYPE svg PUBLIC "-//W3C//DTD SVG 1.1//EN"
 "http://www.w3.org/Graphics/SVG/1.1/DTD/svg11.dtd">
<!-- Generated by graphviz version 2.43.0 (0)
 -->
<!-- Title: Cpp/analysismethods/src/view_analysis.h Pages: 1 -->
<svg width="932pt" height="106pt"
 viewBox="0.00 0.00 931.50 106.00" xmlns="http://www.w3.org/2000/svg" xmlns:xlink="http://www.w3.org/1999/xlink">
<g id="graph0" class="graph" transform="scale(1 1) rotate(0) translate(4 102)">
<title>Cpp/analysismethods/src/view_analysis.h</title>
<polygon fill="white" stroke="transparent" points="-4,4 -4,-102 927.5,-102 927.5,4 -4,4"/>
<!-- Node1 -->
<g id="node1" class="node">
<title>Node1</title>
<g id="a_node1"><a xlink:title="Contains definitions for the ViewAnalysis namespace.">
<polygon fill="#bfbfbf" stroke="black" points="357,-67.5 357,-97.5 479,-97.5 479,-67.5 357,-67.5"/>
<text text-anchor="start" x="365" y="-85.5" font-family="Helvetica,sans-Serif" font-size="10.00">Cpp/analysismethods</text>
<text text-anchor="middle" x="418" y="-74.5" font-family="Helvetica,sans-Serif" font-size="10.00">/src/view_analysis.h</text>
</a>
</g>
</g>
<!-- Node2 -->
<g id="node2" class="node">
<title>Node2</title>
<g id="a_node2"><a xlink:href="a00020.html" target="_top" xlink:title="Contains implementation for the ViewAnalysis namespace.">
<polygon fill="white" stroke="black" points="0,-0.5 0,-30.5 126,-30.5 126,-0.5 0,-0.5"/>
<text text-anchor="start" x="8" y="-18.5" font-family="Helvetica,sans-Serif" font-size="10.00">Cpp/analysismethods</text>
<text text-anchor="middle" x="63" y="-7.5" font-family="Helvetica,sans-Serif" font-size="10.00">/src/view_analysis.cpp</text>
</a>
</g>
</g>
<!-- Node1&#45;&gt;Node2 -->
<g id="edge1" class="edge">
<title>Node1&#45;&gt;Node2</title>
<path fill="none" stroke="midnightblue" d="M346.89,-69.26C289.61,-59.29 207.04,-44.68 135,-31 132.12,-30.45 129.17,-29.89 126.2,-29.31"/>
<polygon fill="midnightblue" stroke="midnightblue" points="346.48,-72.74 356.93,-71 347.67,-65.84 346.48,-72.74"/>
</g>
<!-- Node3 -->
<g id="node3" class="node">
<title>Node3</title>
<g id="a_node3"><a xlink:href="a02916.html" target="_top" xlink:title=" ">
<polygon fill="white" stroke="black" points="144,-0.5 144,-30.5 264,-30.5 264,-0.5 144,-0.5"/>
<text text-anchor="start" x="152" y="-18.5" font-family="Helvetica,sans-Serif" font-size="10.00">Cpp/tests/src/embree</text>
<text text-anchor="middle" x="204" y="-7.5" font-family="Helvetica,sans-Serif" font-size="10.00">_raytracer.cpp</text>
</a>
</g>
</g>
<!-- Node1&#45;&gt;Node3 -->
<g id="edge2" class="edge">
<title>Node1&#45;&gt;Node3</title>
<path fill="none" stroke="midnightblue" d="M361.85,-64.44C327.16,-53.91 283.18,-40.55 250.46,-30.61"/>
<polygon fill="midnightblue" stroke="midnightblue" points="361.24,-67.92 371.83,-67.48 363.28,-61.22 361.24,-67.92"/>
</g>
<!-- Node4 -->
<g id="node4" class="node">
<title>Node4</title>
<g id="a_node4"><a xlink:href="a02922.html" target="_top" xlink:title=" ">
<polygon fill="white" stroke="black" points="282,-0.5 282,-30.5 396,-30.5 396,-0.5 282,-0.5"/>
<text text-anchor="start" x="290" y="-18.5" font-family="Helvetica,sans-Serif" font-size="10.00">Cpp/tests/src/nanort</text>
<text text-anchor="middle" x="339" y="-7.5" font-family="Helvetica,sans-Serif" font-size="10.00">_raytracer.cpp</text>
</a>
</g>
</g>
<!-- Node1&#45;&gt;Node4 -->
<g id="edge3" class="edge">
<title>Node1&#45;&gt;Node4</title>
<path fill="none" stroke="midnightblue" d="M392.94,-60.88C380.94,-51.01 366.87,-39.43 356.11,-30.58"/>
<polygon fill="midnightblue" stroke="midnightblue" points="390.91,-63.75 400.86,-67.4 395.36,-58.34 390.91,-63.75"/>
</g>
<!-- Node5 -->
<g id="node5" class="node">
<title>Node5</title>
<g id="a_node5"><a xlink:href="a00314.html" target="_top" xlink:title=" ">
<polygon fill="white" stroke="black" points="414.5,-6 414.5,-25 579.5,-25 579.5,-6 414.5,-6"/>
<text text-anchor="middle" x="497" y="-13" font-family="Helvetica,sans-Serif" font-size="10.00">Cpp/tests/src/performance.cpp</text>
</a>
</g>
</g>
<!-- Node1&#45;&gt;Node5 -->
<g id="edge4" class="edge">
<title>Node1&#45;&gt;Node5</title>
<path fill="none" stroke="midnightblue" d="M442.91,-61.01C457.57,-48.94 475.36,-34.3 486.43,-25.19"/>
<polygon fill="midnightblue" stroke="midnightblue" points="440.64,-58.34 435.14,-67.4 445.09,-63.75 440.64,-58.34"/>
</g>
<!-- Node6 -->
<g id="node6" class="node">
<title>Node6</title>
<g id="a_node6"><a xlink:href="a00329.html" target="_top" xlink:title=" ">
<polygon fill="white" stroke="black" points="598,-6 598,-25 766,-25 766,-6 598,-6"/>
<text text-anchor="middle" x="682" y="-13" font-family="Helvetica,sans-Serif" font-size="10.00">Cpp/tests/src/ViewAnalysis.cpp</text>
</a>
</g>
</g>
<!-- Node1&#45;&gt;Node6 -->
<g id="edge5" class="edge">
<title>Node1&#45;&gt;Node6</title>
<path fill="none" stroke="midnightblue" d="M484.73,-65.07C536.5,-52.32 606.17,-35.17 647.36,-25.03"/>
<polygon fill="midnightblue" stroke="midnightblue" points="483.83,-61.69 474.96,-67.48 485.51,-68.48 483.83,-61.69"/>
</g>
<!-- Node7 -->
<g id="node7" class="node">
<title>Node7</title>
<g id="a_node7"><a xlink:href="a00374.html" target="_top" xlink:title=" ">
<polygon fill="white" stroke="black" points="784.5,-0.5 784.5,-30.5 923.5,-30.5 923.5,-0.5 784.5,-0.5"/>
<text text-anchor="start" x="792.5" y="-18.5" font-family="Helvetica,sans-Serif" font-size="10.00">Cinterface/view_analysis</text>
<text text-anchor="middle" x="854" y="-7.5" font-family="Helvetica,sans-Serif" font-size="10.00">_C.cpp</text>
</a>
</g>
</g>
<!-- Node1&#45;&gt;Node7 -->
<g id="edge6" class="edge">
<title>Node1&#45;&gt;Node7</title>
<path fill="none" stroke="midnightblue" d="M489.4,-72.28C561.57,-62.75 676.21,-47.05 775,-31 778.03,-30.51 781.12,-29.99 784.24,-29.46"/>
<polygon fill="midnightblue" stroke="midnightblue" points="488.53,-68.86 479.07,-73.64 489.44,-75.8 488.53,-68.86"/>
</g>
</g>
</svg>
