<?xml version="1.0" encoding="UTF-8" standalone="no"?>
<!DOCTYPE svg PUBLIC "-//W3C//DTD SVG 1.1//EN"
 "http://www.w3.org/Graphics/SVG/1.1/DTD/svg11.dtd">
<!-- Generated by graphviz version 7.0.2 (20221119.0110)
 -->
<!-- Title: Cpp/analysismethods/src/visibility_graph.cpp Pages: 1 -->
<svg width="936pt" height="258pt"
 viewBox="0.00 0.00 936.37 258.00" xmlns="http://www.w3.org/2000/svg" xmlns:xlink="http://www.w3.org/1999/xlink">
<g id="graph0" class="graph" transform="scale(1 1) rotate(0) translate(4 254)">
<title>Cpp/analysismethods/src/visibility_graph.cpp</title>
<!-- Node1 -->
<g id="node1" class="node">
<title>Node1</title>
<g id="a_node1"><a xlink:title="Contains implementation for the VisibilityGraph class.">
<polygon fill="#999999" stroke="#666666" points="653.87,-250 535.87,-250 535.87,-220 653.87,-220 653.87,-250"/>
<text text-anchor="start" x="543.87" y="-238" font-family="Helvetica,sans-Serif" font-size="10.00">Cpp/analysismethods</text>
<text text-anchor="middle" x="594.87" y="-227" font-family="Helvetica,sans-Serif" font-size="10.00">/src/visibility_graph.cpp</text>
</a>
</g>
</g>
<!-- Node2 -->
<g id="node2" class="node">
<title>Node2</title>
<g id="a_node2"><a xlink:href="a00029.html" target="_top" xlink:title="Contains definitions for the VisibilityGraph class.">
<polygon fill="white" stroke="#666666" points="351.87,-184 263.87,-184 263.87,-165 351.87,-165 351.87,-184"/>
<text text-anchor="middle" x="307.87" y="-172" font-family="Helvetica,sans-Serif" font-size="10.00">visibility_graph.h</text>
</a>
</g>
</g>
<!-- Node1&#45;&gt;Node2 -->
<g id="edge1" class="edge">
<title>Node1&#45;&gt;Node2</title>
<path fill="none" stroke="#63b8ff" d="M535.41,-221.88C484.68,-211.54 412.33,-196.79 362.92,-186.72"/>
<polygon fill="#63b8ff" stroke="#63b8ff" points="363.79,-183.33 353.29,-184.76 362.39,-190.19 363.79,-183.33"/>
</g>
<!-- Node4 -->
<g id="node4" class="node">
<title>Node4</title>
<g id="a_node4"><a xlink:title=" ">
<polygon fill="#e0e0e0" stroke="#999999" points="315.87,-19 277.87,-19 277.87,0 315.87,0 315.87,-19"/>
<text text-anchor="middle" x="296.87" y="-7" font-family="Helvetica,sans-Serif" font-size="10.00">array</text>
</a>
</g>
</g>
<!-- Node1&#45;&gt;Node4 -->
<g id="edge3" class="edge">
<title>Node1&#45;&gt;Node4</title>
<path fill="none" stroke="#63b8ff" d="M535.49,-231.63C462.23,-227.39 334.53,-215.75 229.87,-184 122.97,-151.57 63.11,-168.71 3.87,-74 -0.61,-66.84 -1.63,-61.4 3.87,-55 37.49,-15.89 198.12,-10.75 266.23,-10.35"/>
<polygon fill="#63b8ff" stroke="#63b8ff" points="265.95,-13.85 275.94,-10.33 265.93,-6.85 265.95,-13.85"/>
</g>
<!-- Node5 -->
<g id="node5" class="node">
<title>Node5</title>
<g id="a_node5"><a xlink:title=" ">
<polygon fill="#e0e0e0" stroke="#999999" points="704.87,-184 660.87,-184 660.87,-165 704.87,-165 704.87,-184"/>
<text text-anchor="middle" x="682.87" y="-172" font-family="Helvetica,sans-Serif" font-size="10.00">thread</text>
</a>
</g>
</g>
<!-- Node1&#45;&gt;Node5 -->
<g id="edge4" class="edge">
<title>Node1&#45;&gt;Node5</title>
<path fill="none" stroke="#63b8ff" d="M616.62,-219.54C629.85,-210.75 646.71,-199.54 660.11,-190.63"/>
<polygon fill="#63b8ff" stroke="#63b8ff" points="661.91,-193.63 668.3,-185.18 658.04,-187.81 661.91,-193.63"/>
</g>
<!-- Node6 -->
<g id="node6" class="node">
<title>Node6</title>
<g id="a_node6"><a xlink:title=" ">
<polygon fill="#e0e0e0" stroke="#999999" points="766.87,-184 722.87,-184 722.87,-165 766.87,-165 766.87,-184"/>
<text text-anchor="middle" x="744.87" y="-172" font-family="Helvetica,sans-Serif" font-size="10.00">omp.h</text>
</a>
</g>
</g>
<!-- Node1&#45;&gt;Node6 -->
<g id="edge5" class="edge">
<title>Node1&#45;&gt;Node6</title>
<path fill="none" stroke="#63b8ff" d="M631.95,-219.54C656.52,-209.96 688.45,-197.51 712.08,-188.29"/>
<polygon fill="#63b8ff" stroke="#63b8ff" points="713.17,-191.62 721.22,-184.73 710.63,-185.1 713.17,-191.62"/>
</g>
<!-- Node7 -->
<g id="node7" class="node">
<title>Node7</title>
<g id="a_node7"><a xlink:title=" ">
<polygon fill="#e0e0e0" stroke="#999999" points="840.87,-184 784.87,-184 784.87,-165 840.87,-165 840.87,-184"/>
<text text-anchor="middle" x="812.87" y="-172" font-family="Helvetica,sans-Serif" font-size="10.00">algorithm</text>
</a>
</g>
</g>
<!-- Node1&#45;&gt;Node7 -->
<g id="edge6" class="edge">
<title>Node1&#45;&gt;Node7</title>
<path fill="none" stroke="#63b8ff" d="M648.76,-219.54C687.56,-209.13 738.99,-195.33 773.87,-185.97"/>
<polygon fill="#63b8ff" stroke="#63b8ff" points="774.36,-189.46 783.11,-183.49 772.54,-182.7 774.36,-189.46"/>
</g>
<!-- Node8 -->
<g id="node8" class="node">
<title>Node8</title>
<g id="a_node8"><a xlink:title=" ">
<polygon fill="#e0e0e0" stroke="#999999" points="385.87,-129 313.87,-129 313.87,-110 385.87,-110 385.87,-129"/>
<text text-anchor="middle" x="349.87" y="-117" font-family="Helvetica,sans-Serif" font-size="10.00">robin_hood.h</text>
</a>
</g>
</g>
<!-- Node1&#45;&gt;Node8 -->
<g id="edge7" class="edge">
<title>Node1&#45;&gt;Node8</title>
<path fill="none" stroke="#63b8ff" d="M553.97,-219.51C528.57,-210.14 495.43,-197.27 466.87,-184 434.15,-168.8 397.84,-148.53 374.47,-135.02"/>
<polygon fill="#63b8ff" stroke="#63b8ff" points="376.42,-132.11 366.02,-130.1 372.9,-138.15 376.42,-132.11"/>
</g>
<!-- Node9 -->
<g id="node9" class="node">
<title>Node9</title>
<g id="a_node9"><a xlink:href="a00203.html" target="_top" xlink:title="Contains definitions for the Graph &#160;class.">
<polygon fill="white" stroke="#666666" points="525.37,-184 476.37,-184 476.37,-165 525.37,-165 525.37,-184"/>
<text text-anchor="middle" x="500.87" y="-172" font-family="Helvetica,sans-Serif" font-size="10.00">graph.h</text>
</a>
</g>
</g>
<!-- Node1&#45;&gt;Node9 -->
<g id="edge8" class="edge">
<title>Node1&#45;&gt;Node9</title>
<path fill="none" stroke="#63b8ff" d="M571.64,-219.54C557.37,-210.66 539.15,-199.32 524.77,-190.37"/>
<polygon fill="#63b8ff" stroke="#63b8ff" points="526.71,-187.46 516.37,-185.15 523.01,-193.4 526.71,-187.46"/>
</g>
<!-- Node10 -->
<g id="node10" class="node">
<title>Node10</title>
<g id="a_node10"><a xlink:href="a00197.html" target="_top" xlink:title="Contains definitions for the Edge structure.">
<polygon fill="white" stroke="#666666" points="659.37,-129 612.37,-129 612.37,-110 659.37,-110 659.37,-129"/>
<text text-anchor="middle" x="635.87" y="-117" font-family="Helvetica,sans-Serif" font-size="10.00">Edge.h</text>
</a>
</g>
</g>
<!-- Node1&#45;&gt;Node10 -->
<g id="edge26" class="edge">
<title>Node1&#45;&gt;Node10</title>
<path fill="none" stroke="#63b8ff" d="M599.71,-219.68C604.47,-205.7 612,-183.83 618.87,-165 621.88,-156.75 625.32,-147.68 628.32,-139.89"/>
<polygon fill="#63b8ff" stroke="#63b8ff" points="631.51,-141.34 631.86,-130.75 624.98,-138.81 631.51,-141.34"/>
</g>
<!-- Node11 -->
<g id="node11" class="node">
<title>Node11</title>
<g id="a_node11"><a xlink:href="a00209.html" target="_top" xlink:title="Contains definitions for the Node structure.">
<polygon fill="white" stroke="#666666" points="578.87,-74 532.87,-74 532.87,-55 578.87,-55 578.87,-74"/>
<text text-anchor="middle" x="555.87" y="-62" font-family="Helvetica,sans-Serif" font-size="10.00">node.h</text>
</a>
</g>
</g>
<!-- Node1&#45;&gt;Node11 -->
<g id="edge27" class="edge">
<title>Node1&#45;&gt;Node11</title>
<path fill="none" stroke="#63b8ff" d="M607.82,-219.68C632.49,-191.58 682.63,-130.2 668.87,-110 651.4,-84.34 616.66,-73.48 590.28,-68.88"/>
<polygon fill="#63b8ff" stroke="#63b8ff" points="591.11,-65.46 580.7,-67.44 590.07,-72.39 591.11,-65.46"/>
</g>
<!-- Node15 -->
<g id="node15" class="node">
<title>Node15</title>
<g id="a_node15"><a xlink:href="a00146.html" target="_top" xlink:title="Contains definitions for the EmbreeRayTracer">
<polygon fill="white" stroke="#666666" points="257.37,-129 156.37,-129 156.37,-110 257.37,-110 257.37,-129"/>
<text text-anchor="middle" x="206.87" y="-117" font-family="Helvetica,sans-Serif" font-size="10.00">embree_raytracer.h</text>
</a>
</g>
</g>
<!-- Node1&#45;&gt;Node15 -->
<g id="edge19" class="edge">
<title>Node1&#45;&gt;Node15</title>
<path fill="none" stroke="#63b8ff" d="M535.69,-230.68C451.22,-225.04 301.2,-211.44 254.87,-184 237.25,-173.56 223.94,-153.92 215.86,-139.24"/>
<polygon fill="#63b8ff" stroke="#63b8ff" points="219.08,-137.85 211.41,-130.56 212.86,-141.05 219.08,-137.85"/>
</g>
<!-- Node20 -->
<g id="node20" class="node">
<title>Node20</title>
<g id="a_node20"><a xlink:href="a00185.html" target="_top" xlink:title="Contains definitions for the HF::SpatialStructures namespace.">
<polygon fill="white" stroke="#666666" points="928.37,-184 859.37,-184 859.37,-165 928.37,-165 928.37,-184"/>
<text text-anchor="middle" x="893.87" y="-172" font-family="Helvetica,sans-Serif" font-size="10.00">Constants.h</text>
</a>
</g>
</g>
<!-- Node1&#45;&gt;Node20 -->
<g id="edge28" class="edge">
<title>Node1&#45;&gt;Node20</title>
<path fill="none" stroke="#63b8ff" d="M654.3,-222.37C711.3,-211.22 796.15,-194.62 848.08,-184.46"/>
<polygon fill="#63b8ff" stroke="#63b8ff" points="848.65,-187.91 857.79,-182.56 847.3,-181.04 848.65,-187.91"/>
</g>
<!-- Node3 -->
<g id="node3" class="node">
<title>Node3</title>
<g id="a_node3"><a xlink:title=" ">
<polygon fill="#e0e0e0" stroke="#999999" points="434.87,-74 392.87,-74 392.87,-55 434.87,-55 434.87,-74"/>
<text text-anchor="middle" x="413.87" y="-62" font-family="Helvetica,sans-Serif" font-size="10.00">vector</text>
</a>
</g>
</g>
<!-- Node2&#45;&gt;Node3 -->
<g id="edge2" class="edge">
<title>Node2&#45;&gt;Node3</title>
<path fill="none" stroke="#63b8ff" d="M304.46,-164.83C299.91,-151.73 293.67,-126.67 304.87,-110 309.47,-103.16 351.49,-87.29 381.99,-76.47"/>
<polygon fill="#63b8ff" stroke="#63b8ff" points="382.91,-79.86 391.19,-73.25 380.59,-73.26 382.91,-79.86"/>
</g>
<!-- Node9&#45;&gt;Node3 -->
<g id="edge10" class="edge">
<title>Node9&#45;&gt;Node3</title>
<path fill="none" stroke="#63b8ff" d="M493.43,-164.69C485.91,-155.76 473.98,-141.5 463.87,-129 451.47,-113.68 437.63,-96.06 427.66,-83.27"/>
<polygon fill="#63b8ff" stroke="#63b8ff" points="430.42,-81.12 421.52,-75.38 424.9,-85.42 430.42,-81.12"/>
</g>
<!-- Node9&#45;&gt;Node8 -->
<g id="edge9" class="edge">
<title>Node9&#45;&gt;Node8</title>
<path fill="none" stroke="#63b8ff" d="M475.94,-164.75C451.49,-156.17 413.97,-143 386.21,-133.25"/>
<polygon fill="#63b8ff" stroke="#63b8ff" points="387.37,-129.95 376.78,-129.94 385.05,-136.56 387.37,-129.95"/>
</g>
<!-- Node9&#45;&gt;Node10 -->
<g id="edge11" class="edge">
<title>Node9&#45;&gt;Node10</title>
<path fill="none" stroke="#63b8ff" d="M523.77,-164.51C545.43,-156.01 578.18,-143.15 602.69,-133.53"/>
<polygon fill="#63b8ff" stroke="#63b8ff" points="603.87,-136.82 611.9,-129.91 601.31,-130.31 603.87,-136.82"/>
</g>
<!-- Node9&#45;&gt;Node11 -->
<g id="edge16" class="edge">
<title>Node9&#45;&gt;Node11</title>
<path fill="none" stroke="#63b8ff" d="M491.08,-164.58C478.53,-152.01 459.63,-128.57 470.87,-110 481.92,-91.74 503.21,-80.61 521.71,-74.05"/>
<polygon fill="#63b8ff" stroke="#63b8ff" points="522.57,-77.45 531.03,-71.07 520.44,-70.78 522.57,-77.45"/>
</g>
<!-- Node13 -->
<g id="node13" class="node">
<title>Node13</title>
<g id="a_node13"><a xlink:title=" ">
<polygon fill="#e0e0e0" stroke="#999999" points="521.37,-129 480.37,-129 480.37,-110 521.37,-110 521.37,-129"/>
<text text-anchor="middle" x="500.87" y="-117" font-family="Helvetica,sans-Serif" font-size="10.00">Eigen</text>
</a>
</g>
</g>
<!-- Node9&#45;&gt;Node13 -->
<g id="edge17" class="edge">
<title>Node9&#45;&gt;Node13</title>
<path fill="none" stroke="#63b8ff" d="M500.87,-164.75C500.87,-158.27 500.87,-149.16 500.87,-140.9"/>
<polygon fill="#63b8ff" stroke="#63b8ff" points="504.37,-140.96 500.87,-130.96 497.37,-140.96 504.37,-140.96"/>
</g>
<!-- Node14 -->
<g id="node14" class="node">
<title>Node14</title>
<g id="a_node14"><a xlink:title=" ">
<polygon fill="#e0e0e0" stroke="#999999" points="593.87,-129 539.87,-129 539.87,-110 593.87,-110 593.87,-129"/>
<text text-anchor="middle" x="566.87" y="-117" font-family="Helvetica,sans-Serif" font-size="10.00">iostream</text>
</a>
</g>
</g>
<!-- Node9&#45;&gt;Node14 -->
<g id="edge18" class="edge">
<title>Node9&#45;&gt;Node14</title>
<path fill="none" stroke="#63b8ff" d="M512.07,-164.51C521.61,-156.85 535.55,-145.66 546.98,-136.47"/>
<polygon fill="#63b8ff" stroke="#63b8ff" points="549.06,-139.3 554.66,-130.31 544.67,-133.84 549.06,-139.3"/>
</g>
<!-- Node10&#45;&gt;Node3 -->
<g id="edge15" class="edge">
<title>Node10&#45;&gt;Node3</title>
<path fill="none" stroke="#63b8ff" d="M612.09,-112.31C608.99,-111.52 605.86,-110.74 602.87,-110 547.85,-96.44 483.59,-81.5 445.95,-72.84"/>
<polygon fill="#63b8ff" stroke="#63b8ff" points="447.17,-69.53 436.64,-70.7 445.6,-76.35 447.17,-69.53"/>
</g>
<!-- Node10&#45;&gt;Node11 -->
<g id="edge12" class="edge">
<title>Node10&#45;&gt;Node11</title>
<path fill="none" stroke="#63b8ff" d="M622.3,-109.51C610.39,-101.62 592.82,-89.98 578.75,-80.65"/>
<polygon fill="#63b8ff" stroke="#63b8ff" points="580.77,-77.8 570.5,-75.19 576.91,-83.63 580.77,-77.8"/>
</g>
<!-- Node11&#45;&gt;Node4 -->
<g id="edge13" class="edge">
<title>Node11&#45;&gt;Node4</title>
<path fill="none" stroke="#63b8ff" d="M532.43,-58.7C485.41,-49.08 379.63,-27.44 327.33,-16.73"/>
<polygon fill="#63b8ff" stroke="#63b8ff" points="328.12,-13.32 317.62,-14.75 326.71,-20.18 328.12,-13.32"/>
</g>
<!-- Node12 -->
<g id="node12" class="node">
<title>Node12</title>
<g id="a_node12"><a xlink:title=" ">
<polygon fill="#e0e0e0" stroke="#999999" points="581.87,-19 529.87,-19 529.87,0 581.87,0 581.87,-19"/>
<text text-anchor="middle" x="555.87" y="-7" font-family="Helvetica,sans-Serif" font-size="10.00">ostream</text>
</a>
</g>
</g>
<!-- Node11&#45;&gt;Node12 -->
<g id="edge14" class="edge">
<title>Node11&#45;&gt;Node12</title>
<path fill="none" stroke="#63b8ff" d="M555.87,-54.75C555.87,-48.27 555.87,-39.16 555.87,-30.9"/>
<polygon fill="#63b8ff" stroke="#63b8ff" points="559.37,-30.96 555.87,-20.96 552.37,-30.96 559.37,-30.96"/>
</g>
<!-- Node15&#45;&gt;Node3 -->
<g id="edge23" class="edge">
<title>Node15&#45;&gt;Node3</title>
<path fill="none" stroke="#63b8ff" d="M243.91,-109.53C277.46,-101.33 328.54,-88.65 381.6,-74.55"/>
<polygon fill="#63b8ff" stroke="#63b8ff" points="382.37,-77.97 391.13,-72.01 380.56,-71.2 382.37,-77.97"/>
</g>
<!-- Node15&#45;&gt;Node4 -->
<g id="edge24" class="edge">
<title>Node15&#45;&gt;Node4</title>
<path fill="none" stroke="#63b8ff" d="M229.46,-109.51C245.17,-102.16 265.44,-90.32 277.87,-74 287.49,-61.37 292.26,-43.92 294.61,-30.51"/>
<polygon fill="#63b8ff" stroke="#63b8ff" points="298.07,-31.06 296,-20.67 291.14,-30.09 298.07,-31.06"/>
</g>
<!-- Node16 -->
<g id="node16" class="node">
<title>Node16</title>
<g id="a_node16"><a xlink:title=" ">
<polygon fill="#e0e0e0" stroke="#999999" points="268.87,-74 230.87,-74 230.87,-55 268.87,-55 268.87,-74"/>
<text text-anchor="middle" x="249.87" y="-62" font-family="Helvetica,sans-Serif" font-size="10.00">rpc.h</text>
</a>
</g>
</g>
<!-- Node15&#45;&gt;Node16 -->
<g id="edge20" class="edge">
<title>Node15&#45;&gt;Node16</title>
<path fill="none" stroke="#63b8ff" d="M213.97,-109.75C219.79,-102.58 228.21,-92.2 235.43,-83.3"/>
<polygon fill="#63b8ff" stroke="#63b8ff" points="238.08,-85.59 241.66,-75.62 232.64,-81.18 238.08,-85.59"/>
</g>
<!-- Node17 -->
<g id="node17" class="node">
<title>Node17</title>
<g id="a_node17"><a xlink:title=" ">
<polygon fill="#e0e0e0" stroke="#999999" points="374.87,-74 324.87,-74 324.87,-55 374.87,-55 374.87,-74"/>
<text text-anchor="middle" x="349.87" y="-62" font-family="Helvetica,sans-Serif" font-size="10.00">rtcore.h</text>
</a>
</g>
</g>
<!-- Node15&#45;&gt;Node17 -->
<g id="edge21" class="edge">
<title>Node15&#45;&gt;Node17</title>
<path fill="none" stroke="#63b8ff" d="M231.13,-109.51C254.28,-100.93 289.38,-87.92 315.43,-78.27"/>
<polygon fill="#63b8ff" stroke="#63b8ff" points="316.39,-81.64 324.55,-74.88 313.96,-75.08 316.39,-81.64"/>
</g>
<!-- Node18 -->
<g id="node18" class="node">
<title>Node18</title>
<g id="a_node18"><a xlink:title=" ">
<polygon fill="#e0e0e0" stroke="#999999" points="130.87,-74 12.87,-74 12.87,-55 130.87,-55 130.87,-74"/>
<text text-anchor="middle" x="71.87" y="-62" font-family="Helvetica,sans-Serif" font-size="10.00">corecrt_math_defines.h</text>
</a>
</g>
</g>
<!-- Node15&#45;&gt;Node18 -->
<g id="edge22" class="edge">
<title>Node15&#45;&gt;Node18</title>
<path fill="none" stroke="#63b8ff" d="M183.97,-109.51C162.31,-101.01 129.57,-88.15 105.05,-78.53"/>
<polygon fill="#63b8ff" stroke="#63b8ff" points="106.43,-75.31 95.84,-74.91 103.87,-81.82 106.43,-75.31"/>
</g>
<!-- Node19 -->
<g id="node19" class="node">
<title>Node19</title>
<g id="a_node19"><a xlink:href="a00152.html" target="_top" xlink:title=" ">
<polygon fill="white" stroke="#666666" points="212.37,-74 149.37,-74 149.37,-55 212.37,-55 212.37,-74"/>
<text text-anchor="middle" x="180.87" y="-62" font-family="Helvetica,sans-Serif" font-size="10.00">HitStruct.h</text>
</a>
</g>
</g>
<!-- Node15&#45;&gt;Node19 -->
<g id="edge25" class="edge">
<title>Node15&#45;&gt;Node19</title>
<path fill="none" stroke="#63b8ff" d="M202.58,-109.75C199.25,-102.96 194.51,-93.3 190.31,-84.73"/>
<polygon fill="#63b8ff" stroke="#63b8ff" points="193.47,-83.24 185.93,-75.8 187.19,-86.32 193.47,-83.24"/>
</g>
<!-- Node21 -->
<g id="node21" class="node">
<title>Node21</title>
<g id="a_node21"><a xlink:title=" ">
<polygon fill="#e0e0e0" stroke="#999999" points="915.87,-129 871.87,-129 871.87,-110 915.87,-110 915.87,-129"/>
<text text-anchor="middle" x="893.87" y="-117" font-family="Helvetica,sans-Serif" font-size="10.00">cmath</text>
</a>
</g>
</g>
<!-- Node20&#45;&gt;Node21 -->
<g id="edge29" class="edge">
<title>Node20&#45;&gt;Node21</title>
<path fill="none" stroke="#63b8ff" d="M893.87,-164.75C893.87,-158.27 893.87,-149.16 893.87,-140.9"/>
<polygon fill="#63b8ff" stroke="#63b8ff" points="897.37,-140.96 893.87,-130.96 890.37,-140.96 897.37,-140.96"/>
</g>
</g>
</svg>
