<?xml version="1.0" encoding="UTF-8" standalone="no"?>
<!DOCTYPE svg PUBLIC "-//W3C//DTD SVG 1.1//EN"
 "http://www.w3.org/Graphics/SVG/1.1/DTD/svg11.dtd">
<!-- Generated by graphviz version 8.0.5 (20230430.1635)
 -->
<!-- Title: Cpp/pathfinding/src/boost_graph.cpp Pages: 1 -->
<svg width="1144pt" height="276pt"
 viewBox="0.00 0.00 1143.75 276.00" xmlns="http://www.w3.org/2000/svg" xmlns:xlink="http://www.w3.org/1999/xlink">
<g id="graph0" class="graph" transform="scale(1 1) rotate(0) translate(4 272)">
<title>Cpp/pathfinding/src/boost_graph.cpp</title>
<!-- Node1 -->
<g id="node1" class="node">
<title>Node1</title>
<g id="a_node1"><a xlink:title="Contains implementation for the BoostGraph class.">
<polygon fill="#999999" stroke="#666666" points="1054.75,-268 955.5,-268 955.5,-236 1054.75,-236 1054.75,-268"/>
<text text-anchor="start" x="963.5" y="-254.5" font-family="Helvetica,sans-Serif" font-size="10.00">Cpp/pathfinding/src</text>
<text text-anchor="middle" x="1005.13" y="-242.5" font-family="Helvetica,sans-Serif" font-size="10.00">/boost_graph.cpp</text>
</a>
</g>
</g>
<!-- Node2 -->
<g id="node2" class="node">
<title>Node2</title>
<g id="a_node2"><a xlink:href="a00200.html" target="_top" xlink:title="Contains definitions for the BoostGraph class.">
<polygon fill="white" stroke="#666666" points="423.88,-200 346.38,-200 346.38,-180 423.88,-180 423.88,-200"/>
<text text-anchor="middle" x="385.13" y="-186.5" font-family="Helvetica,sans-Serif" font-size="10.00">boost_graph.h</text>
</a>
</g>
</g>
<!-- Node1&#45;&gt;Node2 -->
<g id="edge1" class="edge">
<title>Node1&#45;&gt;Node2</title>
<path fill="none" stroke="#63b8ff" d="M955.17,-246.17C838.91,-234.91 551.24,-207.08 435.02,-195.83"/>
<polygon fill="#63b8ff" stroke="#63b8ff" points="435.61,-192.27 425.32,-194.79 434.94,-199.24 435.61,-192.27"/>
</g>
<!-- Node8 -->
<g id="node8" class="node">
<title>Node8</title>
<g id="a_node8"><a xlink:href="a00269.html" target="_top" xlink:title="Contains definitions for the Graph &#160;class.">
<polygon fill="white" stroke="#666666" points="923.25,-200 875,-200 875,-180 923.25,-180 923.25,-200"/>
<text text-anchor="middle" x="899.13" y="-186.5" font-family="Helvetica,sans-Serif" font-size="10.00">graph.h</text>
</a>
</g>
</g>
<!-- Node1&#45;&gt;Node8 -->
<g id="edge7" class="edge">
<title>Node1&#45;&gt;Node8</title>
<path fill="none" stroke="#63b8ff" d="M977.83,-235.55C961.57,-226.35 941.06,-214.74 925.05,-205.68"/>
<polygon fill="#63b8ff" stroke="#63b8ff" points="927.17,-202.29 916.75,-200.41 923.72,-208.38 927.17,-202.29"/>
</g>
<!-- Node11 -->
<g id="node11" class="node">
<title>Node11</title>
<g id="a_node11"><a xlink:href="a00263.html" target="_top" xlink:title="Contains definitions for the Edge structure.">
<polygon fill="white" stroke="#666666" points="1028.5,-138 981.75,-138 981.75,-118 1028.5,-118 1028.5,-138"/>
<text text-anchor="middle" x="1005.13" y="-124.5" font-family="Helvetica,sans-Serif" font-size="10.00">Edge.h</text>
</a>
</g>
</g>
<!-- Node1&#45;&gt;Node11 -->
<g id="edge19" class="edge">
<title>Node1&#45;&gt;Node11</title>
<path fill="none" stroke="#63b8ff" d="M1005.13,-235.55C1005.13,-213.61 1005.13,-173.4 1005.13,-149.15"/>
<polygon fill="#63b8ff" stroke="#63b8ff" points="1008.63,-149.38 1005.13,-139.38 1001.63,-149.38 1008.63,-149.38"/>
</g>
<!-- Node12 -->
<g id="node12" class="node">
<title>Node12</title>
<g id="a_node12"><a xlink:href="a00275.html" target="_top" xlink:title="Contains definitions for the Node structure.">
<polygon fill="white" stroke="#666666" points="1027.75,-76 982.5,-76 982.5,-56 1027.75,-56 1027.75,-76"/>
<text text-anchor="middle" x="1005.13" y="-62.5" font-family="Helvetica,sans-Serif" font-size="10.00">node.h</text>
</a>
</g>
</g>
<!-- Node1&#45;&gt;Node12 -->
<g id="edge18" class="edge">
<title>Node1&#45;&gt;Node12</title>
<path fill="none" stroke="#63b8ff" d="M1013.92,-235.76C1027.64,-209.95 1051.21,-156.11 1037.13,-112 1033.94,-102.02 1027.64,-92.37 1021.47,-84.57"/>
<polygon fill="#63b8ff" stroke="#63b8ff" points="1023.63,-82.71 1014.48,-77.37 1018.31,-87.25 1023.63,-82.71"/>
</g>
<!-- Node17 -->
<g id="node17" class="node">
<title>Node17</title>
<g id="a_node17"><a xlink:title=" ">
<polygon fill="#e0e0e0" stroke="#999999" points="1135.75,-200 1084.5,-200 1084.5,-180 1135.75,-180 1135.75,-200"/>
<text text-anchor="middle" x="1110.13" y="-186.5" font-family="Helvetica,sans-Serif" font-size="10.00">assert.h</text>
</a>
</g>
</g>
<!-- Node1&#45;&gt;Node17 -->
<g id="edge20" class="edge">
<title>Node1&#45;&gt;Node17</title>
<path fill="none" stroke="#63b8ff" d="M1032.17,-235.55C1048.27,-226.35 1068.59,-214.74 1084.44,-205.68"/>
<polygon fill="#63b8ff" stroke="#63b8ff" points="1085.72,-208.41 1092.66,-200.41 1082.24,-202.33 1085.72,-208.41"/>
</g>
<!-- Node3 -->
<g id="node3" class="node">
<title>Node3</title>
<g id="a_node3"><a xlink:title=" ">
<polygon fill="#e0e0e0" stroke="#999999" points="668,-138 528.25,-138 528.25,-118 668,-118 668,-138"/>
<text text-anchor="middle" x="598.13" y="-124.5" font-family="Helvetica,sans-Serif" font-size="10.00">boost/graph/graph_traits.hpp</text>
</a>
</g>
</g>
<!-- Node2&#45;&gt;Node3 -->
<g id="edge2" class="edge">
<title>Node2&#45;&gt;Node3</title>
<path fill="none" stroke="#63b8ff" d="M418.41,-179.63C455.03,-169.31 514.05,-152.68 554.39,-141.32"/>
<polygon fill="#63b8ff" stroke="#63b8ff" points="555.05,-144.49 563.73,-138.41 553.15,-137.75 555.05,-144.49"/>
</g>
<!-- Node4 -->
<g id="node4" class="node">
<title>Node4</title>
<g id="a_node4"><a xlink:title=" ">
<polygon fill="#e0e0e0" stroke="#999999" points="114.25,-144 0,-144 0,-112 114.25,-112 114.25,-144"/>
<text text-anchor="start" x="8" y="-130.5" font-family="Helvetica,sans-Serif" font-size="10.00">boost/graph/adjacency</text>
<text text-anchor="middle" x="57.13" y="-118.5" font-family="Helvetica,sans-Serif" font-size="10.00">_matrix.hpp</text>
</a>
</g>
</g>
<!-- Node2&#45;&gt;Node4 -->
<g id="edge3" class="edge">
<title>Node2&#45;&gt;Node4</title>
<path fill="none" stroke="#63b8ff" d="M345.94,-182.94C296.72,-175.18 209.42,-160.93 125.43,-144.4"/>
<polygon fill="#63b8ff" stroke="#63b8ff" points="126.17,-140.78 115.68,-142.27 124.81,-147.65 126.17,-140.78"/>
</g>
<!-- Node5 -->
<g id="node5" class="node">
<title>Node5</title>
<g id="a_node5"><a xlink:title=" ">
<polygon fill="#e0e0e0" stroke="#999999" points="236.38,-144 131.88,-144 131.88,-112 236.38,-112 236.38,-144"/>
<text text-anchor="start" x="139.88" y="-130.5" font-family="Helvetica,sans-Serif" font-size="10.00">boost/graph/directed</text>
<text text-anchor="middle" x="184.13" y="-118.5" font-family="Helvetica,sans-Serif" font-size="10.00">_graph.hpp</text>
</a>
</g>
</g>
<!-- Node2&#45;&gt;Node5 -->
<g id="edge4" class="edge">
<title>Node2&#45;&gt;Node5</title>
<path fill="none" stroke="#63b8ff" d="M353.72,-179.63C325.08,-171.08 281.93,-158.19 246.32,-147.57"/>
<polygon fill="#63b8ff" stroke="#63b8ff" points="247.6,-144 237.02,-144.49 245.6,-150.7 247.6,-144"/>
</g>
<!-- Node6 -->
<g id="node6" class="node">
<title>Node6</title>
<g id="a_node6"><a xlink:title=" ">
<polygon fill="#e0e0e0" stroke="#999999" points="377.75,-144 254.5,-144 254.5,-112 377.75,-112 377.75,-144"/>
<text text-anchor="start" x="262.5" y="-130.5" font-family="Helvetica,sans-Serif" font-size="10.00">boost/graph/compressed</text>
<text text-anchor="middle" x="316.13" y="-118.5" font-family="Helvetica,sans-Serif" font-size="10.00">_sparse_row_graph.hpp</text>
</a>
</g>
</g>
<!-- Node2&#45;&gt;Node6 -->
<g id="edge5" class="edge">
<title>Node2&#45;&gt;Node6</title>
<path fill="none" stroke="#63b8ff" d="M374.34,-179.63C365.71,-172.11 353.22,-161.26 342.03,-151.52"/>
<polygon fill="#63b8ff" stroke="#63b8ff" points="344.65,-148.29 334.8,-144.37 340.05,-153.58 344.65,-148.29"/>
</g>
<!-- Node7 -->
<g id="node7" class="node">
<title>Node7</title>
<g id="a_node7"><a xlink:title=" ">
<polygon fill="#e0e0e0" stroke="#999999" points="510.25,-144 396,-144 396,-112 510.25,-112 510.25,-144"/>
<text text-anchor="start" x="404" y="-130.5" font-family="Helvetica,sans-Serif" font-size="10.00">boost/graph/adjacency</text>
<text text-anchor="middle" x="453.13" y="-118.5" font-family="Helvetica,sans-Serif" font-size="10.00">_list.hpp</text>
</a>
</g>
</g>
<!-- Node2&#45;&gt;Node7 -->
<g id="edge6" class="edge">
<title>Node2&#45;&gt;Node7</title>
<path fill="none" stroke="#63b8ff" d="M395.75,-179.63C404.26,-172.11 416.57,-161.26 427.6,-151.52"/>
<polygon fill="#63b8ff" stroke="#63b8ff" points="429.52,-154.61 434.7,-145.37 424.89,-149.37 429.52,-154.61"/>
</g>
<!-- Node9 -->
<g id="node9" class="node">
<title>Node9</title>
<g id="a_node9"><a xlink:title=" ">
<polygon fill="#e0e0e0" stroke="#999999" points="757.88,-138 686.38,-138 686.38,-118 757.88,-118 757.88,-138"/>
<text text-anchor="middle" x="722.13" y="-124.5" font-family="Helvetica,sans-Serif" font-size="10.00">robin_hood.h</text>
</a>
</g>
</g>
<!-- Node8&#45;&gt;Node9 -->
<g id="edge8" class="edge">
<title>Node8&#45;&gt;Node9</title>
<path fill="none" stroke="#63b8ff" d="M874.51,-180.66C844.9,-170.62 794.85,-153.65 760.23,-141.92"/>
<polygon fill="#63b8ff" stroke="#63b8ff" points="761.62,-138.35 751.02,-138.46 759.37,-144.98 761.62,-138.35"/>
</g>
<!-- Node10 -->
<g id="node10" class="node">
<title>Node10</title>
<g id="a_node10"><a xlink:title=" ">
<polygon fill="#e0e0e0" stroke="#999999" points="914.88,-76 873.38,-76 873.38,-56 914.88,-56 914.88,-76"/>
<text text-anchor="middle" x="894.13" y="-62.5" font-family="Helvetica,sans-Serif" font-size="10.00">vector</text>
</a>
</g>
</g>
<!-- Node8&#45;&gt;Node10 -->
<g id="edge9" class="edge">
<title>Node8&#45;&gt;Node10</title>
<path fill="none" stroke="#63b8ff" d="M888.27,-179.53C879.6,-171.18 868.09,-158.16 863.13,-144 858.42,-130.58 858.9,-125.58 863.13,-112 866.17,-102.21 872.17,-92.67 878.08,-84.91"/>
<polygon fill="#63b8ff" stroke="#63b8ff" points="881.41,-87.38 885.05,-77.43 876,-82.93 881.41,-87.38"/>
</g>
<!-- Node8&#45;&gt;Node11 -->
<g id="edge10" class="edge">
<title>Node8&#45;&gt;Node11</title>
<path fill="none" stroke="#63b8ff" d="M915.69,-179.63C932.72,-169.98 959.49,-154.83 979.31,-143.61"/>
<polygon fill="#63b8ff" stroke="#63b8ff" points="980.7,-146.28 987.68,-138.31 977.25,-140.19 980.7,-146.28"/>
</g>
<!-- Node8&#45;&gt;Node12 -->
<g id="edge15" class="edge">
<title>Node8&#45;&gt;Node12</title>
<path fill="none" stroke="#63b8ff" d="M907.09,-179.83C924.66,-159.61 967,-110.88 989.86,-84.57"/>
<polygon fill="#63b8ff" stroke="#63b8ff" points="993.15,-87.12 997.07,-77.28 987.86,-82.53 993.15,-87.12"/>
</g>
<!-- Node15 -->
<g id="node15" class="node">
<title>Node15</title>
<g id="a_node15"><a xlink:title=" ">
<polygon fill="#e0e0e0" stroke="#999999" points="816.5,-138 775.75,-138 775.75,-118 816.5,-118 816.5,-138"/>
<text text-anchor="middle" x="796.13" y="-124.5" font-family="Helvetica,sans-Serif" font-size="10.00">Eigen</text>
</a>
</g>
</g>
<!-- Node8&#45;&gt;Node15 -->
<g id="edge16" class="edge">
<title>Node8&#45;&gt;Node15</title>
<path fill="none" stroke="#63b8ff" d="M883.03,-179.63C866.55,-170.03 840.7,-154.97 821.47,-143.77"/>
<polygon fill="#63b8ff" stroke="#63b8ff" points="823.51,-140.32 813.11,-138.31 819.98,-146.37 823.51,-140.32"/>
</g>
<!-- Node16 -->
<g id="node16" class="node">
<title>Node16</title>
<g id="a_node16"><a xlink:title=" ">
<polygon fill="#e0e0e0" stroke="#999999" points="925.88,-138 872.38,-138 872.38,-118 925.88,-118 925.88,-138"/>
<text text-anchor="middle" x="899.13" y="-124.5" font-family="Helvetica,sans-Serif" font-size="10.00">iostream</text>
</a>
</g>
</g>
<!-- Node8&#45;&gt;Node16 -->
<g id="edge17" class="edge">
<title>Node8&#45;&gt;Node16</title>
<path fill="none" stroke="#63b8ff" d="M899.13,-179.63C899.13,-171.48 899.13,-159.39 899.13,-149.07"/>
<polygon fill="#63b8ff" stroke="#63b8ff" points="902.63,-149.11 899.13,-139.11 895.63,-149.11 902.63,-149.11"/>
</g>
<!-- Node11&#45;&gt;Node10 -->
<g id="edge14" class="edge">
<title>Node11&#45;&gt;Node10</title>
<path fill="none" stroke="#63b8ff" d="M987.78,-117.63C969.86,-107.94 941.65,-92.69 920.87,-81.46"/>
<polygon fill="#63b8ff" stroke="#63b8ff" points="922.81,-77.99 912.35,-76.31 919.48,-84.14 922.81,-77.99"/>
</g>
<!-- Node11&#45;&gt;Node12 -->
<g id="edge11" class="edge">
<title>Node11&#45;&gt;Node12</title>
<path fill="none" stroke="#63b8ff" d="M1005.13,-117.63C1005.13,-109.48 1005.13,-97.39 1005.13,-87.07"/>
<polygon fill="#63b8ff" stroke="#63b8ff" points="1008.63,-87.11 1005.13,-77.11 1001.63,-87.11 1008.63,-87.11"/>
</g>
<!-- Node13 -->
<g id="node13" class="node">
<title>Node13</title>
<g id="a_node13"><a xlink:title=" ">
<polygon fill="#e0e0e0" stroke="#999999" points="993,-20 955.25,-20 955.25,0 993,0 993,-20"/>
<text text-anchor="middle" x="974.13" y="-6.5" font-family="Helvetica,sans-Serif" font-size="10.00">array</text>
</a>
</g>
</g>
<!-- Node12&#45;&gt;Node13 -->
<g id="edge12" class="edge">
<title>Node12&#45;&gt;Node13</title>
<path fill="none" stroke="#63b8ff" d="M999.73,-55.59C995.64,-48.47 989.88,-38.45 984.87,-29.72"/>
<polygon fill="#63b8ff" stroke="#63b8ff" points="987.48,-28.23 979.46,-21.3 981.41,-31.71 987.48,-28.23"/>
</g>
<!-- Node14 -->
<g id="node14" class="node">
<title>Node14</title>
<g id="a_node14"><a xlink:title=" ">
<polygon fill="#e0e0e0" stroke="#999999" points="1062.75,-20 1011.5,-20 1011.5,0 1062.75,0 1062.75,-20"/>
<text text-anchor="middle" x="1037.13" y="-6.5" font-family="Helvetica,sans-Serif" font-size="10.00">ostream</text>
</a>
</g>
</g>
<!-- Node12&#45;&gt;Node14 -->
<g id="edge13" class="edge">
<title>Node12&#45;&gt;Node14</title>
<path fill="none" stroke="#63b8ff" d="M1010.7,-55.59C1014.92,-48.47 1020.86,-38.45 1026.03,-29.72"/>
<polygon fill="#63b8ff" stroke="#63b8ff" points="1029.53,-31.69 1031.61,-21.3 1023.51,-28.12 1029.53,-31.69"/>
</g>
</g>
</svg>
