<?xml version="1.0" encoding="UTF-8" standalone="no"?>
<!DOCTYPE svg PUBLIC "-//W3C//DTD SVG 1.1//EN"
 "http://www.w3.org/Graphics/SVG/1.1/DTD/svg11.dtd">
<!-- Generated by graphviz version 2.43.0 (0)
 -->
<!-- Title: Cpp/spatialstructures/src/CInterface.cpp Pages: 1 -->
<svg width="892pt" height="263pt"
 viewBox="0.00 0.00 891.69 263.00" xmlns="http://www.w3.org/2000/svg" xmlns:xlink="http://www.w3.org/1999/xlink">
<g id="graph0" class="graph" transform="scale(1 1) rotate(0) translate(4 259)">
<title>Cpp/spatialstructures/src/CInterface.cpp</title>
<polygon fill="white" stroke="transparent" points="-4,4 -4,-259 887.69,-259 887.69,4 -4,4"/>
<!-- Node1 -->
<g id="node1" class="node">
<title>Node1</title>
<g id="a_node1"><a xlink:title="Contains implementation for the CInterface.">
<polygon fill="#bfbfbf" stroke="black" points="308.19,-224.5 308.19,-254.5 428.19,-254.5 428.19,-224.5 308.19,-224.5"/>
<text text-anchor="start" x="316.19" y="-242.5" font-family="Helvetica,sans-Serif" font-size="10.00">Cpp/spatialstructures</text>
<text text-anchor="middle" x="368.19" y="-231.5" font-family="Helvetica,sans-Serif" font-size="10.00">/src/CInterface.cpp</text>
</a>
</g>
</g>
<!-- Node2 -->
<g id="node2" class="node">
<title>Node2</title>
<g id="a_node2"><a xlink:href="a00371.html" target="_top" xlink:title="Header file related to manipulating nodes, edges, and graphs via CInterface.">
<polygon fill="white" stroke="black" points="47.69,-168.5 47.69,-187.5 166.69,-187.5 166.69,-168.5 47.69,-168.5"/>
<text text-anchor="middle" x="107.19" y="-175.5" font-family="Helvetica,sans-Serif" font-size="10.00">spatialstructures_C.h</text>
</a>
</g>
</g>
<!-- Node1&#45;&gt;Node2 -->
<g id="edge1" class="edge">
<title>Node1&#45;&gt;Node2</title>
<path fill="none" stroke="midnightblue" d="M307.98,-224.77C261.29,-214.13 197.49,-199.59 154.44,-189.77"/>
<polygon fill="midnightblue" stroke="midnightblue" points="155.03,-186.32 144.5,-187.51 153.47,-193.14 155.03,-186.32"/>
</g>
<!-- Node6 -->
<g id="node6" class="node">
<title>Node6</title>
<g id="a_node6"><a xlink:title=" ">
<polygon fill="white" stroke="#bfbfbf" points="174.19,-112.5 174.19,-131.5 234.19,-131.5 234.19,-112.5 174.19,-112.5"/>
<text text-anchor="middle" x="204.19" y="-119.5" font-family="Helvetica,sans-Serif" font-size="10.00">iostream</text>
</a>
</g>
</g>
<!-- Node1&#45;&gt;Node6 -->
<g id="edge7" class="edge">
<title>Node1&#45;&gt;Node6</title>
<path fill="none" stroke="midnightblue" d="M348.08,-224.34C316.78,-202.3 256.73,-160.01 225.01,-137.66"/>
<polygon fill="midnightblue" stroke="midnightblue" points="226.69,-134.57 216.49,-131.67 222.66,-140.29 226.69,-134.57"/>
</g>
<!-- Node7 -->
<g id="node7" class="node">
<title>Node7</title>
<g id="a_node7"><a xlink:href="a00185.html" target="_top" xlink:title="Contains definitions for the HF::SpatialStructures namespace.">
<polygon fill="white" stroke="black" points="594.19,-168.5 594.19,-187.5 668.19,-187.5 668.19,-168.5 594.19,-168.5"/>
<text text-anchor="middle" x="631.19" y="-175.5" font-family="Helvetica,sans-Serif" font-size="10.00">Constants.h</text>
</a>
</g>
</g>
<!-- Node1&#45;&gt;Node7 -->
<g id="edge8" class="edge">
<title>Node1&#45;&gt;Node7</title>
<path fill="none" stroke="midnightblue" d="M428.19,-224.92C475.59,-214.2 540.79,-199.45 584.38,-189.59"/>
<polygon fill="midnightblue" stroke="midnightblue" points="585.18,-193 594.16,-187.38 583.63,-186.17 585.18,-193"/>
</g>
<!-- Node9 -->
<g id="node9" class="node">
<title>Node9</title>
<g id="a_node9"><a xlink:href="a00110.html" target="_top" xlink:title="Contains definitions for the Exceptions namespace.">
<polygon fill="white" stroke="black" points="710.19,-168.5 710.19,-187.5 802.19,-187.5 802.19,-168.5 710.19,-168.5"/>
<text text-anchor="middle" x="756.19" y="-175.5" font-family="Helvetica,sans-Serif" font-size="10.00">HFExceptions.h</text>
</a>
</g>
</g>
<!-- Node1&#45;&gt;Node9 -->
<g id="edge10" class="edge">
<title>Node1&#45;&gt;Node9</title>
<path fill="none" stroke="midnightblue" d="M428.38,-229.27C502.54,-217.9 627.54,-198.73 699.86,-187.64"/>
<polygon fill="midnightblue" stroke="midnightblue" points="700.78,-191.04 710.14,-186.06 699.72,-184.12 700.78,-191.04"/>
</g>
<!-- Node13 -->
<g id="node13" class="node">
<title>Node13</title>
<g id="a_node13"><a xlink:href="a00203.html" target="_top" xlink:title="Contains definitions for the Graph &#160;class.">
<polygon fill="white" stroke="black" points="341.69,-168.5 341.69,-187.5 394.69,-187.5 394.69,-168.5 341.69,-168.5"/>
<text text-anchor="middle" x="368.19" y="-175.5" font-family="Helvetica,sans-Serif" font-size="10.00">graph.h</text>
</a>
</g>
</g>
<!-- Node1&#45;&gt;Node13 -->
<g id="edge14" class="edge">
<title>Node1&#45;&gt;Node13</title>
<path fill="none" stroke="midnightblue" d="M368.19,-224.4C368.19,-216.47 368.19,-206.46 368.19,-197.86"/>
<polygon fill="midnightblue" stroke="midnightblue" points="371.69,-197.66 368.19,-187.66 364.69,-197.66 371.69,-197.66"/>
</g>
<!-- Node15 -->
<g id="node15" class="node">
<title>Node15</title>
<g id="a_node15"><a xlink:href="a00197.html" target="_top" xlink:title="Contains definitions for the Edge structure.">
<polygon fill="white" stroke="black" points="252.19,-112.5 252.19,-131.5 302.19,-131.5 302.19,-112.5 252.19,-112.5"/>
<text text-anchor="middle" x="277.19" y="-119.5" font-family="Helvetica,sans-Serif" font-size="10.00">Edge.h</text>
</a>
</g>
</g>
<!-- Node1&#45;&gt;Node15 -->
<g id="edge26" class="edge">
<title>Node1&#45;&gt;Node15</title>
<path fill="none" stroke="midnightblue" d="M357.03,-224.34C340.18,-202.96 308.33,-162.53 290.37,-139.73"/>
<polygon fill="midnightblue" stroke="midnightblue" points="292.95,-137.36 284.02,-131.67 287.46,-141.69 292.95,-137.36"/>
</g>
<!-- Node16 -->
<g id="node16" class="node">
<title>Node16</title>
<g id="a_node16"><a xlink:href="a00209.html" target="_top" xlink:title="Contains definitions for the Node structure.">
<polygon fill="white" stroke="black" points="328.19,-56.5 328.19,-75.5 378.19,-75.5 378.19,-56.5 328.19,-56.5"/>
<text text-anchor="middle" x="353.19" y="-63.5" font-family="Helvetica,sans-Serif" font-size="10.00">node.h</text>
</a>
</g>
</g>
<!-- Node1&#45;&gt;Node16 -->
<g id="edge25" class="edge">
<title>Node1&#45;&gt;Node16</title>
<path fill="none" stroke="midnightblue" d="M422.19,-224.44C488.9,-204.45 588.79,-164.36 547.19,-112 527.76,-87.55 439.14,-75.2 388.66,-70.05"/>
<polygon fill="midnightblue" stroke="midnightblue" points="388.8,-66.54 378.51,-69.05 388.12,-73.51 388.8,-66.54"/>
</g>
<!-- Node3 -->
<g id="node3" class="node">
<title>Node3</title>
<g id="a_node3"><a xlink:href="a00347.html" target="_top" xlink:title=" ">
<polygon fill="white" stroke="black" points="16.69,-112.5 16.69,-131.5 117.69,-131.5 117.69,-112.5 16.69,-112.5"/>
<text text-anchor="middle" x="67.19" y="-119.5" font-family="Helvetica,sans-Serif" font-size="10.00">cinterface_utils.h</text>
</a>
</g>
</g>
<!-- Node2&#45;&gt;Node3 -->
<g id="edge2" class="edge">
<title>Node2&#45;&gt;Node3</title>
<path fill="none" stroke="midnightblue" d="M100.58,-168.08C94.93,-160.46 86.64,-149.26 79.73,-139.94"/>
<polygon fill="midnightblue" stroke="midnightblue" points="82.43,-137.7 73.67,-131.75 76.81,-141.87 82.43,-137.7"/>
</g>
<!-- Node4 -->
<g id="node4" class="node">
<title>Node4</title>
<g id="a_node4"><a xlink:title=" ">
<polygon fill="white" stroke="#bfbfbf" points="154.69,-56.5 154.69,-75.5 201.69,-75.5 201.69,-56.5 154.69,-56.5"/>
<text text-anchor="middle" x="178.19" y="-63.5" font-family="Helvetica,sans-Serif" font-size="10.00">vector</text>
</a>
</g>
</g>
<!-- Node2&#45;&gt;Node4 -->
<g id="edge5" class="edge">
<title>Node2&#45;&gt;Node4</title>
<path fill="none" stroke="midnightblue" d="M112.76,-168.37C124.42,-150.3 151.61,-108.18 167.01,-84.31"/>
<polygon fill="midnightblue" stroke="midnightblue" points="170.16,-85.89 172.64,-75.59 164.28,-82.1 170.16,-85.89"/>
</g>
<!-- Node5 -->
<g id="node5" class="node">
<title>Node5</title>
<g id="a_node5"><a xlink:title=" ">
<polygon fill="white" stroke="#bfbfbf" points="46.19,-0.5 46.19,-19.5 88.19,-19.5 88.19,-0.5 46.19,-0.5"/>
<text text-anchor="middle" x="67.19" y="-7.5" font-family="Helvetica,sans-Serif" font-size="10.00">array</text>
</a>
</g>
</g>
<!-- Node2&#45;&gt;Node5 -->
<g id="edge6" class="edge">
<title>Node2&#45;&gt;Node5</title>
<path fill="none" stroke="midnightblue" d="M62.49,-168.48C41.96,-162.09 19.49,-151.02 7.19,-132 -16.02,-96.11 24.24,-49.99 49.35,-26.4"/>
<polygon fill="midnightblue" stroke="midnightblue" points="51.82,-28.88 56.87,-19.57 47.11,-23.7 51.82,-28.88"/>
</g>
<!-- Node3&#45;&gt;Node4 -->
<g id="edge3" class="edge">
<title>Node3&#45;&gt;Node4</title>
<path fill="none" stroke="midnightblue" d="M85.02,-112.32C102.9,-103.62 130.66,-90.12 151.23,-80.11"/>
<polygon fill="midnightblue" stroke="midnightblue" points="152.93,-83.18 160.4,-75.65 149.87,-76.88 152.93,-83.18"/>
</g>
<!-- Node3&#45;&gt;Node5 -->
<g id="edge4" class="edge">
<title>Node3&#45;&gt;Node5</title>
<path fill="none" stroke="midnightblue" d="M67.19,-112.37C67.19,-94.62 67.19,-53.67 67.19,-29.6"/>
<polygon fill="midnightblue" stroke="midnightblue" points="70.69,-29.59 67.19,-19.59 63.69,-29.59 70.69,-29.59"/>
</g>
<!-- Node8 -->
<g id="node8" class="node">
<title>Node8</title>
<g id="a_node8"><a xlink:title=" ">
<polygon fill="white" stroke="#bfbfbf" points="601.69,-112.5 601.69,-131.5 648.69,-131.5 648.69,-112.5 601.69,-112.5"/>
<text text-anchor="middle" x="625.19" y="-119.5" font-family="Helvetica,sans-Serif" font-size="10.00">cmath</text>
</a>
</g>
</g>
<!-- Node7&#45;&gt;Node8 -->
<g id="edge9" class="edge">
<title>Node7&#45;&gt;Node8</title>
<path fill="none" stroke="midnightblue" d="M630.19,-168.08C629.4,-160.93 628.26,-150.64 627.26,-141.69"/>
<polygon fill="midnightblue" stroke="midnightblue" points="630.74,-141.3 626.16,-131.75 623.78,-142.08 630.74,-141.3"/>
</g>
<!-- Node10 -->
<g id="node10" class="node">
<title>Node10</title>
<g id="a_node10"><a xlink:title=" ">
<polygon fill="white" stroke="#bfbfbf" points="666.69,-112.5 666.69,-131.5 731.69,-131.5 731.69,-112.5 666.69,-112.5"/>
<text text-anchor="middle" x="699.19" y="-119.5" font-family="Helvetica,sans-Serif" font-size="10.00">exception</text>
</a>
</g>
</g>
<!-- Node9&#45;&gt;Node10 -->
<g id="edge11" class="edge">
<title>Node9&#45;&gt;Node10</title>
<path fill="none" stroke="midnightblue" d="M747.03,-168.32C738.68,-160.42 726.15,-148.55 716.01,-138.94"/>
<polygon fill="midnightblue" stroke="midnightblue" points="718.18,-136.17 708.51,-131.83 713.36,-141.25 718.18,-136.17"/>
</g>
<!-- Node11 -->
<g id="node11" class="node">
<title>Node11</title>
<g id="a_node11"><a xlink:title=" ">
<polygon fill="white" stroke="#bfbfbf" points="750.19,-112.5 750.19,-131.5 800.19,-131.5 800.19,-112.5 750.19,-112.5"/>
<text text-anchor="middle" x="775.19" y="-119.5" font-family="Helvetica,sans-Serif" font-size="10.00">cstring</text>
</a>
</g>
</g>
<!-- Node9&#45;&gt;Node11 -->
<g id="edge12" class="edge">
<title>Node9&#45;&gt;Node11</title>
<path fill="none" stroke="midnightblue" d="M759.32,-168.08C761.87,-160.85 765.54,-150.41 768.71,-141.4"/>
<polygon fill="midnightblue" stroke="midnightblue" points="772.09,-142.35 772.11,-131.75 765.49,-140.02 772.09,-142.35"/>
</g>
<!-- Node12 -->
<g id="node12" class="node">
<title>Node12</title>
<g id="a_node12"><a xlink:title=" ">
<polygon fill="white" stroke="#bfbfbf" points="818.69,-112.5 818.69,-131.5 883.69,-131.5 883.69,-112.5 818.69,-112.5"/>
<text text-anchor="middle" x="851.19" y="-119.5" font-family="Helvetica,sans-Serif" font-size="10.00">stdexcept</text>
</a>
</g>
</g>
<!-- Node9&#45;&gt;Node12 -->
<g id="edge13" class="edge">
<title>Node9&#45;&gt;Node12</title>
<path fill="none" stroke="midnightblue" d="M771.45,-168.32C786.41,-159.82 809.44,-146.73 826.91,-136.8"/>
<polygon fill="midnightblue" stroke="midnightblue" points="829,-139.64 835.96,-131.65 825.54,-133.55 829,-139.64"/>
</g>
<!-- Node13&#45;&gt;Node4 -->
<g id="edge16" class="edge">
<title>Node13&#45;&gt;Node4</title>
<path fill="none" stroke="midnightblue" d="M362.65,-168.11C353.55,-154.2 334.15,-127.33 311.19,-112 280.67,-91.63 240.06,-79.66 211.78,-73.25"/>
<polygon fill="midnightblue" stroke="midnightblue" points="212.47,-69.82 201.95,-71.13 210.99,-76.66 212.47,-69.82"/>
</g>
<!-- Node13&#45;&gt;Node6 -->
<g id="edge24" class="edge">
<title>Node13&#45;&gt;Node6</title>
<path fill="none" stroke="midnightblue" d="M342.2,-168.44C314.49,-159.32 270.43,-144.81 239.57,-134.65"/>
<polygon fill="midnightblue" stroke="midnightblue" points="240.64,-131.32 230.05,-131.52 238.45,-137.97 240.64,-131.32"/>
</g>
<!-- Node14 -->
<g id="node14" class="node">
<title>Node14</title>
<g id="a_node14"><a xlink:title=" ">
<polygon fill="white" stroke="#bfbfbf" points="458.19,-112.5 458.19,-131.5 538.19,-131.5 538.19,-112.5 458.19,-112.5"/>
<text text-anchor="middle" x="498.19" y="-119.5" font-family="Helvetica,sans-Serif" font-size="10.00">robin_hood.h</text>
</a>
</g>
</g>
<!-- Node13&#45;&gt;Node14 -->
<g id="edge15" class="edge">
<title>Node13&#45;&gt;Node14</title>
<path fill="none" stroke="midnightblue" d="M388.78,-168.44C410.18,-159.56 443.87,-145.56 468.21,-135.45"/>
<polygon fill="midnightblue" stroke="midnightblue" points="469.79,-138.58 477.68,-131.52 467.1,-132.12 469.79,-138.58"/>
</g>
<!-- Node13&#45;&gt;Node15 -->
<g id="edge17" class="edge">
<title>Node13&#45;&gt;Node15</title>
<path fill="none" stroke="midnightblue" d="M353.56,-168.32C339.24,-159.82 317.17,-146.73 300.44,-136.8"/>
<polygon fill="midnightblue" stroke="midnightblue" points="302.16,-133.75 291.77,-131.65 298.58,-139.77 302.16,-133.75"/>
</g>
<!-- Node13&#45;&gt;Node16 -->
<g id="edge22" class="edge">
<title>Node13&#45;&gt;Node16</title>
<path fill="none" stroke="midnightblue" d="M380.95,-168.39C397.13,-156.35 421.72,-133.51 411.19,-112 404.66,-98.68 392.09,-88.18 380.31,-80.68"/>
<polygon fill="midnightblue" stroke="midnightblue" points="381.97,-77.59 371.57,-75.53 378.41,-83.62 381.97,-77.59"/>
</g>
<!-- Node18 -->
<g id="node18" class="node">
<title>Node18</title>
<g id="a_node18"><a xlink:title=" ">
<polygon fill="white" stroke="#bfbfbf" points="358.19,-112.5 358.19,-131.5 402.19,-131.5 402.19,-112.5 358.19,-112.5"/>
<text text-anchor="middle" x="380.19" y="-119.5" font-family="Helvetica,sans-Serif" font-size="10.00">Eigen</text>
</a>
</g>
</g>
<!-- Node13&#45;&gt;Node18 -->
<g id="edge23" class="edge">
<title>Node13&#45;&gt;Node18</title>
<path fill="none" stroke="midnightblue" d="M370.17,-168.08C371.76,-160.93 374.04,-150.64 376.03,-141.69"/>
<polygon fill="midnightblue" stroke="midnightblue" points="379.49,-142.27 378.24,-131.75 372.65,-140.75 379.49,-142.27"/>
</g>
<!-- Node15&#45;&gt;Node4 -->
<g id="edge21" class="edge">
<title>Node15&#45;&gt;Node4</title>
<path fill="none" stroke="midnightblue" d="M261.28,-112.32C245.55,-103.74 221.24,-90.49 202.98,-80.52"/>
<polygon fill="midnightblue" stroke="midnightblue" points="204.51,-77.37 194.05,-75.65 201.15,-83.52 204.51,-77.37"/>
</g>
<!-- Node15&#45;&gt;Node16 -->
<g id="edge18" class="edge">
<title>Node15&#45;&gt;Node16</title>
<path fill="none" stroke="midnightblue" d="M289.4,-112.32C300.96,-104.11 318.56,-91.6 332.35,-81.81"/>
<polygon fill="midnightblue" stroke="midnightblue" points="334.63,-84.48 340.75,-75.83 330.57,-78.77 334.63,-84.48"/>
</g>
<!-- Node16&#45;&gt;Node5 -->
<g id="edge19" class="edge">
<title>Node16&#45;&gt;Node5</title>
<path fill="none" stroke="midnightblue" d="M328.06,-60.26C275.7,-50.37 155.09,-27.6 98.09,-16.84"/>
<polygon fill="midnightblue" stroke="midnightblue" points="98.69,-13.39 88.22,-14.97 97.4,-20.27 98.69,-13.39"/>
</g>
<!-- Node17 -->
<g id="node17" class="node">
<title>Node17</title>
<g id="a_node17"><a xlink:title=" ">
<polygon fill="white" stroke="#bfbfbf" points="324.69,-0.5 324.69,-19.5 381.69,-19.5 381.69,-0.5 324.69,-0.5"/>
<text text-anchor="middle" x="353.19" y="-7.5" font-family="Helvetica,sans-Serif" font-size="10.00">ostream</text>
</a>
</g>
</g>
<!-- Node16&#45;&gt;Node17 -->
<g id="edge20" class="edge">
<title>Node16&#45;&gt;Node17</title>
<path fill="none" stroke="midnightblue" d="M353.19,-56.08C353.19,-49.01 353.19,-38.86 353.19,-29.99"/>
<polygon fill="midnightblue" stroke="midnightblue" points="356.69,-29.75 353.19,-19.75 349.69,-29.75 356.69,-29.75"/>
</g>
</g>
</svg>
