<?xml version="1.0" encoding="UTF-8" standalone="no"?>
<!DOCTYPE svg PUBLIC "-//W3C//DTD SVG 1.1//EN"
 "http://www.w3.org/Graphics/SVG/1.1/DTD/svg11.dtd">
<!-- Generated by graphviz version 2.43.0 (0)
 -->
<!-- Title: operator&lt;&lt; Pages: 1 -->
<svg width="290pt" height="127pt"
 viewBox="0.00 0.00 290.00 126.50" xmlns="http://www.w3.org/2000/svg" xmlns:xlink="http://www.w3.org/1999/xlink">
<g id="graph0" class="graph" transform="scale(1 1) rotate(0) translate(4 122.5)">
<title>operator&lt;&lt;</title>
<polygon fill="white" stroke="transparent" points="-4,4 -4,-122.5 286,-122.5 286,4 -4,4"/>
<!-- Node1 -->
<g id="node1" class="node">
<title>Node1</title>
<g id="a_node1"><a xlink:title="An overload to print HF::Pathfinding::DistanceAndPredecessor when passed to cout .">
<polygon fill="#bfbfbf" stroke="black" points="0,-44.5 0,-63.5 74,-63.5 74,-44.5 0,-44.5"/>
<text text-anchor="middle" x="37" y="-51.5" font-family="Helvetica,sans-Serif" font-size="10.00">operator&lt;&lt;</text>
</a>
</g>
</g>
<!-- Node2 -->
<g id="node2" class="node">
<title>Node2</title>
<g id="a_node2"><a xlink:href="a01341.html#a75b5c1c61a7afbe2ace4ba7a9cd41026" target="_top" xlink:title="Get a pointer to the beginning of the ith row of the distance array.">
<polygon fill="white" stroke="black" points="111,-88 111,-118 281,-118 281,-88 111,-88"/>
<text text-anchor="start" x="119" y="-106" font-family="Helvetica,sans-Serif" font-size="10.00">HF::Pathfinding::Distance</text>
<text text-anchor="middle" x="196" y="-95" font-family="Helvetica,sans-Serif" font-size="10.00">AndPredecessor::GetRowOfDist</text>
</a>
</g>
</g>
<!-- Node1&#45;&gt;Node2 -->
<g id="edge1" class="edge">
<title>Node1&#45;&gt;Node2</title>
<path fill="none" stroke="midnightblue" d="M64.21,-63.52C77.81,-68.35 94.73,-74.2 110,-79 116.49,-81.04 123.28,-83.09 130.07,-85.09"/>
<polygon fill="midnightblue" stroke="midnightblue" points="129.41,-88.55 139.99,-87.98 131.37,-81.83 129.41,-88.55"/>
</g>
<!-- Node3 -->
<g id="node3" class="node">
<title>Node3</title>
<g id="a_node3"><a xlink:href="a01341.html#a686718154f87c6914399998637b5bd4e" target="_top" xlink:title="Get a pointer to the beginning of the ith row of the predecessor array.">
<polygon fill="white" stroke="black" points="110,-39 110,-69 282,-69 282,-39 110,-39"/>
<text text-anchor="start" x="118" y="-57" font-family="Helvetica,sans-Serif" font-size="10.00">HF::Pathfinding::Distance</text>
<text text-anchor="middle" x="196" y="-46" font-family="Helvetica,sans-Serif" font-size="10.00">AndPredecessor::GetRowOfPred</text>
</a>
</g>
</g>
<!-- Node1&#45;&gt;Node3 -->
<g id="edge2" class="edge">
<title>Node1&#45;&gt;Node3</title>
<path fill="none" stroke="midnightblue" d="M74.02,-54C82,-54 90.81,-54 99.94,-54"/>
<polygon fill="midnightblue" stroke="midnightblue" points="99.95,-57.5 109.95,-54 99.95,-50.5 99.95,-57.5"/>
</g>
<!-- Node4 -->
<g id="node4" class="node">
<title>Node4</title>
<g id="a_node4"><a xlink:href="a00410.html#a6ce645a0b8717757e096a5b5773b7a16" target="_top" xlink:title="user&#45;defined to_string function for JSON values">
<polygon fill="white" stroke="black" points="139,-0.5 139,-19.5 253,-19.5 253,-0.5 139,-0.5"/>
<text text-anchor="middle" x="196" y="-7.5" font-family="Helvetica,sans-Serif" font-size="10.00">nlohmann::to_string</text>
</a>
</g>
</g>
<!-- Node1&#45;&gt;Node4 -->
<g id="edge3" class="edge">
<title>Node1&#45;&gt;Node4</title>
<path fill="none" stroke="midnightblue" d="M64.83,-44.41C78.3,-39.77 94.92,-34.28 110,-30 120.06,-27.15 130.86,-24.38 141.29,-21.86"/>
<polygon fill="midnightblue" stroke="midnightblue" points="142.2,-25.24 151.13,-19.52 140.59,-18.43 142.2,-25.24"/>
</g>
</g>
</svg>
