<?xml version="1.0" encoding="UTF-8" standalone="no"?>
<!DOCTYPE svg PUBLIC "-//W3C//DTD SVG 1.1//EN"
 "http://www.w3.org/Graphics/SVG/1.1/DTD/svg11.dtd">
<!-- Generated by graphviz version 2.43.0 (0)
 -->
<!-- Title: Cpp/raytracer/src/MultiRT.cpp Pages: 1 -->
<svg width="902pt" height="196pt"
 viewBox="0.00 0.00 901.61 196.00" xmlns="http://www.w3.org/2000/svg" xmlns:xlink="http://www.w3.org/1999/xlink">
<g id="graph0" class="graph" transform="scale(1 1) rotate(0) translate(4 192)">
<title>Cpp/raytracer/src/MultiRT.cpp</title>
<polygon fill="white" stroke="transparent" points="-4,4 -4,-192 897.61,-192 897.61,4 -4,4"/>
<!-- Node1 -->
<g id="node1" class="node">
<title>Node1</title>
<g id="a_node1"><a xlink:title=" ">
<polygon fill="#bfbfbf" stroke="black" points="392.11,-168.5 392.11,-187.5 551.11,-187.5 551.11,-168.5 392.11,-168.5"/>
<text text-anchor="middle" x="471.61" y="-175.5" font-family="Helvetica,sans-Serif" font-size="10.00">Cpp/raytracer/src/MultiRT.cpp</text>
</a>
</g>
</g>
<!-- Node2 -->
<g id="node2" class="node">
<title>Node2</title>
<g id="a_node2"><a xlink:href="a00158.html" target="_top" xlink:title=" ">
<polygon fill="white" stroke="black" points="357.61,-112.5 357.61,-131.5 419.61,-131.5 419.61,-112.5 357.61,-112.5"/>
<text text-anchor="middle" x="388.61" y="-119.5" font-family="Helvetica,sans-Serif" font-size="10.00">MultiRT.h</text>
</a>
</g>
</g>
<!-- Node1&#45;&gt;Node2 -->
<g id="edge1" class="edge">
<title>Node1&#45;&gt;Node2</title>
<path fill="none" stroke="midnightblue" d="M458.27,-168.32C445.45,-159.98 425.82,-147.21 410.67,-137.35"/>
<polygon fill="midnightblue" stroke="midnightblue" points="412.2,-134.17 401.91,-131.65 408.38,-140.04 412.2,-134.17"/>
</g>
<!-- Node5 -->
<g id="node5" class="node">
<title>Node5</title>
<g id="a_node5"><a xlink:href="a00146.html" target="_top" xlink:title="Contains definitions for the EmbreeRayTracer">
<polygon fill="white" stroke="black" points="155.61,-112.5 155.61,-131.5 267.61,-131.5 267.61,-112.5 155.61,-112.5"/>
<text text-anchor="middle" x="211.61" y="-119.5" font-family="Helvetica,sans-Serif" font-size="10.00">embree_raytracer.h</text>
</a>
</g>
</g>
<!-- Node1&#45;&gt;Node5 -->
<g id="edge4" class="edge">
<title>Node1&#45;&gt;Node5</title>
<path fill="none" stroke="midnightblue" d="M430.41,-168.44C384.96,-159 311.77,-143.8 262.7,-133.61"/>
<polygon fill="midnightblue" stroke="midnightblue" points="263.11,-130.12 252.61,-131.52 261.69,-136.98 263.11,-130.12"/>
</g>
<!-- Node10 -->
<g id="node10" class="node">
<title>Node10</title>
<g id="a_node10"><a xlink:href="a00167.html" target="_top" xlink:title=" ">
<polygon fill="white" stroke="black" points="437.61,-112.5 437.61,-131.5 505.61,-131.5 505.61,-112.5 437.61,-112.5"/>
<text text-anchor="middle" x="471.61" y="-119.5" font-family="Helvetica,sans-Serif" font-size="10.00">ray_data.h</text>
</a>
</g>
</g>
<!-- Node1&#45;&gt;Node10 -->
<g id="edge11" class="edge">
<title>Node1&#45;&gt;Node10</title>
<path fill="none" stroke="midnightblue" d="M471.61,-168.08C471.61,-161.01 471.61,-150.86 471.61,-141.99"/>
<polygon fill="midnightblue" stroke="midnightblue" points="475.11,-141.75 471.61,-131.75 468.11,-141.75 475.11,-141.75"/>
</g>
<!-- Node13 -->
<g id="node13" class="node">
<title>Node13</title>
<g id="a_node13"><a xlink:title=" ">
<polygon fill="white" stroke="#bfbfbf" points="841.61,-0.5 841.61,-19.5 893.61,-19.5 893.61,-0.5 841.61,-0.5"/>
<text text-anchor="middle" x="867.61" y="-7.5" font-family="Helvetica,sans-Serif" font-size="10.00">cassert</text>
</a>
</g>
</g>
<!-- Node1&#45;&gt;Node13 -->
<g id="edge28" class="edge">
<title>Node1&#45;&gt;Node13</title>
<path fill="none" stroke="midnightblue" d="M491.88,-168.33C521.15,-155.82 576.98,-132.01 624.61,-112 701.12,-79.85 791.42,-42.46 837.4,-23.47"/>
<polygon fill="midnightblue" stroke="midnightblue" points="838.87,-26.64 846.78,-19.59 836.2,-20.17 838.87,-26.64"/>
</g>
<!-- Node24 -->
<g id="node24" class="node">
<title>Node24</title>
<g id="a_node24"><a xlink:title=" ">
<polygon fill="white" stroke="#bfbfbf" points="633.61,-112.5 633.61,-131.5 683.61,-131.5 683.61,-112.5 633.61,-112.5"/>
<text text-anchor="middle" x="658.61" y="-119.5" font-family="Helvetica,sans-Serif" font-size="10.00">stdio.h</text>
</a>
</g>
</g>
<!-- Node1&#45;&gt;Node24 -->
<g id="edge29" class="edge">
<title>Node1&#45;&gt;Node24</title>
<path fill="none" stroke="midnightblue" d="M501.24,-168.44C534.51,-158.83 588.46,-143.26 623.74,-133.07"/>
<polygon fill="midnightblue" stroke="midnightblue" points="624.97,-136.36 633.6,-130.22 623.02,-129.63 624.97,-136.36"/>
</g>
<!-- Node3 -->
<g id="node3" class="node">
<title>Node3</title>
<g id="a_node3"><a xlink:title=" ">
<polygon fill="white" stroke="#bfbfbf" points="295.61,-56.5 295.61,-75.5 337.61,-75.5 337.61,-56.5 295.61,-56.5"/>
<text text-anchor="middle" x="316.61" y="-63.5" font-family="Helvetica,sans-Serif" font-size="10.00">array</text>
</a>
</g>
</g>
<!-- Node2&#45;&gt;Node3 -->
<g id="edge2" class="edge">
<title>Node2&#45;&gt;Node3</title>
<path fill="none" stroke="midnightblue" d="M377.04,-112.32C366.19,-104.18 349.73,-91.84 336.72,-82.09"/>
<polygon fill="midnightblue" stroke="midnightblue" points="338.49,-79.03 328.39,-75.83 334.29,-84.63 338.49,-79.03"/>
</g>
<!-- Node4 -->
<g id="node4" class="node">
<title>Node4</title>
<g id="a_node4"><a xlink:href="a00152.html" target="_top" xlink:title=" ">
<polygon fill="white" stroke="black" points="355.61,-56.5 355.61,-75.5 423.61,-75.5 423.61,-56.5 355.61,-56.5"/>
<text text-anchor="middle" x="389.61" y="-63.5" font-family="Helvetica,sans-Serif" font-size="10.00">HitStruct.h</text>
</a>
</g>
</g>
<!-- Node2&#45;&gt;Node4 -->
<g id="edge3" class="edge">
<title>Node2&#45;&gt;Node4</title>
<path fill="none" stroke="midnightblue" d="M388.77,-112.08C388.9,-105.01 389.09,-94.86 389.26,-85.99"/>
<polygon fill="midnightblue" stroke="midnightblue" points="392.76,-85.81 389.45,-75.75 385.76,-85.68 392.76,-85.81"/>
</g>
<!-- Node5&#45;&gt;Node3 -->
<g id="edge9" class="edge">
<title>Node5&#45;&gt;Node3</title>
<path fill="none" stroke="midnightblue" d="M228.48,-112.32C245.32,-103.66 271.41,-90.24 290.85,-80.25"/>
<polygon fill="midnightblue" stroke="midnightblue" points="292.49,-83.34 299.78,-75.65 289.29,-77.12 292.49,-83.34"/>
</g>
<!-- Node5&#45;&gt;Node4 -->
<g id="edge10" class="edge">
<title>Node5&#45;&gt;Node4</title>
<path fill="none" stroke="midnightblue" d="M239.81,-112.44C270.02,-103.28 318.12,-88.69 351.64,-78.52"/>
<polygon fill="midnightblue" stroke="midnightblue" points="352.98,-81.77 361.53,-75.52 350.95,-75.07 352.98,-81.77"/>
</g>
<!-- Node6 -->
<g id="node6" class="node">
<title>Node6</title>
<g id="a_node6"><a xlink:title=" ">
<polygon fill="white" stroke="#bfbfbf" points="14.11,-56.5 14.11,-75.5 55.11,-75.5 55.11,-56.5 14.11,-56.5"/>
<text text-anchor="middle" x="34.61" y="-63.5" font-family="Helvetica,sans-Serif" font-size="10.00">rpc.h</text>
</a>
</g>
</g>
<!-- Node5&#45;&gt;Node6 -->
<g id="edge5" class="edge">
<title>Node5&#45;&gt;Node6</title>
<path fill="none" stroke="midnightblue" d="M183.56,-112.44C151.23,-102.58 98.27,-86.42 64.99,-76.27"/>
<polygon fill="midnightblue" stroke="midnightblue" points="65.92,-72.89 55.33,-73.32 63.88,-79.59 65.92,-72.89"/>
</g>
<!-- Node7 -->
<g id="node7" class="node">
<title>Node7</title>
<g id="a_node7"><a xlink:title=" ">
<polygon fill="white" stroke="#bfbfbf" points="73.61,-56.5 73.61,-75.5 127.61,-75.5 127.61,-56.5 73.61,-56.5"/>
<text text-anchor="middle" x="100.61" y="-63.5" font-family="Helvetica,sans-Serif" font-size="10.00">rtcore.h</text>
</a>
</g>
</g>
<!-- Node5&#45;&gt;Node7 -->
<g id="edge6" class="edge">
<title>Node5&#45;&gt;Node7</title>
<path fill="none" stroke="midnightblue" d="M193.77,-112.32C175.89,-103.62 148.13,-90.12 127.56,-80.11"/>
<polygon fill="midnightblue" stroke="midnightblue" points="128.92,-76.88 118.4,-75.65 125.86,-83.18 128.92,-76.88"/>
</g>
<!-- Node8 -->
<g id="node8" class="node">
<title>Node8</title>
<g id="a_node8"><a xlink:title=" ">
<polygon fill="white" stroke="#bfbfbf" points="146.11,-56.5 146.11,-75.5 277.11,-75.5 277.11,-56.5 146.11,-56.5"/>
<text text-anchor="middle" x="211.61" y="-63.5" font-family="Helvetica,sans-Serif" font-size="10.00">corecrt_math_defines.h</text>
</a>
</g>
</g>
<!-- Node5&#45;&gt;Node8 -->
<g id="edge7" class="edge">
<title>Node5&#45;&gt;Node8</title>
<path fill="none" stroke="midnightblue" d="M211.61,-112.08C211.61,-105.01 211.61,-94.86 211.61,-85.99"/>
<polygon fill="midnightblue" stroke="midnightblue" points="215.11,-85.75 211.61,-75.75 208.11,-85.75 215.11,-85.75"/>
</g>
<!-- Node9 -->
<g id="node9" class="node">
<title>Node9</title>
<g id="a_node9"><a xlink:title=" ">
<polygon fill="white" stroke="#bfbfbf" points="36.11,-0.5 36.11,-19.5 83.11,-19.5 83.11,-0.5 36.11,-0.5"/>
<text text-anchor="middle" x="59.61" y="-7.5" font-family="Helvetica,sans-Serif" font-size="10.00">vector</text>
</a>
</g>
</g>
<!-- Node5&#45;&gt;Node9 -->
<g id="edge8" class="edge">
<title>Node5&#45;&gt;Node9</title>
<path fill="none" stroke="midnightblue" d="M155.43,-116.58C100.75,-110.98 23.24,-99.12 4.61,-76 -9.86,-58.05 13.7,-37.85 34.33,-24.81"/>
<polygon fill="midnightblue" stroke="midnightblue" points="36.39,-27.65 43.17,-19.51 32.79,-21.65 36.39,-27.65"/>
</g>
<!-- Node10&#45;&gt;Node3 -->
<g id="edge27" class="edge">
<title>Node10&#45;&gt;Node3</title>
<path fill="none" stroke="midnightblue" d="M447.05,-112.44C420.17,-103.08 377.02,-88.05 347.77,-77.86"/>
<polygon fill="midnightblue" stroke="midnightblue" points="348.65,-74.46 338.06,-74.47 346.35,-81.07 348.65,-74.46"/>
</g>
<!-- Node10&#45;&gt;Node4 -->
<g id="edge25" class="edge">
<title>Node10&#45;&gt;Node4</title>
<path fill="none" stroke="midnightblue" d="M458.43,-112.32C445.76,-103.98 426.37,-91.21 411.4,-81.35"/>
<polygon fill="midnightblue" stroke="midnightblue" points="413.03,-78.23 402.75,-75.65 409.18,-84.08 413.03,-78.23"/>
</g>
<!-- Node11 -->
<g id="node11" class="node">
<title>Node11</title>
<g id="a_node11"><a xlink:href="a00161.html" target="_top" xlink:title=" ">
<polygon fill="white" stroke="black" points="520.11,-56.5 520.11,-75.5 577.11,-75.5 577.11,-56.5 520.11,-56.5"/>
<text text-anchor="middle" x="548.61" y="-63.5" font-family="Helvetica,sans-Serif" font-size="10.00">nanort.h</text>
</a>
</g>
</g>
<!-- Node10&#45;&gt;Node11 -->
<g id="edge12" class="edge">
<title>Node10&#45;&gt;Node11</title>
<path fill="none" stroke="midnightblue" d="M483.98,-112.32C495.77,-104.06 513.74,-91.45 527.74,-81.63"/>
<polygon fill="midnightblue" stroke="midnightblue" points="530.09,-84.26 536.27,-75.65 526.07,-78.53 530.09,-84.26"/>
</g>
<!-- Node23 -->
<g id="node23" class="node">
<title>Node23</title>
<g id="a_node23"><a xlink:title=" ">
<polygon fill="white" stroke="#bfbfbf" points="441.61,-56.5 441.61,-75.5 501.61,-75.5 501.61,-56.5 441.61,-56.5"/>
<text text-anchor="middle" x="471.61" y="-63.5" font-family="Helvetica,sans-Serif" font-size="10.00">iostream</text>
</a>
</g>
</g>
<!-- Node10&#45;&gt;Node23 -->
<g id="edge26" class="edge">
<title>Node10&#45;&gt;Node23</title>
<path fill="none" stroke="midnightblue" d="M471.61,-112.08C471.61,-105.01 471.61,-94.86 471.61,-85.99"/>
<polygon fill="midnightblue" stroke="midnightblue" points="475.11,-85.75 471.61,-75.75 468.11,-85.75 475.11,-85.75"/>
</g>
<!-- Node11&#45;&gt;Node9 -->
<g id="edge24" class="edge">
<title>Node11&#45;&gt;Node9</title>
<path fill="none" stroke="midnightblue" d="M520.06,-57.8C516.88,-57.13 513.68,-56.51 510.61,-56 344.98,-28.59 301.51,-38 134.61,-20 121.16,-18.55 106.38,-16.81 93.52,-15.24"/>
<polygon fill="midnightblue" stroke="midnightblue" points="93.59,-11.73 83.24,-13.98 92.74,-18.67 93.59,-11.73"/>
</g>
<!-- Node12 -->
<g id="node12" class="node">
<title>Node12</title>
<g id="a_node12"><a xlink:title=" ">
<polygon fill="white" stroke="#bfbfbf" points="409.61,-0.5 409.61,-19.5 473.61,-19.5 473.61,-0.5 409.61,-0.5"/>
<text text-anchor="middle" x="441.61" y="-7.5" font-family="Helvetica,sans-Serif" font-size="10.00">algorithm</text>
</a>
</g>
</g>
<!-- Node11&#45;&gt;Node12 -->
<g id="edge13" class="edge">
<title>Node11&#45;&gt;Node12</title>
<path fill="none" stroke="midnightblue" d="M531.42,-56.32C514.26,-47.66 487.66,-34.24 467.86,-24.25"/>
<polygon fill="midnightblue" stroke="midnightblue" points="469.26,-21.04 458.76,-19.65 466.11,-27.28 469.26,-21.04"/>
</g>
<!-- Node11&#45;&gt;Node13 -->
<g id="edge14" class="edge">
<title>Node11&#45;&gt;Node13</title>
<path fill="none" stroke="midnightblue" d="M577.24,-58.77C582.03,-57.79 586.95,-56.84 591.61,-56 694.66,-37.5 724.12,-40.88 831.4,-19.85"/>
<polygon fill="midnightblue" stroke="midnightblue" points="832.2,-23.26 841.33,-17.88 830.84,-16.39 832.2,-23.26"/>
</g>
<!-- Node14 -->
<g id="node14" class="node">
<title>Node14</title>
<g id="a_node14"><a xlink:title=" ">
<polygon fill="white" stroke="#bfbfbf" points="492.11,-0.5 492.11,-19.5 539.11,-19.5 539.11,-0.5 492.11,-0.5"/>
<text text-anchor="middle" x="515.61" y="-7.5" font-family="Helvetica,sans-Serif" font-size="10.00">cmath</text>
</a>
</g>
</g>
<!-- Node11&#45;&gt;Node14 -->
<g id="edge15" class="edge">
<title>Node11&#45;&gt;Node14</title>
<path fill="none" stroke="midnightblue" d="M543.16,-56.08C538.59,-48.61 531.94,-37.72 526.31,-28.52"/>
<polygon fill="midnightblue" stroke="midnightblue" points="529.16,-26.46 520.95,-19.75 523.18,-30.11 529.16,-26.46"/>
</g>
<!-- Node15 -->
<g id="node15" class="node">
<title>Node15</title>
<g id="a_node15"><a xlink:title=" ">
<polygon fill="white" stroke="#bfbfbf" points="557.61,-0.5 557.61,-19.5 603.61,-19.5 603.61,-0.5 557.61,-0.5"/>
<text text-anchor="middle" x="580.61" y="-7.5" font-family="Helvetica,sans-Serif" font-size="10.00">cstdio</text>
</a>
</g>
</g>
<!-- Node11&#45;&gt;Node15 -->
<g id="edge16" class="edge">
<title>Node11&#45;&gt;Node15</title>
<path fill="none" stroke="midnightblue" d="M553.89,-56.08C558.32,-48.61 564.77,-37.72 570.22,-28.52"/>
<polygon fill="midnightblue" stroke="midnightblue" points="573.33,-30.14 575.42,-19.75 567.31,-26.57 573.33,-30.14"/>
</g>
<!-- Node16 -->
<g id="node16" class="node">
<title>Node16</title>
<g id="a_node16"><a xlink:title=" ">
<polygon fill="white" stroke="#bfbfbf" points="622.11,-0.5 622.11,-19.5 671.11,-19.5 671.11,-0.5 622.11,-0.5"/>
<text text-anchor="middle" x="646.61" y="-7.5" font-family="Helvetica,sans-Serif" font-size="10.00">cstdlib</text>
</a>
</g>
</g>
<!-- Node11&#45;&gt;Node16 -->
<g id="edge17" class="edge">
<title>Node11&#45;&gt;Node16</title>
<path fill="none" stroke="midnightblue" d="M564.35,-56.32C579.93,-47.74 603.98,-34.49 622.07,-24.52"/>
<polygon fill="midnightblue" stroke="midnightblue" points="623.83,-27.55 630.9,-19.65 620.45,-21.42 623.83,-27.55"/>
</g>
<!-- Node17 -->
<g id="node17" class="node">
<title>Node17</title>
<g id="a_node17"><a xlink:title=" ">
<polygon fill="white" stroke="#bfbfbf" points="689.61,-0.5 689.61,-19.5 739.61,-19.5 739.61,-0.5 689.61,-0.5"/>
<text text-anchor="middle" x="714.61" y="-7.5" font-family="Helvetica,sans-Serif" font-size="10.00">cstring</text>
</a>
</g>
</g>
<!-- Node11&#45;&gt;Node17 -->
<g id="edge18" class="edge">
<title>Node11&#45;&gt;Node17</title>
<path fill="none" stroke="midnightblue" d="M574.91,-56.44C603.29,-47.21 648.6,-32.47 679.89,-22.29"/>
<polygon fill="midnightblue" stroke="midnightblue" points="681.09,-25.58 689.51,-19.16 678.92,-18.93 681.09,-25.58"/>
</g>
<!-- Node18 -->
<g id="node18" class="node">
<title>Node18</title>
<g id="a_node18"><a xlink:title=" ">
<polygon fill="white" stroke="#bfbfbf" points="758.11,-0.5 758.11,-19.5 823.11,-19.5 823.11,-0.5 758.11,-0.5"/>
<text text-anchor="middle" x="790.61" y="-7.5" font-family="Helvetica,sans-Serif" font-size="10.00">functional</text>
</a>
</g>
</g>
<!-- Node11&#45;&gt;Node18 -->
<g id="edge19" class="edge">
<title>Node11&#45;&gt;Node18</title>
<path fill="none" stroke="midnightblue" d="M577.32,-58.59C619.63,-49.15 699.02,-31.44 748.09,-20.49"/>
<polygon fill="midnightblue" stroke="midnightblue" points="749.09,-23.85 758.08,-18.26 747.56,-17.02 749.09,-23.85"/>
</g>
<!-- Node19 -->
<g id="node19" class="node">
<title>Node19</title>
<g id="a_node19"><a xlink:title=" ">
<polygon fill="white" stroke="#bfbfbf" points="143.61,-0.5 143.61,-19.5 187.61,-19.5 187.61,-0.5 143.61,-0.5"/>
<text text-anchor="middle" x="165.61" y="-7.5" font-family="Helvetica,sans-Serif" font-size="10.00">limits</text>
</a>
</g>
</g>
<!-- Node11&#45;&gt;Node19 -->
<g id="edge20" class="edge">
<title>Node11&#45;&gt;Node19</title>
<path fill="none" stroke="midnightblue" d="M520.05,-57.85C516.87,-57.17 513.68,-56.54 510.61,-56 375.49,-32.34 336.16,-46.96 197.97,-19.96"/>
<polygon fill="midnightblue" stroke="midnightblue" points="198.34,-16.46 187.85,-17.94 196.97,-23.33 198.34,-16.46"/>
</g>
<!-- Node20 -->
<g id="node20" class="node">
<title>Node20</title>
<g id="a_node20"><a xlink:title=" ">
<polygon fill="white" stroke="#bfbfbf" points="205.61,-0.5 205.61,-19.5 263.61,-19.5 263.61,-0.5 205.61,-0.5"/>
<text text-anchor="middle" x="234.61" y="-7.5" font-family="Helvetica,sans-Serif" font-size="10.00">memory</text>
</a>
</g>
</g>
<!-- Node11&#45;&gt;Node20 -->
<g id="edge21" class="edge">
<title>Node11&#45;&gt;Node20</title>
<path fill="none" stroke="midnightblue" d="M520.03,-57.96C516.86,-57.26 513.67,-56.59 510.61,-56 408.76,-36.27 379.4,-40.08 274.1,-20.15"/>
<polygon fill="midnightblue" stroke="midnightblue" points="274.49,-16.67 264.01,-18.22 273.17,-23.54 274.49,-16.67"/>
</g>
<!-- Node21 -->
<g id="node21" class="node">
<title>Node21</title>
<g id="a_node21"><a xlink:title=" ">
<polygon fill="white" stroke="#bfbfbf" points="282.11,-0.5 282.11,-19.5 329.11,-19.5 329.11,-0.5 282.11,-0.5"/>
<text text-anchor="middle" x="305.61" y="-7.5" font-family="Helvetica,sans-Serif" font-size="10.00">queue</text>
</a>
</g>
</g>
<!-- Node11&#45;&gt;Node21 -->
<g id="edge22" class="edge">
<title>Node11&#45;&gt;Node21</title>
<path fill="none" stroke="midnightblue" d="M519.99,-58.14C516.83,-57.4 513.65,-56.68 510.61,-56 437.51,-39.7 416.26,-38.37 339.52,-20.1"/>
<polygon fill="midnightblue" stroke="midnightblue" points="339.9,-16.59 329.36,-17.66 338.26,-23.4 339.9,-16.59"/>
</g>
<!-- Node22 -->
<g id="node22" class="node">
<title>Node22</title>
<g id="a_node22"><a xlink:title=" ">
<polygon fill="white" stroke="#bfbfbf" points="347.61,-0.5 347.61,-19.5 391.61,-19.5 391.61,-0.5 347.61,-0.5"/>
<text text-anchor="middle" x="369.61" y="-7.5" font-family="Helvetica,sans-Serif" font-size="10.00">string</text>
</a>
</g>
</g>
<!-- Node11&#45;&gt;Node22 -->
<g id="edge23" class="edge">
<title>Node11&#45;&gt;Node22</title>
<path fill="none" stroke="midnightblue" d="M520.24,-56.44C487.9,-46.69 435.16,-30.78 401.44,-20.6"/>
<polygon fill="midnightblue" stroke="midnightblue" points="402.21,-17.18 391.63,-17.64 400.19,-23.88 402.21,-17.18"/>
</g>
</g>
</svg>
