<?xml version="1.0" encoding="UTF-8" standalone="no"?>
<!DOCTYPE svg PUBLIC "-//W3C//DTD SVG 1.1//EN"
 "http://www.w3.org/Graphics/SVG/1.1/DTD/svg11.dtd">
<!-- Generated by graphviz version 8.0.5 (20230430.1635)
 -->
<!-- Title: Cpp/spatialstructures/src/cost_algorithms.h Pages: 1 -->
<svg width="284pt" height="108pt"
 viewBox="0.00 0.00 283.88 108.00" xmlns="http://www.w3.org/2000/svg" xmlns:xlink="http://www.w3.org/1999/xlink">
<g id="graph0" class="graph" transform="scale(1 1) rotate(0) translate(4 104)">
<title>Cpp/spatialstructures/src/cost_algorithms.h</title>
<!-- Node1 -->
<g id="node1" class="node">
<title>Node1</title>
<g id="a_node1"><a xlink:title="Contains implementation for the HF::SpatialStructures::CostAlgorithms namespace.">
<polygon fill="#999999" stroke="#666666" points="196.63,-100 83.88,-100 83.88,-68 196.63,-68 196.63,-100"/>
<text text-anchor="start" x="91.88" y="-86.5" font-family="Helvetica,sans-Serif" font-size="10.00">Cpp/spatialstructures</text>
<text text-anchor="middle" x="140.25" y="-74.5" font-family="Helvetica,sans-Serif" font-size="10.00">/src/cost_algorithms.h</text>
</a>
</g>
</g>
<!-- Node2 -->
<g id="node2" class="node">
<title>Node2</title>
<g id="a_node2"><a xlink:href="a00368.html" target="_top" xlink:title=" ">
<polygon fill="white" stroke="#666666" points="134.5,-32 0,-32 0,0 134.5,0 134.5,-32"/>
<text text-anchor="start" x="8" y="-18.5" font-family="Helvetica,sans-Serif" font-size="10.00">Cinterface/spatialstructures</text>
<text text-anchor="middle" x="67.25" y="-6.5" font-family="Helvetica,sans-Serif" font-size="10.00">_C.cpp</text>
</a>
</g>
</g>
<!-- Node1&#45;&gt;Node2 -->
<g id="edge1" class="edge">
<title>Node1&#45;&gt;Node2</title>
<path fill="none" stroke="#63b8ff" d="M115.17,-60.32C105,-51.13 93.52,-40.75 84.34,-32.45"/>
<polygon fill="#63b8ff" stroke="#63b8ff" points="112.55,-62.58 122.32,-66.69 117.25,-57.39 112.55,-62.58"/>
</g>
<!-- Node3 -->
<g id="node3" class="node">
<title>Node3</title>
<g id="a_node3"><a xlink:href="a00188.html" target="_top" xlink:title=" ">
<polygon fill="white" stroke="#666666" points="275.88,-32 152.63,-32 152.63,0 275.88,0 275.88,-32"/>
<text text-anchor="start" x="160.63" y="-18.5" font-family="Helvetica,sans-Serif" font-size="10.00">Cpp/spatialstructures</text>
<text text-anchor="middle" x="214.25" y="-6.5" font-family="Helvetica,sans-Serif" font-size="10.00">/src/cost_algorithms.cpp</text>
</a>
</g>
</g>
<!-- Node1&#45;&gt;Node3 -->
<g id="edge2" class="edge">
<title>Node1&#45;&gt;Node3</title>
<path fill="none" stroke="#63b8ff" d="M165.37,-60.6C175.75,-51.34 187.53,-40.83 196.92,-32.45"/>
<polygon fill="#63b8ff" stroke="#63b8ff" points="163.55,-57.42 158.41,-66.69 168.21,-62.65 163.55,-57.42"/>
</g>
</g>
</svg>
