<?xml version="1.0" encoding="UTF-8" standalone="no"?>
<!DOCTYPE svg PUBLIC "-//W3C//DTD SVG 1.1//EN"
 "http://www.w3.org/Graphics/SVG/1.1/DTD/svg11.dtd">
<!-- Generated by graphviz version 7.0.2 (20221119.0110)
 -->
<!-- Title: Cpp/objloader/src/meshinfo.h Pages: 1 -->
<svg width="784pt" height="159pt"
 viewBox="0.00 0.00 783.66 159.00" xmlns="http://www.w3.org/2000/svg" xmlns:xlink="http://www.w3.org/1999/xlink">
<g id="graph0" class="graph" transform="scale(1 1) rotate(0) translate(4 155)">
<title>Cpp/objloader/src/meshinfo.h</title>
<!-- Node1 -->
<g id="node1" class="node">
<title>Node1</title>
<g id="a_node1"><a xlink:title="Contains definitions for the MeshInfo class.">
<polygon fill="#999999" stroke="#666666" points="451.16,-151 308.16,-151 308.16,-132 451.16,-132 451.16,-151"/>
<text text-anchor="middle" x="379.66" y="-139" font-family="Helvetica,sans-Serif" font-size="10.00">Cpp/objloader/src/meshinfo.h</text>
</a>
</g>
</g>
<!-- Node2 -->
<g id="node2" class="node">
<title>Node2</title>
<g id="a_node2"><a xlink:href="a00350.html" target="_top" xlink:title=" ">
<polygon fill="white" stroke="#666666" points="212.66,-30 110.66,-30 110.66,0 212.66,0 212.66,-30"/>
<text text-anchor="start" x="118.66" y="-18" font-family="Helvetica,sans-Serif" font-size="10.00">Cinterface/objloader</text>
<text text-anchor="middle" x="161.66" y="-7" font-family="Helvetica,sans-Serif" font-size="10.00">_C.cpp</text>
</a>
</g>
</g>
<!-- Node1&#45;&gt;Node2 -->
<g id="edge1" class="edge">
<title>Node1&#45;&gt;Node2</title>
<path fill="none" stroke="#63b8ff" d="M296.43,-136.27C192.92,-130.15 27.43,-117.16 8.66,-96 -25.26,-57.77 53.87,-34.98 110.51,-24.02"/>
<polygon fill="#63b8ff" stroke="#63b8ff" points="296.1,-139.76 306.29,-136.85 296.51,-132.77 296.1,-139.76"/>
</g>
<!-- Node3 -->
<g id="node3" class="node">
<title>Node3</title>
<g id="a_node3"><a xlink:href="a00362.html" target="_top" xlink:title=" ">
<polygon fill="white" stroke="#666666" points="119.16,-96 18.16,-96 18.16,-66 119.16,-66 119.16,-96"/>
<text text-anchor="start" x="26.16" y="-84" font-family="Helvetica,sans-Serif" font-size="10.00">Cinterface/raytracer</text>
<text text-anchor="middle" x="68.66" y="-73" font-family="Helvetica,sans-Serif" font-size="10.00">_C.cpp</text>
</a>
</g>
</g>
<!-- Node1&#45;&gt;Node3 -->
<g id="edge2" class="edge">
<title>Node1&#45;&gt;Node3</title>
<path fill="none" stroke="#63b8ff" d="M312.25,-129.69C261.38,-121.27 189.95,-108.88 127.66,-96 124.98,-95.45 122.23,-94.86 119.46,-94.25"/>
<polygon fill="#63b8ff" stroke="#63b8ff" points="311.5,-133.12 321.94,-131.29 312.64,-126.21 311.5,-133.12"/>
</g>
<!-- Node4 -->
<g id="node4" class="node">
<title>Node4</title>
<g id="a_node4"><a xlink:href="a00116.html" target="_top" xlink:title="Contains implementation for the MeshInfo class.">
<polygon fill="white" stroke="#666666" points="290.16,-90.5 137.16,-90.5 137.16,-71.5 290.16,-71.5 290.16,-90.5"/>
<text text-anchor="middle" x="213.66" y="-78.5" font-family="Helvetica,sans-Serif" font-size="10.00">Cpp/objloader/src/meshinfo.cpp</text>
</a>
</g>
</g>
<!-- Node1&#45;&gt;Node4 -->
<g id="edge3" class="edge">
<title>Node1&#45;&gt;Node4</title>
<path fill="none" stroke="#63b8ff" d="M343.9,-127.9C312.34,-116.78 267.11,-100.84 239.11,-90.97"/>
<polygon fill="#63b8ff" stroke="#63b8ff" points="342.42,-131.09 353.02,-131.11 344.75,-124.49 342.42,-131.09"/>
</g>
<!-- Node5 -->
<g id="node5" class="node">
<title>Node5</title>
<g id="a_node5"><a xlink:href="a00122.html" target="_top" xlink:title="Contains implementation for the Geometry namespace.">
<polygon fill="white" stroke="#666666" points="506.16,-24.5 353.16,-24.5 353.16,-5.5 506.16,-5.5 506.16,-24.5"/>
<text text-anchor="middle" x="429.66" y="-12.5" font-family="Helvetica,sans-Serif" font-size="10.00">Cpp/objloader/src/objloader.cpp</text>
</a>
</g>
</g>
<!-- Node1&#45;&gt;Node5 -->
<g id="edge4" class="edge">
<title>Node1&#45;&gt;Node5</title>
<path fill="none" stroke="#63b8ff" d="M422.85,-127.06C437.49,-120.21 452.24,-110.22 460.66,-96 474.91,-71.9 451.51,-40.05 438.07,-24.83"/>
<polygon fill="#63b8ff" stroke="#63b8ff" points="421.56,-123.8 413.71,-130.92 424.28,-130.25 421.56,-123.8"/>
</g>
<!-- Node6 -->
<g id="node6" class="node">
<title>Node6</title>
<g id="a_node6"><a xlink:href="a00125.html" target="_top" xlink:title="Contains definitions for the Geometry namespace.">
<polygon fill="white" stroke="#666666" points="451.16,-90.5 308.16,-90.5 308.16,-71.5 451.16,-71.5 451.16,-90.5"/>
<text text-anchor="middle" x="379.66" y="-78.5" font-family="Helvetica,sans-Serif" font-size="10.00">Cpp/objloader/src/objloader.h</text>
</a>
</g>
</g>
<!-- Node1&#45;&gt;Node6 -->
<g id="edge5" class="edge">
<title>Node1&#45;&gt;Node6</title>
<path fill="none" stroke="#63b8ff" d="M379.66,-120.66C379.66,-110.45 379.66,-98.54 379.66,-90.67"/>
<polygon fill="#63b8ff" stroke="#63b8ff" points="376.16,-120.35 379.66,-130.35 383.16,-120.35 376.16,-120.35"/>
</g>
<!-- Node7 -->
<g id="node7" class="node">
<title>Node7</title>
<g id="a_node7"><a xlink:href="a00143.html" target="_top" xlink:title="Contains implementation for the EmbreeRayTracer">
<polygon fill="white" stroke="#666666" points="635.16,-96 508.16,-96 508.16,-66 635.16,-66 635.16,-96"/>
<text text-anchor="start" x="516.16" y="-84" font-family="Helvetica,sans-Serif" font-size="10.00">Cpp/raytracer/src/embree</text>
<text text-anchor="middle" x="571.66" y="-73" font-family="Helvetica,sans-Serif" font-size="10.00">_raytracer.cpp</text>
</a>
</g>
</g>
<!-- Node1&#45;&gt;Node7 -->
<g id="edge8" class="edge">
<title>Node1&#45;&gt;Node7</title>
<path fill="none" stroke="#63b8ff" d="M419.48,-128.37C449.94,-119.08 492.06,-106.25 524.27,-96.44"/>
<polygon fill="#63b8ff" stroke="#63b8ff" points="418.81,-124.91 410.26,-131.17 420.85,-131.61 418.81,-124.91"/>
</g>
<!-- Node8 -->
<g id="node8" class="node">
<title>Node8</title>
<g id="a_node8"><a xlink:href="a00164.html" target="_top" xlink:title=" ">
<polygon fill="white" stroke="#666666" points="775.66,-96 653.66,-96 653.66,-66 775.66,-66 775.66,-96"/>
<text text-anchor="start" x="661.66" y="-84" font-family="Helvetica,sans-Serif" font-size="10.00">Cpp/raytracer/src/nanort</text>
<text text-anchor="middle" x="714.66" y="-73" font-family="Helvetica,sans-Serif" font-size="10.00">_raytracer.cpp</text>
</a>
</g>
</g>
<!-- Node1&#45;&gt;Node8 -->
<g id="edge9" class="edge">
<title>Node1&#45;&gt;Node8</title>
<path fill="none" stroke="#63b8ff" d="M447.43,-129.71C501.03,-121.04 577.73,-108.31 644.66,-96 647.46,-95.48 650.32,-94.95 653.22,-94.4"/>
<polygon fill="#63b8ff" stroke="#63b8ff" points="447.16,-126.21 437.84,-131.26 448.27,-133.12 447.16,-126.21"/>
</g>
<!-- Node6&#45;&gt;Node2 -->
<g id="edge6" class="edge">
<title>Node6&#45;&gt;Node2</title>
<path fill="none" stroke="#63b8ff" d="M338.67,-67.97C302.44,-57.33 249.51,-41.79 210.97,-30.48"/>
<polygon fill="#63b8ff" stroke="#63b8ff" points="337.31,-71.22 347.89,-70.67 339.28,-64.5 337.31,-71.22"/>
</g>
<!-- Node6&#45;&gt;Node5 -->
<g id="edge7" class="edge">
<title>Node6&#45;&gt;Node5</title>
<path fill="none" stroke="#63b8ff" d="M393.52,-62.26C403.03,-50.08 415.25,-34.44 422.76,-24.82"/>
<polygon fill="#63b8ff" stroke="#63b8ff" points="390.94,-59.87 387.54,-69.91 396.46,-64.18 390.94,-59.87"/>
</g>
</g>
</svg>
