<?xml version="1.0" encoding="UTF-8" standalone="no"?>
<!DOCTYPE svg PUBLIC "-//W3C//DTD SVG 1.1//EN"
 "http://www.w3.org/Graphics/SVG/1.1/DTD/svg11.dtd">
<!-- Generated by graphviz version 7.0.3 (20221126.0506)
 -->
<!-- Title: Cpp/spatialstructures/src/Edge.h Pages: 1 -->
<svg width="1434pt" height="170pt"
 viewBox="0.00 0.00 1433.50 170.00" xmlns="http://www.w3.org/2000/svg" xmlns:xlink="http://www.w3.org/1999/xlink">
<g id="graph0" class="graph" transform="scale(1 1) rotate(0) translate(4 166)">
<title>Cpp/spatialstructures/src/Edge.h</title>
<!-- Node1 -->
<g id="node1" class="node">
<title>Node1</title>
<g id="a_node1"><a xlink:title="Contains definitions for the Edge structure.">
<polygon fill="#999999" stroke="#666666" points="556,-162 447,-162 447,-132 556,-132 556,-162"/>
<text text-anchor="start" x="455" y="-150" font-family="Helvetica,sans-Serif" font-size="10.00">Cpp/spatialstructures</text>
<text text-anchor="middle" x="501.5" y="-139" font-family="Helvetica,sans-Serif" font-size="10.00">/src/Edge.h</text>
</a>
</g>
</g>
<!-- Node2 -->
<g id="node2" class="node">
<title>Node2</title>
<g id="a_node2"><a xlink:href="a00368.html" target="_top" xlink:title=" ">
<polygon fill="white" stroke="#666666" points="135,-30 0,-30 0,0 135,0 135,-30"/>
<text text-anchor="start" x="8" y="-18" font-family="Helvetica,sans-Serif" font-size="10.00">Cinterface/spatialstructures</text>
<text text-anchor="middle" x="67.5" y="-7" font-family="Helvetica,sans-Serif" font-size="10.00">_C.cpp</text>
</a>
</g>
</g>
<!-- Node1&#45;&gt;Node2 -->
<g id="edge1" class="edge">
<title>Node1&#45;&gt;Node2</title>
<path fill="none" stroke="#63b8ff" d="M440.21,-128.4C407.35,-118.91 366.18,-106.93 329.5,-96 254.07,-73.52 166.67,-46.67 114.3,-30.5"/>
<polygon fill="#63b8ff" stroke="#63b8ff" points="438.99,-131.69 449.57,-131.1 440.93,-124.96 438.99,-131.69"/>
</g>
<!-- Node3 -->
<g id="node3" class="node">
<title>Node3</title>
<g id="a_node3"><a xlink:href="a00005.html" target="_top" xlink:title="Contains implementation for the functions in the GraphGenerator class.">
<polygon fill="white" stroke="#666666" points="278,-30 153,-30 153,0 278,0 278,-30"/>
<text text-anchor="start" x="161" y="-18" font-family="Helvetica,sans-Serif" font-size="10.00">Cpp/analysismethods</text>
<text text-anchor="middle" x="215.5" y="-7" font-family="Helvetica,sans-Serif" font-size="10.00">/src/graph_generator.cpp</text>
</a>
</g>
</g>
<!-- Node1&#45;&gt;Node3 -->
<g id="edge2" class="edge">
<title>Node1&#45;&gt;Node3</title>
<path fill="none" stroke="#63b8ff" d="M459.57,-126.94C401.85,-100.7 299.19,-54.04 247.34,-30.47"/>
<polygon fill="#63b8ff" stroke="#63b8ff" points="457.87,-130.01 468.42,-130.96 460.77,-123.64 457.87,-130.01"/>
</g>
<!-- Node4 -->
<g id="node4" class="node">
<title>Node4</title>
<g id="a_node4"><a xlink:href="a00011.html" target="_top" xlink:title=" ">
<polygon fill="white" stroke="#666666" points="787.5,-96 677.5,-96 677.5,-66 787.5,-66 787.5,-96"/>
<text text-anchor="start" x="685.5" y="-84" font-family="Helvetica,sans-Serif" font-size="10.00">Cpp/analysismethods</text>
<text text-anchor="middle" x="732.5" y="-73" font-family="Helvetica,sans-Serif" font-size="10.00">/src/graph_utils.cpp</text>
</a>
</g>
</g>
<!-- Node1&#45;&gt;Node4 -->
<g id="edge3" class="edge">
<title>Node1&#45;&gt;Node4</title>
<path fill="none" stroke="#63b8ff" d="M564.62,-128.51C601.02,-118.43 646.23,-105.9 680.56,-96.39"/>
<polygon fill="#63b8ff" stroke="#63b8ff" points="563.79,-125.11 555.09,-131.15 565.66,-131.86 563.79,-125.11"/>
</g>
<!-- Node5 -->
<g id="node5" class="node">
<title>Node5</title>
<g id="a_node5"><a xlink:href="a00026.html" target="_top" xlink:title="Contains implementation for the VisibilityGraph class.">
<polygon fill="white" stroke="#666666" points="414.5,-30 296.5,-30 296.5,0 414.5,0 414.5,-30"/>
<text text-anchor="start" x="304.5" y="-18" font-family="Helvetica,sans-Serif" font-size="10.00">Cpp/analysismethods</text>
<text text-anchor="middle" x="355.5" y="-7" font-family="Helvetica,sans-Serif" font-size="10.00">/src/visibility_graph.cpp</text>
</a>
</g>
</g>
<!-- Node1&#45;&gt;Node5 -->
<g id="edge4" class="edge">
<title>Node1&#45;&gt;Node5</title>
<path fill="none" stroke="#63b8ff" d="M477.09,-124.26C447.18,-97.63 397.34,-53.26 371.75,-30.47"/>
<polygon fill="#63b8ff" stroke="#63b8ff" points="474.39,-126.55 484.19,-130.58 479.05,-121.32 474.39,-126.55"/>
</g>
<!-- Node6 -->
<g id="node6" class="node">
<title>Node6</title>
<g id="a_node6"><a xlink:href="a00131.html" target="_top" xlink:title="Contains implementation for the BoostGraph class.">
<polygon fill="white" stroke="#666666" points="532.5,-30 432.5,-30 432.5,0 532.5,0 532.5,-30"/>
<text text-anchor="start" x="440.5" y="-18" font-family="Helvetica,sans-Serif" font-size="10.00">Cpp/pathfinding/src</text>
<text text-anchor="middle" x="482.5" y="-7" font-family="Helvetica,sans-Serif" font-size="10.00">/boost_graph.cpp</text>
</a>
</g>
</g>
<!-- Node1&#45;&gt;Node6 -->
<g id="edge5" class="edge">
<title>Node1&#45;&gt;Node6</title>
<path fill="none" stroke="#63b8ff" d="M497.75,-120.38C493.83,-93.49 487.79,-52.18 484.62,-30.47"/>
<polygon fill="#63b8ff" stroke="#63b8ff" points="494.27,-120.7 499.18,-130.09 501.19,-119.69 494.27,-120.7"/>
</g>
<!-- Node7 -->
<g id="node7" class="node">
<title>Node7</title>
<g id="a_node7"><a xlink:href="a00179.html" target="_top" xlink:title="Contains implementation for the CInterface.">
<polygon fill="white" stroke="#666666" points="660,-30 551,-30 551,0 660,0 660,-30"/>
<text text-anchor="start" x="559" y="-18" font-family="Helvetica,sans-Serif" font-size="10.00">Cpp/spatialstructures</text>
<text text-anchor="middle" x="605.5" y="-7" font-family="Helvetica,sans-Serif" font-size="10.00">/src/CInterface.cpp</text>
</a>
</g>
</g>
<!-- Node1&#45;&gt;Node7 -->
<g id="edge6" class="edge">
<title>Node1&#45;&gt;Node7</title>
<path fill="none" stroke="#63b8ff" d="M510.62,-121C517.47,-104.32 528,-82.5 541.5,-66 553.02,-51.92 569.18,-39.34 582.38,-30.31"/>
<polygon fill="#63b8ff" stroke="#63b8ff" points="507.4,-119.6 507.01,-130.19 513.92,-122.16 507.4,-119.6"/>
</g>
<!-- Node8 -->
<g id="node8" class="node">
<title>Node8</title>
<g id="a_node8"><a xlink:href="a00194.html" target="_top" xlink:title="Contains implementation for the Edge structure.">
<polygon fill="white" stroke="#666666" points="915,-96 806,-96 806,-66 915,-66 915,-96"/>
<text text-anchor="start" x="814" y="-84" font-family="Helvetica,sans-Serif" font-size="10.00">Cpp/spatialstructures</text>
<text text-anchor="middle" x="860.5" y="-73" font-family="Helvetica,sans-Serif" font-size="10.00">/src/edge.cpp</text>
</a>
</g>
</g>
<!-- Node1&#45;&gt;Node8 -->
<g id="edge7" class="edge">
<title>Node1&#45;&gt;Node8</title>
<path fill="none" stroke="#63b8ff" d="M567.47,-135.74C627.36,-126.2 718.05,-111.22 796.5,-96 799.51,-95.42 802.61,-94.8 805.72,-94.16"/>
<polygon fill="#63b8ff" stroke="#63b8ff" points="567.11,-132.25 557.78,-137.28 568.2,-139.17 567.11,-132.25"/>
</g>
<!-- Node9 -->
<g id="node9" class="node">
<title>Node9</title>
<g id="a_node9"><a xlink:href="a00203.html" target="_top" xlink:title="Contains definitions for the Graph &#160;class.">
<polygon fill="white" stroke="#666666" points="659,-96 550,-96 550,-66 659,-66 659,-96"/>
<text text-anchor="start" x="558" y="-84" font-family="Helvetica,sans-Serif" font-size="10.00">Cpp/spatialstructures</text>
<text text-anchor="middle" x="604.5" y="-73" font-family="Helvetica,sans-Serif" font-size="10.00">/src/graph.h</text>
</a>
</g>
</g>
<!-- Node1&#45;&gt;Node9 -->
<g id="edge8" class="edge">
<title>Node1&#45;&gt;Node9</title>
<path fill="none" stroke="#63b8ff" d="M534.27,-125.64C549.63,-116.09 567.56,-104.95 581.46,-96.31"/>
<polygon fill="#63b8ff" stroke="#63b8ff" points="532.55,-122.59 525.9,-130.84 536.24,-128.53 532.55,-122.59"/>
</g>
<!-- Node9&#45;&gt;Node2 -->
<g id="edge11" class="edge">
<title>Node9&#45;&gt;Node2</title>
<path fill="none" stroke="#63b8ff" d="M538.34,-74.38C448.63,-66.4 283.53,-50.46 143.5,-30 140.84,-29.61 138.14,-29.2 135.41,-28.77"/>
<polygon fill="#63b8ff" stroke="#63b8ff" points="537.91,-77.85 548.18,-75.25 538.53,-70.88 537.91,-77.85"/>
</g>
<!-- Node9&#45;&gt;Node3 -->
<g id="edge14" class="edge">
<title>Node9&#45;&gt;Node3</title>
<path fill="none" stroke="#63b8ff" d="M538.55,-70.3C474.35,-60.69 374.07,-45.24 287.5,-30 284.49,-29.47 281.41,-28.92 278.3,-28.35"/>
<polygon fill="#63b8ff" stroke="#63b8ff" points="537.8,-73.72 548.21,-71.74 538.84,-66.8 537.8,-73.72"/>
</g>
<!-- Node9&#45;&gt;Node5 -->
<g id="edge15" class="edge">
<title>Node9&#45;&gt;Node5</title>
<path fill="none" stroke="#63b8ff" d="M538.42,-63.02C498.9,-52.86 449.22,-40.09 411.6,-30.42"/>
<polygon fill="#63b8ff" stroke="#63b8ff" points="537.53,-66.4 548.08,-65.5 539.27,-59.62 537.53,-66.4"/>
</g>
<!-- Node9&#45;&gt;Node6 -->
<g id="edge16" class="edge">
<title>Node9&#45;&gt;Node6</title>
<path fill="none" stroke="#63b8ff" d="M566.98,-60.32C548.51,-50.63 526.64,-39.16 509.79,-30.31"/>
<polygon fill="#63b8ff" stroke="#63b8ff" points="565.3,-63.39 575.78,-64.93 568.55,-57.19 565.3,-63.39"/>
</g>
<!-- Node9&#45;&gt;Node7 -->
<g id="edge17" class="edge">
<title>Node9&#45;&gt;Node7</title>
<path fill="none" stroke="#63b8ff" d="M604.9,-54.39C605.03,-46.13 605.17,-37.28 605.28,-30.16"/>
<polygon fill="#63b8ff" stroke="#63b8ff" points="601.4,-54.23 604.75,-64.28 608.4,-54.34 601.4,-54.23"/>
</g>
<!-- Node10 -->
<g id="node10" class="node">
<title>Node10</title>
<g id="a_node10"><a xlink:href="a00338.html" target="_top" xlink:title=" ">
<polygon fill="white" stroke="#666666" points="1162,-30 1063,-30 1063,0 1162,0 1162,-30"/>
<text text-anchor="start" x="1071" y="-18" font-family="Helvetica,sans-Serif" font-size="10.00">Cinterface/analysis</text>
<text text-anchor="middle" x="1112.5" y="-7" font-family="Helvetica,sans-Serif" font-size="10.00">_C.cpp</text>
</a>
</g>
</g>
<!-- Node9&#45;&gt;Node10 -->
<g id="edge9" class="edge">
<title>Node9&#45;&gt;Node10</title>
<path fill="none" stroke="#63b8ff" d="M670.36,-65.86C840.73,-40.31 888.11,-57.69 1054.5,-30 1057.16,-29.56 1059.87,-29.06 1062.61,-28.53"/>
<polygon fill="#63b8ff" stroke="#63b8ff" points="670.08,-62.36 660.73,-67.34 671.14,-69.28 670.08,-62.36"/>
</g>
<!-- Node11 -->
<g id="node11" class="node">
<title>Node11</title>
<g id="a_node11"><a xlink:href="a00356.html" target="_top" xlink:title=" ">
<polygon fill="white" stroke="#666666" points="1285,-30 1180,-30 1180,0 1285,0 1285,-30"/>
<text text-anchor="start" x="1188" y="-18" font-family="Helvetica,sans-Serif" font-size="10.00">Cinterface/pathfinder</text>
<text text-anchor="middle" x="1232.5" y="-7" font-family="Helvetica,sans-Serif" font-size="10.00">_C.cpp</text>
</a>
</g>
</g>
<!-- Node9&#45;&gt;Node11 -->
<g id="edge10" class="edge">
<title>Node9&#45;&gt;Node11</title>
<path fill="none" stroke="#63b8ff" d="M670.59,-65.87C892.35,-34.92 953.52,-62.62 1171.5,-30 1174.19,-29.6 1176.93,-29.14 1179.69,-28.64"/>
<polygon fill="#63b8ff" stroke="#63b8ff" points="670.12,-62.4 660.72,-67.27 671.11,-69.33 670.12,-62.4"/>
</g>
<!-- Node12 -->
<g id="node12" class="node">
<title>Node12</title>
<g id="a_node12"><a xlink:href="a00374.html" target="_top" xlink:title=" ">
<polygon fill="white" stroke="#666666" points="1425.5,-30 1303.5,-30 1303.5,0 1425.5,0 1425.5,-30"/>
<text text-anchor="start" x="1311.5" y="-18" font-family="Helvetica,sans-Serif" font-size="10.00">Cinterface/view_analysis</text>
<text text-anchor="middle" x="1364.5" y="-7" font-family="Helvetica,sans-Serif" font-size="10.00">_C.cpp</text>
</a>
</g>
</g>
<!-- Node9&#45;&gt;Node12 -->
<g id="edge12" class="edge">
<title>Node9&#45;&gt;Node12</title>
<path fill="none" stroke="#63b8ff" d="M670.39,-65.92C946.57,-29.08 1021.72,-64.95 1294.5,-30 1297.33,-29.64 1300.21,-29.23 1303.12,-28.78"/>
<polygon fill="#63b8ff" stroke="#63b8ff" points="670.15,-62.42 660.71,-67.23 671.09,-69.36 670.15,-62.42"/>
</g>
<!-- Node13 -->
<g id="node13" class="node">
<title>Node13</title>
<g id="a_node13"><a xlink:href="a00380.html" target="_top" xlink:title=" ">
<polygon fill="white" stroke="#666666" points="775,-30 678,-30 678,0 775,0 775,-30"/>
<text text-anchor="start" x="686" y="-18" font-family="Helvetica,sans-Serif" font-size="10.00">Cinterface/visibility</text>
<text text-anchor="middle" x="726.5" y="-7" font-family="Helvetica,sans-Serif" font-size="10.00">_graph_C.cpp</text>
</a>
</g>
</g>
<!-- Node9&#45;&gt;Node13 -->
<g id="edge13" class="edge">
<title>Node9&#45;&gt;Node13</title>
<path fill="none" stroke="#63b8ff" d="M642.02,-60.32C660.49,-50.63 682.36,-39.16 699.21,-30.31"/>
<polygon fill="#63b8ff" stroke="#63b8ff" points="640.45,-57.19 633.22,-64.93 643.7,-63.39 640.45,-57.19"/>
</g>
<!-- Node14 -->
<g id="node14" class="node">
<title>Node14</title>
<g id="a_node14"><a xlink:href="a00188.html" target="_top" xlink:title=" ">
<polygon fill="white" stroke="#666666" points="917.5,-30 793.5,-30 793.5,0 917.5,0 917.5,-30"/>
<text text-anchor="start" x="801.5" y="-18" font-family="Helvetica,sans-Serif" font-size="10.00">Cpp/spatialstructures</text>
<text text-anchor="middle" x="855.5" y="-7" font-family="Helvetica,sans-Serif" font-size="10.00">/src/cost_algorithms.cpp</text>
</a>
</g>
</g>
<!-- Node9&#45;&gt;Node14 -->
<g id="edge18" class="edge">
<title>Node9&#45;&gt;Node14</title>
<path fill="none" stroke="#63b8ff" d="M670.23,-63.24C710.11,-53.07 760.51,-40.22 798.67,-30.49"/>
<polygon fill="#63b8ff" stroke="#63b8ff" points="669.56,-59.8 660.74,-65.66 671.29,-66.58 669.56,-59.8"/>
</g>
<!-- Node15 -->
<g id="node15" class="node">
<title>Node15</title>
<g id="a_node15"><a xlink:href="a00200.html" target="_top" xlink:title="Contains implementation for the Graph class.">
<polygon fill="white" stroke="#666666" points="1045,-30 936,-30 936,0 1045,0 1045,-30"/>
<text text-anchor="start" x="944" y="-18" font-family="Helvetica,sans-Serif" font-size="10.00">Cpp/spatialstructures</text>
<text text-anchor="middle" x="990.5" y="-7" font-family="Helvetica,sans-Serif" font-size="10.00">/src/graph.cpp</text>
</a>
</g>
</g>
<!-- Node9&#45;&gt;Node15 -->
<g id="edge19" class="edge">
<title>Node9&#45;&gt;Node15</title>
<path fill="none" stroke="#63b8ff" d="M670.54,-65.74C784.43,-45.89 816.09,-49.75 926.5,-30 929.52,-29.46 932.62,-28.88 935.74,-28.27"/>
<polygon fill="#63b8ff" stroke="#63b8ff" points="669.99,-62.28 660.75,-67.47 671.2,-69.17 669.99,-62.28"/>
</g>
</g>
</svg>
