<?xml version="1.0" encoding="UTF-8" standalone="no"?>
<!DOCTYPE svg PUBLIC "-//W3C//DTD SVG 1.1//EN"
 "http://www.w3.org/Graphics/SVG/1.1/DTD/svg11.dtd">
<!-- Generated by graphviz version 4.0.0 (20220529.0937)
 -->
<!-- Title: Cpp/raytracer/src/embree_raytracer.h Pages: 1 -->
<svg width="1188pt" height="106pt"
 viewBox="0.00 0.00 1188.00 106.00" xmlns="http://www.w3.org/2000/svg" xmlns:xlink="http://www.w3.org/1999/xlink">
<g id="graph0" class="graph" transform="scale(1 1) rotate(0) translate(4 102)">
<title>Cpp/raytracer/src/embree_raytracer.h</title>
<polygon fill="white" stroke="transparent" points="-4,4 -4,-102 1184,-102 1184,4 -4,4"/>
<!-- Node1 -->
<g id="node1" class="node">
<title>Node1</title>
<g id="a_node1"><a xlink:title="Contains definitions for the EmbreeRayTracer">
<polygon fill="#bfbfbf" stroke="black" points="484,-67.5 484,-97.5 611,-97.5 611,-67.5 484,-67.5"/>
<text text-anchor="start" x="492" y="-85.5" font-family="Helvetica,sans-Serif" font-size="10.00">Cpp/raytracer/src/embree</text>
<text text-anchor="middle" x="547.5" y="-74.5" font-family="Helvetica,sans-Serif" font-size="10.00">_raytracer.h</text>
</a>
</g>
</g>
<!-- Node2 -->
<g id="node2" class="node">
<title>Node2</title>
<g id="a_node2"><a xlink:href="a00338.html" target="_top" xlink:title=" ">
<polygon fill="white" stroke="black" points="0,-0.5 0,-30.5 99,-30.5 99,-0.5 0,-0.5"/>
<text text-anchor="start" x="8" y="-18.5" font-family="Helvetica,sans-Serif" font-size="10.00">Cinterface/analysis</text>
<text text-anchor="middle" x="49.5" y="-7.5" font-family="Helvetica,sans-Serif" font-size="10.00">_C.cpp</text>
</a>
</g>
</g>
<!-- Node1&#45;&gt;Node2 -->
<g id="edge1" class="edge">
<title>Node1&#45;&gt;Node2</title>
<path fill="none" stroke="midnightblue" d="M473.6,-75.99C385.83,-68.76 235.21,-54.19 107.5,-31 104.74,-30.5 101.92,-29.94 99.08,-29.35"/>
<polygon fill="midnightblue" stroke="midnightblue" points="473.47,-79.49 483.73,-76.81 474.04,-72.51 473.47,-79.49"/>
</g>
<!-- Node3 -->
<g id="node3" class="node">
<title>Node3</title>
<g id="a_node3"><a xlink:href="a00362.html" target="_top" xlink:title=" ">
<polygon fill="white" stroke="black" points="117,-0.5 117,-30.5 218,-30.5 218,-0.5 117,-0.5"/>
<text text-anchor="start" x="125" y="-18.5" font-family="Helvetica,sans-Serif" font-size="10.00">Cinterface/raytracer</text>
<text text-anchor="middle" x="167.5" y="-7.5" font-family="Helvetica,sans-Serif" font-size="10.00">_C.cpp</text>
</a>
</g>
</g>
<!-- Node1&#45;&gt;Node3 -->
<g id="edge2" class="edge">
<title>Node1&#45;&gt;Node3</title>
<path fill="none" stroke="midnightblue" d="M473.63,-71.57C408.58,-62.41 311.4,-47.73 227.5,-31 224.45,-30.39 221.32,-29.74 218.18,-29.05"/>
<polygon fill="midnightblue" stroke="midnightblue" points="473.4,-75.07 483.78,-72.99 474.37,-68.14 473.4,-75.07"/>
</g>
<!-- Node4 -->
<g id="node4" class="node">
<title>Node4</title>
<g id="a_node4"><a xlink:href="a00374.html" target="_top" xlink:title=" ">
<polygon fill="white" stroke="black" points="236.5,-0.5 236.5,-30.5 358.5,-30.5 358.5,-0.5 236.5,-0.5"/>
<text text-anchor="start" x="244.5" y="-18.5" font-family="Helvetica,sans-Serif" font-size="10.00">Cinterface/view_analysis</text>
<text text-anchor="middle" x="297.5" y="-7.5" font-family="Helvetica,sans-Serif" font-size="10.00">_C.cpp</text>
</a>
</g>
</g>
<!-- Node1&#45;&gt;Node4 -->
<g id="edge3" class="edge">
<title>Node1&#45;&gt;Node4</title>
<path fill="none" stroke="midnightblue" d="M483.72,-64.92C442.92,-54.31 390.57,-40.7 351.77,-30.61"/>
<polygon fill="midnightblue" stroke="midnightblue" points="483,-68.35 493.56,-67.48 484.76,-61.57 483,-68.35"/>
</g>
<!-- Node5 -->
<g id="node5" class="node">
<title>Node5</title>
<g id="a_node5"><a xlink:href="a00380.html" target="_top" xlink:title=" ">
<polygon fill="white" stroke="black" points="377,-0.5 377,-30.5 474,-30.5 474,-0.5 377,-0.5"/>
<text text-anchor="start" x="385" y="-18.5" font-family="Helvetica,sans-Serif" font-size="10.00">Cinterface/visibility</text>
<text text-anchor="middle" x="425.5" y="-7.5" font-family="Helvetica,sans-Serif" font-size="10.00">_graph_C.cpp</text>
</a>
</g>
</g>
<!-- Node1&#45;&gt;Node5 -->
<g id="edge4" class="edge">
<title>Node1&#45;&gt;Node5</title>
<path fill="none" stroke="midnightblue" d="M511.98,-62.57C492.79,-52.35 469.5,-39.94 451.92,-30.58"/>
<polygon fill="midnightblue" stroke="midnightblue" points="510.56,-65.78 521.03,-67.4 513.85,-59.6 510.56,-65.78"/>
</g>
<!-- Node6 -->
<g id="node6" class="node">
<title>Node6</title>
<g id="a_node6"><a xlink:href="a00011.html" target="_top" xlink:title=" ">
<polygon fill="white" stroke="black" points="492.5,-0.5 492.5,-30.5 602.5,-30.5 602.5,-0.5 492.5,-0.5"/>
<text text-anchor="start" x="500.5" y="-18.5" font-family="Helvetica,sans-Serif" font-size="10.00">Cpp/analysismethods</text>
<text text-anchor="middle" x="547.5" y="-7.5" font-family="Helvetica,sans-Serif" font-size="10.00">/src/graph_utils.cpp</text>
</a>
</g>
</g>
<!-- Node1&#45;&gt;Node6 -->
<g id="edge5" class="edge">
<title>Node1&#45;&gt;Node6</title>
<path fill="none" stroke="midnightblue" d="M547.5,-57.11C547.5,-48.15 547.5,-38.32 547.5,-30.58"/>
<polygon fill="midnightblue" stroke="midnightblue" points="544,-57.4 547.5,-67.4 551,-57.4 544,-57.4"/>
</g>
<!-- Node7 -->
<g id="node7" class="node">
<title>Node7</title>
<g id="a_node7"><a xlink:href="a00020.html" target="_top" xlink:title="Contains implementation for the ViewAnalysis namespace.">
<polygon fill="white" stroke="black" points="620.5,-0.5 620.5,-30.5 734.5,-30.5 734.5,-0.5 620.5,-0.5"/>
<text text-anchor="start" x="628.5" y="-18.5" font-family="Helvetica,sans-Serif" font-size="10.00">Cpp/analysismethods</text>
<text text-anchor="middle" x="677.5" y="-7.5" font-family="Helvetica,sans-Serif" font-size="10.00">/src/view_analysis.cpp</text>
</a>
</g>
</g>
<!-- Node1&#45;&gt;Node7 -->
<g id="edge6" class="edge">
<title>Node1&#45;&gt;Node7</title>
<path fill="none" stroke="midnightblue" d="M584.79,-62.85C605.35,-52.58 630.45,-40.03 649.35,-30.58"/>
<polygon fill="midnightblue" stroke="midnightblue" points="583.09,-59.79 575.71,-67.4 586.22,-66.05 583.09,-59.79"/>
</g>
<!-- Node8 -->
<g id="node8" class="node">
<title>Node8</title>
<g id="a_node8"><a xlink:href="a00026.html" target="_top" xlink:title="Contains implementation for the VisibilityGraph class.">
<polygon fill="white" stroke="black" points="752.5,-0.5 752.5,-30.5 870.5,-30.5 870.5,-0.5 752.5,-0.5"/>
<text text-anchor="start" x="760.5" y="-18.5" font-family="Helvetica,sans-Serif" font-size="10.00">Cpp/analysismethods</text>
<text text-anchor="middle" x="811.5" y="-7.5" font-family="Helvetica,sans-Serif" font-size="10.00">/src/visibility_graph.cpp</text>
</a>
</g>
</g>
<!-- Node1&#45;&gt;Node8 -->
<g id="edge7" class="edge">
<title>Node1&#45;&gt;Node8</title>
<path fill="none" stroke="midnightblue" d="M614.31,-65.05C657.47,-54.43 713.04,-40.74 754.19,-30.61"/>
<polygon fill="midnightblue" stroke="midnightblue" points="613.33,-61.69 604.46,-67.48 615.01,-68.48 613.33,-61.69"/>
</g>
<!-- Node9 -->
<g id="node9" class="node">
<title>Node9</title>
<g id="a_node9"><a xlink:href="a00155.html" target="_top" xlink:title=" ">
<polygon fill="white" stroke="black" points="888.5,-6 888.5,-25 1034.5,-25 1034.5,-6 888.5,-6"/>
<text text-anchor="middle" x="961.5" y="-13" font-family="Helvetica,sans-Serif" font-size="10.00">Cpp/raytracer/src/MultiRT.cpp</text>
</a>
</g>
</g>
<!-- Node1&#45;&gt;Node9 -->
<g id="edge8" class="edge">
<title>Node1&#45;&gt;Node9</title>
<path fill="none" stroke="midnightblue" d="M621.31,-70.79C688.64,-60.9 790.85,-45.58 879.5,-31 890.77,-29.15 902.89,-27.06 914.27,-25.05"/>
<polygon fill="midnightblue" stroke="midnightblue" points="620.6,-67.36 611.22,-72.27 621.62,-74.28 620.6,-67.36"/>
</g>
<!-- Node10 -->
<g id="node10" class="node">
<title>Node10</title>
<g id="a_node10"><a xlink:href="a00143.html" target="_top" xlink:title="Contains implementation for the EmbreeRayTracer">
<polygon fill="white" stroke="black" points="1053,-0.5 1053,-30.5 1180,-30.5 1180,-0.5 1053,-0.5"/>
<text text-anchor="start" x="1061" y="-18.5" font-family="Helvetica,sans-Serif" font-size="10.00">Cpp/raytracer/src/embree</text>
<text text-anchor="middle" x="1116.5" y="-7.5" font-family="Helvetica,sans-Serif" font-size="10.00">_raytracer.cpp</text>
</a>
</g>
</g>
<!-- Node1&#45;&gt;Node10 -->
<g id="edge9" class="edge">
<title>Node1&#45;&gt;Node10</title>
<path fill="none" stroke="midnightblue" d="M621.17,-76.19C718.28,-68.69 894.27,-53.37 1043.5,-31 1046.57,-30.54 1049.7,-30.04 1052.86,-29.51"/>
<polygon fill="midnightblue" stroke="midnightblue" points="620.86,-72.7 611.16,-76.96 621.4,-79.68 620.86,-72.7"/>
</g>
</g>
</svg>
