<?xml version="1.0" encoding="UTF-8" standalone="no"?>
<!DOCTYPE svg PUBLIC "-//W3C//DTD SVG 1.1//EN"
 "http://www.w3.org/Graphics/SVG/1.1/DTD/svg11.dtd">
<!-- Generated by graphviz version 8.0.5 (20230430.1635)
 -->
<!-- Title: Cpp/spatialstructures/src/Edge.h Pages: 1 -->
<svg width="142pt" height="152pt"
 viewBox="0.00 0.00 142.00 152.00" xmlns="http://www.w3.org/2000/svg" xmlns:xlink="http://www.w3.org/1999/xlink">
<g id="graph0" class="graph" transform="scale(1 1) rotate(0) translate(4 148)">
<title>Cpp/spatialstructures/src/Edge.h</title>
<!-- Node1 -->
<g id="node1" class="node">
<title>Node1</title>
<g id="a_node1"><a xlink:title="Contains definitions for the Edge structure.">
<polygon fill="#999999" stroke="#666666" points="134,-144 25.75,-144 25.75,-112 134,-112 134,-144"/>
<text text-anchor="start" x="33.75" y="-130.5" font-family="Helvetica,sans-Serif" font-size="10.00">Cpp/spatialstructures</text>
<text text-anchor="middle" x="79.88" y="-118.5" font-family="Helvetica,sans-Serif" font-size="10.00">/src/Edge.h</text>
</a>
</g>
</g>
<!-- Node2 -->
<g id="node2" class="node">
<title>Node2</title>
<g id="a_node2"><a xlink:href="a00209.html" target="_top" xlink:title="Contains definitions for the Node structure.">
<polygon fill="white" stroke="#666666" points="72.5,-76 27.25,-76 27.25,-56 72.5,-56 72.5,-76"/>
<text text-anchor="middle" x="49.88" y="-62.5" font-family="Helvetica,sans-Serif" font-size="10.00">node.h</text>
</a>
</g>
</g>
<!-- Node1&#45;&gt;Node2 -->
<g id="edge1" class="edge">
<title>Node1&#45;&gt;Node2</title>
<path fill="none" stroke="#63b8ff" d="M72.15,-111.55C68.29,-103.82 63.57,-94.4 59.48,-86.21"/>
<polygon fill="#63b8ff" stroke="#63b8ff" points="62.18,-84.79 54.58,-77.41 55.92,-87.92 62.18,-84.79"/>
</g>
<!-- Node5 -->
<g id="node5" class="node">
<title>Node5</title>
<g id="a_node5"><a xlink:title=" ">
<polygon fill="#e0e0e0" stroke="#999999" points="131.63,-76 90.13,-76 90.13,-56 131.63,-56 131.63,-76"/>
<text text-anchor="middle" x="110.88" y="-62.5" font-family="Helvetica,sans-Serif" font-size="10.00">vector</text>
</a>
</g>
</g>
<!-- Node1&#45;&gt;Node5 -->
<g id="edge4" class="edge">
<title>Node1&#45;&gt;Node5</title>
<path fill="none" stroke="#63b8ff" d="M87.86,-111.55C91.89,-103.74 96.83,-94.19 101.09,-85.94"/>
<polygon fill="#63b8ff" stroke="#63b8ff" points="104.53,-87.9 106.01,-77.41 98.31,-84.69 104.53,-87.9"/>
</g>
<!-- Node3 -->
<g id="node3" class="node">
<title>Node3</title>
<g id="a_node3"><a xlink:title=" ">
<polygon fill="#e0e0e0" stroke="#999999" points="37.75,-20 0,-20 0,0 37.75,0 37.75,-20"/>
<text text-anchor="middle" x="18.88" y="-6.5" font-family="Helvetica,sans-Serif" font-size="10.00">array</text>
</a>
</g>
</g>
<!-- Node2&#45;&gt;Node3 -->
<g id="edge2" class="edge">
<title>Node2&#45;&gt;Node3</title>
<path fill="none" stroke="#63b8ff" d="M44.48,-55.59C40.39,-48.47 34.63,-38.45 29.62,-29.72"/>
<polygon fill="#63b8ff" stroke="#63b8ff" points="32.23,-28.23 24.21,-21.3 26.16,-31.71 32.23,-28.23"/>
</g>
<!-- Node4 -->
<g id="node4" class="node">
<title>Node4</title>
<g id="a_node4"><a xlink:title=" ">
<polygon fill="#e0e0e0" stroke="#999999" points="107.5,-20 56.25,-20 56.25,0 107.5,0 107.5,-20"/>
<text text-anchor="middle" x="81.88" y="-6.5" font-family="Helvetica,sans-Serif" font-size="10.00">ostream</text>
</a>
</g>
</g>
<!-- Node2&#45;&gt;Node4 -->
<g id="edge3" class="edge">
<title>Node2&#45;&gt;Node4</title>
<path fill="none" stroke="#63b8ff" d="M55.45,-55.59C59.67,-48.47 65.61,-38.45 70.78,-29.72"/>
<polygon fill="#63b8ff" stroke="#63b8ff" points="74.28,-31.69 76.36,-21.3 68.26,-28.12 74.28,-31.69"/>
</g>
</g>
</svg>
