<?xml version="1.0" encoding="UTF-8" standalone="no"?>
<!DOCTYPE svg PUBLIC "-//W3C//DTD SVG 1.1//EN"
 "http://www.w3.org/Graphics/SVG/1.1/DTD/svg11.dtd">
<!-- Generated by graphviz version 7.0.4 (20221203.1631)
 -->
<!-- Title: Cpp/spatialstructures/src/CInterface.cpp Pages: 1 -->
<svg width="842pt" height="258pt"
 viewBox="0.00 0.00 842.38 258.00" xmlns="http://www.w3.org/2000/svg" xmlns:xlink="http://www.w3.org/1999/xlink">
<g id="graph0" class="graph" transform="scale(1 1) rotate(0) translate(4 254)">
<title>Cpp/spatialstructures/src/CInterface.cpp</title>
<!-- Node1 -->
<g id="node1" class="node">
<title>Node1</title>
<g id="a_node1"><a xlink:title="Contains implementation for the CInterface.">
<polygon fill="#999999" stroke="#666666" points="401.38,-250 292.38,-250 292.38,-220 401.38,-220 401.38,-250"/>
<text text-anchor="start" x="300.38" y="-238" font-family="Helvetica,sans-Serif" font-size="10.00">Cpp/spatialstructures</text>
<text text-anchor="middle" x="346.88" y="-227" font-family="Helvetica,sans-Serif" font-size="10.00">/src/CInterface.cpp</text>
</a>
</g>
</g>
<!-- Node2 -->
<g id="node2" class="node">
<title>Node2</title>
<g id="a_node2"><a xlink:href="a00371.html" target="_top" xlink:title="Header file related to manipulating nodes, edges, and graphs via CInterface.">
<polygon fill="white" stroke="#666666" points="152.38,-184 43.38,-184 43.38,-165 152.38,-165 152.38,-184"/>
<text text-anchor="middle" x="97.88" y="-172" font-family="Helvetica,sans-Serif" font-size="10.00">spatialstructures_C.h</text>
</a>
</g>
</g>
<!-- Node1&#45;&gt;Node2 -->
<g id="edge1" class="edge">
<title>Node1&#45;&gt;Node2</title>
<path fill="none" stroke="#63b8ff" d="M291.92,-221.09C248.63,-210.92 188.82,-196.87 147.08,-187.06"/>
<polygon fill="#63b8ff" stroke="#63b8ff" points="148.1,-183.7 137.56,-184.82 146.5,-190.52 148.1,-183.7"/>
</g>
<!-- Node6 -->
<g id="node6" class="node">
<title>Node6</title>
<g id="a_node6"><a xlink:title=" ">
<polygon fill="#e0e0e0" stroke="#999999" points="215.88,-129 161.88,-129 161.88,-110 215.88,-110 215.88,-129"/>
<text text-anchor="middle" x="188.88" y="-117" font-family="Helvetica,sans-Serif" font-size="10.00">iostream</text>
</a>
</g>
</g>
<!-- Node1&#45;&gt;Node6 -->
<g id="edge7" class="edge">
<title>Node1&#45;&gt;Node6</title>
<path fill="none" stroke="#63b8ff" d="M326.87,-219.63C296.89,-198.09 240.6,-157.66 210,-135.67"/>
<polygon fill="#63b8ff" stroke="#63b8ff" points="212.42,-133.1 202.26,-130.11 208.34,-138.79 212.42,-133.1"/>
</g>
<!-- Node7 -->
<g id="node7" class="node">
<title>Node7</title>
<g id="a_node7"><a xlink:href="a00185.html" target="_top" xlink:title="Contains definitions for the HF::SpatialStructures namespace.">
<polygon fill="white" stroke="#666666" points="633.38,-184 564.38,-184 564.38,-165 633.38,-165 633.38,-184"/>
<text text-anchor="middle" x="598.88" y="-172" font-family="Helvetica,sans-Serif" font-size="10.00">Constants.h</text>
</a>
</g>
</g>
<!-- Node1&#45;&gt;Node7 -->
<g id="edge8" class="edge">
<title>Node1&#45;&gt;Node7</title>
<path fill="none" stroke="#63b8ff" d="M401.87,-221.23C447.1,-210.73 510.47,-196.02 553.01,-186.15"/>
<polygon fill="#63b8ff" stroke="#63b8ff" points="553.73,-189.57 562.68,-183.9 552.15,-182.75 553.73,-189.57"/>
</g>
<!-- Node9 -->
<g id="node9" class="node">
<title>Node9</title>
<g id="a_node9"><a xlink:href="a00110.html" target="_top" xlink:title="Contains definitions for the Exceptions namespace.">
<polygon fill="white" stroke="#666666" points="759.88,-184 673.88,-184 673.88,-165 759.88,-165 759.88,-184"/>
<text text-anchor="middle" x="716.88" y="-172" font-family="Helvetica,sans-Serif" font-size="10.00">HFExceptions.h</text>
</a>
</g>
</g>
<!-- Node1&#45;&gt;Node9 -->
<g id="edge10" class="edge">
<title>Node1&#45;&gt;Node9</title>
<path fill="none" stroke="#63b8ff" d="M401.87,-225.31C471.95,-214.22 592.36,-195.19 662.26,-184.14"/>
<polygon fill="#63b8ff" stroke="#63b8ff" points="662.62,-187.62 671.95,-182.6 661.53,-180.71 662.62,-187.62"/>
</g>
<!-- Node13 -->
<g id="node13" class="node">
<title>Node13</title>
<g id="a_node13"><a xlink:href="a00203.html" target="_top" xlink:title="Contains definitions for the Graph &#160;class.">
<polygon fill="white" stroke="#666666" points="371.38,-184 322.38,-184 322.38,-165 371.38,-165 371.38,-184"/>
<text text-anchor="middle" x="346.88" y="-172" font-family="Helvetica,sans-Serif" font-size="10.00">graph.h</text>
</a>
</g>
</g>
<!-- Node1&#45;&gt;Node13 -->
<g id="edge14" class="edge">
<title>Node1&#45;&gt;Node13</title>
<path fill="none" stroke="#63b8ff" d="M346.88,-219.54C346.88,-212.34 346.88,-203.53 346.88,-195.68"/>
<polygon fill="#63b8ff" stroke="#63b8ff" points="350.38,-195.69 346.88,-185.69 343.38,-195.69 350.38,-195.69"/>
</g>
<!-- Node15 -->
<g id="node15" class="node">
<title>Node15</title>
<g id="a_node15"><a xlink:href="a00197.html" target="_top" xlink:title="Contains definitions for the Edge structure.">
<polygon fill="white" stroke="#666666" points="281.38,-129 234.38,-129 234.38,-110 281.38,-110 281.38,-129"/>
<text text-anchor="middle" x="257.88" y="-117" font-family="Helvetica,sans-Serif" font-size="10.00">Edge.h</text>
</a>
</g>
</g>
<!-- Node1&#45;&gt;Node15 -->
<g id="edge26" class="edge">
<title>Node1&#45;&gt;Node15</title>
<path fill="none" stroke="#63b8ff" d="M335.6,-219.63C319.31,-198.84 289.19,-160.44 271.62,-138.02"/>
<polygon fill="#63b8ff" stroke="#63b8ff" points="274.58,-136.13 265.66,-130.42 269.07,-140.45 274.58,-136.13"/>
</g>
<!-- Node16 -->
<g id="node16" class="node">
<title>Node16</title>
<g id="a_node16"><a xlink:href="a00209.html" target="_top" xlink:title="Contains definitions for the Node structure.">
<polygon fill="white" stroke="#666666" points="355.88,-74 309.88,-74 309.88,-55 355.88,-55 355.88,-74"/>
<text text-anchor="middle" x="332.88" y="-62" font-family="Helvetica,sans-Serif" font-size="10.00">node.h</text>
</a>
</g>
</g>
<!-- Node1&#45;&gt;Node16 -->
<g id="edge25" class="edge">
<title>Node1&#45;&gt;Node16</title>
<path fill="none" stroke="#63b8ff" d="M399.58,-219.53C462.99,-199.51 556.3,-160.09 516.88,-110 498.65,-86.85 415.69,-74.3 367.62,-68.85"/>
<polygon fill="#63b8ff" stroke="#63b8ff" points="368.03,-65.38 357.71,-67.78 367.28,-72.34 368.03,-65.38"/>
</g>
<!-- Node3 -->
<g id="node3" class="node">
<title>Node3</title>
<g id="a_node3"><a xlink:href="a00347.html" target="_top" xlink:title=" ">
<polygon fill="white" stroke="#666666" points="105.88,-129 15.88,-129 15.88,-110 105.88,-110 105.88,-129"/>
<text text-anchor="middle" x="60.88" y="-117" font-family="Helvetica,sans-Serif" font-size="10.00">cinterface_utils.h</text>
</a>
</g>
</g>
<!-- Node2&#45;&gt;Node3 -->
<g id="edge2" class="edge">
<title>Node2&#45;&gt;Node3</title>
<path fill="none" stroke="#63b8ff" d="M91.77,-164.75C86.87,-157.73 79.83,-147.64 73.7,-138.87"/>
<polygon fill="#63b8ff" stroke="#63b8ff" points="76.58,-136.88 67.99,-130.68 70.84,-140.89 76.58,-136.88"/>
</g>
<!-- Node4 -->
<g id="node4" class="node">
<title>Node4</title>
<g id="a_node4"><a xlink:title=" ">
<polygon fill="#e0e0e0" stroke="#999999" points="185.88,-74 143.88,-74 143.88,-55 185.88,-55 185.88,-74"/>
<text text-anchor="middle" x="164.88" y="-62" font-family="Helvetica,sans-Serif" font-size="10.00">vector</text>
</a>
</g>
</g>
<!-- Node2&#45;&gt;Node4 -->
<g id="edge5" class="edge">
<title>Node2&#45;&gt;Node4</title>
<path fill="none" stroke="#63b8ff" d="M103.36,-164.66C114.25,-147.1 138.83,-107.48 153.41,-83.98"/>
<polygon fill="#63b8ff" stroke="#63b8ff" points="156.22,-86.09 158.52,-75.75 150.27,-82.4 156.22,-86.09"/>
</g>
<!-- Node5 -->
<g id="node5" class="node">
<title>Node5</title>
<g id="a_node5"><a xlink:title=" ">
<polygon fill="#e0e0e0" stroke="#999999" points="79.88,-19 41.88,-19 41.88,0 79.88,0 79.88,-19"/>
<text text-anchor="middle" x="60.88" y="-7" font-family="Helvetica,sans-Serif" font-size="10.00">array</text>
</a>
</g>
</g>
<!-- Node2&#45;&gt;Node5 -->
<g id="edge6" class="edge">
<title>Node2&#45;&gt;Node5</title>
<path fill="none" stroke="#63b8ff" d="M58.52,-164.65C39.44,-158.16 18.24,-147.2 6.88,-129 -14.46,-94.82 20.09,-50.79 43.05,-27.2"/>
<polygon fill="#63b8ff" stroke="#63b8ff" points="45.4,-29.8 50.06,-20.28 40.48,-24.81 45.4,-29.8"/>
</g>
<!-- Node3&#45;&gt;Node4 -->
<g id="edge3" class="edge">
<title>Node3&#45;&gt;Node4</title>
<path fill="none" stroke="#63b8ff" d="M78.52,-109.51C94.6,-101.31 118.62,-89.07 137.25,-79.58"/>
<polygon fill="#63b8ff" stroke="#63b8ff" points="138.83,-82.7 146.15,-75.05 135.65,-76.47 138.83,-82.7"/>
</g>
<!-- Node3&#45;&gt;Node5 -->
<g id="edge4" class="edge">
<title>Node3&#45;&gt;Node5</title>
<path fill="none" stroke="#63b8ff" d="M60.88,-109.66C60.88,-92.57 60.88,-54.61 60.88,-30.92"/>
<polygon fill="#63b8ff" stroke="#63b8ff" points="64.38,-30.97 60.88,-20.97 57.38,-30.97 64.38,-30.97"/>
</g>
<!-- Node8 -->
<g id="node8" class="node">
<title>Node8</title>
<g id="a_node8"><a xlink:title=" ">
<polygon fill="#e0e0e0" stroke="#999999" points="614.88,-129 570.88,-129 570.88,-110 614.88,-110 614.88,-129"/>
<text text-anchor="middle" x="592.88" y="-117" font-family="Helvetica,sans-Serif" font-size="10.00">cmath</text>
</a>
</g>
</g>
<!-- Node7&#45;&gt;Node8 -->
<g id="edge9" class="edge">
<title>Node7&#45;&gt;Node8</title>
<path fill="none" stroke="#63b8ff" d="M597.89,-164.75C597.14,-158.19 596.1,-148.95 595.15,-140.6"/>
<polygon fill="#63b8ff" stroke="#63b8ff" points="598.66,-140.49 594.06,-130.95 591.71,-141.28 598.66,-140.49"/>
</g>
<!-- Node10 -->
<g id="node10" class="node">
<title>Node10</title>
<g id="a_node10"><a xlink:title=" ">
<polygon fill="#e0e0e0" stroke="#999999" points="692.38,-129 633.38,-129 633.38,-110 692.38,-110 692.38,-129"/>
<text text-anchor="middle" x="662.88" y="-117" font-family="Helvetica,sans-Serif" font-size="10.00">exception</text>
</a>
</g>
</g>
<!-- Node9&#45;&gt;Node10 -->
<g id="edge11" class="edge">
<title>Node9&#45;&gt;Node10</title>
<path fill="none" stroke="#63b8ff" d="M707.96,-164.75C700.42,-157.35 689.41,-146.54 680.15,-137.45"/>
<polygon fill="#63b8ff" stroke="#63b8ff" points="682.66,-135.01 673.07,-130.5 677.75,-140 682.66,-135.01"/>
</g>
<!-- Node11 -->
<g id="node11" class="node">
<title>Node11</title>
<g id="a_node11"><a xlink:title=" ">
<polygon fill="#e0e0e0" stroke="#999999" points="756.88,-129 710.88,-129 710.88,-110 756.88,-110 756.88,-129"/>
<text text-anchor="middle" x="733.88" y="-117" font-family="Helvetica,sans-Serif" font-size="10.00">cstring</text>
</a>
</g>
</g>
<!-- Node9&#45;&gt;Node11 -->
<g id="edge12" class="edge">
<title>Node9&#45;&gt;Node11</title>
<path fill="none" stroke="#63b8ff" d="M719.68,-164.75C721.81,-158.11 724.82,-148.73 727.52,-140.31"/>
<polygon fill="#63b8ff" stroke="#63b8ff" points="730.82,-141.47 730.55,-130.88 724.16,-139.34 730.82,-141.47"/>
</g>
<!-- Node12 -->
<g id="node12" class="node">
<title>Node12</title>
<g id="a_node12"><a xlink:title=" ">
<polygon fill="#e0e0e0" stroke="#999999" points="834.38,-129 775.38,-129 775.38,-110 834.38,-110 834.38,-129"/>
<text text-anchor="middle" x="804.88" y="-117" font-family="Helvetica,sans-Serif" font-size="10.00">stdexcept</text>
</a>
</g>
</g>
<!-- Node9&#45;&gt;Node12 -->
<g id="edge13" class="edge">
<title>Node9&#45;&gt;Node12</title>
<path fill="none" stroke="#63b8ff" d="M731.8,-164.51C745.16,-156.47 764.98,-144.53 780.61,-135.11"/>
<polygon fill="#63b8ff" stroke="#63b8ff" points="782.11,-138.3 788.87,-130.14 778.5,-132.3 782.11,-138.3"/>
</g>
<!-- Node13&#45;&gt;Node4 -->
<g id="edge16" class="edge">
<title>Node13&#45;&gt;Node4</title>
<path fill="none" stroke="#63b8ff" d="M341.26,-164.86C332.06,-151.34 312.52,-125.18 289.88,-110 261.38,-90.89 223.72,-78.95 197.22,-72.31"/>
<polygon fill="#63b8ff" stroke="#63b8ff" points="198.26,-68.96 187.72,-70.05 196.64,-75.77 198.26,-68.96"/>
</g>
<!-- Node13&#45;&gt;Node6 -->
<g id="edge24" class="edge">
<title>Node13&#45;&gt;Node6</title>
<path fill="none" stroke="#63b8ff" d="M322.19,-165.22C296.48,-156.6 255.91,-142.99 226.27,-133.04"/>
<polygon fill="#63b8ff" stroke="#63b8ff" points="227.53,-129.77 216.94,-129.91 225.3,-136.41 227.53,-129.77"/>
</g>
<!-- Node14 -->
<g id="node14" class="node">
<title>Node14</title>
<g id="a_node14"><a xlink:title=" ">
<polygon fill="#e0e0e0" stroke="#999999" points="507.88,-129 435.88,-129 435.88,-110 507.88,-110 507.88,-129"/>
<text text-anchor="middle" x="471.88" y="-117" font-family="Helvetica,sans-Serif" font-size="10.00">robin_hood.h</text>
</a>
</g>
</g>
<!-- Node13&#45;&gt;Node14 -->
<g id="edge15" class="edge">
<title>Node13&#45;&gt;Node14</title>
<path fill="none" stroke="#63b8ff" d="M368.08,-164.51C387.95,-156.08 417.91,-143.38 440.54,-133.79"/>
<polygon fill="#63b8ff" stroke="#63b8ff" points="441.75,-137.07 449.59,-129.95 439.02,-130.63 441.75,-137.07"/>
</g>
<!-- Node13&#45;&gt;Node15 -->
<g id="edge17" class="edge">
<title>Node13&#45;&gt;Node15</title>
<path fill="none" stroke="#63b8ff" d="M331.78,-164.51C318.27,-156.47 298.22,-144.53 282.42,-135.11"/>
<polygon fill="#63b8ff" stroke="#63b8ff" points="284.43,-132.24 274.05,-130.13 280.85,-138.26 284.43,-132.24"/>
</g>
<!-- Node13&#45;&gt;Node16 -->
<g id="edge22" class="edge">
<title>Node13&#45;&gt;Node16</title>
<path fill="none" stroke="#63b8ff" d="M359.56,-164.68C374.98,-152.79 397.77,-130.73 387.88,-110 382.04,-97.78 371.03,-87.83 360.39,-80.46"/>
<polygon fill="#63b8ff" stroke="#63b8ff" points="362.47,-77.64 352.15,-75.24 358.72,-83.55 362.47,-77.64"/>
</g>
<!-- Node18 -->
<g id="node18" class="node">
<title>Node18</title>
<g id="a_node18"><a xlink:title=" ">
<polygon fill="#e0e0e0" stroke="#999999" points="379.38,-129 338.38,-129 338.38,-110 379.38,-110 379.38,-129"/>
<text text-anchor="middle" x="358.88" y="-117" font-family="Helvetica,sans-Serif" font-size="10.00">Eigen</text>
</a>
</g>
</g>
<!-- Node13&#45;&gt;Node18 -->
<g id="edge23" class="edge">
<title>Node13&#45;&gt;Node18</title>
<path fill="none" stroke="#63b8ff" d="M348.86,-164.75C350.34,-158.19 352.44,-148.95 354.32,-140.6"/>
<polygon fill="#63b8ff" stroke="#63b8ff" points="357.72,-141.44 356.52,-130.92 350.9,-139.9 357.72,-141.44"/>
</g>
<!-- Node15&#45;&gt;Node4 -->
<g id="edge21" class="edge">
<title>Node15&#45;&gt;Node4</title>
<path fill="none" stroke="#63b8ff" d="M242.1,-109.51C227.85,-101.39 206.64,-89.3 190.05,-79.85"/>
<polygon fill="#63b8ff" stroke="#63b8ff" points="192.16,-77.02 181.73,-75.11 188.69,-83.1 192.16,-77.02"/>
</g>
<!-- Node15&#45;&gt;Node16 -->
<g id="edge18" class="edge">
<title>Node15&#45;&gt;Node16</title>
<path fill="none" stroke="#63b8ff" d="M270.6,-109.51C281.66,-101.7 297.91,-90.21 311.05,-80.93"/>
<polygon fill="#63b8ff" stroke="#63b8ff" points="312.96,-83.86 319.11,-75.23 308.92,-78.14 312.96,-83.86"/>
</g>
<!-- Node16&#45;&gt;Node5 -->
<g id="edge19" class="edge">
<title>Node16&#45;&gt;Node5</title>
<path fill="none" stroke="#63b8ff" d="M309.69,-58.98C260.61,-49.42 146.28,-27.14 91.37,-16.44"/>
<polygon fill="#63b8ff" stroke="#63b8ff" points="92.27,-13.05 81.78,-14.57 90.93,-19.92 92.27,-13.05"/>
</g>
<!-- Node17 -->
<g id="node17" class="node">
<title>Node17</title>
<g id="a_node17"><a xlink:title=" ">
<polygon fill="#e0e0e0" stroke="#999999" points="358.88,-19 306.88,-19 306.88,0 358.88,0 358.88,-19"/>
<text text-anchor="middle" x="332.88" y="-7" font-family="Helvetica,sans-Serif" font-size="10.00">ostream</text>
</a>
</g>
</g>
<!-- Node16&#45;&gt;Node17 -->
<g id="edge20" class="edge">
<title>Node16&#45;&gt;Node17</title>
<path fill="none" stroke="#63b8ff" d="M332.88,-54.75C332.88,-48.27 332.88,-39.16 332.88,-30.9"/>
<polygon fill="#63b8ff" stroke="#63b8ff" points="336.38,-30.96 332.88,-20.96 329.38,-30.96 336.38,-30.96"/>
</g>
</g>
</svg>
