<?xml version="1.0" encoding="UTF-8" standalone="no"?>
<!DOCTYPE svg PUBLIC "-//W3C//DTD SVG 1.1//EN"
 "http://www.w3.org/Graphics/SVG/1.1/DTD/svg11.dtd">
<!-- Generated by graphviz version 4.0.0 (20220529.0937)
 -->
<!-- Title: Cpp/spatialstructures/src/CInterface.cpp Pages: 1 -->
<svg width="843pt" height="263pt"
 viewBox="0.00 0.00 842.53 263.00" xmlns="http://www.w3.org/2000/svg" xmlns:xlink="http://www.w3.org/1999/xlink">
<g id="graph0" class="graph" transform="scale(1 1) rotate(0) translate(4 259)">
<title>Cpp/spatialstructures/src/CInterface.cpp</title>
<polygon fill="white" stroke="transparent" points="-4,4 -4,-259 838.53,-259 838.53,4 -4,4"/>
<!-- Node1 -->
<g id="node1" class="node">
<title>Node1</title>
<g id="a_node1"><a xlink:title="Contains implementation for the CInterface.">
<polygon fill="#bfbfbf" stroke="black" points="292.53,-224.5 292.53,-254.5 401.53,-254.5 401.53,-224.5 292.53,-224.5"/>
<text text-anchor="start" x="300.53" y="-242.5" font-family="Helvetica,sans-Serif" font-size="10.00">Cpp/spatialstructures</text>
<text text-anchor="middle" x="347.03" y="-231.5" font-family="Helvetica,sans-Serif" font-size="10.00">/src/CInterface.cpp</text>
</a>
</g>
</g>
<!-- Node2 -->
<g id="node2" class="node">
<title>Node2</title>
<g id="a_node2"><a xlink:href="a00371.html" target="_top" xlink:title="Header file related to manipulating nodes, edges, and graphs via CInterface.">
<polygon fill="white" stroke="black" points="43.53,-168.5 43.53,-187.5 152.53,-187.5 152.53,-168.5 43.53,-168.5"/>
<text text-anchor="middle" x="98.03" y="-175.5" font-family="Helvetica,sans-Serif" font-size="10.00">spatialstructures_C.h</text>
</a>
</g>
</g>
<!-- Node1&#45;&gt;Node2 -->
<g id="edge1" class="edge">
<title>Node1&#45;&gt;Node2</title>
<path fill="none" stroke="midnightblue" d="M292.39,-225.44C247.82,-214.79 185.59,-199.92 143.65,-189.9"/>
<polygon fill="midnightblue" stroke="midnightblue" points="144.26,-186.45 133.72,-187.53 142.63,-193.26 144.26,-186.45"/>
</g>
<!-- Node6 -->
<g id="node6" class="node">
<title>Node6</title>
<g id="a_node6"><a xlink:title=" ">
<polygon fill="white" stroke="#bfbfbf" points="162.03,-112.5 162.03,-131.5 216.03,-131.5 216.03,-112.5 162.03,-112.5"/>
<text text-anchor="middle" x="189.03" y="-119.5" font-family="Helvetica,sans-Serif" font-size="10.00">iostream</text>
</a>
</g>
</g>
<!-- Node1&#45;&gt;Node6 -->
<g id="edge7" class="edge">
<title>Node1&#45;&gt;Node6</title>
<path fill="none" stroke="midnightblue" d="M327.66,-224.34C297.51,-202.3 239.66,-160.01 209.09,-137.66"/>
<polygon fill="midnightblue" stroke="midnightblue" points="211.03,-134.75 200.89,-131.67 206.9,-140.4 211.03,-134.75"/>
</g>
<!-- Node7 -->
<g id="node7" class="node">
<title>Node7</title>
<g id="a_node7"><a xlink:href="a00185.html" target="_top" xlink:title="Contains definitions for the HF::SpatialStructures namespace.">
<polygon fill="white" stroke="black" points="564.53,-168.5 564.53,-187.5 633.53,-187.5 633.53,-168.5 564.53,-168.5"/>
<text text-anchor="middle" x="599.03" y="-175.5" font-family="Helvetica,sans-Serif" font-size="10.00">Constants.h</text>
</a>
</g>
</g>
<!-- Node1&#45;&gt;Node7 -->
<g id="edge8" class="edge">
<title>Node1&#45;&gt;Node7</title>
<path fill="none" stroke="midnightblue" d="M401.71,-225.59C447.41,-214.8 511.77,-199.6 554.41,-189.54"/>
<polygon fill="midnightblue" stroke="midnightblue" points="555.29,-192.92 564.22,-187.22 553.68,-186.11 555.29,-192.92"/>
</g>
<!-- Node9 -->
<g id="node9" class="node">
<title>Node9</title>
<g id="a_node9"><a xlink:href="a00110.html" target="_top" xlink:title="Contains definitions for the Exceptions namespace.">
<polygon fill="white" stroke="black" points="674.03,-168.5 674.03,-187.5 760.03,-187.5 760.03,-168.5 674.03,-168.5"/>
<text text-anchor="middle" x="717.03" y="-175.5" font-family="Helvetica,sans-Serif" font-size="10.00">HFExceptions.h</text>
</a>
</g>
</g>
<!-- Node1&#45;&gt;Node9 -->
<g id="edge10" class="edge">
<title>Node1&#45;&gt;Node9</title>
<path fill="none" stroke="midnightblue" d="M401.63,-229.72C472.13,-218.38 594.06,-198.78 663.86,-187.55"/>
<polygon fill="midnightblue" stroke="midnightblue" points="664.45,-191 673.77,-185.96 663.34,-184.09 664.45,-191"/>
</g>
<!-- Node13 -->
<g id="node13" class="node">
<title>Node13</title>
<g id="a_node13"><a xlink:href="a00203.html" target="_top" xlink:title="Contains definitions for the Graph &#160;class.">
<polygon fill="white" stroke="black" points="322.53,-168.5 322.53,-187.5 371.53,-187.5 371.53,-168.5 322.53,-168.5"/>
<text text-anchor="middle" x="347.03" y="-175.5" font-family="Helvetica,sans-Serif" font-size="10.00">graph.h</text>
</a>
</g>
</g>
<!-- Node1&#45;&gt;Node13 -->
<g id="edge14" class="edge">
<title>Node1&#45;&gt;Node13</title>
<path fill="none" stroke="midnightblue" d="M347.03,-224.4C347.03,-216.47 347.03,-206.46 347.03,-197.86"/>
<polygon fill="midnightblue" stroke="midnightblue" points="350.53,-197.66 347.03,-187.66 343.53,-197.66 350.53,-197.66"/>
</g>
<!-- Node15 -->
<g id="node15" class="node">
<title>Node15</title>
<g id="a_node15"><a xlink:href="a00197.html" target="_top" xlink:title="Contains definitions for the Edge structure.">
<polygon fill="white" stroke="black" points="234.53,-112.5 234.53,-131.5 281.53,-131.5 281.53,-112.5 234.53,-112.5"/>
<text text-anchor="middle" x="258.03" y="-119.5" font-family="Helvetica,sans-Serif" font-size="10.00">Edge.h</text>
</a>
</g>
</g>
<!-- Node1&#45;&gt;Node15 -->
<g id="edge26" class="edge">
<title>Node1&#45;&gt;Node15</title>
<path fill="none" stroke="midnightblue" d="M336.12,-224.34C319.64,-202.96 288.49,-162.53 270.92,-139.73"/>
<polygon fill="midnightblue" stroke="midnightblue" points="273.59,-137.45 264.71,-131.67 268.04,-141.73 273.59,-137.45"/>
</g>
<!-- Node16 -->
<g id="node16" class="node">
<title>Node16</title>
<g id="a_node16"><a xlink:href="a00209.html" target="_top" xlink:title="Contains definitions for the Node structure.">
<polygon fill="white" stroke="black" points="310.03,-56.5 310.03,-75.5 356.03,-75.5 356.03,-56.5 310.03,-56.5"/>
<text text-anchor="middle" x="333.03" y="-63.5" font-family="Helvetica,sans-Serif" font-size="10.00">node.h</text>
</a>
</g>
</g>
<!-- Node1&#45;&gt;Node16 -->
<g id="edge25" class="edge">
<title>Node1&#45;&gt;Node16</title>
<path fill="none" stroke="midnightblue" d="M397.09,-224.43C460.58,-204.09 557.23,-163.22 517.03,-112 498.67,-88.61 414.45,-75.81 366.56,-70.31"/>
<polygon fill="midnightblue" stroke="midnightblue" points="366.69,-66.8 356.37,-69.19 365.92,-73.76 366.69,-66.8"/>
</g>
<!-- Node3 -->
<g id="node3" class="node">
<title>Node3</title>
<g id="a_node3"><a xlink:href="a00347.html" target="_top" xlink:title=" ">
<polygon fill="white" stroke="black" points="16.03,-112.5 16.03,-131.5 106.03,-131.5 106.03,-112.5 16.03,-112.5"/>
<text text-anchor="middle" x="61.03" y="-119.5" font-family="Helvetica,sans-Serif" font-size="10.00">cinterface_utils.h</text>
</a>
</g>
</g>
<!-- Node2&#45;&gt;Node3 -->
<g id="edge2" class="edge">
<title>Node2&#45;&gt;Node3</title>
<path fill="none" stroke="midnightblue" d="M91.92,-168.08C86.75,-160.53 79.18,-149.49 72.84,-140.23"/>
<polygon fill="midnightblue" stroke="midnightblue" points="75.57,-138.02 67.03,-131.75 69.79,-141.98 75.57,-138.02"/>
</g>
<!-- Node4 -->
<g id="node4" class="node">
<title>Node4</title>
<g id="a_node4"><a xlink:title=" ">
<polygon fill="white" stroke="#bfbfbf" points="144.03,-56.5 144.03,-75.5 186.03,-75.5 186.03,-56.5 144.03,-56.5"/>
<text text-anchor="middle" x="165.03" y="-63.5" font-family="Helvetica,sans-Serif" font-size="10.00">vector</text>
</a>
</g>
</g>
<!-- Node2&#45;&gt;Node4 -->
<g id="edge5" class="edge">
<title>Node2&#45;&gt;Node4</title>
<path fill="none" stroke="midnightblue" d="M103.29,-168.37C114.3,-150.3 139.95,-108.18 154.49,-84.31"/>
<polygon fill="midnightblue" stroke="midnightblue" points="157.58,-85.95 159.8,-75.59 151.61,-82.31 157.58,-85.95"/>
</g>
<!-- Node5 -->
<g id="node5" class="node">
<title>Node5</title>
<g id="a_node5"><a xlink:title=" ">
<polygon fill="white" stroke="#bfbfbf" points="42.03,-0.5 42.03,-19.5 80.03,-19.5 80.03,-0.5 42.03,-0.5"/>
<text text-anchor="middle" x="61.03" y="-7.5" font-family="Helvetica,sans-Serif" font-size="10.00">array</text>
</a>
</g>
</g>
<!-- Node2&#45;&gt;Node5 -->
<g id="edge6" class="edge">
<title>Node2&#45;&gt;Node5</title>
<path fill="none" stroke="midnightblue" d="M60.06,-168.41C40.62,-161.88 18.65,-150.72 7.03,-132 -15,-96.53 21.35,-50.54 44.37,-26.77"/>
<polygon fill="midnightblue" stroke="midnightblue" points="46.95,-29.15 51.56,-19.61 42.01,-24.19 46.95,-29.15"/>
</g>
<!-- Node3&#45;&gt;Node4 -->
<g id="edge3" class="edge">
<title>Node3&#45;&gt;Node4</title>
<path fill="none" stroke="midnightblue" d="M77.74,-112.32C94.34,-103.7 120.03,-90.36 139.25,-80.39"/>
<polygon fill="midnightblue" stroke="midnightblue" points="141.1,-83.37 148.36,-75.65 137.87,-77.16 141.1,-83.37"/>
</g>
<!-- Node3&#45;&gt;Node5 -->
<g id="edge4" class="edge">
<title>Node3&#45;&gt;Node5</title>
<path fill="none" stroke="midnightblue" d="M61.03,-112.37C61.03,-94.62 61.03,-53.67 61.03,-29.6"/>
<polygon fill="midnightblue" stroke="midnightblue" points="64.53,-29.59 61.03,-19.59 57.53,-29.59 64.53,-29.59"/>
</g>
<!-- Node8 -->
<g id="node8" class="node">
<title>Node8</title>
<g id="a_node8"><a xlink:title=" ">
<polygon fill="white" stroke="#bfbfbf" points="571.03,-112.5 571.03,-131.5 615.03,-131.5 615.03,-112.5 571.03,-112.5"/>
<text text-anchor="middle" x="593.03" y="-119.5" font-family="Helvetica,sans-Serif" font-size="10.00">cmath</text>
</a>
</g>
</g>
<!-- Node7&#45;&gt;Node8 -->
<g id="edge9" class="edge">
<title>Node7&#45;&gt;Node8</title>
<path fill="none" stroke="midnightblue" d="M598.04,-168.08C597.24,-160.93 596.1,-150.64 595.11,-141.69"/>
<polygon fill="midnightblue" stroke="midnightblue" points="598.59,-141.3 594,-131.75 591.63,-142.08 598.59,-141.3"/>
</g>
<!-- Node10 -->
<g id="node10" class="node">
<title>Node10</title>
<g id="a_node10"><a xlink:title=" ">
<polygon fill="white" stroke="#bfbfbf" points="633.53,-112.5 633.53,-131.5 692.53,-131.5 692.53,-112.5 633.53,-112.5"/>
<text text-anchor="middle" x="663.03" y="-119.5" font-family="Helvetica,sans-Serif" font-size="10.00">exception</text>
</a>
</g>
</g>
<!-- Node9&#45;&gt;Node10 -->
<g id="edge11" class="edge">
<title>Node9&#45;&gt;Node10</title>
<path fill="none" stroke="midnightblue" d="M708.11,-168.08C700.25,-160.22 688.6,-148.57 679.11,-139.08"/>
<polygon fill="midnightblue" stroke="midnightblue" points="681.33,-136.35 671.78,-131.75 676.38,-141.3 681.33,-136.35"/>
</g>
<!-- Node11 -->
<g id="node11" class="node">
<title>Node11</title>
<g id="a_node11"><a xlink:title=" ">
<polygon fill="white" stroke="#bfbfbf" points="711.03,-112.5 711.03,-131.5 757.03,-131.5 757.03,-112.5 711.03,-112.5"/>
<text text-anchor="middle" x="734.03" y="-119.5" font-family="Helvetica,sans-Serif" font-size="10.00">cstring</text>
</a>
</g>
</g>
<!-- Node9&#45;&gt;Node11 -->
<g id="edge12" class="edge">
<title>Node9&#45;&gt;Node11</title>
<path fill="none" stroke="midnightblue" d="M719.84,-168.08C722.12,-160.85 725.4,-150.41 728.24,-141.4"/>
<polygon fill="midnightblue" stroke="midnightblue" points="731.61,-142.34 731.28,-131.75 724.93,-140.24 731.61,-142.34"/>
</g>
<!-- Node12 -->
<g id="node12" class="node">
<title>Node12</title>
<g id="a_node12"><a xlink:title=" ">
<polygon fill="white" stroke="#bfbfbf" points="775.53,-112.5 775.53,-131.5 834.53,-131.5 834.53,-112.5 775.53,-112.5"/>
<text text-anchor="middle" x="805.03" y="-119.5" font-family="Helvetica,sans-Serif" font-size="10.00">stdexcept</text>
</a>
</g>
</g>
<!-- Node9&#45;&gt;Node12 -->
<g id="edge13" class="edge">
<title>Node9&#45;&gt;Node12</title>
<path fill="none" stroke="midnightblue" d="M731.17,-168.32C744.9,-159.9 765.97,-146.97 782.09,-137.07"/>
<polygon fill="midnightblue" stroke="midnightblue" points="784.23,-139.87 790.93,-131.65 780.57,-133.9 784.23,-139.87"/>
</g>
<!-- Node13&#45;&gt;Node4 -->
<g id="edge16" class="edge">
<title>Node13&#45;&gt;Node4</title>
<path fill="none" stroke="midnightblue" d="M341.46,-168.16C332.31,-154.33 312.85,-127.55 290.03,-112 261.26,-92.39 222.95,-80.26 196.36,-73.61"/>
<polygon fill="midnightblue" stroke="midnightblue" points="196.98,-70.16 186.44,-71.24 195.36,-76.97 196.98,-70.16"/>
</g>
<!-- Node13&#45;&gt;Node6 -->
<g id="edge24" class="edge">
<title>Node13&#45;&gt;Node6</title>
<path fill="none" stroke="midnightblue" d="M322.34,-168.56C295.83,-159.5 253.5,-145.03 223.66,-134.84"/>
<polygon fill="midnightblue" stroke="midnightblue" points="224.66,-131.48 214.07,-131.56 222.4,-138.1 224.66,-131.48"/>
</g>
<!-- Node14 -->
<g id="node14" class="node">
<title>Node14</title>
<g id="a_node14"><a xlink:title=" ">
<polygon fill="white" stroke="#bfbfbf" points="436.03,-112.5 436.03,-131.5 508.03,-131.5 508.03,-112.5 436.03,-112.5"/>
<text text-anchor="middle" x="472.03" y="-119.5" font-family="Helvetica,sans-Serif" font-size="10.00">robin_hood.h</text>
</a>
</g>
</g>
<!-- Node13&#45;&gt;Node14 -->
<g id="edge15" class="edge">
<title>Node13&#45;&gt;Node14</title>
<path fill="none" stroke="midnightblue" d="M366.84,-168.44C387.32,-159.6 419.51,-145.69 442.9,-135.59"/>
<polygon fill="midnightblue" stroke="midnightblue" points="444.52,-138.7 452.32,-131.52 441.75,-132.27 444.52,-138.7"/>
</g>
<!-- Node13&#45;&gt;Node15 -->
<g id="edge17" class="edge">
<title>Node13&#45;&gt;Node15</title>
<path fill="none" stroke="midnightblue" d="M332.73,-168.32C318.85,-159.9 297.54,-146.97 281.23,-137.07"/>
<polygon fill="midnightblue" stroke="midnightblue" points="282.66,-133.85 272.29,-131.65 279.03,-139.83 282.66,-133.85"/>
</g>
<!-- Node13&#45;&gt;Node16 -->
<g id="edge22" class="edge">
<title>Node13&#45;&gt;Node16</title>
<path fill="none" stroke="midnightblue" d="M359.22,-168.35C374.67,-156.24 398.14,-133.34 388.03,-112 381.9,-99.07 370.04,-88.62 358.89,-81.05"/>
<polygon fill="midnightblue" stroke="midnightblue" points="360.56,-77.97 350.23,-75.61 356.84,-83.9 360.56,-77.97"/>
</g>
<!-- Node18 -->
<g id="node18" class="node">
<title>Node18</title>
<g id="a_node18"><a xlink:title=" ">
<polygon fill="white" stroke="#bfbfbf" points="338.53,-112.5 338.53,-131.5 379.53,-131.5 379.53,-112.5 338.53,-112.5"/>
<text text-anchor="middle" x="359.03" y="-119.5" font-family="Helvetica,sans-Serif" font-size="10.00">Eigen</text>
</a>
</g>
</g>
<!-- Node13&#45;&gt;Node18 -->
<g id="edge23" class="edge">
<title>Node13&#45;&gt;Node18</title>
<path fill="none" stroke="midnightblue" d="M349.01,-168.08C350.6,-160.93 352.89,-150.64 354.88,-141.69"/>
<polygon fill="midnightblue" stroke="midnightblue" points="358.33,-142.27 357.09,-131.75 351.5,-140.75 358.33,-142.27"/>
</g>
<!-- Node15&#45;&gt;Node4 -->
<g id="edge21" class="edge">
<title>Node15&#45;&gt;Node4</title>
<path fill="none" stroke="midnightblue" d="M243.09,-112.32C228.45,-103.82 205.9,-90.73 188.79,-80.8"/>
<polygon fill="midnightblue" stroke="midnightblue" points="190.34,-77.65 179.94,-75.65 186.83,-83.7 190.34,-77.65"/>
</g>
<!-- Node15&#45;&gt;Node16 -->
<g id="edge18" class="edge">
<title>Node15&#45;&gt;Node16</title>
<path fill="none" stroke="midnightblue" d="M270.08,-112.32C281.49,-104.11 298.86,-91.6 312.47,-81.81"/>
<polygon fill="midnightblue" stroke="midnightblue" points="314.69,-84.52 320.76,-75.83 310.6,-78.84 314.69,-84.52"/>
</g>
<!-- Node16&#45;&gt;Node5 -->
<g id="edge19" class="edge">
<title>Node16&#45;&gt;Node5</title>
<path fill="none" stroke="midnightblue" d="M309.84,-60.4C260.34,-50.57 144.43,-27.56 90.1,-16.77"/>
<polygon fill="midnightblue" stroke="midnightblue" points="90.58,-13.3 80.09,-14.78 89.22,-20.16 90.58,-13.3"/>
</g>
<!-- Node17 -->
<g id="node17" class="node">
<title>Node17</title>
<g id="a_node17"><a xlink:title=" ">
<polygon fill="white" stroke="#bfbfbf" points="307.03,-0.5 307.03,-19.5 359.03,-19.5 359.03,-0.5 307.03,-0.5"/>
<text text-anchor="middle" x="333.03" y="-7.5" font-family="Helvetica,sans-Serif" font-size="10.00">ostream</text>
</a>
</g>
</g>
<!-- Node16&#45;&gt;Node17 -->
<g id="edge20" class="edge">
<title>Node16&#45;&gt;Node17</title>
<path fill="none" stroke="midnightblue" d="M333.03,-56.08C333.03,-49.01 333.03,-38.86 333.03,-29.99"/>
<polygon fill="midnightblue" stroke="midnightblue" points="336.53,-29.75 333.03,-19.75 329.53,-29.75 336.53,-29.75"/>
</g>
</g>
</svg>
