<?xml version="1.0" encoding="UTF-8" standalone="no"?>
<!DOCTYPE svg PUBLIC "-//W3C//DTD SVG 1.1//EN"
 "http://www.w3.org/Graphics/SVG/1.1/DTD/svg11.dtd">
<!-- Generated by graphviz version 7.0.2 (20221119.0110)
 -->
<!-- Title: Cpp/raytracer/src/HitStruct.h Pages: 1 -->
<svg width="1544pt" height="225pt"
 viewBox="0.00 0.00 1543.50 225.00" xmlns="http://www.w3.org/2000/svg" xmlns:xlink="http://www.w3.org/1999/xlink">
<g id="graph0" class="graph" transform="scale(1 1) rotate(0) translate(4 221)">
<title>Cpp/raytracer/src/HitStruct.h</title>
<!-- Node1 -->
<g id="node1" class="node">
<title>Node1</title>
<g id="a_node1"><a xlink:title=" ">
<polygon fill="#999999" stroke="#666666" points="920,-217 779,-217 779,-198 920,-198 920,-217"/>
<text text-anchor="middle" x="849.5" y="-205" font-family="Helvetica,sans-Serif" font-size="10.00">Cpp/raytracer/src/HitStruct.h</text>
</a>
</g>
</g>
<!-- Node2 -->
<g id="node2" class="node">
<title>Node2</title>
<g id="a_node2"><a xlink:href="a00011.html" target="_top" xlink:title=" ">
<polygon fill="white" stroke="#666666" points="630.5,-30 520.5,-30 520.5,0 630.5,0 630.5,-30"/>
<text text-anchor="start" x="528.5" y="-18" font-family="Helvetica,sans-Serif" font-size="10.00">Cpp/analysismethods</text>
<text text-anchor="middle" x="575.5" y="-7" font-family="Helvetica,sans-Serif" font-size="10.00">/src/graph_utils.cpp</text>
</a>
</g>
</g>
<!-- Node1&#45;&gt;Node2 -->
<g id="edge1" class="edge">
<title>Node1&#45;&gt;Node2</title>
<path fill="none" stroke="#63b8ff" d="M931.58,-196.74C1085.02,-176.87 1394.85,-128.31 1336.5,-66 1288.53,-14.78 798.12,-14.1 630.96,-15.38"/>
<polygon fill="#63b8ff" stroke="#63b8ff" points="931.34,-193.24 921.86,-197.98 932.23,-200.18 931.34,-193.24"/>
</g>
<!-- Node3 -->
<g id="node3" class="node">
<title>Node3</title>
<g id="a_node3"><a xlink:href="a00149.html" target="_top" xlink:title=" ">
<polygon fill="white" stroke="#666666" points="1535.5,-156.5 1383.5,-156.5 1383.5,-137.5 1535.5,-137.5 1535.5,-156.5"/>
<text text-anchor="middle" x="1459.5" y="-144.5" font-family="Helvetica,sans-Serif" font-size="10.00">Cpp/raytracer/src/HitStruct.cpp</text>
</a>
</g>
</g>
<!-- Node1&#45;&gt;Node3 -->
<g id="edge2" class="edge">
<title>Node1&#45;&gt;Node3</title>
<path fill="none" stroke="#63b8ff" d="M931.51,-201.24C1034.13,-194.25 1215.16,-180.59 1369.5,-162 1381.27,-160.58 1393.87,-158.79 1405.81,-156.97"/>
<polygon fill="#63b8ff" stroke="#63b8ff" points="931.56,-197.73 921.82,-201.89 932.03,-204.71 931.56,-197.73"/>
</g>
<!-- Node4 -->
<g id="node4" class="node">
<title>Node4</title>
<g id="a_node4"><a xlink:href="a00158.html" target="_top" xlink:title=" ">
<polygon fill="white" stroke="#666666" points="278.5,-156.5 142.5,-156.5 142.5,-137.5 278.5,-137.5 278.5,-156.5"/>
<text text-anchor="middle" x="210.5" y="-144.5" font-family="Helvetica,sans-Serif" font-size="10.00">Cpp/raytracer/src/MultiRT.h</text>
</a>
</g>
</g>
<!-- Node1&#45;&gt;Node4 -->
<g id="edge3" class="edge">
<title>Node1&#45;&gt;Node4</title>
<path fill="none" stroke="#63b8ff" d="M767.06,-198.99C670.21,-190.15 504.68,-175.04 362.5,-162 335.19,-159.49 305.11,-156.73 278.98,-154.32"/>
<polygon fill="#63b8ff" stroke="#63b8ff" points="766.74,-202.47 777.02,-199.89 767.38,-195.5 766.74,-202.47"/>
</g>
<!-- Node9 -->
<g id="node9" class="node">
<title>Node9</title>
<g id="a_node9"><a xlink:href="a00146.html" target="_top" xlink:title="Contains definitions for the EmbreeRayTracer">
<polygon fill="white" stroke="#666666" points="913,-162 786,-162 786,-132 913,-132 913,-162"/>
<text text-anchor="start" x="794" y="-150" font-family="Helvetica,sans-Serif" font-size="10.00">Cpp/raytracer/src/embree</text>
<text text-anchor="middle" x="849.5" y="-139" font-family="Helvetica,sans-Serif" font-size="10.00">_raytracer.h</text>
</a>
</g>
</g>
<!-- Node1&#45;&gt;Node9 -->
<g id="edge9" class="edge">
<title>Node1&#45;&gt;Node9</title>
<path fill="none" stroke="#63b8ff" d="M849.5,-186.51C849.5,-178.49 849.5,-169.43 849.5,-162.11"/>
<polygon fill="#63b8ff" stroke="#63b8ff" points="846,-186.35 849.5,-196.35 853,-186.35 846,-186.35"/>
</g>
<!-- Node16 -->
<g id="node16" class="node">
<title>Node16</title>
<g id="a_node16"><a xlink:href="a00173.html" target="_top" xlink:title=" ">
<polygon fill="white" stroke="#666666" points="479.5,-162 371.5,-162 371.5,-132 479.5,-132 479.5,-162"/>
<text text-anchor="start" x="379.5" y="-150" font-family="Helvetica,sans-Serif" font-size="10.00">Cpp/raytracer/src/ray</text>
<text text-anchor="middle" x="425.5" y="-139" font-family="Helvetica,sans-Serif" font-size="10.00">_data.h</text>
</a>
</g>
</g>
<!-- Node1&#45;&gt;Node16 -->
<g id="edge19" class="edge">
<title>Node1&#45;&gt;Node16</title>
<path fill="none" stroke="#63b8ff" d="M773.31,-195.99C688.77,-184.32 554.47,-165.79 479.91,-155.51"/>
<polygon fill="#63b8ff" stroke="#63b8ff" points="772.76,-199.44 783.14,-197.34 773.71,-192.51 772.76,-199.44"/>
</g>
<!-- Node5 -->
<g id="node5" class="node">
<title>Node5</title>
<g id="a_node5"><a xlink:href="a00008.html" target="_top" xlink:title="Contains declarations for all functions related to the graph generator.">
<polygon fill="white" stroke="#666666" points="119.5,-96 5.5,-96 5.5,-66 119.5,-66 119.5,-96"/>
<text text-anchor="start" x="13.5" y="-84" font-family="Helvetica,sans-Serif" font-size="10.00">Cpp/analysismethods</text>
<text text-anchor="middle" x="62.5" y="-73" font-family="Helvetica,sans-Serif" font-size="10.00">/src/graph_generator.h</text>
</a>
</g>
</g>
<!-- Node4&#45;&gt;Node5 -->
<g id="edge4" class="edge">
<title>Node4&#45;&gt;Node5</title>
<path fill="none" stroke="#63b8ff" d="M179.43,-132.57C155,-122 121.02,-107.3 95.98,-96.48"/>
<polygon fill="#63b8ff" stroke="#63b8ff" points="177.96,-135.74 188.53,-136.5 180.74,-129.32 177.96,-135.74"/>
</g>
<!-- Node8 -->
<g id="node8" class="node">
<title>Node8</title>
<g id="a_node8"><a xlink:href="a00155.html" target="_top" xlink:title=" ">
<polygon fill="white" stroke="#666666" points="283.5,-90.5 137.5,-90.5 137.5,-71.5 283.5,-71.5 283.5,-90.5"/>
<text text-anchor="middle" x="210.5" y="-78.5" font-family="Helvetica,sans-Serif" font-size="10.00">Cpp/raytracer/src/MultiRT.cpp</text>
</a>
</g>
</g>
<!-- Node4&#45;&gt;Node8 -->
<g id="edge8" class="edge">
<title>Node4&#45;&gt;Node8</title>
<path fill="none" stroke="#63b8ff" d="M210.5,-125.68C210.5,-113.94 210.5,-99.77 210.5,-90.82"/>
<polygon fill="#63b8ff" stroke="#63b8ff" points="207,-125.59 210.5,-135.59 214,-125.59 207,-125.59"/>
</g>
<!-- Node5&#45;&gt;Node2 -->
<g id="edge7" class="edge">
<title>Node5&#45;&gt;Node2</title>
<path fill="none" stroke="#63b8ff" d="M130.81,-65.77C220.58,-52.16 422.35,-31.35 520.33,-21.49"/>
<polygon fill="#63b8ff" stroke="#63b8ff" points="130.51,-62.28 121.17,-67.28 131.59,-69.19 130.51,-62.28"/>
</g>
<!-- Node6 -->
<g id="node6" class="node">
<title>Node6</title>
<g id="a_node6"><a xlink:href="a00338.html" target="_top" xlink:title=" ">
<polygon fill="white" stroke="#666666" points="415,-30 316,-30 316,0 415,0 415,-30"/>
<text text-anchor="start" x="324" y="-18" font-family="Helvetica,sans-Serif" font-size="10.00">Cinterface/analysis</text>
<text text-anchor="middle" x="365.5" y="-7" font-family="Helvetica,sans-Serif" font-size="10.00">_C.cpp</text>
</a>
</g>
</g>
<!-- Node5&#45;&gt;Node6 -->
<g id="edge5" class="edge">
<title>Node5&#45;&gt;Node6</title>
<path fill="none" stroke="#63b8ff" d="M130.92,-65.49C200.59,-50.75 270.03,-36.11 315.56,-26.52"/>
<polygon fill="#63b8ff" stroke="#63b8ff" points="130.28,-62.05 121.22,-67.54 131.73,-68.9 130.28,-62.05"/>
</g>
<!-- Node7 -->
<g id="node7" class="node">
<title>Node7</title>
<g id="a_node7"><a xlink:href="a00005.html" target="_top" xlink:title="Contains implementation for the functions in the GraphGenerator class.">
<polygon fill="white" stroke="#666666" points="125,-30 0,-30 0,0 125,0 125,-30"/>
<text text-anchor="start" x="8" y="-18" font-family="Helvetica,sans-Serif" font-size="10.00">Cpp/analysismethods</text>
<text text-anchor="middle" x="62.5" y="-7" font-family="Helvetica,sans-Serif" font-size="10.00">/src/graph_generator.cpp</text>
</a>
</g>
</g>
<!-- Node5&#45;&gt;Node7 -->
<g id="edge6" class="edge">
<title>Node5&#45;&gt;Node7</title>
<path fill="none" stroke="#63b8ff" d="M62.5,-54.39C62.5,-46.13 62.5,-37.28 62.5,-30.16"/>
<polygon fill="#63b8ff" stroke="#63b8ff" points="59,-54.28 62.5,-64.28 66,-54.28 59,-54.28"/>
</g>
<!-- Node9&#45;&gt;Node2 -->
<g id="edge14" class="edge">
<title>Node9&#45;&gt;Node2</title>
<path fill="none" stroke="#63b8ff" d="M888.38,-125.83C914.25,-109.81 940.46,-86.73 922.5,-66 885.44,-23.22 719.05,-16.21 630.83,-15.57"/>
<polygon fill="#63b8ff" stroke="#63b8ff" points="886.72,-122.75 879.88,-130.84 890.27,-128.78 886.72,-122.75"/>
</g>
<!-- Node9&#45;&gt;Node6 -->
<g id="edge10" class="edge">
<title>Node9&#45;&gt;Node6</title>
<path fill="none" stroke="#63b8ff" d="M774.27,-142.81C703.93,-138.02 596.77,-126.02 508.5,-96 461.64,-80.06 412.42,-48.83 385.69,-30.46"/>
<polygon fill="#63b8ff" stroke="#63b8ff" points="773.95,-146.3 784.16,-143.45 774.4,-139.32 773.95,-146.3"/>
</g>
<!-- Node9&#45;&gt;Node8 -->
<g id="edge17" class="edge">
<title>Node9&#45;&gt;Node8</title>
<path fill="none" stroke="#63b8ff" d="M774.51,-141.17C667.35,-133.84 464.36,-118.35 292.5,-96 281.62,-94.58 269.97,-92.78 258.97,-90.93"/>
<polygon fill="#63b8ff" stroke="#63b8ff" points="774.11,-144.65 784.32,-141.84 774.58,-137.67 774.11,-144.65"/>
</g>
<!-- Node10 -->
<g id="node10" class="node">
<title>Node10</title>
<g id="a_node10"><a xlink:href="a00362.html" target="_top" xlink:title=" ">
<polygon fill="white" stroke="#666666" points="1071,-96 970,-96 970,-66 1071,-66 1071,-96"/>
<text text-anchor="start" x="978" y="-84" font-family="Helvetica,sans-Serif" font-size="10.00">Cinterface/raytracer</text>
<text text-anchor="middle" x="1020.5" y="-73" font-family="Helvetica,sans-Serif" font-size="10.00">_C.cpp</text>
</a>
</g>
</g>
<!-- Node9&#45;&gt;Node10 -->
<g id="edge11" class="edge">
<title>Node9&#45;&gt;Node10</title>
<path fill="none" stroke="#63b8ff" d="M898.47,-127.67C924.98,-117.75 957.26,-105.67 981.96,-96.43"/>
<polygon fill="#63b8ff" stroke="#63b8ff" points="897.43,-124.32 889.29,-131.11 899.89,-130.88 897.43,-124.32"/>
</g>
<!-- Node11 -->
<g id="node11" class="node">
<title>Node11</title>
<g id="a_node11"><a xlink:href="a00374.html" target="_top" xlink:title=" ">
<polygon fill="white" stroke="#666666" points="1211.5,-96 1089.5,-96 1089.5,-66 1211.5,-66 1211.5,-96"/>
<text text-anchor="start" x="1097.5" y="-84" font-family="Helvetica,sans-Serif" font-size="10.00">Cinterface/view_analysis</text>
<text text-anchor="middle" x="1150.5" y="-73" font-family="Helvetica,sans-Serif" font-size="10.00">_C.cpp</text>
</a>
</g>
</g>
<!-- Node9&#45;&gt;Node11 -->
<g id="edge12" class="edge">
<title>Node9&#45;&gt;Node11</title>
<path fill="none" stroke="#63b8ff" d="M924.57,-130.04C975.31,-119.25 1041.47,-105.18 1089.07,-95.06"/>
<polygon fill="#63b8ff" stroke="#63b8ff" points="923.87,-126.61 914.81,-132.11 925.32,-133.46 923.87,-126.61"/>
</g>
<!-- Node12 -->
<g id="node12" class="node">
<title>Node12</title>
<g id="a_node12"><a xlink:href="a00380.html" target="_top" xlink:title=" ">
<polygon fill="white" stroke="#666666" points="1327,-96 1230,-96 1230,-66 1327,-66 1327,-96"/>
<text text-anchor="start" x="1238" y="-84" font-family="Helvetica,sans-Serif" font-size="10.00">Cinterface/visibility</text>
<text text-anchor="middle" x="1278.5" y="-73" font-family="Helvetica,sans-Serif" font-size="10.00">_graph_C.cpp</text>
</a>
</g>
</g>
<!-- Node9&#45;&gt;Node12 -->
<g id="edge13" class="edge">
<title>Node9&#45;&gt;Node12</title>
<path fill="none" stroke="#63b8ff" d="M924.73,-138.16C999.94,-129.78 1118.73,-115.09 1220.5,-96 1223.45,-95.45 1226.48,-94.84 1229.53,-94.2"/>
<polygon fill="#63b8ff" stroke="#63b8ff" points="924.56,-134.66 915,-139.23 925.33,-141.62 924.56,-134.66"/>
</g>
<!-- Node13 -->
<g id="node13" class="node">
<title>Node13</title>
<g id="a_node13"><a xlink:href="a00020.html" target="_top" xlink:title="Contains implementation for the ViewAnalysis namespace.">
<polygon fill="white" stroke="#666666" points="631.5,-96 517.5,-96 517.5,-66 631.5,-66 631.5,-96"/>
<text text-anchor="start" x="525.5" y="-84" font-family="Helvetica,sans-Serif" font-size="10.00">Cpp/analysismethods</text>
<text text-anchor="middle" x="574.5" y="-73" font-family="Helvetica,sans-Serif" font-size="10.00">/src/view_analysis.cpp</text>
</a>
</g>
</g>
<!-- Node9&#45;&gt;Node13 -->
<g id="edge15" class="edge">
<title>Node9&#45;&gt;Node13</title>
<path fill="none" stroke="#63b8ff" d="M776.48,-129.01C731.13,-118.45 673.67,-105.08 631.65,-95.3"/>
<polygon fill="#63b8ff" stroke="#63b8ff" points="775.43,-132.36 785.97,-131.21 777.02,-125.54 775.43,-132.36"/>
</g>
<!-- Node14 -->
<g id="node14" class="node">
<title>Node14</title>
<g id="a_node14"><a xlink:href="a00026.html" target="_top" xlink:title="Contains implementation for the VisibilityGraph class.">
<polygon fill="white" stroke="#666666" points="767.5,-96 649.5,-96 649.5,-66 767.5,-66 767.5,-96"/>
<text text-anchor="start" x="657.5" y="-84" font-family="Helvetica,sans-Serif" font-size="10.00">Cpp/analysismethods</text>
<text text-anchor="middle" x="708.5" y="-73" font-family="Helvetica,sans-Serif" font-size="10.00">/src/visibility_graph.cpp</text>
</a>
</g>
</g>
<!-- Node9&#45;&gt;Node14 -->
<g id="edge16" class="edge">
<title>Node9&#45;&gt;Node14</title>
<path fill="none" stroke="#63b8ff" d="M807.62,-126.99C785.97,-117.16 759.97,-105.36 740.04,-96.31"/>
<polygon fill="#63b8ff" stroke="#63b8ff" points="805.93,-130.07 816.48,-131.01 808.82,-123.69 805.93,-130.07"/>
</g>
<!-- Node15 -->
<g id="node15" class="node">
<title>Node15</title>
<g id="a_node15"><a xlink:href="a00143.html" target="_top" xlink:title="Contains implementation for the EmbreeRayTracer">
<polygon fill="white" stroke="#666666" points="913,-96 786,-96 786,-66 913,-66 913,-96"/>
<text text-anchor="start" x="794" y="-84" font-family="Helvetica,sans-Serif" font-size="10.00">Cpp/raytracer/src/embree</text>
<text text-anchor="middle" x="849.5" y="-73" font-family="Helvetica,sans-Serif" font-size="10.00">_raytracer.cpp</text>
</a>
</g>
</g>
<!-- Node9&#45;&gt;Node15 -->
<g id="edge18" class="edge">
<title>Node9&#45;&gt;Node15</title>
<path fill="none" stroke="#63b8ff" d="M849.5,-120.39C849.5,-112.13 849.5,-103.28 849.5,-96.16"/>
<polygon fill="#63b8ff" stroke="#63b8ff" points="846,-120.28 849.5,-130.28 853,-120.28 846,-120.28"/>
</g>
<!-- Node16&#45;&gt;Node2 -->
<g id="edge20" class="edge">
<title>Node16&#45;&gt;Node2</title>
<path fill="none" stroke="#63b8ff" d="M447.26,-123.55C463.6,-107.07 486.81,-84.42 508.5,-66 523.43,-53.32 541.25,-40.11 554.75,-30.45"/>
<polygon fill="#63b8ff" stroke="#63b8ff" points="444.96,-120.9 440.44,-130.48 449.95,-125.81 444.96,-120.9"/>
</g>
<!-- Node16&#45;&gt;Node8 -->
<g id="edge21" class="edge">
<title>Node16&#45;&gt;Node8</title>
<path fill="none" stroke="#63b8ff" d="M366.09,-128.32C325.35,-116.19 273,-100.61 240.61,-90.96"/>
<polygon fill="#63b8ff" stroke="#63b8ff" points="364.95,-131.63 375.53,-131.13 366.95,-124.92 364.95,-131.63"/>
</g>
<!-- Node17 -->
<g id="node17" class="node">
<title>Node17</title>
<g id="a_node17"><a xlink:href="a00164.html" target="_top" xlink:title=" ">
<polygon fill="white" stroke="#666666" points="423.5,-96 301.5,-96 301.5,-66 423.5,-66 423.5,-96"/>
<text text-anchor="start" x="309.5" y="-84" font-family="Helvetica,sans-Serif" font-size="10.00">Cpp/raytracer/src/nanort</text>
<text text-anchor="middle" x="362.5" y="-73" font-family="Helvetica,sans-Serif" font-size="10.00">_raytracer.cpp</text>
</a>
</g>
</g>
<!-- Node16&#45;&gt;Node17 -->
<g id="edge22" class="edge">
<title>Node16&#45;&gt;Node17</title>
<path fill="none" stroke="#63b8ff" d="M403.65,-123.81C394.63,-114.64 384.43,-104.28 376.44,-96.16"/>
<polygon fill="#63b8ff" stroke="#63b8ff" points="400.95,-126.05 410.46,-130.72 405.94,-121.14 400.95,-126.05"/>
</g>
</g>
</svg>
