<?xml version="1.0" encoding="UTF-8" standalone="no"?>
<!DOCTYPE svg PUBLIC "-//W3C//DTD SVG 1.1//EN"
 "http://www.w3.org/Graphics/SVG/1.1/DTD/svg11.dtd">
<!-- Generated by graphviz version 2.43.0 (0)
 -->
<!-- Title: Cpp/spatialstructures/src/Constants.cpp Pages: 1 -->
<svg width="332pt" height="151pt"
 viewBox="0.00 0.00 332.00 151.00" xmlns="http://www.w3.org/2000/svg" xmlns:xlink="http://www.w3.org/1999/xlink">
<g id="graph0" class="graph" transform="scale(1 1) rotate(0) translate(4 147)">
<title>Cpp/spatialstructures/src/Constants.cpp</title>
<polygon fill="white" stroke="transparent" points="-4,4 -4,-147 328,-147 328,4 -4,4"/>
<!-- Node1 -->
<g id="node1" class="node">
<title>Node1</title>
<g id="a_node1"><a xlink:title="Contains implementation for the HF::SpatialStructures namespace.">
<polygon fill="#bfbfbf" stroke="black" points="98,-112.5 98,-142.5 218,-142.5 218,-112.5 98,-112.5"/>
<text text-anchor="start" x="106" y="-130.5" font-family="Helvetica,sans-Serif" font-size="10.00">Cpp/spatialstructures</text>
<text text-anchor="middle" x="158" y="-119.5" font-family="Helvetica,sans-Serif" font-size="10.00">/src/Constants.cpp</text>
</a>
</g>
</g>
<!-- Node2 -->
<g id="node2" class="node">
<title>Node2</title>
<g id="a_node2"><a xlink:href="a00185.html" target="_top" xlink:title="Contains definitions for the HF::SpatialStructures namespace.">
<polygon fill="white" stroke="black" points="0,-56.5 0,-75.5 74,-75.5 74,-56.5 0,-56.5"/>
<text text-anchor="middle" x="37" y="-63.5" font-family="Helvetica,sans-Serif" font-size="10.00">Constants.h</text>
</a>
</g>
</g>
<!-- Node1&#45;&gt;Node2 -->
<g id="edge1" class="edge">
<title>Node1&#45;&gt;Node2</title>
<path fill="none" stroke="midnightblue" d="M129.32,-112.4C109.48,-102.64 83.24,-89.74 63.81,-80.18"/>
<polygon fill="midnightblue" stroke="midnightblue" points="65.12,-76.93 54.61,-75.66 62.04,-83.21 65.12,-76.93"/>
</g>
<!-- Node3 -->
<g id="node3" class="node">
<title>Node3</title>
<g id="a_node3"><a xlink:title=" ">
<polygon fill="white" stroke="#bfbfbf" points="45.5,-0.5 45.5,-19.5 92.5,-19.5 92.5,-0.5 45.5,-0.5"/>
<text text-anchor="middle" x="69" y="-7.5" font-family="Helvetica,sans-Serif" font-size="10.00">cmath</text>
</a>
</g>
</g>
<!-- Node1&#45;&gt;Node3 -->
<g id="edge5" class="edge">
<title>Node1&#45;&gt;Node3</title>
<path fill="none" stroke="midnightblue" d="M147.09,-112.34C130.61,-90.96 99.46,-50.53 81.89,-27.73"/>
<polygon fill="midnightblue" stroke="midnightblue" points="84.56,-25.45 75.68,-19.67 79.01,-29.73 84.56,-25.45"/>
</g>
<!-- Node4 -->
<g id="node4" class="node">
<title>Node4</title>
<g id="a_node4"><a xlink:title=" ">
<polygon fill="white" stroke="#bfbfbf" points="130,-56.5 130,-75.5 186,-75.5 186,-56.5 130,-56.5"/>
<text text-anchor="middle" x="158" y="-63.5" font-family="Helvetica,sans-Serif" font-size="10.00">numeric</text>
</a>
</g>
</g>
<!-- Node1&#45;&gt;Node4 -->
<g id="edge3" class="edge">
<title>Node1&#45;&gt;Node4</title>
<path fill="none" stroke="midnightblue" d="M158,-112.4C158,-104.47 158,-94.46 158,-85.86"/>
<polygon fill="midnightblue" stroke="midnightblue" points="161.5,-85.66 158,-75.66 154.5,-85.66 161.5,-85.66"/>
</g>
<!-- Node5 -->
<g id="node5" class="node">
<title>Node5</title>
<g id="a_node5"><a xlink:title=" ">
<polygon fill="white" stroke="#bfbfbf" points="204.5,-56.5 204.5,-75.5 253.5,-75.5 253.5,-56.5 204.5,-56.5"/>
<text text-anchor="middle" x="229" y="-63.5" font-family="Helvetica,sans-Serif" font-size="10.00">cstdlib</text>
</a>
</g>
</g>
<!-- Node1&#45;&gt;Node5 -->
<g id="edge4" class="edge">
<title>Node1&#45;&gt;Node5</title>
<path fill="none" stroke="midnightblue" d="M174.83,-112.4C185.67,-103.31 199.78,-91.49 210.87,-82.19"/>
<polygon fill="midnightblue" stroke="midnightblue" points="213.25,-84.76 218.67,-75.66 208.76,-79.4 213.25,-84.76"/>
</g>
<!-- Node6 -->
<g id="node6" class="node">
<title>Node6</title>
<g id="a_node6"><a xlink:title=" ">
<polygon fill="white" stroke="#bfbfbf" points="272,-56.5 272,-75.5 324,-75.5 324,-56.5 272,-56.5"/>
<text text-anchor="middle" x="298" y="-63.5" font-family="Helvetica,sans-Serif" font-size="10.00">cassert</text>
</a>
</g>
</g>
<!-- Node1&#45;&gt;Node6 -->
<g id="edge6" class="edge">
<title>Node1&#45;&gt;Node6</title>
<path fill="none" stroke="midnightblue" d="M191.18,-112.4C214.56,-102.46 245.61,-89.26 268.21,-79.66"/>
<polygon fill="midnightblue" stroke="midnightblue" points="269.79,-82.79 277.63,-75.66 267.06,-76.35 269.79,-82.79"/>
</g>
<!-- Node2&#45;&gt;Node3 -->
<g id="edge2" class="edge">
<title>Node2&#45;&gt;Node3</title>
<path fill="none" stroke="midnightblue" d="M42.28,-56.08C46.71,-48.61 53.16,-37.72 58.62,-28.52"/>
<polygon fill="midnightblue" stroke="midnightblue" points="61.73,-30.14 63.81,-19.75 55.71,-26.57 61.73,-30.14"/>
</g>
</g>
</svg>
