<?xml version="1.0" encoding="UTF-8" standalone="no"?>
<!DOCTYPE svg PUBLIC "-//W3C//DTD SVG 1.1//EN"
 "http://www.w3.org/Graphics/SVG/1.1/DTD/svg11.dtd">
<!-- Generated by graphviz version 5.0.0 (20220707.1540)
 -->
<!-- Title: Cpp/pathfinding/src/path_finder.h Pages: 1 -->
<svg width="319pt" height="95pt"
 viewBox="0.00 0.00 319.00 95.00" xmlns="http://www.w3.org/2000/svg" xmlns:xlink="http://www.w3.org/1999/xlink">
<g id="graph0" class="graph" transform="scale(1 1) rotate(0) translate(4 91)">
<title>Cpp/pathfinding/src/path_finder.h</title>
<polygon fill="white" stroke="transparent" points="-4,4 -4,-91 315,-91 315,4 -4,4"/>
<!-- Node1 -->
<g id="node1" class="node">
<title>Node1</title>
<g id="a_node1"><a xlink:title="Contains definition for the BoostGraphDeleter structure.">
<polygon fill="#bfbfbf" stroke="black" points="101,-56.5 101,-86.5 201,-86.5 201,-56.5 101,-56.5"/>
<text text-anchor="start" x="109" y="-74.5" font-family="Helvetica,sans-Serif" font-size="10.00">Cpp/pathfinding/src</text>
<text text-anchor="middle" x="151" y="-63.5" font-family="Helvetica,sans-Serif" font-size="10.00">/path_finder.h</text>
</a>
</g>
</g>
<!-- Node2 -->
<g id="node2" class="node">
<title>Node2</title>
<g id="a_node2"><a xlink:title=" ">
<polygon fill="white" stroke="#bfbfbf" points="0,-0.5 0,-19.5 52,-19.5 52,-0.5 0,-0.5"/>
<text text-anchor="middle" x="26" y="-7.5" font-family="Helvetica,sans-Serif" font-size="10.00">memory</text>
</a>
</g>
</g>
<!-- Node1&#45;&gt;Node2 -->
<g id="edge1" class="edge">
<title>Node1&#45;&gt;Node2</title>
<path fill="none" stroke="midnightblue" d="M121.38,-56.4C100.78,-46.59 73.52,-33.62 53.42,-24.05"/>
<polygon fill="midnightblue" stroke="midnightblue" points="54.72,-20.8 44.19,-19.66 51.71,-27.12 54.72,-20.8"/>
</g>
<!-- Node3 -->
<g id="node3" class="node">
<title>Node3</title>
<g id="a_node3"><a xlink:title=" ">
<polygon fill="white" stroke="#bfbfbf" points="70,-0.5 70,-19.5 112,-19.5 112,-0.5 70,-0.5"/>
<text text-anchor="middle" x="91" y="-7.5" font-family="Helvetica,sans-Serif" font-size="10.00">vector</text>
</a>
</g>
</g>
<!-- Node1&#45;&gt;Node3 -->
<g id="edge2" class="edge">
<title>Node1&#45;&gt;Node3</title>
<path fill="none" stroke="midnightblue" d="M136.78,-56.4C127.79,-47.49 116.16,-35.95 106.87,-26.74"/>
<polygon fill="midnightblue" stroke="midnightblue" points="109.3,-24.21 99.73,-19.66 104.37,-29.18 109.3,-24.21"/>
</g>
<!-- Node4 -->
<g id="node4" class="node">
<title>Node4</title>
<g id="a_node4"><a xlink:title=" ">
<polygon fill="white" stroke="#bfbfbf" points="130.5,-0.5 130.5,-19.5 171.5,-19.5 171.5,-0.5 130.5,-0.5"/>
<text text-anchor="middle" x="151" y="-7.5" font-family="Helvetica,sans-Serif" font-size="10.00">string</text>
</a>
</g>
</g>
<!-- Node1&#45;&gt;Node4 -->
<g id="edge3" class="edge">
<title>Node1&#45;&gt;Node4</title>
<path fill="none" stroke="midnightblue" d="M151,-56.4C151,-48.47 151,-38.46 151,-29.86"/>
<polygon fill="midnightblue" stroke="midnightblue" points="154.5,-29.66 151,-19.66 147.5,-29.66 154.5,-29.66"/>
</g>
<!-- Node5 -->
<g id="node5" class="node">
<title>Node5</title>
<g id="a_node5"><a xlink:title=" ">
<polygon fill="white" stroke="#bfbfbf" points="189.5,-0.5 189.5,-19.5 238.5,-19.5 238.5,-0.5 189.5,-0.5"/>
<text text-anchor="middle" x="214" y="-7.5" font-family="Helvetica,sans-Serif" font-size="10.00">cassert</text>
</a>
</g>
</g>
<!-- Node1&#45;&gt;Node5 -->
<g id="edge4" class="edge">
<title>Node1&#45;&gt;Node5</title>
<path fill="none" stroke="midnightblue" d="M165.93,-56.4C175.37,-47.49 187.58,-35.95 197.33,-26.74"/>
<polygon fill="midnightblue" stroke="midnightblue" points="199.97,-29.07 204.83,-19.66 195.16,-23.98 199.97,-29.07"/>
</g>
<!-- Node6 -->
<g id="node6" class="node">
<title>Node6</title>
<g id="a_node6"><a xlink:title=" ">
<polygon fill="white" stroke="#bfbfbf" points="257,-0.5 257,-19.5 311,-19.5 311,-0.5 257,-0.5"/>
<text text-anchor="middle" x="284" y="-7.5" font-family="Helvetica,sans-Serif" font-size="10.00">iostream</text>
</a>
</g>
</g>
<!-- Node1&#45;&gt;Node6 -->
<g id="edge5" class="edge">
<title>Node1&#45;&gt;Node6</title>
<path fill="none" stroke="midnightblue" d="M182.52,-56.4C204.64,-46.51 233.97,-33.38 255.41,-23.79"/>
<polygon fill="midnightblue" stroke="midnightblue" points="256.95,-26.94 264.65,-19.66 254.09,-20.55 256.95,-26.94"/>
</g>
</g>
</svg>
