<?xml version="1.0" encoding="UTF-8" standalone="no"?>
<!DOCTYPE svg PUBLIC "-//W3C//DTD SVG 1.1//EN"
 "http://www.w3.org/Graphics/SVG/1.1/DTD/svg11.dtd">
<!-- Generated by graphviz version 7.0.3 (20221126.0506)
 -->
<!-- Title: Cpp/objloader/src/objloader.h Pages: 1 -->
<svg width="208pt" height="137pt"
 viewBox="0.00 0.00 208.00 137.00" xmlns="http://www.w3.org/2000/svg" xmlns:xlink="http://www.w3.org/1999/xlink">
<g id="graph0" class="graph" transform="scale(1 1) rotate(0) translate(4 133)">
<title>Cpp/objloader/src/objloader.h</title>
<!-- Node1 -->
<g id="node1" class="node">
<title>Node1</title>
<g id="a_node1"><a xlink:title="Contains definitions for the Geometry namespace.">
<polygon fill="#999999" stroke="#666666" points="152.5,-129 9.5,-129 9.5,-110 152.5,-110 152.5,-129"/>
<text text-anchor="middle" x="81" y="-117" font-family="Helvetica,sans-Serif" font-size="10.00">Cpp/objloader/src/objloader.h</text>
</a>
</g>
</g>
<!-- Node2 -->
<g id="node2" class="node">
<title>Node2</title>
<g id="a_node2"><a xlink:title=" ">
<polygon fill="#e0e0e0" stroke="#999999" points="42,-74 0,-74 0,-55 42,-55 42,-74"/>
<text text-anchor="middle" x="21" y="-62" font-family="Helvetica,sans-Serif" font-size="10.00">vector</text>
</a>
</g>
</g>
<!-- Node1&#45;&gt;Node2 -->
<g id="edge1" class="edge">
<title>Node1&#45;&gt;Node2</title>
<path fill="none" stroke="#63b8ff" d="M70.82,-109.51C62.24,-101.93 49.73,-90.88 39.4,-81.75"/>
<polygon fill="#63b8ff" stroke="#63b8ff" points="41.97,-79.36 32.16,-75.36 37.34,-84.6 41.97,-79.36"/>
</g>
<!-- Node3 -->
<g id="node3" class="node">
<title>Node3</title>
<g id="a_node3"><a xlink:title=" ">
<polygon fill="#e0e0e0" stroke="#999999" points="101.5,-74 60.5,-74 60.5,-55 101.5,-55 101.5,-74"/>
<text text-anchor="middle" x="81" y="-62" font-family="Helvetica,sans-Serif" font-size="10.00">string</text>
</a>
</g>
</g>
<!-- Node1&#45;&gt;Node3 -->
<g id="edge2" class="edge">
<title>Node1&#45;&gt;Node3</title>
<path fill="none" stroke="#63b8ff" d="M81,-109.75C81,-103.27 81,-94.16 81,-85.9"/>
<polygon fill="#63b8ff" stroke="#63b8ff" points="84.5,-85.96 81,-75.96 77.5,-85.96 84.5,-85.96"/>
</g>
<!-- Node4 -->
<g id="node4" class="node">
<title>Node4</title>
<g id="a_node4"><a xlink:href="a00119.html" target="_top" xlink:title="Contains definitions for the MeshInfo class.">
<polygon fill="white" stroke="#666666" points="184,-74 120,-74 120,-55 184,-55 184,-74"/>
<text text-anchor="middle" x="152" y="-62" font-family="Helvetica,sans-Serif" font-size="10.00">meshinfo.h</text>
</a>
</g>
</g>
<!-- Node1&#45;&gt;Node4 -->
<g id="edge3" class="edge">
<title>Node1&#45;&gt;Node4</title>
<path fill="none" stroke="#63b8ff" d="M93.04,-109.51C103.41,-101.77 118.6,-90.43 130.97,-81.2"/>
<polygon fill="#63b8ff" stroke="#63b8ff" points="133,-84.05 138.92,-75.26 128.81,-78.44 133,-84.05"/>
</g>
<!-- Node5 -->
<g id="node5" class="node">
<title>Node5</title>
<g id="a_node5"><a xlink:title=" ">
<polygon fill="#e0e0e0" stroke="#999999" points="144,-19 100,-19 100,0 144,0 144,-19"/>
<text text-anchor="middle" x="122" y="-7" font-family="Helvetica,sans-Serif" font-size="10.00">Dense</text>
</a>
</g>
</g>
<!-- Node4&#45;&gt;Node5 -->
<g id="edge4" class="edge">
<title>Node4&#45;&gt;Node5</title>
<path fill="none" stroke="#63b8ff" d="M147.05,-54.75C143.16,-47.88 137.61,-38.08 132.72,-29.45"/>
<polygon fill="#63b8ff" stroke="#63b8ff" points="135.78,-27.74 127.81,-20.76 129.69,-31.19 135.78,-27.74"/>
</g>
<!-- Node6 -->
<g id="node6" class="node">
<title>Node6</title>
<g id="a_node6"><a xlink:title=" ">
<polygon fill="#e0e0e0" stroke="#999999" points="200,-19 162,-19 162,0 200,0 200,-19"/>
<text text-anchor="middle" x="181" y="-7" font-family="Helvetica,sans-Serif" font-size="10.00">array</text>
</a>
</g>
</g>
<!-- Node4&#45;&gt;Node6 -->
<g id="edge5" class="edge">
<title>Node4&#45;&gt;Node6</title>
<path fill="none" stroke="#63b8ff" d="M156.79,-54.75C160.54,-47.88 165.91,-38.08 170.63,-29.45"/>
<polygon fill="#63b8ff" stroke="#63b8ff" points="173.65,-31.22 175.38,-20.77 167.51,-27.86 173.65,-31.22"/>
</g>
</g>
</svg>
