<?xml version="1.0" encoding="UTF-8" standalone="no"?>
<!DOCTYPE svg PUBLIC "-//W3C//DTD SVG 1.1//EN"
 "http://www.w3.org/Graphics/SVG/1.1/DTD/svg11.dtd">
<!-- Generated by graphviz version 8.0.5 (20230430.1635)
 -->
<!-- Title: Cpp/objloader/src/objloader.cpp Pages: 1 -->
<svg width="680pt" height="196pt"
 viewBox="0.00 0.00 679.88 196.00" xmlns="http://www.w3.org/2000/svg" xmlns:xlink="http://www.w3.org/1999/xlink">
<g id="graph0" class="graph" transform="scale(1 1) rotate(0) translate(4 192)">
<title>Cpp/objloader/src/objloader.cpp</title>
<!-- Node1 -->
<g id="node1" class="node">
<title>Node1</title>
<g id="a_node1"><a xlink:title="Contains implementation for the Geometry namespace.">
<polygon fill="#999999" stroke="#666666" points="359,-188 206.5,-188 206.5,-168 359,-168 359,-188"/>
<text text-anchor="middle" x="282.75" y="-174.5" font-family="Helvetica,sans-Serif" font-size="10.00">Cpp/objloader/src/objloader.cpp</text>
</a>
</g>
</g>
<!-- Node2 -->
<g id="node2" class="node">
<title>Node2</title>
<g id="a_node2"><a xlink:href="a00191.html" target="_top" xlink:title="Contains definitions for the Geometry namespace.">
<polygon fill="white" stroke="#666666" points="130.38,-132 67.13,-132 67.13,-112 130.38,-112 130.38,-132"/>
<text text-anchor="middle" x="98.75" y="-118.5" font-family="Helvetica,sans-Serif" font-size="10.00">objloader.h</text>
</a>
</g>
</g>
<!-- Node1&#45;&gt;Node2 -->
<g id="edge1" class="edge">
<title>Node1&#45;&gt;Node2</title>
<path fill="none" stroke="#63b8ff" d="M250.7,-167.59C220.32,-158.68 174.49,-145.23 141.11,-135.43"/>
<polygon fill="#63b8ff" stroke="#63b8ff" points="142.32,-131.85 131.74,-132.39 140.35,-138.56 142.32,-131.85"/>
</g>
<!-- Node3 -->
<g id="node3" class="node">
<title>Node3</title>
<g id="a_node3"><a xlink:title=" ">
<polygon fill="#e0e0e0" stroke="#999999" points="41.5,-76 0,-76 0,-56 41.5,-56 41.5,-76"/>
<text text-anchor="middle" x="20.75" y="-62.5" font-family="Helvetica,sans-Serif" font-size="10.00">vector</text>
</a>
</g>
</g>
<!-- Node1&#45;&gt;Node3 -->
<g id="edge16" class="edge">
<title>Node1&#45;&gt;Node3</title>
<path fill="none" stroke="#63b8ff" d="M206.02,-168.53C150.48,-161.14 81.21,-148.94 57.75,-132 42.31,-120.85 32.42,-101.15 26.79,-86.35"/>
<polygon fill="#63b8ff" stroke="#63b8ff" points="29.86,-85.52 23.29,-77.21 23.24,-87.81 29.86,-85.52"/>
</g>
<!-- Node5 -->
<g id="node5" class="node">
<title>Node5</title>
<g id="a_node5"><a xlink:href="a00185.html" target="_top" xlink:title="Contains definitions for the MeshInfo class.">
<polygon fill="white" stroke="#666666" points="181.38,-76 118.13,-76 118.13,-56 181.38,-56 181.38,-76"/>
<text text-anchor="middle" x="149.75" y="-62.5" font-family="Helvetica,sans-Serif" font-size="10.00">meshinfo.h</text>
</a>
</g>
</g>
<!-- Node1&#45;&gt;Node5 -->
<g id="edge8" class="edge">
<title>Node1&#45;&gt;Node5</title>
<path fill="none" stroke="#63b8ff" d="M257.19,-167.61C238.74,-159.96 213.97,-147.85 195.75,-132 180.64,-118.85 167.91,-99.78 159.69,-85.69"/>
<polygon fill="#63b8ff" stroke="#63b8ff" points="162.47,-84.49 154.54,-77.47 156.36,-87.9 162.47,-84.49"/>
</g>
<!-- Node6 -->
<g id="node6" class="node">
<title>Node6</title>
<g id="a_node6"><a xlink:title=" ">
<polygon fill="#e0e0e0" stroke="#999999" points="230.63,-20 186.88,-20 186.88,0 230.63,0 230.63,-20"/>
<text text-anchor="middle" x="208.75" y="-6.5" font-family="Helvetica,sans-Serif" font-size="10.00">Dense</text>
</a>
</g>
</g>
<!-- Node1&#45;&gt;Node6 -->
<g id="edge7" class="edge">
<title>Node1&#45;&gt;Node6</title>
<path fill="none" stroke="#63b8ff" d="M266.06,-167.62C253.7,-159.75 237.54,-147.36 228.75,-132 210.48,-100.08 207.76,-56.15 207.92,-30.95"/>
<polygon fill="#63b8ff" stroke="#63b8ff" points="211.44,-31.29 208.18,-21.21 204.44,-31.13 211.44,-31.29"/>
</g>
<!-- Node8 -->
<g id="node8" class="node">
<title>Node8</title>
<g id="a_node8"><a xlink:title=" ">
<polygon fill="#e0e0e0" stroke="#999999" points="327.5,-132 238,-132 238,-112 327.5,-112 327.5,-132"/>
<text text-anchor="middle" x="282.75" y="-118.5" font-family="Helvetica,sans-Serif" font-size="10.00">tiny_obj_loader.h</text>
</a>
</g>
</g>
<!-- Node1&#45;&gt;Node8 -->
<g id="edge9" class="edge">
<title>Node1&#45;&gt;Node8</title>
<path fill="none" stroke="#63b8ff" d="M282.75,-167.59C282.75,-160.86 282.75,-151.53 282.75,-143.15"/>
<polygon fill="#63b8ff" stroke="#63b8ff" points="286.25,-143.3 282.75,-133.3 279.25,-143.3 286.25,-143.3"/>
</g>
<!-- Node9 -->
<g id="node9" class="node">
<title>Node9</title>
<g id="a_node9"><a xlink:title=" ">
<polygon fill="#e0e0e0" stroke="#999999" points="417.5,-132 346,-132 346,-112 417.5,-112 417.5,-132"/>
<text text-anchor="middle" x="381.75" y="-118.5" font-family="Helvetica,sans-Serif" font-size="10.00">robin_hood.h</text>
</a>
</g>
</g>
<!-- Node1&#45;&gt;Node9 -->
<g id="edge10" class="edge">
<title>Node1&#45;&gt;Node9</title>
<path fill="none" stroke="#63b8ff" d="M299.99,-167.59C315.09,-159.36 337.28,-147.26 354.73,-137.74"/>
<polygon fill="#63b8ff" stroke="#63b8ff" points="356.27,-140.34 363.37,-132.48 352.92,-134.2 356.27,-140.34"/>
</g>
<!-- Node10 -->
<g id="node10" class="node">
<title>Node10</title>
<g id="a_node10"><a xlink:href="a00176.html" target="_top" xlink:title="Contains definitions for the Exceptions namespace.">
<polygon fill="white" stroke="#666666" points="521.63,-132 435.88,-132 435.88,-112 521.63,-112 521.63,-132"/>
<text text-anchor="middle" x="478.75" y="-118.5" font-family="Helvetica,sans-Serif" font-size="10.00">HFExceptions.h</text>
</a>
</g>
</g>
<!-- Node1&#45;&gt;Node10 -->
<g id="edge11" class="edge">
<title>Node1&#45;&gt;Node10</title>
<path fill="none" stroke="#63b8ff" d="M316.89,-167.59C349.29,-158.67 398.19,-145.19 433.76,-135.39"/>
<polygon fill="#63b8ff" stroke="#63b8ff" points="434.63,-138.51 443.34,-132.48 432.77,-131.76 434.63,-138.51"/>
</g>
<!-- Node14 -->
<g id="node14" class="node">
<title>Node14</title>
<g id="a_node14"><a xlink:title=" ">
<polygon fill="#e0e0e0" stroke="#999999" points="593.5,-132 540,-132 540,-112 593.5,-112 593.5,-132"/>
<text text-anchor="middle" x="566.75" y="-118.5" font-family="Helvetica,sans-Serif" font-size="10.00">iostream</text>
</a>
</g>
</g>
<!-- Node1&#45;&gt;Node14 -->
<g id="edge15" class="edge">
<title>Node1&#45;&gt;Node14</title>
<path fill="none" stroke="#63b8ff" d="M341.09,-167.52C389.12,-159.47 459.21,-147.14 529.33,-132.2"/>
<polygon fill="#63b8ff" stroke="#63b8ff" points="529.63,-135.5 538.67,-129.97 528.16,-128.65 529.63,-135.5"/>
</g>
<!-- Node15 -->
<g id="node15" class="node">
<title>Node15</title>
<g id="a_node15"><a xlink:title=" ">
<polygon fill="#e0e0e0" stroke="#999999" points="671.88,-132 611.63,-132 611.63,-112 671.88,-112 671.88,-132"/>
<text text-anchor="middle" x="641.75" y="-118.5" font-family="Helvetica,sans-Serif" font-size="10.00">filesystem</text>
</a>
</g>
</g>
<!-- Node1&#45;&gt;Node15 -->
<g id="edge17" class="edge">
<title>Node1&#45;&gt;Node15</title>
<path fill="none" stroke="#63b8ff" d="M359.35,-168.13C421.82,-160.46 512.58,-148.33 600.45,-132.3"/>
<polygon fill="#63b8ff" stroke="#63b8ff" points="600.95,-135.58 610.15,-130.33 599.68,-128.7 600.95,-135.58"/>
</g>
<!-- Node2&#45;&gt;Node3 -->
<g id="edge2" class="edge">
<title>Node2&#45;&gt;Node3</title>
<path fill="none" stroke="#63b8ff" d="M85.16,-111.59C73.6,-103.59 56.76,-91.93 43.2,-82.54"/>
<polygon fill="#63b8ff" stroke="#63b8ff" points="45.66,-79.29 35.44,-76.48 41.67,-85.05 45.66,-79.29"/>
</g>
<!-- Node4 -->
<g id="node4" class="node">
<title>Node4</title>
<g id="a_node4"><a xlink:title=" ">
<polygon fill="#e0e0e0" stroke="#999999" points="99.75,-76 59.75,-76 59.75,-56 99.75,-56 99.75,-76"/>
<text text-anchor="middle" x="79.75" y="-62.5" font-family="Helvetica,sans-Serif" font-size="10.00">string</text>
</a>
</g>
</g>
<!-- Node2&#45;&gt;Node4 -->
<g id="edge3" class="edge">
<title>Node2&#45;&gt;Node4</title>
<path fill="none" stroke="#63b8ff" d="M95.44,-111.59C93.02,-104.7 89.64,-95.1 86.64,-86.57"/>
<polygon fill="#63b8ff" stroke="#63b8ff" points="89.64,-85.57 83.02,-77.3 83.04,-87.89 89.64,-85.57"/>
</g>
<!-- Node2&#45;&gt;Node5 -->
<g id="edge4" class="edge">
<title>Node2&#45;&gt;Node5</title>
<path fill="none" stroke="#63b8ff" d="M107.63,-111.59C114.8,-104.01 125.07,-93.13 133.67,-84.02"/>
<polygon fill="#63b8ff" stroke="#63b8ff" points="135.65,-86.97 139.97,-77.3 130.56,-82.17 135.65,-86.97"/>
</g>
<!-- Node5&#45;&gt;Node6 -->
<g id="edge5" class="edge">
<title>Node5&#45;&gt;Node6</title>
<path fill="none" stroke="#63b8ff" d="M160.03,-55.59C168.49,-47.85 180.68,-36.69 190.76,-27.47"/>
<polygon fill="#63b8ff" stroke="#63b8ff" points="192.58,-30.63 197.59,-21.3 187.85,-25.47 192.58,-30.63"/>
</g>
<!-- Node7 -->
<g id="node7" class="node">
<title>Node7</title>
<g id="a_node7"><a xlink:title=" ">
<polygon fill="#e0e0e0" stroke="#999999" points="168.63,-20 130.88,-20 130.88,0 168.63,0 168.63,-20"/>
<text text-anchor="middle" x="149.75" y="-6.5" font-family="Helvetica,sans-Serif" font-size="10.00">array</text>
</a>
</g>
</g>
<!-- Node5&#45;&gt;Node7 -->
<g id="edge6" class="edge">
<title>Node5&#45;&gt;Node7</title>
<path fill="none" stroke="#63b8ff" d="M149.75,-55.59C149.75,-48.86 149.75,-39.53 149.75,-31.15"/>
<polygon fill="#63b8ff" stroke="#63b8ff" points="153.25,-31.3 149.75,-21.3 146.25,-31.3 153.25,-31.3"/>
</g>
<!-- Node11 -->
<g id="node11" class="node">
<title>Node11</title>
<g id="a_node11"><a xlink:title=" ">
<polygon fill="#e0e0e0" stroke="#999999" points="437.75,-76 379.75,-76 379.75,-56 437.75,-56 437.75,-76"/>
<text text-anchor="middle" x="408.75" y="-62.5" font-family="Helvetica,sans-Serif" font-size="10.00">exception</text>
</a>
</g>
</g>
<!-- Node10&#45;&gt;Node11 -->
<g id="edge12" class="edge">
<title>Node10&#45;&gt;Node11</title>
<path fill="none" stroke="#63b8ff" d="M466.56,-111.59C456.32,-103.7 441.47,-92.24 429.38,-82.92"/>
<polygon fill="#63b8ff" stroke="#63b8ff" points="431.86,-79.64 421.8,-76.3 427.58,-85.18 431.86,-79.64"/>
</g>
<!-- Node12 -->
<g id="node12" class="node">
<title>Node12</title>
<g id="a_node12"><a xlink:title=" ">
<polygon fill="#e0e0e0" stroke="#999999" points="501.38,-76 456.13,-76 456.13,-56 501.38,-56 501.38,-76"/>
<text text-anchor="middle" x="478.75" y="-62.5" font-family="Helvetica,sans-Serif" font-size="10.00">cstring</text>
</a>
</g>
</g>
<!-- Node10&#45;&gt;Node12 -->
<g id="edge13" class="edge">
<title>Node10&#45;&gt;Node12</title>
<path fill="none" stroke="#63b8ff" d="M478.75,-111.59C478.75,-104.86 478.75,-95.53 478.75,-87.15"/>
<polygon fill="#63b8ff" stroke="#63b8ff" points="482.25,-87.3 478.75,-77.3 475.25,-87.3 482.25,-87.3"/>
</g>
<!-- Node13 -->
<g id="node13" class="node">
<title>Node13</title>
<g id="a_node13"><a xlink:title=" ">
<polygon fill="#e0e0e0" stroke="#999999" points="578.13,-76 519.38,-76 519.38,-56 578.13,-56 578.13,-76"/>
<text text-anchor="middle" x="548.75" y="-62.5" font-family="Helvetica,sans-Serif" font-size="10.00">stdexcept</text>
</a>
</g>
</g>
<!-- Node10&#45;&gt;Node13 -->
<g id="edge14" class="edge">
<title>Node10&#45;&gt;Node13</title>
<path fill="none" stroke="#63b8ff" d="M490.94,-111.59C501.18,-103.7 516.03,-92.24 528.12,-82.92"/>
<polygon fill="#63b8ff" stroke="#63b8ff" points="529.92,-85.18 535.7,-76.3 525.64,-79.64 529.92,-85.18"/>
</g>
</g>
</svg>
