<?xml version="1.0" encoding="UTF-8" standalone="no"?>
<!DOCTYPE svg PUBLIC "-//W3C//DTD SVG 1.1//EN"
 "http://www.w3.org/Graphics/SVG/1.1/DTD/svg11.dtd">
<!-- Generated by graphviz version 2.43.0 (0)
 -->
<!-- Title: std::array_hash_combine_impl Pages: 1 -->
<svg width="349pt" height="88pt"
 viewBox="0.00 0.00 349.00 88.00" xmlns="http://www.w3.org/2000/svg" xmlns:xlink="http://www.w3.org/1999/xlink">
<g id="graph0" class="graph" transform="scale(1 1) rotate(0) translate(4 84)">
<title>std::array_hash_combine_impl</title>
<polygon fill="white" stroke="transparent" points="-4,4 -4,-84 345,-84 345,4 -4,4"/>
<!-- Node1 -->
<g id="node1" class="node">
<title>Node1</title>
<g id="a_node1"><a xlink:title="Combine the hash of value into seed.">
<polygon fill="#bfbfbf" stroke="black" points="175,-30 175,-49 341,-49 341,-30 175,-30"/>
<text text-anchor="middle" x="258" y="-37" font-family="Helvetica,sans-Serif" font-size="10.00">std::array_hash_combine_impl</text>
</a>
</g>
</g>
<!-- Node1&#45;&gt;Node1 -->
<g id="edge1" class="edge">
<title>Node1&#45;&gt;Node1</title>
<path fill="none" stroke="midnightblue" d="M293.23,-57.39C292.72,-63.04 280.97,-67.5 258,-67.5 224.59,-67.5 214.93,-58.07 229.02,-49.26"/>
<polygon fill="midnightblue" stroke="midnightblue" points="295.85,-55.05 286.98,-49.26 290.3,-59.32 295.85,-55.05"/>
</g>
<!-- Node2 -->
<g id="node2" class="node">
<title>Node2</title>
<g id="a_node2"><a xlink:href="a01317.html#af1c504305bc3e72e72884840ae9b1177" target="_top" xlink:title="Template specialization to hash an array of floats.">
<polygon fill="white" stroke="black" points="0,-49.5 0,-79.5 139,-79.5 139,-49.5 0,-49.5"/>
<text text-anchor="start" x="8" y="-67.5" font-family="Helvetica,sans-Serif" font-size="10.00">std::hash&lt; std::array</text>
<text text-anchor="middle" x="69.5" y="-56.5" font-family="Helvetica,sans-Serif" font-size="10.00">&lt; float, 3 &gt; &gt;::operator()</text>
</a>
</g>
</g>
<!-- Node1&#45;&gt;Node2 -->
<g id="edge2" class="edge">
<title>Node1&#45;&gt;Node2</title>
<path fill="none" stroke="midnightblue" d="M175.79,-50.39C163.58,-52.02 151.1,-53.7 139.19,-55.29"/>
<polygon fill="midnightblue" stroke="midnightblue" points="176.51,-53.82 185.96,-49.02 175.58,-46.88 176.51,-53.82"/>
</g>
<!-- Node3 -->
<g id="node3" class="node">
<title>Node3</title>
<g id="a_node3"><a xlink:href="a01289.html#afb0661eb1c8c1113e135274672e3026c" target="_top" xlink:title="Calculate a hash for k.">
<polygon fill="white" stroke="black" points="8,-0.5 8,-30.5 131,-30.5 131,-0.5 8,-0.5"/>
<text text-anchor="start" x="16" y="-18.5" font-family="Helvetica,sans-Serif" font-size="10.00">std::hash&lt; std::array</text>
<text text-anchor="middle" x="69.5" y="-7.5" font-family="Helvetica,sans-Serif" font-size="10.00">&lt; T, 3 &gt; &gt;::operator()</text>
</a>
</g>
</g>
<!-- Node1&#45;&gt;Node3 -->
<g id="edge3" class="edge">
<title>Node1&#45;&gt;Node3</title>
<path fill="none" stroke="midnightblue" d="M172.87,-28.67C158.82,-26.87 144.5,-25.02 131.2,-23.31"/>
<polygon fill="midnightblue" stroke="midnightblue" points="172.66,-32.18 183.02,-29.98 173.55,-25.23 172.66,-32.18"/>
</g>
</g>
</svg>
