<?xml version="1.0" encoding="UTF-8" standalone="no"?>
<!DOCTYPE svg PUBLIC "-//W3C//DTD SVG 1.1//EN"
 "http://www.w3.org/Graphics/SVG/1.1/DTD/svg11.dtd">
<!-- Generated by graphviz version 2.43.0 (0)
 -->
<!-- Title: Cpp/exceptions/src/HFExceptions.h Pages: 1 -->
<svg width="225pt" height="95pt"
 viewBox="0.00 0.00 225.00 95.00" xmlns="http://www.w3.org/2000/svg" xmlns:xlink="http://www.w3.org/1999/xlink">
<g id="graph0" class="graph" transform="scale(1 1) rotate(0) translate(4 91)">
<title>Cpp/exceptions/src/HFExceptions.h</title>
<polygon fill="white" stroke="transparent" points="-4,4 -4,-91 221,-91 221,4 -4,4"/>
<!-- Node1 -->
<g id="node1" class="node">
<title>Node1</title>
<g id="a_node1"><a xlink:title="Contains definitions for the Exceptions namespace.">
<polygon fill="#bfbfbf" stroke="black" points="54,-56.5 54,-86.5 163,-86.5 163,-56.5 54,-56.5"/>
<text text-anchor="start" x="62" y="-74.5" font-family="Helvetica,sans-Serif" font-size="10.00">Cpp/exceptions/src</text>
<text text-anchor="middle" x="108.5" y="-63.5" font-family="Helvetica,sans-Serif" font-size="10.00">/HFExceptions.h</text>
</a>
</g>
</g>
<!-- Node2 -->
<g id="node2" class="node">
<title>Node2</title>
<g id="a_node2"><a xlink:title=" ">
<polygon fill="white" stroke="#bfbfbf" points="0,-0.5 0,-19.5 65,-19.5 65,-0.5 0,-0.5"/>
<text text-anchor="middle" x="32.5" y="-7.5" font-family="Helvetica,sans-Serif" font-size="10.00">exception</text>
</a>
</g>
</g>
<!-- Node1&#45;&gt;Node2 -->
<g id="edge1" class="edge">
<title>Node1&#45;&gt;Node2</title>
<path fill="none" stroke="midnightblue" d="M90.49,-56.4C78.76,-47.22 63.48,-35.26 51.56,-25.92"/>
<polygon fill="midnightblue" stroke="midnightblue" points="53.59,-23.07 43.56,-19.66 49.28,-28.58 53.59,-23.07"/>
</g>
<!-- Node3 -->
<g id="node3" class="node">
<title>Node3</title>
<g id="a_node3"><a xlink:title=" ">
<polygon fill="white" stroke="#bfbfbf" points="83.5,-0.5 83.5,-19.5 133.5,-19.5 133.5,-0.5 83.5,-0.5"/>
<text text-anchor="middle" x="108.5" y="-7.5" font-family="Helvetica,sans-Serif" font-size="10.00">cstring</text>
</a>
</g>
</g>
<!-- Node1&#45;&gt;Node3 -->
<g id="edge2" class="edge">
<title>Node1&#45;&gt;Node3</title>
<path fill="none" stroke="midnightblue" d="M108.5,-56.4C108.5,-48.47 108.5,-38.46 108.5,-29.86"/>
<polygon fill="midnightblue" stroke="midnightblue" points="112,-29.66 108.5,-19.66 105,-29.66 112,-29.66"/>
</g>
<!-- Node4 -->
<g id="node4" class="node">
<title>Node4</title>
<g id="a_node4"><a xlink:title=" ">
<polygon fill="white" stroke="#bfbfbf" points="152,-0.5 152,-19.5 217,-19.5 217,-0.5 152,-0.5"/>
<text text-anchor="middle" x="184.5" y="-7.5" font-family="Helvetica,sans-Serif" font-size="10.00">stdexcept</text>
</a>
</g>
</g>
<!-- Node1&#45;&gt;Node4 -->
<g id="edge3" class="edge">
<title>Node1&#45;&gt;Node4</title>
<path fill="none" stroke="midnightblue" d="M126.51,-56.4C138.24,-47.22 153.52,-35.26 165.44,-25.92"/>
<polygon fill="midnightblue" stroke="midnightblue" points="167.72,-28.58 173.44,-19.66 163.41,-23.07 167.72,-28.58"/>
</g>
</g>
</svg>
