<?xml version="1.0" encoding="UTF-8" standalone="no"?>
<!DOCTYPE svg PUBLIC "-//W3C//DTD SVG 1.1//EN"
 "http://www.w3.org/Graphics/SVG/1.1/DTD/svg11.dtd">
<!-- Generated by graphviz version 2.43.0 (0)
 -->
<!-- Title: TEST Pages: 1 -->
<svg width="1514pt" height="694pt"
 viewBox="0.00 0.00 1514.00 694.00" xmlns="http://www.w3.org/2000/svg" xmlns:xlink="http://www.w3.org/1999/xlink">
<g id="graph0" class="graph" transform="scale(1 1) rotate(0) translate(4 690)">
<title>TEST</title>
<polygon fill="white" stroke="transparent" points="-4,4 -4,-690 1510,-690 1510,4 -4,4"/>
<!-- Node1 -->
<g id="node1" class="node">
<title>Node1</title>
<g id="a_node1"><a xlink:title=" ">
<polygon fill="#bfbfbf" stroke="black" points="0,-50 0,-69 41,-69 41,-50 0,-50"/>
<text text-anchor="middle" x="20.5" y="-57" font-family="Helvetica,sans-Serif" font-size="10.00">TEST</text>
</a>
</g>
</g>
<!-- Node2 -->
<g id="node2" class="node">
<title>Node2</title>
<g id="a_node2"><a xlink:href="a01257.html#ab82cd6b330063776a89a3c65f76d4c0a" target="_top" xlink:title="Generate a graph of accessible space.">
<polygon fill="white" stroke="black" points="77,-105.5 77,-135.5 250,-135.5 250,-105.5 77,-105.5"/>
<text text-anchor="start" x="85" y="-123.5" font-family="Helvetica,sans-Serif" font-size="10.00">HF::GraphGenerator</text>
<text text-anchor="middle" x="163.5" y="-112.5" font-family="Helvetica,sans-Serif" font-size="10.00">::GraphGenerator::BuildNetwork</text>
</a>
</g>
</g>
<!-- Node1&#45;&gt;Node2 -->
<g id="edge1" class="edge">
<title>Node1&#45;&gt;Node2</title>
<path fill="none" stroke="midnightblue" d="M41.11,-67.98C60.99,-76.58 92.43,-90.19 118.33,-101.39"/>
<polygon fill="midnightblue" stroke="midnightblue" points="117.03,-104.64 127.6,-105.4 119.81,-98.22 117.03,-104.64"/>
</g>
<!-- Node34 -->
<g id="node34" class="node">
<title>Node34</title>
<g id="a_node34"><a xlink:href="a00299.html#a7689b386735b992cd5ade95fdc57466c" target="_top" xlink:title=" ">
<polygon fill="white" stroke="black" points="90.5,-50 90.5,-69 236.5,-69 236.5,-50 90.5,-50"/>
<text text-anchor="middle" x="163.5" y="-57" font-family="Helvetica,sans-Serif" font-size="10.00">CreateObstacleExampleRT</text>
</a>
</g>
</g>
<!-- Node1&#45;&gt;Node34 -->
<g id="edge48" class="edge">
<title>Node1&#45;&gt;Node34</title>
<path fill="none" stroke="midnightblue" d="M41.11,-59.5C51.68,-59.5 65.53,-59.5 80.07,-59.5"/>
<polygon fill="midnightblue" stroke="midnightblue" points="80.22,-63 90.22,-59.5 80.22,-56 80.22,-63"/>
</g>
<!-- Node37 -->
<g id="node37" class="node">
<title>Node37</title>
<g id="a_node37"><a xlink:href="a01497.html#a2710af2a75976862d7a235793567d2f3" target="_top" xlink:title="Determine how many nodes are in the graph.">
<polygon fill="white" stroke="black" points="104,-0.5 104,-30.5 223,-30.5 223,-0.5 104,-0.5"/>
<text text-anchor="start" x="112" y="-18.5" font-family="Helvetica,sans-Serif" font-size="10.00">HF::SpatialStructures</text>
<text text-anchor="middle" x="163.5" y="-7.5" font-family="Helvetica,sans-Serif" font-size="10.00">::Graph::size</text>
</a>
</g>
</g>
<!-- Node1&#45;&gt;Node37 -->
<g id="edge51" class="edge">
<title>Node1&#45;&gt;Node37</title>
<path fill="none" stroke="midnightblue" d="M41.21,-52.51C51.78,-48.82 65.06,-44.29 77,-40.5 84.36,-38.17 92.1,-35.79 99.79,-33.48"/>
<polygon fill="midnightblue" stroke="midnightblue" points="100.89,-36.8 109.48,-30.6 98.9,-30.1 100.89,-36.8"/>
</g>
<!-- Node3 -->
<g id="node3" class="node">
<title>Node3</title>
<g id="a_node3"><a xlink:href="a00397.html#a73b53db067a504d36e9481dfe3326b60" target="_top" xlink:title="Cast an input value to real_t using static cast.">
<polygon fill="white" stroke="black" points="888.5,-95.5 888.5,-125.5 1001.5,-125.5 1001.5,-95.5 888.5,-95.5"/>
<text text-anchor="start" x="896.5" y="-113.5" font-family="Helvetica,sans-Serif" font-size="10.00">HF::GraphGenerator</text>
<text text-anchor="middle" x="945" y="-102.5" font-family="Helvetica,sans-Serif" font-size="10.00">::CastToReal</text>
</a>
</g>
</g>
<!-- Node2&#45;&gt;Node3 -->
<g id="edge2" class="edge">
<title>Node2&#45;&gt;Node3</title>
<path fill="none" stroke="midnightblue" d="M250.26,-116.95C380.05,-112.02 634.13,-104.06 850,-107.5 859.11,-107.65 868.72,-107.87 878.17,-108.13"/>
<polygon fill="midnightblue" stroke="midnightblue" points="878.24,-111.64 888.34,-108.43 878.44,-104.64 878.24,-111.64"/>
</g>
<!-- Node4 -->
<g id="node4" class="node">
<title>Node4</title>
<g id="a_node4"><a xlink:href="a00397.html#a58892abe1152c28d26d3ca749c99ea4d" target="_top" xlink:title="Cast an array of 3 values to the graph_generator&#39;s real_3 type.">
<polygon fill="white" stroke="black" points="717.5,-117.5 717.5,-147.5 830.5,-147.5 830.5,-117.5 717.5,-117.5"/>
<text text-anchor="start" x="725.5" y="-135.5" font-family="Helvetica,sans-Serif" font-size="10.00">HF::GraphGenerator</text>
<text text-anchor="middle" x="774" y="-124.5" font-family="Helvetica,sans-Serif" font-size="10.00">::CastToReal3</text>
</a>
</g>
</g>
<!-- Node2&#45;&gt;Node4 -->
<g id="edge3" class="edge">
<title>Node2&#45;&gt;Node4</title>
<path fill="none" stroke="midnightblue" d="M250.07,-122.19C372.92,-124.61 596.62,-129.02 707.33,-131.21"/>
<polygon fill="midnightblue" stroke="midnightblue" points="707.3,-134.7 717.36,-131.4 707.44,-127.71 707.3,-134.7"/>
</g>
<!-- Node5 -->
<g id="node5" class="node">
<title>Node5</title>
<g id="a_node5"><a xlink:href="a01257.html#a2616d5577f2b87dae8bdb9caab75e52f" target="_top" xlink:title="Generate a graph of accessible space.">
<polygon fill="white" stroke="black" points="309,-403 309,-444 439,-444 439,-403 309,-403"/>
<text text-anchor="start" x="317" y="-432" font-family="Helvetica,sans-Serif" font-size="10.00">HF::GraphGenerator</text>
<text text-anchor="start" x="317" y="-421" font-family="Helvetica,sans-Serif" font-size="10.00">::GraphGenerator::IMPL</text>
<text text-anchor="middle" x="374" y="-410" font-family="Helvetica,sans-Serif" font-size="10.00">_BuildNetwork</text>
</a>
</g>
</g>
<!-- Node2&#45;&gt;Node5 -->
<g id="edge5" class="edge">
<title>Node2&#45;&gt;Node5</title>
<path fill="none" stroke="midnightblue" d="M174.84,-135.53C207.64,-183.2 309.77,-331.61 353.17,-394.68"/>
<polygon fill="midnightblue" stroke="midnightblue" points="350.34,-396.74 358.89,-402.99 356.1,-392.77 350.34,-396.74"/>
</g>
<!-- Node4&#45;&gt;Node3 -->
<g id="edge4" class="edge">
<title>Node4&#45;&gt;Node3</title>
<path fill="none" stroke="midnightblue" d="M830.81,-125.24C845.95,-123.26 862.49,-121.11 878.13,-119.08"/>
<polygon fill="midnightblue" stroke="midnightblue" points="878.79,-122.52 888.25,-117.76 877.89,-115.58 878.79,-122.52"/>
</g>
<!-- Node6 -->
<g id="node6" class="node">
<title>Node6</title>
<g id="a_node6"><a xlink:href="a01257.html#ac7052d4b625fb96f29c5bfc091a86f7e" target="_top" xlink:title="Perform breadth first search to populate the graph with with nodes and edges.">
<polygon fill="white" stroke="black" points="498,-386.5 498,-416.5 662,-416.5 662,-386.5 498,-386.5"/>
<text text-anchor="start" x="506" y="-404.5" font-family="Helvetica,sans-Serif" font-size="10.00">HF::GraphGenerator</text>
<text text-anchor="middle" x="580" y="-393.5" font-family="Helvetica,sans-Serif" font-size="10.00">::GraphGenerator::CrawlGeom</text>
</a>
</g>
</g>
<!-- Node5&#45;&gt;Node6 -->
<g id="edge6" class="edge">
<title>Node5&#45;&gt;Node6</title>
<path fill="none" stroke="midnightblue" d="M439.27,-416.57C454.64,-414.91 471.35,-413.11 487.69,-411.35"/>
<polygon fill="midnightblue" stroke="midnightblue" points="488.24,-414.81 497.81,-410.26 487.49,-407.85 488.24,-414.81"/>
</g>
<!-- Node28 -->
<g id="node28" class="node">
<title>Node28</title>
<g id="a_node28"><a xlink:href="a01261.html#a35a8d70ffef5833ae214feaa89aaf220" target="_top" xlink:title="Call push with any type of object.">
<polygon fill="white" stroke="black" points="705.5,-577.5 705.5,-607.5 842.5,-607.5 842.5,-577.5 705.5,-577.5"/>
<text text-anchor="start" x="713.5" y="-595.5" font-family="Helvetica,sans-Serif" font-size="10.00">HF::GraphGenerator</text>
<text text-anchor="middle" x="774" y="-584.5" font-family="Helvetica,sans-Serif" font-size="10.00">::UniqueQueue::PushAny</text>
</a>
</g>
</g>
<!-- Node5&#45;&gt;Node28 -->
<g id="edge44" class="edge">
<title>Node5&#45;&gt;Node28</title>
<path fill="none" stroke="midnightblue" d="M439.23,-425.31C513.26,-428.67 628.99,-438.26 662,-465.5 699.4,-496.37 663.26,-534.67 698,-568.5 699.1,-569.57 700.25,-570.6 701.44,-571.58"/>
<polygon fill="midnightblue" stroke="midnightblue" points="699.63,-574.58 709.84,-577.4 703.62,-568.83 699.63,-574.58"/>
</g>
<!-- Node30 -->
<g id="node30" class="node">
<title>Node30</title>
<g id="a_node30"><a xlink:href="a01257.html#a843cc6b5b69b5d013930b3685789fa15" target="_top" xlink:title="Perform breadth first search to populate the graph with nodes and edges using multiple cores.">
<polygon fill="white" stroke="black" points="498,-307 498,-348 662,-348 662,-307 498,-307"/>
<text text-anchor="start" x="506" y="-336" font-family="Helvetica,sans-Serif" font-size="10.00">HF::GraphGenerator</text>
<text text-anchor="start" x="506" y="-325" font-family="Helvetica,sans-Serif" font-size="10.00">::GraphGenerator::CrawlGeom</text>
<text text-anchor="middle" x="580" y="-314" font-family="Helvetica,sans-Serif" font-size="10.00">Parallel</text>
</a>
</g>
</g>
<!-- Node5&#45;&gt;Node30 -->
<g id="edge32" class="edge">
<title>Node5&#45;&gt;Node30</title>
<path fill="none" stroke="midnightblue" d="M418.76,-402.91C450.22,-388.1 492.8,-368.06 526.16,-352.36"/>
<polygon fill="midnightblue" stroke="midnightblue" points="527.75,-355.49 535.31,-348.06 524.77,-349.15 527.75,-355.49"/>
</g>
<!-- Node32 -->
<g id="node32" class="node">
<title>Node32</title>
<g id="a_node32"><a xlink:href="a00397.html#af8cc1a7a794699308cf5c46d3ae59491" target="_top" xlink:title="Sets the core count of OpenMP.">
<polygon fill="white" stroke="black" points="523.5,-474.5 523.5,-504.5 636.5,-504.5 636.5,-474.5 523.5,-474.5"/>
<text text-anchor="start" x="531.5" y="-492.5" font-family="Helvetica,sans-Serif" font-size="10.00">HF::GraphGenerator</text>
<text text-anchor="middle" x="580" y="-481.5" font-family="Helvetica,sans-Serif" font-size="10.00">::SetupCoreCount</text>
</a>
</g>
</g>
<!-- Node5&#45;&gt;Node32 -->
<g id="edge45" class="edge">
<title>Node5&#45;&gt;Node32</title>
<path fill="none" stroke="midnightblue" d="M438.43,-444.02C465.39,-452.75 496.58,-462.83 522.71,-471.29"/>
<polygon fill="midnightblue" stroke="midnightblue" points="521.87,-474.7 532.46,-474.44 524.02,-468.04 521.87,-474.7"/>
</g>
<!-- Node33 -->
<g id="node33" class="node">
<title>Node33</title>
<g id="a_node33"><a xlink:href="a00397.html#a9ddffecb75b34434d7157b49d3c67b60" target="_top" xlink:title="Determine if the start point of the graph is over valid ground.">
<polygon fill="white" stroke="black" points="523.5,-576.5 523.5,-606.5 636.5,-606.5 636.5,-576.5 523.5,-576.5"/>
<text text-anchor="start" x="531.5" y="-594.5" font-family="Helvetica,sans-Serif" font-size="10.00">HF::GraphGenerator</text>
<text text-anchor="middle" x="580" y="-583.5" font-family="Helvetica,sans-Serif" font-size="10.00">::ValidateStartPoint</text>
</a>
</g>
</g>
<!-- Node5&#45;&gt;Node33 -->
<g id="edge46" class="edge">
<title>Node5&#45;&gt;Node33</title>
<path fill="none" stroke="midnightblue" d="M400.01,-444.1C438.85,-476.08 513.29,-537.39 552.82,-569.94"/>
<polygon fill="midnightblue" stroke="midnightblue" points="550.76,-572.78 560.71,-576.43 555.21,-567.38 550.76,-572.78"/>
</g>
<!-- Node6&#45;&gt;Node4 -->
<g id="edge8" class="edge">
<title>Node6&#45;&gt;Node4</title>
<path fill="none" stroke="midnightblue" d="M624.27,-386.43C638.19,-379.6 652.46,-370.15 662,-357.5 706.4,-298.6 659.74,-258.56 698,-195.5 708.18,-178.73 724.41,-164.28 739.18,-153.47"/>
<polygon fill="midnightblue" stroke="midnightblue" points="741.47,-156.14 747.65,-147.53 737.45,-150.4 741.47,-156.14"/>
</g>
<!-- Node7 -->
<g id="node7" class="node">
<title>Node7</title>
<g id="a_node7"><a xlink:href="a01497.html#a37be5c12e488072dea7fa1c8c64346f7" target="_top" xlink:title="Add a new edge to the graph from parent to child.">
<polygon fill="white" stroke="black" points="714.5,-303.5 714.5,-333.5 833.5,-333.5 833.5,-303.5 714.5,-303.5"/>
<text text-anchor="start" x="722.5" y="-321.5" font-family="Helvetica,sans-Serif" font-size="10.00">HF::SpatialStructures</text>
<text text-anchor="middle" x="774" y="-310.5" font-family="Helvetica,sans-Serif" font-size="10.00">::Graph::addEdge</text>
</a>
</g>
</g>
<!-- Node6&#45;&gt;Node7 -->
<g id="edge7" class="edge">
<title>Node6&#45;&gt;Node7</title>
<path fill="none" stroke="midnightblue" d="M608.86,-386.32C632.26,-373.91 666.77,-356.37 698,-343.5 703.45,-341.25 709.17,-339.06 714.94,-336.96"/>
<polygon fill="midnightblue" stroke="midnightblue" points="716.37,-340.17 724.62,-333.53 714.03,-333.57 716.37,-340.17"/>
</g>
<!-- Node8 -->
<g id="node8" class="node">
<title>Node8</title>
<g id="a_node8"><a xlink:href="a00397.html#aefd344ebb2faadc64a56a16dc8582026" target="_top" xlink:title="Create a set of directions based on max_step_connections.">
<polygon fill="white" stroke="black" points="717.5,-528.5 717.5,-558.5 830.5,-558.5 830.5,-528.5 717.5,-528.5"/>
<text text-anchor="start" x="725.5" y="-546.5" font-family="Helvetica,sans-Serif" font-size="10.00">HF::GraphGenerator</text>
<text text-anchor="middle" x="774" y="-535.5" font-family="Helvetica,sans-Serif" font-size="10.00">::CreateDirecs</text>
</a>
</g>
</g>
<!-- Node6&#45;&gt;Node8 -->
<g id="edge9" class="edge">
<title>Node6&#45;&gt;Node8</title>
<path fill="none" stroke="midnightblue" d="M639.64,-416.67C647.79,-420.57 655.56,-425.43 662,-431.5 690.96,-458.8 669.39,-485.83 698,-513.5 701.91,-517.28 706.35,-520.6 711.07,-523.52"/>
<polygon fill="midnightblue" stroke="midnightblue" points="709.39,-526.58 719.83,-528.34 712.76,-520.45 709.39,-526.58"/>
</g>
<!-- Node10 -->
<g id="node10" class="node">
<title>Node10</title>
<g id="a_node10"><a xlink:href="a01261.html#ab659349de3391b0e2327f3736135752f" target="_top" xlink:title="Tell if the queue is empty.">
<polygon fill="white" stroke="black" points="711,-352.5 711,-382.5 837,-382.5 837,-352.5 711,-352.5"/>
<text text-anchor="start" x="719" y="-370.5" font-family="Helvetica,sans-Serif" font-size="10.00">HF::GraphGenerator</text>
<text text-anchor="middle" x="774" y="-359.5" font-family="Helvetica,sans-Serif" font-size="10.00">::UniqueQueue::empty</text>
</a>
</g>
</g>
<!-- Node6&#45;&gt;Node10 -->
<g id="edge11" class="edge">
<title>Node6&#45;&gt;Node10</title>
<path fill="none" stroke="midnightblue" d="M662.15,-387.13C674.99,-384.86 688.19,-382.52 700.81,-380.28"/>
<polygon fill="midnightblue" stroke="midnightblue" points="701.55,-383.71 710.78,-378.52 700.33,-376.81 701.55,-383.71"/>
</g>
<!-- Node12 -->
<g id="node12" class="node">
<title>Node12</title>
<g id="a_node12"><a xlink:href="a00397.html#a41e03f9bab54e4e0d1314c6a4bdf2ec1" target="_top" xlink:title="Populare out_children with a potential child position for every direction in directions.">
<polygon fill="white" stroke="black" points="698,-254.5 698,-284.5 850,-284.5 850,-254.5 698,-254.5"/>
<text text-anchor="start" x="706" y="-272.5" font-family="Helvetica,sans-Serif" font-size="10.00">HF::GraphGenerator</text>
<text text-anchor="middle" x="774" y="-261.5" font-family="Helvetica,sans-Serif" font-size="10.00">::GeneratePotentialChildren</text>
</a>
</g>
</g>
<!-- Node6&#45;&gt;Node12 -->
<g id="edge13" class="edge">
<title>Node6&#45;&gt;Node12</title>
<path fill="none" stroke="midnightblue" d="M618.94,-386.31C633.6,-379.13 649.76,-369.48 662,-357.5 685.05,-334.94 673.06,-314.95 698,-294.5 700.04,-292.82 702.2,-291.26 704.45,-289.8"/>
<polygon fill="midnightblue" stroke="midnightblue" points="706.53,-292.64 713.49,-284.66 703.07,-286.56 706.53,-292.64"/>
</g>
<!-- Node13 -->
<g id="node13" class="node">
<title>Node13</title>
<g id="a_node13"><a xlink:href="a00397.html#ab7ffcc7d6657ce276c06deed24c546a4" target="_top" xlink:title="Calculate all possible edges between parent and possible_children.">
<polygon fill="white" stroke="black" points="717.5,-440.5 717.5,-470.5 830.5,-470.5 830.5,-440.5 717.5,-440.5"/>
<text text-anchor="start" x="725.5" y="-458.5" font-family="Helvetica,sans-Serif" font-size="10.00">HF::GraphGenerator</text>
<text text-anchor="middle" x="774" y="-447.5" font-family="Helvetica,sans-Serif" font-size="10.00">::GetChildren</text>
</a>
</g>
</g>
<!-- Node6&#45;&gt;Node13 -->
<g id="edge14" class="edge">
<title>Node6&#45;&gt;Node13</title>
<path fill="none" stroke="midnightblue" d="M634.48,-416.54C657.79,-423.1 685.29,-430.83 709.62,-437.67"/>
<polygon fill="midnightblue" stroke="midnightblue" points="708.9,-441.11 719.47,-440.45 710.79,-434.37 708.9,-441.11"/>
</g>
<!-- Node27 -->
<g id="node27" class="node">
<title>Node27</title>
<g id="a_node27"><a xlink:href="a01261.html#a4aab642bf2c86a04f6890711ab7f2437" target="_top" xlink:title="Remove the topmost node from the queue and return it.">
<polygon fill="white" stroke="black" points="888.5,-276.5 888.5,-306.5 1001.5,-306.5 1001.5,-276.5 888.5,-276.5"/>
<text text-anchor="start" x="896.5" y="-294.5" font-family="Helvetica,sans-Serif" font-size="10.00">HF::GraphGenerator</text>
<text text-anchor="middle" x="945" y="-283.5" font-family="Helvetica,sans-Serif" font-size="10.00">::UniqueQueue::pop</text>
</a>
</g>
</g>
<!-- Node6&#45;&gt;Node27 -->
<g id="edge29" class="edge">
<title>Node6&#45;&gt;Node27</title>
<path fill="none" stroke="midnightblue" d="M661.9,-416.53C717.91,-422.85 792.45,-422.85 850,-392.5 873.9,-379.89 867.84,-363.51 886,-343.5 895.61,-332.91 907.17,-322.2 917.44,-313.27"/>
<polygon fill="midnightblue" stroke="midnightblue" points="920,-315.68 925.33,-306.53 915.46,-310.36 920,-315.68"/>
</g>
<!-- Node6&#45;&gt;Node28 -->
<g id="edge30" class="edge">
<title>Node6&#45;&gt;Node28</title>
<path fill="none" stroke="midnightblue" d="M642.14,-416.64C649.56,-420.52 656.46,-425.39 662,-431.5 704.29,-478.14 654.67,-522.83 698,-568.5 698.93,-569.48 699.89,-570.41 700.89,-571.31"/>
<polygon fill="midnightblue" stroke="midnightblue" points="699.07,-574.32 709.18,-577.48 703.25,-568.71 699.07,-574.32"/>
</g>
<!-- Node9 -->
<g id="node9" class="node">
<title>Node9</title>
<g id="a_node9"><a xlink:href="a00397.html#afe5670b4cb780fd3ccf2a0d72a2e3c2e" target="_top" xlink:title="Calculate P(n,r) as an array with each unique permutaton of 2 values being a pair.">
<polygon fill="white" stroke="black" points="888.5,-582.5 888.5,-612.5 1001.5,-612.5 1001.5,-582.5 888.5,-582.5"/>
<text text-anchor="start" x="896.5" y="-600.5" font-family="Helvetica,sans-Serif" font-size="10.00">HF::GraphGenerator</text>
<text text-anchor="middle" x="945" y="-589.5" font-family="Helvetica,sans-Serif" font-size="10.00">::permutations</text>
</a>
</g>
</g>
<!-- Node8&#45;&gt;Node9 -->
<g id="edge10" class="edge">
<title>Node8&#45;&gt;Node9</title>
<path fill="none" stroke="midnightblue" d="M822.08,-558.54C842.32,-565.01 866.15,-572.63 887.35,-579.4"/>
<polygon fill="midnightblue" stroke="midnightblue" points="886.29,-582.74 896.88,-582.45 888.42,-576.07 886.29,-582.74"/>
</g>
<!-- Node11 -->
<g id="node11" class="node">
<title>Node11</title>
<g id="a_node11"><a xlink:href="a01261.html#a6d38edb96130bda3eb8126cc7501065f" target="_top" xlink:title="Determine how many nodes are currently in the queue.">
<polygon fill="white" stroke="black" points="888,-205.5 888,-235.5 1002,-235.5 1002,-205.5 888,-205.5"/>
<text text-anchor="start" x="896" y="-223.5" font-family="Helvetica,sans-Serif" font-size="10.00">HF::GraphGenerator</text>
<text text-anchor="middle" x="945" y="-212.5" font-family="Helvetica,sans-Serif" font-size="10.00">::UniqueQueue::size</text>
</a>
</g>
</g>
<!-- Node10&#45;&gt;Node11 -->
<g id="edge12" class="edge">
<title>Node10&#45;&gt;Node11</title>
<path fill="none" stroke="midnightblue" d="M837.03,-352.37C841.69,-349.86 846.09,-346.92 850,-343.5 878.12,-318.88 862.91,-296.89 886,-267.5 893.49,-257.96 903.26,-249.12 912.64,-241.73"/>
<polygon fill="midnightblue" stroke="midnightblue" points="914.84,-244.46 920.71,-235.64 910.62,-238.87 914.84,-244.46"/>
</g>
<!-- Node14 -->
<g id="node14" class="node">
<title>Node14</title>
<g id="a_node14"><a xlink:href="a00397.html#a4b7cc0ad0002975404acef5064f4f546" target="_top" xlink:title="Determine whether children are over valid ground, and and meet upstep/downstep requirements.">
<polygon fill="white" stroke="black" points="888.5,-484.5 888.5,-514.5 1001.5,-514.5 1001.5,-484.5 888.5,-484.5"/>
<text text-anchor="start" x="896.5" y="-502.5" font-family="Helvetica,sans-Serif" font-size="10.00">HF::GraphGenerator</text>
<text text-anchor="middle" x="945" y="-491.5" font-family="Helvetica,sans-Serif" font-size="10.00">::CheckChildren</text>
</a>
</g>
</g>
<!-- Node13&#45;&gt;Node14 -->
<g id="edge15" class="edge">
<title>Node13&#45;&gt;Node14</title>
<path fill="none" stroke="midnightblue" d="M830.81,-470.03C846.09,-474.01 862.8,-478.36 878.57,-482.47"/>
<polygon fill="midnightblue" stroke="midnightblue" points="877.69,-485.85 888.25,-484.99 879.46,-479.08 877.69,-485.85"/>
</g>
<!-- Node21 -->
<g id="node21" class="node">
<title>Node21</title>
<g id="a_node21"><a xlink:href="a00397.html#aeab1db37b5aa614235f109d5dd9711a9" target="_top" xlink:title="Determine what kind of step (if any) is between parent and child.">
<polygon fill="white" stroke="black" points="888.5,-435.5 888.5,-465.5 1001.5,-465.5 1001.5,-435.5 888.5,-435.5"/>
<text text-anchor="start" x="896.5" y="-453.5" font-family="Helvetica,sans-Serif" font-size="10.00">HF::GraphGenerator</text>
<text text-anchor="middle" x="945" y="-442.5" font-family="Helvetica,sans-Serif" font-size="10.00">::CheckConnection</text>
</a>
</g>
</g>
<!-- Node13&#45;&gt;Node21 -->
<g id="edge22" class="edge">
<title>Node13&#45;&gt;Node21</title>
<path fill="none" stroke="midnightblue" d="M830.81,-453.85C845.95,-453.4 862.49,-452.91 878.13,-452.45"/>
<polygon fill="midnightblue" stroke="midnightblue" points="878.36,-455.94 888.25,-452.15 878.15,-448.95 878.36,-455.94"/>
</g>
<!-- Node24 -->
<g id="node24" class="node">
<title>Node24</title>
<g id="a_node24"><a xlink:href="a00397.html#a7f96186b8f24f878404d1feccf2f64db" target="_top" xlink:title="Calculate the distance between two nodes.">
<polygon fill="white" stroke="black" points="1198.5,-342.5 1198.5,-372.5 1311.5,-372.5 1311.5,-342.5 1198.5,-342.5"/>
<text text-anchor="start" x="1206.5" y="-360.5" font-family="Helvetica,sans-Serif" font-size="10.00">HF::GraphGenerator</text>
<text text-anchor="middle" x="1255" y="-349.5" font-family="Helvetica,sans-Serif" font-size="10.00">::DistanceTo</text>
</a>
</g>
</g>
<!-- Node13&#45;&gt;Node24 -->
<g id="edge27" class="edge">
<title>Node13&#45;&gt;Node24</title>
<path fill="none" stroke="midnightblue" d="M814.15,-440.43C826.26,-434.82 839.23,-427.77 850,-419.5 869.5,-404.53 863.95,-388.38 886,-377.5 982.65,-329.83 1111.43,-336.23 1188.22,-346.19"/>
<polygon fill="midnightblue" stroke="midnightblue" points="1187.86,-349.67 1198.24,-347.54 1188.8,-342.73 1187.86,-349.67"/>
</g>
<!-- Node26 -->
<g id="node26" class="node">
<title>Node26</title>
<g id="a_node26"><a xlink:href="a00397.html#abf1a3ae7dc89b3cf430e059a87fcd477" target="_top" xlink:title="Convert a point_type to a node.">
<polygon fill="white" stroke="black" points="888.5,-386.5 888.5,-416.5 1001.5,-416.5 1001.5,-386.5 888.5,-386.5"/>
<text text-anchor="start" x="896.5" y="-404.5" font-family="Helvetica,sans-Serif" font-size="10.00">HF::GraphGenerator</text>
<text text-anchor="middle" x="945" y="-393.5" font-family="Helvetica,sans-Serif" font-size="10.00">::ToNode</text>
</a>
</g>
</g>
<!-- Node13&#45;&gt;Node26 -->
<g id="edge28" class="edge">
<title>Node13&#45;&gt;Node26</title>
<path fill="none" stroke="midnightblue" d="M822.08,-440.46C842.32,-433.99 866.15,-426.37 887.35,-419.6"/>
<polygon fill="midnightblue" stroke="midnightblue" points="888.42,-422.93 896.88,-416.55 886.29,-416.26 888.42,-422.93"/>
</g>
<!-- Node15 -->
<g id="node15" class="node">
<title>Node15</title>
<g id="a_node15"><a xlink:href="a00397.html#a74be560268a713fc9e9b8b4a453afa2f" target="_top" xlink:title="Cast a ray and get the point of intersection if it connects.">
<polygon fill="white" stroke="black" points="1040,-581.5 1040,-611.5 1153,-611.5 1153,-581.5 1040,-581.5"/>
<text text-anchor="start" x="1048" y="-599.5" font-family="Helvetica,sans-Serif" font-size="10.00">HF::GraphGenerator</text>
<text text-anchor="middle" x="1096.5" y="-588.5" font-family="Helvetica,sans-Serif" font-size="10.00">::CheckRay</text>
</a>
</g>
</g>
<!-- Node14&#45;&gt;Node15 -->
<g id="edge16" class="edge">
<title>Node14&#45;&gt;Node15</title>
<path fill="none" stroke="midnightblue" d="M984.76,-514.54C991.33,-517.55 997.97,-520.91 1004,-524.5 1028.4,-539.02 1053.58,-559.29 1071.33,-574.62"/>
<polygon fill="midnightblue" stroke="midnightblue" points="1069.1,-577.32 1078.93,-581.28 1073.71,-572.06 1069.1,-577.32"/>
</g>
<!-- Node16 -->
<g id="node16" class="node">
<title>Node16</title>
<g id="a_node16"><a xlink:href="a00397.html#ab731d597ee2a843f7b7cb1ccbae67782" target="_top" xlink:title="Determine if a hit is against the geometry type specified.">
<polygon fill="white" stroke="black" points="1198.5,-557.5 1198.5,-587.5 1311.5,-587.5 1311.5,-557.5 1198.5,-557.5"/>
<text text-anchor="start" x="1206.5" y="-575.5" font-family="Helvetica,sans-Serif" font-size="10.00">HF::GraphGenerator</text>
<text text-anchor="middle" x="1255" y="-564.5" font-family="Helvetica,sans-Serif" font-size="10.00">::CheckGeometryID</text>
</a>
</g>
</g>
<!-- Node15&#45;&gt;Node16 -->
<g id="edge17" class="edge">
<title>Node15&#45;&gt;Node16</title>
<path fill="none" stroke="midnightblue" d="M1153.12,-587.97C1164.46,-586.23 1176.51,-584.38 1188.17,-582.59"/>
<polygon fill="midnightblue" stroke="midnightblue" points="1188.94,-586.02 1198.3,-581.04 1187.88,-579.1 1188.94,-586.02"/>
</g>
<!-- Node17 -->
<g id="node17" class="node">
<title>Node17</title>
<g id="a_node17"><a xlink:href="a01361.html#a3d86c2c8d8e0ec6bf63a653ec89807a8" target="_top" xlink:title="Determine whether or not this hitstruct contains a hit.">
<polygon fill="white" stroke="black" points="1189,-508.5 1189,-538.5 1321,-538.5 1321,-508.5 1189,-508.5"/>
<text text-anchor="start" x="1197" y="-526.5" font-family="Helvetica,sans-Serif" font-size="10.00">HF::RayTracer::HitStruct</text>
<text text-anchor="middle" x="1255" y="-515.5" font-family="Helvetica,sans-Serif" font-size="10.00">::DidHit</text>
</a>
</g>
</g>
<!-- Node15&#45;&gt;Node17 -->
<g id="edge18" class="edge">
<title>Node15&#45;&gt;Node17</title>
<path fill="none" stroke="midnightblue" d="M1124.32,-581.38C1142.34,-571.48 1166.78,-558.56 1189,-548.5 1193.63,-546.4 1198.49,-544.32 1203.39,-542.3"/>
<polygon fill="midnightblue" stroke="midnightblue" points="1204.82,-545.5 1212.79,-538.52 1202.2,-539.01 1204.82,-545.5"/>
</g>
<!-- Node19 -->
<g id="node19" class="node">
<title>Node19</title>
<g id="a_node19"><a xlink:href="a01365.html#a7ee672618f7fe9ce6938978d93d18514" target="_top" xlink:title=" ">
<polygon fill="white" stroke="black" points="1192,-655.5 1192,-685.5 1318,-685.5 1318,-655.5 1192,-655.5"/>
<text text-anchor="start" x="1200" y="-673.5" font-family="Helvetica,sans-Serif" font-size="10.00">HF::RayTracer::MultiRT</text>
<text text-anchor="middle" x="1255" y="-662.5" font-family="Helvetica,sans-Serif" font-size="10.00">::Intersect</text>
</a>
</g>
</g>
<!-- Node15&#45;&gt;Node19 -->
<g id="edge20" class="edge">
<title>Node15&#45;&gt;Node19</title>
<path fill="none" stroke="midnightblue" d="M1122.63,-611.53C1140.73,-622.04 1165.93,-636.01 1189,-646.5 1192.88,-648.27 1196.93,-650 1201.03,-651.68"/>
<polygon fill="midnightblue" stroke="midnightblue" points="1200.05,-655.06 1210.63,-655.5 1202.63,-648.55 1200.05,-655.06"/>
</g>
<!-- Node20 -->
<g id="node20" class="node">
<title>Node20</title>
<g id="a_node20"><a xlink:href="a00397.html#a5ad3e8fac4a21eee744f3633f7a3692f" target="_top" xlink:title="Move a node in direction by dist units.">
<polygon fill="white" stroke="black" points="1198.5,-606.5 1198.5,-636.5 1311.5,-636.5 1311.5,-606.5 1198.5,-606.5"/>
<text text-anchor="start" x="1206.5" y="-624.5" font-family="Helvetica,sans-Serif" font-size="10.00">HF::GraphGenerator</text>
<text text-anchor="middle" x="1255" y="-613.5" font-family="Helvetica,sans-Serif" font-size="10.00">::MoveNode</text>
</a>
</g>
</g>
<!-- Node15&#45;&gt;Node20 -->
<g id="edge21" class="edge">
<title>Node15&#45;&gt;Node20</title>
<path fill="none" stroke="midnightblue" d="M1153.12,-605.38C1164.46,-607.2 1176.51,-609.12 1188.17,-610.98"/>
<polygon fill="midnightblue" stroke="midnightblue" points="1187.87,-614.48 1198.3,-612.6 1188.98,-607.57 1187.87,-614.48"/>
</g>
<!-- Node18 -->
<g id="node18" class="node">
<title>Node18</title>
<g id="a_node18"><a xlink:href="a00398.html#a2630761a64fac02a4ee33abaf5c885a1" target="_top" xlink:title=" ">
<polygon fill="white" stroke="black" points="1357,-514 1357,-533 1506,-533 1506,-514 1357,-514"/>
<text text-anchor="middle" x="1431.5" y="-521" font-family="Helvetica,sans-Serif" font-size="10.00">HF::RayTracer::DidIntersect</text>
</a>
</g>
</g>
<!-- Node17&#45;&gt;Node18 -->
<g id="edge19" class="edge">
<title>Node17&#45;&gt;Node18</title>
<path fill="none" stroke="midnightblue" d="M1321.47,-523.5C1329.66,-523.5 1338.11,-523.5 1346.52,-523.5"/>
<polygon fill="midnightblue" stroke="midnightblue" points="1346.75,-527 1356.75,-523.5 1346.75,-520 1346.75,-527"/>
</g>
<!-- Node22 -->
<g id="node22" class="node">
<title>Node22</title>
<g id="a_node22"><a xlink:href="a00397.html#a9daa85cb56a1b18d44f46aa9c420afde" target="_top" xlink:title="Determine if the slope between parent and child is traversable according to the graph parameters.">
<polygon fill="white" stroke="black" points="1040,-437.5 1040,-467.5 1153,-467.5 1153,-437.5 1040,-437.5"/>
<text text-anchor="start" x="1048" y="-455.5" font-family="Helvetica,sans-Serif" font-size="10.00">HF::GraphGenerator</text>
<text text-anchor="middle" x="1096.5" y="-444.5" font-family="Helvetica,sans-Serif" font-size="10.00">::CheckSlope</text>
</a>
</g>
</g>
<!-- Node21&#45;&gt;Node22 -->
<g id="edge23" class="edge">
<title>Node21&#45;&gt;Node22</title>
<path fill="none" stroke="midnightblue" d="M1001.67,-451.24C1010.81,-451.37 1020.37,-451.49 1029.73,-451.62"/>
<polygon fill="midnightblue" stroke="midnightblue" points="1029.74,-455.12 1039.79,-451.75 1029.83,-448.12 1029.74,-455.12"/>
</g>
<!-- Node23 -->
<g id="node23" class="node">
<title>Node23</title>
<g id="a_node23"><a xlink:href="a00397.html#ace66c1b60785c32433402f012019ab81" target="_top" xlink:title="Determine if there is a valid line of sight between parent and child.">
<polygon fill="white" stroke="black" points="1040,-388.5 1040,-418.5 1153,-418.5 1153,-388.5 1040,-388.5"/>
<text text-anchor="start" x="1048" y="-406.5" font-family="Helvetica,sans-Serif" font-size="10.00">HF::GraphGenerator</text>
<text text-anchor="middle" x="1096.5" y="-395.5" font-family="Helvetica,sans-Serif" font-size="10.00">::OcclusionCheck</text>
</a>
</g>
</g>
<!-- Node21&#45;&gt;Node23 -->
<g id="edge24" class="edge">
<title>Node21&#45;&gt;Node23</title>
<path fill="none" stroke="midnightblue" d="M993.71,-435.5C1007.74,-431.09 1023.23,-426.22 1037.81,-421.64"/>
<polygon fill="midnightblue" stroke="midnightblue" points="1039.24,-424.86 1047.73,-418.52 1037.14,-418.18 1039.24,-424.86"/>
</g>
<!-- Node23&#45;&gt;Node24 -->
<g id="edge25" class="edge">
<title>Node23&#45;&gt;Node24</title>
<path fill="none" stroke="midnightblue" d="M1148.74,-388.44C1162.87,-384.29 1178.33,-379.74 1192.95,-375.44"/>
<polygon fill="midnightblue" stroke="midnightblue" points="1194.3,-378.7 1202.91,-372.52 1192.33,-371.98 1194.3,-378.7"/>
</g>
<!-- Node25 -->
<g id="node25" class="node">
<title>Node25</title>
<g id="a_node25"><a xlink:href="a01365.html#a22ebf97e859ef651e81deb40b74f668f" target="_top" xlink:title=" ">
<polygon fill="white" stroke="black" points="1192,-391.5 1192,-421.5 1318,-421.5 1318,-391.5 1192,-391.5"/>
<text text-anchor="start" x="1200" y="-409.5" font-family="Helvetica,sans-Serif" font-size="10.00">HF::RayTracer::MultiRT</text>
<text text-anchor="middle" x="1255" y="-398.5" font-family="Helvetica,sans-Serif" font-size="10.00">::Occluded</text>
</a>
</g>
</g>
<!-- Node23&#45;&gt;Node25 -->
<g id="edge26" class="edge">
<title>Node23&#45;&gt;Node25</title>
<path fill="none" stroke="midnightblue" d="M1153.12,-404.57C1162.44,-404.74 1172.23,-404.93 1181.9,-405.12"/>
<polygon fill="midnightblue" stroke="midnightblue" points="1181.84,-408.62 1191.91,-405.31 1181.98,-401.62 1181.84,-408.62"/>
</g>
<!-- Node29 -->
<g id="node29" class="node">
<title>Node29</title>
<g id="a_node29"><a xlink:href="a01261.html#ae0dc637a2d7c3aae32d8f035ac6b8016" target="_top" xlink:title="Add a node to the queue if it has never previously been in the queue.">
<polygon fill="white" stroke="black" points="886,-533.5 886,-563.5 1004,-563.5 1004,-533.5 886,-533.5"/>
<text text-anchor="start" x="894" y="-551.5" font-family="Helvetica,sans-Serif" font-size="10.00">HF::GraphGenerator</text>
<text text-anchor="middle" x="945" y="-540.5" font-family="Helvetica,sans-Serif" font-size="10.00">::UniqueQueue::push</text>
</a>
</g>
</g>
<!-- Node28&#45;&gt;Node29 -->
<g id="edge31" class="edge">
<title>Node28&#45;&gt;Node29</title>
<path fill="none" stroke="midnightblue" d="M832.69,-577.48C846.75,-573.82 861.92,-569.87 876.39,-566.1"/>
<polygon fill="midnightblue" stroke="midnightblue" points="877.49,-569.43 886.29,-563.53 875.73,-562.66 877.49,-569.43"/>
</g>
<!-- Node30&#45;&gt;Node4 -->
<g id="edge34" class="edge">
<title>Node30&#45;&gt;Node4</title>
<path fill="none" stroke="midnightblue" d="M590.67,-306.86C607.76,-272.45 646.42,-203.14 698,-162.5 702.99,-158.57 708.56,-155.09 714.35,-152.03"/>
<polygon fill="midnightblue" stroke="midnightblue" points="716.11,-155.07 723.58,-147.55 713.05,-148.77 716.11,-155.07"/>
</g>
<!-- Node30&#45;&gt;Node7 -->
<g id="edge33" class="edge">
<title>Node30&#45;&gt;Node7</title>
<path fill="none" stroke="midnightblue" d="M662.15,-323.7C676.09,-323.04 690.47,-322.37 704.06,-321.73"/>
<polygon fill="midnightblue" stroke="midnightblue" points="704.45,-325.22 714.27,-321.25 704.12,-318.23 704.45,-325.22"/>
</g>
<!-- Node30&#45;&gt;Node8 -->
<g id="edge35" class="edge">
<title>Node30&#45;&gt;Node8</title>
<path fill="none" stroke="midnightblue" d="M627.83,-348.24C640.5,-355.83 653.14,-365.55 662,-377.5 699.25,-427.72 656.56,-466.68 698,-513.5 701.2,-517.12 704.9,-520.3 708.9,-523.11"/>
<polygon fill="midnightblue" stroke="midnightblue" points="707.12,-526.12 717.48,-528.35 710.77,-520.15 707.12,-526.12"/>
</g>
<!-- Node30&#45;&gt;Node10 -->
<g id="edge36" class="edge">
<title>Node30&#45;&gt;Node10</title>
<path fill="none" stroke="midnightblue" d="M662.15,-344.41C674.99,-347.08 688.19,-349.83 700.81,-352.46"/>
<polygon fill="midnightblue" stroke="midnightblue" points="700.28,-355.93 710.78,-354.54 701.71,-349.07 700.28,-355.93"/>
</g>
<!-- Node30&#45;&gt;Node11 -->
<g id="edge43" class="edge">
<title>Node30&#45;&gt;Node11</title>
<path fill="none" stroke="midnightblue" d="M591.79,-306.78C609.27,-275.75 647.03,-218.43 698,-195.5 762.55,-166.46 845.99,-185.2 897.22,-202.21"/>
<polygon fill="midnightblue" stroke="midnightblue" points="896.11,-205.53 906.7,-205.47 898.38,-198.91 896.11,-205.53"/>
</g>
<!-- Node30&#45;&gt;Node12 -->
<g id="edge37" class="edge">
<title>Node30&#45;&gt;Node12</title>
<path fill="none" stroke="midnightblue" d="M648.96,-306.97C670.01,-300.61 693.02,-293.66 713.45,-287.49"/>
<polygon fill="midnightblue" stroke="midnightblue" points="714.69,-290.77 723.25,-284.53 712.67,-284.07 714.69,-290.77"/>
</g>
<!-- Node30&#45;&gt;Node13 -->
<g id="edge38" class="edge">
<title>Node30&#45;&gt;Node13</title>
<path fill="none" stroke="midnightblue" d="M615.57,-348.22C630.04,-357.05 646.96,-367.59 662,-377.5 690.3,-396.15 721.85,-418.48 744.07,-434.46"/>
<polygon fill="midnightblue" stroke="midnightblue" points="742.23,-437.45 752.39,-440.46 746.33,-431.77 742.23,-437.45"/>
</g>
<!-- Node30&#45;&gt;Node29 -->
<g id="edge42" class="edge">
<title>Node30&#45;&gt;Node29</title>
<path fill="none" stroke="midnightblue" d="M626.41,-348.18C639.34,-355.86 652.48,-365.65 662,-377.5 692.38,-415.3 662.28,-447.7 698,-480.5 749.37,-527.67 782.88,-500.55 850,-519.5 862.06,-522.91 874.93,-526.74 887.16,-530.48"/>
<polygon fill="midnightblue" stroke="midnightblue" points="886.21,-533.85 896.79,-533.45 888.27,-527.16 886.21,-533.85"/>
</g>
<!-- Node31 -->
<g id="node31" class="node">
<title>Node31</title>
<g id="a_node31"><a xlink:href="a01261.html#ae941f357ddbefc3b670c43ce2d90b589" target="_top" xlink:title="Pop a set amount of nodes from the queue, and return them as a vector.">
<polygon fill="white" stroke="black" points="704,-205.5 704,-235.5 844,-235.5 844,-205.5 704,-205.5"/>
<text text-anchor="start" x="712" y="-223.5" font-family="Helvetica,sans-Serif" font-size="10.00">HF::GraphGenerator</text>
<text text-anchor="middle" x="774" y="-212.5" font-family="Helvetica,sans-Serif" font-size="10.00">::UniqueQueue::popMany</text>
</a>
</g>
</g>
<!-- Node30&#45;&gt;Node31 -->
<g id="edge39" class="edge">
<title>Node30&#45;&gt;Node31</title>
<path fill="none" stroke="midnightblue" d="M606.12,-306.65C628.93,-288.53 664.1,-262.57 698,-245.5 702.48,-243.24 707.21,-241.12 712.03,-239.14"/>
<polygon fill="midnightblue" stroke="midnightblue" points="713.31,-242.4 721.36,-235.51 710.77,-235.87 713.31,-242.4"/>
</g>
<!-- Node31&#45;&gt;Node11 -->
<g id="edge41" class="edge">
<title>Node31&#45;&gt;Node11</title>
<path fill="none" stroke="midnightblue" d="M844.23,-220.5C855.21,-220.5 866.55,-220.5 877.47,-220.5"/>
<polygon fill="midnightblue" stroke="midnightblue" points="877.79,-224 887.79,-220.5 877.79,-217 877.79,-224"/>
</g>
<!-- Node31&#45;&gt;Node27 -->
<g id="edge40" class="edge">
<title>Node31&#45;&gt;Node27</title>
<path fill="none" stroke="midnightblue" d="M823.36,-235.56C832.3,-238.65 841.49,-242.02 850,-245.5 869.01,-253.28 889.57,-263.16 906.59,-271.77"/>
<polygon fill="midnightblue" stroke="midnightblue" points="905.16,-274.97 915.65,-276.4 908.34,-268.73 905.16,-274.97"/>
</g>
<!-- Node33&#45;&gt;Node15 -->
<g id="edge47" class="edge">
<title>Node33&#45;&gt;Node15</title>
<path fill="none" stroke="midnightblue" d="M636.56,-606.14C655.87,-610.61 677.76,-615.01 698,-617.5 833,-634.14 869.28,-641.27 1004,-622.5 1016.52,-620.76 1029.73,-617.73 1042.1,-614.35"/>
<polygon fill="midnightblue" stroke="midnightblue" points="1043.16,-617.68 1051.82,-611.57 1041.24,-610.95 1043.16,-617.68"/>
</g>
<!-- Node35 -->
<g id="node35" class="node">
<title>Node35</title>
<g id="a_node35"><a xlink:href="a00403.html#a06c0c11adb62f8b204e42f75ac1990ac" target="_top" xlink:title="Create MeshInfo instances from the OBJ at path.">
<polygon fill="white" stroke="black" points="286,-41 286,-60 462,-60 462,-41 286,-41"/>
<text text-anchor="middle" x="374" y="-48" font-family="Helvetica,sans-Serif" font-size="10.00">HF::Geometry::LoadMeshObjects</text>
</a>
</g>
</g>
<!-- Node34&#45;&gt;Node35 -->
<g id="edge49" class="edge">
<title>Node34&#45;&gt;Node35</title>
<path fill="none" stroke="midnightblue" d="M236.55,-56.39C249.21,-55.84 262.57,-55.27 275.79,-54.7"/>
<polygon fill="midnightblue" stroke="midnightblue" points="276.01,-58.19 285.85,-54.26 275.71,-51.2 276.01,-58.19"/>
</g>
<!-- Node36 -->
<g id="node36" class="node">
<title>Node36</title>
<g id="a_node36"><a xlink:href="a00403.html#a4f0c57b862a0826821217d8c3ac849c4" target="_top" xlink:title=" ">
<polygon fill="white" stroke="black" points="513,-41 513,-60 647,-60 647,-41 513,-41"/>
<text text-anchor="middle" x="580" y="-48" font-family="Helvetica,sans-Serif" font-size="10.00">HF::Geometry::MeshInfo</text>
</a>
</g>
</g>
<!-- Node35&#45;&gt;Node36 -->
<g id="edge50" class="edge">
<title>Node35&#45;&gt;Node36</title>
<path fill="none" stroke="midnightblue" d="M462.11,-50.5C475.65,-50.5 489.56,-50.5 502.84,-50.5"/>
<polygon fill="midnightblue" stroke="midnightblue" points="502.86,-54 512.86,-50.5 502.86,-47 502.86,-54"/>
</g>
</g>
</svg>
