<?xml version="1.0" encoding="UTF-8" standalone="no"?>
<!DOCTYPE svg PUBLIC "-//W3C//DTD SVG 1.1//EN"
 "http://www.w3.org/Graphics/SVG/1.1/DTD/svg11.dtd">
<!-- Generated by graphviz version 2.43.0 (0)
 -->
<!-- Title: std::hash_combine_impl Pages: 1 -->
<svg width="353pt" height="52pt"
 viewBox="0.00 0.00 353.00 51.50" xmlns="http://www.w3.org/2000/svg" xmlns:xlink="http://www.w3.org/1999/xlink">
<g id="graph0" class="graph" transform="scale(1 1) rotate(0) translate(4 47.5)">
<title>std::hash_combine_impl</title>
<polygon fill="white" stroke="transparent" points="-4,4 -4,-47.5 349,-47.5 349,4 -4,4"/>
<!-- Node1 -->
<g id="node1" class="node">
<title>Node1</title>
<g id="a_node1"><a xlink:title="combine value into the hash value of seed">
<polygon fill="#bfbfbf" stroke="black" points="210,-6 210,-25 345,-25 345,-6 210,-6"/>
<text text-anchor="middle" x="277.5" y="-13" font-family="Helvetica,sans-Serif" font-size="10.00">std::hash_combine_impl</text>
</a>
</g>
</g>
<!-- Node1&#45;&gt;Node1 -->
<g id="edge1" class="edge">
<title>Node1&#45;&gt;Node1</title>
<path fill="none" stroke="midnightblue" d="M313.12,-33C313.12,-38.84 301.24,-43.5 277.5,-43.5 243.73,-43.5 233.97,-34.07 248.22,-25.26"/>
<polygon fill="midnightblue" stroke="midnightblue" points="315.83,-30.78 306.78,-25.26 310.41,-35.21 315.83,-30.78"/>
</g>
<!-- Node2 -->
<g id="node2" class="node">
<title>Node2</title>
<g id="a_node2"><a xlink:href="a02021.html#ae698fc86d39e9e05ca2f030654fa45ca" target="_top" xlink:title=" ">
<polygon fill="white" stroke="black" points="0,-0.5 0,-30.5 174,-30.5 174,-0.5 0,-0.5"/>
<text text-anchor="start" x="8" y="-18.5" font-family="Helvetica,sans-Serif" font-size="10.00">std::hash&lt; HF::SpatialStructures</text>
<text text-anchor="middle" x="87" y="-7.5" font-family="Helvetica,sans-Serif" font-size="10.00">::Node &gt;::operator()</text>
</a>
</g>
</g>
<!-- Node1&#45;&gt;Node2 -->
<g id="edge2" class="edge">
<title>Node1&#45;&gt;Node2</title>
<path fill="none" stroke="midnightblue" d="M199.63,-15.5C191.22,-15.5 182.62,-15.5 174.11,-15.5"/>
<polygon fill="midnightblue" stroke="midnightblue" points="199.78,-19 209.78,-15.5 199.78,-12 199.78,-19"/>
</g>
</g>
</svg>
