<?xml version="1.0" encoding="UTF-8" standalone="no"?>
<!DOCTYPE svg PUBLIC "-//W3C//DTD SVG 1.1//EN"
 "http://www.w3.org/Graphics/SVG/1.1/DTD/svg11.dtd">
<!-- Generated by graphviz version 2.43.0 (0)
 -->
<!-- Title: Cpp/spatialstructures/src/graph.h Pages: 1 -->
<svg width="3748pt" height="106pt"
 viewBox="0.00 0.00 3747.50 106.00" xmlns="http://www.w3.org/2000/svg" xmlns:xlink="http://www.w3.org/1999/xlink">
<g id="graph0" class="graph" transform="scale(1 1) rotate(0) translate(4 102)">
<title>Cpp/spatialstructures/src/graph.h</title>
<polygon fill="white" stroke="transparent" points="-4,4 -4,-102 3743.5,-102 3743.5,4 -4,4"/>
<!-- Node1 -->
<g id="node1" class="node">
<title>Node1</title>
<g id="a_node1"><a xlink:title="Contains definitions for the Graph &#160;class.">
<polygon fill="#bfbfbf" stroke="black" points="1834.5,-67.5 1834.5,-97.5 1954.5,-97.5 1954.5,-67.5 1834.5,-67.5"/>
<text text-anchor="start" x="1842.5" y="-85.5" font-family="Helvetica,sans-Serif" font-size="10.00">Cpp/spatialstructures</text>
<text text-anchor="middle" x="1894.5" y="-74.5" font-family="Helvetica,sans-Serif" font-size="10.00">/src/graph.h</text>
</a>
</g>
</g>
<!-- Node2 -->
<g id="node2" class="node">
<title>Node2</title>
<g id="a_node2"><a xlink:href="a00005.html" target="_top" xlink:title="Contains implementation for the functions in the GraphGenerator class.">
<polygon fill="white" stroke="black" points="0,-0.5 0,-30.5 137,-30.5 137,-0.5 0,-0.5"/>
<text text-anchor="start" x="8" y="-18.5" font-family="Helvetica,sans-Serif" font-size="10.00">Cpp/analysismethods</text>
<text text-anchor="middle" x="68.5" y="-7.5" font-family="Helvetica,sans-Serif" font-size="10.00">/src/graph_generator.cpp</text>
</a>
</g>
</g>
<!-- Node1&#45;&gt;Node2 -->
<g id="edge1" class="edge">
<title>Node1&#45;&gt;Node2</title>
<path fill="none" stroke="midnightblue" d="M1824.19,-80.92C1540.6,-78.37 480.11,-66.61 146.5,-31 143.49,-30.68 140.42,-30.3 137.32,-29.89"/>
<polygon fill="midnightblue" stroke="midnightblue" points="1824.32,-84.42 1834.35,-81.01 1824.38,-77.43 1824.32,-84.42"/>
</g>
<!-- Node3 -->
<g id="node3" class="node">
<title>Node3</title>
<g id="a_node3"><a xlink:href="a00026.html" target="_top" xlink:title="Contains implementation for the VisibilityGraph class.">
<polygon fill="white" stroke="black" points="155.5,-0.5 155.5,-30.5 287.5,-30.5 287.5,-0.5 155.5,-0.5"/>
<text text-anchor="start" x="163.5" y="-18.5" font-family="Helvetica,sans-Serif" font-size="10.00">Cpp/analysismethods</text>
<text text-anchor="middle" x="221.5" y="-7.5" font-family="Helvetica,sans-Serif" font-size="10.00">/src/visibility_graph.cpp</text>
</a>
</g>
</g>
<!-- Node1&#45;&gt;Node3 -->
<g id="edge2" class="edge">
<title>Node1&#45;&gt;Node3</title>
<path fill="none" stroke="midnightblue" d="M1824.11,-80.77C1556.06,-77.75 599,-64.8 296.5,-31 293.6,-30.68 290.65,-30.3 287.67,-29.88"/>
<polygon fill="midnightblue" stroke="midnightblue" points="1824.45,-84.27 1834.48,-80.88 1824.52,-77.27 1824.45,-84.27"/>
</g>
<!-- Node4 -->
<g id="node4" class="node">
<title>Node4</title>
<g id="a_node4"><a xlink:href="a00131.html" target="_top" xlink:title="Contains implementation for the BoostGraph class.">
<polygon fill="white" stroke="black" points="305.5,-0.5 305.5,-30.5 415.5,-30.5 415.5,-0.5 305.5,-0.5"/>
<text text-anchor="start" x="313.5" y="-18.5" font-family="Helvetica,sans-Serif" font-size="10.00">Cpp/pathfinding/src</text>
<text text-anchor="middle" x="360.5" y="-7.5" font-family="Helvetica,sans-Serif" font-size="10.00">/boost_graph.cpp</text>
</a>
</g>
</g>
<!-- Node1&#45;&gt;Node4 -->
<g id="edge3" class="edge">
<title>Node1&#45;&gt;Node4</title>
<path fill="none" stroke="midnightblue" d="M1824.26,-80.84C1570.29,-78.19 700.2,-66.64 424.5,-31 421.56,-30.62 418.56,-30.17 415.54,-29.66"/>
<polygon fill="midnightblue" stroke="midnightblue" points="1824.43,-84.34 1834.46,-80.95 1824.5,-77.34 1824.43,-84.34"/>
</g>
<!-- Node5 -->
<g id="node5" class="node">
<title>Node5</title>
<g id="a_node5"><a xlink:href="a00179.html" target="_top" xlink:title="Contains implementation for the CInterface.">
<polygon fill="white" stroke="black" points="433.5,-0.5 433.5,-30.5 553.5,-30.5 553.5,-0.5 433.5,-0.5"/>
<text text-anchor="start" x="441.5" y="-18.5" font-family="Helvetica,sans-Serif" font-size="10.00">Cpp/spatialstructures</text>
<text text-anchor="middle" x="493.5" y="-7.5" font-family="Helvetica,sans-Serif" font-size="10.00">/src/CInterface.cpp</text>
</a>
</g>
</g>
<!-- Node1&#45;&gt;Node5 -->
<g id="edge4" class="edge">
<title>Node1&#45;&gt;Node5</title>
<path fill="none" stroke="midnightblue" d="M1824.18,-80.41C1585.9,-76.45 810.18,-61.5 562.5,-31 559.58,-30.64 556.61,-30.22 553.61,-29.76"/>
<polygon fill="midnightblue" stroke="midnightblue" points="1824.39,-83.91 1834.44,-80.57 1824.5,-76.91 1824.39,-83.91"/>
</g>
<!-- Node6 -->
<g id="node6" class="node">
<title>Node6</title>
<g id="a_node6"><a xlink:href="a00188.html" target="_top" xlink:title=" ">
<polygon fill="white" stroke="black" points="572,-0.5 572,-30.5 707,-30.5 707,-0.5 572,-0.5"/>
<text text-anchor="start" x="580" y="-18.5" font-family="Helvetica,sans-Serif" font-size="10.00">Cpp/spatialstructures</text>
<text text-anchor="middle" x="639.5" y="-7.5" font-family="Helvetica,sans-Serif" font-size="10.00">/src/cost_algorithms.cpp</text>
</a>
</g>
</g>
<!-- Node1&#45;&gt;Node6 -->
<g id="edge5" class="edge">
<title>Node1&#45;&gt;Node6</title>
<path fill="none" stroke="midnightblue" d="M1824.15,-81.99C1641.02,-82.5 1134.64,-79.08 716.5,-31 713.39,-30.64 710.22,-30.23 707.02,-29.78"/>
<polygon fill="midnightblue" stroke="midnightblue" points="1824.2,-85.49 1834.19,-81.96 1824.18,-78.49 1824.2,-85.49"/>
</g>
<!-- Node7 -->
<g id="node7" class="node">
<title>Node7</title>
<g id="a_node7"><a xlink:href="a00200.html" target="_top" xlink:title="Contains implementation for the Graph class.">
<polygon fill="white" stroke="black" points="725.5,-0.5 725.5,-30.5 845.5,-30.5 845.5,-0.5 725.5,-0.5"/>
<text text-anchor="start" x="733.5" y="-18.5" font-family="Helvetica,sans-Serif" font-size="10.00">Cpp/spatialstructures</text>
<text text-anchor="middle" x="785.5" y="-7.5" font-family="Helvetica,sans-Serif" font-size="10.00">/src/graph.cpp</text>
</a>
</g>
</g>
<!-- Node1&#45;&gt;Node7 -->
<g id="edge6" class="edge">
<title>Node1&#45;&gt;Node7</title>
<path fill="none" stroke="midnightblue" d="M1824.21,-81.92C1655.97,-82.09 1217.15,-77.61 854.5,-31 851.59,-30.63 848.61,-30.19 845.62,-29.72"/>
<polygon fill="midnightblue" stroke="midnightblue" points="1824.42,-85.42 1834.41,-81.9 1824.41,-78.42 1824.42,-85.42"/>
</g>
<!-- Node8 -->
<g id="node8" class="node">
<title>Node8</title>
<g id="a_node8"><a xlink:href="a00287.html" target="_top" xlink:title=" ">
<polygon fill="white" stroke="black" points="863.5,-6 863.5,-25 1049.5,-25 1049.5,-6 863.5,-6"/>
<text text-anchor="middle" x="956.5" y="-13" font-family="Helvetica,sans-Serif" font-size="10.00">Cpp/tests/src/AnalysisMethods.cpp</text>
</a>
</g>
</g>
<!-- Node1&#45;&gt;Node8 -->
<g id="edge7" class="edge">
<title>Node1&#45;&gt;Node8</title>
<path fill="none" stroke="midnightblue" d="M1824.28,-79.18C1680.35,-73.99 1341.58,-59.62 1058.5,-31 1042.93,-29.43 1026.09,-27.23 1010.66,-25.03"/>
<polygon fill="midnightblue" stroke="midnightblue" points="1824.18,-82.68 1834.3,-79.53 1824.43,-75.68 1824.18,-82.68"/>
</g>
<!-- Node9 -->
<g id="node9" class="node">
<title>Node9</title>
<g id="a_node9"><a xlink:href="a00290.html" target="_top" xlink:title=" ">
<polygon fill="white" stroke="black" points="1067.5,-6 1067.5,-25 1245.5,-25 1245.5,-6 1067.5,-6"/>
<text text-anchor="middle" x="1156.5" y="-13" font-family="Helvetica,sans-Serif" font-size="10.00">Cpp/tests/src/CostAlgorithms.cpp</text>
</a>
</g>
</g>
<!-- Node1&#45;&gt;Node9 -->
<g id="edge8" class="edge">
<title>Node1&#45;&gt;Node9</title>
<path fill="none" stroke="midnightblue" d="M1824.28,-77.58C1706.18,-70.62 1460.42,-54.59 1253.5,-31 1239.04,-29.35 1223.41,-27.19 1209.02,-25.03"/>
<polygon fill="midnightblue" stroke="midnightblue" points="1824.08,-81.07 1834.27,-78.16 1824.49,-74.08 1824.08,-81.07"/>
</g>
<!-- Node10 -->
<g id="node10" class="node">
<title>Node10</title>
<g id="a_node10"><a xlink:href="a00296.html" target="_top" xlink:title=" ">
<polygon fill="white" stroke="black" points="1263,-6 1263,-25 1448,-25 1448,-6 1263,-6"/>
<text text-anchor="middle" x="1355.5" y="-13" font-family="Helvetica,sans-Serif" font-size="10.00">Cpp/tests/src/GraphAlgorithms.cpp</text>
</a>
</g>
</g>
<!-- Node1&#45;&gt;Node10 -->
<g id="edge9" class="edge">
<title>Node1&#45;&gt;Node10</title>
<path fill="none" stroke="midnightblue" d="M1824.41,-73.97C1738.03,-64.56 1586.83,-47.66 1457.5,-31 1443.22,-29.16 1427.83,-27.04 1413.45,-25.01"/>
<polygon fill="midnightblue" stroke="midnightblue" points="1824.04,-77.45 1834.36,-75.05 1824.79,-70.49 1824.04,-77.45"/>
</g>
<!-- Node11 -->
<g id="node11" class="node">
<title>Node11</title>
<g id="a_node11"><a xlink:href="a00299.html" target="_top" xlink:title=" ">
<polygon fill="white" stroke="black" points="1466.5,-6 1466.5,-25 1646.5,-25 1646.5,-6 1466.5,-6"/>
<text text-anchor="middle" x="1556.5" y="-13" font-family="Helvetica,sans-Serif" font-size="10.00">Cpp/tests/src/GraphGenerator.cpp</text>
</a>
</g>
</g>
<!-- Node1&#45;&gt;Node11 -->
<g id="edge10" class="edge">
<title>Node1&#45;&gt;Node11</title>
<path fill="none" stroke="midnightblue" d="M1824.38,-68.02C1757.18,-55.09 1657.82,-35.98 1600.9,-25.04"/>
<polygon fill="midnightblue" stroke="midnightblue" points="1823.98,-71.5 1834.46,-69.95 1825.3,-64.63 1823.98,-71.5"/>
</g>
<!-- Node12 -->
<g id="node12" class="node">
<title>Node12</title>
<g id="a_node12"><a xlink:href="a00308.html" target="_top" xlink:title="Unit test source file for testing pathfinder functionality (C Interface)">
<polygon fill="white" stroke="black" points="1664.5,-0.5 1664.5,-30.5 1796.5,-30.5 1796.5,-0.5 1664.5,-0.5"/>
<text text-anchor="start" x="1672.5" y="-18.5" font-family="Helvetica,sans-Serif" font-size="10.00">Cpp/tests/src/pathfinder</text>
<text text-anchor="middle" x="1730.5" y="-7.5" font-family="Helvetica,sans-Serif" font-size="10.00">_C_cinterface.cpp</text>
</a>
</g>
</g>
<!-- Node1&#45;&gt;Node12 -->
<g id="edge11" class="edge">
<title>Node1&#45;&gt;Node12</title>
<path fill="none" stroke="midnightblue" d="M1849.54,-63.68C1823.24,-53.26 1790.5,-40.28 1766.02,-30.58"/>
<polygon fill="midnightblue" stroke="midnightblue" points="1848.33,-66.97 1858.91,-67.4 1850.91,-60.46 1848.33,-66.97"/>
</g>
<!-- Node13 -->
<g id="node13" class="node">
<title>Node13</title>
<g id="a_node13"><a xlink:href="a00311.html" target="_top" xlink:title=" ">
<polygon fill="white" stroke="black" points="1815,-6 1815,-25 1974,-25 1974,-6 1815,-6"/>
<text text-anchor="middle" x="1894.5" y="-13" font-family="Helvetica,sans-Serif" font-size="10.00">Cpp/tests/src/PathFinding.cpp</text>
</a>
</g>
</g>
<!-- Node1&#45;&gt;Node13 -->
<g id="edge12" class="edge">
<title>Node1&#45;&gt;Node13</title>
<path fill="none" stroke="midnightblue" d="M1894.5,-57.25C1894.5,-46.02 1894.5,-33.38 1894.5,-25.19"/>
<polygon fill="midnightblue" stroke="midnightblue" points="1891,-57.4 1894.5,-67.4 1898,-57.4 1891,-57.4"/>
</g>
<!-- Node14 -->
<g id="node14" class="node">
<title>Node14</title>
<g id="a_node14"><a xlink:href="a00314.html" target="_top" xlink:title=" ">
<polygon fill="white" stroke="black" points="1992,-6 1992,-25 2157,-25 2157,-6 1992,-6"/>
<text text-anchor="middle" x="2074.5" y="-13" font-family="Helvetica,sans-Serif" font-size="10.00">Cpp/tests/src/performance.cpp</text>
</a>
</g>
</g>
<!-- Node1&#45;&gt;Node14 -->
<g id="edge13" class="edge">
<title>Node1&#45;&gt;Node14</title>
<path fill="none" stroke="midnightblue" d="M1943.11,-63.95C1978.07,-51.32 2023.68,-34.85 2050.94,-25.01"/>
<polygon fill="midnightblue" stroke="midnightblue" points="1941.77,-60.71 1933.56,-67.4 1944.15,-67.29 1941.77,-60.71"/>
</g>
<!-- Node15 -->
<g id="node15" class="node">
<title>Node15</title>
<g id="a_node15"><a xlink:href="a00320.html" target="_top" xlink:title=" ">
<polygon fill="white" stroke="black" points="2175.5,-6 2175.5,-25 2361.5,-25 2361.5,-6 2175.5,-6"/>
<text text-anchor="middle" x="2268.5" y="-13" font-family="Helvetica,sans-Serif" font-size="10.00">Cpp/tests/src/SpatialStructures.cpp</text>
</a>
</g>
</g>
<!-- Node1&#45;&gt;Node15 -->
<g id="edge14" class="edge">
<title>Node1&#45;&gt;Node15</title>
<path fill="none" stroke="midnightblue" d="M1964.79,-69.28C2039.04,-56.38 2154.21,-36.36 2219.31,-25.05"/>
<polygon fill="midnightblue" stroke="midnightblue" points="1963.84,-65.9 1954.59,-71.06 1965.04,-72.79 1963.84,-65.9"/>
</g>
<!-- Node16 -->
<g id="node16" class="node">
<title>Node16</title>
<g id="a_node16"><a xlink:href="a00323.html" target="_top" xlink:title="Unit test source file for functions tested from spatialstructures_C.h.">
<polygon fill="white" stroke="black" points="2379.5,-0.5 2379.5,-30.5 2543.5,-30.5 2543.5,-0.5 2379.5,-0.5"/>
<text text-anchor="start" x="2387.5" y="-18.5" font-family="Helvetica,sans-Serif" font-size="10.00">Cpp/tests/src/spatialstructures</text>
<text text-anchor="middle" x="2461.5" y="-7.5" font-family="Helvetica,sans-Serif" font-size="10.00">_C_cinterface.cpp</text>
</a>
</g>
</g>
<!-- Node1&#45;&gt;Node16 -->
<g id="edge15" class="edge">
<title>Node1&#45;&gt;Node16</title>
<path fill="none" stroke="midnightblue" d="M1964.87,-75.2C2057.88,-66.6 2226.78,-50.06 2370.5,-31 2373.35,-30.62 2376.26,-30.22 2379.19,-29.81"/>
<polygon fill="midnightblue" stroke="midnightblue" points="1964.37,-71.73 1954.73,-76.13 1965.01,-78.7 1964.37,-71.73"/>
</g>
<!-- Node17 -->
<g id="node17" class="node">
<title>Node17</title>
<g id="a_node17"><a xlink:href="a00329.html" target="_top" xlink:title=" ">
<polygon fill="white" stroke="black" points="2561.5,-6 2561.5,-25 2729.5,-25 2729.5,-6 2561.5,-6"/>
<text text-anchor="middle" x="2645.5" y="-13" font-family="Helvetica,sans-Serif" font-size="10.00">Cpp/tests/src/ViewAnalysis.cpp</text>
</a>
</g>
</g>
<!-- Node1&#45;&gt;Node17 -->
<g id="edge16" class="edge">
<title>Node1&#45;&gt;Node17</title>
<path fill="none" stroke="midnightblue" d="M1964.72,-77.92C2085.23,-71.36 2339.07,-55.79 2552.5,-31 2566.46,-29.38 2581.54,-27.21 2595.4,-25.05"/>
<polygon fill="midnightblue" stroke="midnightblue" points="1964.33,-74.43 1954.53,-78.47 1964.7,-81.42 1964.33,-74.43"/>
</g>
<!-- Node18 -->
<g id="node18" class="node">
<title>Node18</title>
<g id="a_node18"><a xlink:href="a00332.html" target="_top" xlink:title="Unit test source file for testing the functionality of visibility_graph_C.">
<polygon fill="white" stroke="black" points="2747,-0.5 2747,-30.5 2872,-30.5 2872,-0.5 2747,-0.5"/>
<text text-anchor="start" x="2755" y="-18.5" font-family="Helvetica,sans-Serif" font-size="10.00">Cpp/tests/src/visibility</text>
<text text-anchor="middle" x="2809.5" y="-7.5" font-family="Helvetica,sans-Serif" font-size="10.00">_graph_cinterface.cpp</text>
</a>
</g>
</g>
<!-- Node1&#45;&gt;Node18 -->
<g id="edge17" class="edge">
<title>Node1&#45;&gt;Node18</title>
<path fill="none" stroke="midnightblue" d="M1964.75,-80.65C2109.89,-78.17 2453.18,-68.48 2738.5,-31 2741.24,-30.64 2744.04,-30.23 2746.86,-29.79"/>
<polygon fill="midnightblue" stroke="midnightblue" points="1964.58,-77.16 1954.64,-80.82 1964.7,-84.16 1964.58,-77.16"/>
</g>
<!-- Node19 -->
<g id="node19" class="node">
<title>Node19</title>
<g id="a_node19"><a xlink:href="a00335.html" target="_top" xlink:title=" ">
<polygon fill="white" stroke="black" points="2890,-0.5 2890,-30.5 3015,-30.5 3015,-0.5 2890,-0.5"/>
<text text-anchor="start" x="2898" y="-18.5" font-family="Helvetica,sans-Serif" font-size="10.00">Cpp/tests/src/Visibility</text>
<text text-anchor="middle" x="2952.5" y="-7.5" font-family="Helvetica,sans-Serif" font-size="10.00">Graph.cpp</text>
</a>
</g>
</g>
<!-- Node1&#45;&gt;Node19 -->
<g id="edge18" class="edge">
<title>Node1&#45;&gt;Node19</title>
<path fill="none" stroke="midnightblue" d="M1964.9,-81.52C2127.2,-80.78 2539.85,-74.38 2881.5,-31 2884.25,-30.65 2887.04,-30.26 2889.87,-29.82"/>
<polygon fill="midnightblue" stroke="midnightblue" points="1964.57,-78.02 1954.58,-81.56 1964.59,-85.02 1964.57,-78.02"/>
</g>
<!-- Node20 -->
<g id="node20" class="node">
<title>Node20</title>
<g id="a_node20"><a xlink:href="a00338.html" target="_top" xlink:title=" ">
<polygon fill="white" stroke="black" points="3033.5,-0.5 3033.5,-30.5 3143.5,-30.5 3143.5,-0.5 3033.5,-0.5"/>
<text text-anchor="start" x="3041.5" y="-18.5" font-family="Helvetica,sans-Serif" font-size="10.00">Cinterface/analysis</text>
<text text-anchor="middle" x="3088.5" y="-7.5" font-family="Helvetica,sans-Serif" font-size="10.00">_C.cpp</text>
</a>
</g>
</g>
<!-- Node1&#45;&gt;Node20 -->
<g id="edge19" class="edge">
<title>Node1&#45;&gt;Node20</title>
<path fill="none" stroke="midnightblue" d="M1964.8,-80C2178.47,-75.18 2818.17,-58.76 3024.5,-31 3027.44,-30.61 3030.44,-30.14 3033.46,-29.63"/>
<polygon fill="midnightblue" stroke="midnightblue" points="1964.57,-76.5 1954.65,-80.23 1964.73,-83.5 1964.57,-76.5"/>
</g>
<!-- Node21 -->
<g id="node21" class="node">
<title>Node21</title>
<g id="a_node21"><a xlink:href="a00356.html" target="_top" xlink:title=" ">
<polygon fill="white" stroke="black" points="3162,-0.5 3162,-30.5 3281,-30.5 3281,-0.5 3162,-0.5"/>
<text text-anchor="start" x="3170" y="-18.5" font-family="Helvetica,sans-Serif" font-size="10.00">Cinterface/pathfinder</text>
<text text-anchor="middle" x="3221.5" y="-7.5" font-family="Helvetica,sans-Serif" font-size="10.00">_C.cpp</text>
</a>
</g>
</g>
<!-- Node1&#45;&gt;Node21 -->
<g id="edge20" class="edge">
<title>Node1&#45;&gt;Node21</title>
<path fill="none" stroke="midnightblue" d="M1964.77,-80.23C2194.19,-75.82 2919.91,-59.9 3152.5,-31 3155.54,-30.62 3158.64,-30.18 3161.76,-29.69"/>
<polygon fill="midnightblue" stroke="midnightblue" points="1964.48,-76.73 1954.54,-80.42 1964.61,-83.73 1964.48,-76.73"/>
</g>
<!-- Node22 -->
<g id="node22" class="node">
<title>Node22</title>
<g id="a_node22"><a xlink:href="a00368.html" target="_top" xlink:title=" ">
<polygon fill="white" stroke="black" points="3299.5,-0.5 3299.5,-30.5 3451.5,-30.5 3451.5,-0.5 3299.5,-0.5"/>
<text text-anchor="start" x="3307.5" y="-18.5" font-family="Helvetica,sans-Serif" font-size="10.00">Cinterface/spatialstructures</text>
<text text-anchor="middle" x="3375.5" y="-7.5" font-family="Helvetica,sans-Serif" font-size="10.00">_C.cpp</text>
</a>
</g>
</g>
<!-- Node1&#45;&gt;Node22 -->
<g id="edge21" class="edge">
<title>Node1&#45;&gt;Node22</title>
<path fill="none" stroke="midnightblue" d="M1964.83,-80.19C2210.43,-75.44 3029.19,-57.89 3290.5,-31 3293.33,-30.71 3296.21,-30.38 3299.11,-30.02"/>
<polygon fill="midnightblue" stroke="midnightblue" points="1964.53,-76.7 1954.6,-80.39 1964.67,-83.7 1964.53,-76.7"/>
</g>
<!-- Node23 -->
<g id="node23" class="node">
<title>Node23</title>
<g id="a_node23"><a xlink:href="a00374.html" target="_top" xlink:title=" ">
<polygon fill="white" stroke="black" points="3470,-0.5 3470,-30.5 3609,-30.5 3609,-0.5 3470,-0.5"/>
<text text-anchor="start" x="3478" y="-18.5" font-family="Helvetica,sans-Serif" font-size="10.00">Cinterface/view_analysis</text>
<text text-anchor="middle" x="3539.5" y="-7.5" font-family="Helvetica,sans-Serif" font-size="10.00">_C.cpp</text>
</a>
</g>
</g>
<!-- Node1&#45;&gt;Node23 -->
<g id="edge22" class="edge">
<title>Node1&#45;&gt;Node23</title>
<path fill="none" stroke="midnightblue" d="M1964.8,-80.63C2229.28,-77.14 3164.41,-62.77 3460.5,-31 3463.55,-30.67 3466.66,-30.29 3469.8,-29.88"/>
<polygon fill="midnightblue" stroke="midnightblue" points="1964.52,-77.13 1954.57,-80.76 1964.61,-84.13 1964.52,-77.13"/>
</g>
<!-- Node24 -->
<g id="node24" class="node">
<title>Node24</title>
<g id="a_node24"><a xlink:href="a00380.html" target="_top" xlink:title=" ">
<polygon fill="white" stroke="black" points="3627.5,-0.5 3627.5,-30.5 3739.5,-30.5 3739.5,-0.5 3627.5,-0.5"/>
<text text-anchor="start" x="3635.5" y="-18.5" font-family="Helvetica,sans-Serif" font-size="10.00">Cinterface/visibility</text>
<text text-anchor="middle" x="3683.5" y="-7.5" font-family="Helvetica,sans-Serif" font-size="10.00">_graph_C.cpp</text>
</a>
</g>
</g>
<!-- Node1&#45;&gt;Node24 -->
<g id="edge23" class="edge">
<title>Node1&#45;&gt;Node24</title>
<path fill="none" stroke="midnightblue" d="M1964.82,-81.22C2246.07,-79.84 3290.52,-72.01 3618.5,-31 3621.37,-30.64 3624.3,-30.21 3627.24,-29.74"/>
<polygon fill="midnightblue" stroke="midnightblue" points="1964.73,-77.72 1954.75,-81.27 1964.77,-84.72 1964.73,-77.72"/>
</g>
</g>
</svg>
