<?xml version="1.0" encoding="UTF-8" standalone="no"?>
<!DOCTYPE svg PUBLIC "-//W3C//DTD SVG 1.1//EN"
 "http://www.w3.org/Graphics/SVG/1.1/DTD/svg11.dtd">
<!-- Generated by graphviz version 8.0.5 (20230430.1635)
 -->
<!-- Title: Cpp/spatialstructures/src/graph.h Pages: 1 -->
<svg width="350pt" height="208pt"
 viewBox="0.00 0.00 349.50 208.00" xmlns="http://www.w3.org/2000/svg" xmlns:xlink="http://www.w3.org/1999/xlink">
<g id="graph0" class="graph" transform="scale(1 1) rotate(0) translate(4 204)">
<title>Cpp/spatialstructures/src/graph.h</title>
<!-- Node1 -->
<g id="node1" class="node">
<title>Node1</title>
<g id="a_node1"><a xlink:title="Contains definitions for the Graph &#160;class.">
<polygon fill="#999999" stroke="#666666" points="229.88,-200 121.63,-200 121.63,-168 229.88,-168 229.88,-200"/>
<text text-anchor="start" x="129.63" y="-186.5" font-family="Helvetica,sans-Serif" font-size="10.00">Cpp/spatialstructures</text>
<text text-anchor="middle" x="175.75" y="-174.5" font-family="Helvetica,sans-Serif" font-size="10.00">/src/graph.h</text>
</a>
</g>
</g>
<!-- Node2 -->
<g id="node2" class="node">
<title>Node2</title>
<g id="a_node2"><a xlink:title=" ">
<polygon fill="#e0e0e0" stroke="#999999" points="71.5,-132 0,-132 0,-112 71.5,-112 71.5,-132"/>
<text text-anchor="middle" x="35.75" y="-118.5" font-family="Helvetica,sans-Serif" font-size="10.00">robin_hood.h</text>
</a>
</g>
</g>
<!-- Node1&#45;&gt;Node2 -->
<g id="edge1" class="edge">
<title>Node1&#45;&gt;Node2</title>
<path fill="none" stroke="#63b8ff" d="M139.7,-167.55C117.42,-158 89.08,-145.86 67.63,-136.66"/>
<polygon fill="#63b8ff" stroke="#63b8ff" points="69.27,-133.13 58.7,-132.41 66.51,-139.56 69.27,-133.13"/>
</g>
<!-- Node3 -->
<g id="node3" class="node">
<title>Node3</title>
<g id="a_node3"><a xlink:title=" ">
<polygon fill="#e0e0e0" stroke="#999999" points="140.5,-76 99,-76 99,-56 140.5,-56 140.5,-76"/>
<text text-anchor="middle" x="119.75" y="-62.5" font-family="Helvetica,sans-Serif" font-size="10.00">vector</text>
</a>
</g>
</g>
<!-- Node1&#45;&gt;Node3 -->
<g id="edge2" class="edge">
<title>Node1&#45;&gt;Node3</title>
<path fill="none" stroke="#63b8ff" d="M150.39,-167.65C138.4,-158.86 125.31,-146.67 118.75,-132 112.41,-117.82 113.18,-100.09 115.24,-86.73"/>
<polygon fill="#63b8ff" stroke="#63b8ff" points="118.79,-87.8 117.24,-77.32 111.92,-86.48 118.79,-87.8"/>
</g>
<!-- Node4 -->
<g id="node4" class="node">
<title>Node4</title>
<g id="a_node4"><a xlink:href="a00263.html" target="_top" xlink:title="Contains definitions for the Edge structure.">
<polygon fill="white" stroke="#666666" points="174.13,-132 127.38,-132 127.38,-112 174.13,-112 174.13,-132"/>
<text text-anchor="middle" x="150.75" y="-118.5" font-family="Helvetica,sans-Serif" font-size="10.00">Edge.h</text>
</a>
</g>
</g>
<!-- Node1&#45;&gt;Node4 -->
<g id="edge3" class="edge">
<title>Node1&#45;&gt;Node4</title>
<path fill="none" stroke="#63b8ff" d="M169.31,-167.55C166.13,-159.91 162.25,-150.61 158.87,-142.49"/>
<polygon fill="#63b8ff" stroke="#63b8ff" points="161.75,-141.29 154.67,-133.41 155.29,-143.98 161.75,-141.29"/>
</g>
<!-- Node5 -->
<g id="node5" class="node">
<title>Node5</title>
<g id="a_node5"><a xlink:href="a00275.html" target="_top" xlink:title="Contains definitions for the Node structure.">
<polygon fill="white" stroke="#666666" points="213.38,-76 168.13,-76 168.13,-56 213.38,-56 213.38,-76"/>
<text text-anchor="middle" x="190.75" y="-62.5" font-family="Helvetica,sans-Serif" font-size="10.00">node.h</text>
</a>
</g>
</g>
<!-- Node1&#45;&gt;Node5 -->
<g id="edge8" class="edge">
<title>Node1&#45;&gt;Node5</title>
<path fill="none" stroke="#63b8ff" d="M177.89,-167.83C179.3,-157.69 181.18,-144.05 182.75,-132 184.71,-116.96 186.8,-99.95 188.35,-87.1"/>
<polygon fill="#63b8ff" stroke="#63b8ff" points="191.93,-87.61 189.65,-77.26 184.98,-86.77 191.93,-87.61"/>
</g>
<!-- Node8 -->
<g id="node8" class="node">
<title>Node8</title>
<g id="a_node8"><a xlink:title=" ">
<polygon fill="#e0e0e0" stroke="#999999" points="270.13,-132 229.38,-132 229.38,-112 270.13,-112 270.13,-132"/>
<text text-anchor="middle" x="249.75" y="-118.5" font-family="Helvetica,sans-Serif" font-size="10.00">Eigen</text>
</a>
</g>
</g>
<!-- Node1&#45;&gt;Node8 -->
<g id="edge9" class="edge">
<title>Node1&#45;&gt;Node8</title>
<path fill="none" stroke="#63b8ff" d="M194.81,-167.55C205.51,-158.87 218.86,-148.04 229.72,-139.24"/>
<polygon fill="#63b8ff" stroke="#63b8ff" points="231.58,-141.42 237.15,-132.41 227.17,-135.99 231.58,-141.42"/>
</g>
<!-- Node9 -->
<g id="node9" class="node">
<title>Node9</title>
<g id="a_node9"><a xlink:title=" ">
<polygon fill="#e0e0e0" stroke="#999999" points="341.5,-132 288,-132 288,-112 341.5,-112 341.5,-132"/>
<text text-anchor="middle" x="314.75" y="-118.5" font-family="Helvetica,sans-Serif" font-size="10.00">iostream</text>
</a>
</g>
</g>
<!-- Node1&#45;&gt;Node9 -->
<g id="edge10" class="edge">
<title>Node1&#45;&gt;Node9</title>
<path fill="none" stroke="#63b8ff" d="M211.55,-167.55C233.67,-158 261.8,-145.86 283.1,-136.66"/>
<polygon fill="#63b8ff" stroke="#63b8ff" points="284.16,-139.58 291.95,-132.41 281.39,-133.16 284.16,-139.58"/>
</g>
<!-- Node4&#45;&gt;Node3 -->
<g id="edge7" class="edge">
<title>Node4&#45;&gt;Node3</title>
<path fill="none" stroke="#63b8ff" d="M145.35,-111.59C141.26,-104.47 135.51,-94.45 130.49,-85.72"/>
<polygon fill="#63b8ff" stroke="#63b8ff" points="133.1,-84.23 125.09,-77.3 127.03,-87.71 133.1,-84.23"/>
</g>
<!-- Node4&#45;&gt;Node5 -->
<g id="edge4" class="edge">
<title>Node4&#45;&gt;Node5</title>
<path fill="none" stroke="#63b8ff" d="M157.72,-111.59C163.17,-104.24 170.9,-93.8 177.52,-84.87"/>
<polygon fill="#63b8ff" stroke="#63b8ff" points="180.72,-87.42 183.86,-77.3 175.1,-83.25 180.72,-87.42"/>
</g>
<!-- Node6 -->
<g id="node6" class="node">
<title>Node6</title>
<g id="a_node6"><a xlink:title=" ">
<polygon fill="#e0e0e0" stroke="#999999" points="178.63,-20 140.88,-20 140.88,0 178.63,0 178.63,-20"/>
<text text-anchor="middle" x="159.75" y="-6.5" font-family="Helvetica,sans-Serif" font-size="10.00">array</text>
</a>
</g>
</g>
<!-- Node5&#45;&gt;Node6 -->
<g id="edge5" class="edge">
<title>Node5&#45;&gt;Node6</title>
<path fill="none" stroke="#63b8ff" d="M185.35,-55.59C181.26,-48.47 175.51,-38.45 170.49,-29.72"/>
<polygon fill="#63b8ff" stroke="#63b8ff" points="173.1,-28.23 165.09,-21.3 167.03,-31.71 173.1,-28.23"/>
</g>
<!-- Node7 -->
<g id="node7" class="node">
<title>Node7</title>
<g id="a_node7"><a xlink:title=" ">
<polygon fill="#e0e0e0" stroke="#999999" points="248.38,-20 197.13,-20 197.13,0 248.38,0 248.38,-20"/>
<text text-anchor="middle" x="222.75" y="-6.5" font-family="Helvetica,sans-Serif" font-size="10.00">ostream</text>
</a>
</g>
</g>
<!-- Node5&#45;&gt;Node7 -->
<g id="edge6" class="edge">
<title>Node5&#45;&gt;Node7</title>
<path fill="none" stroke="#63b8ff" d="M196.32,-55.59C200.55,-48.47 206.48,-38.45 211.66,-29.72"/>
<polygon fill="#63b8ff" stroke="#63b8ff" points="215.15,-31.69 217.24,-21.3 209.13,-28.12 215.15,-31.69"/>
</g>
</g>
</svg>
