<?xml version="1.0" encoding="UTF-8" standalone="no"?>
<!DOCTYPE svg PUBLIC "-//W3C//DTD SVG 1.1//EN"
 "http://www.w3.org/Graphics/SVG/1.1/DTD/svg11.dtd">
<!-- Generated by graphviz version 8.0.5 (20230430.1635)
 -->
<!-- Title: Cpp/spatialstructures/src/cost_algorithms.cpp Pages: 1 -->
<svg width="557pt" height="264pt"
 viewBox="0.00 0.00 556.74 264.00" xmlns="http://www.w3.org/2000/svg" xmlns:xlink="http://www.w3.org/1999/xlink">
<g id="graph0" class="graph" transform="scale(1 1) rotate(0) translate(4 260)">
<title>Cpp/spatialstructures/src/cost_algorithms.cpp</title>
<!-- Node1 -->
<g id="node1" class="node">
<title>Node1</title>
<g id="a_node1"><a xlink:title=" ">
<polygon fill="#999999" stroke="#666666" points="202.61,-256 79.36,-256 79.36,-224 202.61,-224 202.61,-256"/>
<text text-anchor="start" x="87.36" y="-242.5" font-family="Helvetica,sans-Serif" font-size="10.00">Cpp/spatialstructures</text>
<text text-anchor="middle" x="140.99" y="-230.5" font-family="Helvetica,sans-Serif" font-size="10.00">/src/cost_algorithms.cpp</text>
</a>
</g>
</g>
<!-- Node2 -->
<g id="node2" class="node">
<title>Node2</title>
<g id="a_node2"><a xlink:title=" ">
<polygon fill="#e0e0e0" stroke="#999999" points="47.49,-76 4.49,-76 4.49,-56 47.49,-56 47.49,-76"/>
<text text-anchor="middle" x="25.99" y="-62.5" font-family="Helvetica,sans-Serif" font-size="10.00">cmath</text>
</a>
</g>
</g>
<!-- Node1&#45;&gt;Node2 -->
<g id="edge1" class="edge">
<title>Node1&#45;&gt;Node2</title>
<path fill="none" stroke="#63b8ff" d="M79.06,-230.23C53.56,-223.22 26.42,-210.63 10.99,-188 -9.99,-157.24 4.94,-111.64 16.34,-86.1"/>
<polygon fill="#63b8ff" stroke="#63b8ff" points="19.77,-88.02 20.89,-77.49 13.44,-85.03 19.77,-88.02"/>
</g>
<!-- Node3 -->
<g id="node3" class="node">
<title>Node3</title>
<g id="a_node3"><a xlink:title=" ">
<polygon fill="#e0e0e0" stroke="#999999" points="75.86,-188 20.11,-188 20.11,-168 75.86,-168 75.86,-188"/>
<text text-anchor="middle" x="47.99" y="-174.5" font-family="Helvetica,sans-Serif" font-size="10.00">algorithm</text>
</a>
</g>
</g>
<!-- Node1&#45;&gt;Node3 -->
<g id="edge2" class="edge">
<title>Node1&#45;&gt;Node3</title>
<path fill="none" stroke="#63b8ff" d="M117.04,-223.55C103.04,-214.52 85.46,-203.17 71.53,-194.19"/>
<polygon fill="#63b8ff" stroke="#63b8ff" points="73.87,-190.89 63.57,-188.41 70.08,-196.77 73.87,-190.89"/>
</g>
<!-- Node4 -->
<g id="node4" class="node">
<title>Node4</title>
<g id="a_node4"><a xlink:href="a00257.html" target="_top" xlink:title="Contains implementation for the HF::SpatialStructures::CostAlgorithms namespace.">
<polygon fill="white" stroke="#666666" points="225.61,-188 132.36,-188 132.36,-168 225.61,-168 225.61,-188"/>
<text text-anchor="middle" x="178.99" y="-174.5" font-family="Helvetica,sans-Serif" font-size="10.00">cost_algorithms.h</text>
</a>
</g>
</g>
<!-- Node1&#45;&gt;Node4 -->
<g id="edge3" class="edge">
<title>Node1&#45;&gt;Node4</title>
<path fill="none" stroke="#63b8ff" d="M150.77,-223.55C155.78,-215.65 161.9,-205.97 167.17,-197.66"/>
<polygon fill="#63b8ff" stroke="#63b8ff" points="170.64,-199.73 173.03,-189.41 164.72,-195.98 170.64,-199.73"/>
</g>
<!-- Node7 -->
<g id="node7" class="node">
<title>Node7</title>
<g id="a_node7"><a xlink:href="a00251.html" target="_top" xlink:title="Contains definitions for the HF::SpatialStructures namespace.">
<polygon fill="white" stroke="#666666" points="93.24,-132 24.74,-132 24.74,-112 93.24,-112 93.24,-132"/>
<text text-anchor="middle" x="58.99" y="-118.5" font-family="Helvetica,sans-Serif" font-size="10.00">Constants.h</text>
</a>
</g>
</g>
<!-- Node1&#45;&gt;Node7 -->
<g id="edge19" class="edge">
<title>Node1&#45;&gt;Node7</title>
<path fill="none" stroke="#63b8ff" d="M130.27,-223.84C115.23,-202.56 87.9,-163.9 71.8,-141.13"/>
<polygon fill="#63b8ff" stroke="#63b8ff" points="74.29,-139.58 65.66,-133.44 68.57,-143.62 74.29,-139.58"/>
</g>
<!-- Node8 -->
<g id="node8" class="node">
<title>Node8</title>
<g id="a_node8"><a xlink:href="a00269.html" target="_top" xlink:title="Contains definitions for the Graph &#160;class.">
<polygon fill="white" stroke="#666666" points="382.11,-188 333.86,-188 333.86,-168 382.11,-168 382.11,-188"/>
<text text-anchor="middle" x="357.99" y="-174.5" font-family="Helvetica,sans-Serif" font-size="10.00">graph.h</text>
</a>
</g>
</g>
<!-- Node1&#45;&gt;Node8 -->
<g id="edge8" class="edge">
<title>Node1&#45;&gt;Node8</title>
<path fill="none" stroke="#63b8ff" d="M196.87,-223.55C236.76,-212.52 289.16,-198.03 323.2,-188.62"/>
<polygon fill="#63b8ff" stroke="#63b8ff" points="323.86,-191.79 332.57,-185.75 322,-185.04 323.86,-191.79"/>
</g>
<!-- Node15 -->
<g id="node15" class="node">
<title>Node15</title>
<g id="a_node15"><a xlink:title=" ">
<polygon fill="#e0e0e0" stroke="#999999" points="548.74,-132 495.24,-132 495.24,-112 548.74,-112 548.74,-132"/>
<text text-anchor="middle" x="521.99" y="-118.5" font-family="Helvetica,sans-Serif" font-size="10.00">iostream</text>
</a>
</g>
</g>
<!-- Node1&#45;&gt;Node15 -->
<g id="edge20" class="edge">
<title>Node1&#45;&gt;Node15</title>
<path fill="none" stroke="#63b8ff" d="M203.05,-230.92C254.37,-223.16 328.67,-209.41 390.99,-188 429.57,-174.75 471.32,-152.52 497.07,-137.81"/>
<polygon fill="#63b8ff" stroke="#63b8ff" points="498.53,-140.43 505.43,-132.39 495.02,-134.37 498.53,-140.43"/>
</g>
<!-- Node5 -->
<g id="node5" class="node">
<title>Node5</title>
<g id="a_node5"><a xlink:title=" ">
<polygon fill="#e0e0e0" stroke="#999999" points="237.74,-76 196.24,-76 196.24,-56 237.74,-56 237.74,-76"/>
<text text-anchor="middle" x="216.99" y="-62.5" font-family="Helvetica,sans-Serif" font-size="10.00">vector</text>
</a>
</g>
</g>
<!-- Node4&#45;&gt;Node5 -->
<g id="edge4" class="edge">
<title>Node4&#45;&gt;Node5</title>
<path fill="none" stroke="#63b8ff" d="M182.23,-167.62C188.4,-149.76 201.95,-110.53 210.19,-86.67"/>
<polygon fill="#63b8ff" stroke="#63b8ff" points="213.8,-87.95 213.76,-77.35 207.18,-85.66 213.8,-87.95"/>
</g>
<!-- Node6 -->
<g id="node6" class="node">
<title>Node6</title>
<g id="a_node6"><a xlink:title=" ">
<polygon fill="#e0e0e0" stroke="#999999" points="150.99,-132 110.99,-132 110.99,-112 150.99,-112 150.99,-132"/>
<text text-anchor="middle" x="130.99" y="-118.5" font-family="Helvetica,sans-Serif" font-size="10.00">string</text>
</a>
</g>
</g>
<!-- Node4&#45;&gt;Node6 -->
<g id="edge5" class="edge">
<title>Node4&#45;&gt;Node6</title>
<path fill="none" stroke="#63b8ff" d="M170.63,-167.59C163.95,-160.08 154.41,-149.35 146.37,-140.3"/>
<polygon fill="#63b8ff" stroke="#63b8ff" points="149.51,-138.45 140.25,-133.3 144.28,-143.1 149.51,-138.45"/>
</g>
<!-- Node4&#45;&gt;Node7 -->
<g id="edge6" class="edge">
<title>Node4&#45;&gt;Node7</title>
<path fill="none" stroke="#63b8ff" d="M158.09,-167.59C139.27,-159.13 111.38,-146.58 89.97,-136.94"/>
<polygon fill="#63b8ff" stroke="#63b8ff" points="91.61,-133.39 81.05,-132.48 88.74,-139.77 91.61,-133.39"/>
</g>
<!-- Node7&#45;&gt;Node2 -->
<g id="edge7" class="edge">
<title>Node7&#45;&gt;Node2</title>
<path fill="none" stroke="#63b8ff" d="M53.24,-111.59C48.84,-104.39 42.63,-94.23 37.25,-85.43"/>
<polygon fill="#63b8ff" stroke="#63b8ff" points="39.87,-84.01 31.67,-77.3 33.9,-87.66 39.87,-84.01"/>
</g>
<!-- Node8&#45;&gt;Node5 -->
<g id="edge10" class="edge">
<title>Node8&#45;&gt;Node5</title>
<path fill="none" stroke="#63b8ff" d="M333.82,-174.53C306.32,-170.44 261.87,-159.73 235.99,-132 224.58,-119.78 219.98,-101.08 218.15,-86.87"/>
<polygon fill="#63b8ff" stroke="#63b8ff" points="221.57,-86.87 217.17,-77.23 214.6,-87.51 221.57,-86.87"/>
</g>
<!-- Node9 -->
<g id="node9" class="node">
<title>Node9</title>
<g id="a_node9"><a xlink:title=" ">
<polygon fill="#e0e0e0" stroke="#999999" points="316.74,-132 245.24,-132 245.24,-112 316.74,-112 316.74,-132"/>
<text text-anchor="middle" x="280.99" y="-118.5" font-family="Helvetica,sans-Serif" font-size="10.00">robin_hood.h</text>
</a>
</g>
</g>
<!-- Node8&#45;&gt;Node9 -->
<g id="edge9" class="edge">
<title>Node8&#45;&gt;Node9</title>
<path fill="none" stroke="#63b8ff" d="M344.58,-167.59C333.16,-159.59 316.54,-147.93 303.15,-138.54"/>
<polygon fill="#63b8ff" stroke="#63b8ff" points="305.7,-135.36 295.5,-132.48 301.68,-141.09 305.7,-135.36"/>
</g>
<!-- Node10 -->
<g id="node10" class="node">
<title>Node10</title>
<g id="a_node10"><a xlink:href="a00263.html" target="_top" xlink:title="Contains definitions for the Edge structure.">
<polygon fill="white" stroke="#666666" points="381.36,-132 334.61,-132 334.61,-112 381.36,-112 381.36,-132"/>
<text text-anchor="middle" x="357.99" y="-118.5" font-family="Helvetica,sans-Serif" font-size="10.00">Edge.h</text>
</a>
</g>
</g>
<!-- Node8&#45;&gt;Node10 -->
<g id="edge11" class="edge">
<title>Node8&#45;&gt;Node10</title>
<path fill="none" stroke="#63b8ff" d="M357.99,-167.59C357.99,-160.86 357.99,-151.53 357.99,-143.15"/>
<polygon fill="#63b8ff" stroke="#63b8ff" points="361.49,-143.3 357.99,-133.3 354.49,-143.3 361.49,-143.3"/>
</g>
<!-- Node11 -->
<g id="node11" class="node">
<title>Node11</title>
<g id="a_node11"><a xlink:href="a00275.html" target="_top" xlink:title="Contains definitions for the Node structure.">
<polygon fill="white" stroke="#666666" points="405.61,-76 360.36,-76 360.36,-56 405.61,-56 405.61,-76"/>
<text text-anchor="middle" x="382.99" y="-62.5" font-family="Helvetica,sans-Serif" font-size="10.00">node.h</text>
</a>
</g>
</g>
<!-- Node8&#45;&gt;Node11 -->
<g id="edge16" class="edge">
<title>Node8&#45;&gt;Node11</title>
<path fill="none" stroke="#63b8ff" d="M367.35,-167.63C375.11,-159.14 385.56,-145.88 389.99,-132 394.74,-117.11 392.36,-99.44 389.14,-86.28"/>
<polygon fill="#63b8ff" stroke="#63b8ff" points="392.34,-85.74 386.25,-77.07 385.6,-87.64 392.34,-85.74"/>
</g>
<!-- Node14 -->
<g id="node14" class="node">
<title>Node14</title>
<g id="a_node14"><a xlink:title=" ">
<polygon fill="#e0e0e0" stroke="#999999" points="477.36,-132 436.61,-132 436.61,-112 477.36,-112 477.36,-132"/>
<text text-anchor="middle" x="456.99" y="-118.5" font-family="Helvetica,sans-Serif" font-size="10.00">Eigen</text>
</a>
</g>
</g>
<!-- Node8&#45;&gt;Node14 -->
<g id="edge17" class="edge">
<title>Node8&#45;&gt;Node14</title>
<path fill="none" stroke="#63b8ff" d="M375.23,-167.59C390.33,-159.36 412.52,-147.26 429.97,-137.74"/>
<polygon fill="#63b8ff" stroke="#63b8ff" points="431.51,-140.34 438.61,-132.48 428.15,-134.2 431.51,-140.34"/>
</g>
<!-- Node8&#45;&gt;Node15 -->
<g id="edge18" class="edge">
<title>Node8&#45;&gt;Node15</title>
<path fill="none" stroke="#63b8ff" d="M382.54,-168.92C409.59,-160.01 453.42,-145.58 484.71,-135.27"/>
<polygon fill="#63b8ff" stroke="#63b8ff" points="485.4,-138.4 493.81,-131.95 483.21,-131.75 485.4,-138.4"/>
</g>
<!-- Node10&#45;&gt;Node5 -->
<g id="edge15" class="edge">
<title>Node10&#45;&gt;Node5</title>
<path fill="none" stroke="#63b8ff" d="M334.39,-111.96C310.68,-102.88 274.04,-88.85 248,-78.88"/>
<polygon fill="#63b8ff" stroke="#63b8ff" points="249.49,-75.32 238.9,-75.01 246.99,-81.85 249.49,-75.32"/>
</g>
<!-- Node10&#45;&gt;Node11 -->
<g id="edge12" class="edge">
<title>Node10&#45;&gt;Node11</title>
<path fill="none" stroke="#63b8ff" d="M362.34,-111.59C365.6,-104.55 370.18,-94.67 374.19,-86"/>
<polygon fill="#63b8ff" stroke="#63b8ff" points="377.66,-87.84 378.68,-77.3 371.31,-84.9 377.66,-87.84"/>
</g>
<!-- Node12 -->
<g id="node12" class="node">
<title>Node12</title>
<g id="a_node12"><a xlink:title=" ">
<polygon fill="#e0e0e0" stroke="#999999" points="370.86,-20 333.11,-20 333.11,0 370.86,0 370.86,-20"/>
<text text-anchor="middle" x="351.99" y="-6.5" font-family="Helvetica,sans-Serif" font-size="10.00">array</text>
</a>
</g>
</g>
<!-- Node11&#45;&gt;Node12 -->
<g id="edge13" class="edge">
<title>Node11&#45;&gt;Node12</title>
<path fill="none" stroke="#63b8ff" d="M377.59,-55.59C373.5,-48.47 367.75,-38.45 362.73,-29.72"/>
<polygon fill="#63b8ff" stroke="#63b8ff" points="365.34,-28.23 357.33,-21.3 359.27,-31.71 365.34,-28.23"/>
</g>
<!-- Node13 -->
<g id="node13" class="node">
<title>Node13</title>
<g id="a_node13"><a xlink:title=" ">
<polygon fill="#e0e0e0" stroke="#999999" points="440.61,-20 389.36,-20 389.36,0 440.61,0 440.61,-20"/>
<text text-anchor="middle" x="414.99" y="-6.5" font-family="Helvetica,sans-Serif" font-size="10.00">ostream</text>
</a>
</g>
</g>
<!-- Node11&#45;&gt;Node13 -->
<g id="edge14" class="edge">
<title>Node11&#45;&gt;Node13</title>
<path fill="none" stroke="#63b8ff" d="M388.56,-55.59C392.78,-48.47 398.72,-38.45 403.9,-29.72"/>
<polygon fill="#63b8ff" stroke="#63b8ff" points="407.39,-31.69 409.48,-21.3 401.37,-28.12 407.39,-31.69"/>
</g>
</g>
</svg>
