<?xml version="1.0" encoding="UTF-8" standalone="no"?>
<!DOCTYPE svg PUBLIC "-//W3C//DTD SVG 1.1//EN"
 "http://www.w3.org/Graphics/SVG/1.1/DTD/svg11.dtd">
<!-- Generated by graphviz version 7.0.2 (20221119.0110)
 -->
<!-- Title: Cpp/spatialstructures/src/path.cpp Pages: 1 -->
<svg width="210pt" height="203pt"
 viewBox="0.00 0.00 209.50 203.00" xmlns="http://www.w3.org/2000/svg" xmlns:xlink="http://www.w3.org/1999/xlink">
<g id="graph0" class="graph" transform="scale(1 1) rotate(0) translate(4 199)">
<title>Cpp/spatialstructures/src/path.cpp</title>
<!-- Node1 -->
<g id="node1" class="node">
<title>Node1</title>
<g id="a_node1"><a xlink:title="Contains implementation for the Path structure.">
<polygon fill="#999999" stroke="#666666" points="175.5,-195 66.5,-195 66.5,-165 175.5,-165 175.5,-195"/>
<text text-anchor="start" x="74.5" y="-183" font-family="Helvetica,sans-Serif" font-size="10.00">Cpp/spatialstructures</text>
<text text-anchor="middle" x="121" y="-172" font-family="Helvetica,sans-Serif" font-size="10.00">/src/path.cpp</text>
</a>
</g>
</g>
<!-- Node2 -->
<g id="node2" class="node">
<title>Node2</title>
<g id="a_node2"><a xlink:href="a00215.html" target="_top" xlink:title="Contains definitions for the Path structure.">
<polygon fill="white" stroke="#666666" points="109,-129 65,-129 65,-110 109,-110 109,-129"/>
<text text-anchor="middle" x="87" y="-117" font-family="Helvetica,sans-Serif" font-size="10.00">path.h</text>
</a>
</g>
</g>
<!-- Node1&#45;&gt;Node2 -->
<g id="edge1" class="edge">
<title>Node1&#45;&gt;Node2</title>
<path fill="none" stroke="#63b8ff" d="M112.6,-164.54C108.11,-156.82 102.54,-147.24 97.75,-138.99"/>
<polygon fill="#63b8ff" stroke="#63b8ff" points="100.85,-137.37 92.8,-130.48 94.8,-140.89 100.85,-137.37"/>
</g>
<!-- Node7 -->
<g id="node7" class="node">
<title>Node7</title>
<g id="a_node7"><a xlink:title=" ">
<polygon fill="#e0e0e0" stroke="#999999" points="183,-129 127,-129 127,-110 183,-110 183,-129"/>
<text text-anchor="middle" x="155" y="-117" font-family="Helvetica,sans-Serif" font-size="10.00">algorithm</text>
</a>
</g>
</g>
<!-- Node1&#45;&gt;Node7 -->
<g id="edge6" class="edge">
<title>Node1&#45;&gt;Node7</title>
<path fill="none" stroke="#63b8ff" d="M129.4,-164.54C133.89,-156.82 139.46,-147.24 144.25,-138.99"/>
<polygon fill="#63b8ff" stroke="#63b8ff" points="147.2,-140.89 149.2,-130.48 141.15,-137.37 147.2,-140.89"/>
</g>
<!-- Node3 -->
<g id="node3" class="node">
<title>Node3</title>
<g id="a_node3"><a xlink:title=" ">
<polygon fill="#e0e0e0" stroke="#999999" points="42,-74 0,-74 0,-55 42,-55 42,-74"/>
<text text-anchor="middle" x="21" y="-62" font-family="Helvetica,sans-Serif" font-size="10.00">vector</text>
</a>
</g>
</g>
<!-- Node2&#45;&gt;Node3 -->
<g id="edge2" class="edge">
<title>Node2&#45;&gt;Node3</title>
<path fill="none" stroke="#63b8ff" d="M75.8,-109.51C66.26,-101.85 52.33,-90.66 40.89,-81.47"/>
<polygon fill="#63b8ff" stroke="#63b8ff" points="43.2,-78.84 33.21,-75.31 38.82,-84.3 43.2,-78.84"/>
</g>
<!-- Node4 -->
<g id="node4" class="node">
<title>Node4</title>
<g id="a_node4"><a xlink:title=" ">
<polygon fill="#e0e0e0" stroke="#999999" points="114,-74 60,-74 60,-55 114,-55 114,-74"/>
<text text-anchor="middle" x="87" y="-62" font-family="Helvetica,sans-Serif" font-size="10.00">iostream</text>
</a>
</g>
</g>
<!-- Node2&#45;&gt;Node4 -->
<g id="edge3" class="edge">
<title>Node2&#45;&gt;Node4</title>
<path fill="none" stroke="#63b8ff" d="M87,-109.75C87,-103.27 87,-94.16 87,-85.9"/>
<polygon fill="#63b8ff" stroke="#63b8ff" points="90.5,-85.96 87,-75.96 83.5,-85.96 90.5,-85.96"/>
</g>
<!-- Node5 -->
<g id="node5" class="node">
<title>Node5</title>
<g id="a_node5"><a xlink:href="a00185.html" target="_top" xlink:title="Contains definitions for the HF::SpatialStructures namespace.">
<polygon fill="white" stroke="#666666" points="201.5,-74 132.5,-74 132.5,-55 201.5,-55 201.5,-74"/>
<text text-anchor="middle" x="167" y="-62" font-family="Helvetica,sans-Serif" font-size="10.00">Constants.h</text>
</a>
</g>
</g>
<!-- Node2&#45;&gt;Node5 -->
<g id="edge4" class="edge">
<title>Node2&#45;&gt;Node5</title>
<path fill="none" stroke="#63b8ff" d="M100.57,-109.51C112.48,-101.62 130.05,-89.98 144.13,-80.65"/>
<polygon fill="#63b8ff" stroke="#63b8ff" points="145.96,-83.63 152.37,-75.19 142.1,-77.8 145.96,-83.63"/>
</g>
<!-- Node6 -->
<g id="node6" class="node">
<title>Node6</title>
<g id="a_node6"><a xlink:title=" ">
<polygon fill="#e0e0e0" stroke="#999999" points="189,-19 145,-19 145,0 189,0 189,-19"/>
<text text-anchor="middle" x="167" y="-7" font-family="Helvetica,sans-Serif" font-size="10.00">cmath</text>
</a>
</g>
</g>
<!-- Node5&#45;&gt;Node6 -->
<g id="edge5" class="edge">
<title>Node5&#45;&gt;Node6</title>
<path fill="none" stroke="#63b8ff" d="M167,-54.75C167,-48.27 167,-39.16 167,-30.9"/>
<polygon fill="#63b8ff" stroke="#63b8ff" points="170.5,-30.96 167,-20.96 163.5,-30.96 170.5,-30.96"/>
</g>
</g>
</svg>
