<?xml version="1.0" encoding="UTF-8" standalone="no"?>
<!DOCTYPE svg PUBLIC "-//W3C//DTD SVG 1.1//EN"
 "http://www.w3.org/Graphics/SVG/1.1/DTD/svg11.dtd">
<!-- Generated by graphviz version 8.0.5 (20230430.1635)
 -->
<!-- Title: Cpp/raytracer/src/embree_raytracer.cpp Pages: 1 -->
<svg width="944pt" height="152pt"
 viewBox="0.00 0.00 944.00 152.00" xmlns="http://www.w3.org/2000/svg" xmlns:xlink="http://www.w3.org/1999/xlink">
<g id="graph0" class="graph" transform="scale(1 1) rotate(0) translate(4 148)">
<title>Cpp/raytracer/src/embree_raytracer.cpp</title>
<!-- Node1 -->
<g id="node1" class="node">
<title>Node1</title>
<g id="a_node1"><a xlink:title="Contains implementation for the EmbreeRayTracer">
<polygon fill="#999999" stroke="#666666" points="588.75,-144 462.5,-144 462.5,-112 588.75,-112 588.75,-144"/>
<text text-anchor="start" x="470.5" y="-130.5" font-family="Helvetica,sans-Serif" font-size="10.00">Cpp/raytracer/src/embree</text>
<text text-anchor="middle" x="525.63" y="-118.5" font-family="Helvetica,sans-Serif" font-size="10.00">_raytracer.cpp</text>
</a>
</g>
</g>
<!-- Node2 -->
<g id="node2" class="node">
<title>Node2</title>
<g id="a_node2"><a xlink:href="a00212.html" target="_top" xlink:title="Contains definitions for the EmbreeRayTracer">
<polygon fill="white" stroke="#666666" points="302.63,-76 202.63,-76 202.63,-56 302.63,-56 302.63,-76"/>
<text text-anchor="middle" x="252.63" y="-62.5" font-family="Helvetica,sans-Serif" font-size="10.00">embree_raytracer.h</text>
</a>
</g>
</g>
<!-- Node1&#45;&gt;Node2 -->
<g id="edge1" class="edge">
<title>Node1&#45;&gt;Node2</title>
<path fill="none" stroke="#63b8ff" d="M462.31,-113.08C415.01,-102.69 351.08,-88.64 306.29,-78.79"/>
<polygon fill="#63b8ff" stroke="#63b8ff" points="307.14,-75.18 296.62,-76.45 305.63,-82.01 307.14,-75.18"/>
</g>
<!-- Node5 -->
<g id="node5" class="node">
<title>Node5</title>
<g id="a_node5"><a xlink:title=" ">
<polygon fill="#e0e0e0" stroke="#999999" points="117.25,-20 0,-20 0,0 117.25,0 117.25,-20"/>
<text text-anchor="middle" x="58.63" y="-6.5" font-family="Helvetica,sans-Serif" font-size="10.00">corecrt_math_defines.h</text>
</a>
</g>
</g>
<!-- Node1&#45;&gt;Node5 -->
<g id="edge8" class="edge">
<title>Node1&#45;&gt;Node5</title>
<path fill="none" stroke="#63b8ff" d="M462.27,-122.87C394.52,-117.16 284.56,-104.19 193.63,-76 153.31,-63.5 109.86,-40.73 83.45,-25.73"/>
<polygon fill="#63b8ff" stroke="#63b8ff" points="85.62,-22.37 75.2,-20.4 82.12,-28.43 85.62,-22.37"/>
</g>
<!-- Node9 -->
<g id="node9" class="node">
<title>Node9</title>
<g id="a_node9"><a xlink:title=" ">
<polygon fill="#e0e0e0" stroke="#999999" points="554.25,-76 497,-76 497,-56 554.25,-56 554.25,-76"/>
<text text-anchor="middle" x="525.63" y="-62.5" font-family="Helvetica,sans-Serif" font-size="10.00">functional</text>
</a>
</g>
</g>
<!-- Node1&#45;&gt;Node9 -->
<g id="edge9" class="edge">
<title>Node1&#45;&gt;Node9</title>
<path fill="none" stroke="#63b8ff" d="M525.63,-111.55C525.63,-104.17 525.63,-95.24 525.63,-87.32"/>
<polygon fill="#63b8ff" stroke="#63b8ff" points="529.13,-87.41 525.63,-77.41 522.13,-87.41 529.13,-87.41"/>
</g>
<!-- Node10 -->
<g id="node10" class="node">
<title>Node10</title>
<g id="a_node10"><a xlink:title=" ">
<polygon fill="#e0e0e0" stroke="#999999" points="625.38,-76 571.88,-76 571.88,-56 625.38,-56 625.38,-76"/>
<text text-anchor="middle" x="598.63" y="-62.5" font-family="Helvetica,sans-Serif" font-size="10.00">iostream</text>
</a>
</g>
</g>
<!-- Node1&#45;&gt;Node10 -->
<g id="edge10" class="edge">
<title>Node1&#45;&gt;Node10</title>
<path fill="none" stroke="#63b8ff" d="M544.42,-111.55C554.99,-102.87 568.16,-92.04 578.87,-83.24"/>
<polygon fill="#63b8ff" stroke="#63b8ff" points="580.68,-85.46 586.18,-76.41 576.23,-80.05 580.68,-85.46"/>
</g>
<!-- Node11 -->
<g id="node11" class="node">
<title>Node11</title>
<g id="a_node11"><a xlink:title=" ">
<polygon fill="#e0e0e0" stroke="#999999" points="686.13,-76 643.13,-76 643.13,-56 686.13,-56 686.13,-76"/>
<text text-anchor="middle" x="664.63" y="-62.5" font-family="Helvetica,sans-Serif" font-size="10.00">thread</text>
</a>
</g>
</g>
<!-- Node1&#45;&gt;Node11 -->
<g id="edge11" class="edge">
<title>Node1&#45;&gt;Node11</title>
<path fill="none" stroke="#63b8ff" d="M561.42,-111.55C583.54,-102 611.67,-89.86 632.98,-80.66"/>
<polygon fill="#63b8ff" stroke="#63b8ff" points="634.04,-83.58 641.83,-76.41 631.26,-77.16 634.04,-83.58"/>
</g>
<!-- Node12 -->
<g id="node12" class="node">
<title>Node12</title>
<g id="a_node12"><a xlink:title=" ">
<polygon fill="#e0e0e0" stroke="#999999" points="775.38,-76 703.88,-76 703.88,-56 775.38,-56 775.38,-76"/>
<text text-anchor="middle" x="739.63" y="-62.5" font-family="Helvetica,sans-Serif" font-size="10.00">robin_hood.h</text>
</a>
</g>
</g>
<!-- Node1&#45;&gt;Node12 -->
<g id="edge12" class="edge">
<title>Node1&#45;&gt;Node12</title>
<path fill="none" stroke="#63b8ff" d="M580.74,-111.55C616.38,-101.55 662.17,-88.72 695.43,-79.39"/>
<polygon fill="#63b8ff" stroke="#63b8ff" points="696.07,-82.57 704.75,-76.5 694.18,-75.83 696.07,-82.57"/>
</g>
<!-- Node13 -->
<g id="node13" class="node">
<title>Node13</title>
<g id="a_node13"><a xlink:href="a00185.html" target="_top" xlink:title="Contains definitions for the MeshInfo class.">
<polygon fill="white" stroke="#666666" points="479.25,-76 416,-76 416,-56 479.25,-56 479.25,-76"/>
<text text-anchor="middle" x="447.63" y="-62.5" font-family="Helvetica,sans-Serif" font-size="10.00">meshinfo.h</text>
</a>
</g>
</g>
<!-- Node1&#45;&gt;Node13 -->
<g id="edge13" class="edge">
<title>Node1&#45;&gt;Node13</title>
<path fill="none" stroke="#63b8ff" d="M505.54,-111.55C494.14,-102.78 479.9,-91.83 468.39,-82.97"/>
<polygon fill="#63b8ff" stroke="#63b8ff" points="470.92,-79.73 460.86,-76.41 466.65,-85.28 470.92,-79.73"/>
</g>
<!-- Node15 -->
<g id="node15" class="node">
<title>Node15</title>
<g id="a_node15"><a xlink:href="a00236.html" target="_top" xlink:title="Contains definitions for the RayTracer namespace.">
<polygon fill="white" stroke="#666666" points="398.38,-76 320.88,-76 320.88,-56 398.38,-56 398.38,-76"/>
<text text-anchor="middle" x="359.63" y="-62.5" font-family="Helvetica,sans-Serif" font-size="10.00">RayRequest.h</text>
</a>
</g>
</g>
<!-- Node1&#45;&gt;Node15 -->
<g id="edge16" class="edge">
<title>Node1&#45;&gt;Node15</title>
<path fill="none" stroke="#63b8ff" d="M482.88,-111.55C455.86,-101.78 421.33,-89.3 395.7,-80.04"/>
<polygon fill="#63b8ff" stroke="#63b8ff" points="397.25,-76.52 386.65,-76.41 394.87,-83.1 397.25,-76.52"/>
</g>
<!-- Node16 -->
<g id="node16" class="node">
<title>Node16</title>
<g id="a_node16"><a xlink:href="a00176.html" target="_top" xlink:title="Contains definitions for the Exceptions namespace.">
<polygon fill="white" stroke="#666666" points="879.5,-76 793.75,-76 793.75,-56 879.5,-56 879.5,-76"/>
<text text-anchor="middle" x="836.63" y="-62.5" font-family="Helvetica,sans-Serif" font-size="10.00">HFExceptions.h</text>
</a>
</g>
</g>
<!-- Node1&#45;&gt;Node16 -->
<g id="edge19" class="edge">
<title>Node1&#45;&gt;Node16</title>
<path fill="none" stroke="#63b8ff" d="M588.94,-114.79C645.93,-103.79 728.77,-87.81 782.68,-77.41"/>
<polygon fill="#63b8ff" stroke="#63b8ff" points="783.24,-80.67 792.39,-75.34 781.91,-73.8 783.24,-80.67"/>
</g>
<!-- Node3 -->
<g id="node3" class="node">
<title>Node3</title>
<g id="a_node3"><a xlink:title=" ">
<polygon fill="#e0e0e0" stroke="#999999" points="173.5,-20 135.75,-20 135.75,0 173.5,0 173.5,-20"/>
<text text-anchor="middle" x="154.63" y="-6.5" font-family="Helvetica,sans-Serif" font-size="10.00">rpc.h</text>
</a>
</g>
</g>
<!-- Node2&#45;&gt;Node3 -->
<g id="edge2" class="edge">
<title>Node2&#45;&gt;Node3</title>
<path fill="none" stroke="#63b8ff" d="M235.55,-55.59C220.61,-47.36 198.65,-35.26 181.37,-25.74"/>
<polygon fill="#63b8ff" stroke="#63b8ff" points="183.28,-22.24 172.83,-20.48 179.9,-28.37 183.28,-22.24"/>
</g>
<!-- Node4 -->
<g id="node4" class="node">
<title>Node4</title>
<g id="a_node4"><a xlink:title=" ">
<polygon fill="#e0e0e0" stroke="#999999" points="240.13,-20 191.13,-20 191.13,0 240.13,0 240.13,-20"/>
<text text-anchor="middle" x="215.63" y="-6.5" font-family="Helvetica,sans-Serif" font-size="10.00">rtcore.h</text>
</a>
</g>
</g>
<!-- Node2&#45;&gt;Node4 -->
<g id="edge3" class="edge">
<title>Node2&#45;&gt;Node4</title>
<path fill="none" stroke="#63b8ff" d="M246.18,-55.59C241.19,-48.32 234.14,-38.02 228.06,-29.15"/>
<polygon fill="#63b8ff" stroke="#63b8ff" points="230.54,-27.57 222,-21.3 224.76,-31.53 230.54,-27.57"/>
</g>
<!-- Node2&#45;&gt;Node5 -->
<g id="edge4" class="edge">
<title>Node2&#45;&gt;Node5</title>
<path fill="none" stroke="#63b8ff" d="M218.83,-55.59C186.76,-46.67 138.36,-33.19 103.15,-23.39"/>
<polygon fill="#63b8ff" stroke="#63b8ff" points="104.25,-19.79 93.68,-20.48 102.38,-26.53 104.25,-19.79"/>
</g>
<!-- Node6 -->
<g id="node6" class="node">
<title>Node6</title>
<g id="a_node6"><a xlink:title=" ">
<polygon fill="#e0e0e0" stroke="#999999" points="380.38,-20 338.88,-20 338.88,0 380.38,0 380.38,-20"/>
<text text-anchor="middle" x="359.63" y="-6.5" font-family="Helvetica,sans-Serif" font-size="10.00">vector</text>
</a>
</g>
</g>
<!-- Node2&#45;&gt;Node6 -->
<g id="edge5" class="edge">
<title>Node2&#45;&gt;Node6</title>
<path fill="none" stroke="#63b8ff" d="M271.26,-55.59C287.81,-47.24 312.23,-34.92 331.21,-25.34"/>
<polygon fill="#63b8ff" stroke="#63b8ff" points="332.49,-28.11 339.84,-20.48 329.34,-21.86 332.49,-28.11"/>
</g>
<!-- Node7 -->
<g id="node7" class="node">
<title>Node7</title>
<g id="a_node7"><a xlink:title=" ">
<polygon fill="#e0e0e0" stroke="#999999" points="436.5,-20 398.75,-20 398.75,0 436.5,0 436.5,-20"/>
<text text-anchor="middle" x="417.63" y="-6.5" font-family="Helvetica,sans-Serif" font-size="10.00">array</text>
</a>
</g>
</g>
<!-- Node2&#45;&gt;Node7 -->
<g id="edge6" class="edge">
<title>Node2&#45;&gt;Node7</title>
<path fill="none" stroke="#63b8ff" d="M281.37,-55.59C311.3,-45.8 357.95,-30.53 388.15,-20.64"/>
<polygon fill="#63b8ff" stroke="#63b8ff" points="389.06,-23.7 397.48,-17.27 386.88,-17.05 389.06,-23.7"/>
</g>
<!-- Node8 -->
<g id="node8" class="node">
<title>Node8</title>
<g id="a_node8"><a xlink:href="a00218.html" target="_top" xlink:title=" ">
<polygon fill="white" stroke="#666666" points="320.88,-20 258.38,-20 258.38,0 320.88,0 320.88,-20"/>
<text text-anchor="middle" x="289.63" y="-6.5" font-family="Helvetica,sans-Serif" font-size="10.00">HitStruct.h</text>
</a>
</g>
</g>
<!-- Node2&#45;&gt;Node8 -->
<g id="edge7" class="edge">
<title>Node2&#45;&gt;Node8</title>
<path fill="none" stroke="#63b8ff" d="M259.07,-55.59C264.06,-48.32 271.11,-38.02 277.19,-29.15"/>
<polygon fill="#63b8ff" stroke="#63b8ff" points="280.49,-31.53 283.25,-21.3 274.71,-27.57 280.49,-31.53"/>
</g>
<!-- Node13&#45;&gt;Node7 -->
<g id="edge15" class="edge">
<title>Node13&#45;&gt;Node7</title>
<path fill="none" stroke="#63b8ff" d="M442.4,-55.59C438.44,-48.47 432.88,-38.45 428.02,-29.72"/>
<polygon fill="#63b8ff" stroke="#63b8ff" points="430.71,-28.34 422.79,-21.3 424.59,-31.74 430.71,-28.34"/>
</g>
<!-- Node14 -->
<g id="node14" class="node">
<title>Node14</title>
<g id="a_node14"><a xlink:title=" ">
<polygon fill="#e0e0e0" stroke="#999999" points="498.5,-20 454.75,-20 454.75,0 498.5,0 498.5,-20"/>
<text text-anchor="middle" x="476.63" y="-6.5" font-family="Helvetica,sans-Serif" font-size="10.00">Dense</text>
</a>
</g>
</g>
<!-- Node13&#45;&gt;Node14 -->
<g id="edge14" class="edge">
<title>Node13&#45;&gt;Node14</title>
<path fill="none" stroke="#63b8ff" d="M452.68,-55.59C456.5,-48.47 461.88,-38.45 466.57,-29.72"/>
<polygon fill="#63b8ff" stroke="#63b8ff" points="469.98,-31.76 471.63,-21.3 463.82,-28.45 469.98,-31.76"/>
</g>
<!-- Node15&#45;&gt;Node6 -->
<g id="edge17" class="edge">
<title>Node15&#45;&gt;Node6</title>
<path fill="none" stroke="#63b8ff" d="M359.63,-55.59C359.63,-48.86 359.63,-39.53 359.63,-31.15"/>
<polygon fill="#63b8ff" stroke="#63b8ff" points="363.13,-31.3 359.63,-21.3 356.13,-31.3 363.13,-31.3"/>
</g>
<!-- Node15&#45;&gt;Node7 -->
<g id="edge18" class="edge">
<title>Node15&#45;&gt;Node7</title>
<path fill="none" stroke="#63b8ff" d="M369.73,-55.59C377.96,-47.93 389.79,-36.91 399.64,-27.75"/>
<polygon fill="#63b8ff" stroke="#63b8ff" points="401.7,-30.67 406.64,-21.3 396.93,-25.55 401.7,-30.67"/>
</g>
<!-- Node17 -->
<g id="node17" class="node">
<title>Node17</title>
<g id="a_node17"><a xlink:title=" ">
<polygon fill="#e0e0e0" stroke="#999999" points="795.63,-20 737.63,-20 737.63,0 795.63,0 795.63,-20"/>
<text text-anchor="middle" x="766.63" y="-6.5" font-family="Helvetica,sans-Serif" font-size="10.00">exception</text>
</a>
</g>
</g>
<!-- Node16&#45;&gt;Node17 -->
<g id="edge20" class="edge">
<title>Node16&#45;&gt;Node17</title>
<path fill="none" stroke="#63b8ff" d="M824.43,-55.59C814.19,-47.7 799.34,-36.24 787.26,-26.92"/>
<polygon fill="#63b8ff" stroke="#63b8ff" points="789.73,-23.64 779.68,-20.3 785.46,-29.18 789.73,-23.64"/>
</g>
<!-- Node18 -->
<g id="node18" class="node">
<title>Node18</title>
<g id="a_node18"><a xlink:title=" ">
<polygon fill="#e0e0e0" stroke="#999999" points="859.25,-20 814,-20 814,0 859.25,0 859.25,-20"/>
<text text-anchor="middle" x="836.63" y="-6.5" font-family="Helvetica,sans-Serif" font-size="10.00">cstring</text>
</a>
</g>
</g>
<!-- Node16&#45;&gt;Node18 -->
<g id="edge21" class="edge">
<title>Node16&#45;&gt;Node18</title>
<path fill="none" stroke="#63b8ff" d="M836.63,-55.59C836.63,-48.86 836.63,-39.53 836.63,-31.15"/>
<polygon fill="#63b8ff" stroke="#63b8ff" points="840.13,-31.3 836.63,-21.3 833.13,-31.3 840.13,-31.3"/>
</g>
<!-- Node19 -->
<g id="node19" class="node">
<title>Node19</title>
<g id="a_node19"><a xlink:title=" ">
<polygon fill="#e0e0e0" stroke="#999999" points="936,-20 877.25,-20 877.25,0 936,0 936,-20"/>
<text text-anchor="middle" x="906.63" y="-6.5" font-family="Helvetica,sans-Serif" font-size="10.00">stdexcept</text>
</a>
</g>
</g>
<!-- Node16&#45;&gt;Node19 -->
<g id="edge22" class="edge">
<title>Node16&#45;&gt;Node19</title>
<path fill="none" stroke="#63b8ff" d="M848.82,-55.59C859.06,-47.7 873.91,-36.24 885.99,-26.92"/>
<polygon fill="#63b8ff" stroke="#63b8ff" points="887.79,-29.18 893.57,-20.3 883.52,-23.64 887.79,-29.18"/>
</g>
</g>
</svg>
