<?xml version="1.0" encoding="UTF-8" standalone="no"?>
<!DOCTYPE svg PUBLIC "-//W3C//DTD SVG 1.1//EN"
 "http://www.w3.org/Graphics/SVG/1.1/DTD/svg11.dtd">
<!-- Generated by graphviz version 8.0.5 (20230430.1635)
 -->
<!-- Title: HF::GraphGenerator::ValidateStartPoint Pages: 1 -->
<svg width="620pt" height="66pt"
 viewBox="0.00 0.00 619.50 66.00" xmlns="http://www.w3.org/2000/svg" xmlns:xlink="http://www.w3.org/1999/xlink">
<g id="graph0" class="graph" transform="scale(1 1) rotate(0) translate(4 62)">
<title>HF::GraphGenerator::ValidateStartPoint</title>
<!-- Node1 -->
<g id="node1" class="node">
<title>Node1</title>
<g id="a_node1"><a xlink:title="Determine if the start point of the graph is over valid ground.">
<polygon fill="#999999" stroke="#666666" points="611.5,-45 507.75,-45 507.75,-13 611.5,-13 611.5,-45"/>
<text text-anchor="start" x="515.75" y="-31.5" font-family="Helvetica,sans-Serif" font-size="10.00">HF::GraphGenerator</text>
<text text-anchor="middle" x="559.63" y="-19.5" font-family="Helvetica,sans-Serif" font-size="10.00">::ValidateStartPoint</text>
</a>
</g>
</g>
<!-- Node2 -->
<g id="node2" class="node">
<title>Node2</title>
<g id="a_node2"><a xlink:href="a01245.html#a5788e421d921ec0ff27defc139c45106" target="_top" xlink:title="Generate a graph of accessible space.">
<polygon fill="white" stroke="#666666" points="471.75,-51 352.25,-51 352.25,-7 471.75,-7 471.75,-51"/>
<text text-anchor="start" x="360.25" y="-37.5" font-family="Helvetica,sans-Serif" font-size="10.00">HF::GraphGenerator</text>
<text text-anchor="start" x="360.25" y="-25.5" font-family="Helvetica,sans-Serif" font-size="10.00">::GraphGenerator::IMPL</text>
<text text-anchor="middle" x="412" y="-13.5" font-family="Helvetica,sans-Serif" font-size="10.00">_BuildNetwork</text>
</a>
</g>
</g>
<!-- Node1&#45;&gt;Node2 -->
<g id="edge1" class="edge">
<title>Node1&#45;&gt;Node2</title>
<path fill="none" stroke="#63b8ff" d="M496.43,-29C488.35,-29 480.1,-29 472.09,-29"/>
<polygon fill="#63b8ff" stroke="#63b8ff" points="496.28,-32.5 506.28,-29 496.28,-25.5 496.28,-32.5"/>
</g>
<!-- Node3 -->
<g id="node3" class="node">
<title>Node3</title>
<g id="a_node3"><a xlink:href="a01245.html#a0c12341433bbec41cc12cc1dbb41a976" target="_top" xlink:title="Generate a graph of accessible space.">
<polygon fill="white" stroke="#666666" points="316.25,-45 162.25,-45 162.25,-13 316.25,-13 316.25,-45"/>
<text text-anchor="start" x="170.25" y="-31.5" font-family="Helvetica,sans-Serif" font-size="10.00">HF::GraphGenerator</text>
<text text-anchor="middle" x="239.25" y="-19.5" font-family="Helvetica,sans-Serif" font-size="10.00">::GraphGenerator::BuildNetwork</text>
</a>
</g>
</g>
<!-- Node2&#45;&gt;Node3 -->
<g id="edge2" class="edge">
<title>Node2&#45;&gt;Node3</title>
<path fill="none" stroke="#63b8ff" d="M340.93,-29C332.88,-29 324.65,-29 316.53,-29"/>
<polygon fill="#63b8ff" stroke="#63b8ff" points="340.76,-32.5 350.76,-29 340.76,-25.5 340.76,-32.5"/>
</g>
<!-- Node4 -->
<g id="node4" class="node">
<title>Node4</title>
<g id="a_node4"><a xlink:href="a00388.html#ga2df84a732d1edfb70b7bd26d3282e129" target="_top" xlink:title="Construct a graph by performing a breadth&#45;first search of accessible space.">
<polygon fill="white" stroke="#666666" points="104.13,-58 22.13,-58 22.13,-38 104.13,-38 104.13,-58"/>
<text text-anchor="middle" x="63.13" y="-44.5" font-family="Helvetica,sans-Serif" font-size="10.00">GenerateGraph</text>
</a>
</g>
</g>
<!-- Node3&#45;&gt;Node4 -->
<g id="edge3" class="edge">
<title>Node3&#45;&gt;Node4</title>
<path fill="none" stroke="#63b8ff" d="M151.19,-38.5C134.89,-40.28 118.59,-42.06 104.57,-43.59"/>
<polygon fill="#63b8ff" stroke="#63b8ff" points="151.31,-41.9 160.88,-37.33 150.56,-34.94 151.31,-41.9"/>
</g>
<!-- Node5 -->
<g id="node5" class="node">
<title>Node5</title>
<g id="a_node5"><a xlink:href="a00388.html#gab9f58e3ecc686fa9bc34519b0faed734" target="_top" xlink:title="Construct a graph by performing a breadth&#45;first search of accessible space, seperating obstacles from...">
<polygon fill="white" stroke="#666666" points="126.25,-20 0,-20 0,0 126.25,0 126.25,-20"/>
<text text-anchor="middle" x="63.13" y="-6.5" font-family="Helvetica,sans-Serif" font-size="10.00">GenerateGraphObstacles</text>
</a>
</g>
</g>
<!-- Node3&#45;&gt;Node5 -->
<g id="edge4" class="edge">
<title>Node3&#45;&gt;Node5</title>
<path fill="none" stroke="#63b8ff" d="M151.05,-19.49C142.8,-18.58 134.55,-17.68 126.6,-16.82"/>
<polygon fill="#63b8ff" stroke="#63b8ff" points="150.56,-23.06 160.88,-20.67 151.31,-16.1 150.56,-23.06"/>
</g>
</g>
</svg>
