<?xml version="1.0" encoding="UTF-8" standalone="no"?>
<!DOCTYPE svg PUBLIC "-//W3C//DTD SVG 1.1//EN"
 "http://www.w3.org/Graphics/SVG/1.1/DTD/svg11.dtd">
<!-- Generated by graphviz version 2.43.0 (0)
 -->
<!-- Title: AggregateCosts Pages: 1 -->
<svg width="275pt" height="78pt"
 viewBox="0.00 0.00 275.00 77.50" xmlns="http://www.w3.org/2000/svg" xmlns:xlink="http://www.w3.org/1999/xlink">
<g id="graph0" class="graph" transform="scale(1 1) rotate(0) translate(4 73.5)">
<title>AggregateCosts</title>
<polygon fill="white" stroke="transparent" points="-4,4 -4,-73.5 271,-73.5 271,4 -4,4"/>
<!-- Node1 -->
<g id="node1" class="node">
<title>Node1</title>
<g id="a_node1"><a xlink:title="Get an ordered array of costs for each node aggregated by the desired function.">
<polygon fill="#bfbfbf" stroke="black" points="0,-22.5 0,-41.5 94,-41.5 94,-22.5 0,-22.5"/>
<text text-anchor="middle" x="47" y="-29.5" font-family="Helvetica,sans-Serif" font-size="10.00">AggregateCosts</text>
</a>
</g>
</g>
<!-- Node2 -->
<g id="node2" class="node">
<title>Node2</title>
<g id="a_node2"><a xlink:href="a01497.html#a307c31b1dcc4647c7e071413e3503846" target="_top" xlink:title="Summarize the costs of every outgoing edge for every node in the graph.">
<polygon fill="white" stroke="black" points="130,-39 130,-69 267,-69 267,-39 130,-39"/>
<text text-anchor="start" x="138" y="-57" font-family="Helvetica,sans-Serif" font-size="10.00">HF::SpatialStructures</text>
<text text-anchor="middle" x="198.5" y="-46" font-family="Helvetica,sans-Serif" font-size="10.00">::Graph::AggregateGraph</text>
</a>
</g>
</g>
<!-- Node1&#45;&gt;Node2 -->
<g id="edge1" class="edge">
<title>Node1&#45;&gt;Node2</title>
<path fill="none" stroke="midnightblue" d="M94.07,-38.78C102.3,-39.99 111.08,-41.28 119.91,-42.58"/>
<polygon fill="midnightblue" stroke="midnightblue" points="119.46,-46.05 129.87,-44.05 120.48,-39.13 119.46,-46.05"/>
</g>
<!-- Node3 -->
<g id="node3" class="node">
<title>Node3</title>
<g id="a_node3"><a xlink:href="a00368.html#a4a6d9b1a1bf9c8f2b5394875a8ca0c72" target="_top" xlink:title=" ">
<polygon fill="white" stroke="black" points="160,-0.5 160,-19.5 237,-19.5 237,-0.5 160,-0.5"/>
<text text-anchor="middle" x="198.5" y="-7.5" font-family="Helvetica,sans-Serif" font-size="10.00">parse_string</text>
</a>
</g>
</g>
<!-- Node1&#45;&gt;Node3 -->
<g id="edge2" class="edge">
<title>Node1&#45;&gt;Node3</title>
<path fill="none" stroke="midnightblue" d="M94.07,-25.22C111.72,-22.62 131.87,-19.66 149.68,-17.04"/>
<polygon fill="midnightblue" stroke="midnightblue" points="150.46,-20.46 159.85,-15.54 149.45,-13.53 150.46,-20.46"/>
</g>
</g>
</svg>
