<?xml version="1.0" encoding="UTF-8" standalone="no"?>
<!DOCTYPE svg PUBLIC "-//W3C//DTD SVG 1.1//EN"
 "http://www.w3.org/Graphics/SVG/1.1/DTD/svg11.dtd">
<!-- Generated by graphviz version 8.0.5 (20230430.1635)
 -->
<!-- Title: CastSingleRayDistance Pages: 1 -->
<svg width="658pt" height="40pt"
 viewBox="0.00 0.00 657.75 40.00" xmlns="http://www.w3.org/2000/svg" xmlns:xlink="http://www.w3.org/1999/xlink">
<g id="graph0" class="graph" transform="scale(1 1) rotate(0) translate(4 36)">
<title>CastSingleRayDistance</title>
<!-- Node1 -->
<g id="node1" class="node">
<title>Node1</title>
<g id="a_node1"><a xlink:title="Cast a single ray and get the distance to its hit and the mesh ID if it hit anything....">
<polygon fill="#999999" stroke="#666666" points="118.75,-26 0,-26 0,-6 118.75,-6 118.75,-26"/>
<text text-anchor="middle" x="59.38" y="-12.5" font-family="Helvetica,sans-Serif" font-size="10.00">CastSingleRayDistance</text>
</a>
</g>
</g>
<!-- Node2 -->
<g id="node2" class="node">
<title>Node2</title>
<g id="a_node2"><a xlink:href="a01345.html#a7f8ab81033bdefaea0eea729aa9125ae" target="_top" xlink:title="Cast a ray from origin in direction and update the parameters instead of returning a hitstruct.">
<polygon fill="white" stroke="#666666" points="317.75,-32 154.75,-32 154.75,0 317.75,0 317.75,-32"/>
<text text-anchor="start" x="162.75" y="-18.5" font-family="Helvetica,sans-Serif" font-size="10.00">HF::RayTracer::EmbreeRay</text>
<text text-anchor="middle" x="236.25" y="-6.5" font-family="Helvetica,sans-Serif" font-size="10.00">Tracer::IntersectOutputArguments</text>
</a>
</g>
</g>
<!-- Node1&#45;&gt;Node2 -->
<g id="edge1" class="edge">
<title>Node1&#45;&gt;Node2</title>
<path fill="none" stroke="#63b8ff" d="M119.09,-16C126.96,-16 135.17,-16 143.44,-16"/>
<polygon fill="#63b8ff" stroke="#63b8ff" points="143.31,-19.5 153.31,-16 143.31,-12.5 143.31,-19.5"/>
</g>
<!-- Node3 -->
<g id="node3" class="node">
<title>Node3</title>
<g id="a_node3"><a xlink:href="a01349.html#a3d86c2c8d8e0ec6bf63a653ec89807a8" target="_top" xlink:title="Determine whether or not this hitstruct contains a hit.">
<polygon fill="white" stroke="#666666" points="477,-32 353.75,-32 353.75,0 477,0 477,-32"/>
<text text-anchor="start" x="361.75" y="-18.5" font-family="Helvetica,sans-Serif" font-size="10.00">HF::RayTracer::HitStruct</text>
<text text-anchor="middle" x="415.38" y="-6.5" font-family="Helvetica,sans-Serif" font-size="10.00">::DidHit</text>
</a>
</g>
</g>
<!-- Node2&#45;&gt;Node3 -->
<g id="edge2" class="edge">
<title>Node2&#45;&gt;Node3</title>
<path fill="none" stroke="#63b8ff" d="M318.04,-16C326.19,-16 334.44,-16 342.49,-16"/>
<polygon fill="#63b8ff" stroke="#63b8ff" points="342.32,-19.5 352.32,-16 342.32,-12.5 342.32,-19.5"/>
</g>
<!-- Node4 -->
<g id="node4" class="node">
<title>Node4</title>
<g id="a_node4"><a xlink:href="a00398.html#a2630761a64fac02a4ee33abaf5c885a1" target="_top" xlink:title=" ">
<polygon fill="white" stroke="#666666" points="649.75,-26 513,-26 513,-6 649.75,-6 649.75,-26"/>
<text text-anchor="middle" x="581.38" y="-12.5" font-family="Helvetica,sans-Serif" font-size="10.00">HF::RayTracer::DidIntersect</text>
</a>
</g>
</g>
<!-- Node3&#45;&gt;Node4 -->
<g id="edge3" class="edge">
<title>Node3&#45;&gt;Node4</title>
<path fill="none" stroke="#63b8ff" d="M477.44,-16C485.42,-16 493.68,-16 501.9,-16"/>
<polygon fill="#63b8ff" stroke="#63b8ff" points="501.64,-19.5 511.64,-16 501.64,-12.5 501.64,-19.5"/>
</g>
</g>
</svg>
