<?xml version="1.0" encoding="UTF-8" standalone="no"?>
<!DOCTYPE svg PUBLIC "-//W3C//DTD SVG 1.1//EN"
 "http://www.w3.org/Graphics/SVG/1.1/DTD/svg11.dtd">
<!-- Generated by graphviz version 2.43.0 (0)
 -->
<!-- Title: TEST Pages: 1 -->
<svg width="605pt" height="372pt"
 viewBox="0.00 0.00 605.00 372.00" xmlns="http://www.w3.org/2000/svg" xmlns:xlink="http://www.w3.org/1999/xlink">
<g id="graph0" class="graph" transform="scale(1 1) rotate(0) translate(4 368)">
<title>TEST</title>
<polygon fill="white" stroke="transparent" points="-4,4 -4,-368 601,-368 601,4 -4,4"/>
<!-- Node1 -->
<g id="node1" class="node">
<title>Node1</title>
<g id="a_node1"><a xlink:title=" ">
<polygon fill="#bfbfbf" stroke="black" points="0,-197 0,-216 41,-216 41,-197 0,-197"/>
<text text-anchor="middle" x="20.5" y="-204" font-family="Helvetica,sans-Serif" font-size="10.00">TEST</text>
</a>
</g>
</g>
<!-- Node2 -->
<g id="node2" class="node">
<title>Node2</title>
<g id="a_node2"><a xlink:href="a01497.html#a37be5c12e488072dea7fa1c8c64346f7" target="_top" xlink:title="Add a new edge to the graph from parent to child.">
<polygon fill="white" stroke="black" points="95,-333.5 95,-363.5 214,-363.5 214,-333.5 95,-333.5"/>
<text text-anchor="start" x="103" y="-351.5" font-family="Helvetica,sans-Serif" font-size="10.00">HF::SpatialStructures</text>
<text text-anchor="middle" x="154.5" y="-340.5" font-family="Helvetica,sans-Serif" font-size="10.00">::Graph::addEdge</text>
</a>
</g>
</g>
<!-- Node1&#45;&gt;Node2 -->
<g id="edge1" class="edge">
<title>Node1&#45;&gt;Node2</title>
<path fill="none" stroke="midnightblue" d="M23.27,-216.02C27.91,-238.34 42.55,-294.43 77,-324.5 79.7,-326.86 82.64,-328.99 85.73,-330.91"/>
<polygon fill="midnightblue" stroke="midnightblue" points="84.33,-334.13 94.8,-335.78 87.65,-327.96 84.33,-334.13"/>
</g>
<!-- Node3 -->
<g id="node3" class="node">
<title>Node3</title>
<g id="a_node3"><a xlink:href="a01497.html#a41cece77d0eee98df39ecc6d3a366ec8" target="_top" xlink:title="Compress the graph to a CSR and enable the usage of several functions.">
<polygon fill="white" stroke="black" points="95,-284.5 95,-314.5 214,-314.5 214,-284.5 95,-284.5"/>
<text text-anchor="start" x="103" y="-302.5" font-family="Helvetica,sans-Serif" font-size="10.00">HF::SpatialStructures</text>
<text text-anchor="middle" x="154.5" y="-291.5" font-family="Helvetica,sans-Serif" font-size="10.00">::Graph::Compress</text>
</a>
</g>
</g>
<!-- Node1&#45;&gt;Node3 -->
<g id="edge2" class="edge">
<title>Node1&#45;&gt;Node3</title>
<path fill="none" stroke="midnightblue" d="M26.66,-216.02C35.18,-230.89 53.63,-259.56 77,-275.5 79.76,-277.38 82.67,-279.12 85.69,-280.73"/>
<polygon fill="midnightblue" stroke="midnightblue" points="84.46,-284.02 94.99,-285.17 87.47,-277.71 84.46,-284.02"/>
</g>
<!-- Node4 -->
<g id="node4" class="node">
<title>Node4</title>
<g id="a_node4"><a xlink:href="a00406.html#ae2106e09eb44d681fbc6c0f66a3d3ac4" target="_top" xlink:title="Create a new boost graph from a HF::SpatialStructures:Graph.">
<polygon fill="white" stroke="black" points="77,-235.5 77,-265.5 232,-265.5 232,-235.5 77,-235.5"/>
<text text-anchor="start" x="85" y="-253.5" font-family="Helvetica,sans-Serif" font-size="10.00">HF::Pathfinding::CreateBoost</text>
<text text-anchor="middle" x="154.5" y="-242.5" font-family="Helvetica,sans-Serif" font-size="10.00">Graph</text>
</a>
</g>
</g>
<!-- Node1&#45;&gt;Node4 -->
<g id="edge3" class="edge">
<title>Node1&#45;&gt;Node4</title>
<path fill="none" stroke="midnightblue" d="M41.26,-213.34C51.84,-216.98 65.12,-221.53 77,-225.5 83.5,-227.67 90.32,-229.93 97.09,-232.16"/>
<polygon fill="midnightblue" stroke="midnightblue" points="96.35,-235.6 106.94,-235.4 98.53,-228.95 96.35,-235.6"/>
</g>
<!-- Node5 -->
<g id="node5" class="node">
<title>Node5</title>
<g id="a_node5"><a xlink:href="a00406.html#a47d06b1c4bd84f4d0a7519ea0e96ff02" target="_top" xlink:title="Find a path between points A and B using Dijkstra&#39;s Shortest Path algorithm.">
<polygon fill="white" stroke="black" points="86,-197 86,-216 223,-216 223,-197 86,-197"/>
<text text-anchor="middle" x="154.5" y="-204" font-family="Helvetica,sans-Serif" font-size="10.00">HF::Pathfinding::FindPath</text>
</a>
</g>
</g>
<!-- Node1&#45;&gt;Node5 -->
<g id="edge4" class="edge">
<title>Node1&#45;&gt;Node5</title>
<path fill="none" stroke="midnightblue" d="M41.26,-206.5C50.8,-206.5 62.92,-206.5 75.65,-206.5"/>
<polygon fill="midnightblue" stroke="midnightblue" points="75.95,-210 85.95,-206.5 75.95,-203 75.95,-210"/>
</g>
<!-- Node9 -->
<g id="node9" class="node">
<title>Node9</title>
<g id="a_node9"><a xlink:href="a00406.html#ab58662be8e56c333d74d60a823e810e3" target="_top" xlink:title="Generate the distance and predecessor matricies for a specific boost graph.">
<polygon fill="white" stroke="black" points="84.5,-147.5 84.5,-177.5 224.5,-177.5 224.5,-147.5 84.5,-147.5"/>
<text text-anchor="start" x="92.5" y="-165.5" font-family="Helvetica,sans-Serif" font-size="10.00">HF::Pathfinding::Generate</text>
<text text-anchor="middle" x="154.5" y="-154.5" font-family="Helvetica,sans-Serif" font-size="10.00">DistanceAndPred</text>
</a>
</g>
</g>
<!-- Node1&#45;&gt;Node9 -->
<g id="edge8" class="edge">
<title>Node1&#45;&gt;Node9</title>
<path fill="none" stroke="midnightblue" d="M41.26,-199.66C51.84,-196.02 65.12,-191.47 77,-187.5 83.5,-185.33 90.32,-183.07 97.09,-180.84"/>
<polygon fill="midnightblue" stroke="midnightblue" points="98.53,-184.05 106.94,-177.6 96.35,-177.4 98.53,-184.05"/>
</g>
<!-- Node12 -->
<g id="node12" class="node">
<title>Node12</title>
<g id="a_node12"><a xlink:href="a00311.html#ad03ee88dee5ac4231a3d356f7776b855" target="_top" xlink:title=" ">
<polygon fill="white" stroke="black" points="98.5,-82 98.5,-101 210.5,-101 210.5,-82 98.5,-82"/>
<text text-anchor="middle" x="154.5" y="-89" font-family="Helvetica,sans-Serif" font-size="10.00">QuickConstructPath</text>
</a>
</g>
</g>
<!-- Node1&#45;&gt;Node12 -->
<g id="edge12" class="edge">
<title>Node1&#45;&gt;Node12</title>
<path fill="none" stroke="midnightblue" d="M27.81,-196.85C37.3,-182.84 56.35,-156.56 77,-138.5 91.57,-125.75 110.02,-114.31 125.14,-105.91"/>
<polygon fill="midnightblue" stroke="midnightblue" points="126.93,-108.92 134.07,-101.08 123.61,-102.76 126.93,-108.92"/>
</g>
<!-- Node15 -->
<g id="node15" class="node">
<title>Node15</title>
<g id="a_node15"><a xlink:href="a01497.html#a2710af2a75976862d7a235793567d2f3" target="_top" xlink:title="Determine how many nodes are in the graph.">
<polygon fill="white" stroke="black" points="95,-32.5 95,-62.5 214,-62.5 214,-32.5 95,-32.5"/>
<text text-anchor="start" x="103" y="-50.5" font-family="Helvetica,sans-Serif" font-size="10.00">HF::SpatialStructures</text>
<text text-anchor="middle" x="154.5" y="-39.5" font-family="Helvetica,sans-Serif" font-size="10.00">::Graph::size</text>
</a>
</g>
</g>
<!-- Node1&#45;&gt;Node15 -->
<g id="edge15" class="edge">
<title>Node1&#45;&gt;Node15</title>
<path fill="none" stroke="midnightblue" d="M22.72,-196.84C26.32,-172.4 39.12,-107.57 77,-72.5 79.78,-69.93 82.82,-67.62 86.05,-65.55"/>
<polygon fill="midnightblue" stroke="midnightblue" points="87.91,-68.52 94.96,-60.6 84.52,-62.4 87.91,-68.52"/>
</g>
<!-- Node6 -->
<g id="node6" class="node">
<title>Node6</title>
<g id="a_node6"><a xlink:href="a00406.html#a9f6490539108da057db2486295458886" target="_top" xlink:title="Build a row of the distance and predecessor matrices for the node at id.">
<polygon fill="white" stroke="black" points="272.5,-284.5 272.5,-314.5 435.5,-314.5 435.5,-284.5 272.5,-284.5"/>
<text text-anchor="start" x="280.5" y="-302.5" font-family="Helvetica,sans-Serif" font-size="10.00">HF::Pathfinding::BuildDistance</text>
<text text-anchor="middle" x="354" y="-291.5" font-family="Helvetica,sans-Serif" font-size="10.00">AndPredecessor</text>
</a>
</g>
</g>
<!-- Node5&#45;&gt;Node6 -->
<g id="edge5" class="edge">
<title>Node5&#45;&gt;Node6</title>
<path fill="none" stroke="midnightblue" d="M210.97,-216.14C218.4,-218.8 225.64,-222.18 232,-226.5 254.36,-241.68 245.79,-260.1 268,-275.5 270.15,-276.99 272.39,-278.39 274.7,-279.7"/>
<polygon fill="midnightblue" stroke="midnightblue" points="273.41,-282.97 283.91,-284.35 276.56,-276.72 273.41,-282.97"/>
</g>
<!-- Node8 -->
<g id="node8" class="node">
<title>Node8</title>
<g id="a_node8"><a xlink:href="a00406.html#a322ac32effd41c99359b82df0890e34a" target="_top" xlink:title="Overload to call this with a distPred instead of the raw arrays.">
<polygon fill="white" stroke="black" points="283,-235.5 283,-265.5 425,-265.5 425,-235.5 283,-235.5"/>
<text text-anchor="start" x="291" y="-253.5" font-family="Helvetica,sans-Serif" font-size="10.00">HF::Pathfinding::Construct</text>
<text text-anchor="middle" x="354" y="-242.5" font-family="Helvetica,sans-Serif" font-size="10.00">ShortestPathFromPred</text>
</a>
</g>
</g>
<!-- Node5&#45;&gt;Node8 -->
<g id="edge7" class="edge">
<title>Node5&#45;&gt;Node8</title>
<path fill="none" stroke="midnightblue" d="M198.35,-216.05C220.89,-221.07 249.21,-227.38 275.44,-233.22"/>
<polygon fill="midnightblue" stroke="midnightblue" points="274.86,-236.68 285.38,-235.43 276.38,-229.84 274.86,-236.68"/>
</g>
<!-- Node7 -->
<g id="node7" class="node">
<title>Node7</title>
<g id="a_node7"><a xlink:href="a00411.html#acc422c11342b31368f610b6f96fcedc6" target="_top" xlink:title=" ">
<polygon fill="white" stroke="black" points="476,-243 476,-262 597,-262 597,-243 476,-243"/>
<text text-anchor="middle" x="536.5" y="-250" font-family="Helvetica,sans-Serif" font-size="10.00">nlohmann::detail::get</text>
</a>
</g>
</g>
<!-- Node6&#45;&gt;Node7 -->
<g id="edge6" class="edge">
<title>Node6&#45;&gt;Node7</title>
<path fill="none" stroke="midnightblue" d="M412.61,-284.5C437.23,-278.09 465.61,-270.7 488.88,-264.64"/>
<polygon fill="midnightblue" stroke="midnightblue" points="490.05,-267.95 498.85,-262.04 488.29,-261.18 490.05,-267.95"/>
</g>
<!-- Node9&#45;&gt;Node7 -->
<g id="edge9" class="edge">
<title>Node9&#45;&gt;Node7</title>
<path fill="none" stroke="midnightblue" d="M223.18,-177.56C300.51,-194.79 419.12,-221.31 440,-226.5 457.12,-230.75 475.88,-235.78 492.2,-240.27"/>
<polygon fill="midnightblue" stroke="midnightblue" points="491.43,-243.69 502.01,-242.99 493.3,-236.95 491.43,-243.69"/>
</g>
<!-- Node10 -->
<g id="node10" class="node">
<title>Node10</title>
<g id="a_node10"><a xlink:href="a01341.html#a75b5c1c61a7afbe2ace4ba7a9cd41026" target="_top" xlink:title="Get a pointer to the beginning of the ith row of the distance array.">
<polygon fill="white" stroke="black" points="269,-147.5 269,-177.5 439,-177.5 439,-147.5 269,-147.5"/>
<text text-anchor="start" x="277" y="-165.5" font-family="Helvetica,sans-Serif" font-size="10.00">HF::Pathfinding::Distance</text>
<text text-anchor="middle" x="354" y="-154.5" font-family="Helvetica,sans-Serif" font-size="10.00">AndPredecessor::GetRowOfDist</text>
</a>
</g>
</g>
<!-- Node9&#45;&gt;Node10 -->
<g id="edge10" class="edge">
<title>Node9&#45;&gt;Node10</title>
<path fill="none" stroke="midnightblue" d="M224.58,-162.5C235.59,-162.5 247.14,-162.5 258.62,-162.5"/>
<polygon fill="midnightblue" stroke="midnightblue" points="258.67,-166 268.67,-162.5 258.67,-159 258.67,-166"/>
</g>
<!-- Node11 -->
<g id="node11" class="node">
<title>Node11</title>
<g id="a_node11"><a xlink:href="a01341.html#a686718154f87c6914399998637b5bd4e" target="_top" xlink:title="Get a pointer to the beginning of the ith row of the predecessor array.">
<polygon fill="white" stroke="black" points="268,-98.5 268,-128.5 440,-128.5 440,-98.5 268,-98.5"/>
<text text-anchor="start" x="276" y="-116.5" font-family="Helvetica,sans-Serif" font-size="10.00">HF::Pathfinding::Distance</text>
<text text-anchor="middle" x="354" y="-105.5" font-family="Helvetica,sans-Serif" font-size="10.00">AndPredecessor::GetRowOfPred</text>
</a>
</g>
</g>
<!-- Node9&#45;&gt;Node11 -->
<g id="edge11" class="edge">
<title>Node9&#45;&gt;Node11</title>
<path fill="none" stroke="midnightblue" d="M216.1,-147.47C237.14,-142.24 260.92,-136.35 282.68,-130.95"/>
<polygon fill="midnightblue" stroke="midnightblue" points="283.65,-134.31 292.52,-128.51 281.97,-127.52 283.65,-134.31"/>
</g>
<!-- Node13 -->
<g id="node13" class="node">
<title>Node13</title>
<g id="a_node13"><a xlink:href="a02029.html#a55ded4e02787eb739770ebe28ef386a9" target="_top" xlink:title="Add a new node to the path.">
<polygon fill="white" stroke="black" points="294.5,-49.5 294.5,-79.5 413.5,-79.5 413.5,-49.5 294.5,-49.5"/>
<text text-anchor="start" x="302.5" y="-67.5" font-family="Helvetica,sans-Serif" font-size="10.00">HF::SpatialStructures</text>
<text text-anchor="middle" x="354" y="-56.5" font-family="Helvetica,sans-Serif" font-size="10.00">::Path::AddNode</text>
</a>
</g>
</g>
<!-- Node12&#45;&gt;Node13 -->
<g id="edge13" class="edge">
<title>Node12&#45;&gt;Node13</title>
<path fill="none" stroke="midnightblue" d="M210.51,-83.98C233.39,-80.85 260.18,-77.19 284.32,-73.89"/>
<polygon fill="midnightblue" stroke="midnightblue" points="285.05,-77.32 294.48,-72.5 284.1,-70.39 285.05,-77.32"/>
</g>
<!-- Node14 -->
<g id="node14" class="node">
<title>Node14</title>
<g id="a_node14"><a xlink:href="a02029.html#adf2bad9ac73dbdc436c365654d54ad98" target="_top" xlink:title="Reverse the direction of this path.">
<polygon fill="white" stroke="black" points="294.5,-0.5 294.5,-30.5 413.5,-30.5 413.5,-0.5 294.5,-0.5"/>
<text text-anchor="start" x="302.5" y="-18.5" font-family="Helvetica,sans-Serif" font-size="10.00">HF::SpatialStructures</text>
<text text-anchor="middle" x="354" y="-7.5" font-family="Helvetica,sans-Serif" font-size="10.00">::Path::Reverse</text>
</a>
</g>
</g>
<!-- Node12&#45;&gt;Node14 -->
<g id="edge14" class="edge">
<title>Node12&#45;&gt;Node14</title>
<path fill="none" stroke="midnightblue" d="M208.19,-82C216.41,-79.51 224.62,-76.39 232,-72.5 250.94,-62.52 249.28,-50.88 268,-40.5 273.38,-37.51 279.16,-34.85 285.08,-32.48"/>
<polygon fill="midnightblue" stroke="midnightblue" points="286.31,-35.76 294.46,-29 283.87,-29.2 286.31,-35.76"/>
</g>
</g>
</svg>
