<?xml version="1.0" encoding="UTF-8" standalone="no"?>
<!DOCTYPE svg PUBLIC "-//W3C//DTD SVG 1.1//EN"
 "http://www.w3.org/Graphics/SVG/1.1/DTD/svg11.dtd">
<!-- Generated by graphviz version 7.0.3 (20221126.0506)
 -->
<!-- Title: HF::ViewAnalysis::SphericalViewAnalysis Pages: 1 -->
<svg width="710pt" height="124pt"
 viewBox="0.00 0.00 710.00 123.50" xmlns="http://www.w3.org/2000/svg" xmlns:xlink="http://www.w3.org/1999/xlink">
<g id="graph0" class="graph" transform="scale(1 1) rotate(0) translate(4 119.5)">
<title>HF::ViewAnalysis::SphericalViewAnalysis</title>
<!-- Node1 -->
<g id="node1" class="node">
<title>Node1</title>
<g id="a_node1"><a xlink:title="Conduct view analysis with any Raytracer in parallel.">
<polygon fill="#999999" stroke="#666666" points="140,-67.5 0,-67.5 0,-37.5 140,-37.5 140,-67.5"/>
<text text-anchor="start" x="8" y="-55.5" font-family="Helvetica,sans-Serif" font-size="10.00">HF::ViewAnalysis::Spherical</text>
<text text-anchor="middle" x="70" y="-44.5" font-family="Helvetica,sans-Serif" font-size="10.00">ViewAnalysis</text>
</a>
</g>
</g>
<!-- Node2 -->
<g id="node2" class="node">
<title>Node2</title>
<g id="a_node2"><a xlink:href="a00393.html#ga6ca336e3887ef82d17b0713c2bf862df" target="_top" xlink:title="Evenly distribute a set of points around a sphere centered at the origin.">
<polygon fill="white" stroke="#666666" points="323,-67.5 176,-67.5 176,-37.5 323,-37.5 323,-67.5"/>
<text text-anchor="start" x="184" y="-55.5" font-family="Helvetica,sans-Serif" font-size="10.00">HF::ViewAnalysis::Fibbonacci</text>
<text text-anchor="middle" x="249.5" y="-44.5" font-family="Helvetica,sans-Serif" font-size="10.00">DistributePoints</text>
</a>
</g>
</g>
<!-- Node1&#45;&gt;Node2 -->
<g id="edge1" class="edge">
<title>Node1&#45;&gt;Node2</title>
<path fill="none" stroke="#63b8ff" d="M140.39,-52.5C148.25,-52.5 156.33,-52.5 164.36,-52.5"/>
<polygon fill="#63b8ff" stroke="#63b8ff" points="164.13,-56 174.13,-52.5 164.13,-49 164.13,-56"/>
</g>
<!-- Node3 -->
<g id="node3" class="node">
<title>Node3</title>
<g id="a_node3"><a xlink:href="a00400.html#a5b45790c767b670bc00bf3fd2335159a" target="_top" xlink:title=" ">
<polygon fill="white" stroke="#666666" points="523,-62 359,-62 359,-43 523,-43 523,-62"/>
<text text-anchor="middle" x="441" y="-50" font-family="Helvetica,sans-Serif" font-size="10.00">HF::ViewAnalysis::FibbonacciDist</text>
</a>
</g>
</g>
<!-- Node2&#45;&gt;Node3 -->
<g id="edge2" class="edge">
<title>Node2&#45;&gt;Node3</title>
<path fill="none" stroke="#63b8ff" d="M323.49,-52.5C331.29,-52.5 339.29,-52.5 347.28,-52.5"/>
<polygon fill="#63b8ff" stroke="#63b8ff" points="347.01,-56 357.01,-52.5 347.01,-49 347.01,-56"/>
</g>
<!-- Node4 -->
<g id="node4" class="node">
<title>Node4</title>
<g id="a_node4"><a xlink:href="a00400.html#a94327f2628a43ffe3dc4ab854e8aa20d" target="_top" xlink:title=" ">
<polygon fill="white" stroke="#666666" points="697,-115.5 564,-115.5 564,-85.5 697,-85.5 697,-115.5"/>
<text text-anchor="start" x="572" y="-103.5" font-family="Helvetica,sans-Serif" font-size="10.00">HF::ViewAnalysis::Altitude</text>
<text text-anchor="middle" x="630.5" y="-92.5" font-family="Helvetica,sans-Serif" font-size="10.00">WithinRange</text>
</a>
</g>
</g>
<!-- Node3&#45;&gt;Node4 -->
<g id="edge3" class="edge">
<title>Node3&#45;&gt;Node4</title>
<path fill="none" stroke="#63b8ff" d="M480.85,-62.45C503.19,-68.16 531.95,-75.53 558.21,-82.25"/>
<polygon fill="#63b8ff" stroke="#63b8ff" points="557.26,-85.62 567.82,-84.71 559,-78.84 557.26,-85.62"/>
</g>
<!-- Node5 -->
<g id="node5" class="node">
<title>Node5</title>
<g id="a_node5"><a xlink:href="a00400.html#a9dcf81751f63f5c7356a4f45159184bb" target="_top" xlink:title="Convert a number from degrees to radians.">
<polygon fill="white" stroke="#666666" points="696.5,-67.5 564.5,-67.5 564.5,-37.5 696.5,-37.5 696.5,-67.5"/>
<text text-anchor="start" x="572.5" y="-55.5" font-family="Helvetica,sans-Serif" font-size="10.00">HF::ViewAnalysis::Convert</text>
<text text-anchor="middle" x="630.5" y="-44.5" font-family="Helvetica,sans-Serif" font-size="10.00">ToRadians</text>
</a>
</g>
</g>
<!-- Node3&#45;&gt;Node5 -->
<g id="edge4" class="edge">
<title>Node3&#45;&gt;Node5</title>
<path fill="none" stroke="#63b8ff" d="M523.42,-52.5C533.22,-52.5 543.21,-52.5 552.94,-52.5"/>
<polygon fill="#63b8ff" stroke="#63b8ff" points="552.71,-56 562.71,-52.5 552.71,-49 552.71,-56"/>
</g>
<!-- Node6 -->
<g id="node6" class="node">
<title>Node6</title>
<g id="a_node6"><a xlink:href="a00400.html#a38ed3d26d2fcc4bde1790c53eda3945a" target="_top" xlink:title="Normalize a vector.">
<polygon fill="white" stroke="#666666" points="702,-19 559,-19 559,0 702,0 702,-19"/>
<text text-anchor="middle" x="630.5" y="-7" font-family="Helvetica,sans-Serif" font-size="10.00">HF::ViewAnalysis::Normalize</text>
</a>
</g>
</g>
<!-- Node3&#45;&gt;Node6 -->
<g id="edge5" class="edge">
<title>Node3&#45;&gt;Node6</title>
<path fill="none" stroke="#63b8ff" d="M485.49,-42.53C512.13,-36.42 546.47,-28.54 574.93,-22.01"/>
<polygon fill="#63b8ff" stroke="#63b8ff" points="575.48,-25.48 584.45,-19.83 573.92,-18.66 575.48,-25.48"/>
</g>
</g>
</svg>
