<?xml version="1.0" encoding="UTF-8" standalone="no"?>
<!DOCTYPE svg PUBLIC "-//W3C//DTD SVG 1.1//EN"
 "http://www.w3.org/Graphics/SVG/1.1/DTD/svg11.dtd">
<!-- Generated by graphviz version 2.43.0 (0)
 -->
<!-- Title: TEST Pages: 1 -->
<svg width="206pt" height="186pt"
 viewBox="0.00 0.00 206.00 186.00" xmlns="http://www.w3.org/2000/svg" xmlns:xlink="http://www.w3.org/1999/xlink">
<g id="graph0" class="graph" transform="scale(1 1) rotate(0) translate(4 182)">
<title>TEST</title>
<polygon fill="white" stroke="transparent" points="-4,4 -4,-182 202,-182 202,4 -4,4"/>
<!-- Node1 -->
<g id="node1" class="node">
<title>Node1</title>
<g id="a_node1"><a xlink:title=" ">
<polygon fill="#bfbfbf" stroke="black" points="0,-79 0,-98 41,-98 41,-79 0,-79"/>
<text text-anchor="middle" x="20.5" y="-86" font-family="Helvetica,sans-Serif" font-size="10.00">TEST</text>
</a>
</g>
</g>
<!-- Node2 -->
<g id="node2" class="node">
<title>Node2</title>
<g id="a_node2"><a xlink:href="a01497.html#a6f04c5320d4bf88120f8c5e31b0fb02a" target="_top" xlink:title="Add multiple edges to the graph.">
<polygon fill="white" stroke="black" points="78,-147.5 78,-177.5 197,-177.5 197,-147.5 78,-147.5"/>
<text text-anchor="start" x="86" y="-165.5" font-family="Helvetica,sans-Serif" font-size="10.00">HF::SpatialStructures</text>
<text text-anchor="middle" x="137.5" y="-154.5" font-family="Helvetica,sans-Serif" font-size="10.00">::Graph::AddEdges</text>
</a>
</g>
</g>
<!-- Node1&#45;&gt;Node2 -->
<g id="edge1" class="edge">
<title>Node1&#45;&gt;Node2</title>
<path fill="none" stroke="midnightblue" d="M30.12,-98.07C40.39,-109.03 58.52,-126.96 77,-138.5 79.48,-140.05 82.08,-141.53 84.74,-142.95"/>
<polygon fill="midnightblue" stroke="midnightblue" points="83.46,-146.22 93.98,-147.49 86.55,-139.94 83.46,-146.22"/>
</g>
<!-- Node3 -->
<g id="node3" class="node">
<title>Node3</title>
<g id="a_node3"><a xlink:href="a01497.html#a41cece77d0eee98df39ecc6d3a366ec8" target="_top" xlink:title="Compress the graph to a CSR and enable the usage of several functions.">
<polygon fill="white" stroke="black" points="78,-98.5 78,-128.5 197,-128.5 197,-98.5 78,-98.5"/>
<text text-anchor="start" x="86" y="-116.5" font-family="Helvetica,sans-Serif" font-size="10.00">HF::SpatialStructures</text>
<text text-anchor="middle" x="137.5" y="-105.5" font-family="Helvetica,sans-Serif" font-size="10.00">::Graph::Compress</text>
</a>
</g>
</g>
<!-- Node1&#45;&gt;Node3 -->
<g id="edge2" class="edge">
<title>Node1&#45;&gt;Node3</title>
<path fill="none" stroke="midnightblue" d="M41.01,-92.74C48.7,-94.41 58.03,-96.44 67.81,-98.57"/>
<polygon fill="midnightblue" stroke="midnightblue" points="67.18,-102.01 77.69,-100.72 68.67,-95.17 67.18,-102.01"/>
</g>
<!-- Node4 -->
<g id="node4" class="node">
<title>Node4</title>
<g id="a_node4"><a xlink:href="a01497.html#a36c503b51ba777faf59f09c104a63348" target="_top" xlink:title="Get every in the given graph as IDs.">
<polygon fill="white" stroke="black" points="78,-49.5 78,-79.5 197,-79.5 197,-49.5 78,-49.5"/>
<text text-anchor="start" x="86" y="-67.5" font-family="Helvetica,sans-Serif" font-size="10.00">HF::SpatialStructures</text>
<text text-anchor="middle" x="137.5" y="-56.5" font-family="Helvetica,sans-Serif" font-size="10.00">::Graph::GetEdges</text>
</a>
</g>
</g>
<!-- Node1&#45;&gt;Node4 -->
<g id="edge3" class="edge">
<title>Node1&#45;&gt;Node4</title>
<path fill="none" stroke="midnightblue" d="M41.01,-84.43C48.7,-82.82 58.03,-80.88 67.81,-78.84"/>
<polygon fill="midnightblue" stroke="midnightblue" points="68.62,-82.24 77.69,-76.77 67.19,-75.39 68.62,-82.24"/>
</g>
<!-- Node5 -->
<g id="node5" class="node">
<title>Node5</title>
<g id="a_node5"><a xlink:href="a01497.html#a89250c619a726fd0adbd71778d166887" target="_top" xlink:title="Retrieves a Subgraph using a Node.">
<polygon fill="white" stroke="black" points="77,-0.5 77,-30.5 198,-30.5 198,-0.5 77,-0.5"/>
<text text-anchor="start" x="85" y="-18.5" font-family="Helvetica,sans-Serif" font-size="10.00">HF::SpatialStructures</text>
<text text-anchor="middle" x="137.5" y="-7.5" font-family="Helvetica,sans-Serif" font-size="10.00">::Graph::GetSubgraph</text>
</a>
</g>
</g>
<!-- Node1&#45;&gt;Node5 -->
<g id="edge4" class="edge">
<title>Node1&#45;&gt;Node5</title>
<path fill="none" stroke="midnightblue" d="M30.97,-78.63C41.46,-68.12 59.25,-51.52 77,-40.5 80.14,-38.55 83.45,-36.69 86.84,-34.93"/>
<polygon fill="midnightblue" stroke="midnightblue" points="88.49,-38.02 95.95,-30.5 85.43,-31.73 88.49,-38.02"/>
</g>
</g>
</svg>
