<?xml version="1.0" encoding="UTF-8" standalone="no"?>
<!DOCTYPE svg PUBLIC "-//W3C//DTD SVG 1.1//EN"
 "http://www.w3.org/Graphics/SVG/1.1/DTD/svg11.dtd">
<!-- Generated by graphviz version 2.43.0 (0)
 -->
<!-- Title: CastMultipleOriginsOneDirection Pages: 1 -->
<svg width="569pt" height="78pt"
 viewBox="0.00 0.00 569.00 77.50" xmlns="http://www.w3.org/2000/svg" xmlns:xlink="http://www.w3.org/1999/xlink">
<g id="graph0" class="graph" transform="scale(1 1) rotate(0) translate(4 73.5)">
<title>CastMultipleOriginsOneDirection</title>
<polygon fill="white" stroke="transparent" points="-4,4 -4,-73.5 565,-73.5 565,4 -4,4"/>
<!-- Node1 -->
<g id="node1" class="node">
<title>Node1</title>
<g id="a_node1"><a xlink:title="Cast rays from each origin point in the given direction.">
<polygon fill="#bfbfbf" stroke="black" points="0,-28 0,-47 176,-47 176,-28 0,-28"/>
<text text-anchor="middle" x="88" y="-35" font-family="Helvetica,sans-Serif" font-size="10.00">CastMultipleOriginsOneDirection</text>
</a>
</g>
</g>
<!-- Node2 -->
<g id="node2" class="node">
<title>Node2</title>
<g id="a_node2"><a xlink:href="a00179.html#a2f5650b0bad6c47aa34fc2206433a34b" target="_top" xlink:title="Convert a raw array from an external caller to an organized vector of points">
<polygon fill="white" stroke="black" points="212,-50 212,-69 379,-69 379,-50 212,-50"/>
<text text-anchor="middle" x="295.5" y="-57" font-family="Helvetica,sans-Serif" font-size="10.00">ConvertRawFloatArrayToPoints</text>
</a>
</g>
</g>
<!-- Node1&#45;&gt;Node2 -->
<g id="edge1" class="edge">
<title>Node1&#45;&gt;Node2</title>
<path fill="none" stroke="midnightblue" d="M176.15,-46.83C184.64,-47.74 193.28,-48.66 201.82,-49.58"/>
<polygon fill="midnightblue" stroke="midnightblue" points="201.48,-53.06 211.79,-50.65 202.22,-46.1 201.48,-53.06"/>
</g>
<!-- Node3 -->
<g id="node3" class="node">
<title>Node3</title>
<g id="a_node3"><a xlink:href="a01357.html#a5dd86a06e71c5215b6abdc39056db15f" target="_top" xlink:title="Cast multiple rays and recieve hitpoints in return.">
<polygon fill="white" stroke="black" points="222.5,-0.5 222.5,-30.5 368.5,-30.5 368.5,-0.5 222.5,-0.5"/>
<text text-anchor="start" x="230.5" y="-18.5" font-family="Helvetica,sans-Serif" font-size="10.00">HF::RayTracer::EmbreeRay</text>
<text text-anchor="middle" x="295.5" y="-7.5" font-family="Helvetica,sans-Serif" font-size="10.00">Tracer::PointIntersections</text>
</a>
</g>
</g>
<!-- Node1&#45;&gt;Node3 -->
<g id="edge2" class="edge">
<title>Node1&#45;&gt;Node3</title>
<path fill="none" stroke="midnightblue" d="M176.15,-28.17C188.08,-26.89 200.3,-25.58 212.14,-24.32"/>
<polygon fill="midnightblue" stroke="midnightblue" points="212.86,-27.76 222.43,-23.22 212.11,-20.8 212.86,-27.76"/>
</g>
<!-- Node4 -->
<g id="node4" class="node">
<title>Node4</title>
<g id="a_node4"><a xlink:href="a01357.html#aa8424b274c7c5d0598ff13b49ac8c8d2" target="_top" xlink:title="Cast a ray and overwrite the origin with the hitpoint if it intersects any geometry.">
<polygon fill="white" stroke="black" points="415,-0.5 415,-30.5 561,-30.5 561,-0.5 415,-0.5"/>
<text text-anchor="start" x="423" y="-18.5" font-family="Helvetica,sans-Serif" font-size="10.00">HF::RayTracer::EmbreeRay</text>
<text text-anchor="middle" x="488" y="-7.5" font-family="Helvetica,sans-Serif" font-size="10.00">Tracer::PointIntersection</text>
</a>
</g>
</g>
<!-- Node3&#45;&gt;Node4 -->
<g id="edge3" class="edge">
<title>Node3&#45;&gt;Node4</title>
<path fill="none" stroke="midnightblue" d="M368.52,-15.5C380.37,-15.5 392.74,-15.5 404.82,-15.5"/>
<polygon fill="midnightblue" stroke="midnightblue" points="404.88,-19 414.88,-15.5 404.88,-12 404.88,-19"/>
</g>
</g>
</svg>
