<?xml version="1.0" encoding="UTF-8" standalone="no"?>
<!DOCTYPE svg PUBLIC "-//W3C//DTD SVG 1.1//EN"
 "http://www.w3.org/Graphics/SVG/1.1/DTD/svg11.dtd">
<!-- Generated by graphviz version 2.43.0 (0)
 -->
<!-- Title: TEST Pages: 1 -->
<svg width="415pt" height="264pt"
 viewBox="0.00 0.00 415.00 263.50" xmlns="http://www.w3.org/2000/svg" xmlns:xlink="http://www.w3.org/1999/xlink">
<g id="graph0" class="graph" transform="scale(1 1) rotate(0) translate(4 259.5)">
<title>TEST</title>
<polygon fill="white" stroke="transparent" points="-4,4 -4,-259.5 411,-259.5 411,4 -4,4"/>
<!-- Node1 -->
<g id="node1" class="node">
<title>Node1</title>
<g id="a_node1"><a xlink:title=" ">
<polygon fill="#bfbfbf" stroke="black" points="0,-116 0,-135 41,-135 41,-116 0,-116"/>
<text text-anchor="middle" x="20.5" y="-123" font-family="Helvetica,sans-Serif" font-size="10.00">TEST</text>
</a>
</g>
</g>
<!-- Node2 -->
<g id="node2" class="node">
<title>Node2</title>
<g id="a_node2"><a xlink:href="a01497.html#acb6e9bc04bec84b28043c41c96139b1a" target="_top" xlink:title="Generate edge costs from a set of node attributes.">
<polygon fill="white" stroke="black" points="92,-214.5 92,-244.5 211,-244.5 211,-214.5 92,-214.5"/>
<text text-anchor="start" x="100" y="-232.5" font-family="Helvetica,sans-Serif" font-size="10.00">HF::SpatialStructures</text>
<text text-anchor="middle" x="151.5" y="-221.5" font-family="Helvetica,sans-Serif" font-size="10.00">::Graph::AttrToCost</text>
</a>
</g>
</g>
<!-- Node1&#45;&gt;Node2 -->
<g id="edge1" class="edge">
<title>Node1&#45;&gt;Node2</title>
<path fill="none" stroke="midnightblue" d="M25.83,-135.26C33.67,-151.86 51.78,-185.6 77,-204.5 79.51,-206.38 82.17,-208.12 84.93,-209.74"/>
<polygon fill="midnightblue" stroke="midnightblue" points="83.55,-212.97 94.04,-214.49 86.79,-206.76 83.55,-212.97"/>
</g>
<!-- Node3 -->
<g id="node3" class="node">
<title>Node3</title>
<g id="a_node3"><a xlink:href="a00320.html#aeb206f54c446e0930c89c7d3cceb5068" target="_top" xlink:title=" ">
<polygon fill="white" stroke="black" points="89.5,-176 89.5,-195 213.5,-195 213.5,-176 89.5,-176"/>
<text text-anchor="middle" x="151.5" y="-183" font-family="Helvetica,sans-Serif" font-size="10.00">ConvertStringsToFloat</text>
</a>
</g>
</g>
<!-- Node1&#45;&gt;Node3 -->
<g id="edge2" class="edge">
<title>Node1&#45;&gt;Node3</title>
<path fill="none" stroke="midnightblue" d="M32.16,-135.35C42.78,-144.65 59.91,-158.36 77,-166.5 81.98,-168.87 87.3,-170.98 92.71,-172.84"/>
<polygon fill="midnightblue" stroke="midnightblue" points="91.91,-176.26 102.5,-175.93 94.02,-169.58 91.91,-176.26"/>
</g>
<!-- Node5 -->
<g id="node5" class="node">
<title>Node5</title>
<g id="a_node5"><a xlink:href="a00320.html#a7bc73cd302d249a0b9684bda2b724569" target="_top" xlink:title=" ">
<polygon fill="white" stroke="black" points="78.5,-138 78.5,-157 224.5,-157 224.5,-138 78.5,-138"/>
<text text-anchor="middle" x="151.5" y="-145" font-family="Helvetica,sans-Serif" font-size="10.00">CreateNodeAttributeGraph</text>
</a>
</g>
</g>
<!-- Node1&#45;&gt;Node5 -->
<g id="edge4" class="edge">
<title>Node1&#45;&gt;Node5</title>
<path fill="none" stroke="midnightblue" d="M41.09,-128.84C52.94,-130.86 68.8,-133.57 84.77,-136.29"/>
<polygon fill="midnightblue" stroke="midnightblue" points="84.24,-139.75 94.69,-137.98 85.42,-132.85 84.24,-139.75"/>
</g>
<!-- Node10 -->
<g id="node10" class="node">
<title>Node10</title>
<g id="a_node10"><a xlink:href="a01497.html#a2bb134f68f988eeee4e0ba3e2a698852" target="_top" xlink:title="get the cost from parent_id to child_id in the given cost_type.">
<polygon fill="white" stroke="black" points="92,-88.5 92,-118.5 211,-118.5 211,-88.5 92,-88.5"/>
<text text-anchor="start" x="100" y="-106.5" font-family="Helvetica,sans-Serif" font-size="10.00">HF::SpatialStructures</text>
<text text-anchor="middle" x="151.5" y="-95.5" font-family="Helvetica,sans-Serif" font-size="10.00">::Graph::GetCost</text>
</a>
</g>
</g>
<!-- Node1&#45;&gt;Node10 -->
<g id="edge9" class="edge">
<title>Node1&#45;&gt;Node10</title>
<path fill="none" stroke="midnightblue" d="M41.09,-122.16C52.25,-120.26 66.97,-117.75 81.98,-115.19"/>
<polygon fill="midnightblue" stroke="midnightblue" points="82.58,-118.63 91.85,-113.5 81.41,-111.73 82.58,-118.63"/>
</g>
<!-- Node11 -->
<g id="node11" class="node">
<title>Node11</title>
<g id="a_node11"><a xlink:href="a00320.html#a36301884ca7e920be5eb71602c1d915d" target="_top" xlink:title=" ">
<polygon fill="white" stroke="black" points="127.5,-50 127.5,-69 175.5,-69 175.5,-50 127.5,-50"/>
<text text-anchor="middle" x="151.5" y="-57" font-family="Helvetica,sans-Serif" font-size="10.00">GetIds</text>
</a>
</g>
</g>
<!-- Node1&#45;&gt;Node11 -->
<g id="edge10" class="edge">
<title>Node1&#45;&gt;Node11</title>
<path fill="none" stroke="midnightblue" d="M30.35,-115.73C40.58,-105.04 58.39,-88.14 77,-78.5 89.47,-72.04 104.29,-67.67 117.34,-64.77"/>
<polygon fill="midnightblue" stroke="midnightblue" points="118.24,-68.15 127.35,-62.74 116.86,-61.29 118.24,-68.15"/>
</g>
<!-- Node12 -->
<g id="node12" class="node">
<title>Node12</title>
<g id="a_node12"><a xlink:href="a01497.html#a0f4f9703fc3910c6685b3ac55993f586" target="_top" xlink:title="Get the score for the given attribute of every node in the graph. Nodes that do not have a score for ...">
<polygon fill="white" stroke="black" points="77,-0.5 77,-30.5 226,-30.5 226,-0.5 77,-0.5"/>
<text text-anchor="start" x="85" y="-18.5" font-family="Helvetica,sans-Serif" font-size="10.00">HF::SpatialStructures</text>
<text text-anchor="middle" x="151.5" y="-7.5" font-family="Helvetica,sans-Serif" font-size="10.00">::Graph::GetNodeAttributes</text>
</a>
</g>
</g>
<!-- Node1&#45;&gt;Node12 -->
<g id="edge12" class="edge">
<title>Node1&#45;&gt;Node12</title>
<path fill="none" stroke="midnightblue" d="M25.27,-115.84C32.6,-98.3 50.41,-61.14 77,-40.5 79.42,-38.62 82,-36.87 84.68,-35.26"/>
<polygon fill="midnightblue" stroke="midnightblue" points="86.37,-38.32 93.53,-30.51 83.06,-32.15 86.37,-38.32"/>
</g>
<!-- Node4 -->
<g id="node4" class="node">
<title>Node4</title>
<g id="a_node4"><a xlink:href="a00320.html#adef0c14ed1b57fb69940592d3f99f4f6" target="_top" xlink:title=" ">
<polygon fill="white" stroke="black" points="294.5,-236 294.5,-255 374.5,-255 374.5,-236 294.5,-236"/>
<text text-anchor="middle" x="334.5" y="-243" font-family="Helvetica,sans-Serif" font-size="10.00">StringToFloat</text>
</a>
</g>
</g>
<!-- Node3&#45;&gt;Node4 -->
<g id="edge3" class="edge">
<title>Node3&#45;&gt;Node4</title>
<path fill="none" stroke="midnightblue" d="M195.12,-195.06C205.41,-197.92 216.24,-201.41 226,-205.5 243.08,-212.66 244.9,-219.39 262,-226.5 269.17,-229.48 276.94,-232.11 284.63,-234.4"/>
<polygon fill="midnightblue" stroke="midnightblue" points="283.71,-237.77 294.28,-237.1 285.6,-231.03 283.71,-237.77"/>
</g>
<!-- Node6 -->
<g id="node6" class="node">
<title>Node6</title>
<g id="a_node6"><a xlink:href="a01497.html#a37be5c12e488072dea7fa1c8c64346f7" target="_top" xlink:title="Add a new edge to the graph from parent to child.">
<polygon fill="white" stroke="black" points="275,-186.5 275,-216.5 394,-216.5 394,-186.5 275,-186.5"/>
<text text-anchor="start" x="283" y="-204.5" font-family="Helvetica,sans-Serif" font-size="10.00">HF::SpatialStructures</text>
<text text-anchor="middle" x="334.5" y="-193.5" font-family="Helvetica,sans-Serif" font-size="10.00">::Graph::addEdge</text>
</a>
</g>
</g>
<!-- Node5&#45;&gt;Node6 -->
<g id="edge5" class="edge">
<title>Node5&#45;&gt;Node6</title>
<path fill="none" stroke="midnightblue" d="M191.15,-157.01C202.42,-159.92 214.74,-163.21 226,-166.5 243.56,-171.62 262.59,-177.66 279.68,-183.26"/>
<polygon fill="midnightblue" stroke="midnightblue" points="278.9,-186.69 289.5,-186.49 281.09,-180.04 278.9,-186.69"/>
</g>
<!-- Node7 -->
<g id="node7" class="node">
<title>Node7</title>
<g id="a_node7"><a xlink:href="a01497.html#a819ecd54d0148ddf867e6ca77fec8379" target="_top" xlink:title="Add an attribute to the node at id">
<polygon fill="white" stroke="black" points="262,-137.5 262,-167.5 407,-167.5 407,-137.5 262,-137.5"/>
<text text-anchor="start" x="270" y="-155.5" font-family="Helvetica,sans-Serif" font-size="10.00">HF::SpatialStructures</text>
<text text-anchor="middle" x="334.5" y="-144.5" font-family="Helvetica,sans-Serif" font-size="10.00">::Graph::AddNodeAttribute</text>
</a>
</g>
</g>
<!-- Node5&#45;&gt;Node7 -->
<g id="edge6" class="edge">
<title>Node5&#45;&gt;Node7</title>
<path fill="none" stroke="midnightblue" d="M224.56,-149.49C233.51,-149.74 242.71,-149.99 251.8,-150.24"/>
<polygon fill="midnightblue" stroke="midnightblue" points="251.89,-153.75 261.99,-150.52 252.09,-146.75 251.89,-153.75"/>
</g>
<!-- Node8 -->
<g id="node8" class="node">
<title>Node8</title>
<g id="a_node8"><a xlink:href="a01497.html#a41cece77d0eee98df39ecc6d3a366ec8" target="_top" xlink:title="Compress the graph to a CSR and enable the usage of several functions.">
<polygon fill="white" stroke="black" points="275,-88.5 275,-118.5 394,-118.5 394,-88.5 275,-88.5"/>
<text text-anchor="start" x="283" y="-106.5" font-family="Helvetica,sans-Serif" font-size="10.00">HF::SpatialStructures</text>
<text text-anchor="middle" x="334.5" y="-95.5" font-family="Helvetica,sans-Serif" font-size="10.00">::Graph::Compress</text>
</a>
</g>
</g>
<!-- Node5&#45;&gt;Node8 -->
<g id="edge7" class="edge">
<title>Node5&#45;&gt;Node8</title>
<path fill="none" stroke="midnightblue" d="M191.77,-137.95C213.07,-132.78 240,-126.23 264.65,-120.24"/>
<polygon fill="midnightblue" stroke="midnightblue" points="265.8,-123.56 274.69,-117.8 264.15,-116.76 265.8,-123.56"/>
</g>
<!-- Node9 -->
<g id="node9" class="node">
<title>Node9</title>
<g id="a_node9"><a xlink:href="a01497.html#af59beedafb4af0ee99d54761e1c681fc" target="_top" xlink:title="Retrieve the ID for node in this graph.">
<polygon fill="white" stroke="black" points="275,-39.5 275,-69.5 394,-69.5 394,-39.5 275,-39.5"/>
<text text-anchor="start" x="283" y="-57.5" font-family="Helvetica,sans-Serif" font-size="10.00">HF::SpatialStructures</text>
<text text-anchor="middle" x="334.5" y="-46.5" font-family="Helvetica,sans-Serif" font-size="10.00">::Graph::getID</text>
</a>
</g>
</g>
<!-- Node5&#45;&gt;Node9 -->
<g id="edge8" class="edge">
<title>Node5&#45;&gt;Node9</title>
<path fill="none" stroke="midnightblue" d="M207.36,-137.9C213.95,-135.45 220.34,-132.37 226,-128.5 248.6,-113.04 239.96,-94.75 262,-78.5 263.88,-77.11 265.85,-75.8 267.89,-74.56"/>
<polygon fill="midnightblue" stroke="midnightblue" points="270,-77.4 277.15,-69.58 266.69,-71.23 270,-77.4"/>
</g>
<!-- Node11&#45;&gt;Node9 -->
<g id="edge11" class="edge">
<title>Node11&#45;&gt;Node9</title>
<path fill="none" stroke="midnightblue" d="M175.79,-58.86C198.28,-58.24 233.45,-57.26 264.87,-56.4"/>
<polygon fill="midnightblue" stroke="midnightblue" points="265.02,-59.89 274.92,-56.12 264.83,-52.9 265.02,-59.89"/>
</g>
</g>
</svg>
