<?xml version="1.0" encoding="UTF-8" standalone="no"?>
<!DOCTYPE svg PUBLIC "-//W3C//DTD SVG 1.1//EN"
 "http://www.w3.org/Graphics/SVG/1.1/DTD/svg11.dtd">
<!-- Generated by graphviz version 2.43.0 (0)
 -->
<!-- Title: HF::GraphGenerator::GetChildren Pages: 1 -->
<svg width="772pt" height="325pt"
 viewBox="0.00 0.00 772.00 325.00" xmlns="http://www.w3.org/2000/svg" xmlns:xlink="http://www.w3.org/1999/xlink">
<g id="graph0" class="graph" transform="scale(1 1) rotate(0) translate(4 321)">
<title>HF::GraphGenerator::GetChildren</title>
<polygon fill="white" stroke="transparent" points="-4,4 -4,-321 768,-321 768,4 -4,4"/>
<!-- Node1 -->
<g id="node1" class="node">
<title>Node1</title>
<g id="a_node1"><a xlink:title="Calculate all possible edges between parent and possible_children.">
<polygon fill="#bfbfbf" stroke="black" points="0,-66.5 0,-96.5 113,-96.5 113,-66.5 0,-66.5"/>
<text text-anchor="start" x="8" y="-84.5" font-family="Helvetica,sans-Serif" font-size="10.00">HF::GraphGenerator</text>
<text text-anchor="middle" x="56.5" y="-73.5" font-family="Helvetica,sans-Serif" font-size="10.00">::GetChildren</text>
</a>
</g>
</g>
<!-- Node2 -->
<g id="node2" class="node">
<title>Node2</title>
<g id="a_node2"><a xlink:href="a00397.html#a4b7cc0ad0002975404acef5064f4f546" target="_top" xlink:title="Determine whether children are over valid ground, and and meet upstep/downstep requirements.">
<polygon fill="white" stroke="black" points="149,-162.5 149,-192.5 262,-192.5 262,-162.5 149,-162.5"/>
<text text-anchor="start" x="157" y="-180.5" font-family="Helvetica,sans-Serif" font-size="10.00">HF::GraphGenerator</text>
<text text-anchor="middle" x="205.5" y="-169.5" font-family="Helvetica,sans-Serif" font-size="10.00">::CheckChildren</text>
</a>
</g>
</g>
<!-- Node1&#45;&gt;Node2 -->
<g id="edge1" class="edge">
<title>Node1&#45;&gt;Node2</title>
<path fill="none" stroke="midnightblue" d="M80.79,-96.71C105.63,-112.93 145.12,-138.72 172.78,-156.79"/>
<polygon fill="midnightblue" stroke="midnightblue" points="171.03,-159.82 181.32,-162.36 174.86,-153.96 171.03,-159.82"/>
</g>
<!-- Node9 -->
<g id="node9" class="node">
<title>Node9</title>
<g id="a_node9"><a xlink:href="a00397.html#aeab1db37b5aa614235f109d5dd9711a9" target="_top" xlink:title="Determine what kind of step (if any) is between parent and child.">
<polygon fill="white" stroke="black" points="149,-88.5 149,-118.5 262,-118.5 262,-88.5 149,-88.5"/>
<text text-anchor="start" x="157" y="-106.5" font-family="Helvetica,sans-Serif" font-size="10.00">HF::GraphGenerator</text>
<text text-anchor="middle" x="205.5" y="-95.5" font-family="Helvetica,sans-Serif" font-size="10.00">::CheckConnection</text>
</a>
</g>
</g>
<!-- Node1&#45;&gt;Node9 -->
<g id="edge8" class="edge">
<title>Node1&#45;&gt;Node9</title>
<path fill="none" stroke="midnightblue" d="M113.07,-89.82C121.49,-91.08 130.24,-92.39 138.84,-93.67"/>
<polygon fill="midnightblue" stroke="midnightblue" points="138.44,-97.15 148.85,-95.17 139.48,-90.23 138.44,-97.15"/>
</g>
<!-- Node12 -->
<g id="node12" class="node">
<title>Node12</title>
<g id="a_node12"><a xlink:href="a00397.html#a7f96186b8f24f878404d1feccf2f64db" target="_top" xlink:title="Calculate the distance between two nodes.">
<polygon fill="white" stroke="black" points="456.5,-41.5 456.5,-71.5 569.5,-71.5 569.5,-41.5 456.5,-41.5"/>
<text text-anchor="start" x="464.5" y="-59.5" font-family="Helvetica,sans-Serif" font-size="10.00">HF::GraphGenerator</text>
<text text-anchor="middle" x="513" y="-48.5" font-family="Helvetica,sans-Serif" font-size="10.00">::DistanceTo</text>
</a>
</g>
</g>
<!-- Node1&#45;&gt;Node12 -->
<g id="edge13" class="edge">
<title>Node1&#45;&gt;Node12</title>
<path fill="none" stroke="midnightblue" d="M113.23,-78.43C197.34,-73.81 356.39,-65.06 446.11,-60.12"/>
<polygon fill="midnightblue" stroke="midnightblue" points="446.38,-63.62 456.17,-59.57 445.99,-56.63 446.38,-63.62"/>
</g>
<!-- Node14 -->
<g id="node14" class="node">
<title>Node14</title>
<g id="a_node14"><a xlink:href="a00397.html#abf1a3ae7dc89b3cf430e059a87fcd477" target="_top" xlink:title="Convert a point_type to a node.">
<polygon fill="white" stroke="black" points="149,-0.5 149,-30.5 262,-30.5 262,-0.5 149,-0.5"/>
<text text-anchor="start" x="157" y="-18.5" font-family="Helvetica,sans-Serif" font-size="10.00">HF::GraphGenerator</text>
<text text-anchor="middle" x="205.5" y="-7.5" font-family="Helvetica,sans-Serif" font-size="10.00">::ToNode</text>
</a>
</g>
</g>
<!-- Node1&#45;&gt;Node14 -->
<g id="edge14" class="edge">
<title>Node1&#45;&gt;Node14</title>
<path fill="none" stroke="midnightblue" d="M91.22,-66.36C112.14,-56.97 139.21,-44.82 161.63,-34.75"/>
<polygon fill="midnightblue" stroke="midnightblue" points="163.24,-37.86 170.93,-30.57 160.38,-31.47 163.24,-37.86"/>
</g>
<!-- Node3 -->
<g id="node3" class="node">
<title>Node3</title>
<g id="a_node3"><a xlink:href="a00397.html#a74be560268a713fc9e9b8b4a453afa2f" target="_top" xlink:title="Cast a ray and get the point of intersection if it connects.">
<polygon fill="white" stroke="black" points="298,-188.5 298,-218.5 411,-218.5 411,-188.5 298,-188.5"/>
<text text-anchor="start" x="306" y="-206.5" font-family="Helvetica,sans-Serif" font-size="10.00">HF::GraphGenerator</text>
<text text-anchor="middle" x="354.5" y="-195.5" font-family="Helvetica,sans-Serif" font-size="10.00">::CheckRay</text>
</a>
</g>
</g>
<!-- Node2&#45;&gt;Node3 -->
<g id="edge2" class="edge">
<title>Node2&#45;&gt;Node3</title>
<path fill="none" stroke="midnightblue" d="M262.07,-187.33C270.49,-188.82 279.24,-190.37 287.84,-191.89"/>
<polygon fill="midnightblue" stroke="midnightblue" points="287.39,-195.36 297.85,-193.66 288.61,-188.47 287.39,-195.36"/>
</g>
<!-- Node4 -->
<g id="node4" class="node">
<title>Node4</title>
<g id="a_node4"><a xlink:href="a00397.html#ab731d597ee2a843f7b7cb1ccbae67782" target="_top" xlink:title="Determine if a hit is against the geometry type specified.">
<polygon fill="white" stroke="black" points="456.5,-286.5 456.5,-316.5 569.5,-316.5 569.5,-286.5 456.5,-286.5"/>
<text text-anchor="start" x="464.5" y="-304.5" font-family="Helvetica,sans-Serif" font-size="10.00">HF::GraphGenerator</text>
<text text-anchor="middle" x="513" y="-293.5" font-family="Helvetica,sans-Serif" font-size="10.00">::CheckGeometryID</text>
</a>
</g>
</g>
<!-- Node3&#45;&gt;Node4 -->
<g id="edge3" class="edge">
<title>Node3&#45;&gt;Node4</title>
<path fill="none" stroke="midnightblue" d="M370.86,-218.59C388.15,-234.92 417.69,-260.84 447,-277.5 449.88,-279.13 452.88,-280.7 455.96,-282.18"/>
<polygon fill="midnightblue" stroke="midnightblue" points="454.79,-285.49 465.35,-286.39 457.66,-279.1 454.79,-285.49"/>
</g>
<!-- Node5 -->
<g id="node5" class="node">
<title>Node5</title>
<g id="a_node5"><a xlink:href="a01361.html#a3d86c2c8d8e0ec6bf63a653ec89807a8" target="_top" xlink:title="Determine whether or not this hitstruct contains a hit.">
<polygon fill="white" stroke="black" points="447,-237.5 447,-267.5 579,-267.5 579,-237.5 447,-237.5"/>
<text text-anchor="start" x="455" y="-255.5" font-family="Helvetica,sans-Serif" font-size="10.00">HF::RayTracer::HitStruct</text>
<text text-anchor="middle" x="513" y="-244.5" font-family="Helvetica,sans-Serif" font-size="10.00">::DidHit</text>
</a>
</g>
</g>
<!-- Node3&#45;&gt;Node5 -->
<g id="edge4" class="edge">
<title>Node3&#45;&gt;Node5</title>
<path fill="none" stroke="midnightblue" d="M403.73,-218.6C419.72,-223.61 437.69,-229.23 454.32,-234.44"/>
<polygon fill="midnightblue" stroke="midnightblue" points="453.34,-237.8 463.93,-237.45 455.43,-231.12 453.34,-237.8"/>
</g>
<!-- Node7 -->
<g id="node7" class="node">
<title>Node7</title>
<g id="a_node7"><a xlink:href="a01365.html#a7ee672618f7fe9ce6938978d93d18514" target="_top" xlink:title=" ">
<polygon fill="white" stroke="black" points="450,-188.5 450,-218.5 576,-218.5 576,-188.5 450,-188.5"/>
<text text-anchor="start" x="458" y="-206.5" font-family="Helvetica,sans-Serif" font-size="10.00">HF::RayTracer::MultiRT</text>
<text text-anchor="middle" x="513" y="-195.5" font-family="Helvetica,sans-Serif" font-size="10.00">::Intersect</text>
</a>
</g>
</g>
<!-- Node3&#45;&gt;Node7 -->
<g id="edge6" class="edge">
<title>Node3&#45;&gt;Node7</title>
<path fill="none" stroke="midnightblue" d="M411.12,-203.5C420.44,-203.5 430.23,-203.5 439.9,-203.5"/>
<polygon fill="midnightblue" stroke="midnightblue" points="439.91,-207 449.91,-203.5 439.91,-200 439.91,-207"/>
</g>
<!-- Node8 -->
<g id="node8" class="node">
<title>Node8</title>
<g id="a_node8"><a xlink:href="a00397.html#a5ad3e8fac4a21eee744f3633f7a3692f" target="_top" xlink:title="Move a node in direction by dist units.">
<polygon fill="white" stroke="black" points="456.5,-139.5 456.5,-169.5 569.5,-169.5 569.5,-139.5 456.5,-139.5"/>
<text text-anchor="start" x="464.5" y="-157.5" font-family="Helvetica,sans-Serif" font-size="10.00">HF::GraphGenerator</text>
<text text-anchor="middle" x="513" y="-146.5" font-family="Helvetica,sans-Serif" font-size="10.00">::MoveNode</text>
</a>
</g>
</g>
<!-- Node3&#45;&gt;Node8 -->
<g id="edge7" class="edge">
<title>Node3&#45;&gt;Node8</title>
<path fill="none" stroke="midnightblue" d="M403.73,-188.4C419.72,-183.39 437.69,-177.77 454.32,-172.56"/>
<polygon fill="midnightblue" stroke="midnightblue" points="455.43,-175.88 463.93,-169.55 453.34,-169.2 455.43,-175.88"/>
</g>
<!-- Node6 -->
<g id="node6" class="node">
<title>Node6</title>
<g id="a_node6"><a xlink:href="a00398.html#a2630761a64fac02a4ee33abaf5c885a1" target="_top" xlink:title=" ">
<polygon fill="white" stroke="black" points="615,-243 615,-262 764,-262 764,-243 615,-243"/>
<text text-anchor="middle" x="689.5" y="-250" font-family="Helvetica,sans-Serif" font-size="10.00">HF::RayTracer::DidIntersect</text>
</a>
</g>
</g>
<!-- Node5&#45;&gt;Node6 -->
<g id="edge5" class="edge">
<title>Node5&#45;&gt;Node6</title>
<path fill="none" stroke="midnightblue" d="M579.47,-252.5C587.66,-252.5 596.11,-252.5 604.52,-252.5"/>
<polygon fill="midnightblue" stroke="midnightblue" points="604.75,-256 614.75,-252.5 604.75,-249 604.75,-256"/>
</g>
<!-- Node10 -->
<g id="node10" class="node">
<title>Node10</title>
<g id="a_node10"><a xlink:href="a00397.html#a9daa85cb56a1b18d44f46aa9c420afde" target="_top" xlink:title="Determine if the slope between parent and child is traversable according to the graph parameters.">
<polygon fill="white" stroke="black" points="298,-137.5 298,-167.5 411,-167.5 411,-137.5 298,-137.5"/>
<text text-anchor="start" x="306" y="-155.5" font-family="Helvetica,sans-Serif" font-size="10.00">HF::GraphGenerator</text>
<text text-anchor="middle" x="354.5" y="-144.5" font-family="Helvetica,sans-Serif" font-size="10.00">::CheckSlope</text>
</a>
</g>
</g>
<!-- Node9&#45;&gt;Node10 -->
<g id="edge9" class="edge">
<title>Node9&#45;&gt;Node10</title>
<path fill="none" stroke="midnightblue" d="M251.8,-118.6C266.54,-123.51 283.07,-129.02 298.44,-134.15"/>
<polygon fill="midnightblue" stroke="midnightblue" points="297.75,-137.61 308.35,-137.45 299.97,-130.97 297.75,-137.61"/>
</g>
<!-- Node11 -->
<g id="node11" class="node">
<title>Node11</title>
<g id="a_node11"><a xlink:href="a00397.html#ace66c1b60785c32433402f012019ab81" target="_top" xlink:title="Determine if there is a valid line of sight between parent and child.">
<polygon fill="white" stroke="black" points="298,-88.5 298,-118.5 411,-118.5 411,-88.5 298,-88.5"/>
<text text-anchor="start" x="306" y="-106.5" font-family="Helvetica,sans-Serif" font-size="10.00">HF::GraphGenerator</text>
<text text-anchor="middle" x="354.5" y="-95.5" font-family="Helvetica,sans-Serif" font-size="10.00">::OcclusionCheck</text>
</a>
</g>
</g>
<!-- Node9&#45;&gt;Node11 -->
<g id="edge10" class="edge">
<title>Node9&#45;&gt;Node11</title>
<path fill="none" stroke="midnightblue" d="M262.07,-103.5C270.49,-103.5 279.24,-103.5 287.84,-103.5"/>
<polygon fill="midnightblue" stroke="midnightblue" points="287.85,-107 297.85,-103.5 287.85,-100 287.85,-107"/>
</g>
<!-- Node11&#45;&gt;Node12 -->
<g id="edge11" class="edge">
<title>Node11&#45;&gt;Node12</title>
<path fill="none" stroke="midnightblue" d="M405.45,-88.5C420.27,-84.05 436.66,-79.13 452.05,-74.5"/>
<polygon fill="midnightblue" stroke="midnightblue" points="453.42,-77.75 461.99,-71.52 451.41,-71.04 453.42,-77.75"/>
</g>
<!-- Node13 -->
<g id="node13" class="node">
<title>Node13</title>
<g id="a_node13"><a xlink:href="a01365.html#a22ebf97e859ef651e81deb40b74f668f" target="_top" xlink:title=" ">
<polygon fill="white" stroke="black" points="450,-90.5 450,-120.5 576,-120.5 576,-90.5 450,-90.5"/>
<text text-anchor="start" x="458" y="-108.5" font-family="Helvetica,sans-Serif" font-size="10.00">HF::RayTracer::MultiRT</text>
<text text-anchor="middle" x="513" y="-97.5" font-family="Helvetica,sans-Serif" font-size="10.00">::Occluded</text>
</a>
</g>
</g>
<!-- Node11&#45;&gt;Node13 -->
<g id="edge12" class="edge">
<title>Node11&#45;&gt;Node13</title>
<path fill="none" stroke="midnightblue" d="M411.12,-104.21C420.44,-104.33 430.23,-104.46 439.9,-104.58"/>
<polygon fill="midnightblue" stroke="midnightblue" points="439.86,-108.08 449.91,-104.71 439.95,-101.08 439.86,-108.08"/>
</g>
</g>
</svg>
