<?xml version="1.0" encoding="UTF-8" standalone="no"?>
<!DOCTYPE svg PUBLIC "-//W3C//DTD SVG 1.1//EN"
 "http://www.w3.org/Graphics/SVG/1.1/DTD/svg11.dtd">
<!-- Generated by graphviz version 2.43.0 (0)
 -->
<!-- Title: AddEdgeFromNodes Pages: 1 -->
<svg width="281pt" height="66pt"
 viewBox="0.00 0.00 281.00 66.00" xmlns="http://www.w3.org/2000/svg" xmlns:xlink="http://www.w3.org/1999/xlink">
<g id="graph0" class="graph" transform="scale(1 1) rotate(0) translate(4 62)">
<title>AddEdgeFromNodes</title>
<polygon fill="white" stroke="transparent" points="-4,4 -4,-62 277,-62 277,4 -4,4"/>
<!-- Node1 -->
<g id="node1" class="node">
<title>Node1</title>
<g id="a_node1"><a xlink:title="Add an edge between parent and child. If parent or child does not already exist in the graph,...">
<polygon fill="#bfbfbf" stroke="black" points="158,-19.5 158,-38.5 273,-38.5 273,-19.5 158,-19.5"/>
<text text-anchor="middle" x="215.5" y="-26.5" font-family="Helvetica,sans-Serif" font-size="10.00">AddEdgeFromNodes</text>
</a>
</g>
</g>
<!-- Node2 -->
<g id="node2" class="node">
<title>Node2</title>
<g id="a_node2"><a xlink:href="a00311.html#a9cd14b781d7d4572fbcd5be32c359bf8" target="_top" xlink:title=" ">
<polygon fill="white" stroke="black" points="40.5,-38.5 40.5,-57.5 81.5,-57.5 81.5,-38.5 40.5,-38.5"/>
<text text-anchor="middle" x="61" y="-45.5" font-family="Helvetica,sans-Serif" font-size="10.00">TEST</text>
</a>
</g>
</g>
<!-- Node1&#45;&gt;Node2 -->
<g id="edge1" class="edge">
<title>Node1&#45;&gt;Node2</title>
<path fill="none" stroke="midnightblue" d="M147.55,-37.34C123.58,-40.33 98.37,-43.47 81.58,-45.56"/>
<polygon fill="midnightblue" stroke="midnightblue" points="148.22,-40.78 157.71,-36.07 147.36,-33.84 148.22,-40.78"/>
</g>
<!-- Node3 -->
<g id="node3" class="node">
<title>Node3</title>
<g id="a_node3"><a xlink:href="a00414.html#a54e90e9bc9234bfe95b0e18e74baa0b2" target="_top" xlink:title=" ">
<polygon fill="white" stroke="black" points="0,-0.5 0,-19.5 122,-19.5 122,-0.5 0,-0.5"/>
<text text-anchor="middle" x="61" y="-7.5" font-family="Helvetica,sans-Serif" font-size="10.00">CInterfaceTests::TEST</text>
</a>
</g>
</g>
<!-- Node1&#45;&gt;Node3 -->
<g id="edge2" class="edge">
<title>Node1&#45;&gt;Node3</title>
<path fill="none" stroke="midnightblue" d="M147.52,-20.66C139.08,-19.6 130.48,-18.53 122.15,-17.49"/>
<polygon fill="midnightblue" stroke="midnightblue" points="147.36,-24.16 157.71,-21.93 148.22,-17.22 147.36,-24.16"/>
</g>
</g>
</svg>
