<?xml version="1.0" encoding="UTF-8" standalone="no"?>
<!DOCTYPE svg PUBLIC "-//W3C//DTD SVG 1.1//EN"
 "http://www.w3.org/Graphics/SVG/1.1/DTD/svg11.dtd">
<!-- Generated by graphviz version 2.43.0 (0)
 -->
<!-- Title: TEST Pages: 1 -->
<svg width="574pt" height="247pt"
 viewBox="0.00 0.00 574.00 247.00" xmlns="http://www.w3.org/2000/svg" xmlns:xlink="http://www.w3.org/1999/xlink">
<g id="graph0" class="graph" transform="scale(1 1) rotate(0) translate(4 243)">
<title>TEST</title>
<polygon fill="white" stroke="transparent" points="-4,4 -4,-243 570,-243 570,4 -4,4"/>
<!-- Node1 -->
<g id="node1" class="node">
<title>Node1</title>
<g id="a_node1"><a xlink:title=" ">
<polygon fill="#bfbfbf" stroke="black" points="0,-110 0,-129 41,-129 41,-110 0,-110"/>
<text text-anchor="middle" x="20.5" y="-117" font-family="Helvetica,sans-Serif" font-size="10.00">TEST</text>
</a>
</g>
</g>
<!-- Node2 -->
<g id="node2" class="node">
<title>Node2</title>
<g id="a_node2"><a xlink:href="a01497.html#a37be5c12e488072dea7fa1c8c64346f7" target="_top" xlink:title="Add a new edge to the graph from parent to child.">
<polygon fill="white" stroke="black" points="92,-208.5 92,-238.5 211,-238.5 211,-208.5 92,-208.5"/>
<text text-anchor="start" x="100" y="-226.5" font-family="Helvetica,sans-Serif" font-size="10.00">HF::SpatialStructures</text>
<text text-anchor="middle" x="151.5" y="-215.5" font-family="Helvetica,sans-Serif" font-size="10.00">::Graph::addEdge</text>
</a>
</g>
</g>
<!-- Node1&#45;&gt;Node2 -->
<g id="edge1" class="edge">
<title>Node1&#45;&gt;Node2</title>
<path fill="none" stroke="midnightblue" d="M25.83,-129.26C33.67,-145.86 51.78,-179.6 77,-198.5 79.51,-200.38 82.17,-202.12 84.93,-203.74"/>
<polygon fill="midnightblue" stroke="midnightblue" points="83.55,-206.97 94.04,-208.49 86.79,-200.76 83.55,-206.97"/>
</g>
<!-- Node3 -->
<g id="node3" class="node">
<title>Node3</title>
<g id="a_node3"><a xlink:href="a01497.html#a6f04c5320d4bf88120f8c5e31b0fb02a" target="_top" xlink:title="Add multiple edges to the graph.">
<polygon fill="white" stroke="black" points="92,-159.5 92,-189.5 211,-189.5 211,-159.5 92,-159.5"/>
<text text-anchor="start" x="100" y="-177.5" font-family="Helvetica,sans-Serif" font-size="10.00">HF::SpatialStructures</text>
<text text-anchor="middle" x="151.5" y="-166.5" font-family="Helvetica,sans-Serif" font-size="10.00">::Graph::AddEdges</text>
</a>
</g>
</g>
<!-- Node1&#45;&gt;Node3 -->
<g id="edge2" class="edge">
<title>Node1&#45;&gt;Node3</title>
<path fill="none" stroke="midnightblue" d="M37.65,-129.17C48.54,-135.44 63.35,-143.54 77,-149.5 82.02,-151.69 87.29,-153.82 92.62,-155.84"/>
<polygon fill="midnightblue" stroke="midnightblue" points="91.62,-159.2 102.22,-159.37 94.04,-152.63 91.62,-159.2"/>
</g>
<!-- Node4 -->
<g id="node4" class="node">
<title>Node4</title>
<g id="a_node4"><a xlink:href="a00409.html#ac51f2e76c00356f8a6145bee865cd922" target="_top" xlink:title=" ">
<polygon fill="white" stroke="black" points="77,-99 77,-140 226,-140 226,-99 77,-99"/>
<text text-anchor="start" x="85" y="-128" font-family="Helvetica,sans-Serif" font-size="10.00">HF::SpatialStructures</text>
<text text-anchor="start" x="85" y="-117" font-family="Helvetica,sans-Serif" font-size="10.00">::CostAlgorithms::Calculate</text>
<text text-anchor="middle" x="151.5" y="-106" font-family="Helvetica,sans-Serif" font-size="10.00">EnergyExpenditure</text>
</a>
</g>
</g>
<!-- Node1&#45;&gt;Node4 -->
<g id="edge3" class="edge">
<title>Node1&#45;&gt;Node4</title>
<path fill="none" stroke="midnightblue" d="M41.09,-119.5C48.42,-119.5 57.27,-119.5 66.74,-119.5"/>
<polygon fill="midnightblue" stroke="midnightblue" points="66.79,-123 76.79,-119.5 66.79,-116 66.79,-123"/>
</g>
<!-- Node11 -->
<g id="node11" class="node">
<title>Node11</title>
<g id="a_node11"><a xlink:href="a01497.html#a41cece77d0eee98df39ecc6d3a366ec8" target="_top" xlink:title="Compress the graph to a CSR and enable the usage of several functions.">
<polygon fill="white" stroke="black" points="92,-49.5 92,-79.5 211,-79.5 211,-49.5 92,-49.5"/>
<text text-anchor="start" x="100" y="-67.5" font-family="Helvetica,sans-Serif" font-size="10.00">HF::SpatialStructures</text>
<text text-anchor="middle" x="151.5" y="-56.5" font-family="Helvetica,sans-Serif" font-size="10.00">::Graph::Compress</text>
</a>
</g>
</g>
<!-- Node1&#45;&gt;Node11 -->
<g id="edge10" class="edge">
<title>Node1&#45;&gt;Node11</title>
<path fill="none" stroke="midnightblue" d="M37.65,-109.83C48.54,-103.56 63.35,-95.46 77,-89.5 82.02,-87.31 87.29,-85.18 92.62,-83.16"/>
<polygon fill="midnightblue" stroke="midnightblue" points="94.04,-86.37 102.22,-79.63 91.62,-79.8 94.04,-86.37"/>
</g>
<!-- Node12 -->
<g id="node12" class="node">
<title>Node12</title>
<g id="a_node12"><a xlink:href="a01497.html#a89250c619a726fd0adbd71778d166887" target="_top" xlink:title="Retrieves a Subgraph using a Node.">
<polygon fill="white" stroke="black" points="91,-0.5 91,-30.5 212,-30.5 212,-0.5 91,-0.5"/>
<text text-anchor="start" x="99" y="-18.5" font-family="Helvetica,sans-Serif" font-size="10.00">HF::SpatialStructures</text>
<text text-anchor="middle" x="151.5" y="-7.5" font-family="Helvetica,sans-Serif" font-size="10.00">::Graph::GetSubgraph</text>
</a>
</g>
</g>
<!-- Node1&#45;&gt;Node12 -->
<g id="edge11" class="edge">
<title>Node1&#45;&gt;Node12</title>
<path fill="none" stroke="midnightblue" d="M25.65,-109.85C33.34,-93.09 51.37,-58.58 77,-39.5 78.88,-38.1 80.85,-36.78 82.88,-35.53"/>
<polygon fill="midnightblue" stroke="midnightblue" points="85,-38.37 92.14,-30.54 81.68,-32.2 85,-38.37"/>
</g>
<!-- Node5 -->
<g id="node5" class="node">
<title>Node5</title>
<g id="a_node5"><a xlink:href="a00409.html#ae06eb693d0d7858d7a863fae3a6eee2c" target="_top" xlink:title=" ">
<polygon fill="white" stroke="black" points="262,-179 262,-220 411,-220 411,-179 262,-179"/>
<text text-anchor="start" x="270" y="-208" font-family="Helvetica,sans-Serif" font-size="10.00">HF::SpatialStructures</text>
<text text-anchor="start" x="270" y="-197" font-family="Helvetica,sans-Serif" font-size="10.00">::CostAlgorithms::Calculate</text>
<text text-anchor="middle" x="336.5" y="-186" font-family="Helvetica,sans-Serif" font-size="10.00">Slope</text>
</a>
</g>
</g>
<!-- Node4&#45;&gt;Node5 -->
<g id="edge4" class="edge">
<title>Node4&#45;&gt;Node5</title>
<path fill="none" stroke="midnightblue" d="M204.58,-140.01C211.82,-143.08 219.13,-146.29 226,-149.5 242.39,-157.15 245.65,-160.76 262,-168.5 266.38,-170.58 270.95,-172.67 275.55,-174.72"/>
<polygon fill="midnightblue" stroke="midnightblue" points="274.47,-178.07 285.03,-178.89 277.29,-171.66 274.47,-178.07"/>
</g>
<!-- Node7 -->
<g id="node7" class="node">
<title>Node7</title>
<g id="a_node7"><a xlink:href="a02017.html#ad3f7898ef3178eef0c3579869a7f5c67" target="_top" xlink:title="Get the direction between this node and another node">
<polygon fill="white" stroke="black" points="277,-129.5 277,-159.5 396,-159.5 396,-129.5 277,-129.5"/>
<text text-anchor="start" x="285" y="-147.5" font-family="Helvetica,sans-Serif" font-size="10.00">HF::SpatialStructures</text>
<text text-anchor="middle" x="336.5" y="-136.5" font-family="Helvetica,sans-Serif" font-size="10.00">::Node::directionTo</text>
</a>
</g>
</g>
<!-- Node4&#45;&gt;Node7 -->
<g id="edge6" class="edge">
<title>Node4&#45;&gt;Node7</title>
<path fill="none" stroke="midnightblue" d="M226.14,-129.56C239.6,-131.4 253.59,-133.31 266.89,-135.13"/>
<polygon fill="midnightblue" stroke="midnightblue" points="266.52,-138.61 276.9,-136.5 267.47,-131.67 266.52,-138.61"/>
</g>
<!-- Node9 -->
<g id="node9" class="node">
<title>Node9</title>
<g id="a_node9"><a xlink:href="a02017.html#abbd66b566460f9557a373b5fbcc30bb1" target="_top" xlink:title="Calculate the distance between this node and n2.">
<polygon fill="white" stroke="black" points="277,-80.5 277,-110.5 396,-110.5 396,-80.5 277,-80.5"/>
<text text-anchor="start" x="285" y="-98.5" font-family="Helvetica,sans-Serif" font-size="10.00">HF::SpatialStructures</text>
<text text-anchor="middle" x="336.5" y="-87.5" font-family="Helvetica,sans-Serif" font-size="10.00">::Node::distanceTo</text>
</a>
</g>
</g>
<!-- Node4&#45;&gt;Node9 -->
<g id="edge8" class="edge">
<title>Node4&#45;&gt;Node9</title>
<path fill="none" stroke="midnightblue" d="M226.14,-109.84C239.6,-108.08 253.59,-106.24 266.89,-104.5"/>
<polygon fill="midnightblue" stroke="midnightblue" points="267.44,-107.96 276.9,-103.18 266.53,-101.01 267.44,-107.96"/>
</g>
<!-- Node10 -->
<g id="node10" class="node">
<title>Node10</title>
<g id="a_node10"><a xlink:href="a00409.html#ae7b446fefe0b9994859f47b85de79039" target="_top" xlink:title=" ">
<polygon fill="white" stroke="black" points="277,-20 277,-61 396,-61 396,-20 277,-20"/>
<text text-anchor="start" x="285" y="-49" font-family="Helvetica,sans-Serif" font-size="10.00">HF::SpatialStructures</text>
<text text-anchor="start" x="285" y="-38" font-family="Helvetica,sans-Serif" font-size="10.00">::CostAlgorithms::to</text>
<text text-anchor="middle" x="336.5" y="-27" font-family="Helvetica,sans-Serif" font-size="10.00">_radians</text>
</a>
</g>
</g>
<!-- Node4&#45;&gt;Node10 -->
<g id="edge9" class="edge">
<title>Node4&#45;&gt;Node10</title>
<path fill="none" stroke="midnightblue" d="M202.51,-98.92C210.4,-95.52 218.45,-91.97 226,-88.5 242.25,-81.02 245.71,-77.89 262,-70.5 265.88,-68.74 269.9,-66.97 273.97,-65.21"/>
<polygon fill="midnightblue" stroke="midnightblue" points="275.66,-68.29 283.49,-61.15 272.92,-61.85 275.66,-68.29"/>
</g>
<!-- Node6 -->
<g id="node6" class="node">
<title>Node6</title>
<g id="a_node6"><a xlink:href="a00409.html#adee2fb2573f4dbc2e5c7db153dff2694" target="_top" xlink:title=" ">
<polygon fill="white" stroke="black" points="447,-179 447,-220 566,-220 566,-179 447,-179"/>
<text text-anchor="start" x="455" y="-208" font-family="Helvetica,sans-Serif" font-size="10.00">HF::SpatialStructures</text>
<text text-anchor="start" x="455" y="-197" font-family="Helvetica,sans-Serif" font-size="10.00">::CostAlgorithms::to</text>
<text text-anchor="middle" x="506.5" y="-186" font-family="Helvetica,sans-Serif" font-size="10.00">_degrees</text>
</a>
</g>
</g>
<!-- Node5&#45;&gt;Node6 -->
<g id="edge5" class="edge">
<title>Node5&#45;&gt;Node6</title>
<path fill="none" stroke="midnightblue" d="M411.19,-199.5C419.65,-199.5 428.25,-199.5 436.65,-199.5"/>
<polygon fill="midnightblue" stroke="midnightblue" points="436.76,-203 446.76,-199.5 436.76,-196 436.76,-203"/>
</g>
<!-- Node8 -->
<g id="node8" class="node">
<title>Node8</title>
<g id="a_node8"><a xlink:href="a00399.html#ad9a8f0f70b3f60ac5cb7889885d851d1" target="_top" xlink:title=" ">
<polygon fill="white" stroke="black" points="447,-129.5 447,-159.5 566,-159.5 566,-129.5 447,-129.5"/>
<text text-anchor="start" x="455" y="-147.5" font-family="Helvetica,sans-Serif" font-size="10.00">HF::SpatialStructures</text>
<text text-anchor="middle" x="506.5" y="-136.5" font-family="Helvetica,sans-Serif" font-size="10.00">::Normalize</text>
</a>
</g>
</g>
<!-- Node7&#45;&gt;Node8 -->
<g id="edge7" class="edge">
<title>Node7&#45;&gt;Node8</title>
<path fill="none" stroke="midnightblue" d="M396.26,-144.5C409.3,-144.5 423.24,-144.5 436.65,-144.5"/>
<polygon fill="midnightblue" stroke="midnightblue" points="436.77,-148 446.77,-144.5 436.77,-141 436.77,-148"/>
</g>
</g>
</svg>
