<?xml version="1.0" encoding="UTF-8" standalone="no"?>
<!DOCTYPE svg PUBLIC "-//W3C//DTD SVG 1.1//EN"
 "http://www.w3.org/Graphics/SVG/1.1/DTD/svg11.dtd">
<!-- Generated by graphviz version 5.0.0 (20220707.1540)
 -->
<!-- Title: DeleteRawPtr Pages: 1 -->
<svg width="244pt" height="180pt"
 viewBox="0.00 0.00 244.00 180.00" xmlns="http://www.w3.org/2000/svg" xmlns:xlink="http://www.w3.org/1999/xlink">
<g id="graph0" class="graph" transform="scale(1 1) rotate(0) translate(4 176)">
<title>DeleteRawPtr</title>
<polygon fill="white" stroke="transparent" points="-4,4 -4,-176 240,-176 240,4 -4,4"/>
<!-- Node1 -->
<g id="node1" class="node">
<title>Node1</title>
<g id="a_node1"><a xlink:title="Delete some object pointed to by ptr">
<polygon fill="#bfbfbf" stroke="black" points="160,-76.5 160,-95.5 236,-95.5 236,-76.5 160,-76.5"/>
<text text-anchor="middle" x="198" y="-83.5" font-family="Helvetica,sans-Serif" font-size="10.00">DeleteRawPtr</text>
</a>
</g>
</g>
<!-- Node2 -->
<g id="node2" class="node">
<title>Node2</title>
<g id="a_node2"><a xlink:href="a00344.html#af77723a4383b278169e80cf0e361ec44" target="_top" xlink:title="Delete a float vector that&#39;s pointed to by float_vector">
<polygon fill="white" stroke="black" points="11.5,-152.5 11.5,-171.5 112.5,-171.5 112.5,-152.5 11.5,-152.5"/>
<text text-anchor="middle" x="62" y="-159.5" font-family="Helvetica,sans-Serif" font-size="10.00">DestroyFloatVector</text>
</a>
</g>
</g>
<!-- Node1&#45;&gt;Node2 -->
<g id="edge1" class="edge">
<title>Node1&#45;&gt;Node2</title>
<path fill="none" stroke="midnightblue" d="M179.51,-102.64C165.46,-115.23 144.72,-132.15 124,-143 116.93,-146.71 109,-149.83 101.27,-152.41"/>
<polygon fill="midnightblue" stroke="midnightblue" points="181.96,-105.14 186.96,-95.8 177.22,-99.98 181.96,-105.14"/>
</g>
<!-- Node3 -->
<g id="node3" class="node">
<title>Node3</title>
<g id="a_node3"><a xlink:href="a00344.html#aa1d3e9d7be8628eb59f2ef8f8e156a75" target="_top" xlink:title="Delete a vector of integers.">
<polygon fill="white" stroke="black" points="17.5,-114.5 17.5,-133.5 106.5,-133.5 106.5,-114.5 17.5,-114.5"/>
<text text-anchor="middle" x="62" y="-121.5" font-family="Helvetica,sans-Serif" font-size="10.00">DestroyIntVector</text>
</a>
</g>
</g>
<!-- Node1&#45;&gt;Node3 -->
<g id="edge2" class="edge">
<title>Node1&#45;&gt;Node3</title>
<path fill="none" stroke="midnightblue" d="M153.56,-98.32C135.15,-103.54 114.02,-109.53 96.8,-114.41"/>
<polygon fill="midnightblue" stroke="midnightblue" points="154.52,-101.68 163.19,-95.59 152.61,-94.95 154.52,-101.68"/>
</g>
<!-- Node4 -->
<g id="node4" class="node">
<title>Node4</title>
<g id="a_node4"><a xlink:href="a00389.html#ga0ef9f7e63f067546b527947d4678dcd5" target="_top" xlink:title="Free the memory addressed by mesh_to_destroy, which was allocated by either LoadOBJ or StoreMesh.">
<polygon fill="white" stroke="black" points="17.5,-76.5 17.5,-95.5 106.5,-95.5 106.5,-76.5 17.5,-76.5"/>
<text text-anchor="middle" x="62" y="-83.5" font-family="Helvetica,sans-Serif" font-size="10.00">DestroyMeshInfo</text>
</a>
</g>
</g>
<!-- Node1&#45;&gt;Node4 -->
<g id="edge3" class="edge">
<title>Node1&#45;&gt;Node4</title>
<path fill="none" stroke="midnightblue" d="M149.34,-86C135.47,-86 120.39,-86 106.77,-86"/>
<polygon fill="midnightblue" stroke="midnightblue" points="149.67,-89.5 159.67,-86 149.67,-82.5 149.67,-89.5"/>
</g>
<!-- Node5 -->
<g id="node5" class="node">
<title>Node5</title>
<g id="a_node5"><a xlink:href="a00390.html#ga884a3374d971261a01ccfd3b21e288e5" target="_top" xlink:title="Delete a path.">
<polygon fill="white" stroke="black" points="26.5,-38.5 26.5,-57.5 97.5,-57.5 97.5,-38.5 26.5,-38.5"/>
<text text-anchor="middle" x="62" y="-45.5" font-family="Helvetica,sans-Serif" font-size="10.00">DestroyPath</text>
</a>
</g>
</g>
<!-- Node1&#45;&gt;Node5 -->
<g id="edge4" class="edge">
<title>Node1&#45;&gt;Node5</title>
<path fill="none" stroke="midnightblue" d="M153.56,-73.68C135.15,-68.46 114.02,-62.47 96.8,-57.59"/>
<polygon fill="midnightblue" stroke="midnightblue" points="152.61,-77.05 163.19,-76.41 154.52,-70.32 152.61,-77.05"/>
</g>
<!-- Node6 -->
<g id="node6" class="node">
<title>Node6</title>
<g id="a_node6"><a xlink:href="a00391.html#ga5a68e1d668554f73ee06de8aeeaaffad" target="_top" xlink:title="Destroy a vector of rayresults.">
<polygon fill="white" stroke="black" points="0,-0.5 0,-19.5 124,-19.5 124,-0.5 0,-0.5"/>
<text text-anchor="middle" x="62" y="-7.5" font-family="Helvetica,sans-Serif" font-size="10.00">DestroyRayResultVector</text>
</a>
</g>
</g>
<!-- Node1&#45;&gt;Node6 -->
<g id="edge5" class="edge">
<title>Node1&#45;&gt;Node6</title>
<path fill="none" stroke="midnightblue" d="M179.51,-69.36C165.46,-56.77 144.72,-39.85 124,-29 116.93,-25.29 109,-22.17 101.27,-19.59"/>
<polygon fill="midnightblue" stroke="midnightblue" points="177.22,-72.02 186.96,-76.2 181.96,-66.86 177.22,-72.02"/>
</g>
</g>
</svg>
