<?xml version="1.0" encoding="UTF-8" standalone="no"?>
<!DOCTYPE svg PUBLIC "-//W3C//DTD SVG 1.1//EN"
 "http://www.w3.org/Graphics/SVG/1.1/DTD/svg11.dtd">
<!-- Generated by graphviz version 7.0.3 (20221126.0506)
 -->
<!-- Title: Cinterface/visibility_graph_C.cpp Pages: 1 -->
<svg width="1007pt" height="258pt"
 viewBox="0.00 0.00 1006.50 258.00" xmlns="http://www.w3.org/2000/svg" xmlns:xlink="http://www.w3.org/1999/xlink">
<g id="graph0" class="graph" transform="scale(1 1) rotate(0) translate(4 254)">
<title>Cinterface/visibility_graph_C.cpp</title>
<!-- Node1 -->
<g id="node1" class="node">
<title>Node1</title>
<g id="a_node1"><a xlink:title=" ">
<polygon fill="#999999" stroke="#666666" points="413.5,-250 316.5,-250 316.5,-220 413.5,-220 413.5,-250"/>
<text text-anchor="start" x="324.5" y="-238" font-family="Helvetica,sans-Serif" font-size="10.00">Cinterface/visibility</text>
<text text-anchor="middle" x="365" y="-227" font-family="Helvetica,sans-Serif" font-size="10.00">_graph_C.cpp</text>
</a>
</g>
</g>
<!-- Node2 -->
<g id="node2" class="node">
<title>Node2</title>
<g id="a_node2"><a xlink:href="a00383.html" target="_top" xlink:title="Header file for functions related to creating a visibility graph.">
<polygon fill="white" stroke="#666666" points="131,-184 31,-184 31,-165 131,-165 131,-184"/>
<text text-anchor="middle" x="81" y="-172" font-family="Helvetica,sans-Serif" font-size="10.00">visibility_graph_C.h</text>
</a>
</g>
</g>
<!-- Node1&#45;&gt;Node2 -->
<g id="edge1" class="edge">
<title>Node1&#45;&gt;Node2</title>
<path fill="none" stroke="#63b8ff" d="M316.18,-223.94C265.94,-213.6 187.85,-197.51 135.6,-186.75"/>
<polygon fill="#63b8ff" stroke="#63b8ff" points="136.52,-183.36 126.02,-184.77 135.11,-190.22 136.52,-183.36"/>
</g>
<!-- Node4 -->
<g id="node4" class="node">
<title>Node4</title>
<g id="a_node4"><a xlink:title=" ">
<polygon fill="#e0e0e0" stroke="#999999" points="231,-74 189,-74 189,-55 231,-55 231,-74"/>
<text text-anchor="middle" x="210" y="-62" font-family="Helvetica,sans-Serif" font-size="10.00">vector</text>
</a>
</g>
</g>
<!-- Node1&#45;&gt;Node4 -->
<g id="edge8" class="edge">
<title>Node1&#45;&gt;Node4</title>
<path fill="none" stroke="#63b8ff" d="M350.87,-219.6C331.29,-199.55 294.96,-161.98 265,-129 251.09,-113.69 235.71,-95.85 224.76,-82.98"/>
<polygon fill="#63b8ff" stroke="#63b8ff" points="227.46,-80.76 218.32,-75.4 222.12,-85.29 227.46,-80.76"/>
</g>
<!-- Node7 -->
<g id="node7" class="node">
<title>Node7</title>
<g id="a_node7"><a xlink:href="a00029.html" target="_top" xlink:title="Contains definitions for the VisibilityGraph class.">
<polygon fill="white" stroke="#666666" points="237,-184 149,-184 149,-165 237,-165 237,-184"/>
<text text-anchor="middle" x="193" y="-172" font-family="Helvetica,sans-Serif" font-size="10.00">visibility_graph.h</text>
</a>
</g>
</g>
<!-- Node1&#45;&gt;Node7 -->
<g id="edge9" class="edge">
<title>Node1&#45;&gt;Node7</title>
<path fill="none" stroke="#63b8ff" d="M322.48,-219.54C294.07,-209.87 257.06,-197.29 229.88,-188.04"/>
<polygon fill="#63b8ff" stroke="#63b8ff" points="231.29,-184.83 220.69,-184.92 229.04,-191.45 231.29,-184.83"/>
</g>
<!-- Node8 -->
<g id="node8" class="node">
<title>Node8</title>
<g id="a_node8"><a xlink:href="a00146.html" target="_top" xlink:title="Contains definitions for the EmbreeRayTracer">
<polygon fill="white" stroke="#666666" points="415.5,-129 314.5,-129 314.5,-110 415.5,-110 415.5,-129"/>
<text text-anchor="middle" x="365" y="-117" font-family="Helvetica,sans-Serif" font-size="10.00">embree_raytracer.h</text>
</a>
</g>
</g>
<!-- Node1&#45;&gt;Node8 -->
<g id="edge11" class="edge">
<title>Node1&#45;&gt;Node8</title>
<path fill="none" stroke="#63b8ff" d="M365,-219.63C365,-199.59 365,-163.17 365,-140.49"/>
<polygon fill="#63b8ff" stroke="#63b8ff" points="368.5,-140.74 365,-130.74 361.5,-140.74 368.5,-140.74"/>
</g>
<!-- Node13 -->
<g id="node13" class="node">
<title>Node13</title>
<g id="a_node13"><a xlink:href="a00203.html" target="_top" xlink:title="Contains definitions for the Graph &#160;class.">
<polygon fill="white" stroke="#666666" points="569.5,-184 520.5,-184 520.5,-165 569.5,-165 569.5,-184"/>
<text text-anchor="middle" x="545" y="-172" font-family="Helvetica,sans-Serif" font-size="10.00">graph.h</text>
</a>
</g>
</g>
<!-- Node1&#45;&gt;Node13 -->
<g id="edge18" class="edge">
<title>Node1&#45;&gt;Node13</title>
<path fill="none" stroke="#63b8ff" d="M409.49,-219.54C440.28,-209.53 480.71,-196.39 509.38,-187.08"/>
<polygon fill="#63b8ff" stroke="#63b8ff" points="510.25,-190.47 518.68,-184.05 508.09,-183.82 510.25,-190.47"/>
</g>
<!-- Node16 -->
<g id="node16" class="node">
<title>Node16</title>
<g id="a_node16"><a xlink:href="a00209.html" target="_top" xlink:title="Contains definitions for the Node structure.">
<polygon fill="white" stroke="#666666" points="681,-74 635,-74 635,-55 681,-55 681,-74"/>
<text text-anchor="middle" x="658" y="-62" font-family="Helvetica,sans-Serif" font-size="10.00">node.h</text>
</a>
</g>
</g>
<!-- Node1&#45;&gt;Node16 -->
<g id="edge29" class="edge">
<title>Node1&#45;&gt;Node16</title>
<path fill="none" stroke="#63b8ff" d="M413.67,-227.5C504.2,-214.27 692.6,-181 729,-129 743.27,-108.61 716.23,-90.25 691.51,-78.58"/>
<polygon fill="#63b8ff" stroke="#63b8ff" points="693.13,-75.47 682.57,-74.61 690.29,-81.87 693.13,-75.47"/>
</g>
<!-- Node20 -->
<g id="node20" class="node">
<title>Node20</title>
<g id="a_node20"><a xlink:href="a00110.html" target="_top" xlink:title="Contains definitions for the Exceptions namespace.">
<polygon fill="white" stroke="#666666" points="912,-184 826,-184 826,-165 912,-165 912,-184"/>
<text text-anchor="middle" x="869" y="-172" font-family="Helvetica,sans-Serif" font-size="10.00">HFExceptions.h</text>
</a>
</g>
</g>
<!-- Node1&#45;&gt;Node20 -->
<g id="edge30" class="edge">
<title>Node1&#45;&gt;Node20</title>
<path fill="none" stroke="#63b8ff" d="M413.78,-228.34C508.24,-217.37 715.5,-193.32 814.39,-181.84"/>
<polygon fill="#63b8ff" stroke="#63b8ff" points="814.58,-185.34 824.11,-180.71 813.78,-178.39 814.58,-185.34"/>
</g>
<!-- Node3 -->
<g id="node3" class="node">
<title>Node3</title>
<g id="a_node3"><a xlink:href="a00347.html" target="_top" xlink:title=" ">
<polygon fill="white" stroke="#666666" points="182,-129 92,-129 92,-110 182,-110 182,-129"/>
<text text-anchor="middle" x="137" y="-117" font-family="Helvetica,sans-Serif" font-size="10.00">cinterface_utils.h</text>
</a>
</g>
</g>
<!-- Node2&#45;&gt;Node3 -->
<g id="edge2" class="edge">
<title>Node2&#45;&gt;Node3</title>
<path fill="none" stroke="#63b8ff" d="M90.5,-164.51C98.43,-157 109.95,-146.1 119.54,-137.03"/>
<polygon fill="#63b8ff" stroke="#63b8ff" points="121.68,-139.81 126.54,-130.4 116.87,-134.73 121.68,-139.81"/>
</g>
<!-- Node6 -->
<g id="node6" class="node">
<title>Node6</title>
<g id="a_node6"><a xlink:href="a00365.html" target="_top" xlink:title="C Interface header file for Raytracer functionality.">
<polygon fill="white" stroke="#666666" points="74,-129 0,-129 0,-110 74,-110 74,-129"/>
<text text-anchor="middle" x="37" y="-117" font-family="Helvetica,sans-Serif" font-size="10.00">raytracer_c.h</text>
</a>
</g>
</g>
<!-- Node2&#45;&gt;Node6 -->
<g id="edge5" class="edge">
<title>Node2&#45;&gt;Node6</title>
<path fill="none" stroke="#63b8ff" d="M73.73,-164.75C67.72,-157.5 58.99,-146.98 51.54,-138.02"/>
<polygon fill="#63b8ff" stroke="#63b8ff" points="54.47,-136.07 45.39,-130.61 49.08,-140.54 54.47,-136.07"/>
</g>
<!-- Node3&#45;&gt;Node4 -->
<g id="edge3" class="edge">
<title>Node3&#45;&gt;Node4</title>
<path fill="none" stroke="#63b8ff" d="M149.38,-109.51C160.15,-101.7 175.97,-90.21 188.75,-80.93"/>
<polygon fill="#63b8ff" stroke="#63b8ff" points="190.54,-83.95 196.57,-75.25 186.43,-78.29 190.54,-83.95"/>
</g>
<!-- Node5 -->
<g id="node5" class="node">
<title>Node5</title>
<g id="a_node5"><a xlink:title=" ">
<polygon fill="#e0e0e0" stroke="#999999" points="385,-19 347,-19 347,0 385,0 385,-19"/>
<text text-anchor="middle" x="366" y="-7" font-family="Helvetica,sans-Serif" font-size="10.00">array</text>
</a>
</g>
</g>
<!-- Node3&#45;&gt;Node5 -->
<g id="edge4" class="edge">
<title>Node3&#45;&gt;Node5</title>
<path fill="none" stroke="#63b8ff" d="M140.51,-109.56C146.45,-95.64 159.85,-68.94 180,-55 227.41,-22.2 296.07,-13.42 335.34,-11.17"/>
<polygon fill="#63b8ff" stroke="#63b8ff" points="335.42,-14.67 345.26,-10.72 335.11,-7.68 335.42,-14.67"/>
</g>
<!-- Node6&#45;&gt;Node4 -->
<g id="edge6" class="edge">
<title>Node6&#45;&gt;Node4</title>
<path fill="none" stroke="#63b8ff" d="M66.35,-109.51C97.26,-100.04 145.79,-85.17 177.75,-75.38"/>
<polygon fill="#63b8ff" stroke="#63b8ff" points="178.73,-78.74 187.26,-72.47 176.68,-72.05 178.73,-78.74"/>
</g>
<!-- Node6&#45;&gt;Node5 -->
<g id="edge7" class="edge">
<title>Node6&#45;&gt;Node5</title>
<path fill="none" stroke="#63b8ff" d="M50.82,-109.55C72.56,-95.84 116.46,-69.72 157,-55 218.41,-32.7 294.24,-20.02 335.59,-14.28"/>
<polygon fill="#63b8ff" stroke="#63b8ff" points="335.83,-17.78 345.28,-12.98 334.9,-10.84 335.83,-17.78"/>
</g>
<!-- Node7&#45;&gt;Node4 -->
<g id="edge10" class="edge">
<title>Node7&#45;&gt;Node4</title>
<path fill="none" stroke="#63b8ff" d="M194.39,-164.66C197.09,-147.5 203.11,-109.26 206.84,-85.6"/>
<polygon fill="#63b8ff" stroke="#63b8ff" points="210.26,-86.38 208.35,-75.96 203.34,-85.29 210.26,-86.38"/>
</g>
<!-- Node8&#45;&gt;Node4 -->
<g id="edge15" class="edge">
<title>Node8&#45;&gt;Node4</title>
<path fill="none" stroke="#63b8ff" d="M338.71,-109.51C312.02,-100.38 270.67,-86.24 242.07,-76.47"/>
<polygon fill="#63b8ff" stroke="#63b8ff" points="243.45,-73.24 232.85,-73.31 241.18,-79.86 243.45,-73.24"/>
</g>
<!-- Node8&#45;&gt;Node5 -->
<g id="edge16" class="edge">
<title>Node8&#45;&gt;Node5</title>
<path fill="none" stroke="#63b8ff" d="M415.94,-109.67C478.12,-98.64 575.75,-80.45 581,-74 630.86,-12.82 466.85,-8.72 396.49,-9.66"/>
<polygon fill="#63b8ff" stroke="#63b8ff" points="396.72,-6.15 386.79,-9.84 396.85,-13.15 396.72,-6.15"/>
</g>
<!-- Node9 -->
<g id="node9" class="node">
<title>Node9</title>
<g id="a_node9"><a xlink:title=" ">
<polygon fill="#e0e0e0" stroke="#999999" points="287,-74 249,-74 249,-55 287,-55 287,-74"/>
<text text-anchor="middle" x="268" y="-62" font-family="Helvetica,sans-Serif" font-size="10.00">rpc.h</text>
</a>
</g>
</g>
<!-- Node8&#45;&gt;Node9 -->
<g id="edge12" class="edge">
<title>Node8&#45;&gt;Node9</title>
<path fill="none" stroke="#63b8ff" d="M348.55,-109.51C333.68,-101.39 311.56,-89.3 294.25,-79.85"/>
<polygon fill="#63b8ff" stroke="#63b8ff" points="295.99,-76.81 285.54,-75.08 292.64,-82.95 295.99,-76.81"/>
</g>
<!-- Node10 -->
<g id="node10" class="node">
<title>Node10</title>
<g id="a_node10"><a xlink:title=" ">
<polygon fill="#e0e0e0" stroke="#999999" points="355,-74 305,-74 305,-55 355,-55 355,-74"/>
<text text-anchor="middle" x="330" y="-62" font-family="Helvetica,sans-Serif" font-size="10.00">rtcore.h</text>
</a>
</g>
</g>
<!-- Node8&#45;&gt;Node10 -->
<g id="edge13" class="edge">
<title>Node8&#45;&gt;Node10</title>
<path fill="none" stroke="#63b8ff" d="M359.22,-109.75C354.59,-102.73 347.93,-92.64 342.13,-83.87"/>
<polygon fill="#63b8ff" stroke="#63b8ff" points="345.17,-82.12 336.74,-75.71 339.33,-85.98 345.17,-82.12"/>
</g>
<!-- Node11 -->
<g id="node11" class="node">
<title>Node11</title>
<g id="a_node11"><a xlink:title=" ">
<polygon fill="#e0e0e0" stroke="#999999" points="491,-74 373,-74 373,-55 491,-55 491,-74"/>
<text text-anchor="middle" x="432" y="-62" font-family="Helvetica,sans-Serif" font-size="10.00">corecrt_math_defines.h</text>
</a>
</g>
</g>
<!-- Node8&#45;&gt;Node11 -->
<g id="edge14" class="edge">
<title>Node8&#45;&gt;Node11</title>
<path fill="none" stroke="#63b8ff" d="M376.37,-109.51C386.05,-101.85 400.2,-90.66 411.81,-81.47"/>
<polygon fill="#63b8ff" stroke="#63b8ff" points="413.94,-84.25 419.62,-75.3 409.6,-78.76 413.94,-84.25"/>
</g>
<!-- Node12 -->
<g id="node12" class="node">
<title>Node12</title>
<g id="a_node12"><a xlink:href="a00152.html" target="_top" xlink:title=" ">
<polygon fill="white" stroke="#666666" points="572.5,-74 509.5,-74 509.5,-55 572.5,-55 572.5,-74"/>
<text text-anchor="middle" x="541" y="-62" font-family="Helvetica,sans-Serif" font-size="10.00">HitStruct.h</text>
</a>
</g>
</g>
<!-- Node8&#45;&gt;Node12 -->
<g id="edge17" class="edge">
<title>Node8&#45;&gt;Node12</title>
<path fill="none" stroke="#63b8ff" d="M394.86,-109.51C423.89,-100.76 468.22,-87.42 500.44,-77.71"/>
<polygon fill="#63b8ff" stroke="#63b8ff" points="501.28,-81.12 509.84,-74.88 499.26,-74.41 501.28,-81.12"/>
</g>
<!-- Node13&#45;&gt;Node4 -->
<g id="edge20" class="edge">
<title>Node13&#45;&gt;Node4</title>
<path fill="none" stroke="#63b8ff" d="M520.24,-172.2C475.66,-169.15 379.58,-159.33 305,-129 276.34,-117.34 247.34,-96.32 229.05,-81.67"/>
<polygon fill="#63b8ff" stroke="#63b8ff" points="231.41,-79.08 221.46,-75.44 226.97,-84.49 231.41,-79.08"/>
</g>
<!-- Node14 -->
<g id="node14" class="node">
<title>Node14</title>
<g id="a_node14"><a xlink:title=" ">
<polygon fill="#e0e0e0" stroke="#999999" points="506,-129 434,-129 434,-110 506,-110 506,-129"/>
<text text-anchor="middle" x="470" y="-117" font-family="Helvetica,sans-Serif" font-size="10.00">robin_hood.h</text>
</a>
</g>
</g>
<!-- Node13&#45;&gt;Node14 -->
<g id="edge19" class="edge">
<title>Node13&#45;&gt;Node14</title>
<path fill="none" stroke="#63b8ff" d="M532.28,-164.51C521.22,-156.7 504.96,-145.21 491.83,-135.93"/>
<polygon fill="#63b8ff" stroke="#63b8ff" points="493.96,-133.14 483.77,-130.23 489.92,-138.86 493.96,-133.14"/>
</g>
<!-- Node15 -->
<g id="node15" class="node">
<title>Node15</title>
<g id="a_node15"><a xlink:href="a00197.html" target="_top" xlink:title="Contains definitions for the Edge structure.">
<polygon fill="white" stroke="#666666" points="630.5,-129 583.5,-129 583.5,-110 630.5,-110 630.5,-129"/>
<text text-anchor="middle" x="607" y="-117" font-family="Helvetica,sans-Serif" font-size="10.00">Edge.h</text>
</a>
</g>
</g>
<!-- Node13&#45;&gt;Node15 -->
<g id="edge21" class="edge">
<title>Node13&#45;&gt;Node15</title>
<path fill="none" stroke="#63b8ff" d="M555.52,-164.51C564.39,-156.93 577.31,-145.88 587.99,-136.75"/>
<polygon fill="#63b8ff" stroke="#63b8ff" points="590.16,-139.5 595.49,-130.34 585.61,-134.18 590.16,-139.5"/>
</g>
<!-- Node13&#45;&gt;Node16 -->
<g id="edge26" class="edge">
<title>Node13&#45;&gt;Node16</title>
<path fill="none" stroke="#63b8ff" d="M569.78,-170.57C611.93,-165.02 694.72,-151.48 712,-129 725.28,-111.72 704.26,-92.8 684.69,-80.15"/>
<polygon fill="#63b8ff" stroke="#63b8ff" points="686.73,-77.29 676.36,-75.1 683.1,-83.28 686.73,-77.29"/>
</g>
<!-- Node18 -->
<g id="node18" class="node">
<title>Node18</title>
<g id="a_node18"><a xlink:title=" ">
<polygon fill="#e0e0e0" stroke="#999999" points="565.5,-129 524.5,-129 524.5,-110 565.5,-110 565.5,-129"/>
<text text-anchor="middle" x="545" y="-117" font-family="Helvetica,sans-Serif" font-size="10.00">Eigen</text>
</a>
</g>
</g>
<!-- Node13&#45;&gt;Node18 -->
<g id="edge27" class="edge">
<title>Node13&#45;&gt;Node18</title>
<path fill="none" stroke="#63b8ff" d="M545,-164.75C545,-158.27 545,-149.16 545,-140.9"/>
<polygon fill="#63b8ff" stroke="#63b8ff" points="548.5,-140.96 545,-130.96 541.5,-140.96 548.5,-140.96"/>
</g>
<!-- Node19 -->
<g id="node19" class="node">
<title>Node19</title>
<g id="a_node19"><a xlink:title=" ">
<polygon fill="#e0e0e0" stroke="#999999" points="703,-129 649,-129 649,-110 703,-110 703,-129"/>
<text text-anchor="middle" x="676" y="-117" font-family="Helvetica,sans-Serif" font-size="10.00">iostream</text>
</a>
</g>
</g>
<!-- Node13&#45;&gt;Node19 -->
<g id="edge28" class="edge">
<title>Node13&#45;&gt;Node19</title>
<path fill="none" stroke="#63b8ff" d="M567.22,-164.51C588.14,-156.04 619.73,-143.27 643.48,-133.66"/>
<polygon fill="#63b8ff" stroke="#63b8ff" points="644.75,-136.92 652.7,-129.93 642.12,-130.43 644.75,-136.92"/>
</g>
<!-- Node15&#45;&gt;Node4 -->
<g id="edge25" class="edge">
<title>Node15&#45;&gt;Node4</title>
<path fill="none" stroke="#63b8ff" d="M583.3,-111.96C580.19,-111.23 577.03,-110.55 574,-110 430.69,-83.96 388.61,-101.54 242.38,-74.13"/>
<polygon fill="#63b8ff" stroke="#63b8ff" points="243.17,-70.72 232.68,-72.27 241.85,-77.59 243.17,-70.72"/>
</g>
<!-- Node15&#45;&gt;Node16 -->
<g id="edge22" class="edge">
<title>Node15&#45;&gt;Node16</title>
<path fill="none" stroke="#63b8ff" d="M615.42,-109.75C622.47,-102.43 632.73,-91.76 641.41,-82.74"/>
<polygon fill="#63b8ff" stroke="#63b8ff" points="643.93,-85.17 648.35,-75.53 638.89,-80.31 643.93,-85.17"/>
</g>
<!-- Node16&#45;&gt;Node5 -->
<g id="edge23" class="edge">
<title>Node16&#45;&gt;Node5</title>
<path fill="none" stroke="#63b8ff" d="M634.81,-58.83C628.39,-57.57 621.43,-56.21 615,-55 536.39,-40.21 443.59,-23.94 396.59,-15.78"/>
<polygon fill="#63b8ff" stroke="#63b8ff" points="397.34,-12.36 386.89,-14.1 396.14,-19.26 397.34,-12.36"/>
</g>
<!-- Node17 -->
<g id="node17" class="node">
<title>Node17</title>
<g id="a_node17"><a xlink:title=" ">
<polygon fill="#e0e0e0" stroke="#999999" points="684,-19 632,-19 632,0 684,0 684,-19"/>
<text text-anchor="middle" x="658" y="-7" font-family="Helvetica,sans-Serif" font-size="10.00">ostream</text>
</a>
</g>
</g>
<!-- Node16&#45;&gt;Node17 -->
<g id="edge24" class="edge">
<title>Node16&#45;&gt;Node17</title>
<path fill="none" stroke="#63b8ff" d="M658,-54.75C658,-48.27 658,-39.16 658,-30.9"/>
<polygon fill="#63b8ff" stroke="#63b8ff" points="661.5,-30.96 658,-20.96 654.5,-30.96 661.5,-30.96"/>
</g>
<!-- Node21 -->
<g id="node21" class="node">
<title>Node21</title>
<g id="a_node21"><a xlink:title=" ">
<polygon fill="#e0e0e0" stroke="#999999" points="856.5,-129 797.5,-129 797.5,-110 856.5,-110 856.5,-129"/>
<text text-anchor="middle" x="827" y="-117" font-family="Helvetica,sans-Serif" font-size="10.00">exception</text>
</a>
</g>
</g>
<!-- Node20&#45;&gt;Node21 -->
<g id="edge31" class="edge">
<title>Node20&#45;&gt;Node21</title>
<path fill="none" stroke="#63b8ff" d="M862.06,-164.75C856.38,-157.58 848.16,-147.2 841.11,-138.3"/>
<polygon fill="#63b8ff" stroke="#63b8ff" points="843.98,-136.29 835.03,-130.63 838.49,-140.64 843.98,-136.29"/>
</g>
<!-- Node22 -->
<g id="node22" class="node">
<title>Node22</title>
<g id="a_node22"><a xlink:title=" ">
<polygon fill="#e0e0e0" stroke="#999999" points="921,-129 875,-129 875,-110 921,-110 921,-129"/>
<text text-anchor="middle" x="898" y="-117" font-family="Helvetica,sans-Serif" font-size="10.00">cstring</text>
</a>
</g>
</g>
<!-- Node20&#45;&gt;Node22 -->
<g id="edge32" class="edge">
<title>Node20&#45;&gt;Node22</title>
<path fill="none" stroke="#63b8ff" d="M873.79,-164.75C877.54,-157.88 882.91,-148.08 887.63,-139.45"/>
<polygon fill="#63b8ff" stroke="#63b8ff" points="890.65,-141.22 892.38,-130.77 884.51,-137.86 890.65,-141.22"/>
</g>
<!-- Node23 -->
<g id="node23" class="node">
<title>Node23</title>
<g id="a_node23"><a xlink:title=" ">
<polygon fill="#e0e0e0" stroke="#999999" points="998.5,-129 939.5,-129 939.5,-110 998.5,-110 998.5,-129"/>
<text text-anchor="middle" x="969" y="-117" font-family="Helvetica,sans-Serif" font-size="10.00">stdexcept</text>
</a>
</g>
</g>
<!-- Node20&#45;&gt;Node23 -->
<g id="edge33" class="edge">
<title>Node20&#45;&gt;Node23</title>
<path fill="none" stroke="#63b8ff" d="M885.96,-164.51C901.36,-156.35 924.31,-144.19 942.19,-134.71"/>
<polygon fill="#63b8ff" stroke="#63b8ff" points="943.75,-137.84 950.95,-130.07 940.47,-131.66 943.75,-137.84"/>
</g>
</g>
</svg>
