<?xml version="1.0" encoding="UTF-8" standalone="no"?>
<!DOCTYPE svg PUBLIC "-//W3C//DTD SVG 1.1//EN"
 "http://www.w3.org/Graphics/SVG/1.1/DTD/svg11.dtd">
<!-- Generated by graphviz version 8.0.5 (20230430.1635)
 -->
<!-- Title: CastMultipleRays Pages: 1 -->
<svg width="459pt" height="78pt"
 viewBox="0.00 0.00 458.75 78.00" xmlns="http://www.w3.org/2000/svg" xmlns:xlink="http://www.w3.org/1999/xlink">
<g id="graph0" class="graph" transform="scale(1 1) rotate(0) translate(4 74)">
<title>CastMultipleRays</title>
<!-- Node1 -->
<g id="node1" class="node">
<title>Node1</title>
<g id="a_node1"><a xlink:title="Cast multiple rays at once in parallel and receive their hitpoints in return. The number of direction...">
<polygon fill="#999999" stroke="#666666" points="92.5,-48 0,-48 0,-28 92.5,-28 92.5,-48"/>
<text text-anchor="middle" x="46.25" y="-34.5" font-family="Helvetica,sans-Serif" font-size="10.00">CastMultipleRays</text>
</a>
</g>
</g>
<!-- Node2 -->
<g id="node2" class="node">
<title>Node2</title>
<g id="a_node2"><a xlink:href="a00179.html#a603d456361c9737b88a091e6683db12b" target="_top" xlink:title="Convert a raw array from an external caller to an organized vector of points">
<polygon fill="white" stroke="#666666" points="278.75,-70 128.5,-70 128.5,-50 278.75,-50 278.75,-70"/>
<text text-anchor="middle" x="203.63" y="-56.5" font-family="Helvetica,sans-Serif" font-size="10.00">ConvertRawFloatArrayToPoints</text>
</a>
</g>
</g>
<!-- Node1&#45;&gt;Node2 -->
<g id="edge1" class="edge">
<title>Node1&#45;&gt;Node2</title>
<path fill="none" stroke="#63b8ff" d="M92.61,-44.42C100.63,-45.56 109.22,-46.77 117.92,-48.01"/>
<polygon fill="#63b8ff" stroke="#63b8ff" points="117.17,-51.58 127.56,-49.51 118.15,-44.65 117.17,-51.58"/>
</g>
<!-- Node3 -->
<g id="node3" class="node">
<title>Node3</title>
<g id="a_node3"><a xlink:href="a01345.html#a0c4abe0d3160c1a59231e0ae492fe537" target="_top" xlink:title="Cast multiple rays and recieve hitpoints in return.">
<polygon fill="white" stroke="#666666" points="271.63,-32 135.63,-32 135.63,0 271.63,0 271.63,-32"/>
<text text-anchor="start" x="143.63" y="-18.5" font-family="Helvetica,sans-Serif" font-size="10.00">HF::RayTracer::EmbreeRay</text>
<text text-anchor="middle" x="203.63" y="-6.5" font-family="Helvetica,sans-Serif" font-size="10.00">Tracer::PointIntersections</text>
</a>
</g>
</g>
<!-- Node1&#45;&gt;Node3 -->
<g id="edge2" class="edge">
<title>Node1&#45;&gt;Node3</title>
<path fill="none" stroke="#63b8ff" d="M92.61,-31.58C102.62,-30.16 113.5,-28.62 124.39,-27.08"/>
<polygon fill="#63b8ff" stroke="#63b8ff" points="124.85,-30.41 134.26,-25.54 123.87,-23.47 124.85,-30.41"/>
</g>
<!-- Node4 -->
<g id="node4" class="node">
<title>Node4</title>
<g id="a_node4"><a xlink:href="a01345.html#aa8424b274c7c5d0598ff13b49ac8c8d2" target="_top" xlink:title="Cast a ray and overwrite the origin with the hitpoint if it intersects any geometry.">
<polygon fill="white" stroke="#666666" points="450.75,-32 314.75,-32 314.75,0 450.75,0 450.75,-32"/>
<text text-anchor="start" x="322.75" y="-18.5" font-family="Helvetica,sans-Serif" font-size="10.00">HF::RayTracer::EmbreeRay</text>
<text text-anchor="middle" x="382.75" y="-6.5" font-family="Helvetica,sans-Serif" font-size="10.00">Tracer::PointIntersection</text>
</a>
</g>
</g>
<!-- Node3&#45;&gt;Node4 -->
<g id="edge3" class="edge">
<title>Node3&#45;&gt;Node4</title>
<path fill="none" stroke="#63b8ff" d="M272.09,-16C282.4,-16 293.11,-16 303.61,-16"/>
<polygon fill="#63b8ff" stroke="#63b8ff" points="303.47,-19.5 313.47,-16 303.47,-12.5 303.47,-19.5"/>
</g>
<!-- Node4&#45;&gt;Node4 -->
<g id="edge4" class="edge">
<title>Node4&#45;&gt;Node4</title>
<path fill="none" stroke="#63b8ff" d="M350.77,-32.44C344.8,-41.58 355.46,-50 382.75,-50 398.53,-50 408.74,-47.19 413.4,-43.05"/>
<polygon fill="#63b8ff" stroke="#63b8ff" points="416.96,-43.8 414.73,-33.44 410.02,-42.93 416.96,-43.8"/>
</g>
</g>
</svg>
