<?xml version="1.0" encoding="UTF-8" standalone="no"?>
<!DOCTYPE svg PUBLIC "-//W3C//DTD SVG 1.1//EN"
 "http://www.w3.org/Graphics/SVG/1.1/DTD/svg11.dtd">
<!-- Generated by graphviz version 2.43.0 (0)
 -->
<!-- Title: ConvertRawFloatArrayToPoints Pages: 1 -->
<svg width="578pt" height="497pt"
 viewBox="0.00 0.00 578.00 496.50" xmlns="http://www.w3.org/2000/svg" xmlns:xlink="http://www.w3.org/1999/xlink">
<g id="graph0" class="graph" transform="scale(1 1) rotate(0) translate(4 492.5)">
<title>ConvertRawFloatArrayToPoints</title>
<polygon fill="white" stroke="transparent" points="-4,4 -4,-492.5 574,-492.5 574,4 -4,4"/>
<!-- Node1 -->
<g id="node1" class="node">
<title>Node1</title>
<g id="a_node1"><a xlink:title="Convert a raw array from an external caller to an organized vector of points">
<polygon fill="#bfbfbf" stroke="black" points="403,-283.5 403,-302.5 570,-302.5 570,-283.5 403,-283.5"/>
<text text-anchor="middle" x="486.5" y="-290.5" font-family="Helvetica,sans-Serif" font-size="10.00">ConvertRawFloatArrayToPoints</text>
</a>
</g>
</g>
<!-- Node2 -->
<g id="node2" class="node">
<title>Node2</title>
<g id="a_node2"><a xlink:href="a00391.html#ga9debc0081ffc5b1f26262cd935b6f5ce" target="_top" xlink:title="Cast rays from a single origin point in multiple directions and get a the points where they intersect...">
<polygon fill="white" stroke="black" points="189,-458 189,-488 336,-488 336,-458 189,-458"/>
<text text-anchor="start" x="197" y="-476" font-family="Helvetica,sans-Serif" font-size="10.00">CastMultipleDirectionsOne</text>
<text text-anchor="middle" x="262.5" y="-465" font-family="Helvetica,sans-Serif" font-size="10.00">Origin</text>
</a>
</g>
</g>
<!-- Node1&#45;&gt;Node2 -->
<g id="edge1" class="edge">
<title>Node1&#45;&gt;Node2</title>
<path fill="none" stroke="midnightblue" d="M476.53,-311.9C459.83,-344.93 420.75,-412.97 367,-448 357.71,-454.06 347.09,-458.65 336.27,-462.12"/>
<polygon fill="midnightblue" stroke="midnightblue" points="479.71,-313.36 480.98,-302.85 473.43,-310.27 479.71,-313.36"/>
</g>
<!-- Node3 -->
<g id="node3" class="node">
<title>Node3</title>
<g id="a_node3"><a xlink:href="a00391.html#gad4a9f19d6fe4a802b7788948707ed5c0" target="_top" xlink:title="Cast rays from each origin point in the given direction.">
<polygon fill="white" stroke="black" points="174.5,-419.5 174.5,-438.5 350.5,-438.5 350.5,-419.5 174.5,-419.5"/>
<text text-anchor="middle" x="262.5" y="-426.5" font-family="Helvetica,sans-Serif" font-size="10.00">CastMultipleOriginsOneDirection</text>
</a>
</g>
</g>
<!-- Node1&#45;&gt;Node3 -->
<g id="edge2" class="edge">
<title>Node1&#45;&gt;Node3</title>
<path fill="none" stroke="midnightblue" d="M472.8,-311.15C453.29,-337.51 413.33,-385.86 367,-410 359.55,-413.88 351.43,-416.98 343.13,-419.46"/>
<polygon fill="midnightblue" stroke="midnightblue" points="475.8,-312.97 478.82,-302.82 470.13,-308.87 475.8,-312.97"/>
</g>
<!-- Node4 -->
<g id="node4" class="node">
<title>Node4</title>
<g id="a_node4"><a xlink:href="a00391.html#ga7763f4488e7c507e078882fe699d717f" target="_top" xlink:title="Cast multiple rays at once in parallel and receive their hitpoints in return. The number of direction...">
<polygon fill="white" stroke="black" points="211.5,-381.5 211.5,-400.5 313.5,-400.5 313.5,-381.5 211.5,-381.5"/>
<text text-anchor="middle" x="262.5" y="-388.5" font-family="Helvetica,sans-Serif" font-size="10.00">CastMultipleRays</text>
</a>
</g>
</g>
<!-- Node1&#45;&gt;Node4 -->
<g id="edge3" class="edge">
<title>Node1&#45;&gt;Node4</title>
<path fill="none" stroke="midnightblue" d="M466.66,-309.15C444.38,-327.35 405.44,-356.43 367,-372 350.24,-378.79 330.96,-383.17 313.62,-385.99"/>
<polygon fill="midnightblue" stroke="midnightblue" points="469.17,-311.62 474.61,-302.53 464.69,-306.23 469.17,-311.62"/>
</g>
<!-- Node5 -->
<g id="node5" class="node">
<title>Node5</title>
<g id="a_node5"><a xlink:href="a00391.html#gad1ec557a577507e2da4dfcb0717ea05c" target="_top" xlink:title="Cast one or more occlusion rays in parallel.">
<polygon fill="white" stroke="black" points="207.5,-343.5 207.5,-362.5 317.5,-362.5 317.5,-343.5 207.5,-343.5"/>
<text text-anchor="middle" x="262.5" y="-350.5" font-family="Helvetica,sans-Serif" font-size="10.00">CastOcclusionRays</text>
</a>
</g>
</g>
<!-- Node1&#45;&gt;Node5 -->
<g id="edge4" class="edge">
<title>Node1&#45;&gt;Node5</title>
<path fill="none" stroke="midnightblue" d="M451.82,-306.18C428.33,-315 396.11,-326.34 367,-334 351.1,-338.18 333.59,-341.78 317.56,-344.67"/>
<polygon fill="midnightblue" stroke="midnightblue" points="453.22,-309.4 461.32,-302.58 450.73,-302.85 453.22,-309.4"/>
</g>
<!-- Node7 -->
<g id="node7" class="node">
<title>Node7</title>
<g id="a_node7"><a xlink:href="a00391.html#ga81a505c14bba3bed1515384b209b3422" target="_top" xlink:title="Cast rays for each node in origins/directions as ordered pairs and get distance back as a result.">
<polygon fill="white" stroke="black" points="210,-305.5 210,-324.5 315,-324.5 315,-305.5 210,-305.5"/>
<text text-anchor="middle" x="262.5" y="-312.5" font-family="Helvetica,sans-Serif" font-size="10.00">CastRaysDistance</text>
</a>
</g>
</g>
<!-- Node1&#45;&gt;Node7 -->
<g id="edge6" class="edge">
<title>Node1&#45;&gt;Node7</title>
<path fill="none" stroke="midnightblue" d="M392.77,-302.19C366.29,-304.81 338.38,-307.58 315.3,-309.87"/>
<polygon fill="midnightblue" stroke="midnightblue" points="393.23,-305.66 402.84,-301.19 392.54,-298.7 393.23,-305.66"/>
</g>
<!-- Node8 -->
<g id="node8" class="node">
<title>Node8</title>
<g id="a_node8"><a xlink:href="a00394.html#ga0255e6c4811298e61110adc64c0f8acd" target="_top" xlink:title="Create a new directed visibility graph between all nodes in parameter nodes.">
<polygon fill="white" stroke="black" points="195.5,-256 195.5,-286 329.5,-286 329.5,-256 195.5,-256"/>
<text text-anchor="start" x="203.5" y="-274" font-family="Helvetica,sans-Serif" font-size="10.00">CreateVisibilityGraphAll</text>
<text text-anchor="middle" x="262.5" y="-263" font-family="Helvetica,sans-Serif" font-size="10.00">ToAll</text>
</a>
</g>
</g>
<!-- Node1&#45;&gt;Node8 -->
<g id="edge7" class="edge">
<title>Node1&#45;&gt;Node8</title>
<path fill="none" stroke="midnightblue" d="M392.83,-283.82C371.6,-281.71 349.45,-279.52 329.6,-277.55"/>
<polygon fill="midnightblue" stroke="midnightblue" points="392.54,-287.3 402.84,-284.81 393.23,-280.34 392.54,-287.3"/>
</g>
<!-- Node10 -->
<g id="node10" class="node">
<title>Node10</title>
<g id="a_node10"><a xlink:href="a00394.html#ga9b0664a60bcdf276b0fe0a2023b3d9b8" target="_top" xlink:title="Create a new undirected visibility graph between all nodes in nodes.">
<polygon fill="white" stroke="black" points="195.5,-207 195.5,-237 329.5,-237 329.5,-207 195.5,-207"/>
<text text-anchor="start" x="203.5" y="-225" font-family="Helvetica,sans-Serif" font-size="10.00">CreateVisibilityGraphAll</text>
<text text-anchor="middle" x="262.5" y="-214" font-family="Helvetica,sans-Serif" font-size="10.00">ToAllUndirected</text>
</a>
</g>
</g>
<!-- Node1&#45;&gt;Node10 -->
<g id="edge9" class="edge">
<title>Node1&#45;&gt;Node10</title>
<path fill="none" stroke="midnightblue" d="M454.03,-279.46C430.39,-269.61 397.04,-256.41 367,-247 355,-243.24 342.08,-239.72 329.56,-236.56"/>
<polygon fill="midnightblue" stroke="midnightblue" points="452.96,-282.81 463.54,-283.46 455.67,-276.36 452.96,-282.81"/>
</g>
<!-- Node12 -->
<g id="node12" class="node">
<title>Node12</title>
<g id="a_node12"><a xlink:href="a00394.html#gaf2e404cb696aee3473cac0d1507576d8" target="_top" xlink:title="Create a new visibility graph from the nodes in group_a, into the nodes of group_b.">
<polygon fill="white" stroke="black" points="187.5,-158 187.5,-188 337.5,-188 337.5,-158 187.5,-158"/>
<text text-anchor="start" x="195.5" y="-176" font-family="Helvetica,sans-Serif" font-size="10.00">CreateVisibilityGraphGroup</text>
<text text-anchor="middle" x="262.5" y="-165" font-family="Helvetica,sans-Serif" font-size="10.00">ToGroup</text>
</a>
</g>
</g>
<!-- Node1&#45;&gt;Node12 -->
<g id="edge11" class="edge">
<title>Node1&#45;&gt;Node12</title>
<path fill="none" stroke="midnightblue" d="M469.37,-276.11C447.98,-254.7 408.11,-218.18 367,-198 357.79,-193.48 347.71,-189.74 337.57,-186.66"/>
<polygon fill="midnightblue" stroke="midnightblue" points="466.88,-278.57 476.38,-283.25 471.87,-273.66 466.88,-278.57"/>
</g>
<!-- Node15 -->
<g id="node15" class="node">
<title>Node15</title>
<g id="a_node15"><a xlink:href="a00393.html#gaa4c5714c1e557ef83a03d447eb30c6d0" target="_top" xlink:title="Conduct view analysis, and aggregate the results.">
<polygon fill="white" stroke="black" points="161.5,-114.5 161.5,-133.5 363.5,-133.5 363.5,-114.5 161.5,-114.5"/>
<text text-anchor="middle" x="262.5" y="-121.5" font-family="Helvetica,sans-Serif" font-size="10.00">SphereicalViewAnalysisAggregateFlat</text>
</a>
</g>
</g>
<!-- Node1&#45;&gt;Node15 -->
<g id="edge14" class="edge">
<title>Node1&#45;&gt;Node15</title>
<path fill="none" stroke="midnightblue" d="M475.69,-274.6C458.18,-243.62 418.5,-181.26 367,-149 356.03,-142.13 343.33,-137.15 330.65,-133.54"/>
<polygon fill="midnightblue" stroke="midnightblue" points="472.69,-276.41 480.58,-283.48 478.82,-273.03 472.69,-276.41"/>
</g>
<!-- Node18 -->
<g id="node18" class="node">
<title>Node18</title>
<g id="a_node18"><a xlink:href="a00393.html#ga348af4492f3e4e7ffab6da3e86de3924" target="_top" xlink:title="Perform view analysis, and get the distance and meshid for each individual ray casted.">
<polygon fill="white" stroke="black" points="158,-38.5 158,-57.5 367,-57.5 367,-38.5 158,-38.5"/>
<text text-anchor="middle" x="262.5" y="-45.5" font-family="Helvetica,sans-Serif" font-size="10.00">SphericalViewAnalysisNoAggregateFlat</text>
</a>
</g>
</g>
<!-- Node1&#45;&gt;Node18 -->
<g id="edge17" class="edge">
<title>Node1&#45;&gt;Node18</title>
<path fill="none" stroke="midnightblue" d="M477.33,-273.7C461,-236.95 421.17,-156.06 367,-105 344.01,-83.33 311.23,-67.11 288.75,-57.62"/>
<polygon fill="midnightblue" stroke="midnightblue" points="474.28,-275.45 481.48,-283.22 480.7,-272.65 474.28,-275.45"/>
</g>
<!-- Node6 -->
<g id="node6" class="node">
<title>Node6</title>
<g id="a_node6"><a xlink:href="a00416.html#a75a69a5828e9048e18cd8174f762aa1c" target="_top" xlink:title=" ">
<polygon fill="white" stroke="black" points="10,-343.5 10,-362.5 112,-362.5 112,-343.5 10,-343.5"/>
<text text-anchor="middle" x="61" y="-350.5" font-family="Helvetica,sans-Serif" font-size="10.00">C_Interface::TEST</text>
</a>
</g>
</g>
<!-- Node5&#45;&gt;Node6 -->
<g id="edge5" class="edge">
<title>Node5&#45;&gt;Node6</title>
<path fill="none" stroke="midnightblue" d="M196.93,-353C169.43,-353 137.83,-353 112.13,-353"/>
<polygon fill="midnightblue" stroke="midnightblue" points="197.25,-356.5 207.25,-353 197.25,-349.5 197.25,-356.5"/>
</g>
<!-- Node9 -->
<g id="node9" class="node">
<title>Node9</title>
<g id="a_node9"><a xlink:href="a00414.html#ab4db31dd49b37ac0eafa29d6cfbed556" target="_top" xlink:title=" ">
<polygon fill="white" stroke="black" points="0,-266.5 0,-285.5 122,-285.5 122,-266.5 0,-266.5"/>
<text text-anchor="middle" x="61" y="-273.5" font-family="Helvetica,sans-Serif" font-size="10.00">CInterfaceTests::TEST</text>
</a>
</g>
</g>
<!-- Node8&#45;&gt;Node9 -->
<g id="edge8" class="edge">
<title>Node8&#45;&gt;Node9</title>
<path fill="none" stroke="midnightblue" d="M185.24,-272.91C164.39,-273.43 142.08,-273.99 122.25,-274.49"/>
<polygon fill="midnightblue" stroke="midnightblue" points="185.44,-276.41 195.35,-272.66 185.26,-269.41 185.44,-276.41"/>
</g>
<!-- Node11 -->
<g id="node11" class="node">
<title>Node11</title>
<g id="a_node11"><a xlink:href="a00414.html#a3d1882bb0ad374a2444c01dd46a92013" target="_top" xlink:title=" ">
<polygon fill="white" stroke="black" points="0,-228.5 0,-247.5 122,-247.5 122,-228.5 0,-228.5"/>
<text text-anchor="middle" x="61" y="-235.5" font-family="Helvetica,sans-Serif" font-size="10.00">CInterfaceTests::TEST</text>
</a>
</g>
</g>
<!-- Node10&#45;&gt;Node11 -->
<g id="edge10" class="edge">
<title>Node10&#45;&gt;Node11</title>
<path fill="none" stroke="midnightblue" d="M185.24,-228.12C164.39,-229.79 142.08,-231.58 122.25,-233.17"/>
<polygon fill="midnightblue" stroke="midnightblue" points="185.66,-231.59 195.35,-227.31 185.1,-224.62 185.66,-231.59"/>
</g>
<!-- Node13 -->
<g id="node13" class="node">
<title>Node13</title>
<g id="a_node13"><a xlink:href="a00335.html#aad85acff2b9716aaf14c5a73114822b9" target="_top" xlink:title=" ">
<polygon fill="white" stroke="black" points="40.5,-190.5 40.5,-209.5 81.5,-209.5 81.5,-190.5 40.5,-190.5"/>
<text text-anchor="middle" x="61" y="-197.5" font-family="Helvetica,sans-Serif" font-size="10.00">TEST</text>
</a>
</g>
</g>
<!-- Node12&#45;&gt;Node13 -->
<g id="edge12" class="edge">
<title>Node12&#45;&gt;Node13</title>
<path fill="none" stroke="midnightblue" d="M177.16,-184.41C141.95,-189.18 104.11,-194.3 81.78,-197.32"/>
<polygon fill="midnightblue" stroke="midnightblue" points="178.06,-187.83 187.5,-183.02 177.12,-180.89 178.06,-187.83"/>
</g>
<!-- Node14 -->
<g id="node14" class="node">
<title>Node14</title>
<g id="a_node14"><a xlink:href="a00414.html#ad2cc33eb1f7d0c628289c7d82da986c7" target="_top" xlink:title=" ">
<polygon fill="white" stroke="black" points="0,-152.5 0,-171.5 122,-171.5 122,-152.5 0,-152.5"/>
<text text-anchor="middle" x="61" y="-159.5" font-family="Helvetica,sans-Serif" font-size="10.00">CInterfaceTests::TEST</text>
</a>
</g>
</g>
<!-- Node12&#45;&gt;Node14 -->
<g id="edge13" class="edge">
<title>Node12&#45;&gt;Node14</title>
<path fill="none" stroke="midnightblue" d="M177.3,-168.36C158.79,-167.34 139.55,-166.28 122.2,-165.32"/>
<polygon fill="midnightblue" stroke="midnightblue" points="177.32,-171.86 187.5,-168.92 177.7,-164.87 177.32,-171.86"/>
</g>
<!-- Node16 -->
<g id="node16" class="node">
<title>Node16</title>
<g id="a_node16"><a xlink:href="a00414.html#aefb070033c9b861b042d65c1680b00c2" target="_top" xlink:title=" ">
<polygon fill="white" stroke="black" points="0,-114.5 0,-133.5 122,-133.5 122,-114.5 0,-114.5"/>
<text text-anchor="middle" x="61" y="-121.5" font-family="Helvetica,sans-Serif" font-size="10.00">CInterfaceTests::TEST</text>
</a>
</g>
</g>
<!-- Node15&#45;&gt;Node16 -->
<g id="edge15" class="edge">
<title>Node15&#45;&gt;Node16</title>
<path fill="none" stroke="midnightblue" d="M151.41,-124C141.4,-124 131.52,-124 122.2,-124"/>
<polygon fill="midnightblue" stroke="midnightblue" points="151.46,-127.5 161.46,-124 151.46,-120.5 151.46,-127.5"/>
</g>
<!-- Node17 -->
<g id="node17" class="node">
<title>Node17</title>
<g id="a_node17"><a xlink:href="a00329.html#aeaedb32c27a0c02060cfd4b91698f1ef" target="_top" xlink:title=" ">
<polygon fill="white" stroke="black" points="40.5,-76.5 40.5,-95.5 81.5,-95.5 81.5,-76.5 40.5,-76.5"/>
<text text-anchor="middle" x="61" y="-83.5" font-family="Helvetica,sans-Serif" font-size="10.00">TEST</text>
</a>
</g>
</g>
<!-- Node15&#45;&gt;Node17 -->
<g id="edge16" class="edge">
<title>Node15&#45;&gt;Node17</title>
<path fill="none" stroke="midnightblue" d="M201.56,-112.58C160.76,-104.81 109.33,-95.02 81.7,-89.75"/>
<polygon fill="midnightblue" stroke="midnightblue" points="200.94,-116.03 211.42,-114.46 202.25,-109.15 200.94,-116.03"/>
</g>
<!-- Node19 -->
<g id="node19" class="node">
<title>Node19</title>
<g id="a_node19"><a xlink:href="a00414.html#a55cf617cea1a4bc5a4f383e0906f1e06" target="_top" xlink:title=" ">
<polygon fill="white" stroke="black" points="0,-38.5 0,-57.5 122,-57.5 122,-38.5 0,-38.5"/>
<text text-anchor="middle" x="61" y="-45.5" font-family="Helvetica,sans-Serif" font-size="10.00">CInterfaceTests::TEST</text>
</a>
</g>
</g>
<!-- Node18&#45;&gt;Node19 -->
<g id="edge18" class="edge">
<title>Node18&#45;&gt;Node19</title>
<path fill="none" stroke="midnightblue" d="M147.94,-48C139.12,-48 130.45,-48 122.2,-48"/>
<polygon fill="midnightblue" stroke="midnightblue" points="147.95,-51.5 157.95,-48 147.95,-44.5 147.95,-51.5"/>
</g>
<!-- Node20 -->
<g id="node20" class="node">
<title>Node20</title>
<g id="a_node20"><a xlink:href="a00329.html#a804ad544dafda5055205e813b0fe3fd2" target="_top" xlink:title=" ">
<polygon fill="white" stroke="black" points="40.5,-0.5 40.5,-19.5 81.5,-19.5 81.5,-0.5 40.5,-0.5"/>
<text text-anchor="middle" x="61" y="-7.5" font-family="Helvetica,sans-Serif" font-size="10.00">TEST</text>
</a>
</g>
</g>
<!-- Node18&#45;&gt;Node20 -->
<g id="edge19" class="edge">
<title>Node18&#45;&gt;Node20</title>
<path fill="none" stroke="midnightblue" d="M201.56,-36.58C160.76,-28.81 109.33,-19.02 81.7,-13.75"/>
<polygon fill="midnightblue" stroke="midnightblue" points="200.94,-40.03 211.42,-38.46 202.25,-33.15 200.94,-40.03"/>
</g>
</g>
</svg>
