<?xml version="1.0" encoding="UTF-8" standalone="no"?>
<!DOCTYPE svg PUBLIC "-//W3C//DTD SVG 1.1//EN"
 "http://www.w3.org/Graphics/SVG/1.1/DTD/svg11.dtd">
<!-- Generated by graphviz version 2.43.0 (0)
 -->
<!-- Title: Cpp/tests/src/visibility_graph_cinterface.cpp Pages: 1 -->
<svg width="841pt" height="263pt"
 viewBox="0.00 0.00 841.00 263.00" xmlns="http://www.w3.org/2000/svg" xmlns:xlink="http://www.w3.org/1999/xlink">
<g id="graph0" class="graph" transform="scale(1 1) rotate(0) translate(4 259)">
<title>Cpp/tests/src/visibility_graph_cinterface.cpp</title>
<polygon fill="white" stroke="transparent" points="-4,4 -4,-259 837,-259 837,4 -4,4"/>
<!-- Node1 -->
<g id="node1" class="node">
<title>Node1</title>
<g id="a_node1"><a xlink:title="Unit test source file for testing the functionality of visibility_graph_C.">
<polygon fill="#bfbfbf" stroke="black" points="198.5,-224.5 198.5,-254.5 323.5,-254.5 323.5,-224.5 198.5,-224.5"/>
<text text-anchor="start" x="206.5" y="-242.5" font-family="Helvetica,sans-Serif" font-size="10.00">Cpp/tests/src/visibility</text>
<text text-anchor="middle" x="261" y="-231.5" font-family="Helvetica,sans-Serif" font-size="10.00">_graph_cinterface.cpp</text>
</a>
</g>
</g>
<!-- Node2 -->
<g id="node2" class="node">
<title>Node2</title>
<g id="a_node2"><a xlink:title=" ">
<polygon fill="white" stroke="#bfbfbf" points="0,-168.5 0,-187.5 78,-187.5 78,-168.5 0,-168.5"/>
<text text-anchor="middle" x="39" y="-175.5" font-family="Helvetica,sans-Serif" font-size="10.00">gtest/gtest.h</text>
</a>
</g>
</g>
<!-- Node1&#45;&gt;Node2 -->
<g id="edge1" class="edge">
<title>Node1&#45;&gt;Node2</title>
<path fill="none" stroke="midnightblue" d="M208.67,-224.47C169.53,-213.99 116.74,-199.84 80.5,-190.12"/>
<polygon fill="midnightblue" stroke="midnightblue" points="81.3,-186.71 70.74,-187.51 79.49,-193.48 81.3,-186.71"/>
</g>
<!-- Node3 -->
<g id="node3" class="node">
<title>Node3</title>
<g id="a_node3"><a xlink:href="a00353.html" target="_top" xlink:title="Header file for functions related to loading/storing an OBJ file (a mesh)">
<polygon fill="white" stroke="black" points="402.5,-168.5 402.5,-187.5 485.5,-187.5 485.5,-168.5 402.5,-168.5"/>
<text text-anchor="middle" x="444" y="-175.5" font-family="Helvetica,sans-Serif" font-size="10.00">objloader_C.h</text>
</a>
</g>
</g>
<!-- Node1&#45;&gt;Node3 -->
<g id="edge2" class="edge">
<title>Node1&#45;&gt;Node3</title>
<path fill="none" stroke="midnightblue" d="M304.37,-224.4C335.99,-214.12 378.33,-200.35 408.07,-190.68"/>
<polygon fill="midnightblue" stroke="midnightblue" points="409.21,-193.99 417.64,-187.57 407.05,-187.33 409.21,-193.99"/>
</g>
<!-- Node5 -->
<g id="node5" class="node">
<title>Node5</title>
<g id="a_node5"><a xlink:href="a00371.html" target="_top" xlink:title="Header file related to manipulating nodes, edges, and graphs via CInterface.">
<polygon fill="white" stroke="black" points="134.5,-168.5 134.5,-187.5 253.5,-187.5 253.5,-168.5 134.5,-168.5"/>
<text text-anchor="middle" x="194" y="-175.5" font-family="Helvetica,sans-Serif" font-size="10.00">spatialstructures_C.h</text>
</a>
</g>
</g>
<!-- Node1&#45;&gt;Node5 -->
<g id="edge4" class="edge">
<title>Node1&#45;&gt;Node5</title>
<path fill="none" stroke="midnightblue" d="M245.12,-224.4C234.98,-215.4 221.84,-203.72 211.41,-194.47"/>
<polygon fill="midnightblue" stroke="midnightblue" points="213.55,-191.68 203.75,-187.66 208.9,-196.92 213.55,-191.68"/>
</g>
<!-- Node7 -->
<g id="node7" class="node">
<title>Node7</title>
<g id="a_node7"><a xlink:title=" ">
<polygon fill="white" stroke="#bfbfbf" points="243,-0.5 243,-19.5 285,-19.5 285,-0.5 243,-0.5"/>
<text text-anchor="middle" x="264" y="-7.5" font-family="Helvetica,sans-Serif" font-size="10.00">array</text>
</a>
</g>
</g>
<!-- Node1&#45;&gt;Node7 -->
<g id="edge26" class="edge">
<title>Node1&#45;&gt;Node7</title>
<path fill="none" stroke="midnightblue" d="M198.43,-231.23C171.17,-224.6 141.68,-211.99 125,-188 80.9,-124.58 187.81,-53.56 238.79,-24.49"/>
<polygon fill="midnightblue" stroke="midnightblue" points="240.59,-27.5 247.61,-19.57 237.17,-21.39 240.59,-27.5"/>
</g>
<!-- Node8 -->
<g id="node8" class="node">
<title>Node8</title>
<g id="a_node8"><a xlink:href="a00383.html" target="_top" xlink:title="Header file for functions related to creating a visibility graph.">
<polygon fill="white" stroke="black" points="271.5,-168.5 271.5,-187.5 384.5,-187.5 384.5,-168.5 271.5,-168.5"/>
<text text-anchor="middle" x="328" y="-175.5" font-family="Helvetica,sans-Serif" font-size="10.00">visibility_graph_C.h</text>
</a>
</g>
</g>
<!-- Node1&#45;&gt;Node8 -->
<g id="edge10" class="edge">
<title>Node1&#45;&gt;Node8</title>
<path fill="none" stroke="midnightblue" d="M276.88,-224.4C287.02,-215.4 300.16,-203.72 310.59,-194.47"/>
<polygon fill="midnightblue" stroke="midnightblue" points="313.1,-196.92 318.25,-187.66 308.45,-191.68 313.1,-196.92"/>
</g>
<!-- Node10 -->
<g id="node10" class="node">
<title>Node10</title>
<g id="a_node10"><a xlink:href="a00203.html" target="_top" xlink:title="Contains definitions for the Graph &#160;class.">
<polygon fill="white" stroke="black" points="558.5,-168.5 558.5,-187.5 611.5,-187.5 611.5,-168.5 558.5,-168.5"/>
<text text-anchor="middle" x="585" y="-175.5" font-family="Helvetica,sans-Serif" font-size="10.00">graph.h</text>
</a>
</g>
</g>
<!-- Node1&#45;&gt;Node10 -->
<g id="edge15" class="edge">
<title>Node1&#45;&gt;Node10</title>
<path fill="none" stroke="midnightblue" d="M323.85,-226.96C390.59,-214.7 493.79,-195.75 548.33,-185.73"/>
<polygon fill="midnightblue" stroke="midnightblue" points="549.04,-189.16 558.24,-183.91 547.78,-182.28 549.04,-189.16"/>
</g>
<!-- Node4 -->
<g id="node4" class="node">
<title>Node4</title>
<g id="a_node4"><a xlink:title=" ">
<polygon fill="white" stroke="#bfbfbf" points="379.5,-56.5 379.5,-75.5 426.5,-75.5 426.5,-56.5 379.5,-56.5"/>
<text text-anchor="middle" x="403" y="-63.5" font-family="Helvetica,sans-Serif" font-size="10.00">vector</text>
</a>
</g>
</g>
<!-- Node3&#45;&gt;Node4 -->
<g id="edge3" class="edge">
<title>Node3&#45;&gt;Node4</title>
<path fill="none" stroke="midnightblue" d="M441.21,-168.1C437.22,-155.51 429.53,-131.82 422,-112 418.57,-102.97 414.43,-93.07 410.89,-84.85"/>
<polygon fill="midnightblue" stroke="midnightblue" points="414.04,-83.32 406.83,-75.55 407.62,-86.12 414.04,-83.32"/>
</g>
<!-- Node5&#45;&gt;Node4 -->
<g id="edge8" class="edge">
<title>Node5&#45;&gt;Node4</title>
<path fill="none" stroke="midnightblue" d="M192.53,-168.11C190.77,-154.22 189.67,-127.36 204,-112 226.1,-88.3 318.28,-75.49 369.06,-70.11"/>
<polygon fill="midnightblue" stroke="midnightblue" points="369.64,-73.57 379.23,-69.07 368.93,-66.61 369.64,-73.57"/>
</g>
<!-- Node6 -->
<g id="node6" class="node">
<title>Node6</title>
<g id="a_node6"><a xlink:href="a00347.html" target="_top" xlink:title=" ">
<polygon fill="white" stroke="black" points="213.5,-112.5 213.5,-131.5 314.5,-131.5 314.5,-112.5 213.5,-112.5"/>
<text text-anchor="middle" x="264" y="-119.5" font-family="Helvetica,sans-Serif" font-size="10.00">cinterface_utils.h</text>
</a>
</g>
</g>
<!-- Node5&#45;&gt;Node6 -->
<g id="edge5" class="edge">
<title>Node5&#45;&gt;Node6</title>
<path fill="none" stroke="midnightblue" d="M205.25,-168.32C215.8,-160.18 231.8,-147.84 244.44,-138.09"/>
<polygon fill="midnightblue" stroke="midnightblue" points="246.77,-140.71 252.55,-131.83 242.49,-135.17 246.77,-140.71"/>
</g>
<!-- Node5&#45;&gt;Node7 -->
<g id="edge9" class="edge">
<title>Node5&#45;&gt;Node7</title>
<path fill="none" stroke="midnightblue" d="M191.71,-168.33C188.77,-155.62 184.74,-131.35 191,-112 202.08,-77.75 229.59,-45.36 247.5,-26.88"/>
<polygon fill="midnightblue" stroke="midnightblue" points="250.15,-29.18 254.73,-19.62 245.19,-24.23 250.15,-29.18"/>
</g>
<!-- Node6&#45;&gt;Node4 -->
<g id="edge6" class="edge">
<title>Node6&#45;&gt;Node4</title>
<path fill="none" stroke="midnightblue" d="M286.02,-112.44C309.1,-103.48 345.56,-89.31 371.64,-79.18"/>
<polygon fill="midnightblue" stroke="midnightblue" points="373.02,-82.4 381.08,-75.52 370.49,-75.88 373.02,-82.4"/>
</g>
<!-- Node6&#45;&gt;Node7 -->
<g id="edge7" class="edge">
<title>Node6&#45;&gt;Node7</title>
<path fill="none" stroke="midnightblue" d="M264,-112.37C264,-94.62 264,-53.67 264,-29.6"/>
<polygon fill="midnightblue" stroke="midnightblue" points="267.5,-29.59 264,-19.59 260.5,-29.59 267.5,-29.59"/>
</g>
<!-- Node8&#45;&gt;Node6 -->
<g id="edge11" class="edge">
<title>Node8&#45;&gt;Node6</title>
<path fill="none" stroke="midnightblue" d="M317.72,-168.32C308.16,-160.26 293.72,-148.08 282.22,-138.37"/>
<polygon fill="midnightblue" stroke="midnightblue" points="284.37,-135.61 274.47,-131.83 279.86,-140.96 284.37,-135.61"/>
</g>
<!-- Node9 -->
<g id="node9" class="node">
<title>Node9</title>
<g id="a_node9"><a xlink:href="a00365.html" target="_top" xlink:title="C Interface header file for Raytracer functionality.">
<polygon fill="white" stroke="black" points="333,-112.5 333,-131.5 413,-131.5 413,-112.5 333,-112.5"/>
<text text-anchor="middle" x="373" y="-119.5" font-family="Helvetica,sans-Serif" font-size="10.00">raytracer_c.h</text>
</a>
</g>
</g>
<!-- Node8&#45;&gt;Node9 -->
<g id="edge12" class="edge">
<title>Node8&#45;&gt;Node9</title>
<path fill="none" stroke="midnightblue" d="M335.43,-168.08C341.85,-160.38 351.31,-149.03 359.12,-139.65"/>
<polygon fill="midnightblue" stroke="midnightblue" points="361.99,-141.67 365.71,-131.75 356.62,-137.19 361.99,-141.67"/>
</g>
<!-- Node9&#45;&gt;Node4 -->
<g id="edge13" class="edge">
<title>Node9&#45;&gt;Node4</title>
<path fill="none" stroke="midnightblue" d="M377.95,-112.08C382.1,-104.61 388.15,-93.72 393.27,-84.52"/>
<polygon fill="midnightblue" stroke="midnightblue" points="396.34,-86.19 398.14,-75.75 390.22,-82.79 396.34,-86.19"/>
</g>
<!-- Node9&#45;&gt;Node7 -->
<g id="edge14" class="edge">
<title>Node9&#45;&gt;Node7</title>
<path fill="none" stroke="midnightblue" d="M364.45,-112.37C346.14,-93.89 302.94,-50.29 279.6,-26.74"/>
<polygon fill="midnightblue" stroke="midnightblue" points="282.04,-24.23 272.51,-19.59 277.07,-29.16 282.04,-24.23"/>
</g>
<!-- Node10&#45;&gt;Node4 -->
<g id="edge17" class="edge">
<title>Node10&#45;&gt;Node4</title>
<path fill="none" stroke="midnightblue" d="M566.99,-168.49C549.15,-159.87 521.21,-145.87 498,-132 471.2,-115.98 441.72,-95.3 422.82,-81.62"/>
<polygon fill="midnightblue" stroke="midnightblue" points="424.83,-78.75 414.69,-75.69 420.71,-84.41 424.83,-78.75"/>
</g>
<!-- Node11 -->
<g id="node11" class="node">
<title>Node11</title>
<g id="a_node11"><a xlink:title=" ">
<polygon fill="white" stroke="#bfbfbf" points="613,-112.5 613,-131.5 693,-131.5 693,-112.5 613,-112.5"/>
<text text-anchor="middle" x="653" y="-119.5" font-family="Helvetica,sans-Serif" font-size="10.00">robin_hood.h</text>
</a>
</g>
</g>
<!-- Node10&#45;&gt;Node11 -->
<g id="edge16" class="edge">
<title>Node10&#45;&gt;Node11</title>
<path fill="none" stroke="midnightblue" d="M595.93,-168.32C606.17,-160.18 621.72,-147.84 634,-138.09"/>
<polygon fill="midnightblue" stroke="midnightblue" points="636.22,-140.79 641.88,-131.83 631.87,-135.31 636.22,-140.79"/>
</g>
<!-- Node12 -->
<g id="node12" class="node">
<title>Node12</title>
<g id="a_node12"><a xlink:href="a00197.html" target="_top" xlink:title="Contains definitions for the Edge structure.">
<polygon fill="white" stroke="black" points="507,-112.5 507,-131.5 557,-131.5 557,-112.5 507,-112.5"/>
<text text-anchor="middle" x="532" y="-119.5" font-family="Helvetica,sans-Serif" font-size="10.00">Edge.h</text>
</a>
</g>
</g>
<!-- Node10&#45;&gt;Node12 -->
<g id="edge18" class="edge">
<title>Node10&#45;&gt;Node12</title>
<path fill="none" stroke="midnightblue" d="M576.25,-168.08C568.53,-160.22 557.1,-148.57 547.78,-139.08"/>
<polygon fill="midnightblue" stroke="midnightblue" points="550.09,-136.44 540.59,-131.75 545.1,-141.34 550.09,-136.44"/>
</g>
<!-- Node13 -->
<g id="node13" class="node">
<title>Node13</title>
<g id="a_node13"><a xlink:href="a00209.html" target="_top" xlink:title="Contains definitions for the Node structure.">
<polygon fill="white" stroke="black" points="507,-56.5 507,-75.5 557,-75.5 557,-56.5 507,-56.5"/>
<text text-anchor="middle" x="532" y="-63.5" font-family="Helvetica,sans-Serif" font-size="10.00">node.h</text>
</a>
</g>
</g>
<!-- Node10&#45;&gt;Node13 -->
<g id="edge23" class="edge">
<title>Node10&#45;&gt;Node13</title>
<path fill="none" stroke="midnightblue" d="M583.48,-168.21C581.04,-155.36 575.5,-130.91 566,-112 560.84,-101.74 553.28,-91.44 546.59,-83.28"/>
<polygon fill="midnightblue" stroke="midnightblue" points="549.23,-80.99 540.08,-75.66 543.91,-85.54 549.23,-80.99"/>
</g>
<!-- Node15 -->
<g id="node15" class="node">
<title>Node15</title>
<g id="a_node15"><a xlink:title=" ">
<polygon fill="white" stroke="#bfbfbf" points="711,-112.5 711,-131.5 755,-131.5 755,-112.5 711,-112.5"/>
<text text-anchor="middle" x="733" y="-119.5" font-family="Helvetica,sans-Serif" font-size="10.00">Eigen</text>
</a>
</g>
</g>
<!-- Node10&#45;&gt;Node15 -->
<g id="edge24" class="edge">
<title>Node10&#45;&gt;Node15</title>
<path fill="none" stroke="midnightblue" d="M608.45,-168.44C633.42,-159.33 673.11,-144.85 700.95,-134.69"/>
<polygon fill="midnightblue" stroke="midnightblue" points="702.43,-137.88 710.63,-131.16 700.03,-131.3 702.43,-137.88"/>
</g>
<!-- Node16 -->
<g id="node16" class="node">
<title>Node16</title>
<g id="a_node16"><a xlink:title=" ">
<polygon fill="white" stroke="#bfbfbf" points="773,-112.5 773,-131.5 833,-131.5 833,-112.5 773,-112.5"/>
<text text-anchor="middle" x="803" y="-119.5" font-family="Helvetica,sans-Serif" font-size="10.00">iostream</text>
</a>
</g>
</g>
<!-- Node10&#45;&gt;Node16 -->
<g id="edge25" class="edge">
<title>Node10&#45;&gt;Node16</title>
<path fill="none" stroke="midnightblue" d="M611.73,-170.38C649.6,-161 719.14,-143.77 763.12,-132.88"/>
<polygon fill="midnightblue" stroke="midnightblue" points="764.04,-136.26 772.9,-130.46 762.35,-129.46 764.04,-136.26"/>
</g>
<!-- Node12&#45;&gt;Node4 -->
<g id="edge22" class="edge">
<title>Node12&#45;&gt;Node4</title>
<path fill="none" stroke="midnightblue" d="M511.56,-112.44C490.33,-103.56 456.9,-89.56 432.75,-79.45"/>
<polygon fill="midnightblue" stroke="midnightblue" points="433.92,-76.15 423.34,-75.52 431.22,-82.61 433.92,-76.15"/>
</g>
<!-- Node12&#45;&gt;Node13 -->
<g id="edge19" class="edge">
<title>Node12&#45;&gt;Node13</title>
<path fill="none" stroke="midnightblue" d="M532,-112.08C532,-105.01 532,-94.86 532,-85.99"/>
<polygon fill="midnightblue" stroke="midnightblue" points="535.5,-85.75 532,-75.75 528.5,-85.75 535.5,-85.75"/>
</g>
<!-- Node13&#45;&gt;Node7 -->
<g id="edge20" class="edge">
<title>Node13&#45;&gt;Node7</title>
<path fill="none" stroke="midnightblue" d="M506.79,-59.92C457.56,-50 348.78,-28.08 295.14,-17.28"/>
<polygon fill="midnightblue" stroke="midnightblue" points="295.68,-13.81 285.19,-15.27 294.3,-20.68 295.68,-13.81"/>
</g>
<!-- Node14 -->
<g id="node14" class="node">
<title>Node14</title>
<g id="a_node14"><a xlink:title=" ">
<polygon fill="white" stroke="#bfbfbf" points="503.5,-0.5 503.5,-19.5 560.5,-19.5 560.5,-0.5 503.5,-0.5"/>
<text text-anchor="middle" x="532" y="-7.5" font-family="Helvetica,sans-Serif" font-size="10.00">ostream</text>
</a>
</g>
</g>
<!-- Node13&#45;&gt;Node14 -->
<g id="edge21" class="edge">
<title>Node13&#45;&gt;Node14</title>
<path fill="none" stroke="midnightblue" d="M532,-56.08C532,-49.01 532,-38.86 532,-29.99"/>
<polygon fill="midnightblue" stroke="midnightblue" points="535.5,-29.75 532,-19.75 528.5,-29.75 535.5,-29.75"/>
</g>
</g>
</svg>
