<?xml version="1.0" encoding="UTF-8" standalone="no"?>
<!DOCTYPE svg PUBLIC "-//W3C//DTD SVG 1.1//EN"
 "http://www.w3.org/Graphics/SVG/1.1/DTD/svg11.dtd">
<!-- Generated by graphviz version 7.0.3 (20221126.0506)
 -->
<!-- Title: CalculateAndStoreCrossSlope Pages: 1 -->
<svg width="328pt" height="135pt"
 viewBox="0.00 0.00 328.00 134.50" xmlns="http://www.w3.org/2000/svg" xmlns:xlink="http://www.w3.org/1999/xlink">
<g id="graph0" class="graph" transform="scale(1 1) rotate(0) translate(4 130.5)">
<title>CalculateAndStoreCrossSlope</title>
<!-- Node1 -->
<g id="node1" class="node">
<title>Node1</title>
<g id="a_node1"><a xlink:title="Calculates cross slope for all subgraphs in *g.">
<polygon fill="#999999" stroke="#666666" points="148,-78 0,-78 0,-59 148,-59 148,-78"/>
<text text-anchor="middle" x="74" y="-66" font-family="Helvetica,sans-Serif" font-size="10.00">CalculateAndStoreCrossSlope</text>
</a>
</g>
</g>
<!-- Node2 -->
<g id="node2" class="node">
<title>Node2</title>
<g id="a_node2"><a xlink:href="a01485.html#a6f04c5320d4bf88120f8c5e31b0fb02a" target="_top" xlink:title="Add multiple edges to the graph.">
<polygon fill="white" stroke="#666666" points="307,-126.5 197,-126.5 197,-96.5 307,-96.5 307,-126.5"/>
<text text-anchor="start" x="205" y="-114.5" font-family="Helvetica,sans-Serif" font-size="10.00">HF::SpatialStructures</text>
<text text-anchor="middle" x="252" y="-103.5" font-family="Helvetica,sans-Serif" font-size="10.00">::Graph::AddEdges</text>
</a>
</g>
</g>
<!-- Node1&#45;&gt;Node2 -->
<g id="edge1" class="edge">
<title>Node1&#45;&gt;Node2</title>
<path fill="none" stroke="#63b8ff" d="M115.82,-78.47C136.6,-83.55 162.35,-89.84 185.79,-95.57"/>
<polygon fill="#63b8ff" stroke="#63b8ff" points="184.71,-98.91 195.26,-97.88 186.37,-92.11 184.71,-98.91"/>
</g>
<!-- Node3 -->
<g id="node3" class="node">
<title>Node3</title>
<g id="a_node3"><a xlink:href="a00371.html#a047beaeb65d7842c75f024915219177e" target="_top" xlink:title="Get the cost algorithm title (as std::string) from the COST_ALG_KEY enum member.">
<polygon fill="white" stroke="#666666" points="300,-78 204,-78 204,-59 300,-59 300,-78"/>
<text text-anchor="middle" x="252" y="-66" font-family="Helvetica,sans-Serif" font-size="10.00">AlgorithmCostTitle</text>
</a>
</g>
</g>
<!-- Node1&#45;&gt;Node3 -->
<g id="edge2" class="edge">
<title>Node1&#45;&gt;Node3</title>
<path fill="none" stroke="#63b8ff" d="M148.37,-68.5C162.96,-68.5 178.1,-68.5 192.13,-68.5"/>
<polygon fill="#63b8ff" stroke="#63b8ff" points="192.1,-72 202.1,-68.5 192.1,-65 192.1,-72"/>
</g>
<!-- Node4 -->
<g id="node4" class="node">
<title>Node4</title>
<g id="a_node4"><a xlink:href="a00409.html#a51b88e596c3b5f68b7abbcbc91e30bdf" target="_top" xlink:title=" ">
<polygon fill="white" stroke="#666666" points="320,-41 184,-41 184,0 320,0 320,-41"/>
<text text-anchor="start" x="192" y="-29" font-family="Helvetica,sans-Serif" font-size="10.00">HF::SpatialStructures</text>
<text text-anchor="start" x="192" y="-18" font-family="Helvetica,sans-Serif" font-size="10.00">::CostAlgorithms::Calculate</text>
<text text-anchor="middle" x="252" y="-7" font-family="Helvetica,sans-Serif" font-size="10.00">CrossSlope</text>
</a>
</g>
</g>
<!-- Node1&#45;&gt;Node4 -->
<g id="edge3" class="edge">
<title>Node1&#45;&gt;Node4</title>
<path fill="none" stroke="#63b8ff" d="M111.47,-58.55C129.22,-53.71 151.28,-47.7 172.59,-41.88"/>
<polygon fill="#63b8ff" stroke="#63b8ff" points="173.45,-45.28 182.18,-39.27 171.61,-38.52 173.45,-45.28"/>
</g>
</g>
</svg>
