<?xml version="1.0" encoding="UTF-8" standalone="no"?>
<!DOCTYPE svg PUBLIC "-//W3C//DTD SVG 1.1//EN"
 "http://www.w3.org/Graphics/SVG/1.1/DTD/svg11.dtd">
<!-- Generated by graphviz version 2.43.0 (0)
 -->
<!-- Title: StoreMesh Pages: 1 -->
<svg width="597pt" height="138pt"
 viewBox="0.00 0.00 597.00 137.50" xmlns="http://www.w3.org/2000/svg" xmlns:xlink="http://www.w3.org/1999/xlink">
<g id="graph0" class="graph" transform="scale(1 1) rotate(0) translate(4 133.5)">
<title>StoreMesh</title>
<polygon fill="white" stroke="transparent" points="-4,4 -4,-133.5 593,-133.5 593,4 -4,4"/>
<!-- Node1 -->
<g id="node1" class="node">
<title>Node1</title>
<g id="a_node1"><a xlink:title="Store a mesh in a format usable with HumanFactors.">
<polygon fill="#bfbfbf" stroke="black" points="521,-38.5 521,-57.5 589,-57.5 589,-38.5 521,-38.5"/>
<text text-anchor="middle" x="555" y="-45.5" font-family="Helvetica,sans-Serif" font-size="10.00">StoreMesh</text>
</a>
</g>
</g>
<!-- Node2 -->
<g id="node2" class="node">
<title>Node2</title>
<g id="a_node2"><a xlink:href="a00416.html#a62a0b0af38f3ea2ac8b1919033df5c75" target="_top" xlink:title=" ">
<polygon fill="white" stroke="black" points="318,-77 318,-107 485,-107 485,-77 318,-77"/>
<text text-anchor="start" x="326" y="-95" font-family="Helvetica,sans-Serif" font-size="10.00">C_Interface::ConstructExample</text>
<text text-anchor="middle" x="401.5" y="-84" font-family="Helvetica,sans-Serif" font-size="10.00">Plane</text>
</a>
</g>
</g>
<!-- Node1&#45;&gt;Node2 -->
<g id="edge1" class="edge">
<title>Node1&#45;&gt;Node2</title>
<path fill="none" stroke="midnightblue" d="M511.11,-60.46C493.46,-65.58 472.86,-71.56 454.37,-76.93"/>
<polygon fill="midnightblue" stroke="midnightblue" points="512.5,-63.7 521.13,-57.55 510.55,-56.98 512.5,-63.7"/>
</g>
<!-- Node6 -->
<g id="node6" class="node">
<title>Node6</title>
<g id="a_node6"><a xlink:href="a00329.html#a2178ea93521f45cbc1bdc6a98d46cd94" target="_top" xlink:title=" ">
<polygon fill="white" stroke="black" points="381,-38.5 381,-57.5 422,-57.5 422,-38.5 381,-38.5"/>
<text text-anchor="middle" x="401.5" y="-45.5" font-family="Helvetica,sans-Serif" font-size="10.00">TEST</text>
</a>
</g>
</g>
<!-- Node1&#45;&gt;Node6 -->
<g id="edge5" class="edge">
<title>Node1&#45;&gt;Node6</title>
<path fill="none" stroke="midnightblue" d="M510.43,-48C481.34,-48 444.47,-48 422.23,-48"/>
<polygon fill="midnightblue" stroke="midnightblue" points="510.75,-51.5 520.75,-48 510.75,-44.5 510.75,-51.5"/>
</g>
<!-- Node7 -->
<g id="node7" class="node">
<title>Node7</title>
<g id="a_node7"><a xlink:href="a00414.html#ad9da02f524cb4bf5ae33c85e92c556da" target="_top" xlink:title=" ">
<polygon fill="white" stroke="black" points="340.5,-0.5 340.5,-19.5 462.5,-19.5 462.5,-0.5 340.5,-0.5"/>
<text text-anchor="middle" x="401.5" y="-7.5" font-family="Helvetica,sans-Serif" font-size="10.00">CInterfaceTests::TEST</text>
</a>
</g>
</g>
<!-- Node1&#45;&gt;Node7 -->
<g id="edge6" class="edge">
<title>Node1&#45;&gt;Node7</title>
<path fill="none" stroke="midnightblue" d="M510.91,-35.83C502.34,-33.5 493.4,-31.12 485,-29 472.18,-25.76 458.17,-22.45 445.4,-19.52"/>
<polygon fill="midnightblue" stroke="midnightblue" points="510.16,-39.26 520.73,-38.53 512.02,-32.51 510.16,-39.26"/>
</g>
<!-- Node3 -->
<g id="node3" class="node">
<title>Node3</title>
<g id="a_node3"><a xlink:href="a00416.html#a1436297bd9d52cd225da8671e20252f3" target="_top" xlink:title=" ">
<polygon fill="white" stroke="black" points="138,-99 138,-129 282,-129 282,-99 138,-99"/>
<text text-anchor="start" x="146" y="-117" font-family="Helvetica,sans-Serif" font-size="10.00">C_Interface::ConstructTest</text>
<text text-anchor="middle" x="210" y="-106" font-family="Helvetica,sans-Serif" font-size="10.00">Raytracer</text>
</a>
</g>
</g>
<!-- Node2&#45;&gt;Node3 -->
<g id="edge2" class="edge">
<title>Node2&#45;&gt;Node3</title>
<path fill="none" stroke="midnightblue" d="M307.79,-102.76C299.13,-103.77 290.44,-104.78 282.02,-105.76"/>
<polygon fill="midnightblue" stroke="midnightblue" points="308.4,-106.22 317.93,-101.59 307.6,-99.26 308.4,-106.22"/>
</g>
<!-- Node5 -->
<g id="node5" class="node">
<title>Node5</title>
<g id="a_node5"><a xlink:href="a00416.html#a62ffaa28d4bf2697ae669e95cc0e7971" target="_top" xlink:title=" ">
<polygon fill="white" stroke="black" points="159,-60.5 159,-79.5 261,-79.5 261,-60.5 159,-60.5"/>
<text text-anchor="middle" x="210" y="-67.5" font-family="Helvetica,sans-Serif" font-size="10.00">C_Interface::TEST</text>
</a>
</g>
</g>
<!-- Node2&#45;&gt;Node5 -->
<g id="edge4" class="edge">
<title>Node2&#45;&gt;Node5</title>
<path fill="none" stroke="midnightblue" d="M307.91,-81.25C291.77,-79.38 275.55,-77.49 261.12,-75.82"/>
<polygon fill="midnightblue" stroke="midnightblue" points="307.6,-84.74 317.93,-82.41 308.4,-77.78 307.6,-84.74"/>
</g>
<!-- Node4 -->
<g id="node4" class="node">
<title>Node4</title>
<g id="a_node4"><a xlink:href="a00416.html#ab5b50e884ef382c46bffdea00b41cc23" target="_top" xlink:title=" ">
<polygon fill="white" stroke="black" points="0,-104.5 0,-123.5 102,-123.5 102,-104.5 0,-104.5"/>
<text text-anchor="middle" x="51" y="-111.5" font-family="Helvetica,sans-Serif" font-size="10.00">C_Interface::TEST</text>
</a>
</g>
</g>
<!-- Node3&#45;&gt;Node4 -->
<g id="edge3" class="edge">
<title>Node3&#45;&gt;Node4</title>
<path fill="none" stroke="midnightblue" d="M127.69,-114C119.03,-114 110.42,-114 102.27,-114"/>
<polygon fill="midnightblue" stroke="midnightblue" points="127.85,-117.5 137.85,-114 127.85,-110.5 127.85,-117.5"/>
</g>
</g>
</svg>
