<?xml version="1.0" encoding="UTF-8" standalone="no"?>
<!DOCTYPE svg PUBLIC "-//W3C//DTD SVG 1.1//EN"
 "http://www.w3.org/Graphics/SVG/1.1/DTD/svg11.dtd">
<!-- Generated by graphviz version 5.0.0 (20220707.1540)
 -->
<!-- Title: CreateAllToAllPaths Pages: 1 -->
<svg width="797pt" height="215pt"
 viewBox="0.00 0.00 797.00 214.50" xmlns="http://www.w3.org/2000/svg" xmlns:xlink="http://www.w3.org/1999/xlink">
<g id="graph0" class="graph" transform="scale(1 1) rotate(0) translate(4 210.5)">
<title>CreateAllToAllPaths</title>
<polygon fill="white" stroke="transparent" points="-4,4 -4,-210.5 793,-210.5 793,4 -4,4"/>
<!-- Node1 -->
<g id="node1" class="node">
<title>Node1</title>
<g id="a_node1"><a xlink:title="Find a path from every node in a graph to every other node.">
<polygon fill="#bfbfbf" stroke="black" points="0,-96 0,-115 104,-115 104,-96 0,-96"/>
<text text-anchor="middle" x="52" y="-103" font-family="Helvetica,sans-Serif" font-size="10.00">CreateAllToAllPaths</text>
</a>
</g>
</g>
<!-- Node2 -->
<g id="node2" class="node">
<title>Node2</title>
<g id="a_node2"><a xlink:href="a00406.html#ae2106e09eb44d681fbc6c0f66a3d3ac4" target="_top" xlink:title="Create a new boost graph from a HF::SpatialStructures:Graph.">
<polygon fill="white" stroke="black" points="140,-115.5 140,-145.5 283,-145.5 283,-115.5 140,-115.5"/>
<text text-anchor="start" x="148" y="-133.5" font-family="Helvetica,sans-Serif" font-size="10.00">HF::Pathfinding::CreateBoost</text>
<text text-anchor="middle" x="211.5" y="-122.5" font-family="Helvetica,sans-Serif" font-size="10.00">Graph</text>
</a>
</g>
</g>
<!-- Node1&#45;&gt;Node2 -->
<g id="edge1" class="edge">
<title>Node1&#45;&gt;Node2</title>
<path fill="none" stroke="midnightblue" d="M104.14,-113.62C112.42,-114.93 121.18,-116.32 129.96,-117.72"/>
<polygon fill="midnightblue" stroke="midnightblue" points="129.45,-121.18 139.87,-119.29 130.54,-114.26 129.45,-121.18"/>
</g>
<!-- Node3 -->
<g id="node3" class="node">
<title>Node3</title>
<g id="a_node3"><a xlink:href="a00406.html#a69bd3efcc13788e7c4be43b67d6002e5" target="_top" xlink:title="A special version of FindPaths optimized for the C_Interface, such that all paths possible from each ...">
<polygon fill="white" stroke="black" points="149,-66.5 149,-96.5 274,-96.5 274,-66.5 149,-66.5"/>
<text text-anchor="start" x="157" y="-84.5" font-family="Helvetica,sans-Serif" font-size="10.00">HF::Pathfinding::InsertAll</text>
<text text-anchor="middle" x="211.5" y="-73.5" font-family="Helvetica,sans-Serif" font-size="10.00">ToAllPathsIntoArray</text>
</a>
</g>
</g>
<!-- Node1&#45;&gt;Node3 -->
<g id="edge2" class="edge">
<title>Node1&#45;&gt;Node3</title>
<path fill="none" stroke="midnightblue" d="M104.14,-97.71C115.18,-96.02 127.06,-94.22 138.73,-92.44"/>
<polygon fill="midnightblue" stroke="midnightblue" points="139.55,-95.85 148.9,-90.89 138.49,-88.93 139.55,-95.85"/>
</g>
<!-- Node4 -->
<g id="node4" class="node">
<title>Node4</title>
<g id="a_node4"><a xlink:href="a00406.html#a417084c97d0672af2da7739157a9d8c0" target="_top" xlink:title="A special version of FindPaths optimized for the C_Interface.">
<polygon fill="white" stroke="black" points="319,-66.5 319,-96.5 458,-96.5 458,-66.5 319,-66.5"/>
<text text-anchor="start" x="327" y="-84.5" font-family="Helvetica,sans-Serif" font-size="10.00">HF::Pathfinding::InsertPaths</text>
<text text-anchor="middle" x="388.5" y="-73.5" font-family="Helvetica,sans-Serif" font-size="10.00">IntoArray</text>
</a>
</g>
</g>
<!-- Node3&#45;&gt;Node4 -->
<g id="edge3" class="edge">
<title>Node3&#45;&gt;Node4</title>
<path fill="none" stroke="midnightblue" d="M274.2,-81.5C285.39,-81.5 297.19,-81.5 308.79,-81.5"/>
<polygon fill="midnightblue" stroke="midnightblue" points="308.91,-85 318.91,-81.5 308.91,-78 308.91,-85"/>
</g>
<!-- Node5 -->
<g id="node5" class="node">
<title>Node5</title>
<g id="a_node5"><a xlink:href="a00406.html#a9f6490539108da057db2486295458886" target="_top" xlink:title="Build a row of the distance and predecessor matrices for the node at id.">
<polygon fill="white" stroke="black" points="494,-159.5 494,-189.5 643,-189.5 643,-159.5 494,-159.5"/>
<text text-anchor="start" x="502" y="-177.5" font-family="Helvetica,sans-Serif" font-size="10.00">HF::Pathfinding::BuildDistance</text>
<text text-anchor="middle" x="568.5" y="-166.5" font-family="Helvetica,sans-Serif" font-size="10.00">AndPredecessor</text>
</a>
</g>
</g>
<!-- Node4&#45;&gt;Node5 -->
<g id="edge4" class="edge">
<title>Node4&#45;&gt;Node5</title>
<path fill="none" stroke="midnightblue" d="M418.49,-96.65C448.75,-112.46 496.32,-137.31 529.55,-154.67"/>
<polygon fill="midnightblue" stroke="midnightblue" points="528.03,-157.83 538.52,-159.36 531.28,-151.62 528.03,-157.83"/>
</g>
<!-- Node7 -->
<g id="node7" class="node">
<title>Node7</title>
<g id="a_node7"><a xlink:href="a00406.html#a977e4c93a977ab4e9e784d1e6fec79f4" target="_top" xlink:title="Construct the shortest path from start to end using the given predecessor and distance vectors.">
<polygon fill="white" stroke="black" points="503,-88.5 503,-118.5 634,-118.5 634,-88.5 503,-88.5"/>
<text text-anchor="start" x="511" y="-106.5" font-family="Helvetica,sans-Serif" font-size="10.00">HF::Pathfinding::Construct</text>
<text text-anchor="middle" x="568.5" y="-95.5" font-family="Helvetica,sans-Serif" font-size="10.00">ShortestPathFromPred</text>
</a>
</g>
</g>
<!-- Node4&#45;&gt;Node7 -->
<g id="edge6" class="edge">
<title>Node4&#45;&gt;Node7</title>
<path fill="none" stroke="midnightblue" d="M458.06,-89.97C469.43,-91.38 481.26,-92.84 492.76,-94.26"/>
<polygon fill="midnightblue" stroke="midnightblue" points="492.42,-97.75 502.77,-95.5 493.28,-90.8 492.42,-97.75"/>
</g>
<!-- Node10 -->
<g id="node10" class="node">
<title>Node10</title>
<g id="a_node10"><a xlink:href="a02017.html#a28f61f0f57b38a5249a11a725d9d692b" target="_top" xlink:title="Determine how many nodes are in this path.">
<polygon fill="white" stroke="black" points="679,-39.5 679,-69.5 789,-69.5 789,-39.5 679,-39.5"/>
<text text-anchor="start" x="687" y="-57.5" font-family="Helvetica,sans-Serif" font-size="10.00">HF::SpatialStructures</text>
<text text-anchor="middle" x="734" y="-46.5" font-family="Helvetica,sans-Serif" font-size="10.00">::Path::size</text>
</a>
</g>
</g>
<!-- Node4&#45;&gt;Node10 -->
<g id="edge11" class="edge">
<title>Node4&#45;&gt;Node10</title>
<path fill="none" stroke="midnightblue" d="M458.19,-76.1C519.54,-71.28 608.74,-64.27 668.71,-59.55"/>
<polygon fill="midnightblue" stroke="midnightblue" points="669.12,-63.03 678.82,-58.76 668.57,-56.05 669.12,-63.03"/>
</g>
<!-- Node11 -->
<g id="node11" class="node">
<title>Node11</title>
<g id="a_node11"><a xlink:href="a02017.html#a942cb49007bbeb5588e2d526c68bdcf9" target="_top" xlink:title="Get a pointer to the path&#39;s underlying path members vector.">
<polygon fill="white" stroke="black" points="513.5,-0.5 513.5,-30.5 623.5,-30.5 623.5,-0.5 513.5,-0.5"/>
<text text-anchor="start" x="521.5" y="-18.5" font-family="Helvetica,sans-Serif" font-size="10.00">HF::SpatialStructures</text>
<text text-anchor="middle" x="568.5" y="-7.5" font-family="Helvetica,sans-Serif" font-size="10.00">::Path::GetPMPointer</text>
</a>
</g>
</g>
<!-- Node4&#45;&gt;Node11 -->
<g id="edge10" class="edge">
<title>Node4&#45;&gt;Node11</title>
<path fill="none" stroke="midnightblue" d="M430.34,-66.36C456.23,-56.76 489.9,-44.27 517.41,-34.07"/>
<polygon fill="midnightblue" stroke="midnightblue" points="518.69,-37.33 526.85,-30.57 516.26,-30.77 518.69,-37.33"/>
</g>
<!-- Node6 -->
<g id="node6" class="node">
<title>Node6</title>
<g id="a_node6"><a xlink:href="a00411.html#acc422c11342b31368f610b6f96fcedc6" target="_top" xlink:title=" ">
<polygon fill="white" stroke="black" points="680.5,-187 680.5,-206 787.5,-206 787.5,-187 680.5,-187"/>
<text text-anchor="middle" x="734" y="-194" font-family="Helvetica,sans-Serif" font-size="10.00">nlohmann::detail::get</text>
</a>
</g>
</g>
<!-- Node5&#45;&gt;Node6 -->
<g id="edge5" class="edge">
<title>Node5&#45;&gt;Node6</title>
<path fill="none" stroke="midnightblue" d="M643.12,-184.41C652.23,-185.63 661.48,-186.88 670.41,-188.08"/>
<polygon fill="midnightblue" stroke="midnightblue" points="669.95,-191.55 680.33,-189.41 670.88,-184.61 669.95,-191.55"/>
</g>
<!-- Node8 -->
<g id="node8" class="node">
<title>Node8</title>
<g id="a_node8"><a xlink:href="a02017.html#a55ded4e02787eb739770ebe28ef386a9" target="_top" xlink:title="Add a new node to the path.">
<polygon fill="white" stroke="black" points="679,-137.5 679,-167.5 789,-167.5 789,-137.5 679,-137.5"/>
<text text-anchor="start" x="687" y="-155.5" font-family="Helvetica,sans-Serif" font-size="10.00">HF::SpatialStructures</text>
<text text-anchor="middle" x="734" y="-144.5" font-family="Helvetica,sans-Serif" font-size="10.00">::Path::AddNode</text>
</a>
</g>
</g>
<!-- Node7&#45;&gt;Node8 -->
<g id="edge7" class="edge">
<title>Node7&#45;&gt;Node8</title>
<path fill="none" stroke="midnightblue" d="M619.89,-118.6C636.6,-123.61 655.36,-129.23 672.74,-134.44"/>
<polygon fill="midnightblue" stroke="midnightblue" points="672.19,-137.93 682.78,-137.45 674.2,-131.22 672.19,-137.93"/>
</g>
<!-- Node9 -->
<g id="node9" class="node">
<title>Node9</title>
<g id="a_node9"><a xlink:href="a02017.html#adf2bad9ac73dbdc436c365654d54ad98" target="_top" xlink:title="Reverse the direction of this path.">
<polygon fill="white" stroke="black" points="679,-88.5 679,-118.5 789,-118.5 789,-88.5 679,-88.5"/>
<text text-anchor="start" x="687" y="-106.5" font-family="Helvetica,sans-Serif" font-size="10.00">HF::SpatialStructures</text>
<text text-anchor="middle" x="734" y="-95.5" font-family="Helvetica,sans-Serif" font-size="10.00">::Path::Reverse</text>
</a>
</g>
</g>
<!-- Node7&#45;&gt;Node9 -->
<g id="edge8" class="edge">
<title>Node7&#45;&gt;Node9</title>
<path fill="none" stroke="midnightblue" d="M634.12,-103.5C645.46,-103.5 657.27,-103.5 668.61,-103.5"/>
<polygon fill="midnightblue" stroke="midnightblue" points="668.86,-107 678.86,-103.5 668.86,-100 668.86,-107"/>
</g>
<!-- Node7&#45;&gt;Node10 -->
<g id="edge9" class="edge">
<title>Node7&#45;&gt;Node10</title>
<path fill="none" stroke="midnightblue" d="M619.89,-88.4C636.6,-83.39 655.36,-77.77 672.74,-72.56"/>
<polygon fill="midnightblue" stroke="midnightblue" points="674.2,-75.78 682.78,-69.55 672.19,-69.07 674.2,-75.78"/>
</g>
</g>
</svg>
