<?xml version="1.0" encoding="UTF-8" standalone="no"?>
<!DOCTYPE svg PUBLIC "-//W3C//DTD SVG 1.1//EN"
 "http://www.w3.org/Graphics/SVG/1.1/DTD/svg11.dtd">
<!-- Generated by graphviz version 7.0.4 (20221203.1631)
 -->
<!-- Title: Cinterface/cinterface_utils.cpp Pages: 1 -->
<svg width="326pt" height="148pt"
 viewBox="0.00 0.00 325.50 148.00" xmlns="http://www.w3.org/2000/svg" xmlns:xlink="http://www.w3.org/1999/xlink">
<g id="graph0" class="graph" transform="scale(1 1) rotate(0) translate(4 144)">
<title>Cinterface/cinterface_utils.cpp</title>
<!-- Node1 -->
<g id="node1" class="node">
<title>Node1</title>
<g id="a_node1"><a xlink:title=" ">
<polygon fill="#999999" stroke="#666666" points="184.5,-140 79.5,-140 79.5,-110 184.5,-110 184.5,-140"/>
<text text-anchor="start" x="87.5" y="-128" font-family="Helvetica,sans-Serif" font-size="10.00">Cinterface/cinterface</text>
<text text-anchor="middle" x="132" y="-117" font-family="Helvetica,sans-Serif" font-size="10.00">_utils.cpp</text>
</a>
</g>
</g>
<!-- Node2 -->
<g id="node2" class="node">
<title>Node2</title>
<g id="a_node2"><a xlink:href="a00347.html" target="_top" xlink:title=" ">
<polygon fill="white" stroke="#666666" points="124,-74 34,-74 34,-55 124,-55 124,-74"/>
<text text-anchor="middle" x="79" y="-62" font-family="Helvetica,sans-Serif" font-size="10.00">cinterface_utils.h</text>
</a>
</g>
</g>
<!-- Node1&#45;&gt;Node2 -->
<g id="edge1" class="edge">
<title>Node1&#45;&gt;Node2</title>
<path fill="none" stroke="#63b8ff" d="M118.9,-109.54C111.52,-101.39 102.25,-91.16 94.5,-82.61"/>
<polygon fill="#63b8ff" stroke="#63b8ff" points="97.18,-80.36 87.88,-75.3 92,-85.06 97.18,-80.36"/>
</g>
<!-- Node5 -->
<g id="node5" class="node">
<title>Node5</title>
<g id="a_node5"><a xlink:href="a00110.html" target="_top" xlink:title="Contains definitions for the Exceptions namespace.">
<polygon fill="white" stroke="#666666" points="244,-74 158,-74 158,-55 244,-55 244,-74"/>
<text text-anchor="middle" x="201" y="-62" font-family="Helvetica,sans-Serif" font-size="10.00">HFExceptions.h</text>
</a>
</g>
</g>
<!-- Node1&#45;&gt;Node5 -->
<g id="edge4" class="edge">
<title>Node1&#45;&gt;Node5</title>
<path fill="none" stroke="#63b8ff" d="M149.06,-109.54C159.08,-101.04 171.76,-90.29 182.09,-81.53"/>
<polygon fill="#63b8ff" stroke="#63b8ff" points="184.25,-84.29 189.61,-75.15 179.72,-78.95 184.25,-84.29"/>
</g>
<!-- Node3 -->
<g id="node3" class="node">
<title>Node3</title>
<g id="a_node3"><a xlink:title=" ">
<polygon fill="#e0e0e0" stroke="#999999" points="42,-19 0,-19 0,0 42,0 42,-19"/>
<text text-anchor="middle" x="21" y="-7" font-family="Helvetica,sans-Serif" font-size="10.00">vector</text>
</a>
</g>
</g>
<!-- Node2&#45;&gt;Node3 -->
<g id="edge2" class="edge">
<title>Node2&#45;&gt;Node3</title>
<path fill="none" stroke="#63b8ff" d="M69.16,-54.51C60.95,-47 49.02,-36.1 39.09,-27.03"/>
<polygon fill="#63b8ff" stroke="#63b8ff" points="41.55,-24.54 31.81,-20.38 36.83,-29.71 41.55,-24.54"/>
</g>
<!-- Node4 -->
<g id="node4" class="node">
<title>Node4</title>
<g id="a_node4"><a xlink:title=" ">
<polygon fill="#e0e0e0" stroke="#999999" points="98,-19 60,-19 60,0 98,0 98,-19"/>
<text text-anchor="middle" x="79" y="-7" font-family="Helvetica,sans-Serif" font-size="10.00">array</text>
</a>
</g>
</g>
<!-- Node2&#45;&gt;Node4 -->
<g id="edge3" class="edge">
<title>Node2&#45;&gt;Node4</title>
<path fill="none" stroke="#63b8ff" d="M79,-54.75C79,-48.27 79,-39.16 79,-30.9"/>
<polygon fill="#63b8ff" stroke="#63b8ff" points="82.5,-30.96 79,-20.96 75.5,-30.96 82.5,-30.96"/>
</g>
<!-- Node6 -->
<g id="node6" class="node">
<title>Node6</title>
<g id="a_node6"><a xlink:title=" ">
<polygon fill="#e0e0e0" stroke="#999999" points="175.5,-19 116.5,-19 116.5,0 175.5,0 175.5,-19"/>
<text text-anchor="middle" x="146" y="-7" font-family="Helvetica,sans-Serif" font-size="10.00">exception</text>
</a>
</g>
</g>
<!-- Node5&#45;&gt;Node6 -->
<g id="edge5" class="edge">
<title>Node5&#45;&gt;Node6</title>
<path fill="none" stroke="#63b8ff" d="M191.92,-54.75C184.16,-47.27 172.79,-36.32 163.3,-27.17"/>
<polygon fill="#63b8ff" stroke="#63b8ff" points="166,-24.91 156.37,-20.49 161.14,-29.95 166,-24.91"/>
</g>
<!-- Node7 -->
<g id="node7" class="node">
<title>Node7</title>
<g id="a_node7"><a xlink:title=" ">
<polygon fill="#e0e0e0" stroke="#999999" points="240,-19 194,-19 194,0 240,0 240,-19"/>
<text text-anchor="middle" x="217" y="-7" font-family="Helvetica,sans-Serif" font-size="10.00">cstring</text>
</a>
</g>
</g>
<!-- Node5&#45;&gt;Node7 -->
<g id="edge6" class="edge">
<title>Node5&#45;&gt;Node7</title>
<path fill="none" stroke="#63b8ff" d="M203.64,-54.75C205.64,-48.11 208.48,-38.73 211.02,-30.31"/>
<polygon fill="#63b8ff" stroke="#63b8ff" points="214.32,-31.48 213.86,-20.89 207.62,-29.45 214.32,-31.48"/>
</g>
<!-- Node8 -->
<g id="node8" class="node">
<title>Node8</title>
<g id="a_node8"><a xlink:title=" ">
<polygon fill="#e0e0e0" stroke="#999999" points="317.5,-19 258.5,-19 258.5,0 317.5,0 317.5,-19"/>
<text text-anchor="middle" x="288" y="-7" font-family="Helvetica,sans-Serif" font-size="10.00">stdexcept</text>
</a>
</g>
</g>
<!-- Node5&#45;&gt;Node8 -->
<g id="edge7" class="edge">
<title>Node5&#45;&gt;Node8</title>
<path fill="none" stroke="#63b8ff" d="M215.76,-54.51C228.96,-46.47 248.56,-34.53 264.01,-25.11"/>
<polygon fill="#63b8ff" stroke="#63b8ff" points="265.45,-28.34 272.17,-20.15 261.81,-22.36 265.45,-28.34"/>
</g>
</g>
</svg>
