<?xml version="1.0" encoding="UTF-8" standalone="no"?>
<!DOCTYPE svg PUBLIC "-//W3C//DTD SVG 1.1//EN"
 "http://www.w3.org/Graphics/SVG/1.1/DTD/svg11.dtd">
<!-- Generated by graphviz version 7.0.4 (20221203.1631)
 -->
<!-- Title: CreateAllToAllPaths Pages: 1 -->
<svg width="797pt" height="174pt"
 viewBox="0.00 0.00 797.00 174.00" xmlns="http://www.w3.org/2000/svg" xmlns:xlink="http://www.w3.org/1999/xlink">
<g id="graph0" class="graph" transform="scale(1 1) rotate(0) translate(4 170)">
<title>CreateAllToAllPaths</title>
<!-- Node1 -->
<g id="node1" class="node">
<title>Node1</title>
<g id="a_node1"><a xlink:title="Find a path from every node in a graph to every other node.">
<polygon fill="#999999" stroke="#666666" points="104,-112.5 0,-112.5 0,-93.5 104,-93.5 104,-112.5"/>
<text text-anchor="middle" x="52" y="-100.5" font-family="Helvetica,sans-Serif" font-size="10.00">CreateAllToAllPaths</text>
</a>
</g>
</g>
<!-- Node2 -->
<g id="node2" class="node">
<title>Node2</title>
<g id="a_node2"><a xlink:href="a00406.html#ae2106e09eb44d681fbc6c0f66a3d3ac4" target="_top" xlink:title="Create a new boost graph from a HF::SpatialStructures:Graph.">
<polygon fill="white" stroke="#666666" points="283,-142 140,-142 140,-112 283,-112 283,-142"/>
<text text-anchor="start" x="148" y="-130" font-family="Helvetica,sans-Serif" font-size="10.00">HF::Pathfinding::CreateBoost</text>
<text text-anchor="middle" x="211.5" y="-119" font-family="Helvetica,sans-Serif" font-size="10.00">Graph</text>
</a>
</g>
</g>
<!-- Node1&#45;&gt;Node2 -->
<g id="edge1" class="edge">
<title>Node1&#45;&gt;Node2</title>
<path fill="none" stroke="#63b8ff" d="M104.14,-110.79C111.92,-111.98 120.11,-113.23 128.35,-114.48"/>
<polygon fill="#63b8ff" stroke="#63b8ff" points="127.68,-117.92 138.09,-115.97 128.73,-111 127.68,-117.92"/>
</g>
<!-- Node3 -->
<g id="node3" class="node">
<title>Node3</title>
<g id="a_node3"><a xlink:href="a00406.html#a69bd3efcc13788e7c4be43b67d6002e5" target="_top" xlink:title="A special version of FindPaths optimized for the C_Interface, such that all paths possible from each ...">
<polygon fill="white" stroke="#666666" points="274,-94 149,-94 149,-64 274,-64 274,-94"/>
<text text-anchor="start" x="157" y="-82" font-family="Helvetica,sans-Serif" font-size="10.00">HF::Pathfinding::InsertAll</text>
<text text-anchor="middle" x="211.5" y="-71" font-family="Helvetica,sans-Serif" font-size="10.00">ToAllPathsIntoArray</text>
</a>
</g>
</g>
<!-- Node1&#45;&gt;Node3 -->
<g id="edge2" class="edge">
<title>Node1&#45;&gt;Node3</title>
<path fill="none" stroke="#63b8ff" d="M104.14,-95.21C114.78,-93.59 126.19,-91.85 137.45,-90.13"/>
<polygon fill="#63b8ff" stroke="#63b8ff" points="137.77,-93.62 147.13,-88.66 136.72,-86.7 137.77,-93.62"/>
</g>
<!-- Node4 -->
<g id="node4" class="node">
<title>Node4</title>
<g id="a_node4"><a xlink:href="a00406.html#a417084c97d0672af2da7739157a9d8c0" target="_top" xlink:title="A special version of FindPaths optimized for the C_Interface.">
<polygon fill="white" stroke="#666666" points="458,-94 319,-94 319,-64 458,-64 458,-94"/>
<text text-anchor="start" x="327" y="-82" font-family="Helvetica,sans-Serif" font-size="10.00">HF::Pathfinding::InsertPaths</text>
<text text-anchor="middle" x="388.5" y="-71" font-family="Helvetica,sans-Serif" font-size="10.00">IntoArray</text>
</a>
</g>
</g>
<!-- Node3&#45;&gt;Node4 -->
<g id="edge3" class="edge">
<title>Node3&#45;&gt;Node4</title>
<path fill="none" stroke="#63b8ff" d="M274.2,-79C284.86,-79 296.09,-79 307.16,-79"/>
<polygon fill="#63b8ff" stroke="#63b8ff" points="307.09,-82.5 317.09,-79 307.09,-75.5 307.09,-82.5"/>
</g>
<!-- Node5 -->
<g id="node5" class="node">
<title>Node5</title>
<g id="a_node5"><a xlink:href="a00406.html#a9f6490539108da057db2486295458886" target="_top" xlink:title="Build a row of the distance and predecessor matrices for the node at id.">
<polygon fill="white" stroke="#666666" points="643,-164 494,-164 494,-134 643,-134 643,-164"/>
<text text-anchor="start" x="502" y="-152" font-family="Helvetica,sans-Serif" font-size="10.00">HF::Pathfinding::BuildDistance</text>
<text text-anchor="middle" x="568.5" y="-141" font-family="Helvetica,sans-Serif" font-size="10.00">AndPredecessor</text>
</a>
</g>
</g>
<!-- Node4&#45;&gt;Node5 -->
<g id="edge4" class="edge">
<title>Node4&#45;&gt;Node5</title>
<path fill="none" stroke="#63b8ff" d="M422.1,-94.35C442.54,-103.72 469.56,-115.66 494,-125 498.3,-126.64 502.77,-128.28 507.29,-129.88"/>
<polygon fill="#63b8ff" stroke="#63b8ff" points="505.82,-133.07 516.41,-133.03 508.11,-126.46 505.82,-133.07"/>
</g>
<!-- Node6 -->
<g id="node6" class="node">
<title>Node6</title>
<g id="a_node6"><a xlink:href="a00406.html#a977e4c93a977ab4e9e784d1e6fec79f4" target="_top" xlink:title="Construct the shortest path from start to end using the given predecessor and distance vectors.">
<polygon fill="white" stroke="#666666" points="634,-116 503,-116 503,-86 634,-86 634,-116"/>
<text text-anchor="start" x="511" y="-104" font-family="Helvetica,sans-Serif" font-size="10.00">HF::Pathfinding::Construct</text>
<text text-anchor="middle" x="568.5" y="-93" font-family="Helvetica,sans-Serif" font-size="10.00">ShortestPathFromPred</text>
</a>
</g>
</g>
<!-- Node4&#45;&gt;Node6 -->
<g id="edge5" class="edge">
<title>Node4&#45;&gt;Node6</title>
<path fill="none" stroke="#63b8ff" d="M458.32,-87.51C469.14,-88.84 480.38,-90.23 491.35,-91.59"/>
<polygon fill="#63b8ff" stroke="#63b8ff" points="490.8,-95.05 501.16,-92.8 491.66,-88.1 490.8,-95.05"/>
</g>
<!-- Node9 -->
<g id="node9" class="node">
<title>Node9</title>
<g id="a_node9"><a xlink:href="a02017.html#a28f61f0f57b38a5249a11a725d9d692b" target="_top" xlink:title="Determine how many nodes are in this path.">
<polygon fill="white" stroke="#666666" points="789,-70 679,-70 679,-40 789,-40 789,-70"/>
<text text-anchor="start" x="687" y="-58" font-family="Helvetica,sans-Serif" font-size="10.00">HF::SpatialStructures</text>
<text text-anchor="middle" x="734" y="-47" font-family="Helvetica,sans-Serif" font-size="10.00">::Path::size</text>
</a>
</g>
</g>
<!-- Node4&#45;&gt;Node9 -->
<g id="edge10" class="edge">
<title>Node4&#45;&gt;Node9</title>
<path fill="none" stroke="#63b8ff" d="M458.19,-74.2C519.07,-69.95 607.37,-63.78 667.32,-59.59"/>
<polygon fill="#63b8ff" stroke="#63b8ff" points="667.3,-63.1 677.04,-58.91 666.82,-56.12 667.3,-63.1"/>
</g>
<!-- Node10 -->
<g id="node10" class="node">
<title>Node10</title>
<g id="a_node10"><a xlink:href="a02017.html#a942cb49007bbeb5588e2d526c68bdcf9" target="_top" xlink:title="Get a pointer to the path&#39;s underlying path members vector.">
<polygon fill="white" stroke="#666666" points="623.5,-30 513.5,-30 513.5,0 623.5,0 623.5,-30"/>
<text text-anchor="start" x="521.5" y="-18" font-family="Helvetica,sans-Serif" font-size="10.00">HF::SpatialStructures</text>
<text text-anchor="middle" x="568.5" y="-7" font-family="Helvetica,sans-Serif" font-size="10.00">::Path::GetPMPointer</text>
</a>
</g>
</g>
<!-- Node4&#45;&gt;Node10 -->
<g id="edge9" class="edge">
<title>Node4&#45;&gt;Node10</title>
<path fill="none" stroke="#63b8ff" d="M432.59,-63.51C456.99,-54.74 487.72,-43.68 513.69,-34.35"/>
<polygon fill="#63b8ff" stroke="#63b8ff" points="514.85,-37.65 523.08,-30.97 512.48,-31.06 514.85,-37.65"/>
</g>
<!-- Node7 -->
<g id="node7" class="node">
<title>Node7</title>
<g id="a_node7"><a xlink:href="a02017.html#a55ded4e02787eb739770ebe28ef386a9" target="_top" xlink:title="Add a new node to the path.">
<polygon fill="white" stroke="#666666" points="789,-166 679,-166 679,-136 789,-136 789,-166"/>
<text text-anchor="start" x="687" y="-154" font-family="Helvetica,sans-Serif" font-size="10.00">HF::SpatialStructures</text>
<text text-anchor="middle" x="734" y="-143" font-family="Helvetica,sans-Serif" font-size="10.00">::Path::AddNode</text>
</a>
</g>
</g>
<!-- Node6&#45;&gt;Node7 -->
<g id="edge6" class="edge">
<title>Node6&#45;&gt;Node7</title>
<path fill="none" stroke="#63b8ff" d="M619.89,-116.41C636.21,-121.4 654.49,-126.99 671.52,-132.2"/>
<polygon fill="#63b8ff" stroke="#63b8ff" points="670.46,-135.54 681.05,-135.11 672.51,-128.84 670.46,-135.54"/>
</g>
<!-- Node8 -->
<g id="node8" class="node">
<title>Node8</title>
<g id="a_node8"><a xlink:href="a02017.html#adf2bad9ac73dbdc436c365654d54ad98" target="_top" xlink:title="Reverse the direction of this path.">
<polygon fill="white" stroke="#666666" points="789,-118 679,-118 679,-88 789,-88 789,-118"/>
<text text-anchor="start" x="687" y="-106" font-family="Helvetica,sans-Serif" font-size="10.00">HF::SpatialStructures</text>
<text text-anchor="middle" x="734" y="-95" font-family="Helvetica,sans-Serif" font-size="10.00">::Path::Reverse</text>
</a>
</g>
</g>
<!-- Node6&#45;&gt;Node8 -->
<g id="edge7" class="edge">
<title>Node6&#45;&gt;Node8</title>
<path fill="none" stroke="#63b8ff" d="M634.12,-101.79C645.05,-101.92 656.41,-102.06 667.37,-102.2"/>
<polygon fill="#63b8ff" stroke="#63b8ff" points="667.05,-105.69 677.09,-102.32 667.13,-98.69 667.05,-105.69"/>
</g>
<!-- Node6&#45;&gt;Node9 -->
<g id="edge8" class="edge">
<title>Node6&#45;&gt;Node9</title>
<path fill="none" stroke="#63b8ff" d="M624.4,-85.55C638.3,-81.64 653.36,-77.41 667.72,-73.37"/>
<polygon fill="#63b8ff" stroke="#63b8ff" points="668.39,-76.81 677.07,-70.74 666.49,-70.08 668.39,-76.81"/>
</g>
</g>
</svg>
