<?xml version="1.0" encoding="UTF-8" standalone="no"?>
<!DOCTYPE svg PUBLIC "-//W3C//DTD SVG 1.1//EN"
 "http://www.w3.org/Graphics/SVG/1.1/DTD/svg11.dtd">
<!-- Generated by graphviz version 2.43.0 (0)
 -->
<!-- Title: HF::TEST Pages: 1 -->
<svg width="1493pt" height="680pt"
 viewBox="0.00 0.00 1493.00 680.00" xmlns="http://www.w3.org/2000/svg" xmlns:xlink="http://www.w3.org/1999/xlink">
<g id="graph0" class="graph" transform="scale(1 1) rotate(0) translate(4 676)">
<title>HF::TEST</title>
<polygon fill="white" stroke="transparent" points="-4,4 -4,-676 1489,-676 1489,4 -4,4"/>
<!-- Node1 -->
<g id="node1" class="node">
<title>Node1</title>
<g id="a_node1"><a xlink:title=" ">
<polygon fill="#bfbfbf" stroke="black" points="0,-310 0,-329 59,-329 59,-310 0,-310"/>
<text text-anchor="middle" x="29.5" y="-317" font-family="Helvetica,sans-Serif" font-size="10.00">HF::TEST</text>
</a>
</g>
</g>
<!-- Node2 -->
<g id="node2" class="node">
<title>Node2</title>
<g id="a_node2"><a xlink:href="a01257.html#ab82cd6b330063776a89a3c65f76d4c0a" target="_top" xlink:title="Generate a graph of accessible space.">
<polygon fill="white" stroke="black" points="96.5,-468.5 96.5,-498.5 269.5,-498.5 269.5,-468.5 96.5,-468.5"/>
<text text-anchor="start" x="104.5" y="-486.5" font-family="Helvetica,sans-Serif" font-size="10.00">HF::GraphGenerator</text>
<text text-anchor="middle" x="183" y="-475.5" font-family="Helvetica,sans-Serif" font-size="10.00">::GraphGenerator::BuildNetwork</text>
</a>
</g>
</g>
<!-- Node1&#45;&gt;Node2 -->
<g id="edge1" class="edge">
<title>Node1&#45;&gt;Node2</title>
<path fill="none" stroke="midnightblue" d="M39.52,-329.27C63.15,-354.85 127.33,-424.32 160.9,-460.66"/>
<polygon fill="midnightblue" stroke="midnightblue" points="158.6,-463.33 167.96,-468.3 163.74,-458.58 158.6,-463.33"/>
</g>
<!-- Node34 -->
<g id="node34" class="node">
<title>Node34</title>
<g id="a_node34"><a xlink:href="a00396.html#a8428323b382fd801560d0b54d9b8e4ce" target="_top" xlink:title=" ">
<polygon fill="white" stroke="black" points="104,-332 104,-351 262,-351 262,-332 104,-332"/>
<text text-anchor="middle" x="183" y="-339" font-family="Helvetica,sans-Serif" font-size="10.00">HF::CheckForDuplicatesNano</text>
</a>
</g>
</g>
<!-- Node1&#45;&gt;Node34 -->
<g id="edge48" class="edge">
<title>Node1&#45;&gt;Node34</title>
<path fill="none" stroke="midnightblue" d="M59.35,-323.69C72.79,-325.64 89.47,-328.06 106.16,-330.49"/>
<polygon fill="midnightblue" stroke="midnightblue" points="106.13,-334.02 116.52,-331.99 107.13,-327.09 106.13,-334.02"/>
</g>
<!-- Node37 -->
<g id="node37" class="node">
<title>Node37</title>
<g id="a_node37"><a xlink:href="a01497.html#a41cece77d0eee98df39ecc6d3a366ec8" target="_top" xlink:title="Compress the graph to a CSR and enable the usage of several functions.">
<polygon fill="white" stroke="black" points="123.5,-282.5 123.5,-312.5 242.5,-312.5 242.5,-282.5 123.5,-282.5"/>
<text text-anchor="start" x="131.5" y="-300.5" font-family="Helvetica,sans-Serif" font-size="10.00">HF::SpatialStructures</text>
<text text-anchor="middle" x="183" y="-289.5" font-family="Helvetica,sans-Serif" font-size="10.00">::Graph::Compress</text>
</a>
</g>
</g>
<!-- Node1&#45;&gt;Node37 -->
<g id="edge51" class="edge">
<title>Node1&#45;&gt;Node37</title>
<path fill="none" stroke="midnightblue" d="M59.35,-315.31C74.71,-313.08 94.3,-310.24 113.3,-307.48"/>
<polygon fill="midnightblue" stroke="midnightblue" points="114.06,-310.9 123.46,-306 113.06,-303.97 114.06,-310.9"/>
</g>
<!-- Node38 -->
<g id="node38" class="node">
<title>Node38</title>
<g id="a_node38"><a xlink:href="a00403.html#a06c0c11adb62f8b204e42f75ac1990ac" target="_top" xlink:title="Create MeshInfo instances from the OBJ at path.">
<polygon fill="white" stroke="black" points="95,-243 95,-262 271,-262 271,-243 95,-243"/>
<text text-anchor="middle" x="183" y="-250" font-family="Helvetica,sans-Serif" font-size="10.00">HF::Geometry::LoadMeshObjects</text>
</a>
</g>
</g>
<!-- Node1&#45;&gt;Node38 -->
<g id="edge52" class="edge">
<title>Node1&#45;&gt;Node38</title>
<path fill="none" stroke="midnightblue" d="M41.05,-309.7C53.17,-298.97 74.07,-282.04 95,-272.5 101.5,-269.54 108.47,-266.99 115.54,-264.81"/>
<polygon fill="midnightblue" stroke="midnightblue" points="116.55,-268.17 125.21,-262.06 114.63,-261.43 116.55,-268.17"/>
</g>
<!-- Node3 -->
<g id="node3" class="node">
<title>Node3</title>
<g id="a_node3"><a xlink:href="a00397.html#a73b53db067a504d36e9481dfe3326b60" target="_top" xlink:title="Cast an input value to real_t using static cast.">
<polygon fill="white" stroke="black" points="867.5,-641.5 867.5,-671.5 980.5,-671.5 980.5,-641.5 867.5,-641.5"/>
<text text-anchor="start" x="875.5" y="-659.5" font-family="Helvetica,sans-Serif" font-size="10.00">HF::GraphGenerator</text>
<text text-anchor="middle" x="924" y="-648.5" font-family="Helvetica,sans-Serif" font-size="10.00">::CastToReal</text>
</a>
</g>
</g>
<!-- Node2&#45;&gt;Node3 -->
<g id="edge2" class="edge">
<title>Node2&#45;&gt;Node3</title>
<path fill="none" stroke="midnightblue" d="M209.72,-498.68C234.16,-512.67 272.22,-533.33 307,-547.5 466.12,-612.32 507.04,-634.34 677,-659.5 737.68,-668.48 807.69,-666.44 857.47,-662.92"/>
<polygon fill="midnightblue" stroke="midnightblue" points="857.75,-666.41 867.46,-662.18 857.23,-659.43 857.75,-666.41"/>
</g>
<!-- Node4 -->
<g id="node4" class="node">
<title>Node4</title>
<g id="a_node4"><a xlink:href="a00397.html#a58892abe1152c28d26d3ca749c99ea4d" target="_top" xlink:title="Cast an array of 3 values to the graph_generator&#39;s real_3 type.">
<polygon fill="white" stroke="black" points="696.5,-619.5 696.5,-649.5 809.5,-649.5 809.5,-619.5 696.5,-619.5"/>
<text text-anchor="start" x="704.5" y="-637.5" font-family="Helvetica,sans-Serif" font-size="10.00">HF::GraphGenerator</text>
<text text-anchor="middle" x="753" y="-626.5" font-family="Helvetica,sans-Serif" font-size="10.00">::CastToReal3</text>
</a>
</g>
</g>
<!-- Node2&#45;&gt;Node4 -->
<g id="edge3" class="edge">
<title>Node2&#45;&gt;Node4</title>
<path fill="none" stroke="midnightblue" d="M240.54,-498.53C346.36,-526.66 573.77,-587.12 686.25,-617.02"/>
<polygon fill="midnightblue" stroke="midnightblue" points="685.55,-620.46 696.11,-619.64 687.34,-613.69 685.55,-620.46"/>
</g>
<!-- Node5 -->
<g id="node5" class="node">
<title>Node5</title>
<g id="a_node5"><a xlink:href="a01257.html#a2616d5577f2b87dae8bdb9caab75e52f" target="_top" xlink:title="Generate a graph of accessible space.">
<polygon fill="white" stroke="black" points="309,-378 309,-419 439,-419 439,-378 309,-378"/>
<text text-anchor="start" x="317" y="-407" font-family="Helvetica,sans-Serif" font-size="10.00">HF::GraphGenerator</text>
<text text-anchor="start" x="317" y="-396" font-family="Helvetica,sans-Serif" font-size="10.00">::GraphGenerator::IMPL</text>
<text text-anchor="middle" x="374" y="-385" font-family="Helvetica,sans-Serif" font-size="10.00">_BuildNetwork</text>
</a>
</g>
</g>
<!-- Node2&#45;&gt;Node5 -->
<g id="edge5" class="edge">
<title>Node2&#45;&gt;Node5</title>
<path fill="none" stroke="midnightblue" d="M217.35,-468.5C245.13,-456.01 285.26,-437.96 317.82,-423.32"/>
<polygon fill="midnightblue" stroke="midnightblue" points="319.53,-426.38 327.22,-419.09 316.66,-420 319.53,-426.38"/>
</g>
<!-- Node4&#45;&gt;Node3 -->
<g id="edge4" class="edge">
<title>Node4&#45;&gt;Node3</title>
<path fill="none" stroke="midnightblue" d="M809.81,-641.76C824.95,-643.74 841.49,-645.89 857.13,-647.92"/>
<polygon fill="midnightblue" stroke="midnightblue" points="856.89,-651.42 867.25,-649.24 857.79,-644.48 856.89,-651.42"/>
</g>
<!-- Node6 -->
<g id="node6" class="node">
<title>Node6</title>
<g id="a_node6"><a xlink:href="a01257.html#ac7052d4b625fb96f29c5bfc091a86f7e" target="_top" xlink:title="Perform breadth first search to populate the graph with with nodes and edges.">
<polygon fill="white" stroke="black" points="477,-334.5 477,-364.5 641,-364.5 641,-334.5 477,-334.5"/>
<text text-anchor="start" x="485" y="-352.5" font-family="Helvetica,sans-Serif" font-size="10.00">HF::GraphGenerator</text>
<text text-anchor="middle" x="559" y="-341.5" font-family="Helvetica,sans-Serif" font-size="10.00">::GraphGenerator::CrawlGeom</text>
</a>
</g>
</g>
<!-- Node5&#45;&gt;Node6 -->
<g id="edge6" class="edge">
<title>Node5&#45;&gt;Node6</title>
<path fill="none" stroke="midnightblue" d="M439,-381.36C456.15,-376.77 474.72,-371.8 491.97,-367.18"/>
<polygon fill="midnightblue" stroke="midnightblue" points="493.2,-370.47 501.96,-364.51 491.39,-363.71 493.2,-370.47"/>
</g>
<!-- Node28 -->
<g id="node28" class="node">
<title>Node28</title>
<g id="a_node28"><a xlink:href="a01261.html#a35a8d70ffef5833ae214feaa89aaf220" target="_top" xlink:title="Call push with any type of object.">
<polygon fill="white" stroke="black" points="684.5,-159.5 684.5,-189.5 821.5,-189.5 821.5,-159.5 684.5,-159.5"/>
<text text-anchor="start" x="692.5" y="-177.5" font-family="Helvetica,sans-Serif" font-size="10.00">HF::GraphGenerator</text>
<text text-anchor="middle" x="753" y="-166.5" font-family="Helvetica,sans-Serif" font-size="10.00">::UniqueQueue::PushAny</text>
</a>
</g>
</g>
<!-- Node5&#45;&gt;Node28 -->
<g id="edge44" class="edge">
<title>Node5&#45;&gt;Node28</title>
<path fill="none" stroke="midnightblue" d="M426.41,-377.94C431.53,-375.08 436.49,-371.93 441,-368.5 460.84,-353.41 458.26,-341.93 477,-325.5 556.18,-256.09 581.63,-243.13 677,-198.5 681.01,-196.62 685.2,-194.84 689.47,-193.15"/>
<polygon fill="midnightblue" stroke="midnightblue" points="690.76,-196.41 698.89,-189.61 688.3,-189.85 690.76,-196.41"/>
</g>
<!-- Node30 -->
<g id="node30" class="node">
<title>Node30</title>
<g id="a_node30"><a xlink:href="a01257.html#a843cc6b5b69b5d013930b3685789fa15" target="_top" xlink:title="Perform breadth first search to populate the graph with nodes and edges using multiple cores.">
<polygon fill="white" stroke="black" points="477,-433 477,-474 641,-474 641,-433 477,-433"/>
<text text-anchor="start" x="485" y="-462" font-family="Helvetica,sans-Serif" font-size="10.00">HF::GraphGenerator</text>
<text text-anchor="start" x="485" y="-451" font-family="Helvetica,sans-Serif" font-size="10.00">::GraphGenerator::CrawlGeom</text>
<text text-anchor="middle" x="559" y="-440" font-family="Helvetica,sans-Serif" font-size="10.00">Parallel</text>
</a>
</g>
</g>
<!-- Node5&#45;&gt;Node30 -->
<g id="edge32" class="edge">
<title>Node5&#45;&gt;Node30</title>
<path fill="none" stroke="midnightblue" d="M439,-417.74C452.19,-421.7 466.22,-425.92 479.84,-430.01"/>
<polygon fill="midnightblue" stroke="midnightblue" points="479.09,-433.44 489.67,-432.97 481.11,-426.73 479.09,-433.44"/>
</g>
<!-- Node32 -->
<g id="node32" class="node">
<title>Node32</title>
<g id="a_node32"><a xlink:href="a00397.html#af8cc1a7a794699308cf5c46d3ae59491" target="_top" xlink:title="Sets the core count of OpenMP.">
<polygon fill="white" stroke="black" points="502.5,-383.5 502.5,-413.5 615.5,-413.5 615.5,-383.5 502.5,-383.5"/>
<text text-anchor="start" x="510.5" y="-401.5" font-family="Helvetica,sans-Serif" font-size="10.00">HF::GraphGenerator</text>
<text text-anchor="middle" x="559" y="-390.5" font-family="Helvetica,sans-Serif" font-size="10.00">::SetupCoreCount</text>
</a>
</g>
</g>
<!-- Node5&#45;&gt;Node32 -->
<g id="edge45" class="edge">
<title>Node5&#45;&gt;Node32</title>
<path fill="none" stroke="midnightblue" d="M439,-398.5C456.24,-398.5 474.9,-398.5 492.23,-398.5"/>
<polygon fill="midnightblue" stroke="midnightblue" points="492.26,-402 502.26,-398.5 492.26,-395 492.26,-402"/>
</g>
<!-- Node33 -->
<g id="node33" class="node">
<title>Node33</title>
<g id="a_node33"><a xlink:href="a00397.html#a9ddffecb75b34434d7157b49d3c67b60" target="_top" xlink:title="Determine if the start point of the graph is over valid ground.">
<polygon fill="white" stroke="black" points="502.5,-158.5 502.5,-188.5 615.5,-188.5 615.5,-158.5 502.5,-158.5"/>
<text text-anchor="start" x="510.5" y="-176.5" font-family="Helvetica,sans-Serif" font-size="10.00">HF::GraphGenerator</text>
<text text-anchor="middle" x="559" y="-165.5" font-family="Helvetica,sans-Serif" font-size="10.00">::ValidateStartPoint</text>
</a>
</g>
</g>
<!-- Node5&#45;&gt;Node33 -->
<g id="edge46" class="edge">
<title>Node5&#45;&gt;Node33</title>
<path fill="none" stroke="midnightblue" d="M431.02,-377.82C434.71,-375.07 438.1,-371.98 441,-368.5 482.99,-318.18 438.74,-278.71 477,-225.5 486.44,-212.37 500.33,-201.73 513.94,-193.58"/>
<polygon fill="midnightblue" stroke="midnightblue" points="515.81,-196.55 522.8,-188.58 512.37,-190.45 515.81,-196.55"/>
</g>
<!-- Node6&#45;&gt;Node4 -->
<g id="edge8" class="edge">
<title>Node6&#45;&gt;Node4</title>
<path fill="none" stroke="midnightblue" d="M629.23,-364.61C633.58,-367.38 637.58,-370.65 641,-374.5 700.1,-441.06 632.28,-494.55 677,-571.5 686.79,-588.34 702.83,-602.72 717.57,-613.47"/>
<polygon fill="midnightblue" stroke="midnightblue" points="715.83,-616.53 726.04,-619.37 719.83,-610.79 715.83,-616.53"/>
</g>
<!-- Node7 -->
<g id="node7" class="node">
<title>Node7</title>
<g id="a_node7"><a xlink:href="a01497.html#a37be5c12e488072dea7fa1c8c64346f7" target="_top" xlink:title="Add a new edge to the graph from parent to child.">
<polygon fill="white" stroke="black" points="693.5,-345.5 693.5,-375.5 812.5,-375.5 812.5,-345.5 693.5,-345.5"/>
<text text-anchor="start" x="701.5" y="-363.5" font-family="Helvetica,sans-Serif" font-size="10.00">HF::SpatialStructures</text>
<text text-anchor="middle" x="753" y="-352.5" font-family="Helvetica,sans-Serif" font-size="10.00">::Graph::addEdge</text>
</a>
</g>
</g>
<!-- Node6&#45;&gt;Node7 -->
<g id="edge7" class="edge">
<title>Node6&#45;&gt;Node7</title>
<path fill="none" stroke="midnightblue" d="M641.15,-354.15C655.09,-354.95 669.47,-355.77 683.06,-356.55"/>
<polygon fill="midnightblue" stroke="midnightblue" points="683.09,-360.06 693.27,-357.14 683.49,-353.07 683.09,-360.06"/>
</g>
<!-- Node8 -->
<g id="node8" class="node">
<title>Node8</title>
<g id="a_node8"><a xlink:href="a00397.html#aefd344ebb2faadc64a56a16dc8582026" target="_top" xlink:title="Create a set of directions based on max_step_connections.">
<polygon fill="white" stroke="black" points="696.5,-296.5 696.5,-326.5 809.5,-326.5 809.5,-296.5 696.5,-296.5"/>
<text text-anchor="start" x="704.5" y="-314.5" font-family="Helvetica,sans-Serif" font-size="10.00">HF::GraphGenerator</text>
<text text-anchor="middle" x="753" y="-303.5" font-family="Helvetica,sans-Serif" font-size="10.00">::CreateDirecs</text>
</a>
</g>
</g>
<!-- Node6&#45;&gt;Node8 -->
<g id="edge9" class="edge">
<title>Node6&#45;&gt;Node8</title>
<path fill="none" stroke="midnightblue" d="M635.88,-334.48C652.55,-331.18 670.06,-327.72 686.29,-324.51"/>
<polygon fill="midnightblue" stroke="midnightblue" points="687.08,-327.92 696.21,-322.54 685.72,-321.05 687.08,-327.92"/>
</g>
<!-- Node10 -->
<g id="node10" class="node">
<title>Node10</title>
<g id="a_node10"><a xlink:href="a01261.html#ab659349de3391b0e2327f3736135752f" target="_top" xlink:title="Tell if the queue is empty.">
<polygon fill="white" stroke="black" points="690,-531.5 690,-561.5 816,-561.5 816,-531.5 690,-531.5"/>
<text text-anchor="start" x="698" y="-549.5" font-family="Helvetica,sans-Serif" font-size="10.00">HF::GraphGenerator</text>
<text text-anchor="middle" x="753" y="-538.5" font-family="Helvetica,sans-Serif" font-size="10.00">::UniqueQueue::empty</text>
</a>
</g>
</g>
<!-- Node6&#45;&gt;Node10 -->
<g id="edge11" class="edge">
<title>Node6&#45;&gt;Node10</title>
<path fill="none" stroke="midnightblue" d="M628.6,-364.61C633.16,-367.37 637.37,-370.64 641,-374.5 687.39,-423.8 630.86,-472.96 677,-522.5 678.4,-524 679.89,-525.41 681.46,-526.73"/>
<polygon fill="midnightblue" stroke="midnightblue" points="679.68,-529.76 689.88,-532.62 683.69,-524.02 679.68,-529.76"/>
</g>
<!-- Node12 -->
<g id="node12" class="node">
<title>Node12</title>
<g id="a_node12"><a xlink:href="a00397.html#a41e03f9bab54e4e0d1314c6a4bdf2ec1" target="_top" xlink:title="Populare out_children with a potential child position for every direction in directions.">
<polygon fill="white" stroke="black" points="677,-394.5 677,-424.5 829,-424.5 829,-394.5 677,-394.5"/>
<text text-anchor="start" x="685" y="-412.5" font-family="Helvetica,sans-Serif" font-size="10.00">HF::GraphGenerator</text>
<text text-anchor="middle" x="753" y="-401.5" font-family="Helvetica,sans-Serif" font-size="10.00">::GeneratePotentialChildren</text>
</a>
</g>
</g>
<!-- Node6&#45;&gt;Node12 -->
<g id="edge13" class="edge">
<title>Node6&#45;&gt;Node12</title>
<path fill="none" stroke="midnightblue" d="M608.84,-364.52C619.45,-367.8 630.6,-371.26 641,-374.5 658.41,-379.93 677.35,-385.89 694.57,-391.32"/>
<polygon fill="midnightblue" stroke="midnightblue" points="693.9,-394.78 704.49,-394.45 696,-388.1 693.9,-394.78"/>
</g>
<!-- Node13 -->
<g id="node13" class="node">
<title>Node13</title>
<g id="a_node13"><a xlink:href="a00397.html#ab7ffcc7d6657ce276c06deed24c546a4" target="_top" xlink:title="Calculate all possible edges between parent and possible_children.">
<polygon fill="white" stroke="black" points="696.5,-208.5 696.5,-238.5 809.5,-238.5 809.5,-208.5 696.5,-208.5"/>
<text text-anchor="start" x="704.5" y="-226.5" font-family="Helvetica,sans-Serif" font-size="10.00">HF::GraphGenerator</text>
<text text-anchor="middle" x="753" y="-215.5" font-family="Helvetica,sans-Serif" font-size="10.00">::GetChildren</text>
</a>
</g>
</g>
<!-- Node6&#45;&gt;Node13 -->
<g id="edge14" class="edge">
<title>Node6&#45;&gt;Node13</title>
<path fill="none" stroke="midnightblue" d="M575.11,-334.48C596.36,-314 636.96,-277.16 677,-253.5 683.71,-249.54 691.03,-245.88 698.4,-242.59"/>
<polygon fill="midnightblue" stroke="midnightblue" points="699.88,-245.76 707.7,-238.61 697.13,-239.32 699.88,-245.76"/>
</g>
<!-- Node27 -->
<g id="node27" class="node">
<title>Node27</title>
<g id="a_node27"><a xlink:href="a01261.html#a4aab642bf2c86a04f6890711ab7f2437" target="_top" xlink:title="Remove the topmost node from the queue and return it.">
<polygon fill="white" stroke="black" points="867.5,-441.5 867.5,-471.5 980.5,-471.5 980.5,-441.5 867.5,-441.5"/>
<text text-anchor="start" x="875.5" y="-459.5" font-family="Helvetica,sans-Serif" font-size="10.00">HF::GraphGenerator</text>
<text text-anchor="middle" x="924" y="-448.5" font-family="Helvetica,sans-Serif" font-size="10.00">::UniqueQueue::pop</text>
</a>
</g>
</g>
<!-- Node6&#45;&gt;Node27 -->
<g id="edge29" class="edge">
<title>Node6&#45;&gt;Node27</title>
<path fill="none" stroke="midnightblue" d="M581.01,-334.46C629.34,-301.87 750.28,-231.98 829,-287.5 867.95,-314.96 841.14,-347.25 865,-388.5 874.58,-405.07 888.4,-421.47 900.15,-434.01"/>
<polygon fill="midnightblue" stroke="midnightblue" points="897.69,-436.49 907.14,-441.28 902.73,-431.65 897.69,-436.49"/>
</g>
<!-- Node6&#45;&gt;Node28 -->
<g id="edge30" class="edge">
<title>Node6&#45;&gt;Node28</title>
<path fill="none" stroke="midnightblue" d="M573.78,-334.34C590.4,-315.81 618.85,-283.23 641,-253.5 658.45,-230.07 653.75,-216.19 677,-198.5 678.81,-197.12 680.71,-195.82 682.66,-194.59"/>
<polygon fill="midnightblue" stroke="midnightblue" points="684.53,-197.56 691.59,-189.67 681.15,-191.43 684.53,-197.56"/>
</g>
<!-- Node9 -->
<g id="node9" class="node">
<title>Node9</title>
<g id="a_node9"><a xlink:href="a00397.html#afe5670b4cb780fd3ccf2a0d72a2e3c2e" target="_top" xlink:title="Calculate P(n,r) as an array with each unique permutaton of 2 values being a pair.">
<polygon fill="white" stroke="black" points="867.5,-348.5 867.5,-378.5 980.5,-378.5 980.5,-348.5 867.5,-348.5"/>
<text text-anchor="start" x="875.5" y="-366.5" font-family="Helvetica,sans-Serif" font-size="10.00">HF::GraphGenerator</text>
<text text-anchor="middle" x="924" y="-355.5" font-family="Helvetica,sans-Serif" font-size="10.00">::permutations</text>
</a>
</g>
</g>
<!-- Node8&#45;&gt;Node9 -->
<g id="edge10" class="edge">
<title>Node8&#45;&gt;Node9</title>
<path fill="none" stroke="midnightblue" d="M802.88,-326.54C822.15,-332.47 844.44,-339.33 864.55,-345.52"/>
<polygon fill="midnightblue" stroke="midnightblue" points="863.64,-348.9 874.23,-348.49 865.7,-342.21 863.64,-348.9"/>
</g>
<!-- Node11 -->
<g id="node11" class="node">
<title>Node11</title>
<g id="a_node11"><a xlink:href="a01261.html#a6d38edb96130bda3eb8126cc7501065f" target="_top" xlink:title="Determine how many nodes are currently in the queue.">
<polygon fill="white" stroke="black" points="867,-531.5 867,-561.5 981,-561.5 981,-531.5 867,-531.5"/>
<text text-anchor="start" x="875" y="-549.5" font-family="Helvetica,sans-Serif" font-size="10.00">HF::GraphGenerator</text>
<text text-anchor="middle" x="924" y="-538.5" font-family="Helvetica,sans-Serif" font-size="10.00">::UniqueQueue::size</text>
</a>
</g>
</g>
<!-- Node10&#45;&gt;Node11 -->
<g id="edge12" class="edge">
<title>Node10&#45;&gt;Node11</title>
<path fill="none" stroke="midnightblue" d="M816.45,-546.5C829.64,-546.5 843.59,-546.5 856.91,-546.5"/>
<polygon fill="midnightblue" stroke="midnightblue" points="856.95,-550 866.95,-546.5 856.95,-543 856.95,-550"/>
</g>
<!-- Node14 -->
<g id="node14" class="node">
<title>Node14</title>
<g id="a_node14"><a xlink:href="a00397.html#a4b7cc0ad0002975404acef5064f4f546" target="_top" xlink:title="Determine whether children are over valid ground, and and meet upstep/downstep requirements.">
<polygon fill="white" stroke="black" points="867.5,-113.5 867.5,-143.5 980.5,-143.5 980.5,-113.5 867.5,-113.5"/>
<text text-anchor="start" x="875.5" y="-131.5" font-family="Helvetica,sans-Serif" font-size="10.00">HF::GraphGenerator</text>
<text text-anchor="middle" x="924" y="-120.5" font-family="Helvetica,sans-Serif" font-size="10.00">::CheckChildren</text>
</a>
</g>
</g>
<!-- Node13&#45;&gt;Node14 -->
<g id="edge15" class="edge">
<title>Node13&#45;&gt;Node14</title>
<path fill="none" stroke="midnightblue" d="M809.86,-209.01C816.61,-206.09 823.17,-202.61 829,-198.5 850.22,-183.54 844.33,-168.2 865,-152.5 866.8,-151.13 868.68,-149.83 870.63,-148.59"/>
<polygon fill="midnightblue" stroke="midnightblue" points="872.54,-151.54 879.5,-143.56 869.08,-145.45 872.54,-151.54"/>
</g>
<!-- Node21 -->
<g id="node21" class="node">
<title>Node21</title>
<g id="a_node21"><a xlink:href="a00397.html#aeab1db37b5aa614235f109d5dd9711a9" target="_top" xlink:title="Determine what kind of step (if any) is between parent and child.">
<polygon fill="white" stroke="black" points="867.5,-250.5 867.5,-280.5 980.5,-280.5 980.5,-250.5 867.5,-250.5"/>
<text text-anchor="start" x="875.5" y="-268.5" font-family="Helvetica,sans-Serif" font-size="10.00">HF::GraphGenerator</text>
<text text-anchor="middle" x="924" y="-257.5" font-family="Helvetica,sans-Serif" font-size="10.00">::CheckConnection</text>
</a>
</g>
</g>
<!-- Node13&#45;&gt;Node21 -->
<g id="edge22" class="edge">
<title>Node13&#45;&gt;Node21</title>
<path fill="none" stroke="midnightblue" d="M809.81,-237.37C824.95,-241.13 841.49,-245.24 857.13,-249.13"/>
<polygon fill="midnightblue" stroke="midnightblue" points="856.7,-252.63 867.25,-251.65 858.39,-245.84 856.7,-252.63"/>
</g>
<!-- Node24 -->
<g id="node24" class="node">
<title>Node24</title>
<g id="a_node24"><a xlink:href="a00397.html#a7f96186b8f24f878404d1feccf2f64db" target="_top" xlink:title="Calculate the distance between two nodes.">
<polygon fill="white" stroke="black" points="1177.5,-206.5 1177.5,-236.5 1290.5,-236.5 1290.5,-206.5 1177.5,-206.5"/>
<text text-anchor="start" x="1185.5" y="-224.5" font-family="Helvetica,sans-Serif" font-size="10.00">HF::GraphGenerator</text>
<text text-anchor="middle" x="1234" y="-213.5" font-family="Helvetica,sans-Serif" font-size="10.00">::DistanceTo</text>
</a>
</g>
</g>
<!-- Node13&#45;&gt;Node24 -->
<g id="edge27" class="edge">
<title>Node13&#45;&gt;Node24</title>
<path fill="none" stroke="midnightblue" d="M809.88,-223.27C898.94,-222.89 1072.64,-222.17 1167.43,-221.77"/>
<polygon fill="midnightblue" stroke="midnightblue" points="1167.49,-225.27 1177.47,-221.73 1167.46,-218.27 1167.49,-225.27"/>
</g>
<!-- Node26 -->
<g id="node26" class="node">
<title>Node26</title>
<g id="a_node26"><a xlink:href="a00397.html#abf1a3ae7dc89b3cf430e059a87fcd477" target="_top" xlink:title="Convert a point_type to a node.">
<polygon fill="white" stroke="black" points="867.5,-299.5 867.5,-329.5 980.5,-329.5 980.5,-299.5 867.5,-299.5"/>
<text text-anchor="start" x="875.5" y="-317.5" font-family="Helvetica,sans-Serif" font-size="10.00">HF::GraphGenerator</text>
<text text-anchor="middle" x="924" y="-306.5" font-family="Helvetica,sans-Serif" font-size="10.00">::ToNode</text>
</a>
</g>
</g>
<!-- Node13&#45;&gt;Node26 -->
<g id="edge28" class="edge">
<title>Node13&#45;&gt;Node26</title>
<path fill="none" stroke="midnightblue" d="M800.29,-238.6C810.15,-242.74 820.22,-247.71 829,-253.5 847.89,-265.96 846.28,-276.79 865,-289.5 867.72,-291.35 870.6,-293.1 873.57,-294.77"/>
<polygon fill="midnightblue" stroke="midnightblue" points="872.15,-297.98 882.64,-299.47 875.37,-291.76 872.15,-297.98"/>
</g>
<!-- Node15 -->
<g id="node15" class="node">
<title>Node15</title>
<g id="a_node15"><a xlink:href="a00397.html#a74be560268a713fc9e9b8b4a453afa2f" target="_top" xlink:title="Cast a ray and get the point of intersection if it connects.">
<polygon fill="white" stroke="black" points="1019,-88.5 1019,-118.5 1132,-118.5 1132,-88.5 1019,-88.5"/>
<text text-anchor="start" x="1027" y="-106.5" font-family="Helvetica,sans-Serif" font-size="10.00">HF::GraphGenerator</text>
<text text-anchor="middle" x="1075.5" y="-95.5" font-family="Helvetica,sans-Serif" font-size="10.00">::CheckRay</text>
</a>
</g>
</g>
<!-- Node14&#45;&gt;Node15 -->
<g id="edge16" class="edge">
<title>Node14&#45;&gt;Node15</title>
<path fill="none" stroke="midnightblue" d="M980.67,-119.19C989.81,-117.66 999.37,-116.06 1008.73,-114.5"/>
<polygon fill="midnightblue" stroke="midnightblue" points="1009.5,-117.92 1018.79,-112.82 1008.34,-111.01 1009.5,-117.92"/>
</g>
<!-- Node16 -->
<g id="node16" class="node">
<title>Node16</title>
<g id="a_node16"><a xlink:href="a00397.html#ab731d597ee2a843f7b7cb1ccbae67782" target="_top" xlink:title="Determine if a hit is against the geometry type specified.">
<polygon fill="white" stroke="black" points="1177.5,-147.5 1177.5,-177.5 1290.5,-177.5 1290.5,-147.5 1177.5,-147.5"/>
<text text-anchor="start" x="1185.5" y="-165.5" font-family="Helvetica,sans-Serif" font-size="10.00">HF::GraphGenerator</text>
<text text-anchor="middle" x="1234" y="-154.5" font-family="Helvetica,sans-Serif" font-size="10.00">::CheckGeometryID</text>
</a>
</g>
</g>
<!-- Node15&#45;&gt;Node16 -->
<g id="edge17" class="edge">
<title>Node15&#45;&gt;Node16</title>
<path fill="none" stroke="midnightblue" d="M1116.4,-118.54C1136.91,-126.27 1162.09,-135.77 1183.79,-143.95"/>
<polygon fill="midnightblue" stroke="midnightblue" points="1182.58,-147.23 1193.18,-147.49 1185.05,-140.68 1182.58,-147.23"/>
</g>
<!-- Node17 -->
<g id="node17" class="node">
<title>Node17</title>
<g id="a_node17"><a xlink:href="a01361.html#a3d86c2c8d8e0ec6bf63a653ec89807a8" target="_top" xlink:title="Determine whether or not this hitstruct contains a hit.">
<polygon fill="white" stroke="black" points="1168,-98.5 1168,-128.5 1300,-128.5 1300,-98.5 1168,-98.5"/>
<text text-anchor="start" x="1176" y="-116.5" font-family="Helvetica,sans-Serif" font-size="10.00">HF::RayTracer::HitStruct</text>
<text text-anchor="middle" x="1234" y="-105.5" font-family="Helvetica,sans-Serif" font-size="10.00">::DidHit</text>
</a>
</g>
</g>
<!-- Node15&#45;&gt;Node17 -->
<g id="edge18" class="edge">
<title>Node15&#45;&gt;Node17</title>
<path fill="none" stroke="midnightblue" d="M1132.12,-107.05C1140.45,-107.59 1149.16,-108.14 1157.82,-108.7"/>
<polygon fill="midnightblue" stroke="midnightblue" points="1157.74,-112.2 1167.94,-109.34 1158.18,-105.21 1157.74,-112.2"/>
</g>
<!-- Node19 -->
<g id="node19" class="node">
<title>Node19</title>
<g id="a_node19"><a xlink:href="a01365.html#a7ee672618f7fe9ce6938978d93d18514" target="_top" xlink:title=" ">
<polygon fill="white" stroke="black" points="1171,-49.5 1171,-79.5 1297,-79.5 1297,-49.5 1171,-49.5"/>
<text text-anchor="start" x="1179" y="-67.5" font-family="Helvetica,sans-Serif" font-size="10.00">HF::RayTracer::MultiRT</text>
<text text-anchor="middle" x="1234" y="-56.5" font-family="Helvetica,sans-Serif" font-size="10.00">::Intersect</text>
</a>
</g>
</g>
<!-- Node15&#45;&gt;Node19 -->
<g id="edge20" class="edge">
<title>Node15&#45;&gt;Node19</title>
<path fill="none" stroke="midnightblue" d="M1132.12,-89.64C1142.1,-87.15 1152.63,-84.53 1162.96,-81.95"/>
<polygon fill="midnightblue" stroke="midnightblue" points="1163.93,-85.32 1172.78,-79.51 1162.23,-78.53 1163.93,-85.32"/>
</g>
<!-- Node20 -->
<g id="node20" class="node">
<title>Node20</title>
<g id="a_node20"><a xlink:href="a00397.html#a5ad3e8fac4a21eee744f3633f7a3692f" target="_top" xlink:title="Move a node in direction by dist units.">
<polygon fill="white" stroke="black" points="1177.5,-0.5 1177.5,-30.5 1290.5,-30.5 1290.5,-0.5 1177.5,-0.5"/>
<text text-anchor="start" x="1185.5" y="-18.5" font-family="Helvetica,sans-Serif" font-size="10.00">HF::GraphGenerator</text>
<text text-anchor="middle" x="1234" y="-7.5" font-family="Helvetica,sans-Serif" font-size="10.00">::MoveNode</text>
</a>
</g>
</g>
<!-- Node15&#45;&gt;Node20 -->
<g id="edge21" class="edge">
<title>Node15&#45;&gt;Node20</title>
<path fill="none" stroke="midnightblue" d="M1095.21,-88.25C1113.09,-74.22 1141.2,-53.52 1168,-39.5 1171.28,-37.78 1174.72,-36.13 1178.22,-34.55"/>
<polygon fill="midnightblue" stroke="midnightblue" points="1179.77,-37.7 1187.59,-30.56 1177.02,-31.26 1179.77,-37.7"/>
</g>
<!-- Node18 -->
<g id="node18" class="node">
<title>Node18</title>
<g id="a_node18"><a xlink:href="a00398.html#a2630761a64fac02a4ee33abaf5c885a1" target="_top" xlink:title=" ">
<polygon fill="white" stroke="black" points="1336,-104 1336,-123 1485,-123 1485,-104 1336,-104"/>
<text text-anchor="middle" x="1410.5" y="-111" font-family="Helvetica,sans-Serif" font-size="10.00">HF::RayTracer::DidIntersect</text>
</a>
</g>
</g>
<!-- Node17&#45;&gt;Node18 -->
<g id="edge19" class="edge">
<title>Node17&#45;&gt;Node18</title>
<path fill="none" stroke="midnightblue" d="M1300.47,-113.5C1308.66,-113.5 1317.11,-113.5 1325.52,-113.5"/>
<polygon fill="midnightblue" stroke="midnightblue" points="1325.75,-117 1335.75,-113.5 1325.75,-110 1325.75,-117"/>
</g>
<!-- Node22 -->
<g id="node22" class="node">
<title>Node22</title>
<g id="a_node22"><a xlink:href="a00397.html#a9daa85cb56a1b18d44f46aa9c420afde" target="_top" xlink:title="Determine if the slope between parent and child is traversable according to the graph parameters.">
<polygon fill="white" stroke="black" points="1019,-299.5 1019,-329.5 1132,-329.5 1132,-299.5 1019,-299.5"/>
<text text-anchor="start" x="1027" y="-317.5" font-family="Helvetica,sans-Serif" font-size="10.00">HF::GraphGenerator</text>
<text text-anchor="middle" x="1075.5" y="-306.5" font-family="Helvetica,sans-Serif" font-size="10.00">::CheckSlope</text>
</a>
</g>
</g>
<!-- Node21&#45;&gt;Node22 -->
<g id="edge23" class="edge">
<title>Node21&#45;&gt;Node22</title>
<path fill="none" stroke="midnightblue" d="M971.07,-280.6C986.21,-285.56 1003.19,-291.13 1018.95,-296.29"/>
<polygon fill="midnightblue" stroke="midnightblue" points="1017.98,-299.66 1028.58,-299.45 1020.16,-293.01 1017.98,-299.66"/>
</g>
<!-- Node23 -->
<g id="node23" class="node">
<title>Node23</title>
<g id="a_node23"><a xlink:href="a00397.html#ace66c1b60785c32433402f012019ab81" target="_top" xlink:title="Determine if there is a valid line of sight between parent and child.">
<polygon fill="white" stroke="black" points="1019,-250.5 1019,-280.5 1132,-280.5 1132,-250.5 1019,-250.5"/>
<text text-anchor="start" x="1027" y="-268.5" font-family="Helvetica,sans-Serif" font-size="10.00">HF::GraphGenerator</text>
<text text-anchor="middle" x="1075.5" y="-257.5" font-family="Helvetica,sans-Serif" font-size="10.00">::OcclusionCheck</text>
</a>
</g>
</g>
<!-- Node21&#45;&gt;Node23 -->
<g id="edge24" class="edge">
<title>Node21&#45;&gt;Node23</title>
<path fill="none" stroke="midnightblue" d="M980.67,-265.5C989.81,-265.5 999.37,-265.5 1008.73,-265.5"/>
<polygon fill="midnightblue" stroke="midnightblue" points="1008.79,-269 1018.79,-265.5 1008.79,-262 1008.79,-269"/>
</g>
<!-- Node23&#45;&gt;Node24 -->
<g id="edge25" class="edge">
<title>Node23&#45;&gt;Node24</title>
<path fill="none" stroke="midnightblue" d="M1129.92,-250.48C1142.69,-246.89 1156.45,-243.02 1169.62,-239.32"/>
<polygon fill="midnightblue" stroke="midnightblue" points="1170.88,-242.6 1179.55,-236.53 1168.98,-235.86 1170.88,-242.6"/>
</g>
<!-- Node25 -->
<g id="node25" class="node">
<title>Node25</title>
<g id="a_node25"><a xlink:href="a01365.html#a22ebf97e859ef651e81deb40b74f668f" target="_top" xlink:title=" ">
<polygon fill="white" stroke="black" points="1171,-255.5 1171,-285.5 1297,-285.5 1297,-255.5 1171,-255.5"/>
<text text-anchor="start" x="1179" y="-273.5" font-family="Helvetica,sans-Serif" font-size="10.00">HF::RayTracer::MultiRT</text>
<text text-anchor="middle" x="1234" y="-262.5" font-family="Helvetica,sans-Serif" font-size="10.00">::Occluded</text>
</a>
</g>
</g>
<!-- Node23&#45;&gt;Node25 -->
<g id="edge26" class="edge">
<title>Node23&#45;&gt;Node25</title>
<path fill="none" stroke="midnightblue" d="M1132.12,-267.28C1141.44,-267.57 1151.23,-267.89 1160.9,-268.2"/>
<polygon fill="midnightblue" stroke="midnightblue" points="1160.8,-271.69 1170.91,-268.52 1161.02,-264.7 1160.8,-271.69"/>
</g>
<!-- Node29 -->
<g id="node29" class="node">
<title>Node29</title>
<g id="a_node29"><a xlink:href="a01261.html#ae0dc637a2d7c3aae32d8f035ac6b8016" target="_top" xlink:title="Add a node to the queue if it has never previously been in the queue.">
<polygon fill="white" stroke="black" points="865,-162.5 865,-192.5 983,-192.5 983,-162.5 865,-162.5"/>
<text text-anchor="start" x="873" y="-180.5" font-family="Helvetica,sans-Serif" font-size="10.00">HF::GraphGenerator</text>
<text text-anchor="middle" x="924" y="-169.5" font-family="Helvetica,sans-Serif" font-size="10.00">::UniqueQueue::push</text>
</a>
</g>
</g>
<!-- Node28&#45;&gt;Node29 -->
<g id="edge31" class="edge">
<title>Node28&#45;&gt;Node29</title>
<path fill="none" stroke="midnightblue" d="M821.76,-175.7C832.55,-175.89 843.72,-176.09 854.52,-176.28"/>
<polygon fill="midnightblue" stroke="midnightblue" points="854.68,-179.79 864.74,-176.47 854.81,-172.79 854.68,-179.79"/>
</g>
<!-- Node30&#45;&gt;Node4 -->
<g id="edge34" class="edge">
<title>Node30&#45;&gt;Node4</title>
<path fill="none" stroke="midnightblue" d="M577.07,-474.14C593.69,-494.38 619.51,-526.23 641,-554.5 657.57,-576.3 655.43,-587.63 677,-604.5 682,-608.41 687.58,-611.88 693.38,-614.93"/>
<polygon fill="midnightblue" stroke="midnightblue" points="692.08,-618.2 702.61,-619.4 695.14,-611.9 692.08,-618.2"/>
</g>
<!-- Node30&#45;&gt;Node7 -->
<g id="edge33" class="edge">
<title>Node30&#45;&gt;Node7</title>
<path fill="none" stroke="midnightblue" d="M624.16,-432.93C630.03,-430.11 635.74,-426.97 641,-423.5 660.41,-410.68 657.38,-398 677,-385.5 680.29,-383.4 683.78,-381.46 687.37,-379.67"/>
<polygon fill="midnightblue" stroke="midnightblue" points="688.84,-382.85 696.49,-375.52 685.94,-376.48 688.84,-382.85"/>
</g>
<!-- Node30&#45;&gt;Node8 -->
<g id="edge35" class="edge">
<title>Node30&#45;&gt;Node8</title>
<path fill="none" stroke="midnightblue" d="M628.81,-432.93C633.2,-430.16 637.33,-427.04 641,-423.5 671.14,-394.47 646.38,-365.03 677,-336.5 680.16,-333.55 683.68,-330.95 687.42,-328.66"/>
<polygon fill="midnightblue" stroke="midnightblue" points="689.3,-331.62 696.49,-323.84 686.02,-325.44 689.3,-331.62"/>
</g>
<!-- Node30&#45;&gt;Node10 -->
<g id="edge36" class="edge">
<title>Node30&#45;&gt;Node10</title>
<path fill="none" stroke="midnightblue" d="M590.76,-474.22C613.79,-489.07 646.44,-508.81 677,-522.5 681.3,-524.43 685.79,-526.27 690.36,-528.01"/>
<polygon fill="midnightblue" stroke="midnightblue" points="689.2,-531.31 699.79,-531.46 691.6,-524.74 689.2,-531.31"/>
</g>
<!-- Node30&#45;&gt;Node11 -->
<g id="edge43" class="edge">
<title>Node30&#45;&gt;Node11</title>
<path fill="none" stroke="midnightblue" d="M572.76,-474.19C591.55,-502.42 629.6,-551.75 677,-571.5 741.45,-598.36 823.31,-580.99 874.44,-564.76"/>
<polygon fill="midnightblue" stroke="midnightblue" points="875.83,-567.99 884.24,-561.54 873.65,-561.34 875.83,-567.99"/>
</g>
<!-- Node30&#45;&gt;Node12 -->
<g id="edge37" class="edge">
<title>Node30&#45;&gt;Node12</title>
<path fill="none" stroke="midnightblue" d="M641.15,-434.9C652.78,-432.24 664.72,-429.5 676.24,-426.86"/>
<polygon fill="midnightblue" stroke="midnightblue" points="677.29,-430.21 686.25,-424.57 675.72,-423.39 677.29,-430.21"/>
</g>
<!-- Node30&#45;&gt;Node13 -->
<g id="edge38" class="edge">
<title>Node30&#45;&gt;Node13</title>
<path fill="none" stroke="midnightblue" d="M630.11,-432.95C634.09,-430.18 637.77,-427.05 641,-423.5 683.04,-377.22 643.7,-340.42 677,-287.5 687.67,-270.54 704.26,-255.72 719.12,-244.61"/>
<polygon fill="midnightblue" stroke="midnightblue" points="721.53,-247.19 727.62,-238.52 717.45,-241.5 721.53,-247.19"/>
</g>
<!-- Node30&#45;&gt;Node29 -->
<g id="edge42" class="edge">
<title>Node30&#45;&gt;Node29</title>
<path fill="none" stroke="midnightblue" d="M641.28,-458.29C710.23,-460.51 802.11,-458.51 829,-434.5 894.41,-376.09 825.77,-318.93 865,-240.5 872.75,-225.01 885.45,-210.57 897,-199.44"/>
<polygon fill="midnightblue" stroke="midnightblue" points="899.4,-201.98 904.36,-192.62 894.64,-196.85 899.4,-201.98"/>
</g>
<!-- Node31 -->
<g id="node31" class="node">
<title>Node31</title>
<g id="a_node31"><a xlink:href="a01261.html#ae941f357ddbefc3b670c43ce2d90b589" target="_top" xlink:title="Pop a set amount of nodes from the queue, and return them as a vector.">
<polygon fill="white" stroke="black" points="683,-482.5 683,-512.5 823,-512.5 823,-482.5 683,-482.5"/>
<text text-anchor="start" x="691" y="-500.5" font-family="Helvetica,sans-Serif" font-size="10.00">HF::GraphGenerator</text>
<text text-anchor="middle" x="753" y="-489.5" font-family="Helvetica,sans-Serif" font-size="10.00">::UniqueQueue::popMany</text>
</a>
</g>
</g>
<!-- Node30&#45;&gt;Node31 -->
<g id="edge39" class="edge">
<title>Node30&#45;&gt;Node31</title>
<path fill="none" stroke="midnightblue" d="M641.15,-472.1C652.78,-474.76 664.72,-477.5 676.24,-480.14"/>
<polygon fill="midnightblue" stroke="midnightblue" points="675.72,-483.61 686.25,-482.43 677.29,-476.79 675.72,-483.61"/>
</g>
<!-- Node31&#45;&gt;Node11 -->
<g id="edge41" class="edge">
<title>Node31&#45;&gt;Node11</title>
<path fill="none" stroke="midnightblue" d="M806.08,-512.6C823.6,-517.68 843.29,-523.39 861.46,-528.66"/>
<polygon fill="midnightblue" stroke="midnightblue" points="860.51,-532.03 871.09,-531.45 862.46,-525.3 860.51,-532.03"/>
</g>
<!-- Node31&#45;&gt;Node27 -->
<g id="edge40" class="edge">
<title>Node31&#45;&gt;Node27</title>
<path fill="none" stroke="midnightblue" d="M815.97,-482.47C829.54,-479.17 843.94,-475.68 857.64,-472.36"/>
<polygon fill="midnightblue" stroke="midnightblue" points="858.57,-475.73 867.47,-469.97 856.92,-468.93 858.57,-475.73"/>
</g>
<!-- Node33&#45;&gt;Node15 -->
<g id="edge47" class="edge">
<title>Node33&#45;&gt;Node15</title>
<path fill="none" stroke="midnightblue" d="M609.59,-158.48C669.46,-141.19 773.5,-113.87 865,-103.5 912.81,-98.08 967.15,-98.27 1008.51,-99.71"/>
<polygon fill="midnightblue" stroke="midnightblue" points="1008.6,-103.21 1018.73,-100.1 1008.87,-96.22 1008.6,-103.21"/>
</g>
<!-- Node35 -->
<g id="node35" class="node">
<title>Node35</title>
<g id="a_node35"><a xlink:href="a01497.html#acf3e003f995c8a533f3ff164157b7297" target="_top" xlink:title="Get a list of nodes from the graph sorted by ID.">
<polygon fill="white" stroke="black" points="314.5,-328.5 314.5,-358.5 433.5,-358.5 433.5,-328.5 314.5,-328.5"/>
<text text-anchor="start" x="322.5" y="-346.5" font-family="Helvetica,sans-Serif" font-size="10.00">HF::SpatialStructures</text>
<text text-anchor="middle" x="374" y="-335.5" font-family="Helvetica,sans-Serif" font-size="10.00">::Graph::Nodes</text>
</a>
</g>
</g>
<!-- Node34&#45;&gt;Node35 -->
<g id="edge49" class="edge">
<title>Node34&#45;&gt;Node35</title>
<path fill="none" stroke="midnightblue" d="M262.24,-342.33C276.16,-342.48 290.56,-342.63 304.19,-342.77"/>
<polygon fill="midnightblue" stroke="midnightblue" points="304.41,-346.27 314.45,-342.88 304.48,-339.27 304.41,-346.27"/>
</g>
<!-- Node36 -->
<g id="node36" class="node">
<title>Node36</title>
<g id="a_node36"><a xlink:href="a01497.html#a2710af2a75976862d7a235793567d2f3" target="_top" xlink:title="Determine how many nodes are in the graph.">
<polygon fill="white" stroke="black" points="314.5,-279.5 314.5,-309.5 433.5,-309.5 433.5,-279.5 314.5,-279.5"/>
<text text-anchor="start" x="322.5" y="-297.5" font-family="Helvetica,sans-Serif" font-size="10.00">HF::SpatialStructures</text>
<text text-anchor="middle" x="374" y="-286.5" font-family="Helvetica,sans-Serif" font-size="10.00">::Graph::size</text>
</a>
</g>
</g>
<!-- Node34&#45;&gt;Node36 -->
<g id="edge50" class="edge">
<title>Node34&#45;&gt;Node36</title>
<path fill="none" stroke="midnightblue" d="M229.71,-331.99C243.05,-329.09 257.64,-325.79 271,-322.5 283.79,-319.35 297.42,-315.77 310.41,-312.24"/>
<polygon fill="midnightblue" stroke="midnightblue" points="311.48,-315.58 320.2,-309.57 309.63,-308.83 311.48,-315.58"/>
</g>
<!-- Node39 -->
<g id="node39" class="node">
<title>Node39</title>
<g id="a_node39"><a xlink:href="a00403.html#a4f0c57b862a0826821217d8c3ac849c4" target="_top" xlink:title=" ">
<polygon fill="white" stroke="black" points="307,-241 307,-260 441,-260 441,-241 307,-241"/>
<text text-anchor="middle" x="374" y="-248" font-family="Helvetica,sans-Serif" font-size="10.00">HF::Geometry::MeshInfo</text>
</a>
</g>
</g>
<!-- Node38&#45;&gt;Node39 -->
<g id="edge53" class="edge">
<title>Node38&#45;&gt;Node39</title>
<path fill="none" stroke="midnightblue" d="M271.03,-251.58C279.57,-251.49 288.2,-251.4 296.62,-251.31"/>
<polygon fill="midnightblue" stroke="midnightblue" points="296.81,-254.81 306.77,-251.2 296.74,-247.81 296.81,-254.81"/>
</g>
</g>
</svg>
