<?xml version="1.0" encoding="UTF-8" standalone="no"?>
<!DOCTYPE svg PUBLIC "-//W3C//DTD SVG 1.1//EN"
 "http://www.w3.org/Graphics/SVG/1.1/DTD/svg11.dtd">
<!-- Generated by graphviz version 2.43.0 (0)
 -->
<!-- Title: Cinterface/objloader_C.cpp Pages: 1 -->
<svg width="595pt" height="207pt"
 viewBox="0.00 0.00 595.00 207.00" xmlns="http://www.w3.org/2000/svg" xmlns:xlink="http://www.w3.org/1999/xlink">
<g id="graph0" class="graph" transform="scale(1 1) rotate(0) translate(4 203)">
<title>Cinterface/objloader_C.cpp</title>
<polygon fill="white" stroke="transparent" points="-4,4 -4,-203 591,-203 591,4 -4,4"/>
<!-- Node1 -->
<g id="node1" class="node">
<title>Node1</title>
<g id="a_node1"><a xlink:title=" ">
<polygon fill="#bfbfbf" stroke="black" points="236.5,-168.5 236.5,-198.5 352.5,-198.5 352.5,-168.5 236.5,-168.5"/>
<text text-anchor="start" x="244.5" y="-186.5" font-family="Helvetica,sans-Serif" font-size="10.00">Cinterface/objloader</text>
<text text-anchor="middle" x="294.5" y="-175.5" font-family="Helvetica,sans-Serif" font-size="10.00">_C.cpp</text>
</a>
</g>
</g>
<!-- Node2 -->
<g id="node2" class="node">
<title>Node2</title>
<g id="a_node2"><a xlink:href="a00353.html" target="_top" xlink:title="Header file for functions related to loading/storing an OBJ file (a mesh)">
<polygon fill="white" stroke="black" points="0,-112.5 0,-131.5 83,-131.5 83,-112.5 0,-112.5"/>
<text text-anchor="middle" x="41.5" y="-119.5" font-family="Helvetica,sans-Serif" font-size="10.00">objloader_C.h</text>
</a>
</g>
</g>
<!-- Node1&#45;&gt;Node2 -->
<g id="edge1" class="edge">
<title>Node1&#45;&gt;Node2</title>
<path fill="none" stroke="midnightblue" d="M236.46,-168.85C191.31,-158.23 129.51,-143.7 87.68,-133.86"/>
<polygon fill="midnightblue" stroke="midnightblue" points="88.3,-130.41 77.77,-131.53 86.7,-137.23 88.3,-130.41"/>
</g>
<!-- Node3 -->
<g id="node3" class="node">
<title>Node3</title>
<g id="a_node3"><a xlink:title=" ">
<polygon fill="white" stroke="#bfbfbf" points="102,-56.5 102,-75.5 149,-75.5 149,-56.5 102,-56.5"/>
<text text-anchor="middle" x="125.5" y="-63.5" font-family="Helvetica,sans-Serif" font-size="10.00">vector</text>
</a>
</g>
</g>
<!-- Node1&#45;&gt;Node3 -->
<g id="edge10" class="edge">
<title>Node1&#45;&gt;Node3</title>
<path fill="none" stroke="midnightblue" d="M236.45,-180.42C200.18,-175.83 155.71,-163.53 130.5,-132 120.24,-119.17 120.01,-99.98 121.73,-85.78"/>
<polygon fill="midnightblue" stroke="midnightblue" points="125.22,-86.11 123.38,-75.67 118.32,-84.98 125.22,-86.11"/>
</g>
<!-- Node4 -->
<g id="node4" class="node">
<title>Node4</title>
<g id="a_node4"><a xlink:href="a00125.html" target="_top" xlink:title="Contains definitions for the Geometry namespace.">
<polygon fill="white" stroke="black" points="259,-112.5 259,-131.5 330,-131.5 330,-112.5 259,-112.5"/>
<text text-anchor="middle" x="294.5" y="-119.5" font-family="Helvetica,sans-Serif" font-size="10.00">objloader.h</text>
</a>
</g>
</g>
<!-- Node1&#45;&gt;Node4 -->
<g id="edge3" class="edge">
<title>Node1&#45;&gt;Node4</title>
<path fill="none" stroke="midnightblue" d="M294.5,-168.4C294.5,-160.47 294.5,-150.46 294.5,-141.86"/>
<polygon fill="midnightblue" stroke="midnightblue" points="298,-141.66 294.5,-131.66 291,-141.66 298,-141.66"/>
</g>
<!-- Node6 -->
<g id="node6" class="node">
<title>Node6</title>
<g id="a_node6"><a xlink:href="a00119.html" target="_top" xlink:title="Contains definitions for the MeshInfo class.">
<polygon fill="white" stroke="black" points="281,-56.5 281,-75.5 352,-75.5 352,-56.5 281,-56.5"/>
<text text-anchor="middle" x="316.5" y="-63.5" font-family="Helvetica,sans-Serif" font-size="10.00">meshinfo.h</text>
</a>
</g>
</g>
<!-- Node1&#45;&gt;Node6 -->
<g id="edge9" class="edge">
<title>Node1&#45;&gt;Node6</title>
<path fill="none" stroke="midnightblue" d="M312.13,-168.13C321.93,-158.96 333.2,-146.16 338.5,-132 344.49,-116.02 336.89,-97.57 329.03,-84.42"/>
<polygon fill="midnightblue" stroke="midnightblue" points="331.86,-82.35 323.45,-75.89 326,-86.18 331.86,-82.35"/>
</g>
<!-- Node9 -->
<g id="node9" class="node">
<title>Node9</title>
<g id="a_node9"><a xlink:href="a00110.html" target="_top" xlink:title="Contains definitions for the Exceptions namespace.">
<polygon fill="white" stroke="black" points="386.5,-112.5 386.5,-131.5 478.5,-131.5 478.5,-112.5 386.5,-112.5"/>
<text text-anchor="middle" x="432.5" y="-119.5" font-family="Helvetica,sans-Serif" font-size="10.00">HFExceptions.h</text>
</a>
</g>
</g>
<!-- Node1&#45;&gt;Node9 -->
<g id="edge11" class="edge">
<title>Node1&#45;&gt;Node9</title>
<path fill="none" stroke="midnightblue" d="M327.2,-168.4C350.25,-158.46 380.86,-145.26 403.13,-135.66"/>
<polygon fill="midnightblue" stroke="midnightblue" points="404.62,-138.83 412.42,-131.66 401.85,-132.4 404.62,-138.83"/>
</g>
<!-- Node13 -->
<g id="node13" class="node">
<title>Node13</title>
<g id="a_node13"><a xlink:title=" ">
<polygon fill="white" stroke="#bfbfbf" points="496.5,-112.5 496.5,-131.5 556.5,-131.5 556.5,-112.5 496.5,-112.5"/>
<text text-anchor="middle" x="526.5" y="-119.5" font-family="Helvetica,sans-Serif" font-size="10.00">iostream</text>
</a>
</g>
</g>
<!-- Node1&#45;&gt;Node13 -->
<g id="edge15" class="edge">
<title>Node1&#45;&gt;Node13</title>
<path fill="none" stroke="midnightblue" d="M349.19,-168.47C391.19,-157.7 448.24,-143.07 486.16,-133.35"/>
<polygon fill="midnightblue" stroke="midnightblue" points="487.5,-136.62 496.32,-130.74 485.76,-129.84 487.5,-136.62"/>
</g>
<!-- Node14 -->
<g id="node14" class="node">
<title>Node14</title>
<g id="a_node14"><a xlink:href="a00347.html" target="_top" xlink:title=" ">
<polygon fill="white" stroke="black" points="140,-112.5 140,-131.5 241,-131.5 241,-112.5 140,-112.5"/>
<text text-anchor="middle" x="190.5" y="-119.5" font-family="Helvetica,sans-Serif" font-size="10.00">cinterface_utils.h</text>
</a>
</g>
</g>
<!-- Node1&#45;&gt;Node14 -->
<g id="edge16" class="edge">
<title>Node1&#45;&gt;Node14</title>
<path fill="none" stroke="midnightblue" d="M269.85,-168.4C253.18,-158.86 231.27,-146.32 214.69,-136.84"/>
<polygon fill="midnightblue" stroke="midnightblue" points="216.05,-133.59 205.63,-131.66 212.57,-139.66 216.05,-133.59"/>
</g>
<!-- Node2&#45;&gt;Node3 -->
<g id="edge2" class="edge">
<title>Node2&#45;&gt;Node3</title>
<path fill="none" stroke="midnightblue" d="M55,-112.32C68.1,-103.9 88.21,-90.97 103.61,-81.07"/>
<polygon fill="midnightblue" stroke="midnightblue" points="105.52,-84.01 112.04,-75.65 101.73,-78.12 105.52,-84.01"/>
</g>
<!-- Node4&#45;&gt;Node3 -->
<g id="edge4" class="edge">
<title>Node4&#45;&gt;Node3</title>
<path fill="none" stroke="midnightblue" d="M267.72,-112.44C238.24,-103.02 190.81,-87.87 158.92,-77.68"/>
<polygon fill="midnightblue" stroke="midnightblue" points="159.74,-74.27 149.15,-74.56 157.61,-80.94 159.74,-74.27"/>
</g>
<!-- Node5 -->
<g id="node5" class="node">
<title>Node5</title>
<g id="a_node5"><a xlink:title=" ">
<polygon fill="white" stroke="#bfbfbf" points="218.5,-56.5 218.5,-75.5 262.5,-75.5 262.5,-56.5 218.5,-56.5"/>
<text text-anchor="middle" x="240.5" y="-63.5" font-family="Helvetica,sans-Serif" font-size="10.00">string</text>
</a>
</g>
</g>
<!-- Node4&#45;&gt;Node5 -->
<g id="edge5" class="edge">
<title>Node4&#45;&gt;Node5</title>
<path fill="none" stroke="midnightblue" d="M285.58,-112.08C277.72,-104.22 266.07,-92.57 256.58,-83.08"/>
<polygon fill="midnightblue" stroke="midnightblue" points="258.8,-80.35 249.25,-75.75 253.85,-85.3 258.8,-80.35"/>
</g>
<!-- Node4&#45;&gt;Node6 -->
<g id="edge6" class="edge">
<title>Node4&#45;&gt;Node6</title>
<path fill="none" stroke="midnightblue" d="M298.13,-112.08C301.11,-104.77 305.43,-94.18 309.12,-85.1"/>
<polygon fill="midnightblue" stroke="midnightblue" points="312.4,-86.33 312.93,-75.75 305.92,-83.69 312.4,-86.33"/>
</g>
<!-- Node7 -->
<g id="node7" class="node">
<title>Node7</title>
<g id="a_node7"><a xlink:title=" ">
<polygon fill="white" stroke="#bfbfbf" points="293,-0.5 293,-19.5 340,-19.5 340,-0.5 293,-0.5"/>
<text text-anchor="middle" x="316.5" y="-7.5" font-family="Helvetica,sans-Serif" font-size="10.00">Dense</text>
</a>
</g>
</g>
<!-- Node6&#45;&gt;Node7 -->
<g id="edge7" class="edge">
<title>Node6&#45;&gt;Node7</title>
<path fill="none" stroke="midnightblue" d="M316.5,-56.08C316.5,-49.01 316.5,-38.86 316.5,-29.99"/>
<polygon fill="midnightblue" stroke="midnightblue" points="320,-29.75 316.5,-19.75 313,-29.75 320,-29.75"/>
</g>
<!-- Node8 -->
<g id="node8" class="node">
<title>Node8</title>
<g id="a_node8"><a xlink:title=" ">
<polygon fill="white" stroke="#bfbfbf" points="201.5,-0.5 201.5,-19.5 243.5,-19.5 243.5,-0.5 201.5,-0.5"/>
<text text-anchor="middle" x="222.5" y="-7.5" font-family="Helvetica,sans-Serif" font-size="10.00">array</text>
</a>
</g>
</g>
<!-- Node6&#45;&gt;Node8 -->
<g id="edge8" class="edge">
<title>Node6&#45;&gt;Node8</title>
<path fill="none" stroke="midnightblue" d="M301.4,-56.32C286.6,-47.82 263.81,-34.73 246.52,-24.8"/>
<polygon fill="midnightblue" stroke="midnightblue" points="247.98,-21.6 237.57,-19.65 244.49,-27.67 247.98,-21.6"/>
</g>
<!-- Node10 -->
<g id="node10" class="node">
<title>Node10</title>
<g id="a_node10"><a xlink:title=" ">
<polygon fill="white" stroke="#bfbfbf" points="370,-56.5 370,-75.5 435,-75.5 435,-56.5 370,-56.5"/>
<text text-anchor="middle" x="402.5" y="-63.5" font-family="Helvetica,sans-Serif" font-size="10.00">exception</text>
</a>
</g>
</g>
<!-- Node9&#45;&gt;Node10 -->
<g id="edge12" class="edge">
<title>Node9&#45;&gt;Node10</title>
<path fill="none" stroke="midnightblue" d="M427.55,-112.08C423.4,-104.61 417.35,-93.72 412.23,-84.52"/>
<polygon fill="midnightblue" stroke="midnightblue" points="415.28,-82.79 407.36,-75.75 409.16,-86.19 415.28,-82.79"/>
</g>
<!-- Node11 -->
<g id="node11" class="node">
<title>Node11</title>
<g id="a_node11"><a xlink:title=" ">
<polygon fill="white" stroke="#bfbfbf" points="453.5,-56.5 453.5,-75.5 503.5,-75.5 503.5,-56.5 453.5,-56.5"/>
<text text-anchor="middle" x="478.5" y="-63.5" font-family="Helvetica,sans-Serif" font-size="10.00">cstring</text>
</a>
</g>
</g>
<!-- Node9&#45;&gt;Node11 -->
<g id="edge13" class="edge">
<title>Node9&#45;&gt;Node11</title>
<path fill="none" stroke="midnightblue" d="M440.1,-112.08C446.73,-104.3 456.52,-92.8 464.56,-83.37"/>
<polygon fill="midnightblue" stroke="midnightblue" points="467.23,-85.63 471.05,-75.75 461.9,-81.09 467.23,-85.63"/>
</g>
<!-- Node12 -->
<g id="node12" class="node">
<title>Node12</title>
<g id="a_node12"><a xlink:title=" ">
<polygon fill="white" stroke="#bfbfbf" points="522,-56.5 522,-75.5 587,-75.5 587,-56.5 522,-56.5"/>
<text text-anchor="middle" x="554.5" y="-63.5" font-family="Helvetica,sans-Serif" font-size="10.00">stdexcept</text>
</a>
</g>
</g>
<!-- Node9&#45;&gt;Node12 -->
<g id="edge14" class="edge">
<title>Node9&#45;&gt;Node12</title>
<path fill="none" stroke="midnightblue" d="M451.83,-112.44C471.82,-103.6 503.24,-89.69 526.06,-79.59"/>
<polygon fill="midnightblue" stroke="midnightblue" points="527.53,-82.76 535.26,-75.52 524.7,-76.36 527.53,-82.76"/>
</g>
<!-- Node14&#45;&gt;Node3 -->
<g id="edge17" class="edge">
<title>Node14&#45;&gt;Node3</title>
<path fill="none" stroke="midnightblue" d="M180.06,-112.32C170.35,-104.26 155.68,-92.08 144,-82.37"/>
<polygon fill="midnightblue" stroke="midnightblue" points="146.06,-79.53 136.13,-75.83 141.59,-84.92 146.06,-79.53"/>
</g>
<!-- Node14&#45;&gt;Node8 -->
<g id="edge18" class="edge">
<title>Node14&#45;&gt;Node8</title>
<path fill="none" stroke="midnightblue" d="M193.01,-112.37C198.2,-94.54 210.2,-53.3 217.18,-29.27"/>
<polygon fill="midnightblue" stroke="midnightblue" points="220.57,-30.17 220,-19.59 213.85,-28.22 220.57,-30.17"/>
</g>
</g>
</svg>
