<?xml version="1.0" encoding="UTF-8" standalone="no"?>
<!DOCTYPE svg PUBLIC "-//W3C//DTD SVG 1.1//EN"
 "http://www.w3.org/Graphics/SVG/1.1/DTD/svg11.dtd">
<!-- Generated by graphviz version 4.0.0 (20220529.0937)
 -->
<!-- Title: HF::GraphGenerator::CheckRay Pages: 1 -->
<svg width="445pt" height="204pt"
 viewBox="0.00 0.00 445.00 204.00" xmlns="http://www.w3.org/2000/svg" xmlns:xlink="http://www.w3.org/1999/xlink">
<g id="graph0" class="graph" transform="scale(1 1) rotate(0) translate(4 200)">
<title>HF::GraphGenerator::CheckRay</title>
<polygon fill="white" stroke="transparent" points="-4,4 -4,-200 441,-200 441,4 -4,4"/>
<!-- Node1 -->
<g id="node1" class="node">
<title>Node1</title>
<g id="a_node1"><a xlink:title="Cast a ray and get the point of intersection if it connects.">
<polygon fill="#bfbfbf" stroke="black" points="0,-82.5 0,-112.5 104,-112.5 104,-82.5 0,-82.5"/>
<text text-anchor="start" x="8" y="-100.5" font-family="Helvetica,sans-Serif" font-size="10.00">HF::GraphGenerator</text>
<text text-anchor="middle" x="52" y="-89.5" font-family="Helvetica,sans-Serif" font-size="10.00">::CheckRay</text>
</a>
</g>
</g>
<!-- Node2 -->
<g id="node2" class="node">
<title>Node2</title>
<g id="a_node2"><a xlink:href="a00397.html#ab731d597ee2a843f7b7cb1ccbae67782" target="_top" xlink:title="Determine if a hit is against the geometry type specified.">
<polygon fill="white" stroke="black" points="150,-165.5 150,-195.5 254,-195.5 254,-165.5 150,-165.5"/>
<text text-anchor="start" x="158" y="-183.5" font-family="Helvetica,sans-Serif" font-size="10.00">HF::GraphGenerator</text>
<text text-anchor="middle" x="202" y="-172.5" font-family="Helvetica,sans-Serif" font-size="10.00">::CheckGeometryID</text>
</a>
</g>
</g>
<!-- Node1&#45;&gt;Node2 -->
<g id="edge1" class="edge">
<title>Node1&#45;&gt;Node2</title>
<path fill="none" stroke="midnightblue" d="M72.6,-112.65C89.74,-125.43 115.63,-143.64 140,-156.5 143.11,-158.14 146.37,-159.74 149.68,-161.28"/>
<polygon fill="midnightblue" stroke="midnightblue" points="148.54,-164.6 159.1,-165.44 151.37,-158.2 148.54,-164.6"/>
</g>
<!-- Node3 -->
<g id="node3" class="node">
<title>Node3</title>
<g id="a_node3"><a xlink:href="a01349.html#a3d86c2c8d8e0ec6bf63a653ec89807a8" target="_top" xlink:title="Determine whether or not this hitstruct contains a hit.">
<polygon fill="white" stroke="black" points="140,-116.5 140,-146.5 264,-146.5 264,-116.5 140,-116.5"/>
<text text-anchor="start" x="148" y="-134.5" font-family="Helvetica,sans-Serif" font-size="10.00">HF::RayTracer::HitStruct</text>
<text text-anchor="middle" x="202" y="-123.5" font-family="Helvetica,sans-Serif" font-size="10.00">::DidHit</text>
</a>
</g>
</g>
<!-- Node1&#45;&gt;Node3 -->
<g id="edge2" class="edge">
<title>Node1&#45;&gt;Node3</title>
<path fill="none" stroke="midnightblue" d="M104.35,-109.3C112.57,-111.18 121.2,-113.17 129.79,-115.14"/>
<polygon fill="midnightblue" stroke="midnightblue" points="129.28,-118.62 139.81,-117.44 130.85,-111.79 129.28,-118.62"/>
</g>
<!-- Node5 -->
<g id="node5" class="node">
<title>Node5</title>
<g id="a_node5"><a xlink:href="a01353.html#a7ee672618f7fe9ce6938978d93d18514" target="_top" xlink:title=" ">
<polygon fill="white" stroke="black" points="142.5,-49.5 142.5,-79.5 261.5,-79.5 261.5,-49.5 142.5,-49.5"/>
<text text-anchor="start" x="150.5" y="-67.5" font-family="Helvetica,sans-Serif" font-size="10.00">HF::RayTracer::MultiRT</text>
<text text-anchor="middle" x="202" y="-56.5" font-family="Helvetica,sans-Serif" font-size="10.00">::Intersect</text>
</a>
</g>
</g>
<!-- Node1&#45;&gt;Node5 -->
<g id="edge4" class="edge">
<title>Node1&#45;&gt;Node5</title>
<path fill="none" stroke="midnightblue" d="M104.35,-86.05C113.46,-84.02 123.07,-81.88 132.56,-79.76"/>
<polygon fill="midnightblue" stroke="midnightblue" points="133.39,-83.16 142.39,-77.57 131.86,-76.33 133.39,-83.16"/>
</g>
<!-- Node6 -->
<g id="node6" class="node">
<title>Node6</title>
<g id="a_node6"><a xlink:href="a00397.html#a5ad3e8fac4a21eee744f3633f7a3692f" target="_top" xlink:title="Move a node in direction by dist units.">
<polygon fill="white" stroke="black" points="150,-0.5 150,-30.5 254,-30.5 254,-0.5 150,-0.5"/>
<text text-anchor="start" x="158" y="-18.5" font-family="Helvetica,sans-Serif" font-size="10.00">HF::GraphGenerator</text>
<text text-anchor="middle" x="202" y="-7.5" font-family="Helvetica,sans-Serif" font-size="10.00">::MoveNode</text>
</a>
</g>
</g>
<!-- Node1&#45;&gt;Node6 -->
<g id="edge6" class="edge">
<title>Node1&#45;&gt;Node6</title>
<path fill="none" stroke="midnightblue" d="M73.76,-82.27C90.97,-70.05 116.35,-52.95 140,-40.5 143.76,-38.52 147.71,-36.59 151.72,-34.74"/>
<polygon fill="midnightblue" stroke="midnightblue" points="153.4,-37.82 161.12,-30.56 150.56,-31.42 153.4,-37.82"/>
</g>
<!-- Node4 -->
<g id="node4" class="node">
<title>Node4</title>
<g id="a_node4"><a xlink:href="a00398.html#a2630761a64fac02a4ee33abaf5c885a1" target="_top" xlink:title=" ">
<polygon fill="white" stroke="black" points="300,-122 300,-141 437,-141 437,-122 300,-122"/>
<text text-anchor="middle" x="368.5" y="-129" font-family="Helvetica,sans-Serif" font-size="10.00">HF::RayTracer::DidIntersect</text>
</a>
</g>
</g>
<!-- Node3&#45;&gt;Node4 -->
<g id="edge3" class="edge">
<title>Node3&#45;&gt;Node4</title>
<path fill="none" stroke="midnightblue" d="M264.25,-131.5C272.59,-131.5 281.24,-131.5 289.82,-131.5"/>
<polygon fill="midnightblue" stroke="midnightblue" points="289.84,-135 299.84,-131.5 289.84,-128 289.84,-135"/>
</g>
<!-- Node5&#45;&gt;Node5 -->
<g id="edge5" class="edge">
<title>Node5&#45;&gt;Node5</title>
<path fill="none" stroke="midnightblue" d="M175.86,-79.66C169.56,-89.06 178.27,-98 202,-98 216.46,-98 225.35,-94.68 228.65,-89.96"/>
<polygon fill="midnightblue" stroke="midnightblue" points="232.13,-89.47 228.14,-79.66 225.14,-89.82 232.13,-89.47"/>
</g>
</g>
</svg>
