<?xml version="1.0" encoding="UTF-8" standalone="no"?>
<!DOCTYPE svg PUBLIC "-//W3C//DTD SVG 1.1//EN"
 "http://www.w3.org/Graphics/SVG/1.1/DTD/svg11.dtd">
<!-- Generated by graphviz version 8.0.5 (20230430.1635)
 -->
<!-- Title: Cinterface/view_analysis_C.h Pages: 1 -->
<svg width="224pt" height="140pt"
 viewBox="0.00 0.00 223.75 140.00" xmlns="http://www.w3.org/2000/svg" xmlns:xlink="http://www.w3.org/1999/xlink">
<g id="graph0" class="graph" transform="scale(1 1) rotate(0) translate(4 136)">
<title>Cinterface/view_analysis_C.h</title>
<!-- Node1 -->
<g id="node1" class="node">
<title>Node1</title>
<g id="a_node1"><a xlink:title="Header file for conducting view analysis via the C Interface.">
<polygon fill="#999999" stroke="#666666" points="142,-132 0,-132 0,-112 142,-112 142,-132"/>
<text text-anchor="middle" x="71" y="-118.5" font-family="Helvetica,sans-Serif" font-size="10.00">Cinterface/view_analysis_C.h</text>
</a>
</g>
</g>
<!-- Node2 -->
<g id="node2" class="node">
<title>Node2</title>
<g id="a_node2"><a xlink:href="a00347.html" target="_top" xlink:title=" ">
<polygon fill="white" stroke="#666666" points="215.75,-76 126.25,-76 126.25,-56 215.75,-56 215.75,-76"/>
<text text-anchor="middle" x="171" y="-62.5" font-family="Helvetica,sans-Serif" font-size="10.00">cinterface_utils.h</text>
</a>
</g>
</g>
<!-- Node1&#45;&gt;Node2 -->
<g id="edge1" class="edge">
<title>Node1&#45;&gt;Node2</title>
<path fill="none" stroke="#63b8ff" d="M88.42,-111.59C103.81,-103.28 126.5,-91.03 144.2,-81.47"/>
<polygon fill="#63b8ff" stroke="#63b8ff" points="145.31,-84.31 152.45,-76.48 141.98,-78.15 145.31,-84.31"/>
</g>
<!-- Node3 -->
<g id="node3" class="node">
<title>Node3</title>
<g id="a_node3"><a xlink:title=" ">
<polygon fill="#e0e0e0" stroke="#999999" points="91.75,-20 50.25,-20 50.25,0 91.75,0 91.75,-20"/>
<text text-anchor="middle" x="71" y="-6.5" font-family="Helvetica,sans-Serif" font-size="10.00">vector</text>
</a>
</g>
</g>
<!-- Node1&#45;&gt;Node3 -->
<g id="edge4" class="edge">
<title>Node1&#45;&gt;Node3</title>
<path fill="none" stroke="#63b8ff" d="M56.32,-111.54C45.4,-103.56 31.32,-91.03 25,-76 17.29,-57.68 32.75,-39.43 47.79,-26.96"/>
<polygon fill="#63b8ff" stroke="#63b8ff" points="49.62,-29.19 55.41,-20.32 45.35,-23.65 49.62,-29.19"/>
</g>
<!-- Node5 -->
<g id="node5" class="node">
<title>Node5</title>
<g id="a_node5"><a xlink:href="a00365.html" target="_top" xlink:title="C Interface header file for Raytracer functionality.">
<polygon fill="white" stroke="#666666" points="108.25,-76 33.75,-76 33.75,-56 108.25,-56 108.25,-76"/>
<text text-anchor="middle" x="71" y="-62.5" font-family="Helvetica,sans-Serif" font-size="10.00">raytracer_C.h</text>
</a>
</g>
</g>
<!-- Node1&#45;&gt;Node5 -->
<g id="edge5" class="edge">
<title>Node1&#45;&gt;Node5</title>
<path fill="none" stroke="#63b8ff" d="M71,-111.59C71,-104.86 71,-95.53 71,-87.15"/>
<polygon fill="#63b8ff" stroke="#63b8ff" points="74.5,-87.3 71,-77.3 67.5,-87.3 74.5,-87.3"/>
</g>
<!-- Node2&#45;&gt;Node3 -->
<g id="edge2" class="edge">
<title>Node2&#45;&gt;Node3</title>
<path fill="none" stroke="#63b8ff" d="M153.58,-55.59C138.19,-47.28 115.5,-35.03 97.8,-25.47"/>
<polygon fill="#63b8ff" stroke="#63b8ff" points="100.02,-22.15 89.55,-20.48 96.69,-28.31 100.02,-22.15"/>
</g>
<!-- Node4 -->
<g id="node4" class="node">
<title>Node4</title>
<g id="a_node4"><a xlink:title=" ">
<polygon fill="#e0e0e0" stroke="#999999" points="168.88,-20 131.13,-20 131.13,0 168.88,0 168.88,-20"/>
<text text-anchor="middle" x="150" y="-6.5" font-family="Helvetica,sans-Serif" font-size="10.00">array</text>
</a>
</g>
</g>
<!-- Node2&#45;&gt;Node4 -->
<g id="edge3" class="edge">
<title>Node2&#45;&gt;Node4</title>
<path fill="none" stroke="#63b8ff" d="M167.34,-55.59C164.63,-48.63 160.84,-38.89 157.5,-30.29"/>
<polygon fill="#63b8ff" stroke="#63b8ff" points="160.5,-29.35 153.62,-21.3 153.98,-31.89 160.5,-29.35"/>
</g>
<!-- Node5&#45;&gt;Node3 -->
<g id="edge6" class="edge">
<title>Node5&#45;&gt;Node3</title>
<path fill="none" stroke="#63b8ff" d="M71,-55.59C71,-48.86 71,-39.53 71,-31.15"/>
<polygon fill="#63b8ff" stroke="#63b8ff" points="74.5,-31.3 71,-21.3 67.5,-31.3 74.5,-31.3"/>
</g>
<!-- Node5&#45;&gt;Node4 -->
<g id="edge7" class="edge">
<title>Node5&#45;&gt;Node4</title>
<path fill="none" stroke="#63b8ff" d="M84.76,-55.59C96.47,-47.59 113.52,-35.93 127.26,-26.54"/>
<polygon fill="#63b8ff" stroke="#63b8ff" points="128.85,-29.01 135.13,-20.48 124.9,-23.23 128.85,-29.01"/>
</g>
</g>
</svg>
