<?xml version="1.0" encoding="UTF-8" standalone="no"?>
<!DOCTYPE svg PUBLIC "-//W3C//DTD SVG 1.1//EN"
 "http://www.w3.org/Graphics/SVG/1.1/DTD/svg11.dtd">
<!-- Generated by graphviz version 2.43.0 (0)
 -->
<!-- Title: Cpp/tests/src/spatialstructures_C_cinterface.cpp Pages: 1 -->
<svg width="823pt" height="263pt"
 viewBox="0.00 0.00 822.97 263.00" xmlns="http://www.w3.org/2000/svg" xmlns:xlink="http://www.w3.org/1999/xlink">
<g id="graph0" class="graph" transform="scale(1 1) rotate(0) translate(4 259)">
<title>Cpp/tests/src/spatialstructures_C_cinterface.cpp</title>
<polygon fill="white" stroke="transparent" points="-4,4 -4,-259 818.97,-259 818.97,4 -4,4"/>
<!-- Node1 -->
<g id="node1" class="node">
<title>Node1</title>
<g id="a_node1"><a xlink:title="Unit test source file for functions tested from spatialstructures_C.h.">
<polygon fill="#bfbfbf" stroke="black" points="299.79,-224.5 299.79,-254.5 463.79,-254.5 463.79,-224.5 299.79,-224.5"/>
<text text-anchor="start" x="307.79" y="-242.5" font-family="Helvetica,sans-Serif" font-size="10.00">Cpp/tests/src/spatialstructures</text>
<text text-anchor="middle" x="381.79" y="-231.5" font-family="Helvetica,sans-Serif" font-size="10.00">_C_cinterface.cpp</text>
</a>
</g>
</g>
<!-- Node2 -->
<g id="node2" class="node">
<title>Node2</title>
<g id="a_node2"><a xlink:title=" ">
<polygon fill="white" stroke="#bfbfbf" points="94.79,-168.5 94.79,-187.5 172.79,-187.5 172.79,-168.5 94.79,-168.5"/>
<text text-anchor="middle" x="133.79" y="-175.5" font-family="Helvetica,sans-Serif" font-size="10.00">gtest/gtest.h</text>
</a>
</g>
</g>
<!-- Node1&#45;&gt;Node2 -->
<g id="edge1" class="edge">
<title>Node1&#45;&gt;Node2</title>
<path fill="none" stroke="midnightblue" d="M323.33,-224.47C279.24,-213.9 219.63,-199.59 179.11,-189.87"/>
<polygon fill="midnightblue" stroke="midnightblue" points="179.78,-186.44 169.24,-187.51 178.15,-193.24 179.78,-186.44"/>
</g>
<!-- Node3 -->
<g id="node3" class="node">
<title>Node3</title>
<g id="a_node3"><a xlink:href="a00203.html" target="_top" xlink:title="Contains definitions for the Graph &#160;class.">
<polygon fill="white" stroke="black" points="191.29,-168.5 191.29,-187.5 244.29,-187.5 244.29,-168.5 191.29,-168.5"/>
<text text-anchor="middle" x="217.79" y="-175.5" font-family="Helvetica,sans-Serif" font-size="10.00">graph.h</text>
</a>
</g>
</g>
<!-- Node1&#45;&gt;Node3 -->
<g id="edge2" class="edge">
<title>Node1&#45;&gt;Node3</title>
<path fill="none" stroke="midnightblue" d="M342.92,-224.4C315.04,-214.28 277.85,-200.79 251.27,-191.15"/>
<polygon fill="midnightblue" stroke="midnightblue" points="252.25,-187.78 241.65,-187.66 249.86,-194.36 252.25,-187.78"/>
</g>
<!-- Node12 -->
<g id="node12" class="node">
<title>Node12</title>
<g id="a_node12"><a xlink:href="a00185.html" target="_top" xlink:title="Contains definitions for the HF::SpatialStructures namespace.">
<polygon fill="white" stroke="black" points="345.29,-168.5 345.29,-187.5 418.29,-187.5 418.29,-168.5 345.29,-168.5"/>
<text text-anchor="middle" x="381.79" y="-175.5" font-family="Helvetica,sans-Serif" font-size="10.00">constants.h</text>
</a>
</g>
</g>
<!-- Node1&#45;&gt;Node12 -->
<g id="edge13" class="edge">
<title>Node1&#45;&gt;Node12</title>
<path fill="none" stroke="midnightblue" d="M381.79,-224.4C381.79,-216.47 381.79,-206.46 381.79,-197.86"/>
<polygon fill="midnightblue" stroke="midnightblue" points="385.29,-197.66 381.79,-187.66 378.29,-197.66 385.29,-197.66"/>
</g>
<!-- Node14 -->
<g id="node14" class="node">
<title>Node14</title>
<g id="a_node14"><a xlink:href="a00110.html" target="_top" xlink:title="Contains definitions for the Exceptions namespace.">
<polygon fill="white" stroke="black" points="457.79,-168.5 457.79,-187.5 549.79,-187.5 549.79,-168.5 457.79,-168.5"/>
<text text-anchor="middle" x="503.79" y="-175.5" font-family="Helvetica,sans-Serif" font-size="10.00">HFExceptions.h</text>
</a>
</g>
</g>
<!-- Node1&#45;&gt;Node14 -->
<g id="edge15" class="edge">
<title>Node1&#45;&gt;Node14</title>
<path fill="none" stroke="midnightblue" d="M410.7,-224.4C430.8,-214.59 457.41,-201.62 477.03,-192.05"/>
<polygon fill="midnightblue" stroke="midnightblue" points="478.58,-195.19 486.04,-187.66 475.51,-188.9 478.58,-195.19"/>
</g>
<!-- Node18 -->
<g id="node18" class="node">
<title>Node18</title>
<g id="a_node18"><a xlink:href="a00371.html" target="_top" xlink:title="Header file related to manipulating nodes, edges, and graphs via CInterface.">
<polygon fill="white" stroke="black" points="648.29,-168.5 648.29,-187.5 767.29,-187.5 767.29,-168.5 648.29,-168.5"/>
<text text-anchor="middle" x="707.79" y="-175.5" font-family="Helvetica,sans-Serif" font-size="10.00">spatialstructures_C.h</text>
</a>
</g>
</g>
<!-- Node1&#45;&gt;Node18 -->
<g id="edge19" class="edge">
<title>Node1&#45;&gt;Node18</title>
<path fill="none" stroke="midnightblue" d="M458.63,-224.47C517.7,-213.69 597.95,-199.05 651.23,-189.32"/>
<polygon fill="midnightblue" stroke="midnightblue" points="651.97,-192.75 661.18,-187.51 650.72,-185.86 651.97,-192.75"/>
</g>
<!-- Node4 -->
<g id="node4" class="node">
<title>Node4</title>
<g id="a_node4"><a xlink:title=" ">
<polygon fill="white" stroke="#bfbfbf" points="221.79,-112.5 221.79,-131.5 301.79,-131.5 301.79,-112.5 221.79,-112.5"/>
<text text-anchor="middle" x="261.79" y="-119.5" font-family="Helvetica,sans-Serif" font-size="10.00">robin_hood.h</text>
</a>
</g>
</g>
<!-- Node3&#45;&gt;Node4 -->
<g id="edge3" class="edge">
<title>Node3&#45;&gt;Node4</title>
<path fill="none" stroke="midnightblue" d="M225.05,-168.08C231.33,-160.38 240.58,-149.03 248.22,-139.65"/>
<polygon fill="midnightblue" stroke="midnightblue" points="251.05,-141.71 254.66,-131.75 245.63,-137.29 251.05,-141.71"/>
</g>
<!-- Node5 -->
<g id="node5" class="node">
<title>Node5</title>
<g id="a_node5"><a xlink:title=" ">
<polygon fill="white" stroke="#bfbfbf" points="475.29,-56.5 475.29,-75.5 522.29,-75.5 522.29,-56.5 475.29,-56.5"/>
<text text-anchor="middle" x="498.79" y="-63.5" font-family="Helvetica,sans-Serif" font-size="10.00">vector</text>
</a>
</g>
</g>
<!-- Node3&#45;&gt;Node5 -->
<g id="edge4" class="edge">
<title>Node3&#45;&gt;Node5</title>
<path fill="none" stroke="midnightblue" d="M236.05,-168.39C254.87,-159.46 285.01,-145.02 310.79,-132 327.82,-123.4 331.12,-119.22 348.79,-112 387.79,-96.06 434.55,-82.93 465.37,-75.04"/>
<polygon fill="midnightblue" stroke="midnightblue" points="466.34,-78.41 475.18,-72.58 464.63,-71.62 466.34,-78.41"/>
</g>
<!-- Node6 -->
<g id="node6" class="node">
<title>Node6</title>
<g id="a_node6"><a xlink:href="a00197.html" target="_top" xlink:title="Contains definitions for the Edge structure.">
<polygon fill="white" stroke="black" points="13.79,-112.5 13.79,-131.5 63.79,-131.5 63.79,-112.5 13.79,-112.5"/>
<text text-anchor="middle" x="38.79" y="-119.5" font-family="Helvetica,sans-Serif" font-size="10.00">Edge.h</text>
</a>
</g>
</g>
<!-- Node3&#45;&gt;Node6 -->
<g id="edge5" class="edge">
<title>Node3&#45;&gt;Node6</title>
<path fill="none" stroke="midnightblue" d="M190.99,-168.92C159.74,-159.49 108.01,-143.88 73.66,-133.52"/>
<polygon fill="midnightblue" stroke="midnightblue" points="74.62,-130.15 64.03,-130.62 72.59,-136.85 74.62,-130.15"/>
</g>
<!-- Node7 -->
<g id="node7" class="node">
<title>Node7</title>
<g id="a_node7"><a xlink:href="a00209.html" target="_top" xlink:title="Contains definitions for the Node structure.">
<polygon fill="white" stroke="black" points="13.79,-56.5 13.79,-75.5 63.79,-75.5 63.79,-56.5 13.79,-56.5"/>
<text text-anchor="middle" x="38.79" y="-63.5" font-family="Helvetica,sans-Serif" font-size="10.00">node.h</text>
</a>
</g>
</g>
<!-- Node3&#45;&gt;Node7 -->
<g id="edge10" class="edge">
<title>Node3&#45;&gt;Node7</title>
<path fill="none" stroke="midnightblue" d="M191.08,-170.18C187.95,-169.43 184.8,-168.68 181.79,-168 103.5,-150.26 55.58,-194.16 4.79,-132 -7.59,-116.86 7.12,-96.49 20.87,-82.62"/>
<polygon fill="midnightblue" stroke="midnightblue" points="23.37,-85.07 28.23,-75.65 18.56,-79.98 23.37,-85.07"/>
</g>
<!-- Node10 -->
<g id="node10" class="node">
<title>Node10</title>
<g id="a_node10"><a xlink:title=" ">
<polygon fill="white" stroke="#bfbfbf" points="81.79,-112.5 81.79,-131.5 125.79,-131.5 125.79,-112.5 81.79,-112.5"/>
<text text-anchor="middle" x="103.79" y="-119.5" font-family="Helvetica,sans-Serif" font-size="10.00">Eigen</text>
</a>
</g>
</g>
<!-- Node3&#45;&gt;Node10 -->
<g id="edge11" class="edge">
<title>Node3&#45;&gt;Node10</title>
<path fill="none" stroke="midnightblue" d="M199.72,-168.44C181.21,-159.68 152.21,-145.94 130.93,-135.86"/>
<polygon fill="midnightblue" stroke="midnightblue" points="132.3,-132.63 121.77,-131.52 129.31,-138.96 132.3,-132.63"/>
</g>
<!-- Node11 -->
<g id="node11" class="node">
<title>Node11</title>
<g id="a_node11"><a xlink:title=" ">
<polygon fill="white" stroke="#bfbfbf" points="143.79,-112.5 143.79,-131.5 203.79,-131.5 203.79,-112.5 143.79,-112.5"/>
<text text-anchor="middle" x="173.79" y="-119.5" font-family="Helvetica,sans-Serif" font-size="10.00">iostream</text>
</a>
</g>
</g>
<!-- Node3&#45;&gt;Node11 -->
<g id="edge12" class="edge">
<title>Node3&#45;&gt;Node11</title>
<path fill="none" stroke="midnightblue" d="M210.52,-168.08C204.24,-160.38 195,-149.03 187.36,-139.65"/>
<polygon fill="midnightblue" stroke="midnightblue" points="189.95,-137.29 180.92,-131.75 184.52,-141.71 189.95,-137.29"/>
</g>
<!-- Node6&#45;&gt;Node5 -->
<g id="edge9" class="edge">
<title>Node6&#45;&gt;Node5</title>
<path fill="none" stroke="midnightblue" d="M63.94,-113.88C66.91,-113.18 69.91,-112.53 72.79,-112 217.15,-85.43 392.12,-73.08 464.7,-68.82"/>
<polygon fill="midnightblue" stroke="midnightblue" points="465.27,-72.29 475.05,-68.23 464.87,-65.3 465.27,-72.29"/>
</g>
<!-- Node6&#45;&gt;Node7 -->
<g id="edge6" class="edge">
<title>Node6&#45;&gt;Node7</title>
<path fill="none" stroke="midnightblue" d="M38.79,-112.08C38.79,-105.01 38.79,-94.86 38.79,-85.99"/>
<polygon fill="midnightblue" stroke="midnightblue" points="42.29,-85.75 38.79,-75.75 35.29,-85.75 42.29,-85.75"/>
</g>
<!-- Node8 -->
<g id="node8" class="node">
<title>Node8</title>
<g id="a_node8"><a xlink:title=" ">
<polygon fill="white" stroke="#bfbfbf" points="726.79,-0.5 726.79,-19.5 768.79,-19.5 768.79,-0.5 726.79,-0.5"/>
<text text-anchor="middle" x="747.79" y="-7.5" font-family="Helvetica,sans-Serif" font-size="10.00">array</text>
</a>
</g>
</g>
<!-- Node7&#45;&gt;Node8 -->
<g id="edge7" class="edge">
<title>Node7&#45;&gt;Node8</title>
<path fill="none" stroke="midnightblue" d="M64.02,-63.08C172.27,-54.83 597.2,-22.47 716.49,-13.38"/>
<polygon fill="midnightblue" stroke="midnightblue" points="717.05,-16.85 726.75,-12.6 716.52,-9.87 717.05,-16.85"/>
</g>
<!-- Node9 -->
<g id="node9" class="node">
<title>Node9</title>
<g id="a_node9"><a xlink:title=" ">
<polygon fill="white" stroke="#bfbfbf" points="10.29,-0.5 10.29,-19.5 67.29,-19.5 67.29,-0.5 10.29,-0.5"/>
<text text-anchor="middle" x="38.79" y="-7.5" font-family="Helvetica,sans-Serif" font-size="10.00">ostream</text>
</a>
</g>
</g>
<!-- Node7&#45;&gt;Node9 -->
<g id="edge8" class="edge">
<title>Node7&#45;&gt;Node9</title>
<path fill="none" stroke="midnightblue" d="M38.79,-56.08C38.79,-49.01 38.79,-38.86 38.79,-29.99"/>
<polygon fill="midnightblue" stroke="midnightblue" points="42.29,-29.75 38.79,-19.75 35.29,-29.75 42.29,-29.75"/>
</g>
<!-- Node13 -->
<g id="node13" class="node">
<title>Node13</title>
<g id="a_node13"><a xlink:title=" ">
<polygon fill="white" stroke="#bfbfbf" points="358.29,-112.5 358.29,-131.5 405.29,-131.5 405.29,-112.5 358.29,-112.5"/>
<text text-anchor="middle" x="381.79" y="-119.5" font-family="Helvetica,sans-Serif" font-size="10.00">cmath</text>
</a>
</g>
</g>
<!-- Node12&#45;&gt;Node13 -->
<g id="edge14" class="edge">
<title>Node12&#45;&gt;Node13</title>
<path fill="none" stroke="midnightblue" d="M381.79,-168.08C381.79,-161.01 381.79,-150.86 381.79,-141.99"/>
<polygon fill="midnightblue" stroke="midnightblue" points="385.29,-141.75 381.79,-131.75 378.29,-141.75 385.29,-141.75"/>
</g>
<!-- Node15 -->
<g id="node15" class="node">
<title>Node15</title>
<g id="a_node15"><a xlink:title=" ">
<polygon fill="white" stroke="#bfbfbf" points="575.29,-112.5 575.29,-131.5 640.29,-131.5 640.29,-112.5 575.29,-112.5"/>
<text text-anchor="middle" x="607.79" y="-119.5" font-family="Helvetica,sans-Serif" font-size="10.00">exception</text>
</a>
</g>
</g>
<!-- Node14&#45;&gt;Node15 -->
<g id="edge16" class="edge">
<title>Node14&#45;&gt;Node15</title>
<path fill="none" stroke="midnightblue" d="M520.5,-168.32C537.1,-159.7 562.79,-146.36 582.01,-136.39"/>
<polygon fill="midnightblue" stroke="midnightblue" points="583.86,-139.37 591.12,-131.65 580.63,-133.16 583.86,-139.37"/>
</g>
<!-- Node16 -->
<g id="node16" class="node">
<title>Node16</title>
<g id="a_node16"><a xlink:title=" ">
<polygon fill="white" stroke="#bfbfbf" points="423.79,-112.5 423.79,-131.5 473.79,-131.5 473.79,-112.5 423.79,-112.5"/>
<text text-anchor="middle" x="448.79" y="-119.5" font-family="Helvetica,sans-Serif" font-size="10.00">cstring</text>
</a>
</g>
</g>
<!-- Node14&#45;&gt;Node16 -->
<g id="edge17" class="edge">
<title>Node14&#45;&gt;Node16</title>
<path fill="none" stroke="midnightblue" d="M494.71,-168.08C486.62,-160.14 474.59,-148.34 464.88,-138.8"/>
<polygon fill="midnightblue" stroke="midnightblue" points="467.29,-136.26 457.7,-131.75 462.38,-141.25 467.29,-136.26"/>
</g>
<!-- Node17 -->
<g id="node17" class="node">
<title>Node17</title>
<g id="a_node17"><a xlink:title=" ">
<polygon fill="white" stroke="#bfbfbf" points="492.29,-112.5 492.29,-131.5 557.29,-131.5 557.29,-112.5 492.29,-112.5"/>
<text text-anchor="middle" x="524.79" y="-119.5" font-family="Helvetica,sans-Serif" font-size="10.00">stdexcept</text>
</a>
</g>
</g>
<!-- Node14&#45;&gt;Node17 -->
<g id="edge18" class="edge">
<title>Node14&#45;&gt;Node17</title>
<path fill="none" stroke="midnightblue" d="M507.26,-168.08C510.1,-160.77 514.22,-150.18 517.75,-141.1"/>
<polygon fill="midnightblue" stroke="midnightblue" points="521.02,-142.34 521.38,-131.75 514.5,-139.8 521.02,-142.34"/>
</g>
<!-- Node18&#45;&gt;Node5 -->
<g id="edge23" class="edge">
<title>Node18&#45;&gt;Node5</title>
<path fill="none" stroke="midnightblue" d="M702.48,-168.46C693.39,-154.56 673.53,-127.08 649.79,-112 613.48,-88.94 564.82,-77.23 532.67,-71.63"/>
<polygon fill="midnightblue" stroke="midnightblue" points="532.87,-68.12 522.44,-69.96 531.74,-75.02 532.87,-68.12"/>
</g>
<!-- Node18&#45;&gt;Node8 -->
<g id="edge24" class="edge">
<title>Node18&#45;&gt;Node8</title>
<path fill="none" stroke="midnightblue" d="M752.48,-168.48C773.01,-162.09 795.49,-151.02 807.79,-132 830.99,-96.11 790.74,-49.99 765.63,-26.4"/>
<polygon fill="midnightblue" stroke="midnightblue" points="767.86,-23.7 758.1,-19.57 763.16,-28.88 767.86,-23.7"/>
</g>
<!-- Node19 -->
<g id="node19" class="node">
<title>Node19</title>
<g id="a_node19"><a xlink:href="a00347.html" target="_top" xlink:title=" ">
<polygon fill="white" stroke="black" points="697.29,-112.5 697.29,-131.5 798.29,-131.5 798.29,-112.5 697.29,-112.5"/>
<text text-anchor="middle" x="747.79" y="-119.5" font-family="Helvetica,sans-Serif" font-size="10.00">cinterface_utils.h</text>
</a>
</g>
</g>
<!-- Node18&#45;&gt;Node19 -->
<g id="edge20" class="edge">
<title>Node18&#45;&gt;Node19</title>
<path fill="none" stroke="midnightblue" d="M714.39,-168.08C720.04,-160.46 728.33,-149.26 735.24,-139.94"/>
<polygon fill="midnightblue" stroke="midnightblue" points="738.17,-141.87 741.31,-131.75 732.54,-137.7 738.17,-141.87"/>
</g>
<!-- Node19&#45;&gt;Node5 -->
<g id="edge21" class="edge">
<title>Node19&#45;&gt;Node5</title>
<path fill="none" stroke="midnightblue" d="M708.33,-112.44C659.73,-101.9 578.02,-84.18 532.32,-74.27"/>
<polygon fill="midnightblue" stroke="midnightblue" points="532.84,-70.8 522.32,-72.1 531.35,-77.64 532.84,-70.8"/>
</g>
<!-- Node19&#45;&gt;Node8 -->
<g id="edge22" class="edge">
<title>Node19&#45;&gt;Node8</title>
<path fill="none" stroke="midnightblue" d="M747.79,-112.37C747.79,-94.62 747.79,-53.67 747.79,-29.6"/>
<polygon fill="midnightblue" stroke="midnightblue" points="751.29,-29.59 747.79,-19.59 744.29,-29.59 751.29,-29.59"/>
</g>
</g>
</svg>
