<?xml version="1.0" encoding="UTF-8" standalone="no"?>
<!DOCTYPE svg PUBLIC "-//W3C//DTD SVG 1.1//EN"
 "http://www.w3.org/Graphics/SVG/1.1/DTD/svg11.dtd">
<!-- Generated by graphviz version 2.43.0 (0)
 -->
<!-- Title: CreateRaytracer Pages: 1 -->
<svg width="422pt" height="116pt"
 viewBox="0.00 0.00 422.00 115.50" xmlns="http://www.w3.org/2000/svg" xmlns:xlink="http://www.w3.org/1999/xlink">
<g id="graph0" class="graph" transform="scale(1 1) rotate(0) translate(4 111.5)">
<title>CreateRaytracer</title>
<polygon fill="white" stroke="transparent" points="-4,4 -4,-111.5 418,-111.5 418,4 -4,4"/>
<!-- Node1 -->
<g id="node1" class="node">
<title>Node1</title>
<g id="a_node1"><a xlink:title="Create a new raytracer using several meshes.">
<polygon fill="#bfbfbf" stroke="black" points="318,-38.5 318,-57.5 414,-57.5 414,-38.5 318,-38.5"/>
<text text-anchor="middle" x="366" y="-45.5" font-family="Helvetica,sans-Serif" font-size="10.00">CreateRaytracer</text>
</a>
</g>
</g>
<!-- Node2 -->
<g id="node2" class="node">
<title>Node2</title>
<g id="a_node2"><a xlink:href="a00416.html#a1436297bd9d52cd225da8671e20252f3" target="_top" xlink:title=" ">
<polygon fill="white" stroke="black" points="138,-77 138,-107 282,-107 282,-77 138,-77"/>
<text text-anchor="start" x="146" y="-95" font-family="Helvetica,sans-Serif" font-size="10.00">C_Interface::ConstructTest</text>
<text text-anchor="middle" x="210" y="-84" font-family="Helvetica,sans-Serif" font-size="10.00">Raytracer</text>
</a>
</g>
</g>
<!-- Node1&#45;&gt;Node2 -->
<g id="edge1" class="edge">
<title>Node1&#45;&gt;Node2</title>
<path fill="none" stroke="midnightblue" d="M321.91,-60.31C303.86,-65.47 282.7,-71.51 263.73,-76.93"/>
<polygon fill="midnightblue" stroke="midnightblue" points="322.93,-63.66 331.58,-57.55 321.01,-56.93 322.93,-63.66"/>
</g>
<!-- Node4 -->
<g id="node4" class="node">
<title>Node4</title>
<g id="a_node4"><a xlink:href="a00414.html#a23a939bc7a94fd17d9f035dae4d0aee1" target="_top" xlink:title=" ">
<polygon fill="white" stroke="black" points="149,-38.5 149,-57.5 271,-57.5 271,-38.5 149,-38.5"/>
<text text-anchor="middle" x="210" y="-45.5" font-family="Helvetica,sans-Serif" font-size="10.00">CInterfaceTests::TEST</text>
</a>
</g>
</g>
<!-- Node1&#45;&gt;Node4 -->
<g id="edge3" class="edge">
<title>Node1&#45;&gt;Node4</title>
<path fill="none" stroke="midnightblue" d="M307.68,-48C295.75,-48 283.15,-48 271.12,-48"/>
<polygon fill="midnightblue" stroke="midnightblue" points="307.96,-51.5 317.96,-48 307.96,-44.5 307.96,-51.5"/>
</g>
<!-- Node5 -->
<g id="node5" class="node">
<title>Node5</title>
<g id="a_node5"><a xlink:href="a00329.html#acb30ac5ae6c21828a68b922767b6916f" target="_top" xlink:title=" ">
<polygon fill="white" stroke="black" points="189.5,-0.5 189.5,-19.5 230.5,-19.5 230.5,-0.5 189.5,-0.5"/>
<text text-anchor="middle" x="210" y="-7.5" font-family="Helvetica,sans-Serif" font-size="10.00">TEST</text>
</a>
</g>
</g>
<!-- Node1&#45;&gt;Node5 -->
<g id="edge4" class="edge">
<title>Node1&#45;&gt;Node5</title>
<path fill="none" stroke="midnightblue" d="M316.17,-35.95C287.18,-28.8 252,-20.12 230.57,-14.83"/>
<polygon fill="midnightblue" stroke="midnightblue" points="315.59,-39.41 326.14,-38.41 317.27,-32.62 315.59,-39.41"/>
</g>
<!-- Node3 -->
<g id="node3" class="node">
<title>Node3</title>
<g id="a_node3"><a xlink:href="a00416.html#ab5b50e884ef382c46bffdea00b41cc23" target="_top" xlink:title=" ">
<polygon fill="white" stroke="black" points="0,-82.5 0,-101.5 102,-101.5 102,-82.5 0,-82.5"/>
<text text-anchor="middle" x="51" y="-89.5" font-family="Helvetica,sans-Serif" font-size="10.00">C_Interface::TEST</text>
</a>
</g>
</g>
<!-- Node2&#45;&gt;Node3 -->
<g id="edge2" class="edge">
<title>Node2&#45;&gt;Node3</title>
<path fill="none" stroke="midnightblue" d="M127.69,-92C119.03,-92 110.42,-92 102.27,-92"/>
<polygon fill="midnightblue" stroke="midnightblue" points="127.85,-95.5 137.85,-92 127.85,-88.5 127.85,-95.5"/>
</g>
</g>
</svg>
