<?xml version="1.0" encoding="UTF-8" standalone="no"?>
<!DOCTYPE svg PUBLIC "-//W3C//DTD SVG 1.1//EN"
 "http://www.w3.org/Graphics/SVG/1.1/DTD/svg11.dtd">
<!-- Generated by graphviz version 7.0.2 (20221119.0110)
 -->
<!-- Title: CreatePath Pages: 1 -->
<svg width="583pt" height="212pt"
 viewBox="0.00 0.00 583.00 212.00" xmlns="http://www.w3.org/2000/svg" xmlns:xlink="http://www.w3.org/1999/xlink">
<g id="graph0" class="graph" transform="scale(1 1) rotate(0) translate(4 208)">
<title>CreatePath</title>
<!-- Node1 -->
<g id="node1" class="node">
<title>Node1</title>
<g id="a_node1"><a xlink:title="Find the shortest path from start to end.">
<polygon fill="#999999" stroke="#666666" points="65,-107.5 0,-107.5 0,-88.5 65,-88.5 65,-107.5"/>
<text text-anchor="middle" x="32.5" y="-95.5" font-family="Helvetica,sans-Serif" font-size="10.00">CreatePath</text>
</a>
</g>
</g>
<!-- Node2 -->
<g id="node2" class="node">
<title>Node2</title>
<g id="a_node2"><a xlink:href="a00406.html#ae2106e09eb44d681fbc6c0f66a3d3ac4" target="_top" xlink:title="Create a new boost graph from a HF::SpatialStructures:Graph.">
<polygon fill="white" stroke="#666666" points="244,-204 101,-204 101,-174 244,-174 244,-204"/>
<text text-anchor="start" x="109" y="-192" font-family="Helvetica,sans-Serif" font-size="10.00">HF::Pathfinding::CreateBoost</text>
<text text-anchor="middle" x="172.5" y="-181" font-family="Helvetica,sans-Serif" font-size="10.00">Graph</text>
</a>
</g>
</g>
<!-- Node1&#45;&gt;Node2 -->
<g id="edge1" class="edge">
<title>Node1&#45;&gt;Node2</title>
<path fill="none" stroke="#63b8ff" d="M40.76,-107.59C52.12,-121.98 75.46,-149.17 101,-165 103.02,-166.25 105.11,-167.45 107.25,-168.59"/>
<polygon fill="#63b8ff" stroke="#63b8ff" points="105.69,-171.72 116.22,-172.88 108.71,-165.4 105.69,-171.72"/>
</g>
<!-- Node3 -->
<g id="node3" class="node">
<title>Node3</title>
<g id="a_node3"><a xlink:href="a02017.html#a3066bac2d76b5c8a28b35a8d1f6ace71" target="_top" xlink:title="Determine if this path has any nodes in it.">
<polygon fill="white" stroke="#666666" points="227.5,-156 117.5,-156 117.5,-126 227.5,-126 227.5,-156"/>
<text text-anchor="start" x="125.5" y="-144" font-family="Helvetica,sans-Serif" font-size="10.00">HF::SpatialStructures</text>
<text text-anchor="middle" x="172.5" y="-133" font-family="Helvetica,sans-Serif" font-size="10.00">::Path::empty</text>
</a>
</g>
</g>
<!-- Node1&#45;&gt;Node3 -->
<g id="edge2" class="edge">
<title>Node1&#45;&gt;Node3</title>
<path fill="none" stroke="#63b8ff" d="M65.16,-107.87C78.8,-112.12 95.23,-117.23 111.05,-122.16"/>
<polygon fill="#63b8ff" stroke="#63b8ff" points="109.83,-125.45 120.42,-125.08 111.91,-118.77 109.83,-125.45"/>
</g>
<!-- Node4 -->
<g id="node4" class="node">
<title>Node4</title>
<g id="a_node4"><a xlink:href="a00406.html#a47d06b1c4bd84f4d0a7519ea0e96ff02" target="_top" xlink:title="Find a path between points A and B using Dijkstra&#39;s Shortest Path algorithm.">
<polygon fill="white" stroke="#666666" points="236.5,-107.5 108.5,-107.5 108.5,-88.5 236.5,-88.5 236.5,-107.5"/>
<text text-anchor="middle" x="172.5" y="-95.5" font-family="Helvetica,sans-Serif" font-size="10.00">HF::Pathfinding::FindPath</text>
</a>
</g>
</g>
<!-- Node1&#45;&gt;Node4 -->
<g id="edge3" class="edge">
<title>Node1&#45;&gt;Node4</title>
<path fill="none" stroke="#63b8ff" d="M65.16,-98C74.77,-98 85.76,-98 96.95,-98"/>
<polygon fill="#63b8ff" stroke="#63b8ff" points="96.64,-101.5 106.64,-98 96.64,-94.5 96.64,-101.5"/>
</g>
<!-- Node9 -->
<g id="node9" class="node">
<title>Node9</title>
<g id="a_node9"><a xlink:href="a02017.html#a28f61f0f57b38a5249a11a725d9d692b" target="_top" xlink:title="Determine how many nodes are in this path.">
<polygon fill="white" stroke="#666666" points="575,-71 465,-71 465,-41 575,-41 575,-71"/>
<text text-anchor="start" x="473" y="-59" font-family="Helvetica,sans-Serif" font-size="10.00">HF::SpatialStructures</text>
<text text-anchor="middle" x="520" y="-48" font-family="Helvetica,sans-Serif" font-size="10.00">::Path::size</text>
</a>
</g>
</g>
<!-- Node1&#45;&gt;Node9 -->
<g id="edge10" class="edge">
<title>Node1&#45;&gt;Node9</title>
<path fill="none" stroke="#63b8ff" d="M63.42,-88.05C75.03,-84.6 88.51,-81.08 101,-79 224.3,-58.51 370.58,-55.17 453.32,-55.18"/>
<polygon fill="#63b8ff" stroke="#63b8ff" points="453.29,-58.68 463.3,-55.21 453.3,-51.68 453.29,-58.68"/>
</g>
<!-- Node10 -->
<g id="node10" class="node">
<title>Node10</title>
<g id="a_node10"><a xlink:href="a02017.html#a942cb49007bbeb5588e2d526c68bdcf9" target="_top" xlink:title="Get a pointer to the path&#39;s underlying path members vector.">
<polygon fill="white" stroke="#666666" points="227.5,-30 117.5,-30 117.5,0 227.5,0 227.5,-30"/>
<text text-anchor="start" x="125.5" y="-18" font-family="Helvetica,sans-Serif" font-size="10.00">HF::SpatialStructures</text>
<text text-anchor="middle" x="172.5" y="-7" font-family="Helvetica,sans-Serif" font-size="10.00">::Path::GetPMPointer</text>
</a>
</g>
</g>
<!-- Node1&#45;&gt;Node10 -->
<g id="edge9" class="edge">
<title>Node1&#45;&gt;Node10</title>
<path fill="none" stroke="#63b8ff" d="M43.79,-88.2C56.47,-76.52 79.02,-56.95 101,-44 106.34,-40.85 112.1,-37.88 117.93,-35.13"/>
<polygon fill="#63b8ff" stroke="#63b8ff" points="119.35,-38.33 127.05,-31.05 116.49,-31.94 119.35,-38.33"/>
</g>
<!-- Node5 -->
<g id="node5" class="node">
<title>Node5</title>
<g id="a_node5"><a xlink:href="a00406.html#a9f6490539108da057db2486295458886" target="_top" xlink:title="Build a row of the distance and predecessor matrices for the node at id.">
<polygon fill="white" stroke="#666666" points="429,-164 280,-164 280,-134 429,-134 429,-164"/>
<text text-anchor="start" x="288" y="-152" font-family="Helvetica,sans-Serif" font-size="10.00">HF::Pathfinding::BuildDistance</text>
<text text-anchor="middle" x="354.5" y="-141" font-family="Helvetica,sans-Serif" font-size="10.00">AndPredecessor</text>
</a>
</g>
</g>
<!-- Node4&#45;&gt;Node5 -->
<g id="edge4" class="edge">
<title>Node4&#45;&gt;Node5</title>
<path fill="none" stroke="#63b8ff" d="M210.86,-107.91C221.57,-110.8 233.26,-113.98 244,-117 259.11,-121.24 275.37,-125.93 290.6,-130.37"/>
<polygon fill="#63b8ff" stroke="#63b8ff" points="289.45,-133.68 300.03,-133.13 291.42,-126.96 289.45,-133.68"/>
</g>
<!-- Node6 -->
<g id="node6" class="node">
<title>Node6</title>
<g id="a_node6"><a xlink:href="a00406.html#a977e4c93a977ab4e9e784d1e6fec79f4" target="_top" xlink:title="Construct the shortest path from start to end using the given predecessor and distance vectors.">
<polygon fill="white" stroke="#666666" points="420,-116 289,-116 289,-86 420,-86 420,-116"/>
<text text-anchor="start" x="297" y="-104" font-family="Helvetica,sans-Serif" font-size="10.00">HF::Pathfinding::Construct</text>
<text text-anchor="middle" x="354.5" y="-93" font-family="Helvetica,sans-Serif" font-size="10.00">ShortestPathFromPred</text>
</a>
</g>
</g>
<!-- Node4&#45;&gt;Node6 -->
<g id="edge5" class="edge">
<title>Node4&#45;&gt;Node6</title>
<path fill="none" stroke="#63b8ff" d="M236.96,-99.06C250.09,-99.28 264.04,-99.51 277.56,-99.73"/>
<polygon fill="#63b8ff" stroke="#63b8ff" points="277.22,-103.23 287.27,-99.9 277.33,-96.23 277.22,-103.23"/>
</g>
<!-- Node7 -->
<g id="node7" class="node">
<title>Node7</title>
<g id="a_node7"><a xlink:href="a02017.html#a55ded4e02787eb739770ebe28ef386a9" target="_top" xlink:title="Add a new node to the path.">
<polygon fill="white" stroke="#666666" points="575,-167 465,-167 465,-137 575,-137 575,-167"/>
<text text-anchor="start" x="473" y="-155" font-family="Helvetica,sans-Serif" font-size="10.00">HF::SpatialStructures</text>
<text text-anchor="middle" x="520" y="-144" font-family="Helvetica,sans-Serif" font-size="10.00">::Path::AddNode</text>
</a>
</g>
</g>
<!-- Node6&#45;&gt;Node7 -->
<g id="edge6" class="edge">
<title>Node6&#45;&gt;Node7</title>
<path fill="none" stroke="#63b8ff" d="M405,-116.44C421.89,-121.71 440.97,-127.66 458.62,-133.16"/>
<polygon fill="#63b8ff" stroke="#63b8ff" points="457.35,-136.44 467.94,-136.07 459.44,-129.75 457.35,-136.44"/>
</g>
<!-- Node8 -->
<g id="node8" class="node">
<title>Node8</title>
<g id="a_node8"><a xlink:href="a02017.html#adf2bad9ac73dbdc436c365654d54ad98" target="_top" xlink:title="Reverse the direction of this path.">
<polygon fill="white" stroke="#666666" points="575,-119 465,-119 465,-89 575,-89 575,-119"/>
<text text-anchor="start" x="473" y="-107" font-family="Helvetica,sans-Serif" font-size="10.00">HF::SpatialStructures</text>
<text text-anchor="middle" x="520" y="-96" font-family="Helvetica,sans-Serif" font-size="10.00">::Path::Reverse</text>
</a>
</g>
</g>
<!-- Node6&#45;&gt;Node8 -->
<g id="edge7" class="edge">
<title>Node6&#45;&gt;Node8</title>
<path fill="none" stroke="#63b8ff" d="M420.12,-102.19C431.05,-102.39 442.41,-102.59 453.37,-102.8"/>
<polygon fill="#63b8ff" stroke="#63b8ff" points="453.03,-106.29 463.09,-102.97 453.16,-99.29 453.03,-106.29"/>
</g>
<!-- Node6&#45;&gt;Node9 -->
<g id="edge8" class="edge">
<title>Node6&#45;&gt;Node9</title>
<path fill="none" stroke="#63b8ff" d="M411.77,-85.51C425.25,-81.8 439.76,-77.81 453.62,-73.99"/>
<polygon fill="#63b8ff" stroke="#63b8ff" points="454.39,-77.41 463.1,-71.38 452.53,-70.66 454.39,-77.41"/>
</g>
</g>
</svg>
