<?xml version="1.0" encoding="UTF-8" standalone="no"?>
<!DOCTYPE svg PUBLIC "-//W3C//DTD SVG 1.1//EN"
 "http://www.w3.org/Graphics/SVG/1.1/DTD/svg11.dtd">
<!-- Generated by graphviz version 2.43.0 (0)
 -->
<!-- Title: Cinterface/cinterface_utils.h Pages: 1 -->
<svg width="2938pt" height="173pt"
 viewBox="0.00 0.00 2938.00 173.00" xmlns="http://www.w3.org/2000/svg" xmlns:xlink="http://www.w3.org/1999/xlink">
<g id="graph0" class="graph" transform="scale(1 1) rotate(0) translate(4 169)">
<title>Cinterface/cinterface_utils.h</title>
<polygon fill="white" stroke="transparent" points="-4,4 -4,-169 2934,-169 2934,4 -4,4"/>
<!-- Node1 -->
<g id="node1" class="node">
<title>Node1</title>
<g id="a_node1"><a xlink:title=" ">
<polygon fill="#bfbfbf" stroke="black" points="1056.5,-134.5 1056.5,-164.5 1175.5,-164.5 1175.5,-134.5 1056.5,-134.5"/>
<text text-anchor="start" x="1064.5" y="-152.5" font-family="Helvetica,sans-Serif" font-size="10.00">Cinterface/cinterface</text>
<text text-anchor="middle" x="1116" y="-141.5" font-family="Helvetica,sans-Serif" font-size="10.00">_utils.h</text>
</a>
</g>
</g>
<!-- Node2 -->
<g id="node2" class="node">
<title>Node2</title>
<g id="a_node2"><a xlink:href="a00341.html" target="_top" xlink:title="Header file for C Interface functions related to graph generation.">
<polygon fill="white" stroke="black" points="475.5,-73 475.5,-92 606.5,-92 606.5,-73 475.5,-73"/>
<text text-anchor="middle" x="541" y="-80" font-family="Helvetica,sans-Serif" font-size="10.00">Cinterface/analysis_C.h</text>
</a>
</g>
</g>
<!-- Node1&#45;&gt;Node2 -->
<g id="edge1" class="edge">
<title>Node1&#45;&gt;Node2</title>
<path fill="none" stroke="midnightblue" d="M1046.19,-140.61C934.17,-127.95 715.81,-103.26 606.56,-90.91"/>
<polygon fill="midnightblue" stroke="midnightblue" points="1046.03,-144.11 1056.36,-141.76 1046.82,-137.16 1046.03,-144.11"/>
</g>
<!-- Node8 -->
<g id="node8" class="node">
<title>Node8</title>
<g id="a_node8"><a xlink:href="a00344.html" target="_top" xlink:title=" ">
<polygon fill="white" stroke="black" points="702.5,-67.5 702.5,-97.5 821.5,-97.5 821.5,-67.5 702.5,-67.5"/>
<text text-anchor="start" x="710.5" y="-85.5" font-family="Helvetica,sans-Serif" font-size="10.00">Cinterface/cinterface</text>
<text text-anchor="middle" x="762" y="-74.5" font-family="Helvetica,sans-Serif" font-size="10.00">_utils.cpp</text>
</a>
</g>
</g>
<!-- Node1&#45;&gt;Node8 -->
<g id="edge7" class="edge">
<title>Node1&#45;&gt;Node8</title>
<path fill="none" stroke="midnightblue" d="M1046.29,-136.78C988.52,-126.92 904.3,-112.19 831,-98 828,-97.42 824.92,-96.81 821.82,-96.19"/>
<polygon fill="midnightblue" stroke="midnightblue" points="1045.95,-140.28 1056.4,-138.51 1047.13,-133.38 1045.95,-140.28"/>
</g>
<!-- Node9 -->
<g id="node9" class="node">
<title>Node9</title>
<g id="a_node9"><a xlink:href="a00350.html" target="_top" xlink:title=" ">
<polygon fill="white" stroke="black" points="840,-67.5 840,-97.5 956,-97.5 956,-67.5 840,-67.5"/>
<text text-anchor="start" x="848" y="-85.5" font-family="Helvetica,sans-Serif" font-size="10.00">Cinterface/objloader</text>
<text text-anchor="middle" x="898" y="-74.5" font-family="Helvetica,sans-Serif" font-size="10.00">_C.cpp</text>
</a>
</g>
</g>
<!-- Node1&#45;&gt;Node9 -->
<g id="edge8" class="edge">
<title>Node1&#45;&gt;Node9</title>
<path fill="none" stroke="midnightblue" d="M1059.25,-131.58C1023.84,-121.02 978.8,-107.59 945.33,-97.61"/>
<polygon fill="midnightblue" stroke="midnightblue" points="1058.38,-134.97 1068.97,-134.48 1060.38,-128.26 1058.38,-134.97"/>
</g>
<!-- Node10 -->
<g id="node10" class="node">
<title>Node10</title>
<g id="a_node10"><a xlink:href="a00359.html" target="_top" xlink:title="Header file for C Interface pathfinding functionality.">
<polygon fill="white" stroke="black" points="974,-73 974,-92 1114,-92 1114,-73 974,-73"/>
<text text-anchor="middle" x="1044" y="-80" font-family="Helvetica,sans-Serif" font-size="10.00">Cinterface/pathfinder_C.h</text>
</a>
</g>
</g>
<!-- Node1&#45;&gt;Node10 -->
<g id="edge9" class="edge">
<title>Node1&#45;&gt;Node10</title>
<path fill="none" stroke="midnightblue" d="M1092.93,-127.67C1079.64,-115.67 1063.63,-101.22 1053.63,-92.19"/>
<polygon fill="midnightblue" stroke="midnightblue" points="1090.61,-130.29 1100.38,-134.4 1095.3,-125.1 1090.61,-130.29"/>
</g>
<!-- Node13 -->
<g id="node13" class="node">
<title>Node13</title>
<g id="a_node13"><a xlink:href="a00362.html" target="_top" xlink:title=" ">
<polygon fill="white" stroke="black" points="1132,-67.5 1132,-97.5 1246,-97.5 1246,-67.5 1132,-67.5"/>
<text text-anchor="start" x="1140" y="-85.5" font-family="Helvetica,sans-Serif" font-size="10.00">Cinterface/raytracer</text>
<text text-anchor="middle" x="1189" y="-74.5" font-family="Helvetica,sans-Serif" font-size="10.00">_C.cpp</text>
</a>
</g>
</g>
<!-- Node1&#45;&gt;Node13 -->
<g id="edge13" class="edge">
<title>Node1&#45;&gt;Node13</title>
<path fill="none" stroke="midnightblue" d="M1139.47,-127.6C1150.5,-117.78 1163.34,-106.34 1173.19,-97.58"/>
<polygon fill="midnightblue" stroke="midnightblue" points="1136.98,-125.13 1131.84,-134.4 1141.64,-130.36 1136.98,-125.13"/>
</g>
<!-- Node14 -->
<g id="node14" class="node">
<title>Node14</title>
<g id="a_node14"><a xlink:href="a00371.html" target="_top" xlink:title="Header file related to manipulating nodes, edges, and graphs via CInterface.">
<polygon fill="white" stroke="black" points="1275.5,-73 1275.5,-92 1448.5,-92 1448.5,-73 1275.5,-73"/>
<text text-anchor="middle" x="1362" y="-80" font-family="Helvetica,sans-Serif" font-size="10.00">Cinterface/spatialstructures_C.h</text>
</a>
</g>
</g>
<!-- Node1&#45;&gt;Node14 -->
<g id="edge14" class="edge">
<title>Node1&#45;&gt;Node14</title>
<path fill="none" stroke="midnightblue" d="M1178.79,-131.91C1226.96,-119.18 1291.5,-102.13 1329.72,-92.03"/>
<polygon fill="midnightblue" stroke="midnightblue" points="1177.85,-128.54 1169.08,-134.48 1179.64,-135.31 1177.85,-128.54"/>
</g>
<!-- Node21 -->
<g id="node21" class="node">
<title>Node21</title>
<g id="a_node21"><a xlink:href="a00377.html" target="_top" xlink:title="Header file for conducting view analysis via the C Interface.">
<polygon fill="white" stroke="black" points="2249,-73 2249,-92 2409,-92 2409,-73 2249,-73"/>
<text text-anchor="middle" x="2329" y="-80" font-family="Helvetica,sans-Serif" font-size="10.00">Cinterface/view_analysis_C.h</text>
</a>
</g>
</g>
<!-- Node1&#45;&gt;Node21 -->
<g id="edge24" class="edge">
<title>Node1&#45;&gt;Node21</title>
<path fill="none" stroke="midnightblue" d="M1185.75,-144.76C1396.36,-133.48 2025.11,-99.78 2248.86,-87.79"/>
<polygon fill="midnightblue" stroke="midnightblue" points="1185.54,-141.27 1175.74,-145.3 1185.91,-148.26 1185.54,-141.27"/>
</g>
<!-- Node25 -->
<g id="node25" class="node">
<title>Node25</title>
<g id="a_node25"><a xlink:href="a00383.html" target="_top" xlink:title="Header file for functions related to creating a visibility graph.">
<polygon fill="white" stroke="black" points="2596,-67.5 2596,-97.5 2708,-97.5 2708,-67.5 2596,-67.5"/>
<text text-anchor="start" x="2604" y="-85.5" font-family="Helvetica,sans-Serif" font-size="10.00">Cinterface/visibility</text>
<text text-anchor="middle" x="2652" y="-74.5" font-family="Helvetica,sans-Serif" font-size="10.00">_graph_C.h</text>
</a>
</g>
</g>
<!-- Node1&#45;&gt;Node25 -->
<g id="edge28" class="edge">
<title>Node1&#45;&gt;Node25</title>
<path fill="none" stroke="midnightblue" d="M1185.82,-146.36C1380.77,-140.26 1947.46,-121.7 2418,-98 2478.77,-94.94 2548.37,-90.51 2595.76,-87.35"/>
<polygon fill="midnightblue" stroke="midnightblue" points="1185.6,-142.87 1175.72,-146.68 1185.82,-149.86 1185.6,-142.87"/>
</g>
<!-- Node3 -->
<g id="node3" class="node">
<title>Node3</title>
<g id="a_node3"><a xlink:href="a00284.html" target="_top" xlink:title="Unit test source file for functions tested from analysis_C.h.">
<polygon fill="white" stroke="black" points="672.5,-0.5 672.5,-30.5 795.5,-30.5 795.5,-0.5 672.5,-0.5"/>
<text text-anchor="start" x="680.5" y="-18.5" font-family="Helvetica,sans-Serif" font-size="10.00">Cpp/tests/src/analysis</text>
<text text-anchor="middle" x="734" y="-7.5" font-family="Helvetica,sans-Serif" font-size="10.00">_C_cinterface.cpp</text>
</a>
</g>
</g>
<!-- Node2&#45;&gt;Node3 -->
<g id="edge2" class="edge">
<title>Node2&#45;&gt;Node3</title>
<path fill="none" stroke="midnightblue" d="M576.24,-69.63C608.96,-58.61 657.71,-42.19 692.35,-30.53"/>
<polygon fill="midnightblue" stroke="midnightblue" points="574.99,-66.36 566.63,-72.87 577.22,-72.99 574.99,-66.36"/>
</g>
<!-- Node4 -->
<g id="node4" class="node">
<title>Node4</title>
<g id="a_node4"><a xlink:href="a00287.html" target="_top" xlink:title=" ">
<polygon fill="white" stroke="black" points="0,-6 0,-25 186,-25 186,-6 0,-6"/>
<text text-anchor="middle" x="93" y="-13" font-family="Helvetica,sans-Serif" font-size="10.00">Cpp/tests/src/AnalysisMethods.cpp</text>
</a>
</g>
</g>
<!-- Node2&#45;&gt;Node4 -->
<g id="edge3" class="edge">
<title>Node2&#45;&gt;Node4</title>
<path fill="none" stroke="midnightblue" d="M471.85,-71.47C384.11,-58.74 234.3,-37 151.8,-25.03"/>
<polygon fill="midnightblue" stroke="midnightblue" points="471.57,-74.96 481.97,-72.94 472.58,-68.04 471.57,-74.96"/>
</g>
<!-- Node5 -->
<g id="node5" class="node">
<title>Node5</title>
<g id="a_node5"><a xlink:href="a00296.html" target="_top" xlink:title=" ">
<polygon fill="white" stroke="black" points="203.5,-6 203.5,-25 388.5,-25 388.5,-6 203.5,-6"/>
<text text-anchor="middle" x="296" y="-13" font-family="Helvetica,sans-Serif" font-size="10.00">Cpp/tests/src/GraphAlgorithms.cpp</text>
</a>
</g>
</g>
<!-- Node2&#45;&gt;Node5 -->
<g id="edge4" class="edge">
<title>Node2&#45;&gt;Node5</title>
<path fill="none" stroke="midnightblue" d="M498.87,-70.32C450.5,-57.49 372.18,-36.71 328.35,-25.08"/>
<polygon fill="midnightblue" stroke="midnightblue" points="498.16,-73.75 508.72,-72.94 499.95,-66.99 498.16,-73.75"/>
</g>
<!-- Node6 -->
<g id="node6" class="node">
<title>Node6</title>
<g id="a_node6"><a xlink:href="a00308.html" target="_top" xlink:title="Unit test source file for testing pathfinder functionality (C Interface)">
<polygon fill="white" stroke="black" points="814,-0.5 814,-30.5 946,-30.5 946,-0.5 814,-0.5"/>
<text text-anchor="start" x="822" y="-18.5" font-family="Helvetica,sans-Serif" font-size="10.00">Cpp/tests/src/pathfinder</text>
<text text-anchor="middle" x="880" y="-7.5" font-family="Helvetica,sans-Serif" font-size="10.00">_C_cinterface.cpp</text>
</a>
</g>
</g>
<!-- Node2&#45;&gt;Node6 -->
<g id="edge5" class="edge">
<title>Node2&#45;&gt;Node6</title>
<path fill="none" stroke="midnightblue" d="M595.62,-71.03C655.13,-59.62 750.31,-41.37 813.96,-29.16"/>
<polygon fill="midnightblue" stroke="midnightblue" points="594.83,-67.61 585.67,-72.94 596.15,-74.49 594.83,-67.61"/>
</g>
<!-- Node7 -->
<g id="node7" class="node">
<title>Node7</title>
<g id="a_node7"><a xlink:href="a00338.html" target="_top" xlink:title=" ">
<polygon fill="white" stroke="black" points="407,-0.5 407,-30.5 517,-30.5 517,-0.5 407,-0.5"/>
<text text-anchor="start" x="415" y="-18.5" font-family="Helvetica,sans-Serif" font-size="10.00">Cinterface/analysis</text>
<text text-anchor="middle" x="462" y="-7.5" font-family="Helvetica,sans-Serif" font-size="10.00">_C.cpp</text>
</a>
</g>
</g>
<!-- Node2&#45;&gt;Node7 -->
<g id="edge6" class="edge">
<title>Node2&#45;&gt;Node7</title>
<path fill="none" stroke="midnightblue" d="M522.45,-66.24C509.34,-55.45 491.9,-41.1 479.12,-30.59"/>
<polygon fill="midnightblue" stroke="midnightblue" points="520.4,-69.08 530.35,-72.73 524.85,-63.68 520.4,-69.08"/>
</g>
<!-- Node10&#45;&gt;Node6 -->
<g id="edge10" class="edge">
<title>Node10&#45;&gt;Node6</title>
<path fill="none" stroke="midnightblue" d="M1012.61,-69.06C984.83,-58.05 944.32,-41.99 915.39,-30.53"/>
<polygon fill="midnightblue" stroke="midnightblue" points="1011.64,-72.44 1022.22,-72.87 1014.22,-65.93 1011.64,-72.44"/>
</g>
<!-- Node11 -->
<g id="node11" class="node">
<title>Node11</title>
<g id="a_node11"><a xlink:href="a00311.html" target="_top" xlink:title=" ">
<polygon fill="white" stroke="black" points="964.5,-6 964.5,-25 1123.5,-25 1123.5,-6 964.5,-6"/>
<text text-anchor="middle" x="1044" y="-13" font-family="Helvetica,sans-Serif" font-size="10.00">Cpp/tests/src/PathFinding.cpp</text>
</a>
</g>
</g>
<!-- Node10&#45;&gt;Node11 -->
<g id="edge11" class="edge">
<title>Node10&#45;&gt;Node11</title>
<path fill="none" stroke="midnightblue" d="M1044,-62.54C1044,-50.17 1044,-34.62 1044,-25.13"/>
<polygon fill="midnightblue" stroke="midnightblue" points="1040.5,-62.73 1044,-72.73 1047.5,-62.73 1040.5,-62.73"/>
</g>
<!-- Node12 -->
<g id="node12" class="node">
<title>Node12</title>
<g id="a_node12"><a xlink:href="a00356.html" target="_top" xlink:title=" ">
<polygon fill="white" stroke="black" points="535.5,-0.5 535.5,-30.5 654.5,-30.5 654.5,-0.5 535.5,-0.5"/>
<text text-anchor="start" x="543.5" y="-18.5" font-family="Helvetica,sans-Serif" font-size="10.00">Cinterface/pathfinder</text>
<text text-anchor="middle" x="595" y="-7.5" font-family="Helvetica,sans-Serif" font-size="10.00">_C.cpp</text>
</a>
</g>
</g>
<!-- Node10&#45;&gt;Node12 -->
<g id="edge12" class="edge">
<title>Node10&#45;&gt;Node12</title>
<path fill="none" stroke="midnightblue" d="M990.11,-71.14C981.72,-69.66 973.14,-68.23 965,-67 831.35,-46.79 796.35,-53.12 663,-31 660.26,-30.55 657.47,-30.06 654.65,-29.54"/>
<polygon fill="midnightblue" stroke="midnightblue" points="989.75,-74.63 1000.21,-72.96 990.98,-67.74 989.75,-74.63"/>
</g>
<!-- Node14&#45;&gt;Node3 -->
<g id="edge16" class="edge">
<title>Node14&#45;&gt;Node3</title>
<path fill="none" stroke="midnightblue" d="M1293.38,-71.63C1280.64,-69.96 1267.43,-68.34 1255,-67 1055.51,-45.52 1003.66,-59.13 805,-31 802.01,-30.58 798.96,-30.11 795.88,-29.6"/>
<polygon fill="midnightblue" stroke="midnightblue" points="1293.11,-75.13 1303.48,-72.98 1294.03,-68.19 1293.11,-75.13"/>
</g>
<!-- Node14&#45;&gt;Node6 -->
<g id="edge18" class="edge">
<title>Node14&#45;&gt;Node6</title>
<path fill="none" stroke="midnightblue" d="M1290.13,-71.61C1278.4,-70.04 1266.36,-68.45 1255,-67 1121.79,-49.98 1087.68,-51.76 955,-31 952.12,-30.55 949.18,-30.07 946.21,-29.57"/>
<polygon fill="midnightblue" stroke="midnightblue" points="1289.97,-75.12 1300.35,-72.98 1290.9,-68.18 1289.97,-75.12"/>
</g>
<!-- Node14&#45;&gt;Node11 -->
<g id="edge19" class="edge">
<title>Node14&#45;&gt;Node11</title>
<path fill="none" stroke="midnightblue" d="M1310.04,-70.88C1247.41,-58.08 1143.41,-36.82 1085.74,-25.03"/>
<polygon fill="midnightblue" stroke="midnightblue" points="1309.6,-74.36 1320.1,-72.94 1311,-67.5 1309.6,-74.36"/>
</g>
<!-- Node15 -->
<g id="node15" class="node">
<title>Node15</title>
<g id="a_node15"><a xlink:href="a00179.html" target="_top" xlink:title="Contains implementation for the CInterface.">
<polygon fill="white" stroke="black" points="1312,-0.5 1312,-30.5 1432,-30.5 1432,-0.5 1312,-0.5"/>
<text text-anchor="start" x="1320" y="-18.5" font-family="Helvetica,sans-Serif" font-size="10.00">Cpp/spatialstructures</text>
<text text-anchor="middle" x="1372" y="-7.5" font-family="Helvetica,sans-Serif" font-size="10.00">/src/CInterface.cpp</text>
</a>
</g>
</g>
<!-- Node14&#45;&gt;Node15 -->
<g id="edge15" class="edge">
<title>Node14&#45;&gt;Node15</title>
<path fill="none" stroke="midnightblue" d="M1364.89,-62.74C1366.46,-52.49 1368.38,-40 1369.83,-30.59"/>
<polygon fill="midnightblue" stroke="midnightblue" points="1361.41,-62.32 1363.35,-72.73 1368.33,-63.38 1361.41,-62.32"/>
</g>
<!-- Node16 -->
<g id="node16" class="node">
<title>Node16</title>
<g id="a_node16"><a xlink:href="a00290.html" target="_top" xlink:title=" ">
<polygon fill="white" stroke="black" points="1450,-6 1450,-25 1628,-25 1628,-6 1450,-6"/>
<text text-anchor="middle" x="1539" y="-13" font-family="Helvetica,sans-Serif" font-size="10.00">Cpp/tests/src/CostAlgorithms.cpp</text>
</a>
</g>
</g>
<!-- Node14&#45;&gt;Node16 -->
<g id="edge17" class="edge">
<title>Node14&#45;&gt;Node16</title>
<path fill="none" stroke="midnightblue" d="M1395.3,-69.27C1430.43,-56.37 1484.88,-36.38 1515.68,-25.06"/>
<polygon fill="midnightblue" stroke="midnightblue" points="1393.68,-66.14 1385.5,-72.87 1396.1,-72.71 1393.68,-66.14"/>
</g>
<!-- Node17 -->
<g id="node17" class="node">
<title>Node17</title>
<g id="a_node17"><a xlink:href="a00320.html" target="_top" xlink:title=" ">
<polygon fill="white" stroke="black" points="1646,-6 1646,-25 1832,-25 1832,-6 1646,-6"/>
<text text-anchor="middle" x="1739" y="-13" font-family="Helvetica,sans-Serif" font-size="10.00">Cpp/tests/src/SpatialStructures.cpp</text>
</a>
</g>
</g>
<!-- Node14&#45;&gt;Node17 -->
<g id="edge20" class="edge">
<title>Node14&#45;&gt;Node17</title>
<path fill="none" stroke="midnightblue" d="M1421.77,-71.19C1495.81,-58.43 1620.59,-36.92 1689.52,-25.03"/>
<polygon fill="midnightblue" stroke="midnightblue" points="1420.93,-67.79 1411.67,-72.94 1422.12,-74.69 1420.93,-67.79"/>
</g>
<!-- Node18 -->
<g id="node18" class="node">
<title>Node18</title>
<g id="a_node18"><a xlink:href="a00323.html" target="_top" xlink:title="Unit test source file for functions tested from spatialstructures_C.h.">
<polygon fill="white" stroke="black" points="1850,-0.5 1850,-30.5 2014,-30.5 2014,-0.5 1850,-0.5"/>
<text text-anchor="start" x="1858" y="-18.5" font-family="Helvetica,sans-Serif" font-size="10.00">Cpp/tests/src/spatialstructures</text>
<text text-anchor="middle" x="1932" y="-7.5" font-family="Helvetica,sans-Serif" font-size="10.00">_C_cinterface.cpp</text>
</a>
</g>
</g>
<!-- Node14&#45;&gt;Node18 -->
<g id="edge21" class="edge">
<title>Node14&#45;&gt;Node18</title>
<path fill="none" stroke="midnightblue" d="M1458.77,-72.82C1555.64,-63.76 1708.89,-48.48 1841,-31 1843.85,-30.62 1846.76,-30.23 1849.69,-29.82"/>
<polygon fill="midnightblue" stroke="midnightblue" points="1458.33,-69.34 1448.7,-73.75 1458.98,-76.31 1458.33,-69.34"/>
</g>
<!-- Node19 -->
<g id="node19" class="node">
<title>Node19</title>
<g id="a_node19"><a xlink:href="a00332.html" target="_top" xlink:title="Unit test source file for testing the functionality of visibility_graph_C.">
<polygon fill="white" stroke="black" points="2032.5,-0.5 2032.5,-30.5 2157.5,-30.5 2157.5,-0.5 2032.5,-0.5"/>
<text text-anchor="start" x="2040.5" y="-18.5" font-family="Helvetica,sans-Serif" font-size="10.00">Cpp/tests/src/visibility</text>
<text text-anchor="middle" x="2095" y="-7.5" font-family="Helvetica,sans-Serif" font-size="10.00">_graph_cinterface.cpp</text>
</a>
</g>
</g>
<!-- Node14&#45;&gt;Node19 -->
<g id="edge22" class="edge">
<title>Node14&#45;&gt;Node19</title>
<path fill="none" stroke="midnightblue" d="M1458.97,-77.81C1588.16,-72.05 1823.62,-58.59 2023,-31 2026.03,-30.58 2029.13,-30.11 2032.25,-29.61"/>
<polygon fill="midnightblue" stroke="midnightblue" points="1458.55,-74.33 1448.71,-78.26 1458.86,-81.32 1458.55,-74.33"/>
</g>
<!-- Node20 -->
<g id="node20" class="node">
<title>Node20</title>
<g id="a_node20"><a xlink:href="a00368.html" target="_top" xlink:title=" ">
<polygon fill="white" stroke="black" points="1142,-0.5 1142,-30.5 1294,-30.5 1294,-0.5 1142,-0.5"/>
<text text-anchor="start" x="1150" y="-18.5" font-family="Helvetica,sans-Serif" font-size="10.00">Cinterface/spatialstructures</text>
<text text-anchor="middle" x="1218" y="-7.5" font-family="Helvetica,sans-Serif" font-size="10.00">_C.cpp</text>
</a>
</g>
</g>
<!-- Node14&#45;&gt;Node20 -->
<g id="edge23" class="edge">
<title>Node14&#45;&gt;Node20</title>
<path fill="none" stroke="midnightblue" d="M1333.47,-68.62C1309.11,-57.63 1274.14,-41.84 1249.08,-30.53"/>
<polygon fill="midnightblue" stroke="midnightblue" points="1332.32,-71.94 1342.88,-72.87 1335.2,-65.56 1332.32,-71.94"/>
</g>
<!-- Node22 -->
<g id="node22" class="node">
<title>Node22</title>
<g id="a_node22"><a xlink:href="a00326.html" target="_top" xlink:title="Unit test source file for C interface functions related to view analysis.">
<polygon fill="white" stroke="black" points="2175.5,-0.5 2175.5,-30.5 2312.5,-30.5 2312.5,-0.5 2175.5,-0.5"/>
<text text-anchor="start" x="2183.5" y="-18.5" font-family="Helvetica,sans-Serif" font-size="10.00">Cpp/tests/src/view</text>
<text text-anchor="middle" x="2244" y="-7.5" font-family="Helvetica,sans-Serif" font-size="10.00">_analysis_cinterface.cpp</text>
</a>
</g>
</g>
<!-- Node21&#45;&gt;Node22 -->
<g id="edge25" class="edge">
<title>Node21&#45;&gt;Node22</title>
<path fill="none" stroke="midnightblue" d="M2309.44,-66.54C2295.29,-55.73 2276.3,-41.2 2262.42,-30.59"/>
<polygon fill="midnightblue" stroke="midnightblue" points="2307.47,-69.44 2317.54,-72.73 2311.72,-63.88 2307.47,-69.44"/>
</g>
<!-- Node23 -->
<g id="node23" class="node">
<title>Node23</title>
<g id="a_node23"><a xlink:href="a00329.html" target="_top" xlink:title=" ">
<polygon fill="white" stroke="black" points="2331,-6 2331,-25 2499,-25 2499,-6 2331,-6"/>
<text text-anchor="middle" x="2415" y="-13" font-family="Helvetica,sans-Serif" font-size="10.00">Cpp/tests/src/ViewAnalysis.cpp</text>
</a>
</g>
</g>
<!-- Node21&#45;&gt;Node23 -->
<g id="edge26" class="edge">
<title>Node21&#45;&gt;Node23</title>
<path fill="none" stroke="midnightblue" d="M2348.76,-66.57C2365.73,-53.74 2389.62,-35.69 2403.59,-25.13"/>
<polygon fill="midnightblue" stroke="midnightblue" points="2346.47,-63.91 2340.6,-72.73 2350.69,-69.5 2346.47,-63.91"/>
</g>
<!-- Node24 -->
<g id="node24" class="node">
<title>Node24</title>
<g id="a_node24"><a xlink:href="a00374.html" target="_top" xlink:title=" ">
<polygon fill="white" stroke="black" points="2517.5,-0.5 2517.5,-30.5 2656.5,-30.5 2656.5,-0.5 2517.5,-0.5"/>
<text text-anchor="start" x="2525.5" y="-18.5" font-family="Helvetica,sans-Serif" font-size="10.00">Cinterface/view_analysis</text>
<text text-anchor="middle" x="2587" y="-7.5" font-family="Helvetica,sans-Serif" font-size="10.00">_C.cpp</text>
</a>
</g>
</g>
<!-- Node21&#45;&gt;Node24 -->
<g id="edge27" class="edge">
<title>Node21&#45;&gt;Node24</title>
<path fill="none" stroke="midnightblue" d="M2372.75,-70.48C2416.42,-59.47 2483.7,-42.52 2531.2,-30.56"/>
<polygon fill="midnightblue" stroke="midnightblue" points="2371.84,-67.1 2362.99,-72.94 2373.55,-73.89 2371.84,-67.1"/>
</g>
<!-- Node25&#45;&gt;Node19 -->
<g id="edge29" class="edge">
<title>Node25&#45;&gt;Node19</title>
<path fill="none" stroke="midnightblue" d="M2585.44,-76.66C2491.58,-69.36 2315.1,-53.92 2166,-31 2163.26,-30.58 2160.47,-30.12 2157.66,-29.64"/>
<polygon fill="midnightblue" stroke="midnightblue" points="2585.41,-80.17 2595.64,-77.45 2585.94,-73.19 2585.41,-80.17"/>
</g>
<!-- Node26 -->
<g id="node26" class="node">
<title>Node26</title>
<g id="a_node26"><a xlink:href="a00335.html" target="_top" xlink:title=" ">
<polygon fill="white" stroke="black" points="2674.5,-0.5 2674.5,-30.5 2799.5,-30.5 2799.5,-0.5 2674.5,-0.5"/>
<text text-anchor="start" x="2682.5" y="-18.5" font-family="Helvetica,sans-Serif" font-size="10.00">Cpp/tests/src/Visibility</text>
<text text-anchor="middle" x="2737" y="-7.5" font-family="Helvetica,sans-Serif" font-size="10.00">Graph.cpp</text>
</a>
</g>
</g>
<!-- Node25&#45;&gt;Node26 -->
<g id="edge30" class="edge">
<title>Node25&#45;&gt;Node26</title>
<path fill="none" stroke="midnightblue" d="M2678.59,-61.17C2691.59,-51.23 2706.9,-39.51 2718.59,-30.58"/>
<polygon fill="midnightblue" stroke="midnightblue" points="2676.26,-58.54 2670.44,-67.4 2680.51,-64.1 2676.26,-58.54"/>
</g>
<!-- Node27 -->
<g id="node27" class="node">
<title>Node27</title>
<g id="a_node27"><a xlink:href="a00380.html" target="_top" xlink:title=" ">
<polygon fill="white" stroke="black" points="2818,-0.5 2818,-30.5 2930,-30.5 2930,-0.5 2818,-0.5"/>
<text text-anchor="start" x="2826" y="-18.5" font-family="Helvetica,sans-Serif" font-size="10.00">Cinterface/visibility</text>
<text text-anchor="middle" x="2874" y="-7.5" font-family="Helvetica,sans-Serif" font-size="10.00">_graph_C.cpp</text>
</a>
</g>
</g>
<!-- Node25&#45;&gt;Node27 -->
<g id="edge31" class="edge">
<title>Node25&#45;&gt;Node27</title>
<path fill="none" stroke="midnightblue" d="M2709.79,-64.58C2745.85,-54.02 2791.72,-40.59 2825.81,-30.61"/>
<polygon fill="midnightblue" stroke="midnightblue" points="2708.51,-61.31 2699.9,-67.48 2710.48,-68.02 2708.51,-61.31"/>
</g>
</g>
</svg>
