<?xml version="1.0" encoding="UTF-8" standalone="no"?>
<!DOCTYPE svg PUBLIC "-//W3C//DTD SVG 1.1//EN"
 "http://www.w3.org/Graphics/SVG/1.1/DTD/svg11.dtd">
<!-- Generated by graphviz version 2.43.0 (0)
 -->
<!-- Title: CalculateAndStoreCrossSlope Pages: 1 -->
<svg width="354pt" height="138pt"
 viewBox="0.00 0.00 354.00 137.50" xmlns="http://www.w3.org/2000/svg" xmlns:xlink="http://www.w3.org/1999/xlink">
<g id="graph0" class="graph" transform="scale(1 1) rotate(0) translate(4 133.5)">
<title>CalculateAndStoreCrossSlope</title>
<polygon fill="white" stroke="transparent" points="-4,4 -4,-133.5 350,-133.5 350,4 -4,4"/>
<!-- Node1 -->
<g id="node1" class="node">
<title>Node1</title>
<g id="a_node1"><a xlink:title="Calculates cross slope for all subgraphs in *g.">
<polygon fill="#bfbfbf" stroke="black" points="0,-60.5 0,-79.5 161,-79.5 161,-60.5 0,-60.5"/>
<text text-anchor="middle" x="80.5" y="-67.5" font-family="Helvetica,sans-Serif" font-size="10.00">CalculateAndStoreCrossSlope</text>
</a>
</g>
</g>
<!-- Node2 -->
<g id="node2" class="node">
<title>Node2</title>
<g id="a_node2"><a xlink:href="a01497.html#a6f04c5320d4bf88120f8c5e31b0fb02a" target="_top" xlink:title="Add multiple edges to the graph.">
<polygon fill="white" stroke="black" points="212,-99 212,-129 331,-129 331,-99 212,-99"/>
<text text-anchor="start" x="220" y="-117" font-family="Helvetica,sans-Serif" font-size="10.00">HF::SpatialStructures</text>
<text text-anchor="middle" x="271.5" y="-106" font-family="Helvetica,sans-Serif" font-size="10.00">::Graph::AddEdges</text>
</a>
</g>
</g>
<!-- Node1&#45;&gt;Node2 -->
<g id="edge1" class="edge">
<title>Node1&#45;&gt;Node2</title>
<path fill="none" stroke="midnightblue" d="M122.51,-79.55C145.71,-84.95 175.33,-91.84 201.96,-98.04"/>
<polygon fill="midnightblue" stroke="midnightblue" points="201.47,-101.52 212,-100.38 203.05,-94.7 201.47,-101.52"/>
</g>
<!-- Node3 -->
<g id="node3" class="node">
<title>Node3</title>
<g id="a_node3"><a xlink:href="a00371.html#a047beaeb65d7842c75f024915219177e" target="_top" xlink:title="Get the cost algorithm title (as std::string) from the COST_ALG_KEY enum member.">
<polygon fill="white" stroke="black" points="217.5,-60.5 217.5,-79.5 325.5,-79.5 325.5,-60.5 217.5,-60.5"/>
<text text-anchor="middle" x="271.5" y="-67.5" font-family="Helvetica,sans-Serif" font-size="10.00">AlgorithmCostTitle</text>
</a>
</g>
</g>
<!-- Node1&#45;&gt;Node3 -->
<g id="edge2" class="edge">
<title>Node1&#45;&gt;Node3</title>
<path fill="none" stroke="midnightblue" d="M161.11,-70C176.52,-70 192.47,-70 207.27,-70"/>
<polygon fill="midnightblue" stroke="midnightblue" points="207.31,-73.5 217.31,-70 207.31,-66.5 207.31,-73.5"/>
</g>
<!-- Node4 -->
<g id="node4" class="node">
<title>Node4</title>
<g id="a_node4"><a xlink:href="a00409.html#a51b88e596c3b5f68b7abbcbc91e30bdf" target="_top" xlink:title=" ">
<polygon fill="white" stroke="black" points="197,-0.5 197,-41.5 346,-41.5 346,-0.5 197,-0.5"/>
<text text-anchor="start" x="205" y="-29.5" font-family="Helvetica,sans-Serif" font-size="10.00">HF::SpatialStructures</text>
<text text-anchor="start" x="205" y="-18.5" font-family="Helvetica,sans-Serif" font-size="10.00">::CostAlgorithms::Calculate</text>
<text text-anchor="middle" x="271.5" y="-7.5" font-family="Helvetica,sans-Serif" font-size="10.00">CrossSlope</text>
</a>
</g>
</g>
<!-- Node1&#45;&gt;Node4 -->
<g id="edge3" class="edge">
<title>Node1&#45;&gt;Node4</title>
<path fill="none" stroke="midnightblue" d="M118.39,-60.44C138.03,-55.34 163.04,-48.86 187.07,-42.63"/>
<polygon fill="midnightblue" stroke="midnightblue" points="188.14,-45.97 196.94,-40.07 186.38,-39.19 188.14,-45.97"/>
</g>
</g>
</svg>
