<?xml version="1.0" encoding="UTF-8" standalone="no"?>
<!DOCTYPE svg PUBLIC "-//W3C//DTD SVG 1.1//EN"
 "http://www.w3.org/Graphics/SVG/1.1/DTD/svg11.dtd">
<!-- Generated by graphviz version 4.0.0 (20220529.0937)
 -->
<!-- Title: Cinterface/visibility_graph_C.cpp Pages: 1 -->
<svg width="1007pt" height="263pt"
 viewBox="0.00 0.00 1006.50 263.00" xmlns="http://www.w3.org/2000/svg" xmlns:xlink="http://www.w3.org/1999/xlink">
<g id="graph0" class="graph" transform="scale(1 1) rotate(0) translate(4 259)">
<title>Cinterface/visibility_graph_C.cpp</title>
<polygon fill="white" stroke="transparent" points="-4,4 -4,-259 1002.5,-259 1002.5,4 -4,4"/>
<!-- Node1 -->
<g id="node1" class="node">
<title>Node1</title>
<g id="a_node1"><a xlink:title=" ">
<polygon fill="#bfbfbf" stroke="black" points="316.5,-224.5 316.5,-254.5 413.5,-254.5 413.5,-224.5 316.5,-224.5"/>
<text text-anchor="start" x="324.5" y="-242.5" font-family="Helvetica,sans-Serif" font-size="10.00">Cinterface/visibility</text>
<text text-anchor="middle" x="365" y="-231.5" font-family="Helvetica,sans-Serif" font-size="10.00">_graph_C.cpp</text>
</a>
</g>
</g>
<!-- Node2 -->
<g id="node2" class="node">
<title>Node2</title>
<g id="a_node2"><a xlink:href="a00383.html" target="_top" xlink:title="Header file for functions related to creating a visibility graph.">
<polygon fill="white" stroke="black" points="31,-168.5 31,-187.5 131,-187.5 131,-168.5 31,-168.5"/>
<text text-anchor="middle" x="81" y="-175.5" font-family="Helvetica,sans-Serif" font-size="10.00">visibility_graph_C.h</text>
</a>
</g>
</g>
<!-- Node1&#45;&gt;Node2 -->
<g id="edge1" class="edge">
<title>Node1&#45;&gt;Node2</title>
<path fill="none" stroke="midnightblue" d="M316.18,-228.27C264.73,-217.49 184.08,-200.6 131.87,-189.66"/>
<polygon fill="midnightblue" stroke="midnightblue" points="132.33,-186.18 121.83,-187.55 130.9,-193.03 132.33,-186.18"/>
</g>
<!-- Node4 -->
<g id="node4" class="node">
<title>Node4</title>
<g id="a_node4"><a xlink:title=" ">
<polygon fill="white" stroke="#bfbfbf" points="189,-56.5 189,-75.5 231,-75.5 231,-56.5 189,-56.5"/>
<text text-anchor="middle" x="210" y="-63.5" font-family="Helvetica,sans-Serif" font-size="10.00">vector</text>
</a>
</g>
</g>
<!-- Node1&#45;&gt;Node4 -->
<g id="edge8" class="edge">
<title>Node1&#45;&gt;Node4</title>
<path fill="none" stroke="midnightblue" d="M351.17,-224.25C331.65,-204.02 295.04,-165.7 265,-132 250.48,-115.71 234.41,-96.59 223.41,-83.32"/>
<polygon fill="midnightblue" stroke="midnightblue" points="226.05,-81.02 216.98,-75.53 220.65,-85.47 226.05,-81.02"/>
</g>
<!-- Node7 -->
<g id="node7" class="node">
<title>Node7</title>
<g id="a_node7"><a xlink:href="a00029.html" target="_top" xlink:title="Contains definitions for the VisibilityGraph class.">
<polygon fill="white" stroke="black" points="149,-168.5 149,-187.5 237,-187.5 237,-168.5 149,-168.5"/>
<text text-anchor="middle" x="193" y="-175.5" font-family="Helvetica,sans-Serif" font-size="10.00">visibility_graph.h</text>
</a>
</g>
</g>
<!-- Node1&#45;&gt;Node7 -->
<g id="edge9" class="edge">
<title>Node1&#45;&gt;Node7</title>
<path fill="none" stroke="midnightblue" d="M324.24,-224.4C294.78,-214.21 255.41,-200.59 227.5,-190.93"/>
<polygon fill="midnightblue" stroke="midnightblue" points="228.37,-187.53 217.78,-187.57 226.08,-194.15 228.37,-187.53"/>
</g>
<!-- Node8 -->
<g id="node8" class="node">
<title>Node8</title>
<g id="a_node8"><a xlink:href="a00146.html" target="_top" xlink:title="Contains definitions for the EmbreeRayTracer">
<polygon fill="white" stroke="black" points="314.5,-112.5 314.5,-131.5 415.5,-131.5 415.5,-112.5 314.5,-112.5"/>
<text text-anchor="middle" x="365" y="-119.5" font-family="Helvetica,sans-Serif" font-size="10.00">embree_raytracer.h</text>
</a>
</g>
</g>
<!-- Node1&#45;&gt;Node8 -->
<g id="edge11" class="edge">
<title>Node1&#45;&gt;Node8</title>
<path fill="none" stroke="midnightblue" d="M365,-224.34C365,-203.62 365,-165.02 365,-141.9"/>
<polygon fill="midnightblue" stroke="midnightblue" points="368.5,-141.67 365,-131.67 361.5,-141.67 368.5,-141.67"/>
</g>
<!-- Node13 -->
<g id="node13" class="node">
<title>Node13</title>
<g id="a_node13"><a xlink:href="a00203.html" target="_top" xlink:title="Contains definitions for the Graph &#160;class.">
<polygon fill="white" stroke="black" points="520.5,-168.5 520.5,-187.5 569.5,-187.5 569.5,-168.5 520.5,-168.5"/>
<text text-anchor="middle" x="545" y="-175.5" font-family="Helvetica,sans-Serif" font-size="10.00">graph.h</text>
</a>
</g>
</g>
<!-- Node1&#45;&gt;Node13 -->
<g id="edge18" class="edge">
<title>Node1&#45;&gt;Node13</title>
<path fill="none" stroke="midnightblue" d="M407.66,-224.4C439.09,-214.01 481.29,-200.06 510.59,-190.38"/>
<polygon fill="midnightblue" stroke="midnightblue" points="511.97,-193.6 520.37,-187.14 509.78,-186.96 511.97,-193.6"/>
</g>
<!-- Node16 -->
<g id="node16" class="node">
<title>Node16</title>
<g id="a_node16"><a xlink:href="a00209.html" target="_top" xlink:title="Contains definitions for the Node structure.">
<polygon fill="white" stroke="black" points="635,-56.5 635,-75.5 681,-75.5 681,-56.5 635,-56.5"/>
<text text-anchor="middle" x="658" y="-63.5" font-family="Helvetica,sans-Serif" font-size="10.00">node.h</text>
</a>
</g>
</g>
<!-- Node1&#45;&gt;Node16 -->
<g id="edge29" class="edge">
<title>Node1&#45;&gt;Node16</title>
<path fill="none" stroke="midnightblue" d="M413.69,-231.8C504.25,-218.2 692.71,-184.16 729,-132 743.64,-110.96 715.24,-91.79 690.13,-79.81"/>
<polygon fill="midnightblue" stroke="midnightblue" points="691.31,-76.51 680.76,-75.58 688.43,-82.89 691.31,-76.51"/>
</g>
<!-- Node20 -->
<g id="node20" class="node">
<title>Node20</title>
<g id="a_node20"><a xlink:href="a00110.html" target="_top" xlink:title="Contains definitions for the Exceptions namespace.">
<polygon fill="white" stroke="black" points="826,-168.5 826,-187.5 912,-187.5 912,-168.5 826,-168.5"/>
<text text-anchor="middle" x="869" y="-175.5" font-family="Helvetica,sans-Serif" font-size="10.00">HFExceptions.h</text>
</a>
</g>
</g>
<!-- Node1&#45;&gt;Node20 -->
<g id="edge30" class="edge">
<title>Node1&#45;&gt;Node20</title>
<path fill="none" stroke="midnightblue" d="M413.78,-232.74C508.75,-221.53 717.71,-196.86 815.96,-185.26"/>
<polygon fill="midnightblue" stroke="midnightblue" points="816.45,-188.73 825.97,-184.08 815.63,-181.78 816.45,-188.73"/>
</g>
<!-- Node3 -->
<g id="node3" class="node">
<title>Node3</title>
<g id="a_node3"><a xlink:href="a00347.html" target="_top" xlink:title=" ">
<polygon fill="white" stroke="black" points="92,-112.5 92,-131.5 182,-131.5 182,-112.5 92,-112.5"/>
<text text-anchor="middle" x="137" y="-119.5" font-family="Helvetica,sans-Serif" font-size="10.00">cinterface_utils.h</text>
</a>
</g>
</g>
<!-- Node2&#45;&gt;Node3 -->
<g id="edge2" class="edge">
<title>Node2&#45;&gt;Node3</title>
<path fill="none" stroke="midnightblue" d="M90,-168.32C98.19,-160.42 110.51,-148.55 120.47,-138.94"/>
<polygon fill="midnightblue" stroke="midnightblue" points="123.07,-141.29 127.84,-131.83 118.21,-136.26 123.07,-141.29"/>
</g>
<!-- Node6 -->
<g id="node6" class="node">
<title>Node6</title>
<g id="a_node6"><a xlink:href="a00365.html" target="_top" xlink:title="C Interface header file for Raytracer functionality.">
<polygon fill="white" stroke="black" points="0,-112.5 0,-131.5 74,-131.5 74,-112.5 0,-112.5"/>
<text text-anchor="middle" x="37" y="-119.5" font-family="Helvetica,sans-Serif" font-size="10.00">raytracer_c.h</text>
</a>
</g>
</g>
<!-- Node2&#45;&gt;Node6 -->
<g id="edge5" class="edge">
<title>Node2&#45;&gt;Node6</title>
<path fill="none" stroke="midnightblue" d="M73.73,-168.08C67.46,-160.38 58.21,-149.03 50.57,-139.65"/>
<polygon fill="midnightblue" stroke="midnightblue" points="53.16,-137.29 44.13,-131.75 47.73,-141.71 53.16,-137.29"/>
</g>
<!-- Node3&#45;&gt;Node4 -->
<g id="edge3" class="edge">
<title>Node3&#45;&gt;Node4</title>
<path fill="none" stroke="midnightblue" d="M148.73,-112.32C159.84,-104.11 176.74,-91.6 189.98,-81.81"/>
<polygon fill="midnightblue" stroke="midnightblue" points="192.1,-84.59 198.06,-75.83 187.94,-78.97 192.1,-84.59"/>
</g>
<!-- Node5 -->
<g id="node5" class="node">
<title>Node5</title>
<g id="a_node5"><a xlink:title=" ">
<polygon fill="white" stroke="#bfbfbf" points="347,-0.5 347,-19.5 385,-19.5 385,-0.5 347,-0.5"/>
<text text-anchor="middle" x="366" y="-7.5" font-family="Helvetica,sans-Serif" font-size="10.00">array</text>
</a>
</g>
</g>
<!-- Node3&#45;&gt;Node5 -->
<g id="edge4" class="edge">
<title>Node3&#45;&gt;Node5</title>
<path fill="none" stroke="midnightblue" d="M140.27,-112.32C146.03,-98.22 159.4,-70.46 180,-56 227.73,-22.51 297.43,-13.79 336.55,-11.62"/>
<polygon fill="midnightblue" stroke="midnightblue" points="336.89,-15.1 346.73,-11.16 336.58,-8.11 336.89,-15.1"/>
</g>
<!-- Node6&#45;&gt;Node4 -->
<g id="edge6" class="edge">
<title>Node6&#45;&gt;Node4</title>
<path fill="none" stroke="midnightblue" d="M64.41,-112.44C95.62,-102.7 146.48,-86.83 179.08,-76.65"/>
<polygon fill="midnightblue" stroke="midnightblue" points="180.47,-79.88 188.97,-73.56 178.39,-73.2 180.47,-79.88"/>
</g>
<!-- Node6&#45;&gt;Node5 -->
<g id="edge7" class="edge">
<title>Node6&#45;&gt;Node5</title>
<path fill="none" stroke="midnightblue" d="M50.08,-112.28C71.53,-98.38 115.89,-71.2 157,-56 218.83,-33.13 295.48,-20.33 336.61,-14.64"/>
<polygon fill="midnightblue" stroke="midnightblue" points="337.31,-18.08 346.76,-13.28 336.38,-11.14 337.31,-18.08"/>
</g>
<!-- Node7&#45;&gt;Node4 -->
<g id="edge10" class="edge">
<title>Node7&#45;&gt;Node4</title>
<path fill="none" stroke="midnightblue" d="M194.33,-168.37C197.08,-150.62 203.41,-109.67 207.13,-85.6"/>
<polygon fill="midnightblue" stroke="midnightblue" points="210.6,-86.01 208.67,-75.59 203.69,-84.94 210.6,-86.01"/>
</g>
<!-- Node8&#45;&gt;Node4 -->
<g id="edge15" class="edge">
<title>Node8&#45;&gt;Node4</title>
<path fill="none" stroke="midnightblue" d="M340.44,-112.44C313.56,-103.08 270.41,-88.05 241.16,-77.86"/>
<polygon fill="midnightblue" stroke="midnightblue" points="242.05,-74.46 231.45,-74.47 239.74,-81.07 242.05,-74.46"/>
</g>
<!-- Node8&#45;&gt;Node5 -->
<g id="edge16" class="edge">
<title>Node8&#45;&gt;Node5</title>
<path fill="none" stroke="midnightblue" d="M413.54,-112.48C475.58,-101.36 575.68,-82.54 581,-76 631.09,-14.4 465.5,-9.67 395.62,-10.31"/>
<polygon fill="midnightblue" stroke="midnightblue" points="395.23,-6.82 385.28,-10.45 395.33,-13.82 395.23,-6.82"/>
</g>
<!-- Node9 -->
<g id="node9" class="node">
<title>Node9</title>
<g id="a_node9"><a xlink:title=" ">
<polygon fill="white" stroke="#bfbfbf" points="249,-56.5 249,-75.5 287,-75.5 287,-56.5 249,-56.5"/>
<text text-anchor="middle" x="268" y="-63.5" font-family="Helvetica,sans-Serif" font-size="10.00">rpc.h</text>
</a>
</g>
</g>
<!-- Node8&#45;&gt;Node9 -->
<g id="edge12" class="edge">
<title>Node8&#45;&gt;Node9</title>
<path fill="none" stroke="midnightblue" d="M349.42,-112.32C334,-103.74 310.19,-90.49 292.29,-80.52"/>
<polygon fill="midnightblue" stroke="midnightblue" points="293.99,-77.46 283.55,-75.65 290.58,-83.58 293.99,-77.46"/>
</g>
<!-- Node10 -->
<g id="node10" class="node">
<title>Node10</title>
<g id="a_node10"><a xlink:title=" ">
<polygon fill="white" stroke="#bfbfbf" points="305,-56.5 305,-75.5 355,-75.5 355,-56.5 305,-56.5"/>
<text text-anchor="middle" x="330" y="-63.5" font-family="Helvetica,sans-Serif" font-size="10.00">rtcore.h</text>
</a>
</g>
</g>
<!-- Node8&#45;&gt;Node10 -->
<g id="edge13" class="edge">
<title>Node8&#45;&gt;Node10</title>
<path fill="none" stroke="midnightblue" d="M359.22,-112.08C354.33,-104.53 347.17,-93.49 341.17,-84.23"/>
<polygon fill="midnightblue" stroke="midnightblue" points="344.05,-82.24 335.67,-75.75 338.17,-86.05 344.05,-82.24"/>
</g>
<!-- Node11 -->
<g id="node11" class="node">
<title>Node11</title>
<g id="a_node11"><a xlink:title=" ">
<polygon fill="white" stroke="#bfbfbf" points="373,-56.5 373,-75.5 491,-75.5 491,-56.5 373,-56.5"/>
<text text-anchor="middle" x="432" y="-63.5" font-family="Helvetica,sans-Serif" font-size="10.00">corecrt_math_defines.h</text>
</a>
</g>
</g>
<!-- Node8&#45;&gt;Node11 -->
<g id="edge14" class="edge">
<title>Node8&#45;&gt;Node11</title>
<path fill="none" stroke="midnightblue" d="M375.76,-112.32C385.77,-104.26 400.89,-92.08 412.93,-82.37"/>
<polygon fill="midnightblue" stroke="midnightblue" points="415.45,-84.83 421.04,-75.83 411.06,-79.38 415.45,-84.83"/>
</g>
<!-- Node12 -->
<g id="node12" class="node">
<title>Node12</title>
<g id="a_node12"><a xlink:href="a00152.html" target="_top" xlink:title=" ">
<polygon fill="white" stroke="black" points="509.5,-56.5 509.5,-75.5 572.5,-75.5 572.5,-56.5 509.5,-56.5"/>
<text text-anchor="middle" x="541" y="-63.5" font-family="Helvetica,sans-Serif" font-size="10.00">HitStruct.h</text>
</a>
</g>
</g>
<!-- Node8&#45;&gt;Node12 -->
<g id="edge17" class="edge">
<title>Node8&#45;&gt;Node12</title>
<path fill="none" stroke="midnightblue" d="M392.89,-112.44C422.75,-103.28 470.31,-88.69 503.46,-78.52"/>
<polygon fill="midnightblue" stroke="midnightblue" points="504.71,-81.8 513.24,-75.52 502.66,-75.1 504.71,-81.8"/>
</g>
<!-- Node13&#45;&gt;Node4 -->
<g id="edge20" class="edge">
<title>Node13&#45;&gt;Node4</title>
<path fill="none" stroke="midnightblue" d="M520.21,-175.72C475.57,-172.68 379.42,-162.82 305,-132 275.33,-119.71 245.47,-97.24 227.36,-82.21"/>
<polygon fill="midnightblue" stroke="midnightblue" points="229.35,-79.31 219.46,-75.5 224.82,-84.64 229.35,-79.31"/>
</g>
<!-- Node14 -->
<g id="node14" class="node">
<title>Node14</title>
<g id="a_node14"><a xlink:title=" ">
<polygon fill="white" stroke="#bfbfbf" points="434,-112.5 434,-131.5 506,-131.5 506,-112.5 434,-112.5"/>
<text text-anchor="middle" x="470" y="-119.5" font-family="Helvetica,sans-Serif" font-size="10.00">robin_hood.h</text>
</a>
</g>
</g>
<!-- Node13&#45;&gt;Node14 -->
<g id="edge19" class="edge">
<title>Node13&#45;&gt;Node14</title>
<path fill="none" stroke="midnightblue" d="M532.95,-168.32C521.54,-160.11 504.17,-147.6 490.57,-137.81"/>
<polygon fill="midnightblue" stroke="midnightblue" points="492.43,-134.84 482.27,-131.83 488.34,-140.52 492.43,-134.84"/>
</g>
<!-- Node15 -->
<g id="node15" class="node">
<title>Node15</title>
<g id="a_node15"><a xlink:href="a00197.html" target="_top" xlink:title="Contains definitions for the Edge structure.">
<polygon fill="white" stroke="black" points="583.5,-112.5 583.5,-131.5 630.5,-131.5 630.5,-112.5 583.5,-112.5"/>
<text text-anchor="middle" x="607" y="-119.5" font-family="Helvetica,sans-Serif" font-size="10.00">Edge.h</text>
</a>
</g>
</g>
<!-- Node13&#45;&gt;Node15 -->
<g id="edge21" class="edge">
<title>Node13&#45;&gt;Node15</title>
<path fill="none" stroke="midnightblue" d="M554.96,-168.32C564.13,-160.34 577.94,-148.31 589.03,-138.65"/>
<polygon fill="midnightblue" stroke="midnightblue" points="591.62,-141.04 596.86,-131.83 587.02,-135.76 591.62,-141.04"/>
</g>
<!-- Node13&#45;&gt;Node16 -->
<g id="edge26" class="edge">
<title>Node13&#45;&gt;Node16</title>
<path fill="none" stroke="midnightblue" d="M569.78,-173.99C611.94,-168.32 694.74,-154.52 712,-132 725.84,-113.94 703.1,-93.91 683.02,-80.93"/>
<polygon fill="midnightblue" stroke="midnightblue" points="684.76,-77.89 674.41,-75.65 681.11,-83.86 684.76,-77.89"/>
</g>
<!-- Node18 -->
<g id="node18" class="node">
<title>Node18</title>
<g id="a_node18"><a xlink:title=" ">
<polygon fill="white" stroke="#bfbfbf" points="524.5,-112.5 524.5,-131.5 565.5,-131.5 565.5,-112.5 524.5,-112.5"/>
<text text-anchor="middle" x="545" y="-119.5" font-family="Helvetica,sans-Serif" font-size="10.00">Eigen</text>
</a>
</g>
</g>
<!-- Node13&#45;&gt;Node18 -->
<g id="edge27" class="edge">
<title>Node13&#45;&gt;Node18</title>
<path fill="none" stroke="midnightblue" d="M545,-168.08C545,-161.01 545,-150.86 545,-141.99"/>
<polygon fill="midnightblue" stroke="midnightblue" points="548.5,-141.75 545,-131.75 541.5,-141.75 548.5,-141.75"/>
</g>
<!-- Node19 -->
<g id="node19" class="node">
<title>Node19</title>
<g id="a_node19"><a xlink:title=" ">
<polygon fill="white" stroke="#bfbfbf" points="649,-112.5 649,-131.5 703,-131.5 703,-112.5 649,-112.5"/>
<text text-anchor="middle" x="676" y="-119.5" font-family="Helvetica,sans-Serif" font-size="10.00">iostream</text>
</a>
</g>
</g>
<!-- Node13&#45;&gt;Node19 -->
<g id="edge28" class="edge">
<title>Node13&#45;&gt;Node19</title>
<path fill="none" stroke="midnightblue" d="M565.76,-168.44C587.32,-159.56 621.26,-145.56 645.79,-135.45"/>
<polygon fill="midnightblue" stroke="midnightblue" points="647.43,-138.56 655.34,-131.52 644.76,-132.09 647.43,-138.56"/>
</g>
<!-- Node15&#45;&gt;Node4 -->
<g id="edge25" class="edge">
<title>Node15&#45;&gt;Node4</title>
<path fill="none" stroke="midnightblue" d="M583.31,-114.06C580.2,-113.29 577.03,-112.57 574,-112 430.45,-84.87 388.15,-104.68 241.03,-75.85"/>
<polygon fill="midnightblue" stroke="midnightblue" points="241.68,-72.41 231.18,-73.88 240.3,-79.28 241.68,-72.41"/>
</g>
<!-- Node15&#45;&gt;Node16 -->
<g id="edge22" class="edge">
<title>Node15&#45;&gt;Node16</title>
<path fill="none" stroke="midnightblue" d="M615.42,-112.08C622.85,-104.22 633.85,-92.57 642.81,-83.08"/>
<polygon fill="midnightblue" stroke="midnightblue" points="645.41,-85.42 649.74,-75.75 640.32,-80.62 645.41,-85.42"/>
</g>
<!-- Node16&#45;&gt;Node5 -->
<g id="edge23" class="edge">
<title>Node16&#45;&gt;Node5</title>
<path fill="none" stroke="midnightblue" d="M634.81,-60.03C628.4,-58.68 621.44,-57.26 615,-56 535.6,-40.52 441.58,-24.02 395.07,-15.99"/>
<polygon fill="midnightblue" stroke="midnightblue" points="395.54,-12.52 385.09,-14.27 394.35,-19.41 395.54,-12.52"/>
</g>
<!-- Node17 -->
<g id="node17" class="node">
<title>Node17</title>
<g id="a_node17"><a xlink:title=" ">
<polygon fill="white" stroke="#bfbfbf" points="632,-0.5 632,-19.5 684,-19.5 684,-0.5 632,-0.5"/>
<text text-anchor="middle" x="658" y="-7.5" font-family="Helvetica,sans-Serif" font-size="10.00">ostream</text>
</a>
</g>
</g>
<!-- Node16&#45;&gt;Node17 -->
<g id="edge24" class="edge">
<title>Node16&#45;&gt;Node17</title>
<path fill="none" stroke="midnightblue" d="M658,-56.08C658,-49.01 658,-38.86 658,-29.99"/>
<polygon fill="midnightblue" stroke="midnightblue" points="661.5,-29.75 658,-19.75 654.5,-29.75 661.5,-29.75"/>
</g>
<!-- Node21 -->
<g id="node21" class="node">
<title>Node21</title>
<g id="a_node21"><a xlink:title=" ">
<polygon fill="white" stroke="#bfbfbf" points="797.5,-112.5 797.5,-131.5 856.5,-131.5 856.5,-112.5 797.5,-112.5"/>
<text text-anchor="middle" x="827" y="-119.5" font-family="Helvetica,sans-Serif" font-size="10.00">exception</text>
</a>
</g>
</g>
<!-- Node20&#45;&gt;Node21 -->
<g id="edge31" class="edge">
<title>Node20&#45;&gt;Node21</title>
<path fill="none" stroke="midnightblue" d="M862.06,-168.08C856.07,-160.38 847.25,-149.03 839.95,-139.65"/>
<polygon fill="midnightblue" stroke="midnightblue" points="842.71,-137.5 833.81,-131.75 837.18,-141.79 842.71,-137.5"/>
</g>
<!-- Node22 -->
<g id="node22" class="node">
<title>Node22</title>
<g id="a_node22"><a xlink:title=" ">
<polygon fill="white" stroke="#bfbfbf" points="875,-112.5 875,-131.5 921,-131.5 921,-112.5 875,-112.5"/>
<text text-anchor="middle" x="898" y="-119.5" font-family="Helvetica,sans-Serif" font-size="10.00">cstring</text>
</a>
</g>
</g>
<!-- Node20&#45;&gt;Node22 -->
<g id="edge32" class="edge">
<title>Node20&#45;&gt;Node22</title>
<path fill="none" stroke="midnightblue" d="M873.79,-168.08C877.76,-160.69 883.53,-149.95 888.43,-140.81"/>
<polygon fill="midnightblue" stroke="midnightblue" points="891.65,-142.22 893.3,-131.75 885.49,-138.91 891.65,-142.22"/>
</g>
<!-- Node23 -->
<g id="node23" class="node">
<title>Node23</title>
<g id="a_node23"><a xlink:title=" ">
<polygon fill="white" stroke="#bfbfbf" points="939.5,-112.5 939.5,-131.5 998.5,-131.5 998.5,-112.5 939.5,-112.5"/>
<text text-anchor="middle" x="969" y="-119.5" font-family="Helvetica,sans-Serif" font-size="10.00">stdexcept</text>
</a>
</g>
</g>
<!-- Node20&#45;&gt;Node23 -->
<g id="edge33" class="edge">
<title>Node20&#45;&gt;Node23</title>
<path fill="none" stroke="midnightblue" d="M885.07,-168.32C900.96,-159.74 925.51,-146.49 943.96,-136.52"/>
<polygon fill="midnightblue" stroke="midnightblue" points="945.84,-139.49 952.97,-131.65 942.51,-133.33 945.84,-139.49"/>
</g>
</g>
</svg>
