<?xml version="1.0" encoding="UTF-8" standalone="no"?>
<!DOCTYPE svg PUBLIC "-//W3C//DTD SVG 1.1//EN"
 "http://www.w3.org/Graphics/SVG/1.1/DTD/svg11.dtd">
<!-- Generated by graphviz version 2.43.0 (0)
 -->
<!-- Title: Cinterface/analysis_C.cpp Pages: 1 -->
<svg width="1235pt" height="263pt"
 viewBox="0.00 0.00 1234.84 263.00" xmlns="http://www.w3.org/2000/svg" xmlns:xlink="http://www.w3.org/1999/xlink">
<g id="graph0" class="graph" transform="scale(1 1) rotate(0) translate(4 259)">
<title>Cinterface/analysis_C.cpp</title>
<polygon fill="white" stroke="transparent" points="-4,4 -4,-259 1230.84,-259 1230.84,4 -4,4"/>
<!-- Node1 -->
<g id="node1" class="node">
<title>Node1</title>
<g id="a_node1"><a xlink:title=" ">
<polygon fill="#bfbfbf" stroke="black" points="686,-224.5 686,-254.5 796,-254.5 796,-224.5 686,-224.5"/>
<text text-anchor="start" x="694" y="-242.5" font-family="Helvetica,sans-Serif" font-size="10.00">Cinterface/analysis</text>
<text text-anchor="middle" x="741" y="-231.5" font-family="Helvetica,sans-Serif" font-size="10.00">_C.cpp</text>
</a>
</g>
</g>
<!-- Node2 -->
<g id="node2" class="node">
<title>Node2</title>
<g id="a_node2"><a xlink:href="a00341.html" target="_top" xlink:title="Header file for C Interface functions related to graph generation.">
<polygon fill="white" stroke="black" points="420,-168.5 420,-187.5 498,-187.5 498,-168.5 420,-168.5"/>
<text text-anchor="middle" x="459" y="-175.5" font-family="Helvetica,sans-Serif" font-size="10.00">analysis_C.h</text>
</a>
</g>
</g>
<!-- Node1&#45;&gt;Node2 -->
<g id="edge1" class="edge">
<title>Node1&#45;&gt;Node2</title>
<path fill="none" stroke="midnightblue" d="M685.96,-226.89C634.22,-215.97 557.52,-199.79 507.89,-189.32"/>
<polygon fill="midnightblue" stroke="midnightblue" points="508.54,-185.88 498.04,-187.24 507.1,-192.73 508.54,-185.88"/>
</g>
<!-- Node6 -->
<g id="node6" class="node">
<title>Node6</title>
<g id="a_node6"><a xlink:title=" ">
<polygon fill="white" stroke="#bfbfbf" points="761,-112.5 761,-131.5 841,-131.5 841,-112.5 761,-112.5"/>
<text text-anchor="middle" x="801" y="-119.5" font-family="Helvetica,sans-Serif" font-size="10.00">robin_hood.h</text>
</a>
</g>
</g>
<!-- Node1&#45;&gt;Node6 -->
<g id="edge7" class="edge">
<title>Node1&#45;&gt;Node6</title>
<path fill="none" stroke="midnightblue" d="M748.36,-224.34C759.32,-203.24 779.91,-163.6 791.83,-140.65"/>
<polygon fill="midnightblue" stroke="midnightblue" points="794.99,-142.16 796.5,-131.67 788.78,-138.93 794.99,-142.16"/>
</g>
<!-- Node7 -->
<g id="node7" class="node">
<title>Node7</title>
<g id="a_node7"><a xlink:href="a00110.html" target="_top" xlink:title="Contains definitions for the Exceptions namespace.">
<polygon fill="white" stroke="black" points="616,-168.5 616,-187.5 708,-187.5 708,-168.5 616,-168.5"/>
<text text-anchor="middle" x="662" y="-175.5" font-family="Helvetica,sans-Serif" font-size="10.00">HFExceptions.h</text>
</a>
</g>
</g>
<!-- Node1&#45;&gt;Node7 -->
<g id="edge8" class="edge">
<title>Node1&#45;&gt;Node7</title>
<path fill="none" stroke="midnightblue" d="M722.28,-224.4C710.09,-215.22 694.21,-203.26 681.81,-193.92"/>
<polygon fill="midnightblue" stroke="midnightblue" points="683.59,-190.88 673.5,-187.66 679.38,-196.47 683.59,-190.88"/>
</g>
<!-- Node11 -->
<g id="node11" class="node">
<title>Node11</title>
<g id="a_node11"><a xlink:href="a00146.html" target="_top" xlink:title="Contains definitions for the EmbreeRayTracer">
<polygon fill="white" stroke="black" points="200,-112.5 200,-131.5 312,-131.5 312,-112.5 200,-112.5"/>
<text text-anchor="middle" x="256" y="-119.5" font-family="Helvetica,sans-Serif" font-size="10.00">embree_raytracer.h</text>
</a>
</g>
</g>
<!-- Node1&#45;&gt;Node11 -->
<g id="edge12" class="edge">
<title>Node1&#45;&gt;Node11</title>
<path fill="none" stroke="midnightblue" d="M685.82,-234.22C619.57,-228.13 505.56,-214.63 411,-188 363.86,-174.73 311.91,-150.92 281.72,-136.09"/>
<polygon fill="midnightblue" stroke="midnightblue" points="283.22,-132.94 272.71,-131.62 280.11,-139.21 283.22,-132.94"/>
</g>
<!-- Node16 -->
<g id="node16" class="node">
<title>Node16</title>
<g id="a_node16"><a xlink:href="a00008.html" target="_top" xlink:title="Contains declarations for all functions related to the graph generator.">
<polygon fill="white" stroke="black" points="897.5,-112.5 897.5,-131.5 1002.5,-131.5 1002.5,-112.5 897.5,-112.5"/>
<text text-anchor="middle" x="950" y="-119.5" font-family="Helvetica,sans-Serif" font-size="10.00">graph_generator.h</text>
</a>
</g>
</g>
<!-- Node1&#45;&gt;Node16 -->
<g id="edge19" class="edge">
<title>Node1&#45;&gt;Node16</title>
<path fill="none" stroke="midnightblue" d="M766.63,-224.34C807.3,-201.86 886.06,-158.33 925.81,-136.37"/>
<polygon fill="midnightblue" stroke="midnightblue" points="927.52,-139.42 934.58,-131.52 924.13,-133.3 927.52,-139.42"/>
</g>
<!-- Node25 -->
<g id="node25" class="node">
<title>Node25</title>
<g id="a_node25"><a xlink:href="a00203.html" target="_top" xlink:title="Contains definitions for the Graph &#160;class.">
<polygon fill="white" stroke="black" points="1019.5,-168.5 1019.5,-187.5 1072.5,-187.5 1072.5,-168.5 1019.5,-168.5"/>
<text text-anchor="middle" x="1046" y="-175.5" font-family="Helvetica,sans-Serif" font-size="10.00">graph.h</text>
</a>
</g>
</g>
<!-- Node1&#45;&gt;Node25 -->
<g id="edge33" class="edge">
<title>Node1&#45;&gt;Node25</title>
<path fill="none" stroke="midnightblue" d="M796.23,-227.72C858.03,-215.67 956.41,-196.48 1009.37,-186.15"/>
<polygon fill="midnightblue" stroke="midnightblue" points="1010.19,-189.55 1019.33,-184.2 1008.85,-182.68 1010.19,-189.55"/>
</g>
<!-- Node3 -->
<g id="node3" class="node">
<title>Node3</title>
<g id="a_node3"><a xlink:href="a00347.html" target="_top" xlink:title=" ">
<polygon fill="white" stroke="black" points="368.5,-112.5 368.5,-131.5 469.5,-131.5 469.5,-112.5 368.5,-112.5"/>
<text text-anchor="middle" x="419" y="-119.5" font-family="Helvetica,sans-Serif" font-size="10.00">cinterface_utils.h</text>
</a>
</g>
</g>
<!-- Node2&#45;&gt;Node3 -->
<g id="edge2" class="edge">
<title>Node2&#45;&gt;Node3</title>
<path fill="none" stroke="midnightblue" d="M452.39,-168.08C446.74,-160.46 438.46,-149.26 431.55,-139.94"/>
<polygon fill="midnightblue" stroke="midnightblue" points="434.25,-137.7 425.48,-131.75 428.62,-141.87 434.25,-137.7"/>
</g>
<!-- Node4 -->
<g id="node4" class="node">
<title>Node4</title>
<g id="a_node4"><a xlink:title=" ">
<polygon fill="white" stroke="#bfbfbf" points="474.5,-56.5 474.5,-75.5 521.5,-75.5 521.5,-56.5 474.5,-56.5"/>
<text text-anchor="middle" x="498" y="-63.5" font-family="Helvetica,sans-Serif" font-size="10.00">vector</text>
</a>
</g>
</g>
<!-- Node2&#45;&gt;Node4 -->
<g id="edge5" class="edge">
<title>Node2&#45;&gt;Node4</title>
<path fill="none" stroke="midnightblue" d="M462.9,-168.48C466.94,-159.5 473.3,-144.91 478,-132 483.68,-116.4 489.15,-98.32 492.93,-85.2"/>
<polygon fill="midnightblue" stroke="midnightblue" points="496.32,-86.08 495.68,-75.5 489.59,-84.17 496.32,-86.08"/>
</g>
<!-- Node5 -->
<g id="node5" class="node">
<title>Node5</title>
<g id="a_node5"><a xlink:title=" ">
<polygon fill="white" stroke="#bfbfbf" points="483,-0.5 483,-19.5 525,-19.5 525,-0.5 483,-0.5"/>
<text text-anchor="middle" x="504" y="-7.5" font-family="Helvetica,sans-Serif" font-size="10.00">array</text>
</a>
</g>
</g>
<!-- Node2&#45;&gt;Node5 -->
<g id="edge6" class="edge">
<title>Node2&#45;&gt;Node5</title>
<path fill="none" stroke="midnightblue" d="M419.92,-168.56C385.76,-159.08 343.81,-141.09 359,-112 382.91,-66.21 438.09,-36.96 473.07,-22.3"/>
<polygon fill="midnightblue" stroke="midnightblue" points="474.82,-25.37 482.79,-18.39 472.2,-18.88 474.82,-25.37"/>
</g>
<!-- Node3&#45;&gt;Node4 -->
<g id="edge3" class="edge">
<title>Node3&#45;&gt;Node4</title>
<path fill="none" stroke="midnightblue" d="M431.69,-112.32C443.9,-103.98 462.58,-91.21 477,-81.35"/>
<polygon fill="midnightblue" stroke="midnightblue" points="479.06,-84.19 485.34,-75.65 475.11,-78.41 479.06,-84.19"/>
</g>
<!-- Node3&#45;&gt;Node5 -->
<g id="edge4" class="edge">
<title>Node3&#45;&gt;Node5</title>
<path fill="none" stroke="midnightblue" d="M424.7,-112.39C433.14,-99.76 449.65,-75.58 465,-56 472.65,-46.24 481.7,-35.74 489.16,-27.34"/>
<polygon fill="midnightblue" stroke="midnightblue" points="491.9,-29.53 495.97,-19.75 486.68,-24.85 491.9,-29.53"/>
</g>
<!-- Node8 -->
<g id="node8" class="node">
<title>Node8</title>
<g id="a_node8"><a xlink:title=" ">
<polygon fill="white" stroke="#bfbfbf" points="609.5,-112.5 609.5,-131.5 674.5,-131.5 674.5,-112.5 609.5,-112.5"/>
<text text-anchor="middle" x="642" y="-119.5" font-family="Helvetica,sans-Serif" font-size="10.00">exception</text>
</a>
</g>
</g>
<!-- Node7&#45;&gt;Node8 -->
<g id="edge9" class="edge">
<title>Node7&#45;&gt;Node8</title>
<path fill="none" stroke="midnightblue" d="M658.7,-168.08C656.02,-160.85 652.15,-150.41 648.81,-141.4"/>
<polygon fill="midnightblue" stroke="midnightblue" points="652,-139.91 645.24,-131.75 645.43,-142.34 652,-139.91"/>
</g>
<!-- Node9 -->
<g id="node9" class="node">
<title>Node9</title>
<g id="a_node9"><a xlink:title=" ">
<polygon fill="white" stroke="#bfbfbf" points="693,-112.5 693,-131.5 743,-131.5 743,-112.5 693,-112.5"/>
<text text-anchor="middle" x="718" y="-119.5" font-family="Helvetica,sans-Serif" font-size="10.00">cstring</text>
</a>
</g>
</g>
<!-- Node7&#45;&gt;Node9 -->
<g id="edge10" class="edge">
<title>Node7&#45;&gt;Node9</title>
<path fill="none" stroke="midnightblue" d="M671,-168.32C679.19,-160.42 691.51,-148.55 701.47,-138.94"/>
<polygon fill="midnightblue" stroke="midnightblue" points="704.07,-141.29 708.84,-131.83 699.21,-136.26 704.07,-141.29"/>
</g>
<!-- Node10 -->
<g id="node10" class="node">
<title>Node10</title>
<g id="a_node10"><a xlink:title=" ">
<polygon fill="white" stroke="#bfbfbf" points="526.5,-112.5 526.5,-131.5 591.5,-131.5 591.5,-112.5 526.5,-112.5"/>
<text text-anchor="middle" x="559" y="-119.5" font-family="Helvetica,sans-Serif" font-size="10.00">stdexcept</text>
</a>
</g>
</g>
<!-- Node7&#45;&gt;Node10 -->
<g id="edge11" class="edge">
<title>Node7&#45;&gt;Node10</title>
<path fill="none" stroke="midnightblue" d="M645.45,-168.32C629.01,-159.7 603.57,-146.36 584.53,-136.39"/>
<polygon fill="midnightblue" stroke="midnightblue" points="585.99,-133.2 575.51,-131.65 582.74,-139.4 585.99,-133.2"/>
</g>
<!-- Node11&#45;&gt;Node4 -->
<g id="edge16" class="edge">
<title>Node11&#45;&gt;Node4</title>
<path fill="none" stroke="midnightblue" d="M294.35,-112.44C341.23,-101.98 419.83,-84.44 464.43,-74.49"/>
<polygon fill="midnightblue" stroke="midnightblue" points="465.47,-77.84 474.47,-72.25 463.95,-71.01 465.47,-77.84"/>
</g>
<!-- Node11&#45;&gt;Node5 -->
<g id="edge17" class="edge">
<title>Node11&#45;&gt;Node5</title>
<path fill="none" stroke="midnightblue" d="M266.54,-112.47C283.85,-98.84 319.8,-72.04 354,-56 393.37,-37.54 442.08,-24.58 473.11,-17.46"/>
<polygon fill="midnightblue" stroke="midnightblue" points="473.92,-20.86 482.91,-15.26 472.39,-14.03 473.92,-20.86"/>
</g>
<!-- Node12 -->
<g id="node12" class="node">
<title>Node12</title>
<g id="a_node12"><a xlink:title=" ">
<polygon fill="white" stroke="#bfbfbf" points="260.5,-56.5 260.5,-75.5 301.5,-75.5 301.5,-56.5 260.5,-56.5"/>
<text text-anchor="middle" x="281" y="-63.5" font-family="Helvetica,sans-Serif" font-size="10.00">rpc.h</text>
</a>
</g>
</g>
<!-- Node11&#45;&gt;Node12 -->
<g id="edge13" class="edge">
<title>Node11&#45;&gt;Node12</title>
<path fill="none" stroke="midnightblue" d="M260.13,-112.08C263.51,-104.77 268.42,-94.18 272.62,-85.1"/>
<polygon fill="midnightblue" stroke="midnightblue" points="275.92,-86.3 276.95,-75.75 269.57,-83.36 275.92,-86.3"/>
</g>
<!-- Node13 -->
<g id="node13" class="node">
<title>Node13</title>
<g id="a_node13"><a xlink:title=" ">
<polygon fill="white" stroke="#bfbfbf" points="0,-56.5 0,-75.5 54,-75.5 54,-56.5 0,-56.5"/>
<text text-anchor="middle" x="27" y="-63.5" font-family="Helvetica,sans-Serif" font-size="10.00">rtcore.h</text>
</a>
</g>
</g>
<!-- Node11&#45;&gt;Node13 -->
<g id="edge14" class="edge">
<title>Node11&#45;&gt;Node13</title>
<path fill="none" stroke="midnightblue" d="M218.6,-112.46C181.74,-104.01 123.56,-90.56 64.06,-76.23"/>
<polygon fill="midnightblue" stroke="midnightblue" points="64.66,-72.77 54.12,-73.83 63.01,-79.58 64.66,-72.77"/>
</g>
<!-- Node14 -->
<g id="node14" class="node">
<title>Node14</title>
<g id="a_node14"><a xlink:title=" ">
<polygon fill="white" stroke="#bfbfbf" points="72.5,-56.5 72.5,-75.5 203.5,-75.5 203.5,-56.5 72.5,-56.5"/>
<text text-anchor="middle" x="138" y="-63.5" font-family="Helvetica,sans-Serif" font-size="10.00">corecrt_math_defines.h</text>
</a>
</g>
</g>
<!-- Node11&#45;&gt;Node14 -->
<g id="edge15" class="edge">
<title>Node11&#45;&gt;Node14</title>
<path fill="none" stroke="midnightblue" d="M237.3,-112.44C218.06,-103.64 187.85,-89.81 165.8,-79.72"/>
<polygon fill="midnightblue" stroke="midnightblue" points="167.16,-76.5 156.61,-75.52 164.25,-82.86 167.16,-76.5"/>
</g>
<!-- Node15 -->
<g id="node15" class="node">
<title>Node15</title>
<g id="a_node15"><a xlink:href="a00152.html" target="_top" xlink:title=" ">
<polygon fill="white" stroke="black" points="331,-0.5 331,-19.5 399,-19.5 399,-0.5 331,-0.5"/>
<text text-anchor="middle" x="365" y="-7.5" font-family="Helvetica,sans-Serif" font-size="10.00">HitStruct.h</text>
</a>
</g>
</g>
<!-- Node11&#45;&gt;Node15 -->
<g id="edge18" class="edge">
<title>Node11&#45;&gt;Node15</title>
<path fill="none" stroke="midnightblue" d="M252.08,-112.12C246.83,-98.7 239.41,-73.03 251,-56 266.62,-33.04 295.95,-21.79 320.94,-16.29"/>
<polygon fill="midnightblue" stroke="midnightblue" points="321.84,-19.68 330.98,-14.32 320.49,-12.81 321.84,-19.68"/>
</g>
<!-- Node16&#45;&gt;Node4 -->
<g id="edge22" class="edge">
<title>Node16&#45;&gt;Node4</title>
<path fill="none" stroke="midnightblue" d="M897.35,-113.77C892.5,-113.15 887.66,-112.55 883,-112 730.03,-93.91 687.34,-104.34 531.62,-75.8"/>
<polygon fill="midnightblue" stroke="midnightblue" points="532.16,-72.34 521.69,-73.96 530.88,-79.23 532.16,-72.34"/>
</g>
<!-- Node16&#45;&gt;Node5 -->
<g id="edge23" class="edge">
<title>Node16&#45;&gt;Node5</title>
<path fill="none" stroke="midnightblue" d="M950.28,-112.22C950.21,-97.98 947.79,-70.02 931,-56 900.73,-30.72 628.72,-16.49 535.32,-12.31"/>
<polygon fill="midnightblue" stroke="midnightblue" points="535.23,-8.8 525.09,-11.86 534.93,-15.8 535.23,-8.8"/>
</g>
<!-- Node17 -->
<g id="node17" class="node">
<title>Node17</title>
<g id="a_node17"><a xlink:title=" ">
<polygon fill="white" stroke="#bfbfbf" points="824.5,-56.5 824.5,-75.5 871.5,-75.5 871.5,-56.5 824.5,-56.5"/>
<text text-anchor="middle" x="848" y="-63.5" font-family="Helvetica,sans-Serif" font-size="10.00">cmath</text>
</a>
</g>
</g>
<!-- Node16&#45;&gt;Node17 -->
<g id="edge20" class="edge">
<title>Node16&#45;&gt;Node17</title>
<path fill="none" stroke="midnightblue" d="M933.61,-112.32C917.33,-103.7 892.13,-90.36 873.28,-80.39"/>
<polygon fill="midnightblue" stroke="midnightblue" points="874.82,-77.24 864.35,-75.65 871.55,-83.43 874.82,-77.24"/>
</g>
<!-- Node18 -->
<g id="node18" class="node">
<title>Node18</title>
<g id="a_node18"><a xlink:title=" ">
<polygon fill="white" stroke="#bfbfbf" points="890,-56.5 890,-75.5 922,-75.5 922,-56.5 890,-56.5"/>
<text text-anchor="middle" x="906" y="-63.5" font-family="Helvetica,sans-Serif" font-size="10.00">set</text>
</a>
</g>
</g>
<!-- Node16&#45;&gt;Node18 -->
<g id="edge21" class="edge">
<title>Node16&#45;&gt;Node18</title>
<path fill="none" stroke="midnightblue" d="M942.73,-112.08C936.46,-104.38 927.21,-93.03 919.57,-83.65"/>
<polygon fill="midnightblue" stroke="midnightblue" points="922.16,-81.29 913.13,-75.75 916.73,-85.71 922.16,-81.29"/>
</g>
<!-- Node19 -->
<g id="node19" class="node">
<title>Node19</title>
<g id="a_node19"><a xlink:href="a00209.html" target="_top" xlink:title="Contains definitions for the Node structure.">
<polygon fill="white" stroke="black" points="1048.5,-56.5 1048.5,-75.5 1099.5,-75.5 1099.5,-56.5 1048.5,-56.5"/>
<text text-anchor="middle" x="1074" y="-63.5" font-family="Helvetica,sans-Serif" font-size="10.00">Node.h</text>
</a>
</g>
</g>
<!-- Node16&#45;&gt;Node19 -->
<g id="edge24" class="edge">
<title>Node16&#45;&gt;Node19</title>
<path fill="none" stroke="midnightblue" d="M969.65,-112.44C989.96,-103.6 1021.9,-89.69 1045.1,-79.59"/>
<polygon fill="midnightblue" stroke="midnightblue" points="1046.67,-82.72 1054.44,-75.52 1043.88,-76.3 1046.67,-82.72"/>
</g>
<!-- Node21 -->
<g id="node21" class="node">
<title>Node21</title>
<g id="a_node21"><a xlink:title=" ">
<polygon fill="white" stroke="#bfbfbf" points="978,-56.5 978,-75.5 1030,-75.5 1030,-56.5 978,-56.5"/>
<text text-anchor="middle" x="1004" y="-63.5" font-family="Helvetica,sans-Serif" font-size="10.00">cassert</text>
</a>
</g>
</g>
<!-- Node16&#45;&gt;Node21 -->
<g id="edge27" class="edge">
<title>Node16&#45;&gt;Node21</title>
<path fill="none" stroke="midnightblue" d="M958.92,-112.08C966.78,-104.22 978.43,-92.57 987.92,-83.08"/>
<polygon fill="midnightblue" stroke="midnightblue" points="990.65,-85.3 995.25,-75.75 985.7,-80.35 990.65,-85.3"/>
</g>
<!-- Node22 -->
<g id="node22" class="node">
<title>Node22</title>
<g id="a_node22"><a xlink:title=" ">
<polygon fill="white" stroke="#bfbfbf" points="644.5,-56.5 644.5,-75.5 695.5,-75.5 695.5,-56.5 644.5,-56.5"/>
<text text-anchor="middle" x="670" y="-63.5" font-family="Helvetica,sans-Serif" font-size="10.00">variant</text>
</a>
</g>
</g>
<!-- Node16&#45;&gt;Node22 -->
<g id="edge28" class="edge">
<title>Node16&#45;&gt;Node22</title>
<path fill="none" stroke="midnightblue" d="M897.69,-112.48C850.18,-104.5 777.95,-91.76 705.75,-76.03"/>
<polygon fill="midnightblue" stroke="midnightblue" points="706.08,-72.52 695.56,-73.79 704.58,-79.36 706.08,-72.52"/>
</g>
<!-- Node23 -->
<g id="node23" class="node">
<title>Node23</title>
<g id="a_node23"><a xlink:href="a00158.html" target="_top" xlink:title=" ">
<polygon fill="white" stroke="black" points="540,-56.5 540,-75.5 602,-75.5 602,-56.5 540,-56.5"/>
<text text-anchor="middle" x="571" y="-63.5" font-family="Helvetica,sans-Serif" font-size="10.00">MultiRT.h</text>
</a>
</g>
</g>
<!-- Node16&#45;&gt;Node23 -->
<g id="edge29" class="edge">
<title>Node16&#45;&gt;Node23</title>
<path fill="none" stroke="midnightblue" d="M897.3,-113.49C821.08,-102.63 681.62,-82.76 612.33,-72.89"/>
<polygon fill="midnightblue" stroke="midnightblue" points="612.63,-69.4 602.24,-71.45 611.64,-76.33 612.63,-69.4"/>
</g>
<!-- Node24 -->
<g id="node24" class="node">
<title>Node24</title>
<g id="a_node24"><a xlink:title=" ">
<polygon fill="white" stroke="#bfbfbf" points="713.5,-56.5 713.5,-75.5 806.5,-75.5 806.5,-56.5 713.5,-56.5"/>
<text text-anchor="middle" x="760" y="-63.5" font-family="Helvetica,sans-Serif" font-size="10.00">unordered_map</text>
</a>
</g>
</g>
<!-- Node16&#45;&gt;Node24 -->
<g id="edge32" class="edge">
<title>Node16&#45;&gt;Node24</title>
<path fill="none" stroke="midnightblue" d="M919.89,-112.44C887.37,-103.2 835.42,-88.44 799.61,-78.26"/>
<polygon fill="midnightblue" stroke="midnightblue" points="800.54,-74.88 789.97,-75.52 798.63,-81.62 800.54,-74.88"/>
</g>
<!-- Node19&#45;&gt;Node5 -->
<g id="edge25" class="edge">
<title>Node19&#45;&gt;Node5</title>
<path fill="none" stroke="midnightblue" d="M1048.49,-57.91C1045.31,-57.19 1042.09,-56.52 1039,-56 849.46,-23.89 618.09,-14.31 535.3,-11.8"/>
<polygon fill="midnightblue" stroke="midnightblue" points="535.16,-8.3 525.06,-11.5 534.96,-15.29 535.16,-8.3"/>
</g>
<!-- Node20 -->
<g id="node20" class="node">
<title>Node20</title>
<g id="a_node20"><a xlink:title=" ">
<polygon fill="white" stroke="#bfbfbf" points="1045.5,-0.5 1045.5,-19.5 1102.5,-19.5 1102.5,-0.5 1045.5,-0.5"/>
<text text-anchor="middle" x="1074" y="-7.5" font-family="Helvetica,sans-Serif" font-size="10.00">ostream</text>
</a>
</g>
</g>
<!-- Node19&#45;&gt;Node20 -->
<g id="edge26" class="edge">
<title>Node19&#45;&gt;Node20</title>
<path fill="none" stroke="midnightblue" d="M1074,-56.08C1074,-49.01 1074,-38.86 1074,-29.99"/>
<polygon fill="midnightblue" stroke="midnightblue" points="1077.5,-29.75 1074,-19.75 1070.5,-29.75 1077.5,-29.75"/>
</g>
<!-- Node23&#45;&gt;Node5 -->
<g id="edge30" class="edge">
<title>Node23&#45;&gt;Node5</title>
<path fill="none" stroke="midnightblue" d="M560.24,-56.32C550.23,-48.26 535.11,-36.08 523.07,-26.37"/>
<polygon fill="midnightblue" stroke="midnightblue" points="524.94,-23.38 514.96,-19.83 520.55,-28.83 524.94,-23.38"/>
</g>
<!-- Node23&#45;&gt;Node15 -->
<g id="edge31" class="edge">
<title>Node23&#45;&gt;Node15</title>
<path fill="none" stroke="midnightblue" d="M539.71,-56.8C504.41,-47.54 446.78,-32.44 407.44,-22.12"/>
<polygon fill="midnightblue" stroke="midnightblue" points="408.16,-18.7 397.6,-19.55 406.39,-25.47 408.16,-18.7"/>
</g>
<!-- Node25&#45;&gt;Node4 -->
<g id="edge35" class="edge">
<title>Node25&#45;&gt;Node4</title>
<path fill="none" stroke="midnightblue" d="M1019.37,-171.05C987.71,-163.59 933.56,-149.62 889,-132 870.88,-124.84 868.65,-117.63 850,-112 716.48,-71.7 673.08,-101.45 531.6,-75.79"/>
<polygon fill="midnightblue" stroke="midnightblue" points="532.16,-72.33 521.69,-73.93 530.87,-79.21 532.16,-72.33"/>
</g>
<!-- Node25&#45;&gt;Node6 -->
<g id="edge34" class="edge">
<title>Node25&#45;&gt;Node6</title>
<path fill="none" stroke="midnightblue" d="M1019.31,-171.12C978.62,-162.15 900.42,-144.91 849.5,-133.69"/>
<polygon fill="midnightblue" stroke="midnightblue" points="850.22,-130.26 839.7,-131.53 848.71,-137.1 850.22,-130.26"/>
</g>
<!-- Node25&#45;&gt;Node19 -->
<g id="edge39" class="edge">
<title>Node25&#45;&gt;Node19</title>
<path fill="none" stroke="midnightblue" d="M1072.51,-174.07C1116.62,-168.59 1202.04,-155.19 1220,-132 1251.21,-91.69 1162.4,-75.76 1109.78,-69.98"/>
<polygon fill="midnightblue" stroke="midnightblue" points="1110.09,-66.49 1099.79,-68.95 1109.38,-73.45 1110.09,-66.49"/>
</g>
<!-- Node26 -->
<g id="node26" class="node">
<title>Node26</title>
<g id="a_node26"><a xlink:href="a00197.html" target="_top" xlink:title="Contains definitions for the Edge structure.">
<polygon fill="white" stroke="black" points="1021,-112.5 1021,-131.5 1071,-131.5 1071,-112.5 1021,-112.5"/>
<text text-anchor="middle" x="1046" y="-119.5" font-family="Helvetica,sans-Serif" font-size="10.00">Edge.h</text>
</a>
</g>
</g>
<!-- Node25&#45;&gt;Node26 -->
<g id="edge36" class="edge">
<title>Node25&#45;&gt;Node26</title>
<path fill="none" stroke="midnightblue" d="M1046,-168.08C1046,-161.01 1046,-150.86 1046,-141.99"/>
<polygon fill="midnightblue" stroke="midnightblue" points="1049.5,-141.75 1046,-131.75 1042.5,-141.75 1049.5,-141.75"/>
</g>
<!-- Node27 -->
<g id="node27" class="node">
<title>Node27</title>
<g id="a_node27"><a xlink:title=" ">
<polygon fill="white" stroke="#bfbfbf" points="1089,-112.5 1089,-131.5 1133,-131.5 1133,-112.5 1089,-112.5"/>
<text text-anchor="middle" x="1111" y="-119.5" font-family="Helvetica,sans-Serif" font-size="10.00">Eigen</text>
</a>
</g>
</g>
<!-- Node25&#45;&gt;Node27 -->
<g id="edge40" class="edge">
<title>Node25&#45;&gt;Node27</title>
<path fill="none" stroke="midnightblue" d="M1056.44,-168.32C1066.15,-160.26 1080.82,-148.08 1092.5,-138.37"/>
<polygon fill="midnightblue" stroke="midnightblue" points="1094.91,-140.92 1100.37,-131.83 1090.44,-135.53 1094.91,-140.92"/>
</g>
<!-- Node28 -->
<g id="node28" class="node">
<title>Node28</title>
<g id="a_node28"><a xlink:title=" ">
<polygon fill="white" stroke="#bfbfbf" points="1151,-112.5 1151,-131.5 1211,-131.5 1211,-112.5 1151,-112.5"/>
<text text-anchor="middle" x="1181" y="-119.5" font-family="Helvetica,sans-Serif" font-size="10.00">iostream</text>
</a>
</g>
</g>
<!-- Node25&#45;&gt;Node28 -->
<g id="edge41" class="edge">
<title>Node25&#45;&gt;Node28</title>
<path fill="none" stroke="midnightblue" d="M1067.39,-168.44C1089.71,-159.52 1124.9,-145.44 1150.21,-135.32"/>
<polygon fill="midnightblue" stroke="midnightblue" points="1151.72,-138.48 1159.71,-131.52 1149.12,-131.98 1151.72,-138.48"/>
</g>
<!-- Node26&#45;&gt;Node4 -->
<g id="edge38" class="edge">
<title>Node26&#45;&gt;Node4</title>
<path fill="none" stroke="midnightblue" d="M1020.86,-113.79C1017.89,-113.11 1014.89,-112.49 1012,-112 803.8,-76.96 744.07,-111.3 531.58,-75.73"/>
<polygon fill="midnightblue" stroke="midnightblue" points="532.12,-72.27 521.67,-74.04 530.94,-79.17 532.12,-72.27"/>
</g>
<!-- Node26&#45;&gt;Node19 -->
<g id="edge37" class="edge">
<title>Node26&#45;&gt;Node19</title>
<path fill="none" stroke="midnightblue" d="M1050.62,-112.08C1054.46,-104.69 1060.02,-93.95 1064.76,-84.81"/>
<polygon fill="midnightblue" stroke="midnightblue" points="1067.97,-86.24 1069.46,-75.75 1061.75,-83.02 1067.97,-86.24"/>
</g>
</g>
</svg>
