<?xml version="1.0" encoding="UTF-8" standalone="no"?>
<!DOCTYPE svg PUBLIC "-//W3C//DTD SVG 1.1//EN"
 "http://www.w3.org/Graphics/SVG/1.1/DTD/svg11.dtd">
<!-- Generated by graphviz version 2.43.0 (0)
 -->
<!-- Title: CastMultipleDirectionsOneOrigin Pages: 1 -->
<svg width="540pt" height="78pt"
 viewBox="0.00 0.00 540.00 77.50" xmlns="http://www.w3.org/2000/svg" xmlns:xlink="http://www.w3.org/1999/xlink">
<g id="graph0" class="graph" transform="scale(1 1) rotate(0) translate(4 73.5)">
<title>CastMultipleDirectionsOneOrigin</title>
<polygon fill="white" stroke="transparent" points="-4,4 -4,-73.5 536,-73.5 536,4 -4,4"/>
<!-- Node1 -->
<g id="node1" class="node">
<title>Node1</title>
<g id="a_node1"><a xlink:title="Cast rays from a single origin point in multiple directions and get a the points where they intersect...">
<polygon fill="#bfbfbf" stroke="black" points="0,-22.5 0,-52.5 147,-52.5 147,-22.5 0,-22.5"/>
<text text-anchor="start" x="8" y="-40.5" font-family="Helvetica,sans-Serif" font-size="10.00">CastMultipleDirectionsOne</text>
<text text-anchor="middle" x="73.5" y="-29.5" font-family="Helvetica,sans-Serif" font-size="10.00">Origin</text>
</a>
</g>
</g>
<!-- Node2 -->
<g id="node2" class="node">
<title>Node2</title>
<g id="a_node2"><a xlink:href="a00179.html#a2f5650b0bad6c47aa34fc2206433a34b" target="_top" xlink:title="Convert a raw array from an external caller to an organized vector of points">
<polygon fill="white" stroke="black" points="183,-50 183,-69 350,-69 350,-50 183,-50"/>
<text text-anchor="middle" x="266.5" y="-57" font-family="Helvetica,sans-Serif" font-size="10.00">ConvertRawFloatArrayToPoints</text>
</a>
</g>
</g>
<!-- Node1&#45;&gt;Node2 -->
<g id="edge1" class="edge">
<title>Node1&#45;&gt;Node2</title>
<path fill="none" stroke="midnightblue" d="M147.25,-45.88C155.59,-46.84 164.17,-47.83 172.72,-48.81"/>
<polygon fill="midnightblue" stroke="midnightblue" points="172.39,-52.3 182.73,-49.97 173.2,-45.34 172.39,-52.3"/>
</g>
<!-- Node3 -->
<g id="node3" class="node">
<title>Node3</title>
<g id="a_node3"><a xlink:href="a01357.html#a5dd86a06e71c5215b6abdc39056db15f" target="_top" xlink:title="Cast multiple rays and recieve hitpoints in return.">
<polygon fill="white" stroke="black" points="193.5,-0.5 193.5,-30.5 339.5,-30.5 339.5,-0.5 193.5,-0.5"/>
<text text-anchor="start" x="201.5" y="-18.5" font-family="Helvetica,sans-Serif" font-size="10.00">HF::RayTracer::EmbreeRay</text>
<text text-anchor="middle" x="266.5" y="-7.5" font-family="Helvetica,sans-Serif" font-size="10.00">Tracer::PointIntersections</text>
</a>
</g>
</g>
<!-- Node1&#45;&gt;Node3 -->
<g id="edge2" class="edge">
<title>Node1&#45;&gt;Node3</title>
<path fill="none" stroke="midnightblue" d="M147.25,-29.12C159.03,-27.76 171.3,-26.35 183.28,-24.97"/>
<polygon fill="midnightblue" stroke="midnightblue" points="183.73,-28.44 193.26,-23.82 182.93,-21.49 183.73,-28.44"/>
</g>
<!-- Node4 -->
<g id="node4" class="node">
<title>Node4</title>
<g id="a_node4"><a xlink:href="a01357.html#aa8424b274c7c5d0598ff13b49ac8c8d2" target="_top" xlink:title="Cast a ray and overwrite the origin with the hitpoint if it intersects any geometry.">
<polygon fill="white" stroke="black" points="386,-0.5 386,-30.5 532,-30.5 532,-0.5 386,-0.5"/>
<text text-anchor="start" x="394" y="-18.5" font-family="Helvetica,sans-Serif" font-size="10.00">HF::RayTracer::EmbreeRay</text>
<text text-anchor="middle" x="459" y="-7.5" font-family="Helvetica,sans-Serif" font-size="10.00">Tracer::PointIntersection</text>
</a>
</g>
</g>
<!-- Node3&#45;&gt;Node4 -->
<g id="edge3" class="edge">
<title>Node3&#45;&gt;Node4</title>
<path fill="none" stroke="midnightblue" d="M339.52,-15.5C351.37,-15.5 363.74,-15.5 375.82,-15.5"/>
<polygon fill="midnightblue" stroke="midnightblue" points="375.88,-19 385.88,-15.5 375.88,-12 375.88,-19"/>
</g>
</g>
</svg>
