<?xml version="1.0" encoding="UTF-8" standalone="no"?>
<!DOCTYPE svg PUBLIC "-//W3C//DTD SVG 1.1//EN"
 "http://www.w3.org/Graphics/SVG/1.1/DTD/svg11.dtd">
<!-- Generated by graphviz version 4.0.0 (20220529.0937)
 -->
<!-- Title: Cinterface/pathfinder_C.cpp Pages: 1 -->
<svg width="1081pt" height="263pt"
 viewBox="0.00 0.00 1081.00 263.00" xmlns="http://www.w3.org/2000/svg" xmlns:xlink="http://www.w3.org/1999/xlink">
<g id="graph0" class="graph" transform="scale(1 1) rotate(0) translate(4 259)">
<title>Cinterface/pathfinder_C.cpp</title>
<polygon fill="white" stroke="transparent" points="-4,4 -4,-259 1077,-259 1077,4 -4,4"/>
<!-- Node1 -->
<g id="node1" class="node">
<title>Node1</title>
<g id="a_node1"><a xlink:title=" ">
<polygon fill="#bfbfbf" stroke="black" points="458.5,-224.5 458.5,-254.5 563.5,-254.5 563.5,-224.5 458.5,-224.5"/>
<text text-anchor="start" x="466.5" y="-242.5" font-family="Helvetica,sans-Serif" font-size="10.00">Cinterface/pathfinder</text>
<text text-anchor="middle" x="511" y="-231.5" font-family="Helvetica,sans-Serif" font-size="10.00">_C.cpp</text>
</a>
</g>
</g>
<!-- Node2 -->
<g id="node2" class="node">
<title>Node2</title>
<g id="a_node2"><a xlink:href="a00359.html" target="_top" xlink:title="Header file for C Interface pathfinding functionality.">
<polygon fill="white" stroke="black" points="102.5,-168.5 102.5,-187.5 181.5,-187.5 181.5,-168.5 102.5,-168.5"/>
<text text-anchor="middle" x="142" y="-175.5" font-family="Helvetica,sans-Serif" font-size="10.00">pathfinder_C.h</text>
</a>
</g>
</g>
<!-- Node1&#45;&gt;Node2 -->
<g id="edge1" class="edge">
<title>Node1&#45;&gt;Node2</title>
<path fill="none" stroke="midnightblue" d="M458.13,-229.98C387.05,-218.51 261.58,-198.28 192,-187.06"/>
<polygon fill="midnightblue" stroke="midnightblue" points="192.17,-183.54 181.74,-185.41 191.05,-190.46 192.17,-183.54"/>
</g>
<!-- Node4 -->
<g id="node4" class="node">
<title>Node4</title>
<g id="a_node4"><a xlink:title=" ">
<polygon fill="white" stroke="#bfbfbf" points="370,-56.5 370,-75.5 412,-75.5 412,-56.5 370,-56.5"/>
<text text-anchor="middle" x="391" y="-63.5" font-family="Helvetica,sans-Serif" font-size="10.00">vector</text>
</a>
</g>
</g>
<!-- Node1&#45;&gt;Node4 -->
<g id="edge6" class="edge">
<title>Node1&#45;&gt;Node4</title>
<path fill="none" stroke="midnightblue" d="M501.18,-224.47C479.28,-193.17 426.52,-117.76 402.85,-83.93"/>
<polygon fill="midnightblue" stroke="midnightblue" points="405.59,-81.75 396.99,-75.56 399.85,-85.76 405.59,-81.75"/>
</g>
<!-- Node6 -->
<g id="node6" class="node">
<title>Node6</title>
<g id="a_node6"><a xlink:title=" ">
<polygon fill="white" stroke="#bfbfbf" points="802,-112.5 802,-131.5 854,-131.5 854,-112.5 802,-112.5"/>
<text text-anchor="middle" x="828" y="-119.5" font-family="Helvetica,sans-Serif" font-size="10.00">memory</text>
</a>
</g>
</g>
<!-- Node1&#45;&gt;Node6 -->
<g id="edge5" class="edge">
<title>Node1&#45;&gt;Node6</title>
<path fill="none" stroke="midnightblue" d="M563.62,-232.07C609.51,-225.17 677.13,-211.84 732,-188 761.51,-175.18 791.59,-153.03 810.03,-138.2"/>
<polygon fill="midnightblue" stroke="midnightblue" points="812.59,-140.63 818.09,-131.58 808.14,-135.22 812.59,-140.63"/>
</g>
<!-- Node7 -->
<g id="node7" class="node">
<title>Node7</title>
<g id="a_node7"><a xlink:href="a00110.html" target="_top" xlink:title="Contains definitions for the Exceptions namespace.">
<polygon fill="white" stroke="black" points="897,-168.5 897,-187.5 983,-187.5 983,-168.5 897,-168.5"/>
<text text-anchor="middle" x="940" y="-175.5" font-family="Helvetica,sans-Serif" font-size="10.00">HFExceptions.h</text>
</a>
</g>
</g>
<!-- Node1&#45;&gt;Node7 -->
<g id="edge7" class="edge">
<title>Node1&#45;&gt;Node7</title>
<path fill="none" stroke="midnightblue" d="M563.6,-231.2C645.97,-219.78 804.49,-197.79 887.06,-186.34"/>
<polygon fill="midnightblue" stroke="midnightblue" points="887.56,-189.81 896.99,-184.97 886.6,-182.87 887.56,-189.81"/>
</g>
<!-- Node11 -->
<g id="node11" class="node">
<title>Node11</title>
<g id="a_node11"><a xlink:href="a00203.html" target="_top" xlink:title="Contains definitions for the Graph &#160;class.">
<polygon fill="white" stroke="black" points="295.5,-168.5 295.5,-187.5 344.5,-187.5 344.5,-168.5 295.5,-168.5"/>
<text text-anchor="middle" x="320" y="-175.5" font-family="Helvetica,sans-Serif" font-size="10.00">graph.h</text>
</a>
</g>
</g>
<!-- Node1&#45;&gt;Node11 -->
<g id="edge11" class="edge">
<title>Node1&#45;&gt;Node11</title>
<path fill="none" stroke="midnightblue" d="M465.74,-224.4C431.64,-213.78 385.61,-199.44 354.47,-189.74"/>
<polygon fill="midnightblue" stroke="midnightblue" points="355.11,-186.27 344.52,-186.64 353.02,-192.95 355.11,-186.27"/>
</g>
<!-- Node18 -->
<g id="node18" class="node">
<title>Node18</title>
<g id="a_node18"><a xlink:href="a00140.html" target="_top" xlink:title="Contains definition for the BoostGraphDeleter structure.">
<polygon fill="white" stroke="black" points="651,-168.5 651,-187.5 723,-187.5 723,-168.5 651,-168.5"/>
<text text-anchor="middle" x="687" y="-175.5" font-family="Helvetica,sans-Serif" font-size="10.00">path_finder.h</text>
</a>
</g>
</g>
<!-- Node1&#45;&gt;Node18 -->
<g id="edge22" class="edge">
<title>Node1&#45;&gt;Node18</title>
<path fill="none" stroke="midnightblue" d="M552.71,-224.4C582.99,-214.16 623.49,-200.47 652.07,-190.81"/>
<polygon fill="midnightblue" stroke="midnightblue" points="653.3,-194.09 661.65,-187.57 651.05,-187.46 653.3,-194.09"/>
</g>
<!-- Node21 -->
<g id="node21" class="node">
<title>Node21</title>
<g id="a_node21"><a xlink:href="a00215.html" target="_top" xlink:title="Contains definitions for the Path structure.">
<polygon fill="white" stroke="black" points="489,-168.5 489,-187.5 533,-187.5 533,-168.5 489,-168.5"/>
<text text-anchor="middle" x="511" y="-175.5" font-family="Helvetica,sans-Serif" font-size="10.00">path.h</text>
</a>
</g>
</g>
<!-- Node1&#45;&gt;Node21 -->
<g id="edge28" class="edge">
<title>Node1&#45;&gt;Node21</title>
<path fill="none" stroke="midnightblue" d="M511,-224.4C511,-216.47 511,-206.46 511,-197.86"/>
<polygon fill="midnightblue" stroke="midnightblue" points="514.5,-197.66 511,-187.66 507.5,-197.66 514.5,-197.66"/>
</g>
<!-- Node3 -->
<g id="node3" class="node">
<title>Node3</title>
<g id="a_node3"><a xlink:href="a00347.html" target="_top" xlink:title=" ">
<polygon fill="white" stroke="black" points="0,-112.5 0,-131.5 90,-131.5 90,-112.5 0,-112.5"/>
<text text-anchor="middle" x="45" y="-119.5" font-family="Helvetica,sans-Serif" font-size="10.00">cinterface_utils.h</text>
</a>
</g>
</g>
<!-- Node2&#45;&gt;Node3 -->
<g id="edge2" class="edge">
<title>Node2&#45;&gt;Node3</title>
<path fill="none" stroke="midnightblue" d="M126.42,-168.32C111,-159.74 87.19,-146.49 69.29,-136.52"/>
<polygon fill="midnightblue" stroke="midnightblue" points="70.99,-133.46 60.55,-131.65 67.58,-139.58 70.99,-133.46"/>
</g>
<!-- Node3&#45;&gt;Node4 -->
<g id="edge3" class="edge">
<title>Node3&#45;&gt;Node4</title>
<path fill="none" stroke="midnightblue" d="M90.07,-113.45C93.09,-112.95 96.09,-112.47 99,-112 193.76,-96.8 305.99,-79.78 359.53,-71.72"/>
<polygon fill="midnightblue" stroke="midnightblue" points="360.37,-75.13 369.74,-70.19 359.33,-68.21 360.37,-75.13"/>
</g>
<!-- Node5 -->
<g id="node5" class="node">
<title>Node5</title>
<g id="a_node5"><a xlink:title=" ">
<polygon fill="white" stroke="#bfbfbf" points="146,-0.5 146,-19.5 184,-19.5 184,-0.5 146,-0.5"/>
<text text-anchor="middle" x="165" y="-7.5" font-family="Helvetica,sans-Serif" font-size="10.00">array</text>
</a>
</g>
</g>
<!-- Node3&#45;&gt;Node5 -->
<g id="edge4" class="edge">
<title>Node3&#45;&gt;Node5</title>
<path fill="none" stroke="midnightblue" d="M54.42,-112.37C74.66,-93.81 122.55,-49.91 148.16,-26.44"/>
<polygon fill="midnightblue" stroke="midnightblue" points="150.62,-28.93 155.63,-19.59 145.89,-23.77 150.62,-28.93"/>
</g>
<!-- Node8 -->
<g id="node8" class="node">
<title>Node8</title>
<g id="a_node8"><a xlink:title=" ">
<polygon fill="white" stroke="#bfbfbf" points="949.5,-112.5 949.5,-131.5 1008.5,-131.5 1008.5,-112.5 949.5,-112.5"/>
<text text-anchor="middle" x="979" y="-119.5" font-family="Helvetica,sans-Serif" font-size="10.00">exception</text>
</a>
</g>
</g>
<!-- Node7&#45;&gt;Node8 -->
<g id="edge8" class="edge">
<title>Node7&#45;&gt;Node8</title>
<path fill="none" stroke="midnightblue" d="M946.44,-168.08C951.95,-160.46 960.03,-149.26 966.76,-139.94"/>
<polygon fill="midnightblue" stroke="midnightblue" points="969.66,-141.91 972.68,-131.75 963.99,-137.81 969.66,-141.91"/>
</g>
<!-- Node9 -->
<g id="node9" class="node">
<title>Node9</title>
<g id="a_node9"><a xlink:title=" ">
<polygon fill="white" stroke="#bfbfbf" points="1027,-112.5 1027,-131.5 1073,-131.5 1073,-112.5 1027,-112.5"/>
<text text-anchor="middle" x="1050" y="-119.5" font-family="Helvetica,sans-Serif" font-size="10.00">cstring</text>
</a>
</g>
</g>
<!-- Node7&#45;&gt;Node9 -->
<g id="edge9" class="edge">
<title>Node7&#45;&gt;Node9</title>
<path fill="none" stroke="midnightblue" d="M957.67,-168.32C975.39,-159.62 1002.9,-146.12 1023.29,-136.11"/>
<polygon fill="midnightblue" stroke="midnightblue" points="1024.94,-139.2 1032.37,-131.65 1021.85,-132.92 1024.94,-139.2"/>
</g>
<!-- Node10 -->
<g id="node10" class="node">
<title>Node10</title>
<g id="a_node10"><a xlink:title=" ">
<polygon fill="white" stroke="#bfbfbf" points="872.5,-112.5 872.5,-131.5 931.5,-131.5 931.5,-112.5 872.5,-112.5"/>
<text text-anchor="middle" x="902" y="-119.5" font-family="Helvetica,sans-Serif" font-size="10.00">stdexcept</text>
</a>
</g>
</g>
<!-- Node7&#45;&gt;Node10 -->
<g id="edge10" class="edge">
<title>Node7&#45;&gt;Node10</title>
<path fill="none" stroke="midnightblue" d="M933.73,-168.08C928.36,-160.46 920.48,-149.26 913.92,-139.94"/>
<polygon fill="midnightblue" stroke="midnightblue" points="916.78,-137.91 908.16,-131.75 911.05,-141.94 916.78,-137.91"/>
</g>
<!-- Node11&#45;&gt;Node4 -->
<g id="edge13" class="edge">
<title>Node11&#45;&gt;Node4</title>
<path fill="none" stroke="midnightblue" d="M326.58,-168.18C333.2,-159.21 343.6,-144.84 352,-132 362.33,-116.2 373.33,-97.7 381,-84.49"/>
<polygon fill="midnightblue" stroke="midnightblue" points="384.2,-85.96 386.16,-75.54 378.13,-82.46 384.2,-85.96"/>
</g>
<!-- Node12 -->
<g id="node12" class="node">
<title>Node12</title>
<g id="a_node12"><a xlink:title=" ">
<polygon fill="white" stroke="#bfbfbf" points="108,-112.5 108,-131.5 180,-131.5 180,-112.5 108,-112.5"/>
<text text-anchor="middle" x="144" y="-119.5" font-family="Helvetica,sans-Serif" font-size="10.00">robin_hood.h</text>
</a>
</g>
</g>
<!-- Node11&#45;&gt;Node12 -->
<g id="edge12" class="edge">
<title>Node11&#45;&gt;Node12</title>
<path fill="none" stroke="midnightblue" d="M295.16,-169.38C265.58,-160.3 215.87,-145.05 181.58,-134.53"/>
<polygon fill="midnightblue" stroke="midnightblue" points="182.5,-131.15 171.91,-131.56 180.44,-137.84 182.5,-131.15"/>
</g>
<!-- Node13 -->
<g id="node13" class="node">
<title>Node13</title>
<g id="a_node13"><a xlink:href="a00197.html" target="_top" xlink:title="Contains definitions for the Edge structure.">
<polygon fill="white" stroke="black" points="296.5,-112.5 296.5,-131.5 343.5,-131.5 343.5,-112.5 296.5,-112.5"/>
<text text-anchor="middle" x="320" y="-119.5" font-family="Helvetica,sans-Serif" font-size="10.00">Edge.h</text>
</a>
</g>
</g>
<!-- Node11&#45;&gt;Node13 -->
<g id="edge14" class="edge">
<title>Node11&#45;&gt;Node13</title>
<path fill="none" stroke="midnightblue" d="M320,-168.08C320,-161.01 320,-150.86 320,-141.99"/>
<polygon fill="midnightblue" stroke="midnightblue" points="323.5,-141.75 320,-131.75 316.5,-141.75 323.5,-141.75"/>
</g>
<!-- Node14 -->
<g id="node14" class="node">
<title>Node14</title>
<g id="a_node14"><a xlink:href="a00209.html" target="_top" xlink:title="Contains definitions for the Node structure.">
<polygon fill="white" stroke="black" points="245,-56.5 245,-75.5 291,-75.5 291,-56.5 245,-56.5"/>
<text text-anchor="middle" x="268" y="-63.5" font-family="Helvetica,sans-Serif" font-size="10.00">node.h</text>
</a>
</g>
</g>
<!-- Node11&#45;&gt;Node14 -->
<g id="edge19" class="edge">
<title>Node11&#45;&gt;Node14</title>
<path fill="none" stroke="midnightblue" d="M312.17,-168.3C304.76,-159.65 293.78,-145.73 287,-132 279.68,-117.17 274.67,-99.02 271.64,-85.67"/>
<polygon fill="midnightblue" stroke="midnightblue" points="275.04,-84.83 269.55,-75.77 268.19,-86.27 275.04,-84.83"/>
</g>
<!-- Node16 -->
<g id="node16" class="node">
<title>Node16</title>
<g id="a_node16"><a xlink:title=" ">
<polygon fill="white" stroke="#bfbfbf" points="198.5,-112.5 198.5,-131.5 239.5,-131.5 239.5,-112.5 198.5,-112.5"/>
<text text-anchor="middle" x="219" y="-119.5" font-family="Helvetica,sans-Serif" font-size="10.00">Eigen</text>
</a>
</g>
</g>
<!-- Node11&#45;&gt;Node16 -->
<g id="edge20" class="edge">
<title>Node11&#45;&gt;Node16</title>
<path fill="none" stroke="midnightblue" d="M303.77,-168.32C287.65,-159.7 262.7,-146.36 244.04,-136.39"/>
<polygon fill="midnightblue" stroke="midnightblue" points="245.66,-133.28 235.19,-131.65 242.36,-139.46 245.66,-133.28"/>
</g>
<!-- Node17 -->
<g id="node17" class="node">
<title>Node17</title>
<g id="a_node17"><a xlink:title=" ">
<polygon fill="white" stroke="#bfbfbf" points="564,-112.5 564,-131.5 618,-131.5 618,-112.5 564,-112.5"/>
<text text-anchor="middle" x="591" y="-119.5" font-family="Helvetica,sans-Serif" font-size="10.00">iostream</text>
</a>
</g>
</g>
<!-- Node11&#45;&gt;Node17 -->
<g id="edge21" class="edge">
<title>Node11&#45;&gt;Node17</title>
<path fill="none" stroke="midnightblue" d="M344.67,-172.66C387.43,-165.06 478,-148.54 554,-132 554.1,-131.98 554.2,-131.96 554.3,-131.93"/>
<polygon fill="midnightblue" stroke="midnightblue" points="554.98,-135.37 563.96,-129.74 553.43,-128.54 554.98,-135.37"/>
</g>
<!-- Node13&#45;&gt;Node4 -->
<g id="edge18" class="edge">
<title>Node13&#45;&gt;Node4</title>
<path fill="none" stroke="midnightblue" d="M331.41,-112.32C342.11,-104.18 358.34,-91.84 371.16,-82.09"/>
<polygon fill="midnightblue" stroke="midnightblue" points="373.54,-84.67 379.39,-75.83 369.31,-79.1 373.54,-84.67"/>
</g>
<!-- Node13&#45;&gt;Node14 -->
<g id="edge15" class="edge">
<title>Node13&#45;&gt;Node14</title>
<path fill="none" stroke="midnightblue" d="M311.41,-112.08C303.84,-104.22 292.62,-92.57 283.49,-83.08"/>
<polygon fill="midnightblue" stroke="midnightblue" points="285.88,-80.53 276.43,-75.75 280.84,-85.38 285.88,-80.53"/>
</g>
<!-- Node14&#45;&gt;Node5 -->
<g id="edge16" class="edge">
<title>Node14&#45;&gt;Node5</title>
<path fill="none" stroke="midnightblue" d="M251.45,-56.32C235.01,-47.7 209.57,-34.36 190.53,-24.39"/>
<polygon fill="midnightblue" stroke="midnightblue" points="191.99,-21.2 181.51,-19.65 188.74,-27.4 191.99,-21.2"/>
</g>
<!-- Node15 -->
<g id="node15" class="node">
<title>Node15</title>
<g id="a_node15"><a xlink:title=" ">
<polygon fill="white" stroke="#bfbfbf" points="242,-0.5 242,-19.5 294,-19.5 294,-0.5 242,-0.5"/>
<text text-anchor="middle" x="268" y="-7.5" font-family="Helvetica,sans-Serif" font-size="10.00">ostream</text>
</a>
</g>
</g>
<!-- Node14&#45;&gt;Node15 -->
<g id="edge17" class="edge">
<title>Node14&#45;&gt;Node15</title>
<path fill="none" stroke="midnightblue" d="M268,-56.08C268,-49.01 268,-38.86 268,-29.99"/>
<polygon fill="midnightblue" stroke="midnightblue" points="271.5,-29.75 268,-19.75 264.5,-29.75 271.5,-29.75"/>
</g>
<!-- Node18&#45;&gt;Node4 -->
<g id="edge24" class="edge">
<title>Node18&#45;&gt;Node4</title>
<path fill="none" stroke="midnightblue" d="M691.59,-168.22C698.06,-154.47 707.64,-127.81 694,-112 685.14,-101.73 498.05,-79.26 422.36,-70.55"/>
<polygon fill="midnightblue" stroke="midnightblue" points="422.37,-67.03 412.04,-69.37 421.58,-73.98 422.37,-67.03"/>
</g>
<!-- Node18&#45;&gt;Node6 -->
<g id="edge23" class="edge">
<title>Node18&#45;&gt;Node6</title>
<path fill="none" stroke="midnightblue" d="M709.34,-168.44C732.75,-159.48 769.74,-145.31 796.19,-135.18"/>
<polygon fill="midnightblue" stroke="midnightblue" points="797.68,-138.36 805.76,-131.52 795.17,-131.82 797.68,-138.36"/>
</g>
<!-- Node18&#45;&gt;Node17 -->
<g id="edge27" class="edge">
<title>Node18&#45;&gt;Node17</title>
<path fill="none" stroke="midnightblue" d="M671.58,-168.32C656.46,-159.82 633.18,-146.73 615.53,-136.8"/>
<polygon fill="midnightblue" stroke="midnightblue" points="616.82,-133.51 606.39,-131.65 613.39,-139.61 616.82,-133.51"/>
</g>
<!-- Node19 -->
<g id="node19" class="node">
<title>Node19</title>
<g id="a_node19"><a xlink:title=" ">
<polygon fill="white" stroke="#bfbfbf" points="742.5,-112.5 742.5,-131.5 783.5,-131.5 783.5,-112.5 742.5,-112.5"/>
<text text-anchor="middle" x="763" y="-119.5" font-family="Helvetica,sans-Serif" font-size="10.00">string</text>
</a>
</g>
</g>
<!-- Node18&#45;&gt;Node19 -->
<g id="edge25" class="edge">
<title>Node18&#45;&gt;Node19</title>
<path fill="none" stroke="midnightblue" d="M699.21,-168.32C710.78,-160.11 728.38,-147.6 742.16,-137.81"/>
<polygon fill="midnightblue" stroke="midnightblue" points="744.44,-140.48 750.57,-131.83 740.39,-134.77 744.44,-140.48"/>
</g>
<!-- Node20 -->
<g id="node20" class="node">
<title>Node20</title>
<g id="a_node20"><a xlink:title=" ">
<polygon fill="white" stroke="#bfbfbf" points="636.5,-112.5 636.5,-131.5 685.5,-131.5 685.5,-112.5 636.5,-112.5"/>
<text text-anchor="middle" x="661" y="-119.5" font-family="Helvetica,sans-Serif" font-size="10.00">cassert</text>
</a>
</g>
</g>
<!-- Node18&#45;&gt;Node20 -->
<g id="edge26" class="edge">
<title>Node18&#45;&gt;Node20</title>
<path fill="none" stroke="midnightblue" d="M682.71,-168.08C679.15,-160.69 673.98,-149.95 669.58,-140.81"/>
<polygon fill="midnightblue" stroke="midnightblue" points="672.71,-139.24 665.21,-131.75 666.4,-142.28 672.71,-139.24"/>
</g>
<!-- Node21&#45;&gt;Node4 -->
<g id="edge29" class="edge">
<title>Node21&#45;&gt;Node4</title>
<path fill="none" stroke="midnightblue" d="M501.58,-168.37C481.34,-149.81 433.45,-105.91 407.84,-82.44"/>
<polygon fill="midnightblue" stroke="midnightblue" points="410.11,-79.77 400.37,-75.59 405.38,-84.93 410.11,-79.77"/>
</g>
<!-- Node21&#45;&gt;Node17 -->
<g id="edge30" class="edge">
<title>Node21&#45;&gt;Node17</title>
<path fill="none" stroke="midnightblue" d="M523.85,-168.32C536.22,-159.98 555.13,-147.21 569.74,-137.35"/>
<polygon fill="midnightblue" stroke="midnightblue" points="571.85,-140.15 578.18,-131.65 567.93,-134.35 571.85,-140.15"/>
</g>
<!-- Node22 -->
<g id="node22" class="node">
<title>Node22</title>
<g id="a_node22"><a xlink:href="a00185.html" target="_top" xlink:title="Contains definitions for the HF::SpatialStructures namespace.">
<polygon fill="white" stroke="black" points="476.5,-112.5 476.5,-131.5 545.5,-131.5 545.5,-112.5 476.5,-112.5"/>
<text text-anchor="middle" x="511" y="-119.5" font-family="Helvetica,sans-Serif" font-size="10.00">Constants.h</text>
</a>
</g>
</g>
<!-- Node21&#45;&gt;Node22 -->
<g id="edge31" class="edge">
<title>Node21&#45;&gt;Node22</title>
<path fill="none" stroke="midnightblue" d="M511,-168.08C511,-161.01 511,-150.86 511,-141.99"/>
<polygon fill="midnightblue" stroke="midnightblue" points="514.5,-141.75 511,-131.75 507.5,-141.75 514.5,-141.75"/>
</g>
<!-- Node23 -->
<g id="node23" class="node">
<title>Node23</title>
<g id="a_node23"><a xlink:title=" ">
<polygon fill="white" stroke="#bfbfbf" points="489,-56.5 489,-75.5 533,-75.5 533,-56.5 489,-56.5"/>
<text text-anchor="middle" x="511" y="-63.5" font-family="Helvetica,sans-Serif" font-size="10.00">cmath</text>
</a>
</g>
</g>
<!-- Node22&#45;&gt;Node23 -->
<g id="edge32" class="edge">
<title>Node22&#45;&gt;Node23</title>
<path fill="none" stroke="midnightblue" d="M511,-112.08C511,-105.01 511,-94.86 511,-85.99"/>
<polygon fill="midnightblue" stroke="midnightblue" points="514.5,-85.75 511,-75.75 507.5,-85.75 514.5,-85.75"/>
</g>
</g>
</svg>
