<?xml version="1.0" encoding="UTF-8" standalone="no"?>
<!DOCTYPE svg PUBLIC "-//W3C//DTD SVG 1.1//EN"
 "http://www.w3.org/Graphics/SVG/1.1/DTD/svg11.dtd">
<!-- Generated by graphviz version 5.0.0 (20220707.1540)
 -->
<!-- Title: HF::RayTracer::DidIntersect Pages: 1 -->
<svg width="1507pt" height="236pt"
 viewBox="0.00 0.00 1507.00 236.00" xmlns="http://www.w3.org/2000/svg" xmlns:xlink="http://www.w3.org/1999/xlink">
<g id="graph0" class="graph" transform="scale(1 1) rotate(0) translate(4 232)">
<title>HF::RayTracer::DidIntersect</title>
<polygon fill="white" stroke="transparent" points="-4,4 -4,-232 1503,-232 1503,4 -4,4"/>
<!-- Node1 -->
<g id="node1" class="node">
<title>Node1</title>
<g id="a_node1"><a xlink:title=" ">
<polygon fill="#bfbfbf" stroke="black" points="1362,-30 1362,-49 1499,-49 1499,-30 1362,-30"/>
<text text-anchor="middle" x="1430.5" y="-37" font-family="Helvetica,sans-Serif" font-size="10.00">HF::RayTracer::DidIntersect</text>
</a>
</g>
</g>
<!-- Node2 -->
<g id="node2" class="node">
<title>Node2</title>
<g id="a_node2"><a xlink:href="a01349.html#a3d86c2c8d8e0ec6bf63a653ec89807a8" target="_top" xlink:title="Determine whether or not this hitstruct contains a hit.">
<polygon fill="white" stroke="black" points="1195.5,-49.5 1195.5,-79.5 1319.5,-79.5 1319.5,-49.5 1195.5,-49.5"/>
<text text-anchor="start" x="1203.5" y="-67.5" font-family="Helvetica,sans-Serif" font-size="10.00">HF::RayTracer::HitStruct</text>
<text text-anchor="middle" x="1257.5" y="-56.5" font-family="Helvetica,sans-Serif" font-size="10.00">::DidHit</text>
</a>
</g>
</g>
<!-- Node1&#45;&gt;Node2 -->
<g id="edge1" class="edge">
<title>Node1&#45;&gt;Node2</title>
<path fill="none" stroke="midnightblue" d="M1354.25,-50.5C1342.63,-52.2 1330.77,-53.93 1319.51,-55.58"/>
<polygon fill="midnightblue" stroke="midnightblue" points="1354.98,-53.93 1364.36,-49.02 1353.96,-47.01 1354.98,-53.93"/>
</g>
<!-- Node17 -->
<g id="node17" class="node">
<title>Node17</title>
<g id="a_node17"><a xlink:href="a01345.html#af37604ed6d68c27bb9224afd795cab18" target="_top" xlink:title="Cast a ray from origin in direction.">
<polygon fill="white" stroke="black" points="1189,-0.5 1189,-30.5 1326,-30.5 1326,-0.5 1189,-0.5"/>
<text text-anchor="start" x="1197" y="-18.5" font-family="Helvetica,sans-Serif" font-size="10.00">HF::RayTracer::EmbreeRay</text>
<text text-anchor="middle" x="1257.5" y="-7.5" font-family="Helvetica,sans-Serif" font-size="10.00">Tracer::Intersect</text>
</a>
</g>
</g>
<!-- Node1&#45;&gt;Node17 -->
<g id="edge18" class="edge">
<title>Node1&#45;&gt;Node17</title>
<path fill="none" stroke="midnightblue" d="M1351.9,-28.61C1343.31,-27.4 1334.61,-26.18 1326.15,-25"/>
<polygon fill="midnightblue" stroke="midnightblue" points="1351.53,-32.09 1361.92,-30.01 1352.5,-25.16 1351.53,-32.09"/>
</g>
<!-- Node3 -->
<g id="node3" class="node">
<title>Node3</title>
<g id="a_node3"><a xlink:href="a00397.html#a74be560268a713fc9e9b8b4a453afa2f" target="_top" xlink:title="Cast a ray and get the point of intersection if it connects.">
<polygon fill="white" stroke="black" points="1019,-98.5 1019,-128.5 1123,-128.5 1123,-98.5 1019,-98.5"/>
<text text-anchor="start" x="1027" y="-116.5" font-family="Helvetica,sans-Serif" font-size="10.00">HF::GraphGenerator</text>
<text text-anchor="middle" x="1071" y="-105.5" font-family="Helvetica,sans-Serif" font-size="10.00">::CheckRay</text>
</a>
</g>
</g>
<!-- Node2&#45;&gt;Node3 -->
<g id="edge2" class="edge">
<title>Node2&#45;&gt;Node3</title>
<path fill="none" stroke="midnightblue" d="M1189.95,-82.17C1167.95,-88.02 1143.83,-94.42 1123.17,-99.91"/>
<polygon fill="midnightblue" stroke="midnightblue" points="1191.12,-85.48 1199.89,-79.53 1189.33,-78.72 1191.12,-85.48"/>
</g>
<!-- Node13 -->
<g id="node13" class="node">
<title>Node13</title>
<g id="a_node13"><a xlink:href="a01345.html#a7f8ab81033bdefaea0eea729aa9125ae" target="_top" xlink:title="Cast a ray from origin in direction and update the parameters instead of returning a hitstruct.">
<polygon fill="white" stroke="black" points="989,-49.5 989,-79.5 1153,-79.5 1153,-49.5 989,-49.5"/>
<text text-anchor="start" x="997" y="-67.5" font-family="Helvetica,sans-Serif" font-size="10.00">HF::RayTracer::EmbreeRay</text>
<text text-anchor="middle" x="1071" y="-56.5" font-family="Helvetica,sans-Serif" font-size="10.00">Tracer::IntersectOutputArguments</text>
</a>
</g>
</g>
<!-- Node2&#45;&gt;Node13 -->
<g id="edge14" class="edge">
<title>Node2&#45;&gt;Node13</title>
<path fill="none" stroke="midnightblue" d="M1185,-64.5C1174.54,-64.5 1163.7,-64.5 1153.06,-64.5"/>
<polygon fill="midnightblue" stroke="midnightblue" points="1185.32,-68 1195.32,-64.5 1185.32,-61 1185.32,-68"/>
</g>
<!-- Node16 -->
<g id="node16" class="node">
<title>Node16</title>
<g id="a_node16"><a xlink:href="a01345.html#a8de15e23054b0b579087acc48616149f" target="_top" xlink:title="Cast a single ray and get the hitpoint. x , y ,and z &#160;are overridden with the hitpoint on a successfu...">
<polygon fill="white" stroke="black" points="1002.5,-0.5 1002.5,-30.5 1139.5,-30.5 1139.5,-0.5 1002.5,-0.5"/>
<text text-anchor="start" x="1010.5" y="-18.5" font-family="Helvetica,sans-Serif" font-size="10.00">HF::RayTracer::EmbreeRay</text>
<text text-anchor="middle" x="1071" y="-7.5" font-family="Helvetica,sans-Serif" font-size="10.00">Tracer::PointIntersection</text>
</a>
</g>
</g>
<!-- Node2&#45;&gt;Node16 -->
<g id="edge17" class="edge">
<title>Node2&#45;&gt;Node16</title>
<path fill="none" stroke="midnightblue" d="M1190.14,-46.88C1169.96,-41.52 1147.97,-35.68 1128.5,-30.51"/>
<polygon fill="midnightblue" stroke="midnightblue" points="1189.33,-50.28 1199.89,-49.47 1191.12,-43.52 1189.33,-50.28"/>
</g>
<!-- Node4 -->
<g id="node4" class="node">
<title>Node4</title>
<g id="a_node4"><a xlink:href="a00397.html#a4b7cc0ad0002975404acef5064f4f546" target="_top" xlink:title="Determine whether children are over valid ground, and and meet upstep/downstep requirements.">
<polygon fill="white" stroke="black" points="841.5,-141.5 841.5,-171.5 945.5,-171.5 945.5,-141.5 841.5,-141.5"/>
<text text-anchor="start" x="849.5" y="-159.5" font-family="Helvetica,sans-Serif" font-size="10.00">HF::GraphGenerator</text>
<text text-anchor="middle" x="893.5" y="-148.5" font-family="Helvetica,sans-Serif" font-size="10.00">::CheckChildren</text>
</a>
</g>
</g>
<!-- Node3&#45;&gt;Node4 -->
<g id="edge3" class="edge">
<title>Node3&#45;&gt;Node4</title>
<path fill="none" stroke="midnightblue" d="M1008.86,-128.48C988.28,-133.52 965.54,-139.09 945.8,-143.93"/>
<polygon fill="midnightblue" stroke="midnightblue" points="1009.89,-131.83 1018.77,-126.05 1008.22,-125.03 1009.89,-131.83"/>
</g>
<!-- Node12 -->
<g id="node12" class="node">
<title>Node12</title>
<g id="a_node12"><a xlink:href="a00397.html#a9ddffecb75b34434d7157b49d3c67b60" target="_top" xlink:title="Determine if the start point of the graph is over valid ground.">
<polygon fill="white" stroke="black" points="694,-93.5 694,-123.5 798,-123.5 798,-93.5 694,-93.5"/>
<text text-anchor="start" x="702" y="-111.5" font-family="Helvetica,sans-Serif" font-size="10.00">HF::GraphGenerator</text>
<text text-anchor="middle" x="746" y="-100.5" font-family="Helvetica,sans-Serif" font-size="10.00">::ValidateStartPoint</text>
</a>
</g>
</g>
<!-- Node3&#45;&gt;Node12 -->
<g id="edge12" class="edge">
<title>Node3&#45;&gt;Node12</title>
<path fill="none" stroke="midnightblue" d="M1008.57,-112.55C947.63,-111.61 855.31,-110.18 798.21,-109.29"/>
<polygon fill="midnightblue" stroke="midnightblue" points="1008.77,-116.05 1018.82,-112.71 1008.88,-109.05 1008.77,-116.05"/>
</g>
<!-- Node5 -->
<g id="node5" class="node">
<title>Node5</title>
<g id="a_node5"><a xlink:href="a00397.html#ab7ffcc7d6657ce276c06deed24c546a4" target="_top" xlink:title="Calculate all possible edges between parent and possible_children.">
<polygon fill="white" stroke="black" points="694,-142.5 694,-172.5 798,-172.5 798,-142.5 694,-142.5"/>
<text text-anchor="start" x="702" y="-160.5" font-family="Helvetica,sans-Serif" font-size="10.00">HF::GraphGenerator</text>
<text text-anchor="middle" x="746" y="-149.5" font-family="Helvetica,sans-Serif" font-size="10.00">::GetChildren</text>
</a>
</g>
</g>
<!-- Node4&#45;&gt;Node5 -->
<g id="edge4" class="edge">
<title>Node4&#45;&gt;Node5</title>
<path fill="none" stroke="midnightblue" d="M830.93,-156.92C820.07,-157 808.87,-157.07 798.33,-157.15"/>
<polygon fill="midnightblue" stroke="midnightblue" points="831.23,-160.42 841.2,-156.85 831.18,-153.42 831.23,-160.42"/>
</g>
<!-- Node6 -->
<g id="node6" class="node">
<title>Node6</title>
<g id="a_node6"><a xlink:href="a01245.html#ac7052d4b625fb96f29c5bfc091a86f7e" target="_top" xlink:title="Perform breadth first search to populate the graph with with nodes and edges.">
<polygon fill="white" stroke="black" points="510,-197.5 510,-227.5 658,-227.5 658,-197.5 510,-197.5"/>
<text text-anchor="start" x="518" y="-215.5" font-family="Helvetica,sans-Serif" font-size="10.00">HF::GraphGenerator</text>
<text text-anchor="middle" x="584" y="-204.5" font-family="Helvetica,sans-Serif" font-size="10.00">::GraphGenerator::CrawlGeom</text>
</a>
</g>
</g>
<!-- Node5&#45;&gt;Node6 -->
<g id="edge5" class="edge">
<title>Node5&#45;&gt;Node6</title>
<path fill="none" stroke="midnightblue" d="M691.6,-175.93C680.5,-179.76 668.87,-183.77 658,-187.5 648.62,-190.72 638.57,-194.17 629.01,-197.44"/>
<polygon fill="midnightblue" stroke="midnightblue" points="692.88,-179.19 701.19,-172.63 690.6,-172.58 692.88,-179.19"/>
</g>
<!-- Node11 -->
<g id="node11" class="node">
<title>Node11</title>
<g id="a_node11"><a xlink:href="a01245.html#a843cc6b5b69b5d013930b3685789fa15" target="_top" xlink:title="Perform breadth first search to populate the graph with nodes and edges using multiple cores.">
<polygon fill="white" stroke="black" points="510,-137 510,-178 658,-178 658,-137 510,-137"/>
<text text-anchor="start" x="518" y="-166" font-family="Helvetica,sans-Serif" font-size="10.00">HF::GraphGenerator</text>
<text text-anchor="start" x="518" y="-155" font-family="Helvetica,sans-Serif" font-size="10.00">::GraphGenerator::CrawlGeom</text>
<text text-anchor="middle" x="584" y="-144" font-family="Helvetica,sans-Serif" font-size="10.00">Parallel</text>
</a>
</g>
</g>
<!-- Node5&#45;&gt;Node11 -->
<g id="edge10" class="edge">
<title>Node5&#45;&gt;Node11</title>
<path fill="none" stroke="midnightblue" d="M683.82,-157.5C675.39,-157.5 666.65,-157.5 658.03,-157.5"/>
<polygon fill="midnightblue" stroke="midnightblue" points="683.94,-161 693.94,-157.5 683.94,-154 683.94,-161"/>
</g>
<!-- Node7 -->
<g id="node7" class="node">
<title>Node7</title>
<g id="a_node7"><a xlink:href="a01245.html#a2616d5577f2b87dae8bdb9caab75e52f" target="_top" xlink:title="Generate a graph of accessible space.">
<polygon fill="white" stroke="black" points="354,-137 354,-178 474,-178 474,-137 354,-137"/>
<text text-anchor="start" x="362" y="-166" font-family="Helvetica,sans-Serif" font-size="10.00">HF::GraphGenerator</text>
<text text-anchor="start" x="362" y="-155" font-family="Helvetica,sans-Serif" font-size="10.00">::GraphGenerator::IMPL</text>
<text text-anchor="middle" x="414" y="-144" font-family="Helvetica,sans-Serif" font-size="10.00">_BuildNetwork</text>
</a>
</g>
</g>
<!-- Node6&#45;&gt;Node7 -->
<g id="edge6" class="edge">
<title>Node6&#45;&gt;Node7</title>
<path fill="none" stroke="midnightblue" d="M527.28,-194.26C510.21,-188.67 491.39,-182.51 474.11,-176.85"/>
<polygon fill="midnightblue" stroke="midnightblue" points="526.5,-197.69 537.09,-197.47 528.68,-191.03 526.5,-197.69"/>
</g>
<!-- Node8 -->
<g id="node8" class="node">
<title>Node8</title>
<g id="a_node8"><a xlink:href="a01245.html#ab82cd6b330063776a89a3c65f76d4c0a" target="_top" xlink:title="Generate a graph of accessible space.">
<polygon fill="white" stroke="black" points="163,-142.5 163,-172.5 318,-172.5 318,-142.5 163,-142.5"/>
<text text-anchor="start" x="171" y="-160.5" font-family="Helvetica,sans-Serif" font-size="10.00">HF::GraphGenerator</text>
<text text-anchor="middle" x="240.5" y="-149.5" font-family="Helvetica,sans-Serif" font-size="10.00">::GraphGenerator::BuildNetwork</text>
</a>
</g>
</g>
<!-- Node7&#45;&gt;Node8 -->
<g id="edge7" class="edge">
<title>Node7&#45;&gt;Node8</title>
<path fill="none" stroke="midnightblue" d="M343.82,-157.5C335.39,-157.5 326.73,-157.5 318.2,-157.5"/>
<polygon fill="midnightblue" stroke="midnightblue" points="343.98,-161 353.98,-157.5 343.98,-154 343.98,-161"/>
</g>
<!-- Node9 -->
<g id="node9" class="node">
<title>Node9</title>
<g id="a_node9"><a xlink:href="a00388.html#gac2583dc1ee6786b15fa4f06bfde2130a" target="_top" xlink:title="Construct a graph by performing a breadth&#45;first search of accessible space.">
<polygon fill="white" stroke="black" points="22,-167 22,-186 105,-186 105,-167 22,-167"/>
<text text-anchor="middle" x="63.5" y="-174" font-family="Helvetica,sans-Serif" font-size="10.00">GenerateGraph</text>
</a>
</g>
</g>
<!-- Node8&#45;&gt;Node9 -->
<g id="edge8" class="edge">
<title>Node8&#45;&gt;Node9</title>
<path fill="none" stroke="midnightblue" d="M152.71,-166.92C136.14,-168.72 119.54,-170.52 105.28,-172.07"/>
<polygon fill="midnightblue" stroke="midnightblue" points="153.43,-170.37 163,-165.81 152.68,-163.41 153.43,-170.37"/>
</g>
<!-- Node10 -->
<g id="node10" class="node">
<title>Node10</title>
<g id="a_node10"><a xlink:href="a00388.html#ga4dea438697ab06c4ab5e6da840bfdcfa" target="_top" xlink:title="Construct a graph by performing a breadth&#45;first search of accessible space, seperating obstacles from...">
<polygon fill="white" stroke="black" points="0,-129 0,-148 127,-148 127,-129 0,-129"/>
<text text-anchor="middle" x="63.5" y="-136" font-family="Helvetica,sans-Serif" font-size="10.00">GenerateGraphObstacles</text>
</a>
</g>
</g>
<!-- Node8&#45;&gt;Node10 -->
<g id="edge9" class="edge">
<title>Node8&#45;&gt;Node10</title>
<path fill="none" stroke="midnightblue" d="M152.86,-148.09C144.21,-147.15 135.54,-146.21 127.2,-145.31"/>
<polygon fill="midnightblue" stroke="midnightblue" points="152.68,-151.59 163,-149.19 153.43,-144.63 152.68,-151.59"/>
</g>
<!-- Node11&#45;&gt;Node7 -->
<g id="edge11" class="edge">
<title>Node11&#45;&gt;Node7</title>
<path fill="none" stroke="midnightblue" d="M499.68,-157.5C491.04,-157.5 482.38,-157.5 474.09,-157.5"/>
<polygon fill="midnightblue" stroke="midnightblue" points="499.8,-161 509.8,-157.5 499.8,-154 499.8,-161"/>
</g>
<!-- Node12&#45;&gt;Node7 -->
<g id="edge13" class="edge">
<title>Node12&#45;&gt;Node7</title>
<path fill="none" stroke="midnightblue" d="M683.49,-109.69C635.78,-111.53 568.19,-116.11 510,-127.5 497.78,-129.89 484.92,-133.31 472.74,-136.99"/>
<polygon fill="midnightblue" stroke="midnightblue" points="683.79,-113.19 693.66,-109.33 683.55,-106.19 683.79,-113.19"/>
</g>
<!-- Node14 -->
<g id="node14" class="node">
<title>Node14</title>
<g id="a_node14"><a xlink:href="a00391.html#ga81a505c14bba3bed1515384b209b3422" target="_top" xlink:title="Cast rays for each node in origins/directions as ordered pairs and get distance back as a result.">
<polygon fill="white" stroke="black" points="844.5,-58 844.5,-77 942.5,-77 942.5,-58 844.5,-58"/>
<text text-anchor="middle" x="893.5" y="-65" font-family="Helvetica,sans-Serif" font-size="10.00">CastRaysDistance</text>
</a>
</g>
</g>
<!-- Node13&#45;&gt;Node14 -->
<g id="edge15" class="edge">
<title>Node13&#45;&gt;Node14</title>
<path fill="none" stroke="midnightblue" d="M978.91,-66.06C966.41,-66.27 954,-66.48 942.7,-66.68"/>
<polygon fill="midnightblue" stroke="midnightblue" points="978.99,-69.56 988.93,-65.89 978.87,-62.56 978.99,-69.56"/>
</g>
<!-- Node15 -->
<g id="node15" class="node">
<title>Node15</title>
<g id="a_node15"><a xlink:href="a00391.html#ga1377ba0807c3141ef68b1c94682853e6" target="_top" xlink:title="Cast a single ray and get the distance to its hit and the mesh ID if it hit anything....">
<polygon fill="white" stroke="black" points="834,-20 834,-39 953,-39 953,-20 834,-20"/>
<text text-anchor="middle" x="893.5" y="-27" font-family="Helvetica,sans-Serif" font-size="10.00">CastSingleRayDistance</text>
</a>
</g>
</g>
<!-- Node13&#45;&gt;Node15 -->
<g id="edge16" class="edge">
<title>Node13&#45;&gt;Node15</title>
<path fill="none" stroke="midnightblue" d="M984.52,-47.45C969.98,-44.55 955.35,-41.64 942.25,-39.02"/>
<polygon fill="midnightblue" stroke="midnightblue" points="984.06,-50.93 994.55,-49.45 985.43,-44.07 984.06,-50.93"/>
</g>
</g>
</svg>
