<?xml version="1.0" encoding="UTF-8" standalone="no"?>
<!DOCTYPE svg PUBLIC "-//W3C//DTD SVG 1.1//EN"
 "http://www.w3.org/Graphics/SVG/1.1/DTD/svg11.dtd">
<!-- Generated by graphviz version 5.0.0 (20220707.1540)
 -->
<!-- Title: GenerateGraphObstacles Pages: 1 -->
<svg width="1455pt" height="700pt"
 viewBox="0.00 0.00 1455.00 700.00" xmlns="http://www.w3.org/2000/svg" xmlns:xlink="http://www.w3.org/1999/xlink">
<g id="graph0" class="graph" transform="scale(1 1) rotate(0) translate(4 696)">
<title>GenerateGraphObstacles</title>
<polygon fill="white" stroke="transparent" points="-4,4 -4,-696 1451,-696 1451,4 -4,4"/>
<!-- Node1 -->
<g id="node1" class="node">
<title>Node1</title>
<g id="a_node1"><a xlink:title="Construct a graph by performing a breadth&#45;first search of accessible space, seperating obstacles from...">
<polygon fill="#bfbfbf" stroke="black" points="0,-601 0,-620 127,-620 127,-601 0,-601"/>
<text text-anchor="middle" x="63.5" y="-608" font-family="Helvetica,sans-Serif" font-size="10.00">GenerateGraphObstacles</text>
</a>
</g>
</g>
<!-- Node2 -->
<g id="node2" class="node">
<title>Node2</title>
<g id="a_node2"><a xlink:href="a01245.html#ab82cd6b330063776a89a3c65f76d4c0a" target="_top" xlink:title="Generate a graph of accessible space.">
<polygon fill="white" stroke="black" points="163,-639.5 163,-669.5 318,-669.5 318,-639.5 163,-639.5"/>
<text text-anchor="start" x="171" y="-657.5" font-family="Helvetica,sans-Serif" font-size="10.00">HF::GraphGenerator</text>
<text text-anchor="middle" x="240.5" y="-646.5" font-family="Helvetica,sans-Serif" font-size="10.00">::GraphGenerator::BuildNetwork</text>
</a>
</g>
</g>
<!-- Node1&#45;&gt;Node2 -->
<g id="edge1" class="edge">
<title>Node1&#45;&gt;Node2</title>
<path fill="none" stroke="midnightblue" d="M102.47,-620.05C122.18,-625 146.87,-631.21 169.86,-636.99"/>
<polygon fill="midnightblue" stroke="midnightblue" points="169.03,-640.39 179.58,-639.43 170.74,-633.6 169.03,-640.39"/>
</g>
<!-- Node36 -->
<g id="node36" class="node">
<title>Node36</title>
<g id="a_node36"><a xlink:href="a00338.html#ae57988500f66a8ab4a31a9b50ed58b02" target="_top" xlink:title=" ">
<polygon fill="white" stroke="black" points="203.5,-601 203.5,-620 277.5,-620 277.5,-601 203.5,-601"/>
<text text-anchor="middle" x="240.5" y="-608" font-family="Helvetica,sans-Serif" font-size="10.00">MapToVector</text>
</a>
</g>
</g>
<!-- Node1&#45;&gt;Node36 -->
<g id="edge52" class="edge">
<title>Node1&#45;&gt;Node36</title>
<path fill="none" stroke="midnightblue" d="M127.18,-610.5C148.98,-610.5 173.02,-610.5 193.25,-610.5"/>
<polygon fill="midnightblue" stroke="midnightblue" points="193.44,-614 203.44,-610.5 193.44,-607 193.44,-614"/>
</g>
<!-- Node37 -->
<g id="node37" class="node">
<title>Node37</title>
<g id="a_node37"><a xlink:href="a01485.html#aa70347b8a33b57c6f0a72d6eca4248d7" target="_top" xlink:title="Get a list of nodes from the graph sorted by ID.">
<polygon fill="white" stroke="black" points="185.5,-551.5 185.5,-581.5 295.5,-581.5 295.5,-551.5 185.5,-551.5"/>
<text text-anchor="start" x="193.5" y="-569.5" font-family="Helvetica,sans-Serif" font-size="10.00">HF::SpatialStructures</text>
<text text-anchor="middle" x="240.5" y="-558.5" font-family="Helvetica,sans-Serif" font-size="10.00">::Graph::Nodes</text>
</a>
</g>
</g>
<!-- Node1&#45;&gt;Node37 -->
<g id="edge53" class="edge">
<title>Node1&#45;&gt;Node37</title>
<path fill="none" stroke="midnightblue" d="M102.47,-600.95C123.77,-595.6 150.89,-588.78 175.38,-582.62"/>
<polygon fill="midnightblue" stroke="midnightblue" points="176.49,-585.95 185.33,-580.12 174.78,-579.16 176.49,-585.95"/>
</g>
<!-- Node3 -->
<g id="node3" class="node">
<title>Node3</title>
<g id="a_node3"><a xlink:href="a00397.html#a73b53db067a504d36e9481dfe3326b60" target="_top" xlink:title="Cast an input value to real_t using static cast.">
<polygon fill="white" stroke="black" points="868,-661.5 868,-691.5 972,-691.5 972,-661.5 868,-661.5"/>
<text text-anchor="start" x="876" y="-679.5" font-family="Helvetica,sans-Serif" font-size="10.00">HF::GraphGenerator</text>
<text text-anchor="middle" x="920" y="-668.5" font-family="Helvetica,sans-Serif" font-size="10.00">::CastToReal</text>
</a>
</g>
</g>
<!-- Node2&#45;&gt;Node3 -->
<g id="edge2" class="edge">
<title>Node2&#45;&gt;Node3</title>
<path fill="none" stroke="midnightblue" d="M318.26,-665C330.21,-666.36 342.42,-667.59 354,-668.5 564.97,-685 618.42,-683.06 830,-679.5 838.87,-679.35 848.24,-679.12 857.44,-678.85"/>
<polygon fill="midnightblue" stroke="midnightblue" points="857.82,-682.33 867.71,-678.52 857.6,-675.34 857.82,-682.33"/>
</g>
<!-- Node4 -->
<g id="node4" class="node">
<title>Node4</title>
<g id="a_node4"><a xlink:href="a00397.html#a58892abe1152c28d26d3ca749c99ea4d" target="_top" xlink:title="Cast an array of 3 values to the graph_generator&#39;s real_3 type.">
<polygon fill="white" stroke="black" points="710,-639.5 710,-669.5 814,-669.5 814,-639.5 710,-639.5"/>
<text text-anchor="start" x="718" y="-657.5" font-family="Helvetica,sans-Serif" font-size="10.00">HF::GraphGenerator</text>
<text text-anchor="middle" x="762" y="-646.5" font-family="Helvetica,sans-Serif" font-size="10.00">::CastToReal3</text>
</a>
</g>
</g>
<!-- Node2&#45;&gt;Node4 -->
<g id="edge3" class="edge">
<title>Node2&#45;&gt;Node4</title>
<path fill="none" stroke="midnightblue" d="M318.15,-654.5C421.91,-654.5 604.96,-654.5 699.96,-654.5"/>
<polygon fill="midnightblue" stroke="midnightblue" points="699.98,-658 709.98,-654.5 699.98,-651 699.98,-658"/>
</g>
<!-- Node5 -->
<g id="node5" class="node">
<title>Node5</title>
<g id="a_node5"><a xlink:href="a01245.html#a2616d5577f2b87dae8bdb9caab75e52f" target="_top" xlink:title="Generate a graph of accessible space.">
<polygon fill="white" stroke="black" points="354,-346 354,-387 474,-387 474,-346 354,-346"/>
<text text-anchor="start" x="362" y="-375" font-family="Helvetica,sans-Serif" font-size="10.00">HF::GraphGenerator</text>
<text text-anchor="start" x="362" y="-364" font-family="Helvetica,sans-Serif" font-size="10.00">::GraphGenerator::IMPL</text>
<text text-anchor="middle" x="414" y="-353" font-family="Helvetica,sans-Serif" font-size="10.00">_BuildNetwork</text>
</a>
</g>
</g>
<!-- Node2&#45;&gt;Node5 -->
<g id="edge5" class="edge">
<title>Node2&#45;&gt;Node5</title>
<path fill="none" stroke="midnightblue" d="M304.41,-639.45C309.36,-636.68 313.99,-633.39 318,-629.5 384.16,-565.34 404.44,-451.71 410.5,-397.26"/>
<polygon fill="midnightblue" stroke="midnightblue" points="414,-397.5 411.53,-387.19 407.03,-396.78 414,-397.5"/>
</g>
<!-- Node4&#45;&gt;Node3 -->
<g id="edge4" class="edge">
<title>Node4&#45;&gt;Node3</title>
<path fill="none" stroke="midnightblue" d="M814.08,-661.7C827.95,-663.66 843.12,-665.8 857.5,-667.83"/>
<polygon fill="midnightblue" stroke="midnightblue" points="857.41,-671.35 867.81,-669.28 858.39,-664.42 857.41,-671.35"/>
</g>
<!-- Node6 -->
<g id="node6" class="node">
<title>Node6</title>
<g id="a_node6"><a xlink:href="a01245.html#ac7052d4b625fb96f29c5bfc091a86f7e" target="_top" xlink:title="Perform breadth first search to populate the graph with with nodes and edges.">
<polygon fill="white" stroke="black" points="510,-326.5 510,-356.5 658,-356.5 658,-326.5 510,-326.5"/>
<text text-anchor="start" x="518" y="-344.5" font-family="Helvetica,sans-Serif" font-size="10.00">HF::GraphGenerator</text>
<text text-anchor="middle" x="584" y="-333.5" font-family="Helvetica,sans-Serif" font-size="10.00">::GraphGenerator::CrawlGeom</text>
</a>
</g>
</g>
<!-- Node5&#45;&gt;Node6 -->
<g id="edge6" class="edge">
<title>Node5&#45;&gt;Node6</title>
<path fill="none" stroke="midnightblue" d="M474.23,-357.69C482.51,-356.45 491.15,-355.17 499.78,-353.88"/>
<polygon fill="midnightblue" stroke="midnightblue" points="500.5,-357.32 509.88,-352.38 499.47,-350.39 500.5,-357.32"/>
</g>
<!-- Node30 -->
<g id="node30" class="node">
<title>Node30</title>
<g id="a_node30"><a xlink:href="a01249.html#a35a8d70ffef5833ae214feaa89aaf220" target="_top" xlink:title="Call push with any type of object.">
<polygon fill="white" stroke="black" points="698.5,-179.5 698.5,-209.5 825.5,-209.5 825.5,-179.5 698.5,-179.5"/>
<text text-anchor="start" x="706.5" y="-197.5" font-family="Helvetica,sans-Serif" font-size="10.00">HF::GraphGenerator</text>
<text text-anchor="middle" x="762" y="-186.5" font-family="Helvetica,sans-Serif" font-size="10.00">::UniqueQueue::PushAny</text>
</a>
</g>
</g>
<!-- Node5&#45;&gt;Node30 -->
<g id="edge48" class="edge">
<title>Node5&#45;&gt;Node30</title>
<path fill="none" stroke="midnightblue" d="M449.86,-345.91C501.9,-315.66 603.47,-258.48 694,-218.5 698.05,-216.71 702.28,-214.95 706.56,-213.25"/>
<polygon fill="midnightblue" stroke="midnightblue" points="707.89,-216.49 715.96,-209.63 705.37,-209.96 707.89,-216.49"/>
</g>
<!-- Node32 -->
<g id="node32" class="node">
<title>Node32</title>
<g id="a_node32"><a xlink:href="a01245.html#a843cc6b5b69b5d013930b3685789fa15" target="_top" xlink:title="Perform breadth first search to populate the graph with nodes and edges using multiple cores.">
<polygon fill="white" stroke="black" points="510,-444 510,-485 658,-485 658,-444 510,-444"/>
<text text-anchor="start" x="518" y="-473" font-family="Helvetica,sans-Serif" font-size="10.00">HF::GraphGenerator</text>
<text text-anchor="start" x="518" y="-462" font-family="Helvetica,sans-Serif" font-size="10.00">::GraphGenerator::CrawlGeom</text>
<text text-anchor="middle" x="584" y="-451" font-family="Helvetica,sans-Serif" font-size="10.00">Parallel</text>
</a>
</g>
</g>
<!-- Node5&#45;&gt;Node32 -->
<g id="edge36" class="edge">
<title>Node5&#45;&gt;Node32</title>
<path fill="none" stroke="midnightblue" d="M450.22,-387.04C476.09,-402.14 511.41,-422.74 539.12,-438.9"/>
<polygon fill="midnightblue" stroke="midnightblue" points="537.43,-441.97 547.83,-443.98 540.95,-435.92 537.43,-441.97"/>
</g>
<!-- Node34 -->
<g id="node34" class="node">
<title>Node34</title>
<g id="a_node34"><a xlink:href="a00397.html#af8cc1a7a794699308cf5c46d3ae59491" target="_top" xlink:title="Sets the core count of OpenMP.">
<polygon fill="white" stroke="black" points="532,-375.5 532,-405.5 636,-405.5 636,-375.5 532,-375.5"/>
<text text-anchor="start" x="540" y="-393.5" font-family="Helvetica,sans-Serif" font-size="10.00">HF::GraphGenerator</text>
<text text-anchor="middle" x="584" y="-382.5" font-family="Helvetica,sans-Serif" font-size="10.00">::SetupCoreCount</text>
</a>
</g>
</g>
<!-- Node5&#45;&gt;Node34 -->
<g id="edge49" class="edge">
<title>Node5&#45;&gt;Node34</title>
<path fill="none" stroke="midnightblue" d="M474.23,-374.96C489.65,-377.16 506.3,-379.54 521.82,-381.76"/>
<polygon fill="midnightblue" stroke="midnightblue" points="521.43,-385.24 531.83,-383.19 522.42,-378.31 521.43,-385.24"/>
</g>
<!-- Node35 -->
<g id="node35" class="node">
<title>Node35</title>
<g id="a_node35"><a xlink:href="a00397.html#a9ddffecb75b34434d7157b49d3c67b60" target="_top" xlink:title="Determine if the start point of the graph is over valid ground.">
<polygon fill="white" stroke="black" points="532,-107.5 532,-137.5 636,-137.5 636,-107.5 532,-107.5"/>
<text text-anchor="start" x="540" y="-125.5" font-family="Helvetica,sans-Serif" font-size="10.00">HF::GraphGenerator</text>
<text text-anchor="middle" x="584" y="-114.5" font-family="Helvetica,sans-Serif" font-size="10.00">::ValidateStartPoint</text>
</a>
</g>
</g>
<!-- Node5&#45;&gt;Node35 -->
<g id="edge50" class="edge">
<title>Node5&#45;&gt;Node35</title>
<path fill="none" stroke="midnightblue" d="M429.32,-345.7C460.41,-300.55 533.89,-193.82 566.7,-146.18"/>
<polygon fill="midnightblue" stroke="midnightblue" points="569.72,-147.96 572.51,-137.74 563.95,-143.99 569.72,-147.96"/>
</g>
<!-- Node6&#45;&gt;Node4 -->
<g id="edge8" class="edge">
<title>Node6&#45;&gt;Node4</title>
<path fill="none" stroke="midnightblue" d="M646.52,-356.54C650.81,-359.32 654.72,-362.61 658,-366.5 723.22,-443.97 646.57,-502.02 694,-591.5 702.61,-607.74 717.02,-622.11 730.28,-633.01"/>
<polygon fill="midnightblue" stroke="midnightblue" points="728.3,-635.91 738.32,-639.34 732.62,-630.41 728.3,-635.91"/>
</g>
<!-- Node7 -->
<g id="node7" class="node">
<title>Node7</title>
<g id="a_node7"><a xlink:href="a01485.html#a37be5c12e488072dea7fa1c8c64346f7" target="_top" xlink:title="Add a new edge to the graph from parent to child.">
<polygon fill="white" stroke="black" points="707,-365.5 707,-395.5 817,-395.5 817,-365.5 707,-365.5"/>
<text text-anchor="start" x="715" y="-383.5" font-family="Helvetica,sans-Serif" font-size="10.00">HF::SpatialStructures</text>
<text text-anchor="middle" x="762" y="-372.5" font-family="Helvetica,sans-Serif" font-size="10.00">::Graph::addEdge</text>
</a>
</g>
</g>
<!-- Node6&#45;&gt;Node7 -->
<g id="edge7" class="edge">
<title>Node6&#45;&gt;Node7</title>
<path fill="none" stroke="midnightblue" d="M652.79,-356.52C667.35,-359.75 682.69,-363.15 697.09,-366.34"/>
<polygon fill="midnightblue" stroke="midnightblue" points="696.37,-369.76 706.89,-368.51 697.88,-362.93 696.37,-369.76"/>
</g>
<!-- Node8 -->
<g id="node8" class="node">
<title>Node8</title>
<g id="a_node8"><a xlink:href="a00397.html#aefd344ebb2faadc64a56a16dc8582026" target="_top" xlink:title="Create a set of directions based on max_step_connections.">
<polygon fill="white" stroke="black" points="710,-316.5 710,-346.5 814,-346.5 814,-316.5 710,-316.5"/>
<text text-anchor="start" x="718" y="-334.5" font-family="Helvetica,sans-Serif" font-size="10.00">HF::GraphGenerator</text>
<text text-anchor="middle" x="762" y="-323.5" font-family="Helvetica,sans-Serif" font-size="10.00">::CreateDirecs</text>
</a>
</g>
</g>
<!-- Node6&#45;&gt;Node8 -->
<g id="edge9" class="edge">
<title>Node6&#45;&gt;Node8</title>
<path fill="none" stroke="midnightblue" d="M658.11,-337.35C671.96,-336.56 686.31,-335.74 699.75,-334.98"/>
<polygon fill="midnightblue" stroke="midnightblue" points="700.03,-338.47 709.82,-334.41 699.64,-331.48 700.03,-338.47"/>
</g>
<!-- Node10 -->
<g id="node10" class="node">
<title>Node10</title>
<g id="a_node10"><a xlink:href="a01249.html#ab659349de3391b0e2327f3736135752f" target="_top" xlink:title="Tell if the queue is empty.">
<polygon fill="white" stroke="black" points="705,-551.5 705,-581.5 819,-581.5 819,-551.5 705,-551.5"/>
<text text-anchor="start" x="713" y="-569.5" font-family="Helvetica,sans-Serif" font-size="10.00">HF::GraphGenerator</text>
<text text-anchor="middle" x="762" y="-558.5" font-family="Helvetica,sans-Serif" font-size="10.00">::UniqueQueue::empty</text>
</a>
</g>
</g>
<!-- Node6&#45;&gt;Node10 -->
<g id="edge11" class="edge">
<title>Node6&#45;&gt;Node10</title>
<path fill="none" stroke="midnightblue" d="M646.34,-356.69C650.67,-359.44 654.64,-362.68 658,-366.5 710.72,-426.46 641.7,-482.18 694,-542.5 694.89,-543.52 695.82,-544.5 696.8,-545.44"/>
<polygon fill="midnightblue" stroke="midnightblue" points="694.96,-548.45 705,-551.85 699.27,-542.93 694.96,-548.45"/>
</g>
<!-- Node12 -->
<g id="node12" class="node">
<title>Node12</title>
<g id="a_node12"><a xlink:href="a00397.html#a41e03f9bab54e4e0d1314c6a4bdf2ec1" target="_top" xlink:title="Populare out_children with a potential child position for every direction in directions.">
<polygon fill="white" stroke="black" points="694,-414.5 694,-444.5 830,-444.5 830,-414.5 694,-414.5"/>
<text text-anchor="start" x="702" y="-432.5" font-family="Helvetica,sans-Serif" font-size="10.00">HF::GraphGenerator</text>
<text text-anchor="middle" x="762" y="-421.5" font-family="Helvetica,sans-Serif" font-size="10.00">::GeneratePotentialChildren</text>
</a>
</g>
</g>
<!-- Node6&#45;&gt;Node12 -->
<g id="edge13" class="edge">
<title>Node6&#45;&gt;Node12</title>
<path fill="none" stroke="midnightblue" d="M639.07,-356.58C645.69,-359.41 652.16,-362.7 658,-366.5 677.76,-379.38 674.33,-392.48 694,-405.5 696.29,-407.01 698.68,-408.45 701.15,-409.8"/>
<polygon fill="midnightblue" stroke="midnightblue" points="699.81,-413.04 710.33,-414.36 702.93,-406.77 699.81,-413.04"/>
</g>
<!-- Node13 -->
<g id="node13" class="node">
<title>Node13</title>
<g id="a_node13"><a xlink:href="a00397.html#ab7ffcc7d6657ce276c06deed24c546a4" target="_top" xlink:title="Calculate all possible edges between parent and possible_children.">
<polygon fill="white" stroke="black" points="710,-228.5 710,-258.5 814,-258.5 814,-228.5 710,-228.5"/>
<text text-anchor="start" x="718" y="-246.5" font-family="Helvetica,sans-Serif" font-size="10.00">HF::GraphGenerator</text>
<text text-anchor="middle" x="762" y="-235.5" font-family="Helvetica,sans-Serif" font-size="10.00">::GetChildren</text>
</a>
</g>
</g>
<!-- Node6&#45;&gt;Node13 -->
<g id="edge14" class="edge">
<title>Node6&#45;&gt;Node13</title>
<path fill="none" stroke="midnightblue" d="M607.43,-326.24C629.1,-311.81 663.09,-289.96 694,-273.5 700.88,-269.84 708.3,-266.21 715.6,-262.81"/>
<polygon fill="midnightblue" stroke="midnightblue" points="717.1,-265.98 724.75,-258.65 714.2,-259.61 717.1,-265.98"/>
</g>
<!-- Node29 -->
<g id="node29" class="node">
<title>Node29</title>
<g id="a_node29"><a xlink:href="a01249.html#a4aab642bf2c86a04f6890711ab7f2437" target="_top" xlink:title="Remove the topmost node from the queue and return it.">
<polygon fill="white" stroke="black" points="868,-461.5 868,-491.5 972,-491.5 972,-461.5 868,-461.5"/>
<text text-anchor="start" x="876" y="-479.5" font-family="Helvetica,sans-Serif" font-size="10.00">HF::GraphGenerator</text>
<text text-anchor="middle" x="920" y="-468.5" font-family="Helvetica,sans-Serif" font-size="10.00">::UniqueQueue::pop</text>
</a>
</g>
</g>
<!-- Node6&#45;&gt;Node29 -->
<g id="edge33" class="edge">
<title>Node6&#45;&gt;Node29</title>
<path fill="none" stroke="midnightblue" d="M612.54,-326.32C661.2,-301.77 763.5,-260.6 830,-307.5 868.95,-334.96 843.06,-366.73 866,-408.5 874.87,-424.64 887.45,-440.98 898.14,-453.59"/>
<polygon fill="midnightblue" stroke="midnightblue" points="895.63,-456.04 904.82,-461.3 900.92,-451.45 895.63,-456.04"/>
</g>
<!-- Node6&#45;&gt;Node30 -->
<g id="edge34" class="edge">
<title>Node6&#45;&gt;Node30</title>
<path fill="none" stroke="midnightblue" d="M601.35,-326.25C616.62,-311.71 639.73,-288.92 658,-267.5 675.54,-246.94 672.33,-234.65 694,-218.5 695.85,-217.12 697.79,-215.81 699.79,-214.58"/>
<polygon fill="midnightblue" stroke="midnightblue" points="701.81,-217.46 708.91,-209.6 698.46,-211.32 701.81,-217.46"/>
</g>
<!-- Node9 -->
<g id="node9" class="node">
<title>Node9</title>
<g id="a_node9"><a xlink:href="a00397.html#afe5670b4cb780fd3ccf2a0d72a2e3c2e" target="_top" xlink:title="Calculate P(n,r) as an array with each unique permutaton of 2 values being a pair.">
<polygon fill="white" stroke="black" points="868,-368.5 868,-398.5 972,-398.5 972,-368.5 868,-368.5"/>
<text text-anchor="start" x="876" y="-386.5" font-family="Helvetica,sans-Serif" font-size="10.00">HF::GraphGenerator</text>
<text text-anchor="middle" x="920" y="-375.5" font-family="Helvetica,sans-Serif" font-size="10.00">::permutations</text>
</a>
</g>
</g>
<!-- Node8&#45;&gt;Node9 -->
<g id="edge10" class="edge">
<title>Node8&#45;&gt;Node9</title>
<path fill="none" stroke="midnightblue" d="M808.12,-346.54C825.67,-352.39 845.93,-359.14 864.29,-365.26"/>
<polygon fill="midnightblue" stroke="midnightblue" points="863.39,-368.65 873.98,-368.49 865.6,-362.01 863.39,-368.65"/>
</g>
<!-- Node11 -->
<g id="node11" class="node">
<title>Node11</title>
<g id="a_node11"><a xlink:href="a01249.html#a6d38edb96130bda3eb8126cc7501065f" target="_top" xlink:title="Determine how many nodes are currently in the queue.">
<polygon fill="white" stroke="black" points="867.5,-551.5 867.5,-581.5 972.5,-581.5 972.5,-551.5 867.5,-551.5"/>
<text text-anchor="start" x="875.5" y="-569.5" font-family="Helvetica,sans-Serif" font-size="10.00">HF::GraphGenerator</text>
<text text-anchor="middle" x="920" y="-558.5" font-family="Helvetica,sans-Serif" font-size="10.00">::UniqueQueue::size</text>
</a>
</g>
</g>
<!-- Node10&#45;&gt;Node11 -->
<g id="edge12" class="edge">
<title>Node10&#45;&gt;Node11</title>
<path fill="none" stroke="midnightblue" d="M819.32,-566.5C831.59,-566.5 844.64,-566.5 857.12,-566.5"/>
<polygon fill="midnightblue" stroke="midnightblue" points="857.43,-570 867.43,-566.5 857.43,-563 857.43,-570"/>
</g>
<!-- Node14 -->
<g id="node14" class="node">
<title>Node14</title>
<g id="a_node14"><a xlink:href="a00397.html#a4b7cc0ad0002975404acef5064f4f546" target="_top" xlink:title="Determine whether children are over valid ground, and and meet upstep/downstep requirements.">
<polygon fill="white" stroke="black" points="868,-133.5 868,-163.5 972,-163.5 972,-133.5 868,-133.5"/>
<text text-anchor="start" x="876" y="-151.5" font-family="Helvetica,sans-Serif" font-size="10.00">HF::GraphGenerator</text>
<text text-anchor="middle" x="920" y="-140.5" font-family="Helvetica,sans-Serif" font-size="10.00">::CheckChildren</text>
</a>
</g>
</g>
<!-- Node13&#45;&gt;Node14 -->
<g id="edge15" class="edge">
<title>Node13&#45;&gt;Node14</title>
<path fill="none" stroke="midnightblue" d="M812.91,-228.44C818.93,-225.61 824.79,-222.31 830,-218.5 850.95,-203.16 845.59,-188.54 866,-172.5 867.58,-171.26 869.23,-170.07 870.94,-168.92"/>
<polygon fill="midnightblue" stroke="midnightblue" points="873.04,-171.74 879.82,-163.6 869.44,-165.74 873.04,-171.74"/>
</g>
<!-- Node21 -->
<g id="node21" class="node">
<title>Node21</title>
<g id="a_node21"><a xlink:href="a00397.html#aeab1db37b5aa614235f109d5dd9711a9" target="_top" xlink:title="Determine what kind of step (if any) is between parent and child.">
<polygon fill="white" stroke="black" points="868,-270.5 868,-300.5 972,-300.5 972,-270.5 868,-270.5"/>
<text text-anchor="start" x="876" y="-288.5" font-family="Helvetica,sans-Serif" font-size="10.00">HF::GraphGenerator</text>
<text text-anchor="middle" x="920" y="-277.5" font-family="Helvetica,sans-Serif" font-size="10.00">::CheckConnection</text>
</a>
</g>
</g>
<!-- Node13&#45;&gt;Node21 -->
<g id="edge23" class="edge">
<title>Node13&#45;&gt;Node21</title>
<path fill="none" stroke="midnightblue" d="M814.08,-257.25C828.09,-261.02 843.41,-265.15 857.92,-269.06"/>
<polygon fill="midnightblue" stroke="midnightblue" points="857.24,-272.5 867.81,-271.72 859.06,-265.74 857.24,-272.5"/>
</g>
<!-- Node26 -->
<g id="node26" class="node">
<title>Node26</title>
<g id="a_node26"><a xlink:href="a00397.html#a7f96186b8f24f878404d1feccf2f64db" target="_top" xlink:title="Calculate the distance between two nodes.">
<polygon fill="white" stroke="black" points="1160,-224.5 1160,-254.5 1264,-254.5 1264,-224.5 1160,-224.5"/>
<text text-anchor="start" x="1168" y="-242.5" font-family="Helvetica,sans-Serif" font-size="10.00">HF::GraphGenerator</text>
<text text-anchor="middle" x="1212" y="-231.5" font-family="Helvetica,sans-Serif" font-size="10.00">::DistanceTo</text>
</a>
</g>
</g>
<!-- Node13&#45;&gt;Node26 -->
<g id="edge31" class="edge">
<title>Node13&#45;&gt;Node26</title>
<path fill="none" stroke="midnightblue" d="M814.39,-243.04C897.41,-242.3 1060.68,-240.84 1149.65,-240.05"/>
<polygon fill="midnightblue" stroke="midnightblue" points="1149.9,-243.55 1159.86,-239.96 1149.83,-236.55 1149.9,-243.55"/>
</g>
<!-- Node28 -->
<g id="node28" class="node">
<title>Node28</title>
<g id="a_node28"><a xlink:href="a00397.html#abf1a3ae7dc89b3cf430e059a87fcd477" target="_top" xlink:title="Convert a point_type to a node.">
<polygon fill="white" stroke="black" points="868,-319.5 868,-349.5 972,-349.5 972,-319.5 868,-319.5"/>
<text text-anchor="start" x="876" y="-337.5" font-family="Helvetica,sans-Serif" font-size="10.00">HF::GraphGenerator</text>
<text text-anchor="middle" x="920" y="-326.5" font-family="Helvetica,sans-Serif" font-size="10.00">::ToNode</text>
</a>
</g>
</g>
<!-- Node13&#45;&gt;Node28 -->
<g id="edge32" class="edge">
<title>Node13&#45;&gt;Node28</title>
<path fill="none" stroke="midnightblue" d="M803.31,-258.58C812.45,-262.8 821.85,-267.8 830,-273.5 848.81,-286.64 847.22,-297.32 866,-310.5 867.88,-311.82 869.85,-313.1 871.87,-314.32"/>
<polygon fill="midnightblue" stroke="midnightblue" points="870.54,-317.59 880.98,-319.39 873.94,-311.47 870.54,-317.59"/>
</g>
<!-- Node15 -->
<g id="node15" class="node">
<title>Node15</title>
<g id="a_node15"><a xlink:href="a00397.html#a74be560268a713fc9e9b8b4a453afa2f" target="_top" xlink:title="Cast a ray and get the point of intersection if it connects.">
<polygon fill="white" stroke="black" points="1010,-108.5 1010,-138.5 1114,-138.5 1114,-108.5 1010,-108.5"/>
<text text-anchor="start" x="1018" y="-126.5" font-family="Helvetica,sans-Serif" font-size="10.00">HF::GraphGenerator</text>
<text text-anchor="middle" x="1062" y="-115.5" font-family="Helvetica,sans-Serif" font-size="10.00">::CheckRay</text>
</a>
</g>
</g>
<!-- Node14&#45;&gt;Node15 -->
<g id="edge16" class="edge">
<title>Node14&#45;&gt;Node15</title>
<path fill="none" stroke="midnightblue" d="M972.34,-139.33C981.18,-137.75 990.46,-136.1 999.53,-134.48"/>
<polygon fill="midnightblue" stroke="midnightblue" points="1000.44,-137.87 1009.67,-132.67 999.21,-130.98 1000.44,-137.87"/>
</g>
<!-- Node16 -->
<g id="node16" class="node">
<title>Node16</title>
<g id="a_node16"><a xlink:href="a00397.html#ab731d597ee2a843f7b7cb1ccbae67782" target="_top" xlink:title="Determine if a hit is against the geometry type specified.">
<polygon fill="white" stroke="black" points="1160,-165.5 1160,-195.5 1264,-195.5 1264,-165.5 1160,-165.5"/>
<text text-anchor="start" x="1168" y="-183.5" font-family="Helvetica,sans-Serif" font-size="10.00">HF::GraphGenerator</text>
<text text-anchor="middle" x="1212" y="-172.5" font-family="Helvetica,sans-Serif" font-size="10.00">::CheckGeometryID</text>
</a>
</g>
</g>
<!-- Node15&#45;&gt;Node16 -->
<g id="edge17" class="edge">
<title>Node15&#45;&gt;Node16</title>
<path fill="none" stroke="midnightblue" d="M1102.27,-138.63C1120.74,-145.74 1142.95,-154.29 1162.47,-161.81"/>
<polygon fill="midnightblue" stroke="midnightblue" points="1161.21,-165.08 1171.8,-165.4 1163.73,-158.54 1161.21,-165.08"/>
</g>
<!-- Node17 -->
<g id="node17" class="node">
<title>Node17</title>
<g id="a_node17"><a xlink:href="a01349.html#a3d86c2c8d8e0ec6bf63a653ec89807a8" target="_top" xlink:title="Determine whether or not this hitstruct contains a hit.">
<polygon fill="white" stroke="black" points="1150,-116.5 1150,-146.5 1274,-146.5 1274,-116.5 1150,-116.5"/>
<text text-anchor="start" x="1158" y="-134.5" font-family="Helvetica,sans-Serif" font-size="10.00">HF::RayTracer::HitStruct</text>
<text text-anchor="middle" x="1212" y="-123.5" font-family="Helvetica,sans-Serif" font-size="10.00">::DidHit</text>
</a>
</g>
</g>
<!-- Node15&#45;&gt;Node17 -->
<g id="edge18" class="edge">
<title>Node15&#45;&gt;Node17</title>
<path fill="none" stroke="midnightblue" d="M1114.35,-126.28C1122.57,-126.72 1131.2,-127.19 1139.79,-127.65"/>
<polygon fill="midnightblue" stroke="midnightblue" points="1139.64,-131.15 1149.81,-128.19 1140.02,-124.16 1139.64,-131.15"/>
</g>
<!-- Node19 -->
<g id="node19" class="node">
<title>Node19</title>
<g id="a_node19"><a xlink:href="a01353.html#a7ee672618f7fe9ce6938978d93d18514" target="_top" xlink:title=" ">
<polygon fill="white" stroke="black" points="1152.5,-49.5 1152.5,-79.5 1271.5,-79.5 1271.5,-49.5 1152.5,-49.5"/>
<text text-anchor="start" x="1160.5" y="-67.5" font-family="Helvetica,sans-Serif" font-size="10.00">HF::RayTracer::MultiRT</text>
<text text-anchor="middle" x="1212" y="-56.5" font-family="Helvetica,sans-Serif" font-size="10.00">::Intersect</text>
</a>
</g>
</g>
<!-- Node15&#45;&gt;Node19 -->
<g id="edge20" class="edge">
<title>Node15&#45;&gt;Node19</title>
<path fill="none" stroke="midnightblue" d="M1100.73,-108.46C1119.95,-100.8 1143.51,-91.4 1163.91,-83.27"/>
<polygon fill="midnightblue" stroke="midnightblue" points="1165.35,-86.47 1173.34,-79.51 1162.75,-79.97 1165.35,-86.47"/>
</g>
<!-- Node20 -->
<g id="node20" class="node">
<title>Node20</title>
<g id="a_node20"><a xlink:href="a00397.html#a5ad3e8fac4a21eee744f3633f7a3692f" target="_top" xlink:title="Move a node in direction by dist units.">
<polygon fill="white" stroke="black" points="1160,-0.5 1160,-30.5 1264,-30.5 1264,-0.5 1160,-0.5"/>
<text text-anchor="start" x="1168" y="-18.5" font-family="Helvetica,sans-Serif" font-size="10.00">HF::GraphGenerator</text>
<text text-anchor="middle" x="1212" y="-7.5" font-family="Helvetica,sans-Serif" font-size="10.00">::MoveNode</text>
</a>
</g>
</g>
<!-- Node15&#45;&gt;Node20 -->
<g id="edge22" class="edge">
<title>Node15&#45;&gt;Node20</title>
<path fill="none" stroke="midnightblue" d="M1075.42,-108.29C1091.13,-89.87 1119.8,-58.91 1150,-39.5 1152.42,-37.94 1154.96,-36.46 1157.57,-35.05"/>
<polygon fill="midnightblue" stroke="midnightblue" points="1159.25,-38.12 1166.65,-30.54 1156.14,-31.85 1159.25,-38.12"/>
</g>
<!-- Node18 -->
<g id="node18" class="node">
<title>Node18</title>
<g id="a_node18"><a xlink:href="a00398.html#a2630761a64fac02a4ee33abaf5c885a1" target="_top" xlink:title=" ">
<polygon fill="white" stroke="black" points="1310,-122 1310,-141 1447,-141 1447,-122 1310,-122"/>
<text text-anchor="middle" x="1378.5" y="-129" font-family="Helvetica,sans-Serif" font-size="10.00">HF::RayTracer::DidIntersect</text>
</a>
</g>
</g>
<!-- Node17&#45;&gt;Node18 -->
<g id="edge19" class="edge">
<title>Node17&#45;&gt;Node18</title>
<path fill="none" stroke="midnightblue" d="M1274.25,-131.5C1282.59,-131.5 1291.24,-131.5 1299.82,-131.5"/>
<polygon fill="midnightblue" stroke="midnightblue" points="1299.84,-135 1309.84,-131.5 1299.84,-128 1299.84,-135"/>
</g>
<!-- Node19&#45;&gt;Node19 -->
<g id="edge21" class="edge">
<title>Node19&#45;&gt;Node19</title>
<path fill="none" stroke="midnightblue" d="M1185.86,-79.66C1179.56,-89.06 1188.27,-98 1212,-98 1226.46,-98 1235.35,-94.68 1238.65,-89.96"/>
<polygon fill="midnightblue" stroke="midnightblue" points="1242.13,-89.47 1238.14,-79.66 1235.14,-89.82 1242.13,-89.47"/>
</g>
<!-- Node22 -->
<g id="node22" class="node">
<title>Node22</title>
<g id="a_node22"><a xlink:href="a00397.html#a9daa85cb56a1b18d44f46aa9c420afde" target="_top" xlink:title="Determine if the slope between parent and child is traversable according to the graph parameters.">
<polygon fill="white" stroke="black" points="1010,-319.5 1010,-349.5 1114,-349.5 1114,-319.5 1010,-319.5"/>
<text text-anchor="start" x="1018" y="-337.5" font-family="Helvetica,sans-Serif" font-size="10.00">HF::GraphGenerator</text>
<text text-anchor="middle" x="1062" y="-326.5" font-family="Helvetica,sans-Serif" font-size="10.00">::CheckSlope</text>
</a>
</g>
</g>
<!-- Node21&#45;&gt;Node22 -->
<g id="edge24" class="edge">
<title>Node21&#45;&gt;Node22</title>
<path fill="none" stroke="midnightblue" d="M964.15,-300.6C977.99,-305.45 993.48,-310.87 1007.94,-315.93"/>
<polygon fill="midnightblue" stroke="midnightblue" points="1007.16,-319.36 1017.75,-319.36 1009.47,-312.76 1007.16,-319.36"/>
</g>
<!-- Node23 -->
<g id="node23" class="node">
<title>Node23</title>
<g id="a_node23"><a xlink:href="a00397.html#ace66c1b60785c32433402f012019ab81" target="_top" xlink:title="Determine if there is a valid line of sight between parent and child.">
<polygon fill="white" stroke="black" points="1010,-270.5 1010,-300.5 1114,-300.5 1114,-270.5 1010,-270.5"/>
<text text-anchor="start" x="1018" y="-288.5" font-family="Helvetica,sans-Serif" font-size="10.00">HF::GraphGenerator</text>
<text text-anchor="middle" x="1062" y="-277.5" font-family="Helvetica,sans-Serif" font-size="10.00">::OcclusionCheck</text>
</a>
</g>
</g>
<!-- Node21&#45;&gt;Node23 -->
<g id="edge25" class="edge">
<title>Node21&#45;&gt;Node23</title>
<path fill="none" stroke="midnightblue" d="M972.34,-285.5C981.18,-285.5 990.46,-285.5 999.53,-285.5"/>
<polygon fill="midnightblue" stroke="midnightblue" points="999.67,-289 1009.67,-285.5 999.67,-282 999.67,-289"/>
</g>
<!-- Node24 -->
<g id="node24" class="node">
<title>Node24</title>
<g id="a_node24"><a xlink:href="a00397.html#a750afc15c798c79a8b6a0784ed092f3c" target="_top" xlink:title="Calculate the normalized direction from one node to another.">
<polygon fill="white" stroke="black" points="1160,-273.5 1160,-303.5 1264,-303.5 1264,-273.5 1160,-273.5"/>
<text text-anchor="start" x="1168" y="-291.5" font-family="Helvetica,sans-Serif" font-size="10.00">HF::GraphGenerator</text>
<text text-anchor="middle" x="1212" y="-280.5" font-family="Helvetica,sans-Serif" font-size="10.00">::DirectionTo</text>
</a>
</g>
</g>
<!-- Node23&#45;&gt;Node24 -->
<g id="edge26" class="edge">
<title>Node23&#45;&gt;Node24</title>
<path fill="none" stroke="midnightblue" d="M1114.35,-286.54C1125.71,-286.77 1137.87,-287.02 1149.59,-287.26"/>
<polygon fill="midnightblue" stroke="midnightblue" points="1149.67,-290.76 1159.74,-287.46 1149.82,-283.76 1149.67,-290.76"/>
</g>
<!-- Node23&#45;&gt;Node26 -->
<g id="edge28" class="edge">
<title>Node23&#45;&gt;Node26</title>
<path fill="none" stroke="midnightblue" d="M1111.46,-270.44C1124.69,-266.33 1139.16,-261.83 1152.87,-257.57"/>
<polygon fill="midnightblue" stroke="midnightblue" points="1154.17,-260.83 1162.68,-254.52 1152.1,-254.14 1154.17,-260.83"/>
</g>
<!-- Node27 -->
<g id="node27" class="node">
<title>Node27</title>
<g id="a_node27"><a xlink:href="a01353.html#a22ebf97e859ef651e81deb40b74f668f" target="_top" xlink:title=" ">
<polygon fill="white" stroke="black" points="1152.5,-322.5 1152.5,-352.5 1271.5,-352.5 1271.5,-322.5 1152.5,-322.5"/>
<text text-anchor="start" x="1160.5" y="-340.5" font-family="Helvetica,sans-Serif" font-size="10.00">HF::RayTracer::MultiRT</text>
<text text-anchor="middle" x="1212" y="-329.5" font-family="Helvetica,sans-Serif" font-size="10.00">::Occluded</text>
</a>
</g>
</g>
<!-- Node23&#45;&gt;Node27 -->
<g id="edge29" class="edge">
<title>Node23&#45;&gt;Node27</title>
<path fill="none" stroke="midnightblue" d="M1105.81,-300.54C1122.38,-306.36 1141.5,-313.08 1158.85,-319.18"/>
<polygon fill="midnightblue" stroke="midnightblue" points="1157.69,-322.48 1168.29,-322.49 1160.01,-315.88 1157.69,-322.48"/>
</g>
<!-- Node25 -->
<g id="node25" class="node">
<title>Node25</title>
<g id="a_node25"><a xlink:href="a00397.html#ad2e09e0825a1db4fc511907179eddf00" target="_top" xlink:title="Normalize a vector.">
<polygon fill="white" stroke="black" points="1326.5,-273.5 1326.5,-303.5 1430.5,-303.5 1430.5,-273.5 1326.5,-273.5"/>
<text text-anchor="start" x="1334.5" y="-291.5" font-family="Helvetica,sans-Serif" font-size="10.00">HF::GraphGenerator</text>
<text text-anchor="middle" x="1378.5" y="-280.5" font-family="Helvetica,sans-Serif" font-size="10.00">::Normalize</text>
</a>
</g>
</g>
<!-- Node24&#45;&gt;Node25 -->
<g id="edge27" class="edge">
<title>Node24&#45;&gt;Node25</title>
<path fill="none" stroke="midnightblue" d="M1264.15,-288.5C1280.55,-288.5 1298.89,-288.5 1315.95,-288.5"/>
<polygon fill="midnightblue" stroke="midnightblue" points="1316.38,-292 1326.38,-288.5 1316.38,-285 1316.38,-292"/>
</g>
<!-- Node27&#45;&gt;Node27 -->
<g id="edge30" class="edge">
<title>Node27&#45;&gt;Node27</title>
<path fill="none" stroke="midnightblue" d="M1185.86,-352.66C1179.56,-362.06 1188.27,-371 1212,-371 1226.46,-371 1235.35,-367.68 1238.65,-362.96"/>
<polygon fill="midnightblue" stroke="midnightblue" points="1242.13,-362.47 1238.14,-352.66 1235.14,-362.82 1242.13,-362.47"/>
</g>
<!-- Node31 -->
<g id="node31" class="node">
<title>Node31</title>
<g id="a_node31"><a xlink:href="a01249.html#ae0dc637a2d7c3aae32d8f035ac6b8016" target="_top" xlink:title="Add a node to the queue if it has never previously been in the queue.">
<polygon fill="white" stroke="black" points="866,-182.5 866,-212.5 974,-212.5 974,-182.5 866,-182.5"/>
<text text-anchor="start" x="874" y="-200.5" font-family="Helvetica,sans-Serif" font-size="10.00">HF::GraphGenerator</text>
<text text-anchor="middle" x="920" y="-189.5" font-family="Helvetica,sans-Serif" font-size="10.00">::UniqueQueue::push</text>
</a>
</g>
</g>
<!-- Node30&#45;&gt;Node31 -->
<g id="edge35" class="edge">
<title>Node30&#45;&gt;Node31</title>
<path fill="none" stroke="midnightblue" d="M825.55,-195.7C835.49,-195.89 845.78,-196.09 855.74,-196.28"/>
<polygon fill="midnightblue" stroke="midnightblue" points="855.9,-199.79 865.96,-196.48 856.03,-192.79 855.9,-199.79"/>
</g>
<!-- Node32&#45;&gt;Node4 -->
<g id="edge38" class="edge">
<title>Node32&#45;&gt;Node4</title>
<path fill="none" stroke="midnightblue" d="M594.37,-485.12C610.43,-518.45 646.19,-584.48 694,-624.5 698.51,-628.27 703.57,-631.66 708.83,-634.68"/>
<polygon fill="midnightblue" stroke="midnightblue" points="707.34,-637.85 717.82,-639.41 710.61,-631.66 707.34,-637.85"/>
</g>
<!-- Node32&#45;&gt;Node7 -->
<g id="edge37" class="edge">
<title>Node32&#45;&gt;Node7</title>
<path fill="none" stroke="midnightblue" d="M620.2,-443.83C641.25,-431.88 668.73,-416.99 694,-405.5 698.61,-403.4 703.46,-401.34 708.35,-399.35"/>
<polygon fill="midnightblue" stroke="midnightblue" points="709.74,-402.56 717.75,-395.63 707.16,-396.06 709.74,-402.56"/>
</g>
<!-- Node32&#45;&gt;Node8 -->
<g id="edge39" class="edge">
<title>Node32&#45;&gt;Node8</title>
<path fill="none" stroke="midnightblue" d="M622.27,-443.89C634.53,-436.02 647.65,-426.3 658,-415.5 679.25,-393.31 670.31,-376.05 694,-356.5 696.24,-354.65 698.64,-352.93 701.14,-351.32"/>
<polygon fill="midnightblue" stroke="midnightblue" points="702.98,-354.3 709.97,-346.34 699.54,-348.21 702.98,-354.3"/>
</g>
<!-- Node32&#45;&gt;Node10 -->
<g id="edge40" class="edge">
<title>Node32&#45;&gt;Node10</title>
<path fill="none" stroke="midnightblue" d="M609.68,-485.21C630.97,-502.31 663.08,-526.3 694,-542.5 697.31,-544.24 700.78,-545.9 704.32,-547.48"/>
<polygon fill="midnightblue" stroke="midnightblue" points="703.22,-550.81 713.79,-551.46 705.94,-544.36 703.22,-550.81"/>
</g>
<!-- Node32&#45;&gt;Node11 -->
<g id="edge47" class="edge">
<title>Node32&#45;&gt;Node11</title>
<path fill="none" stroke="midnightblue" d="M595.28,-485.16C611.51,-515.15 646.21,-569.54 694,-591.5 751.68,-618.01 826.14,-601.12 873.24,-585.04"/>
<polygon fill="midnightblue" stroke="midnightblue" points="874.6,-588.27 882.87,-581.63 872.27,-581.67 874.6,-588.27"/>
</g>
<!-- Node32&#45;&gt;Node12 -->
<g id="edge41" class="edge">
<title>Node32&#45;&gt;Node12</title>
<path fill="none" stroke="midnightblue" d="M658.11,-449.96C666.6,-448.27 675.27,-446.55 683.81,-444.85"/>
<polygon fill="midnightblue" stroke="midnightblue" points="684.62,-448.26 693.75,-442.87 683.26,-441.39 684.62,-448.26"/>
</g>
<!-- Node32&#45;&gt;Node13 -->
<g id="edge42" class="edge">
<title>Node32&#45;&gt;Node13</title>
<path fill="none" stroke="midnightblue" d="M625.64,-443.94C637.42,-436.35 649.4,-426.79 658,-415.5 688.65,-375.24 666.91,-350.23 694,-307.5 704.2,-291.41 719.3,-276.51 732.58,-265.15"/>
<polygon fill="midnightblue" stroke="midnightblue" points="735.09,-267.62 740.56,-258.54 730.63,-262.22 735.09,-267.62"/>
</g>
<!-- Node32&#45;&gt;Node31 -->
<g id="edge46" class="edge">
<title>Node32&#45;&gt;Node31</title>
<path fill="none" stroke="midnightblue" d="M658.04,-483.47C711.93,-492.77 783.66,-494.62 830,-454.5 895.97,-397.39 828.99,-340.52 866,-261.5 873.16,-246.21 884.85,-231.53 895.42,-220.1"/>
<polygon fill="midnightblue" stroke="midnightblue" points="898.1,-222.36 902.5,-212.73 893.05,-217.51 898.1,-222.36"/>
</g>
<!-- Node33 -->
<g id="node33" class="node">
<title>Node33</title>
<g id="a_node33"><a xlink:href="a01249.html#ae941f357ddbefc3b670c43ce2d90b589" target="_top" xlink:title="Pop a set amount of nodes from the queue, and return them as a vector.">
<polygon fill="white" stroke="black" points="698.5,-502.5 698.5,-532.5 825.5,-532.5 825.5,-502.5 698.5,-502.5"/>
<text text-anchor="start" x="706.5" y="-520.5" font-family="Helvetica,sans-Serif" font-size="10.00">HF::GraphGenerator</text>
<text text-anchor="middle" x="762" y="-509.5" font-family="Helvetica,sans-Serif" font-size="10.00">::UniqueQueue::popMany</text>
</a>
</g>
</g>
<!-- Node32&#45;&gt;Node33 -->
<g id="edge43" class="edge">
<title>Node32&#45;&gt;Node33</title>
<path fill="none" stroke="midnightblue" d="M653.3,-485.07C669.07,-489.82 685.74,-494.83 701.12,-499.47"/>
<polygon fill="midnightblue" stroke="midnightblue" points="700.43,-502.92 711.02,-502.45 702.45,-496.21 700.43,-502.92"/>
</g>
<!-- Node33&#45;&gt;Node11 -->
<g id="edge45" class="edge">
<title>Node33&#45;&gt;Node11</title>
<path fill="none" stroke="midnightblue" d="M811.08,-532.6C827.02,-537.61 844.92,-543.23 861.5,-548.44"/>
<polygon fill="midnightblue" stroke="midnightblue" points="860.49,-551.79 871.08,-551.45 862.59,-545.11 860.49,-551.79"/>
</g>
<!-- Node33&#45;&gt;Node29 -->
<g id="edge44" class="edge">
<title>Node33&#45;&gt;Node29</title>
<path fill="none" stroke="midnightblue" d="M820.2,-502.47C832.55,-499.22 845.65,-495.78 858.14,-492.5"/>
<polygon fill="midnightblue" stroke="midnightblue" points="859.21,-495.83 867.99,-489.91 857.43,-489.06 859.21,-495.83"/>
</g>
<!-- Node35&#45;&gt;Node15 -->
<g id="edge51" class="edge">
<title>Node35&#45;&gt;Node15</title>
<path fill="none" stroke="midnightblue" d="M636.39,-122.61C724.76,-122.79 905.12,-123.17 999.82,-123.37"/>
<polygon fill="midnightblue" stroke="midnightblue" points="999.81,-126.87 1009.82,-123.39 999.83,-119.87 999.81,-126.87"/>
</g>
</g>
</svg>
