<?xml version="1.0" encoding="UTF-8" standalone="no"?>
<!DOCTYPE svg PUBLIC "-//W3C//DTD SVG 1.1//EN"
 "http://www.w3.org/Graphics/SVG/1.1/DTD/svg11.dtd">
<!-- Generated by graphviz version 2.43.0 (0)
 -->
<!-- Title: CalculateAndStoreEnergyExpenditure Pages: 1 -->
<svg width="732pt" height="217pt"
 viewBox="0.00 0.00 732.00 216.50" xmlns="http://www.w3.org/2000/svg" xmlns:xlink="http://www.w3.org/1999/xlink">
<g id="graph0" class="graph" transform="scale(1 1) rotate(0) translate(4 212.5)">
<title>CalculateAndStoreEnergyExpenditure</title>
<polygon fill="white" stroke="transparent" points="-4,4 -4,-212.5 728,-212.5 728,4 -4,4"/>
<!-- Node1 -->
<g id="node1" class="node">
<title>Node1</title>
<g id="a_node1"><a xlink:title="Calculates energy expenditure for all subgraphs in *g and stores them in the graph at AlgorithmCostTi...">
<polygon fill="#bfbfbf" stroke="black" points="0,-139.5 0,-158.5 199,-158.5 199,-139.5 0,-139.5"/>
<text text-anchor="middle" x="99.5" y="-146.5" font-family="Helvetica,sans-Serif" font-size="10.00">CalculateAndStoreEnergyExpenditure</text>
</a>
</g>
</g>
<!-- Node2 -->
<g id="node2" class="node">
<title>Node2</title>
<g id="a_node2"><a xlink:href="a01497.html#a6f04c5320d4bf88120f8c5e31b0fb02a" target="_top" xlink:title="Add multiple edges to the graph.">
<polygon fill="white" stroke="black" points="250,-178 250,-208 369,-208 369,-178 250,-178"/>
<text text-anchor="start" x="258" y="-196" font-family="Helvetica,sans-Serif" font-size="10.00">HF::SpatialStructures</text>
<text text-anchor="middle" x="309.5" y="-185" font-family="Helvetica,sans-Serif" font-size="10.00">::Graph::AddEdges</text>
</a>
</g>
</g>
<!-- Node1&#45;&gt;Node2 -->
<g id="edge1" class="edge">
<title>Node1&#45;&gt;Node2</title>
<path fill="none" stroke="midnightblue" d="M145.63,-158.55C173.13,-164.36 208.8,-171.91 239.75,-178.46"/>
<polygon fill="midnightblue" stroke="midnightblue" points="239.11,-181.9 249.62,-180.54 240.56,-175.05 239.11,-181.9"/>
</g>
<!-- Node3 -->
<g id="node3" class="node">
<title>Node3</title>
<g id="a_node3"><a xlink:href="a00371.html#a047beaeb65d7842c75f024915219177e" target="_top" xlink:title="Get the cost algorithm title (as std::string) from the COST_ALG_KEY enum member.">
<polygon fill="white" stroke="black" points="255.5,-139.5 255.5,-158.5 363.5,-158.5 363.5,-139.5 255.5,-139.5"/>
<text text-anchor="middle" x="309.5" y="-146.5" font-family="Helvetica,sans-Serif" font-size="10.00">AlgorithmCostTitle</text>
</a>
</g>
</g>
<!-- Node1&#45;&gt;Node3 -->
<g id="edge2" class="edge">
<title>Node1&#45;&gt;Node3</title>
<path fill="none" stroke="midnightblue" d="M199.02,-149C214.65,-149 230.45,-149 244.99,-149"/>
<polygon fill="midnightblue" stroke="midnightblue" points="245.34,-152.5 255.34,-149 245.34,-145.5 245.34,-152.5"/>
</g>
<!-- Node4 -->
<g id="node4" class="node">
<title>Node4</title>
<g id="a_node4"><a xlink:href="a00409.html#ac51f2e76c00356f8a6145bee865cd922" target="_top" xlink:title=" ">
<polygon fill="white" stroke="black" points="235,-79.5 235,-120.5 384,-120.5 384,-79.5 235,-79.5"/>
<text text-anchor="start" x="243" y="-108.5" font-family="Helvetica,sans-Serif" font-size="10.00">HF::SpatialStructures</text>
<text text-anchor="start" x="243" y="-97.5" font-family="Helvetica,sans-Serif" font-size="10.00">::CostAlgorithms::Calculate</text>
<text text-anchor="middle" x="309.5" y="-86.5" font-family="Helvetica,sans-Serif" font-size="10.00">EnergyExpenditure</text>
</a>
</g>
</g>
<!-- Node1&#45;&gt;Node4 -->
<g id="edge3" class="edge">
<title>Node1&#45;&gt;Node4</title>
<path fill="none" stroke="midnightblue" d="M141.1,-139.44C164.89,-133.83 195.85,-126.54 224.66,-119.75"/>
<polygon fill="midnightblue" stroke="midnightblue" points="225.81,-123.07 234.74,-117.37 224.21,-116.26 225.81,-123.07"/>
</g>
<!-- Node5 -->
<g id="node5" class="node">
<title>Node5</title>
<g id="a_node5"><a xlink:href="a00409.html#ae06eb693d0d7858d7a863fae3a6eee2c" target="_top" xlink:title=" ">
<polygon fill="white" stroke="black" points="420,-159.5 420,-200.5 569,-200.5 569,-159.5 420,-159.5"/>
<text text-anchor="start" x="428" y="-188.5" font-family="Helvetica,sans-Serif" font-size="10.00">HF::SpatialStructures</text>
<text text-anchor="start" x="428" y="-177.5" font-family="Helvetica,sans-Serif" font-size="10.00">::CostAlgorithms::Calculate</text>
<text text-anchor="middle" x="494.5" y="-166.5" font-family="Helvetica,sans-Serif" font-size="10.00">Slope</text>
</a>
</g>
</g>
<!-- Node4&#45;&gt;Node5 -->
<g id="edge4" class="edge">
<title>Node4&#45;&gt;Node5</title>
<path fill="none" stroke="midnightblue" d="M362.58,-120.51C369.82,-123.58 377.13,-126.79 384,-130 400.39,-137.65 403.65,-141.26 420,-149 424.38,-151.08 428.95,-153.17 433.55,-155.22"/>
<polygon fill="midnightblue" stroke="midnightblue" points="432.47,-158.57 443.03,-159.39 435.29,-152.16 432.47,-158.57"/>
</g>
<!-- Node7 -->
<g id="node7" class="node">
<title>Node7</title>
<g id="a_node7"><a xlink:href="a02017.html#ad3f7898ef3178eef0c3579869a7f5c67" target="_top" xlink:title="Get the direction between this node and another node">
<polygon fill="white" stroke="black" points="435,-110 435,-140 554,-140 554,-110 435,-110"/>
<text text-anchor="start" x="443" y="-128" font-family="Helvetica,sans-Serif" font-size="10.00">HF::SpatialStructures</text>
<text text-anchor="middle" x="494.5" y="-117" font-family="Helvetica,sans-Serif" font-size="10.00">::Node::directionTo</text>
</a>
</g>
</g>
<!-- Node4&#45;&gt;Node7 -->
<g id="edge6" class="edge">
<title>Node4&#45;&gt;Node7</title>
<path fill="none" stroke="midnightblue" d="M384.14,-110.06C397.6,-111.9 411.59,-113.81 424.89,-115.63"/>
<polygon fill="midnightblue" stroke="midnightblue" points="424.52,-119.11 434.9,-117 425.47,-112.17 424.52,-119.11"/>
</g>
<!-- Node9 -->
<g id="node9" class="node">
<title>Node9</title>
<g id="a_node9"><a xlink:href="a02017.html#abbd66b566460f9557a373b5fbcc30bb1" target="_top" xlink:title="Calculate the distance between this node and n2.">
<polygon fill="white" stroke="black" points="435,-61 435,-91 554,-91 554,-61 435,-61"/>
<text text-anchor="start" x="443" y="-79" font-family="Helvetica,sans-Serif" font-size="10.00">HF::SpatialStructures</text>
<text text-anchor="middle" x="494.5" y="-68" font-family="Helvetica,sans-Serif" font-size="10.00">::Node::distanceTo</text>
</a>
</g>
</g>
<!-- Node4&#45;&gt;Node9 -->
<g id="edge8" class="edge">
<title>Node4&#45;&gt;Node9</title>
<path fill="none" stroke="midnightblue" d="M384.14,-90.34C397.6,-88.58 411.59,-86.74 424.89,-85"/>
<polygon fill="midnightblue" stroke="midnightblue" points="425.44,-88.46 434.9,-83.68 424.53,-81.51 425.44,-88.46"/>
</g>
<!-- Node10 -->
<g id="node10" class="node">
<title>Node10</title>
<g id="a_node10"><a xlink:href="a00409.html#ae7b446fefe0b9994859f47b85de79039" target="_top" xlink:title=" ">
<polygon fill="white" stroke="black" points="435,-0.5 435,-41.5 554,-41.5 554,-0.5 435,-0.5"/>
<text text-anchor="start" x="443" y="-29.5" font-family="Helvetica,sans-Serif" font-size="10.00">HF::SpatialStructures</text>
<text text-anchor="start" x="443" y="-18.5" font-family="Helvetica,sans-Serif" font-size="10.00">::CostAlgorithms::to</text>
<text text-anchor="middle" x="494.5" y="-7.5" font-family="Helvetica,sans-Serif" font-size="10.00">_radians</text>
</a>
</g>
</g>
<!-- Node4&#45;&gt;Node10 -->
<g id="edge9" class="edge">
<title>Node4&#45;&gt;Node10</title>
<path fill="none" stroke="midnightblue" d="M355.64,-79.4C375.34,-70.51 398.74,-60.09 420,-51 424.18,-49.21 428.49,-47.39 432.85,-45.57"/>
<polygon fill="midnightblue" stroke="midnightblue" points="434.51,-48.67 442.4,-41.6 431.83,-42.21 434.51,-48.67"/>
</g>
<!-- Node6 -->
<g id="node6" class="node">
<title>Node6</title>
<g id="a_node6"><a xlink:href="a00409.html#adee2fb2573f4dbc2e5c7db153dff2694" target="_top" xlink:title=" ">
<polygon fill="white" stroke="black" points="605,-159.5 605,-200.5 724,-200.5 724,-159.5 605,-159.5"/>
<text text-anchor="start" x="613" y="-188.5" font-family="Helvetica,sans-Serif" font-size="10.00">HF::SpatialStructures</text>
<text text-anchor="start" x="613" y="-177.5" font-family="Helvetica,sans-Serif" font-size="10.00">::CostAlgorithms::to</text>
<text text-anchor="middle" x="664.5" y="-166.5" font-family="Helvetica,sans-Serif" font-size="10.00">_degrees</text>
</a>
</g>
</g>
<!-- Node5&#45;&gt;Node6 -->
<g id="edge5" class="edge">
<title>Node5&#45;&gt;Node6</title>
<path fill="none" stroke="midnightblue" d="M569.19,-180C577.65,-180 586.25,-180 594.65,-180"/>
<polygon fill="midnightblue" stroke="midnightblue" points="594.76,-183.5 604.76,-180 594.76,-176.5 594.76,-183.5"/>
</g>
<!-- Node8 -->
<g id="node8" class="node">
<title>Node8</title>
<g id="a_node8"><a xlink:href="a00399.html#ad9a8f0f70b3f60ac5cb7889885d851d1" target="_top" xlink:title=" ">
<polygon fill="white" stroke="black" points="605,-110 605,-140 724,-140 724,-110 605,-110"/>
<text text-anchor="start" x="613" y="-128" font-family="Helvetica,sans-Serif" font-size="10.00">HF::SpatialStructures</text>
<text text-anchor="middle" x="664.5" y="-117" font-family="Helvetica,sans-Serif" font-size="10.00">::Normalize</text>
</a>
</g>
</g>
<!-- Node7&#45;&gt;Node8 -->
<g id="edge7" class="edge">
<title>Node7&#45;&gt;Node8</title>
<path fill="none" stroke="midnightblue" d="M554.26,-125C567.3,-125 581.24,-125 594.65,-125"/>
<polygon fill="midnightblue" stroke="midnightblue" points="594.77,-128.5 604.77,-125 594.77,-121.5 594.77,-128.5"/>
</g>
</g>
</svg>
