<?xml version="1.0" encoding="UTF-8" standalone="no"?>
<!DOCTYPE svg PUBLIC "-//W3C//DTD SVG 1.1//EN"
 "http://www.w3.org/Graphics/SVG/1.1/DTD/svg11.dtd">
<!-- Generated by graphviz version 4.0.0 (20220529.0937)
 -->
<!-- Title: HF::ViewAnalysis::FibbonacciDistributePoints Pages: 1 -->
<svg width="569pt" height="127pt"
 viewBox="0.00 0.00 569.00 126.50" xmlns="http://www.w3.org/2000/svg" xmlns:xlink="http://www.w3.org/1999/xlink">
<g id="graph0" class="graph" transform="scale(1 1) rotate(0) translate(4 122.5)">
<title>HF::ViewAnalysis::FibbonacciDistributePoints</title>
<polygon fill="white" stroke="transparent" points="-4,4 -4,-122.5 565,-122.5 565,4 -4,4"/>
<!-- Node1 -->
<g id="node1" class="node">
<title>Node1</title>
<g id="a_node1"><a xlink:title="Evenly distribute a set of points around a sphere centered at the origin.">
<polygon fill="#bfbfbf" stroke="black" points="414,-49.5 414,-79.5 561,-79.5 561,-49.5 414,-49.5"/>
<text text-anchor="start" x="422" y="-67.5" font-family="Helvetica,sans-Serif" font-size="10.00">HF::ViewAnalysis::Fibbonacci</text>
<text text-anchor="middle" x="487.5" y="-56.5" font-family="Helvetica,sans-Serif" font-size="10.00">DistributePoints</text>
</a>
</g>
</g>
<!-- Node2 -->
<g id="node2" class="node">
<title>Node2</title>
<g id="a_node2"><a xlink:href="a00393.html#gaf572b7bec28d55bf2c72719742703dff" target="_top" xlink:title="Equally distribute points around a unit sphere.">
<polygon fill="white" stroke="black" points="249,-99 249,-118 347,-118 347,-99 249,-99"/>
<text text-anchor="middle" x="298" y="-106" font-family="Helvetica,sans-Serif" font-size="10.00">SphericalDistribute</text>
</a>
</g>
</g>
<!-- Node1&#45;&gt;Node2 -->
<g id="edge1" class="edge">
<title>Node1&#45;&gt;Node2</title>
<path fill="none" stroke="midnightblue" d="M412.7,-81.82C387.79,-87.66 360.9,-93.97 339.54,-98.99"/>
<polygon fill="midnightblue" stroke="midnightblue" points="413.56,-85.21 422.5,-79.52 411.96,-78.4 413.56,-85.21"/>
</g>
<!-- Node3 -->
<g id="node3" class="node">
<title>Node3</title>
<g id="a_node3"><a xlink:href="a00393.html#ga78f77d24531d0fa55c9b60d7ec1bf32a" target="_top" xlink:title="Conduct view analysis and recieve a summarized set of results for each node.">
<polygon fill="white" stroke="black" points="218,-49.5 218,-79.5 378,-79.5 378,-49.5 218,-49.5"/>
<text text-anchor="start" x="226" y="-67.5" font-family="Helvetica,sans-Serif" font-size="10.00">HF::ViewAnalysis::Spherical</text>
<text text-anchor="middle" x="298" y="-56.5" font-family="Helvetica,sans-Serif" font-size="10.00">RayshootWithAnyRTForDistance</text>
</a>
</g>
</g>
<!-- Node1&#45;&gt;Node3 -->
<g id="edge2" class="edge">
<title>Node1&#45;&gt;Node3</title>
<path fill="none" stroke="midnightblue" d="M403.56,-64.5C395.15,-64.5 386.62,-64.5 378.25,-64.5"/>
<polygon fill="midnightblue" stroke="midnightblue" points="403.74,-68 413.74,-64.5 403.74,-61 403.74,-68"/>
</g>
<!-- Node6 -->
<g id="node6" class="node">
<title>Node6</title>
<g id="a_node6"><a xlink:href="a00393.html#gaecaa04882696ac6d73173227bd28e91b" target="_top" xlink:title="Conduct view analysis with any Raytracer in parallel.">
<polygon fill="white" stroke="black" points="228,-0.5 228,-30.5 368,-30.5 368,-0.5 228,-0.5"/>
<text text-anchor="start" x="236" y="-18.5" font-family="Helvetica,sans-Serif" font-size="10.00">HF::ViewAnalysis::Spherical</text>
<text text-anchor="middle" x="298" y="-7.5" font-family="Helvetica,sans-Serif" font-size="10.00">ViewAnalysis</text>
</a>
</g>
</g>
<!-- Node1&#45;&gt;Node6 -->
<g id="edge5" class="edge">
<title>Node1&#45;&gt;Node6</title>
<path fill="none" stroke="midnightblue" d="M419.07,-46.88C398.55,-41.52 376.21,-35.68 356.42,-30.51"/>
<polygon fill="midnightblue" stroke="midnightblue" points="418.41,-50.32 428.97,-49.47 420.18,-43.55 418.41,-50.32"/>
</g>
<!-- Node4 -->
<g id="node4" class="node">
<title>Node4</title>
<g id="a_node4"><a xlink:href="a00393.html#gab6b8e3eab649b42ac014fb7d02d54892" target="_top" xlink:title="Conduct view analysis, then aggregate the results.">
<polygon fill="white" stroke="black" points="8.5,-74 8.5,-93 173.5,-93 173.5,-74 8.5,-74"/>
<text text-anchor="middle" x="91" y="-81" font-family="Helvetica,sans-Serif" font-size="10.00">SphereicalViewAnalysisAggregate</text>
</a>
</g>
</g>
<!-- Node3&#45;&gt;Node4 -->
<g id="edge3" class="edge">
<title>Node3&#45;&gt;Node4</title>
<path fill="none" stroke="midnightblue" d="M207.51,-72.79C196.29,-73.83 184.85,-74.89 173.76,-75.92"/>
<polygon fill="midnightblue" stroke="midnightblue" points="208.11,-76.25 217.74,-71.85 207.46,-69.28 208.11,-76.25"/>
</g>
<!-- Node5 -->
<g id="node5" class="node">
<title>Node5</title>
<g id="a_node5"><a xlink:href="a00393.html#gaa4c5714c1e557ef83a03d447eb30c6d0" target="_top" xlink:title="Conduct view analysis, and aggregate the results.">
<polygon fill="white" stroke="black" points="0,-36 0,-55 182,-55 182,-36 0,-36"/>
<text text-anchor="middle" x="91" y="-43" font-family="Helvetica,sans-Serif" font-size="10.00">SphereicalViewAnalysisAggregateFlat</text>
</a>
</g>
</g>
<!-- Node3&#45;&gt;Node5 -->
<g id="edge4" class="edge">
<title>Node3&#45;&gt;Node5</title>
<path fill="none" stroke="midnightblue" d="M207.59,-56.21C199.2,-55.44 190.7,-54.65 182.31,-53.87"/>
<polygon fill="midnightblue" stroke="midnightblue" points="207.46,-59.72 217.74,-57.15 208.11,-52.75 207.46,-59.72"/>
</g>
</g>
</svg>
