<?xml version="1.0" encoding="UTF-8" standalone="no"?>
<!DOCTYPE svg PUBLIC "-//W3C//DTD SVG 1.1//EN"
 "http://www.w3.org/Graphics/SVG/1.1/DTD/svg11.dtd">
<!-- Generated by graphviz version 2.43.0 (0)
 -->
<!-- Title: nlohmann::detail::dtoa_impl::grisu2 Pages: 1 -->
<svg width="683pt" height="247pt"
 viewBox="0.00 0.00 683.00 247.00" xmlns="http://www.w3.org/2000/svg" xmlns:xlink="http://www.w3.org/1999/xlink">
<g id="graph0" class="graph" transform="scale(1 1) rotate(0) translate(4 243)">
<title>nlohmann::detail::dtoa_impl::grisu2</title>
<polygon fill="white" stroke="transparent" points="-4,4 -4,-243 679,-243 679,4 -4,4"/>
<!-- Node1 -->
<g id="node1" class="node">
<title>Node1</title>
<g id="a_node1"><a xlink:title=" ">
<polygon fill="#bfbfbf" stroke="black" points="0,-104.5 0,-134.5 127,-134.5 127,-104.5 0,-104.5"/>
<text text-anchor="start" x="8" y="-122.5" font-family="Helvetica,sans-Serif" font-size="10.00">nlohmann::detail::dtoa</text>
<text text-anchor="middle" x="63.5" y="-111.5" font-family="Helvetica,sans-Serif" font-size="10.00">_impl::grisu2</text>
</a>
</g>
</g>
<!-- Node2 -->
<g id="node2" class="node">
<title>Node2</title>
<g id="a_node2"><a xlink:href="a00413.html#a22b6e37654ac93c6d0d9c06ec1bf5ded" target="_top" xlink:title=" ">
<polygon fill="white" stroke="black" points="163,-159.5 163,-189.5 315,-189.5 315,-159.5 163,-159.5"/>
<text text-anchor="start" x="171" y="-177.5" font-family="Helvetica,sans-Serif" font-size="10.00">nlohmann::detail::dtoa</text>
<text text-anchor="middle" x="239" y="-166.5" font-family="Helvetica,sans-Serif" font-size="10.00">_impl::compute_boundaries</text>
</a>
</g>
</g>
<!-- Node1&#45;&gt;Node2 -->
<g id="edge1" class="edge">
<title>Node1&#45;&gt;Node2</title>
<path fill="none" stroke="midnightblue" d="M111.91,-134.53C133.23,-141.29 158.58,-149.32 180.94,-156.41"/>
<polygon fill="midnightblue" stroke="midnightblue" points="180.06,-159.8 190.65,-159.49 182.17,-153.13 180.06,-159.8"/>
</g>
<!-- Node5 -->
<g id="node5" class="node">
<title>Node5</title>
<g id="a_node5"><a xlink:href="a00413.html#a05b681dcb8569b9784c6dccfadb01633" target="_top" xlink:title=" ">
<polygon fill="white" stroke="black" points="175.5,-77.5 175.5,-107.5 302.5,-107.5 302.5,-77.5 175.5,-77.5"/>
<text text-anchor="start" x="183.5" y="-95.5" font-family="Helvetica,sans-Serif" font-size="10.00">nlohmann::detail::dtoa</text>
<text text-anchor="middle" x="239" y="-84.5" font-family="Helvetica,sans-Serif" font-size="10.00">_impl::grisu2</text>
</a>
</g>
</g>
<!-- Node1&#45;&gt;Node5 -->
<g id="edge4" class="edge">
<title>Node1&#45;&gt;Node5</title>
<path fill="none" stroke="midnightblue" d="M127.14,-109.75C139.55,-107.82 152.67,-105.78 165.37,-103.8"/>
<polygon fill="midnightblue" stroke="midnightblue" points="166.11,-107.23 175.45,-102.23 165.04,-100.31 166.11,-107.23"/>
</g>
<!-- Node3 -->
<g id="node3" class="node">
<title>Node3</title>
<g id="a_node3"><a xlink:href="a01989.html#a2246b5b40c7c6992153ef174063d6aa6" target="_top" xlink:title="normalize x such that the significand is &gt;= 2^(q&#45;1)">
<polygon fill="white" stroke="black" points="358.5,-208.5 358.5,-238.5 487.5,-238.5 487.5,-208.5 358.5,-208.5"/>
<text text-anchor="start" x="366.5" y="-226.5" font-family="Helvetica,sans-Serif" font-size="10.00">nlohmann::detail::dtoa</text>
<text text-anchor="middle" x="423" y="-215.5" font-family="Helvetica,sans-Serif" font-size="10.00">_impl::diyfp::normalize</text>
</a>
</g>
</g>
<!-- Node2&#45;&gt;Node3 -->
<g id="edge2" class="edge">
<title>Node2&#45;&gt;Node3</title>
<path fill="none" stroke="midnightblue" d="M296.09,-189.6C315.12,-194.73 336.56,-200.5 356.27,-205.8"/>
<polygon fill="midnightblue" stroke="midnightblue" points="355.53,-209.23 366.09,-208.45 357.35,-202.47 355.53,-209.23"/>
</g>
<!-- Node4 -->
<g id="node4" class="node">
<title>Node4</title>
<g id="a_node4"><a xlink:href="a01989.html#a6b6665e467ebabe0c0f7418d3fe4b118" target="_top" xlink:title="normalize x such that the result has the exponent E">
<polygon fill="white" stroke="black" points="351,-159.5 351,-189.5 495,-189.5 495,-159.5 351,-159.5"/>
<text text-anchor="start" x="359" y="-177.5" font-family="Helvetica,sans-Serif" font-size="10.00">nlohmann::detail::dtoa</text>
<text text-anchor="middle" x="423" y="-166.5" font-family="Helvetica,sans-Serif" font-size="10.00">_impl::diyfp::normalize_to</text>
</a>
</g>
</g>
<!-- Node2&#45;&gt;Node4 -->
<g id="edge3" class="edge">
<title>Node2&#45;&gt;Node4</title>
<path fill="none" stroke="midnightblue" d="M315.08,-174.5C323.59,-174.5 332.3,-174.5 340.89,-174.5"/>
<polygon fill="midnightblue" stroke="midnightblue" points="340.9,-178 350.9,-174.5 340.9,-171 340.9,-178"/>
</g>
<!-- Node6 -->
<g id="node6" class="node">
<title>Node6</title>
<g id="a_node6"><a xlink:href="a00413.html#adbf329a18c5cf854a3477327afd2200b" target="_top" xlink:title=" ">
<polygon fill="white" stroke="black" points="353,-99 353,-140 493,-140 493,-99 353,-99"/>
<text text-anchor="start" x="361" y="-128" font-family="Helvetica,sans-Serif" font-size="10.00">nlohmann::detail::dtoa</text>
<text text-anchor="start" x="361" y="-117" font-family="Helvetica,sans-Serif" font-size="10.00">_impl::get_cached_power</text>
<text text-anchor="middle" x="423" y="-106" font-family="Helvetica,sans-Serif" font-size="10.00">_for_binary_exponent</text>
</a>
</g>
</g>
<!-- Node5&#45;&gt;Node6 -->
<g id="edge5" class="edge">
<title>Node5&#45;&gt;Node6</title>
<path fill="none" stroke="midnightblue" d="M302.63,-101.79C315.5,-103.7 329.2,-105.73 342.57,-107.72"/>
<polygon fill="midnightblue" stroke="midnightblue" points="342.3,-111.21 352.7,-109.22 343.33,-104.29 342.3,-111.21"/>
</g>
<!-- Node7 -->
<g id="node7" class="node">
<title>Node7</title>
<g id="a_node7"><a xlink:href="a00413.html#a9b899c72b0e1e3dd46d75c2b4e6bcdfb" target="_top" xlink:title=" ">
<polygon fill="white" stroke="black" points="358,-49.5 358,-79.5 488,-79.5 488,-49.5 358,-49.5"/>
<text text-anchor="start" x="366" y="-67.5" font-family="Helvetica,sans-Serif" font-size="10.00">nlohmann::detail::dtoa</text>
<text text-anchor="middle" x="423" y="-56.5" font-family="Helvetica,sans-Serif" font-size="10.00">_impl::grisu2_digit_gen</text>
</a>
</g>
</g>
<!-- Node5&#45;&gt;Node7 -->
<g id="edge6" class="edge">
<title>Node5&#45;&gt;Node7</title>
<path fill="none" stroke="midnightblue" d="M302.63,-82.86C317.09,-80.64 332.6,-78.25 347.5,-75.96"/>
<polygon fill="midnightblue" stroke="midnightblue" points="348.35,-79.37 357.7,-74.39 347.29,-72.45 348.35,-79.37"/>
</g>
<!-- Node11 -->
<g id="node11" class="node">
<title>Node11</title>
<g id="a_node11"><a xlink:href="a01989.html#aa5f250d12ce89c81fdb08900c6a823e8" target="_top" xlink:title="returns x * y">
<polygon fill="white" stroke="black" points="359.5,-0.5 359.5,-30.5 486.5,-30.5 486.5,-0.5 359.5,-0.5"/>
<text text-anchor="start" x="367.5" y="-18.5" font-family="Helvetica,sans-Serif" font-size="10.00">nlohmann::detail::dtoa</text>
<text text-anchor="middle" x="423" y="-7.5" font-family="Helvetica,sans-Serif" font-size="10.00">_impl::diyfp::mul</text>
</a>
</g>
</g>
<!-- Node5&#45;&gt;Node11 -->
<g id="edge10" class="edge">
<title>Node5&#45;&gt;Node11</title>
<path fill="none" stroke="midnightblue" d="M270.26,-77.33C292.38,-66.48 323.23,-51.86 351,-40.5 356.35,-38.31 361.96,-36.14 367.6,-34.03"/>
<polygon fill="midnightblue" stroke="midnightblue" points="368.87,-37.29 377.05,-30.57 366.46,-30.72 368.87,-37.29"/>
</g>
<!-- Node8 -->
<g id="node8" class="node">
<title>Node8</title>
<g id="a_node8"><a xlink:href="a00413.html#a36ded358763b5dbcea9867660fbe4e28" target="_top" xlink:title=" ">
<polygon fill="white" stroke="black" points="531,-98.5 531,-128.5 675,-128.5 675,-98.5 531,-98.5"/>
<text text-anchor="start" x="539" y="-116.5" font-family="Helvetica,sans-Serif" font-size="10.00">nlohmann::detail::dtoa</text>
<text text-anchor="middle" x="603" y="-105.5" font-family="Helvetica,sans-Serif" font-size="10.00">_impl::find_largest_pow10</text>
</a>
</g>
</g>
<!-- Node7&#45;&gt;Node8 -->
<g id="edge7" class="edge">
<title>Node7&#45;&gt;Node8</title>
<path fill="none" stroke="midnightblue" d="M478.86,-79.6C497.39,-84.7 518.24,-90.44 537.45,-95.73"/>
<polygon fill="midnightblue" stroke="midnightblue" points="536.75,-99.17 547.32,-98.45 538.61,-92.42 536.75,-99.17"/>
</g>
<!-- Node9 -->
<g id="node9" class="node">
<title>Node9</title>
<g id="a_node9"><a xlink:href="a00413.html#a5bc841e0bee12fd6489d49cf7bd07bb4" target="_top" xlink:title=" ">
<polygon fill="white" stroke="black" points="539.5,-49.5 539.5,-79.5 666.5,-79.5 666.5,-49.5 539.5,-49.5"/>
<text text-anchor="start" x="547.5" y="-67.5" font-family="Helvetica,sans-Serif" font-size="10.00">nlohmann::detail::dtoa</text>
<text text-anchor="middle" x="603" y="-56.5" font-family="Helvetica,sans-Serif" font-size="10.00">_impl::grisu2_round</text>
</a>
</g>
</g>
<!-- Node7&#45;&gt;Node9 -->
<g id="edge8" class="edge">
<title>Node7&#45;&gt;Node9</title>
<path fill="none" stroke="midnightblue" d="M488.01,-64.5C501.35,-64.5 515.51,-64.5 529.15,-64.5"/>
<polygon fill="midnightblue" stroke="midnightblue" points="529.45,-68 539.45,-64.5 529.45,-61 529.45,-68"/>
</g>
<!-- Node10 -->
<g id="node10" class="node">
<title>Node10</title>
<g id="a_node10"><a xlink:href="a01989.html#aeb26771af54ad73598c1a0430d65d884" target="_top" xlink:title="returns x &#45; y">
<polygon fill="white" stroke="black" points="539.5,-0.5 539.5,-30.5 666.5,-30.5 666.5,-0.5 539.5,-0.5"/>
<text text-anchor="start" x="547.5" y="-18.5" font-family="Helvetica,sans-Serif" font-size="10.00">nlohmann::detail::dtoa</text>
<text text-anchor="middle" x="603" y="-7.5" font-family="Helvetica,sans-Serif" font-size="10.00">_impl::diyfp::sub</text>
</a>
</g>
</g>
<!-- Node7&#45;&gt;Node10 -->
<g id="edge9" class="edge">
<title>Node7&#45;&gt;Node10</title>
<path fill="none" stroke="midnightblue" d="M478.86,-49.4C497.39,-44.3 518.24,-38.56 537.45,-33.27"/>
<polygon fill="midnightblue" stroke="midnightblue" points="538.61,-36.58 547.32,-30.55 536.75,-29.83 538.61,-36.58"/>
</g>
</g>
</svg>
