<?xml version="1.0" encoding="UTF-8" standalone="no"?>
<!DOCTYPE svg PUBLIC "-//W3C//DTD SVG 1.1//EN"
 "http://www.w3.org/Graphics/SVG/1.1/DTD/svg11.dtd">
<!-- Generated by graphviz version 5.0.0 (20220707.1540)
 -->
<!-- Title: nlohmann::detail::to_json Pages: 1 -->
<svg width="291pt" height="88pt"
 viewBox="0.00 0.00 291.00 88.00" xmlns="http://www.w3.org/2000/svg" xmlns:xlink="http://www.w3.org/1999/xlink">
<g id="graph0" class="graph" transform="scale(1 1) rotate(0) translate(4 84)">
<title>nlohmann::detail::to_json</title>
<polygon fill="white" stroke="transparent" points="-4,4 -4,-84 287,-84 287,4 -4,4"/>
<!-- Node1 -->
<g id="node1" class="node">
<title>Node1</title>
<g id="a_node1"><a xlink:title=" ">
<polygon fill="#bfbfbf" stroke="black" points="158,-30 158,-49 283,-49 283,-30 158,-30"/>
<text text-anchor="middle" x="220.5" y="-37" font-family="Helvetica,sans-Serif" font-size="10.00">nlohmann::detail::to_json</text>
</a>
</g>
</g>
<!-- Node2 -->
<g id="node2" class="node">
<title>Node2</title>
<g id="a_node2"><a xlink:href="a01593.html#a1b5d76a1546257689ad260ed34ec20b5" target="_top" xlink:title="create a JSON value">
<polygon fill="white" stroke="black" points="5.5,-49.5 5.5,-79.5 116.5,-79.5 116.5,-49.5 5.5,-49.5"/>
<text text-anchor="start" x="13.5" y="-67.5" font-family="Helvetica,sans-Serif" font-size="10.00">nlohmann::basic_json</text>
<text text-anchor="middle" x="61" y="-56.5" font-family="Helvetica,sans-Serif" font-size="10.00">::basic_json</text>
</a>
</g>
</g>
<!-- Node1&#45;&gt;Node2 -->
<g id="edge1" class="edge">
<title>Node1&#45;&gt;Node2</title>
<path fill="none" stroke="midnightblue" d="M149.49,-50.61C138.48,-52.36 127.25,-54.14 116.66,-55.82"/>
<polygon fill="midnightblue" stroke="midnightblue" points="150.18,-54.05 159.51,-49.02 149.08,-47.13 150.18,-54.05"/>
</g>
<!-- Node3 -->
<g id="node3" class="node">
<title>Node3</title>
<g id="a_node3"><a xlink:href="a01589.html#a01b867bd5dce5249d4f7433b8f27def6" target="_top" xlink:title="convert any value type to a JSON value">
<polygon fill="white" stroke="black" points="0,-0.5 0,-30.5 122,-30.5 122,-0.5 0,-0.5"/>
<text text-anchor="start" x="8" y="-18.5" font-family="Helvetica,sans-Serif" font-size="10.00">nlohmann::adl_serializer</text>
<text text-anchor="middle" x="61" y="-7.5" font-family="Helvetica,sans-Serif" font-size="10.00">::to_json</text>
</a>
</g>
</g>
<!-- Node1&#45;&gt;Node3 -->
<g id="edge2" class="edge">
<title>Node1&#45;&gt;Node3</title>
<path fill="none" stroke="midnightblue" d="M147.71,-28.56C139.14,-27.25 130.46,-25.93 122.07,-24.65"/>
<polygon fill="midnightblue" stroke="midnightblue" points="147.29,-32.04 157.7,-30.08 148.35,-25.12 147.29,-32.04"/>
</g>
</g>
</svg>
