<?xml version="1.0" encoding="UTF-8" standalone="no"?>
<!DOCTYPE svg PUBLIC "-//W3C//DTD SVG 1.1//EN"
 "http://www.w3.org/Graphics/SVG/1.1/DTD/svg11.dtd">
<!-- Generated by graphviz version 2.43.0 (0)
 -->
<!-- Title: C_Interface::TEST Pages: 1 -->
<svg width="675pt" height="221pt"
 viewBox="0.00 0.00 675.00 221.00" xmlns="http://www.w3.org/2000/svg" xmlns:xlink="http://www.w3.org/1999/xlink">
<g id="graph0" class="graph" transform="scale(1 1) rotate(0) translate(4 217)">
<title>C_Interface::TEST</title>
<polygon fill="white" stroke="transparent" points="-4,4 -4,-217 671,-217 671,4 -4,4"/>
<!-- Node1 -->
<g id="node1" class="node">
<title>Node1</title>
<g id="a_node1"><a xlink:title=" ">
<polygon fill="#bfbfbf" stroke="black" points="0,-117.5 0,-136.5 102,-136.5 102,-117.5 0,-117.5"/>
<text text-anchor="middle" x="51" y="-124.5" font-family="Helvetica,sans-Serif" font-size="10.00">C_Interface::TEST</text>
</a>
</g>
</g>
<!-- Node2 -->
<g id="node2" class="node">
<title>Node2</title>
<g id="a_node2"><a xlink:href="a00391.html#gabf8cd153a421ed226ba298579bd56122" target="_top" xlink:title="Create a new raytracer using several meshes.">
<polygon fill="white" stroke="black" points="138,-193.5 138,-212.5 285,-212.5 285,-193.5 138,-193.5"/>
<text text-anchor="middle" x="211.5" y="-200.5" font-family="Helvetica,sans-Serif" font-size="10.00">CreateRaytracerMultiMesh</text>
</a>
</g>
</g>
<!-- Node1&#45;&gt;Node2 -->
<g id="edge1" class="edge">
<title>Node1&#45;&gt;Node2</title>
<path fill="none" stroke="midnightblue" d="M63.79,-136.66C79.71,-149.26 109.39,-171.19 138,-184 143.4,-186.42 149.17,-188.58 155.01,-190.49"/>
<polygon fill="midnightblue" stroke="midnightblue" points="154.26,-193.92 164.85,-193.49 156.3,-187.22 154.26,-193.92"/>
</g>
<!-- Node3 -->
<g id="node3" class="node">
<title>Node3</title>
<g id="a_node3"><a xlink:href="a00389.html#ga0ef9f7e63f067546b527947d4678dcd5" target="_top" xlink:title="Free the memory addressed by mesh_to_destroy, which was allocated by either LoadOBJ or StoreMesh.">
<polygon fill="white" stroke="black" points="161.5,-155.5 161.5,-174.5 261.5,-174.5 261.5,-155.5 161.5,-155.5"/>
<text text-anchor="middle" x="211.5" y="-162.5" font-family="Helvetica,sans-Serif" font-size="10.00">DestroyMeshInfo</text>
</a>
</g>
</g>
<!-- Node1&#45;&gt;Node3 -->
<g id="edge2" class="edge">
<title>Node1&#45;&gt;Node3</title>
<path fill="none" stroke="midnightblue" d="M92,-136.59C112.91,-141.6 138.71,-147.79 160.89,-153.11"/>
<polygon fill="midnightblue" stroke="midnightblue" points="160.25,-156.55 170.79,-155.48 161.88,-149.74 160.25,-156.55"/>
</g>
<!-- Node5 -->
<g id="node5" class="node">
<title>Node5</title>
<g id="a_node5"><a xlink:href="a00391.html#gac7ff0b75adf7d24754a702f09d5bcf07" target="_top" xlink:title="Delete an existing raytracer.">
<polygon fill="white" stroke="black" points="160,-117.5 160,-136.5 263,-136.5 263,-117.5 160,-117.5"/>
<text text-anchor="middle" x="211.5" y="-124.5" font-family="Helvetica,sans-Serif" font-size="10.00">DestroyRayTracer</text>
</a>
</g>
</g>
<!-- Node1&#45;&gt;Node5 -->
<g id="edge4" class="edge">
<title>Node1&#45;&gt;Node5</title>
<path fill="none" stroke="midnightblue" d="M102.15,-127C117.25,-127 133.99,-127 149.71,-127"/>
<polygon fill="midnightblue" stroke="midnightblue" points="149.86,-130.5 159.86,-127 149.86,-123.5 149.86,-130.5"/>
</g>
<!-- Node6 -->
<g id="node6" class="node">
<title>Node6</title>
<g id="a_node6"><a xlink:href="a00391.html#ga3c06d32b8a4af0110489372e292555fd" target="_top" xlink:title="Fire a single ray from the raytracer and receive a point in return.">
<polygon fill="white" stroke="black" points="185,-79.5 185,-98.5 238,-98.5 238,-79.5 185,-79.5"/>
<text text-anchor="middle" x="211.5" y="-86.5" font-family="Helvetica,sans-Serif" font-size="10.00">FireRay</text>
</a>
</g>
</g>
<!-- Node1&#45;&gt;Node6 -->
<g id="edge5" class="edge">
<title>Node1&#45;&gt;Node6</title>
<path fill="none" stroke="midnightblue" d="M92,-117.41C117.51,-111.29 150.3,-103.43 174.91,-97.53"/>
<polygon fill="midnightblue" stroke="midnightblue" points="176,-100.87 184.91,-95.13 174.37,-94.06 176,-100.87"/>
</g>
<!-- Node8 -->
<g id="node8" class="node">
<title>Node8</title>
<g id="a_node8"><a xlink:href="a00389.html#ga0805e80d13b29aeddc35f0bcf3f16a1a" target="_top" xlink:title="Load an obj from the given path then rotate it by x,y, and z.">
<polygon fill="white" stroke="black" points="183,-38.5 183,-57.5 240,-57.5 240,-38.5 183,-38.5"/>
<text text-anchor="middle" x="211.5" y="-45.5" font-family="Helvetica,sans-Serif" font-size="10.00">LoadOBJ</text>
</a>
</g>
</g>
<!-- Node1&#45;&gt;Node8 -->
<g id="edge7" class="edge">
<title>Node1&#45;&gt;Node8</title>
<path fill="none" stroke="midnightblue" d="M64.14,-117.29C80.21,-104.84 109.8,-83.27 138,-70 149.05,-64.8 161.61,-60.48 173.14,-57.08"/>
<polygon fill="midnightblue" stroke="midnightblue" points="174.26,-60.4 182.95,-54.34 172.37,-53.66 174.26,-60.4"/>
</g>
<!-- Node4 -->
<g id="node4" class="node">
<title>Node4</title>
<g id="a_node4"><a xlink:href="a00347.html#a1746287300e1f05c45d84f3837e24557" target="_top" xlink:title="Delete some object pointed to by ptr">
<polygon fill="white" stroke="black" points="367.5,-155.5 367.5,-174.5 450.5,-174.5 450.5,-155.5 367.5,-155.5"/>
<text text-anchor="middle" x="409" y="-162.5" font-family="Helvetica,sans-Serif" font-size="10.00">DeleteRawPtr</text>
</a>
</g>
</g>
<!-- Node3&#45;&gt;Node4 -->
<g id="edge3" class="edge">
<title>Node3&#45;&gt;Node4</title>
<path fill="none" stroke="midnightblue" d="M261.58,-165C290.82,-165 327.86,-165 357.37,-165"/>
<polygon fill="midnightblue" stroke="midnightblue" points="357.47,-168.5 367.47,-165 357.47,-161.5 357.47,-168.5"/>
</g>
<!-- Node7 -->
<g id="node7" class="node">
<title>Node7</title>
<g id="a_node7"><a xlink:href="a01357.html#aa8424b274c7c5d0598ff13b49ac8c8d2" target="_top" xlink:title="Cast a ray and overwrite the origin with the hitpoint if it intersects any geometry.">
<polygon fill="white" stroke="black" points="336,-77 336,-107 482,-107 482,-77 336,-77"/>
<text text-anchor="start" x="344" y="-95" font-family="Helvetica,sans-Serif" font-size="10.00">HF::RayTracer::EmbreeRay</text>
<text text-anchor="middle" x="409" y="-84" font-family="Helvetica,sans-Serif" font-size="10.00">Tracer::PointIntersection</text>
</a>
</g>
</g>
<!-- Node6&#45;&gt;Node7 -->
<g id="edge6" class="edge">
<title>Node6&#45;&gt;Node7</title>
<path fill="none" stroke="midnightblue" d="M238.06,-89.39C260.38,-89.73 294.05,-90.25 325.54,-90.73"/>
<polygon fill="midnightblue" stroke="midnightblue" points="325.62,-94.24 335.68,-90.89 325.73,-87.24 325.62,-94.24"/>
</g>
<!-- Node9 -->
<g id="node9" class="node">
<title>Node9</title>
<g id="a_node9"><a xlink:href="a00389.html#gaa07792b399e76e6101388bb6bbb96047" target="_top" xlink:title="Get the ID of a mesh.">
<polygon fill="white" stroke="black" points="373.5,-38.5 373.5,-57.5 444.5,-57.5 444.5,-38.5 373.5,-38.5"/>
<text text-anchor="middle" x="409" y="-45.5" font-family="Helvetica,sans-Serif" font-size="10.00">GetMeshID</text>
</a>
</g>
</g>
<!-- Node8&#45;&gt;Node9 -->
<g id="edge8" class="edge">
<title>Node8&#45;&gt;Node9</title>
<path fill="none" stroke="midnightblue" d="M240.1,-48C272.04,-48 325.1,-48 363.03,-48"/>
<polygon fill="midnightblue" stroke="midnightblue" points="363.29,-51.5 373.29,-48 363.29,-44.5 363.29,-51.5"/>
</g>
<!-- Node10 -->
<g id="node10" class="node">
<title>Node10</title>
<g id="a_node10"><a xlink:href="a00403.html#a06c0c11adb62f8b204e42f75ac1990ac" target="_top" xlink:title="Create MeshInfo instances from the OBJ at path.">
<polygon fill="white" stroke="black" points="321,-0.5 321,-19.5 497,-19.5 497,-0.5 321,-0.5"/>
<text text-anchor="middle" x="409" y="-7.5" font-family="Helvetica,sans-Serif" font-size="10.00">HF::Geometry::LoadMeshObjects</text>
</a>
</g>
</g>
<!-- Node8&#45;&gt;Node10 -->
<g id="edge9" class="edge">
<title>Node8&#45;&gt;Node10</title>
<path fill="none" stroke="midnightblue" d="M240.1,-42.64C268.28,-37.16 312.93,-28.48 349.09,-21.45"/>
<polygon fill="midnightblue" stroke="midnightblue" points="349.9,-24.86 359.05,-19.51 348.56,-17.99 349.9,-24.86"/>
</g>
<!-- Node11 -->
<g id="node11" class="node">
<title>Node11</title>
<g id="a_node11"><a xlink:href="a00403.html#a4f0c57b862a0826821217d8c3ac849c4" target="_top" xlink:title=" ">
<polygon fill="white" stroke="black" points="533,-0.5 533,-19.5 667,-19.5 667,-0.5 533,-0.5"/>
<text text-anchor="middle" x="600" y="-7.5" font-family="Helvetica,sans-Serif" font-size="10.00">HF::Geometry::MeshInfo</text>
</a>
</g>
</g>
<!-- Node10&#45;&gt;Node11 -->
<g id="edge10" class="edge">
<title>Node10&#45;&gt;Node11</title>
<path fill="none" stroke="midnightblue" d="M497.03,-10C505.57,-10 514.2,-10 522.62,-10"/>
<polygon fill="midnightblue" stroke="midnightblue" points="522.77,-13.5 532.77,-10 522.77,-6.5 522.77,-13.5"/>
</g>
</g>
</svg>
