<?xml version="1.0" encoding="UTF-8" standalone="no"?>
<!DOCTYPE svg PUBLIC "-//W3C//DTD SVG 1.1//EN"
 "http://www.w3.org/Graphics/SVG/1.1/DTD/svg11.dtd">
<!-- Generated by graphviz version 2.43.0 (0)
 -->
<!-- Title: HF::Geometry::MeshInfo Pages: 1 -->
<svg width="724pt" height="294pt"
 viewBox="0.00 0.00 724.00 294.00" xmlns="http://www.w3.org/2000/svg" xmlns:xlink="http://www.w3.org/1999/xlink">
<g id="graph0" class="graph" transform="scale(1 1) rotate(0) translate(4 290)">
<title>HF::Geometry::MeshInfo</title>
<polygon fill="white" stroke="transparent" points="-4,4 -4,-290 720,-290 720,4 -4,4"/>
<!-- Node1 -->
<g id="node1" class="node">
<title>Node1</title>
<g id="a_node1"><a xlink:title=" ">
<polygon fill="#bfbfbf" stroke="black" points="582,-114.5 582,-133.5 716,-133.5 716,-114.5 582,-114.5"/>
<text text-anchor="middle" x="649" y="-121.5" font-family="Helvetica,sans-Serif" font-size="10.00">HF::Geometry::MeshInfo</text>
</a>
</g>
</g>
<!-- Node2 -->
<g id="node2" class="node">
<title>Node2</title>
<g id="a_node2"><a xlink:href="a00403.html#a06c0c11adb62f8b204e42f75ac1990ac" target="_top" xlink:title="Create MeshInfo instances from the OBJ at path.">
<polygon fill="white" stroke="black" points="370,-133.5 370,-152.5 546,-152.5 546,-133.5 370,-133.5"/>
<text text-anchor="middle" x="458" y="-140.5" font-family="Helvetica,sans-Serif" font-size="10.00">HF::Geometry::LoadMeshObjects</text>
</a>
</g>
</g>
<!-- Node1&#45;&gt;Node2 -->
<g id="edge1" class="edge">
<title>Node1&#45;&gt;Node2</title>
<path fill="none" stroke="midnightblue" d="M571.79,-131.66C563.41,-132.5 554.83,-133.37 546.33,-134.22"/>
<polygon fill="midnightblue" stroke="midnightblue" points="572.3,-135.13 581.9,-130.65 571.6,-128.16 572.3,-135.13"/>
</g>
<!-- Node17 -->
<g id="node17" class="node">
<title>Node17</title>
<g id="a_node17"><a xlink:href="a02916.html#a7f61e6b65757af94fa5cbd0d8f6619dc" target="_top" xlink:title=" ">
<polygon fill="white" stroke="black" points="437.5,-95.5 437.5,-114.5 478.5,-114.5 478.5,-95.5 437.5,-95.5"/>
<text text-anchor="middle" x="458" y="-102.5" font-family="Helvetica,sans-Serif" font-size="10.00">TEST</text>
</a>
</g>
</g>
<!-- Node1&#45;&gt;Node17 -->
<g id="edge16" class="edge">
<title>Node1&#45;&gt;Node17</title>
<path fill="none" stroke="midnightblue" d="M571.51,-116.31C537.66,-112.91 500.61,-109.18 478.61,-106.97"/>
<polygon fill="midnightblue" stroke="midnightblue" points="571.6,-119.84 581.9,-117.35 572.3,-112.87 571.6,-119.84"/>
</g>
<!-- Node3 -->
<g id="node3" class="node">
<title>Node3</title>
<g id="a_node3"><a xlink:href="a00299.html#a2ab46bd080864c755c80d925bedcfbb1" target="_top" xlink:title=" ">
<polygon fill="white" stroke="black" points="186.5,-266.5 186.5,-285.5 305.5,-285.5 305.5,-266.5 186.5,-266.5"/>
<text text-anchor="middle" x="246" y="-273.5" font-family="Helvetica,sans-Serif" font-size="10.00">CreateGGExmapleRT</text>
</a>
</g>
</g>
<!-- Node2&#45;&gt;Node3 -->
<g id="edge2" class="edge">
<title>Node2&#45;&gt;Node3</title>
<path fill="none" stroke="midnightblue" d="M443.13,-160.85C422.3,-186.34 380.4,-232.77 334,-257 325.23,-261.58 315.41,-265.06 305.61,-267.7"/>
<polygon fill="midnightblue" stroke="midnightblue" points="446.07,-162.77 449.59,-152.77 440.61,-158.39 446.07,-162.77"/>
</g>
<!-- Node5 -->
<g id="node5" class="node">
<title>Node5</title>
<g id="a_node5"><a xlink:href="a00299.html#a7689b386735b992cd5ade95fdc57466c" target="_top" xlink:title=" ">
<polygon fill="white" stroke="black" points="173,-228.5 173,-247.5 319,-247.5 319,-228.5 173,-228.5"/>
<text text-anchor="middle" x="246" y="-235.5" font-family="Helvetica,sans-Serif" font-size="10.00">CreateObstacleExampleRT</text>
</a>
</g>
</g>
<!-- Node2&#45;&gt;Node5 -->
<g id="edge4" class="edge">
<title>Node2&#45;&gt;Node5</title>
<path fill="none" stroke="midnightblue" d="M436.33,-158.84C412.79,-176.12 372.59,-203.4 334,-219 324.54,-222.82 314.18,-225.94 304,-228.46"/>
<polygon fill="midnightblue" stroke="midnightblue" points="438.57,-161.54 444.49,-152.75 434.39,-155.92 438.57,-161.54"/>
</g>
<!-- Node7 -->
<g id="node7" class="node">
<title>Node7</title>
<g id="a_node7"><a xlink:href="a00335.html#ab70accb6ed1a6cfe7e8e91135a899c94" target="_top" xlink:title=" ">
<polygon fill="white" stroke="black" points="193.5,-190.5 193.5,-209.5 298.5,-209.5 298.5,-190.5 193.5,-190.5"/>
<text text-anchor="middle" x="246" y="-197.5" font-family="Helvetica,sans-Serif" font-size="10.00">CreatePlaneTracer</text>
</a>
</g>
</g>
<!-- Node2&#45;&gt;Node7 -->
<g id="edge6" class="edge">
<title>Node2&#45;&gt;Node7</title>
<path fill="none" stroke="midnightblue" d="M418.85,-155.7C394.69,-163.52 362.69,-173.45 334,-181 321.14,-184.38 307.1,-187.64 294.13,-190.47"/>
<polygon fill="midnightblue" stroke="midnightblue" points="419.94,-159.02 428.37,-152.6 417.78,-152.37 419.94,-159.02"/>
</g>
<!-- Node9 -->
<g id="node9" class="node">
<title>Node9</title>
<g id="a_node9"><a xlink:href="a00403.html#a5e3b85fb47ef06f7693802f3fe90e996" target="_top" xlink:title="Create MeshInfo instances from the OBJ files in path.">
<polygon fill="white" stroke="black" points="158,-152.5 158,-171.5 334,-171.5 334,-152.5 158,-152.5"/>
<text text-anchor="middle" x="246" y="-159.5" font-family="Helvetica,sans-Serif" font-size="10.00">HF::Geometry::LoadMeshObjects</text>
</a>
</g>
</g>
<!-- Node2&#45;&gt;Node9 -->
<g id="edge8" class="edge">
<title>Node2&#45;&gt;Node9</title>
<path fill="none" stroke="midnightblue" d="M359.54,-151.82C351.12,-152.58 342.63,-153.35 334.3,-154.1"/>
<polygon fill="midnightblue" stroke="midnightblue" points="360.12,-155.28 369.77,-150.89 359.49,-148.31 360.12,-155.28"/>
</g>
<!-- Node10 -->
<g id="node10" class="node">
<title>Node10</title>
<g id="a_node10"><a xlink:href="a00389.html#ga0805e80d13b29aeddc35f0bcf3f16a1a" target="_top" xlink:title="Load an obj from the given path then rotate it by x,y, and z.">
<polygon fill="white" stroke="black" points="217.5,-114.5 217.5,-133.5 274.5,-133.5 274.5,-114.5 217.5,-114.5"/>
<text text-anchor="middle" x="246" y="-121.5" font-family="Helvetica,sans-Serif" font-size="10.00">LoadOBJ</text>
</a>
</g>
</g>
<!-- Node2&#45;&gt;Node10 -->
<g id="edge9" class="edge">
<title>Node2&#45;&gt;Node10</title>
<path fill="none" stroke="midnightblue" d="M359.74,-134.2C328.7,-131.39 296.76,-128.5 274.84,-126.52"/>
<polygon fill="midnightblue" stroke="midnightblue" points="359.49,-137.69 369.77,-135.11 360.12,-130.72 359.49,-137.69"/>
</g>
<!-- Node14 -->
<g id="node14" class="node">
<title>Node14</title>
<g id="a_node14"><a xlink:href="a02033.html#add4fb9532dd24bf51e94f71e977dbacf" target="_top" xlink:title=" ">
<polygon fill="white" stroke="black" points="162.5,-76.5 162.5,-95.5 329.5,-95.5 329.5,-76.5 162.5,-76.5"/>
<text text-anchor="middle" x="246" y="-83.5" font-family="Helvetica,sans-Serif" font-size="10.00">ModelAndStart::ModelAndStart</text>
</a>
</g>
</g>
<!-- Node2&#45;&gt;Node14 -->
<g id="edge13" class="edge">
<title>Node2&#45;&gt;Node14</title>
<path fill="none" stroke="midnightblue" d="M392.73,-131.04C384.98,-128.99 377.25,-126.65 370,-124 353.01,-117.79 350.99,-111.21 334,-105 323.69,-101.23 312.41,-98.09 301.48,-95.52"/>
<polygon fill="midnightblue" stroke="midnightblue" points="391.97,-134.45 402.52,-133.48 393.66,-127.66 391.97,-134.45"/>
</g>
<!-- Node15 -->
<g id="node15" class="node">
<title>Node15</title>
<g id="a_node15"><a xlink:href="a00396.html#ad4d7fe23b2913d7e6f0bd00a9730ea10" target="_top" xlink:title=" ">
<polygon fill="white" stroke="black" points="216.5,-38.5 216.5,-57.5 275.5,-57.5 275.5,-38.5 216.5,-38.5"/>
<text text-anchor="middle" x="246" y="-45.5" font-family="Helvetica,sans-Serif" font-size="10.00">HF::TEST</text>
</a>
</g>
</g>
<!-- Node2&#45;&gt;Node15 -->
<g id="edge14" class="edge">
<title>Node2&#45;&gt;Node15</title>
<path fill="none" stroke="midnightblue" d="M378.59,-129.18C375.6,-127.63 372.72,-125.91 370,-124 345.46,-106.8 358.54,-84.2 334,-67 317.03,-55.11 293.99,-50.46 275.88,-48.73"/>
<polygon fill="midnightblue" stroke="midnightblue" points="377.29,-132.43 387.85,-133.35 380.17,-126.05 377.29,-132.43"/>
</g>
<!-- Node16 -->
<g id="node16" class="node">
<title>Node16</title>
<g id="a_node16"><a xlink:href="a02910.html#aab9a1717ae7e9d6eaf99277ec6e6f3c8" target="_top" xlink:title=" ">
<polygon fill="white" stroke="black" points="225.5,-0.5 225.5,-19.5 266.5,-19.5 266.5,-0.5 225.5,-0.5"/>
<text text-anchor="middle" x="246" y="-7.5" font-family="Helvetica,sans-Serif" font-size="10.00">TEST</text>
</a>
</g>
</g>
<!-- Node2&#45;&gt;Node16 -->
<g id="edge15" class="edge">
<title>Node2&#45;&gt;Node16</title>
<path fill="none" stroke="midnightblue" d="M375.7,-128.33C373.71,-127 371.81,-125.56 370,-124 335.81,-94.51 368.19,-58.49 334,-29 315.27,-12.84 285.97,-9.46 266.63,-9.2"/>
<polygon fill="midnightblue" stroke="midnightblue" points="374.43,-131.63 384.86,-133.48 377.86,-125.53 374.43,-131.63"/>
</g>
<!-- Node4 -->
<g id="node4" class="node">
<title>Node4</title>
<g id="a_node4"><a xlink:href="a00299.html#a6e58a2ac40628a75c6dfc70a1d4e48b5" target="_top" xlink:title=" ">
<polygon fill="white" stroke="black" points="40.5,-266.5 40.5,-285.5 81.5,-285.5 81.5,-266.5 40.5,-266.5"/>
<text text-anchor="middle" x="61" y="-273.5" font-family="Helvetica,sans-Serif" font-size="10.00">TEST</text>
</a>
</g>
</g>
<!-- Node3&#45;&gt;Node4 -->
<g id="edge3" class="edge">
<title>Node3&#45;&gt;Node4</title>
<path fill="none" stroke="midnightblue" d="M176.04,-276C142.34,-276 104.28,-276 81.76,-276"/>
<polygon fill="midnightblue" stroke="midnightblue" points="176.34,-279.5 186.34,-276 176.34,-272.5 176.34,-279.5"/>
</g>
<!-- Node6 -->
<g id="node6" class="node">
<title>Node6</title>
<g id="a_node6"><a xlink:href="a00299.html#a3677846ac7d998cec3eb73845cd54a7f" target="_top" xlink:title=" ">
<polygon fill="white" stroke="black" points="40.5,-228.5 40.5,-247.5 81.5,-247.5 81.5,-228.5 40.5,-228.5"/>
<text text-anchor="middle" x="61" y="-235.5" font-family="Helvetica,sans-Serif" font-size="10.00">TEST</text>
</a>
</g>
</g>
<!-- Node5&#45;&gt;Node6 -->
<g id="edge5" class="edge">
<title>Node5&#45;&gt;Node6</title>
<path fill="none" stroke="midnightblue" d="M162.79,-238C132.66,-238 101.17,-238 81.58,-238"/>
<polygon fill="midnightblue" stroke="midnightblue" points="162.94,-241.5 172.94,-238 162.94,-234.5 162.94,-241.5"/>
</g>
<!-- Node8 -->
<g id="node8" class="node">
<title>Node8</title>
<g id="a_node8"><a xlink:href="a00335.html#aee285dbd489d6166aef1bfc2fd84c595" target="_top" xlink:title=" ">
<polygon fill="white" stroke="black" points="40.5,-190.5 40.5,-209.5 81.5,-209.5 81.5,-190.5 40.5,-190.5"/>
<text text-anchor="middle" x="61" y="-197.5" font-family="Helvetica,sans-Serif" font-size="10.00">TEST</text>
</a>
</g>
</g>
<!-- Node7&#45;&gt;Node8 -->
<g id="edge7" class="edge">
<title>Node7&#45;&gt;Node8</title>
<path fill="none" stroke="midnightblue" d="M182.85,-200C147.67,-200 106.03,-200 81.95,-200"/>
<polygon fill="midnightblue" stroke="midnightblue" points="183.05,-203.5 193.05,-200 183.05,-196.5 183.05,-203.5"/>
</g>
<!-- Node11 -->
<g id="node11" class="node">
<title>Node11</title>
<g id="a_node11"><a xlink:href="a00329.html#acb30ac5ae6c21828a68b922767b6916f" target="_top" xlink:title=" ">
<polygon fill="white" stroke="black" points="40.5,-152.5 40.5,-171.5 81.5,-171.5 81.5,-152.5 40.5,-152.5"/>
<text text-anchor="middle" x="61" y="-159.5" font-family="Helvetica,sans-Serif" font-size="10.00">TEST</text>
</a>
</g>
</g>
<!-- Node10&#45;&gt;Node11 -->
<g id="edge10" class="edge">
<title>Node10&#45;&gt;Node11</title>
<path fill="none" stroke="midnightblue" d="M206.98,-131.89C168.78,-139.83 111.43,-151.74 81.6,-157.93"/>
<polygon fill="midnightblue" stroke="midnightblue" points="208.13,-135.23 217.21,-129.77 206.7,-128.38 208.13,-135.23"/>
</g>
<!-- Node12 -->
<g id="node12" class="node">
<title>Node12</title>
<g id="a_node12"><a xlink:href="a00414.html#a4cb7e9517019e6eab0c645212b2c9956" target="_top" xlink:title=" ">
<polygon fill="white" stroke="black" points="0,-114.5 0,-133.5 122,-133.5 122,-114.5 0,-114.5"/>
<text text-anchor="middle" x="61" y="-121.5" font-family="Helvetica,sans-Serif" font-size="10.00">CInterfaceTests::TEST</text>
</a>
</g>
</g>
<!-- Node10&#45;&gt;Node12 -->
<g id="edge11" class="edge">
<title>Node10&#45;&gt;Node12</title>
<path fill="none" stroke="midnightblue" d="M206.91,-124C182.46,-124 150.19,-124 122.31,-124"/>
<polygon fill="midnightblue" stroke="midnightblue" points="207.21,-127.5 217.21,-124 207.21,-120.5 207.21,-127.5"/>
</g>
<!-- Node13 -->
<g id="node13" class="node">
<title>Node13</title>
<g id="a_node13"><a xlink:href="a00416.html#a493636385f041004568ceaf4ae02d208" target="_top" xlink:title=" ">
<polygon fill="white" stroke="black" points="10,-76.5 10,-95.5 112,-95.5 112,-76.5 10,-76.5"/>
<text text-anchor="middle" x="61" y="-83.5" font-family="Helvetica,sans-Serif" font-size="10.00">C_Interface::TEST</text>
</a>
</g>
</g>
<!-- Node10&#45;&gt;Node13 -->
<g id="edge12" class="edge">
<title>Node10&#45;&gt;Node13</title>
<path fill="none" stroke="midnightblue" d="M207.12,-116.13C178.3,-110.15 138.51,-101.89 107.88,-95.53"/>
<polygon fill="midnightblue" stroke="midnightblue" points="206.7,-119.62 217.21,-118.23 208.13,-112.77 206.7,-119.62"/>
</g>
</g>
</svg>
