<?xml version="1.0" encoding="UTF-8" standalone="no"?>
<!DOCTYPE svg PUBLIC "-//W3C//DTD SVG 1.1//EN"
 "http://www.w3.org/Graphics/SVG/1.1/DTD/svg11.dtd">
<!-- Generated by graphviz version 2.43.0 (0)
 -->
<!-- Title: CInterfaceTests::TEST Pages: 1 -->
<svg width="832pt" height="299pt"
 viewBox="0.00 0.00 832.00 298.50" xmlns="http://www.w3.org/2000/svg" xmlns:xlink="http://www.w3.org/1999/xlink">
<g id="graph0" class="graph" transform="scale(1 1) rotate(0) translate(4 294.5)">
<title>CInterfaceTests::TEST</title>
<polygon fill="white" stroke="transparent" points="-4,4 -4,-294.5 828,-294.5 828,4 -4,4"/>
<!-- Node1 -->
<g id="node1" class="node">
<title>Node1</title>
<g id="a_node1"><a xlink:title=" ">
<polygon fill="#bfbfbf" stroke="black" points="0,-153.5 0,-172.5 122,-172.5 122,-153.5 0,-153.5"/>
<text text-anchor="middle" x="61" y="-160.5" font-family="Helvetica,sans-Serif" font-size="10.00">CInterfaceTests::TEST</text>
</a>
</g>
</g>
<!-- Node2 -->
<g id="node2" class="node">
<title>Node2</title>
<g id="a_node2"><a xlink:href="a01497.html#a37be5c12e488072dea7fa1c8c64346f7" target="_top" xlink:title="Add a new edge to the graph from parent to child.">
<polygon fill="white" stroke="black" points="158,-260 158,-290 277,-290 277,-260 158,-260"/>
<text text-anchor="start" x="166" y="-278" font-family="Helvetica,sans-Serif" font-size="10.00">HF::SpatialStructures</text>
<text text-anchor="middle" x="217.5" y="-267" font-family="Helvetica,sans-Serif" font-size="10.00">::Graph::addEdge</text>
</a>
</g>
</g>
<!-- Node1&#45;&gt;Node2 -->
<g id="edge1" class="edge">
<title>Node1&#45;&gt;Node2</title>
<path fill="none" stroke="midnightblue" d="M70.37,-172.66C86.05,-190.26 121.54,-227.86 158,-251 160.43,-252.54 162.98,-254.02 165.6,-255.44"/>
<polygon fill="midnightblue" stroke="midnightblue" points="164.17,-258.63 174.68,-259.98 167.3,-252.37 164.17,-258.63"/>
</g>
<!-- Node3 -->
<g id="node3" class="node">
<title>Node3</title>
<g id="a_node3"><a xlink:href="a01497.html#a41cece77d0eee98df39ecc6d3a366ec8" target="_top" xlink:title="Compress the graph to a CSR and enable the usage of several functions.">
<polygon fill="white" stroke="black" points="158,-211 158,-241 277,-241 277,-211 158,-211"/>
<text text-anchor="start" x="166" y="-229" font-family="Helvetica,sans-Serif" font-size="10.00">HF::SpatialStructures</text>
<text text-anchor="middle" x="217.5" y="-218" font-family="Helvetica,sans-Serif" font-size="10.00">::Graph::Compress</text>
</a>
</g>
</g>
<!-- Node1&#45;&gt;Node3 -->
<g id="edge2" class="edge">
<title>Node1&#45;&gt;Node3</title>
<path fill="none" stroke="midnightblue" d="M85.47,-172.57C107.82,-181.68 142.09,-195.66 169.99,-207.03"/>
<polygon fill="midnightblue" stroke="midnightblue" points="168.97,-210.4 179.55,-210.93 171.62,-203.92 168.97,-210.4"/>
</g>
<!-- Node4 -->
<g id="node4" class="node">
<title>Node4</title>
<g id="a_node4"><a xlink:href="a00406.html#ae2106e09eb44d681fbc6c0f66a3d3ac4" target="_top" xlink:title="Create a new boost graph from a HF::SpatialStructures:Graph.">
<polygon fill="white" stroke="black" points="313,-225 313,-255 468,-255 468,-225 313,-225"/>
<text text-anchor="start" x="321" y="-243" font-family="Helvetica,sans-Serif" font-size="10.00">HF::Pathfinding::CreateBoost</text>
<text text-anchor="middle" x="390.5" y="-232" font-family="Helvetica,sans-Serif" font-size="10.00">Graph</text>
</a>
</g>
</g>
<!-- Node1&#45;&gt;Node4 -->
<g id="edge3" class="edge">
<title>Node1&#45;&gt;Node4</title>
<path fill="none" stroke="midnightblue" d="M122.02,-170.74C165.53,-177.11 225.52,-187.47 277,-202 293.52,-206.66 296.8,-210.32 313,-216 318.55,-217.95 324.36,-219.91 330.18,-221.82"/>
<polygon fill="midnightblue" stroke="midnightblue" points="329.37,-225.24 339.96,-224.99 331.52,-218.58 329.37,-225.24"/>
</g>
<!-- Node5 -->
<g id="node5" class="node">
<title>Node5</title>
<g id="a_node5"><a xlink:href="a00390.html#ga3dc85450e989a996a3c3fcfad0a5944e" target="_top" xlink:title="Find the shortest path from start to end.">
<polygon fill="white" stroke="black" points="182.5,-134.5 182.5,-153.5 252.5,-153.5 252.5,-134.5 182.5,-134.5"/>
<text text-anchor="middle" x="217.5" y="-141.5" font-family="Helvetica,sans-Serif" font-size="10.00">CreatePath</text>
</a>
</g>
</g>
<!-- Node1&#45;&gt;Node5 -->
<g id="edge4" class="edge">
<title>Node1&#45;&gt;Node5</title>
<path fill="none" stroke="midnightblue" d="M122.18,-155.6C138.7,-153.57 156.32,-151.4 171.8,-149.5"/>
<polygon fill="midnightblue" stroke="midnightblue" points="172.64,-152.92 182.14,-148.23 171.79,-145.97 172.64,-152.92"/>
</g>
<!-- Node13 -->
<g id="node13" class="node">
<title>Node13</title>
<g id="a_node13"><a xlink:href="a00390.html#ga884a3374d971261a01ccfd3b21e288e5" target="_top" xlink:title="Delete a path.">
<polygon fill="white" stroke="black" points="179.5,-28.5 179.5,-47.5 255.5,-47.5 255.5,-28.5 179.5,-28.5"/>
<text text-anchor="middle" x="217.5" y="-35.5" font-family="Helvetica,sans-Serif" font-size="10.00">DestroyPath</text>
</a>
</g>
</g>
<!-- Node1&#45;&gt;Node13 -->
<g id="edge13" class="edge">
<title>Node1&#45;&gt;Node13</title>
<path fill="none" stroke="midnightblue" d="M73.46,-153.43C91.39,-138.49 127.22,-108.76 158,-84 170.51,-73.93 184.67,-62.8 195.92,-54"/>
<polygon fill="midnightblue" stroke="midnightblue" points="198.15,-56.7 203.88,-47.79 193.85,-51.18 198.15,-56.7"/>
</g>
<!-- Node15 -->
<g id="node15" class="node">
<title>Node15</title>
<g id="a_node15"><a xlink:href="a00390.html#gaac725d282f4fecd3aba1b3273c26e7e1" target="_top" xlink:title="Get the size of a path">
<polygon fill="white" stroke="black" points="180.5,-93.5 180.5,-112.5 254.5,-112.5 254.5,-93.5 180.5,-93.5"/>
<text text-anchor="middle" x="217.5" y="-100.5" font-family="Helvetica,sans-Serif" font-size="10.00">GetPathInfo</text>
</a>
</g>
</g>
<!-- Node1&#45;&gt;Node15 -->
<g id="edge15" class="edge">
<title>Node1&#45;&gt;Node15</title>
<path fill="none" stroke="midnightblue" d="M86.02,-153.36C105.41,-145.61 133.42,-134.49 158,-125 165.54,-122.09 173.65,-119.01 181.36,-116.1"/>
<polygon fill="midnightblue" stroke="midnightblue" points="182.71,-119.34 190.84,-112.54 180.24,-112.78 182.71,-119.34"/>
</g>
<!-- Node5&#45;&gt;Node4 -->
<g id="edge5" class="edge">
<title>Node5&#45;&gt;Node4</title>
<path fill="none" stroke="midnightblue" d="M250.53,-153.56C259.63,-157.19 269.18,-161.96 277,-168 298.09,-184.31 291.23,-200.6 313,-216 315.14,-217.51 317.37,-218.93 319.68,-220.26"/>
<polygon fill="midnightblue" stroke="midnightblue" points="318.4,-223.54 328.9,-224.98 321.59,-217.31 318.4,-223.54"/>
</g>
<!-- Node6 -->
<g id="node6" class="node">
<title>Node6</title>
<g id="a_node6"><a xlink:href="a02029.html#a3066bac2d76b5c8a28b35a8d1f6ace71" target="_top" xlink:title="Determine if this path has any nodes in it.">
<polygon fill="white" stroke="black" points="331,-176 331,-206 450,-206 450,-176 331,-176"/>
<text text-anchor="start" x="339" y="-194" font-family="Helvetica,sans-Serif" font-size="10.00">HF::SpatialStructures</text>
<text text-anchor="middle" x="390.5" y="-183" font-family="Helvetica,sans-Serif" font-size="10.00">::Path::empty</text>
</a>
</g>
</g>
<!-- Node5&#45;&gt;Node6 -->
<g id="edge6" class="edge">
<title>Node5&#45;&gt;Node6</title>
<path fill="none" stroke="midnightblue" d="M252.69,-153.4C273.43,-159.1 300.56,-166.55 325.18,-173.32"/>
<polygon fill="midnightblue" stroke="midnightblue" points="324.26,-176.7 334.83,-175.97 326.12,-169.95 324.26,-176.7"/>
</g>
<!-- Node7 -->
<g id="node7" class="node">
<title>Node7</title>
<g id="a_node7"><a xlink:href="a00406.html#a47d06b1c4bd84f4d0a7519ea0e96ff02" target="_top" xlink:title="Find a path between points A and B using Dijkstra&#39;s Shortest Path algorithm.">
<polygon fill="white" stroke="black" points="322,-137.5 322,-156.5 459,-156.5 459,-137.5 322,-137.5"/>
<text text-anchor="middle" x="390.5" y="-144.5" font-family="Helvetica,sans-Serif" font-size="10.00">HF::Pathfinding::FindPath</text>
</a>
</g>
</g>
<!-- Node5&#45;&gt;Node7 -->
<g id="edge7" class="edge">
<title>Node5&#45;&gt;Node7</title>
<path fill="none" stroke="midnightblue" d="M252.69,-144.6C269.7,-144.9 291,-145.27 311.69,-145.63"/>
<polygon fill="midnightblue" stroke="midnightblue" points="311.72,-149.14 321.78,-145.81 311.84,-142.14 311.72,-149.14"/>
</g>
<!-- Node11 -->
<g id="node11" class="node">
<title>Node11</title>
<g id="a_node11"><a xlink:href="a02029.html#a942cb49007bbeb5588e2d526c68bdcf9" target="_top" xlink:title="Get a pointer to the path&#39;s underlying path members vector.">
<polygon fill="white" stroke="black" points="331,-88 331,-118 450,-118 450,-88 331,-88"/>
<text text-anchor="start" x="339" y="-106" font-family="Helvetica,sans-Serif" font-size="10.00">HF::SpatialStructures</text>
<text text-anchor="middle" x="390.5" y="-95" font-family="Helvetica,sans-Serif" font-size="10.00">::Path::GetPMPointer</text>
</a>
</g>
</g>
<!-- Node5&#45;&gt;Node11 -->
<g id="edge11" class="edge">
<title>Node5&#45;&gt;Node11</title>
<path fill="none" stroke="midnightblue" d="M252.69,-135.8C272.22,-131.12 297.42,-125.08 320.86,-119.46"/>
<polygon fill="midnightblue" stroke="midnightblue" points="321.86,-122.82 330.77,-117.08 320.23,-116.01 321.86,-122.82"/>
</g>
<!-- Node12 -->
<g id="node12" class="node">
<title>Node12</title>
<g id="a_node12"><a xlink:href="a02029.html#a28f61f0f57b38a5249a11a725d9d692b" target="_top" xlink:title="Determine how many nodes are in this path.">
<polygon fill="white" stroke="black" points="331,-39 331,-69 450,-69 450,-39 331,-39"/>
<text text-anchor="start" x="339" y="-57" font-family="Helvetica,sans-Serif" font-size="10.00">HF::SpatialStructures</text>
<text text-anchor="middle" x="390.5" y="-46" font-family="Helvetica,sans-Serif" font-size="10.00">::Path::size</text>
</a>
</g>
</g>
<!-- Node5&#45;&gt;Node12 -->
<g id="edge12" class="edge">
<title>Node5&#45;&gt;Node12</title>
<path fill="none" stroke="midnightblue" d="M252.78,-134.46C261.13,-131.25 269.74,-127.15 277,-122 297.33,-107.58 292.36,-92.97 313,-79 315.92,-77.02 319.02,-75.19 322.21,-73.5"/>
<polygon fill="midnightblue" stroke="midnightblue" points="323.95,-76.55 331.46,-69.08 320.93,-70.23 323.95,-76.55"/>
</g>
<!-- Node8 -->
<g id="node8" class="node">
<title>Node8</title>
<g id="a_node8"><a xlink:href="a00406.html#a9f6490539108da057db2486295458886" target="_top" xlink:title="Build a row of the distance and predecessor matrices for the node at id.">
<polygon fill="white" stroke="black" points="504,-156 504,-186 667,-186 667,-156 504,-156"/>
<text text-anchor="start" x="512" y="-174" font-family="Helvetica,sans-Serif" font-size="10.00">HF::Pathfinding::BuildDistance</text>
<text text-anchor="middle" x="585.5" y="-163" font-family="Helvetica,sans-Serif" font-size="10.00">AndPredecessor</text>
</a>
</g>
</g>
<!-- Node7&#45;&gt;Node8 -->
<g id="edge8" class="edge">
<title>Node7&#45;&gt;Node8</title>
<path fill="none" stroke="midnightblue" d="M459,-155.39C470.18,-156.78 481.94,-158.25 493.58,-159.69"/>
<polygon fill="midnightblue" stroke="midnightblue" points="493.42,-163.2 503.77,-160.96 494.28,-156.25 493.42,-163.2"/>
</g>
<!-- Node10 -->
<g id="node10" class="node">
<title>Node10</title>
<g id="a_node10"><a xlink:href="a00406.html#a322ac32effd41c99359b82df0890e34a" target="_top" xlink:title="Overload to call this with a distPred instead of the raw arrays.">
<polygon fill="white" stroke="black" points="514.5,-107 514.5,-137 656.5,-137 656.5,-107 514.5,-107"/>
<text text-anchor="start" x="522.5" y="-125" font-family="Helvetica,sans-Serif" font-size="10.00">HF::Pathfinding::Construct</text>
<text text-anchor="middle" x="585.5" y="-114" font-family="Helvetica,sans-Serif" font-size="10.00">ShortestPathFromPred</text>
</a>
</g>
</g>
<!-- Node7&#45;&gt;Node10 -->
<g id="edge10" class="edge">
<title>Node7&#45;&gt;Node10</title>
<path fill="none" stroke="midnightblue" d="M459,-138.26C473.57,-136.37 489.12,-134.35 504.13,-132.41"/>
<polygon fill="midnightblue" stroke="midnightblue" points="504.95,-135.83 514.42,-131.08 504.05,-128.89 504.95,-135.83"/>
</g>
<!-- Node9 -->
<g id="node9" class="node">
<title>Node9</title>
<g id="a_node9"><a xlink:href="a00411.html#acc422c11342b31368f610b6f96fcedc6" target="_top" xlink:title=" ">
<polygon fill="white" stroke="black" points="703,-161.5 703,-180.5 824,-180.5 824,-161.5 703,-161.5"/>
<text text-anchor="middle" x="763.5" y="-168.5" font-family="Helvetica,sans-Serif" font-size="10.00">nlohmann::detail::get</text>
</a>
</g>
</g>
<!-- Node8&#45;&gt;Node9 -->
<g id="edge9" class="edge">
<title>Node8&#45;&gt;Node9</title>
<path fill="none" stroke="midnightblue" d="M667.03,-171C675.59,-171 684.24,-171 692.66,-171"/>
<polygon fill="midnightblue" stroke="midnightblue" points="692.8,-174.5 702.8,-171 692.8,-167.5 692.8,-174.5"/>
</g>
<!-- Node14 -->
<g id="node14" class="node">
<title>Node14</title>
<g id="a_node14"><a xlink:href="a00347.html#a1746287300e1f05c45d84f3837e24557" target="_top" xlink:title="Delete some object pointed to by ptr">
<polygon fill="white" stroke="black" points="349,-0.5 349,-19.5 432,-19.5 432,-0.5 349,-0.5"/>
<text text-anchor="middle" x="390.5" y="-7.5" font-family="Helvetica,sans-Serif" font-size="10.00">DeleteRawPtr</text>
</a>
</g>
</g>
<!-- Node13&#45;&gt;Node14 -->
<g id="edge14" class="edge">
<title>Node13&#45;&gt;Node14</title>
<path fill="none" stroke="midnightblue" d="M255.6,-31.92C279.99,-27.93 312.21,-22.66 338.94,-18.28"/>
<polygon fill="midnightblue" stroke="midnightblue" points="339.58,-21.72 348.88,-16.65 338.45,-14.81 339.58,-21.72"/>
</g>
<!-- Node15&#45;&gt;Node11 -->
<g id="edge16" class="edge">
<title>Node15&#45;&gt;Node11</title>
<path fill="none" stroke="midnightblue" d="M254.76,-103C273.89,-103 298.01,-103 320.54,-103"/>
<polygon fill="midnightblue" stroke="midnightblue" points="320.75,-106.5 330.75,-103 320.75,-99.5 320.75,-106.5"/>
</g>
<!-- Node15&#45;&gt;Node12 -->
<g id="edge17" class="edge">
<title>Node15&#45;&gt;Node12</title>
<path fill="none" stroke="midnightblue" d="M251.88,-93.44C273.34,-87.29 301.88,-79.11 327.41,-71.79"/>
<polygon fill="midnightblue" stroke="midnightblue" points="328.38,-75.16 337.02,-69.04 326.45,-68.43 328.38,-75.16"/>
</g>
</g>
</svg>
