<?xml version="1.0" encoding="UTF-8" standalone="no"?>
<!DOCTYPE svg PUBLIC "-//W3C//DTD SVG 1.1//EN"
 "http://www.w3.org/Graphics/SVG/1.1/DTD/svg11.dtd">
<!-- Generated by graphviz version 2.43.0 (0)
 -->
<!-- Title: HF::VisibilityGraph::AllToAll Pages: 1 -->
<svg width="443pt" height="78pt"
 viewBox="0.00 0.00 443.00 77.50" xmlns="http://www.w3.org/2000/svg" xmlns:xlink="http://www.w3.org/1999/xlink">
<g id="graph0" class="graph" transform="scale(1 1) rotate(0) translate(4 73.5)">
<title>HF::VisibilityGraph::AllToAll</title>
<polygon fill="white" stroke="transparent" points="-4,4 -4,-73.5 439,-73.5 439,4 -4,4"/>
<!-- Node1 -->
<g id="node1" class="node">
<title>Node1</title>
<g id="a_node1"><a xlink:title="Generate a Visibility Graph between every node in a set of nodes in parallel.">
<polygon fill="#bfbfbf" stroke="black" points="328,-17 328,-47 435,-47 435,-17 328,-17"/>
<text text-anchor="start" x="336" y="-35" font-family="Helvetica,sans-Serif" font-size="10.00">HF::VisibilityGraph</text>
<text text-anchor="middle" x="381.5" y="-24" font-family="Helvetica,sans-Serif" font-size="10.00">::AllToAll</text>
</a>
</g>
</g>
<!-- Node2 -->
<g id="node2" class="node">
<title>Node2</title>
<g id="a_node2"><a xlink:href="a00394.html#ga0255e6c4811298e61110adc64c0f8acd" target="_top" xlink:title="Create a new directed visibility graph between all nodes in parameter nodes.">
<polygon fill="white" stroke="black" points="158,-39 158,-69 292,-69 292,-39 158,-39"/>
<text text-anchor="start" x="166" y="-57" font-family="Helvetica,sans-Serif" font-size="10.00">CreateVisibilityGraphAll</text>
<text text-anchor="middle" x="225" y="-46" font-family="Helvetica,sans-Serif" font-size="10.00">ToAll</text>
</a>
</g>
</g>
<!-- Node1&#45;&gt;Node2 -->
<g id="edge1" class="edge">
<title>Node1&#45;&gt;Node2</title>
<path fill="none" stroke="midnightblue" d="M317.66,-40.95C309.26,-42.14 300.62,-43.37 292.16,-44.58"/>
<polygon fill="midnightblue" stroke="midnightblue" points="318.36,-44.38 327.76,-39.51 317.37,-37.45 318.36,-44.38"/>
</g>
<!-- Node4 -->
<g id="node4" class="node">
<title>Node4</title>
<g id="a_node4"><a xlink:href="a00335.html#a498faa46d59cc333132309d698e1688e" target="_top" xlink:title=" ">
<polygon fill="white" stroke="black" points="204.5,-0.5 204.5,-19.5 245.5,-19.5 245.5,-0.5 204.5,-0.5"/>
<text text-anchor="middle" x="225" y="-7.5" font-family="Helvetica,sans-Serif" font-size="10.00">TEST</text>
</a>
</g>
</g>
<!-- Node1&#45;&gt;Node4 -->
<g id="edge3" class="edge">
<title>Node1&#45;&gt;Node4</title>
<path fill="none" stroke="midnightblue" d="M317.63,-23.05C291.82,-19.37 263.8,-15.38 245.63,-12.8"/>
<polygon fill="midnightblue" stroke="midnightblue" points="317.37,-26.55 327.76,-24.49 318.36,-19.62 317.37,-26.55"/>
</g>
<!-- Node3 -->
<g id="node3" class="node">
<title>Node3</title>
<g id="a_node3"><a xlink:href="a00414.html#ab4db31dd49b37ac0eafa29d6cfbed556" target="_top" xlink:title=" ">
<polygon fill="white" stroke="black" points="0,-44.5 0,-63.5 122,-63.5 122,-44.5 0,-44.5"/>
<text text-anchor="middle" x="61" y="-51.5" font-family="Helvetica,sans-Serif" font-size="10.00">CInterfaceTests::TEST</text>
</a>
</g>
</g>
<!-- Node2&#45;&gt;Node3 -->
<g id="edge2" class="edge">
<title>Node2&#45;&gt;Node3</title>
<path fill="none" stroke="midnightblue" d="M147.61,-54C139.02,-54 130.36,-54 122.01,-54"/>
<polygon fill="midnightblue" stroke="midnightblue" points="147.64,-57.5 157.64,-54 147.64,-50.5 147.64,-57.5"/>
</g>
</g>
</svg>
