<?xml version="1.0" encoding="UTF-8" standalone="no"?>
<!DOCTYPE svg PUBLIC "-//W3C//DTD SVG 1.1//EN"
 "http://www.w3.org/Graphics/SVG/1.1/DTD/svg11.dtd">
<!-- Generated by graphviz version 7.0.2 (20221119.0110)
 -->
<!-- Title: HF::Geometry::LoadTMPMeshObjects Pages: 1 -->
<svg width="517pt" height="64pt"
 viewBox="0.00 0.00 517.00 64.00" xmlns="http://www.w3.org/2000/svg" xmlns:xlink="http://www.w3.org/1999/xlink">
<g id="graph0" class="graph" transform="scale(1 1) rotate(0) translate(4 60)">
<title>HF::Geometry::LoadTMPMeshObjects</title>
<!-- Node1 -->
<g id="node1" class="node">
<title>Node1</title>
<g id="a_node1"><a xlink:title=" ">
<polygon fill="#999999" stroke="#666666" points="149,-42.5 0,-42.5 0,-12.5 149,-12.5 149,-42.5"/>
<text text-anchor="start" x="8" y="-30.5" font-family="Helvetica,sans-Serif" font-size="10.00">HF::Geometry::LoadTMPMesh</text>
<text text-anchor="middle" x="74.5" y="-19.5" font-family="Helvetica,sans-Serif" font-size="10.00">Objects</text>
</a>
</g>
</g>
<!-- Node2 -->
<g id="node2" class="node">
<title>Node2</title>
<g id="a_node2"><a xlink:href="a00403.html#a9bbdc23c626ed431d5a084722c22f99f" target="_top" xlink:title=" ">
<polygon fill="white" stroke="#666666" points="325,-42.5 185,-42.5 185,-12.5 325,-12.5 325,-42.5"/>
<text text-anchor="start" x="193" y="-30.5" font-family="Helvetica,sans-Serif" font-size="10.00">HF::Geometry::LoadMeshes</text>
<text text-anchor="middle" x="255" y="-19.5" font-family="Helvetica,sans-Serif" font-size="10.00">FromTinyOBJ</text>
</a>
</g>
</g>
<!-- Node1&#45;&gt;Node2 -->
<g id="edge1" class="edge">
<title>Node1&#45;&gt;Node2</title>
<path fill="none" stroke="#63b8ff" d="M149.39,-27.5C157.34,-27.5 165.47,-27.5 173.49,-27.5"/>
<polygon fill="#63b8ff" stroke="#63b8ff" points="173.23,-31 183.23,-27.5 173.23,-24 173.23,-31"/>
</g>
<!-- Node3 -->
<g id="node3" class="node">
<title>Node3</title>
<g id="a_node3"><a xlink:href="a00403.html#aece9b1559429cfcd59fc5c60bc3dc5b1" target="_top" xlink:title=" ">
<polygon fill="white" stroke="#666666" points="506.5,-56 363.5,-56 363.5,-37 506.5,-37 506.5,-56"/>
<text text-anchor="middle" x="435" y="-44" font-family="Helvetica,sans-Serif" font-size="10.00">HF::Geometry::CreateReader</text>
</a>
</g>
</g>
<!-- Node2&#45;&gt;Node3 -->
<g id="edge2" class="edge">
<title>Node2&#45;&gt;Node3</title>
<path fill="none" stroke="#63b8ff" d="M325.33,-34.9C334.05,-35.83 343.03,-36.79 351.92,-37.74"/>
<polygon fill="#63b8ff" stroke="#63b8ff" points="351.28,-41.19 361.6,-38.77 352.02,-34.23 351.28,-41.19"/>
</g>
<!-- Node4 -->
<g id="node4" class="node">
<title>Node4</title>
<g id="a_node4"><a xlink:href="a00403.html#abc6b7e5052eb1564d1bb3c67d9f93031" target="_top" xlink:title=" ">
<polygon fill="white" stroke="#666666" points="509,-19 361,-19 361,0 509,0 509,-19"/>
<text text-anchor="middle" x="435" y="-7" font-family="Helvetica,sans-Serif" font-size="10.00">HF::Geometry::MakeMaterials</text>
</a>
</g>
</g>
<!-- Node2&#45;&gt;Node4 -->
<g id="edge3" class="edge">
<title>Node2&#45;&gt;Node4</title>
<path fill="none" stroke="#63b8ff" d="M325.33,-20.49C333.22,-19.69 341.34,-18.87 349.4,-18.05"/>
<polygon fill="#63b8ff" stroke="#63b8ff" points="349.64,-21.55 359.24,-17.06 348.94,-14.58 349.64,-21.55"/>
</g>
</g>
</svg>
