<?xml version="1.0" encoding="UTF-8" standalone="no"?>
<!DOCTYPE svg PUBLIC "-//W3C//DTD SVG 1.1//EN"
 "http://www.w3.org/Graphics/SVG/1.1/DTD/svg11.dtd">
<!-- Generated by graphviz version 7.0.1 (20221109.1506)
 -->
<!-- Title: nanort::vnormalize Pages: 1 -->
<svg width="337pt" height="101pt"
 viewBox="0.00 0.00 337.00 101.00" xmlns="http://www.w3.org/2000/svg" xmlns:xlink="http://www.w3.org/1999/xlink">
<g id="graph0" class="graph" transform="scale(1 1) rotate(0) translate(4 97)">
<title>nanort::vnormalize</title>
<!-- Node1 -->
<g id="node1" class="node">
<title>Node1</title>
<g id="a_node1"><a xlink:title=" ">
<polygon fill="#999999" stroke="#666666" points="95,-56 0,-56 0,-37 95,-37 95,-56"/>
<text text-anchor="middle" x="47.5" y="-44" font-family="Helvetica,sans-Serif" font-size="10.00">nanort::vnormalize</text>
</a>
</g>
</g>
<!-- Node2 -->
<g id="node2" class="node">
<title>Node2</title>
<g id="a_node2"><a xlink:href="a00408.html#ab9ba72d8d5e11d213c39ce9bd8e851ef" target="_top" xlink:title=" ">
<polygon fill="white" stroke="#666666" points="211,-56 131,-56 131,-37 211,-37 211,-56"/>
<text text-anchor="middle" x="171" y="-44" font-family="Helvetica,sans-Serif" font-size="10.00">nanort::vlength</text>
</a>
</g>
</g>
<!-- Node1&#45;&gt;Node2 -->
<g id="edge1" class="edge">
<title>Node1&#45;&gt;Node2</title>
<path fill="none" stroke="#63b8ff" d="M95.48,-46.5C103.28,-46.5 111.41,-46.5 119.3,-46.5"/>
<polygon fill="#63b8ff" stroke="#63b8ff" points="119.12,-50 129.12,-46.5 119.12,-43 119.12,-50"/>
</g>
<!-- Node3 -->
<g id="node3" class="node">
<title>Node3</title>
<g id="a_node3"><a xlink:href="a01377.html#a245ee0e429d5695c33ea29ccbe1792ec" target="_top" xlink:title=" ">
<polygon fill="white" stroke="#666666" points="329,-93 247,-93 247,-74 329,-74 329,-93"/>
<text text-anchor="middle" x="288" y="-81" font-family="Helvetica,sans-Serif" font-size="10.00">nanort::real3::x</text>
</a>
</g>
</g>
<!-- Node2&#45;&gt;Node3 -->
<g id="edge2" class="edge">
<title>Node2&#45;&gt;Node3</title>
<path fill="none" stroke="#63b8ff" d="M202.82,-56.42C215.84,-60.6 231.2,-65.55 245.22,-70.06"/>
<polygon fill="#63b8ff" stroke="#63b8ff" points="244.06,-73.36 254.66,-73.09 246.21,-66.7 244.06,-73.36"/>
</g>
<!-- Node4 -->
<g id="node4" class="node">
<title>Node4</title>
<g id="a_node4"><a xlink:href="a01377.html#af92059bf1d44c9bf67c90ca2d46be17e" target="_top" xlink:title=" ">
<polygon fill="white" stroke="#666666" points="329,-56 247,-56 247,-37 329,-37 329,-56"/>
<text text-anchor="middle" x="288" y="-44" font-family="Helvetica,sans-Serif" font-size="10.00">nanort::real3::y</text>
</a>
</g>
</g>
<!-- Node2&#45;&gt;Node4 -->
<g id="edge3" class="edge">
<title>Node2&#45;&gt;Node4</title>
<path fill="none" stroke="#63b8ff" d="M211.25,-46.5C219.04,-46.5 227.32,-46.5 235.44,-46.5"/>
<polygon fill="#63b8ff" stroke="#63b8ff" points="235.23,-50 245.23,-46.5 235.23,-43 235.23,-50"/>
</g>
<!-- Node5 -->
<g id="node5" class="node">
<title>Node5</title>
<g id="a_node5"><a xlink:href="a01377.html#a96d4a74ac8a453a85c5661d38d3003d1" target="_top" xlink:title=" ">
<polygon fill="white" stroke="#666666" points="329,-19 247,-19 247,0 329,0 329,-19"/>
<text text-anchor="middle" x="288" y="-7" font-family="Helvetica,sans-Serif" font-size="10.00">nanort::real3::z</text>
</a>
</g>
</g>
<!-- Node2&#45;&gt;Node5 -->
<g id="edge4" class="edge">
<title>Node2&#45;&gt;Node5</title>
<path fill="none" stroke="#63b8ff" d="M202.82,-36.58C215.84,-32.4 231.2,-27.45 245.22,-22.94"/>
<polygon fill="#63b8ff" stroke="#63b8ff" points="246.21,-26.3 254.66,-19.91 244.06,-19.64 246.21,-26.3"/>
</g>
</g>
</svg>
