<?xml version="1.0" encoding="UTF-8" standalone="no"?>
<!DOCTYPE svg PUBLIC "-//W3C//DTD SVG 1.1//EN"
 "http://www.w3.org/Graphics/SVG/1.1/DTD/svg11.dtd">
<!-- Generated by graphviz version 7.0.2 (20221119.0110)
 -->
<!-- Title: nanort::IntersectRayAABB&lt; double &gt; Pages: 1 -->
<svg width="261pt" height="64pt"
 viewBox="0.00 0.00 261.00 64.00" xmlns="http://www.w3.org/2000/svg" xmlns:xlink="http://www.w3.org/1999/xlink">
<g id="graph0" class="graph" transform="scale(1 1) rotate(0) translate(4 60)">
<title>nanort::IntersectRayAABB&lt; double &gt;</title>
<!-- Node1 -->
<g id="node1" class="node">
<title>Node1</title>
<g id="a_node1"><a xlink:title=" ">
<polygon fill="#999999" stroke="#666666" points="131,-42.5 0,-42.5 0,-12.5 131,-12.5 131,-42.5"/>
<text text-anchor="start" x="8" y="-30.5" font-family="Helvetica,sans-Serif" font-size="10.00">nanort::IntersectRayAABB</text>
<text text-anchor="middle" x="65.5" y="-19.5" font-family="Helvetica,sans-Serif" font-size="10.00">&lt; double &gt;</text>
</a>
</g>
</g>
<!-- Node2 -->
<g id="node2" class="node">
<title>Node2</title>
<g id="a_node2"><a xlink:href="a00408.html#a3253537ad2f0cdbca3f1b418007a1736" target="_top" xlink:title=" ">
<polygon fill="white" stroke="#666666" points="253,-56 167,-56 167,-37 253,-37 253,-56"/>
<text text-anchor="middle" x="210" y="-44" font-family="Helvetica,sans-Serif" font-size="10.00">nanort::safemax</text>
</a>
</g>
</g>
<!-- Node1&#45;&gt;Node2 -->
<g id="edge1" class="edge">
<title>Node1&#45;&gt;Node2</title>
<path fill="none" stroke="#63b8ff" d="M131.49,-36.17C139.48,-37.23 147.58,-38.31 155.37,-39.35"/>
<polygon fill="#63b8ff" stroke="#63b8ff" points="154.66,-42.79 165.03,-40.64 155.58,-35.85 154.66,-42.79"/>
</g>
<!-- Node3 -->
<g id="node3" class="node">
<title>Node3</title>
<g id="a_node3"><a xlink:href="a00408.html#a319aa74b4c12ff9ad2a2ea634d0d4397" target="_top" xlink:title=" ">
<polygon fill="white" stroke="#666666" points="251.5,-19 168.5,-19 168.5,0 251.5,0 251.5,-19"/>
<text text-anchor="middle" x="210" y="-7" font-family="Helvetica,sans-Serif" font-size="10.00">nanort::safemin</text>
</a>
</g>
</g>
<!-- Node1&#45;&gt;Node3 -->
<g id="edge2" class="edge">
<title>Node1&#45;&gt;Node3</title>
<path fill="none" stroke="#63b8ff" d="M131.49,-19.29C139.98,-18.22 148.58,-17.13 156.81,-16.09"/>
<polygon fill="#63b8ff" stroke="#63b8ff" points="157.17,-19.57 166.66,-14.85 156.3,-12.63 157.17,-19.57"/>
</g>
</g>
</svg>
