<?xml version="1.0" encoding="UTF-8" standalone="no"?>
<!DOCTYPE svg PUBLIC "-//W3C//DTD SVG 1.1//EN"
 "http://www.w3.org/Graphics/SVG/1.1/DTD/svg11.dtd">
<!-- Generated by graphviz version 2.43.0 (0)
 -->
<!-- Title: CInterfaceTests::TEST Pages: 1 -->
<svg width="1181pt" height="290pt"
 viewBox="0.00 0.00 1181.00 290.00" xmlns="http://www.w3.org/2000/svg" xmlns:xlink="http://www.w3.org/1999/xlink">
<g id="graph0" class="graph" transform="scale(1 1) rotate(0) translate(4 286)">
<title>CInterfaceTests::TEST</title>
<polygon fill="white" stroke="transparent" points="-4,4 -4,-286 1177,-286 1177,4 -4,4"/>
<!-- Node1 -->
<g id="node1" class="node">
<title>Node1</title>
<g id="a_node1"><a xlink:title=" ">
<polygon fill="#bfbfbf" stroke="black" points="0,-186.5 0,-205.5 122,-205.5 122,-186.5 0,-186.5"/>
<text text-anchor="middle" x="61" y="-193.5" font-family="Helvetica,sans-Serif" font-size="10.00">CInterfaceTests::TEST</text>
</a>
</g>
</g>
<!-- Node2 -->
<g id="node2" class="node">
<title>Node2</title>
<g id="a_node2"><a xlink:href="a00391.html#ga3ac702d080e493d1fa8be6cf4243e38b" target="_top" xlink:title="Create a new raytracer using several meshes.">
<polygon fill="white" stroke="black" points="211,-262.5 211,-281.5 307,-281.5 307,-262.5 211,-262.5"/>
<text text-anchor="middle" x="259" y="-269.5" font-family="Helvetica,sans-Serif" font-size="10.00">CreateRaytracer</text>
</a>
</g>
</g>
<!-- Node1&#45;&gt;Node2 -->
<g id="edge1" class="edge">
<title>Node1&#45;&gt;Node2</title>
<path fill="none" stroke="midnightblue" d="M74.92,-205.68C92.68,-218.51 126.09,-240.93 158,-253 171.43,-258.08 186.42,-261.85 200.61,-264.63"/>
<polygon fill="midnightblue" stroke="midnightblue" points="200.31,-268.14 210.77,-266.49 201.56,-261.25 200.31,-268.14"/>
</g>
<!-- Node3 -->
<g id="node3" class="node">
<title>Node3</title>
<g id="a_node3"><a xlink:href="a00389.html#ga0ef9f7e63f067546b527947d4678dcd5" target="_top" xlink:title="Free the memory addressed by mesh_to_destroy, which was allocated by either LoadOBJ or StoreMesh.">
<polygon fill="white" stroke="black" points="209,-224.5 209,-243.5 309,-243.5 309,-224.5 209,-224.5"/>
<text text-anchor="middle" x="259" y="-231.5" font-family="Helvetica,sans-Serif" font-size="10.00">DestroyMeshInfo</text>
</a>
</g>
</g>
<!-- Node1&#45;&gt;Node3 -->
<g id="edge2" class="edge">
<title>Node1&#45;&gt;Node3</title>
<path fill="none" stroke="midnightblue" d="M109.84,-205.54C125.21,-208.59 142.32,-211.96 158,-215 171.2,-217.56 185.39,-220.28 198.82,-222.83"/>
<polygon fill="midnightblue" stroke="midnightblue" points="198.43,-226.32 208.9,-224.75 199.73,-219.44 198.43,-226.32"/>
</g>
<!-- Node5 -->
<g id="node5" class="node">
<title>Node5</title>
<g id="a_node5"><a xlink:href="a00391.html#gac7ff0b75adf7d24754a702f09d5bcf07" target="_top" xlink:title="Delete an existing raytracer.">
<polygon fill="white" stroke="black" points="207.5,-186.5 207.5,-205.5 310.5,-205.5 310.5,-186.5 207.5,-186.5"/>
<text text-anchor="middle" x="259" y="-193.5" font-family="Helvetica,sans-Serif" font-size="10.00">DestroyRayTracer</text>
</a>
</g>
</g>
<!-- Node1&#45;&gt;Node5 -->
<g id="edge4" class="edge">
<title>Node1&#45;&gt;Node5</title>
<path fill="none" stroke="midnightblue" d="M122.14,-196C145.97,-196 173.32,-196 197.21,-196"/>
<polygon fill="midnightblue" stroke="midnightblue" points="197.22,-199.5 207.22,-196 197.22,-192.5 197.22,-199.5"/>
</g>
<!-- Node6 -->
<g id="node6" class="node">
<title>Node6</title>
<g id="a_node6"><a xlink:href="a00389.html#ga0805e80d13b29aeddc35f0bcf3f16a1a" target="_top" xlink:title="Load an obj from the given path then rotate it by x,y, and z.">
<polygon fill="white" stroke="black" points="230.5,-148.5 230.5,-167.5 287.5,-167.5 287.5,-148.5 230.5,-148.5"/>
<text text-anchor="middle" x="259" y="-155.5" font-family="Helvetica,sans-Serif" font-size="10.00">LoadOBJ</text>
</a>
</g>
</g>
<!-- Node1&#45;&gt;Node6 -->
<g id="edge5" class="edge">
<title>Node1&#45;&gt;Node6</title>
<path fill="none" stroke="midnightblue" d="M109.84,-186.46C125.21,-183.41 142.32,-180.04 158,-177 178.64,-173 201.69,-168.61 220.46,-165.06"/>
<polygon fill="midnightblue" stroke="midnightblue" points="221.22,-168.48 230.4,-163.19 219.92,-161.6 221.22,-168.48"/>
</g>
<!-- Node10 -->
<g id="node10" class="node">
<title>Node10</title>
<g id="a_node10"><a xlink:href="a00393.html#gaa4c5714c1e557ef83a03d447eb30c6d0" target="_top" xlink:title="Conduct view analysis, and aggregate the results.">
<polygon fill="white" stroke="black" points="158,-110.5 158,-129.5 360,-129.5 360,-110.5 158,-110.5"/>
<text text-anchor="middle" x="259" y="-117.5" font-family="Helvetica,sans-Serif" font-size="10.00">SphereicalViewAnalysisAggregateFlat</text>
</a>
</g>
</g>
<!-- Node1&#45;&gt;Node10 -->
<g id="edge9" class="edge">
<title>Node1&#45;&gt;Node10</title>
<path fill="none" stroke="midnightblue" d="M74.92,-186.32C92.68,-173.49 126.09,-151.07 158,-139 165.21,-136.27 172.86,-133.92 180.59,-131.9"/>
<polygon fill="midnightblue" stroke="midnightblue" points="181.52,-135.28 190.41,-129.52 179.87,-128.48 181.52,-135.28"/>
</g>
<!-- Node4 -->
<g id="node4" class="node">
<title>Node4</title>
<g id="a_node4"><a xlink:href="a00347.html#a1746287300e1f05c45d84f3837e24557" target="_top" xlink:title="Delete some object pointed to by ptr">
<polygon fill="white" stroke="black" points="442.5,-224.5 442.5,-243.5 525.5,-243.5 525.5,-224.5 442.5,-224.5"/>
<text text-anchor="middle" x="484" y="-231.5" font-family="Helvetica,sans-Serif" font-size="10.00">DeleteRawPtr</text>
</a>
</g>
</g>
<!-- Node3&#45;&gt;Node4 -->
<g id="edge3" class="edge">
<title>Node3&#45;&gt;Node4</title>
<path fill="none" stroke="midnightblue" d="M309.21,-234C345.79,-234 395.54,-234 432.44,-234"/>
<polygon fill="midnightblue" stroke="midnightblue" points="432.48,-237.5 442.48,-234 432.48,-230.5 432.48,-237.5"/>
</g>
<!-- Node7 -->
<g id="node7" class="node">
<title>Node7</title>
<g id="a_node7"><a xlink:href="a00389.html#gaa07792b399e76e6101388bb6bbb96047" target="_top" xlink:title="Get the ID of a mesh.">
<polygon fill="white" stroke="black" points="448.5,-186.5 448.5,-205.5 519.5,-205.5 519.5,-186.5 448.5,-186.5"/>
<text text-anchor="middle" x="484" y="-193.5" font-family="Helvetica,sans-Serif" font-size="10.00">GetMeshID</text>
</a>
</g>
</g>
<!-- Node6&#45;&gt;Node7 -->
<g id="edge6" class="edge">
<title>Node6&#45;&gt;Node7</title>
<path fill="none" stroke="midnightblue" d="M287.79,-162.74C325.49,-169.16 393.26,-180.71 438.19,-188.36"/>
<polygon fill="midnightblue" stroke="midnightblue" points="437.81,-191.85 448.25,-190.08 438.98,-184.95 437.81,-191.85"/>
</g>
<!-- Node8 -->
<g id="node8" class="node">
<title>Node8</title>
<g id="a_node8"><a xlink:href="a00403.html#a06c0c11adb62f8b204e42f75ac1990ac" target="_top" xlink:title="Create MeshInfo instances from the OBJ at path.">
<polygon fill="white" stroke="black" points="396,-148.5 396,-167.5 572,-167.5 572,-148.5 396,-148.5"/>
<text text-anchor="middle" x="484" y="-155.5" font-family="Helvetica,sans-Serif" font-size="10.00">HF::Geometry::LoadMeshObjects</text>
</a>
</g>
</g>
<!-- Node6&#45;&gt;Node8 -->
<g id="edge7" class="edge">
<title>Node6&#45;&gt;Node8</title>
<path fill="none" stroke="midnightblue" d="M287.79,-158C312.34,-158 349.64,-158 385.09,-158"/>
<polygon fill="midnightblue" stroke="midnightblue" points="385.52,-161.5 395.52,-158 385.52,-154.5 385.52,-161.5"/>
</g>
<!-- Node9 -->
<g id="node9" class="node">
<title>Node9</title>
<g id="a_node9"><a xlink:href="a00403.html#a4f0c57b862a0826821217d8c3ac849c4" target="_top" xlink:title=" ">
<polygon fill="white" stroke="black" points="620,-148.5 620,-167.5 754,-167.5 754,-148.5 620,-148.5"/>
<text text-anchor="middle" x="687" y="-155.5" font-family="Helvetica,sans-Serif" font-size="10.00">HF::Geometry::MeshInfo</text>
</a>
</g>
</g>
<!-- Node8&#45;&gt;Node9 -->
<g id="edge8" class="edge">
<title>Node8&#45;&gt;Node9</title>
<path fill="none" stroke="midnightblue" d="M572.28,-158C584.78,-158 597.56,-158 609.82,-158"/>
<polygon fill="midnightblue" stroke="midnightblue" points="609.98,-161.5 619.98,-158 609.98,-154.5 609.98,-161.5"/>
</g>
<!-- Node11 -->
<g id="node11" class="node">
<title>Node11</title>
<g id="a_node11"><a xlink:href="a00179.html#a2f5650b0bad6c47aa34fc2206433a34b" target="_top" xlink:title="Convert a raw array from an external caller to an organized vector of points">
<polygon fill="white" stroke="black" points="400.5,-110.5 400.5,-129.5 567.5,-129.5 567.5,-110.5 400.5,-110.5"/>
<text text-anchor="middle" x="484" y="-117.5" font-family="Helvetica,sans-Serif" font-size="10.00">ConvertRawFloatArrayToPoints</text>
</a>
</g>
</g>
<!-- Node10&#45;&gt;Node11 -->
<g id="edge10" class="edge">
<title>Node10&#45;&gt;Node11</title>
<path fill="none" stroke="midnightblue" d="M360.08,-120C370.05,-120 380.14,-120 390.04,-120"/>
<polygon fill="midnightblue" stroke="midnightblue" points="390.26,-123.5 400.26,-120 390.26,-116.5 390.26,-123.5"/>
</g>
<!-- Node12 -->
<g id="node12" class="node">
<title>Node12</title>
<g id="a_node12"><a xlink:href="a00393.html#gad2ee55f78e191d1ff90e083ad49dc49e" target="_top" xlink:title="Conduct view analysis and recieve a summarized set of results for each node.">
<polygon fill="white" stroke="black" points="397.5,-61 397.5,-91 570.5,-91 570.5,-61 397.5,-61"/>
<text text-anchor="start" x="405.5" y="-79" font-family="Helvetica,sans-Serif" font-size="10.00">HF::ViewAnalysis::Spherical</text>
<text text-anchor="middle" x="484" y="-68" font-family="Helvetica,sans-Serif" font-size="10.00">RayshootWithAnyRTForDistance</text>
</a>
</g>
</g>
<!-- Node10&#45;&gt;Node12 -->
<g id="edge11" class="edge">
<title>Node10&#45;&gt;Node12</title>
<path fill="none" stroke="midnightblue" d="M308.39,-110.45C334.17,-105.37 366.66,-98.96 396.6,-93.05"/>
<polygon fill="midnightblue" stroke="midnightblue" points="397.51,-96.44 406.65,-91.07 396.16,-89.57 397.51,-96.44"/>
</g>
<!-- Node13 -->
<g id="node13" class="node">
<title>Node13</title>
<g id="a_node13"><a xlink:href="a00400.html#a38c197b654c753cb656ab60e88d65120" target="_top" xlink:title=" ">
<polygon fill="white" stroke="black" points="608.5,-88.5 608.5,-107.5 765.5,-107.5 765.5,-88.5 608.5,-88.5"/>
<text text-anchor="middle" x="687" y="-95.5" font-family="Helvetica,sans-Serif" font-size="10.00">HF::ViewAnalysis::Aggregate</text>
</a>
</g>
</g>
<!-- Node12&#45;&gt;Node13 -->
<g id="edge12" class="edge">
<title>Node12&#45;&gt;Node13</title>
<path fill="none" stroke="midnightblue" d="M570.53,-85.36C579.62,-86.36 588.87,-87.37 597.98,-88.37"/>
<polygon fill="midnightblue" stroke="midnightblue" points="597.87,-91.87 608.19,-89.48 598.63,-84.92 597.87,-91.87"/>
</g>
<!-- Node14 -->
<g id="node14" class="node">
<title>Node14</title>
<g id="a_node14"><a xlink:href="a00393.html#ga6ca336e3887ef82d17b0713c2bf862df" target="_top" xlink:title="Evenly distribute a set of points around a sphere centered at the origin.">
<polygon fill="white" stroke="black" points="608,-39 608,-69 766,-69 766,-39 608,-39"/>
<text text-anchor="start" x="616" y="-57" font-family="Helvetica,sans-Serif" font-size="10.00">HF::ViewAnalysis::Fibbonacci</text>
<text text-anchor="middle" x="687" y="-46" font-family="Helvetica,sans-Serif" font-size="10.00">DistributePoints</text>
</a>
</g>
</g>
<!-- Node12&#45;&gt;Node14 -->
<g id="edge13" class="edge">
<title>Node12&#45;&gt;Node14</title>
<path fill="none" stroke="midnightblue" d="M570.53,-66.64C579.54,-65.65 588.71,-64.65 597.74,-63.66"/>
<polygon fill="midnightblue" stroke="midnightblue" points="598.31,-67.12 607.87,-62.55 597.55,-60.16 598.31,-67.12"/>
</g>
<!-- Node15 -->
<g id="node15" class="node">
<title>Node15</title>
<g id="a_node15"><a xlink:href="a00400.html#ad171585ac55c35e394e26a2f80364a0f" target="_top" xlink:title=" ">
<polygon fill="white" stroke="black" points="802,-44.5 802,-63.5 980,-63.5 980,-44.5 802,-44.5"/>
<text text-anchor="middle" x="891" y="-51.5" font-family="Helvetica,sans-Serif" font-size="10.00">HF::ViewAnalysis::FibbonacciDist</text>
</a>
</g>
</g>
<!-- Node14&#45;&gt;Node15 -->
<g id="edge14" class="edge">
<title>Node14&#45;&gt;Node15</title>
<path fill="none" stroke="midnightblue" d="M766.1,-54C774.48,-54 783.08,-54 791.65,-54"/>
<polygon fill="midnightblue" stroke="midnightblue" points="791.69,-57.5 801.69,-54 791.69,-50.5 791.69,-57.5"/>
</g>
<!-- Node16 -->
<g id="node16" class="node">
<title>Node16</title>
<g id="a_node16"><a xlink:href="a00400.html#a94327f2628a43ffe3dc4ab854e8aa20d" target="_top" xlink:title=" ">
<polygon fill="white" stroke="black" points="1022,-88 1022,-118 1167,-118 1167,-88 1022,-88"/>
<text text-anchor="start" x="1030" y="-106" font-family="Helvetica,sans-Serif" font-size="10.00">HF::ViewAnalysis::Altitude</text>
<text text-anchor="middle" x="1094.5" y="-95" font-family="Helvetica,sans-Serif" font-size="10.00">WithinRange</text>
</a>
</g>
</g>
<!-- Node15&#45;&gt;Node16 -->
<g id="edge15" class="edge">
<title>Node15&#45;&gt;Node16</title>
<path fill="none" stroke="midnightblue" d="M931.33,-63.56C957.06,-69.82 991.44,-78.18 1021.92,-85.59"/>
<polygon fill="midnightblue" stroke="midnightblue" points="1021.12,-89 1031.66,-87.96 1022.77,-82.2 1021.12,-89"/>
</g>
<!-- Node17 -->
<g id="node17" class="node">
<title>Node17</title>
<g id="a_node17"><a xlink:href="a00400.html#a9dcf81751f63f5c7356a4f45159184bb" target="_top" xlink:title="Convert a number from degrees to radians.">
<polygon fill="white" stroke="black" points="1022,-39 1022,-69 1167,-69 1167,-39 1022,-39"/>
<text text-anchor="start" x="1030" y="-57" font-family="Helvetica,sans-Serif" font-size="10.00">HF::ViewAnalysis::Convert</text>
<text text-anchor="middle" x="1094.5" y="-46" font-family="Helvetica,sans-Serif" font-size="10.00">ToRadians</text>
</a>
</g>
</g>
<!-- Node15&#45;&gt;Node17 -->
<g id="edge16" class="edge">
<title>Node15&#45;&gt;Node17</title>
<path fill="none" stroke="midnightblue" d="M980.09,-54C990.57,-54 1001.24,-54 1011.63,-54"/>
<polygon fill="midnightblue" stroke="midnightblue" points="1011.92,-57.5 1021.92,-54 1011.92,-50.5 1011.92,-57.5"/>
</g>
<!-- Node18 -->
<g id="node18" class="node">
<title>Node18</title>
<g id="a_node18"><a xlink:href="a00400.html#a38ed3d26d2fcc4bde1790c53eda3945a" target="_top" xlink:title="Normalize a vector.">
<polygon fill="white" stroke="black" points="1016,-0.5 1016,-19.5 1173,-19.5 1173,-0.5 1016,-0.5"/>
<text text-anchor="middle" x="1094.5" y="-7.5" font-family="Helvetica,sans-Serif" font-size="10.00">HF::ViewAnalysis::Normalize</text>
</a>
</g>
</g>
<!-- Node15&#45;&gt;Node18 -->
<g id="edge17" class="edge">
<title>Node15&#45;&gt;Node18</title>
<path fill="none" stroke="midnightblue" d="M935.72,-44.45C966.35,-37.76 1007.47,-28.79 1040.05,-21.67"/>
<polygon fill="midnightblue" stroke="midnightblue" points="1040.84,-25.08 1049.86,-19.53 1039.35,-18.24 1040.84,-25.08"/>
</g>
</g>
</svg>
