<?xml version="1.0" encoding="UTF-8" standalone="no"?>
<!DOCTYPE svg PUBLIC "-//W3C//DTD SVG 1.1//EN"
 "http://www.w3.org/Graphics/SVG/1.1/DTD/svg11.dtd">
<!-- Generated by graphviz version 5.0.0 (20220707.1540)
 -->
<!-- Title: HF::VisibilityGraph::IsOcclusionBetween Pages: 1 -->
<svg width="427pt" height="137pt"
 viewBox="0.00 0.00 427.00 137.00" xmlns="http://www.w3.org/2000/svg" xmlns:xlink="http://www.w3.org/1999/xlink">
<g id="graph0" class="graph" transform="scale(1 1) rotate(0) translate(4 133)">
<title>HF::VisibilityGraph::IsOcclusionBetween</title>
<polygon fill="white" stroke="transparent" points="-4,4 -4,-133 423,-133 423,4 -4,4"/>
<!-- Node1 -->
<g id="node1" class="node">
<title>Node1</title>
<g id="a_node1"><a xlink:title="Perform a line of sight check between two nodes.">
<polygon fill="#bfbfbf" stroke="black" points="308,-49.5 308,-79.5 419,-79.5 419,-49.5 308,-49.5"/>
<text text-anchor="start" x="316" y="-67.5" font-family="Helvetica,sans-Serif" font-size="10.00">HF::VisibilityGraph</text>
<text text-anchor="middle" x="363.5" y="-56.5" font-family="Helvetica,sans-Serif" font-size="10.00">::IsOcclusionBetween</text>
</a>
</g>
</g>
<!-- Node2 -->
<g id="node2" class="node">
<title>Node2</title>
<g id="a_node2"><a xlink:href="a00401.html#a12eb1e4c06400c4625cd22d925927b03" target="_top" xlink:title="Generate a Visibility Graph between every node in a set of nodes in parallel.">
<polygon fill="white" stroke="black" points="172,-98.5 172,-128.5 270,-128.5 270,-98.5 172,-98.5"/>
<text text-anchor="start" x="180" y="-116.5" font-family="Helvetica,sans-Serif" font-size="10.00">HF::VisibilityGraph</text>
<text text-anchor="middle" x="221" y="-105.5" font-family="Helvetica,sans-Serif" font-size="10.00">::AllToAll</text>
</a>
</g>
</g>
<!-- Node1&#45;&gt;Node2 -->
<g id="edge1" class="edge">
<title>Node1&#45;&gt;Node2</title>
<path fill="none" stroke="midnightblue" d="M309.35,-83.04C294.84,-88.1 279.3,-93.52 265.4,-98.36"/>
<polygon fill="midnightblue" stroke="midnightblue" points="310.91,-86.2 319.2,-79.6 308.6,-79.59 310.91,-86.2"/>
</g>
<!-- Node4 -->
<g id="node4" class="node">
<title>Node4</title>
<g id="a_node4"><a xlink:href="a00401.html#ab1db87927118f70786a664c3b3cc7905" target="_top" xlink:title="Generate a Visibility Graph with every edge stored twice.">
<polygon fill="white" stroke="black" points="170,-49.5 170,-79.5 272,-79.5 272,-49.5 170,-49.5"/>
<text text-anchor="start" x="178" y="-67.5" font-family="Helvetica,sans-Serif" font-size="10.00">HF::VisibilityGraph</text>
<text text-anchor="middle" x="221" y="-56.5" font-family="Helvetica,sans-Serif" font-size="10.00">::AllToAllUndirected</text>
</a>
</g>
</g>
<!-- Node1&#45;&gt;Node4 -->
<g id="edge3" class="edge">
<title>Node1&#45;&gt;Node4</title>
<path fill="none" stroke="midnightblue" d="M297.5,-64.5C289.01,-64.5 280.41,-64.5 272.22,-64.5"/>
<polygon fill="midnightblue" stroke="midnightblue" points="297.78,-68 307.78,-64.5 297.78,-61 297.78,-68"/>
</g>
<!-- Node6 -->
<g id="node6" class="node">
<title>Node6</title>
<g id="a_node6"><a xlink:href="a00401.html#ae42a5aafdfcc29b6a668355c07602efb" target="_top" xlink:title="Generate a Visibility Graph from a set of nodes to another set of nodes.">
<polygon fill="white" stroke="black" points="172,-0.5 172,-30.5 270,-30.5 270,-0.5 172,-0.5"/>
<text text-anchor="start" x="180" y="-18.5" font-family="Helvetica,sans-Serif" font-size="10.00">HF::VisibilityGraph</text>
<text text-anchor="middle" x="221" y="-7.5" font-family="Helvetica,sans-Serif" font-size="10.00">::GroupToGroup</text>
</a>
</g>
</g>
<!-- Node1&#45;&gt;Node6 -->
<g id="edge5" class="edge">
<title>Node1&#45;&gt;Node6</title>
<path fill="none" stroke="midnightblue" d="M309.35,-45.96C294.84,-40.9 279.3,-35.48 265.4,-30.64"/>
<polygon fill="midnightblue" stroke="midnightblue" points="308.6,-49.41 319.2,-49.4 310.91,-42.8 308.6,-49.41"/>
</g>
<!-- Node3 -->
<g id="node3" class="node">
<title>Node3</title>
<g id="a_node3"><a xlink:href="a00394.html#ga0255e6c4811298e61110adc64c0f8acd" target="_top" xlink:title="Create a new directed visibility graph between all nodes in parameter nodes.">
<polygon fill="white" stroke="black" points="7.5,-98.5 7.5,-128.5 126.5,-128.5 126.5,-98.5 7.5,-98.5"/>
<text text-anchor="start" x="15.5" y="-116.5" font-family="Helvetica,sans-Serif" font-size="10.00">CreateVisibilityGraphAll</text>
<text text-anchor="middle" x="67" y="-105.5" font-family="Helvetica,sans-Serif" font-size="10.00">ToAll</text>
</a>
</g>
</g>
<!-- Node2&#45;&gt;Node3 -->
<g id="edge2" class="edge">
<title>Node2&#45;&gt;Node3</title>
<path fill="none" stroke="midnightblue" d="M161.59,-113.5C150.16,-113.5 138.16,-113.5 126.71,-113.5"/>
<polygon fill="midnightblue" stroke="midnightblue" points="161.91,-117 171.91,-113.5 161.91,-110 161.91,-117"/>
</g>
<!-- Node5 -->
<g id="node5" class="node">
<title>Node5</title>
<g id="a_node5"><a xlink:href="a00394.html#ga9b0664a60bcdf276b0fe0a2023b3d9b8" target="_top" xlink:title="Create a new undirected visibility graph between all nodes in nodes.">
<polygon fill="white" stroke="black" points="7.5,-49.5 7.5,-79.5 126.5,-79.5 126.5,-49.5 7.5,-49.5"/>
<text text-anchor="start" x="15.5" y="-67.5" font-family="Helvetica,sans-Serif" font-size="10.00">CreateVisibilityGraphAll</text>
<text text-anchor="middle" x="67" y="-56.5" font-family="Helvetica,sans-Serif" font-size="10.00">ToAllUndirected</text>
</a>
</g>
</g>
<!-- Node4&#45;&gt;Node5 -->
<g id="edge4" class="edge">
<title>Node4&#45;&gt;Node5</title>
<path fill="none" stroke="midnightblue" d="M159.56,-64.5C148.69,-64.5 137.39,-64.5 126.58,-64.5"/>
<polygon fill="midnightblue" stroke="midnightblue" points="159.81,-68 169.81,-64.5 159.81,-61 159.81,-68"/>
</g>
<!-- Node7 -->
<g id="node7" class="node">
<title>Node7</title>
<g id="a_node7"><a xlink:href="a00394.html#gaf2e404cb696aee3473cac0d1507576d8" target="_top" xlink:title="Create a new visibility graph from the nodes in group_a, into the nodes of group_b.">
<polygon fill="white" stroke="black" points="0,-0.5 0,-30.5 134,-30.5 134,-0.5 0,-0.5"/>
<text text-anchor="start" x="8" y="-18.5" font-family="Helvetica,sans-Serif" font-size="10.00">CreateVisibilityGraphGroup</text>
<text text-anchor="middle" x="67" y="-7.5" font-family="Helvetica,sans-Serif" font-size="10.00">ToGroup</text>
</a>
</g>
</g>
<!-- Node6&#45;&gt;Node7 -->
<g id="edge6" class="edge">
<title>Node6&#45;&gt;Node7</title>
<path fill="none" stroke="midnightblue" d="M161.85,-15.5C152.78,-15.5 143.35,-15.5 134.12,-15.5"/>
<polygon fill="midnightblue" stroke="midnightblue" points="161.91,-19 171.91,-15.5 161.91,-12 161.91,-19"/>
</g>
</g>
</svg>
