<?xml version="1.0" encoding="UTF-8" standalone="no"?>
<!DOCTYPE svg PUBLIC "-//W3C//DTD SVG 1.1//EN"
 "http://www.w3.org/Graphics/SVG/1.1/DTD/svg11.dtd">
<!-- Generated by graphviz version 2.43.0 (0)
 -->
<!-- Title: CInterfaceTests::TEST Pages: 1 -->
<svg width="454pt" height="217pt"
 viewBox="0.00 0.00 454.00 216.50" xmlns="http://www.w3.org/2000/svg" xmlns:xlink="http://www.w3.org/1999/xlink">
<g id="graph0" class="graph" transform="scale(1 1) rotate(0) translate(4 212.5)">
<title>CInterfaceTests::TEST</title>
<polygon fill="white" stroke="transparent" points="-4,4 -4,-212.5 450,-212.5 450,4 -4,4"/>
<!-- Node1 -->
<g id="node1" class="node">
<title>Node1</title>
<g id="a_node1"><a xlink:title=" ">
<polygon fill="#bfbfbf" stroke="black" points="0,-76.5 0,-95.5 122,-95.5 122,-76.5 0,-76.5"/>
<text text-anchor="middle" x="61" y="-83.5" font-family="Helvetica,sans-Serif" font-size="10.00">CInterfaceTests::TEST</text>
</a>
</g>
</g>
<!-- Node2 -->
<g id="node2" class="node">
<title>Node2</title>
<g id="a_node2"><a xlink:href="a00392.html#ga43f715ce7f57fb92e78f8f6e90b84baf" target="_top" xlink:title="Add an edge between parent and child. If parent or child does not already exist in the graph,...">
<polygon fill="white" stroke="black" points="158,-152.5 158,-171.5 273,-171.5 273,-152.5 158,-152.5"/>
<text text-anchor="middle" x="215.5" y="-159.5" font-family="Helvetica,sans-Serif" font-size="10.00">AddEdgeFromNodes</text>
</a>
</g>
</g>
<!-- Node1&#45;&gt;Node2 -->
<g id="edge1" class="edge">
<title>Node1&#45;&gt;Node2</title>
<path fill="none" stroke="midnightblue" d="M76.12,-95.68C94.4,-107.9 127.52,-129.02 158,-143 162.64,-145.13 167.6,-147.14 172.57,-149.01"/>
<polygon fill="midnightblue" stroke="midnightblue" points="171.48,-152.34 182.07,-152.4 173.83,-145.74 171.48,-152.34"/>
</g>
<!-- Node5 -->
<g id="node5" class="node">
<title>Node5</title>
<g id="a_node5"><a xlink:href="a00392.html#ga0b0293bbac3cdc8bdaa1d2c36bec0a26" target="_top" xlink:title="Get an ordered array of costs for each node aggregated by the desired function.">
<polygon fill="white" stroke="black" points="168.5,-114.5 168.5,-133.5 262.5,-133.5 262.5,-114.5 168.5,-114.5"/>
<text text-anchor="middle" x="215.5" y="-121.5" font-family="Helvetica,sans-Serif" font-size="10.00">AggregateCosts</text>
</a>
</g>
</g>
<!-- Node1&#45;&gt;Node5 -->
<g id="edge4" class="edge">
<title>Node1&#45;&gt;Node5</title>
<path fill="none" stroke="midnightblue" d="M100.48,-95.59C120.52,-100.58 145.2,-106.73 166.48,-112.03"/>
<polygon fill="midnightblue" stroke="midnightblue" points="165.74,-115.46 176.29,-114.48 167.44,-108.67 165.74,-115.46"/>
</g>
<!-- Node7 -->
<g id="node7" class="node">
<title>Node7</title>
<g id="a_node7"><a xlink:href="a00392.html#ga262a8f714fbd8d74840efa5832597fff" target="_top" xlink:title="Create a new empty graph.">
<polygon fill="white" stroke="black" points="176.5,-76.5 176.5,-95.5 254.5,-95.5 254.5,-76.5 176.5,-76.5"/>
<text text-anchor="middle" x="215.5" y="-83.5" font-family="Helvetica,sans-Serif" font-size="10.00">CreateGraph</text>
</a>
</g>
</g>
<!-- Node1&#45;&gt;Node7 -->
<g id="edge7" class="edge">
<title>Node1&#45;&gt;Node7</title>
<path fill="none" stroke="midnightblue" d="M122.27,-86C136.73,-86 152,-86 165.86,-86"/>
<polygon fill="midnightblue" stroke="midnightblue" points="166.15,-89.5 176.15,-86 166.15,-82.5 166.15,-89.5"/>
</g>
<!-- Node8 -->
<g id="node8" class="node">
<title>Node8</title>
<g id="a_node8"><a xlink:href="a00344.html#af77723a4383b278169e80cf0e361ec44" target="_top" xlink:title="Delete a float vector that&#39;s pointed to by float_vector">
<polygon fill="white" stroke="black" points="160.5,-38.5 160.5,-57.5 270.5,-57.5 270.5,-38.5 160.5,-38.5"/>
<text text-anchor="middle" x="215.5" y="-45.5" font-family="Helvetica,sans-Serif" font-size="10.00">DestroyFloatVector</text>
</a>
</g>
</g>
<!-- Node1&#45;&gt;Node8 -->
<g id="edge8" class="edge">
<title>Node1&#45;&gt;Node8</title>
<path fill="none" stroke="midnightblue" d="M100.48,-76.41C120.52,-71.42 145.2,-65.27 166.48,-59.97"/>
<polygon fill="midnightblue" stroke="midnightblue" points="167.44,-63.33 176.29,-57.52 165.74,-56.54 167.44,-63.33"/>
</g>
<!-- Node10 -->
<g id="node10" class="node">
<title>Node10</title>
<g id="a_node10"><a xlink:href="a00392.html#ga645abacd11e1fa535f953344aaa77727" target="_top" xlink:title="Delete a graph.">
<polygon fill="white" stroke="black" points="173.5,-0.5 173.5,-19.5 257.5,-19.5 257.5,-0.5 173.5,-0.5"/>
<text text-anchor="middle" x="215.5" y="-7.5" font-family="Helvetica,sans-Serif" font-size="10.00">DestroyGraph</text>
</a>
</g>
</g>
<!-- Node1&#45;&gt;Node10 -->
<g id="edge10" class="edge">
<title>Node1&#45;&gt;Node10</title>
<path fill="none" stroke="midnightblue" d="M76.12,-76.32C94.4,-64.1 127.52,-42.98 158,-29 162.64,-26.87 167.6,-24.86 172.57,-22.99"/>
<polygon fill="midnightblue" stroke="midnightblue" points="173.83,-26.26 182.07,-19.6 171.48,-19.66 173.83,-26.26"/>
</g>
<!-- Node3 -->
<g id="node3" class="node">
<title>Node3</title>
<g id="a_node3"><a xlink:href="a01497.html#a37be5c12e488072dea7fa1c8c64346f7" target="_top" xlink:title="Add a new edge to the graph from parent to child.">
<polygon fill="white" stroke="black" points="318,-178 318,-208 437,-208 437,-178 318,-178"/>
<text text-anchor="start" x="326" y="-196" font-family="Helvetica,sans-Serif" font-size="10.00">HF::SpatialStructures</text>
<text text-anchor="middle" x="377.5" y="-185" font-family="Helvetica,sans-Serif" font-size="10.00">::Graph::addEdge</text>
</a>
</g>
</g>
<!-- Node2&#45;&gt;Node3 -->
<g id="edge2" class="edge">
<title>Node2&#45;&gt;Node3</title>
<path fill="none" stroke="midnightblue" d="M265.81,-171.55C279.04,-174.12 293.58,-176.93 307.66,-179.66"/>
<polygon fill="midnightblue" stroke="midnightblue" points="307.31,-183.16 317.8,-181.63 308.64,-176.29 307.31,-183.16"/>
</g>
<!-- Node4 -->
<g id="node4" class="node">
<title>Node4</title>
<g id="a_node4"><a xlink:href="a00368.html#a4a6d9b1a1bf9c8f2b5394875a8ca0c72" target="_top" xlink:title=" ">
<polygon fill="white" stroke="black" points="339,-139.5 339,-158.5 416,-158.5 416,-139.5 339,-139.5"/>
<text text-anchor="middle" x="377.5" y="-146.5" font-family="Helvetica,sans-Serif" font-size="10.00">parse_string</text>
</a>
</g>
</g>
<!-- Node2&#45;&gt;Node4 -->
<g id="edge3" class="edge">
<title>Node2&#45;&gt;Node4</title>
<path fill="none" stroke="midnightblue" d="M273.36,-157.38C291.36,-155.92 311.07,-154.32 328.4,-152.91"/>
<polygon fill="midnightblue" stroke="midnightblue" points="329.15,-156.36 338.84,-152.06 328.59,-149.38 329.15,-156.36"/>
</g>
<!-- Node5&#45;&gt;Node4 -->
<g id="edge6" class="edge">
<title>Node5&#45;&gt;Node4</title>
<path fill="none" stroke="midnightblue" d="M262.78,-131.23C283.56,-134.48 308.05,-138.31 328.98,-141.57"/>
<polygon fill="midnightblue" stroke="midnightblue" points="328.51,-145.04 338.93,-143.13 329.59,-138.13 328.51,-145.04"/>
</g>
<!-- Node6 -->
<g id="node6" class="node">
<title>Node6</title>
<g id="a_node6"><a xlink:href="a01497.html#a307c31b1dcc4647c7e071413e3503846" target="_top" xlink:title="Summarize the costs of every outgoing edge for every node in the graph.">
<polygon fill="white" stroke="black" points="309,-90 309,-120 446,-120 446,-90 309,-90"/>
<text text-anchor="start" x="317" y="-108" font-family="Helvetica,sans-Serif" font-size="10.00">HF::SpatialStructures</text>
<text text-anchor="middle" x="377.5" y="-97" font-family="Helvetica,sans-Serif" font-size="10.00">::Graph::AggregateGraph</text>
</a>
</g>
</g>
<!-- Node5&#45;&gt;Node6 -->
<g id="edge5" class="edge">
<title>Node5&#45;&gt;Node6</title>
<path fill="none" stroke="midnightblue" d="M262.78,-118.5C274.03,-117.17 286.36,-115.7 298.63,-114.25"/>
<polygon fill="midnightblue" stroke="midnightblue" points="299.38,-117.68 308.9,-113.03 298.56,-110.73 299.38,-117.68"/>
</g>
<!-- Node9 -->
<g id="node9" class="node">
<title>Node9</title>
<g id="a_node9"><a xlink:href="a00347.html#a1746287300e1f05c45d84f3837e24557" target="_top" xlink:title="Delete some object pointed to by ptr">
<polygon fill="white" stroke="black" points="336,-38.5 336,-57.5 419,-57.5 419,-38.5 336,-38.5"/>
<text text-anchor="middle" x="377.5" y="-45.5" font-family="Helvetica,sans-Serif" font-size="10.00">DeleteRawPtr</text>
</a>
</g>
</g>
<!-- Node8&#45;&gt;Node9 -->
<g id="edge9" class="edge">
<title>Node8&#45;&gt;Node9</title>
<path fill="none" stroke="midnightblue" d="M270.67,-48C288.48,-48 308.2,-48 325.75,-48"/>
<polygon fill="midnightblue" stroke="midnightblue" points="325.8,-51.5 335.8,-48 325.8,-44.5 325.8,-51.5"/>
</g>
</g>
</svg>
