<?xml version="1.0" encoding="UTF-8" standalone="no"?>
<!DOCTYPE svg PUBLIC "-//W3C//DTD SVG 1.1//EN"
 "http://www.w3.org/Graphics/SVG/1.1/DTD/svg11.dtd">
<!-- Generated by graphviz version 2.43.0 (0)
 -->
<!-- Title: CInterfaceTests::TEST Pages: 1 -->
<svg width="832pt" height="302pt"
 viewBox="0.00 0.00 832.00 301.50" xmlns="http://www.w3.org/2000/svg" xmlns:xlink="http://www.w3.org/1999/xlink">
<g id="graph0" class="graph" transform="scale(1 1) rotate(0) translate(4 297.5)">
<title>CInterfaceTests::TEST</title>
<polygon fill="white" stroke="transparent" points="-4,4 -4,-297.5 828,-297.5 828,4 -4,4"/>
<!-- Node1 -->
<g id="node1" class="node">
<title>Node1</title>
<g id="a_node1"><a xlink:title=" ">
<polygon fill="#bfbfbf" stroke="black" points="0,-175.5 0,-194.5 122,-194.5 122,-175.5 0,-175.5"/>
<text text-anchor="middle" x="61" y="-182.5" font-family="Helvetica,sans-Serif" font-size="10.00">CInterfaceTests::TEST</text>
</a>
</g>
</g>
<!-- Node2 -->
<g id="node2" class="node">
<title>Node2</title>
<g id="a_node2"><a xlink:href="a01497.html#a37be5c12e488072dea7fa1c8c64346f7" target="_top" xlink:title="Add a new edge to the graph from parent to child.">
<polygon fill="white" stroke="black" points="158,-263 158,-293 277,-293 277,-263 158,-263"/>
<text text-anchor="start" x="166" y="-281" font-family="Helvetica,sans-Serif" font-size="10.00">HF::SpatialStructures</text>
<text text-anchor="middle" x="217.5" y="-270" font-family="Helvetica,sans-Serif" font-size="10.00">::Graph::addEdge</text>
</a>
</g>
</g>
<!-- Node1&#45;&gt;Node2 -->
<g id="edge1" class="edge">
<title>Node1&#45;&gt;Node2</title>
<path fill="none" stroke="midnightblue" d="M73.53,-194.66C90.97,-208.95 125.51,-235.99 158,-254 160.88,-255.6 163.89,-257.15 166.96,-258.65"/>
<polygon fill="midnightblue" stroke="midnightblue" points="165.72,-261.93 176.26,-262.95 168.66,-255.58 165.72,-261.93"/>
</g>
<!-- Node3 -->
<g id="node3" class="node">
<title>Node3</title>
<g id="a_node3"><a xlink:href="a01497.html#a41cece77d0eee98df39ecc6d3a366ec8" target="_top" xlink:title="Compress the graph to a CSR and enable the usage of several functions.">
<polygon fill="white" stroke="black" points="158,-214 158,-244 277,-244 277,-214 158,-214"/>
<text text-anchor="start" x="166" y="-232" font-family="Helvetica,sans-Serif" font-size="10.00">HF::SpatialStructures</text>
<text text-anchor="middle" x="217.5" y="-221" font-family="Helvetica,sans-Serif" font-size="10.00">::Graph::Compress</text>
</a>
</g>
</g>
<!-- Node1&#45;&gt;Node3 -->
<g id="edge2" class="edge">
<title>Node1&#45;&gt;Node3</title>
<path fill="none" stroke="midnightblue" d="M95.52,-194.55C112.61,-199.41 133.95,-205.49 153.93,-211.18"/>
<polygon fill="midnightblue" stroke="midnightblue" points="153.02,-214.56 163.6,-213.93 154.94,-207.83 153.02,-214.56"/>
</g>
<!-- Node4 -->
<g id="node4" class="node">
<title>Node4</title>
<g id="a_node4"><a xlink:href="a00406.html#ae2106e09eb44d681fbc6c0f66a3d3ac4" target="_top" xlink:title="Create a new boost graph from a HF::SpatialStructures:Graph.">
<polygon fill="white" stroke="black" points="313,-225 313,-255 468,-255 468,-225 313,-225"/>
<text text-anchor="start" x="321" y="-243" font-family="Helvetica,sans-Serif" font-size="10.00">HF::Pathfinding::CreateBoost</text>
<text text-anchor="middle" x="390.5" y="-232" font-family="Helvetica,sans-Serif" font-size="10.00">Graph</text>
</a>
</g>
</g>
<!-- Node1&#45;&gt;Node4 -->
<g id="edge3" class="edge">
<title>Node1&#45;&gt;Node4</title>
<path fill="none" stroke="midnightblue" d="M122.26,-187.24C165.63,-189.66 225.35,-194.68 277,-205 278.55,-205.31 304.91,-213.51 331.72,-221.89"/>
<polygon fill="midnightblue" stroke="midnightblue" points="330.99,-225.32 341.58,-224.97 333.08,-218.64 330.99,-225.32"/>
</g>
<!-- Node5 -->
<g id="node5" class="node">
<title>Node5</title>
<g id="a_node5"><a xlink:href="a00390.html#ga3dc85450e989a996a3c3fcfad0a5944e" target="_top" xlink:title="Find the shortest path from start to end.">
<polygon fill="white" stroke="black" points="182.5,-137.5 182.5,-156.5 252.5,-156.5 252.5,-137.5 182.5,-137.5"/>
<text text-anchor="middle" x="217.5" y="-144.5" font-family="Helvetica,sans-Serif" font-size="10.00">CreatePath</text>
</a>
</g>
</g>
<!-- Node1&#45;&gt;Node5 -->
<g id="edge4" class="edge">
<title>Node1&#45;&gt;Node5</title>
<path fill="none" stroke="midnightblue" d="M100.99,-175.41C122.69,-170.07 149.79,-163.41 172.28,-157.88"/>
<polygon fill="midnightblue" stroke="midnightblue" points="173.38,-161.21 182.26,-155.42 171.71,-154.41 173.38,-161.21"/>
</g>
<!-- Node13 -->
<g id="node13" class="node">
<title>Node13</title>
<g id="a_node13"><a xlink:href="a00390.html#ga884a3374d971261a01ccfd3b21e288e5" target="_top" xlink:title="Delete a path.">
<polygon fill="white" stroke="black" points="179.5,-50.5 179.5,-69.5 255.5,-69.5 255.5,-50.5 179.5,-50.5"/>
<text text-anchor="middle" x="217.5" y="-57.5" font-family="Helvetica,sans-Serif" font-size="10.00">DestroyPath</text>
</a>
</g>
</g>
<!-- Node1&#45;&gt;Node13 -->
<g id="edge13" class="edge">
<title>Node1&#45;&gt;Node13</title>
<path fill="none" stroke="midnightblue" d="M73.87,-175.4C100.2,-154.09 163.77,-102.66 196.42,-76.25"/>
<polygon fill="midnightblue" stroke="midnightblue" points="198.81,-78.82 204.38,-69.81 194.4,-73.37 198.81,-78.82"/>
</g>
<!-- Node5&#45;&gt;Node4 -->
<g id="edge5" class="edge">
<title>Node5&#45;&gt;Node4</title>
<path fill="none" stroke="midnightblue" d="M250.11,-156.6C259.3,-160.25 269,-165.01 277,-171 297.5,-186.35 291.86,-201.54 313,-216 315.37,-217.62 317.85,-219.14 320.42,-220.55"/>
<polygon fill="midnightblue" stroke="midnightblue" points="318.89,-223.7 329.4,-225 321.99,-217.43 318.89,-223.7"/>
</g>
<!-- Node6 -->
<g id="node6" class="node">
<title>Node6</title>
<g id="a_node6"><a xlink:href="a02029.html#a3066bac2d76b5c8a28b35a8d1f6ace71" target="_top" xlink:title="Determine if this path has any nodes in it.">
<polygon fill="white" stroke="black" points="331,-176 331,-206 450,-206 450,-176 331,-176"/>
<text text-anchor="start" x="339" y="-194" font-family="Helvetica,sans-Serif" font-size="10.00">HF::SpatialStructures</text>
<text text-anchor="middle" x="390.5" y="-183" font-family="Helvetica,sans-Serif" font-size="10.00">::Path::empty</text>
</a>
</g>
</g>
<!-- Node5&#45;&gt;Node6 -->
<g id="edge6" class="edge">
<title>Node5&#45;&gt;Node6</title>
<path fill="none" stroke="midnightblue" d="M252.69,-155.8C272.31,-160.85 297.64,-167.36 321.16,-173.42"/>
<polygon fill="midnightblue" stroke="midnightblue" points="320.56,-176.87 331.11,-175.98 322.3,-170.09 320.56,-176.87"/>
</g>
<!-- Node7 -->
<g id="node7" class="node">
<title>Node7</title>
<g id="a_node7"><a xlink:href="a00406.html#a47d06b1c4bd84f4d0a7519ea0e96ff02" target="_top" xlink:title="Find a path between points A and B using Dijkstra&#39;s Shortest Path algorithm.">
<polygon fill="white" stroke="black" points="322,-137.5 322,-156.5 459,-156.5 459,-137.5 322,-137.5"/>
<text text-anchor="middle" x="390.5" y="-144.5" font-family="Helvetica,sans-Serif" font-size="10.00">HF::Pathfinding::FindPath</text>
</a>
</g>
</g>
<!-- Node5&#45;&gt;Node7 -->
<g id="edge7" class="edge">
<title>Node5&#45;&gt;Node7</title>
<path fill="none" stroke="midnightblue" d="M252.69,-147C269.7,-147 291,-147 311.69,-147"/>
<polygon fill="midnightblue" stroke="midnightblue" points="311.78,-150.5 321.78,-147 311.78,-143.5 311.78,-150.5"/>
</g>
<!-- Node11 -->
<g id="node11" class="node">
<title>Node11</title>
<g id="a_node11"><a xlink:href="a02029.html#a942cb49007bbeb5588e2d526c68bdcf9" target="_top" xlink:title="Get a pointer to the path&#39;s underlying path members vector.">
<polygon fill="white" stroke="black" points="331,-88 331,-118 450,-118 450,-88 331,-88"/>
<text text-anchor="start" x="339" y="-106" font-family="Helvetica,sans-Serif" font-size="10.00">HF::SpatialStructures</text>
<text text-anchor="middle" x="390.5" y="-95" font-family="Helvetica,sans-Serif" font-size="10.00">::Path::GetPMPointer</text>
</a>
</g>
</g>
<!-- Node5&#45;&gt;Node11 -->
<g id="edge11" class="edge">
<title>Node5&#45;&gt;Node11</title>
<path fill="none" stroke="midnightblue" d="M252.69,-138.2C272.31,-133.15 297.64,-126.64 321.16,-120.58"/>
<polygon fill="midnightblue" stroke="midnightblue" points="322.3,-123.91 331.11,-118.02 320.56,-117.13 322.3,-123.91"/>
</g>
<!-- Node12 -->
<g id="node12" class="node">
<title>Node12</title>
<g id="a_node12"><a xlink:href="a02029.html#a28f61f0f57b38a5249a11a725d9d692b" target="_top" xlink:title="Determine how many nodes are in this path.">
<polygon fill="white" stroke="black" points="331,-39 331,-69 450,-69 450,-39 331,-39"/>
<text text-anchor="start" x="339" y="-57" font-family="Helvetica,sans-Serif" font-size="10.00">HF::SpatialStructures</text>
<text text-anchor="middle" x="390.5" y="-46" font-family="Helvetica,sans-Serif" font-size="10.00">::Path::size</text>
</a>
</g>
</g>
<!-- Node5&#45;&gt;Node12 -->
<g id="edge12" class="edge">
<title>Node5&#45;&gt;Node12</title>
<path fill="none" stroke="midnightblue" d="M229.07,-137.45C245.78,-122.81 279.81,-94.75 313,-78 316.7,-76.13 320.58,-74.37 324.55,-72.72"/>
<polygon fill="midnightblue" stroke="midnightblue" points="325.86,-75.97 333.9,-69.07 323.32,-69.44 325.86,-75.97"/>
</g>
<!-- Node8 -->
<g id="node8" class="node">
<title>Node8</title>
<g id="a_node8"><a xlink:href="a00406.html#a9f6490539108da057db2486295458886" target="_top" xlink:title="Build a row of the distance and predecessor matrices for the node at id.">
<polygon fill="white" stroke="black" points="504,-157 504,-187 667,-187 667,-157 504,-157"/>
<text text-anchor="start" x="512" y="-175" font-family="Helvetica,sans-Serif" font-size="10.00">HF::Pathfinding::BuildDistance</text>
<text text-anchor="middle" x="585.5" y="-164" font-family="Helvetica,sans-Serif" font-size="10.00">AndPredecessor</text>
</a>
</g>
</g>
<!-- Node7&#45;&gt;Node8 -->
<g id="edge8" class="edge">
<title>Node7&#45;&gt;Node8</title>
<path fill="none" stroke="midnightblue" d="M459,-155.74C470.18,-157.19 481.94,-158.71 493.58,-160.22"/>
<polygon fill="midnightblue" stroke="midnightblue" points="493.41,-163.73 503.77,-161.54 494.31,-156.79 493.41,-163.73"/>
</g>
<!-- Node10 -->
<g id="node10" class="node">
<title>Node10</title>
<g id="a_node10"><a xlink:href="a00406.html#a322ac32effd41c99359b82df0890e34a" target="_top" xlink:title="Overload to call this with a distPred instead of the raw arrays.">
<polygon fill="white" stroke="black" points="514.5,-108 514.5,-138 656.5,-138 656.5,-108 514.5,-108"/>
<text text-anchor="start" x="522.5" y="-126" font-family="Helvetica,sans-Serif" font-size="10.00">HF::Pathfinding::Construct</text>
<text text-anchor="middle" x="585.5" y="-115" font-family="Helvetica,sans-Serif" font-size="10.00">ShortestPathFromPred</text>
</a>
</g>
</g>
<!-- Node7&#45;&gt;Node10 -->
<g id="edge10" class="edge">
<title>Node7&#45;&gt;Node10</title>
<path fill="none" stroke="midnightblue" d="M459,-138.61C473.57,-136.79 489.12,-134.86 504.13,-132.99"/>
<polygon fill="midnightblue" stroke="midnightblue" points="504.93,-136.42 514.42,-131.71 504.06,-129.48 504.93,-136.42"/>
</g>
<!-- Node9 -->
<g id="node9" class="node">
<title>Node9</title>
<g id="a_node9"><a xlink:href="a00411.html#acc422c11342b31368f610b6f96fcedc6" target="_top" xlink:title=" ">
<polygon fill="white" stroke="black" points="703,-162.5 703,-181.5 824,-181.5 824,-162.5 703,-162.5"/>
<text text-anchor="middle" x="763.5" y="-169.5" font-family="Helvetica,sans-Serif" font-size="10.00">nlohmann::detail::get</text>
</a>
</g>
</g>
<!-- Node8&#45;&gt;Node9 -->
<g id="edge9" class="edge">
<title>Node8&#45;&gt;Node9</title>
<path fill="none" stroke="midnightblue" d="M667.03,-172C675.59,-172 684.24,-172 692.66,-172"/>
<polygon fill="midnightblue" stroke="midnightblue" points="692.8,-175.5 702.8,-172 692.8,-168.5 692.8,-175.5"/>
</g>
<!-- Node14 -->
<g id="node14" class="node">
<title>Node14</title>
<g id="a_node14"><a xlink:href="a00347.html#a1746287300e1f05c45d84f3837e24557" target="_top" xlink:title="Delete some object pointed to by ptr">
<polygon fill="white" stroke="black" points="349,-0.5 349,-19.5 432,-19.5 432,-0.5 349,-0.5"/>
<text text-anchor="middle" x="390.5" y="-7.5" font-family="Helvetica,sans-Serif" font-size="10.00">DeleteRawPtr</text>
</a>
</g>
</g>
<!-- Node13&#45;&gt;Node14 -->
<g id="edge14" class="edge">
<title>Node13&#45;&gt;Node14</title>
<path fill="none" stroke="midnightblue" d="M246.04,-50.37C264.8,-43.96 290.27,-35.54 313,-29 321.41,-26.58 330.39,-24.18 339.13,-21.95"/>
<polygon fill="midnightblue" stroke="midnightblue" points="340.01,-25.34 348.86,-19.51 338.3,-18.55 340.01,-25.34"/>
</g>
</g>
</svg>
