<?xml version="1.0" encoding="UTF-8" standalone="no"?>
<!DOCTYPE svg PUBLIC "-//W3C//DTD SVG 1.1//EN"
 "http://www.w3.org/Graphics/SVG/1.1/DTD/svg11.dtd">
<!-- Generated by graphviz version 2.43.0 (0)
 -->
<!-- Title: CInterfaceTests::TEST Pages: 1 -->
<svg width="1017pt" height="252pt"
 viewBox="0.00 0.00 1017.00 252.00" xmlns="http://www.w3.org/2000/svg" xmlns:xlink="http://www.w3.org/1999/xlink">
<g id="graph0" class="graph" transform="scale(1 1) rotate(0) translate(4 248)">
<title>CInterfaceTests::TEST</title>
<polygon fill="white" stroke="transparent" points="-4,4 -4,-248 1013,-248 1013,4 -4,4"/>
<!-- Node1 -->
<g id="node1" class="node">
<title>Node1</title>
<g id="a_node1"><a xlink:title=" ">
<polygon fill="#bfbfbf" stroke="black" points="0,-107 0,-126 122,-126 122,-107 0,-107"/>
<text text-anchor="middle" x="61" y="-114" font-family="Helvetica,sans-Serif" font-size="10.00">CInterfaceTests::TEST</text>
</a>
</g>
</g>
<!-- Node2 -->
<g id="node2" class="node">
<title>Node2</title>
<g id="a_node2"><a xlink:href="a01497.html#a37be5c12e488072dea7fa1c8c64346f7" target="_top" xlink:title="Add a new edge to the graph from parent to child.">
<polygon fill="white" stroke="black" points="158,-213.5 158,-243.5 277,-243.5 277,-213.5 158,-213.5"/>
<text text-anchor="start" x="166" y="-231.5" font-family="Helvetica,sans-Serif" font-size="10.00">HF::SpatialStructures</text>
<text text-anchor="middle" x="217.5" y="-220.5" font-family="Helvetica,sans-Serif" font-size="10.00">::Graph::addEdge</text>
</a>
</g>
</g>
<!-- Node1&#45;&gt;Node2 -->
<g id="edge1" class="edge">
<title>Node1&#45;&gt;Node2</title>
<path fill="none" stroke="midnightblue" d="M70.68,-126.27C86.57,-143.68 122.02,-180.44 158,-203.5 160.92,-205.37 164.01,-207.17 167.18,-208.87"/>
<polygon fill="midnightblue" stroke="midnightblue" points="165.75,-212.06 176.25,-213.41 168.88,-205.8 165.75,-212.06"/>
</g>
<!-- Node3 -->
<g id="node3" class="node">
<title>Node3</title>
<g id="a_node3"><a xlink:href="a01497.html#a41cece77d0eee98df39ecc6d3a366ec8" target="_top" xlink:title="Compress the graph to a CSR and enable the usage of several functions.">
<polygon fill="white" stroke="black" points="158,-164.5 158,-194.5 277,-194.5 277,-164.5 158,-164.5"/>
<text text-anchor="start" x="166" y="-182.5" font-family="Helvetica,sans-Serif" font-size="10.00">HF::SpatialStructures</text>
<text text-anchor="middle" x="217.5" y="-171.5" font-family="Helvetica,sans-Serif" font-size="10.00">::Graph::Compress</text>
</a>
</g>
</g>
<!-- Node1&#45;&gt;Node3 -->
<g id="edge2" class="edge">
<title>Node1&#45;&gt;Node3</title>
<path fill="none" stroke="midnightblue" d="M85.47,-126.07C107.82,-135.18 142.09,-149.16 169.99,-160.53"/>
<polygon fill="midnightblue" stroke="midnightblue" points="168.97,-163.9 179.55,-164.43 171.62,-157.42 168.97,-163.9"/>
</g>
<!-- Node4 -->
<g id="node4" class="node">
<title>Node4</title>
<g id="a_node4"><a xlink:href="a00390.html#gaba6ec6ce84974dd6a311d7d65dd34221" target="_top" xlink:title="Find a path from every node in a graph to every other node.">
<polygon fill="white" stroke="black" points="162,-88 162,-107 273,-107 273,-88 162,-88"/>
<text text-anchor="middle" x="217.5" y="-95" font-family="Helvetica,sans-Serif" font-size="10.00">CreateAllToAllPaths</text>
</a>
</g>
</g>
<!-- Node1&#45;&gt;Node4 -->
<g id="edge3" class="edge">
<title>Node1&#45;&gt;Node4</title>
<path fill="none" stroke="midnightblue" d="M122.18,-109.1C131.86,-107.91 141.92,-106.67 151.71,-105.47"/>
<polygon fill="midnightblue" stroke="midnightblue" points="152.28,-108.92 161.78,-104.23 151.43,-101.98 152.28,-108.92"/>
</g>
<!-- Node5 -->
<g id="node5" class="node">
<title>Node5</title>
<g id="a_node5"><a xlink:href="a00406.html#ae2106e09eb44d681fbc6c0f66a3d3ac4" target="_top" xlink:title="Create a new boost graph from a HF::SpatialStructures:Graph.">
<polygon fill="white" stroke="black" points="313,-126.5 313,-156.5 468,-156.5 468,-126.5 313,-126.5"/>
<text text-anchor="start" x="321" y="-144.5" font-family="Helvetica,sans-Serif" font-size="10.00">HF::Pathfinding::CreateBoost</text>
<text text-anchor="middle" x="390.5" y="-133.5" font-family="Helvetica,sans-Serif" font-size="10.00">Graph</text>
</a>
</g>
</g>
<!-- Node1&#45;&gt;Node5 -->
<g id="edge12" class="edge">
<title>Node1&#45;&gt;Node5</title>
<path fill="none" stroke="midnightblue" d="M122.07,-121.09C172.67,-124.95 245.72,-130.52 302.69,-134.87"/>
<polygon fill="midnightblue" stroke="midnightblue" points="302.53,-138.37 312.77,-135.64 303.07,-131.39 302.53,-138.37"/>
</g>
<!-- Node13 -->
<g id="node13" class="node">
<title>Node13</title>
<g id="a_node13"><a xlink:href="a00390.html#ga884a3374d971261a01ccfd3b21e288e5" target="_top" xlink:title="Delete a path.">
<polygon fill="white" stroke="black" points="179.5,-50 179.5,-69 255.5,-69 255.5,-50 179.5,-50"/>
<text text-anchor="middle" x="217.5" y="-57" font-family="Helvetica,sans-Serif" font-size="10.00">DestroyPath</text>
</a>
</g>
</g>
<!-- Node1&#45;&gt;Node13 -->
<g id="edge13" class="edge">
<title>Node1&#45;&gt;Node13</title>
<path fill="none" stroke="midnightblue" d="M85.12,-106.87C104.47,-98.93 132.87,-87.54 158,-78.5 163.93,-76.36 170.24,-74.2 176.44,-72.14"/>
<polygon fill="midnightblue" stroke="midnightblue" points="177.6,-75.44 186.01,-69 175.42,-68.79 177.6,-75.44"/>
</g>
<!-- Node15 -->
<g id="node15" class="node">
<title>Node15</title>
<g id="a_node15"><a xlink:href="a01497.html#acf3e003f995c8a533f3ff164157b7297" target="_top" xlink:title="Get a list of nodes from the graph sorted by ID.">
<polygon fill="white" stroke="black" points="158,-0.5 158,-30.5 277,-30.5 277,-0.5 158,-0.5"/>
<text text-anchor="start" x="166" y="-18.5" font-family="Helvetica,sans-Serif" font-size="10.00">HF::SpatialStructures</text>
<text text-anchor="middle" x="217.5" y="-7.5" font-family="Helvetica,sans-Serif" font-size="10.00">::Graph::Nodes</text>
</a>
</g>
</g>
<!-- Node1&#45;&gt;Node15 -->
<g id="edge15" class="edge">
<title>Node1&#45;&gt;Node15</title>
<path fill="none" stroke="midnightblue" d="M72.26,-106.85C89.12,-91.34 124.2,-60.61 158,-40.5 161.18,-38.61 164.52,-36.79 167.94,-35.04"/>
<polygon fill="midnightblue" stroke="midnightblue" points="169.59,-38.13 177.08,-30.64 166.55,-31.83 169.59,-38.13"/>
</g>
<!-- Node4&#45;&gt;Node5 -->
<g id="edge4" class="edge">
<title>Node4&#45;&gt;Node5</title>
<path fill="none" stroke="midnightblue" d="M255.6,-107.05C274.77,-111.98 298.78,-118.16 321.15,-123.91"/>
<polygon fill="midnightblue" stroke="midnightblue" points="320.39,-127.33 330.95,-126.43 322.14,-120.55 320.39,-127.33"/>
</g>
<!-- Node6 -->
<g id="node6" class="node">
<title>Node6</title>
<g id="a_node6"><a xlink:href="a00406.html#a69bd3efcc13788e7c4be43b67d6002e5" target="_top" xlink:title="A special version of FindPaths optimized for the C_Interface, such that all paths possible from each ...">
<polygon fill="white" stroke="black" points="322.5,-77.5 322.5,-107.5 458.5,-107.5 458.5,-77.5 322.5,-77.5"/>
<text text-anchor="start" x="330.5" y="-95.5" font-family="Helvetica,sans-Serif" font-size="10.00">HF::Pathfinding::InsertAll</text>
<text text-anchor="middle" x="390.5" y="-84.5" font-family="Helvetica,sans-Serif" font-size="10.00">ToAllPathsIntoArray</text>
</a>
</g>
</g>
<!-- Node4&#45;&gt;Node6 -->
<g id="edge5" class="edge">
<title>Node4&#45;&gt;Node6</title>
<path fill="none" stroke="midnightblue" d="M273.08,-95.9C285.54,-95.54 299.01,-95.15 312.22,-94.76"/>
<polygon fill="midnightblue" stroke="midnightblue" points="312.36,-98.26 322.25,-94.47 312.16,-91.26 312.36,-98.26"/>
</g>
<!-- Node7 -->
<g id="node7" class="node">
<title>Node7</title>
<g id="a_node7"><a xlink:href="a00406.html#a417084c97d0672af2da7739157a9d8c0" target="_top" xlink:title="A special version of FindPaths optimized for the C_Interface.">
<polygon fill="white" stroke="black" points="504,-77.5 504,-107.5 653,-107.5 653,-77.5 504,-77.5"/>
<text text-anchor="start" x="512" y="-95.5" font-family="Helvetica,sans-Serif" font-size="10.00">HF::Pathfinding::InsertPaths</text>
<text text-anchor="middle" x="578.5" y="-84.5" font-family="Helvetica,sans-Serif" font-size="10.00">IntoArray</text>
</a>
</g>
</g>
<!-- Node6&#45;&gt;Node7 -->
<g id="edge6" class="edge">
<title>Node6&#45;&gt;Node7</title>
<path fill="none" stroke="midnightblue" d="M458.65,-92.5C470,-92.5 481.9,-92.5 493.62,-92.5"/>
<polygon fill="midnightblue" stroke="midnightblue" points="493.84,-96 503.84,-92.5 493.84,-89 493.84,-96"/>
</g>
<!-- Node8 -->
<g id="node8" class="node">
<title>Node8</title>
<g id="a_node8"><a xlink:href="a00406.html#a9f6490539108da057db2486295458886" target="_top" xlink:title="Build a row of the distance and predecessor matrices for the node at id.">
<polygon fill="white" stroke="black" points="689,-151.5 689,-181.5 852,-181.5 852,-151.5 689,-151.5"/>
<text text-anchor="start" x="697" y="-169.5" font-family="Helvetica,sans-Serif" font-size="10.00">HF::Pathfinding::BuildDistance</text>
<text text-anchor="middle" x="770.5" y="-158.5" font-family="Helvetica,sans-Serif" font-size="10.00">AndPredecessor</text>
</a>
</g>
</g>
<!-- Node7&#45;&gt;Node8 -->
<g id="edge7" class="edge">
<title>Node7&#45;&gt;Node8</title>
<path fill="none" stroke="midnightblue" d="M610.71,-107.67C632.39,-117.9 662.11,-131.35 689,-141.5 695.16,-143.83 701.65,-146.11 708.15,-148.29"/>
<polygon fill="midnightblue" stroke="midnightblue" points="707.06,-151.61 717.66,-151.4 709.24,-144.96 707.06,-151.61"/>
</g>
<!-- Node10 -->
<g id="node10" class="node">
<title>Node10</title>
<g id="a_node10"><a xlink:href="a00406.html#a322ac32effd41c99359b82df0890e34a" target="_top" xlink:title="Overload to call this with a distPred instead of the raw arrays.">
<polygon fill="white" stroke="black" points="699.5,-102.5 699.5,-132.5 841.5,-132.5 841.5,-102.5 699.5,-102.5"/>
<text text-anchor="start" x="707.5" y="-120.5" font-family="Helvetica,sans-Serif" font-size="10.00">HF::Pathfinding::Construct</text>
<text text-anchor="middle" x="770.5" y="-109.5" font-family="Helvetica,sans-Serif" font-size="10.00">ShortestPathFromPred</text>
</a>
</g>
</g>
<!-- Node7&#45;&gt;Node10 -->
<g id="edge9" class="edge">
<title>Node7&#45;&gt;Node10</title>
<path fill="none" stroke="midnightblue" d="M653.23,-102.2C665.05,-103.76 677.33,-105.37 689.29,-106.95"/>
<polygon fill="midnightblue" stroke="midnightblue" points="688.87,-110.42 699.24,-108.26 689.78,-103.48 688.87,-110.42"/>
</g>
<!-- Node11 -->
<g id="node11" class="node">
<title>Node11</title>
<g id="a_node11"><a xlink:href="a02029.html#a942cb49007bbeb5588e2d526c68bdcf9" target="_top" xlink:title="Get a pointer to the path&#39;s underlying path members vector.">
<polygon fill="white" stroke="black" points="711,-53.5 711,-83.5 830,-83.5 830,-53.5 711,-53.5"/>
<text text-anchor="start" x="719" y="-71.5" font-family="Helvetica,sans-Serif" font-size="10.00">HF::SpatialStructures</text>
<text text-anchor="middle" x="770.5" y="-60.5" font-family="Helvetica,sans-Serif" font-size="10.00">::Path::GetPMPointer</text>
</a>
</g>
</g>
<!-- Node7&#45;&gt;Node11 -->
<g id="edge10" class="edge">
<title>Node7&#45;&gt;Node11</title>
<path fill="none" stroke="midnightblue" d="M653.23,-83.19C668.89,-81.21 685.36,-79.13 700.82,-77.17"/>
<polygon fill="midnightblue" stroke="midnightblue" points="701.34,-80.64 710.82,-75.91 700.46,-73.69 701.34,-80.64"/>
</g>
<!-- Node12 -->
<g id="node12" class="node">
<title>Node12</title>
<g id="a_node12"><a xlink:href="a02029.html#a28f61f0f57b38a5249a11a725d9d692b" target="_top" xlink:title="Determine how many nodes are in this path.">
<polygon fill="white" stroke="black" points="711,-4.5 711,-34.5 830,-34.5 830,-4.5 711,-4.5"/>
<text text-anchor="start" x="719" y="-22.5" font-family="Helvetica,sans-Serif" font-size="10.00">HF::SpatialStructures</text>
<text text-anchor="middle" x="770.5" y="-11.5" font-family="Helvetica,sans-Serif" font-size="10.00">::Path::size</text>
</a>
</g>
</g>
<!-- Node7&#45;&gt;Node12 -->
<g id="edge11" class="edge">
<title>Node7&#45;&gt;Node12</title>
<path fill="none" stroke="midnightblue" d="M610.2,-77.46C631.91,-67.15 661.86,-53.57 689,-43.5 694.43,-41.49 700.11,-39.52 705.84,-37.63"/>
<polygon fill="midnightblue" stroke="midnightblue" points="707.03,-40.93 715.48,-34.54 704.89,-34.26 707.03,-40.93"/>
</g>
<!-- Node9 -->
<g id="node9" class="node">
<title>Node9</title>
<g id="a_node9"><a xlink:href="a00411.html#acc422c11342b31368f610b6f96fcedc6" target="_top" xlink:title=" ">
<polygon fill="white" stroke="black" points="888,-157 888,-176 1009,-176 1009,-157 888,-157"/>
<text text-anchor="middle" x="948.5" y="-164" font-family="Helvetica,sans-Serif" font-size="10.00">nlohmann::detail::get</text>
</a>
</g>
</g>
<!-- Node8&#45;&gt;Node9 -->
<g id="edge8" class="edge">
<title>Node8&#45;&gt;Node9</title>
<path fill="none" stroke="midnightblue" d="M852.03,-166.5C860.59,-166.5 869.24,-166.5 877.66,-166.5"/>
<polygon fill="midnightblue" stroke="midnightblue" points="877.8,-170 887.8,-166.5 877.8,-163 877.8,-170"/>
</g>
<!-- Node14 -->
<g id="node14" class="node">
<title>Node14</title>
<g id="a_node14"><a xlink:href="a00347.html#a1746287300e1f05c45d84f3837e24557" target="_top" xlink:title="Delete some object pointed to by ptr">
<polygon fill="white" stroke="black" points="349,-39 349,-58 432,-58 432,-39 349,-39"/>
<text text-anchor="middle" x="390.5" y="-46" font-family="Helvetica,sans-Serif" font-size="10.00">DeleteRawPtr</text>
</a>
</g>
</g>
<!-- Node13&#45;&gt;Node14 -->
<g id="edge14" class="edge">
<title>Node13&#45;&gt;Node14</title>
<path fill="none" stroke="midnightblue" d="M255.6,-57.11C279.89,-55.55 311.93,-53.49 338.58,-51.78"/>
<polygon fill="midnightblue" stroke="midnightblue" points="339.13,-55.25 348.88,-51.11 338.68,-48.26 339.13,-55.25"/>
</g>
</g>
</svg>
