<?xml version="1.0" encoding="UTF-8" standalone="no"?>
<!DOCTYPE svg PUBLIC "-//W3C//DTD SVG 1.1//EN"
 "http://www.w3.org/Graphics/SVG/1.1/DTD/svg11.dtd">
<!-- Generated by graphviz version 4.0.0 (20220529.0937)
 -->
<!-- Title: HF::Pathfinding::GenerateDistanceAndPred Pages: 1 -->
<svg width="332pt" height="127pt"
 viewBox="0.00 0.00 332.00 126.50" xmlns="http://www.w3.org/2000/svg" xmlns:xlink="http://www.w3.org/1999/xlink">
<g id="graph0" class="graph" transform="scale(1 1) rotate(0) translate(4 122.5)">
<title>HF::Pathfinding::GenerateDistanceAndPred</title>
<polygon fill="white" stroke="transparent" points="-4,4 -4,-122.5 328,-122.5 328,4 -4,4"/>
<!-- Node1 -->
<g id="node1" class="node">
<title>Node1</title>
<g id="a_node1"><a xlink:title="Generate the distance and predecessor matricies for a specific boost graph.">
<polygon fill="#bfbfbf" stroke="black" points="0,-49.5 0,-79.5 129,-79.5 129,-49.5 0,-49.5"/>
<text text-anchor="start" x="8" y="-67.5" font-family="Helvetica,sans-Serif" font-size="10.00">HF::Pathfinding::Generate</text>
<text text-anchor="middle" x="64.5" y="-56.5" font-family="Helvetica,sans-Serif" font-size="10.00">DistanceAndPred</text>
</a>
</g>
</g>
<!-- Node2 -->
<g id="node2" class="node">
<title>Node2</title>
<g id="a_node2"><a xlink:href="a00411.html#acc422c11342b31368f610b6f96fcedc6" target="_top" xlink:title=" ">
<polygon fill="white" stroke="black" points="191,-99 191,-118 298,-118 298,-99 191,-99"/>
<text text-anchor="middle" x="244.5" y="-106" font-family="Helvetica,sans-Serif" font-size="10.00">nlohmann::detail::get</text>
</a>
</g>
</g>
<!-- Node1&#45;&gt;Node2 -->
<g id="edge1" class="edge">
<title>Node1&#45;&gt;Node2</title>
<path fill="none" stroke="midnightblue" d="M124.93,-79.52C138.12,-82.83 152.03,-86.3 165,-89.5 174.4,-91.82 184.43,-94.27 194.08,-96.61"/>
<polygon fill="midnightblue" stroke="midnightblue" points="193.41,-100.05 203.95,-99 195.06,-93.24 193.41,-100.05"/>
</g>
<!-- Node3 -->
<g id="node3" class="node">
<title>Node3</title>
<g id="a_node3"><a xlink:href="a01329.html#a7237256578bb77a912babbc2f777756c" target="_top" xlink:title="Get a pointer to the beginning of the ith row of the distance array.">
<polygon fill="white" stroke="black" points="166.5,-49.5 166.5,-79.5 322.5,-79.5 322.5,-49.5 166.5,-49.5"/>
<text text-anchor="start" x="174.5" y="-67.5" font-family="Helvetica,sans-Serif" font-size="10.00">HF::Pathfinding::Distance</text>
<text text-anchor="middle" x="244.5" y="-56.5" font-family="Helvetica,sans-Serif" font-size="10.00">AndPredecessor::GetRowOfDist</text>
</a>
</g>
</g>
<!-- Node1&#45;&gt;Node3 -->
<g id="edge2" class="edge">
<title>Node1&#45;&gt;Node3</title>
<path fill="none" stroke="midnightblue" d="M129.01,-64.5C137.79,-64.5 146.92,-64.5 156.04,-64.5"/>
<polygon fill="midnightblue" stroke="midnightblue" points="156.31,-68 166.31,-64.5 156.31,-61 156.31,-68"/>
</g>
<!-- Node4 -->
<g id="node4" class="node">
<title>Node4</title>
<g id="a_node4"><a xlink:href="a01329.html#a4ab3579abd7bd4f18456e8e5022b51ca" target="_top" xlink:title="Get a pointer to the beginning of the ith row of the predecessor array.">
<polygon fill="white" stroke="black" points="165,-0.5 165,-30.5 324,-30.5 324,-0.5 165,-0.5"/>
<text text-anchor="start" x="173" y="-18.5" font-family="Helvetica,sans-Serif" font-size="10.00">HF::Pathfinding::Distance</text>
<text text-anchor="middle" x="244.5" y="-7.5" font-family="Helvetica,sans-Serif" font-size="10.00">AndPredecessor::GetRowOfPred</text>
</a>
</g>
</g>
<!-- Node1&#45;&gt;Node4 -->
<g id="edge3" class="edge">
<title>Node1&#45;&gt;Node4</title>
<path fill="none" stroke="midnightblue" d="M120.36,-49.4C138.89,-44.3 159.74,-38.56 178.95,-33.27"/>
<polygon fill="midnightblue" stroke="midnightblue" points="180.11,-36.58 188.82,-30.55 178.25,-29.83 180.11,-36.58"/>
</g>
</g>
</svg>
