<?xml version="1.0" encoding="UTF-8" standalone="no"?>
<!DOCTYPE svg PUBLIC "-//W3C//DTD SVG 1.1//EN"
 "http://www.w3.org/Graphics/SVG/1.1/DTD/svg11.dtd">
<!-- Generated by graphviz version 2.43.0 (0)
 -->
<!-- Title: CInterfaceTests::TEST Pages: 1 -->
<svg width="1162pt" height="271pt"
 viewBox="0.00 0.00 1162.00 271.00" xmlns="http://www.w3.org/2000/svg" xmlns:xlink="http://www.w3.org/1999/xlink">
<g id="graph0" class="graph" transform="scale(1 1) rotate(0) translate(4 267)">
<title>CInterfaceTests::TEST</title>
<polygon fill="white" stroke="transparent" points="-4,4 -4,-267 1158,-267 1158,4 -4,4"/>
<!-- Node1 -->
<g id="node1" class="node">
<title>Node1</title>
<g id="a_node1"><a xlink:title=" ">
<polygon fill="#bfbfbf" stroke="black" points="0,-167.5 0,-186.5 122,-186.5 122,-167.5 0,-167.5"/>
<text text-anchor="middle" x="61" y="-174.5" font-family="Helvetica,sans-Serif" font-size="10.00">CInterfaceTests::TEST</text>
</a>
</g>
</g>
<!-- Node2 -->
<g id="node2" class="node">
<title>Node2</title>
<g id="a_node2"><a xlink:href="a00391.html#ga3ac702d080e493d1fa8be6cf4243e38b" target="_top" xlink:title="Create a new raytracer using several meshes.">
<polygon fill="white" stroke="black" points="201.5,-243.5 201.5,-262.5 297.5,-262.5 297.5,-243.5 201.5,-243.5"/>
<text text-anchor="middle" x="249.5" y="-250.5" font-family="Helvetica,sans-Serif" font-size="10.00">CreateRaytracer</text>
</a>
</g>
</g>
<!-- Node1&#45;&gt;Node2 -->
<g id="edge1" class="edge">
<title>Node1&#45;&gt;Node2</title>
<path fill="none" stroke="midnightblue" d="M74.95,-186.59C92.76,-199.32 126.21,-221.62 158,-234 168.53,-238.1 180.11,-241.38 191.37,-243.99"/>
<polygon fill="midnightblue" stroke="midnightblue" points="190.63,-247.41 201.14,-246.1 192.11,-240.57 190.63,-247.41"/>
</g>
<!-- Node3 -->
<g id="node3" class="node">
<title>Node3</title>
<g id="a_node3"><a xlink:href="a00389.html#ga0ef9f7e63f067546b527947d4678dcd5" target="_top" xlink:title="Free the memory addressed by mesh_to_destroy, which was allocated by either LoadOBJ or StoreMesh.">
<polygon fill="white" stroke="black" points="199.5,-205.5 199.5,-224.5 299.5,-224.5 299.5,-205.5 199.5,-205.5"/>
<text text-anchor="middle" x="249.5" y="-212.5" font-family="Helvetica,sans-Serif" font-size="10.00">DestroyMeshInfo</text>
</a>
</g>
</g>
<!-- Node1&#45;&gt;Node3 -->
<g id="edge2" class="edge">
<title>Node1&#45;&gt;Node3</title>
<path fill="none" stroke="midnightblue" d="M109.06,-186.59C134.23,-191.72 165.4,-198.07 191.88,-203.46"/>
<polygon fill="midnightblue" stroke="midnightblue" points="191.28,-206.91 201.78,-205.48 192.68,-200.05 191.28,-206.91"/>
</g>
<!-- Node5 -->
<g id="node5" class="node">
<title>Node5</title>
<g id="a_node5"><a xlink:href="a00391.html#gac7ff0b75adf7d24754a702f09d5bcf07" target="_top" xlink:title="Delete an existing raytracer.">
<polygon fill="white" stroke="black" points="198,-167.5 198,-186.5 301,-186.5 301,-167.5 198,-167.5"/>
<text text-anchor="middle" x="249.5" y="-174.5" font-family="Helvetica,sans-Serif" font-size="10.00">DestroyRayTracer</text>
</a>
</g>
</g>
<!-- Node1&#45;&gt;Node5 -->
<g id="edge4" class="edge">
<title>Node1&#45;&gt;Node5</title>
<path fill="none" stroke="midnightblue" d="M122.04,-177C143.08,-177 166.73,-177 187.83,-177"/>
<polygon fill="midnightblue" stroke="midnightblue" points="187.96,-180.5 197.96,-177 187.96,-173.5 187.96,-180.5"/>
</g>
<!-- Node6 -->
<g id="node6" class="node">
<title>Node6</title>
<g id="a_node6"><a xlink:href="a00389.html#ga0805e80d13b29aeddc35f0bcf3f16a1a" target="_top" xlink:title="Load an obj from the given path then rotate it by x,y, and z.">
<polygon fill="white" stroke="black" points="221,-129.5 221,-148.5 278,-148.5 278,-129.5 221,-129.5"/>
<text text-anchor="middle" x="249.5" y="-136.5" font-family="Helvetica,sans-Serif" font-size="10.00">LoadOBJ</text>
</a>
</g>
</g>
<!-- Node1&#45;&gt;Node6 -->
<g id="edge5" class="edge">
<title>Node1&#45;&gt;Node6</title>
<path fill="none" stroke="midnightblue" d="M109.06,-167.41C140.63,-160.98 181.64,-152.62 211,-146.64"/>
<polygon fill="midnightblue" stroke="midnightblue" points="211.76,-150.06 220.86,-144.63 210.36,-143.2 211.76,-150.06"/>
</g>
<!-- Node10 -->
<g id="node10" class="node">
<title>Node10</title>
<g id="a_node10"><a xlink:href="a00393.html#gab6b8e3eab649b42ac014fb7d02d54892" target="_top" xlink:title="Conduct view analysis, then aggregate the results.">
<polygon fill="white" stroke="black" points="158,-88.5 158,-107.5 341,-107.5 341,-88.5 158,-88.5"/>
<text text-anchor="middle" x="249.5" y="-95.5" font-family="Helvetica,sans-Serif" font-size="10.00">SphereicalViewAnalysisAggregate</text>
</a>
</g>
</g>
<!-- Node1&#45;&gt;Node10 -->
<g id="edge9" class="edge">
<title>Node1&#45;&gt;Node10</title>
<path fill="none" stroke="midnightblue" d="M75.32,-167.34C93.26,-154.74 126.59,-132.81 158,-120 167.53,-116.11 177.92,-112.8 188.15,-110.01"/>
<polygon fill="midnightblue" stroke="midnightblue" points="189.06,-113.39 197.87,-107.5 187.31,-106.62 189.06,-113.39"/>
</g>
<!-- Node4 -->
<g id="node4" class="node">
<title>Node4</title>
<g id="a_node4"><a xlink:href="a00347.html#a1746287300e1f05c45d84f3837e24557" target="_top" xlink:title="Delete some object pointed to by ptr">
<polygon fill="white" stroke="black" points="423.5,-205.5 423.5,-224.5 506.5,-224.5 506.5,-205.5 423.5,-205.5"/>
<text text-anchor="middle" x="465" y="-212.5" font-family="Helvetica,sans-Serif" font-size="10.00">DeleteRawPtr</text>
</a>
</g>
</g>
<!-- Node3&#45;&gt;Node4 -->
<g id="edge3" class="edge">
<title>Node3&#45;&gt;Node4</title>
<path fill="none" stroke="midnightblue" d="M299.75,-215C333.68,-215 378.65,-215 412.96,-215"/>
<polygon fill="midnightblue" stroke="midnightblue" points="413.24,-218.5 423.24,-215 413.24,-211.5 413.24,-218.5"/>
</g>
<!-- Node7 -->
<g id="node7" class="node">
<title>Node7</title>
<g id="a_node7"><a xlink:href="a00389.html#gaa07792b399e76e6101388bb6bbb96047" target="_top" xlink:title="Get the ID of a mesh.">
<polygon fill="white" stroke="black" points="429.5,-167.5 429.5,-186.5 500.5,-186.5 500.5,-167.5 429.5,-167.5"/>
<text text-anchor="middle" x="465" y="-174.5" font-family="Helvetica,sans-Serif" font-size="10.00">GetMeshID</text>
</a>
</g>
</g>
<!-- Node6&#45;&gt;Node7 -->
<g id="edge6" class="edge">
<title>Node6&#45;&gt;Node7</title>
<path fill="none" stroke="midnightblue" d="M278.41,-143.97C314.23,-150.34 376.8,-161.48 419.29,-169.04"/>
<polygon fill="midnightblue" stroke="midnightblue" points="418.9,-172.53 429.36,-170.83 420.13,-165.64 418.9,-172.53"/>
</g>
<!-- Node8 -->
<g id="node8" class="node">
<title>Node8</title>
<g id="a_node8"><a xlink:href="a00403.html#a06c0c11adb62f8b204e42f75ac1990ac" target="_top" xlink:title="Create MeshInfo instances from the OBJ at path.">
<polygon fill="white" stroke="black" points="377,-129.5 377,-148.5 553,-148.5 553,-129.5 377,-129.5"/>
<text text-anchor="middle" x="465" y="-136.5" font-family="Helvetica,sans-Serif" font-size="10.00">HF::Geometry::LoadMeshObjects</text>
</a>
</g>
</g>
<!-- Node6&#45;&gt;Node8 -->
<g id="edge7" class="edge">
<title>Node6&#45;&gt;Node8</title>
<path fill="none" stroke="midnightblue" d="M278.41,-139C301.05,-139 334.39,-139 366.58,-139"/>
<polygon fill="midnightblue" stroke="midnightblue" points="366.98,-142.5 376.98,-139 366.98,-135.5 366.98,-142.5"/>
</g>
<!-- Node9 -->
<g id="node9" class="node">
<title>Node9</title>
<g id="a_node9"><a xlink:href="a00403.html#a4f0c57b862a0826821217d8c3ac849c4" target="_top" xlink:title=" ">
<polygon fill="white" stroke="black" points="601,-129.5 601,-148.5 735,-148.5 735,-129.5 601,-129.5"/>
<text text-anchor="middle" x="668" y="-136.5" font-family="Helvetica,sans-Serif" font-size="10.00">HF::Geometry::MeshInfo</text>
</a>
</g>
</g>
<!-- Node8&#45;&gt;Node9 -->
<g id="edge8" class="edge">
<title>Node8&#45;&gt;Node9</title>
<path fill="none" stroke="midnightblue" d="M553.28,-139C565.78,-139 578.56,-139 590.82,-139"/>
<polygon fill="midnightblue" stroke="midnightblue" points="590.98,-142.5 600.98,-139 590.98,-135.5 590.98,-142.5"/>
</g>
<!-- Node11 -->
<g id="node11" class="node">
<title>Node11</title>
<g id="a_node11"><a xlink:href="a00393.html#gad2ee55f78e191d1ff90e083ad49dc49e" target="_top" xlink:title="Conduct view analysis and recieve a summarized set of results for each node.">
<polygon fill="white" stroke="black" points="378.5,-80 378.5,-110 551.5,-110 551.5,-80 378.5,-80"/>
<text text-anchor="start" x="386.5" y="-98" font-family="Helvetica,sans-Serif" font-size="10.00">HF::ViewAnalysis::Spherical</text>
<text text-anchor="middle" x="465" y="-87" font-family="Helvetica,sans-Serif" font-size="10.00">RayshootWithAnyRTForDistance</text>
</a>
</g>
</g>
<!-- Node10&#45;&gt;Node11 -->
<g id="edge10" class="edge">
<title>Node10&#45;&gt;Node11</title>
<path fill="none" stroke="midnightblue" d="M341.04,-96.73C350.04,-96.6 359.2,-96.47 368.25,-96.35"/>
<polygon fill="midnightblue" stroke="midnightblue" points="368.46,-99.84 378.41,-96.2 368.36,-92.84 368.46,-99.84"/>
</g>
<!-- Node12 -->
<g id="node12" class="node">
<title>Node12</title>
<g id="a_node12"><a xlink:href="a00400.html#a38c197b654c753cb656ab60e88d65120" target="_top" xlink:title=" ">
<polygon fill="white" stroke="black" points="589.5,-88.5 589.5,-107.5 746.5,-107.5 746.5,-88.5 589.5,-88.5"/>
<text text-anchor="middle" x="668" y="-95.5" font-family="Helvetica,sans-Serif" font-size="10.00">HF::ViewAnalysis::Aggregate</text>
</a>
</g>
</g>
<!-- Node11&#45;&gt;Node12 -->
<g id="edge11" class="edge">
<title>Node11&#45;&gt;Node12</title>
<path fill="none" stroke="midnightblue" d="M551.53,-96.28C560.62,-96.41 569.87,-96.55 578.98,-96.69"/>
<polygon fill="midnightblue" stroke="midnightblue" points="579.14,-100.19 589.19,-96.84 579.24,-93.19 579.14,-100.19"/>
</g>
<!-- Node13 -->
<g id="node13" class="node">
<title>Node13</title>
<g id="a_node13"><a xlink:href="a00393.html#ga6ca336e3887ef82d17b0713c2bf862df" target="_top" xlink:title="Evenly distribute a set of points around a sphere centered at the origin.">
<polygon fill="white" stroke="black" points="589,-39 589,-69 747,-69 747,-39 589,-39"/>
<text text-anchor="start" x="597" y="-57" font-family="Helvetica,sans-Serif" font-size="10.00">HF::ViewAnalysis::Fibbonacci</text>
<text text-anchor="middle" x="668" y="-46" font-family="Helvetica,sans-Serif" font-size="10.00">DistributePoints</text>
</a>
</g>
</g>
<!-- Node11&#45;&gt;Node13 -->
<g id="edge12" class="edge">
<title>Node11&#45;&gt;Node13</title>
<path fill="none" stroke="midnightblue" d="M539.7,-79.97C553.9,-77.07 568.88,-74.02 583.37,-71.06"/>
<polygon fill="midnightblue" stroke="midnightblue" points="584.21,-74.46 593.31,-69.03 582.81,-67.6 584.21,-74.46"/>
</g>
<!-- Node14 -->
<g id="node14" class="node">
<title>Node14</title>
<g id="a_node14"><a xlink:href="a00400.html#ad171585ac55c35e394e26a2f80364a0f" target="_top" xlink:title=" ">
<polygon fill="white" stroke="black" points="783,-44.5 783,-63.5 961,-63.5 961,-44.5 783,-44.5"/>
<text text-anchor="middle" x="872" y="-51.5" font-family="Helvetica,sans-Serif" font-size="10.00">HF::ViewAnalysis::FibbonacciDist</text>
</a>
</g>
</g>
<!-- Node13&#45;&gt;Node14 -->
<g id="edge13" class="edge">
<title>Node13&#45;&gt;Node14</title>
<path fill="none" stroke="midnightblue" d="M747.1,-54C755.48,-54 764.08,-54 772.65,-54"/>
<polygon fill="midnightblue" stroke="midnightblue" points="772.69,-57.5 782.69,-54 772.69,-50.5 772.69,-57.5"/>
</g>
<!-- Node15 -->
<g id="node15" class="node">
<title>Node15</title>
<g id="a_node15"><a xlink:href="a00400.html#a94327f2628a43ffe3dc4ab854e8aa20d" target="_top" xlink:title=" ">
<polygon fill="white" stroke="black" points="1003,-88 1003,-118 1148,-118 1148,-88 1003,-88"/>
<text text-anchor="start" x="1011" y="-106" font-family="Helvetica,sans-Serif" font-size="10.00">HF::ViewAnalysis::Altitude</text>
<text text-anchor="middle" x="1075.5" y="-95" font-family="Helvetica,sans-Serif" font-size="10.00">WithinRange</text>
</a>
</g>
</g>
<!-- Node14&#45;&gt;Node15 -->
<g id="edge14" class="edge">
<title>Node14&#45;&gt;Node15</title>
<path fill="none" stroke="midnightblue" d="M912.33,-63.56C938.06,-69.82 972.44,-78.18 1002.92,-85.59"/>
<polygon fill="midnightblue" stroke="midnightblue" points="1002.12,-89 1012.66,-87.96 1003.77,-82.2 1002.12,-89"/>
</g>
<!-- Node16 -->
<g id="node16" class="node">
<title>Node16</title>
<g id="a_node16"><a xlink:href="a00400.html#a9dcf81751f63f5c7356a4f45159184bb" target="_top" xlink:title="Convert a number from degrees to radians.">
<polygon fill="white" stroke="black" points="1003,-39 1003,-69 1148,-69 1148,-39 1003,-39"/>
<text text-anchor="start" x="1011" y="-57" font-family="Helvetica,sans-Serif" font-size="10.00">HF::ViewAnalysis::Convert</text>
<text text-anchor="middle" x="1075.5" y="-46" font-family="Helvetica,sans-Serif" font-size="10.00">ToRadians</text>
</a>
</g>
</g>
<!-- Node14&#45;&gt;Node16 -->
<g id="edge15" class="edge">
<title>Node14&#45;&gt;Node16</title>
<path fill="none" stroke="midnightblue" d="M961.09,-54C971.57,-54 982.24,-54 992.63,-54"/>
<polygon fill="midnightblue" stroke="midnightblue" points="992.92,-57.5 1002.92,-54 992.92,-50.5 992.92,-57.5"/>
</g>
<!-- Node17 -->
<g id="node17" class="node">
<title>Node17</title>
<g id="a_node17"><a xlink:href="a00400.html#a38ed3d26d2fcc4bde1790c53eda3945a" target="_top" xlink:title="Normalize a vector.">
<polygon fill="white" stroke="black" points="997,-0.5 997,-19.5 1154,-19.5 1154,-0.5 997,-0.5"/>
<text text-anchor="middle" x="1075.5" y="-7.5" font-family="Helvetica,sans-Serif" font-size="10.00">HF::ViewAnalysis::Normalize</text>
</a>
</g>
</g>
<!-- Node14&#45;&gt;Node17 -->
<g id="edge16" class="edge">
<title>Node14&#45;&gt;Node17</title>
<path fill="none" stroke="midnightblue" d="M916.72,-44.45C947.35,-37.76 988.47,-28.79 1021.05,-21.67"/>
<polygon fill="midnightblue" stroke="midnightblue" points="1021.84,-25.08 1030.86,-19.53 1020.35,-18.24 1021.84,-25.08"/>
</g>
</g>
</svg>
