<?xml version="1.0" encoding="UTF-8" standalone="no"?>
<!DOCTYPE svg PUBLIC "-//W3C//DTD SVG 1.1//EN"
 "http://www.w3.org/Graphics/SVG/1.1/DTD/svg11.dtd">
<!-- Generated by graphviz version 4.0.0 (20220529.0937)
 -->
<!-- Title: HF::VisibilityGraph::AllToAllUndirected Pages: 1 -->
<svg width="936pt" height="181pt"
 viewBox="0.00 0.00 936.00 181.00" xmlns="http://www.w3.org/2000/svg" xmlns:xlink="http://www.w3.org/1999/xlink">
<g id="graph0" class="graph" transform="scale(1 1) rotate(0) translate(4 177)">
<title>HF::VisibilityGraph::AllToAllUndirected</title>
<polygon fill="white" stroke="transparent" points="-4,4 -4,-177 932,-177 932,4 -4,4"/>
<!-- Node1 -->
<g id="node1" class="node">
<title>Node1</title>
<g id="a_node1"><a xlink:title="Generate a Visibility Graph with every edge stored twice.">
<polygon fill="#bfbfbf" stroke="black" points="0,-71.5 0,-101.5 102,-101.5 102,-71.5 0,-71.5"/>
<text text-anchor="start" x="8" y="-89.5" font-family="Helvetica,sans-Serif" font-size="10.00">HF::VisibilityGraph</text>
<text text-anchor="middle" x="51" y="-78.5" font-family="Helvetica,sans-Serif" font-size="10.00">::AllToAllUndirected</text>
</a>
</g>
</g>
<!-- Node2 -->
<g id="node2" class="node">
<title>Node2</title>
<g id="a_node2"><a xlink:href="a02005.html#abbd66b566460f9557a373b5fbcc30bb1" target="_top" xlink:title="Calculate the distance between this node and n2.">
<polygon fill="white" stroke="black" points="291,-93.5 291,-123.5 401,-123.5 401,-93.5 291,-93.5"/>
<text text-anchor="start" x="299" y="-111.5" font-family="Helvetica,sans-Serif" font-size="10.00">HF::SpatialStructures</text>
<text text-anchor="middle" x="346" y="-100.5" font-family="Helvetica,sans-Serif" font-size="10.00">::Node::distanceTo</text>
</a>
</g>
</g>
<!-- Node1&#45;&gt;Node2 -->
<g id="edge1" class="edge">
<title>Node1&#45;&gt;Node2</title>
<path fill="none" stroke="midnightblue" d="M102.04,-90.26C151.4,-93.96 227.07,-99.65 280.84,-103.68"/>
<polygon fill="midnightblue" stroke="midnightblue" points="280.71,-107.18 290.95,-104.44 281.24,-100.2 280.71,-107.18"/>
</g>
<!-- Node3 -->
<g id="node3" class="node">
<title>Node3</title>
<g id="a_node3"><a xlink:href="a00401.html#a05b8a83ab27113369c95649470d864b9" target="_top" xlink:title="Obtain the indexes of all nodes that pass the HeightCheck.">
<polygon fill="white" stroke="black" points="138,-139.5 138,-169.5 255,-169.5 255,-139.5 138,-139.5"/>
<text text-anchor="start" x="146" y="-157.5" font-family="Helvetica,sans-Serif" font-size="10.00">HF::VisibilityGraph</text>
<text text-anchor="middle" x="196.5" y="-146.5" font-family="Helvetica,sans-Serif" font-size="10.00">::HeightCheckAllNodes</text>
</a>
</g>
</g>
<!-- Node1&#45;&gt;Node3 -->
<g id="edge2" class="edge">
<title>Node1&#45;&gt;Node3</title>
<path fill="none" stroke="midnightblue" d="M83.85,-101.59C104.66,-111.45 132.03,-124.42 154.46,-135.05"/>
<polygon fill="midnightblue" stroke="midnightblue" points="153.21,-138.33 163.74,-139.45 156.2,-132.01 153.21,-138.33"/>
</g>
<!-- Node8 -->
<g id="node8" class="node">
<title>Node8</title>
<g id="a_node8"><a xlink:href="a00401.html#a4d9cf77879eb78075f7f7b0a7e31119a" target="_top" xlink:title="Perform a line of sight check between two nodes.">
<polygon fill="white" stroke="black" points="141,-49.5 141,-79.5 252,-79.5 252,-49.5 141,-49.5"/>
<text text-anchor="start" x="149" y="-67.5" font-family="Helvetica,sans-Serif" font-size="10.00">HF::VisibilityGraph</text>
<text text-anchor="middle" x="196.5" y="-56.5" font-family="Helvetica,sans-Serif" font-size="10.00">::IsOcclusionBetween</text>
</a>
</g>
</g>
<!-- Node1&#45;&gt;Node8 -->
<g id="edge7" class="edge">
<title>Node1&#45;&gt;Node8</title>
<path fill="none" stroke="midnightblue" d="M102.19,-78.81C111.43,-77.39 121.19,-75.89 130.78,-74.42"/>
<polygon fill="midnightblue" stroke="midnightblue" points="131.34,-77.88 140.69,-72.9 130.28,-70.96 131.34,-77.88"/>
</g>
<!-- Node11 -->
<g id="node11" class="node">
<title>Node11</title>
<g id="a_node11"><a xlink:href="a01485.html#a2710af2a75976862d7a235793567d2f3" target="_top" xlink:title="Determine how many nodes are in the graph.">
<polygon fill="white" stroke="black" points="141.5,-0.5 141.5,-30.5 251.5,-30.5 251.5,-0.5 141.5,-0.5"/>
<text text-anchor="start" x="149.5" y="-18.5" font-family="Helvetica,sans-Serif" font-size="10.00">HF::SpatialStructures</text>
<text text-anchor="middle" x="196.5" y="-7.5" font-family="Helvetica,sans-Serif" font-size="10.00">::Graph::size</text>
</a>
</g>
</g>
<!-- Node1&#45;&gt;Node11 -->
<g id="edge12" class="edge">
<title>Node1&#45;&gt;Node11</title>
<path fill="none" stroke="midnightblue" d="M77.98,-71.38C94.85,-61.79 117.45,-49.37 138,-39.5 141.37,-37.88 144.87,-36.27 148.42,-34.68"/>
<polygon fill="midnightblue" stroke="midnightblue" points="150.06,-37.78 157.82,-30.56 147.26,-31.36 150.06,-37.78"/>
</g>
<!-- Node4 -->
<g id="node4" class="node">
<title>Node4</title>
<g id="a_node4"><a xlink:href="a00401.html#af811d21e4c49275521912df9254bb737" target="_top" xlink:title="Check if Node can be raised by height without clipping into any geometry.">
<polygon fill="white" stroke="black" points="297,-142.5 297,-172.5 395,-172.5 395,-142.5 297,-142.5"/>
<text text-anchor="start" x="305" y="-160.5" font-family="Helvetica,sans-Serif" font-size="10.00">HF::VisibilityGraph</text>
<text text-anchor="middle" x="346" y="-149.5" font-family="Helvetica,sans-Serif" font-size="10.00">::HeightCheck</text>
</a>
</g>
</g>
<!-- Node3&#45;&gt;Node4 -->
<g id="edge3" class="edge">
<title>Node3&#45;&gt;Node4</title>
<path fill="none" stroke="midnightblue" d="M255.37,-155.68C265.66,-155.89 276.39,-156.1 286.69,-156.31"/>
<polygon fill="midnightblue" stroke="midnightblue" points="286.75,-159.82 296.82,-156.52 286.89,-152.82 286.75,-159.82"/>
</g>
<!-- Node5 -->
<g id="node5" class="node">
<title>Node5</title>
<g id="a_node5"><a xlink:href="a01345.html#a3a7488f8e41c8a9e3dc9c334047c6457" target="_top" xlink:title="Determine if there is an intersection with any geometry.">
<polygon fill="white" stroke="black" points="437,-98.5 437,-128.5 574,-128.5 574,-98.5 437,-98.5"/>
<text text-anchor="start" x="445" y="-116.5" font-family="Helvetica,sans-Serif" font-size="10.00">HF::RayTracer::EmbreeRay</text>
<text text-anchor="middle" x="505.5" y="-105.5" font-family="Helvetica,sans-Serif" font-size="10.00">Tracer::Occluded</text>
</a>
</g>
</g>
<!-- Node4&#45;&gt;Node5 -->
<g id="edge4" class="edge">
<title>Node4&#45;&gt;Node5</title>
<path fill="none" stroke="midnightblue" d="M395.11,-144.06C409.51,-140.04 425.52,-135.56 440.76,-131.31"/>
<polygon fill="midnightblue" stroke="midnightblue" points="441.95,-134.61 450.63,-128.55 440.06,-127.87 441.95,-134.61"/>
</g>
<!-- Node6 -->
<g id="node6" class="node">
<title>Node6</title>
<g id="a_node6"><a xlink:href="a01345.html#ade19fda460dadd98769b347840bd305a" target="_top" xlink:title="Implementation for fundamental occlusion ray intersection.">
<polygon fill="white" stroke="black" points="610,-98.5 610,-128.5 747,-128.5 747,-98.5 610,-98.5"/>
<text text-anchor="start" x="618" y="-116.5" font-family="Helvetica,sans-Serif" font-size="10.00">HF::RayTracer::EmbreeRay</text>
<text text-anchor="middle" x="678.5" y="-105.5" font-family="Helvetica,sans-Serif" font-size="10.00">Tracer::Occluded_IMPL</text>
</a>
</g>
</g>
<!-- Node5&#45;&gt;Node6 -->
<g id="edge5" class="edge">
<title>Node5&#45;&gt;Node6</title>
<path fill="none" stroke="midnightblue" d="M574.08,-113.5C582.54,-113.5 591.24,-113.5 599.83,-113.5"/>
<polygon fill="midnightblue" stroke="midnightblue" points="599.85,-117 609.85,-113.5 599.85,-110 599.85,-117"/>
</g>
<!-- Node7 -->
<g id="node7" class="node">
<title>Node7</title>
<g id="a_node7"><a xlink:href="a00398.html#a76e5d26b5063f0e5b49b4ba835f1da93" target="_top" xlink:title=" ">
<polygon fill="white" stroke="black" points="783,-104 783,-123 928,-123 928,-104 783,-104"/>
<text text-anchor="middle" x="855.5" y="-111" font-family="Helvetica,sans-Serif" font-size="10.00">HF::RayTracer::ConstructRay</text>
</a>
</g>
</g>
<!-- Node6&#45;&gt;Node7 -->
<g id="edge6" class="edge">
<title>Node6&#45;&gt;Node7</title>
<path fill="none" stroke="midnightblue" d="M747.16,-113.5C755.59,-113.5 764.29,-113.5 772.9,-113.5"/>
<polygon fill="midnightblue" stroke="midnightblue" points="772.96,-117 782.96,-113.5 772.96,-110 772.96,-117"/>
</g>
<!-- Node8&#45;&gt;Node2 -->
<g id="edge10" class="edge">
<title>Node8&#45;&gt;Node2</title>
<path fill="none" stroke="midnightblue" d="M247.85,-79.52C259.77,-83.07 272.6,-86.9 284.9,-90.57"/>
<polygon fill="midnightblue" stroke="midnightblue" points="284.04,-93.97 294.63,-93.47 286.05,-87.26 284.04,-93.97"/>
</g>
<!-- Node8&#45;&gt;Node5 -->
<g id="edge11" class="edge">
<title>Node8&#45;&gt;Node5</title>
<path fill="none" stroke="midnightblue" d="M252.31,-66.81C293.49,-69.22 351.15,-74.04 401,-83.5 416.98,-86.53 434.05,-90.97 449.62,-95.5"/>
<polygon fill="midnightblue" stroke="midnightblue" points="449.02,-98.98 459.61,-98.48 451.02,-92.27 449.02,-98.98"/>
</g>
<!-- Node9 -->
<g id="node9" class="node">
<title>Node9</title>
<g id="a_node9"><a xlink:href="a02005.html#ad3f7898ef3178eef0c3579869a7f5c67" target="_top" xlink:title="Get the direction between this node and another node">
<polygon fill="white" stroke="black" points="291,-5.5 291,-35.5 401,-35.5 401,-5.5 291,-5.5"/>
<text text-anchor="start" x="299" y="-23.5" font-family="Helvetica,sans-Serif" font-size="10.00">HF::SpatialStructures</text>
<text text-anchor="middle" x="346" y="-12.5" font-family="Helvetica,sans-Serif" font-size="10.00">::Node::directionTo</text>
</a>
</g>
</g>
<!-- Node8&#45;&gt;Node9 -->
<g id="edge8" class="edge">
<title>Node8&#45;&gt;Node9</title>
<path fill="none" stroke="midnightblue" d="M247.85,-49.48C259.77,-45.93 272.6,-42.1 284.9,-38.43"/>
<polygon fill="midnightblue" stroke="midnightblue" points="286.05,-41.74 294.63,-35.53 284.04,-35.03 286.05,-41.74"/>
</g>
<!-- Node10 -->
<g id="node10" class="node">
<title>Node10</title>
<g id="a_node10"><a xlink:href="a00399.html#ad9a8f0f70b3f60ac5cb7889885d851d1" target="_top" xlink:title=" ">
<polygon fill="white" stroke="black" points="450.5,-5.5 450.5,-35.5 560.5,-35.5 560.5,-5.5 450.5,-5.5"/>
<text text-anchor="start" x="458.5" y="-23.5" font-family="Helvetica,sans-Serif" font-size="10.00">HF::SpatialStructures</text>
<text text-anchor="middle" x="505.5" y="-12.5" font-family="Helvetica,sans-Serif" font-size="10.00">::Normalize</text>
</a>
</g>
</g>
<!-- Node9&#45;&gt;Node10 -->
<g id="edge9" class="edge">
<title>Node9&#45;&gt;Node10</title>
<path fill="none" stroke="midnightblue" d="M401.2,-20.5C413.77,-20.5 427.27,-20.5 440.22,-20.5"/>
<polygon fill="midnightblue" stroke="midnightblue" points="440.46,-24 450.46,-20.5 440.46,-17 440.46,-24"/>
</g>
</g>
</svg>
