<?xml version="1.0" encoding="UTF-8" standalone="no"?>
<!DOCTYPE svg PUBLIC "-//W3C//DTD SVG 1.1//EN"
 "http://www.w3.org/Graphics/SVG/1.1/DTD/svg11.dtd">
<!-- Generated by graphviz version 7.0.2 (20221119.0110)
 -->
<!-- Title: nlohmann::detail::dtoa_impl::grisu2_round Pages: 1 -->
<svg width="740pt" height="86pt"
 viewBox="0.00 0.00 740.00 86.00" xmlns="http://www.w3.org/2000/svg" xmlns:xlink="http://www.w3.org/1999/xlink">
<g id="graph0" class="graph" transform="scale(1 1) rotate(0) translate(4 82)">
<title>nlohmann::detail::dtoa_impl::grisu2_round</title>
<!-- Node1 -->
<g id="node1" class="node">
<title>Node1</title>
<g id="a_node1"><a xlink:title=" ">
<polygon fill="#999999" stroke="#666666" points="732,-54 619,-54 619,-24 732,-24 732,-54"/>
<text text-anchor="start" x="627" y="-42" font-family="Helvetica,sans-Serif" font-size="10.00">nlohmann::detail::dtoa</text>
<text text-anchor="middle" x="675.5" y="-31" font-family="Helvetica,sans-Serif" font-size="10.00">_impl::grisu2_round</text>
</a>
</g>
</g>
<!-- Node2 -->
<g id="node2" class="node">
<title>Node2</title>
<g id="a_node2"><a xlink:href="a00413.html#a9b899c72b0e1e3dd46d75c2b4e6bcdfb" target="_top" xlink:title=" ">
<polygon fill="white" stroke="#666666" points="583,-54 467,-54 467,-24 583,-24 583,-54"/>
<text text-anchor="start" x="475" y="-42" font-family="Helvetica,sans-Serif" font-size="10.00">nlohmann::detail::dtoa</text>
<text text-anchor="middle" x="525" y="-31" font-family="Helvetica,sans-Serif" font-size="10.00">_impl::grisu2_digit_gen</text>
</a>
</g>
</g>
<!-- Node1&#45;&gt;Node2 -->
<g id="edge1" class="edge">
<title>Node1&#45;&gt;Node2</title>
<path fill="none" stroke="#63b8ff" d="M607.39,-39C599.25,-39 591,-39 583.02,-39"/>
<polygon fill="#63b8ff" stroke="#63b8ff" points="607.27,-42.5 617.27,-39 607.27,-35.5 607.27,-42.5"/>
</g>
<!-- Node3 -->
<g id="node3" class="node">
<title>Node3</title>
<g id="a_node3"><a xlink:href="a00413.html#a05b681dcb8569b9784c6dccfadb01633" target="_top" xlink:title=" ">
<polygon fill="white" stroke="#666666" points="431,-54 318,-54 318,-24 431,-24 431,-54"/>
<text text-anchor="start" x="326" y="-42" font-family="Helvetica,sans-Serif" font-size="10.00">nlohmann::detail::dtoa</text>
<text text-anchor="middle" x="374.5" y="-31" font-family="Helvetica,sans-Serif" font-size="10.00">_impl::grisu2</text>
</a>
</g>
</g>
<!-- Node2&#45;&gt;Node3 -->
<g id="edge2" class="edge">
<title>Node2&#45;&gt;Node3</title>
<path fill="none" stroke="#63b8ff" d="M455.31,-39C447.27,-39 439.13,-39 431.3,-39"/>
<polygon fill="#63b8ff" stroke="#63b8ff" points="455.07,-42.5 465.07,-39 455.07,-35.5 455.07,-42.5"/>
</g>
<!-- Node4 -->
<g id="node4" class="node">
<title>Node4</title>
<g id="a_node4"><a xlink:href="a00413.html#aab7a9670a4f4704a5d0347ad7588576b" target="_top" xlink:title=" ">
<polygon fill="white" stroke="#666666" points="282,-78 169,-78 169,-48 282,-48 282,-78"/>
<text text-anchor="start" x="177" y="-66" font-family="Helvetica,sans-Serif" font-size="10.00">nlohmann::detail::dtoa</text>
<text text-anchor="middle" x="225.5" y="-55" font-family="Helvetica,sans-Serif" font-size="10.00">_impl::grisu2</text>
</a>
</g>
</g>
<!-- Node3&#45;&gt;Node4 -->
<g id="edge3" class="edge">
<title>Node3&#45;&gt;Node4</title>
<path fill="none" stroke="#63b8ff" d="M306.29,-49.97C298.28,-51.28 290.17,-52.61 282.34,-53.88"/>
<polygon fill="#63b8ff" stroke="#63b8ff" points="306.71,-53.45 316.01,-48.39 305.58,-46.54 306.71,-53.45"/>
</g>
<!-- Node5 -->
<g id="node5" class="node">
<title>Node5</title>
<g id="a_node5"><a xlink:href="a00411.html#a4ceeb4ec7f2cd493dd9cf328044c1e3c" target="_top" xlink:title="generates a decimal representation of the floating&#45;point number value in [first, last).">
<polygon fill="white" stroke="#666666" points="276.5,-30 174.5,-30 174.5,0 276.5,0 276.5,-30"/>
<text text-anchor="start" x="182.5" y="-18" font-family="Helvetica,sans-Serif" font-size="10.00">nlohmann::detail::to</text>
<text text-anchor="middle" x="225.5" y="-7" font-family="Helvetica,sans-Serif" font-size="10.00">_chars</text>
</a>
</g>
</g>
<!-- Node3&#45;&gt;Node5 -->
<g id="edge4" class="edge">
<title>Node3&#45;&gt;Node5</title>
<path fill="none" stroke="#63b8ff" d="M306.31,-28.03C296.3,-26.4 286.13,-24.74 276.56,-23.17"/>
<polygon fill="#63b8ff" stroke="#63b8ff" points="305.58,-31.46 316.01,-29.61 306.71,-24.55 305.58,-31.46"/>
</g>
<!-- Node6 -->
<g id="node6" class="node">
<title>Node6</title>
<g id="a_node6"><a xlink:href="a01989.html#a24b0fe45dc774441237bde198a133d8a" target="_top" xlink:title=" ">
<polygon fill="white" stroke="#666666" points="133,-30 0,-30 0,0 133,0 133,-30"/>
<text text-anchor="start" x="8" y="-18" font-family="Helvetica,sans-Serif" font-size="10.00">nlohmann::detail::serializer</text>
<text text-anchor="middle" x="66.5" y="-7" font-family="Helvetica,sans-Serif" font-size="10.00">::dump_float</text>
</a>
</g>
</g>
<!-- Node5&#45;&gt;Node6 -->
<g id="edge5" class="edge">
<title>Node5&#45;&gt;Node6</title>
<path fill="none" stroke="#63b8ff" d="M163.17,-15C153.43,-15 143.31,-15 133.47,-15"/>
<polygon fill="#63b8ff" stroke="#63b8ff" points="162.88,-18.5 172.88,-15 162.88,-11.5 162.88,-18.5"/>
</g>
</g>
</svg>
