<?xml version="1.0" encoding="UTF-8" standalone="no"?>
<!DOCTYPE svg PUBLIC "-//W3C//DTD SVG 1.1//EN"
 "http://www.w3.org/Graphics/SVG/1.1/DTD/svg11.dtd">
<!-- Generated by graphviz version 7.0.3 (20221126.0506)
 -->
<!-- Title: nlohmann::detail::dtoa_impl::grisu2 Pages: 1 -->
<svg width="621pt" height="242pt"
 viewBox="0.00 0.00 621.00 242.00" xmlns="http://www.w3.org/2000/svg" xmlns:xlink="http://www.w3.org/1999/xlink">
<g id="graph0" class="graph" transform="scale(1 1) rotate(0) translate(4 238)">
<title>nlohmann::detail::dtoa_impl::grisu2</title>
<!-- Node1 -->
<g id="node1" class="node">
<title>Node1</title>
<g id="a_node1"><a xlink:title=" ">
<polygon fill="#999999" stroke="#666666" points="113,-132 0,-132 0,-102 113,-102 113,-132"/>
<text text-anchor="start" x="8" y="-120" font-family="Helvetica,sans-Serif" font-size="10.00">nlohmann::detail::dtoa</text>
<text text-anchor="middle" x="56.5" y="-109" font-family="Helvetica,sans-Serif" font-size="10.00">_impl::grisu2</text>
</a>
</g>
</g>
<!-- Node2 -->
<g id="node2" class="node">
<title>Node2</title>
<g id="a_node2"><a xlink:href="a00413.html#a22b6e37654ac93c6d0d9c06ec1bf5ded" target="_top" xlink:title=" ">
<polygon fill="white" stroke="#666666" points="285,-186 149,-186 149,-156 285,-156 285,-186"/>
<text text-anchor="start" x="157" y="-174" font-family="Helvetica,sans-Serif" font-size="10.00">nlohmann::detail::dtoa</text>
<text text-anchor="middle" x="217" y="-163" font-family="Helvetica,sans-Serif" font-size="10.00">_impl::compute_boundaries</text>
</a>
</g>
</g>
<!-- Node1&#45;&gt;Node2 -->
<g id="edge1" class="edge">
<title>Node1&#45;&gt;Node2</title>
<path fill="none" stroke="#63b8ff" d="M102.92,-132.47C120.66,-138.52 141.19,-145.51 159.84,-151.87"/>
<polygon fill="#63b8ff" stroke="#63b8ff" points="158.55,-155.12 169.14,-155.04 160.8,-148.5 158.55,-155.12"/>
</g>
<!-- Node5 -->
<g id="node5" class="node">
<title>Node5</title>
<g id="a_node5"><a xlink:href="a00413.html#a05b681dcb8569b9784c6dccfadb01633" target="_top" xlink:title=" ">
<polygon fill="white" stroke="#666666" points="273.5,-105 160.5,-105 160.5,-75 273.5,-75 273.5,-105"/>
<text text-anchor="start" x="168.5" y="-93" font-family="Helvetica,sans-Serif" font-size="10.00">nlohmann::detail::dtoa</text>
<text text-anchor="middle" x="217" y="-82" font-family="Helvetica,sans-Serif" font-size="10.00">_impl::grisu2</text>
</a>
</g>
</g>
<!-- Node1&#45;&gt;Node5 -->
<g id="edge4" class="edge">
<title>Node1&#45;&gt;Node5</title>
<path fill="none" stroke="#63b8ff" d="M113.38,-107.48C124.86,-105.52 137.06,-103.45 148.9,-101.43"/>
<polygon fill="#63b8ff" stroke="#63b8ff" points="149.33,-104.91 158.6,-99.78 148.15,-98.01 149.33,-104.91"/>
</g>
<!-- Node3 -->
<g id="node3" class="node">
<title>Node3</title>
<g id="a_node3"><a xlink:href="a01977.html#a2246b5b40c7c6992153ef174063d6aa6" target="_top" xlink:title="normalize x such that the significand is &gt;= 2^(q&#45;1)">
<polygon fill="white" stroke="#666666" points="442,-234 328,-234 328,-204 442,-204 442,-234"/>
<text text-anchor="start" x="336" y="-222" font-family="Helvetica,sans-Serif" font-size="10.00">nlohmann::detail::dtoa</text>
<text text-anchor="middle" x="385" y="-211" font-family="Helvetica,sans-Serif" font-size="10.00">_impl::diyfp::normalize</text>
</a>
</g>
</g>
<!-- Node2&#45;&gt;Node3 -->
<g id="edge2" class="edge">
<title>Node2&#45;&gt;Node3</title>
<path fill="none" stroke="#63b8ff" d="M271.44,-186.45C286.84,-190.91 303.8,-195.81 319.79,-200.43"/>
<polygon fill="#63b8ff" stroke="#63b8ff" points="318.63,-203.74 329.21,-203.16 320.57,-197.02 318.63,-203.74"/>
</g>
<!-- Node4 -->
<g id="node4" class="node">
<title>Node4</title>
<g id="a_node4"><a xlink:href="a01977.html#a6b6665e467ebabe0c0f7418d3fe4b118" target="_top" xlink:title="normalize x such that the result has the exponent E">
<polygon fill="white" stroke="#666666" points="449,-186 321,-186 321,-156 449,-156 449,-186"/>
<text text-anchor="start" x="329" y="-174" font-family="Helvetica,sans-Serif" font-size="10.00">nlohmann::detail::dtoa</text>
<text text-anchor="middle" x="385" y="-163" font-family="Helvetica,sans-Serif" font-size="10.00">_impl::diyfp::normalize_to</text>
</a>
</g>
</g>
<!-- Node2&#45;&gt;Node4 -->
<g id="edge3" class="edge">
<title>Node2&#45;&gt;Node4</title>
<path fill="none" stroke="#63b8ff" d="M285.04,-171C293.05,-171 301.27,-171 309.38,-171"/>
<polygon fill="#63b8ff" stroke="#63b8ff" points="309.23,-174.5 319.23,-171 309.23,-167.5 309.23,-174.5"/>
</g>
<!-- Node6 -->
<g id="node6" class="node">
<title>Node6</title>
<g id="a_node6"><a xlink:href="a00413.html#adbf329a18c5cf854a3477327afd2200b" target="_top" xlink:title=" ">
<polygon fill="white" stroke="#666666" points="448.5,-137.5 321.5,-137.5 321.5,-96.5 448.5,-96.5 448.5,-137.5"/>
<text text-anchor="start" x="329.5" y="-125.5" font-family="Helvetica,sans-Serif" font-size="10.00">nlohmann::detail::dtoa</text>
<text text-anchor="start" x="329.5" y="-114.5" font-family="Helvetica,sans-Serif" font-size="10.00">_impl::get_cached_power</text>
<text text-anchor="middle" x="385" y="-103.5" font-family="Helvetica,sans-Serif" font-size="10.00">_for_binary_exponent</text>
</a>
</g>
</g>
<!-- Node5&#45;&gt;Node6 -->
<g id="edge5" class="edge">
<title>Node5&#45;&gt;Node6</title>
<path fill="none" stroke="#63b8ff" d="M273.74,-99.07C285.42,-100.97 297.91,-103 310.14,-104.99"/>
<polygon fill="#63b8ff" stroke="#63b8ff" points="309.33,-108.4 319.77,-106.55 310.46,-101.49 309.33,-108.4"/>
</g>
<!-- Node7 -->
<g id="node7" class="node">
<title>Node7</title>
<g id="a_node7"><a xlink:href="a00413.html#a9b899c72b0e1e3dd46d75c2b4e6bcdfb" target="_top" xlink:title=" ">
<polygon fill="white" stroke="#666666" points="443,-78 327,-78 327,-48 443,-48 443,-78"/>
<text text-anchor="start" x="335" y="-66" font-family="Helvetica,sans-Serif" font-size="10.00">nlohmann::detail::dtoa</text>
<text text-anchor="middle" x="385" y="-55" font-family="Helvetica,sans-Serif" font-size="10.00">_impl::grisu2_digit_gen</text>
</a>
</g>
</g>
<!-- Node5&#45;&gt;Node7 -->
<g id="edge6" class="edge">
<title>Node5&#45;&gt;Node7</title>
<path fill="none" stroke="#63b8ff" d="M273.74,-80.93C287.19,-78.75 301.72,-76.38 315.67,-74.11"/>
<polygon fill="#63b8ff" stroke="#63b8ff" points="315.91,-77.62 325.22,-72.56 314.78,-70.71 315.91,-77.62"/>
</g>
<!-- Node11 -->
<g id="node11" class="node">
<title>Node11</title>
<g id="a_node11"><a xlink:href="a01977.html#aa5f250d12ce89c81fdb08900c6a823e8" target="_top" xlink:title="returns x * y">
<polygon fill="white" stroke="#666666" points="441.5,-30 328.5,-30 328.5,0 441.5,0 441.5,-30"/>
<text text-anchor="start" x="336.5" y="-18" font-family="Helvetica,sans-Serif" font-size="10.00">nlohmann::detail::dtoa</text>
<text text-anchor="middle" x="385" y="-7" font-family="Helvetica,sans-Serif" font-size="10.00">_impl::diyfp::mul</text>
</a>
</g>
</g>
<!-- Node5&#45;&gt;Node11 -->
<g id="edge10" class="edge">
<title>Node5&#45;&gt;Node11</title>
<path fill="none" stroke="#63b8ff" d="M247.39,-74.51C267.81,-63.98 295.77,-50.02 321,-39 324.32,-37.55 327.77,-36.09 331.25,-34.66"/>
<polygon fill="#63b8ff" stroke="#63b8ff" points="332.37,-37.99 340.35,-31.02 329.76,-31.49 332.37,-37.99"/>
</g>
<!-- Node8 -->
<g id="node8" class="node">
<title>Node8</title>
<g id="a_node8"><a xlink:href="a00413.html#a36ded358763b5dbcea9867660fbe4e28" target="_top" xlink:title=" ">
<polygon fill="white" stroke="#666666" points="613,-126 485,-126 485,-96 613,-96 613,-126"/>
<text text-anchor="start" x="493" y="-114" font-family="Helvetica,sans-Serif" font-size="10.00">nlohmann::detail::dtoa</text>
<text text-anchor="middle" x="549" y="-103" font-family="Helvetica,sans-Serif" font-size="10.00">_impl::find_largest_pow10</text>
</a>
</g>
</g>
<!-- Node7&#45;&gt;Node8 -->
<g id="edge7" class="edge">
<title>Node7&#45;&gt;Node8</title>
<path fill="none" stroke="#63b8ff" d="M438.15,-78.45C453.18,-82.91 469.74,-87.81 485.33,-92.43"/>
<polygon fill="#63b8ff" stroke="#63b8ff" points="483.91,-95.66 494.5,-95.15 485.9,-88.95 483.91,-95.66"/>
</g>
<!-- Node9 -->
<g id="node9" class="node">
<title>Node9</title>
<g id="a_node9"><a xlink:href="a00413.html#a5bc841e0bee12fd6489d49cf7bd07bb4" target="_top" xlink:title=" ">
<polygon fill="white" stroke="#666666" points="605.5,-78 492.5,-78 492.5,-48 605.5,-48 605.5,-78"/>
<text text-anchor="start" x="500.5" y="-66" font-family="Helvetica,sans-Serif" font-size="10.00">nlohmann::detail::dtoa</text>
<text text-anchor="middle" x="549" y="-55" font-family="Helvetica,sans-Serif" font-size="10.00">_impl::grisu2_round</text>
</a>
</g>
</g>
<!-- Node7&#45;&gt;Node9 -->
<g id="edge8" class="edge">
<title>Node7&#45;&gt;Node9</title>
<path fill="none" stroke="#63b8ff" d="M443.12,-63C455.32,-63 468.32,-63 480.86,-63"/>
<polygon fill="#63b8ff" stroke="#63b8ff" points="480.7,-66.5 490.7,-63 480.7,-59.5 480.7,-66.5"/>
</g>
<!-- Node10 -->
<g id="node10" class="node">
<title>Node10</title>
<g id="a_node10"><a xlink:href="a01977.html#aeb26771af54ad73598c1a0430d65d884" target="_top" xlink:title="returns x &#45; y">
<polygon fill="white" stroke="#666666" points="605.5,-30 492.5,-30 492.5,0 605.5,0 605.5,-30"/>
<text text-anchor="start" x="500.5" y="-18" font-family="Helvetica,sans-Serif" font-size="10.00">nlohmann::detail::dtoa</text>
<text text-anchor="middle" x="549" y="-7" font-family="Helvetica,sans-Serif" font-size="10.00">_impl::diyfp::sub</text>
</a>
</g>
</g>
<!-- Node7&#45;&gt;Node10 -->
<g id="edge9" class="edge">
<title>Node7&#45;&gt;Node10</title>
<path fill="none" stroke="#63b8ff" d="M438.15,-47.55C453.18,-43.09 469.74,-38.19 485.33,-33.57"/>
<polygon fill="#63b8ff" stroke="#63b8ff" points="485.9,-37.05 494.5,-30.85 483.91,-30.34 485.9,-37.05"/>
</g>
</g>
</svg>
