<?xml version="1.0" encoding="UTF-8" standalone="no"?>
<!DOCTYPE svg PUBLIC "-//W3C//DTD SVG 1.1//EN"
 "http://www.w3.org/Graphics/SVG/1.1/DTD/svg11.dtd">
<!-- Generated by graphviz version 2.43.0 (0)
 -->
<!-- Title: HF::SpatialStructures::CostAlgorithms::euclidean_distance Pages: 1 -->
<svg width="335pt" height="78pt"
 viewBox="0.00 0.00 335.00 77.50" xmlns="http://www.w3.org/2000/svg" xmlns:xlink="http://www.w3.org/1999/xlink">
<g id="graph0" class="graph" transform="scale(1 1) rotate(0) translate(4 73.5)">
<title>HF::SpatialStructures::CostAlgorithms::euclidean_distance</title>
<polygon fill="white" stroke="transparent" points="-4,4 -4,-73.5 331,-73.5 331,4 -4,4"/>
<!-- Node1 -->
<g id="node1" class="node">
<title>Node1</title>
<g id="a_node1"><a xlink:title=" ">
<polygon fill="#bfbfbf" stroke="black" points="176,-11.5 176,-52.5 327,-52.5 327,-11.5 176,-11.5"/>
<text text-anchor="start" x="184" y="-40.5" font-family="Helvetica,sans-Serif" font-size="10.00">HF::SpatialStructures</text>
<text text-anchor="start" x="184" y="-29.5" font-family="Helvetica,sans-Serif" font-size="10.00">::CostAlgorithms::euclidean</text>
<text text-anchor="middle" x="251.5" y="-18.5" font-family="Helvetica,sans-Serif" font-size="10.00">_distance</text>
</a>
</g>
</g>
<!-- Node2 -->
<g id="node2" class="node">
<title>Node2</title>
<g id="a_node2"><a xlink:href="a00415.html#ab2149e4c817260abb3ab1e46e15598a8" target="_top" xlink:title=" ">
<polygon fill="white" stroke="black" points="12,-39 12,-69 128,-69 128,-39 12,-39"/>
<text text-anchor="start" x="20" y="-57" font-family="Helvetica,sans-Serif" font-size="10.00">CostAlgorithmsTests</text>
<text text-anchor="middle" x="70" y="-46" font-family="Helvetica,sans-Serif" font-size="10.00">::TEST</text>
</a>
</g>
</g>
<!-- Node1&#45;&gt;Node2 -->
<g id="edge1" class="edge">
<title>Node1&#45;&gt;Node2</title>
<path fill="none" stroke="midnightblue" d="M165.75,-42.39C152.99,-43.95 140.09,-45.53 128.09,-47"/>
<polygon fill="midnightblue" stroke="midnightblue" points="166.44,-45.83 175.94,-41.14 165.58,-38.88 166.44,-45.83"/>
</g>
<!-- Node3 -->
<g id="node3" class="node">
<title>Node3</title>
<g id="a_node3"><a xlink:href="a00419.html#ae531762b8a1cc3bec235915b2f91161e" target="_top" xlink:title=" ">
<polygon fill="white" stroke="black" points="0,-0.5 0,-19.5 140,-19.5 140,-0.5 0,-0.5"/>
<text text-anchor="middle" x="70" y="-7.5" font-family="Helvetica,sans-Serif" font-size="10.00">NodeExampleTests::TEST</text>
</a>
</g>
</g>
<!-- Node1&#45;&gt;Node3 -->
<g id="edge2" class="edge">
<title>Node1&#45;&gt;Node3</title>
<path fill="none" stroke="midnightblue" d="M165.87,-21.63C157.26,-20.57 148.58,-19.51 140.16,-18.48"/>
<polygon fill="midnightblue" stroke="midnightblue" points="165.58,-25.12 175.94,-22.86 166.44,-18.17 165.58,-25.12"/>
</g>
</g>
</svg>
