<?xml version="1.0" encoding="UTF-8" standalone="no"?>
<!DOCTYPE svg PUBLIC "-//W3C//DTD SVG 1.1//EN"
 "http://www.w3.org/Graphics/SVG/1.1/DTD/svg11.dtd">
<!-- Generated by graphviz version 5.0.0 (20220707.1540)
 -->
<!-- Title: HF::SpatialStructures::CostAlgorithms::CalculateEnergyExpenditure Pages: 1 -->
<svg width="634pt" height="229pt"
 viewBox="0.00 0.00 634.00 228.50" xmlns="http://www.w3.org/2000/svg" xmlns:xlink="http://www.w3.org/1999/xlink">
<g id="graph0" class="graph" transform="scale(1 1) rotate(0) translate(4 224.5)">
<title>HF::SpatialStructures::CostAlgorithms::CalculateEnergyExpenditure</title>
<polygon fill="white" stroke="transparent" points="-4,4 -4,-224.5 630,-224.5 630,4 -4,4"/>
<!-- Node1 -->
<g id="node1" class="node">
<title>Node1</title>
<g id="a_node1"><a xlink:title=" ">
<polygon fill="#bfbfbf" stroke="black" points="0,-44 0,-85 136,-85 136,-44 0,-44"/>
<text text-anchor="start" x="8" y="-73" font-family="Helvetica,sans-Serif" font-size="10.00">HF::SpatialStructures</text>
<text text-anchor="start" x="8" y="-62" font-family="Helvetica,sans-Serif" font-size="10.00">::CostAlgorithms::Calculate</text>
<text text-anchor="middle" x="68" y="-51" font-family="Helvetica,sans-Serif" font-size="10.00">EnergyExpenditure</text>
</a>
</g>
</g>
<!-- Node2 -->
<g id="node2" class="node">
<title>Node2</title>
<g id="a_node2"><a xlink:href="a00409.html#ac51f2e76c00356f8a6145bee865cd922" target="_top" xlink:title=" ">
<polygon fill="white" stroke="black" points="172,-99 172,-140 308,-140 308,-99 172,-99"/>
<text text-anchor="start" x="180" y="-128" font-family="Helvetica,sans-Serif" font-size="10.00">HF::SpatialStructures</text>
<text text-anchor="start" x="180" y="-117" font-family="Helvetica,sans-Serif" font-size="10.00">::CostAlgorithms::Calculate</text>
<text text-anchor="middle" x="240" y="-106" font-family="Helvetica,sans-Serif" font-size="10.00">EnergyExpenditure</text>
</a>
</g>
</g>
<!-- Node1&#45;&gt;Node2 -->
<g id="edge1" class="edge">
<title>Node1&#45;&gt;Node2</title>
<path fill="none" stroke="midnightblue" d="M132.79,-85.14C143.57,-88.63 154.84,-92.27 165.84,-95.83"/>
<polygon fill="midnightblue" stroke="midnightblue" points="164.83,-99.18 175.42,-98.93 166.99,-92.52 164.83,-99.18"/>
</g>
<!-- Node9 -->
<g id="node9" class="node">
<title>Node9</title>
<g id="a_node9"><a xlink:href="a01485.html#a89250c619a726fd0adbd71778d166887" target="_top" xlink:title="Retrieves a Subgraph using a Node.">
<polygon fill="white" stroke="black" points="184,-49.5 184,-79.5 296,-79.5 296,-49.5 184,-49.5"/>
<text text-anchor="start" x="192" y="-67.5" font-family="Helvetica,sans-Serif" font-size="10.00">HF::SpatialStructures</text>
<text text-anchor="middle" x="240" y="-56.5" font-family="Helvetica,sans-Serif" font-size="10.00">::Graph::GetSubgraph</text>
</a>
</g>
</g>
<!-- Node1&#45;&gt;Node9 -->
<g id="edge8" class="edge">
<title>Node1&#45;&gt;Node9</title>
<path fill="none" stroke="midnightblue" d="M136.19,-64.5C148.51,-64.5 161.36,-64.5 173.64,-64.5"/>
<polygon fill="midnightblue" stroke="midnightblue" points="173.78,-68 183.78,-64.5 173.78,-61 173.78,-68"/>
</g>
<!-- Node10 -->
<g id="node10" class="node">
<title>Node10</title>
<g id="a_node10"><a xlink:href="a01485.html#aa70347b8a33b57c6f0a72d6eca4248d7" target="_top" xlink:title="Get a list of nodes from the graph sorted by ID.">
<polygon fill="white" stroke="black" points="185,-0.5 185,-30.5 295,-30.5 295,-0.5 185,-0.5"/>
<text text-anchor="start" x="193" y="-18.5" font-family="Helvetica,sans-Serif" font-size="10.00">HF::SpatialStructures</text>
<text text-anchor="middle" x="240" y="-7.5" font-family="Helvetica,sans-Serif" font-size="10.00">::Graph::Nodes</text>
</a>
</g>
</g>
<!-- Node1&#45;&gt;Node10 -->
<g id="edge9" class="edge">
<title>Node1&#45;&gt;Node10</title>
<path fill="none" stroke="midnightblue" d="M136.19,-45.13C149.57,-41.28 163.58,-37.24 176.79,-33.43"/>
<polygon fill="midnightblue" stroke="midnightblue" points="178.07,-36.7 186.71,-30.57 176.13,-29.98 178.07,-36.7"/>
</g>
<!-- Node3 -->
<g id="node3" class="node">
<title>Node3</title>
<g id="a_node3"><a xlink:href="a00409.html#ae06eb693d0d7858d7a863fae3a6eee2c" target="_top" xlink:title=" ">
<polygon fill="white" stroke="black" points="344,-179 344,-220 480,-220 480,-179 344,-179"/>
<text text-anchor="start" x="352" y="-208" font-family="Helvetica,sans-Serif" font-size="10.00">HF::SpatialStructures</text>
<text text-anchor="start" x="352" y="-197" font-family="Helvetica,sans-Serif" font-size="10.00">::CostAlgorithms::Calculate</text>
<text text-anchor="middle" x="412" y="-186" font-family="Helvetica,sans-Serif" font-size="10.00">Slope</text>
</a>
</g>
</g>
<!-- Node2&#45;&gt;Node3 -->
<g id="edge2" class="edge">
<title>Node2&#45;&gt;Node3</title>
<path fill="none" stroke="midnightblue" d="M284.05,-140.11C302.49,-148.9 324.28,-159.25 344,-168.5 348.27,-170.5 352.7,-172.57 357.15,-174.65"/>
<polygon fill="midnightblue" stroke="midnightblue" points="355.74,-177.85 366.28,-178.89 358.69,-171.5 355.74,-177.85"/>
</g>
<!-- Node5 -->
<g id="node5" class="node">
<title>Node5</title>
<g id="a_node5"><a xlink:href="a02005.html#ad3f7898ef3178eef0c3579869a7f5c67" target="_top" xlink:title="Get the direction between this node and another node">
<polygon fill="white" stroke="black" points="357,-129.5 357,-159.5 467,-159.5 467,-129.5 357,-129.5"/>
<text text-anchor="start" x="365" y="-147.5" font-family="Helvetica,sans-Serif" font-size="10.00">HF::SpatialStructures</text>
<text text-anchor="middle" x="412" y="-136.5" font-family="Helvetica,sans-Serif" font-size="10.00">::Node::directionTo</text>
</a>
</g>
</g>
<!-- Node2&#45;&gt;Node5 -->
<g id="edge4" class="edge">
<title>Node2&#45;&gt;Node5</title>
<path fill="none" stroke="midnightblue" d="M308.19,-129.38C320.93,-131.25 334.23,-133.21 346.88,-135.07"/>
<polygon fill="midnightblue" stroke="midnightblue" points="346.45,-138.54 356.85,-136.54 347.47,-131.62 346.45,-138.54"/>
</g>
<!-- Node7 -->
<g id="node7" class="node">
<title>Node7</title>
<g id="a_node7"><a xlink:href="a02005.html#abbd66b566460f9557a373b5fbcc30bb1" target="_top" xlink:title="Calculate the distance between this node and n2.">
<polygon fill="white" stroke="black" points="357,-80.5 357,-110.5 467,-110.5 467,-80.5 357,-80.5"/>
<text text-anchor="start" x="365" y="-98.5" font-family="Helvetica,sans-Serif" font-size="10.00">HF::SpatialStructures</text>
<text text-anchor="middle" x="412" y="-87.5" font-family="Helvetica,sans-Serif" font-size="10.00">::Node::distanceTo</text>
</a>
</g>
</g>
<!-- Node2&#45;&gt;Node7 -->
<g id="edge6" class="edge">
<title>Node2&#45;&gt;Node7</title>
<path fill="none" stroke="midnightblue" d="M308.19,-110.01C320.93,-108.22 334.23,-106.34 346.88,-104.55"/>
<polygon fill="midnightblue" stroke="midnightblue" points="347.44,-108.01 356.85,-103.14 346.46,-101.08 347.44,-108.01"/>
</g>
<!-- Node8 -->
<g id="node8" class="node">
<title>Node8</title>
<g id="a_node8"><a xlink:href="a00409.html#ae7b446fefe0b9994859f47b85de79039" target="_top" xlink:title=" ">
<polygon fill="white" stroke="black" points="357,-20 357,-61 467,-61 467,-20 357,-20"/>
<text text-anchor="start" x="365" y="-49" font-family="Helvetica,sans-Serif" font-size="10.00">HF::SpatialStructures</text>
<text text-anchor="start" x="365" y="-38" font-family="Helvetica,sans-Serif" font-size="10.00">::CostAlgorithms::to</text>
<text text-anchor="middle" x="412" y="-27" font-family="Helvetica,sans-Serif" font-size="10.00">_radians</text>
</a>
</g>
</g>
<!-- Node2&#45;&gt;Node8 -->
<g id="edge7" class="edge">
<title>Node2&#45;&gt;Node8</title>
<path fill="none" stroke="midnightblue" d="M286.14,-98.84C293.46,-95.42 300.96,-91.89 308,-88.5 324.12,-80.74 327.83,-78.16 344,-70.5 347.59,-68.8 351.3,-67.07 355.05,-65.34"/>
<polygon fill="midnightblue" stroke="midnightblue" points="356.75,-68.41 364.39,-61.06 353.84,-62.04 356.75,-68.41"/>
</g>
<!-- Node4 -->
<g id="node4" class="node">
<title>Node4</title>
<g id="a_node4"><a xlink:href="a00409.html#adee2fb2573f4dbc2e5c7db153dff2694" target="_top" xlink:title=" ">
<polygon fill="white" stroke="black" points="516,-179 516,-220 626,-220 626,-179 516,-179"/>
<text text-anchor="start" x="524" y="-208" font-family="Helvetica,sans-Serif" font-size="10.00">HF::SpatialStructures</text>
<text text-anchor="start" x="524" y="-197" font-family="Helvetica,sans-Serif" font-size="10.00">::CostAlgorithms::to</text>
<text text-anchor="middle" x="571" y="-186" font-family="Helvetica,sans-Serif" font-size="10.00">_degrees</text>
</a>
</g>
</g>
<!-- Node3&#45;&gt;Node4 -->
<g id="edge3" class="edge">
<title>Node3&#45;&gt;Node4</title>
<path fill="none" stroke="midnightblue" d="M480.04,-199.5C488.57,-199.5 497.29,-199.5 505.77,-199.5"/>
<polygon fill="midnightblue" stroke="midnightblue" points="505.98,-203 515.98,-199.5 505.98,-196 505.98,-203"/>
</g>
<!-- Node6 -->
<g id="node6" class="node">
<title>Node6</title>
<g id="a_node6"><a xlink:href="a00399.html#ad9a8f0f70b3f60ac5cb7889885d851d1" target="_top" xlink:title=" ">
<polygon fill="white" stroke="black" points="516,-129.5 516,-159.5 626,-159.5 626,-129.5 516,-129.5"/>
<text text-anchor="start" x="524" y="-147.5" font-family="Helvetica,sans-Serif" font-size="10.00">HF::SpatialStructures</text>
<text text-anchor="middle" x="571" y="-136.5" font-family="Helvetica,sans-Serif" font-size="10.00">::Normalize</text>
</a>
</g>
</g>
<!-- Node5&#45;&gt;Node6 -->
<g id="edge5" class="edge">
<title>Node5&#45;&gt;Node6</title>
<path fill="none" stroke="midnightblue" d="M467.03,-144.5C479.49,-144.5 492.86,-144.5 505.71,-144.5"/>
<polygon fill="midnightblue" stroke="midnightblue" points="505.87,-148 515.87,-144.5 505.87,-141 505.87,-148"/>
</g>
</g>
</svg>
