<?xml version="1.0" encoding="UTF-8" standalone="no"?>
<!DOCTYPE svg PUBLIC "-//W3C//DTD SVG 1.1//EN"
 "http://www.w3.org/Graphics/SVG/1.1/DTD/svg11.dtd">
<!-- Generated by graphviz version 8.0.5 (20230430.1635)
 -->
<!-- Title: std::array_hash_combine_impl Pages: 1 -->
<svg width="312pt" height="90pt"
 viewBox="0.00 0.00 312.25 90.00" xmlns="http://www.w3.org/2000/svg" xmlns:xlink="http://www.w3.org/1999/xlink">
<g id="graph0" class="graph" transform="scale(1 1) rotate(0) translate(4 86)">
<title>std::array_hash_combine_impl</title>
<!-- Node1 -->
<g id="node1" class="node">
<title>Node1</title>
<g id="a_node1"><a xlink:title="Combine the hash of value into seed.">
<polygon fill="#999999" stroke="#666666" points="304.25,-51 155.5,-51 155.5,-31 304.25,-31 304.25,-51"/>
<text text-anchor="middle" x="229.88" y="-37.5" font-family="Helvetica,sans-Serif" font-size="10.00">std::array_hash_combine_impl</text>
</a>
</g>
</g>
<!-- Node2 -->
<g id="node2" class="node">
<title>Node2</title>
<g id="a_node2"><a xlink:href="a01371.html#af1c504305bc3e72e72884840ae9b1177" target="_top" xlink:title="Template specialization to hash an array of floats.">
<polygon fill="white" stroke="#666666" points="119.5,-82 0,-82 0,-50 119.5,-50 119.5,-82"/>
<text text-anchor="start" x="8" y="-68.5" font-family="Helvetica,sans-Serif" font-size="10.00">std::hash&lt; std::array</text>
<text text-anchor="middle" x="59.75" y="-56.5" font-family="Helvetica,sans-Serif" font-size="10.00">&lt; float, 3 &gt; &gt;::operator()</text>
</a>
</g>
</g>
<!-- Node1&#45;&gt;Node2 -->
<g id="edge1" class="edge">
<title>Node1&#45;&gt;Node2</title>
<path fill="none" stroke="#63b8ff" d="M147.92,-53.04C138.46,-54.44 128.95,-55.86 119.87,-57.21"/>
<polygon fill="#63b8ff" stroke="#63b8ff" points="148.17,-56.39 157.55,-51.46 147.14,-49.47 148.17,-56.39"/>
</g>
<!-- Node3 -->
<g id="node3" class="node">
<title>Node3</title>
<g id="a_node3"><a xlink:href="a01343.html#afb0661eb1c8c1113e135274672e3026c" target="_top" xlink:title="Calculate a hash for k.">
<polygon fill="white" stroke="#666666" points="113.13,-32 6.38,-32 6.38,0 113.13,0 113.13,-32"/>
<text text-anchor="start" x="14.38" y="-18.5" font-family="Helvetica,sans-Serif" font-size="10.00">std::hash&lt; std::array</text>
<text text-anchor="middle" x="59.75" y="-6.5" font-family="Helvetica,sans-Serif" font-size="10.00">&lt; T, 3 &gt; &gt;::operator()</text>
</a>
</g>
</g>
<!-- Node1&#45;&gt;Node3 -->
<g id="edge2" class="edge">
<title>Node1&#45;&gt;Node3</title>
<path fill="none" stroke="#63b8ff" d="M147.85,-28.95C136.14,-27.21 124.35,-25.46 113.4,-23.83"/>
<polygon fill="#63b8ff" stroke="#63b8ff" points="147.14,-32.53 157.55,-30.54 148.17,-25.61 147.14,-32.53"/>
</g>
</g>
</svg>
