<?xml version="1.0" encoding="UTF-8" standalone="no"?>
<!DOCTYPE svg PUBLIC "-//W3C//DTD SVG 1.1//EN"
 "http://www.w3.org/Graphics/SVG/1.1/DTD/svg11.dtd">
<!-- Generated by graphviz version 5.0.0 (20220707.1540)
 -->
<!-- Title: nanort::safemax Pages: 1 -->
<svg width="261pt" height="88pt"
 viewBox="0.00 0.00 261.00 88.00" xmlns="http://www.w3.org/2000/svg" xmlns:xlink="http://www.w3.org/1999/xlink">
<g id="graph0" class="graph" transform="scale(1 1) rotate(0) translate(4 84)">
<title>nanort::safemax</title>
<polygon fill="white" stroke="transparent" points="-4,4 -4,-84 257,-84 257,4 -4,4"/>
<!-- Node1 -->
<g id="node1" class="node">
<title>Node1</title>
<g id="a_node1"><a xlink:title=" ">
<polygon fill="#bfbfbf" stroke="black" points="167,-30 167,-49 253,-49 253,-30 167,-30"/>
<text text-anchor="middle" x="210" y="-37" font-family="Helvetica,sans-Serif" font-size="10.00">nanort::safemax</text>
</a>
</g>
</g>
<!-- Node2 -->
<g id="node2" class="node">
<title>Node2</title>
<g id="a_node2"><a xlink:href="a00408.html#aa2274a88d11a6a83ac928c1d59be8748" target="_top" xlink:title=" ">
<polygon fill="white" stroke="black" points="0,-49.5 0,-79.5 131,-79.5 131,-49.5 0,-49.5"/>
<text text-anchor="start" x="8" y="-67.5" font-family="Helvetica,sans-Serif" font-size="10.00">nanort::IntersectRayAABB</text>
<text text-anchor="middle" x="65.5" y="-56.5" font-family="Helvetica,sans-Serif" font-size="10.00">&lt; double &gt;</text>
</a>
</g>
</g>
<!-- Node1&#45;&gt;Node2 -->
<g id="edge1" class="edge">
<title>Node1&#45;&gt;Node2</title>
<path fill="none" stroke="midnightblue" d="M156.7,-48.67C148.39,-50.13 139.7,-51.66 131.14,-53.16"/>
<polygon fill="midnightblue" stroke="midnightblue" points="157.39,-52.11 166.63,-46.93 156.18,-45.21 157.39,-52.11"/>
</g>
<!-- Node3 -->
<g id="node3" class="node">
<title>Node3</title>
<g id="a_node3"><a xlink:href="a00408.html#abb906c21cbf94086beb735d63383a20e" target="_top" xlink:title=" ">
<polygon fill="white" stroke="black" points="0,-0.5 0,-30.5 131,-30.5 131,-0.5 0,-0.5"/>
<text text-anchor="start" x="8" y="-18.5" font-family="Helvetica,sans-Serif" font-size="10.00">nanort::IntersectRayAABB</text>
<text text-anchor="middle" x="65.5" y="-7.5" font-family="Helvetica,sans-Serif" font-size="10.00">&lt; float &gt;</text>
</a>
</g>
</g>
<!-- Node1&#45;&gt;Node3 -->
<g id="edge2" class="edge">
<title>Node1&#45;&gt;Node3</title>
<path fill="none" stroke="midnightblue" d="M156.7,-30.69C148.39,-29.29 139.7,-27.83 131.14,-26.39"/>
<polygon fill="midnightblue" stroke="midnightblue" points="156.19,-34.15 166.63,-32.36 157.35,-27.25 156.19,-34.15"/>
</g>
</g>
</svg>
