<?xml version="1.0" encoding="UTF-8" standalone="no"?>
<!DOCTYPE svg PUBLIC "-//W3C//DTD SVG 1.1//EN"
 "http://www.w3.org/Graphics/SVG/1.1/DTD/svg11.dtd">
<!-- Generated by graphviz version 2.43.0 (0)
 -->
<!-- Title: HF::Geometry::LoadTMPMeshObjects Pages: 1 -->
<svg width="551pt" height="66pt"
 viewBox="0.00 0.00 551.00 66.00" xmlns="http://www.w3.org/2000/svg" xmlns:xlink="http://www.w3.org/1999/xlink">
<g id="graph0" class="graph" transform="scale(1 1) rotate(0) translate(4 62)">
<title>HF::Geometry::LoadTMPMeshObjects</title>
<polygon fill="white" stroke="transparent" points="-4,4 -4,-62 547,-62 547,4 -4,4"/>
<!-- Node1 -->
<g id="node1" class="node">
<title>Node1</title>
<g id="a_node1"><a xlink:title=" ">
<polygon fill="#bfbfbf" stroke="black" points="0,-14 0,-44 160,-44 160,-14 0,-14"/>
<text text-anchor="start" x="8" y="-32" font-family="Helvetica,sans-Serif" font-size="10.00">HF::Geometry::LoadTMPMesh</text>
<text text-anchor="middle" x="80" y="-21" font-family="Helvetica,sans-Serif" font-size="10.00">Objects</text>
</a>
</g>
</g>
<!-- Node2 -->
<g id="node2" class="node">
<title>Node2</title>
<g id="a_node2"><a xlink:href="a00403.html#a9bbdc23c626ed431d5a084722c22f99f" target="_top" xlink:title=" ">
<polygon fill="white" stroke="black" points="196,-14 196,-44 346,-44 346,-14 196,-14"/>
<text text-anchor="start" x="204" y="-32" font-family="Helvetica,sans-Serif" font-size="10.00">HF::Geometry::LoadMeshes</text>
<text text-anchor="middle" x="271" y="-21" font-family="Helvetica,sans-Serif" font-size="10.00">FromTinyOBJ</text>
</a>
</g>
</g>
<!-- Node1&#45;&gt;Node2 -->
<g id="edge1" class="edge">
<title>Node1&#45;&gt;Node2</title>
<path fill="none" stroke="midnightblue" d="M160.06,-29C168.47,-29 177.05,-29 185.53,-29"/>
<polygon fill="midnightblue" stroke="midnightblue" points="185.79,-32.5 195.79,-29 185.79,-25.5 185.79,-32.5"/>
</g>
<!-- Node3 -->
<g id="node3" class="node">
<title>Node3</title>
<g id="a_node3"><a xlink:href="a00403.html#aece9b1559429cfcd59fc5c60bc3dc5b1" target="_top" xlink:title=" ">
<polygon fill="white" stroke="black" points="384.5,-38.5 384.5,-57.5 540.5,-57.5 540.5,-38.5 384.5,-38.5"/>
<text text-anchor="middle" x="462.5" y="-45.5" font-family="Helvetica,sans-Serif" font-size="10.00">HF::Geometry::CreateReader</text>
</a>
</g>
</g>
<!-- Node2&#45;&gt;Node3 -->
<g id="edge2" class="edge">
<title>Node2&#45;&gt;Node3</title>
<path fill="none" stroke="midnightblue" d="M346.08,-36.43C355.3,-37.35 364.8,-38.3 374.2,-39.25"/>
<polygon fill="midnightblue" stroke="midnightblue" points="374.05,-42.75 384.35,-40.26 374.75,-35.78 374.05,-42.75"/>
</g>
<!-- Node4 -->
<g id="node4" class="node">
<title>Node4</title>
<g id="a_node4"><a xlink:href="a00403.html#a4adc592a15bc490035f942d1609d7c3a" target="_top" xlink:title=" ">
<polygon fill="white" stroke="black" points="382,-0.5 382,-19.5 543,-19.5 543,-0.5 382,-0.5"/>
<text text-anchor="middle" x="462.5" y="-7.5" font-family="Helvetica,sans-Serif" font-size="10.00">HF::Geometry::MakeMaterials</text>
</a>
</g>
</g>
<!-- Node2&#45;&gt;Node4 -->
<g id="edge3" class="edge">
<title>Node2&#45;&gt;Node4</title>
<path fill="none" stroke="midnightblue" d="M346.08,-21.57C354.51,-20.73 363.17,-19.86 371.78,-19"/>
<polygon fill="midnightblue" stroke="midnightblue" points="372.23,-22.47 381.84,-17.99 371.54,-15.5 372.23,-22.47"/>
</g>
</g>
</svg>
