<?xml version="1.0" encoding="UTF-8" standalone="no"?>
<!DOCTYPE svg PUBLIC "-//W3C//DTD SVG 1.1//EN"
 "http://www.w3.org/Graphics/SVG/1.1/DTD/svg11.dtd">
<!-- Generated by graphviz version 8.0.5 (20230430.1635)
 -->
<!-- Title: HF::RayTracer::vectorsToBuffers Pages: 1 -->
<svg width="478pt" height="166pt"
 viewBox="0.00 0.00 478.25 166.00" xmlns="http://www.w3.org/2000/svg" xmlns:xlink="http://www.w3.org/1999/xlink">
<g id="graph0" class="graph" transform="scale(1 1) rotate(0) translate(4 162)">
<title>HF::RayTracer::vectorsToBuffers</title>
<!-- Node1 -->
<g id="node1" class="node">
<title>Node1</title>
<g id="a_node1"><a xlink:title="Index a list of verticies and place them into a triangle and vertex buffer.">
<polygon fill="#999999" stroke="#666666" points="470.25,-117 344,-117 344,-85 470.25,-85 470.25,-117"/>
<text text-anchor="start" x="352" y="-103.5" font-family="Helvetica,sans-Serif" font-size="10.00">HF::RayTracer::vectorsTo</text>
<text text-anchor="middle" x="407.13" y="-91.5" font-family="Helvetica,sans-Serif" font-size="10.00">Buffers</text>
</a>
</g>
</g>
<!-- Node2 -->
<g id="node2" class="node">
<title>Node2</title>
<g id="a_node2"><a xlink:href="a01411.html#a99f9cf2231668b40902c19d6b886865a" target="_top" xlink:title="Create a new Raytracer and generate its BVH from a flat array of vertices.">
<polygon fill="white" stroke="#666666" points="308,-142 172,-142 172,-110 308,-110 308,-142"/>
<text text-anchor="start" x="180" y="-128.5" font-family="Helvetica,sans-Serif" font-size="10.00">HF::RayTracer::EmbreeRay</text>
<text text-anchor="middle" x="240" y="-116.5" font-family="Helvetica,sans-Serif" font-size="10.00">Tracer::EmbreeRayTracer</text>
</a>
</g>
</g>
<!-- Node1&#45;&gt;Node2 -->
<g id="edge1" class="edge">
<title>Node1&#45;&gt;Node2</title>
<path fill="none" stroke="#63b8ff" d="M333.05,-112.06C324.88,-113.3 316.58,-114.56 308.48,-115.78"/>
<polygon fill="#63b8ff" stroke="#63b8ff" points="333.33,-115.41 342.7,-110.45 332.29,-108.49 333.33,-115.41"/>
</g>
<!-- Node3 -->
<g id="node3" class="node">
<title>Node3</title>
<g id="a_node3"><a xlink:href="a01411.html#a6425a0f8f4a3ef8073e734ceb745cd1e" target="_top" xlink:title="Add a new mesh to this raytracer&#39;s BVH with the specified ID.">
<polygon fill="white" stroke="#666666" points="308,-92 172,-92 172,-60 308,-60 308,-92"/>
<text text-anchor="start" x="180" y="-78.5" font-family="Helvetica,sans-Serif" font-size="10.00">HF::RayTracer::EmbreeRay</text>
<text text-anchor="middle" x="240" y="-66.5" font-family="Helvetica,sans-Serif" font-size="10.00">Tracer::AddMesh</text>
</a>
</g>
</g>
<!-- Node1&#45;&gt;Node3 -->
<g id="edge2" class="edge">
<title>Node1&#45;&gt;Node3</title>
<path fill="none" stroke="#63b8ff" d="M333.05,-89.94C324.88,-88.7 316.58,-87.44 308.48,-86.22"/>
<polygon fill="#63b8ff" stroke="#63b8ff" points="332.29,-93.51 342.7,-91.55 333.33,-86.59 332.29,-93.51"/>
</g>
<!-- Node4 -->
<g id="node4" class="node">
<title>Node4</title>
<g id="a_node4"><a xlink:href="a01411.html#a0a3fa22a253ce3a7738f01286c11f589" target="_top" xlink:title="Create a new EmbreeRayTracer and add a single mesh to the scene.">
<polygon fill="white" stroke="#666666" points="136,-158 0,-158 0,-126 136,-126 136,-158"/>
<text text-anchor="start" x="8" y="-144.5" font-family="Helvetica,sans-Serif" font-size="10.00">HF::RayTracer::EmbreeRay</text>
<text text-anchor="middle" x="68" y="-132.5" font-family="Helvetica,sans-Serif" font-size="10.00">Tracer::EmbreeRayTracer</text>
</a>
</g>
</g>
<!-- Node3&#45;&gt;Node4 -->
<g id="edge3" class="edge">
<title>Node3&#45;&gt;Node4</title>
<path fill="none" stroke="#63b8ff" d="M183.82,-96.28C179.81,-97.85 175.83,-99.43 172,-101 155.79,-107.62 152.21,-110.38 136,-117 128.99,-119.86 121.51,-122.78 114.2,-125.57"/>
<polygon fill="#63b8ff" stroke="#63b8ff" points="184.73,-99.3 192.8,-92.43 182.21,-92.77 184.73,-99.3"/>
</g>
<!-- Node5 -->
<g id="node5" class="node">
<title>Node5</title>
<g id="a_node5"><a xlink:href="a00457.html#ga7f80c3aff3b2a8a28794830913ef2a36" target="_top" xlink:title="Add a new mesh to a raytracer.">
<polygon fill="white" stroke="#666666" points="96.63,-108 39.38,-108 39.38,-88 96.63,-88 96.63,-108"/>
<text text-anchor="middle" x="68" y="-94.5" font-family="Helvetica,sans-Serif" font-size="10.00">AddMesh</text>
</a>
</g>
</g>
<!-- Node3&#45;&gt;Node5 -->
<g id="edge4" class="edge">
<title>Node3&#45;&gt;Node5</title>
<path fill="none" stroke="#63b8ff" d="M160.97,-86.1C137.99,-89.07 114.33,-92.13 96.76,-94.41"/>
<polygon fill="#63b8ff" stroke="#63b8ff" points="161.34,-89.45 170.81,-84.69 160.44,-82.51 161.34,-89.45"/>
</g>
<!-- Node6 -->
<g id="node6" class="node">
<title>Node6</title>
<g id="a_node6"><a xlink:href="a01411.html#a3d478f577e30d1b437421224134b5a38" target="_top" xlink:title="Add several new meshes to the BVH.">
<polygon fill="white" stroke="#666666" points="136,-70 0,-70 0,-38 136,-38 136,-70"/>
<text text-anchor="start" x="8" y="-56.5" font-family="Helvetica,sans-Serif" font-size="10.00">HF::RayTracer::EmbreeRay</text>
<text text-anchor="middle" x="68" y="-44.5" font-family="Helvetica,sans-Serif" font-size="10.00">Tracer::AddMesh</text>
</a>
</g>
</g>
<!-- Node3&#45;&gt;Node6 -->
<g id="edge5" class="edge">
<title>Node3&#45;&gt;Node6</title>
<path fill="none" stroke="#63b8ff" d="M161.02,-65.91C152.75,-64.84 144.39,-63.76 136.26,-62.7"/>
<polygon fill="#63b8ff" stroke="#63b8ff" points="160.44,-69.49 170.81,-67.31 161.34,-62.55 160.44,-69.49"/>
</g>
<!-- Node7 -->
<g id="node7" class="node">
<title>Node7</title>
<g id="a_node7"><a xlink:href="a00457.html#ga06215cb24d54f979920f6022af214a00" target="_top" xlink:title="Add a new mesh to a raytracer.">
<polygon fill="white" stroke="#666666" points="101.88,-20 34.13,-20 34.13,0 101.88,0 101.88,-20"/>
<text text-anchor="middle" x="68" y="-6.5" font-family="Helvetica,sans-Serif" font-size="10.00">AddMeshes</text>
</a>
</g>
</g>
<!-- Node3&#45;&gt;Node7 -->
<g id="edge6" class="edge">
<title>Node3&#45;&gt;Node7</title>
<path fill="none" stroke="#63b8ff" d="M196.78,-54.98C178.38,-46.28 156.39,-36.49 136,-29 125.11,-25 112.96,-21.32 102.03,-18.3"/>
<polygon fill="#63b8ff" stroke="#63b8ff" points="195.07,-58.52 205.6,-59.68 198.09,-52.21 195.07,-58.52"/>
</g>
</g>
</svg>
