<?xml version="1.0" encoding="UTF-8" standalone="no"?>
<!DOCTYPE svg PUBLIC "-//W3C//DTD SVG 1.1//EN"
 "http://www.w3.org/Graphics/SVG/1.1/DTD/svg11.dtd">
<!-- Generated by graphviz version 5.0.0 (20220707.1540)
 -->
<!-- Title: HF::SpatialStructures::CostAlgorithms::to_radians Pages: 1 -->
<svg width="506pt" height="88pt"
 viewBox="0.00 0.00 506.00 88.00" xmlns="http://www.w3.org/2000/svg" xmlns:xlink="http://www.w3.org/1999/xlink">
<g id="graph0" class="graph" transform="scale(1 1) rotate(0) translate(4 84)">
<title>HF::SpatialStructures::CostAlgorithms::to_radians</title>
<polygon fill="white" stroke="transparent" points="-4,4 -4,-84 502,-84 502,4 -4,4"/>
<!-- Node1 -->
<g id="node1" class="node">
<title>Node1</title>
<g id="a_node1"><a xlink:title=" ">
<polygon fill="#bfbfbf" stroke="black" points="388,-24.5 388,-65.5 498,-65.5 498,-24.5 388,-24.5"/>
<text text-anchor="start" x="396" y="-53.5" font-family="Helvetica,sans-Serif" font-size="10.00">HF::SpatialStructures</text>
<text text-anchor="start" x="396" y="-42.5" font-family="Helvetica,sans-Serif" font-size="10.00">::CostAlgorithms::to</text>
<text text-anchor="middle" x="443" y="-31.5" font-family="Helvetica,sans-Serif" font-size="10.00">_radians</text>
</a>
</g>
</g>
<!-- Node2 -->
<g id="node2" class="node">
<title>Node2</title>
<g id="a_node2"><a xlink:href="a00409.html#ac51f2e76c00356f8a6145bee865cd922" target="_top" xlink:title=" ">
<polygon fill="white" stroke="black" points="216,-24.5 216,-65.5 352,-65.5 352,-24.5 216,-24.5"/>
<text text-anchor="start" x="224" y="-53.5" font-family="Helvetica,sans-Serif" font-size="10.00">HF::SpatialStructures</text>
<text text-anchor="start" x="224" y="-42.5" font-family="Helvetica,sans-Serif" font-size="10.00">::CostAlgorithms::Calculate</text>
<text text-anchor="middle" x="284" y="-31.5" font-family="Helvetica,sans-Serif" font-size="10.00">EnergyExpenditure</text>
</a>
</g>
</g>
<!-- Node1&#45;&gt;Node2 -->
<g id="edge1" class="edge">
<title>Node1&#45;&gt;Node2</title>
<path fill="none" stroke="midnightblue" d="M377.8,-45C369.35,-45 360.67,-45 352.17,-45"/>
<polygon fill="midnightblue" stroke="midnightblue" points="377.97,-48.5 387.97,-45 377.97,-41.5 377.97,-48.5"/>
</g>
<!-- Node3 -->
<g id="node3" class="node">
<title>Node3</title>
<g id="a_node3"><a xlink:href="a00392.html#ga76d98cf2df63a766a74137dfa815d9a9" target="_top" xlink:title="Calculates energy expenditure for all subgraphs in *g and stores them in the graph at AlgorithmCostTi...">
<polygon fill="white" stroke="black" points="0,-60.5 0,-79.5 180,-79.5 180,-60.5 0,-60.5"/>
<text text-anchor="middle" x="90" y="-67.5" font-family="Helvetica,sans-Serif" font-size="10.00">CalculateAndStoreEnergyExpenditure</text>
</a>
</g>
</g>
<!-- Node2&#45;&gt;Node3 -->
<g id="edge2" class="edge">
<title>Node2&#45;&gt;Node3</title>
<path fill="none" stroke="midnightblue" d="M205.9,-55.04C192.07,-56.84 177.71,-58.71 164,-60.49"/>
<polygon fill="midnightblue" stroke="midnightblue" points="206.38,-58.51 215.85,-53.74 205.48,-51.56 206.38,-58.51"/>
</g>
<!-- Node4 -->
<g id="node4" class="node">
<title>Node4</title>
<g id="a_node4"><a xlink:href="a00409.html#adbe5e58355a884494d6e99bf17fc5f7b" target="_top" xlink:title=" ">
<polygon fill="white" stroke="black" points="22,-0.5 22,-41.5 158,-41.5 158,-0.5 22,-0.5"/>
<text text-anchor="start" x="30" y="-29.5" font-family="Helvetica,sans-Serif" font-size="10.00">HF::SpatialStructures</text>
<text text-anchor="start" x="30" y="-18.5" font-family="Helvetica,sans-Serif" font-size="10.00">::CostAlgorithms::Calculate</text>
<text text-anchor="middle" x="90" y="-7.5" font-family="Helvetica,sans-Serif" font-size="10.00">EnergyExpenditure</text>
</a>
</g>
</g>
<!-- Node2&#45;&gt;Node4 -->
<g id="edge3" class="edge">
<title>Node2&#45;&gt;Node4</title>
<path fill="none" stroke="midnightblue" d="M205.63,-35.33C189.89,-33.36 173.46,-31.31 158.11,-29.39"/>
<polygon fill="midnightblue" stroke="midnightblue" points="205.49,-38.84 215.85,-36.61 206.36,-31.89 205.49,-38.84"/>
</g>
</g>
</svg>
