<?xml version="1.0" encoding="UTF-8" standalone="no"?>
<!DOCTYPE svg PUBLIC "-//W3C//DTD SVG 1.1//EN"
 "http://www.w3.org/Graphics/SVG/1.1/DTD/svg11.dtd">
<!-- Generated by graphviz version 2.43.0 (0)
 -->
<!-- Title: CInterfaceTests::TEST Pages: 1 -->
<svg width="832pt" height="248pt"
 viewBox="0.00 0.00 832.00 248.00" xmlns="http://www.w3.org/2000/svg" xmlns:xlink="http://www.w3.org/1999/xlink">
<g id="graph0" class="graph" transform="scale(1 1) rotate(0) translate(4 244)">
<title>CInterfaceTests::TEST</title>
<polygon fill="white" stroke="transparent" points="-4,4 -4,-244 828,-244 828,4 -4,4"/>
<!-- Node1 -->
<g id="node1" class="node">
<title>Node1</title>
<g id="a_node1"><a xlink:title=" ">
<polygon fill="#bfbfbf" stroke="black" points="0,-122 0,-141 122,-141 122,-122 0,-122"/>
<text text-anchor="middle" x="61" y="-129" font-family="Helvetica,sans-Serif" font-size="10.00">CInterfaceTests::TEST</text>
</a>
</g>
</g>
<!-- Node2 -->
<g id="node2" class="node">
<title>Node2</title>
<g id="a_node2"><a xlink:href="a01497.html#a37be5c12e488072dea7fa1c8c64346f7" target="_top" xlink:title="Add a new edge to the graph from parent to child.">
<polygon fill="white" stroke="black" points="158,-209.5 158,-239.5 277,-239.5 277,-209.5 158,-209.5"/>
<text text-anchor="start" x="166" y="-227.5" font-family="Helvetica,sans-Serif" font-size="10.00">HF::SpatialStructures</text>
<text text-anchor="middle" x="217.5" y="-216.5" font-family="Helvetica,sans-Serif" font-size="10.00">::Graph::addEdge</text>
</a>
</g>
</g>
<!-- Node1&#45;&gt;Node2 -->
<g id="edge1" class="edge">
<title>Node1&#45;&gt;Node2</title>
<path fill="none" stroke="midnightblue" d="M73.88,-141.18C91.49,-155.22 125.92,-181.55 158,-199.5 161.43,-201.42 165.03,-203.28 168.69,-205.08"/>
<polygon fill="midnightblue" stroke="midnightblue" points="167.32,-208.3 177.86,-209.37 170.29,-201.96 167.32,-208.3"/>
</g>
<!-- Node3 -->
<g id="node3" class="node">
<title>Node3</title>
<g id="a_node3"><a xlink:href="a01497.html#a41cece77d0eee98df39ecc6d3a366ec8" target="_top" xlink:title="Compress the graph to a CSR and enable the usage of several functions.">
<polygon fill="white" stroke="black" points="158,-160.5 158,-190.5 277,-190.5 277,-160.5 158,-160.5"/>
<text text-anchor="start" x="166" y="-178.5" font-family="Helvetica,sans-Serif" font-size="10.00">HF::SpatialStructures</text>
<text text-anchor="middle" x="217.5" y="-167.5" font-family="Helvetica,sans-Serif" font-size="10.00">::Graph::Compress</text>
</a>
</g>
</g>
<!-- Node1&#45;&gt;Node3 -->
<g id="edge2" class="edge">
<title>Node1&#45;&gt;Node3</title>
<path fill="none" stroke="midnightblue" d="M95.52,-141.05C112.61,-145.91 133.95,-151.99 153.93,-157.68"/>
<polygon fill="midnightblue" stroke="midnightblue" points="153.02,-161.06 163.6,-160.43 154.94,-154.33 153.02,-161.06"/>
</g>
<!-- Node4 -->
<g id="node4" class="node">
<title>Node4</title>
<g id="a_node4"><a xlink:href="a00406.html#ae2106e09eb44d681fbc6c0f66a3d3ac4" target="_top" xlink:title="Create a new boost graph from a HF::SpatialStructures:Graph.">
<polygon fill="white" stroke="black" points="313,-122.5 313,-152.5 468,-152.5 468,-122.5 313,-122.5"/>
<text text-anchor="start" x="321" y="-140.5" font-family="Helvetica,sans-Serif" font-size="10.00">HF::Pathfinding::CreateBoost</text>
<text text-anchor="middle" x="390.5" y="-129.5" font-family="Helvetica,sans-Serif" font-size="10.00">Graph</text>
</a>
</g>
</g>
<!-- Node1&#45;&gt;Node4 -->
<g id="edge3" class="edge">
<title>Node1&#45;&gt;Node4</title>
<path fill="none" stroke="midnightblue" d="M122.07,-132.6C172.67,-133.53 245.72,-134.87 302.69,-135.91"/>
<polygon fill="midnightblue" stroke="midnightblue" points="302.71,-139.41 312.77,-136.09 302.84,-132.41 302.71,-139.41"/>
</g>
<!-- Node5 -->
<g id="node5" class="node">
<title>Node5</title>
<g id="a_node5"><a xlink:href="a00390.html#gae1ac2805c3b86883bb88269ed3868367" target="_top" xlink:title="Find multiple shortest paths in paralllel.">
<polygon fill="white" stroke="black" points="180,-84 180,-103 255,-103 255,-84 180,-84"/>
<text text-anchor="middle" x="217.5" y="-91" font-family="Helvetica,sans-Serif" font-size="10.00">CreatePaths</text>
</a>
</g>
</g>
<!-- Node1&#45;&gt;Node5 -->
<g id="edge4" class="edge">
<title>Node1&#45;&gt;Node5</title>
<path fill="none" stroke="midnightblue" d="M100.99,-121.91C121.99,-116.74 148.05,-110.33 170.1,-104.91"/>
<polygon fill="midnightblue" stroke="midnightblue" points="171.04,-108.29 179.92,-102.5 169.37,-101.49 171.04,-108.29"/>
</g>
<!-- Node12 -->
<g id="node12" class="node">
<title>Node12</title>
<g id="a_node12"><a xlink:href="a00390.html#ga884a3374d971261a01ccfd3b21e288e5" target="_top" xlink:title="Delete a path.">
<polygon fill="white" stroke="black" points="179.5,-43 179.5,-62 255.5,-62 255.5,-43 179.5,-43"/>
<text text-anchor="middle" x="217.5" y="-50" font-family="Helvetica,sans-Serif" font-size="10.00">DestroyPath</text>
</a>
</g>
</g>
<!-- Node1&#45;&gt;Node12 -->
<g id="edge12" class="edge">
<title>Node1&#45;&gt;Node12</title>
<path fill="none" stroke="midnightblue" d="M76.2,-121.99C94.56,-109.94 127.77,-89.02 158,-74.5 164.59,-71.33 171.76,-68.31 178.76,-65.58"/>
<polygon fill="midnightblue" stroke="midnightblue" points="180,-68.85 188.11,-62.04 177.52,-62.3 180,-68.85"/>
</g>
<!-- Node5&#45;&gt;Node4 -->
<g id="edge5" class="edge">
<title>Node5&#45;&gt;Node4</title>
<path fill="none" stroke="midnightblue" d="M255.18,-102.94C274.42,-107.89 298.61,-114.11 321.14,-119.91"/>
<polygon fill="midnightblue" stroke="midnightblue" points="320.46,-123.35 331.02,-122.45 322.2,-116.57 320.46,-123.35"/>
</g>
<!-- Node6 -->
<g id="node6" class="node">
<title>Node6</title>
<g id="a_node6"><a xlink:href="a00406.html#a417084c97d0672af2da7739157a9d8c0" target="_top" xlink:title="A special version of FindPaths optimized for the C_Interface.">
<polygon fill="white" stroke="black" points="316,-73.5 316,-103.5 465,-103.5 465,-73.5 316,-73.5"/>
<text text-anchor="start" x="324" y="-91.5" font-family="Helvetica,sans-Serif" font-size="10.00">HF::Pathfinding::InsertPaths</text>
<text text-anchor="middle" x="390.5" y="-80.5" font-family="Helvetica,sans-Serif" font-size="10.00">IntoArray</text>
</a>
</g>
</g>
<!-- Node5&#45;&gt;Node6 -->
<g id="edge6" class="edge">
<title>Node5&#45;&gt;Node6</title>
<path fill="none" stroke="midnightblue" d="M255.18,-92.43C270.03,-91.99 287.83,-91.47 305.55,-90.95"/>
<polygon fill="midnightblue" stroke="midnightblue" points="306.05,-94.44 315.94,-90.65 305.85,-87.44 306.05,-94.44"/>
</g>
<!-- Node7 -->
<g id="node7" class="node">
<title>Node7</title>
<g id="a_node7"><a xlink:href="a00406.html#a9f6490539108da057db2486295458886" target="_top" xlink:title="Build a row of the distance and predecessor matrices for the node at id.">
<polygon fill="white" stroke="black" points="504,-147.5 504,-177.5 667,-177.5 667,-147.5 504,-147.5"/>
<text text-anchor="start" x="512" y="-165.5" font-family="Helvetica,sans-Serif" font-size="10.00">HF::Pathfinding::BuildDistance</text>
<text text-anchor="middle" x="585.5" y="-154.5" font-family="Helvetica,sans-Serif" font-size="10.00">AndPredecessor</text>
</a>
</g>
</g>
<!-- Node6&#45;&gt;Node7 -->
<g id="edge7" class="edge">
<title>Node6&#45;&gt;Node7</title>
<path fill="none" stroke="midnightblue" d="M446.62,-103.57C453.94,-106.21 461.25,-109.19 468,-112.5 485.49,-121.07 486.49,-128.96 504,-137.5 508.65,-139.77 513.55,-141.89 518.54,-143.85"/>
<polygon fill="midnightblue" stroke="midnightblue" points="517.62,-147.25 528.21,-147.45 520.06,-140.68 517.62,-147.25"/>
</g>
<!-- Node9 -->
<g id="node9" class="node">
<title>Node9</title>
<g id="a_node9"><a xlink:href="a00406.html#a322ac32effd41c99359b82df0890e34a" target="_top" xlink:title="Overload to call this with a distPred instead of the raw arrays.">
<polygon fill="white" stroke="black" points="514.5,-98.5 514.5,-128.5 656.5,-128.5 656.5,-98.5 514.5,-98.5"/>
<text text-anchor="start" x="522.5" y="-116.5" font-family="Helvetica,sans-Serif" font-size="10.00">HF::Pathfinding::Construct</text>
<text text-anchor="middle" x="585.5" y="-105.5" font-family="Helvetica,sans-Serif" font-size="10.00">ShortestPathFromPred</text>
</a>
</g>
</g>
<!-- Node6&#45;&gt;Node9 -->
<g id="edge9" class="edge">
<title>Node6&#45;&gt;Node9</title>
<path fill="none" stroke="midnightblue" d="M465.02,-98.02C477.79,-99.68 491.14,-101.41 504.09,-103.08"/>
<polygon fill="midnightblue" stroke="midnightblue" points="504,-106.6 514.37,-104.42 504.9,-99.66 504,-106.6"/>
</g>
<!-- Node10 -->
<g id="node10" class="node">
<title>Node10</title>
<g id="a_node10"><a xlink:href="a02029.html#a942cb49007bbeb5588e2d526c68bdcf9" target="_top" xlink:title="Get a pointer to the path&#39;s underlying path members vector.">
<polygon fill="white" stroke="black" points="526,-49.5 526,-79.5 645,-79.5 645,-49.5 526,-49.5"/>
<text text-anchor="start" x="534" y="-67.5" font-family="Helvetica,sans-Serif" font-size="10.00">HF::SpatialStructures</text>
<text text-anchor="middle" x="585.5" y="-56.5" font-family="Helvetica,sans-Serif" font-size="10.00">::Path::GetPMPointer</text>
</a>
</g>
</g>
<!-- Node6&#45;&gt;Node10 -->
<g id="edge10" class="edge">
<title>Node6&#45;&gt;Node10</title>
<path fill="none" stroke="midnightblue" d="M465.02,-79.36C481.69,-77.28 499.33,-75.09 515.8,-73.04"/>
<polygon fill="midnightblue" stroke="midnightblue" points="516.39,-76.5 525.88,-71.79 515.52,-69.55 516.39,-76.5"/>
</g>
<!-- Node11 -->
<g id="node11" class="node">
<title>Node11</title>
<g id="a_node11"><a xlink:href="a02029.html#a28f61f0f57b38a5249a11a725d9d692b" target="_top" xlink:title="Determine how many nodes are in this path.">
<polygon fill="white" stroke="black" points="526,-0.5 526,-30.5 645,-30.5 645,-0.5 526,-0.5"/>
<text text-anchor="start" x="534" y="-18.5" font-family="Helvetica,sans-Serif" font-size="10.00">HF::SpatialStructures</text>
<text text-anchor="middle" x="585.5" y="-7.5" font-family="Helvetica,sans-Serif" font-size="10.00">::Path::size</text>
</a>
</g>
</g>
<!-- Node6&#45;&gt;Node11 -->
<g id="edge11" class="edge">
<title>Node6&#45;&gt;Node11</title>
<path fill="none" stroke="midnightblue" d="M444.1,-73.41C452.25,-70.48 460.46,-67.16 468,-63.5 485.3,-55.1 486.59,-47.67 504,-39.5 508.05,-37.6 512.27,-35.81 516.59,-34.14"/>
<polygon fill="midnightblue" stroke="midnightblue" points="517.94,-37.37 526.12,-30.64 515.53,-30.8 517.94,-37.37"/>
</g>
<!-- Node8 -->
<g id="node8" class="node">
<title>Node8</title>
<g id="a_node8"><a xlink:href="a00411.html#acc422c11342b31368f610b6f96fcedc6" target="_top" xlink:title=" ">
<polygon fill="white" stroke="black" points="703,-153 703,-172 824,-172 824,-153 703,-153"/>
<text text-anchor="middle" x="763.5" y="-160" font-family="Helvetica,sans-Serif" font-size="10.00">nlohmann::detail::get</text>
</a>
</g>
</g>
<!-- Node7&#45;&gt;Node8 -->
<g id="edge8" class="edge">
<title>Node7&#45;&gt;Node8</title>
<path fill="none" stroke="midnightblue" d="M667.03,-162.5C675.59,-162.5 684.24,-162.5 692.66,-162.5"/>
<polygon fill="midnightblue" stroke="midnightblue" points="692.8,-166 702.8,-162.5 692.8,-159 692.8,-166"/>
</g>
<!-- Node13 -->
<g id="node13" class="node">
<title>Node13</title>
<g id="a_node13"><a xlink:href="a00347.html#a1746287300e1f05c45d84f3837e24557" target="_top" xlink:title="Delete some object pointed to by ptr">
<polygon fill="white" stroke="black" points="349,-35 349,-54 432,-54 432,-35 349,-35"/>
<text text-anchor="middle" x="390.5" y="-42" font-family="Helvetica,sans-Serif" font-size="10.00">DeleteRawPtr</text>
</a>
</g>
</g>
<!-- Node12&#45;&gt;Node13 -->
<g id="edge13" class="edge">
<title>Node12&#45;&gt;Node13</title>
<path fill="none" stroke="midnightblue" d="M255.6,-50.76C279.89,-49.63 311.93,-48.13 338.58,-46.88"/>
<polygon fill="midnightblue" stroke="midnightblue" points="339.06,-50.36 348.88,-46.4 338.73,-43.37 339.06,-50.36"/>
</g>
</g>
</svg>
