<?xml version="1.0" encoding="UTF-8" standalone="no"?>
<!DOCTYPE svg PUBLIC "-//W3C//DTD SVG 1.1//EN"
 "http://www.w3.org/Graphics/SVG/1.1/DTD/svg11.dtd">
<!-- Generated by graphviz version 8.0.5 (20230430.1635)
 -->
<!-- Title: nanort::SAH Pages: 1 -->
<svg width="434pt" height="28pt"
 viewBox="0.00 0.00 434.00 28.00" xmlns="http://www.w3.org/2000/svg" xmlns:xlink="http://www.w3.org/1999/xlink">
<g id="graph0" class="graph" transform="scale(1 1) rotate(0) translate(4 24)">
<title>nanort::SAH</title>
<!-- Node1 -->
<g id="node1" class="node">
<title>Node1</title>
<g id="a_node1"><a xlink:title=" ">
<polygon fill="#999999" stroke="#666666" points="426,-20 356.75,-20 356.75,0 426,0 426,-20"/>
<text text-anchor="middle" x="391.38" y="-6.5" font-family="Helvetica,sans-Serif" font-size="10.00">nanort::SAH</text>
</a>
</g>
</g>
<!-- Node2 -->
<g id="node2" class="node">
<title>Node2</title>
<g id="a_node2"><a xlink:href="a00474.html#ac281b6ed7e50b406666a6e67e9547b7e" target="_top" xlink:title=" ">
<polygon fill="white" stroke="#666666" points="320.75,-20 176.5,-20 176.5,0 320.75,0 320.75,-20"/>
<text text-anchor="middle" x="248.63" y="-6.5" font-family="Helvetica,sans-Serif" font-size="10.00">nanort::FindCutFromBinBuffer</text>
</a>
</g>
</g>
<!-- Node1&#45;&gt;Node2 -->
<g id="edge1" class="edge">
<title>Node1&#45;&gt;Node2</title>
<path fill="none" stroke="#63b8ff" d="M345.37,-10C337.64,-10 329.44,-10 321.22,-10"/>
<polygon fill="#63b8ff" stroke="#63b8ff" points="345.3,-13.5 355.3,-10 345.3,-6.5 345.3,-13.5"/>
</g>
<!-- Node3 -->
<g id="node3" class="node">
<title>Node3</title>
<g id="a_node3"><a xlink:href="a01483.html#ae0e4bf0fab331dbacf469a3e991132e5" target="_top" xlink:title="Builds BVH tree recursively.">
<polygon fill="white" stroke="#666666" points="140.5,-20 0,-20 0,0 140.5,0 140.5,-20"/>
<text text-anchor="middle" x="70.25" y="-6.5" font-family="Helvetica,sans-Serif" font-size="10.00">nanort::BVHAccel::BuildTree</text>
</a>
</g>
</g>
<!-- Node2&#45;&gt;Node3 -->
<g id="edge2" class="edge">
<title>Node2&#45;&gt;Node3</title>
<path fill="none" stroke="#63b8ff" d="M165.4,-10C157.19,-10 148.9,-10 140.83,-10"/>
<polygon fill="#63b8ff" stroke="#63b8ff" points="165.14,-13.5 175.14,-10 165.14,-6.5 165.14,-13.5"/>
</g>
</g>
</svg>
