<?xml version="1.0" encoding="UTF-8" standalone="no"?>
<!DOCTYPE svg PUBLIC "-//W3C//DTD SVG 1.1//EN"
 "http://www.w3.org/Graphics/SVG/1.1/DTD/svg11.dtd">
<!-- Generated by graphviz version 2.43.0 (0)
 -->
<!-- Title: nlohmann::detail::dtoa_impl::compute_boundaries Pages: 1 -->
<svg width="340pt" height="88pt"
 viewBox="0.00 0.00 340.00 88.00" xmlns="http://www.w3.org/2000/svg" xmlns:xlink="http://www.w3.org/1999/xlink">
<g id="graph0" class="graph" transform="scale(1 1) rotate(0) translate(4 84)">
<title>nlohmann::detail::dtoa_impl::compute_boundaries</title>
<polygon fill="white" stroke="transparent" points="-4,4 -4,-84 336,-84 336,4 -4,4"/>
<!-- Node1 -->
<g id="node1" class="node">
<title>Node1</title>
<g id="a_node1"><a xlink:title=" ">
<polygon fill="#bfbfbf" stroke="black" points="0,-24.5 0,-54.5 152,-54.5 152,-24.5 0,-24.5"/>
<text text-anchor="start" x="8" y="-42.5" font-family="Helvetica,sans-Serif" font-size="10.00">nlohmann::detail::dtoa</text>
<text text-anchor="middle" x="76" y="-31.5" font-family="Helvetica,sans-Serif" font-size="10.00">_impl::compute_boundaries</text>
</a>
</g>
</g>
<!-- Node2 -->
<g id="node2" class="node">
<title>Node2</title>
<g id="a_node2"><a xlink:href="a01989.html#a2246b5b40c7c6992153ef174063d6aa6" target="_top" xlink:title="normalize x such that the significand is &gt;= 2^(q&#45;1)">
<polygon fill="white" stroke="black" points="195.5,-49.5 195.5,-79.5 324.5,-79.5 324.5,-49.5 195.5,-49.5"/>
<text text-anchor="start" x="203.5" y="-67.5" font-family="Helvetica,sans-Serif" font-size="10.00">nlohmann::detail::dtoa</text>
<text text-anchor="middle" x="260" y="-56.5" font-family="Helvetica,sans-Serif" font-size="10.00">_impl::diyfp::normalize</text>
</a>
</g>
</g>
<!-- Node1&#45;&gt;Node2 -->
<g id="edge1" class="edge">
<title>Node1&#45;&gt;Node2</title>
<path fill="none" stroke="midnightblue" d="M152.08,-49.81C163.1,-51.33 174.44,-52.88 185.43,-54.39"/>
<polygon fill="midnightblue" stroke="midnightblue" points="185.02,-57.87 195.4,-55.76 185.97,-50.94 185.02,-57.87"/>
</g>
<!-- Node3 -->
<g id="node3" class="node">
<title>Node3</title>
<g id="a_node3"><a xlink:href="a01989.html#a6b6665e467ebabe0c0f7418d3fe4b118" target="_top" xlink:title="normalize x such that the result has the exponent E">
<polygon fill="white" stroke="black" points="188,-0.5 188,-30.5 332,-30.5 332,-0.5 188,-0.5"/>
<text text-anchor="start" x="196" y="-18.5" font-family="Helvetica,sans-Serif" font-size="10.00">nlohmann::detail::dtoa</text>
<text text-anchor="middle" x="260" y="-7.5" font-family="Helvetica,sans-Serif" font-size="10.00">_impl::diyfp::normalize_to</text>
</a>
</g>
</g>
<!-- Node1&#45;&gt;Node3 -->
<g id="edge2" class="edge">
<title>Node1&#45;&gt;Node3</title>
<path fill="none" stroke="midnightblue" d="M152.08,-29.6C160.59,-28.48 169.3,-27.33 177.89,-26.2"/>
<polygon fill="midnightblue" stroke="midnightblue" points="178.44,-29.65 187.9,-24.88 177.53,-22.71 178.44,-29.65"/>
</g>
</g>
</svg>
