<?xml version="1.0" encoding="UTF-8" standalone="no"?>
<!DOCTYPE svg PUBLIC "-//W3C//DTD SVG 1.1//EN"
 "http://www.w3.org/Graphics/SVG/1.1/DTD/svg11.dtd">
<!-- Generated by graphviz version 2.43.0 (0)
 -->
<!-- Title: HF::SpatialStructures::CostAlgorithms::CalculateEnergyExpenditure Pages: 1 -->
<svg width="682pt" height="229pt"
 viewBox="0.00 0.00 682.00 228.50" xmlns="http://www.w3.org/2000/svg" xmlns:xlink="http://www.w3.org/1999/xlink">
<g id="graph0" class="graph" transform="scale(1 1) rotate(0) translate(4 224.5)">
<title>HF::SpatialStructures::CostAlgorithms::CalculateEnergyExpenditure</title>
<polygon fill="white" stroke="transparent" points="-4,4 -4,-224.5 678,-224.5 678,4 -4,4"/>
<!-- Node1 -->
<g id="node1" class="node">
<title>Node1</title>
<g id="a_node1"><a xlink:title=" ">
<polygon fill="#bfbfbf" stroke="black" points="0,-44 0,-85 149,-85 149,-44 0,-44"/>
<text text-anchor="start" x="8" y="-73" font-family="Helvetica,sans-Serif" font-size="10.00">HF::SpatialStructures</text>
<text text-anchor="start" x="8" y="-62" font-family="Helvetica,sans-Serif" font-size="10.00">::CostAlgorithms::Calculate</text>
<text text-anchor="middle" x="74.5" y="-51" font-family="Helvetica,sans-Serif" font-size="10.00">EnergyExpenditure</text>
</a>
</g>
</g>
<!-- Node2 -->
<g id="node2" class="node">
<title>Node2</title>
<g id="a_node2"><a xlink:href="a00409.html#ac51f2e76c00356f8a6145bee865cd922" target="_top" xlink:title=" ">
<polygon fill="white" stroke="black" points="185,-99 185,-140 334,-140 334,-99 185,-99"/>
<text text-anchor="start" x="193" y="-128" font-family="Helvetica,sans-Serif" font-size="10.00">HF::SpatialStructures</text>
<text text-anchor="start" x="193" y="-117" font-family="Helvetica,sans-Serif" font-size="10.00">::CostAlgorithms::Calculate</text>
<text text-anchor="middle" x="259.5" y="-106" font-family="Helvetica,sans-Serif" font-size="10.00">EnergyExpenditure</text>
</a>
</g>
</g>
<!-- Node1&#45;&gt;Node2 -->
<g id="edge1" class="edge">
<title>Node1&#45;&gt;Node2</title>
<path fill="none" stroke="midnightblue" d="M143.9,-85.06C155.84,-88.65 168.34,-92.4 180.51,-96.06"/>
<polygon fill="midnightblue" stroke="midnightblue" points="179.6,-99.44 190.18,-98.97 181.61,-92.74 179.6,-99.44"/>
</g>
<!-- Node9 -->
<g id="node9" class="node">
<title>Node9</title>
<g id="a_node9"><a xlink:href="a01497.html#a89250c619a726fd0adbd71778d166887" target="_top" xlink:title="Retrieves a Subgraph using a Node.">
<polygon fill="white" stroke="black" points="199,-49.5 199,-79.5 320,-79.5 320,-49.5 199,-49.5"/>
<text text-anchor="start" x="207" y="-67.5" font-family="Helvetica,sans-Serif" font-size="10.00">HF::SpatialStructures</text>
<text text-anchor="middle" x="259.5" y="-56.5" font-family="Helvetica,sans-Serif" font-size="10.00">::Graph::GetSubgraph</text>
</a>
</g>
</g>
<!-- Node1&#45;&gt;Node9 -->
<g id="edge8" class="edge">
<title>Node1&#45;&gt;Node9</title>
<path fill="none" stroke="midnightblue" d="M149.14,-64.5C162.15,-64.5 175.66,-64.5 188.56,-64.5"/>
<polygon fill="midnightblue" stroke="midnightblue" points="188.76,-68 198.76,-64.5 188.76,-61 188.76,-68"/>
</g>
<!-- Node10 -->
<g id="node10" class="node">
<title>Node10</title>
<g id="a_node10"><a xlink:href="a01497.html#acf3e003f995c8a533f3ff164157b7297" target="_top" xlink:title="Get a list of nodes from the graph sorted by ID.">
<polygon fill="white" stroke="black" points="200,-0.5 200,-30.5 319,-30.5 319,-0.5 200,-0.5"/>
<text text-anchor="start" x="208" y="-18.5" font-family="Helvetica,sans-Serif" font-size="10.00">HF::SpatialStructures</text>
<text text-anchor="middle" x="259.5" y="-7.5" font-family="Helvetica,sans-Serif" font-size="10.00">::Graph::Nodes</text>
</a>
</g>
</g>
<!-- Node1&#45;&gt;Node10 -->
<g id="edge9" class="edge">
<title>Node1&#45;&gt;Node10</title>
<path fill="none" stroke="midnightblue" d="M149.14,-44.78C163.45,-40.95 178.36,-36.96 192.4,-33.2"/>
<polygon fill="midnightblue" stroke="midnightblue" points="193.7,-36.47 202.46,-30.51 191.89,-29.71 193.7,-36.47"/>
</g>
<!-- Node3 -->
<g id="node3" class="node">
<title>Node3</title>
<g id="a_node3"><a xlink:href="a00409.html#ae06eb693d0d7858d7a863fae3a6eee2c" target="_top" xlink:title=" ">
<polygon fill="white" stroke="black" points="370,-179 370,-220 519,-220 519,-179 370,-179"/>
<text text-anchor="start" x="378" y="-208" font-family="Helvetica,sans-Serif" font-size="10.00">HF::SpatialStructures</text>
<text text-anchor="start" x="378" y="-197" font-family="Helvetica,sans-Serif" font-size="10.00">::CostAlgorithms::Calculate</text>
<text text-anchor="middle" x="444.5" y="-186" font-family="Helvetica,sans-Serif" font-size="10.00">Slope</text>
</a>
</g>
</g>
<!-- Node2&#45;&gt;Node3 -->
<g id="edge2" class="edge">
<title>Node2&#45;&gt;Node3</title>
<path fill="none" stroke="midnightblue" d="M305.95,-140.1C325.61,-148.94 348.89,-159.33 370,-168.5 374.92,-170.64 380.04,-172.84 385.18,-175.04"/>
<polygon fill="midnightblue" stroke="midnightblue" points="383.84,-178.27 394.41,-178.97 386.58,-171.83 383.84,-178.27"/>
</g>
<!-- Node5 -->
<g id="node5" class="node">
<title>Node5</title>
<g id="a_node5"><a xlink:href="a02017.html#ad3f7898ef3178eef0c3579869a7f5c67" target="_top" xlink:title="Get the direction between this node and another node">
<polygon fill="white" stroke="black" points="385,-129.5 385,-159.5 504,-159.5 504,-129.5 385,-129.5"/>
<text text-anchor="start" x="393" y="-147.5" font-family="Helvetica,sans-Serif" font-size="10.00">HF::SpatialStructures</text>
<text text-anchor="middle" x="444.5" y="-136.5" font-family="Helvetica,sans-Serif" font-size="10.00">::Node::directionTo</text>
</a>
</g>
</g>
<!-- Node2&#45;&gt;Node5 -->
<g id="edge4" class="edge">
<title>Node2&#45;&gt;Node5</title>
<path fill="none" stroke="midnightblue" d="M334.14,-129.56C347.6,-131.4 361.59,-133.31 374.89,-135.13"/>
<polygon fill="midnightblue" stroke="midnightblue" points="374.52,-138.61 384.9,-136.5 375.47,-131.67 374.52,-138.61"/>
</g>
<!-- Node7 -->
<g id="node7" class="node">
<title>Node7</title>
<g id="a_node7"><a xlink:href="a02017.html#abbd66b566460f9557a373b5fbcc30bb1" target="_top" xlink:title="Calculate the distance between this node and n2.">
<polygon fill="white" stroke="black" points="385,-80.5 385,-110.5 504,-110.5 504,-80.5 385,-80.5"/>
<text text-anchor="start" x="393" y="-98.5" font-family="Helvetica,sans-Serif" font-size="10.00">HF::SpatialStructures</text>
<text text-anchor="middle" x="444.5" y="-87.5" font-family="Helvetica,sans-Serif" font-size="10.00">::Node::distanceTo</text>
</a>
</g>
</g>
<!-- Node2&#45;&gt;Node7 -->
<g id="edge6" class="edge">
<title>Node2&#45;&gt;Node7</title>
<path fill="none" stroke="midnightblue" d="M334.14,-109.84C347.6,-108.08 361.59,-106.24 374.89,-104.5"/>
<polygon fill="midnightblue" stroke="midnightblue" points="375.44,-107.96 384.9,-103.18 374.53,-101.01 375.44,-107.96"/>
</g>
<!-- Node8 -->
<g id="node8" class="node">
<title>Node8</title>
<g id="a_node8"><a xlink:href="a00409.html#ae7b446fefe0b9994859f47b85de79039" target="_top" xlink:title=" ">
<polygon fill="white" stroke="black" points="385,-20 385,-61 504,-61 504,-20 385,-20"/>
<text text-anchor="start" x="393" y="-49" font-family="Helvetica,sans-Serif" font-size="10.00">HF::SpatialStructures</text>
<text text-anchor="start" x="393" y="-38" font-family="Helvetica,sans-Serif" font-size="10.00">::CostAlgorithms::to</text>
<text text-anchor="middle" x="444.5" y="-27" font-family="Helvetica,sans-Serif" font-size="10.00">_radians</text>
</a>
</g>
</g>
<!-- Node2&#45;&gt;Node8 -->
<g id="edge7" class="edge">
<title>Node2&#45;&gt;Node8</title>
<path fill="none" stroke="midnightblue" d="M310.51,-98.92C318.4,-95.52 326.45,-91.97 334,-88.5 350.25,-81.02 353.71,-77.89 370,-70.5 373.88,-68.74 377.9,-66.97 381.97,-65.21"/>
<polygon fill="midnightblue" stroke="midnightblue" points="383.66,-68.29 391.49,-61.15 380.92,-61.85 383.66,-68.29"/>
</g>
<!-- Node4 -->
<g id="node4" class="node">
<title>Node4</title>
<g id="a_node4"><a xlink:href="a00409.html#adee2fb2573f4dbc2e5c7db153dff2694" target="_top" xlink:title=" ">
<polygon fill="white" stroke="black" points="555,-179 555,-220 674,-220 674,-179 555,-179"/>
<text text-anchor="start" x="563" y="-208" font-family="Helvetica,sans-Serif" font-size="10.00">HF::SpatialStructures</text>
<text text-anchor="start" x="563" y="-197" font-family="Helvetica,sans-Serif" font-size="10.00">::CostAlgorithms::to</text>
<text text-anchor="middle" x="614.5" y="-186" font-family="Helvetica,sans-Serif" font-size="10.00">_degrees</text>
</a>
</g>
</g>
<!-- Node3&#45;&gt;Node4 -->
<g id="edge3" class="edge">
<title>Node3&#45;&gt;Node4</title>
<path fill="none" stroke="midnightblue" d="M519.19,-199.5C527.65,-199.5 536.25,-199.5 544.65,-199.5"/>
<polygon fill="midnightblue" stroke="midnightblue" points="544.76,-203 554.76,-199.5 544.76,-196 544.76,-203"/>
</g>
<!-- Node6 -->
<g id="node6" class="node">
<title>Node6</title>
<g id="a_node6"><a xlink:href="a00399.html#ad9a8f0f70b3f60ac5cb7889885d851d1" target="_top" xlink:title=" ">
<polygon fill="white" stroke="black" points="555,-129.5 555,-159.5 674,-159.5 674,-129.5 555,-129.5"/>
<text text-anchor="start" x="563" y="-147.5" font-family="Helvetica,sans-Serif" font-size="10.00">HF::SpatialStructures</text>
<text text-anchor="middle" x="614.5" y="-136.5" font-family="Helvetica,sans-Serif" font-size="10.00">::Normalize</text>
</a>
</g>
</g>
<!-- Node5&#45;&gt;Node6 -->
<g id="edge5" class="edge">
<title>Node5&#45;&gt;Node6</title>
<path fill="none" stroke="midnightblue" d="M504.26,-144.5C517.3,-144.5 531.24,-144.5 544.65,-144.5"/>
<polygon fill="midnightblue" stroke="midnightblue" points="544.77,-148 554.77,-144.5 544.77,-141 544.77,-148"/>
</g>
</g>
</svg>
