<?xml version="1.0" encoding="UTF-8" standalone="no"?>
<!DOCTYPE svg PUBLIC "-//W3C//DTD SVG 1.1//EN"
 "http://www.w3.org/Graphics/SVG/1.1/DTD/svg11.dtd">
<!-- Generated by graphviz version 8.0.5 (20230430.1635)
 -->
<!-- Title: AggregateCosts Pages: 1 -->
<svg width="255pt" height="78pt"
 viewBox="0.00 0.00 254.50 78.00" xmlns="http://www.w3.org/2000/svg" xmlns:xlink="http://www.w3.org/1999/xlink">
<g id="graph0" class="graph" transform="scale(1 1) rotate(0) translate(4 74)">
<title>AggregateCosts</title>
<!-- Node1 -->
<g id="node1" class="node">
<title>Node1</title>
<g id="a_node1"><a xlink:title="Get an ordered array of costs for each node aggregated by the desired function.">
<polygon fill="#999999" stroke="#666666" points="85.75,-42 0,-42 0,-22 85.75,-22 85.75,-42"/>
<text text-anchor="middle" x="42.88" y="-28.5" font-family="Helvetica,sans-Serif" font-size="10.00">AggregateCosts</text>
</a>
</g>
</g>
<!-- Node2 -->
<g id="node2" class="node">
<title>Node2</title>
<g id="a_node2"><a xlink:href="a01551.html#a487b0b29dc7c554089e0255779218567" target="_top" xlink:title="Summarize the costs of every outgoing edge for every node in the graph.">
<polygon fill="white" stroke="#666666" points="246.5,-70 121.75,-70 121.75,-38 246.5,-38 246.5,-70"/>
<text text-anchor="start" x="129.75" y="-56.5" font-family="Helvetica,sans-Serif" font-size="10.00">HF::SpatialStructures</text>
<text text-anchor="middle" x="184.13" y="-44.5" font-family="Helvetica,sans-Serif" font-size="10.00">::Graph::AggregateGraph</text>
</a>
</g>
</g>
<!-- Node1&#45;&gt;Node2 -->
<g id="edge1" class="edge">
<title>Node1&#45;&gt;Node2</title>
<path fill="none" stroke="#63b8ff" d="M86.03,-38.66C93.86,-39.9 102.23,-41.22 110.66,-42.55"/>
<polygon fill="#63b8ff" stroke="#63b8ff" points="109.91,-46.13 120.33,-44.24 111,-39.22 109.91,-46.13"/>
</g>
<!-- Node3 -->
<g id="node3" class="node">
<title>Node3</title>
<g id="a_node3"><a xlink:href="a00434.html#a4a6d9b1a1bf9c8f2b5394875a8ca0c72" target="_top" xlink:title=" ">
<polygon fill="white" stroke="#666666" points="218.75,-20 149.5,-20 149.5,0 218.75,0 218.75,-20"/>
<text text-anchor="middle" x="184.13" y="-6.5" font-family="Helvetica,sans-Serif" font-size="10.00">parse_string</text>
</a>
</g>
</g>
<!-- Node1&#45;&gt;Node3 -->
<g id="edge2" class="edge">
<title>Node1&#45;&gt;Node3</title>
<path fill="none" stroke="#63b8ff" d="M86.03,-25.34C102.58,-22.73 121.59,-19.72 138.38,-17.07"/>
<polygon fill="#63b8ff" stroke="#63b8ff" points="138.72,-20.4 148.05,-15.38 137.62,-13.49 138.72,-20.4"/>
</g>
</g>
</svg>
