<?xml version="1.0" encoding="UTF-8" standalone="no"?>
<!DOCTYPE svg PUBLIC "-//W3C//DTD SVG 1.1//EN"
 "http://www.w3.org/Graphics/SVG/1.1/DTD/svg11.dtd">
<!-- Generated by graphviz version 7.0.1 (20221109.1506)
 -->
<!-- Title: HF::Pathfinding::GenerateDistanceAndPred Pages: 1 -->
<svg width="332pt" height="86pt"
 viewBox="0.00 0.00 332.00 86.00" xmlns="http://www.w3.org/2000/svg" xmlns:xlink="http://www.w3.org/1999/xlink">
<g id="graph0" class="graph" transform="scale(1 1) rotate(0) translate(4 82)">
<title>HF::Pathfinding::GenerateDistanceAndPred</title>
<!-- Node1 -->
<g id="node1" class="node">
<title>Node1</title>
<g id="a_node1"><a xlink:title="Generate the distance and predecessor matricies for a specific boost graph.">
<polygon fill="#999999" stroke="#666666" points="129,-54 0,-54 0,-24 129,-24 129,-54"/>
<text text-anchor="start" x="8" y="-42" font-family="Helvetica,sans-Serif" font-size="10.00">HF::Pathfinding::Generate</text>
<text text-anchor="middle" x="64.5" y="-31" font-family="Helvetica,sans-Serif" font-size="10.00">DistanceAndPred</text>
</a>
</g>
</g>
<!-- Node2 -->
<g id="node2" class="node">
<title>Node2</title>
<g id="a_node2"><a xlink:href="a01329.html#a7237256578bb77a912babbc2f777756c" target="_top" xlink:title="Get a pointer to the beginning of the ith row of the distance array.">
<polygon fill="white" stroke="#666666" points="322.5,-78 166.5,-78 166.5,-48 322.5,-48 322.5,-78"/>
<text text-anchor="start" x="174.5" y="-66" font-family="Helvetica,sans-Serif" font-size="10.00">HF::Pathfinding::Distance</text>
<text text-anchor="middle" x="244.5" y="-55" font-family="Helvetica,sans-Serif" font-size="10.00">AndPredecessor::GetRowOfDist</text>
</a>
</g>
</g>
<!-- Node1&#45;&gt;Node2 -->
<g id="edge1" class="edge">
<title>Node1&#45;&gt;Node2</title>
<path fill="none" stroke="#63b8ff" d="M129.26,-47.6C137.58,-48.72 146.23,-49.88 154.87,-51.05"/>
<polygon fill="#63b8ff" stroke="#63b8ff" points="154.32,-54.51 164.7,-52.37 155.25,-47.57 154.32,-54.51"/>
</g>
<!-- Node3 -->
<g id="node3" class="node">
<title>Node3</title>
<g id="a_node3"><a xlink:href="a01329.html#a4ab3579abd7bd4f18456e8e5022b51ca" target="_top" xlink:title="Get a pointer to the beginning of the ith row of the predecessor array.">
<polygon fill="white" stroke="#666666" points="324,-30 165,-30 165,0 324,0 324,-30"/>
<text text-anchor="start" x="173" y="-18" font-family="Helvetica,sans-Serif" font-size="10.00">HF::Pathfinding::Distance</text>
<text text-anchor="middle" x="244.5" y="-7" font-family="Helvetica,sans-Serif" font-size="10.00">AndPredecessor::GetRowOfPred</text>
</a>
</g>
</g>
<!-- Node1&#45;&gt;Node3 -->
<g id="edge2" class="edge">
<title>Node1&#45;&gt;Node3</title>
<path fill="none" stroke="#63b8ff" d="M129.26,-30.4C137.15,-29.34 145.32,-28.24 153.51,-27.13"/>
<polygon fill="#63b8ff" stroke="#63b8ff" points="153.71,-30.64 163.15,-25.83 152.77,-23.7 153.71,-30.64"/>
</g>
</g>
</svg>
