<?xml version="1.0" encoding="UTF-8" standalone="no"?>
<!DOCTYPE svg PUBLIC "-//W3C//DTD SVG 1.1//EN"
 "http://www.w3.org/Graphics/SVG/1.1/DTD/svg11.dtd">
<!-- Generated by graphviz version 2.43.0 (0)
 -->
<!-- Title: HF::Pathfinding::FindPath Pages: 1 -->
<svg width="409pt" height="66pt"
 viewBox="0.00 0.00 409.00 66.00" xmlns="http://www.w3.org/2000/svg" xmlns:xlink="http://www.w3.org/1999/xlink">
<g id="graph0" class="graph" transform="scale(1 1) rotate(0) translate(4 62)">
<title>HF::Pathfinding::FindPath</title>
<polygon fill="white" stroke="transparent" points="-4,4 -4,-62 405,-62 405,4 -4,4"/>
<!-- Node1 -->
<g id="node1" class="node">
<title>Node1</title>
<g id="a_node1"><a xlink:title="Find a path between points A and B using Dijkstra&#39;s Shortest Path algorithm.">
<polygon fill="#bfbfbf" stroke="black" points="264,-19.5 264,-38.5 401,-38.5 401,-19.5 264,-19.5"/>
<text text-anchor="middle" x="332.5" y="-26.5" font-family="Helvetica,sans-Serif" font-size="10.00">HF::Pathfinding::FindPath</text>
</a>
</g>
</g>
<!-- Node2 -->
<g id="node2" class="node">
<title>Node2</title>
<g id="a_node2"><a xlink:href="a00390.html#ga3dc85450e989a996a3c3fcfad0a5944e" target="_top" xlink:title="Find the shortest path from start to end.">
<polygon fill="white" stroke="black" points="158,-38.5 158,-57.5 228,-57.5 228,-38.5 158,-38.5"/>
<text text-anchor="middle" x="193" y="-45.5" font-family="Helvetica,sans-Serif" font-size="10.00">CreatePath</text>
</a>
</g>
</g>
<!-- Node1&#45;&gt;Node2 -->
<g id="edge1" class="edge">
<title>Node1&#45;&gt;Node2</title>
<path fill="none" stroke="midnightblue" d="M253.84,-39.73C244.93,-40.96 236.21,-42.17 228.32,-43.26"/>
<polygon fill="midnightblue" stroke="midnightblue" points="254.53,-43.17 263.96,-38.33 253.57,-36.23 254.53,-43.17"/>
</g>
<!-- Node4 -->
<g id="node4" class="node">
<title>Node4</title>
<g id="a_node4"><a xlink:href="a00311.html#a9ffe9c91e627f6fcb588198962f7e134" target="_top" xlink:title=" ">
<polygon fill="white" stroke="black" points="172.5,-0.5 172.5,-19.5 213.5,-19.5 213.5,-0.5 172.5,-0.5"/>
<text text-anchor="middle" x="193" y="-7.5" font-family="Helvetica,sans-Serif" font-size="10.00">TEST</text>
</a>
</g>
</g>
<!-- Node1&#45;&gt;Node4 -->
<g id="edge3" class="edge">
<title>Node1&#45;&gt;Node4</title>
<path fill="none" stroke="midnightblue" d="M254.02,-18.29C238.97,-16.21 224.49,-14.21 213.53,-12.7"/>
<polygon fill="midnightblue" stroke="midnightblue" points="253.57,-21.77 263.96,-19.67 254.53,-14.83 253.57,-21.77"/>
</g>
<!-- Node3 -->
<g id="node3" class="node">
<title>Node3</title>
<g id="a_node3"><a xlink:href="a00414.html#a0f2fb5fbce05a6aca44bfc63d2d71f67" target="_top" xlink:title=" ">
<polygon fill="white" stroke="black" points="0,-38.5 0,-57.5 122,-57.5 122,-38.5 0,-38.5"/>
<text text-anchor="middle" x="61" y="-45.5" font-family="Helvetica,sans-Serif" font-size="10.00">CInterfaceTests::TEST</text>
</a>
</g>
</g>
<!-- Node2&#45;&gt;Node3 -->
<g id="edge2" class="edge">
<title>Node2&#45;&gt;Node3</title>
<path fill="none" stroke="midnightblue" d="M147.7,-48C139.45,-48 130.7,-48 122.07,-48"/>
<polygon fill="midnightblue" stroke="midnightblue" points="147.84,-51.5 157.84,-48 147.84,-44.5 147.84,-51.5"/>
</g>
</g>
</svg>
