<?xml version="1.0" encoding="UTF-8" standalone="no"?>
<!DOCTYPE svg PUBLIC "-//W3C//DTD SVG 1.1//EN"
 "http://www.w3.org/Graphics/SVG/1.1/DTD/svg11.dtd">
<!-- Generated by graphviz version 2.43.0 (0)
 -->
<!-- Title: CInterfaceTests::TEST Pages: 1 -->
<svg width="477pt" height="244pt"
 viewBox="0.00 0.00 477.00 244.00" xmlns="http://www.w3.org/2000/svg" xmlns:xlink="http://www.w3.org/1999/xlink">
<g id="graph0" class="graph" transform="scale(1 1) rotate(0) translate(4 240)">
<title>CInterfaceTests::TEST</title>
<polygon fill="white" stroke="transparent" points="-4,4 -4,-240 473,-240 473,4 -4,4"/>
<!-- Node1 -->
<g id="node1" class="node">
<title>Node1</title>
<g id="a_node1"><a xlink:title=" ">
<polygon fill="#bfbfbf" stroke="black" points="0,-88 0,-107 122,-107 122,-88 0,-88"/>
<text text-anchor="middle" x="61" y="-95" font-family="Helvetica,sans-Serif" font-size="10.00">CInterfaceTests::TEST</text>
</a>
</g>
</g>
<!-- Node2 -->
<g id="node2" class="node">
<title>Node2</title>
<g id="a_node2"><a xlink:href="a00392.html#ga02213608939a85d5165da6c0a47c113b" target="_top" xlink:title="Create a new edge between parent_id and child_id. If these IDs do not exist in the graph,...">
<polygon fill="white" stroke="black" points="158,-167 158,-186 283,-186 283,-167 158,-167"/>
<text text-anchor="middle" x="220.5" y="-174" font-family="Helvetica,sans-Serif" font-size="10.00">AddEdgeFromNodeIDs</text>
</a>
</g>
</g>
<!-- Node1&#45;&gt;Node2 -->
<g id="edge1" class="edge">
<title>Node1&#45;&gt;Node2</title>
<path fill="none" stroke="midnightblue" d="M76.16,-107.09C94.48,-119.21 127.66,-140.23 158,-154.5 164.77,-157.69 172.14,-160.69 179.35,-163.4"/>
<polygon fill="midnightblue" stroke="midnightblue" points="178.41,-166.78 189,-166.89 180.79,-160.2 178.41,-166.78"/>
</g>
<!-- Node5 -->
<g id="node5" class="node">
<title>Node5</title>
<g id="a_node5"><a xlink:href="a00392.html#gad7060ed66926e8d028cd2e43e0cb73e6" target="_top" xlink:title="Add a new node attribute in the graph for the nodes at ids.">
<polygon fill="white" stroke="black" points="166,-126 166,-145 275,-145 275,-126 166,-126"/>
<text text-anchor="middle" x="220.5" y="-133" font-family="Helvetica,sans-Serif" font-size="10.00">AddNodeAttributes</text>
</a>
</g>
</g>
<!-- Node1&#45;&gt;Node5 -->
<g id="edge4" class="edge">
<title>Node1&#45;&gt;Node5</title>
<path fill="none" stroke="midnightblue" d="M101.74,-107.09C122.53,-112.1 148.16,-118.29 170.2,-123.61"/>
<polygon fill="midnightblue" stroke="midnightblue" points="169.5,-127.04 180.04,-125.98 171.14,-120.23 169.5,-127.04"/>
</g>
<!-- Node7 -->
<g id="node7" class="node">
<title>Node7</title>
<g id="a_node7"><a xlink:href="a00392.html#ga262a8f714fbd8d74840efa5832597fff" target="_top" xlink:title="Create a new empty graph.">
<polygon fill="white" stroke="black" points="181.5,-88 181.5,-107 259.5,-107 259.5,-88 181.5,-88"/>
<text text-anchor="middle" x="220.5" y="-95" font-family="Helvetica,sans-Serif" font-size="10.00">CreateGraph</text>
</a>
</g>
</g>
<!-- Node1&#45;&gt;Node7 -->
<g id="edge6" class="edge">
<title>Node1&#45;&gt;Node7</title>
<path fill="none" stroke="midnightblue" d="M122.44,-97.5C138.51,-97.5 155.66,-97.5 171,-97.5"/>
<polygon fill="midnightblue" stroke="midnightblue" points="171.3,-101 181.3,-97.5 171.3,-94 171.3,-101"/>
</g>
<!-- Node8 -->
<g id="node8" class="node">
<title>Node8</title>
<g id="a_node8"><a xlink:href="a00392.html#ga645abacd11e1fa535f953344aaa77727" target="_top" xlink:title="Delete a graph.">
<polygon fill="white" stroke="black" points="178.5,-50 178.5,-69 262.5,-69 262.5,-50 178.5,-50"/>
<text text-anchor="middle" x="220.5" y="-57" font-family="Helvetica,sans-Serif" font-size="10.00">DestroyGraph</text>
</a>
</g>
</g>
<!-- Node1&#45;&gt;Node8 -->
<g id="edge7" class="edge">
<title>Node1&#45;&gt;Node8</title>
<path fill="none" stroke="midnightblue" d="M101.74,-87.91C122.53,-82.9 148.16,-76.71 170.2,-71.39"/>
<polygon fill="midnightblue" stroke="midnightblue" points="171.14,-74.77 180.04,-69.02 169.5,-67.96 171.14,-74.77"/>
</g>
<!-- Node9 -->
<g id="node9" class="node">
<title>Node9</title>
<g id="a_node9"><a xlink:href="a01497.html#a2710af2a75976862d7a235793567d2f3" target="_top" xlink:title="Determine how many nodes are in the graph.">
<polygon fill="white" stroke="black" points="161,-0.5 161,-30.5 280,-30.5 280,-0.5 161,-0.5"/>
<text text-anchor="start" x="169" y="-18.5" font-family="Helvetica,sans-Serif" font-size="10.00">HF::SpatialStructures</text>
<text text-anchor="middle" x="220.5" y="-7.5" font-family="Helvetica,sans-Serif" font-size="10.00">::Graph::size</text>
</a>
</g>
</g>
<!-- Node1&#45;&gt;Node9 -->
<g id="edge8" class="edge">
<title>Node1&#45;&gt;Node9</title>
<path fill="none" stroke="midnightblue" d="M76.58,-87.91C95.07,-75.96 128.14,-55.33 158,-40.5 162.06,-38.48 166.32,-36.5 170.63,-34.58"/>
<polygon fill="midnightblue" stroke="midnightblue" points="172.28,-37.68 180.07,-30.51 169.5,-31.25 172.28,-37.68"/>
</g>
<!-- Node3 -->
<g id="node3" class="node">
<title>Node3</title>
<g id="a_node3"><a xlink:href="a01497.html#a37be5c12e488072dea7fa1c8c64346f7" target="_top" xlink:title="Add a new edge to the graph from parent to child.">
<polygon fill="white" stroke="black" points="334.5,-205.5 334.5,-235.5 453.5,-235.5 453.5,-205.5 334.5,-205.5"/>
<text text-anchor="start" x="342.5" y="-223.5" font-family="Helvetica,sans-Serif" font-size="10.00">HF::SpatialStructures</text>
<text text-anchor="middle" x="394" y="-212.5" font-family="Helvetica,sans-Serif" font-size="10.00">::Graph::addEdge</text>
</a>
</g>
</g>
<!-- Node2&#45;&gt;Node3 -->
<g id="edge2" class="edge">
<title>Node2&#45;&gt;Node3</title>
<path fill="none" stroke="midnightblue" d="M258.71,-186.05C277.94,-190.98 302.01,-197.16 324.45,-202.91"/>
<polygon fill="midnightblue" stroke="midnightblue" points="323.72,-206.34 334.28,-205.43 325.46,-199.56 323.72,-206.34"/>
</g>
<!-- Node4 -->
<g id="node4" class="node">
<title>Node4</title>
<g id="a_node4"><a xlink:href="a00368.html#a4a6d9b1a1bf9c8f2b5394875a8ca0c72" target="_top" xlink:title=" ">
<polygon fill="white" stroke="black" points="355.5,-167 355.5,-186 432.5,-186 432.5,-167 355.5,-167"/>
<text text-anchor="middle" x="394" y="-174" font-family="Helvetica,sans-Serif" font-size="10.00">parse_string</text>
</a>
</g>
</g>
<!-- Node2&#45;&gt;Node4 -->
<g id="edge3" class="edge">
<title>Node2&#45;&gt;Node4</title>
<path fill="none" stroke="midnightblue" d="M283.42,-176.5C303.83,-176.5 326.2,-176.5 345.38,-176.5"/>
<polygon fill="midnightblue" stroke="midnightblue" points="345.38,-180 355.38,-176.5 345.38,-173 345.38,-180"/>
</g>
<!-- Node6 -->
<g id="node6" class="node">
<title>Node6</title>
<g id="a_node6"><a xlink:href="a01497.html#a306a0277ba1caa0aa4a1227e2f847f09" target="_top" xlink:title="Add an attribute to the node at id. If the node at id already has a score for the attribute at name,...">
<polygon fill="white" stroke="black" points="319,-117.5 319,-147.5 469,-147.5 469,-117.5 319,-117.5"/>
<text text-anchor="start" x="327" y="-135.5" font-family="Helvetica,sans-Serif" font-size="10.00">HF::SpatialStructures</text>
<text text-anchor="middle" x="394" y="-124.5" font-family="Helvetica,sans-Serif" font-size="10.00">::Graph::AddNodeAttributes</text>
</a>
</g>
</g>
<!-- Node5&#45;&gt;Node6 -->
<g id="edge5" class="edge">
<title>Node5&#45;&gt;Node6</title>
<path fill="none" stroke="midnightblue" d="M275.29,-134.56C286.01,-134.37 297.5,-134.17 308.94,-133.97"/>
<polygon fill="midnightblue" stroke="midnightblue" points="309.04,-137.47 318.97,-133.79 308.91,-130.47 309.04,-137.47"/>
</g>
</g>
</svg>
