<?xml version="1.0" encoding="UTF-8" standalone="no"?>
<!DOCTYPE svg PUBLIC "-//W3C//DTD SVG 1.1//EN"
 "http://www.w3.org/Graphics/SVG/1.1/DTD/svg11.dtd">
<!-- Generated by graphviz version 8.0.5 (20230430.1635)
 -->
<!-- Title: HF::Pathfinding::GenerateDistanceAndPred Pages: 1 -->
<svg width="331pt" height="90pt"
 viewBox="0.00 0.00 331.00 90.00" xmlns="http://www.w3.org/2000/svg" xmlns:xlink="http://www.w3.org/1999/xlink">
<g id="graph0" class="graph" transform="scale(1 1) rotate(0) translate(4 86)">
<title>HF::Pathfinding::GenerateDistanceAndPred</title>
<!-- Node1 -->
<g id="node1" class="node">
<title>Node1</title>
<g id="a_node1"><a xlink:title="Generate the distance and predecessor matricies for a specific boost graph.">
<polygon fill="#999999" stroke="#666666" points="128.5,-57 0,-57 0,-25 128.5,-25 128.5,-57"/>
<text text-anchor="start" x="8" y="-43.5" font-family="Helvetica,sans-Serif" font-size="10.00">HF::Pathfinding::Generate</text>
<text text-anchor="middle" x="64.25" y="-31.5" font-family="Helvetica,sans-Serif" font-size="10.00">DistanceAndPred</text>
</a>
</g>
</g>
<!-- Node2 -->
<g id="node2" class="node">
<title>Node2</title>
<g id="a_node2"><a xlink:href="a01329.html#a7237256578bb77a912babbc2f777756c" target="_top" xlink:title="Get a pointer to the beginning of the ith row of the distance array.">
<polygon fill="white" stroke="#666666" points="321.5,-82 166,-82 166,-50 321.5,-50 321.5,-82"/>
<text text-anchor="start" x="174" y="-68.5" font-family="Helvetica,sans-Serif" font-size="10.00">HF::Pathfinding::Distance</text>
<text text-anchor="middle" x="243.75" y="-56.5" font-family="Helvetica,sans-Serif" font-size="10.00">AndPredecessor::GetRowOfDist</text>
</a>
</g>
</g>
<!-- Node1&#45;&gt;Node2 -->
<g id="edge1" class="edge">
<title>Node1&#45;&gt;Node2</title>
<path fill="none" stroke="#63b8ff" d="M128.83,-49.95C137.32,-51.15 146.14,-52.39 154.95,-53.63"/>
<polygon fill="#63b8ff" stroke="#63b8ff" points="154.27,-57.21 164.66,-55.14 155.25,-50.28 154.27,-57.21"/>
</g>
<!-- Node3 -->
<g id="node3" class="node">
<title>Node3</title>
<g id="a_node3"><a xlink:href="a01329.html#a4ab3579abd7bd4f18456e8e5022b51ca" target="_top" xlink:title="Get a pointer to the beginning of the ith row of the predecessor array.">
<polygon fill="white" stroke="#666666" points="323,-32 164.5,-32 164.5,0 323,0 323,-32"/>
<text text-anchor="start" x="172.5" y="-18.5" font-family="Helvetica,sans-Serif" font-size="10.00">HF::Pathfinding::Distance</text>
<text text-anchor="middle" x="243.75" y="-6.5" font-family="Helvetica,sans-Serif" font-size="10.00">AndPredecessor::GetRowOfPred</text>
</a>
</g>
</g>
<!-- Node1&#45;&gt;Node3 -->
<g id="edge2" class="edge">
<title>Node1&#45;&gt;Node3</title>
<path fill="none" stroke="#63b8ff" d="M128.83,-32.05C136.78,-30.92 145.03,-29.76 153.29,-28.6"/>
<polygon fill="#63b8ff" stroke="#63b8ff" points="153.71,-31.93 163.12,-27.07 152.73,-25 153.71,-31.93"/>
</g>
</g>
</svg>
