<?xml version="1.0" encoding="UTF-8" standalone="no"?>
<!DOCTYPE svg PUBLIC "-//W3C//DTD SVG 1.1//EN"
 "http://www.w3.org/Graphics/SVG/1.1/DTD/svg11.dtd">
<!-- Generated by graphviz version 2.43.0 (0)
 -->
<!-- Title: ConstantsExampleTests::TEST Pages: 1 -->
<svg width="296pt" height="39pt"
 viewBox="0.00 0.00 296.00 39.00" xmlns="http://www.w3.org/2000/svg" xmlns:xlink="http://www.w3.org/1999/xlink">
<g id="graph0" class="graph" transform="scale(1 1) rotate(0) translate(4 35)">
<title>ConstantsExampleTests::TEST</title>
<polygon fill="white" stroke="transparent" points="-4,4 -4,-35 292,-35 292,4 -4,4"/>
<!-- Node1 -->
<g id="node1" class="node">
<title>Node1</title>
<g id="a_node1"><a xlink:title=" ">
<polygon fill="#bfbfbf" stroke="black" points="0,-0.5 0,-30.5 133,-30.5 133,-0.5 0,-0.5"/>
<text text-anchor="start" x="8" y="-18.5" font-family="Helvetica,sans-Serif" font-size="10.00">ConstantsExampleTests</text>
<text text-anchor="middle" x="66.5" y="-7.5" font-family="Helvetica,sans-Serif" font-size="10.00">::TEST</text>
</a>
</g>
</g>
<!-- Node2 -->
<g id="node2" class="node">
<title>Node2</title>
<g id="a_node2"><a xlink:href="a00399.html#a7055938c4b6cc98ac7d1e4409e1f63e9" target="_top" xlink:title="Round a float to the nearest precision defined globally. The global values can be overridden with opt...">
<polygon fill="white" stroke="black" points="169,-0.5 169,-30.5 288,-30.5 288,-0.5 169,-0.5"/>
<text text-anchor="start" x="177" y="-18.5" font-family="Helvetica,sans-Serif" font-size="10.00">HF::SpatialStructures</text>
<text text-anchor="middle" x="228.5" y="-7.5" font-family="Helvetica,sans-Serif" font-size="10.00">::roundhf</text>
</a>
</g>
</g>
<!-- Node1&#45;&gt;Node2 -->
<g id="edge1" class="edge">
<title>Node1&#45;&gt;Node2</title>
<path fill="none" stroke="midnightblue" d="M133.04,-15.5C141.51,-15.5 150.2,-15.5 158.71,-15.5"/>
<polygon fill="midnightblue" stroke="midnightblue" points="158.99,-19 168.99,-15.5 158.99,-12 158.99,-19"/>
</g>
</g>
</svg>
