<?xml version="1.0" encoding="UTF-8" standalone="no"?>
<!DOCTYPE svg PUBLIC "-//W3C//DTD SVG 1.1//EN"
 "http://www.w3.org/Graphics/SVG/1.1/DTD/svg11.dtd">
<!-- Generated by graphviz version 2.43.0 (0)
 -->
<!-- Title: CInterfaceTests::TEST Pages: 1 -->
<svg width="1392pt" height="353pt"
 viewBox="0.00 0.00 1392.00 352.50" xmlns="http://www.w3.org/2000/svg" xmlns:xlink="http://www.w3.org/1999/xlink">
<g id="graph0" class="graph" transform="scale(1 1) rotate(0) translate(4 348.5)">
<title>CInterfaceTests::TEST</title>
<polygon fill="white" stroke="transparent" points="-4,4 -4,-348.5 1388,-348.5 1388,4 -4,4"/>
<!-- Node1 -->
<g id="node1" class="node">
<title>Node1</title>
<g id="a_node1"><a xlink:title=" ">
<polygon fill="#bfbfbf" stroke="black" points="0,-174.5 0,-193.5 122,-193.5 122,-174.5 0,-174.5"/>
<text text-anchor="middle" x="61" y="-181.5" font-family="Helvetica,sans-Serif" font-size="10.00">CInterfaceTests::TEST</text>
</a>
</g>
</g>
<!-- Node2 -->
<g id="node2" class="node">
<title>Node2</title>
<g id="a_node2"><a xlink:href="a00392.html#gab7ecc1be5c746ed3f99ab7494316c65d" target="_top" xlink:title="Compress the given graph into a CSR representation.">
<polygon fill="white" stroke="black" points="192.5,-319.5 192.5,-338.5 257.5,-338.5 257.5,-319.5 192.5,-319.5"/>
<text text-anchor="middle" x="225" y="-326.5" font-family="Helvetica,sans-Serif" font-size="10.00">Compress</text>
</a>
</g>
</g>
<!-- Node1&#45;&gt;Node2 -->
<g id="edge1" class="edge">
<title>Node1&#45;&gt;Node2</title>
<path fill="none" stroke="midnightblue" d="M66.54,-193.56C78.23,-217.12 111.7,-278.32 158,-310 165.29,-314.98 173.88,-318.67 182.41,-321.4"/>
<polygon fill="midnightblue" stroke="midnightblue" points="181.74,-324.85 192.32,-324.18 183.63,-318.11 181.74,-324.85"/>
</g>
<!-- Node4 -->
<g id="node4" class="node">
<title>Node4</title>
<g id="a_node4"><a xlink:href="a00391.html#ga3ac702d080e493d1fa8be6cf4243e38b" target="_top" xlink:title="Create a new raytracer using several meshes.">
<polygon fill="white" stroke="black" points="177,-281.5 177,-300.5 273,-300.5 273,-281.5 177,-281.5"/>
<text text-anchor="middle" x="225" y="-288.5" font-family="Helvetica,sans-Serif" font-size="10.00">CreateRaytracer</text>
</a>
</g>
</g>
<!-- Node1&#45;&gt;Node4 -->
<g id="edge3" class="edge">
<title>Node1&#45;&gt;Node4</title>
<path fill="none" stroke="midnightblue" d="M69.9,-193.77C85.07,-211.88 120.14,-250.77 158,-272 161.97,-274.23 166.22,-276.21 170.58,-277.97"/>
<polygon fill="midnightblue" stroke="midnightblue" points="169.65,-281.36 180.24,-281.5 172.05,-274.78 169.65,-281.36"/>
</g>
<!-- Node5 -->
<g id="node5" class="node">
<title>Node5</title>
<g id="a_node5"><a xlink:href="a00394.html#ga9b0664a60bcdf276b0fe0a2023b3d9b8" target="_top" xlink:title="Create a new undirected visibility graph between all nodes in nodes.">
<polygon fill="white" stroke="black" points="158,-232 158,-262 292,-262 292,-232 158,-232"/>
<text text-anchor="start" x="166" y="-250" font-family="Helvetica,sans-Serif" font-size="10.00">CreateVisibilityGraphAll</text>
<text text-anchor="middle" x="225" y="-239" font-family="Helvetica,sans-Serif" font-size="10.00">ToAllUndirected</text>
</a>
</g>
</g>
<!-- Node1&#45;&gt;Node5 -->
<g id="edge4" class="edge">
<title>Node1&#45;&gt;Node5</title>
<path fill="none" stroke="midnightblue" d="M86.03,-193.63C105.42,-201.37 133.43,-212.48 158,-222 163.21,-224.02 168.66,-226.11 174.1,-228.19"/>
<polygon fill="midnightblue" stroke="midnightblue" points="173.24,-231.6 183.83,-231.89 175.73,-225.06 173.24,-231.6"/>
</g>
<!-- Node17 -->
<g id="node17" class="node">
<title>Node17</title>
<g id="a_node17"><a xlink:href="a00392.html#ga645abacd11e1fa535f953344aaa77727" target="_top" xlink:title="Delete a graph.">
<polygon fill="white" stroke="black" points="183,-193.5 183,-212.5 267,-212.5 267,-193.5 183,-193.5"/>
<text text-anchor="middle" x="225" y="-200.5" font-family="Helvetica,sans-Serif" font-size="10.00">DestroyGraph</text>
</a>
</g>
</g>
<!-- Node1&#45;&gt;Node17 -->
<g id="edge18" class="edge">
<title>Node1&#45;&gt;Node17</title>
<path fill="none" stroke="midnightblue" d="M122.32,-191.07C138.85,-193.01 156.61,-195.1 172.59,-196.97"/>
<polygon fill="midnightblue" stroke="midnightblue" points="172.47,-200.48 182.81,-198.17 173.28,-193.53 172.47,-200.48"/>
</g>
<!-- Node18 -->
<g id="node18" class="node">
<title>Node18</title>
<g id="a_node18"><a xlink:href="a00389.html#ga0ef9f7e63f067546b527947d4678dcd5" target="_top" xlink:title="Free the memory addressed by mesh_to_destroy, which was allocated by either LoadOBJ or StoreMesh.">
<polygon fill="white" stroke="black" points="175,-155.5 175,-174.5 275,-174.5 275,-155.5 175,-155.5"/>
<text text-anchor="middle" x="225" y="-162.5" font-family="Helvetica,sans-Serif" font-size="10.00">DestroyMeshInfo</text>
</a>
</g>
</g>
<!-- Node1&#45;&gt;Node18 -->
<g id="edge19" class="edge">
<title>Node1&#45;&gt;Node18</title>
<path fill="none" stroke="midnightblue" d="M122.32,-176.93C136.29,-175.29 151.14,-173.54 165.06,-171.91"/>
<polygon fill="midnightblue" stroke="midnightblue" points="165.47,-175.39 174.99,-170.75 164.65,-168.44 165.47,-175.39"/>
</g>
<!-- Node20 -->
<g id="node20" class="node">
<title>Node20</title>
<g id="a_node20"><a xlink:href="a00391.html#gac7ff0b75adf7d24754a702f09d5bcf07" target="_top" xlink:title="Delete an existing raytracer.">
<polygon fill="white" stroke="black" points="173.5,-117.5 173.5,-136.5 276.5,-136.5 276.5,-117.5 173.5,-117.5"/>
<text text-anchor="middle" x="225" y="-124.5" font-family="Helvetica,sans-Serif" font-size="10.00">DestroyRayTracer</text>
</a>
</g>
</g>
<!-- Node1&#45;&gt;Node20 -->
<g id="edge21" class="edge">
<title>Node1&#45;&gt;Node20</title>
<path fill="none" stroke="midnightblue" d="M84.27,-174.47C103.59,-166.39 132.38,-154.73 158,-146 164.6,-143.75 171.62,-141.54 178.54,-139.46"/>
<polygon fill="midnightblue" stroke="midnightblue" points="179.91,-142.71 188.52,-136.53 177.94,-135.99 179.91,-142.71"/>
</g>
<!-- Node21 -->
<g id="node21" class="node">
<title>Node21</title>
<g id="a_node21"><a xlink:href="a00392.html#ga58e27a4c3b5a2d9692536877c2e13691" target="_top" xlink:title="Retrieve all information for a graph&#39;s CSR representation. This will compress the graph if it was not...">
<polygon fill="white" stroke="black" points="178.5,-79.5 178.5,-98.5 271.5,-98.5 271.5,-79.5 178.5,-79.5"/>
<text text-anchor="middle" x="225" y="-86.5" font-family="Helvetica,sans-Serif" font-size="10.00">GetCSRPointers</text>
</a>
</g>
</g>
<!-- Node1&#45;&gt;Node21 -->
<g id="edge22" class="edge">
<title>Node1&#45;&gt;Node21</title>
<path fill="none" stroke="midnightblue" d="M71.46,-174.37C87.72,-158.35 122.65,-126.18 158,-108 162.34,-105.77 166.99,-103.76 171.73,-101.97"/>
<polygon fill="midnightblue" stroke="midnightblue" points="173.21,-105.16 181.51,-98.58 170.92,-98.54 173.21,-105.16"/>
</g>
<!-- Node23 -->
<g id="node23" class="node">
<title>Node23</title>
<g id="a_node23"><a xlink:href="a00389.html#ga0805e80d13b29aeddc35f0bcf3f16a1a" target="_top" xlink:title="Load an obj from the given path then rotate it by x,y, and z.">
<polygon fill="white" stroke="black" points="196.5,-38.5 196.5,-57.5 253.5,-57.5 253.5,-38.5 196.5,-38.5"/>
<text text-anchor="middle" x="225" y="-45.5" font-family="Helvetica,sans-Serif" font-size="10.00">LoadOBJ</text>
</a>
</g>
</g>
<!-- Node1&#45;&gt;Node23 -->
<g id="edge24" class="edge">
<title>Node1&#45;&gt;Node23</title>
<path fill="none" stroke="midnightblue" d="M67.62,-174.19C80.67,-152.29 115.18,-99.06 158,-70 166.62,-64.15 176.92,-59.74 186.8,-56.47"/>
<polygon fill="midnightblue" stroke="midnightblue" points="187.88,-59.8 196.45,-53.57 185.86,-53.1 187.88,-59.8"/>
</g>
<!-- Node3 -->
<g id="node3" class="node">
<title>Node3</title>
<g id="a_node3"><a xlink:href="a01497.html#a41cece77d0eee98df39ecc6d3a366ec8" target="_top" xlink:title="Compress the graph to a CSR and enable the usage of several functions.">
<polygon fill="white" stroke="black" points="356.5,-314 356.5,-344 475.5,-344 475.5,-314 356.5,-314"/>
<text text-anchor="start" x="364.5" y="-332" font-family="Helvetica,sans-Serif" font-size="10.00">HF::SpatialStructures</text>
<text text-anchor="middle" x="416" y="-321" font-family="Helvetica,sans-Serif" font-size="10.00">::Graph::Compress</text>
</a>
</g>
</g>
<!-- Node2&#45;&gt;Node3 -->
<g id="edge2" class="edge">
<title>Node2&#45;&gt;Node3</title>
<path fill="none" stroke="midnightblue" d="M257.63,-329C281.8,-329 316.01,-329 346.37,-329"/>
<polygon fill="midnightblue" stroke="midnightblue" points="346.49,-332.5 356.49,-329 346.49,-325.5 346.49,-332.5"/>
</g>
<!-- Node6 -->
<g id="node6" class="node">
<title>Node6</title>
<g id="a_node6"><a xlink:href="a00401.html#ab1db87927118f70786a664c3b3cc7905" target="_top" xlink:title="Generate a Visibility Graph with every edge stored twice.">
<polygon fill="white" stroke="black" points="360,-210 360,-240 472,-240 472,-210 360,-210"/>
<text text-anchor="start" x="368" y="-228" font-family="Helvetica,sans-Serif" font-size="10.00">HF::VisibilityGraph</text>
<text text-anchor="middle" x="416" y="-217" font-family="Helvetica,sans-Serif" font-size="10.00">::AllToAllUndirected</text>
</a>
</g>
</g>
<!-- Node5&#45;&gt;Node6 -->
<g id="edge5" class="edge">
<title>Node5&#45;&gt;Node6</title>
<path fill="none" stroke="midnightblue" d="M292.1,-239.31C310.78,-237.13 331.1,-234.77 349.73,-232.6"/>
<polygon fill="midnightblue" stroke="midnightblue" points="350.36,-236.05 359.89,-231.42 349.55,-229.09 350.36,-236.05"/>
</g>
<!-- Node16 -->
<g id="node16" class="node">
<title>Node16</title>
<g id="a_node16"><a xlink:href="a00179.html#a2f5650b0bad6c47aa34fc2206433a34b" target="_top" xlink:title="Convert a raw array from an external caller to an organized vector of points">
<polygon fill="white" stroke="black" points="332.5,-259.5 332.5,-278.5 499.5,-278.5 499.5,-259.5 332.5,-259.5"/>
<text text-anchor="middle" x="416" y="-266.5" font-family="Helvetica,sans-Serif" font-size="10.00">ConvertRawFloatArrayToPoints</text>
</a>
</g>
</g>
<!-- Node5&#45;&gt;Node16 -->
<g id="edge17" class="edge">
<title>Node5&#45;&gt;Node16</title>
<path fill="none" stroke="midnightblue" d="M292.1,-254.69C302.19,-255.87 312.75,-257.1 323.26,-258.32"/>
<polygon fill="midnightblue" stroke="midnightblue" points="322.97,-261.81 333.31,-259.49 323.78,-254.86 322.97,-261.81"/>
</g>
<!-- Node7 -->
<g id="node7" class="node">
<title>Node7</title>
<g id="a_node7"><a xlink:href="a02017.html#abbd66b566460f9557a373b5fbcc30bb1" target="_top" xlink:title="Calculate the distance between this node and n2.">
<polygon fill="white" stroke="black" points="710,-210 710,-240 829,-240 829,-210 710,-210"/>
<text text-anchor="start" x="718" y="-228" font-family="Helvetica,sans-Serif" font-size="10.00">HF::SpatialStructures</text>
<text text-anchor="middle" x="769.5" y="-217" font-family="Helvetica,sans-Serif" font-size="10.00">::Node::distanceTo</text>
</a>
</g>
</g>
<!-- Node6&#45;&gt;Node7 -->
<g id="edge6" class="edge">
<title>Node6&#45;&gt;Node7</title>
<path fill="none" stroke="midnightblue" d="M472.31,-225C533.69,-225 632.85,-225 699.33,-225"/>
<polygon fill="midnightblue" stroke="midnightblue" points="699.71,-228.5 709.71,-225 699.71,-221.5 699.71,-228.5"/>
</g>
<!-- Node8 -->
<g id="node8" class="node">
<title>Node8</title>
<g id="a_node8"><a xlink:href="a00401.html#a5cddfd8eb7ae23f8ecea0277ad5c3cc5" target="_top" xlink:title="Obtain the indexes of all nodes that pass the HeightCheck.">
<polygon fill="white" stroke="black" points="543,-164 543,-194 671,-194 671,-164 543,-164"/>
<text text-anchor="start" x="551" y="-182" font-family="Helvetica,sans-Serif" font-size="10.00">HF::VisibilityGraph</text>
<text text-anchor="middle" x="607" y="-171" font-family="Helvetica,sans-Serif" font-size="10.00">::HeightCheckAllNodes</text>
</a>
</g>
</g>
<!-- Node6&#45;&gt;Node8 -->
<g id="edge7" class="edge">
<title>Node6&#45;&gt;Node8</title>
<path fill="none" stroke="midnightblue" d="M472.17,-211.57C491.56,-206.85 513.63,-201.48 534.17,-196.48"/>
<polygon fill="midnightblue" stroke="midnightblue" points="535.23,-199.83 544.12,-194.06 533.58,-193.02 535.23,-199.83"/>
</g>
<!-- Node13 -->
<g id="node13" class="node">
<title>Node13</title>
<g id="a_node13"><a xlink:href="a00401.html#a4d9cf77879eb78075f7f7b0a7e31119a" target="_top" xlink:title="Perform a line of sight check between two nodes.">
<polygon fill="white" stroke="black" points="546.5,-254 546.5,-284 667.5,-284 667.5,-254 546.5,-254"/>
<text text-anchor="start" x="554.5" y="-272" font-family="Helvetica,sans-Serif" font-size="10.00">HF::VisibilityGraph</text>
<text text-anchor="middle" x="607" y="-261" font-family="Helvetica,sans-Serif" font-size="10.00">::IsOcclusionBetween</text>
</a>
</g>
</g>
<!-- Node6&#45;&gt;Node13 -->
<g id="edge12" class="edge">
<title>Node6&#45;&gt;Node13</title>
<path fill="none" stroke="midnightblue" d="M472.17,-237.84C492.3,-242.53 515.33,-247.89 536.54,-252.83"/>
<polygon fill="midnightblue" stroke="midnightblue" points="535.93,-256.28 546.46,-255.14 537.52,-249.46 535.93,-256.28"/>
</g>
<!-- Node9 -->
<g id="node9" class="node">
<title>Node9</title>
<g id="a_node9"><a xlink:href="a00401.html#af811d21e4c49275521912df9254bb737" target="_top" xlink:title="Check if Node can be raised by height without clipping into any geometry.">
<polygon fill="white" stroke="black" points="716,-161 716,-191 823,-191 823,-161 716,-161"/>
<text text-anchor="start" x="724" y="-179" font-family="Helvetica,sans-Serif" font-size="10.00">HF::VisibilityGraph</text>
<text text-anchor="middle" x="769.5" y="-168" font-family="Helvetica,sans-Serif" font-size="10.00">::HeightCheck</text>
</a>
</g>
</g>
<!-- Node8&#45;&gt;Node9 -->
<g id="edge8" class="edge">
<title>Node8&#45;&gt;Node9</title>
<path fill="none" stroke="midnightblue" d="M671.43,-177.81C682.7,-177.6 694.44,-177.38 705.69,-177.17"/>
<polygon fill="midnightblue" stroke="midnightblue" points="705.93,-180.67 715.86,-176.98 705.8,-173.67 705.93,-180.67"/>
</g>
<!-- Node10 -->
<g id="node10" class="node">
<title>Node10</title>
<g id="a_node10"><a xlink:href="a01357.html#a3a7488f8e41c8a9e3dc9c334047c6457" target="_top" xlink:title="Determine if there is an intersection with any geometry.">
<polygon fill="white" stroke="black" points="865,-205 865,-235 1011,-235 1011,-205 865,-205"/>
<text text-anchor="start" x="873" y="-223" font-family="Helvetica,sans-Serif" font-size="10.00">HF::RayTracer::EmbreeRay</text>
<text text-anchor="middle" x="938" y="-212" font-family="Helvetica,sans-Serif" font-size="10.00">Tracer::Occluded</text>
</a>
</g>
</g>
<!-- Node9&#45;&gt;Node10 -->
<g id="edge9" class="edge">
<title>Node9&#45;&gt;Node10</title>
<path fill="none" stroke="midnightblue" d="M823.18,-189.92C838.03,-193.85 854.39,-198.17 869.96,-202.28"/>
<polygon fill="midnightblue" stroke="midnightblue" points="869.49,-205.78 880.05,-204.95 871.28,-199.01 869.49,-205.78"/>
</g>
<!-- Node11 -->
<g id="node11" class="node">
<title>Node11</title>
<g id="a_node11"><a xlink:href="a01357.html#ade19fda460dadd98769b347840bd305a" target="_top" xlink:title="Implementation for fundamental occlusion ray intersection.">
<polygon fill="white" stroke="black" points="1047,-205 1047,-235 1193,-235 1193,-205 1047,-205"/>
<text text-anchor="start" x="1055" y="-223" font-family="Helvetica,sans-Serif" font-size="10.00">HF::RayTracer::EmbreeRay</text>
<text text-anchor="middle" x="1120" y="-212" font-family="Helvetica,sans-Serif" font-size="10.00">Tracer::Occluded_IMPL</text>
</a>
</g>
</g>
<!-- Node10&#45;&gt;Node11 -->
<g id="edge10" class="edge">
<title>Node10&#45;&gt;Node11</title>
<path fill="none" stroke="midnightblue" d="M1011.18,-220C1019.52,-220 1028.08,-220 1036.54,-220"/>
<polygon fill="midnightblue" stroke="midnightblue" points="1036.81,-223.5 1046.81,-220 1036.81,-216.5 1036.81,-223.5"/>
</g>
<!-- Node12 -->
<g id="node12" class="node">
<title>Node12</title>
<g id="a_node12"><a xlink:href="a00398.html#a76e5d26b5063f0e5b49b4ba835f1da93" target="_top" xlink:title=" ">
<polygon fill="white" stroke="black" points="1229,-210.5 1229,-229.5 1384,-229.5 1384,-210.5 1229,-210.5"/>
<text text-anchor="middle" x="1306.5" y="-217.5" font-family="Helvetica,sans-Serif" font-size="10.00">HF::RayTracer::ConstructRay</text>
</a>
</g>
</g>
<!-- Node11&#45;&gt;Node12 -->
<g id="edge11" class="edge">
<title>Node11&#45;&gt;Node12</title>
<path fill="none" stroke="midnightblue" d="M1193.13,-220C1201.55,-220 1210.21,-220 1218.81,-220"/>
<polygon fill="midnightblue" stroke="midnightblue" points="1218.86,-223.5 1228.86,-220 1218.86,-216.5 1218.86,-223.5"/>
</g>
<!-- Node13&#45;&gt;Node7 -->
<g id="edge15" class="edge">
<title>Node13&#45;&gt;Node7</title>
<path fill="none" stroke="midnightblue" d="M662.79,-253.98C676.01,-250.35 690.27,-246.45 703.9,-242.71"/>
<polygon fill="midnightblue" stroke="midnightblue" points="704.97,-246.05 713.69,-240.03 703.12,-239.29 704.97,-246.05"/>
</g>
<!-- Node13&#45;&gt;Node10 -->
<g id="edge16" class="edge">
<title>Node13&#45;&gt;Node10</title>
<path fill="none" stroke="midnightblue" d="M667.96,-266.85C712.64,-264.52 774.99,-259.74 829,-250 845.81,-246.97 863.79,-242.49 880.16,-237.91"/>
<polygon fill="midnightblue" stroke="midnightblue" points="881.47,-241.18 890.12,-235.06 879.55,-234.45 881.47,-241.18"/>
</g>
<!-- Node14 -->
<g id="node14" class="node">
<title>Node14</title>
<g id="a_node14"><a xlink:href="a02017.html#ad3f7898ef3178eef0c3579869a7f5c67" target="_top" xlink:title="Get the direction between this node and another node">
<polygon fill="white" stroke="black" points="710,-298 710,-328 829,-328 829,-298 710,-298"/>
<text text-anchor="start" x="718" y="-316" font-family="Helvetica,sans-Serif" font-size="10.00">HF::SpatialStructures</text>
<text text-anchor="middle" x="769.5" y="-305" font-family="Helvetica,sans-Serif" font-size="10.00">::Node::directionTo</text>
</a>
</g>
</g>
<!-- Node13&#45;&gt;Node14 -->
<g id="edge13" class="edge">
<title>Node13&#45;&gt;Node14</title>
<path fill="none" stroke="midnightblue" d="M662.79,-284.02C676.01,-287.65 690.27,-291.55 703.9,-295.29"/>
<polygon fill="midnightblue" stroke="midnightblue" points="703.12,-298.71 713.69,-297.97 704.97,-291.95 703.12,-298.71"/>
</g>
<!-- Node15 -->
<g id="node15" class="node">
<title>Node15</title>
<g id="a_node15"><a xlink:href="a00399.html#ad9a8f0f70b3f60ac5cb7889885d851d1" target="_top" xlink:title=" ">
<polygon fill="white" stroke="black" points="878.5,-298 878.5,-328 997.5,-328 997.5,-298 878.5,-298"/>
<text text-anchor="start" x="886.5" y="-316" font-family="Helvetica,sans-Serif" font-size="10.00">HF::SpatialStructures</text>
<text text-anchor="middle" x="938" y="-305" font-family="Helvetica,sans-Serif" font-size="10.00">::Normalize</text>
</a>
</g>
</g>
<!-- Node14&#45;&gt;Node15 -->
<g id="edge14" class="edge">
<title>Node14&#45;&gt;Node15</title>
<path fill="none" stroke="midnightblue" d="M829.2,-313C841.76,-313 855.14,-313 868.04,-313"/>
<polygon fill="midnightblue" stroke="midnightblue" points="868.27,-316.5 878.27,-313 868.27,-309.5 868.27,-316.5"/>
</g>
<!-- Node19 -->
<g id="node19" class="node">
<title>Node19</title>
<g id="a_node19"><a xlink:href="a00347.html#a1746287300e1f05c45d84f3837e24557" target="_top" xlink:title="Delete some object pointed to by ptr">
<polygon fill="white" stroke="black" points="374.5,-155.5 374.5,-174.5 457.5,-174.5 457.5,-155.5 374.5,-155.5"/>
<text text-anchor="middle" x="416" y="-162.5" font-family="Helvetica,sans-Serif" font-size="10.00">DeleteRawPtr</text>
</a>
</g>
</g>
<!-- Node18&#45;&gt;Node19 -->
<g id="edge20" class="edge">
<title>Node18&#45;&gt;Node19</title>
<path fill="none" stroke="midnightblue" d="M275.16,-165C302.51,-165 336.5,-165 364.12,-165"/>
<polygon fill="midnightblue" stroke="midnightblue" points="364.37,-168.5 374.37,-165 364.37,-161.5 364.37,-168.5"/>
</g>
<!-- Node22 -->
<g id="node22" class="node">
<title>Node22</title>
<g id="a_node22"><a xlink:href="a01497.html#a7cd5d401dfbd61b3b075ca0ad63d959e" target="_top" xlink:title="Obtain the size of and pointers to the 3 arrays that comprise this graph&#39;s CSR. graph if it isn&#39;t com...">
<polygon fill="white" stroke="black" points="349,-77 349,-107 483,-107 483,-77 349,-77"/>
<text text-anchor="start" x="357" y="-95" font-family="Helvetica,sans-Serif" font-size="10.00">HF::SpatialStructures</text>
<text text-anchor="middle" x="416" y="-84" font-family="Helvetica,sans-Serif" font-size="10.00">::Graph::GetCSRPointers</text>
</a>
</g>
</g>
<!-- Node21&#45;&gt;Node22 -->
<g id="edge23" class="edge">
<title>Node21&#45;&gt;Node22</title>
<path fill="none" stroke="midnightblue" d="M271.75,-89.73C291.84,-90.05 315.97,-90.43 338.65,-90.79"/>
<polygon fill="midnightblue" stroke="midnightblue" points="338.89,-94.29 348.95,-90.95 339,-87.29 338.89,-94.29"/>
</g>
<!-- Node24 -->
<g id="node24" class="node">
<title>Node24</title>
<g id="a_node24"><a xlink:href="a00389.html#gaa07792b399e76e6101388bb6bbb96047" target="_top" xlink:title="Get the ID of a mesh.">
<polygon fill="white" stroke="black" points="380.5,-0.5 380.5,-19.5 451.5,-19.5 451.5,-0.5 380.5,-0.5"/>
<text text-anchor="middle" x="416" y="-7.5" font-family="Helvetica,sans-Serif" font-size="10.00">GetMeshID</text>
</a>
</g>
</g>
<!-- Node23&#45;&gt;Node24 -->
<g id="edge25" class="edge">
<title>Node23&#45;&gt;Node24</title>
<path fill="none" stroke="midnightblue" d="M253.89,-42.39C284.45,-36.25 333.92,-26.3 369.99,-19.05"/>
<polygon fill="midnightblue" stroke="midnightblue" points="371.13,-22.39 380.25,-16.99 369.75,-15.53 371.13,-22.39"/>
</g>
<!-- Node25 -->
<g id="node25" class="node">
<title>Node25</title>
<g id="a_node25"><a xlink:href="a00403.html#a06c0c11adb62f8b204e42f75ac1990ac" target="_top" xlink:title="Create MeshInfo instances from the OBJ at path.">
<polygon fill="white" stroke="black" points="328,-38.5 328,-57.5 504,-57.5 504,-38.5 328,-38.5"/>
<text text-anchor="middle" x="416" y="-45.5" font-family="Helvetica,sans-Serif" font-size="10.00">HF::Geometry::LoadMeshObjects</text>
</a>
</g>
</g>
<!-- Node23&#45;&gt;Node25 -->
<g id="edge26" class="edge">
<title>Node23&#45;&gt;Node25</title>
<path fill="none" stroke="midnightblue" d="M253.89,-48C271.14,-48 294.41,-48 317.9,-48"/>
<polygon fill="midnightblue" stroke="midnightblue" points="317.97,-51.5 327.97,-48 317.97,-44.5 317.97,-51.5"/>
</g>
<!-- Node26 -->
<g id="node26" class="node">
<title>Node26</title>
<g id="a_node26"><a xlink:href="a00403.html#a4f0c57b862a0826821217d8c3ac849c4" target="_top" xlink:title=" ">
<polygon fill="white" stroke="black" points="540,-38.5 540,-57.5 674,-57.5 674,-38.5 540,-38.5"/>
<text text-anchor="middle" x="607" y="-45.5" font-family="Helvetica,sans-Serif" font-size="10.00">HF::Geometry::MeshInfo</text>
</a>
</g>
</g>
<!-- Node25&#45;&gt;Node26 -->
<g id="edge27" class="edge">
<title>Node25&#45;&gt;Node26</title>
<path fill="none" stroke="midnightblue" d="M504.03,-48C512.57,-48 521.2,-48 529.62,-48"/>
<polygon fill="midnightblue" stroke="midnightblue" points="529.77,-51.5 539.77,-48 529.77,-44.5 529.77,-51.5"/>
</g>
</g>
</svg>
