<?xml version="1.0" encoding="UTF-8" standalone="no"?>
<!DOCTYPE svg PUBLIC "-//W3C//DTD SVG 1.1//EN"
 "http://www.w3.org/Graphics/SVG/1.1/DTD/svg11.dtd">
<!-- Generated by graphviz version 2.43.0 (0)
 -->
<!-- Title: CInterfaceTests::TEST Pages: 1 -->
<svg width="471pt" height="203pt"
 viewBox="0.00 0.00 471.00 203.00" xmlns="http://www.w3.org/2000/svg" xmlns:xlink="http://www.w3.org/1999/xlink">
<g id="graph0" class="graph" transform="scale(1 1) rotate(0) translate(4 199)">
<title>CInterfaceTests::TEST</title>
<polygon fill="white" stroke="transparent" points="-4,4 -4,-199 467,-199 467,4 -4,4"/>
<!-- Node1 -->
<g id="node1" class="node">
<title>Node1</title>
<g id="a_node1"><a xlink:title=" ">
<polygon fill="#bfbfbf" stroke="black" points="0,-88 0,-107 122,-107 122,-88 0,-88"/>
<text text-anchor="middle" x="61" y="-95" font-family="Helvetica,sans-Serif" font-size="10.00">CInterfaceTests::TEST</text>
</a>
</g>
</g>
<!-- Node2 -->
<g id="node2" class="node">
<title>Node2</title>
<g id="a_node2"><a xlink:href="a01497.html#a37be5c12e488072dea7fa1c8c64346f7" target="_top" xlink:title="Add a new edge to the graph from parent to child.">
<polygon fill="white" stroke="black" points="158,-164.5 158,-194.5 277,-194.5 277,-164.5 158,-164.5"/>
<text text-anchor="start" x="166" y="-182.5" font-family="Helvetica,sans-Serif" font-size="10.00">HF::SpatialStructures</text>
<text text-anchor="middle" x="217.5" y="-171.5" font-family="Helvetica,sans-Serif" font-size="10.00">::Graph::addEdge</text>
</a>
</g>
</g>
<!-- Node1&#45;&gt;Node2 -->
<g id="edge1" class="edge">
<title>Node1&#45;&gt;Node2</title>
<path fill="none" stroke="midnightblue" d="M76.62,-107.01C95.16,-118.86 128.27,-139.41 158,-154.5 161.82,-156.44 165.83,-158.37 169.88,-160.24"/>
<polygon fill="midnightblue" stroke="midnightblue" points="168.78,-163.58 179.34,-164.49 171.65,-157.2 168.78,-163.58"/>
</g>
<!-- Node3 -->
<g id="node3" class="node">
<title>Node3</title>
<g id="a_node3"><a xlink:href="a00392.html#gad7060ed66926e8d028cd2e43e0cb73e6" target="_top" xlink:title="Add a new node attribute in the graph for the nodes at ids.">
<polygon fill="white" stroke="black" points="163,-126 163,-145 272,-145 272,-126 163,-126"/>
<text text-anchor="middle" x="217.5" y="-133" font-family="Helvetica,sans-Serif" font-size="10.00">AddNodeAttributes</text>
</a>
</g>
</g>
<!-- Node1&#45;&gt;Node3 -->
<g id="edge2" class="edge">
<title>Node1&#45;&gt;Node3</title>
<path fill="none" stroke="midnightblue" d="M100.99,-107.09C121.28,-112.08 146.29,-118.23 167.85,-123.53"/>
<polygon fill="midnightblue" stroke="midnightblue" points="167.25,-126.99 177.79,-125.98 168.92,-120.19 167.25,-126.99"/>
</g>
<!-- Node5 -->
<g id="node5" class="node">
<title>Node5</title>
<g id="a_node5"><a xlink:href="a00392.html#gad6d3a72e20e71132c774b931567d76f7" target="_top" xlink:title="Free the memory of every (char *) in scores_to_delete.">
<polygon fill="white" stroke="black" points="166.5,-88 166.5,-107 268.5,-107 268.5,-88 166.5,-88"/>
<text text-anchor="middle" x="217.5" y="-95" font-family="Helvetica,sans-Serif" font-size="10.00">DeleteScoreArray</text>
</a>
</g>
</g>
<!-- Node1&#45;&gt;Node5 -->
<g id="edge4" class="edge">
<title>Node1&#45;&gt;Node5</title>
<path fill="none" stroke="midnightblue" d="M122.18,-97.5C133.33,-97.5 144.99,-97.5 156.15,-97.5"/>
<polygon fill="midnightblue" stroke="midnightblue" points="156.24,-101 166.24,-97.5 156.24,-94 156.24,-101"/>
</g>
<!-- Node6 -->
<g id="node6" class="node">
<title>Node6</title>
<g id="a_node6"><a xlink:href="a00392.html#ga755a13df931e2e3047ed665958727ccb" target="_top" xlink:title="Retrieve node attribute values from *g.">
<polygon fill="white" stroke="black" points="164,-50 164,-69 271,-69 271,-50 164,-50"/>
<text text-anchor="middle" x="217.5" y="-57" font-family="Helvetica,sans-Serif" font-size="10.00">GetNodeAttributes</text>
</a>
</g>
</g>
<!-- Node1&#45;&gt;Node6 -->
<g id="edge5" class="edge">
<title>Node1&#45;&gt;Node6</title>
<path fill="none" stroke="midnightblue" d="M100.99,-87.91C121.28,-82.92 146.29,-76.77 167.85,-71.47"/>
<polygon fill="midnightblue" stroke="midnightblue" points="168.92,-74.81 177.79,-69.02 167.25,-68.01 168.92,-74.81"/>
</g>
<!-- Node8 -->
<g id="node8" class="node">
<title>Node8</title>
<g id="a_node8"><a xlink:href="a01497.html#a2710af2a75976862d7a235793567d2f3" target="_top" xlink:title="Determine how many nodes are in the graph.">
<polygon fill="white" stroke="black" points="158,-0.5 158,-30.5 277,-30.5 277,-0.5 158,-0.5"/>
<text text-anchor="start" x="166" y="-18.5" font-family="Helvetica,sans-Serif" font-size="10.00">HF::SpatialStructures</text>
<text text-anchor="middle" x="217.5" y="-7.5" font-family="Helvetica,sans-Serif" font-size="10.00">::Graph::size</text>
</a>
</g>
</g>
<!-- Node1&#45;&gt;Node8 -->
<g id="edge7" class="edge">
<title>Node1&#45;&gt;Node8</title>
<path fill="none" stroke="midnightblue" d="M76.62,-87.99C95.16,-76.14 128.27,-55.59 158,-40.5 161.82,-38.56 165.83,-36.63 169.88,-34.76"/>
<polygon fill="midnightblue" stroke="midnightblue" points="171.65,-37.8 179.34,-30.51 168.78,-31.42 171.65,-37.8"/>
</g>
<!-- Node4 -->
<g id="node4" class="node">
<title>Node4</title>
<g id="a_node4"><a xlink:href="a01497.html#a306a0277ba1caa0aa4a1227e2f847f09" target="_top" xlink:title="Add an attribute to the node at id. If the node at id already has a score for the attribute at name,...">
<polygon fill="white" stroke="black" points="313,-120.5 313,-150.5 463,-150.5 463,-120.5 313,-120.5"/>
<text text-anchor="start" x="321" y="-138.5" font-family="Helvetica,sans-Serif" font-size="10.00">HF::SpatialStructures</text>
<text text-anchor="middle" x="388" y="-127.5" font-family="Helvetica,sans-Serif" font-size="10.00">::Graph::AddNodeAttributes</text>
</a>
</g>
</g>
<!-- Node3&#45;&gt;Node4 -->
<g id="edge3" class="edge">
<title>Node3&#45;&gt;Node4</title>
<path fill="none" stroke="midnightblue" d="M272.28,-135.5C281.96,-135.5 292.26,-135.5 302.56,-135.5"/>
<polygon fill="midnightblue" stroke="midnightblue" points="302.84,-139 312.84,-135.5 302.84,-132 302.84,-139"/>
</g>
<!-- Node7 -->
<g id="node7" class="node">
<title>Node7</title>
<g id="a_node7"><a xlink:href="a01497.html#a0f4f9703fc3910c6685b3ac55993f586" target="_top" xlink:title="Get the score for the given attribute of every node in the graph. Nodes that do not have a score for ...">
<polygon fill="white" stroke="black" points="313.5,-44.5 313.5,-74.5 462.5,-74.5 462.5,-44.5 313.5,-44.5"/>
<text text-anchor="start" x="321.5" y="-62.5" font-family="Helvetica,sans-Serif" font-size="10.00">HF::SpatialStructures</text>
<text text-anchor="middle" x="388" y="-51.5" font-family="Helvetica,sans-Serif" font-size="10.00">::Graph::GetNodeAttributes</text>
</a>
</g>
</g>
<!-- Node6&#45;&gt;Node7 -->
<g id="edge6" class="edge">
<title>Node6&#45;&gt;Node7</title>
<path fill="none" stroke="midnightblue" d="M271.35,-59.5C281.45,-59.5 292.24,-59.5 303.03,-59.5"/>
<polygon fill="midnightblue" stroke="midnightblue" points="303.35,-63 313.35,-59.5 303.35,-56 303.35,-63"/>
</g>
</g>
</svg>
