<?xml version="1.0" encoding="UTF-8" standalone="no"?>
<!DOCTYPE svg PUBLIC "-//W3C//DTD SVG 1.1//EN"
 "http://www.w3.org/Graphics/SVG/1.1/DTD/svg11.dtd">
<!-- Generated by graphviz version 8.0.5 (20230430.1635)
 -->
<!-- Title: Cinterface/cinterface_utils.cpp Pages: 1 -->
<svg width="322pt" height="152pt"
 viewBox="0.00 0.00 322.13 152.00" xmlns="http://www.w3.org/2000/svg" xmlns:xlink="http://www.w3.org/1999/xlink">
<g id="graph0" class="graph" transform="scale(1 1) rotate(0) translate(4 148)">
<title>Cinterface/cinterface_utils.cpp</title>
<!-- Node1 -->
<g id="node1" class="node">
<title>Node1</title>
<g id="a_node1"><a xlink:title=" ">
<polygon fill="#999999" stroke="#666666" points="184,-144 79.5,-144 79.5,-112 184,-112 184,-144"/>
<text text-anchor="start" x="87.5" y="-130.5" font-family="Helvetica,sans-Serif" font-size="10.00">Cinterface/cinterface</text>
<text text-anchor="middle" x="131.75" y="-118.5" font-family="Helvetica,sans-Serif" font-size="10.00">_utils.cpp</text>
</a>
</g>
</g>
<!-- Node2 -->
<g id="node2" class="node">
<title>Node2</title>
<g id="a_node2"><a xlink:href="a00413.html" target="_top" xlink:title=" ">
<polygon fill="white" stroke="#666666" points="123.5,-76 34,-76 34,-56 123.5,-56 123.5,-76"/>
<text text-anchor="middle" x="78.75" y="-62.5" font-family="Helvetica,sans-Serif" font-size="10.00">cinterface_utils.h</text>
</a>
</g>
</g>
<!-- Node1&#45;&gt;Node2 -->
<g id="edge1" class="edge">
<title>Node1&#45;&gt;Node2</title>
<path fill="none" stroke="#63b8ff" d="M118.1,-111.55C110.82,-103.3 101.82,-93.12 94.27,-84.57"/>
<polygon fill="#63b8ff" stroke="#63b8ff" points="97.3,-82.59 88.06,-77.41 92.06,-87.22 97.3,-82.59"/>
</g>
<!-- Node5 -->
<g id="node5" class="node">
<title>Node5</title>
<g id="a_node5"><a xlink:href="a00176.html" target="_top" xlink:title="Contains definitions for the Exceptions namespace.">
<polygon fill="white" stroke="#666666" points="242.63,-76 156.88,-76 156.88,-56 242.63,-56 242.63,-76"/>
<text text-anchor="middle" x="199.75" y="-62.5" font-family="Helvetica,sans-Serif" font-size="10.00">HFExceptions.h</text>
</a>
</g>
</g>
<!-- Node1&#45;&gt;Node5 -->
<g id="edge4" class="edge">
<title>Node1&#45;&gt;Node5</title>
<path fill="none" stroke="#63b8ff" d="M149.26,-111.55C159,-102.95 171.12,-92.26 181.05,-83.5"/>
<polygon fill="#63b8ff" stroke="#63b8ff" points="182.9,-86.65 188.09,-77.41 178.27,-81.4 182.9,-86.65"/>
</g>
<!-- Node3 -->
<g id="node3" class="node">
<title>Node3</title>
<g id="a_node3"><a xlink:title=" ">
<polygon fill="#e0e0e0" stroke="#999999" points="41.5,-20 0,-20 0,0 41.5,0 41.5,-20"/>
<text text-anchor="middle" x="20.75" y="-6.5" font-family="Helvetica,sans-Serif" font-size="10.00">vector</text>
</a>
</g>
</g>
<!-- Node2&#45;&gt;Node3 -->
<g id="edge2" class="edge">
<title>Node2&#45;&gt;Node3</title>
<path fill="none" stroke="#63b8ff" d="M68.65,-55.59C60.41,-47.93 48.58,-36.91 38.74,-27.75"/>
<polygon fill="#63b8ff" stroke="#63b8ff" points="41.44,-25.55 31.74,-21.3 36.67,-30.67 41.44,-25.55"/>
</g>
<!-- Node4 -->
<g id="node4" class="node">
<title>Node4</title>
<g id="a_node4"><a xlink:title=" ">
<polygon fill="#e0e0e0" stroke="#999999" points="97.63,-20 59.88,-20 59.88,0 97.63,0 97.63,-20"/>
<text text-anchor="middle" x="78.75" y="-6.5" font-family="Helvetica,sans-Serif" font-size="10.00">array</text>
</a>
</g>
</g>
<!-- Node2&#45;&gt;Node4 -->
<g id="edge3" class="edge">
<title>Node2&#45;&gt;Node4</title>
<path fill="none" stroke="#63b8ff" d="M78.75,-55.59C78.75,-48.86 78.75,-39.53 78.75,-31.15"/>
<polygon fill="#63b8ff" stroke="#63b8ff" points="82.25,-31.3 78.75,-21.3 75.25,-31.3 82.25,-31.3"/>
</g>
<!-- Node6 -->
<g id="node6" class="node">
<title>Node6</title>
<g id="a_node6"><a xlink:title=" ">
<polygon fill="#e0e0e0" stroke="#999999" points="173.75,-20 115.75,-20 115.75,0 173.75,0 173.75,-20"/>
<text text-anchor="middle" x="144.75" y="-6.5" font-family="Helvetica,sans-Serif" font-size="10.00">exception</text>
</a>
</g>
</g>
<!-- Node5&#45;&gt;Node6 -->
<g id="edge5" class="edge">
<title>Node5&#45;&gt;Node6</title>
<path fill="none" stroke="#63b8ff" d="M190.17,-55.59C182.36,-47.93 171.14,-36.91 161.81,-27.75"/>
<polygon fill="#63b8ff" stroke="#63b8ff" points="164.81,-25.81 155.22,-21.3 159.9,-30.8 164.81,-25.81"/>
</g>
<!-- Node7 -->
<g id="node7" class="node">
<title>Node7</title>
<g id="a_node7"><a xlink:title=" ">
<polygon fill="#e0e0e0" stroke="#999999" points="237.38,-20 192.13,-20 192.13,0 237.38,0 237.38,-20"/>
<text text-anchor="middle" x="214.75" y="-6.5" font-family="Helvetica,sans-Serif" font-size="10.00">cstring</text>
</a>
</g>
</g>
<!-- Node5&#45;&gt;Node7 -->
<g id="edge6" class="edge">
<title>Node5&#45;&gt;Node7</title>
<path fill="none" stroke="#63b8ff" d="M202.36,-55.59C204.26,-48.78 206.88,-39.32 209.23,-30.86"/>
<polygon fill="#63b8ff" stroke="#63b8ff" points="212.86,-31.87 212.17,-21.3 206.12,-30 212.86,-31.87"/>
</g>
<!-- Node8 -->
<g id="node8" class="node">
<title>Node8</title>
<g id="a_node8"><a xlink:title=" ">
<polygon fill="#e0e0e0" stroke="#999999" points="314.13,-20 255.38,-20 255.38,0 314.13,0 314.13,-20"/>
<text text-anchor="middle" x="284.75" y="-6.5" font-family="Helvetica,sans-Serif" font-size="10.00">stdexcept</text>
</a>
</g>
</g>
<!-- Node5&#45;&gt;Node8 -->
<g id="edge7" class="edge">
<title>Node5&#45;&gt;Node8</title>
<path fill="none" stroke="#63b8ff" d="M214.56,-55.59C227.28,-47.51 245.86,-35.71 260.71,-26.27"/>
<polygon fill="#63b8ff" stroke="#63b8ff" points="262.26,-28.8 268.83,-20.48 258.51,-22.89 262.26,-28.8"/>
</g>
</g>
</svg>
