<?xml version="1.0" encoding="UTF-8" standalone="no"?>
<!DOCTYPE svg PUBLIC "-//W3C//DTD SVG 1.1//EN"
 "http://www.w3.org/Graphics/SVG/1.1/DTD/svg11.dtd">
<!-- Generated by graphviz version 2.43.0 (0)
 -->
<!-- Title: HF::Pathfinding::GenerateDistanceAndPred Pages: 1 -->
<svg width="525pt" height="104pt"
 viewBox="0.00 0.00 525.00 104.00" xmlns="http://www.w3.org/2000/svg" xmlns:xlink="http://www.w3.org/1999/xlink">
<g id="graph0" class="graph" transform="scale(1 1) rotate(0) translate(4 100)">
<title>HF::Pathfinding::GenerateDistanceAndPred</title>
<polygon fill="white" stroke="transparent" points="-4,4 -4,-100 521,-100 521,4 -4,4"/>
<!-- Node1 -->
<g id="node1" class="node">
<title>Node1</title>
<g id="a_node1"><a xlink:title="Generate the distance and predecessor matricies for a specific boost graph.">
<polygon fill="#bfbfbf" stroke="black" points="377,-33 377,-63 517,-63 517,-33 377,-33"/>
<text text-anchor="start" x="385" y="-51" font-family="Helvetica,sans-Serif" font-size="10.00">HF::Pathfinding::Generate</text>
<text text-anchor="middle" x="447" y="-40" font-family="Helvetica,sans-Serif" font-size="10.00">DistanceAndPred</text>
</a>
</g>
</g>
<!-- Node2 -->
<g id="node2" class="node">
<title>Node2</title>
<g id="a_node2"><a xlink:href="a00390.html#ga27b1f45019ccbda909301520d1c738ca" target="_top" xlink:title="Calculate the distance and predecessor matricies for a graph.">
<polygon fill="white" stroke="black" points="158,-76.5 158,-95.5 341,-95.5 341,-76.5 158,-76.5"/>
<text text-anchor="middle" x="249.5" y="-83.5" font-family="Helvetica,sans-Serif" font-size="10.00">CalculateDistanceAndPredecessor</text>
</a>
</g>
</g>
<!-- Node1&#45;&gt;Node2 -->
<g id="edge1" class="edge">
<title>Node1&#45;&gt;Node2</title>
<path fill="none" stroke="midnightblue" d="M366.82,-63.39C344.1,-67.81 319.98,-72.49 299.64,-76.45"/>
<polygon fill="midnightblue" stroke="midnightblue" points="367.65,-66.79 376.8,-61.45 366.31,-59.92 367.65,-66.79"/>
</g>
<!-- Node4 -->
<g id="node4" class="node">
<title>Node4</title>
<g id="a_node4"><a xlink:href="a00414.html#a54e90e9bc9234bfe95b0e18e74baa0b2" target="_top" xlink:title=" ">
<polygon fill="white" stroke="black" points="0,-38.5 0,-57.5 122,-57.5 122,-38.5 0,-38.5"/>
<text text-anchor="middle" x="61" y="-45.5" font-family="Helvetica,sans-Serif" font-size="10.00">CInterfaceTests::TEST</text>
</a>
</g>
</g>
<!-- Node1&#45;&gt;Node4 -->
<g id="edge5" class="edge">
<title>Node1&#45;&gt;Node4</title>
<path fill="none" stroke="midnightblue" d="M366.88,-48C294.17,-48 187.97,-48 122.02,-48"/>
<polygon fill="midnightblue" stroke="midnightblue" points="366.91,-51.5 376.91,-48 366.9,-44.5 366.91,-51.5"/>
</g>
<!-- Node5 -->
<g id="node5" class="node">
<title>Node5</title>
<g id="a_node5"><a xlink:href="a00311.html#a09030f1e30c1d241c360d2f8a96023c8" target="_top" xlink:title=" ">
<polygon fill="white" stroke="black" points="229,-0.5 229,-19.5 270,-19.5 270,-0.5 229,-0.5"/>
<text text-anchor="middle" x="249.5" y="-7.5" font-family="Helvetica,sans-Serif" font-size="10.00">TEST</text>
</a>
</g>
</g>
<!-- Node1&#45;&gt;Node5 -->
<g id="edge4" class="edge">
<title>Node1&#45;&gt;Node5</title>
<path fill="none" stroke="midnightblue" d="M366.94,-32.63C331.59,-25.76 292.86,-18.23 270.17,-13.82"/>
<polygon fill="midnightblue" stroke="midnightblue" points="366.31,-36.08 376.8,-34.55 367.65,-29.21 366.31,-36.08"/>
</g>
<!-- Node3 -->
<g id="node3" class="node">
<title>Node3</title>
<g id="a_node3"><a xlink:href="a00311.html#a9cd14b781d7d4572fbcd5be32c359bf8" target="_top" xlink:title=" ">
<polygon fill="white" stroke="black" points="40.5,-76.5 40.5,-95.5 81.5,-95.5 81.5,-76.5 40.5,-76.5"/>
<text text-anchor="middle" x="61" y="-83.5" font-family="Helvetica,sans-Serif" font-size="10.00">TEST</text>
</a>
</g>
</g>
<!-- Node2&#45;&gt;Node3 -->
<g id="edge2" class="edge">
<title>Node2&#45;&gt;Node3</title>
<path fill="none" stroke="midnightblue" d="M147.87,-86C122.53,-86 97.93,-86 81.6,-86"/>
<polygon fill="midnightblue" stroke="midnightblue" points="147.98,-89.5 157.98,-86 147.98,-82.5 147.98,-89.5"/>
</g>
<!-- Node2&#45;&gt;Node4 -->
<g id="edge3" class="edge">
<title>Node2&#45;&gt;Node4</title>
<path fill="none" stroke="midnightblue" d="M191.52,-74.39C165,-68.99 133.83,-62.64 108.72,-57.52"/>
<polygon fill="midnightblue" stroke="midnightblue" points="190.94,-77.84 201.44,-76.41 192.34,-70.98 190.94,-77.84"/>
</g>
</g>
</svg>
