<?xml version="1.0" encoding="UTF-8" standalone="no"?>
<!DOCTYPE svg PUBLIC "-//W3C//DTD SVG 1.1//EN"
 "http://www.w3.org/Graphics/SVG/1.1/DTD/svg11.dtd">
<!-- Generated by graphviz version 2.43.0 (0)
 -->
<!-- Title: HF::VisibilityGraph::IsOcclusionBetween Pages: 1 -->
<svg width="684pt" height="137pt"
 viewBox="0.00 0.00 684.00 137.00" xmlns="http://www.w3.org/2000/svg" xmlns:xlink="http://www.w3.org/1999/xlink">
<g id="graph0" class="graph" transform="scale(1 1) rotate(0) translate(4 133)">
<title>HF::VisibilityGraph::IsOcclusionBetween</title>
<polygon fill="white" stroke="transparent" points="-4,4 -4,-133 680,-133 680,4 -4,4"/>
<!-- Node1 -->
<g id="node1" class="node">
<title>Node1</title>
<g id="a_node1"><a xlink:title="Perform a line of sight check between two nodes.">
<polygon fill="#bfbfbf" stroke="black" points="0,-49.5 0,-79.5 121,-79.5 121,-49.5 0,-49.5"/>
<text text-anchor="start" x="8" y="-67.5" font-family="Helvetica,sans-Serif" font-size="10.00">HF::VisibilityGraph</text>
<text text-anchor="middle" x="60.5" y="-56.5" font-family="Helvetica,sans-Serif" font-size="10.00">::IsOcclusionBetween</text>
</a>
</g>
</g>
<!-- Node2 -->
<g id="node2" class="node">
<title>Node2</title>
<g id="a_node2"><a xlink:href="a02017.html#ad3f7898ef3178eef0c3579869a7f5c67" target="_top" xlink:title="Get the direction between this node and another node">
<polygon fill="white" stroke="black" points="170.5,-98.5 170.5,-128.5 289.5,-128.5 289.5,-98.5 170.5,-98.5"/>
<text text-anchor="start" x="178.5" y="-116.5" font-family="Helvetica,sans-Serif" font-size="10.00">HF::SpatialStructures</text>
<text text-anchor="middle" x="230" y="-105.5" font-family="Helvetica,sans-Serif" font-size="10.00">::Node::directionTo</text>
</a>
</g>
</g>
<!-- Node1&#45;&gt;Node2 -->
<g id="edge1" class="edge">
<title>Node1&#45;&gt;Node2</title>
<path fill="none" stroke="midnightblue" d="M113.12,-79.6C130.4,-84.66 149.82,-90.34 167.76,-95.58"/>
<polygon fill="midnightblue" stroke="midnightblue" points="166.97,-99 177.55,-98.45 168.93,-92.28 166.97,-99"/>
</g>
<!-- Node4 -->
<g id="node4" class="node">
<title>Node4</title>
<g id="a_node4"><a xlink:href="a02017.html#abbd66b566460f9557a373b5fbcc30bb1" target="_top" xlink:title="Calculate the distance between this node and n2.">
<polygon fill="white" stroke="black" points="170.5,-49.5 170.5,-79.5 289.5,-79.5 289.5,-49.5 170.5,-49.5"/>
<text text-anchor="start" x="178.5" y="-67.5" font-family="Helvetica,sans-Serif" font-size="10.00">HF::SpatialStructures</text>
<text text-anchor="middle" x="230" y="-56.5" font-family="Helvetica,sans-Serif" font-size="10.00">::Node::distanceTo</text>
</a>
</g>
</g>
<!-- Node1&#45;&gt;Node4 -->
<g id="edge3" class="edge">
<title>Node1&#45;&gt;Node4</title>
<path fill="none" stroke="midnightblue" d="M121.03,-64.5C133.64,-64.5 147.05,-64.5 159.99,-64.5"/>
<polygon fill="midnightblue" stroke="midnightblue" points="160.23,-68 170.23,-64.5 160.23,-61 160.23,-68"/>
</g>
<!-- Node5 -->
<g id="node5" class="node">
<title>Node5</title>
<g id="a_node5"><a xlink:href="a01357.html#a3a7488f8e41c8a9e3dc9c334047c6457" target="_top" xlink:title="Determine if there is an intersection with any geometry.">
<polygon fill="white" stroke="black" points="157,-0.5 157,-30.5 303,-30.5 303,-0.5 157,-0.5"/>
<text text-anchor="start" x="165" y="-18.5" font-family="Helvetica,sans-Serif" font-size="10.00">HF::RayTracer::EmbreeRay</text>
<text text-anchor="middle" x="230" y="-7.5" font-family="Helvetica,sans-Serif" font-size="10.00">Tracer::Occluded</text>
</a>
</g>
</g>
<!-- Node1&#45;&gt;Node5 -->
<g id="edge4" class="edge">
<title>Node1&#45;&gt;Node5</title>
<path fill="none" stroke="midnightblue" d="M113.12,-49.4C130.4,-44.34 149.82,-38.66 167.76,-33.42"/>
<polygon fill="midnightblue" stroke="midnightblue" points="168.93,-36.72 177.55,-30.55 166.97,-30 168.93,-36.72"/>
</g>
<!-- Node3 -->
<g id="node3" class="node">
<title>Node3</title>
<g id="a_node3"><a xlink:href="a00399.html#ad9a8f0f70b3f60ac5cb7889885d851d1" target="_top" xlink:title=" ">
<polygon fill="white" stroke="black" points="352.5,-98.5 352.5,-128.5 471.5,-128.5 471.5,-98.5 352.5,-98.5"/>
<text text-anchor="start" x="360.5" y="-116.5" font-family="Helvetica,sans-Serif" font-size="10.00">HF::SpatialStructures</text>
<text text-anchor="middle" x="412" y="-105.5" font-family="Helvetica,sans-Serif" font-size="10.00">::Normalize</text>
</a>
</g>
</g>
<!-- Node2&#45;&gt;Node3 -->
<g id="edge2" class="edge">
<title>Node2&#45;&gt;Node3</title>
<path fill="none" stroke="midnightblue" d="M289.94,-113.5C306.65,-113.5 324.99,-113.5 342.23,-113.5"/>
<polygon fill="midnightblue" stroke="midnightblue" points="342.24,-117 352.24,-113.5 342.24,-110 342.24,-117"/>
</g>
<!-- Node6 -->
<g id="node6" class="node">
<title>Node6</title>
<g id="a_node6"><a xlink:href="a01357.html#ade19fda460dadd98769b347840bd305a" target="_top" xlink:title="Implementation for fundamental occlusion ray intersection.">
<polygon fill="white" stroke="black" points="339,-0.5 339,-30.5 485,-30.5 485,-0.5 339,-0.5"/>
<text text-anchor="start" x="347" y="-18.5" font-family="Helvetica,sans-Serif" font-size="10.00">HF::RayTracer::EmbreeRay</text>
<text text-anchor="middle" x="412" y="-7.5" font-family="Helvetica,sans-Serif" font-size="10.00">Tracer::Occluded_IMPL</text>
</a>
</g>
</g>
<!-- Node5&#45;&gt;Node6 -->
<g id="edge5" class="edge">
<title>Node5&#45;&gt;Node6</title>
<path fill="none" stroke="midnightblue" d="M303.18,-15.5C311.52,-15.5 320.08,-15.5 328.54,-15.5"/>
<polygon fill="midnightblue" stroke="midnightblue" points="328.81,-19 338.81,-15.5 328.81,-12 328.81,-19"/>
</g>
<!-- Node7 -->
<g id="node7" class="node">
<title>Node7</title>
<g id="a_node7"><a xlink:href="a00398.html#a76e5d26b5063f0e5b49b4ba835f1da93" target="_top" xlink:title=" ">
<polygon fill="white" stroke="black" points="521,-6 521,-25 676,-25 676,-6 521,-6"/>
<text text-anchor="middle" x="598.5" y="-13" font-family="Helvetica,sans-Serif" font-size="10.00">HF::RayTracer::ConstructRay</text>
</a>
</g>
</g>
<!-- Node6&#45;&gt;Node7 -->
<g id="edge6" class="edge">
<title>Node6&#45;&gt;Node7</title>
<path fill="none" stroke="midnightblue" d="M485.13,-15.5C493.55,-15.5 502.21,-15.5 510.81,-15.5"/>
<polygon fill="midnightblue" stroke="midnightblue" points="510.86,-19 520.86,-15.5 510.86,-12 510.86,-19"/>
</g>
</g>
</svg>
