<?xml version="1.0" encoding="UTF-8" standalone="no"?>
<!DOCTYPE svg PUBLIC "-//W3C//DTD SVG 1.1//EN"
 "http://www.w3.org/Graphics/SVG/1.1/DTD/svg11.dtd">
<!-- Generated by graphviz version 8.0.5 (20230430.1635)
 -->
<!-- Title: nlohmann::detail::hash Pages: 1 -->
<svg width="266pt" height="52pt"
 viewBox="0.00 0.00 265.75 52.00" xmlns="http://www.w3.org/2000/svg" xmlns:xlink="http://www.w3.org/1999/xlink">
<g id="graph0" class="graph" transform="scale(1 1) rotate(0) translate(4 48)">
<title>nlohmann::detail::hash</title>
<!-- Node1 -->
<g id="node1" class="node">
<title>Node1</title>
<g id="a_node1"><a xlink:title="hash a JSON value">
<polygon fill="#999999" stroke="#666666" points="257.75,-26 143.5,-26 143.5,-6 257.75,-6 257.75,-26"/>
<text text-anchor="middle" x="200.63" y="-12.5" font-family="Helvetica,sans-Serif" font-size="10.00">nlohmann::detail::hash</text>
</a>
</g>
</g>
<!-- Node1&#45;&gt;Node1 -->
<g id="edge1" class="edge">
<title>Node1&#45;&gt;Node1</title>
<path fill="none" stroke="#63b8ff" d="M227.11,-36.77C224.21,-40.98 215.39,-44 200.63,-44 175.09,-44 167.32,-34.98 177.29,-26.34"/>
<polygon fill="#63b8ff" stroke="#63b8ff" points="230.2,-35.9 223.96,-27.34 223.5,-37.92 230.2,-35.9"/>
</g>
<!-- Node2 -->
<g id="node2" class="node">
<title>Node2</title>
<g id="a_node2"><a xlink:href="a02063.html#aec1567d1fa47dbe5b77954dce3a55b64" target="_top" xlink:title="return a hash value for a JSON object">
<polygon fill="white" stroke="#666666" points="107.5,-32 0,-32 0,0 107.5,0 107.5,-32"/>
<text text-anchor="start" x="8" y="-18.5" font-family="Helvetica,sans-Serif" font-size="10.00">std::hash&lt; nlohmann</text>
<text text-anchor="middle" x="53.75" y="-6.5" font-family="Helvetica,sans-Serif" font-size="10.00">::json &gt;::operator()</text>
</a>
</g>
</g>
<!-- Node1&#45;&gt;Node2 -->
<g id="edge2" class="edge">
<title>Node1&#45;&gt;Node2</title>
<path fill="none" stroke="#63b8ff" d="M132.47,-16C124.24,-16 115.92,-16 107.94,-16"/>
<polygon fill="#63b8ff" stroke="#63b8ff" points="132.2,-19.5 142.2,-16 132.2,-12.5 132.2,-19.5"/>
</g>
</g>
</svg>
