<?xml version="1.0" encoding="UTF-8" standalone="no"?>
<!DOCTYPE svg PUBLIC "-//W3C//DTD SVG 1.1//EN"
 "http://www.w3.org/Graphics/SVG/1.1/DTD/svg11.dtd">
<!-- Generated by graphviz version 8.0.5 (20230430.1635)
 -->
<!-- Title: AddMesh Pages: 1 -->
<svg width="602pt" height="170pt"
 viewBox="0.00 0.00 601.50 170.00" xmlns="http://www.w3.org/2000/svg" xmlns:xlink="http://www.w3.org/1999/xlink">
<g id="graph0" class="graph" transform="scale(1 1) rotate(0) translate(4 166)">
<title>AddMesh</title>
<!-- Node1 -->
<g id="node1" class="node">
<title>Node1</title>
<g id="a_node1"><a xlink:title="Add a new mesh to a raytracer.">
<polygon fill="#999999" stroke="#666666" points="57.25,-76 0,-76 0,-56 57.25,-56 57.25,-76"/>
<text text-anchor="middle" x="28.63" y="-62.5" font-family="Helvetica,sans-Serif" font-size="10.00">AddMesh</text>
</a>
</g>
</g>
<!-- Node2 -->
<g id="node2" class="node">
<title>Node2</title>
<g id="a_node2"><a xlink:href="a01411.html#a6425a0f8f4a3ef8073e734ceb745cd1e" target="_top" xlink:title="Add a new mesh to this raytracer&#39;s BVH with the specified ID.">
<polygon fill="white" stroke="#666666" points="229.25,-82 93.25,-82 93.25,-50 229.25,-50 229.25,-82"/>
<text text-anchor="start" x="101.25" y="-68.5" font-family="Helvetica,sans-Serif" font-size="10.00">HF::RayTracer::EmbreeRay</text>
<text text-anchor="middle" x="161.25" y="-56.5" font-family="Helvetica,sans-Serif" font-size="10.00">Tracer::AddMesh</text>
</a>
</g>
</g>
<!-- Node1&#45;&gt;Node2 -->
<g id="edge1" class="edge">
<title>Node1&#45;&gt;Node2</title>
<path fill="none" stroke="#63b8ff" d="M57.65,-66C64.97,-66 73.24,-66 81.83,-66"/>
<polygon fill="#63b8ff" stroke="#63b8ff" points="81.82,-69.5 91.82,-66 81.82,-62.5 81.82,-69.5"/>
</g>
<!-- Node3 -->
<g id="node3" class="node">
<title>Node3</title>
<g id="a_node3"><a xlink:href="a01411.html#aa602f6c44fa5230477642942ebc3216e" target="_top" xlink:title="Create a new instance of RTCGeometry from a triangle and vertex buffer.">
<polygon fill="white" stroke="#666666" points="421.5,-162 265.25,-162 265.25,-118 421.5,-118 421.5,-162"/>
<text text-anchor="start" x="273.25" y="-148.5" font-family="Helvetica,sans-Serif" font-size="10.00">HF::RayTracer::EmbreeRay</text>
<text text-anchor="start" x="273.25" y="-136.5" font-family="Helvetica,sans-Serif" font-size="10.00">Tracer::ConstructGeometryFrom</text>
<text text-anchor="middle" x="343.38" y="-124.5" font-family="Helvetica,sans-Serif" font-size="10.00">Buffers</text>
</a>
</g>
</g>
<!-- Node2&#45;&gt;Node3 -->
<g id="edge2" class="edge">
<title>Node2&#45;&gt;Node3</title>
<path fill="none" stroke="#63b8ff" d="M201.33,-82.46C220.55,-90.52 244.09,-100.33 265.25,-109 268.87,-110.48 272.58,-112 276.34,-113.52"/>
<polygon fill="#63b8ff" stroke="#63b8ff" points="274.73,-117.06 285.31,-117.57 277.36,-110.57 274.73,-117.06"/>
</g>
<!-- Node4 -->
<g id="node4" class="node">
<title>Node4</title>
<g id="a_node4"><a xlink:href="a01411.html#a6ee1e15bc515878b156bc6a3778f8033" target="_top" xlink:title="Attach geometry to the current scene.">
<polygon fill="white" stroke="#666666" points="411.38,-82 275.38,-82 275.38,-50 411.38,-50 411.38,-82"/>
<text text-anchor="start" x="283.38" y="-68.5" font-family="Helvetica,sans-Serif" font-size="10.00">HF::RayTracer::EmbreeRay</text>
<text text-anchor="middle" x="343.38" y="-56.5" font-family="Helvetica,sans-Serif" font-size="10.00">Tracer::InsertGeom</text>
</a>
</g>
</g>
<!-- Node2&#45;&gt;Node4 -->
<g id="edge3" class="edge">
<title>Node2&#45;&gt;Node4</title>
<path fill="none" stroke="#63b8ff" d="M229.58,-66C240.86,-66 252.65,-66 264.18,-66"/>
<polygon fill="#63b8ff" stroke="#63b8ff" points="264.13,-69.5 274.13,-66 264.13,-62.5 264.13,-69.5"/>
</g>
<!-- Node6 -->
<g id="node6" class="node">
<title>Node6</title>
<g id="a_node6"><a xlink:href="a00464.html#a732eb910d06064bea04e6a959fd235f0" target="_top" xlink:title="Index a list of verticies and place them into a triangle and vertex buffer.">
<polygon fill="white" stroke="#666666" points="406.5,-32 280.25,-32 280.25,0 406.5,0 406.5,-32"/>
<text text-anchor="start" x="288.25" y="-18.5" font-family="Helvetica,sans-Serif" font-size="10.00">HF::RayTracer::vectorsTo</text>
<text text-anchor="middle" x="343.38" y="-6.5" font-family="Helvetica,sans-Serif" font-size="10.00">Buffers</text>
</a>
</g>
</g>
<!-- Node2&#45;&gt;Node6 -->
<g id="edge6" class="edge">
<title>Node2&#45;&gt;Node6</title>
<path fill="none" stroke="#63b8ff" d="M221.48,-49.56C237.87,-45.01 255.81,-40.03 272.73,-35.33"/>
<polygon fill="#63b8ff" stroke="#63b8ff" points="273.41,-38.5 282.11,-32.45 271.54,-31.75 273.41,-38.5"/>
</g>
<!-- Node4&#45;&gt;Node4 -->
<g id="edge5" class="edge">
<title>Node4&#45;&gt;Node4</title>
<path fill="none" stroke="#63b8ff" d="M310.86,-82.44C304.79,-91.58 315.63,-100 343.38,-100 359.42,-100 369.8,-97.19 374.54,-93.05"/>
<polygon fill="#63b8ff" stroke="#63b8ff" points="378.1,-93.8 375.89,-83.44 371.16,-92.92 378.1,-93.8"/>
</g>
<!-- Node5 -->
<g id="node5" class="node">
<title>Node5</title>
<g id="a_node5"><a xlink:href="a00464.html#a19e11d13f73136d6819b8abee57b0fd9" target="_top" xlink:title="Check an embree device for errors.">
<polygon fill="white" stroke="#666666" points="593.5,-76 457.5,-76 457.5,-56 593.5,-56 593.5,-76"/>
<text text-anchor="middle" x="525.5" y="-62.5" font-family="Helvetica,sans-Serif" font-size="10.00">HF::RayTracer::CheckState</text>
</a>
</g>
</g>
<!-- Node4&#45;&gt;Node5 -->
<g id="edge4" class="edge">
<title>Node4&#45;&gt;Node5</title>
<path fill="none" stroke="#63b8ff" d="M411.7,-66C422.99,-66 434.78,-66 446.31,-66"/>
<polygon fill="#63b8ff" stroke="#63b8ff" points="446.25,-69.5 456.25,-66 446.25,-62.5 446.25,-69.5"/>
</g>
</g>
</svg>
