<?xml version="1.0" encoding="UTF-8" standalone="no"?>
<!DOCTYPE svg PUBLIC "-//W3C//DTD SVG 1.1//EN"
 "http://www.w3.org/Graphics/SVG/1.1/DTD/svg11.dtd">
<!-- Generated by graphviz version 2.43.0 (0)
 -->
<!-- Title: CInterfaceTests::TEST Pages: 1 -->
<svg width="862pt" height="407pt"
 viewBox="0.00 0.00 862.00 407.00" xmlns="http://www.w3.org/2000/svg" xmlns:xlink="http://www.w3.org/1999/xlink">
<g id="graph0" class="graph" transform="scale(1 1) rotate(0) translate(4 403)">
<title>CInterfaceTests::TEST</title>
<polygon fill="white" stroke="transparent" points="-4,4 -4,-403 858,-403 858,4 -4,4"/>
<!-- Node1 -->
<g id="node1" class="node">
<title>Node1</title>
<g id="a_node1"><a xlink:title=" ">
<polygon fill="#bfbfbf" stroke="black" points="0,-204 0,-223 122,-223 122,-204 0,-204"/>
<text text-anchor="middle" x="61" y="-211" font-family="Helvetica,sans-Serif" font-size="10.00">CInterfaceTests::TEST</text>
</a>
</g>
</g>
<!-- Node2 -->
<g id="node2" class="node">
<title>Node2</title>
<g id="a_node2"><a xlink:href="a01497.html#a37be5c12e488072dea7fa1c8c64346f7" target="_top" xlink:title="Add a new edge to the graph from parent to child.">
<polygon fill="white" stroke="black" points="173,-368.5 173,-398.5 292,-398.5 292,-368.5 173,-368.5"/>
<text text-anchor="start" x="181" y="-386.5" font-family="Helvetica,sans-Serif" font-size="10.00">HF::SpatialStructures</text>
<text text-anchor="middle" x="232.5" y="-375.5" font-family="Helvetica,sans-Serif" font-size="10.00">::Graph::addEdge</text>
</a>
</g>
</g>
<!-- Node1&#45;&gt;Node2 -->
<g id="edge1" class="edge">
<title>Node1&#45;&gt;Node2</title>
<path fill="none" stroke="midnightblue" d="M65.72,-223.31C76.13,-249.45 108.1,-321.38 158,-359.5 159.82,-360.89 161.72,-362.2 163.69,-363.44"/>
<polygon fill="midnightblue" stroke="midnightblue" points="162.23,-366.63 172.68,-368.4 165.62,-360.5 162.23,-366.63"/>
</g>
<!-- Node3 -->
<g id="node3" class="node">
<title>Node3</title>
<g id="a_node3"><a xlink:href="a01497.html#a6f04c5320d4bf88120f8c5e31b0fb02a" target="_top" xlink:title="Add multiple edges to the graph.">
<polygon fill="white" stroke="black" points="173,-319.5 173,-349.5 292,-349.5 292,-319.5 173,-319.5"/>
<text text-anchor="start" x="181" y="-337.5" font-family="Helvetica,sans-Serif" font-size="10.00">HF::SpatialStructures</text>
<text text-anchor="middle" x="232.5" y="-326.5" font-family="Helvetica,sans-Serif" font-size="10.00">::Graph::AddEdges</text>
</a>
</g>
</g>
<!-- Node1&#45;&gt;Node3 -->
<g id="edge2" class="edge">
<title>Node1&#45;&gt;Node3</title>
<path fill="none" stroke="midnightblue" d="M69.11,-223.12C83.7,-242.23 118.98,-285.22 158,-309.5 161.32,-311.56 164.82,-313.48 168.44,-315.26"/>
<polygon fill="midnightblue" stroke="midnightblue" points="167.03,-318.46 177.59,-319.39 169.91,-312.08 167.03,-318.46"/>
</g>
<!-- Node4 -->
<g id="node4" class="node">
<title>Node4</title>
<g id="a_node4"><a xlink:href="a00371.html#a047beaeb65d7842c75f024915219177e" target="_top" xlink:title="Get the cost algorithm title (as std::string) from the COST_ALG_KEY enum member.">
<polygon fill="white" stroke="black" points="178.5,-281 178.5,-300 286.5,-300 286.5,-281 178.5,-281"/>
<text text-anchor="middle" x="232.5" y="-288" font-family="Helvetica,sans-Serif" font-size="10.00">AlgorithmCostTitle</text>
</a>
</g>
</g>
<!-- Node1&#45;&gt;Node4 -->
<g id="edge3" class="edge">
<title>Node1&#45;&gt;Node4</title>
<path fill="none" stroke="midnightblue" d="M75.01,-223.06C92.88,-235.78 126.41,-258.21 158,-271.5 163.82,-273.95 170.04,-276.15 176.29,-278.1"/>
<polygon fill="midnightblue" stroke="midnightblue" points="175.54,-281.53 186.12,-280.97 177.5,-274.81 175.54,-281.53"/>
</g>
<!-- Node5 -->
<g id="node5" class="node">
<title>Node5</title>
<g id="a_node5"><a xlink:href="a00409.html#ac51f2e76c00356f8a6145bee865cd922" target="_top" xlink:title=" ">
<polygon fill="white" stroke="black" points="158,-221 158,-262 307,-262 307,-221 158,-221"/>
<text text-anchor="start" x="166" y="-250" font-family="Helvetica,sans-Serif" font-size="10.00">HF::SpatialStructures</text>
<text text-anchor="start" x="166" y="-239" font-family="Helvetica,sans-Serif" font-size="10.00">::CostAlgorithms::Calculate</text>
<text text-anchor="middle" x="232.5" y="-228" font-family="Helvetica,sans-Serif" font-size="10.00">EnergyExpenditure</text>
</a>
</g>
</g>
<!-- Node1&#45;&gt;Node5 -->
<g id="edge4" class="edge">
<title>Node1&#45;&gt;Node5</title>
<path fill="none" stroke="midnightblue" d="M119.86,-223.06C128.8,-224.54 138.19,-226.09 147.57,-227.64"/>
<polygon fill="midnightblue" stroke="midnightblue" points="147.28,-231.14 157.72,-229.31 148.42,-224.23 147.28,-231.14"/>
</g>
<!-- Node12 -->
<g id="node12" class="node">
<title>Node12</title>
<g id="a_node12"><a xlink:href="a01497.html#a41cece77d0eee98df39ecc6d3a366ec8" target="_top" xlink:title="Compress the graph to a CSR and enable the usage of several functions.">
<polygon fill="white" stroke="black" points="173,-171.5 173,-201.5 292,-201.5 292,-171.5 173,-171.5"/>
<text text-anchor="start" x="181" y="-189.5" font-family="Helvetica,sans-Serif" font-size="10.00">HF::SpatialStructures</text>
<text text-anchor="middle" x="232.5" y="-178.5" font-family="Helvetica,sans-Serif" font-size="10.00">::Graph::Compress</text>
</a>
</g>
</g>
<!-- Node1&#45;&gt;Node12 -->
<g id="edge11" class="edge">
<title>Node1&#45;&gt;Node12</title>
<path fill="none" stroke="midnightblue" d="M121.76,-203.98C134.98,-201.88 149.08,-199.63 162.63,-197.47"/>
<polygon fill="midnightblue" stroke="midnightblue" points="163.53,-200.87 172.85,-195.84 162.42,-193.96 163.53,-200.87"/>
</g>
<!-- Node13 -->
<g id="node13" class="node">
<title>Node13</title>
<g id="a_node13"><a xlink:href="a00406.html#ae2106e09eb44d681fbc6c0f66a3d3ac4" target="_top" xlink:title="Create a new boost graph from a HF::SpatialStructures:Graph.">
<polygon fill="white" stroke="black" points="343,-122.5 343,-152.5 498,-152.5 498,-122.5 343,-122.5"/>
<text text-anchor="start" x="351" y="-140.5" font-family="Helvetica,sans-Serif" font-size="10.00">HF::Pathfinding::CreateBoost</text>
<text text-anchor="middle" x="420.5" y="-129.5" font-family="Helvetica,sans-Serif" font-size="10.00">Graph</text>
</a>
</g>
</g>
<!-- Node1&#45;&gt;Node13 -->
<g id="edge12" class="edge">
<title>Node1&#45;&gt;Node13</title>
<path fill="none" stroke="midnightblue" d="M75.52,-203.85C93.43,-191.64 126.43,-171.06 158,-161.5 214.66,-144.35 281.11,-138.42 332.85,-136.74"/>
<polygon fill="midnightblue" stroke="midnightblue" points="333.1,-140.24 343,-136.46 332.9,-133.24 333.1,-140.24"/>
</g>
<!-- Node14 -->
<g id="node14" class="node">
<title>Node14</title>
<g id="a_node14"><a xlink:href="a00390.html#gae1ac2805c3b86883bb88269ed3868367" target="_top" xlink:title="Find multiple shortest paths in paralllel.">
<polygon fill="white" stroke="black" points="195,-95 195,-114 270,-114 270,-95 195,-95"/>
<text text-anchor="middle" x="232.5" y="-102" font-family="Helvetica,sans-Serif" font-size="10.00">CreatePaths</text>
</a>
</g>
</g>
<!-- Node1&#45;&gt;Node14 -->
<g id="edge13" class="edge">
<title>Node1&#45;&gt;Node14</title>
<path fill="none" stroke="midnightblue" d="M70.29,-203.93C85.83,-186.55 121.11,-149.63 158,-128.5 166.39,-123.7 175.87,-119.7 185.17,-116.43"/>
<polygon fill="midnightblue" stroke="midnightblue" points="186.33,-119.73 194.74,-113.28 184.14,-113.08 186.33,-119.73"/>
</g>
<!-- Node21 -->
<g id="node21" class="node">
<title>Node21</title>
<g id="a_node21"><a xlink:href="a00390.html#ga884a3374d971261a01ccfd3b21e288e5" target="_top" xlink:title="Delete a path.">
<polygon fill="white" stroke="black" points="194.5,-49 194.5,-68 270.5,-68 270.5,-49 194.5,-49"/>
<text text-anchor="middle" x="232.5" y="-56" font-family="Helvetica,sans-Serif" font-size="10.00">DestroyPath</text>
</a>
</g>
</g>
<!-- Node1&#45;&gt;Node21 -->
<g id="edge21" class="edge">
<title>Node1&#45;&gt;Node21</title>
<path fill="none" stroke="midnightblue" d="M66.65,-203.99C78.57,-180.52 112.54,-119.33 158,-85.5 165.93,-79.6 175.29,-74.87 184.62,-71.13"/>
<polygon fill="midnightblue" stroke="midnightblue" points="186.11,-74.31 194.28,-67.57 183.69,-67.74 186.11,-74.31"/>
</g>
<!-- Node6 -->
<g id="node6" class="node">
<title>Node6</title>
<g id="a_node6"><a xlink:href="a00409.html#ae06eb693d0d7858d7a863fae3a6eee2c" target="_top" xlink:title=" ">
<polygon fill="white" stroke="black" points="346,-331 346,-372 495,-372 495,-331 346,-331"/>
<text text-anchor="start" x="354" y="-360" font-family="Helvetica,sans-Serif" font-size="10.00">HF::SpatialStructures</text>
<text text-anchor="start" x="354" y="-349" font-family="Helvetica,sans-Serif" font-size="10.00">::CostAlgorithms::Calculate</text>
<text text-anchor="middle" x="420.5" y="-338" font-family="Helvetica,sans-Serif" font-size="10.00">Slope</text>
</a>
</g>
</g>
<!-- Node5&#45;&gt;Node6 -->
<g id="edge5" class="edge">
<title>Node5&#45;&gt;Node6</title>
<path fill="none" stroke="midnightblue" d="M292.55,-262.04C297.66,-264.86 302.56,-268 307,-271.5 328.51,-288.44 321.37,-304.71 343,-321.5 344.83,-322.92 346.74,-324.28 348.7,-325.59"/>
<polygon fill="midnightblue" stroke="midnightblue" points="347.27,-328.81 357.65,-330.94 350.86,-322.8 347.27,-328.81"/>
</g>
<!-- Node8 -->
<g id="node8" class="node">
<title>Node8</title>
<g id="a_node8"><a xlink:href="a02017.html#ad3f7898ef3178eef0c3579869a7f5c67" target="_top" xlink:title="Get the direction between this node and another node">
<polygon fill="white" stroke="black" points="361,-281.5 361,-311.5 480,-311.5 480,-281.5 361,-281.5"/>
<text text-anchor="start" x="369" y="-299.5" font-family="Helvetica,sans-Serif" font-size="10.00">HF::SpatialStructures</text>
<text text-anchor="middle" x="420.5" y="-288.5" font-family="Helvetica,sans-Serif" font-size="10.00">::Node::directionTo</text>
</a>
</g>
</g>
<!-- Node5&#45;&gt;Node8 -->
<g id="edge7" class="edge">
<title>Node5&#45;&gt;Node8</title>
<path fill="none" stroke="midnightblue" d="M303.02,-262.06C321.39,-267.49 341.07,-273.31 358.93,-278.59"/>
<polygon fill="midnightblue" stroke="midnightblue" points="358.06,-281.98 368.64,-281.46 360.04,-275.27 358.06,-281.98"/>
</g>
<!-- Node10 -->
<g id="node10" class="node">
<title>Node10</title>
<g id="a_node10"><a xlink:href="a02017.html#abbd66b566460f9557a373b5fbcc30bb1" target="_top" xlink:title="Calculate the distance between this node and n2.">
<polygon fill="white" stroke="black" points="361,-232.5 361,-262.5 480,-262.5 480,-232.5 361,-232.5"/>
<text text-anchor="start" x="369" y="-250.5" font-family="Helvetica,sans-Serif" font-size="10.00">HF::SpatialStructures</text>
<text text-anchor="middle" x="420.5" y="-239.5" font-family="Helvetica,sans-Serif" font-size="10.00">::Node::distanceTo</text>
</a>
</g>
</g>
<!-- Node5&#45;&gt;Node10 -->
<g id="edge9" class="edge">
<title>Node5&#45;&gt;Node10</title>
<path fill="none" stroke="midnightblue" d="M307.01,-243.87C321.39,-244.34 336.43,-244.82 350.65,-245.28"/>
<polygon fill="midnightblue" stroke="midnightblue" points="350.73,-248.78 360.84,-245.61 350.96,-241.79 350.73,-248.78"/>
</g>
<!-- Node11 -->
<g id="node11" class="node">
<title>Node11</title>
<g id="a_node11"><a xlink:href="a00409.html#ae7b446fefe0b9994859f47b85de79039" target="_top" xlink:title=" ">
<polygon fill="white" stroke="black" points="361,-172 361,-213 480,-213 480,-172 361,-172"/>
<text text-anchor="start" x="369" y="-201" font-family="Helvetica,sans-Serif" font-size="10.00">HF::SpatialStructures</text>
<text text-anchor="start" x="369" y="-190" font-family="Helvetica,sans-Serif" font-size="10.00">::CostAlgorithms::to</text>
<text text-anchor="middle" x="420.5" y="-179" font-family="Helvetica,sans-Serif" font-size="10.00">_radians</text>
</a>
</g>
</g>
<!-- Node5&#45;&gt;Node11 -->
<g id="edge10" class="edge">
<title>Node5&#45;&gt;Node11</title>
<path fill="none" stroke="midnightblue" d="M307.01,-222.13C321.53,-218.31 336.72,-214.31 351.06,-210.53"/>
<polygon fill="midnightblue" stroke="midnightblue" points="352.06,-213.89 360.84,-207.95 350.28,-207.12 352.06,-213.89"/>
</g>
<!-- Node7 -->
<g id="node7" class="node">
<title>Node7</title>
<g id="a_node7"><a xlink:href="a00409.html#adee2fb2573f4dbc2e5c7db153dff2694" target="_top" xlink:title=" ">
<polygon fill="white" stroke="black" points="556,-331 556,-372 675,-372 675,-331 556,-331"/>
<text text-anchor="start" x="564" y="-360" font-family="Helvetica,sans-Serif" font-size="10.00">HF::SpatialStructures</text>
<text text-anchor="start" x="564" y="-349" font-family="Helvetica,sans-Serif" font-size="10.00">::CostAlgorithms::to</text>
<text text-anchor="middle" x="615.5" y="-338" font-family="Helvetica,sans-Serif" font-size="10.00">_degrees</text>
</a>
</g>
</g>
<!-- Node6&#45;&gt;Node7 -->
<g id="edge6" class="edge">
<title>Node6&#45;&gt;Node7</title>
<path fill="none" stroke="midnightblue" d="M495.02,-351.5C511.69,-351.5 529.33,-351.5 545.8,-351.5"/>
<polygon fill="midnightblue" stroke="midnightblue" points="545.88,-355 555.88,-351.5 545.88,-348 545.88,-355"/>
</g>
<!-- Node9 -->
<g id="node9" class="node">
<title>Node9</title>
<g id="a_node9"><a xlink:href="a00399.html#ad9a8f0f70b3f60ac5cb7889885d851d1" target="_top" xlink:title=" ">
<polygon fill="white" stroke="black" points="556,-281.5 556,-311.5 675,-311.5 675,-281.5 556,-281.5"/>
<text text-anchor="start" x="564" y="-299.5" font-family="Helvetica,sans-Serif" font-size="10.00">HF::SpatialStructures</text>
<text text-anchor="middle" x="615.5" y="-288.5" font-family="Helvetica,sans-Serif" font-size="10.00">::Normalize</text>
</a>
</g>
</g>
<!-- Node8&#45;&gt;Node9 -->
<g id="edge8" class="edge">
<title>Node8&#45;&gt;Node9</title>
<path fill="none" stroke="midnightblue" d="M480.19,-296.5C500.87,-296.5 524.3,-296.5 545.74,-296.5"/>
<polygon fill="midnightblue" stroke="midnightblue" points="545.75,-300 555.75,-296.5 545.75,-293 545.75,-300"/>
</g>
<!-- Node14&#45;&gt;Node13 -->
<g id="edge14" class="edge">
<title>Node14&#45;&gt;Node13</title>
<path fill="none" stroke="midnightblue" d="M270.25,-111.02C288.24,-114.21 310.74,-118.2 332.76,-122.11"/>
<polygon fill="midnightblue" stroke="midnightblue" points="332.37,-125.6 342.83,-123.9 333.6,-118.7 332.37,-125.6"/>
</g>
<!-- Node15 -->
<g id="node15" class="node">
<title>Node15</title>
<g id="a_node15"><a xlink:href="a00406.html#a417084c97d0672af2da7739157a9d8c0" target="_top" xlink:title="A special version of FindPaths optimized for the C_Interface.">
<polygon fill="white" stroke="black" points="346,-73.5 346,-103.5 495,-103.5 495,-73.5 346,-73.5"/>
<text text-anchor="start" x="354" y="-91.5" font-family="Helvetica,sans-Serif" font-size="10.00">HF::Pathfinding::InsertPaths</text>
<text text-anchor="middle" x="420.5" y="-80.5" font-family="Helvetica,sans-Serif" font-size="10.00">IntoArray</text>
</a>
</g>
</g>
<!-- Node14&#45;&gt;Node15 -->
<g id="edge15" class="edge">
<title>Node14&#45;&gt;Node15</title>
<path fill="none" stroke="midnightblue" d="M270.25,-101.34C289.06,-99.72 312.79,-97.68 335.77,-95.7"/>
<polygon fill="midnightblue" stroke="midnightblue" points="336.23,-99.18 345.9,-94.83 335.63,-92.2 336.23,-99.18"/>
</g>
<!-- Node16 -->
<g id="node16" class="node">
<title>Node16</title>
<g id="a_node16"><a xlink:href="a00406.html#a9f6490539108da057db2486295458886" target="_top" xlink:title="Build a row of the distance and predecessor matrices for the node at id.">
<polygon fill="white" stroke="black" points="534,-147.5 534,-177.5 697,-177.5 697,-147.5 534,-147.5"/>
<text text-anchor="start" x="542" y="-165.5" font-family="Helvetica,sans-Serif" font-size="10.00">HF::Pathfinding::BuildDistance</text>
<text text-anchor="middle" x="615.5" y="-154.5" font-family="Helvetica,sans-Serif" font-size="10.00">AndPredecessor</text>
</a>
</g>
</g>
<!-- Node15&#45;&gt;Node16 -->
<g id="edge16" class="edge">
<title>Node15&#45;&gt;Node16</title>
<path fill="none" stroke="midnightblue" d="M476.62,-103.57C483.94,-106.21 491.25,-109.19 498,-112.5 515.49,-121.07 516.49,-128.96 534,-137.5 538.65,-139.77 543.55,-141.89 548.54,-143.85"/>
<polygon fill="midnightblue" stroke="midnightblue" points="547.62,-147.25 558.21,-147.45 550.06,-140.68 547.62,-147.25"/>
</g>
<!-- Node18 -->
<g id="node18" class="node">
<title>Node18</title>
<g id="a_node18"><a xlink:href="a00406.html#a322ac32effd41c99359b82df0890e34a" target="_top" xlink:title="Overload to call this with a distPred instead of the raw arrays.">
<polygon fill="white" stroke="black" points="544.5,-98.5 544.5,-128.5 686.5,-128.5 686.5,-98.5 544.5,-98.5"/>
<text text-anchor="start" x="552.5" y="-116.5" font-family="Helvetica,sans-Serif" font-size="10.00">HF::Pathfinding::Construct</text>
<text text-anchor="middle" x="615.5" y="-105.5" font-family="Helvetica,sans-Serif" font-size="10.00">ShortestPathFromPred</text>
</a>
</g>
</g>
<!-- Node15&#45;&gt;Node18 -->
<g id="edge18" class="edge">
<title>Node15&#45;&gt;Node18</title>
<path fill="none" stroke="midnightblue" d="M495.02,-98.02C507.79,-99.68 521.14,-101.41 534.09,-103.08"/>
<polygon fill="midnightblue" stroke="midnightblue" points="534,-106.6 544.37,-104.42 534.9,-99.66 534,-106.6"/>
</g>
<!-- Node19 -->
<g id="node19" class="node">
<title>Node19</title>
<g id="a_node19"><a xlink:href="a02029.html#a942cb49007bbeb5588e2d526c68bdcf9" target="_top" xlink:title="Get a pointer to the path&#39;s underlying path members vector.">
<polygon fill="white" stroke="black" points="556,-49.5 556,-79.5 675,-79.5 675,-49.5 556,-49.5"/>
<text text-anchor="start" x="564" y="-67.5" font-family="Helvetica,sans-Serif" font-size="10.00">HF::SpatialStructures</text>
<text text-anchor="middle" x="615.5" y="-56.5" font-family="Helvetica,sans-Serif" font-size="10.00">::Path::GetPMPointer</text>
</a>
</g>
</g>
<!-- Node15&#45;&gt;Node19 -->
<g id="edge19" class="edge">
<title>Node15&#45;&gt;Node19</title>
<path fill="none" stroke="midnightblue" d="M495.02,-79.36C511.69,-77.28 529.33,-75.09 545.8,-73.04"/>
<polygon fill="midnightblue" stroke="midnightblue" points="546.39,-76.5 555.88,-71.79 545.52,-69.55 546.39,-76.5"/>
</g>
<!-- Node20 -->
<g id="node20" class="node">
<title>Node20</title>
<g id="a_node20"><a xlink:href="a02029.html#a28f61f0f57b38a5249a11a725d9d692b" target="_top" xlink:title="Determine how many nodes are in this path.">
<polygon fill="white" stroke="black" points="556,-0.5 556,-30.5 675,-30.5 675,-0.5 556,-0.5"/>
<text text-anchor="start" x="564" y="-18.5" font-family="Helvetica,sans-Serif" font-size="10.00">HF::SpatialStructures</text>
<text text-anchor="middle" x="615.5" y="-7.5" font-family="Helvetica,sans-Serif" font-size="10.00">::Path::size</text>
</a>
</g>
</g>
<!-- Node15&#45;&gt;Node20 -->
<g id="edge20" class="edge">
<title>Node15&#45;&gt;Node20</title>
<path fill="none" stroke="midnightblue" d="M474.1,-73.41C482.25,-70.48 490.46,-67.16 498,-63.5 515.3,-55.1 516.59,-47.67 534,-39.5 538.05,-37.6 542.27,-35.81 546.59,-34.14"/>
<polygon fill="midnightblue" stroke="midnightblue" points="547.94,-37.37 556.12,-30.64 545.53,-30.8 547.94,-37.37"/>
</g>
<!-- Node17 -->
<g id="node17" class="node">
<title>Node17</title>
<g id="a_node17"><a xlink:href="a00411.html#acc422c11342b31368f610b6f96fcedc6" target="_top" xlink:title=" ">
<polygon fill="white" stroke="black" points="733,-153 733,-172 854,-172 854,-153 733,-153"/>
<text text-anchor="middle" x="793.5" y="-160" font-family="Helvetica,sans-Serif" font-size="10.00">nlohmann::detail::get</text>
</a>
</g>
</g>
<!-- Node16&#45;&gt;Node17 -->
<g id="edge17" class="edge">
<title>Node16&#45;&gt;Node17</title>
<path fill="none" stroke="midnightblue" d="M697.03,-162.5C705.59,-162.5 714.24,-162.5 722.66,-162.5"/>
<polygon fill="midnightblue" stroke="midnightblue" points="722.8,-166 732.8,-162.5 722.8,-159 722.8,-166"/>
</g>
<!-- Node22 -->
<g id="node22" class="node">
<title>Node22</title>
<g id="a_node22"><a xlink:href="a00347.html#a1746287300e1f05c45d84f3837e24557" target="_top" xlink:title="Delete some object pointed to by ptr">
<polygon fill="white" stroke="black" points="379,-35 379,-54 462,-54 462,-35 379,-35"/>
<text text-anchor="middle" x="420.5" y="-42" font-family="Helvetica,sans-Serif" font-size="10.00">DeleteRawPtr</text>
</a>
</g>
</g>
<!-- Node21&#45;&gt;Node22 -->
<g id="edge22" class="edge">
<title>Node21&#45;&gt;Node22</title>
<path fill="none" stroke="midnightblue" d="M270.69,-55.7C298.79,-53.59 337.67,-50.66 368.65,-48.33"/>
<polygon fill="midnightblue" stroke="midnightblue" points="369.11,-51.8 378.82,-47.56 368.59,-44.82 369.11,-51.8"/>
</g>
</g>
</svg>
