<?xml version="1.0" encoding="UTF-8" standalone="no"?>
<!DOCTYPE svg PUBLIC "-//W3C//DTD SVG 1.1//EN"
 "http://www.w3.org/Graphics/SVG/1.1/DTD/svg11.dtd">
<!-- Generated by graphviz version 8.0.5 (20230430.1635)
 -->
<!-- Title: ClearGraph Pages: 1 -->
<svg width="234pt" height="90pt"
 viewBox="0.00 0.00 234.25 90.00" xmlns="http://www.w3.org/2000/svg" xmlns:xlink="http://www.w3.org/1999/xlink">
<g id="graph0" class="graph" transform="scale(1 1) rotate(0) translate(4 86)">
<title>ClearGraph</title>
<!-- Node1 -->
<g id="node1" class="node">
<title>Node1</title>
<g id="a_node1"><a xlink:title="Clear the nodes/edges for the given graph, or clear a specific cost type.">
<polygon fill="#999999" stroke="#666666" points="64.75,-51 0,-51 0,-31 64.75,-31 64.75,-51"/>
<text text-anchor="middle" x="32.38" y="-37.5" font-family="Helvetica,sans-Serif" font-size="10.00">ClearGraph</text>
</a>
</g>
</g>
<!-- Node2 -->
<g id="node2" class="node">
<title>Node2</title>
<g id="a_node2"><a xlink:href="a01551.html#a994dbd15119eb6548d2e15f4de4b88a6" target="_top" xlink:title="Clear all nodes and edges from the graph.">
<polygon fill="white" stroke="#666666" points="218.38,-82 108.63,-82 108.63,-50 218.38,-50 218.38,-82"/>
<text text-anchor="start" x="116.63" y="-68.5" font-family="Helvetica,sans-Serif" font-size="10.00">HF::SpatialStructures</text>
<text text-anchor="middle" x="163.5" y="-56.5" font-family="Helvetica,sans-Serif" font-size="10.00">::Graph::Clear</text>
</a>
</g>
</g>
<!-- Node1&#45;&gt;Node2 -->
<g id="edge1" class="edge">
<title>Node1&#45;&gt;Node2</title>
<path fill="none" stroke="#63b8ff" d="M64.96,-47.12C74.97,-49.05 86.41,-51.27 97.86,-53.49"/>
<polygon fill="#63b8ff" stroke="#63b8ff" points="96.86,-57.05 107.34,-55.51 98.19,-50.18 96.86,-57.05"/>
</g>
<!-- Node3 -->
<g id="node3" class="node">
<title>Node3</title>
<g id="a_node3"><a xlink:href="a01551.html#a8f51b29e611c7bb59a0f4242d6e01c73" target="_top" xlink:title="Clear one or more cost arrays from the graph.">
<polygon fill="white" stroke="#666666" points="226.25,-32 100.75,-32 100.75,0 226.25,0 226.25,-32"/>
<text text-anchor="start" x="108.75" y="-18.5" font-family="Helvetica,sans-Serif" font-size="10.00">HF::SpatialStructures</text>
<text text-anchor="middle" x="163.5" y="-6.5" font-family="Helvetica,sans-Serif" font-size="10.00">::Graph::ClearCostArrays</text>
</a>
</g>
</g>
<!-- Node1&#45;&gt;Node3 -->
<g id="edge2" class="edge">
<title>Node1&#45;&gt;Node3</title>
<path fill="none" stroke="#63b8ff" d="M64.96,-34.88C72.61,-33.4 81.09,-31.76 89.78,-30.08"/>
<polygon fill="#63b8ff" stroke="#63b8ff" points="90.28,-33.35 99.43,-28.02 88.95,-26.48 90.28,-33.35"/>
</g>
</g>
</svg>
