<?xml version="1.0" encoding="UTF-8" standalone="no"?>
<!DOCTYPE svg PUBLIC "-//W3C//DTD SVG 1.1//EN"
 "http://www.w3.org/Graphics/SVG/1.1/DTD/svg11.dtd">
<!-- Generated by graphviz version 2.43.0 (0)
 -->
<!-- Title: CInterfaceTests::TEST Pages: 1 -->
<svg width="470pt" height="154pt"
 viewBox="0.00 0.00 470.00 154.00" xmlns="http://www.w3.org/2000/svg" xmlns:xlink="http://www.w3.org/1999/xlink">
<g id="graph0" class="graph" transform="scale(1 1) rotate(0) translate(4 150)">
<title>CInterfaceTests::TEST</title>
<polygon fill="white" stroke="transparent" points="-4,4 -4,-150 466,-150 466,4 -4,4"/>
<!-- Node1 -->
<g id="node1" class="node">
<title>Node1</title>
<g id="a_node1"><a xlink:title=" ">
<polygon fill="#bfbfbf" stroke="black" points="0,-60.5 0,-79.5 122,-79.5 122,-60.5 0,-60.5"/>
<text text-anchor="middle" x="61" y="-67.5" font-family="Helvetica,sans-Serif" font-size="10.00">CInterfaceTests::TEST</text>
</a>
</g>
</g>
<!-- Node2 -->
<g id="node2" class="node">
<title>Node2</title>
<g id="a_node2"><a xlink:href="a00389.html#ga0ef9f7e63f067546b527947d4678dcd5" target="_top" xlink:title="Free the memory addressed by mesh_to_destroy, which was allocated by either LoadOBJ or StoreMesh.">
<polygon fill="white" stroke="black" points="175,-126.5 175,-145.5 275,-145.5 275,-126.5 175,-126.5"/>
<text text-anchor="middle" x="225" y="-133.5" font-family="Helvetica,sans-Serif" font-size="10.00">DestroyMeshInfo</text>
</a>
</g>
</g>
<!-- Node1&#45;&gt;Node2 -->
<g id="edge1" class="edge">
<title>Node1&#45;&gt;Node2</title>
<path fill="none" stroke="midnightblue" d="M79.28,-79.61C98.19,-89.85 129.6,-106.06 158,-117 163.99,-119.31 170.37,-121.48 176.73,-123.48"/>
<polygon fill="midnightblue" stroke="midnightblue" points="176.04,-126.93 186.62,-126.47 178.06,-120.23 176.04,-126.93"/>
</g>
<!-- Node4 -->
<g id="node4" class="node">
<title>Node4</title>
<g id="a_node4"><a xlink:href="a01297.html#af2d1b696c55aa036cff585d2e7eba50b" target="_top" xlink:title="A copy of every vertex in this array.">
<polygon fill="white" stroke="black" points="158,-77 158,-107 292,-107 292,-77 158,-77"/>
<text text-anchor="start" x="166" y="-95" font-family="Helvetica,sans-Serif" font-size="10.00">HF::Geometry::MeshInfo</text>
<text text-anchor="middle" x="225" y="-84" font-family="Helvetica,sans-Serif" font-size="10.00">::GetIndexedVertices</text>
</a>
</g>
</g>
<!-- Node1&#45;&gt;Node4 -->
<g id="edge3" class="edge">
<title>Node1&#45;&gt;Node4</title>
<path fill="none" stroke="midnightblue" d="M122.32,-78.19C130.66,-79.32 139.32,-80.5 147.9,-81.67"/>
<polygon fill="midnightblue" stroke="midnightblue" points="147.53,-85.15 157.91,-83.03 148.48,-78.21 147.53,-85.15"/>
</g>
<!-- Node5 -->
<g id="node5" class="node">
<title>Node5</title>
<g id="a_node5"><a xlink:href="a00389.html#ga907c8e39b159c8bad22645448bc97f57" target="_top" xlink:title="Rotate an existing mesh (HF::Geometry::MeshInfo)">
<polygon fill="white" stroke="black" points="187.5,-38.5 187.5,-57.5 262.5,-57.5 262.5,-38.5 187.5,-38.5"/>
<text text-anchor="middle" x="225" y="-45.5" font-family="Helvetica,sans-Serif" font-size="10.00">RotateMesh</text>
</a>
</g>
</g>
<!-- Node1&#45;&gt;Node5 -->
<g id="edge4" class="edge">
<title>Node1&#45;&gt;Node5</title>
<path fill="none" stroke="midnightblue" d="M122.32,-61.81C140.35,-59.36 159.84,-56.71 176.89,-54.4"/>
<polygon fill="midnightblue" stroke="midnightblue" points="177.72,-57.82 187.16,-53 176.78,-50.88 177.72,-57.82"/>
</g>
<!-- Node7 -->
<g id="node7" class="node">
<title>Node7</title>
<g id="a_node7"><a xlink:href="a00389.html#ga6ac447e5805d3d7e65c9083ffa603cfe" target="_top" xlink:title="Store a mesh in a format usable with HumanFactors.">
<polygon fill="white" stroke="black" points="191,-0.5 191,-19.5 259,-19.5 259,-0.5 191,-0.5"/>
<text text-anchor="middle" x="225" y="-7.5" font-family="Helvetica,sans-Serif" font-size="10.00">StoreMesh</text>
</a>
</g>
</g>
<!-- Node1&#45;&gt;Node7 -->
<g id="edge6" class="edge">
<title>Node1&#45;&gt;Node7</title>
<path fill="none" stroke="midnightblue" d="M82.31,-60.46C101.54,-51.63 131.37,-38.48 158,-29 165.42,-26.36 173.41,-23.81 181.18,-21.49"/>
<polygon fill="midnightblue" stroke="midnightblue" points="182.22,-24.83 190.85,-18.68 180.27,-18.11 182.22,-24.83"/>
</g>
<!-- Node3 -->
<g id="node3" class="node">
<title>Node3</title>
<g id="a_node3"><a xlink:href="a00347.html#a1746287300e1f05c45d84f3837e24557" target="_top" xlink:title="Delete some object pointed to by ptr">
<polygon fill="white" stroke="black" points="353.5,-126.5 353.5,-145.5 436.5,-145.5 436.5,-126.5 353.5,-126.5"/>
<text text-anchor="middle" x="395" y="-133.5" font-family="Helvetica,sans-Serif" font-size="10.00">DeleteRawPtr</text>
</a>
</g>
</g>
<!-- Node2&#45;&gt;Node3 -->
<g id="edge2" class="edge">
<title>Node2&#45;&gt;Node3</title>
<path fill="none" stroke="midnightblue" d="M275.04,-136C296.43,-136 321.51,-136 343.1,-136"/>
<polygon fill="midnightblue" stroke="midnightblue" points="343.39,-139.5 353.39,-136 343.39,-132.5 343.39,-139.5"/>
</g>
<!-- Node6 -->
<g id="node6" class="node">
<title>Node6</title>
<g id="a_node6"><a xlink:href="a01297.html#a235d49e5a5a4d20d78db7adb854fb9e1" target="_top" xlink:title="Rotate this mesh by x, y, z rotations in degrees (pitch, yaw, roll).">
<polygon fill="white" stroke="black" points="328,-33 328,-63 462,-63 462,-33 328,-33"/>
<text text-anchor="start" x="336" y="-51" font-family="Helvetica,sans-Serif" font-size="10.00">HF::Geometry::MeshInfo</text>
<text text-anchor="middle" x="395" y="-40" font-family="Helvetica,sans-Serif" font-size="10.00">::PerformRotation</text>
</a>
</g>
</g>
<!-- Node5&#45;&gt;Node6 -->
<g id="edge5" class="edge">
<title>Node5&#45;&gt;Node6</title>
<path fill="none" stroke="midnightblue" d="M262.87,-48C279,-48 298.55,-48 317.59,-48"/>
<polygon fill="midnightblue" stroke="midnightblue" points="317.78,-51.5 327.78,-48 317.78,-44.5 317.78,-51.5"/>
</g>
</g>
</svg>
