<?xml version="1.0" encoding="UTF-8" standalone="no"?>
<!DOCTYPE svg PUBLIC "-//W3C//DTD SVG 1.1//EN"
 "http://www.w3.org/Graphics/SVG/1.1/DTD/svg11.dtd">
<!-- Generated by graphviz version 2.43.0 (0)
 -->
<!-- Title: GraphExampleTests::TEST Pages: 1 -->
<svg width="321pt" height="88pt"
 viewBox="0.00 0.00 321.00 88.00" xmlns="http://www.w3.org/2000/svg" xmlns:xlink="http://www.w3.org/1999/xlink">
<g id="graph0" class="graph" transform="scale(1 1) rotate(0) translate(4 84)">
<title>GraphExampleTests::TEST</title>
<polygon fill="white" stroke="transparent" points="-4,4 -4,-84 317,-84 317,4 -4,4"/>
<!-- Node1 -->
<g id="node1" class="node">
<title>Node1</title>
<g id="a_node1"><a xlink:title=" ">
<polygon fill="#bfbfbf" stroke="black" points="0,-30 0,-49 143,-49 143,-30 0,-30"/>
<text text-anchor="middle" x="71.5" y="-37" font-family="Helvetica,sans-Serif" font-size="10.00">GraphExampleTests::TEST</text>
</a>
</g>
</g>
<!-- Node2 -->
<g id="node2" class="node">
<title>Node2</title>
<g id="a_node2"><a xlink:href="a01497.html#a37be5c12e488072dea7fa1c8c64346f7" target="_top" xlink:title="Add a new edge to the graph from parent to child.">
<polygon fill="white" stroke="black" points="186.5,-49.5 186.5,-79.5 305.5,-79.5 305.5,-49.5 186.5,-49.5"/>
<text text-anchor="start" x="194.5" y="-67.5" font-family="Helvetica,sans-Serif" font-size="10.00">HF::SpatialStructures</text>
<text text-anchor="middle" x="246" y="-56.5" font-family="Helvetica,sans-Serif" font-size="10.00">::Graph::addEdge</text>
</a>
</g>
</g>
<!-- Node1&#45;&gt;Node2 -->
<g id="edge1" class="edge">
<title>Node1&#45;&gt;Node2</title>
<path fill="none" stroke="midnightblue" d="M138.21,-49.02C150.68,-50.83 163.76,-52.73 176.32,-54.55"/>
<polygon fill="midnightblue" stroke="midnightblue" points="175.86,-58.02 186.26,-55.99 176.86,-51.09 175.86,-58.02"/>
</g>
<!-- Node3 -->
<g id="node3" class="node">
<title>Node3</title>
<g id="a_node3"><a xlink:href="a01497.html#a7cd5d401dfbd61b3b075ca0ad63d959e" target="_top" xlink:title="Obtain the size of and pointers to the 3 arrays that comprise this graph&#39;s CSR. graph if it isn&#39;t com...">
<polygon fill="white" stroke="black" points="179,-0.5 179,-30.5 313,-30.5 313,-0.5 179,-0.5"/>
<text text-anchor="start" x="187" y="-18.5" font-family="Helvetica,sans-Serif" font-size="10.00">HF::SpatialStructures</text>
<text text-anchor="middle" x="246" y="-7.5" font-family="Helvetica,sans-Serif" font-size="10.00">::Graph::GetCSRPointers</text>
</a>
</g>
</g>
<!-- Node1&#45;&gt;Node3 -->
<g id="edge2" class="edge">
<title>Node1&#45;&gt;Node3</title>
<path fill="none" stroke="midnightblue" d="M141.17,-29.95C150.28,-28.68 159.66,-27.37 168.88,-26.09"/>
<polygon fill="midnightblue" stroke="midnightblue" points="169.39,-29.55 178.81,-24.71 168.42,-22.62 169.39,-29.55"/>
</g>
</g>
</svg>
