<?xml version="1.0" encoding="UTF-8" standalone="no"?>
<!DOCTYPE svg PUBLIC "-//W3C//DTD SVG 1.1//EN"
 "http://www.w3.org/Graphics/SVG/1.1/DTD/svg11.dtd">
<!-- Generated by graphviz version 7.0.4 (20221203.1631)
 -->
<!-- Title: HF::VisibilityGraph::IsOcclusionBetween Pages: 1 -->
<svg width="646pt" height="134pt"
 viewBox="0.00 0.00 646.00 134.00" xmlns="http://www.w3.org/2000/svg" xmlns:xlink="http://www.w3.org/1999/xlink">
<g id="graph0" class="graph" transform="scale(1 1) rotate(0) translate(4 130)">
<title>HF::VisibilityGraph::IsOcclusionBetween</title>
<!-- Node1 -->
<g id="node1" class="node">
<title>Node1</title>
<g id="a_node1"><a xlink:title="Perform a line of sight check between two nodes.">
<polygon fill="#999999" stroke="#666666" points="111,-78 0,-78 0,-48 111,-48 111,-78"/>
<text text-anchor="start" x="8" y="-66" font-family="Helvetica,sans-Serif" font-size="10.00">HF::VisibilityGraph</text>
<text text-anchor="middle" x="55.5" y="-55" font-family="Helvetica,sans-Serif" font-size="10.00">::IsOcclusionBetween</text>
</a>
</g>
</g>
<!-- Node2 -->
<g id="node2" class="node">
<title>Node2</title>
<g id="a_node2"><a xlink:href="a02005.html#ad3f7898ef3178eef0c3579869a7f5c67" target="_top" xlink:title="Get the direction between this node and another node">
<polygon fill="white" stroke="#666666" points="270.5,-126 160.5,-126 160.5,-96 270.5,-96 270.5,-126"/>
<text text-anchor="start" x="168.5" y="-114" font-family="Helvetica,sans-Serif" font-size="10.00">HF::SpatialStructures</text>
<text text-anchor="middle" x="215.5" y="-103" font-family="Helvetica,sans-Serif" font-size="10.00">::Node::directionTo</text>
</a>
</g>
</g>
<!-- Node1&#45;&gt;Node2 -->
<g id="edge1" class="edge">
<title>Node1&#45;&gt;Node2</title>
<path fill="none" stroke="#63b8ff" d="M107.36,-78.45C121.88,-82.86 137.86,-87.72 152.94,-92.3"/>
<polygon fill="#63b8ff" stroke="#63b8ff" points="151.7,-95.58 162.29,-95.14 153.73,-88.88 151.7,-95.58"/>
</g>
<!-- Node4 -->
<g id="node4" class="node">
<title>Node4</title>
<g id="a_node4"><a xlink:href="a02005.html#abbd66b566460f9557a373b5fbcc30bb1" target="_top" xlink:title="Calculate the distance between this node and n2.">
<polygon fill="white" stroke="#666666" points="270.5,-78 160.5,-78 160.5,-48 270.5,-48 270.5,-78"/>
<text text-anchor="start" x="168.5" y="-66" font-family="Helvetica,sans-Serif" font-size="10.00">HF::SpatialStructures</text>
<text text-anchor="middle" x="215.5" y="-55" font-family="Helvetica,sans-Serif" font-size="10.00">::Node::distanceTo</text>
</a>
</g>
</g>
<!-- Node1&#45;&gt;Node4 -->
<g id="edge3" class="edge">
<title>Node1&#45;&gt;Node4</title>
<path fill="none" stroke="#63b8ff" d="M111.32,-63C123.4,-63 136.31,-63 148.77,-63"/>
<polygon fill="#63b8ff" stroke="#63b8ff" points="148.53,-66.5 158.53,-63 148.53,-59.5 148.53,-66.5"/>
</g>
<!-- Node5 -->
<g id="node5" class="node">
<title>Node5</title>
<g id="a_node5"><a xlink:href="a01345.html#a3a7488f8e41c8a9e3dc9c334047c6457" target="_top" xlink:title="Determine if there is an intersection with any geometry.">
<polygon fill="white" stroke="#666666" points="284,-30 147,-30 147,0 284,0 284,-30"/>
<text text-anchor="start" x="155" y="-18" font-family="Helvetica,sans-Serif" font-size="10.00">HF::RayTracer::EmbreeRay</text>
<text text-anchor="middle" x="215.5" y="-7" font-family="Helvetica,sans-Serif" font-size="10.00">Tracer::Occluded</text>
</a>
</g>
</g>
<!-- Node1&#45;&gt;Node5 -->
<g id="edge4" class="edge">
<title>Node1&#45;&gt;Node5</title>
<path fill="none" stroke="#63b8ff" d="M107.36,-47.55C121.88,-43.14 137.86,-38.28 152.94,-33.7"/>
<polygon fill="#63b8ff" stroke="#63b8ff" points="153.73,-37.12 162.29,-30.86 151.7,-30.42 153.73,-37.12"/>
</g>
<!-- Node3 -->
<g id="node3" class="node">
<title>Node3</title>
<g id="a_node3"><a xlink:href="a00399.html#ad9a8f0f70b3f60ac5cb7889885d851d1" target="_top" xlink:title=" ">
<polygon fill="white" stroke="#666666" points="443.5,-126 333.5,-126 333.5,-96 443.5,-96 443.5,-126"/>
<text text-anchor="start" x="341.5" y="-114" font-family="Helvetica,sans-Serif" font-size="10.00">HF::SpatialStructures</text>
<text text-anchor="middle" x="388.5" y="-103" font-family="Helvetica,sans-Serif" font-size="10.00">::Normalize</text>
</a>
</g>
</g>
<!-- Node2&#45;&gt;Node3 -->
<g id="edge2" class="edge">
<title>Node2&#45;&gt;Node3</title>
<path fill="none" stroke="#63b8ff" d="M270.61,-111C286.82,-111 304.79,-111 321.68,-111"/>
<polygon fill="#63b8ff" stroke="#63b8ff" points="321.65,-114.5 331.65,-111 321.65,-107.5 321.65,-114.5"/>
</g>
<!-- Node6 -->
<g id="node6" class="node">
<title>Node6</title>
<g id="a_node6"><a xlink:href="a01345.html#ade19fda460dadd98769b347840bd305a" target="_top" xlink:title="Implementation for fundamental occlusion ray intersection.">
<polygon fill="white" stroke="#666666" points="457,-30 320,-30 320,0 457,0 457,-30"/>
<text text-anchor="start" x="328" y="-18" font-family="Helvetica,sans-Serif" font-size="10.00">HF::RayTracer::EmbreeRay</text>
<text text-anchor="middle" x="388.5" y="-7" font-family="Helvetica,sans-Serif" font-size="10.00">Tracer::Occluded_IMPL</text>
</a>
</g>
</g>
<!-- Node5&#45;&gt;Node6 -->
<g id="edge5" class="edge">
<title>Node5&#45;&gt;Node6</title>
<path fill="none" stroke="#63b8ff" d="M284.08,-15C292.02,-15 300.16,-15 308.23,-15"/>
<polygon fill="#63b8ff" stroke="#63b8ff" points="308.05,-18.5 318.05,-15 308.05,-11.5 308.05,-18.5"/>
</g>
<!-- Node7 -->
<g id="node7" class="node">
<title>Node7</title>
<g id="a_node7"><a xlink:href="a00398.html#a76e5d26b5063f0e5b49b4ba835f1da93" target="_top" xlink:title=" ">
<polygon fill="white" stroke="#666666" points="638,-24.5 493,-24.5 493,-5.5 638,-5.5 638,-24.5"/>
<text text-anchor="middle" x="565.5" y="-12.5" font-family="Helvetica,sans-Serif" font-size="10.00">HF::RayTracer::ConstructRay</text>
</a>
</g>
</g>
<!-- Node6&#45;&gt;Node7 -->
<g id="edge6" class="edge">
<title>Node6&#45;&gt;Node7</title>
<path fill="none" stroke="#63b8ff" d="M457.41,-15C465.25,-15 473.3,-15 481.31,-15"/>
<polygon fill="#63b8ff" stroke="#63b8ff" points="481.06,-18.5 491.06,-15 481.06,-11.5 481.06,-18.5"/>
</g>
</g>
</svg>
