<?xml version="1.0" encoding="UTF-8" standalone="no"?>
<!DOCTYPE svg PUBLIC "-//W3C//DTD SVG 1.1//EN"
 "http://www.w3.org/Graphics/SVG/1.1/DTD/svg11.dtd">
<!-- Generated by graphviz version 8.0.5 (20230430.1635)
 -->
<!-- Title: Cinterface/view_analysis_C.cpp Pages: 1 -->
<svg width="1363pt" height="264pt"
 viewBox="0.00 0.00 1362.50 264.00" xmlns="http://www.w3.org/2000/svg" xmlns:xlink="http://www.w3.org/1999/xlink">
<g id="graph0" class="graph" transform="scale(1 1) rotate(0) translate(4 260)">
<title>Cinterface/view_analysis_C.cpp</title>
<!-- Node1 -->
<g id="node1" class="node">
<title>Node1</title>
<g id="a_node1"><a xlink:title=" ">
<polygon fill="#999999" stroke="#666666" points="733.75,-256 612,-256 612,-224 733.75,-224 733.75,-256"/>
<text text-anchor="start" x="620" y="-242.5" font-family="Helvetica,sans-Serif" font-size="10.00">Cinterface/view_analysis</text>
<text text-anchor="middle" x="672.88" y="-230.5" font-family="Helvetica,sans-Serif" font-size="10.00">_C.cpp</text>
</a>
</g>
</g>
<!-- Node2 -->
<g id="node2" class="node">
<title>Node2</title>
<g id="a_node2"><a xlink:href="a00443.html" target="_top" xlink:title="Header file for conducting view analysis via the C Interface.">
<polygon fill="white" stroke="#666666" points="495.63,-188 400.13,-188 400.13,-168 495.63,-168 495.63,-188"/>
<text text-anchor="middle" x="447.88" y="-174.5" font-family="Helvetica,sans-Serif" font-size="10.00">view_analysis_C.h</text>
</a>
</g>
</g>
<!-- Node1&#45;&gt;Node2 -->
<g id="edge1" class="edge">
<title>Node1&#45;&gt;Node2</title>
<path fill="none" stroke="#63b8ff" d="M614.93,-223.55C577.29,-213.51 528.9,-200.61 493.89,-191.27"/>
<polygon fill="#63b8ff" stroke="#63b8ff" points="495.05,-187.69 484.49,-188.5 493.25,-194.45 495.05,-187.69"/>
</g>
<!-- Node7 -->
<g id="node7" class="node">
<title>Node7</title>
<g id="a_node7"><a xlink:title=" ">
<polygon fill="#e0e0e0" stroke="#999999" points="565.63,-132 494.13,-132 494.13,-112 565.63,-112 565.63,-132"/>
<text text-anchor="middle" x="529.88" y="-118.5" font-family="Helvetica,sans-Serif" font-size="10.00">robin_hood.h</text>
</a>
</g>
</g>
<!-- Node1&#45;&gt;Node7 -->
<g id="edge9" class="edge">
<title>Node1&#45;&gt;Node7</title>
<path fill="none" stroke="#63b8ff" d="M653.89,-223.6C626.86,-201.67 577.51,-161.64 549.92,-139.26"/>
<polygon fill="#63b8ff" stroke="#63b8ff" points="552.43,-135.97 542.45,-132.39 548.02,-141.41 552.43,-135.97"/>
</g>
<!-- Node8 -->
<g id="node8" class="node">
<title>Node8</title>
<g id="a_node8"><a xlink:href="a00176.html" target="_top" xlink:title="Contains definitions for the Exceptions namespace.">
<polygon fill="white" stroke="#666666" points="1273.75,-188 1188,-188 1188,-168 1273.75,-168 1273.75,-188"/>
<text text-anchor="middle" x="1230.88" y="-174.5" font-family="Helvetica,sans-Serif" font-size="10.00">HFExceptions.h</text>
</a>
</g>
</g>
<!-- Node1&#45;&gt;Node8 -->
<g id="edge10" class="edge">
<title>Node1&#45;&gt;Node8</title>
<path fill="none" stroke="#63b8ff" d="M734.19,-232.41C844,-220.6 1072.48,-196.03 1176.81,-184.81"/>
<polygon fill="#63b8ff" stroke="#63b8ff" points="1177.14,-188.19 1186.71,-183.64 1176.39,-181.23 1177.14,-188.19"/>
</g>
<!-- Node12 -->
<g id="node12" class="node">
<title>Node12</title>
<g id="a_node12"><a xlink:href="a00023.html" target="_top" xlink:title="Contains definitions for the ViewAnalysis namespace.">
<polygon fill="white" stroke="#666666" points="944.63,-188 861.13,-188 861.13,-168 944.63,-168 944.63,-188"/>
<text text-anchor="middle" x="902.88" y="-174.5" font-family="Helvetica,sans-Serif" font-size="10.00">view_analysis.h</text>
</a>
</g>
</g>
<!-- Node1&#45;&gt;Node12 -->
<g id="edge14" class="edge">
<title>Node1&#45;&gt;Node12</title>
<path fill="none" stroke="#63b8ff" d="M732.11,-223.55C770.58,-213.51 820.05,-200.61 855.83,-191.27"/>
<polygon fill="#63b8ff" stroke="#63b8ff" points="856.68,-194.41 865.47,-188.5 854.91,-187.63 856.68,-194.41"/>
</g>
<!-- Node17 -->
<g id="node17" class="node">
<title>Node17</title>
<g id="a_node17"><a xlink:href="a00212.html" target="_top" xlink:title="Contains definitions for the EmbreeRayTracer">
<polygon fill="white" stroke="#666666" points="237.88,-132 137.88,-132 137.88,-112 237.88,-112 237.88,-132"/>
<text text-anchor="middle" x="187.88" y="-118.5" font-family="Helvetica,sans-Serif" font-size="10.00">embree_raytracer.h</text>
</a>
</g>
</g>
<!-- Node1&#45;&gt;Node17 -->
<g id="edge21" class="edge">
<title>Node1&#45;&gt;Node17</title>
<path fill="none" stroke="#63b8ff" d="M611.6,-230.29C554.14,-221.56 466.06,-206.75 390.88,-188 331.38,-173.16 263.86,-150.3 223.63,-136.02"/>
<polygon fill="#63b8ff" stroke="#63b8ff" points="225.11,-132.48 214.52,-132.41 222.76,-139.07 225.11,-132.48"/>
</g>
<!-- Node22 -->
<g id="node22" class="node">
<title>Node22</title>
<g id="a_node22"><a xlink:href="a00269.html" target="_top" xlink:title="Contains definitions for the Graph &#160;class.">
<polygon fill="white" stroke="#666666" points="697,-188 648.75,-188 648.75,-168 697,-168 697,-188"/>
<text text-anchor="middle" x="672.88" y="-174.5" font-family="Helvetica,sans-Serif" font-size="10.00">graph.h</text>
</a>
</g>
</g>
<!-- Node1&#45;&gt;Node22 -->
<g id="edge28" class="edge">
<title>Node1&#45;&gt;Node22</title>
<path fill="none" stroke="#63b8ff" d="M672.88,-223.55C672.88,-216.17 672.88,-207.24 672.88,-199.32"/>
<polygon fill="#63b8ff" stroke="#63b8ff" points="676.38,-199.41 672.88,-189.41 669.38,-199.41 676.38,-199.41"/>
</g>
<!-- Node24 -->
<g id="node24" class="node">
<title>Node24</title>
<g id="a_node24"><a xlink:href="a00275.html" target="_top" xlink:title="Contains definitions for the Node structure.">
<polygon fill="white" stroke="#666666" points="976.5,-76 931.25,-76 931.25,-56 976.5,-56 976.5,-76"/>
<text text-anchor="middle" x="953.88" y="-62.5" font-family="Helvetica,sans-Serif" font-size="10.00">node.h</text>
</a>
</g>
</g>
<!-- Node1&#45;&gt;Node24 -->
<g id="edge39" class="edge">
<title>Node1&#45;&gt;Node24</title>
<path fill="none" stroke="#63b8ff" d="M733.92,-233.69C843.66,-222.7 1066.84,-193.17 1109.88,-132 1141.63,-86.86 1042.48,-72.96 987.66,-68.76"/>
<polygon fill="#63b8ff" stroke="#63b8ff" points="987.92,-65.21 977.7,-68.01 987.44,-72.19 987.92,-65.21"/>
</g>
<!-- Node3 -->
<g id="node3" class="node">
<title>Node3</title>
<g id="a_node3"><a xlink:href="a00413.html" target="_top" xlink:title=" ">
<polygon fill="white" stroke="#666666" points="437.63,-132 348.13,-132 348.13,-112 437.63,-112 437.63,-132"/>
<text text-anchor="middle" x="392.88" y="-118.5" font-family="Helvetica,sans-Serif" font-size="10.00">cinterface_utils.h</text>
</a>
</g>
</g>
<!-- Node2&#45;&gt;Node3 -->
<g id="edge2" class="edge">
<title>Node2&#45;&gt;Node3</title>
<path fill="none" stroke="#63b8ff" d="M438.29,-167.59C430.49,-159.93 419.27,-148.91 409.93,-139.75"/>
<polygon fill="#63b8ff" stroke="#63b8ff" points="412.93,-137.81 403.35,-133.3 408.03,-142.8 412.93,-137.81"/>
</g>
<!-- Node4 -->
<g id="node4" class="node">
<title>Node4</title>
<g id="a_node4"><a xlink:title=" ">
<polygon fill="#e0e0e0" stroke="#999999" points="493.63,-76 452.13,-76 452.13,-56 493.63,-56 493.63,-76"/>
<text text-anchor="middle" x="472.88" y="-62.5" font-family="Helvetica,sans-Serif" font-size="10.00">vector</text>
</a>
</g>
</g>
<!-- Node2&#45;&gt;Node4 -->
<g id="edge5" class="edge">
<title>Node2&#45;&gt;Node4</title>
<path fill="none" stroke="#63b8ff" d="M450.01,-167.62C454.05,-149.84 462.9,-110.88 468.33,-87"/>
<polygon fill="#63b8ff" stroke="#63b8ff" points="471.95,-87.88 470.75,-77.35 465.12,-86.33 471.95,-87.88"/>
</g>
<!-- Node6 -->
<g id="node6" class="node">
<title>Node6</title>
<g id="a_node6"><a xlink:href="a00431.html" target="_top" xlink:title="C Interface header file for Raytracer functionality.">
<polygon fill="white" stroke="#666666" points="330.13,-132 255.63,-132 255.63,-112 330.13,-112 330.13,-132"/>
<text text-anchor="middle" x="292.88" y="-118.5" font-family="Helvetica,sans-Serif" font-size="10.00">raytracer_C.h</text>
</a>
</g>
</g>
<!-- Node2&#45;&gt;Node6 -->
<g id="edge6" class="edge">
<title>Node2&#45;&gt;Node6</title>
<path fill="none" stroke="#63b8ff" d="M420.88,-167.59C395.8,-158.86 358.24,-145.77 330.28,-136.03"/>
<polygon fill="#63b8ff" stroke="#63b8ff" points="331.68,-132.46 321.08,-132.48 329.38,-139.07 331.68,-132.46"/>
</g>
<!-- Node3&#45;&gt;Node4 -->
<g id="edge3" class="edge">
<title>Node3&#45;&gt;Node4</title>
<path fill="none" stroke="#63b8ff" d="M406.81,-111.59C418.67,-103.59 435.94,-91.93 449.85,-82.54"/>
<polygon fill="#63b8ff" stroke="#63b8ff" points="451.5,-84.98 457.83,-76.48 447.58,-79.17 451.5,-84.98"/>
</g>
<!-- Node5 -->
<g id="node5" class="node">
<title>Node5</title>
<g id="a_node5"><a xlink:title=" ">
<polygon fill="#e0e0e0" stroke="#999999" points="442.75,-20 405,-20 405,0 442.75,0 442.75,-20"/>
<text text-anchor="middle" x="423.88" y="-6.5" font-family="Helvetica,sans-Serif" font-size="10.00">array</text>
</a>
</g>
</g>
<!-- Node3&#45;&gt;Node5 -->
<g id="edge4" class="edge">
<title>Node3&#45;&gt;Node5</title>
<path fill="none" stroke="#63b8ff" d="M395.52,-111.62C400.55,-93.76 411.61,-54.53 418.33,-30.67"/>
<polygon fill="#63b8ff" stroke="#63b8ff" points="421.89,-31.93 421.24,-21.35 415.16,-30.03 421.89,-31.93"/>
</g>
<!-- Node6&#45;&gt;Node4 -->
<g id="edge7" class="edge">
<title>Node6&#45;&gt;Node4</title>
<path fill="none" stroke="#63b8ff" d="M324.23,-111.59C357.08,-101.74 408.39,-86.35 441.32,-76.47"/>
<polygon fill="#63b8ff" stroke="#63b8ff" points="442.15,-79.57 450.73,-73.34 440.14,-72.87 442.15,-79.57"/>
</g>
<!-- Node6&#45;&gt;Node5 -->
<g id="edge8" class="edge">
<title>Node6&#45;&gt;Node5</title>
<path fill="none" stroke="#63b8ff" d="M309.51,-111.63C323.97,-103.15 345.16,-89.9 361.88,-76 379.39,-61.44 397.09,-42.35 409.07,-28.62"/>
<polygon fill="#63b8ff" stroke="#63b8ff" points="412.2,-31.35 416.06,-21.48 406.89,-26.79 412.2,-31.35"/>
</g>
<!-- Node9 -->
<g id="node9" class="node">
<title>Node9</title>
<g id="a_node9"><a xlink:title=" ">
<polygon fill="#e0e0e0" stroke="#999999" points="1290.88,-132 1232.88,-132 1232.88,-112 1290.88,-112 1290.88,-132"/>
<text text-anchor="middle" x="1261.88" y="-118.5" font-family="Helvetica,sans-Serif" font-size="10.00">exception</text>
</a>
</g>
</g>
<!-- Node8&#45;&gt;Node9 -->
<g id="edge11" class="edge">
<title>Node8&#45;&gt;Node9</title>
<path fill="none" stroke="#63b8ff" d="M1236.27,-167.59C1240.36,-160.47 1246.12,-150.45 1251.13,-141.72"/>
<polygon fill="#63b8ff" stroke="#63b8ff" points="1254.59,-143.71 1256.54,-133.3 1248.52,-140.23 1254.59,-143.71"/>
</g>
<!-- Node10 -->
<g id="node10" class="node">
<title>Node10</title>
<g id="a_node10"><a xlink:title=" ">
<polygon fill="#e0e0e0" stroke="#999999" points="1354.5,-132 1309.25,-132 1309.25,-112 1354.5,-112 1354.5,-132"/>
<text text-anchor="middle" x="1331.88" y="-118.5" font-family="Helvetica,sans-Serif" font-size="10.00">cstring</text>
</a>
</g>
</g>
<!-- Node8&#45;&gt;Node10 -->
<g id="edge12" class="edge">
<title>Node8&#45;&gt;Node10</title>
<path fill="none" stroke="#63b8ff" d="M1248.47,-167.59C1263.94,-159.32 1286.72,-147.14 1304.56,-137.6"/>
<polygon fill="#63b8ff" stroke="#63b8ff" points="1305.98,-140.28 1313.14,-132.48 1302.68,-134.11 1305.98,-140.28"/>
</g>
<!-- Node11 -->
<g id="node11" class="node">
<title>Node11</title>
<g id="a_node11"><a xlink:title=" ">
<polygon fill="#e0e0e0" stroke="#999999" points="1215.25,-132 1156.5,-132 1156.5,-112 1215.25,-112 1215.25,-132"/>
<text text-anchor="middle" x="1185.88" y="-118.5" font-family="Helvetica,sans-Serif" font-size="10.00">stdexcept</text>
</a>
</g>
</g>
<!-- Node8&#45;&gt;Node11 -->
<g id="edge13" class="edge">
<title>Node8&#45;&gt;Node11</title>
<path fill="none" stroke="#63b8ff" d="M1223.04,-167.59C1216.84,-160.16 1208.02,-149.58 1200.53,-140.58"/>
<polygon fill="#63b8ff" stroke="#63b8ff" points="1202.71,-138.74 1193.62,-133.3 1197.34,-143.22 1202.71,-138.74"/>
</g>
<!-- Node12&#45;&gt;Node4 -->
<g id="edge15" class="edge">
<title>Node12&#45;&gt;Node4</title>
<path fill="none" stroke="#63b8ff" d="M897.68,-167.53C889.06,-152.83 870.3,-124.89 845.88,-112 786.77,-80.81 583.28,-70.72 504.44,-67.94"/>
<polygon fill="#63b8ff" stroke="#63b8ff" points="504.85,-64.41 494.74,-67.58 504.62,-71.41 504.85,-64.41"/>
</g>
<!-- Node12&#45;&gt;Node5 -->
<g id="edge16" class="edge">
<title>Node12&#45;&gt;Node5</title>
<path fill="none" stroke="#63b8ff" d="M901.31,-167.88C898.38,-153.67 890.66,-126.38 872.88,-112 807.17,-58.89 543.61,-24.6 453.93,-14.28"/>
<polygon fill="#63b8ff" stroke="#63b8ff" points="454.5,-10.71 444.17,-13.06 453.71,-17.67 454.5,-10.71"/>
</g>
<!-- Node13 -->
<g id="node13" class="node">
<title>Node13</title>
<g id="a_node13"><a xlink:title=" ">
<polygon fill="#e0e0e0" stroke="#999999" points="1031.38,-132 988.38,-132 988.38,-112 1031.38,-112 1031.38,-132"/>
<text text-anchor="middle" x="1009.88" y="-118.5" font-family="Helvetica,sans-Serif" font-size="10.00">cmath</text>
</a>
</g>
</g>
<!-- Node12&#45;&gt;Node13 -->
<g id="edge17" class="edge">
<title>Node12&#45;&gt;Node13</title>
<path fill="none" stroke="#63b8ff" d="M921.51,-167.59C938.06,-159.24 962.48,-146.92 981.46,-137.34"/>
<polygon fill="#63b8ff" stroke="#63b8ff" points="982.74,-140.11 990.09,-132.48 979.59,-133.86 982.74,-140.11"/>
</g>
<!-- Node14 -->
<g id="node14" class="node">
<title>Node14</title>
<g id="a_node14"><a xlink:title=" ">
<polygon fill="#e0e0e0" stroke="#999999" points="836.63,-132 783.13,-132 783.13,-112 836.63,-112 836.63,-132"/>
<text text-anchor="middle" x="809.88" y="-118.5" font-family="Helvetica,sans-Serif" font-size="10.00">iostream</text>
</a>
</g>
</g>
<!-- Node12&#45;&gt;Node14 -->
<g id="edge18" class="edge">
<title>Node12&#45;&gt;Node14</title>
<path fill="none" stroke="#63b8ff" d="M886.68,-167.59C872.49,-159.36 851.65,-147.26 835.26,-137.74"/>
<polygon fill="#63b8ff" stroke="#63b8ff" points="837.61,-134.47 827.2,-132.48 834.09,-140.53 837.61,-134.47"/>
</g>
<!-- Node15 -->
<g id="node15" class="node">
<title>Node15</title>
<g id="a_node15"><a xlink:title=" ">
<polygon fill="#e0e0e0" stroke="#999999" points="1100.5,-132 1049.25,-132 1049.25,-112 1100.5,-112 1100.5,-132"/>
<text text-anchor="middle" x="1074.88" y="-118.5" font-family="Helvetica,sans-Serif" font-size="10.00">assert.h</text>
</a>
</g>
</g>
<!-- Node12&#45;&gt;Node15 -->
<g id="edge19" class="edge">
<title>Node12&#45;&gt;Node15</title>
<path fill="none" stroke="#63b8ff" d="M932.84,-167.59C962.32,-158.34 1007.38,-144.19 1038.81,-134.32"/>
<polygon fill="#63b8ff" stroke="#63b8ff" points="1039.42,-137.49 1047.91,-131.15 1037.32,-130.81 1039.42,-137.49"/>
</g>
<!-- Node16 -->
<g id="node16" class="node">
<title>Node16</title>
<g id="a_node16"><a xlink:title=" ">
<polygon fill="#e0e0e0" stroke="#999999" points="970.5,-132 931.25,-132 931.25,-112 970.5,-112 970.5,-132"/>
<text text-anchor="middle" x="950.88" y="-118.5" font-family="Helvetica,sans-Serif" font-size="10.00">limits</text>
</a>
</g>
</g>
<!-- Node12&#45;&gt;Node16 -->
<g id="edge20" class="edge">
<title>Node12&#45;&gt;Node16</title>
<path fill="none" stroke="#63b8ff" d="M911.24,-167.59C917.91,-160.08 927.45,-149.35 935.49,-140.3"/>
<polygon fill="#63b8ff" stroke="#63b8ff" points="937.58,-143.1 941.61,-133.3 932.35,-138.45 937.58,-143.1"/>
</g>
<!-- Node17&#45;&gt;Node4 -->
<g id="edge25" class="edge">
<title>Node17&#45;&gt;Node4</title>
<path fill="none" stroke="#63b8ff" d="M237.84,-111.53C296.49,-100.42 391.99,-82.33 441.25,-72.99"/>
<polygon fill="#63b8ff" stroke="#63b8ff" points="441.71,-76.28 450.88,-70.98 440.41,-69.4 441.71,-76.28"/>
</g>
<!-- Node17&#45;&gt;Node5 -->
<g id="edge26" class="edge">
<title>Node17&#45;&gt;Node5</title>
<path fill="none" stroke="#63b8ff" d="M227.96,-111.55C256.85,-103.94 296.32,-91.91 328.88,-76 343.79,-68.71 379.35,-43.52 402.48,-26.72"/>
<polygon fill="#63b8ff" stroke="#63b8ff" points="404.23,-29.04 410.25,-20.32 400.1,-23.39 404.23,-29.04"/>
</g>
<!-- Node18 -->
<g id="node18" class="node">
<title>Node18</title>
<g id="a_node18"><a xlink:title=" ">
<polygon fill="#e0e0e0" stroke="#999999" points="37.75,-76 0,-76 0,-56 37.75,-56 37.75,-76"/>
<text text-anchor="middle" x="18.88" y="-62.5" font-family="Helvetica,sans-Serif" font-size="10.00">rpc.h</text>
</a>
</g>
</g>
<!-- Node17&#45;&gt;Node18 -->
<g id="edge22" class="edge">
<title>Node17&#45;&gt;Node18</title>
<path fill="none" stroke="#63b8ff" d="M157.64,-111.56C131,-103.21 90.88,-90.57 48.32,-76.77"/>
<polygon fill="#63b8ff" stroke="#63b8ff" points="49.63,-73.19 39.04,-73.43 47.47,-79.85 49.63,-73.19"/>
</g>
<!-- Node19 -->
<g id="node19" class="node">
<title>Node19</title>
<g id="a_node19"><a xlink:title=" ">
<polygon fill="#e0e0e0" stroke="#999999" points="104.38,-76 55.38,-76 55.38,-56 104.38,-56 104.38,-76"/>
<text text-anchor="middle" x="79.88" y="-62.5" font-family="Helvetica,sans-Serif" font-size="10.00">rtcore.h</text>
</a>
</g>
</g>
<!-- Node17&#45;&gt;Node19 -->
<g id="edge23" class="edge">
<title>Node17&#45;&gt;Node19</title>
<path fill="none" stroke="#63b8ff" d="M169.06,-111.59C152.36,-103.24 127.71,-90.92 108.55,-81.34"/>
<polygon fill="#63b8ff" stroke="#63b8ff" points="110.34,-77.82 99.83,-76.48 107.21,-84.08 110.34,-77.82"/>
</g>
<!-- Node20 -->
<g id="node20" class="node">
<title>Node20</title>
<g id="a_node20"><a xlink:title=" ">
<polygon fill="#e0e0e0" stroke="#999999" points="239.5,-76 122.25,-76 122.25,-56 239.5,-56 239.5,-76"/>
<text text-anchor="middle" x="180.88" y="-62.5" font-family="Helvetica,sans-Serif" font-size="10.00">corecrt_math_defines.h</text>
</a>
</g>
</g>
<!-- Node17&#45;&gt;Node20 -->
<g id="edge24" class="edge">
<title>Node17&#45;&gt;Node20</title>
<path fill="none" stroke="#63b8ff" d="M186.66,-111.59C185.78,-104.86 184.57,-95.53 183.49,-87.15"/>
<polygon fill="#63b8ff" stroke="#63b8ff" points="186.84,-86.77 182.08,-77.3 179.89,-87.67 186.84,-86.77"/>
</g>
<!-- Node21 -->
<g id="node21" class="node">
<title>Node21</title>
<g id="a_node21"><a xlink:href="a00218.html" target="_top" xlink:title=" ">
<polygon fill="white" stroke="#666666" points="320.13,-76 257.63,-76 257.63,-56 320.13,-56 320.13,-76"/>
<text text-anchor="middle" x="288.88" y="-62.5" font-family="Helvetica,sans-Serif" font-size="10.00">HitStruct.h</text>
</a>
</g>
</g>
<!-- Node17&#45;&gt;Node21 -->
<g id="edge27" class="edge">
<title>Node17&#45;&gt;Node21</title>
<path fill="none" stroke="#63b8ff" d="M205.47,-111.59C220.94,-103.32 243.72,-91.14 261.56,-81.6"/>
<polygon fill="#63b8ff" stroke="#63b8ff" points="262.98,-84.28 270.14,-76.48 259.68,-78.11 262.98,-84.28"/>
</g>
<!-- Node22&#45;&gt;Node4 -->
<g id="edge30" class="edge">
<title>Node22&#45;&gt;Node4</title>
<path fill="none" stroke="#63b8ff" d="M660.31,-167.66C642.07,-154.33 606.94,-129.54 574.88,-112 551.88,-99.42 524.68,-87.56 504.15,-79.18"/>
<polygon fill="#63b8ff" stroke="#63b8ff" points="505.66,-75.61 495.08,-75.12 503.05,-82.11 505.66,-75.61"/>
</g>
<!-- Node22&#45;&gt;Node7 -->
<g id="edge29" class="edge">
<title>Node22&#45;&gt;Node7</title>
<path fill="none" stroke="#63b8ff" d="M648.29,-167.72C625.27,-159.02 590.63,-145.94 564.76,-136.17"/>
<polygon fill="#63b8ff" stroke="#63b8ff" points="566.21,-132.6 555.62,-132.34 563.73,-139.15 566.21,-132.6"/>
</g>
<!-- Node22&#45;&gt;Node14 -->
<g id="edge38" class="edge">
<title>Node22&#45;&gt;Node14</title>
<path fill="none" stroke="#63b8ff" d="M696.74,-167.59C718.61,-158.97 751.22,-146.12 775.83,-136.42"/>
<polygon fill="#63b8ff" stroke="#63b8ff" points="776.81,-139.4 784.83,-132.48 774.24,-132.89 776.81,-139.4"/>
</g>
<!-- Node23 -->
<g id="node23" class="node">
<title>Node23</title>
<g id="a_node23"><a xlink:href="a00263.html" target="_top" xlink:title="Contains definitions for the Edge structure.">
<polygon fill="white" stroke="#666666" points="727.25,-132 680.5,-132 680.5,-112 727.25,-112 727.25,-132"/>
<text text-anchor="middle" x="703.88" y="-118.5" font-family="Helvetica,sans-Serif" font-size="10.00">Edge.h</text>
</a>
</g>
</g>
<!-- Node22&#45;&gt;Node23 -->
<g id="edge31" class="edge">
<title>Node22&#45;&gt;Node23</title>
<path fill="none" stroke="#63b8ff" d="M678.27,-167.59C682.36,-160.47 688.12,-150.45 693.13,-141.72"/>
<polygon fill="#63b8ff" stroke="#63b8ff" points="696.59,-143.71 698.54,-133.3 690.52,-140.23 696.59,-143.71"/>
</g>
<!-- Node22&#45;&gt;Node24 -->
<g id="edge36" class="edge">
<title>Node22&#45;&gt;Node24</title>
<path fill="none" stroke="#63b8ff" d="M684.58,-167.62C702.69,-153.57 739.05,-127.07 773.88,-112 822.63,-90.9 883.28,-78.31 920.26,-72.02"/>
<polygon fill="#63b8ff" stroke="#63b8ff" points="920.63,-75.34 929.94,-70.27 919.5,-68.44 920.63,-75.34"/>
</g>
<!-- Node26 -->
<g id="node26" class="node">
<title>Node26</title>
<g id="a_node26"><a xlink:title=" ">
<polygon fill="#e0e0e0" stroke="#999999" points="662.25,-132 621.5,-132 621.5,-112 662.25,-112 662.25,-132"/>
<text text-anchor="middle" x="641.88" y="-118.5" font-family="Helvetica,sans-Serif" font-size="10.00">Eigen</text>
</a>
</g>
</g>
<!-- Node22&#45;&gt;Node26 -->
<g id="edge37" class="edge">
<title>Node22&#45;&gt;Node26</title>
<path fill="none" stroke="#63b8ff" d="M667.48,-167.59C663.39,-160.47 657.63,-150.45 652.62,-141.72"/>
<polygon fill="#63b8ff" stroke="#63b8ff" points="655.23,-140.23 647.21,-133.3 649.16,-143.71 655.23,-140.23"/>
</g>
<!-- Node23&#45;&gt;Node4 -->
<g id="edge35" class="edge">
<title>Node23&#45;&gt;Node4</title>
<path fill="none" stroke="#63b8ff" d="M680.11,-114.39C677.01,-113.56 673.87,-112.75 670.88,-112 612.51,-97.42 543.97,-82.28 504.76,-73.81"/>
<polygon fill="#63b8ff" stroke="#63b8ff" points="505.56,-70.18 495.04,-71.5 504.08,-77.03 505.56,-70.18"/>
</g>
<!-- Node23&#45;&gt;Node24 -->
<g id="edge32" class="edge">
<title>Node23&#45;&gt;Node24</title>
<path fill="none" stroke="#63b8ff" d="M727.73,-115.08C732.1,-114.03 736.62,-112.97 740.88,-112 804.01,-97.66 878.02,-82.36 920.08,-73.81"/>
<polygon fill="#63b8ff" stroke="#63b8ff" points="920.71,-77.05 929.82,-71.63 919.32,-70.19 920.71,-77.05"/>
</g>
<!-- Node24&#45;&gt;Node5 -->
<g id="edge33" class="edge">
<title>Node24&#45;&gt;Node5</title>
<path fill="none" stroke="#63b8ff" d="M930.89,-58.85C926.27,-57.78 921.44,-56.76 916.88,-56 742.69,-27.03 530.55,-15.58 453.57,-12.18"/>
<polygon fill="#63b8ff" stroke="#63b8ff" points="453.95,-8.65 443.81,-11.72 453.65,-15.65 453.95,-8.65"/>
</g>
<!-- Node25 -->
<g id="node25" class="node">
<title>Node25</title>
<g id="a_node25"><a xlink:title=" ">
<polygon fill="#e0e0e0" stroke="#999999" points="979.5,-20 928.25,-20 928.25,0 979.5,0 979.5,-20"/>
<text text-anchor="middle" x="953.88" y="-6.5" font-family="Helvetica,sans-Serif" font-size="10.00">ostream</text>
</a>
</g>
</g>
<!-- Node24&#45;&gt;Node25 -->
<g id="edge34" class="edge">
<title>Node24&#45;&gt;Node25</title>
<path fill="none" stroke="#63b8ff" d="M953.88,-55.59C953.88,-48.86 953.88,-39.53 953.88,-31.15"/>
<polygon fill="#63b8ff" stroke="#63b8ff" points="957.38,-31.3 953.88,-21.3 950.38,-31.3 957.38,-31.3"/>
</g>
</g>
</svg>
