<?xml version="1.0" encoding="UTF-8" standalone="no"?>
<!DOCTYPE svg PUBLIC "-//W3C//DTD SVG 1.1//EN"
 "http://www.w3.org/Graphics/SVG/1.1/DTD/svg11.dtd">
<!-- Generated by graphviz version 8.0.5 (20230430.1635)
 -->
<!-- Title: parse_string Pages: 1 -->
<svg width="228pt" height="104pt"
 viewBox="0.00 0.00 228.25 104.00" xmlns="http://www.w3.org/2000/svg" xmlns:xlink="http://www.w3.org/1999/xlink">
<g id="graph0" class="graph" transform="scale(1 1) rotate(0) translate(4 100)">
<title>parse_string</title>
<!-- Node1 -->
<g id="node1" class="node">
<title>Node1</title>
<g id="a_node1"><a xlink:title=" ">
<polygon fill="#999999" stroke="#666666" points="220.25,-58 151,-58 151,-38 220.25,-38 220.25,-58"/>
<text text-anchor="middle" x="185.63" y="-44.5" font-family="Helvetica,sans-Serif" font-size="10.00">parse_string</text>
</a>
</g>
</g>
<!-- Node2 -->
<g id="node2" class="node">
<title>Node2</title>
<g id="a_node2"><a xlink:href="a00458.html#ga02213608939a85d5165da6c0a47c113b" target="_top" xlink:title="Create a new edge between parent_id and child_id. If these IDs do not exist in the graph,...">
<polygon fill="white" stroke="#666666" points="115,-96 0,-96 0,-76 115,-76 115,-96"/>
<text text-anchor="middle" x="57.5" y="-82.5" font-family="Helvetica,sans-Serif" font-size="10.00">AddEdgeFromNodeIDs</text>
</a>
</g>
</g>
<!-- Node1&#45;&gt;Node2 -->
<g id="edge1" class="edge">
<title>Node1&#45;&gt;Node2</title>
<path fill="none" stroke="#63b8ff" d="M140.44,-61.31C124.98,-65.97 107.85,-71.13 93.27,-75.52"/>
<polygon fill="#63b8ff" stroke="#63b8ff" points="141.26,-64.42 149.83,-58.18 139.24,-57.72 141.26,-64.42"/>
</g>
<!-- Node3 -->
<g id="node3" class="node">
<title>Node3</title>
<g id="a_node3"><a xlink:href="a00458.html#ga43f715ce7f57fb92e78f8f6e90b84baf" target="_top" xlink:title="Add an edge between parent and child. If parent or child does not already exist in the graph,...">
<polygon fill="white" stroke="#666666" points="110.5,-58 4.5,-58 4.5,-38 110.5,-38 110.5,-58"/>
<text text-anchor="middle" x="57.5" y="-44.5" font-family="Helvetica,sans-Serif" font-size="10.00">AddEdgeFromNodes</text>
</a>
</g>
</g>
<!-- Node1&#45;&gt;Node3 -->
<g id="edge2" class="edge">
<title>Node1&#45;&gt;Node3</title>
<path fill="none" stroke="#63b8ff" d="M140.09,-48C130.66,-48 120.62,-48 110.93,-48"/>
<polygon fill="#63b8ff" stroke="#63b8ff" points="139.83,-51.5 149.83,-48 139.83,-44.5 139.83,-51.5"/>
</g>
<!-- Node4 -->
<g id="node4" class="node">
<title>Node4</title>
<g id="a_node4"><a xlink:href="a00458.html#ga0b0293bbac3cdc8bdaa1d2c36bec0a26" target="_top" xlink:title="Get an ordered array of costs for each node aggregated by the desired function.">
<polygon fill="white" stroke="#666666" points="100.38,-20 14.63,-20 14.63,0 100.38,0 100.38,-20"/>
<text text-anchor="middle" x="57.5" y="-6.5" font-family="Helvetica,sans-Serif" font-size="10.00">AggregateCosts</text>
</a>
</g>
</g>
<!-- Node1&#45;&gt;Node4 -->
<g id="edge3" class="edge">
<title>Node1&#45;&gt;Node4</title>
<path fill="none" stroke="#63b8ff" d="M140.44,-34.69C124.98,-30.03 107.85,-24.87 93.27,-20.48"/>
<polygon fill="#63b8ff" stroke="#63b8ff" points="139.24,-38.28 149.83,-37.82 141.26,-31.58 139.24,-38.28"/>
</g>
</g>
</svg>
