<?xml version="1.0" encoding="UTF-8" standalone="no"?>
<!DOCTYPE svg PUBLIC "-//W3C//DTD SVG 1.1//EN"
 "http://www.w3.org/Graphics/SVG/1.1/DTD/svg11.dtd">
<!-- Generated by graphviz version 2.43.0 (0)
 -->
<!-- Title: HF::GraphGenerator::UniqueQueue::PushAny Pages: 1 -->
<svg width="1053pt" height="142pt"
 viewBox="0.00 0.00 1053.00 142.00" xmlns="http://www.w3.org/2000/svg" xmlns:xlink="http://www.w3.org/1999/xlink">
<g id="graph0" class="graph" transform="scale(1 1) rotate(0) translate(4 138)">
<title>HF::GraphGenerator::UniqueQueue::PushAny</title>
<polygon fill="white" stroke="transparent" points="-4,4 -4,-138 1049,-138 1049,4 -4,4"/>
<!-- Node1 -->
<g id="node1" class="node">
<title>Node1</title>
<g id="a_node1"><a xlink:title="Call push with any type of object.">
<polygon fill="#bfbfbf" stroke="black" points="908,-30 908,-60 1045,-60 1045,-30 908,-30"/>
<text text-anchor="start" x="916" y="-48" font-family="Helvetica,sans-Serif" font-size="10.00">HF::GraphGenerator</text>
<text text-anchor="middle" x="976.5" y="-37" font-family="Helvetica,sans-Serif" font-size="10.00">::UniqueQueue::PushAny</text>
</a>
</g>
</g>
<!-- Node2 -->
<g id="node2" class="node">
<title>Node2</title>
<g id="a_node2"><a xlink:href="a01257.html#ac7052d4b625fb96f29c5bfc091a86f7e" target="_top" xlink:title="Perform breadth first search to populate the graph with with nodes and edges.">
<polygon fill="white" stroke="black" points="708,-8 708,-38 872,-38 872,-8 708,-8"/>
<text text-anchor="start" x="716" y="-26" font-family="Helvetica,sans-Serif" font-size="10.00">HF::GraphGenerator</text>
<text text-anchor="middle" x="790" y="-15" font-family="Helvetica,sans-Serif" font-size="10.00">::GraphGenerator::CrawlGeom</text>
</a>
</g>
</g>
<!-- Node1&#45;&gt;Node2 -->
<g id="edge1" class="edge">
<title>Node1&#45;&gt;Node2</title>
<path fill="none" stroke="midnightblue" d="M897.65,-35.72C889.2,-34.71 880.59,-33.68 872.11,-32.67"/>
<polygon fill="midnightblue" stroke="midnightblue" points="897.5,-39.22 907.85,-36.93 898.33,-32.27 897.5,-39.22"/>
</g>
<!-- Node3 -->
<g id="node3" class="node">
<title>Node3</title>
<g id="a_node3"><a xlink:href="a01257.html#a2616d5577f2b87dae8bdb9caab75e52f" target="_top" xlink:title="Generate a graph of accessible space.">
<polygon fill="white" stroke="black" points="542,-46.5 542,-87.5 672,-87.5 672,-46.5 542,-46.5"/>
<text text-anchor="start" x="550" y="-75.5" font-family="Helvetica,sans-Serif" font-size="10.00">HF::GraphGenerator</text>
<text text-anchor="start" x="550" y="-64.5" font-family="Helvetica,sans-Serif" font-size="10.00">::GraphGenerator::IMPL</text>
<text text-anchor="middle" x="607" y="-53.5" font-family="Helvetica,sans-Serif" font-size="10.00">_BuildNetwork</text>
</a>
</g>
</g>
<!-- Node1&#45;&gt;Node3 -->
<g id="edge10" class="edge">
<title>Node1&#45;&gt;Node3</title>
<path fill="none" stroke="midnightblue" d="M897.57,-49.67C830.46,-53.68 734.78,-59.41 672.05,-63.17"/>
<polygon fill="midnightblue" stroke="midnightblue" points="897.89,-53.15 907.67,-49.06 897.48,-46.16 897.89,-53.15"/>
</g>
<!-- Node2&#45;&gt;Node3 -->
<g id="edge2" class="edge">
<title>Node2&#45;&gt;Node3</title>
<path fill="none" stroke="midnightblue" d="M717.1,-40.48C702.29,-44.08 686.79,-47.85 672.28,-51.37"/>
<polygon fill="midnightblue" stroke="midnightblue" points="718.33,-43.78 727.22,-38.02 716.67,-36.98 718.33,-43.78"/>
</g>
<!-- Node10 -->
<g id="node10" class="node">
<title>Node10</title>
<g id="a_node10"><a xlink:href="a00299.html#ae187b36d55d513be63fe7a8aab4b26bc" target="_top" xlink:title=" ">
<polygon fill="white" stroke="black" points="586.5,-8.5 586.5,-27.5 627.5,-27.5 627.5,-8.5 586.5,-8.5"/>
<text text-anchor="middle" x="607" y="-15.5" font-family="Helvetica,sans-Serif" font-size="10.00">TEST</text>
</a>
</g>
</g>
<!-- Node2&#45;&gt;Node10 -->
<g id="edge9" class="edge">
<title>Node2&#45;&gt;Node10</title>
<path fill="none" stroke="midnightblue" d="M697.64,-20.48C671.18,-19.75 644.83,-19.02 627.61,-18.54"/>
<polygon fill="midnightblue" stroke="midnightblue" points="697.67,-23.98 707.77,-20.76 697.87,-16.98 697.67,-23.98"/>
</g>
<!-- Node4 -->
<g id="node4" class="node">
<title>Node4</title>
<g id="a_node4"><a xlink:href="a01257.html#ab82cd6b330063776a89a3c65f76d4c0a" target="_top" xlink:title="Generate a graph of accessible space.">
<polygon fill="white" stroke="black" points="333,-52 333,-82 506,-82 506,-52 333,-52"/>
<text text-anchor="start" x="341" y="-70" font-family="Helvetica,sans-Serif" font-size="10.00">HF::GraphGenerator</text>
<text text-anchor="middle" x="419.5" y="-59" font-family="Helvetica,sans-Serif" font-size="10.00">::GraphGenerator::BuildNetwork</text>
</a>
</g>
</g>
<!-- Node3&#45;&gt;Node4 -->
<g id="edge3" class="edge">
<title>Node3&#45;&gt;Node4</title>
<path fill="none" stroke="midnightblue" d="M531.77,-67C523.36,-67 514.74,-67 506.19,-67"/>
<polygon fill="midnightblue" stroke="midnightblue" points="531.9,-70.5 541.9,-67 531.9,-63.5 531.9,-70.5"/>
</g>
<!-- Node5 -->
<g id="node5" class="node">
<title>Node5</title>
<g id="a_node5"><a xlink:href="a00388.html#gac2583dc1ee6786b15fa4f06bfde2130a" target="_top" xlink:title="Construct a graph by performing a breadth&#45;first search of accessible space.">
<polygon fill="white" stroke="black" points="182,-114.5 182,-133.5 273,-133.5 273,-114.5 182,-114.5"/>
<text text-anchor="middle" x="227.5" y="-121.5" font-family="Helvetica,sans-Serif" font-size="10.00">GenerateGraph</text>
</a>
</g>
</g>
<!-- Node4&#45;&gt;Node5 -->
<g id="edge4" class="edge">
<title>Node4&#45;&gt;Node5</title>
<path fill="none" stroke="midnightblue" d="M361.82,-85.15C341.43,-91.56 318.22,-98.74 297,-105 286.23,-108.18 274.46,-111.5 263.76,-114.46"/>
<polygon fill="midnightblue" stroke="midnightblue" points="363.1,-88.41 371.58,-82.06 360.99,-81.74 363.1,-88.41"/>
</g>
<!-- Node7 -->
<g id="node7" class="node">
<title>Node7</title>
<g id="a_node7"><a xlink:href="a00388.html#ga4dea438697ab06c4ab5e6da840bfdcfa" target="_top" xlink:title="Construct a graph by performing a breadth&#45;first search of accessible space, seperating obstacles from...">
<polygon fill="white" stroke="black" points="158,-76.5 158,-95.5 297,-95.5 297,-76.5 158,-76.5"/>
<text text-anchor="middle" x="227.5" y="-83.5" font-family="Helvetica,sans-Serif" font-size="10.00">GenerateGraphObstacles</text>
</a>
</g>
</g>
<!-- Node4&#45;&gt;Node7 -->
<g id="edge6" class="edge">
<title>Node4&#45;&gt;Node7</title>
<path fill="none" stroke="midnightblue" d="M322.78,-76.57C314.1,-77.44 305.44,-78.31 297.07,-79.14"/>
<polygon fill="midnightblue" stroke="midnightblue" points="323.35,-80.03 332.95,-75.56 322.65,-73.07 323.35,-80.03"/>
</g>
<!-- Node8 -->
<g id="node8" class="node">
<title>Node8</title>
<g id="a_node8"><a xlink:href="a00299.html#a6e58a2ac40628a75c6dfc70a1d4e48b5" target="_top" xlink:title=" ">
<polygon fill="white" stroke="black" points="207,-38.5 207,-57.5 248,-57.5 248,-38.5 207,-38.5"/>
<text text-anchor="middle" x="227.5" y="-45.5" font-family="Helvetica,sans-Serif" font-size="10.00">TEST</text>
</a>
</g>
</g>
<!-- Node4&#45;&gt;Node8 -->
<g id="edge7" class="edge">
<title>Node4&#45;&gt;Node8</title>
<path fill="none" stroke="midnightblue" d="M322.95,-57.44C294.63,-54.61 266.37,-51.79 248.25,-49.98"/>
<polygon fill="midnightblue" stroke="midnightblue" points="322.65,-60.93 332.95,-58.44 323.35,-53.97 322.65,-60.93"/>
</g>
<!-- Node9 -->
<g id="node9" class="node">
<title>Node9</title>
<g id="a_node9"><a xlink:href="a00396.html#a1c87886288259aba339494ad1602b311" target="_top" xlink:title=" ">
<polygon fill="white" stroke="black" points="198,-0.5 198,-19.5 257,-19.5 257,-0.5 198,-0.5"/>
<text text-anchor="middle" x="227.5" y="-7.5" font-family="Helvetica,sans-Serif" font-size="10.00">HF::TEST</text>
</a>
</g>
</g>
<!-- Node4&#45;&gt;Node9 -->
<g id="edge8" class="edge">
<title>Node4&#45;&gt;Node9</title>
<path fill="none" stroke="midnightblue" d="M361.82,-48.85C341.43,-42.44 318.22,-35.26 297,-29 283.98,-25.16 269.5,-21.11 257.22,-17.74"/>
<polygon fill="midnightblue" stroke="midnightblue" points="360.99,-52.26 371.58,-51.94 363.1,-45.59 360.99,-52.26"/>
</g>
<!-- Node6 -->
<g id="node6" class="node">
<title>Node6</title>
<g id="a_node6"><a xlink:href="a00414.html#a23a939bc7a94fd17d9f035dae4d0aee1" target="_top" xlink:title=" ">
<polygon fill="white" stroke="black" points="0,-114.5 0,-133.5 122,-133.5 122,-114.5 0,-114.5"/>
<text text-anchor="middle" x="61" y="-121.5" font-family="Helvetica,sans-Serif" font-size="10.00">CInterfaceTests::TEST</text>
</a>
</g>
</g>
<!-- Node5&#45;&gt;Node6 -->
<g id="edge5" class="edge">
<title>Node5&#45;&gt;Node6</title>
<path fill="none" stroke="midnightblue" d="M171.8,-124C155.93,-124 138.5,-124 122.3,-124"/>
<polygon fill="midnightblue" stroke="midnightblue" points="171.98,-127.5 181.98,-124 171.98,-120.5 171.98,-127.5"/>
</g>
</g>
</svg>
