<?xml version="1.0" encoding="UTF-8" standalone="no"?>
<!DOCTYPE svg PUBLIC "-//W3C//DTD SVG 1.1//EN"
 "http://www.w3.org/Graphics/SVG/1.1/DTD/svg11.dtd">
<!-- Generated by graphviz version 2.43.0 (0)
 -->
<!-- Title: HF::GraphGenerator::GeometryFlagMap::SetGeometryIds Pages: 1 -->
<svg width="427pt" height="88pt"
 viewBox="0.00 0.00 427.00 88.00" xmlns="http://www.w3.org/2000/svg" xmlns:xlink="http://www.w3.org/1999/xlink">
<g id="graph0" class="graph" transform="scale(1 1) rotate(0) translate(4 84)">
<title>HF::GraphGenerator::GeometryFlagMap::SetGeometryIds</title>
<polygon fill="white" stroke="transparent" points="-4,4 -4,-84 423,-84 423,4 -4,4"/>
<!-- Node1 -->
<g id="node1" class="node">
<title>Node1</title>
<g id="a_node1"><a xlink:title="Set geometry ids as being walkable or obstacles.">
<polygon fill="#bfbfbf" stroke="black" points="221,-24.5 221,-54.5 419,-54.5 419,-24.5 221,-24.5"/>
<text text-anchor="start" x="229" y="-42.5" font-family="Helvetica,sans-Serif" font-size="10.00">HF::GraphGenerator</text>
<text text-anchor="middle" x="320" y="-31.5" font-family="Helvetica,sans-Serif" font-size="10.00">::GeometryFlagMap::SetGeometryIds</text>
</a>
</g>
</g>
<!-- Node2 -->
<g id="node2" class="node">
<title>Node2</title>
<g id="a_node2"><a xlink:href="a01257.html#a804c4c9a8169aa9901cb32ee0f64c555" target="_top" xlink:title="Construct a new graph generator with a specific raytracer.">
<polygon fill="white" stroke="black" points="0,-49.5 0,-79.5 185,-79.5 185,-49.5 0,-49.5"/>
<text text-anchor="start" x="8" y="-67.5" font-family="Helvetica,sans-Serif" font-size="10.00">HF::GraphGenerator</text>
<text text-anchor="middle" x="92.5" y="-56.5" font-family="Helvetica,sans-Serif" font-size="10.00">::GraphGenerator::GraphGenerator</text>
</a>
</g>
</g>
<!-- Node1&#45;&gt;Node2 -->
<g id="edge1" class="edge">
<title>Node1&#45;&gt;Node2</title>
<path fill="none" stroke="midnightblue" d="M210.69,-51.51C202.11,-52.46 193.48,-53.42 185.03,-54.35"/>
<polygon fill="midnightblue" stroke="midnightblue" points="211.19,-54.97 220.75,-50.39 210.42,-48.02 211.19,-54.97"/>
</g>
<!-- Node3 -->
<g id="node3" class="node">
<title>Node3</title>
<g id="a_node3"><a xlink:href="a00397.html#a124a96c53ed2021db9d819369fe6b7ad" target="_top" xlink:title="Converts the raytracer to a multiRT if required, then map geometry ids to hitflags.">
<polygon fill="white" stroke="black" points="36,-0.5 36,-30.5 149,-30.5 149,-0.5 36,-0.5"/>
<text text-anchor="start" x="44" y="-18.5" font-family="Helvetica,sans-Serif" font-size="10.00">HF::GraphGenerator</text>
<text text-anchor="middle" x="92.5" y="-7.5" font-family="Helvetica,sans-Serif" font-size="10.00">::setupRT</text>
</a>
</g>
</g>
<!-- Node1&#45;&gt;Node3 -->
<g id="edge2" class="edge">
<title>Node1&#45;&gt;Node3</title>
<path fill="none" stroke="midnightblue" d="M210.63,-27.97C189.28,-25.69 167.72,-23.4 149.01,-21.41"/>
<polygon fill="midnightblue" stroke="midnightblue" points="210.43,-31.46 220.75,-29.04 211.18,-24.5 210.43,-31.46"/>
</g>
</g>
</svg>
