<?xml version="1.0" encoding="UTF-8" standalone="no"?>
<!DOCTYPE svg PUBLIC "-//W3C//DTD SVG 1.1//EN"
 "http://www.w3.org/Graphics/SVG/1.1/DTD/svg11.dtd">
<!-- Generated by graphviz version 4.0.0 (20220529.0937)
 -->
<!-- Title: HF::GraphGenerator::GeometryFlagMap Pages: 1 -->
<svg width="234pt" height="184pt"
 viewBox="0.00 0.00 234.00 184.00" xmlns="http://www.w3.org/2000/svg" xmlns:xlink="http://www.w3.org/1999/xlink">
<g id="graph0" class="graph" transform="scale(1 1) rotate(0) translate(4 180)">
<title>HF::GraphGenerator::GeometryFlagMap</title>
<polygon fill="white" stroke="transparent" points="-4,4 -4,-180 230,-180 230,4 -4,4"/>
<!-- Node1 -->
<g id="node1" class="node">
<title>Node1</title>
<g id="a_node1"><a xlink:title="Manages rules and ids for different types of geometry in the graph generator.">
<polygon fill="#bfbfbf" stroke="black" points="60.5,-0.5 60.5,-30.5 164.5,-30.5 164.5,-0.5 60.5,-0.5"/>
<text text-anchor="start" x="68.5" y="-18.5" font-family="Helvetica,sans-Serif" font-size="10.00">HF::GraphGenerator</text>
<text text-anchor="middle" x="112.5" y="-7.5" font-family="Helvetica,sans-Serif" font-size="10.00">::GeometryFlagMap</text>
</a>
</g>
</g>
<!-- Node2 -->
<g id="node2" class="node">
<title>Node2</title>
<g id="a_node2"><a xlink:title=" ">
<polygon fill="white" stroke="black" points="0,-78.5 0,-108.5 103,-108.5 103,-78.5 0,-78.5"/>
<text text-anchor="start" x="8" y="-96.5" font-family="Helvetica,sans-Serif" font-size="10.00">std::unordered_map</text>
<text text-anchor="middle" x="51.5" y="-85.5" font-family="Helvetica,sans-Serif" font-size="10.00">&lt; int, HIT_FLAG &gt;</text>
</a>
</g>
</g>
<!-- Node2&#45;&gt;Node1 -->
<g id="edge1" class="edge">
<title>Node2&#45;&gt;Node1</title>
<path fill="none" stroke="#9a32cd" stroke-dasharray="5,2" d="M58.71,-68.7C61.44,-61.93 65,-54.82 69.5,-49 74.88,-42.04 82.11,-35.81 89.1,-30.71"/>
<polygon fill="#9a32cd" stroke="#9a32cd" points="55.39,-67.59 55.3,-78.18 61.98,-69.96 55.39,-67.59"/>
<text text-anchor="middle" x="110.5" y="-52" font-family="Helvetica,sans-Serif" font-size="10.00"> internal_dictionary</text>
</g>
<!-- Node3 -->
<g id="node3" class="node">
<title>Node3</title>
<g id="a_node3"><a xlink:title=" ">
<polygon fill="white" stroke="black" points="5,-156.5 5,-175.5 34,-175.5 34,-156.5 5,-156.5"/>
<text text-anchor="middle" x="19.5" y="-163.5" font-family="Helvetica,sans-Serif" font-size="10.00">int</text>
</a>
</g>
</g>
<!-- Node3&#45;&gt;Node2 -->
<g id="edge2" class="edge">
<title>Node3&#45;&gt;Node2</title>
<path fill="none" stroke="#9a32cd" stroke-dasharray="5,2" d="M27.64,-146.69C30.43,-140.44 33.59,-133.41 36.5,-127 39.23,-121 42.27,-114.4 44.89,-108.72"/>
<polygon fill="#9a32cd" stroke="#9a32cd" points="24.26,-145.67 23.39,-156.23 30.65,-148.52 24.26,-145.67"/>
<text text-anchor="middle" x="49" y="-130" font-family="Helvetica,sans-Serif" font-size="10.00"> keys</text>
</g>
<!-- Node4 -->
<g id="node4" class="node">
<title>Node4</title>
<g id="a_node4"><a xlink:title=" ">
<polygon fill="white" stroke="black" points="52.5,-156.5 52.5,-175.5 114.5,-175.5 114.5,-156.5 52.5,-156.5"/>
<text text-anchor="middle" x="83.5" y="-163.5" font-family="Helvetica,sans-Serif" font-size="10.00">HIT_FLAG</text>
</a>
</g>
</g>
<!-- Node4&#45;&gt;Node2 -->
<g id="edge3" class="edge">
<title>Node4&#45;&gt;Node2</title>
<path fill="none" stroke="#9a32cd" stroke-dasharray="5,2" d="M75.31,-146.96C69.9,-135.03 62.9,-119.61 57.89,-108.58"/>
<polygon fill="#9a32cd" stroke="#9a32cd" points="72.26,-148.7 79.58,-156.36 78.63,-145.8 72.26,-148.7"/>
<text text-anchor="middle" x="91" y="-130" font-family="Helvetica,sans-Serif" font-size="10.00"> elements</text>
</g>
<!-- Node5 -->
<g id="node5" class="node">
<title>Node5</title>
<g id="a_node5"><a xlink:title=" ">
<polygon fill="white" stroke="black" points="121,-84 121,-103 226,-103 226,-84 121,-84"/>
<text text-anchor="middle" x="173.5" y="-91" font-family="Helvetica,sans-Serif" font-size="10.00">GeometryFilterMode</text>
</a>
</g>
</g>
<!-- Node5&#45;&gt;Node1 -->
<g id="edge4" class="edge">
<title>Node5&#45;&gt;Node1</title>
<path fill="none" stroke="#9a32cd" stroke-dasharray="5,2" d="M166.38,-74.45C162.64,-66.22 157.58,-56.64 151.5,-49 146.12,-42.24 139.15,-35.89 132.58,-30.63"/>
<polygon fill="#9a32cd" stroke="#9a32cd" points="163.25,-76.04 170.37,-83.89 169.7,-73.32 163.25,-76.04"/>
<text text-anchor="middle" x="171.5" y="-52" font-family="Helvetica,sans-Serif" font-size="10.00"> Mode</text>
</g>
</g>
</svg>
