<?xml version="1.0" encoding="UTF-8" standalone="no"?>
<!DOCTYPE svg PUBLIC "-//W3C//DTD SVG 1.1//EN"
 "http://www.w3.org/Graphics/SVG/1.1/DTD/svg11.dtd">
<!-- Generated by graphviz version 2.43.0 (0)
 -->
<!-- Title: HF::Geometry::MeshInfo::NumTris Pages: 1 -->
<svg width="324pt" height="78pt"
 viewBox="0.00 0.00 324.00 77.50" xmlns="http://www.w3.org/2000/svg" xmlns:xlink="http://www.w3.org/1999/xlink">
<g id="graph0" class="graph" transform="scale(1 1) rotate(0) translate(4 73.5)">
<title>HF::Geometry::MeshInfo::NumTris</title>
<polygon fill="white" stroke="transparent" points="-4,4 -4,-73.5 320,-73.5 320,4 -4,4"/>
<!-- Node1 -->
<g id="node1" class="node">
<title>Node1</title>
<g id="a_node1"><a xlink:title="Calculate the total number of triangles in this mesh.">
<polygon fill="#bfbfbf" stroke="black" points="182,-17 182,-47 316,-47 316,-17 182,-17"/>
<text text-anchor="start" x="190" y="-35" font-family="Helvetica,sans-Serif" font-size="10.00">HF::Geometry::MeshInfo</text>
<text text-anchor="middle" x="249" y="-24" font-family="Helvetica,sans-Serif" font-size="10.00">::NumTris</text>
</a>
</g>
</g>
<!-- Node2 -->
<g id="node2" class="node">
<title>Node2</title>
<g id="a_node2"><a xlink:href="a01357.html#ad5389e05e451a8d8820c4deea886db3f" target="_top" xlink:title="Add a new mesh to the BVH with the specified ID. If False, then the addition failed,...">
<polygon fill="white" stroke="black" points="0,-39 0,-69 146,-69 146,-39 0,-39"/>
<text text-anchor="start" x="8" y="-57" font-family="Helvetica,sans-Serif" font-size="10.00">HF::RayTracer::EmbreeRay</text>
<text text-anchor="middle" x="73" y="-46" font-family="Helvetica,sans-Serif" font-size="10.00">Tracer::AddMesh</text>
</a>
</g>
</g>
<!-- Node1&#45;&gt;Node2 -->
<g id="edge1" class="edge">
<title>Node1&#45;&gt;Node2</title>
<path fill="none" stroke="midnightblue" d="M171.53,-41.67C163.11,-42.73 154.55,-43.82 146.18,-44.87"/>
<polygon fill="midnightblue" stroke="midnightblue" points="172.24,-45.11 181.72,-40.38 171.36,-38.16 172.24,-45.11"/>
</g>
<!-- Node3 -->
<g id="node3" class="node">
<title>Node3</title>
<g id="a_node3"><a xlink:href="a02910.html#a77e77de802f179a3aee0ee58818cdfda" target="_top" xlink:title=" ">
<polygon fill="white" stroke="black" points="52.5,-0.5 52.5,-19.5 93.5,-19.5 93.5,-0.5 52.5,-0.5"/>
<text text-anchor="middle" x="73" y="-7.5" font-family="Helvetica,sans-Serif" font-size="10.00">TEST</text>
</a>
</g>
</g>
<!-- Node1&#45;&gt;Node3 -->
<g id="edge2" class="edge">
<title>Node1&#45;&gt;Node3</title>
<path fill="none" stroke="midnightblue" d="M171.65,-22.35C142.92,-18.71 112.62,-14.88 93.53,-12.47"/>
<polygon fill="midnightblue" stroke="midnightblue" points="171.36,-25.84 181.72,-23.62 172.24,-18.89 171.36,-25.84"/>
</g>
</g>
</svg>
