<?xml version="1.0" encoding="UTF-8" standalone="no"?>
<!DOCTYPE svg PUBLIC "-//W3C//DTD SVG 1.1//EN"
 "http://www.w3.org/Graphics/SVG/1.1/DTD/svg11.dtd">
<!-- Generated by graphviz version 7.0.2 (20221119.0110)
 -->
<!-- Title: HF::GraphGenerator::GraphGenerator::BuildNetwork Pages: 1 -->
<svg width="326pt" height="64pt"
 viewBox="0.00 0.00 326.00 64.00" xmlns="http://www.w3.org/2000/svg" xmlns:xlink="http://www.w3.org/1999/xlink">
<g id="graph0" class="graph" transform="scale(1 1) rotate(0) translate(4 60)">
<title>HF::GraphGenerator::GraphGenerator::BuildNetwork</title>
<!-- Node1 -->
<g id="node1" class="node">
<title>Node1</title>
<g id="a_node1"><a xlink:title="Generate a graph of accessible space.">
<polygon fill="#999999" stroke="#666666" points="318,-42.5 163,-42.5 163,-12.5 318,-12.5 318,-42.5"/>
<text text-anchor="start" x="171" y="-30.5" font-family="Helvetica,sans-Serif" font-size="10.00">HF::GraphGenerator</text>
<text text-anchor="middle" x="240.5" y="-19.5" font-family="Helvetica,sans-Serif" font-size="10.00">::GraphGenerator::BuildNetwork</text>
</a>
</g>
</g>
<!-- Node2 -->
<g id="node2" class="node">
<title>Node2</title>
<g id="a_node2"><a xlink:href="a00388.html#ga2df84a732d1edfb70b7bd26d3282e129" target="_top" xlink:title="Construct a graph by performing a breadth&#45;first search of accessible space.">
<polygon fill="white" stroke="#666666" points="105,-56 22,-56 22,-37 105,-37 105,-56"/>
<text text-anchor="middle" x="63.5" y="-44" font-family="Helvetica,sans-Serif" font-size="10.00">GenerateGraph</text>
</a>
</g>
</g>
<!-- Node1&#45;&gt;Node2 -->
<g id="edge1" class="edge">
<title>Node1&#45;&gt;Node2</title>
<path fill="none" stroke="#63b8ff" d="M151.53,-37.05C135.31,-38.81 119.1,-40.57 105.15,-42.09"/>
<polygon fill="#63b8ff" stroke="#63b8ff" points="151.67,-40.56 161.24,-36 150.92,-33.6 151.67,-40.56"/>
</g>
<!-- Node3 -->
<g id="node3" class="node">
<title>Node3</title>
<g id="a_node3"><a xlink:href="a00388.html#gab9f58e3ecc686fa9bc34519b0faed734" target="_top" xlink:title="Construct a graph by performing a breadth&#45;first search of accessible space, seperating obstacles from...">
<polygon fill="white" stroke="#666666" points="127,-19 0,-19 0,0 127,0 127,-19"/>
<text text-anchor="middle" x="63.5" y="-7" font-family="Helvetica,sans-Serif" font-size="10.00">GenerateGraphObstacles</text>
</a>
</g>
</g>
<!-- Node1&#45;&gt;Node3 -->
<g id="edge2" class="edge">
<title>Node1&#45;&gt;Node3</title>
<path fill="none" stroke="#63b8ff" d="M151.31,-18.43C143.2,-17.59 135.1,-16.76 127.29,-15.96"/>
<polygon fill="#63b8ff" stroke="#63b8ff" points="150.93,-21.91 161.24,-19.45 151.65,-14.95 150.93,-21.91"/>
</g>
</g>
</svg>
