<?xml version="1.0" encoding="UTF-8" standalone="no"?>
<!DOCTYPE svg PUBLIC "-//W3C//DTD SVG 1.1//EN"
 "http://www.w3.org/Graphics/SVG/1.1/DTD/svg11.dtd">
<!-- Generated by graphviz version 2.43.0 (0)
 -->
<!-- Title: HF::GraphGenerator::UniqueQueue::size Pages: 1 -->
<svg width="1206pt" height="210pt"
 viewBox="0.00 0.00 1206.00 209.50" xmlns="http://www.w3.org/2000/svg" xmlns:xlink="http://www.w3.org/1999/xlink">
<g id="graph0" class="graph" transform="scale(1 1) rotate(0) translate(4 205.5)">
<title>HF::GraphGenerator::UniqueQueue::size</title>
<polygon fill="white" stroke="transparent" points="-4,4 -4,-205.5 1202,-205.5 1202,4 -4,4"/>
<!-- Node1 -->
<g id="node1" class="node">
<title>Node1</title>
<g id="a_node1"><a xlink:title="Determine how many nodes are currently in the queue.">
<polygon fill="#bfbfbf" stroke="black" points="1084,-61 1084,-91 1198,-91 1198,-61 1084,-61"/>
<text text-anchor="start" x="1092" y="-79" font-family="Helvetica,sans-Serif" font-size="10.00">HF::GraphGenerator</text>
<text text-anchor="middle" x="1141" y="-68" font-family="Helvetica,sans-Serif" font-size="10.00">::UniqueQueue::size</text>
</a>
</g>
</g>
<!-- Node2 -->
<g id="node2" class="node">
<title>Node2</title>
<g id="a_node2"><a xlink:href="a01257.html#a843cc6b5b69b5d013930b3685789fa15" target="_top" xlink:title="Perform breadth first search to populate the graph with nodes and edges using multiple cores.">
<polygon fill="white" stroke="black" points="708,-72.5 708,-113.5 872,-113.5 872,-72.5 708,-72.5"/>
<text text-anchor="start" x="716" y="-101.5" font-family="Helvetica,sans-Serif" font-size="10.00">HF::GraphGenerator</text>
<text text-anchor="start" x="716" y="-90.5" font-family="Helvetica,sans-Serif" font-size="10.00">::GraphGenerator::CrawlGeom</text>
<text text-anchor="middle" x="790" y="-79.5" font-family="Helvetica,sans-Serif" font-size="10.00">Parallel</text>
</a>
</g>
</g>
<!-- Node1&#45;&gt;Node2 -->
<g id="edge1" class="edge">
<title>Node1&#45;&gt;Node2</title>
<path fill="none" stroke="midnightblue" d="M1073.9,-79.22C1016.65,-82.01 933.62,-86.05 872.31,-89.04"/>
<polygon fill="midnightblue" stroke="midnightblue" points="1074.11,-82.71 1083.93,-78.73 1073.77,-75.72 1074.11,-82.71"/>
</g>
<!-- Node11 -->
<g id="node11" class="node">
<title>Node11</title>
<g id="a_node11"><a xlink:href="a01261.html#ab659349de3391b0e2327f3736135752f" target="_top" xlink:title="Tell if the queue is empty.">
<polygon fill="white" stroke="black" points="915,-127 915,-157 1041,-157 1041,-127 915,-127"/>
<text text-anchor="start" x="923" y="-145" font-family="Helvetica,sans-Serif" font-size="10.00">HF::GraphGenerator</text>
<text text-anchor="middle" x="978" y="-134" font-family="Helvetica,sans-Serif" font-size="10.00">::UniqueQueue::empty</text>
</a>
</g>
</g>
<!-- Node1&#45;&gt;Node11 -->
<g id="edge10" class="edge">
<title>Node1&#45;&gt;Node11</title>
<path fill="none" stroke="midnightblue" d="M1093.53,-95.05C1068.81,-105.18 1038.84,-117.47 1015.76,-126.93"/>
<polygon fill="midnightblue" stroke="midnightblue" points="1095.14,-98.17 1103.06,-91.14 1092.48,-91.7 1095.14,-98.17"/>
</g>
<!-- Node14 -->
<g id="node14" class="node">
<title>Node14</title>
<g id="a_node14"><a xlink:href="a01261.html#ae941f357ddbefc3b670c43ce2d90b589" target="_top" xlink:title="Pop a set amount of nodes from the queue, and return them as a vector.">
<polygon fill="white" stroke="black" points="908,-39 908,-69 1048,-69 1048,-39 908,-39"/>
<text text-anchor="start" x="916" y="-57" font-family="Helvetica,sans-Serif" font-size="10.00">HF::GraphGenerator</text>
<text text-anchor="middle" x="978" y="-46" font-family="Helvetica,sans-Serif" font-size="10.00">::UniqueQueue::popMany</text>
</a>
</g>
</g>
<!-- Node1&#45;&gt;Node14 -->
<g id="edge16" class="edge">
<title>Node1&#45;&gt;Node14</title>
<path fill="none" stroke="midnightblue" d="M1073.55,-66.92C1065.12,-65.77 1056.49,-64.59 1048.03,-63.43"/>
<polygon fill="midnightblue" stroke="midnightblue" points="1073.31,-70.42 1083.69,-68.31 1074.26,-63.48 1073.31,-70.42"/>
</g>
<!-- Node15 -->
<g id="node15" class="node">
<title>Node15</title>
<g id="a_node15"><a xlink:href="a00396.html#a5f698f479a173cc5ca2f0c575b3ec777" target="_top" xlink:title=" ">
<polygon fill="white" stroke="black" points="948.5,-0.5 948.5,-19.5 1007.5,-19.5 1007.5,-0.5 948.5,-0.5"/>
<text text-anchor="middle" x="978" y="-7.5" font-family="Helvetica,sans-Serif" font-size="10.00">HF::TEST</text>
</a>
</g>
</g>
<!-- Node1&#45;&gt;Node15 -->
<g id="edge18" class="edge">
<title>Node1&#45;&gt;Node15</title>
<path fill="none" stroke="midnightblue" d="M1105.14,-56.07C1088.26,-46.97 1067.47,-36.56 1048,-29 1035.03,-23.96 1020.2,-19.69 1007.62,-16.49"/>
<polygon fill="midnightblue" stroke="midnightblue" points="1103.63,-59.23 1114.09,-60.96 1106.99,-53.09 1103.63,-59.23"/>
</g>
<!-- Node3 -->
<g id="node3" class="node">
<title>Node3</title>
<g id="a_node3"><a xlink:href="a01257.html#a2616d5577f2b87dae8bdb9caab75e52f" target="_top" xlink:title="Generate a graph of accessible space.">
<polygon fill="white" stroke="black" points="542,-94.5 542,-135.5 672,-135.5 672,-94.5 542,-94.5"/>
<text text-anchor="start" x="550" y="-123.5" font-family="Helvetica,sans-Serif" font-size="10.00">HF::GraphGenerator</text>
<text text-anchor="start" x="550" y="-112.5" font-family="Helvetica,sans-Serif" font-size="10.00">::GraphGenerator::IMPL</text>
<text text-anchor="middle" x="607" y="-101.5" font-family="Helvetica,sans-Serif" font-size="10.00">_BuildNetwork</text>
</a>
</g>
</g>
<!-- Node2&#45;&gt;Node3 -->
<g id="edge2" class="edge">
<title>Node2&#45;&gt;Node3</title>
<path fill="none" stroke="midnightblue" d="M697.66,-104.1C689.04,-105.15 680.44,-106.2 672.15,-107.2"/>
<polygon fill="midnightblue" stroke="midnightblue" points="698.26,-107.55 707.77,-102.87 697.42,-100.61 698.26,-107.55"/>
</g>
<!-- Node10 -->
<g id="node10" class="node">
<title>Node10</title>
<g id="a_node10"><a xlink:href="a00299.html#ae187b36d55d513be63fe7a8aab4b26bc" target="_top" xlink:title=" ">
<polygon fill="white" stroke="black" points="586.5,-165.5 586.5,-184.5 627.5,-184.5 627.5,-165.5 586.5,-165.5"/>
<text text-anchor="middle" x="607" y="-172.5" font-family="Helvetica,sans-Serif" font-size="10.00">TEST</text>
</a>
</g>
</g>
<!-- Node2&#45;&gt;Node10 -->
<g id="edge9" class="edge">
<title>Node2&#45;&gt;Node10</title>
<path fill="none" stroke="midnightblue" d="M719.74,-117.62C715.73,-119.36 711.79,-121.16 708,-123 691.13,-131.18 688.51,-136.12 672,-145 657.41,-152.85 640.41,-160.76 627.6,-166.49"/>
<polygon fill="midnightblue" stroke="midnightblue" points="721.3,-120.76 729.17,-113.66 718.59,-114.3 721.3,-120.76"/>
</g>
<!-- Node4 -->
<g id="node4" class="node">
<title>Node4</title>
<g id="a_node4"><a xlink:href="a01257.html#ab82cd6b330063776a89a3c65f76d4c0a" target="_top" xlink:title="Generate a graph of accessible space.">
<polygon fill="white" stroke="black" points="333,-100 333,-130 506,-130 506,-100 333,-100"/>
<text text-anchor="start" x="341" y="-118" font-family="Helvetica,sans-Serif" font-size="10.00">HF::GraphGenerator</text>
<text text-anchor="middle" x="419.5" y="-107" font-family="Helvetica,sans-Serif" font-size="10.00">::GraphGenerator::BuildNetwork</text>
</a>
</g>
</g>
<!-- Node3&#45;&gt;Node4 -->
<g id="edge3" class="edge">
<title>Node3&#45;&gt;Node4</title>
<path fill="none" stroke="midnightblue" d="M531.77,-115C523.36,-115 514.74,-115 506.19,-115"/>
<polygon fill="midnightblue" stroke="midnightblue" points="531.9,-118.5 541.9,-115 531.9,-111.5 531.9,-118.5"/>
</g>
<!-- Node5 -->
<g id="node5" class="node">
<title>Node5</title>
<g id="a_node5"><a xlink:href="a00388.html#gac2583dc1ee6786b15fa4f06bfde2130a" target="_top" xlink:title="Construct a graph by performing a breadth&#45;first search of accessible space.">
<polygon fill="white" stroke="black" points="182,-162.5 182,-181.5 273,-181.5 273,-162.5 182,-162.5"/>
<text text-anchor="middle" x="227.5" y="-169.5" font-family="Helvetica,sans-Serif" font-size="10.00">GenerateGraph</text>
</a>
</g>
</g>
<!-- Node4&#45;&gt;Node5 -->
<g id="edge4" class="edge">
<title>Node4&#45;&gt;Node5</title>
<path fill="none" stroke="midnightblue" d="M361.82,-133.15C341.43,-139.56 318.22,-146.74 297,-153 286.23,-156.18 274.46,-159.5 263.76,-162.46"/>
<polygon fill="midnightblue" stroke="midnightblue" points="363.1,-136.41 371.58,-130.06 360.99,-129.74 363.1,-136.41"/>
</g>
<!-- Node7 -->
<g id="node7" class="node">
<title>Node7</title>
<g id="a_node7"><a xlink:href="a00388.html#ga4dea438697ab06c4ab5e6da840bfdcfa" target="_top" xlink:title="Construct a graph by performing a breadth&#45;first search of accessible space, seperating obstacles from...">
<polygon fill="white" stroke="black" points="158,-124.5 158,-143.5 297,-143.5 297,-124.5 158,-124.5"/>
<text text-anchor="middle" x="227.5" y="-131.5" font-family="Helvetica,sans-Serif" font-size="10.00">GenerateGraphObstacles</text>
</a>
</g>
</g>
<!-- Node4&#45;&gt;Node7 -->
<g id="edge6" class="edge">
<title>Node4&#45;&gt;Node7</title>
<path fill="none" stroke="midnightblue" d="M322.78,-124.57C314.1,-125.44 305.44,-126.31 297.07,-127.14"/>
<polygon fill="midnightblue" stroke="midnightblue" points="323.35,-128.03 332.95,-123.56 322.65,-121.07 323.35,-128.03"/>
</g>
<!-- Node8 -->
<g id="node8" class="node">
<title>Node8</title>
<g id="a_node8"><a xlink:href="a00299.html#a6e58a2ac40628a75c6dfc70a1d4e48b5" target="_top" xlink:title=" ">
<polygon fill="white" stroke="black" points="207,-86.5 207,-105.5 248,-105.5 248,-86.5 207,-86.5"/>
<text text-anchor="middle" x="227.5" y="-93.5" font-family="Helvetica,sans-Serif" font-size="10.00">TEST</text>
</a>
</g>
</g>
<!-- Node4&#45;&gt;Node8 -->
<g id="edge7" class="edge">
<title>Node4&#45;&gt;Node8</title>
<path fill="none" stroke="midnightblue" d="M322.95,-105.44C294.63,-102.61 266.37,-99.79 248.25,-97.98"/>
<polygon fill="midnightblue" stroke="midnightblue" points="322.65,-108.93 332.95,-106.44 323.35,-101.97 322.65,-108.93"/>
</g>
<!-- Node9 -->
<g id="node9" class="node">
<title>Node9</title>
<g id="a_node9"><a xlink:href="a00396.html#a1c87886288259aba339494ad1602b311" target="_top" xlink:title=" ">
<polygon fill="white" stroke="black" points="198,-48.5 198,-67.5 257,-67.5 257,-48.5 198,-48.5"/>
<text text-anchor="middle" x="227.5" y="-55.5" font-family="Helvetica,sans-Serif" font-size="10.00">HF::TEST</text>
</a>
</g>
</g>
<!-- Node4&#45;&gt;Node9 -->
<g id="edge8" class="edge">
<title>Node4&#45;&gt;Node9</title>
<path fill="none" stroke="midnightblue" d="M361.82,-96.85C341.43,-90.44 318.22,-83.26 297,-77 283.98,-73.16 269.5,-69.11 257.22,-65.74"/>
<polygon fill="midnightblue" stroke="midnightblue" points="360.99,-100.26 371.58,-99.94 363.1,-93.59 360.99,-100.26"/>
</g>
<!-- Node6 -->
<g id="node6" class="node">
<title>Node6</title>
<g id="a_node6"><a xlink:href="a00414.html#a23a939bc7a94fd17d9f035dae4d0aee1" target="_top" xlink:title=" ">
<polygon fill="white" stroke="black" points="0,-162.5 0,-181.5 122,-181.5 122,-162.5 0,-162.5"/>
<text text-anchor="middle" x="61" y="-169.5" font-family="Helvetica,sans-Serif" font-size="10.00">CInterfaceTests::TEST</text>
</a>
</g>
</g>
<!-- Node5&#45;&gt;Node6 -->
<g id="edge5" class="edge">
<title>Node5&#45;&gt;Node6</title>
<path fill="none" stroke="midnightblue" d="M171.8,-172C155.93,-172 138.5,-172 122.3,-172"/>
<polygon fill="midnightblue" stroke="midnightblue" points="171.98,-175.5 181.98,-172 171.98,-168.5 171.98,-175.5"/>
</g>
<!-- Node11&#45;&gt;Node2 -->
<g id="edge14" class="edge">
<title>Node11&#45;&gt;Node2</title>
<path fill="none" stroke="midnightblue" d="M909.91,-124.33C896.59,-120.82 882.5,-117.1 868.85,-113.51"/>
<polygon fill="midnightblue" stroke="midnightblue" points="909.37,-127.8 919.93,-126.97 911.15,-121.03 909.37,-127.8"/>
</g>
<!-- Node12 -->
<g id="node12" class="node">
<title>Node12</title>
<g id="a_node12"><a xlink:href="a01257.html#ac7052d4b625fb96f29c5bfc091a86f7e" target="_top" xlink:title="Perform breadth first search to populate the graph with with nodes and edges.">
<polygon fill="white" stroke="black" points="708,-171 708,-201 872,-201 872,-171 708,-171"/>
<text text-anchor="start" x="716" y="-189" font-family="Helvetica,sans-Serif" font-size="10.00">HF::GraphGenerator</text>
<text text-anchor="middle" x="790" y="-178" font-family="Helvetica,sans-Serif" font-size="10.00">::GraphGenerator::CrawlGeom</text>
</a>
</g>
</g>
<!-- Node11&#45;&gt;Node12 -->
<g id="edge11" class="edge">
<title>Node11&#45;&gt;Node12</title>
<path fill="none" stroke="midnightblue" d="M904.68,-159.11C888.2,-163.01 870.81,-167.12 854.72,-170.93"/>
<polygon fill="midnightblue" stroke="midnightblue" points="905.88,-162.42 914.81,-156.71 904.27,-155.61 905.88,-162.42"/>
</g>
<!-- Node13 -->
<g id="node13" class="node">
<title>Node13</title>
<g id="a_node13"><a xlink:href="a00396.html#ad15205c25d807d5d3384de6d2997802f" target="_top" xlink:title=" ">
<polygon fill="white" stroke="black" points="760.5,-132.5 760.5,-151.5 819.5,-151.5 819.5,-132.5 760.5,-132.5"/>
<text text-anchor="middle" x="790" y="-139.5" font-family="Helvetica,sans-Serif" font-size="10.00">HF::TEST</text>
</a>
</g>
</g>
<!-- Node11&#45;&gt;Node13 -->
<g id="edge15" class="edge">
<title>Node11&#45;&gt;Node13</title>
<path fill="none" stroke="midnightblue" d="M904.48,-142C874.9,-142 842.41,-142 819.8,-142"/>
<polygon fill="midnightblue" stroke="midnightblue" points="904.81,-145.5 914.81,-142 904.81,-138.5 904.81,-145.5"/>
</g>
<!-- Node12&#45;&gt;Node3 -->
<g id="edge12" class="edge">
<title>Node12&#45;&gt;Node3</title>
<path fill="none" stroke="midnightblue" d="M726.5,-167.62C720.21,-165.5 713.95,-163.28 708,-161 688.54,-153.56 667.53,-144.12 649.81,-135.72"/>
<polygon fill="midnightblue" stroke="midnightblue" points="725.78,-171.07 736.37,-170.86 727.96,-164.41 725.78,-171.07"/>
</g>
<!-- Node12&#45;&gt;Node10 -->
<g id="edge13" class="edge">
<title>Node12&#45;&gt;Node10</title>
<path fill="none" stroke="midnightblue" d="M697.64,-180.45C671.18,-178.84 644.83,-177.24 627.61,-176.19"/>
<polygon fill="midnightblue" stroke="midnightblue" points="697.57,-183.95 707.77,-181.06 698,-176.96 697.57,-183.95"/>
</g>
<!-- Node14&#45;&gt;Node2 -->
<g id="edge17" class="edge">
<title>Node14&#45;&gt;Node2</title>
<path fill="none" stroke="midnightblue" d="M897.87,-70.59C889.39,-72.37 880.75,-74.18 872.24,-75.96"/>
<polygon fill="midnightblue" stroke="midnightblue" points="898.67,-74 907.74,-68.52 897.24,-67.15 898.67,-74"/>
</g>
</g>
</svg>
