<?xml version="1.0" encoding="UTF-8" standalone="no"?>
<!DOCTYPE svg PUBLIC "-//W3C//DTD SVG 1.1//EN"
 "http://www.w3.org/Graphics/SVG/1.1/DTD/svg11.dtd">
<!-- Generated by graphviz version 2.43.0 (0)
 -->
<!-- Title: HF::Geometry::MeshInfo::GetIndexedVertices Pages: 1 -->
<svg width="324pt" height="116pt"
 viewBox="0.00 0.00 324.00 115.50" xmlns="http://www.w3.org/2000/svg" xmlns:xlink="http://www.w3.org/1999/xlink">
<g id="graph0" class="graph" transform="scale(1 1) rotate(0) translate(4 111.5)">
<title>HF::Geometry::MeshInfo::GetIndexedVertices</title>
<polygon fill="white" stroke="transparent" points="-4,4 -4,-111.5 320,-111.5 320,4 -4,4"/>
<!-- Node1 -->
<g id="node1" class="node">
<title>Node1</title>
<g id="a_node1"><a xlink:title="A copy of every vertex in this array.">
<polygon fill="#bfbfbf" stroke="black" points="182,-33 182,-63 316,-63 316,-33 182,-33"/>
<text text-anchor="start" x="190" y="-51" font-family="Helvetica,sans-Serif" font-size="10.00">HF::Geometry::MeshInfo</text>
<text text-anchor="middle" x="249" y="-40" font-family="Helvetica,sans-Serif" font-size="10.00">::GetIndexedVertices</text>
</a>
</g>
</g>
<!-- Node2 -->
<g id="node2" class="node">
<title>Node2</title>
<g id="a_node2"><a xlink:href="a01357.html#ad5389e05e451a8d8820c4deea886db3f" target="_top" xlink:title="Add a new mesh to the BVH with the specified ID. If False, then the addition failed,...">
<polygon fill="white" stroke="black" points="0,-77 0,-107 146,-107 146,-77 0,-77"/>
<text text-anchor="start" x="8" y="-95" font-family="Helvetica,sans-Serif" font-size="10.00">HF::RayTracer::EmbreeRay</text>
<text text-anchor="middle" x="73" y="-84" font-family="Helvetica,sans-Serif" font-size="10.00">Tracer::AddMesh</text>
</a>
</g>
</g>
<!-- Node1&#45;&gt;Node2 -->
<g id="edge1" class="edge">
<title>Node1&#45;&gt;Node2</title>
<path fill="none" stroke="midnightblue" d="M178.85,-65.49C163.82,-69.29 148.04,-73.28 133.42,-76.97"/>
<polygon fill="midnightblue" stroke="midnightblue" points="179.77,-68.86 188.61,-63.02 178.05,-62.08 179.77,-68.86"/>
</g>
<!-- Node3 -->
<g id="node3" class="node">
<title>Node3</title>
<g id="a_node3"><a xlink:href="a02910.html#a9e14f5d5b279d7f955807dd2877f5f7b" target="_top" xlink:title=" ">
<polygon fill="white" stroke="black" points="52.5,-38.5 52.5,-57.5 93.5,-57.5 93.5,-38.5 52.5,-38.5"/>
<text text-anchor="middle" x="73" y="-45.5" font-family="Helvetica,sans-Serif" font-size="10.00">TEST</text>
</a>
</g>
</g>
<!-- Node1&#45;&gt;Node3 -->
<g id="edge2" class="edge">
<title>Node1&#45;&gt;Node3</title>
<path fill="none" stroke="midnightblue" d="M171.65,-48C142.92,-48 112.62,-48 93.53,-48"/>
<polygon fill="midnightblue" stroke="midnightblue" points="171.72,-51.5 181.72,-48 171.72,-44.5 171.72,-51.5"/>
</g>
<!-- Node4 -->
<g id="node4" class="node">
<title>Node4</title>
<g id="a_node4"><a xlink:href="a00414.html#a2e76d2977770184c7a4c2b8d426271aa" target="_top" xlink:title=" ">
<polygon fill="white" stroke="black" points="12,-0.5 12,-19.5 134,-19.5 134,-0.5 12,-0.5"/>
<text text-anchor="middle" x="73" y="-7.5" font-family="Helvetica,sans-Serif" font-size="10.00">CInterfaceTests::TEST</text>
</a>
</g>
</g>
<!-- Node1&#45;&gt;Node4 -->
<g id="edge3" class="edge">
<title>Node1&#45;&gt;Node4</title>
<path fill="none" stroke="midnightblue" d="M171.83,-31.37C153.33,-27.32 134.16,-23.14 117.75,-19.55"/>
<polygon fill="midnightblue" stroke="midnightblue" points="171.21,-34.81 181.72,-33.53 172.7,-27.97 171.21,-34.81"/>
</g>
</g>
</svg>
