<?xml version="1.0" encoding="UTF-8" standalone="no"?>
<!DOCTYPE svg PUBLIC "-//W3C//DTD SVG 1.1//EN"
 "http://www.w3.org/Graphics/SVG/1.1/DTD/svg11.dtd">
<!-- Generated by graphviz version 2.43.0 (0)
 -->
<!-- Title: HF::GraphGenerator::GraphGenerator::CrawlGeomParallel Pages: 1 -->
<svg width="1012pt" height="460pt"
 viewBox="0.00 0.00 1012.00 460.00" xmlns="http://www.w3.org/2000/svg" xmlns:xlink="http://www.w3.org/1999/xlink">
<g id="graph0" class="graph" transform="scale(1 1) rotate(0) translate(4 456)">
<title>HF::GraphGenerator::GraphGenerator::CrawlGeomParallel</title>
<polygon fill="white" stroke="transparent" points="-4,4 -4,-456 1008,-456 1008,4 -4,4"/>
<!-- Node1 -->
<g id="node1" class="node">
<title>Node1</title>
<g id="a_node1"><a xlink:title="Perform breadth first search to populate the graph with nodes and edges using multiple cores.">
<polygon fill="#bfbfbf" stroke="black" points="0,-230 0,-271 164,-271 164,-230 0,-230"/>
<text text-anchor="start" x="8" y="-259" font-family="Helvetica,sans-Serif" font-size="10.00">HF::GraphGenerator</text>
<text text-anchor="start" x="8" y="-248" font-family="Helvetica,sans-Serif" font-size="10.00">::GraphGenerator::CrawlGeom</text>
<text text-anchor="middle" x="82" y="-237" font-family="Helvetica,sans-Serif" font-size="10.00">Parallel</text>
</a>
</g>
</g>
<!-- Node2 -->
<g id="node2" class="node">
<title>Node2</title>
<g id="a_node2"><a xlink:href="a01497.html#a37be5c12e488072dea7fa1c8c64346f7" target="_top" xlink:title="Add a new edge to the graph from parent to child.">
<polygon fill="white" stroke="black" points="216.5,-421.5 216.5,-451.5 335.5,-451.5 335.5,-421.5 216.5,-421.5"/>
<text text-anchor="start" x="224.5" y="-439.5" font-family="Helvetica,sans-Serif" font-size="10.00">HF::SpatialStructures</text>
<text text-anchor="middle" x="276" y="-428.5" font-family="Helvetica,sans-Serif" font-size="10.00">::Graph::addEdge</text>
</a>
</g>
</g>
<!-- Node1&#45;&gt;Node2 -->
<g id="edge1" class="edge">
<title>Node1&#45;&gt;Node2</title>
<path fill="none" stroke="midnightblue" d="M92.47,-271.16C109.26,-305.53 147.48,-374.41 200,-412.5 202.33,-414.19 204.79,-415.77 207.34,-417.24"/>
<polygon fill="midnightblue" stroke="midnightblue" points="205.79,-420.38 216.29,-421.83 208.98,-414.15 205.79,-420.38"/>
</g>
<!-- Node3 -->
<g id="node3" class="node">
<title>Node3</title>
<g id="a_node3"><a xlink:href="a00397.html#a58892abe1152c28d26d3ca749c99ea4d" target="_top" xlink:title="Cast an array of 3 values to the graph_generator&#39;s real_3 type.">
<polygon fill="white" stroke="black" points="219.5,-372.5 219.5,-402.5 332.5,-402.5 332.5,-372.5 219.5,-372.5"/>
<text text-anchor="start" x="227.5" y="-390.5" font-family="Helvetica,sans-Serif" font-size="10.00">HF::GraphGenerator</text>
<text text-anchor="middle" x="276" y="-379.5" font-family="Helvetica,sans-Serif" font-size="10.00">::CastToReal3</text>
</a>
</g>
</g>
<!-- Node1&#45;&gt;Node3 -->
<g id="edge2" class="edge">
<title>Node1&#45;&gt;Node3</title>
<path fill="none" stroke="midnightblue" d="M99.42,-271.4C120.27,-296.63 158.55,-338.72 200,-363.5 203.18,-365.4 206.53,-367.17 209.97,-368.81"/>
<polygon fill="midnightblue" stroke="midnightblue" points="208.69,-372.07 219.26,-372.86 211.49,-365.65 208.69,-372.07"/>
</g>
<!-- Node5 -->
<g id="node5" class="node">
<title>Node5</title>
<g id="a_node5"><a xlink:href="a00397.html#aefd344ebb2faadc64a56a16dc8582026" target="_top" xlink:title="Create a set of directions based on max_step_connections.">
<polygon fill="white" stroke="black" points="219.5,-323.5 219.5,-353.5 332.5,-353.5 332.5,-323.5 219.5,-323.5"/>
<text text-anchor="start" x="227.5" y="-341.5" font-family="Helvetica,sans-Serif" font-size="10.00">HF::GraphGenerator</text>
<text text-anchor="middle" x="276" y="-330.5" font-family="Helvetica,sans-Serif" font-size="10.00">::CreateDirecs</text>
</a>
</g>
</g>
<!-- Node1&#45;&gt;Node5 -->
<g id="edge4" class="edge">
<title>Node1&#45;&gt;Node5</title>
<path fill="none" stroke="midnightblue" d="M122.43,-271.02C144.94,-282.5 173.82,-296.8 200,-308.5 208.37,-312.24 217.35,-316.03 226.09,-319.59"/>
<polygon fill="midnightblue" stroke="midnightblue" points="224.86,-322.87 235.44,-323.36 227.47,-316.37 224.86,-322.87"/>
</g>
<!-- Node7 -->
<g id="node7" class="node">
<title>Node7</title>
<g id="a_node7"><a xlink:href="a01261.html#ab659349de3391b0e2327f3736135752f" target="_top" xlink:title="Tell if the queue is empty.">
<polygon fill="white" stroke="black" points="213,-235.5 213,-265.5 339,-265.5 339,-235.5 213,-235.5"/>
<text text-anchor="start" x="221" y="-253.5" font-family="Helvetica,sans-Serif" font-size="10.00">HF::GraphGenerator</text>
<text text-anchor="middle" x="276" y="-242.5" font-family="Helvetica,sans-Serif" font-size="10.00">::UniqueQueue::empty</text>
</a>
</g>
</g>
<!-- Node1&#45;&gt;Node7 -->
<g id="edge6" class="edge">
<title>Node1&#45;&gt;Node7</title>
<path fill="none" stroke="midnightblue" d="M164.15,-250.5C176.86,-250.5 189.93,-250.5 202.43,-250.5"/>
<polygon fill="midnightblue" stroke="midnightblue" points="202.78,-254 212.78,-250.5 202.78,-247 202.78,-254"/>
</g>
<!-- Node8 -->
<g id="node8" class="node">
<title>Node8</title>
<g id="a_node8"><a xlink:href="a01261.html#a6d38edb96130bda3eb8126cc7501065f" target="_top" xlink:title="Determine how many nodes are currently in the queue.">
<polygon fill="white" stroke="black" points="388,-235.5 388,-265.5 502,-265.5 502,-235.5 388,-235.5"/>
<text text-anchor="start" x="396" y="-253.5" font-family="Helvetica,sans-Serif" font-size="10.00">HF::GraphGenerator</text>
<text text-anchor="middle" x="445" y="-242.5" font-family="Helvetica,sans-Serif" font-size="10.00">::UniqueQueue::size</text>
</a>
</g>
</g>
<!-- Node1&#45;&gt;Node8 -->
<g id="edge28" class="edge">
<title>Node1&#45;&gt;Node8</title>
<path fill="none" stroke="midnightblue" d="M164.16,-270.14C176.11,-272.36 188.33,-274.27 200,-275.5 267.18,-282.6 285.04,-284.44 352,-275.5 363.92,-273.91 376.48,-271.21 388.37,-268.15"/>
<polygon fill="midnightblue" stroke="midnightblue" points="389.41,-271.5 398.16,-265.52 387.59,-264.74 389.41,-271.5"/>
</g>
<!-- Node9 -->
<g id="node9" class="node">
<title>Node9</title>
<g id="a_node9"><a xlink:href="a00397.html#a41e03f9bab54e4e0d1314c6a4bdf2ec1" target="_top" xlink:title="Populare out_children with a potential child position for every direction in directions.">
<polygon fill="white" stroke="black" points="200,-186.5 200,-216.5 352,-216.5 352,-186.5 200,-186.5"/>
<text text-anchor="start" x="208" y="-204.5" font-family="Helvetica,sans-Serif" font-size="10.00">HF::GraphGenerator</text>
<text text-anchor="middle" x="276" y="-193.5" font-family="Helvetica,sans-Serif" font-size="10.00">::GeneratePotentialChildren</text>
</a>
</g>
</g>
<!-- Node1&#45;&gt;Node9 -->
<g id="edge8" class="edge">
<title>Node1&#45;&gt;Node9</title>
<path fill="none" stroke="midnightblue" d="M163.59,-229.93C177.79,-226.31 192.46,-222.56 206.3,-219.03"/>
<polygon fill="midnightblue" stroke="midnightblue" points="207.39,-222.37 216.21,-216.5 205.66,-215.58 207.39,-222.37"/>
</g>
<!-- Node10 -->
<g id="node10" class="node">
<title>Node10</title>
<g id="a_node10"><a xlink:href="a00397.html#ab7ffcc7d6657ce276c06deed24c546a4" target="_top" xlink:title="Calculate all possible edges between parent and possible_children.">
<polygon fill="white" stroke="black" points="219.5,-88.5 219.5,-118.5 332.5,-118.5 332.5,-88.5 219.5,-88.5"/>
<text text-anchor="start" x="227.5" y="-106.5" font-family="Helvetica,sans-Serif" font-size="10.00">HF::GraphGenerator</text>
<text text-anchor="middle" x="276" y="-95.5" font-family="Helvetica,sans-Serif" font-size="10.00">::GetChildren</text>
</a>
</g>
</g>
<!-- Node1&#45;&gt;Node10 -->
<g id="edge9" class="edge">
<title>Node1&#45;&gt;Node10</title>
<path fill="none" stroke="midnightblue" d="M97.69,-229.83C117.86,-202.88 156.6,-155.96 200,-128.5 203.3,-126.41 206.79,-124.48 210.39,-122.7"/>
<polygon fill="midnightblue" stroke="midnightblue" points="211.86,-125.88 219.52,-118.56 208.96,-119.5 211.86,-125.88"/>
</g>
<!-- Node24 -->
<g id="node24" class="node">
<title>Node24</title>
<g id="a_node24"><a xlink:href="a01261.html#ae941f357ddbefc3b670c43ce2d90b589" target="_top" xlink:title="Pop a set amount of nodes from the queue, and return them as a vector.">
<polygon fill="white" stroke="black" points="206,-137.5 206,-167.5 346,-167.5 346,-137.5 206,-137.5"/>
<text text-anchor="start" x="214" y="-155.5" font-family="Helvetica,sans-Serif" font-size="10.00">HF::GraphGenerator</text>
<text text-anchor="middle" x="276" y="-144.5" font-family="Helvetica,sans-Serif" font-size="10.00">::UniqueQueue::popMany</text>
</a>
</g>
</g>
<!-- Node1&#45;&gt;Node24 -->
<g id="edge24" class="edge">
<title>Node1&#45;&gt;Node24</title>
<path fill="none" stroke="midnightblue" d="M111.72,-229.89C134.76,-214.03 168.37,-192.38 200,-177.5 204.69,-175.29 209.63,-173.19 214.65,-171.21"/>
<polygon fill="midnightblue" stroke="midnightblue" points="216.21,-174.37 224.33,-167.57 213.74,-167.82 216.21,-174.37"/>
</g>
<!-- Node26 -->
<g id="node26" class="node">
<title>Node26</title>
<g id="a_node26"><a xlink:href="a01261.html#ae0dc637a2d7c3aae32d8f035ac6b8016" target="_top" xlink:title="Add a node to the queue if it has never previously been in the queue.">
<polygon fill="white" stroke="black" points="217,-39.5 217,-69.5 335,-69.5 335,-39.5 217,-39.5"/>
<text text-anchor="start" x="225" y="-57.5" font-family="Helvetica,sans-Serif" font-size="10.00">HF::GraphGenerator</text>
<text text-anchor="middle" x="276" y="-46.5" font-family="Helvetica,sans-Serif" font-size="10.00">::UniqueQueue::push</text>
</a>
</g>
</g>
<!-- Node1&#45;&gt;Node26 -->
<g id="edge27" class="edge">
<title>Node1&#45;&gt;Node26</title>
<path fill="none" stroke="midnightblue" d="M91.61,-229.72C107.6,-193.63 145.32,-119.35 200,-78.5 202.49,-76.64 205.14,-74.92 207.88,-73.33"/>
<polygon fill="midnightblue" stroke="midnightblue" points="209.65,-76.36 216.95,-68.68 206.45,-70.13 209.65,-76.36"/>
</g>
<!-- Node4 -->
<g id="node4" class="node">
<title>Node4</title>
<g id="a_node4"><a xlink:href="a00397.html#a73b53db067a504d36e9481dfe3326b60" target="_top" xlink:title="Cast an input value to real_t using static cast.">
<polygon fill="white" stroke="black" points="388.5,-372.5 388.5,-402.5 501.5,-402.5 501.5,-372.5 388.5,-372.5"/>
<text text-anchor="start" x="396.5" y="-390.5" font-family="Helvetica,sans-Serif" font-size="10.00">HF::GraphGenerator</text>
<text text-anchor="middle" x="445" y="-379.5" font-family="Helvetica,sans-Serif" font-size="10.00">::CastToReal</text>
</a>
</g>
</g>
<!-- Node3&#45;&gt;Node4 -->
<g id="edge3" class="edge">
<title>Node3&#45;&gt;Node4</title>
<path fill="none" stroke="midnightblue" d="M332.61,-387.5C347.18,-387.5 363.03,-387.5 378.08,-387.5"/>
<polygon fill="midnightblue" stroke="midnightblue" points="378.35,-391 388.35,-387.5 378.35,-384 378.35,-391"/>
</g>
<!-- Node6 -->
<g id="node6" class="node">
<title>Node6</title>
<g id="a_node6"><a xlink:href="a00397.html#afe5670b4cb780fd3ccf2a0d72a2e3c2e" target="_top" xlink:title="Calculate P(n,r) as an array with each unique permutaton of 2 values being a pair.">
<polygon fill="white" stroke="black" points="388.5,-323.5 388.5,-353.5 501.5,-353.5 501.5,-323.5 388.5,-323.5"/>
<text text-anchor="start" x="396.5" y="-341.5" font-family="Helvetica,sans-Serif" font-size="10.00">HF::GraphGenerator</text>
<text text-anchor="middle" x="445" y="-330.5" font-family="Helvetica,sans-Serif" font-size="10.00">::permutations</text>
</a>
</g>
</g>
<!-- Node5&#45;&gt;Node6 -->
<g id="edge5" class="edge">
<title>Node5&#45;&gt;Node6</title>
<path fill="none" stroke="midnightblue" d="M332.61,-338.5C347.18,-338.5 363.03,-338.5 378.08,-338.5"/>
<polygon fill="midnightblue" stroke="midnightblue" points="378.35,-342 388.35,-338.5 378.35,-335 378.35,-342"/>
</g>
<!-- Node7&#45;&gt;Node8 -->
<g id="edge7" class="edge">
<title>Node7&#45;&gt;Node8</title>
<path fill="none" stroke="midnightblue" d="M339.18,-250.5C351.77,-250.5 365.05,-250.5 377.77,-250.5"/>
<polygon fill="midnightblue" stroke="midnightblue" points="377.83,-254 387.83,-250.5 377.83,-247 377.83,-254"/>
</g>
<!-- Node11 -->
<g id="node11" class="node">
<title>Node11</title>
<g id="a_node11"><a xlink:href="a00397.html#a4b7cc0ad0002975404acef5064f4f546" target="_top" xlink:title="Determine whether children are over valid ground, and and meet upstep/downstep requirements.">
<polygon fill="white" stroke="black" points="388.5,-137.5 388.5,-167.5 501.5,-167.5 501.5,-137.5 388.5,-137.5"/>
<text text-anchor="start" x="396.5" y="-155.5" font-family="Helvetica,sans-Serif" font-size="10.00">HF::GraphGenerator</text>
<text text-anchor="middle" x="445" y="-144.5" font-family="Helvetica,sans-Serif" font-size="10.00">::CheckChildren</text>
</a>
</g>
</g>
<!-- Node10&#45;&gt;Node11 -->
<g id="edge10" class="edge">
<title>Node10&#45;&gt;Node11</title>
<path fill="none" stroke="midnightblue" d="M328.47,-118.6C345.69,-123.66 365.06,-129.34 382.94,-134.58"/>
<polygon fill="midnightblue" stroke="midnightblue" points="382.12,-137.99 392.7,-137.45 384.09,-131.27 382.12,-137.99"/>
</g>
<!-- Node18 -->
<g id="node18" class="node">
<title>Node18</title>
<g id="a_node18"><a xlink:href="a00397.html#aeab1db37b5aa614235f109d5dd9711a9" target="_top" xlink:title="Determine what kind of step (if any) is between parent and child.">
<polygon fill="white" stroke="black" points="388.5,-88.5 388.5,-118.5 501.5,-118.5 501.5,-88.5 388.5,-88.5"/>
<text text-anchor="start" x="396.5" y="-106.5" font-family="Helvetica,sans-Serif" font-size="10.00">HF::GraphGenerator</text>
<text text-anchor="middle" x="445" y="-95.5" font-family="Helvetica,sans-Serif" font-size="10.00">::CheckConnection</text>
</a>
</g>
</g>
<!-- Node10&#45;&gt;Node18 -->
<g id="edge17" class="edge">
<title>Node10&#45;&gt;Node18</title>
<path fill="none" stroke="midnightblue" d="M332.61,-103.5C347.18,-103.5 363.03,-103.5 378.08,-103.5"/>
<polygon fill="midnightblue" stroke="midnightblue" points="378.35,-107 388.35,-103.5 378.35,-100 378.35,-107"/>
</g>
<!-- Node21 -->
<g id="node21" class="node">
<title>Node21</title>
<g id="a_node21"><a xlink:href="a00397.html#a7f96186b8f24f878404d1feccf2f64db" target="_top" xlink:title="Calculate the distance between two nodes.">
<polygon fill="white" stroke="black" points="696.5,-41.5 696.5,-71.5 809.5,-71.5 809.5,-41.5 696.5,-41.5"/>
<text text-anchor="start" x="704.5" y="-59.5" font-family="Helvetica,sans-Serif" font-size="10.00">HF::GraphGenerator</text>
<text text-anchor="middle" x="753" y="-48.5" font-family="Helvetica,sans-Serif" font-size="10.00">::DistanceTo</text>
</a>
</g>
</g>
<!-- Node10&#45;&gt;Node21 -->
<g id="edge22" class="edge">
<title>Node10&#45;&gt;Node21</title>
<path fill="none" stroke="midnightblue" d="M332.57,-89.14C350.19,-85.09 369.81,-81.08 388,-78.5 491.36,-63.83 612.58,-58.93 685.78,-57.3"/>
<polygon fill="midnightblue" stroke="midnightblue" points="686.29,-60.79 696.22,-57.09 686.15,-53.8 686.29,-60.79"/>
</g>
<!-- Node23 -->
<g id="node23" class="node">
<title>Node23</title>
<g id="a_node23"><a xlink:href="a00397.html#abf1a3ae7dc89b3cf430e059a87fcd477" target="_top" xlink:title="Convert a point_type to a node.">
<polygon fill="white" stroke="black" points="388.5,-0.5 388.5,-30.5 501.5,-30.5 501.5,-0.5 388.5,-0.5"/>
<text text-anchor="start" x="396.5" y="-18.5" font-family="Helvetica,sans-Serif" font-size="10.00">HF::GraphGenerator</text>
<text text-anchor="middle" x="445" y="-7.5" font-family="Helvetica,sans-Serif" font-size="10.00">::ToNode</text>
</a>
</g>
</g>
<!-- Node10&#45;&gt;Node23 -->
<g id="edge23" class="edge">
<title>Node10&#45;&gt;Node23</title>
<path fill="none" stroke="midnightblue" d="M331.46,-88.39C338.58,-85.54 345.61,-82.26 352,-78.5 370.71,-67.49 370.3,-58.06 388,-45.5 392.9,-42.03 398.25,-38.67 403.63,-35.54"/>
<polygon fill="midnightblue" stroke="midnightblue" points="405.63,-38.44 412.66,-30.51 402.22,-32.33 405.63,-38.44"/>
</g>
<!-- Node12 -->
<g id="node12" class="node">
<title>Node12</title>
<g id="a_node12"><a xlink:href="a00397.html#a74be560268a713fc9e9b8b4a453afa2f" target="_top" xlink:title="Cast a ray and get the point of intersection if it connects.">
<polygon fill="white" stroke="black" points="538,-188.5 538,-218.5 651,-218.5 651,-188.5 538,-188.5"/>
<text text-anchor="start" x="546" y="-206.5" font-family="Helvetica,sans-Serif" font-size="10.00">HF::GraphGenerator</text>
<text text-anchor="middle" x="594.5" y="-195.5" font-family="Helvetica,sans-Serif" font-size="10.00">::CheckRay</text>
</a>
</g>
</g>
<!-- Node11&#45;&gt;Node12 -->
<g id="edge11" class="edge">
<title>Node11&#45;&gt;Node12</title>
<path fill="none" stroke="midnightblue" d="M489.46,-167.53C505.44,-173.05 523.72,-179.37 540.45,-185.16"/>
<polygon fill="midnightblue" stroke="midnightblue" points="539.5,-188.53 550.1,-188.49 541.79,-181.92 539.5,-188.53"/>
</g>
<!-- Node13 -->
<g id="node13" class="node">
<title>Node13</title>
<g id="a_node13"><a xlink:href="a00397.html#ab731d597ee2a843f7b7cb1ccbae67782" target="_top" xlink:title="Determine if a hit is against the geometry type specified.">
<polygon fill="white" stroke="black" points="696.5,-188.5 696.5,-218.5 809.5,-218.5 809.5,-188.5 696.5,-188.5"/>
<text text-anchor="start" x="704.5" y="-206.5" font-family="Helvetica,sans-Serif" font-size="10.00">HF::GraphGenerator</text>
<text text-anchor="middle" x="753" y="-195.5" font-family="Helvetica,sans-Serif" font-size="10.00">::CheckGeometryID</text>
</a>
</g>
</g>
<!-- Node12&#45;&gt;Node13 -->
<g id="edge12" class="edge">
<title>Node12&#45;&gt;Node13</title>
<path fill="none" stroke="midnightblue" d="M651.12,-203.5C662.46,-203.5 674.51,-203.5 686.17,-203.5"/>
<polygon fill="midnightblue" stroke="midnightblue" points="686.3,-207 696.3,-203.5 686.3,-200 686.3,-207"/>
</g>
<!-- Node14 -->
<g id="node14" class="node">
<title>Node14</title>
<g id="a_node14"><a xlink:href="a01361.html#a3d86c2c8d8e0ec6bf63a653ec89807a8" target="_top" xlink:title="Determine whether or not this hitstruct contains a hit.">
<polygon fill="white" stroke="black" points="687,-139.5 687,-169.5 819,-169.5 819,-139.5 687,-139.5"/>
<text text-anchor="start" x="695" y="-157.5" font-family="Helvetica,sans-Serif" font-size="10.00">HF::RayTracer::HitStruct</text>
<text text-anchor="middle" x="753" y="-146.5" font-family="Helvetica,sans-Serif" font-size="10.00">::DidHit</text>
</a>
</g>
</g>
<!-- Node12&#45;&gt;Node14 -->
<g id="edge13" class="edge">
<title>Node12&#45;&gt;Node14</title>
<path fill="none" stroke="midnightblue" d="M643.73,-188.4C659.72,-183.39 677.69,-177.77 694.32,-172.56"/>
<polygon fill="midnightblue" stroke="midnightblue" points="695.43,-175.88 703.93,-169.55 693.34,-169.2 695.43,-175.88"/>
</g>
<!-- Node16 -->
<g id="node16" class="node">
<title>Node16</title>
<g id="a_node16"><a xlink:href="a01365.html#a7ee672618f7fe9ce6938978d93d18514" target="_top" xlink:title=" ">
<polygon fill="white" stroke="black" points="690,-286.5 690,-316.5 816,-316.5 816,-286.5 690,-286.5"/>
<text text-anchor="start" x="698" y="-304.5" font-family="Helvetica,sans-Serif" font-size="10.00">HF::RayTracer::MultiRT</text>
<text text-anchor="middle" x="753" y="-293.5" font-family="Helvetica,sans-Serif" font-size="10.00">::Intersect</text>
</a>
</g>
</g>
<!-- Node12&#45;&gt;Node16 -->
<g id="edge15" class="edge">
<title>Node12&#45;&gt;Node16</title>
<path fill="none" stroke="midnightblue" d="M610.86,-218.59C628.15,-234.92 657.69,-260.84 687,-277.5 689.88,-279.13 692.88,-280.7 695.96,-282.18"/>
<polygon fill="midnightblue" stroke="midnightblue" points="694.79,-285.49 705.35,-286.39 697.66,-279.1 694.79,-285.49"/>
</g>
<!-- Node17 -->
<g id="node17" class="node">
<title>Node17</title>
<g id="a_node17"><a xlink:href="a00397.html#a5ad3e8fac4a21eee744f3633f7a3692f" target="_top" xlink:title="Move a node in direction by dist units.">
<polygon fill="white" stroke="black" points="696.5,-237.5 696.5,-267.5 809.5,-267.5 809.5,-237.5 696.5,-237.5"/>
<text text-anchor="start" x="704.5" y="-255.5" font-family="Helvetica,sans-Serif" font-size="10.00">HF::GraphGenerator</text>
<text text-anchor="middle" x="753" y="-244.5" font-family="Helvetica,sans-Serif" font-size="10.00">::MoveNode</text>
</a>
</g>
</g>
<!-- Node12&#45;&gt;Node17 -->
<g id="edge16" class="edge">
<title>Node12&#45;&gt;Node17</title>
<path fill="none" stroke="midnightblue" d="M643.73,-218.6C659.72,-223.61 677.69,-229.23 694.32,-234.44"/>
<polygon fill="midnightblue" stroke="midnightblue" points="693.34,-237.8 703.93,-237.45 695.43,-231.12 693.34,-237.8"/>
</g>
<!-- Node15 -->
<g id="node15" class="node">
<title>Node15</title>
<g id="a_node15"><a xlink:href="a00398.html#a2630761a64fac02a4ee33abaf5c885a1" target="_top" xlink:title=" ">
<polygon fill="white" stroke="black" points="855,-145 855,-164 1004,-164 1004,-145 855,-145"/>
<text text-anchor="middle" x="929.5" y="-152" font-family="Helvetica,sans-Serif" font-size="10.00">HF::RayTracer::DidIntersect</text>
</a>
</g>
</g>
<!-- Node14&#45;&gt;Node15 -->
<g id="edge14" class="edge">
<title>Node14&#45;&gt;Node15</title>
<path fill="none" stroke="midnightblue" d="M819.47,-154.5C827.66,-154.5 836.11,-154.5 844.52,-154.5"/>
<polygon fill="midnightblue" stroke="midnightblue" points="844.75,-158 854.75,-154.5 844.75,-151 844.75,-158"/>
</g>
<!-- Node19 -->
<g id="node19" class="node">
<title>Node19</title>
<g id="a_node19"><a xlink:href="a00397.html#a9daa85cb56a1b18d44f46aa9c420afde" target="_top" xlink:title="Determine if the slope between parent and child is traversable according to the graph parameters.">
<polygon fill="white" stroke="black" points="538,-137.5 538,-167.5 651,-167.5 651,-137.5 538,-137.5"/>
<text text-anchor="start" x="546" y="-155.5" font-family="Helvetica,sans-Serif" font-size="10.00">HF::GraphGenerator</text>
<text text-anchor="middle" x="594.5" y="-144.5" font-family="Helvetica,sans-Serif" font-size="10.00">::CheckSlope</text>
</a>
</g>
</g>
<!-- Node18&#45;&gt;Node19 -->
<g id="edge18" class="edge">
<title>Node18&#45;&gt;Node19</title>
<path fill="none" stroke="midnightblue" d="M491.46,-118.6C506.39,-123.56 523.14,-129.13 538.69,-134.29"/>
<polygon fill="midnightblue" stroke="midnightblue" points="537.6,-137.62 548.19,-137.45 539.81,-130.97 537.6,-137.62"/>
</g>
<!-- Node20 -->
<g id="node20" class="node">
<title>Node20</title>
<g id="a_node20"><a xlink:href="a00397.html#ace66c1b60785c32433402f012019ab81" target="_top" xlink:title="Determine if there is a valid line of sight between parent and child.">
<polygon fill="white" stroke="black" points="538,-88.5 538,-118.5 651,-118.5 651,-88.5 538,-88.5"/>
<text text-anchor="start" x="546" y="-106.5" font-family="Helvetica,sans-Serif" font-size="10.00">HF::GraphGenerator</text>
<text text-anchor="middle" x="594.5" y="-95.5" font-family="Helvetica,sans-Serif" font-size="10.00">::OcclusionCheck</text>
</a>
</g>
</g>
<!-- Node18&#45;&gt;Node20 -->
<g id="edge19" class="edge">
<title>Node18&#45;&gt;Node20</title>
<path fill="none" stroke="midnightblue" d="M501.76,-103.5C510.21,-103.5 518.99,-103.5 527.62,-103.5"/>
<polygon fill="midnightblue" stroke="midnightblue" points="527.66,-107 537.66,-103.5 527.66,-100 527.66,-107"/>
</g>
<!-- Node20&#45;&gt;Node21 -->
<g id="edge20" class="edge">
<title>Node20&#45;&gt;Node21</title>
<path fill="none" stroke="midnightblue" d="M645.45,-88.5C660.27,-84.05 676.66,-79.13 692.05,-74.5"/>
<polygon fill="midnightblue" stroke="midnightblue" points="693.42,-77.75 701.99,-71.52 691.41,-71.04 693.42,-77.75"/>
</g>
<!-- Node22 -->
<g id="node22" class="node">
<title>Node22</title>
<g id="a_node22"><a xlink:href="a01365.html#a22ebf97e859ef651e81deb40b74f668f" target="_top" xlink:title=" ">
<polygon fill="white" stroke="black" points="690,-90.5 690,-120.5 816,-120.5 816,-90.5 690,-90.5"/>
<text text-anchor="start" x="698" y="-108.5" font-family="Helvetica,sans-Serif" font-size="10.00">HF::RayTracer::MultiRT</text>
<text text-anchor="middle" x="753" y="-97.5" font-family="Helvetica,sans-Serif" font-size="10.00">::Occluded</text>
</a>
</g>
</g>
<!-- Node20&#45;&gt;Node22 -->
<g id="edge21" class="edge">
<title>Node20&#45;&gt;Node22</title>
<path fill="none" stroke="midnightblue" d="M651.12,-104.21C660.44,-104.33 670.23,-104.46 679.9,-104.58"/>
<polygon fill="midnightblue" stroke="midnightblue" points="679.86,-108.08 689.91,-104.71 679.95,-101.08 679.86,-108.08"/>
</g>
<!-- Node24&#45;&gt;Node8 -->
<g id="edge26" class="edge">
<title>Node24&#45;&gt;Node8</title>
<path fill="none" stroke="midnightblue" d="M334.53,-167.51C340.71,-170.32 346.67,-173.62 352,-177.5 373.84,-193.41 366.84,-209.7 388,-226.5 389.58,-227.76 391.24,-228.96 392.96,-230.11"/>
<polygon fill="midnightblue" stroke="midnightblue" points="391.53,-233.33 401.91,-235.43 395.1,-227.31 391.53,-233.33"/>
</g>
<!-- Node25 -->
<g id="node25" class="node">
<title>Node25</title>
<g id="a_node25"><a xlink:href="a01261.html#a4aab642bf2c86a04f6890711ab7f2437" target="_top" xlink:title="Remove the topmost node from the queue and return it.">
<polygon fill="white" stroke="black" points="388.5,-186.5 388.5,-216.5 501.5,-216.5 501.5,-186.5 388.5,-186.5"/>
<text text-anchor="start" x="396.5" y="-204.5" font-family="Helvetica,sans-Serif" font-size="10.00">HF::GraphGenerator</text>
<text text-anchor="middle" x="445" y="-193.5" font-family="Helvetica,sans-Serif" font-size="10.00">::UniqueQueue::pop</text>
</a>
</g>
</g>
<!-- Node24&#45;&gt;Node25 -->
<g id="edge25" class="edge">
<title>Node24&#45;&gt;Node25</title>
<path fill="none" stroke="midnightblue" d="M328.47,-167.6C345.69,-172.66 365.06,-178.34 382.94,-183.58"/>
<polygon fill="midnightblue" stroke="midnightblue" points="382.12,-186.99 392.7,-186.45 384.09,-180.27 382.12,-186.99"/>
</g>
</g>
</svg>
