<?xml version="1.0" encoding="UTF-8" standalone="no"?>
<!DOCTYPE svg PUBLIC "-//W3C//DTD SVG 1.1//EN"
 "http://www.w3.org/Graphics/SVG/1.1/DTD/svg11.dtd">
<!-- Generated by graphviz version 4.0.0 (20220529.0937)
 -->
<!-- Title: HF::Geometry::MeshInfo::operator== Pages: 1 -->
<svg width="290pt" height="78pt"
 viewBox="0.00 0.00 290.00 77.50" xmlns="http://www.w3.org/2000/svg" xmlns:xlink="http://www.w3.org/1999/xlink">
<g id="graph0" class="graph" transform="scale(1 1) rotate(0) translate(4 73.5)">
<title>HF::Geometry::MeshInfo::operator==</title>
<polygon fill="white" stroke="transparent" points="-4,4 -4,-73.5 286,-73.5 286,4 -4,4"/>
<!-- Node1 -->
<g id="node1" class="node">
<title>Node1</title>
<g id="a_node1"><a xlink:title="Compare the vertices of two MeshInfo objects.">
<polygon fill="#bfbfbf" stroke="black" points="0,-22.5 0,-52.5 123,-52.5 123,-22.5 0,-22.5"/>
<text text-anchor="start" x="8" y="-40.5" font-family="Helvetica,sans-Serif" font-size="10.00">HF::Geometry::MeshInfo</text>
<text text-anchor="middle" x="61.5" y="-29.5" font-family="Helvetica,sans-Serif" font-size="10.00">::operator==</text>
</a>
</g>
</g>
<!-- Node2 -->
<g id="node2" class="node">
<title>Node2</title>
<g id="a_node2"><a xlink:href="a00403.html#aa99106d1e4908e4385773774fb482b4f" target="_top" xlink:title="Calculate the distance between from and to.">
<polygon fill="white" stroke="black" points="159,-50 159,-69 282,-69 282,-50 159,-50"/>
<text text-anchor="middle" x="220.5" y="-57" font-family="Helvetica,sans-Serif" font-size="10.00">HF::Geometry::arrayDist</text>
</a>
</g>
</g>
<!-- Node1&#45;&gt;Node2 -->
<g id="edge1" class="edge">
<title>Node1&#45;&gt;Node2</title>
<path fill="none" stroke="midnightblue" d="M123.2,-46.01C131.64,-47.19 140.36,-48.41 148.95,-49.61"/>
<polygon fill="midnightblue" stroke="midnightblue" points="148.57,-53.1 158.96,-51.02 149.54,-46.16 148.57,-53.1"/>
</g>
<!-- Node3 -->
<g id="node3" class="node">
<title>Node3</title>
<g id="a_node3"><a xlink:href="a01285.html#a70a6f6b9270d47e0b8428cdc15b707d3" target="_top" xlink:title="Determine how many vertices are in this mesh.">
<polygon fill="white" stroke="black" points="159,-0.5 159,-30.5 282,-30.5 282,-0.5 159,-0.5"/>
<text text-anchor="start" x="167" y="-18.5" font-family="Helvetica,sans-Serif" font-size="10.00">HF::Geometry::MeshInfo</text>
<text text-anchor="middle" x="220.5" y="-7.5" font-family="Helvetica,sans-Serif" font-size="10.00">::NumVerts</text>
</a>
</g>
</g>
<!-- Node1&#45;&gt;Node3 -->
<g id="edge2" class="edge">
<title>Node1&#45;&gt;Node3</title>
<path fill="none" stroke="midnightblue" d="M123.2,-28.99C131.64,-27.81 140.36,-26.59 148.95,-25.39"/>
<polygon fill="midnightblue" stroke="midnightblue" points="149.54,-28.84 158.96,-23.98 148.57,-21.9 149.54,-28.84"/>
</g>
</g>
</svg>
