<?xml version="1.0" encoding="UTF-8" standalone="no"?>
<!DOCTYPE svg PUBLIC "-//W3C//DTD SVG 1.1//EN"
 "http://www.w3.org/Graphics/SVG/1.1/DTD/svg11.dtd">
<!-- Generated by graphviz version 2.43.0 (0)
 -->
<!-- Title: HF::GraphGenerator::GeometryFlagMap::SetGeometryIds Pages: 1 -->
<svg width="413pt" height="100pt"
 viewBox="0.00 0.00 413.00 99.50" xmlns="http://www.w3.org/2000/svg" xmlns:xlink="http://www.w3.org/1999/xlink">
<g id="graph0" class="graph" transform="scale(1 1) rotate(0) translate(4 95.5)">
<title>HF::GraphGenerator::GeometryFlagMap::SetGeometryIds</title>
<polygon fill="white" stroke="transparent" points="-4,4 -4,-95.5 409,-95.5 409,4 -4,4"/>
<!-- Node1 -->
<g id="node1" class="node">
<title>Node1</title>
<g id="a_node1"><a xlink:title="Set geometry ids as being walkable or obstacles.">
<polygon fill="#bfbfbf" stroke="black" points="0,-27.5 0,-57.5 198,-57.5 198,-27.5 0,-27.5"/>
<text text-anchor="start" x="8" y="-45.5" font-family="Helvetica,sans-Serif" font-size="10.00">HF::GraphGenerator</text>
<text text-anchor="middle" x="99" y="-34.5" font-family="Helvetica,sans-Serif" font-size="10.00">::GeometryFlagMap::SetGeometryIds</text>
</a>
</g>
</g>
<!-- Node2 -->
<g id="node2" class="node">
<title>Node2</title>
<g id="a_node2"><a xlink:href="a01245.html#aa6023b7a8de09fb747bd049938f1e5b8" target="_top" xlink:title="Set the filter mode of this GeometryFlagMap based on the input types.">
<polygon fill="white" stroke="black" points="234,-50 234,-91 405,-91 405,-50 234,-50"/>
<text text-anchor="start" x="242" y="-79" font-family="Helvetica,sans-Serif" font-size="10.00">HF::GraphGenerator</text>
<text text-anchor="start" x="242" y="-68" font-family="Helvetica,sans-Serif" font-size="10.00">::GeometryFlagMap::Determine</text>
<text text-anchor="middle" x="319.5" y="-57" font-family="Helvetica,sans-Serif" font-size="10.00">FilterMode</text>
</a>
</g>
</g>
<!-- Node1&#45;&gt;Node2 -->
<g id="edge1" class="edge">
<title>Node1&#45;&gt;Node2</title>
<path fill="none" stroke="midnightblue" d="M198.07,-55.07C206.63,-56.16 215.28,-57.27 223.82,-58.37"/>
<polygon fill="midnightblue" stroke="midnightblue" points="223.4,-61.84 233.77,-59.64 224.29,-54.9 223.4,-61.84"/>
</g>
<!-- Node3 -->
<g id="node3" class="node">
<title>Node3</title>
<g id="a_node3"><a xlink:href="a01245.html#ac9dab2d023f758ccf718d1e7c8f98e31" target="_top" xlink:title="Set the value of a key in the internal dictionary.">
<polygon fill="white" stroke="black" points="252,-0.5 252,-30.5 387,-30.5 387,-0.5 252,-0.5"/>
<text text-anchor="start" x="260" y="-18.5" font-family="Helvetica,sans-Serif" font-size="10.00">HF::GraphGenerator</text>
<text text-anchor="middle" x="319.5" y="-7.5" font-family="Helvetica,sans-Serif" font-size="10.00">::GeometryFlagMap::Set</text>
</a>
</g>
</g>
<!-- Node1&#45;&gt;Node3 -->
<g id="edge2" class="edge">
<title>Node1&#45;&gt;Node3</title>
<path fill="none" stroke="midnightblue" d="M198.07,-30.38C212.67,-28.58 227.55,-26.74 241.63,-25"/>
<polygon fill="midnightblue" stroke="midnightblue" points="242.24,-28.45 251.74,-23.75 241.38,-21.5 242.24,-28.45"/>
</g>
</g>
</svg>
