<?xml version="1.0" encoding="UTF-8" standalone="no"?>
<!DOCTYPE svg PUBLIC "-//W3C//DTD SVG 1.1//EN"
 "http://www.w3.org/Graphics/SVG/1.1/DTD/svg11.dtd">
<!-- Generated by graphviz version 8.0.5 (20230430.1635)
 -->
<!-- Title: HF::GraphGenerator::GraphParams Pages: 1 -->
<svg width="347pt" height="308pt"
 viewBox="0.00 0.00 347.02 308.00" xmlns="http://www.w3.org/2000/svg" xmlns:xlink="http://www.w3.org/1999/xlink">
<g id="graph0" class="graph" transform="scale(1 1) rotate(0) translate(4 304)">
<title>HF::GraphGenerator::GraphParams</title>
<!-- Node1 -->
<g id="node1" class="node">
<title>Node1</title>
<g id="a_node1"><a xlink:title="Holds parameters for the GraphGenerator.">
<polygon fill="#999999" stroke="#666666" points="174.64,-32 70.89,-32 70.89,0 174.64,0 174.64,-32"/>
<text text-anchor="start" x="78.89" y="-18.5" font-family="Helvetica,sans-Serif" font-size="10.00">HF::GraphGenerator</text>
<text text-anchor="middle" x="122.77" y="-6.5" font-family="Helvetica,sans-Serif" font-size="10.00">::GraphParams</text>
</a>
</g>
</g>
<!-- Node2 -->
<g id="node2" class="node">
<title>Node2</title>
<g id="a_node2"><a xlink:href="a00001.html#a02073" target="_top" xlink:title=" ">
<polygon fill="white" stroke="#666666" points="80.02,-226 35.52,-226 35.52,-206 80.02,-206 80.02,-226"/>
<text text-anchor="middle" x="57.77" y="-212.5" font-family="Helvetica,sans-Serif" font-size="10.00">double</text>
</a>
</g>
</g>
<!-- Node2&#45;&gt;Node1 -->
<g id="edge1" class="edge">
<title>Node2&#45;&gt;Node1</title>
<path fill="none" stroke="#9a32cd" stroke-dasharray="5,2" d="M41.98,-197.66C19.79,-171.08 -15.46,-119.22 7.77,-80 21.46,-56.89 46.96,-41.7 70.48,-32.04"/>
<polygon fill="#9a32cd" stroke="#9a32cd" points="39.71,-199.38 48.9,-204.65 45,-194.8 39.71,-199.38"/>
<text text-anchor="middle" x="34.77" y="-118.5" font-family="Helvetica,sans-Serif" font-size="10.00"> down_slope</text>
<text text-anchor="middle" x="34.77" y="-106.5" font-family="Helvetica,sans-Serif" font-size="10.00">down_step</text>
<text text-anchor="middle" x="34.77" y="-94.5" font-family="Helvetica,sans-Serif" font-size="10.00">up_slope</text>
<text text-anchor="middle" x="34.77" y="-82.5" font-family="Helvetica,sans-Serif" font-size="10.00">up_step</text>
</g>
<!-- Node3 -->
<g id="node3" class="node">
<title>Node3</title>
<g id="a_node3"><a xlink:href="a00397.html#a01229" target="_top" xlink:title="Various parameters to set the precision of certain parts of the graph generator.">
<polygon fill="white" stroke="#666666" points="174.64,-120 70.89,-120 70.89,-88 174.64,-88 174.64,-120"/>
<text text-anchor="start" x="78.89" y="-106.5" font-family="Helvetica,sans-Serif" font-size="10.00">HF::GraphGenerator</text>
<text text-anchor="middle" x="122.77" y="-94.5" font-family="Helvetica,sans-Serif" font-size="10.00">::Precision</text>
</a>
</g>
</g>
<!-- Node2&#45;&gt;Node3 -->
<g id="edge3" class="edge">
<title>Node2&#45;&gt;Node3</title>
<path fill="none" stroke="#9a32cd" stroke-dasharray="5,2" d="M66.37,-196.25C73.08,-182.13 82.93,-162.45 93.02,-146 98.44,-137.15 105.19,-127.75 110.88,-120.18"/>
<polygon fill="#9a32cd" stroke="#9a32cd" points="62.96,-194.28 61.9,-204.82 69.3,-197.25 62.96,-194.28"/>
<text text-anchor="middle" x="124.14" y="-172.5" font-family="Helvetica,sans-Serif" font-size="10.00"> ground_offset</text>
<text text-anchor="middle" x="124.14" y="-160.5" font-family="Helvetica,sans-Serif" font-size="10.00">node_spacing</text>
<text text-anchor="middle" x="124.14" y="-148.5" font-family="Helvetica,sans-Serif" font-size="10.00">node_z</text>
</g>
<!-- Node3&#45;&gt;Node1 -->
<g id="edge2" class="edge">
<title>Node3&#45;&gt;Node1</title>
<path fill="none" stroke="#9a32cd" stroke-dasharray="5,2" d="M122.77,-76.75C122.77,-62.17 122.77,-44.56 122.77,-32.24"/>
<polygon fill="#9a32cd" stroke="#9a32cd" points="119.27,-76.62 122.77,-86.62 126.27,-76.62 119.27,-76.62"/>
<text text-anchor="middle" x="143.77" y="-52.5" font-family="Helvetica,sans-Serif" font-size="10.00"> precision</text>
</g>
<!-- Node4 -->
<g id="node4" class="node">
<title>Node4</title>
<g id="a_node4"><a xlink:href="a01233.html" target="_top" xlink:title="Manages rules and ids for different types of geometry in the graph generator.">
<polygon fill="white" stroke="#666666" points="296.64,-120 192.89,-120 192.89,-88 296.64,-88 296.64,-120"/>
<text text-anchor="start" x="200.89" y="-106.5" font-family="Helvetica,sans-Serif" font-size="10.00">HF::GraphGenerator</text>
<text text-anchor="middle" x="244.77" y="-94.5" font-family="Helvetica,sans-Serif" font-size="10.00">::GeometryFlagMap</text>
</a>
</g>
</g>
<!-- Node4&#45;&gt;Node1 -->
<g id="edge4" class="edge">
<title>Node4&#45;&gt;Node1</title>
<path fill="none" stroke="#9a32cd" stroke-dasharray="5,2" d="M214.11,-81.39C192.39,-66.07 163.76,-45.9 144.39,-32.24"/>
<polygon fill="#9a32cd" stroke="#9a32cd" points="211.77,-84.72 221.96,-87.62 215.8,-79 211.77,-84.72"/>
<text text-anchor="middle" x="206.27" y="-52.5" font-family="Helvetica,sans-Serif" font-size="10.00"> geom_ids</text>
</g>
<!-- Node5 -->
<g id="node5" class="node">
<title>Node5</title>
<g id="a_node5"><a xlink:title=" ">
<polygon fill="white" stroke="#666666" points="216.89,-232 114.64,-232 114.64,-200 216.89,-200 216.89,-232"/>
<text text-anchor="start" x="122.64" y="-218.5" font-family="Helvetica,sans-Serif" font-size="10.00">std::unordered_map</text>
<text text-anchor="middle" x="165.77" y="-206.5" font-family="Helvetica,sans-Serif" font-size="10.00">&lt; int, HIT_FLAG &gt;</text>
</a>
</g>
</g>
<!-- Node5&#45;&gt;Node4 -->
<g id="edge5" class="edge">
<title>Node5&#45;&gt;Node4</title>
<path fill="none" stroke="#9a32cd" stroke-dasharray="5,2" d="M164.47,-188.91C164.99,-175.11 167.65,-158.5 176.02,-146 183.29,-135.15 194.49,-126.74 205.75,-120.44"/>
<polygon fill="#9a32cd" stroke="#9a32cd" points="160.96,-188.67 164.45,-198.68 167.96,-188.68 160.96,-188.67"/>
<text text-anchor="middle" x="217.64" y="-160.5" font-family="Helvetica,sans-Serif" font-size="10.00"> internal_dictionary</text>
</g>
<!-- Node6 -->
<g id="node6" class="node">
<title>Node6</title>
<g id="a_node6"><a xlink:title=" ">
<polygon fill="white" stroke="#666666" points="149.17,-300 120.37,-300 120.37,-280 149.17,-280 149.17,-300"/>
<text text-anchor="middle" x="134.77" y="-286.5" font-family="Helvetica,sans-Serif" font-size="10.00">int</text>
</a>
</g>
</g>
<!-- Node6&#45;&gt;Node5 -->
<g id="edge6" class="edge">
<title>Node6&#45;&gt;Node5</title>
<path fill="none" stroke="#9a32cd" stroke-dasharray="5,2" d="M143.14,-269.55C148.15,-257.91 154.44,-243.32 159.11,-232.47"/>
<polygon fill="#9a32cd" stroke="#9a32cd" points="139.56,-268.02 138.82,-278.59 145.99,-270.79 139.56,-268.02"/>
<text text-anchor="middle" x="163.77" y="-252.5" font-family="Helvetica,sans-Serif" font-size="10.00"> keys</text>
</g>
<!-- Node7 -->
<g id="node7" class="node">
<title>Node7</title>
<g id="a_node7"><a xlink:title=" ">
<polygon fill="white" stroke="#666666" points="228.27,-300 167.27,-300 167.27,-280 228.27,-280 228.27,-300"/>
<text text-anchor="middle" x="197.77" y="-286.5" font-family="Helvetica,sans-Serif" font-size="10.00">HIT_FLAG</text>
</a>
</g>
</g>
<!-- Node7&#45;&gt;Node5 -->
<g id="edge7" class="edge">
<title>Node7&#45;&gt;Node5</title>
<path fill="none" stroke="#9a32cd" stroke-dasharray="5,2" d="M189.13,-269.55C183.95,-257.91 177.47,-243.32 172.65,-232.47"/>
<polygon fill="#9a32cd" stroke="#9a32cd" points="186.33,-270.87 193.59,-278.59 192.72,-268.03 186.33,-270.87"/>
<text text-anchor="middle" x="207.14" y="-252.5" font-family="Helvetica,sans-Serif" font-size="10.00"> elements</text>
</g>
<!-- Node8 -->
<g id="node8" class="node">
<title>Node8</title>
<g id="a_node8"><a xlink:title=" ">
<polygon fill="white" stroke="#666666" points="339.02,-226 234.52,-226 234.52,-206 339.02,-206 339.02,-226"/>
<text text-anchor="middle" x="286.77" y="-212.5" font-family="Helvetica,sans-Serif" font-size="10.00">GeometryFilterMode</text>
</a>
</g>
</g>
<!-- Node8&#45;&gt;Node4 -->
<g id="edge8" class="edge">
<title>Node8&#45;&gt;Node4</title>
<path fill="none" stroke="#9a32cd" stroke-dasharray="5,2" d="M279.9,-195.3C275,-181.45 268.18,-162.52 261.77,-146 258.42,-137.38 254.48,-127.83 251.23,-120.12"/>
<polygon fill="#9a32cd" stroke="#9a32cd" points="276.89,-196.3 283.51,-204.57 283.5,-193.98 276.89,-196.3"/>
<text text-anchor="middle" x="289.27" y="-160.5" font-family="Helvetica,sans-Serif" font-size="10.00"> Mode</text>
</g>
</g>
</svg>
