<?xml version="1.0" encoding="UTF-8" standalone="no"?>
<!DOCTYPE svg PUBLIC "-//W3C//DTD SVG 1.1//EN"
 "http://www.w3.org/Graphics/SVG/1.1/DTD/svg11.dtd">
<!-- Generated by graphviz version 8.0.5 (20230430.1635)
 -->
<!-- Title: HF::GraphGenerator::GeometryFlagMap::SetGeometryIds Pages: 1 -->
<svg width="389pt" height="90pt"
 viewBox="0.00 0.00 388.75 90.00" xmlns="http://www.w3.org/2000/svg" xmlns:xlink="http://www.w3.org/1999/xlink">
<g id="graph0" class="graph" transform="scale(1 1) rotate(0) translate(4 86)">
<title>HF::GraphGenerator::GeometryFlagMap::SetGeometryIds</title>
<!-- Node1 -->
<g id="node1" class="node">
<title>Node1</title>
<g id="a_node1"><a xlink:title="Set geometry ids as being walkable or obstacles.">
<polygon fill="#999999" stroke="#666666" points="380.75,-57 202,-57 202,-25 380.75,-25 380.75,-57"/>
<text text-anchor="start" x="210" y="-43.5" font-family="Helvetica,sans-Serif" font-size="10.00">HF::GraphGenerator</text>
<text text-anchor="middle" x="291.38" y="-31.5" font-family="Helvetica,sans-Serif" font-size="10.00">::GeometryFlagMap::SetGeometryIds</text>
</a>
</g>
</g>
<!-- Node2 -->
<g id="node2" class="node">
<title>Node2</title>
<g id="a_node2"><a xlink:href="a01245.html#a804c4c9a8169aa9901cb32ee0f64c555" target="_top" xlink:title="Construct a new graph generator with a specific raytracer.">
<polygon fill="white" stroke="#666666" points="166,-82 0,-82 0,-50 166,-50 166,-82"/>
<text text-anchor="start" x="8" y="-68.5" font-family="Helvetica,sans-Serif" font-size="10.00">HF::GraphGenerator</text>
<text text-anchor="middle" x="83" y="-56.5" font-family="Helvetica,sans-Serif" font-size="10.00">::GraphGenerator::GraphGenerator</text>
</a>
</g>
</g>
<!-- Node1&#45;&gt;Node2 -->
<g id="edge1" class="edge">
<title>Node1&#45;&gt;Node2</title>
<path fill="none" stroke="#63b8ff" d="M190.92,-53.05C182.72,-54.04 174.5,-55.04 166.45,-56.01"/>
<polygon fill="#63b8ff" stroke="#63b8ff" points="191.15,-56.42 200.66,-51.75 190.31,-49.48 191.15,-56.42"/>
</g>
<!-- Node3 -->
<g id="node3" class="node">
<title>Node3</title>
<g id="a_node3"><a xlink:href="a00397.html#a124a96c53ed2021db9d819369fe6b7ad" target="_top" xlink:title="Converts the raytracer to a multiRT if required, then map geometry ids to hitflags.">
<polygon fill="white" stroke="#666666" points="134.88,-32 31.13,-32 31.13,0 134.88,0 134.88,-32"/>
<text text-anchor="start" x="39.13" y="-18.5" font-family="Helvetica,sans-Serif" font-size="10.00">HF::GraphGenerator</text>
<text text-anchor="middle" x="83" y="-6.5" font-family="Helvetica,sans-Serif" font-size="10.00">::setupRT</text>
</a>
</g>
</g>
<!-- Node1&#45;&gt;Node3 -->
<g id="edge2" class="edge">
<title>Node1&#45;&gt;Node3</title>
<path fill="none" stroke="#63b8ff" d="M190.95,-28.96C171.62,-26.61 152.11,-24.25 135.15,-22.2"/>
<polygon fill="#63b8ff" stroke="#63b8ff" points="190.31,-32.52 200.66,-30.25 191.15,-25.58 190.31,-32.52"/>
</g>
</g>
</svg>
