<?xml version="1.0" encoding="UTF-8" standalone="no"?>
<!DOCTYPE svg PUBLIC "-//W3C//DTD SVG 1.1//EN"
 "http://www.w3.org/Graphics/SVG/1.1/DTD/svg11.dtd">
<!-- Generated by graphviz version 4.0.0 (20220529.0937)
 -->
<!-- Title: HF::GraphGenerator::GraphGenerator::CrawlGeom Pages: 1 -->
<svg width="945pt" height="457pt"
 viewBox="0.00 0.00 945.00 457.00" xmlns="http://www.w3.org/2000/svg" xmlns:xlink="http://www.w3.org/1999/xlink">
<g id="graph0" class="graph" transform="scale(1 1) rotate(0) translate(4 453)">
<title>HF::GraphGenerator::GraphGenerator::CrawlGeom</title>
<polygon fill="white" stroke="transparent" points="-4,4 -4,-453 941,-453 941,4 -4,4"/>
<!-- Node1 -->
<g id="node1" class="node">
<title>Node1</title>
<g id="a_node1"><a xlink:title="Perform breadth first search to populate the graph with with nodes and edges.">
<polygon fill="#bfbfbf" stroke="black" points="0,-210.5 0,-240.5 148,-240.5 148,-210.5 0,-210.5"/>
<text text-anchor="start" x="8" y="-228.5" font-family="Helvetica,sans-Serif" font-size="10.00">HF::GraphGenerator</text>
<text text-anchor="middle" x="74" y="-217.5" font-family="Helvetica,sans-Serif" font-size="10.00">::GraphGenerator::CrawlGeom</text>
</a>
</g>
</g>
<!-- Node2 -->
<g id="node2" class="node">
<title>Node2</title>
<g id="a_node2"><a xlink:href="a01485.html#a37be5c12e488072dea7fa1c8c64346f7" target="_top" xlink:title="Add a new edge to the graph from parent to child.">
<polygon fill="white" stroke="black" points="197,-382.5 197,-412.5 307,-412.5 307,-382.5 197,-382.5"/>
<text text-anchor="start" x="205" y="-400.5" font-family="Helvetica,sans-Serif" font-size="10.00">HF::SpatialStructures</text>
<text text-anchor="middle" x="252" y="-389.5" font-family="Helvetica,sans-Serif" font-size="10.00">::Graph::addEdge</text>
</a>
</g>
</g>
<!-- Node1&#45;&gt;Node2 -->
<g id="edge1" class="edge">
<title>Node1&#45;&gt;Node2</title>
<path fill="none" stroke="midnightblue" d="M82.35,-240.83C97.35,-270.6 134.34,-336.53 184,-373.5 185.85,-374.88 187.79,-376.18 189.79,-377.42"/>
<polygon fill="midnightblue" stroke="midnightblue" points="188.46,-380.68 198.92,-382.4 191.81,-374.54 188.46,-380.68"/>
</g>
<!-- Node3 -->
<g id="node3" class="node">
<title>Node3</title>
<g id="a_node3"><a xlink:href="a00397.html#a58892abe1152c28d26d3ca749c99ea4d" target="_top" xlink:title="Cast an array of 3 values to the graph_generator&#39;s real_3 type.">
<polygon fill="white" stroke="black" points="200,-333.5 200,-363.5 304,-363.5 304,-333.5 200,-333.5"/>
<text text-anchor="start" x="208" y="-351.5" font-family="Helvetica,sans-Serif" font-size="10.00">HF::GraphGenerator</text>
<text text-anchor="middle" x="252" y="-340.5" font-family="Helvetica,sans-Serif" font-size="10.00">::CastToReal3</text>
</a>
</g>
</g>
<!-- Node1&#45;&gt;Node3 -->
<g id="edge2" class="edge">
<title>Node1&#45;&gt;Node3</title>
<path fill="none" stroke="midnightblue" d="M88,-240.59C107.11,-261.93 144.77,-300.95 184,-324.5 186.67,-326.1 189.46,-327.62 192.33,-329.06"/>
<polygon fill="midnightblue" stroke="midnightblue" points="191.12,-332.36 201.66,-333.37 194.05,-326 191.12,-332.36"/>
</g>
<!-- Node5 -->
<g id="node5" class="node">
<title>Node5</title>
<g id="a_node5"><a xlink:href="a00397.html#aefd344ebb2faadc64a56a16dc8582026" target="_top" xlink:title="Create a set of directions based on max_step_connections.">
<polygon fill="white" stroke="black" points="200,-284.5 200,-314.5 304,-314.5 304,-284.5 200,-284.5"/>
<text text-anchor="start" x="208" y="-302.5" font-family="Helvetica,sans-Serif" font-size="10.00">HF::GraphGenerator</text>
<text text-anchor="middle" x="252" y="-291.5" font-family="Helvetica,sans-Serif" font-size="10.00">::CreateDirecs</text>
</a>
</g>
</g>
<!-- Node1&#45;&gt;Node5 -->
<g id="edge4" class="edge">
<title>Node1&#45;&gt;Node5</title>
<path fill="none" stroke="midnightblue" d="M106.17,-240.66C127.8,-250.97 157.39,-264.66 184,-275.5 188.42,-277.3 193.02,-279.1 197.66,-280.87"/>
<polygon fill="midnightblue" stroke="midnightblue" points="196.59,-284.2 207.18,-284.42 199.04,-277.64 196.59,-284.2"/>
</g>
<!-- Node7 -->
<g id="node7" class="node">
<title>Node7</title>
<g id="a_node7"><a xlink:href="a01249.html#ab659349de3391b0e2327f3736135752f" target="_top" xlink:title="Tell if the queue is empty.">
<polygon fill="white" stroke="black" points="195,-235.5 195,-265.5 309,-265.5 309,-235.5 195,-235.5"/>
<text text-anchor="start" x="203" y="-253.5" font-family="Helvetica,sans-Serif" font-size="10.00">HF::GraphGenerator</text>
<text text-anchor="middle" x="252" y="-242.5" font-family="Helvetica,sans-Serif" font-size="10.00">::UniqueQueue::empty</text>
</a>
</g>
</g>
<!-- Node1&#45;&gt;Node7 -->
<g id="edge6" class="edge">
<title>Node1&#45;&gt;Node7</title>
<path fill="none" stroke="midnightblue" d="M148.11,-235.89C160.29,-237.61 172.85,-239.4 184.84,-241.1"/>
<polygon fill="midnightblue" stroke="midnightblue" points="184.36,-244.57 194.75,-242.51 185.35,-237.64 184.36,-244.57"/>
</g>
<!-- Node9 -->
<g id="node9" class="node">
<title>Node9</title>
<g id="a_node9"><a xlink:href="a00397.html#a41e03f9bab54e4e0d1314c6a4bdf2ec1" target="_top" xlink:title="Populare out_children with a potential child position for every direction in directions.">
<polygon fill="white" stroke="black" points="184,-186.5 184,-216.5 320,-216.5 320,-186.5 184,-186.5"/>
<text text-anchor="start" x="192" y="-204.5" font-family="Helvetica,sans-Serif" font-size="10.00">HF::GraphGenerator</text>
<text text-anchor="middle" x="252" y="-193.5" font-family="Helvetica,sans-Serif" font-size="10.00">::GeneratePotentialChildren</text>
</a>
</g>
</g>
<!-- Node1&#45;&gt;Node9 -->
<g id="edge8" class="edge">
<title>Node1&#45;&gt;Node9</title>
<path fill="none" stroke="midnightblue" d="M148.11,-215.53C156.6,-214.37 165.27,-213.19 173.81,-212.03"/>
<polygon fill="midnightblue" stroke="midnightblue" points="174.31,-215.49 183.75,-210.67 173.37,-208.55 174.31,-215.49"/>
</g>
<!-- Node10 -->
<g id="node10" class="node">
<title>Node10</title>
<g id="a_node10"><a xlink:href="a00397.html#ab7ffcc7d6657ce276c06deed24c546a4" target="_top" xlink:title="Calculate all possible edges between parent and possible_children.">
<polygon fill="white" stroke="black" points="200,-137.5 200,-167.5 304,-167.5 304,-137.5 200,-137.5"/>
<text text-anchor="start" x="208" y="-155.5" font-family="Helvetica,sans-Serif" font-size="10.00">HF::GraphGenerator</text>
<text text-anchor="middle" x="252" y="-144.5" font-family="Helvetica,sans-Serif" font-size="10.00">::GetChildren</text>
</a>
</g>
</g>
<!-- Node1&#45;&gt;Node10 -->
<g id="edge9" class="edge">
<title>Node1&#45;&gt;Node10</title>
<path fill="none" stroke="midnightblue" d="M108.18,-210.29C129.67,-200.59 158.33,-187.93 184,-177.5 189.1,-175.43 194.45,-173.32 199.81,-171.25"/>
<polygon fill="midnightblue" stroke="midnightblue" points="201.3,-174.43 209.4,-167.6 198.81,-167.89 201.3,-174.43"/>
</g>
<!-- Node26 -->
<g id="node26" class="node">
<title>Node26</title>
<g id="a_node26"><a xlink:href="a01249.html#a4aab642bf2c86a04f6890711ab7f2437" target="_top" xlink:title="Remove the topmost node from the queue and return it.">
<polygon fill="white" stroke="black" points="200,-88.5 200,-118.5 304,-118.5 304,-88.5 200,-88.5"/>
<text text-anchor="start" x="208" y="-106.5" font-family="Helvetica,sans-Serif" font-size="10.00">HF::GraphGenerator</text>
<text text-anchor="middle" x="252" y="-95.5" font-family="Helvetica,sans-Serif" font-size="10.00">::UniqueQueue::pop</text>
</a>
</g>
</g>
<!-- Node1&#45;&gt;Node26 -->
<g id="edge28" class="edge">
<title>Node1&#45;&gt;Node26</title>
<path fill="none" stroke="midnightblue" d="M88.43,-210.45C107.77,-189.57 145.38,-151.77 184,-128.5 187.37,-126.47 190.94,-124.56 194.6,-122.76"/>
<polygon fill="midnightblue" stroke="midnightblue" points="196.18,-125.89 203.83,-118.56 193.28,-119.52 196.18,-125.89"/>
</g>
<!-- Node27 -->
<g id="node27" class="node">
<title>Node27</title>
<g id="a_node27"><a xlink:href="a01249.html#a35a8d70ffef5833ae214feaa89aaf220" target="_top" xlink:title="Call push with any type of object.">
<polygon fill="white" stroke="black" points="188.5,-20.5 188.5,-50.5 315.5,-50.5 315.5,-20.5 188.5,-20.5"/>
<text text-anchor="start" x="196.5" y="-38.5" font-family="Helvetica,sans-Serif" font-size="10.00">HF::GraphGenerator</text>
<text text-anchor="middle" x="252" y="-27.5" font-family="Helvetica,sans-Serif" font-size="10.00">::UniqueQueue::PushAny</text>
</a>
</g>
</g>
<!-- Node1&#45;&gt;Node27 -->
<g id="edge29" class="edge">
<title>Node1&#45;&gt;Node27</title>
<path fill="none" stroke="midnightblue" d="M83.74,-210.49C100.58,-182.44 139.78,-121.13 184,-79.5 193.18,-70.85 204.26,-62.82 214.74,-56.04"/>
<polygon fill="midnightblue" stroke="midnightblue" points="216.72,-58.93 223.35,-50.66 213.01,-52.99 216.72,-58.93"/>
</g>
<!-- Node4 -->
<g id="node4" class="node">
<title>Node4</title>
<g id="a_node4"><a xlink:href="a00397.html#a73b53db067a504d36e9481dfe3326b60" target="_top" xlink:title="Cast an input value to real_t using static cast.">
<polygon fill="white" stroke="black" points="358,-333.5 358,-363.5 462,-363.5 462,-333.5 358,-333.5"/>
<text text-anchor="start" x="366" y="-351.5" font-family="Helvetica,sans-Serif" font-size="10.00">HF::GraphGenerator</text>
<text text-anchor="middle" x="410" y="-340.5" font-family="Helvetica,sans-Serif" font-size="10.00">::CastToReal</text>
</a>
</g>
</g>
<!-- Node3&#45;&gt;Node4 -->
<g id="edge3" class="edge">
<title>Node3&#45;&gt;Node4</title>
<path fill="none" stroke="midnightblue" d="M304.08,-348.5C317.95,-348.5 333.12,-348.5 347.5,-348.5"/>
<polygon fill="midnightblue" stroke="midnightblue" points="347.81,-352 357.81,-348.5 347.8,-345 347.81,-352"/>
</g>
<!-- Node6 -->
<g id="node6" class="node">
<title>Node6</title>
<g id="a_node6"><a xlink:href="a00397.html#afe5670b4cb780fd3ccf2a0d72a2e3c2e" target="_top" xlink:title="Calculate P(n,r) as an array with each unique permutaton of 2 values being a pair.">
<polygon fill="white" stroke="black" points="358,-284.5 358,-314.5 462,-314.5 462,-284.5 358,-284.5"/>
<text text-anchor="start" x="366" y="-302.5" font-family="Helvetica,sans-Serif" font-size="10.00">HF::GraphGenerator</text>
<text text-anchor="middle" x="410" y="-291.5" font-family="Helvetica,sans-Serif" font-size="10.00">::permutations</text>
</a>
</g>
</g>
<!-- Node5&#45;&gt;Node6 -->
<g id="edge5" class="edge">
<title>Node5&#45;&gt;Node6</title>
<path fill="none" stroke="midnightblue" d="M304.08,-299.5C317.95,-299.5 333.12,-299.5 347.5,-299.5"/>
<polygon fill="midnightblue" stroke="midnightblue" points="347.81,-303 357.81,-299.5 347.8,-296 347.81,-303"/>
</g>
<!-- Node8 -->
<g id="node8" class="node">
<title>Node8</title>
<g id="a_node8"><a xlink:href="a01249.html#a6d38edb96130bda3eb8126cc7501065f" target="_top" xlink:title="Determine how many nodes are currently in the queue.">
<polygon fill="white" stroke="black" points="357.5,-235.5 357.5,-265.5 462.5,-265.5 462.5,-235.5 357.5,-235.5"/>
<text text-anchor="start" x="365.5" y="-253.5" font-family="Helvetica,sans-Serif" font-size="10.00">HF::GraphGenerator</text>
<text text-anchor="middle" x="410" y="-242.5" font-family="Helvetica,sans-Serif" font-size="10.00">::UniqueQueue::size</text>
</a>
</g>
</g>
<!-- Node7&#45;&gt;Node8 -->
<g id="edge7" class="edge">
<title>Node7&#45;&gt;Node8</title>
<path fill="none" stroke="midnightblue" d="M309.32,-250.5C321.59,-250.5 334.64,-250.5 347.12,-250.5"/>
<polygon fill="midnightblue" stroke="midnightblue" points="347.43,-254 357.43,-250.5 347.43,-247 347.43,-254"/>
</g>
<!-- Node11 -->
<g id="node11" class="node">
<title>Node11</title>
<g id="a_node11"><a xlink:href="a00397.html#a4b7cc0ad0002975404acef5064f4f546" target="_top" xlink:title="Determine whether children are over valid ground, and and meet upstep/downstep requirements.">
<polygon fill="white" stroke="black" points="358,-186.5 358,-216.5 462,-216.5 462,-186.5 358,-186.5"/>
<text text-anchor="start" x="366" y="-204.5" font-family="Helvetica,sans-Serif" font-size="10.00">HF::GraphGenerator</text>
<text text-anchor="middle" x="410" y="-193.5" font-family="Helvetica,sans-Serif" font-size="10.00">::CheckChildren</text>
</a>
</g>
</g>
<!-- Node10&#45;&gt;Node11 -->
<g id="edge10" class="edge">
<title>Node10&#45;&gt;Node11</title>
<path fill="none" stroke="midnightblue" d="M301.08,-167.6C317.02,-172.61 334.92,-178.23 351.5,-183.44"/>
<polygon fill="midnightblue" stroke="midnightblue" points="350.49,-186.79 361.08,-186.45 352.59,-180.11 350.49,-186.79"/>
</g>
<!-- Node18 -->
<g id="node18" class="node">
<title>Node18</title>
<g id="a_node18"><a xlink:href="a00397.html#aeab1db37b5aa614235f109d5dd9711a9" target="_top" xlink:title="Determine what kind of step (if any) is between parent and child.">
<polygon fill="white" stroke="black" points="358,-137.5 358,-167.5 462,-167.5 462,-137.5 358,-137.5"/>
<text text-anchor="start" x="366" y="-155.5" font-family="Helvetica,sans-Serif" font-size="10.00">HF::GraphGenerator</text>
<text text-anchor="middle" x="410" y="-144.5" font-family="Helvetica,sans-Serif" font-size="10.00">::CheckConnection</text>
</a>
</g>
</g>
<!-- Node10&#45;&gt;Node18 -->
<g id="edge18" class="edge">
<title>Node10&#45;&gt;Node18</title>
<path fill="none" stroke="midnightblue" d="M304.08,-152.5C317.95,-152.5 333.12,-152.5 347.5,-152.5"/>
<polygon fill="midnightblue" stroke="midnightblue" points="347.81,-156 357.81,-152.5 347.8,-149 347.81,-156"/>
</g>
<!-- Node23 -->
<g id="node23" class="node">
<title>Node23</title>
<g id="a_node23"><a xlink:href="a00397.html#a7f96186b8f24f878404d1feccf2f64db" target="_top" xlink:title="Calculate the distance between two nodes.">
<polygon fill="white" stroke="black" points="650,-88.5 650,-118.5 754,-118.5 754,-88.5 650,-88.5"/>
<text text-anchor="start" x="658" y="-106.5" font-family="Helvetica,sans-Serif" font-size="10.00">HF::GraphGenerator</text>
<text text-anchor="middle" x="702" y="-95.5" font-family="Helvetica,sans-Serif" font-size="10.00">::DistanceTo</text>
</a>
</g>
</g>
<!-- Node10&#45;&gt;Node23 -->
<g id="edge26" class="edge">
<title>Node10&#45;&gt;Node23</title>
<path fill="none" stroke="midnightblue" d="M304.04,-138.94C320.52,-135.01 338.94,-131.09 356,-128.5 454.55,-113.54 570.33,-107.47 639.58,-105.05"/>
<polygon fill="midnightblue" stroke="midnightblue" points="639.99,-108.54 649.87,-104.71 639.75,-101.54 639.99,-108.54"/>
</g>
<!-- Node25 -->
<g id="node25" class="node">
<title>Node25</title>
<g id="a_node25"><a xlink:href="a00397.html#abf1a3ae7dc89b3cf430e059a87fcd477" target="_top" xlink:title="Convert a point_type to a node.">
<polygon fill="white" stroke="black" points="358,-49.5 358,-79.5 462,-79.5 462,-49.5 358,-49.5"/>
<text text-anchor="start" x="366" y="-67.5" font-family="Helvetica,sans-Serif" font-size="10.00">HF::GraphGenerator</text>
<text text-anchor="middle" x="410" y="-56.5" font-family="Helvetica,sans-Serif" font-size="10.00">::ToNode</text>
</a>
</g>
</g>
<!-- Node10&#45;&gt;Node25 -->
<g id="edge27" class="edge">
<title>Node10&#45;&gt;Node25</title>
<path fill="none" stroke="midnightblue" d="M302.4,-137.47C308.51,-134.85 314.52,-131.86 320,-128.5 338.76,-116.99 338.29,-107.57 356,-94.5 360.52,-91.16 365.44,-87.92 370.41,-84.87"/>
<polygon fill="midnightblue" stroke="midnightblue" points="372.48,-87.72 379.33,-79.63 368.93,-81.68 372.48,-87.72"/>
</g>
<!-- Node12 -->
<g id="node12" class="node">
<title>Node12</title>
<g id="a_node12"><a xlink:href="a00397.html#a74be560268a713fc9e9b8b4a453afa2f" target="_top" xlink:title="Cast a ray and get the point of intersection if it connects.">
<polygon fill="white" stroke="black" points="500,-302.5 500,-332.5 604,-332.5 604,-302.5 500,-302.5"/>
<text text-anchor="start" x="508" y="-320.5" font-family="Helvetica,sans-Serif" font-size="10.00">HF::GraphGenerator</text>
<text text-anchor="middle" x="552" y="-309.5" font-family="Helvetica,sans-Serif" font-size="10.00">::CheckRay</text>
</a>
</g>
</g>
<!-- Node11&#45;&gt;Node12 -->
<g id="edge11" class="edge">
<title>Node11&#45;&gt;Node12</title>
<path fill="none" stroke="midnightblue" d="M447.64,-216.6C453.32,-219.55 458.96,-222.87 464,-226.5 491,-245.95 516.66,-274.45 533.02,-294.36"/>
<polygon fill="midnightblue" stroke="midnightblue" points="530.43,-296.73 539.44,-302.31 535.88,-292.33 530.43,-296.73"/>
</g>
<!-- Node13 -->
<g id="node13" class="node">
<title>Node13</title>
<g id="a_node13"><a xlink:href="a00397.html#ab731d597ee2a843f7b7cb1ccbae67782" target="_top" xlink:title="Determine if a hit is against the geometry type specified.">
<polygon fill="white" stroke="black" points="650,-418.5 650,-448.5 754,-448.5 754,-418.5 650,-418.5"/>
<text text-anchor="start" x="658" y="-436.5" font-family="Helvetica,sans-Serif" font-size="10.00">HF::GraphGenerator</text>
<text text-anchor="middle" x="702" y="-425.5" font-family="Helvetica,sans-Serif" font-size="10.00">::CheckGeometryID</text>
</a>
</g>
</g>
<!-- Node12&#45;&gt;Node13 -->
<g id="edge12" class="edge">
<title>Node12&#45;&gt;Node13</title>
<path fill="none" stroke="midnightblue" d="M564.04,-332.84C579.17,-352.88 608.12,-387.97 640,-409.5 642.15,-410.95 644.39,-412.33 646.7,-413.64"/>
<polygon fill="midnightblue" stroke="midnightblue" points="645.38,-416.9 655.87,-418.38 648.59,-410.68 645.38,-416.9"/>
</g>
<!-- Node14 -->
<g id="node14" class="node">
<title>Node14</title>
<g id="a_node14"><a xlink:href="a01349.html#a3d86c2c8d8e0ec6bf63a653ec89807a8" target="_top" xlink:title="Determine whether or not this hitstruct contains a hit.">
<polygon fill="white" stroke="black" points="640,-369.5 640,-399.5 764,-399.5 764,-369.5 640,-369.5"/>
<text text-anchor="start" x="648" y="-387.5" font-family="Helvetica,sans-Serif" font-size="10.00">HF::RayTracer::HitStruct</text>
<text text-anchor="middle" x="702" y="-376.5" font-family="Helvetica,sans-Serif" font-size="10.00">::DidHit</text>
</a>
</g>
</g>
<!-- Node12&#45;&gt;Node14 -->
<g id="edge13" class="edge">
<title>Node12&#45;&gt;Node14</title>
<path fill="none" stroke="midnightblue" d="M582.11,-332.65C598.87,-341.18 620.44,-351.83 640,-360.5 643.86,-362.21 647.89,-363.93 651.95,-365.62"/>
<polygon fill="midnightblue" stroke="midnightblue" points="650.84,-368.95 661.42,-369.49 653.49,-362.47 650.84,-368.95"/>
</g>
<!-- Node16 -->
<g id="node16" class="node">
<title>Node16</title>
<g id="a_node16"><a xlink:href="a01353.html#a7ee672618f7fe9ce6938978d93d18514" target="_top" xlink:title=" ">
<polygon fill="white" stroke="black" points="642.5,-302.5 642.5,-332.5 761.5,-332.5 761.5,-302.5 642.5,-302.5"/>
<text text-anchor="start" x="650.5" y="-320.5" font-family="Helvetica,sans-Serif" font-size="10.00">HF::RayTracer::MultiRT</text>
<text text-anchor="middle" x="702" y="-309.5" font-family="Helvetica,sans-Serif" font-size="10.00">::Intersect</text>
</a>
</g>
</g>
<!-- Node12&#45;&gt;Node16 -->
<g id="edge15" class="edge">
<title>Node12&#45;&gt;Node16</title>
<path fill="none" stroke="midnightblue" d="M604.35,-317.5C613.36,-317.5 622.87,-317.5 632.26,-317.5"/>
<polygon fill="midnightblue" stroke="midnightblue" points="632.39,-321 642.39,-317.5 632.39,-314 632.39,-321"/>
</g>
<!-- Node17 -->
<g id="node17" class="node">
<title>Node17</title>
<g id="a_node17"><a xlink:href="a00397.html#a5ad3e8fac4a21eee744f3633f7a3692f" target="_top" xlink:title="Move a node in direction by dist units.">
<polygon fill="white" stroke="black" points="650,-253.5 650,-283.5 754,-283.5 754,-253.5 650,-253.5"/>
<text text-anchor="start" x="658" y="-271.5" font-family="Helvetica,sans-Serif" font-size="10.00">HF::GraphGenerator</text>
<text text-anchor="middle" x="702" y="-260.5" font-family="Helvetica,sans-Serif" font-size="10.00">::MoveNode</text>
</a>
</g>
</g>
<!-- Node12&#45;&gt;Node17 -->
<g id="edge17" class="edge">
<title>Node12&#45;&gt;Node17</title>
<path fill="none" stroke="midnightblue" d="M598.61,-302.4C613.59,-297.44 630.41,-291.87 646.01,-286.71"/>
<polygon fill="midnightblue" stroke="midnightblue" points="647.14,-290.02 655.54,-283.55 644.94,-283.37 647.14,-290.02"/>
</g>
<!-- Node15 -->
<g id="node15" class="node">
<title>Node15</title>
<g id="a_node15"><a xlink:href="a00398.html#a2630761a64fac02a4ee33abaf5c885a1" target="_top" xlink:title=" ">
<polygon fill="white" stroke="black" points="800,-375 800,-394 937,-394 937,-375 800,-375"/>
<text text-anchor="middle" x="868.5" y="-382" font-family="Helvetica,sans-Serif" font-size="10.00">HF::RayTracer::DidIntersect</text>
</a>
</g>
</g>
<!-- Node14&#45;&gt;Node15 -->
<g id="edge14" class="edge">
<title>Node14&#45;&gt;Node15</title>
<path fill="none" stroke="midnightblue" d="M764.25,-384.5C772.59,-384.5 781.24,-384.5 789.82,-384.5"/>
<polygon fill="midnightblue" stroke="midnightblue" points="789.84,-388 799.84,-384.5 789.84,-381 789.84,-388"/>
</g>
<!-- Node16&#45;&gt;Node16 -->
<g id="edge16" class="edge">
<title>Node16&#45;&gt;Node16</title>
<path fill="none" stroke="midnightblue" d="M675.86,-332.66C669.56,-342.06 678.27,-351 702,-351 716.46,-351 725.35,-347.68 728.65,-342.96"/>
<polygon fill="midnightblue" stroke="midnightblue" points="732.13,-342.47 728.14,-332.66 725.14,-342.82 732.13,-342.47"/>
</g>
<!-- Node19 -->
<g id="node19" class="node">
<title>Node19</title>
<g id="a_node19"><a xlink:href="a00397.html#a9daa85cb56a1b18d44f46aa9c420afde" target="_top" xlink:title="Determine if the slope between parent and child is traversable according to the graph parameters.">
<polygon fill="white" stroke="black" points="500,-186.5 500,-216.5 604,-216.5 604,-186.5 500,-186.5"/>
<text text-anchor="start" x="508" y="-204.5" font-family="Helvetica,sans-Serif" font-size="10.00">HF::GraphGenerator</text>
<text text-anchor="middle" x="552" y="-193.5" font-family="Helvetica,sans-Serif" font-size="10.00">::CheckSlope</text>
</a>
</g>
</g>
<!-- Node18&#45;&gt;Node19 -->
<g id="edge19" class="edge">
<title>Node18&#45;&gt;Node19</title>
<path fill="none" stroke="midnightblue" d="M454.15,-167.6C467.99,-172.45 483.48,-177.87 497.94,-182.93"/>
<polygon fill="midnightblue" stroke="midnightblue" points="497.16,-186.36 507.75,-186.36 499.47,-179.76 497.16,-186.36"/>
</g>
<!-- Node20 -->
<g id="node20" class="node">
<title>Node20</title>
<g id="a_node20"><a xlink:href="a00397.html#ace66c1b60785c32433402f012019ab81" target="_top" xlink:title="Determine if there is a valid line of sight between parent and child.">
<polygon fill="white" stroke="black" points="500,-137.5 500,-167.5 604,-167.5 604,-137.5 500,-137.5"/>
<text text-anchor="start" x="508" y="-155.5" font-family="Helvetica,sans-Serif" font-size="10.00">HF::GraphGenerator</text>
<text text-anchor="middle" x="552" y="-144.5" font-family="Helvetica,sans-Serif" font-size="10.00">::OcclusionCheck</text>
</a>
</g>
</g>
<!-- Node18&#45;&gt;Node20 -->
<g id="edge20" class="edge">
<title>Node18&#45;&gt;Node20</title>
<path fill="none" stroke="midnightblue" d="M462.34,-152.5C471.18,-152.5 480.46,-152.5 489.53,-152.5"/>
<polygon fill="midnightblue" stroke="midnightblue" points="489.67,-156 499.67,-152.5 489.67,-149 489.67,-156"/>
</g>
<!-- Node21 -->
<g id="node21" class="node">
<title>Node21</title>
<g id="a_node21"><a xlink:href="a00397.html#a750afc15c798c79a8b6a0784ed092f3c" target="_top" xlink:title="Calculate the normalized direction from one node to another.">
<polygon fill="white" stroke="black" points="650,-204.5 650,-234.5 754,-234.5 754,-204.5 650,-204.5"/>
<text text-anchor="start" x="658" y="-222.5" font-family="Helvetica,sans-Serif" font-size="10.00">HF::GraphGenerator</text>
<text text-anchor="middle" x="702" y="-211.5" font-family="Helvetica,sans-Serif" font-size="10.00">::DirectionTo</text>
</a>
</g>
</g>
<!-- Node20&#45;&gt;Node21 -->
<g id="edge21" class="edge">
<title>Node20&#45;&gt;Node21</title>
<path fill="none" stroke="midnightblue" d="M583.76,-167.53C590.44,-170.81 597.46,-174.26 604,-177.5 620.03,-185.44 623.66,-188.22 640,-195.5 643.8,-197.19 647.76,-198.89 651.76,-200.56"/>
<polygon fill="midnightblue" stroke="midnightblue" points="650.5,-203.83 661.08,-204.38 653.16,-197.35 650.5,-203.83"/>
</g>
<!-- Node20&#45;&gt;Node23 -->
<g id="edge23" class="edge">
<title>Node20&#45;&gt;Node23</title>
<path fill="none" stroke="midnightblue" d="M598.61,-137.4C613.59,-132.44 630.41,-126.87 646.01,-121.71"/>
<polygon fill="midnightblue" stroke="midnightblue" points="647.14,-125.02 655.54,-118.55 644.94,-118.37 647.14,-125.02"/>
</g>
<!-- Node24 -->
<g id="node24" class="node">
<title>Node24</title>
<g id="a_node24"><a xlink:href="a01353.html#a22ebf97e859ef651e81deb40b74f668f" target="_top" xlink:title=" ">
<polygon fill="white" stroke="black" points="642.5,-137.5 642.5,-167.5 761.5,-167.5 761.5,-137.5 642.5,-137.5"/>
<text text-anchor="start" x="650.5" y="-155.5" font-family="Helvetica,sans-Serif" font-size="10.00">HF::RayTracer::MultiRT</text>
<text text-anchor="middle" x="702" y="-144.5" font-family="Helvetica,sans-Serif" font-size="10.00">::Occluded</text>
</a>
</g>
</g>
<!-- Node20&#45;&gt;Node24 -->
<g id="edge24" class="edge">
<title>Node20&#45;&gt;Node24</title>
<path fill="none" stroke="midnightblue" d="M604.35,-152.5C613.36,-152.5 622.87,-152.5 632.26,-152.5"/>
<polygon fill="midnightblue" stroke="midnightblue" points="632.39,-156 642.39,-152.5 632.39,-149 632.39,-156"/>
</g>
<!-- Node22 -->
<g id="node22" class="node">
<title>Node22</title>
<g id="a_node22"><a xlink:href="a00397.html#ad2e09e0825a1db4fc511907179eddf00" target="_top" xlink:title="Normalize a vector.">
<polygon fill="white" stroke="black" points="816.5,-204.5 816.5,-234.5 920.5,-234.5 920.5,-204.5 816.5,-204.5"/>
<text text-anchor="start" x="824.5" y="-222.5" font-family="Helvetica,sans-Serif" font-size="10.00">HF::GraphGenerator</text>
<text text-anchor="middle" x="868.5" y="-211.5" font-family="Helvetica,sans-Serif" font-size="10.00">::Normalize</text>
</a>
</g>
</g>
<!-- Node21&#45;&gt;Node22 -->
<g id="edge22" class="edge">
<title>Node21&#45;&gt;Node22</title>
<path fill="none" stroke="midnightblue" d="M754.15,-219.5C770.55,-219.5 788.89,-219.5 805.95,-219.5"/>
<polygon fill="midnightblue" stroke="midnightblue" points="806.38,-223 816.38,-219.5 806.38,-216 806.38,-223"/>
</g>
<!-- Node24&#45;&gt;Node24 -->
<g id="edge25" class="edge">
<title>Node24&#45;&gt;Node24</title>
<path fill="none" stroke="midnightblue" d="M675.86,-167.66C669.56,-177.06 678.27,-186 702,-186 716.46,-186 725.35,-182.68 728.65,-177.96"/>
<polygon fill="midnightblue" stroke="midnightblue" points="732.13,-177.47 728.14,-167.66 725.14,-177.82 732.13,-177.47"/>
</g>
<!-- Node28 -->
<g id="node28" class="node">
<title>Node28</title>
<g id="a_node28"><a xlink:href="a01249.html#ae0dc637a2d7c3aae32d8f035ac6b8016" target="_top" xlink:title="Add a node to the queue if it has never previously been in the queue.">
<polygon fill="white" stroke="black" points="356,-0.5 356,-30.5 464,-30.5 464,-0.5 356,-0.5"/>
<text text-anchor="start" x="364" y="-18.5" font-family="Helvetica,sans-Serif" font-size="10.00">HF::GraphGenerator</text>
<text text-anchor="middle" x="410" y="-7.5" font-family="Helvetica,sans-Serif" font-size="10.00">::UniqueQueue::push</text>
</a>
</g>
</g>
<!-- Node27&#45;&gt;Node28 -->
<g id="edge30" class="edge">
<title>Node27&#45;&gt;Node28</title>
<path fill="none" stroke="midnightblue" d="M315.55,-27.48C325.49,-26.21 335.78,-24.89 345.74,-23.61"/>
<polygon fill="midnightblue" stroke="midnightblue" points="346.49,-27.04 355.96,-22.3 345.6,-20.1 346.49,-27.04"/>
</g>
</g>
</svg>
