<?xml version="1.0" encoding="UTF-8" standalone="no"?>
<!DOCTYPE svg PUBLIC "-//W3C//DTD SVG 1.1//EN"
 "http://www.w3.org/Graphics/SVG/1.1/DTD/svg11.dtd">
<!-- Generated by graphviz version 8.0.5 (20230430.1635)
 -->
<!-- Title: HF::GraphGenerator::UniqueQueue::PushAny Pages: 1 -->
<svg width="825pt" height="75pt"
 viewBox="0.00 0.00 825.25 75.00" xmlns="http://www.w3.org/2000/svg" xmlns:xlink="http://www.w3.org/1999/xlink">
<g id="graph0" class="graph" transform="scale(1 1) rotate(0) translate(4 71)">
<title>HF::GraphGenerator::UniqueQueue::PushAny</title>
<!-- Node1 -->
<g id="node1" class="node">
<title>Node1</title>
<g id="a_node1"><a xlink:title="Call push with any type of object.">
<polygon fill="#999999" stroke="#666666" points="817.25,-45 691,-45 691,-13 817.25,-13 817.25,-45"/>
<text text-anchor="start" x="699" y="-31.5" font-family="Helvetica,sans-Serif" font-size="10.00">HF::GraphGenerator</text>
<text text-anchor="middle" x="754.13" y="-19.5" font-family="Helvetica,sans-Serif" font-size="10.00">::UniqueQueue::PushAny</text>
</a>
</g>
</g>
<!-- Node2 -->
<g id="node2" class="node">
<title>Node2</title>
<g id="a_node2"><a xlink:href="a01245.html#ac7052d4b625fb96f29c5bfc091a86f7e" target="_top" xlink:title="Perform breadth first search to populate the graph with with nodes and edges.">
<polygon fill="white" stroke="#666666" points="655,-67 507.75,-67 507.75,-35 655,-35 655,-67"/>
<text text-anchor="start" x="515.75" y="-53.5" font-family="Helvetica,sans-Serif" font-size="10.00">HF::GraphGenerator</text>
<text text-anchor="middle" x="581.38" y="-41.5" font-family="Helvetica,sans-Serif" font-size="10.00">::GraphGenerator::CrawlGeom</text>
</a>
</g>
</g>
<!-- Node1&#45;&gt;Node2 -->
<g id="edge1" class="edge">
<title>Node1&#45;&gt;Node2</title>
<path fill="none" stroke="#63b8ff" d="M679.66,-38.47C671.62,-39.5 663.43,-40.56 655.39,-41.59"/>
<polygon fill="#63b8ff" stroke="#63b8ff" points="680.04,-41.82 689.51,-37.07 679.15,-34.87 680.04,-41.82"/>
</g>
<!-- Node3 -->
<g id="node3" class="node">
<title>Node3</title>
<g id="a_node3"><a xlink:href="a01245.html#a5788e421d921ec0ff27defc139c45106" target="_top" xlink:title="Generate a graph of accessible space.">
<polygon fill="white" stroke="#666666" points="471.75,-51 352.25,-51 352.25,-7 471.75,-7 471.75,-51"/>
<text text-anchor="start" x="360.25" y="-37.5" font-family="Helvetica,sans-Serif" font-size="10.00">HF::GraphGenerator</text>
<text text-anchor="start" x="360.25" y="-25.5" font-family="Helvetica,sans-Serif" font-size="10.00">::GraphGenerator::IMPL</text>
<text text-anchor="middle" x="412" y="-13.5" font-family="Helvetica,sans-Serif" font-size="10.00">_BuildNetwork</text>
</a>
</g>
</g>
<!-- Node1&#45;&gt;Node3 -->
<g id="edge6" class="edge">
<title>Node1&#45;&gt;Node3</title>
<path fill="none" stroke="#63b8ff" d="M679.69,-26.51C671.36,-26.3 663,-26.12 655,-26 589.56,-25 573.19,-24.96 507.75,-26 496.23,-26.18 483.93,-26.49 472.13,-26.84"/>
<polygon fill="#63b8ff" stroke="#63b8ff" points="679.49,-30.03 689.58,-26.8 679.68,-23.04 679.49,-30.03"/>
</g>
<!-- Node2&#45;&gt;Node3 -->
<g id="edge2" class="edge">
<title>Node2&#45;&gt;Node3</title>
<path fill="none" stroke="#63b8ff" d="M496.6,-39.99C488.34,-38.9 480.07,-37.82 472.12,-36.77"/>
<polygon fill="#63b8ff" stroke="#63b8ff" points="496.08,-43.58 506.45,-41.41 496.99,-36.64 496.08,-43.58"/>
</g>
<!-- Node4 -->
<g id="node4" class="node">
<title>Node4</title>
<g id="a_node4"><a xlink:href="a01245.html#a0c12341433bbec41cc12cc1dbb41a976" target="_top" xlink:title="Generate a graph of accessible space.">
<polygon fill="white" stroke="#666666" points="316.25,-45 162.25,-45 162.25,-13 316.25,-13 316.25,-45"/>
<text text-anchor="start" x="170.25" y="-31.5" font-family="Helvetica,sans-Serif" font-size="10.00">HF::GraphGenerator</text>
<text text-anchor="middle" x="239.25" y="-19.5" font-family="Helvetica,sans-Serif" font-size="10.00">::GraphGenerator::BuildNetwork</text>
</a>
</g>
</g>
<!-- Node3&#45;&gt;Node4 -->
<g id="edge3" class="edge">
<title>Node3&#45;&gt;Node4</title>
<path fill="none" stroke="#63b8ff" d="M340.93,-29C332.88,-29 324.65,-29 316.53,-29"/>
<polygon fill="#63b8ff" stroke="#63b8ff" points="340.76,-32.5 350.76,-29 340.76,-25.5 340.76,-32.5"/>
</g>
<!-- Node5 -->
<g id="node5" class="node">
<title>Node5</title>
<g id="a_node5"><a xlink:href="a00388.html#ga2df84a732d1edfb70b7bd26d3282e129" target="_top" xlink:title="Construct a graph by performing a breadth&#45;first search of accessible space.">
<polygon fill="white" stroke="#666666" points="104.13,-58 22.13,-58 22.13,-38 104.13,-38 104.13,-58"/>
<text text-anchor="middle" x="63.13" y="-44.5" font-family="Helvetica,sans-Serif" font-size="10.00">GenerateGraph</text>
</a>
</g>
</g>
<!-- Node4&#45;&gt;Node5 -->
<g id="edge4" class="edge">
<title>Node4&#45;&gt;Node5</title>
<path fill="none" stroke="#63b8ff" d="M151.19,-38.5C134.89,-40.28 118.59,-42.06 104.57,-43.59"/>
<polygon fill="#63b8ff" stroke="#63b8ff" points="151.31,-41.9 160.88,-37.33 150.56,-34.94 151.31,-41.9"/>
</g>
<!-- Node6 -->
<g id="node6" class="node">
<title>Node6</title>
<g id="a_node6"><a xlink:href="a00388.html#gab9f58e3ecc686fa9bc34519b0faed734" target="_top" xlink:title="Construct a graph by performing a breadth&#45;first search of accessible space, seperating obstacles from...">
<polygon fill="white" stroke="#666666" points="126.25,-20 0,-20 0,0 126.25,0 126.25,-20"/>
<text text-anchor="middle" x="63.13" y="-6.5" font-family="Helvetica,sans-Serif" font-size="10.00">GenerateGraphObstacles</text>
</a>
</g>
</g>
<!-- Node4&#45;&gt;Node6 -->
<g id="edge5" class="edge">
<title>Node4&#45;&gt;Node6</title>
<path fill="none" stroke="#63b8ff" d="M151.05,-19.49C142.8,-18.58 134.55,-17.68 126.6,-16.82"/>
<polygon fill="#63b8ff" stroke="#63b8ff" points="150.56,-23.06 160.88,-20.67 151.31,-16.1 150.56,-23.06"/>
</g>
</g>
</svg>
