<?xml version="1.0" encoding="UTF-8" standalone="no"?>
<!DOCTYPE svg PUBLIC "-//W3C//DTD SVG 1.1//EN"
 "http://www.w3.org/Graphics/SVG/1.1/DTD/svg11.dtd">
<!-- Generated by graphviz version 7.0.2 (20221119.0110)
 -->
<!-- Title: HF::GraphGenerator::GraphGenerator::CrawlGeomParallel Pages: 1 -->
<svg width="942pt" height="450pt"
 viewBox="0.00 0.00 942.00 450.00" xmlns="http://www.w3.org/2000/svg" xmlns:xlink="http://www.w3.org/1999/xlink">
<g id="graph0" class="graph" transform="scale(1 1) rotate(0) translate(4 446)">
<title>HF::GraphGenerator::GraphGenerator::CrawlGeomParallel</title>
<!-- Node1 -->
<g id="node1" class="node">
<title>Node1</title>
<g id="a_node1"><a xlink:title="Perform breadth first search to populate the graph with nodes and edges using multiple cores.">
<polygon fill="#999999" stroke="#666666" points="148,-265.5 0,-265.5 0,-224.5 148,-224.5 148,-265.5"/>
<text text-anchor="start" x="8" y="-253.5" font-family="Helvetica,sans-Serif" font-size="10.00">HF::GraphGenerator</text>
<text text-anchor="start" x="8" y="-242.5" font-family="Helvetica,sans-Serif" font-size="10.00">::GraphGenerator::CrawlGeom</text>
<text text-anchor="middle" x="74" y="-231.5" font-family="Helvetica,sans-Serif" font-size="10.00">Parallel</text>
</a>
</g>
</g>
<!-- Node2 -->
<g id="node2" class="node">
<title>Node2</title>
<g id="a_node2"><a xlink:href="a01485.html#a37be5c12e488072dea7fa1c8c64346f7" target="_top" xlink:title="Add a new edge to the graph from parent to child.">
<polygon fill="white" stroke="#666666" points="307,-442 197,-442 197,-412 307,-412 307,-442"/>
<text text-anchor="start" x="205" y="-430" font-family="Helvetica,sans-Serif" font-size="10.00">HF::SpatialStructures</text>
<text text-anchor="middle" x="252" y="-419" font-family="Helvetica,sans-Serif" font-size="10.00">::Graph::addEdge</text>
</a>
</g>
</g>
<!-- Node1&#45;&gt;Node2 -->
<g id="edge1" class="edge">
<title>Node1&#45;&gt;Node2</title>
<path fill="none" stroke="#63b8ff" d="M84.1,-265.78C99.78,-299.29 134.99,-365.32 184,-403 185.32,-404.01 186.68,-404.98 188.08,-405.92"/>
<polygon fill="#63b8ff" stroke="#63b8ff" points="186.06,-408.79 196.47,-410.77 189.57,-402.74 186.06,-408.79"/>
</g>
<!-- Node3 -->
<g id="node3" class="node">
<title>Node3</title>
<g id="a_node3"><a xlink:href="a00397.html#a58892abe1152c28d26d3ca749c99ea4d" target="_top" xlink:title="Cast an array of 3 values to the graph_generator&#39;s real_3 type.">
<polygon fill="white" stroke="#666666" points="304,-394 200,-394 200,-364 304,-364 304,-394"/>
<text text-anchor="start" x="208" y="-382" font-family="Helvetica,sans-Serif" font-size="10.00">HF::GraphGenerator</text>
<text text-anchor="middle" x="252" y="-371" font-family="Helvetica,sans-Serif" font-size="10.00">::CastToReal3</text>
</a>
</g>
</g>
<!-- Node1&#45;&gt;Node3 -->
<g id="edge2" class="edge">
<title>Node1&#45;&gt;Node3</title>
<path fill="none" stroke="#63b8ff" d="M90.59,-265.59C110.03,-290 145.45,-330.45 184,-355 185.88,-356.19 187.82,-357.34 189.81,-358.44"/>
<polygon fill="#63b8ff" stroke="#63b8ff" points="188.22,-361.55 198.73,-362.85 191.32,-355.28 188.22,-361.55"/>
</g>
<!-- Node5 -->
<g id="node5" class="node">
<title>Node5</title>
<g id="a_node5"><a xlink:href="a00397.html#aefd344ebb2faadc64a56a16dc8582026" target="_top" xlink:title="Create a set of directions based on max_step_connections.">
<polygon fill="white" stroke="#666666" points="304,-346 200,-346 200,-316 304,-316 304,-346"/>
<text text-anchor="start" x="208" y="-334" font-family="Helvetica,sans-Serif" font-size="10.00">HF::GraphGenerator</text>
<text text-anchor="middle" x="252" y="-323" font-family="Helvetica,sans-Serif" font-size="10.00">::CreateDirecs</text>
</a>
</g>
</g>
<!-- Node1&#45;&gt;Node5 -->
<g id="edge4" class="edge">
<title>Node1&#45;&gt;Node5</title>
<path fill="none" stroke="#63b8ff" d="M113.24,-265.88C133.99,-276.98 160.2,-290.64 184,-302 190.31,-305.01 197,-308.07 203.63,-311.01"/>
<polygon fill="#63b8ff" stroke="#63b8ff" points="201.97,-314.11 212.53,-314.92 204.78,-307.7 201.97,-314.11"/>
</g>
<!-- Node7 -->
<g id="node7" class="node">
<title>Node7</title>
<g id="a_node7"><a xlink:href="a01249.html#ab659349de3391b0e2327f3736135752f" target="_top" xlink:title="Tell if the queue is empty.">
<polygon fill="white" stroke="#666666" points="309,-260 195,-260 195,-230 309,-230 309,-260"/>
<text text-anchor="start" x="203" y="-248" font-family="Helvetica,sans-Serif" font-size="10.00">HF::GraphGenerator</text>
<text text-anchor="middle" x="252" y="-237" font-family="Helvetica,sans-Serif" font-size="10.00">::UniqueQueue::empty</text>
</a>
</g>
</g>
<!-- Node1&#45;&gt;Node7 -->
<g id="edge6" class="edge">
<title>Node1&#45;&gt;Node7</title>
<path fill="none" stroke="#63b8ff" d="M148.37,-245C159.97,-245 171.92,-245 183.38,-245"/>
<polygon fill="#63b8ff" stroke="#63b8ff" points="183.14,-248.5 193.14,-245 183.14,-241.5 183.14,-248.5"/>
</g>
<!-- Node8 -->
<g id="node8" class="node">
<title>Node8</title>
<g id="a_node8"><a xlink:href="a01249.html#a6d38edb96130bda3eb8126cc7501065f" target="_top" xlink:title="Determine how many nodes are currently in the queue.">
<polygon fill="white" stroke="#666666" points="461,-260 356,-260 356,-230 461,-230 461,-260"/>
<text text-anchor="start" x="364" y="-248" font-family="Helvetica,sans-Serif" font-size="10.00">HF::GraphGenerator</text>
<text text-anchor="middle" x="408.5" y="-237" font-family="Helvetica,sans-Serif" font-size="10.00">::UniqueQueue::size</text>
</a>
</g>
</g>
<!-- Node1&#45;&gt;Node8 -->
<g id="edge32" class="edge">
<title>Node1&#45;&gt;Node8</title>
<path fill="none" stroke="#63b8ff" d="M148.22,-263.39C160.11,-265.72 172.35,-267.73 184,-269 244.09,-275.54 260.1,-277.07 320,-269 329.54,-267.72 339.51,-265.68 349.16,-263.32"/>
<polygon fill="#63b8ff" stroke="#63b8ff" points="350.03,-266.71 358.83,-260.81 348.27,-259.93 350.03,-266.71"/>
</g>
<!-- Node9 -->
<g id="node9" class="node">
<title>Node9</title>
<g id="a_node9"><a xlink:href="a00397.html#a41e03f9bab54e4e0d1314c6a4bdf2ec1" target="_top" xlink:title="Populare out_children with a potential child position for every direction in directions.">
<polygon fill="white" stroke="#666666" points="320,-212 184,-212 184,-182 320,-182 320,-212"/>
<text text-anchor="start" x="192" y="-200" font-family="Helvetica,sans-Serif" font-size="10.00">HF::GraphGenerator</text>
<text text-anchor="middle" x="252" y="-189" font-family="Helvetica,sans-Serif" font-size="10.00">::GeneratePotentialChildren</text>
</a>
</g>
</g>
<!-- Node1&#45;&gt;Node9 -->
<g id="edge8" class="edge">
<title>Node1&#45;&gt;Node9</title>
<path fill="none" stroke="#63b8ff" d="M148.37,-224.99C160.02,-221.81 172.02,-218.54 183.53,-215.4"/>
<polygon fill="#63b8ff" stroke="#63b8ff" points="184.19,-218.85 192.92,-212.84 182.35,-212.09 184.19,-218.85"/>
</g>
<!-- Node10 -->
<g id="node10" class="node">
<title>Node10</title>
<g id="a_node10"><a xlink:href="a00397.html#ab7ffcc7d6657ce276c06deed24c546a4" target="_top" xlink:title="Calculate all possible edges between parent and possible_children.">
<polygon fill="white" stroke="#666666" points="304,-116 200,-116 200,-86 304,-86 304,-116"/>
<text text-anchor="start" x="208" y="-104" font-family="Helvetica,sans-Serif" font-size="10.00">HF::GraphGenerator</text>
<text text-anchor="middle" x="252" y="-93" font-family="Helvetica,sans-Serif" font-size="10.00">::GetChildren</text>
</a>
</g>
</g>
<!-- Node1&#45;&gt;Node10 -->
<g id="edge9" class="edge">
<title>Node1&#45;&gt;Node10</title>
<path fill="none" stroke="#63b8ff" d="M88.85,-224.32C107.55,-197.86 143.27,-152.19 184,-125 185.81,-123.79 187.69,-122.63 189.62,-121.53"/>
<polygon fill="#63b8ff" stroke="#63b8ff" points="190.95,-124.78 198.26,-117.11 187.76,-118.55 190.95,-124.78"/>
</g>
<!-- Node26 -->
<g id="node26" class="node">
<title>Node26</title>
<g id="a_node26"><a xlink:href="a01249.html#ae941f357ddbefc3b670c43ce2d90b589" target="_top" xlink:title="Pop a set amount of nodes from the queue, and return them as a vector.">
<polygon fill="white" stroke="#666666" points="315.5,-164 188.5,-164 188.5,-134 315.5,-134 315.5,-164"/>
<text text-anchor="start" x="196.5" y="-152" font-family="Helvetica,sans-Serif" font-size="10.00">HF::GraphGenerator</text>
<text text-anchor="middle" x="252" y="-141" font-family="Helvetica,sans-Serif" font-size="10.00">::UniqueQueue::popMany</text>
</a>
</g>
</g>
<!-- Node1&#45;&gt;Node26 -->
<g id="edge28" class="edge">
<title>Node1&#45;&gt;Node26</title>
<path fill="none" stroke="#63b8ff" d="M102.56,-224.11C123.96,-208.57 154.79,-187.61 184,-173 186.9,-171.55 189.91,-170.14 192.98,-168.79"/>
<polygon fill="#63b8ff" stroke="#63b8ff" points="194.26,-172.04 202.15,-164.97 191.57,-165.58 194.26,-172.04"/>
</g>
<!-- Node28 -->
<g id="node28" class="node">
<title>Node28</title>
<g id="a_node28"><a xlink:href="a01249.html#ae0dc637a2d7c3aae32d8f035ac6b8016" target="_top" xlink:title="Add a node to the queue if it has never previously been in the queue.">
<polygon fill="white" stroke="#666666" points="306,-68 198,-68 198,-38 306,-38 306,-68"/>
<text text-anchor="start" x="206" y="-56" font-family="Helvetica,sans-Serif" font-size="10.00">HF::GraphGenerator</text>
<text text-anchor="middle" x="252" y="-45" font-family="Helvetica,sans-Serif" font-size="10.00">::UniqueQueue::push</text>
</a>
</g>
</g>
<!-- Node1&#45;&gt;Node28 -->
<g id="edge31" class="edge">
<title>Node1&#45;&gt;Node28</title>
<path fill="none" stroke="#63b8ff" d="M83.26,-224.04C98.17,-188.78 132.89,-117.46 184,-77 185.3,-75.97 186.65,-74.98 188.04,-74.03"/>
<polygon fill="#63b8ff" stroke="#63b8ff" points="189.55,-77.21 196.38,-69.12 185.99,-71.18 189.55,-77.21"/>
</g>
<!-- Node4 -->
<g id="node4" class="node">
<title>Node4</title>
<g id="a_node4"><a xlink:href="a00397.html#a73b53db067a504d36e9481dfe3326b60" target="_top" xlink:title="Cast an input value to real_t using static cast.">
<polygon fill="white" stroke="#666666" points="460.5,-394 356.5,-394 356.5,-364 460.5,-364 460.5,-394"/>
<text text-anchor="start" x="364.5" y="-382" font-family="Helvetica,sans-Serif" font-size="10.00">HF::GraphGenerator</text>
<text text-anchor="middle" x="408.5" y="-371" font-family="Helvetica,sans-Serif" font-size="10.00">::CastToReal</text>
</a>
</g>
</g>
<!-- Node3&#45;&gt;Node4 -->
<g id="edge3" class="edge">
<title>Node3&#45;&gt;Node4</title>
<path fill="none" stroke="#63b8ff" d="M304.45,-379C317.28,-379 331.18,-379 344.5,-379"/>
<polygon fill="#63b8ff" stroke="#63b8ff" points="344.5,-382.5 354.5,-379 344.5,-375.5 344.5,-382.5"/>
</g>
<!-- Node6 -->
<g id="node6" class="node">
<title>Node6</title>
<g id="a_node6"><a xlink:href="a00397.html#afe5670b4cb780fd3ccf2a0d72a2e3c2e" target="_top" xlink:title="Calculate P(n,r) as an array with each unique permutaton of 2 values being a pair.">
<polygon fill="white" stroke="#666666" points="460.5,-346 356.5,-346 356.5,-316 460.5,-316 460.5,-346"/>
<text text-anchor="start" x="364.5" y="-334" font-family="Helvetica,sans-Serif" font-size="10.00">HF::GraphGenerator</text>
<text text-anchor="middle" x="408.5" y="-323" font-family="Helvetica,sans-Serif" font-size="10.00">::permutations</text>
</a>
</g>
</g>
<!-- Node5&#45;&gt;Node6 -->
<g id="edge5" class="edge">
<title>Node5&#45;&gt;Node6</title>
<path fill="none" stroke="#63b8ff" d="M304.45,-331C317.28,-331 331.18,-331 344.5,-331"/>
<polygon fill="#63b8ff" stroke="#63b8ff" points="344.5,-334.5 354.5,-331 344.5,-327.5 344.5,-334.5"/>
</g>
<!-- Node7&#45;&gt;Node8 -->
<g id="edge7" class="edge">
<title>Node7&#45;&gt;Node8</title>
<path fill="none" stroke="#63b8ff" d="M309.22,-245C320.6,-245 332.65,-245 344.27,-245"/>
<polygon fill="#63b8ff" stroke="#63b8ff" points="344.18,-248.5 354.18,-245 344.18,-241.5 344.18,-248.5"/>
</g>
<!-- Node11 -->
<g id="node11" class="node">
<title>Node11</title>
<g id="a_node11"><a xlink:href="a00397.html#a4b7cc0ad0002975404acef5064f4f546" target="_top" xlink:title="Determine whether children are over valid ground, and and meet upstep/downstep requirements.">
<polygon fill="white" stroke="#666666" points="460.5,-164 356.5,-164 356.5,-134 460.5,-134 460.5,-164"/>
<text text-anchor="start" x="364.5" y="-152" font-family="Helvetica,sans-Serif" font-size="10.00">HF::GraphGenerator</text>
<text text-anchor="middle" x="408.5" y="-141" font-family="Helvetica,sans-Serif" font-size="10.00">::CheckChildren</text>
</a>
</g>
</g>
<!-- Node10&#45;&gt;Node11 -->
<g id="edge10" class="edge">
<title>Node10&#45;&gt;Node11</title>
<path fill="none" stroke="#63b8ff" d="M302.74,-116.45C316.79,-120.82 332.25,-125.62 346.88,-130.17"/>
<polygon fill="#63b8ff" stroke="#63b8ff" points="345.82,-133.5 356.41,-133.13 347.9,-126.82 345.82,-133.5"/>
</g>
<!-- Node18 -->
<g id="node18" class="node">
<title>Node18</title>
<g id="a_node18"><a xlink:href="a00397.html#aeab1db37b5aa614235f109d5dd9711a9" target="_top" xlink:title="Determine what kind of step (if any) is between parent and child.">
<polygon fill="white" stroke="#666666" points="460.5,-116 356.5,-116 356.5,-86 460.5,-86 460.5,-116"/>
<text text-anchor="start" x="364.5" y="-104" font-family="Helvetica,sans-Serif" font-size="10.00">HF::GraphGenerator</text>
<text text-anchor="middle" x="408.5" y="-93" font-family="Helvetica,sans-Serif" font-size="10.00">::CheckConnection</text>
</a>
</g>
</g>
<!-- Node10&#45;&gt;Node18 -->
<g id="edge18" class="edge">
<title>Node10&#45;&gt;Node18</title>
<path fill="none" stroke="#63b8ff" d="M304.45,-101C317.28,-101 331.18,-101 344.5,-101"/>
<polygon fill="#63b8ff" stroke="#63b8ff" points="344.5,-104.5 354.5,-101 344.5,-97.5 344.5,-104.5"/>
</g>
<!-- Node23 -->
<g id="node23" class="node">
<title>Node23</title>
<g id="a_node23"><a xlink:href="a00397.html#a7f96186b8f24f878404d1feccf2f64db" target="_top" xlink:title="Calculate the distance between two nodes.">
<polygon fill="white" stroke="#666666" points="751,-68 647,-68 647,-38 751,-38 751,-68"/>
<text text-anchor="start" x="655" y="-56" font-family="Helvetica,sans-Serif" font-size="10.00">HF::GraphGenerator</text>
<text text-anchor="middle" x="699" y="-45" font-family="Helvetica,sans-Serif" font-size="10.00">::DistanceTo</text>
</a>
</g>
</g>
<!-- Node10&#45;&gt;Node23 -->
<g id="edge26" class="edge">
<title>Node10&#45;&gt;Node23</title>
<path fill="none" stroke="#63b8ff" d="M304.3,-87.36C320.71,-83.45 339.02,-79.56 356,-77 452.81,-62.42 566.4,-56.67 635.25,-54.42"/>
<polygon fill="#63b8ff" stroke="#63b8ff" points="635.33,-57.92 645.22,-54.11 635.12,-50.92 635.33,-57.92"/>
</g>
<!-- Node25 -->
<g id="node25" class="node">
<title>Node25</title>
<g id="a_node25"><a xlink:href="a00397.html#abf1a3ae7dc89b3cf430e059a87fcd477" target="_top" xlink:title="Convert a point_type to a node.">
<polygon fill="white" stroke="#666666" points="460.5,-30 356.5,-30 356.5,0 460.5,0 460.5,-30"/>
<text text-anchor="start" x="364.5" y="-18" font-family="Helvetica,sans-Serif" font-size="10.00">HF::GraphGenerator</text>
<text text-anchor="middle" x="408.5" y="-7" font-family="Helvetica,sans-Serif" font-size="10.00">::ToNode</text>
</a>
</g>
</g>
<!-- Node10&#45;&gt;Node25 -->
<g id="edge27" class="edge">
<title>Node10&#45;&gt;Node25</title>
<path fill="none" stroke="#63b8ff" d="M303.06,-85.59C308.93,-83.05 314.71,-80.19 320,-77 338.58,-65.79 338.43,-56.74 356,-44 359.63,-41.36 363.53,-38.78 367.49,-36.31"/>
<polygon fill="#63b8ff" stroke="#63b8ff" points="369.26,-39.33 376.07,-31.21 365.68,-33.32 369.26,-39.33"/>
</g>
<!-- Node12 -->
<g id="node12" class="node">
<title>Node12</title>
<g id="a_node12"><a xlink:href="a00397.html#a74be560268a713fc9e9b8b4a453afa2f" target="_top" xlink:title="Cast a ray and get the point of intersection if it connects.">
<polygon fill="white" stroke="#666666" points="601,-278 497,-278 497,-248 601,-248 601,-278"/>
<text text-anchor="start" x="505" y="-266" font-family="Helvetica,sans-Serif" font-size="10.00">HF::GraphGenerator</text>
<text text-anchor="middle" x="549" y="-255" font-family="Helvetica,sans-Serif" font-size="10.00">::CheckRay</text>
</a>
</g>
</g>
<!-- Node11&#45;&gt;Node12 -->
<g id="edge11" class="edge">
<title>Node11&#45;&gt;Node12</title>
<path fill="none" stroke="#63b8ff" d="M446.99,-164.47C451.86,-167.05 456.66,-169.91 461,-173 487.43,-191.84 512.63,-219.33 529.04,-238.96"/>
<polygon fill="#63b8ff" stroke="#63b8ff" points="526.14,-240.95 535.19,-246.46 531.56,-236.51 526.14,-240.95"/>
</g>
<!-- Node13 -->
<g id="node13" class="node">
<title>Node13</title>
<g id="a_node13"><a xlink:href="a00397.html#ab731d597ee2a843f7b7cb1ccbae67782" target="_top" xlink:title="Determine if a hit is against the geometry type specified.">
<polygon fill="white" stroke="#666666" points="751,-230 647,-230 647,-200 751,-200 751,-230"/>
<text text-anchor="start" x="655" y="-218" font-family="Helvetica,sans-Serif" font-size="10.00">HF::GraphGenerator</text>
<text text-anchor="middle" x="699" y="-207" font-family="Helvetica,sans-Serif" font-size="10.00">::CheckGeometryID</text>
</a>
</g>
</g>
<!-- Node12&#45;&gt;Node13 -->
<g id="edge12" class="edge">
<title>Node12&#45;&gt;Node13</title>
<path fill="none" stroke="#63b8ff" d="M597.64,-247.55C610.98,-243.22 625.63,-238.47 639.51,-233.97"/>
<polygon fill="#63b8ff" stroke="#63b8ff" points="640.57,-237.3 649.01,-230.89 638.41,-230.65 640.57,-237.3"/>
</g>
<!-- Node14 -->
<g id="node14" class="node">
<title>Node14</title>
<g id="a_node14"><a xlink:href="a01349.html#a3d86c2c8d8e0ec6bf63a653ec89807a8" target="_top" xlink:title="Determine whether or not this hitstruct contains a hit.">
<polygon fill="white" stroke="#666666" points="761,-392 637,-392 637,-362 761,-362 761,-392"/>
<text text-anchor="start" x="645" y="-380" font-family="Helvetica,sans-Serif" font-size="10.00">HF::RayTracer::HitStruct</text>
<text text-anchor="middle" x="699" y="-369" font-family="Helvetica,sans-Serif" font-size="10.00">::DidHit</text>
</a>
</g>
</g>
<!-- Node12&#45;&gt;Node14 -->
<g id="edge13" class="edge">
<title>Node12&#45;&gt;Node14</title>
<path fill="none" stroke="#63b8ff" d="M561.38,-278.32C576.66,-297.97 605.55,-332.01 637,-353 638.77,-354.18 640.62,-355.32 642.51,-356.42"/>
<polygon fill="#63b8ff" stroke="#63b8ff" points="640.44,-359.29 650.92,-360.82 643.69,-353.09 640.44,-359.29"/>
</g>
<!-- Node16 -->
<g id="node16" class="node">
<title>Node16</title>
<g id="a_node16"><a xlink:href="a01353.html#a7ee672618f7fe9ce6938978d93d18514" target="_top" xlink:title=" ">
<polygon fill="white" stroke="#666666" points="758.5,-326 639.5,-326 639.5,-296 758.5,-296 758.5,-326"/>
<text text-anchor="start" x="647.5" y="-314" font-family="Helvetica,sans-Serif" font-size="10.00">HF::RayTracer::MultiRT</text>
<text text-anchor="middle" x="699" y="-303" font-family="Helvetica,sans-Serif" font-size="10.00">::Intersect</text>
</a>
</g>
</g>
<!-- Node12&#45;&gt;Node16 -->
<g id="edge15" class="edge">
<title>Node12&#45;&gt;Node16</title>
<path fill="none" stroke="#63b8ff" d="M597.64,-278.45C610.98,-282.78 625.63,-287.53 639.51,-292.03"/>
<polygon fill="#63b8ff" stroke="#63b8ff" points="638.41,-295.35 649.01,-295.11 640.57,-288.7 638.41,-295.35"/>
</g>
<!-- Node17 -->
<g id="node17" class="node">
<title>Node17</title>
<g id="a_node17"><a xlink:href="a00397.html#a5ad3e8fac4a21eee744f3633f7a3692f" target="_top" xlink:title="Move a node in direction by dist units.">
<polygon fill="white" stroke="#666666" points="751,-278 647,-278 647,-248 751,-248 751,-278"/>
<text text-anchor="start" x="655" y="-266" font-family="Helvetica,sans-Serif" font-size="10.00">HF::GraphGenerator</text>
<text text-anchor="middle" x="699" y="-255" font-family="Helvetica,sans-Serif" font-size="10.00">::MoveNode</text>
</a>
</g>
</g>
<!-- Node12&#45;&gt;Node17 -->
<g id="edge17" class="edge">
<title>Node12&#45;&gt;Node17</title>
<path fill="none" stroke="#63b8ff" d="M601.35,-263C612.37,-263 624.13,-263 635.52,-263"/>
<polygon fill="#63b8ff" stroke="#63b8ff" points="635.23,-266.5 645.23,-263 635.23,-259.5 635.23,-266.5"/>
</g>
<!-- Node15 -->
<g id="node15" class="node">
<title>Node15</title>
<g id="a_node15"><a xlink:href="a00398.html#a2630761a64fac02a4ee33abaf5c885a1" target="_top" xlink:title=" ">
<polygon fill="white" stroke="#666666" points="934,-386.5 797,-386.5 797,-367.5 934,-367.5 934,-386.5"/>
<text text-anchor="middle" x="865.5" y="-374.5" font-family="Helvetica,sans-Serif" font-size="10.00">HF::RayTracer::DidIntersect</text>
</a>
</g>
</g>
<!-- Node14&#45;&gt;Node15 -->
<g id="edge14" class="edge">
<title>Node14&#45;&gt;Node15</title>
<path fill="none" stroke="#63b8ff" d="M761.25,-377C769.08,-377 777.17,-377 785.23,-377"/>
<polygon fill="#63b8ff" stroke="#63b8ff" points="785.05,-380.5 795.05,-377 785.05,-373.5 785.05,-380.5"/>
</g>
<!-- Node16&#45;&gt;Node16 -->
<g id="edge16" class="edge">
<title>Node16&#45;&gt;Node16</title>
<path fill="none" stroke="#63b8ff" d="M672.63,-326.28C666.77,-335.41 675.56,-344 699,-344 711.82,-344 720.25,-341.43 724.31,-337.61"/>
<polygon fill="#63b8ff" stroke="#63b8ff" points="727.78,-338.06 725.23,-327.78 720.81,-337.41 727.78,-338.06"/>
</g>
<!-- Node19 -->
<g id="node19" class="node">
<title>Node19</title>
<g id="a_node19"><a xlink:href="a00397.html#a9daa85cb56a1b18d44f46aa9c420afde" target="_top" xlink:title="Determine if the slope between parent and child is traversable according to the graph parameters.">
<polygon fill="white" stroke="#666666" points="601,-164 497,-164 497,-134 601,-134 601,-164"/>
<text text-anchor="start" x="505" y="-152" font-family="Helvetica,sans-Serif" font-size="10.00">HF::GraphGenerator</text>
<text text-anchor="middle" x="549" y="-141" font-family="Helvetica,sans-Serif" font-size="10.00">::CheckSlope</text>
</a>
</g>
</g>
<!-- Node18&#45;&gt;Node19 -->
<g id="edge19" class="edge">
<title>Node18&#45;&gt;Node19</title>
<path fill="none" stroke="#63b8ff" d="M454.08,-116.45C466.44,-120.73 480,-125.43 492.88,-129.9"/>
<polygon fill="#63b8ff" stroke="#63b8ff" points="491.47,-133.11 502.07,-133.08 493.77,-126.5 491.47,-133.11"/>
</g>
<!-- Node20 -->
<g id="node20" class="node">
<title>Node20</title>
<g id="a_node20"><a xlink:href="a00397.html#ace66c1b60785c32433402f012019ab81" target="_top" xlink:title="Determine if there is a valid line of sight between parent and child.">
<polygon fill="white" stroke="#666666" points="601,-116 497,-116 497,-86 601,-86 601,-116"/>
<text text-anchor="start" x="505" y="-104" font-family="Helvetica,sans-Serif" font-size="10.00">HF::GraphGenerator</text>
<text text-anchor="middle" x="549" y="-93" font-family="Helvetica,sans-Serif" font-size="10.00">::OcclusionCheck</text>
</a>
</g>
</g>
<!-- Node18&#45;&gt;Node20 -->
<g id="edge20" class="edge">
<title>Node18&#45;&gt;Node20</title>
<path fill="none" stroke="#63b8ff" d="M460.68,-101C468.64,-101 476.94,-101 485.13,-101"/>
<polygon fill="#63b8ff" stroke="#63b8ff" points="485.06,-104.5 495.06,-101 485.06,-97.5 485.06,-104.5"/>
</g>
<!-- Node21 -->
<g id="node21" class="node">
<title>Node21</title>
<g id="a_node21"><a xlink:href="a00397.html#a750afc15c798c79a8b6a0784ed092f3c" target="_top" xlink:title="Calculate the normalized direction from one node to another.">
<polygon fill="white" stroke="#666666" points="751,-116 647,-116 647,-86 751,-86 751,-116"/>
<text text-anchor="start" x="655" y="-104" font-family="Helvetica,sans-Serif" font-size="10.00">HF::GraphGenerator</text>
<text text-anchor="middle" x="699" y="-93" font-family="Helvetica,sans-Serif" font-size="10.00">::DirectionTo</text>
</a>
</g>
</g>
<!-- Node20&#45;&gt;Node21 -->
<g id="edge21" class="edge">
<title>Node20&#45;&gt;Node21</title>
<path fill="none" stroke="#63b8ff" d="M601.35,-101C612.37,-101 624.13,-101 635.52,-101"/>
<polygon fill="#63b8ff" stroke="#63b8ff" points="635.23,-104.5 645.23,-101 635.23,-97.5 635.23,-104.5"/>
</g>
<!-- Node20&#45;&gt;Node23 -->
<g id="edge23" class="edge">
<title>Node20&#45;&gt;Node23</title>
<path fill="none" stroke="#63b8ff" d="M597.64,-85.55C610.98,-81.22 625.63,-76.47 639.51,-71.97"/>
<polygon fill="#63b8ff" stroke="#63b8ff" points="640.57,-75.3 649.01,-68.89 638.41,-68.65 640.57,-75.3"/>
</g>
<!-- Node24 -->
<g id="node24" class="node">
<title>Node24</title>
<g id="a_node24"><a xlink:href="a01353.html#a22ebf97e859ef651e81deb40b74f668f" target="_top" xlink:title=" ">
<polygon fill="white" stroke="#666666" points="758.5,-164 639.5,-164 639.5,-134 758.5,-134 758.5,-164"/>
<text text-anchor="start" x="647.5" y="-152" font-family="Helvetica,sans-Serif" font-size="10.00">HF::RayTracer::MultiRT</text>
<text text-anchor="middle" x="699" y="-141" font-family="Helvetica,sans-Serif" font-size="10.00">::Occluded</text>
</a>
</g>
</g>
<!-- Node20&#45;&gt;Node24 -->
<g id="edge24" class="edge">
<title>Node20&#45;&gt;Node24</title>
<path fill="none" stroke="#63b8ff" d="M597.64,-116.45C610.98,-120.78 625.63,-125.53 639.51,-130.03"/>
<polygon fill="#63b8ff" stroke="#63b8ff" points="638.41,-133.35 649.01,-133.11 640.57,-126.7 638.41,-133.35"/>
</g>
<!-- Node22 -->
<g id="node22" class="node">
<title>Node22</title>
<g id="a_node22"><a xlink:href="a00397.html#ad2e09e0825a1db4fc511907179eddf00" target="_top" xlink:title="Normalize a vector.">
<polygon fill="white" stroke="#666666" points="917.5,-116 813.5,-116 813.5,-86 917.5,-86 917.5,-116"/>
<text text-anchor="start" x="821.5" y="-104" font-family="Helvetica,sans-Serif" font-size="10.00">HF::GraphGenerator</text>
<text text-anchor="middle" x="865.5" y="-93" font-family="Helvetica,sans-Serif" font-size="10.00">::Normalize</text>
</a>
</g>
</g>
<!-- Node21&#45;&gt;Node22 -->
<g id="edge22" class="edge">
<title>Node21&#45;&gt;Node22</title>
<path fill="none" stroke="#63b8ff" d="M751.15,-101C767.16,-101 785.02,-101 801.74,-101"/>
<polygon fill="#63b8ff" stroke="#63b8ff" points="801.59,-104.5 811.59,-101 801.59,-97.5 801.59,-104.5"/>
</g>
<!-- Node24&#45;&gt;Node24 -->
<g id="edge25" class="edge">
<title>Node24&#45;&gt;Node24</title>
<path fill="none" stroke="#63b8ff" d="M672.63,-164.28C666.77,-173.41 675.56,-182 699,-182 711.82,-182 720.25,-179.43 724.31,-175.61"/>
<polygon fill="#63b8ff" stroke="#63b8ff" points="727.78,-176.06 725.23,-165.78 720.81,-175.41 727.78,-176.06"/>
</g>
<!-- Node26&#45;&gt;Node8 -->
<g id="edge30" class="edge">
<title>Node26&#45;&gt;Node8</title>
<path fill="none" stroke="#63b8ff" d="M305.74,-164.48C310.78,-166.95 315.63,-169.77 320,-173 341.46,-188.83 335.29,-204.2 356,-221 357.1,-221.89 358.24,-222.76 359.4,-223.6"/>
<polygon fill="#63b8ff" stroke="#63b8ff" points="357.23,-226.37 367.55,-228.77 360.98,-220.46 357.23,-226.37"/>
</g>
<!-- Node27 -->
<g id="node27" class="node">
<title>Node27</title>
<g id="a_node27"><a xlink:href="a01249.html#a4aab642bf2c86a04f6890711ab7f2437" target="_top" xlink:title="Remove the topmost node from the queue and return it.">
<polygon fill="white" stroke="#666666" points="460.5,-212 356.5,-212 356.5,-182 460.5,-182 460.5,-212"/>
<text text-anchor="start" x="364.5" y="-200" font-family="Helvetica,sans-Serif" font-size="10.00">HF::GraphGenerator</text>
<text text-anchor="middle" x="408.5" y="-189" font-family="Helvetica,sans-Serif" font-size="10.00">::UniqueQueue::pop</text>
</a>
</g>
</g>
<!-- Node26&#45;&gt;Node27 -->
<g id="edge29" class="edge">
<title>Node26&#45;&gt;Node27</title>
<path fill="none" stroke="#63b8ff" d="M302.74,-164.45C316.79,-168.82 332.25,-173.62 346.88,-178.17"/>
<polygon fill="#63b8ff" stroke="#63b8ff" points="345.82,-181.5 356.41,-181.13 347.9,-174.82 345.82,-181.5"/>
</g>
</g>
</svg>
