<?xml version="1.0" encoding="UTF-8" standalone="no"?>
<!DOCTYPE svg PUBLIC "-//W3C//DTD SVG 1.1//EN"
 "http://www.w3.org/Graphics/SVG/1.1/DTD/svg11.dtd">
<!-- Generated by graphviz version 8.0.5 (20230430.1635)
 -->
<!-- Title: HF::Exceptions::NoCost Pages: 1 -->
<svg width="187pt" height="165pt"
 viewBox="0.00 0.00 186.88 165.00" xmlns="http://www.w3.org/2000/svg" xmlns:xlink="http://www.w3.org/1999/xlink">
<g id="graph0" class="graph" transform="scale(1 1) rotate(0) translate(4 161)">
<title>HF::Exceptions::NoCost</title>
<!-- Node1 -->
<g id="node1" class="node">
<title>Node1</title>
<g id="a_node1"><a xlink:title="Thrown when a dependency is missing such as Embree.">
<polygon fill="#999999" stroke="#666666" points="121.75,-20 0,-20 0,0 121.75,0 121.75,-20"/>
<text text-anchor="middle" x="60.88" y="-6.5" font-family="Helvetica,sans-Serif" font-size="10.00">HF::Exceptions::NoCost</text>
</a>
</g>
</g>
<!-- Node2 -->
<g id="node2" class="node">
<title>Node2</title>
<g id="a_node2"><a xlink:title=" ">
<polygon fill="white" stroke="#666666" points="83.63,-88 6.13,-88 6.13,-68 83.63,-68 83.63,-88"/>
<text text-anchor="middle" x="44.88" y="-74.5" font-family="Helvetica,sans-Serif" font-size="10.00">std::exception</text>
</a>
</g>
</g>
<!-- Node2&#45;&gt;Node1 -->
<g id="edge1" class="edge">
<title>Node2&#45;&gt;Node1</title>
<path fill="none" stroke="#63b8ff" d="M49.72,-57.03C52.66,-44.89 56.28,-29.94 58.59,-20.44"/>
<polygon fill="#63b8ff" stroke="#63b8ff" points="46.12,-56 47.17,-66.54 52.92,-57.65 46.12,-56"/>
</g>
<!-- Node3 -->
<g id="node3" class="node">
<title>Node3</title>
<g id="a_node3"><a xlink:title=" ">
<polygon fill="white" stroke="#666666" points="161.63,-88 102.13,-88 102.13,-68 161.63,-68 161.63,-88"/>
<text text-anchor="middle" x="131.88" y="-74.5" font-family="Helvetica,sans-Serif" font-size="10.00">std::string</text>
</a>
</g>
</g>
<!-- Node3&#45;&gt;Node1 -->
<g id="edge2" class="edge">
<title>Node3&#45;&gt;Node1</title>
<path fill="none" stroke="#9a32cd" stroke-dasharray="5,2" d="M113.94,-60.33C100.36,-47.71 82.2,-30.82 71.03,-20.44"/>
<polygon fill="#9a32cd" stroke="#9a32cd" points="111,-62.3 120.7,-66.54 115.76,-57.17 111,-62.3"/>
<text text-anchor="middle" x="124.75" y="-40.5" font-family="Helvetica,sans-Serif" font-size="10.00"> cost_type</text>
</g>
<!-- Node4 -->
<g id="node4" class="node">
<title>Node4</title>
<g id="a_node4"><a xlink:title=" ">
<polygon fill="white" stroke="#666666" points="178.88,-157 84.88,-157 84.88,-125 178.88,-125 178.88,-157"/>
<text text-anchor="start" x="92.88" y="-143.5" font-family="Helvetica,sans-Serif" font-size="10.00">std::basic_string&lt;</text>
<text text-anchor="middle" x="131.88" y="-131.5" font-family="Helvetica,sans-Serif" font-size="10.00"> Char &gt;</text>
</a>
</g>
</g>
<!-- Node4&#45;&gt;Node3 -->
<g id="edge3" class="edge">
<title>Node4&#45;&gt;Node3</title>
<path fill="none" stroke="#63b8ff" d="M131.88,-113.67C131.88,-104.62 131.88,-95.08 131.88,-88.31"/>
<polygon fill="#63b8ff" stroke="#63b8ff" points="128.38,-113.61 131.88,-123.61 135.38,-113.61 128.38,-113.61"/>
</g>
</g>
</svg>
