<?xml version="1.0" encoding="UTF-8" standalone="no"?>
<!DOCTYPE svg PUBLIC "-//W3C//DTD SVG 1.1//EN"
 "http://www.w3.org/Graphics/SVG/1.1/DTD/svg11.dtd">
<!-- Generated by graphviz version 2.43.0 (0)
 -->
<!-- Title: HF::GraphGenerator::UniqueQueue Pages: 1 -->
<svg width="707pt" height="132pt"
 viewBox="0.00 0.00 707.00 132.00" xmlns="http://www.w3.org/2000/svg" xmlns:xlink="http://www.w3.org/1999/xlink">
<g id="graph0" class="graph" transform="scale(1 1) rotate(0) translate(4 128)">
<title>HF::GraphGenerator::UniqueQueue</title>
<polygon fill="white" stroke="transparent" points="-4,4 -4,-128 703,-128 703,4 -4,4"/>
<!-- Node1 -->
<g id="node1" class="node">
<title>Node1</title>
<g id="a_node1"><a xlink:title="A queue that remembers every object inserted, and prevents the addition of nodes that have already be...">
<polygon fill="#bfbfbf" stroke="black" points="586,-61 586,-91 699,-91 699,-61 586,-61"/>
<text text-anchor="start" x="594" y="-79" font-family="Helvetica,sans-Serif" font-size="10.00">HF::GraphGenerator</text>
<text text-anchor="middle" x="642.5" y="-68" font-family="Helvetica,sans-Serif" font-size="10.00">::UniqueQueue</text>
</a>
</g>
</g>
<!-- Node2 -->
<g id="node2" class="node">
<title>Node2</title>
<g id="a_node2"><a xlink:title=" ">
<polygon fill="white" stroke="#bfbfbf" points="329.5,-82.5 329.5,-123.5 463.5,-123.5 463.5,-82.5 329.5,-82.5"/>
<text text-anchor="start" x="337.5" y="-111.5" font-family="Helvetica,sans-Serif" font-size="10.00">unordered_map&lt; HF::</text>
<text text-anchor="start" x="337.5" y="-100.5" font-family="Helvetica,sans-Serif" font-size="10.00">SpatialStructures::Node,</text>
<text text-anchor="middle" x="396.5" y="-89.5" font-family="Helvetica,sans-Serif" font-size="10.00"> int &gt;</text>
</a>
</g>
</g>
<!-- Node2&#45;&gt;Node1 -->
<g id="edge1" class="edge">
<title>Node2&#45;&gt;Node1</title>
<path fill="none" stroke="#9a32cd" stroke-dasharray="5,2" d="M473.59,-94.58C509.88,-90.56 552.52,-85.85 585.75,-82.17"/>
<polygon fill="#9a32cd" stroke="#9a32cd" points="473.08,-91.11 463.53,-95.69 473.85,-98.07 473.08,-91.11"/>
<text text-anchor="middle" x="536.5" y="-93" font-family="Helvetica,sans-Serif" font-size="10.00"> hashmap</text>
</g>
<!-- Node3 -->
<g id="node3" class="node">
<title>Node3</title>
<g id="a_node3"><a xlink:title=" ">
<polygon fill="white" stroke="#bfbfbf" points="306,-33 306,-63 487,-63 487,-33 306,-33"/>
<text text-anchor="start" x="314" y="-51" font-family="Helvetica,sans-Serif" font-size="10.00">std::queue&lt; HF::SpatialStructures</text>
<text text-anchor="middle" x="396.5" y="-40" font-family="Helvetica,sans-Serif" font-size="10.00">::Node &gt;</text>
</a>
</g>
</g>
<!-- Node3&#45;&gt;Node1 -->
<g id="edge2" class="edge">
<title>Node3&#45;&gt;Node1</title>
<path fill="none" stroke="#9a32cd" stroke-dasharray="5,2" d="M497.47,-59.47C527.66,-62.94 559.7,-66.61 585.89,-69.62"/>
<polygon fill="#9a32cd" stroke="#9a32cd" points="497.65,-55.97 487.32,-58.31 496.85,-62.92 497.65,-55.97"/>
<text text-anchor="middle" x="536.5" y="-69" font-family="Helvetica,sans-Serif" font-size="10.00"> node_queue</text>
</g>
<!-- Node4 -->
<g id="node4" class="node">
<title>Node4</title>
<g id="a_node4"><a xlink:href="a02017.html" target="_top" xlink:title="A point in space with an ID.">
<polygon fill="white" stroke="black" points="102,-33 102,-63 221,-63 221,-33 102,-33"/>
<text text-anchor="start" x="110" y="-51" font-family="Helvetica,sans-Serif" font-size="10.00">HF::SpatialStructures</text>
<text text-anchor="middle" x="161.5" y="-40" font-family="Helvetica,sans-Serif" font-size="10.00">::Node</text>
</a>
</g>
</g>
<!-- Node4&#45;&gt;Node3 -->
<g id="edge3" class="edge">
<title>Node4&#45;&gt;Node3</title>
<path fill="none" stroke="#9a32cd" stroke-dasharray="5,2" d="M231.43,-48C254.76,-48 281.16,-48 305.85,-48"/>
<polygon fill="#9a32cd" stroke="#9a32cd" points="231.3,-44.5 221.3,-48 231.3,-51.5 231.3,-44.5"/>
<text text-anchor="middle" x="263.5" y="-51" font-family="Helvetica,sans-Serif" font-size="10.00"> elements</text>
</g>
<!-- Node5 -->
<g id="node5" class="node">
<title>Node5</title>
<g id="a_node5"><a xlink:title=" ">
<polygon fill="white" stroke="#bfbfbf" points="0,-94.5 0,-113.5 41,-113.5 41,-94.5 0,-94.5"/>
<text text-anchor="middle" x="20.5" y="-101.5" font-family="Helvetica,sans-Serif" font-size="10.00">short</text>
</a>
</g>
</g>
<!-- Node5&#45;&gt;Node4 -->
<g id="edge4" class="edge">
<title>Node5&#45;&gt;Node4</title>
<path fill="none" stroke="#9a32cd" stroke-dasharray="5,2" d="M50.68,-94.27C61.25,-90.6 73.23,-86.28 84,-82 98.59,-76.2 114.48,-69.24 127.98,-63.14"/>
<polygon fill="#9a32cd" stroke="#9a32cd" points="49.4,-91.01 41.07,-97.56 51.67,-97.63 49.4,-91.01"/>
<text text-anchor="middle" x="71.5" y="-93" font-family="Helvetica,sans-Serif" font-size="10.00"> type</text>
</g>
<!-- Node6 -->
<g id="node6" class="node">
<title>Node6</title>
<g id="a_node6"><a xlink:title=" ">
<polygon fill="white" stroke="#bfbfbf" points="1.5,-38.5 1.5,-57.5 39.5,-57.5 39.5,-38.5 1.5,-38.5"/>
<text text-anchor="middle" x="20.5" y="-45.5" font-family="Helvetica,sans-Serif" font-size="10.00">float</text>
</a>
</g>
</g>
<!-- Node6&#45;&gt;Node4 -->
<g id="edge5" class="edge">
<title>Node6&#45;&gt;Node4</title>
<path fill="none" stroke="#9a32cd" stroke-dasharray="5,2" d="M49.84,-48C64.88,-48 83.94,-48 101.98,-48"/>
<polygon fill="#9a32cd" stroke="#9a32cd" points="49.67,-44.5 39.67,-48 49.67,-51.5 49.67,-44.5"/>
<text text-anchor="middle" x="71.5" y="-73" font-family="Helvetica,sans-Serif" font-size="10.00"> x</text>
<text text-anchor="middle" x="71.5" y="-62" font-family="Helvetica,sans-Serif" font-size="10.00">y</text>
<text text-anchor="middle" x="71.5" y="-51" font-family="Helvetica,sans-Serif" font-size="10.00">z</text>
</g>
<!-- Node7 -->
<g id="node7" class="node">
<title>Node7</title>
<g id="a_node7"><a xlink:title=" ">
<polygon fill="white" stroke="#bfbfbf" points="6,-0.5 6,-19.5 35,-19.5 35,-0.5 6,-0.5"/>
<text text-anchor="middle" x="20.5" y="-7.5" font-family="Helvetica,sans-Serif" font-size="10.00">int</text>
</a>
</g>
</g>
<!-- Node7&#45;&gt;Node4 -->
<g id="edge6" class="edge">
<title>Node7&#45;&gt;Node4</title>
<path fill="none" stroke="#9a32cd" stroke-dasharray="5,2" d="M44.97,-16.42C61.53,-20.94 84.43,-27.2 105.48,-32.96"/>
<polygon fill="#9a32cd" stroke="#9a32cd" points="45.65,-12.97 35.08,-13.71 43.8,-19.73 45.65,-12.97"/>
<text text-anchor="middle" x="71.5" y="-30" font-family="Helvetica,sans-Serif" font-size="10.00"> id</text>
</g>
</g>
</svg>
