<?xml version="1.0" encoding="UTF-8" standalone="no"?>
<!DOCTYPE svg PUBLIC "-//W3C//DTD SVG 1.1//EN"
 "http://www.w3.org/Graphics/SVG/1.1/DTD/svg11.dtd">
<!-- Generated by graphviz version 8.0.5 (20230430.1635)
 -->
<!-- Title: HF::Geometry::MeshInfo&lt; numeric_type &gt; Pages: 1 -->
<svg width="322pt" height="177pt"
 viewBox="0.00 0.00 322.40 177.00" xmlns="http://www.w3.org/2000/svg" xmlns:xlink="http://www.w3.org/1999/xlink">
<g id="graph0" class="graph" transform="scale(1 1) rotate(0) translate(4 173)">
<title>HF::Geometry::MeshInfo&lt; numeric_type &gt;</title>
<!-- Node1 -->
<g id="node1" class="node">
<title>Node1</title>
<g id="a_node1"><a xlink:title="A collection of vertices and indices representing geometry.">
<polygon fill="#999999" stroke="#666666" points="204.65,-32 82.15,-32 82.15,0 204.65,0 204.65,-32"/>
<text text-anchor="start" x="90.15" y="-18.5" font-family="Helvetica,sans-Serif" font-size="10.00">HF::Geometry::MeshInfo</text>
<text text-anchor="middle" x="143.4" y="-6.5" font-family="Helvetica,sans-Serif" font-size="10.00">&lt; numeric_type &gt;</text>
</a>
</g>
</g>
<!-- Node2 -->
<g id="node2" class="node">
<title>Node2</title>
<g id="a_node2"><a xlink:title=" ">
<polygon fill="white" stroke="#666666" points="28.8,-100 0,-100 0,-80 28.8,-80 28.8,-100"/>
<text text-anchor="middle" x="14.4" y="-86.5" font-family="Helvetica,sans-Serif" font-size="10.00">int</text>
</a>
</g>
</g>
<!-- Node2&#45;&gt;Node1 -->
<g id="edge1" class="edge">
<title>Node2&#45;&gt;Node1</title>
<path fill="none" stroke="#9a32cd" stroke-dasharray="5,2" d="M32.57,-72.72C41.57,-65.18 52.86,-56.48 63.9,-50 75.24,-43.35 88.18,-37.37 100.28,-32.39"/>
<polygon fill="#9a32cd" stroke="#9a32cd" points="30.7,-70.57 25.42,-79.75 35.28,-75.87 30.7,-70.57"/>
<text text-anchor="middle" x="81.65" y="-52.5" font-family="Helvetica,sans-Serif" font-size="10.00"> meshid</text>
</g>
<!-- Node3 -->
<g id="node3" class="node">
<title>Node3</title>
<g id="a_node3"><a xlink:title=" ">
<polygon fill="white" stroke="#666666" points="106.15,-100 46.65,-100 46.65,-80 106.15,-80 106.15,-100"/>
<text text-anchor="middle" x="76.4" y="-86.5" font-family="Helvetica,sans-Serif" font-size="10.00">std::string</text>
</a>
</g>
</g>
<!-- Node3&#45;&gt;Node1 -->
<g id="edge2" class="edge">
<title>Node3&#45;&gt;Node1</title>
<path fill="none" stroke="#9a32cd" stroke-dasharray="5,2" d="M92.52,-71.67C103.64,-59.73 118.28,-43.99 129,-32.47"/>
<polygon fill="#9a32cd" stroke="#9a32cd" points="90.41,-68.88 86.16,-78.59 95.53,-73.65 90.41,-68.88"/>
<text text-anchor="middle" x="125.9" y="-52.5" font-family="Helvetica,sans-Serif" font-size="10.00"> name</text>
</g>
<!-- Node4 -->
<g id="node4" class="node">
<title>Node4</title>
<g id="a_node4"><a xlink:title=" ">
<polygon fill="white" stroke="#666666" points="123.4,-169 29.4,-169 29.4,-137 123.4,-137 123.4,-169"/>
<text text-anchor="start" x="37.4" y="-155.5" font-family="Helvetica,sans-Serif" font-size="10.00">std::basic_string&lt;</text>
<text text-anchor="middle" x="76.4" y="-143.5" font-family="Helvetica,sans-Serif" font-size="10.00"> Char &gt;</text>
</a>
</g>
</g>
<!-- Node4&#45;&gt;Node3 -->
<g id="edge3" class="edge">
<title>Node4&#45;&gt;Node3</title>
<path fill="none" stroke="#63b8ff" d="M76.4,-125.67C76.4,-116.62 76.4,-107.08 76.4,-100.31"/>
<polygon fill="#63b8ff" stroke="#63b8ff" points="72.9,-125.61 76.4,-135.61 79.9,-125.61 72.9,-125.61"/>
</g>
<!-- Node5 -->
<g id="node5" class="node">
<title>Node5</title>
<g id="a_node5"><a xlink:title=" ">
<polygon fill="white" stroke="#666666" points="214.15,-100 124.65,-100 124.65,-80 214.15,-80 214.15,-100"/>
<text text-anchor="middle" x="169.4" y="-86.5" font-family="Helvetica,sans-Serif" font-size="10.00">Matrix3X&lt; float &gt;</text>
</a>
</g>
</g>
<!-- Node5&#45;&gt;Node1 -->
<g id="edge4" class="edge">
<title>Node5&#45;&gt;Node1</title>
<path fill="none" stroke="#9a32cd" stroke-dasharray="5,2" d="M162.38,-69.55C158.17,-57.91 152.91,-43.32 148.99,-32.47"/>
<polygon fill="#9a32cd" stroke="#9a32cd" points="159.31,-70.37 166,-78.59 165.9,-67.99 159.31,-70.37"/>
<text text-anchor="middle" x="172.03" y="-52.5" font-family="Helvetica,sans-Serif" font-size="10.00"> verts</text>
</g>
<!-- Node6 -->
<g id="node6" class="node">
<title>Node6</title>
<g id="a_node6"><a xlink:title=" ">
<polygon fill="white" stroke="#666666" points="314.4,-100 232.4,-100 232.4,-80 314.4,-80 314.4,-100"/>
<text text-anchor="middle" x="273.4" y="-86.5" font-family="Helvetica,sans-Serif" font-size="10.00">Matrix3X&lt; int &gt;</text>
</a>
</g>
</g>
<!-- Node6&#45;&gt;Node1 -->
<g id="edge5" class="edge">
<title>Node6&#45;&gt;Node1</title>
<path fill="none" stroke="#9a32cd" stroke-dasharray="5,2" d="M247.01,-74.39C225.01,-62.2 193.75,-44.89 171.33,-32.47"/>
<polygon fill="#9a32cd" stroke="#9a32cd" points="244.96,-77.8 255.4,-79.59 248.35,-71.68 244.96,-77.8"/>
<text text-anchor="middle" x="240.28" y="-52.5" font-family="Helvetica,sans-Serif" font-size="10.00"> indices</text>
</g>
</g>
</svg>
