<?xml version="1.0" encoding="UTF-8" standalone="no"?>
<!DOCTYPE svg PUBLIC "-//W3C//DTD SVG 1.1//EN"
 "http://www.w3.org/Graphics/SVG/1.1/DTD/svg11.dtd">
<!-- Generated by graphviz version 7.0.2 (20221119.0110)
 -->
<!-- Title: HF::GraphGenerator::GraphParams Pages: 1 -->
<svg width="348pt" height="294pt"
 viewBox="0.00 0.00 347.84 294.00" xmlns="http://www.w3.org/2000/svg" xmlns:xlink="http://www.w3.org/1999/xlink">
<g id="graph0" class="graph" transform="scale(1 1) rotate(0) translate(4 290)">
<title>HF::GraphGenerator::GraphParams</title>
<!-- Node1 -->
<g id="node1" class="node">
<title>Node1</title>
<g id="a_node1"><a xlink:title="Holds parameters for the GraphGenerator.">
<polygon fill="#999999" stroke="#666666" points="175.34,-30 71.34,-30 71.34,0 175.34,0 175.34,-30"/>
<text text-anchor="start" x="79.34" y="-18" font-family="Helvetica,sans-Serif" font-size="10.00">HF::GraphGenerator</text>
<text text-anchor="middle" x="123.34" y="-7" font-family="Helvetica,sans-Serif" font-size="10.00">::GraphParams</text>
</a>
</g>
</g>
<!-- Node2 -->
<g id="node2" class="node">
<title>Node2</title>
<g id="a_node2"><a xlink:href="a00001.html#a02073" target="_top" xlink:title=" ">
<polygon fill="white" stroke="#666666" points="79.84,-214.5 34.84,-214.5 34.84,-195.5 79.84,-195.5 79.84,-214.5"/>
<text text-anchor="middle" x="57.34" y="-202.5" font-family="Helvetica,sans-Serif" font-size="10.00">double</text>
</a>
</g>
</g>
<!-- Node2&#45;&gt;Node1 -->
<g id="edge1" class="edge">
<title>Node2&#45;&gt;Node1</title>
<path fill="none" stroke="#9a32cd" stroke-dasharray="5,2" d="M40.91,-186.72C18.97,-161.47 -14.71,-113.51 7.34,-77 21.28,-53.92 47.17,-39.14 70.96,-29.91"/>
<polygon fill="#9a32cd" stroke="#9a32cd" points="38.28,-189.03 47.59,-194.1 43.47,-184.33 38.28,-189.03"/>
<text text-anchor="middle" x="34.84" y="-113" font-family="Helvetica,sans-Serif" font-size="10.00"> down_slope</text>
<text text-anchor="middle" x="34.84" y="-102" font-family="Helvetica,sans-Serif" font-size="10.00">down_step</text>
<text text-anchor="middle" x="34.84" y="-91" font-family="Helvetica,sans-Serif" font-size="10.00">up_slope</text>
<text text-anchor="middle" x="34.84" y="-80" font-family="Helvetica,sans-Serif" font-size="10.00">up_step</text>
</g>
<!-- Node3 -->
<g id="node3" class="node">
<title>Node3</title>
<g id="a_node3"><a xlink:href="a00397.html#a01229" target="_top" xlink:title="Various parameters to set the precision of certain parts of the graph generator.">
<polygon fill="white" stroke="#666666" points="175.34,-114 71.34,-114 71.34,-84 175.34,-84 175.34,-114"/>
<text text-anchor="start" x="79.34" y="-102" font-family="Helvetica,sans-Serif" font-size="10.00">HF::GraphGenerator</text>
<text text-anchor="middle" x="123.34" y="-91" font-family="Helvetica,sans-Serif" font-size="10.00">::Precision</text>
</a>
</g>
</g>
<!-- Node2&#45;&gt;Node3 -->
<g id="edge3" class="edge">
<title>Node2&#45;&gt;Node3</title>
<path fill="none" stroke="#9a32cd" stroke-dasharray="5,2" d="M66.83,-185.14C73.71,-171.92 83.49,-154.01 93.34,-139 98.87,-130.57 105.68,-121.63 111.41,-114.43"/>
<polygon fill="#9a32cd" stroke="#9a32cd" points="63.73,-183.5 62.3,-194 69.97,-186.69 63.73,-183.5"/>
<text text-anchor="middle" x="123.84" y="-164" font-family="Helvetica,sans-Serif" font-size="10.00"> ground_offset</text>
<text text-anchor="middle" x="123.84" y="-153" font-family="Helvetica,sans-Serif" font-size="10.00">node_spacing</text>
<text text-anchor="middle" x="123.84" y="-142" font-family="Helvetica,sans-Serif" font-size="10.00">node_z</text>
</g>
<!-- Node3&#45;&gt;Node1 -->
<g id="edge2" class="edge">
<title>Node3&#45;&gt;Node1</title>
<path fill="none" stroke="#9a32cd" stroke-dasharray="5,2" d="M123.34,-72.45C123.34,-58.6 123.34,-42 123.34,-30.39"/>
<polygon fill="#9a32cd" stroke="#9a32cd" points="119.84,-72.2 123.34,-82.2 126.84,-72.2 119.84,-72.2"/>
<text text-anchor="middle" x="144.84" y="-51" font-family="Helvetica,sans-Serif" font-size="10.00"> precision</text>
</g>
<!-- Node4 -->
<g id="node4" class="node">
<title>Node4</title>
<g id="a_node4"><a xlink:href="a01233.html" target="_top" xlink:title="Manages rules and ids for different types of geometry in the graph generator.">
<polygon fill="white" stroke="#666666" points="297.34,-114 193.34,-114 193.34,-84 297.34,-84 297.34,-114"/>
<text text-anchor="start" x="201.34" y="-102" font-family="Helvetica,sans-Serif" font-size="10.00">HF::GraphGenerator</text>
<text text-anchor="middle" x="245.34" y="-91" font-family="Helvetica,sans-Serif" font-size="10.00">::GeometryFlagMap</text>
</a>
</g>
</g>
<!-- Node4&#45;&gt;Node1 -->
<g id="edge4" class="edge">
<title>Node4&#45;&gt;Node1</title>
<path fill="none" stroke="#9a32cd" stroke-dasharray="5,2" d="M214.33,-77.16C192.53,-62.5 163.93,-43.28 144.66,-30.33"/>
<polygon fill="#9a32cd" stroke="#9a32cd" points="212.3,-80.01 222.56,-82.68 216.21,-74.2 212.3,-80.01"/>
<text text-anchor="middle" x="207.34" y="-51" font-family="Helvetica,sans-Serif" font-size="10.00"> geom_ids</text>
</g>
<!-- Node5 -->
<g id="node5" class="node">
<title>Node5</title>
<g id="a_node5"><a xlink:title=" ">
<polygon fill="white" stroke="#666666" points="216.84,-220 113.84,-220 113.84,-190 216.84,-190 216.84,-220"/>
<text text-anchor="start" x="121.84" y="-208" font-family="Helvetica,sans-Serif" font-size="10.00">std::unordered_map</text>
<text text-anchor="middle" x="165.34" y="-197" font-family="Helvetica,sans-Serif" font-size="10.00">&lt; int, HIT_FLAG &gt;</text>
</a>
</g>
</g>
<!-- Node5&#45;&gt;Node4 -->
<g id="edge5" class="edge">
<title>Node5&#45;&gt;Node4</title>
<path fill="none" stroke="#9a32cd" stroke-dasharray="5,2" d="M164.65,-178.37C165.48,-165.54 168.37,-150.36 176.34,-139 183.77,-128.41 195.05,-120.34 206.35,-114.37"/>
<polygon fill="#9a32cd" stroke="#9a32cd" points="161.16,-178.16 164.42,-188.24 168.15,-178.33 161.16,-178.16"/>
<text text-anchor="middle" x="217.34" y="-153" font-family="Helvetica,sans-Serif" font-size="10.00"> internal_dictionary</text>
</g>
<!-- Node6 -->
<g id="node6" class="node">
<title>Node6</title>
<g id="a_node6"><a xlink:title=" ">
<polygon fill="white" stroke="#666666" points="147.84,-286 118.84,-286 118.84,-267 147.84,-267 147.84,-286"/>
<text text-anchor="middle" x="133.34" y="-274" font-family="Helvetica,sans-Serif" font-size="10.00">int</text>
</a>
</g>
</g>
<!-- Node6&#45;&gt;Node5 -->
<g id="edge6" class="edge">
<title>Node6&#45;&gt;Node5</title>
<path fill="none" stroke="#9a32cd" stroke-dasharray="5,2" d="M142,-256.29C144.66,-250.41 147.61,-243.93 150.34,-238 153.01,-232.21 155.99,-225.84 158.58,-220.32"/>
<polygon fill="#9a32cd" stroke="#9a32cd" points="138.91,-254.61 137.99,-265.17 145.29,-257.49 138.91,-254.61"/>
<text text-anchor="middle" x="162.84" y="-241" font-family="Helvetica,sans-Serif" font-size="10.00"> keys</text>
</g>
<!-- Node7 -->
<g id="node7" class="node">
<title>Node7</title>
<g id="a_node7"><a xlink:title=" ">
<polygon fill="white" stroke="#666666" points="228.34,-286 166.34,-286 166.34,-267 228.34,-267 228.34,-286"/>
<text text-anchor="middle" x="197.34" y="-274" font-family="Helvetica,sans-Serif" font-size="10.00">HIT_FLAG</text>
</a>
</g>
</g>
<!-- Node7&#45;&gt;Node5 -->
<g id="edge7" class="edge">
<title>Node7&#45;&gt;Node5</title>
<path fill="none" stroke="#9a32cd" stroke-dasharray="5,2" d="M188.58,-256.47C183.32,-245.04 176.73,-230.73 171.92,-220.27"/>
<polygon fill="#9a32cd" stroke="#9a32cd" points="185.3,-257.7 192.66,-265.32 191.65,-254.78 185.3,-257.7"/>
<text text-anchor="middle" x="205.84" y="-241" font-family="Helvetica,sans-Serif" font-size="10.00"> elements</text>
</g>
<!-- Node8 -->
<g id="node8" class="node">
<title>Node8</title>
<g id="a_node8"><a xlink:title=" ">
<polygon fill="white" stroke="#666666" points="339.84,-214.5 234.84,-214.5 234.84,-195.5 339.84,-195.5 339.84,-214.5"/>
<text text-anchor="middle" x="287.34" y="-202.5" font-family="Helvetica,sans-Serif" font-size="10.00">GeometryFilterMode</text>
</a>
</g>
</g>
<!-- Node8&#45;&gt;Node4 -->
<g id="edge8" class="edge">
<title>Node8&#45;&gt;Node4</title>
<path fill="none" stroke="#9a32cd" stroke-dasharray="5,2" d="M280.16,-184.65C275.27,-171.68 268.59,-154.25 262.34,-139 258.98,-130.8 255.03,-121.72 251.79,-114.38"/>
<polygon fill="#9a32cd" stroke="#9a32cd" points="276.76,-185.56 283.54,-193.7 283.32,-183.11 276.76,-185.56"/>
<text text-anchor="middle" x="289.34" y="-153" font-family="Helvetica,sans-Serif" font-size="10.00"> Mode</text>
</g>
</g>
</svg>
