<?xml version="1.0" encoding="UTF-8" standalone="no"?>
<!DOCTYPE svg PUBLIC "-//W3C//DTD SVG 1.1//EN"
 "http://www.w3.org/Graphics/SVG/1.1/DTD/svg11.dtd">
<!-- Generated by graphviz version 8.0.5 (20230430.1635)
 -->
<!-- Title: HF::GraphGenerator::GeometryFlagMap::SetGeometryIds Pages: 1 -->
<svg width="375pt" height="102pt"
 viewBox="0.00 0.00 375.25 102.00" xmlns="http://www.w3.org/2000/svg" xmlns:xlink="http://www.w3.org/1999/xlink">
<g id="graph0" class="graph" transform="scale(1 1) rotate(0) translate(4 98)">
<title>HF::GraphGenerator::GeometryFlagMap::SetGeometryIds</title>
<!-- Node1 -->
<g id="node1" class="node">
<title>Node1</title>
<g id="a_node1"><a xlink:title="Set geometry ids as being walkable or obstacles.">
<polygon fill="#999999" stroke="#666666" points="178.75,-60 0,-60 0,-28 178.75,-28 178.75,-60"/>
<text text-anchor="start" x="8" y="-46.5" font-family="Helvetica,sans-Serif" font-size="10.00">HF::GraphGenerator</text>
<text text-anchor="middle" x="89.38" y="-34.5" font-family="Helvetica,sans-Serif" font-size="10.00">::GeometryFlagMap::SetGeometryIds</text>
</a>
</g>
</g>
<!-- Node2 -->
<g id="node2" class="node">
<title>Node2</title>
<g id="a_node2"><a xlink:href="a01233.html#aa6023b7a8de09fb747bd049938f1e5b8" target="_top" xlink:title="Set the filter mode of this GeometryFlagMap based on the input types.">
<polygon fill="white" stroke="#666666" points="367.25,-94 214.75,-94 214.75,-50 367.25,-50 367.25,-94"/>
<text text-anchor="start" x="222.75" y="-80.5" font-family="Helvetica,sans-Serif" font-size="10.00">HF::GraphGenerator</text>
<text text-anchor="start" x="222.75" y="-68.5" font-family="Helvetica,sans-Serif" font-size="10.00">::GeometryFlagMap::Determine</text>
<text text-anchor="middle" x="291" y="-56.5" font-family="Helvetica,sans-Serif" font-size="10.00">FilterMode</text>
</a>
</g>
</g>
<!-- Node1&#45;&gt;Node2 -->
<g id="edge1" class="edge">
<title>Node1&#45;&gt;Node2</title>
<path fill="none" stroke="#63b8ff" d="M179.1,-56.44C187.28,-57.59 195.56,-58.75 203.72,-59.9"/>
<polygon fill="#63b8ff" stroke="#63b8ff" points="202.97,-63.47 213.36,-61.39 203.94,-56.53 202.97,-63.47"/>
</g>
<!-- Node3 -->
<g id="node3" class="node">
<title>Node3</title>
<g id="a_node3"><a xlink:href="a01233.html#ac9dab2d023f758ccf718d1e7c8f98e31" target="_top" xlink:title="Set the value of a key in the internal dictionary.">
<polygon fill="white" stroke="#666666" points="352.63,-32 229.38,-32 229.38,0 352.63,0 352.63,-32"/>
<text text-anchor="start" x="237.38" y="-18.5" font-family="Helvetica,sans-Serif" font-size="10.00">HF::GraphGenerator</text>
<text text-anchor="middle" x="291" y="-6.5" font-family="Helvetica,sans-Serif" font-size="10.00">::GeometryFlagMap::Set</text>
</a>
</g>
</g>
<!-- Node1&#45;&gt;Node3 -->
<g id="edge2" class="edge">
<title>Node1&#45;&gt;Node3</title>
<path fill="none" stroke="#63b8ff" d="M179.1,-31.56C192.28,-29.71 205.72,-27.82 218.48,-26.03"/>
<polygon fill="#63b8ff" stroke="#63b8ff" points="218.61,-29.41 228.03,-24.55 217.64,-22.48 218.61,-29.41"/>
</g>
</g>
</svg>
