<?xml version="1.0" encoding="UTF-8" standalone="no"?>
<!DOCTYPE svg PUBLIC "-//W3C//DTD SVG 1.1//EN"
 "http://www.w3.org/Graphics/SVG/1.1/DTD/svg11.dtd">
<!-- Generated by graphviz version 4.0.0 (20220529.0937)
 -->
<!-- Title: HF::Pathfinding::DistanceAndPredecessor::GetRowOfPred Pages: 1 -->
<svg width="535pt" height="78pt"
 viewBox="0.00 0.00 535.00 77.50" xmlns="http://www.w3.org/2000/svg" xmlns:xlink="http://www.w3.org/1999/xlink">
<g id="graph0" class="graph" transform="scale(1 1) rotate(0) translate(4 73.5)">
<title>HF::Pathfinding::DistanceAndPredecessor::GetRowOfPred</title>
<polygon fill="white" stroke="transparent" points="-4,4 -4,-73.5 531,-73.5 531,4 -4,4"/>
<!-- Node1 -->
<g id="node1" class="node">
<title>Node1</title>
<g id="a_node1"><a xlink:title="Get a pointer to the beginning of the ith row of the predecessor array.">
<polygon fill="#bfbfbf" stroke="black" points="368,-17 368,-47 527,-47 527,-17 368,-17"/>
<text text-anchor="start" x="376" y="-35" font-family="Helvetica,sans-Serif" font-size="10.00">HF::Pathfinding::Distance</text>
<text text-anchor="middle" x="447.5" y="-24" font-family="Helvetica,sans-Serif" font-size="10.00">AndPredecessor::GetRowOfPred</text>
</a>
</g>
</g>
<!-- Node2 -->
<g id="node2" class="node">
<title>Node2</title>
<g id="a_node2"><a xlink:href="a00406.html#ab58662be8e56c333d74d60a823e810e3" target="_top" xlink:title="Generate the distance and predecessor matricies for a specific boost graph.">
<polygon fill="white" stroke="black" points="203,-39 203,-69 332,-69 332,-39 203,-39"/>
<text text-anchor="start" x="211" y="-57" font-family="Helvetica,sans-Serif" font-size="10.00">HF::Pathfinding::Generate</text>
<text text-anchor="middle" x="267.5" y="-46" font-family="Helvetica,sans-Serif" font-size="10.00">DistanceAndPred</text>
</a>
</g>
</g>
<!-- Node1&#45;&gt;Node2 -->
<g id="edge1" class="edge">
<title>Node1&#45;&gt;Node2</title>
<path fill="none" stroke="midnightblue" d="M357.81,-42.96C349.19,-44.03 340.56,-45.09 332.26,-46.12"/>
<polygon fill="midnightblue" stroke="midnightblue" points="358.41,-46.41 367.91,-41.71 357.55,-39.47 358.41,-46.41"/>
</g>
<!-- Node4 -->
<g id="node4" class="node">
<title>Node4</title>
<g id="a_node4"><a xlink:href="a00140.html#a13feb2f4c5d11a3eeea4ac367856d592" target="_top" xlink:title="An overload to print HF::Pathfinding::DistanceAndPredecessor when passed to cout .">
<polygon fill="white" stroke="black" points="235.5,-0.5 235.5,-19.5 299.5,-19.5 299.5,-0.5 235.5,-0.5"/>
<text text-anchor="middle" x="267.5" y="-7.5" font-family="Helvetica,sans-Serif" font-size="10.00">operator&lt;&lt;</text>
</a>
</g>
</g>
<!-- Node1&#45;&gt;Node4 -->
<g id="edge3" class="edge">
<title>Node1&#45;&gt;Node4</title>
<path fill="none" stroke="midnightblue" d="M357.73,-21.03C336.95,-18.46 316.16,-15.89 299.88,-13.88"/>
<polygon fill="midnightblue" stroke="midnightblue" points="357.55,-24.53 367.91,-22.29 358.41,-17.59 357.55,-24.53"/>
</g>
<!-- Node3 -->
<g id="node3" class="node">
<title>Node3</title>
<g id="a_node3"><a xlink:href="a00390.html#ga27b1f45019ccbda909301520d1c738ca" target="_top" xlink:title="Calculate the distance and predecessor matricies for a graph.">
<polygon fill="white" stroke="black" points="0,-44.5 0,-63.5 167,-63.5 167,-44.5 0,-44.5"/>
<text text-anchor="middle" x="83.5" y="-51.5" font-family="Helvetica,sans-Serif" font-size="10.00">CalculateDistanceAndPredecessor</text>
</a>
</g>
</g>
<!-- Node2&#45;&gt;Node3 -->
<g id="edge2" class="edge">
<title>Node2&#45;&gt;Node3</title>
<path fill="none" stroke="midnightblue" d="M192.75,-54C184.37,-54 175.79,-54 167.31,-54"/>
<polygon fill="midnightblue" stroke="midnightblue" points="192.85,-57.5 202.85,-54 192.85,-50.5 192.85,-57.5"/>
</g>
</g>
</svg>
