<?xml version="1.0" encoding="UTF-8" standalone="no"?>
<!DOCTYPE svg PUBLIC "-//W3C//DTD SVG 1.1//EN"
 "http://www.w3.org/Graphics/SVG/1.1/DTD/svg11.dtd">
<!-- Generated by graphviz version 2.43.0 (0)
 -->
<!-- Title: HF::RayTracer::EmbreeRayTracer::Occluded Pages: 1 -->
<svg width="953pt" height="254pt"
 viewBox="0.00 0.00 953.00 253.50" xmlns="http://www.w3.org/2000/svg" xmlns:xlink="http://www.w3.org/1999/xlink">
<g id="graph0" class="graph" transform="scale(1 1) rotate(0) translate(4 249.5)">
<title>HF::RayTracer::EmbreeRayTracer::Occluded</title>
<polygon fill="white" stroke="transparent" points="-4,4 -4,-249.5 949,-249.5 949,4 -4,4"/>
<!-- Node1 -->
<g id="node1" class="node">
<title>Node1</title>
<g id="a_node1"><a xlink:title="Determine if there is an intersection with any geometry.">
<polygon fill="#bfbfbf" stroke="black" points="799,-89 799,-119 945,-119 945,-89 799,-89"/>
<text text-anchor="start" x="807" y="-107" font-family="Helvetica,sans-Serif" font-size="10.00">HF::RayTracer::EmbreeRay</text>
<text text-anchor="middle" x="872" y="-96" font-family="Helvetica,sans-Serif" font-size="10.00">Tracer::Occluded</text>
</a>
</g>
</g>
<!-- Node2 -->
<g id="node2" class="node">
<title>Node2</title>
<g id="a_node2"><a xlink:href="a00401.html#af811d21e4c49275521912df9254bb737" target="_top" xlink:title="Check if Node can be raised by height without clipping into any geometry.">
<polygon fill="white" stroke="black" points="656,-135 656,-165 763,-165 763,-135 656,-135"/>
<text text-anchor="start" x="664" y="-153" font-family="Helvetica,sans-Serif" font-size="10.00">HF::VisibilityGraph</text>
<text text-anchor="middle" x="709.5" y="-142" font-family="Helvetica,sans-Serif" font-size="10.00">::HeightCheck</text>
</a>
</g>
</g>
<!-- Node1&#45;&gt;Node2 -->
<g id="edge1" class="edge">
<title>Node1&#45;&gt;Node2</title>
<path fill="none" stroke="midnightblue" d="M808.66,-121.87C793.53,-126.2 777.51,-130.79 762.9,-134.98"/>
<polygon fill="midnightblue" stroke="midnightblue" points="809.8,-125.18 818.45,-119.06 807.87,-118.45 809.8,-125.18"/>
</g>
<!-- Node17 -->
<g id="node17" class="node">
<title>Node17</title>
<g id="a_node17"><a xlink:href="a00401.html#a4d9cf77879eb78075f7f7b0a7e31119a" target="_top" xlink:title="Perform a line of sight check between two nodes.">
<polygon fill="white" stroke="black" points="495.5,-88 495.5,-118 616.5,-118 616.5,-88 495.5,-88"/>
<text text-anchor="start" x="503.5" y="-106" font-family="Helvetica,sans-Serif" font-size="10.00">HF::VisibilityGraph</text>
<text text-anchor="middle" x="556" y="-95" font-family="Helvetica,sans-Serif" font-size="10.00">::IsOcclusionBetween</text>
</a>
</g>
</g>
<!-- Node1&#45;&gt;Node17 -->
<g id="edge16" class="edge">
<title>Node1&#45;&gt;Node17</title>
<path fill="none" stroke="midnightblue" d="M788.72,-103.74C734.71,-103.57 665.31,-103.34 616.59,-103.19"/>
<polygon fill="midnightblue" stroke="midnightblue" points="788.95,-107.24 798.96,-103.77 788.97,-100.24 788.95,-107.24"/>
</g>
<!-- Node18 -->
<g id="node18" class="node">
<title>Node18</title>
<g id="a_node18"><a xlink:href="a02916.html#a56a8a753782e63c9a41f2bbf0a302ad1" target="_top" xlink:title=" ">
<polygon fill="white" stroke="black" points="689,-56.5 689,-75.5 730,-75.5 730,-56.5 689,-56.5"/>
<text text-anchor="middle" x="709.5" y="-63.5" font-family="Helvetica,sans-Serif" font-size="10.00">TEST</text>
</a>
</g>
</g>
<!-- Node1&#45;&gt;Node18 -->
<g id="edge20" class="edge">
<title>Node1&#45;&gt;Node18</title>
<path fill="none" stroke="midnightblue" d="M797.74,-86.65C772.89,-80.77 747.13,-74.67 730.11,-70.64"/>
<polygon fill="midnightblue" stroke="midnightblue" points="797.03,-90.08 807.57,-88.98 798.64,-83.27 797.03,-90.08"/>
</g>
<!-- Node3 -->
<g id="node3" class="node">
<title>Node3</title>
<g id="a_node3"><a xlink:href="a00401.html#a5cddfd8eb7ae23f8ecea0277ad5c3cc5" target="_top" xlink:title="Obtain the indexes of all nodes that pass the HeightCheck.">
<polygon fill="white" stroke="black" points="492,-137 492,-167 620,-167 620,-137 492,-137"/>
<text text-anchor="start" x="500" y="-155" font-family="Helvetica,sans-Serif" font-size="10.00">HF::VisibilityGraph</text>
<text text-anchor="middle" x="556" y="-144" font-family="Helvetica,sans-Serif" font-size="10.00">::HeightCheckAllNodes</text>
</a>
</g>
</g>
<!-- Node2&#45;&gt;Node3 -->
<g id="edge2" class="edge">
<title>Node2&#45;&gt;Node3</title>
<path fill="none" stroke="midnightblue" d="M645.76,-150.83C637.31,-150.94 628.63,-151.05 620.16,-151.17"/>
<polygon fill="midnightblue" stroke="midnightblue" points="645.98,-154.33 655.94,-150.69 645.89,-147.33 645.98,-154.33"/>
</g>
<!-- Node4 -->
<g id="node4" class="node">
<title>Node4</title>
<g id="a_node4"><a xlink:href="a00401.html#a12eb1e4c06400c4625cd22d925927b03" target="_top" xlink:title="Generate a Visibility Graph between every node in a set of nodes in parallel.">
<polygon fill="white" stroke="black" points="346.5,-166 346.5,-196 453.5,-196 453.5,-166 346.5,-166"/>
<text text-anchor="start" x="354.5" y="-184" font-family="Helvetica,sans-Serif" font-size="10.00">HF::VisibilityGraph</text>
<text text-anchor="middle" x="400" y="-173" font-family="Helvetica,sans-Serif" font-size="10.00">::AllToAll</text>
</a>
</g>
</g>
<!-- Node3&#45;&gt;Node4 -->
<g id="edge3" class="edge">
<title>Node3&#45;&gt;Node4</title>
<path fill="none" stroke="midnightblue" d="M482.07,-165.73C472.58,-167.52 462.99,-169.33 453.91,-171.04"/>
<polygon fill="midnightblue" stroke="midnightblue" points="482.74,-169.17 491.92,-163.88 481.44,-162.29 482.74,-169.17"/>
</g>
<!-- Node8 -->
<g id="node8" class="node">
<title>Node8</title>
<g id="a_node8"><a xlink:href="a00401.html#ab1db87927118f70786a664c3b3cc7905" target="_top" xlink:title="Generate a Visibility Graph with every edge stored twice.">
<polygon fill="white" stroke="black" points="344,-113 344,-143 456,-143 456,-113 344,-113"/>
<text text-anchor="start" x="352" y="-131" font-family="Helvetica,sans-Serif" font-size="10.00">HF::VisibilityGraph</text>
<text text-anchor="middle" x="400" y="-120" font-family="Helvetica,sans-Serif" font-size="10.00">::AllToAllUndirected</text>
</a>
</g>
</g>
<!-- Node3&#45;&gt;Node8 -->
<g id="edge7" class="edge">
<title>Node3&#45;&gt;Node8</title>
<path fill="none" stroke="midnightblue" d="M481.88,-140.61C473.29,-139.27 464.63,-137.92 456.34,-136.62"/>
<polygon fill="midnightblue" stroke="midnightblue" points="481.5,-144.09 491.92,-142.17 482.58,-137.17 481.5,-144.09"/>
</g>
<!-- Node12 -->
<g id="node12" class="node">
<title>Node12</title>
<g id="a_node12"><a xlink:href="a00401.html#ae42a5aafdfcc29b6a668355c07602efb" target="_top" xlink:title="Generate a Visibility Graph from a set of nodes to another set of nodes.">
<polygon fill="white" stroke="black" points="346.5,-56 346.5,-86 453.5,-86 453.5,-56 346.5,-56"/>
<text text-anchor="start" x="354.5" y="-74" font-family="Helvetica,sans-Serif" font-size="10.00">HF::VisibilityGraph</text>
<text text-anchor="middle" x="400" y="-63" font-family="Helvetica,sans-Serif" font-size="10.00">::GroupToGroup</text>
</a>
</g>
</g>
<!-- Node3&#45;&gt;Node12 -->
<g id="edge11" class="edge">
<title>Node3&#45;&gt;Node12</title>
<path fill="none" stroke="midnightblue" d="M502.31,-132.95C498.78,-131.37 495.32,-129.71 492,-128 474.91,-119.19 472.25,-114.28 456,-104 446.5,-97.99 435.93,-91.58 426.62,-86.03"/>
<polygon fill="midnightblue" stroke="midnightblue" points="501.17,-136.27 511.74,-137 503.93,-129.84 501.17,-136.27"/>
</g>
<!-- Node5 -->
<g id="node5" class="node">
<title>Node5</title>
<g id="a_node5"><a xlink:href="a00394.html#ga0255e6c4811298e61110adc64c0f8acd" target="_top" xlink:title="Create a new directed visibility graph between all nodes in parameter nodes.">
<polygon fill="white" stroke="black" points="166,-215 166,-245 300,-245 300,-215 166,-215"/>
<text text-anchor="start" x="174" y="-233" font-family="Helvetica,sans-Serif" font-size="10.00">CreateVisibilityGraphAll</text>
<text text-anchor="middle" x="233" y="-222" font-family="Helvetica,sans-Serif" font-size="10.00">ToAll</text>
</a>
</g>
</g>
<!-- Node4&#45;&gt;Node5 -->
<g id="edge4" class="edge">
<title>Node4&#45;&gt;Node5</title>
<path fill="none" stroke="midnightblue" d="M338.5,-198.97C320.82,-204.22 301.69,-209.9 284.68,-214.95"/>
<polygon fill="midnightblue" stroke="midnightblue" points="339.56,-202.3 348.15,-196.1 337.57,-195.59 339.56,-202.3"/>
</g>
<!-- Node7 -->
<g id="node7" class="node">
<title>Node7</title>
<g id="a_node7"><a xlink:href="a00335.html#a498faa46d59cc333132309d698e1688e" target="_top" xlink:title=" ">
<polygon fill="white" stroke="black" points="212.5,-176.5 212.5,-195.5 253.5,-195.5 253.5,-176.5 212.5,-176.5"/>
<text text-anchor="middle" x="233" y="-183.5" font-family="Helvetica,sans-Serif" font-size="10.00">TEST</text>
</a>
</g>
</g>
<!-- Node4&#45;&gt;Node7 -->
<g id="edge6" class="edge">
<title>Node4&#45;&gt;Node7</title>
<path fill="none" stroke="midnightblue" d="M336.17,-182.9C306.95,-183.79 274.23,-184.78 253.87,-185.4"/>
<polygon fill="midnightblue" stroke="midnightblue" points="336.45,-186.4 346.34,-182.6 336.24,-179.4 336.45,-186.4"/>
</g>
<!-- Node6 -->
<g id="node6" class="node">
<title>Node6</title>
<g id="a_node6"><a xlink:href="a00414.html#ab4db31dd49b37ac0eafa29d6cfbed556" target="_top" xlink:title=" ">
<polygon fill="white" stroke="black" points="0,-220.5 0,-239.5 122,-239.5 122,-220.5 0,-220.5"/>
<text text-anchor="middle" x="61" y="-227.5" font-family="Helvetica,sans-Serif" font-size="10.00">CInterfaceTests::TEST</text>
</a>
</g>
</g>
<!-- Node5&#45;&gt;Node6 -->
<g id="edge5" class="edge">
<title>Node5&#45;&gt;Node6</title>
<path fill="none" stroke="midnightblue" d="M155.59,-230C144.4,-230 133.01,-230 122.21,-230"/>
<polygon fill="midnightblue" stroke="midnightblue" points="155.79,-233.5 165.79,-230 155.79,-226.5 155.79,-233.5"/>
</g>
<!-- Node9 -->
<g id="node9" class="node">
<title>Node9</title>
<g id="a_node9"><a xlink:href="a00394.html#ga9b0664a60bcdf276b0fe0a2023b3d9b8" target="_top" xlink:title="Create a new undirected visibility graph between all nodes in nodes.">
<polygon fill="white" stroke="black" points="166,-127 166,-157 300,-157 300,-127 166,-127"/>
<text text-anchor="start" x="174" y="-145" font-family="Helvetica,sans-Serif" font-size="10.00">CreateVisibilityGraphAll</text>
<text text-anchor="middle" x="233" y="-134" font-family="Helvetica,sans-Serif" font-size="10.00">ToAllUndirected</text>
</a>
</g>
</g>
<!-- Node8&#45;&gt;Node9 -->
<g id="edge8" class="edge">
<title>Node8&#45;&gt;Node9</title>
<path fill="none" stroke="midnightblue" d="M333.62,-133.55C322.6,-134.48 311.16,-135.45 300.12,-136.39"/>
<polygon fill="midnightblue" stroke="midnightblue" points="333.93,-137.03 343.6,-132.7 333.34,-130.06 333.93,-137.03"/>
</g>
<!-- Node11 -->
<g id="node11" class="node">
<title>Node11</title>
<g id="a_node11"><a xlink:href="a00335.html#a6c5b602bf3b5b51b485e370fd5060c2a" target="_top" xlink:title=" ">
<polygon fill="white" stroke="black" points="212.5,-88.5 212.5,-107.5 253.5,-107.5 253.5,-88.5 212.5,-88.5"/>
<text text-anchor="middle" x="233" y="-95.5" font-family="Helvetica,sans-Serif" font-size="10.00">TEST</text>
</a>
</g>
</g>
<!-- Node8&#45;&gt;Node11 -->
<g id="edge10" class="edge">
<title>Node8&#45;&gt;Node11</title>
<path fill="none" stroke="midnightblue" d="M333.6,-116.11C304.91,-110.89 273.33,-105.15 253.59,-101.56"/>
<polygon fill="midnightblue" stroke="midnightblue" points="333.13,-119.58 343.6,-117.93 334.39,-112.69 333.13,-119.58"/>
</g>
<!-- Node10 -->
<g id="node10" class="node">
<title>Node10</title>
<g id="a_node10"><a xlink:href="a00414.html#a3d1882bb0ad374a2444c01dd46a92013" target="_top" xlink:title=" ">
<polygon fill="white" stroke="black" points="0,-132.5 0,-151.5 122,-151.5 122,-132.5 0,-132.5"/>
<text text-anchor="middle" x="61" y="-139.5" font-family="Helvetica,sans-Serif" font-size="10.00">CInterfaceTests::TEST</text>
</a>
</g>
</g>
<!-- Node9&#45;&gt;Node10 -->
<g id="edge9" class="edge">
<title>Node9&#45;&gt;Node10</title>
<path fill="none" stroke="midnightblue" d="M155.59,-142C144.4,-142 133.01,-142 122.21,-142"/>
<polygon fill="midnightblue" stroke="midnightblue" points="155.79,-145.5 165.79,-142 155.79,-138.5 155.79,-145.5"/>
</g>
<!-- Node13 -->
<g id="node13" class="node">
<title>Node13</title>
<g id="a_node13"><a xlink:href="a00394.html#gaf2e404cb696aee3473cac0d1507576d8" target="_top" xlink:title="Create a new visibility graph from the nodes in group_a, into the nodes of group_b.">
<polygon fill="white" stroke="black" points="158,-39 158,-69 308,-69 308,-39 158,-39"/>
<text text-anchor="start" x="166" y="-57" font-family="Helvetica,sans-Serif" font-size="10.00">CreateVisibilityGraphGroup</text>
<text text-anchor="middle" x="233" y="-46" font-family="Helvetica,sans-Serif" font-size="10.00">ToGroup</text>
</a>
</g>
</g>
<!-- Node12&#45;&gt;Node13 -->
<g id="edge12" class="edge">
<title>Node12&#45;&gt;Node13</title>
<path fill="none" stroke="midnightblue" d="M336.16,-64.53C326.99,-63.58 317.48,-62.6 308.11,-61.64"/>
<polygon fill="midnightblue" stroke="midnightblue" points="336.03,-68.03 346.34,-65.57 336.75,-61.07 336.03,-68.03"/>
</g>
<!-- Node16 -->
<g id="node16" class="node">
<title>Node16</title>
<g id="a_node16"><a xlink:href="a00335.html#aee285dbd489d6166aef1bfc2fd84c595" target="_top" xlink:title=" ">
<polygon fill="white" stroke="black" points="212.5,-0.5 212.5,-19.5 253.5,-19.5 253.5,-0.5 212.5,-0.5"/>
<text text-anchor="middle" x="233" y="-7.5" font-family="Helvetica,sans-Serif" font-size="10.00">TEST</text>
</a>
</g>
</g>
<!-- Node12&#45;&gt;Node16 -->
<g id="edge15" class="edge">
<title>Node12&#45;&gt;Node16</title>
<path fill="none" stroke="midnightblue" d="M360.6,-51.4C344.61,-43.73 325.68,-35.29 308,-29 290.01,-22.6 268.84,-17.39 253.77,-14.05"/>
<polygon fill="midnightblue" stroke="midnightblue" points="359.12,-54.57 369.65,-55.8 362.19,-48.28 359.12,-54.57"/>
</g>
<!-- Node14 -->
<g id="node14" class="node">
<title>Node14</title>
<g id="a_node14"><a xlink:href="a00335.html#aad85acff2b9716aaf14c5a73114822b9" target="_top" xlink:title=" ">
<polygon fill="white" stroke="black" points="40.5,-63.5 40.5,-82.5 81.5,-82.5 81.5,-63.5 40.5,-63.5"/>
<text text-anchor="middle" x="61" y="-70.5" font-family="Helvetica,sans-Serif" font-size="10.00">TEST</text>
</a>
</g>
</g>
<!-- Node13&#45;&gt;Node14 -->
<g id="edge13" class="edge">
<title>Node13&#45;&gt;Node14</title>
<path fill="none" stroke="midnightblue" d="M147.74,-63.42C123.02,-66.18 98.22,-68.95 81.7,-70.8"/>
<polygon fill="midnightblue" stroke="midnightblue" points="148.38,-66.87 157.93,-62.28 147.6,-59.91 148.38,-66.87"/>
</g>
<!-- Node15 -->
<g id="node15" class="node">
<title>Node15</title>
<g id="a_node15"><a xlink:href="a00414.html#ad2cc33eb1f7d0c628289c7d82da986c7" target="_top" xlink:title=" ">
<polygon fill="white" stroke="black" points="0,-25.5 0,-44.5 122,-44.5 122,-25.5 0,-25.5"/>
<text text-anchor="middle" x="61" y="-32.5" font-family="Helvetica,sans-Serif" font-size="10.00">CInterfaceTests::TEST</text>
</a>
</g>
</g>
<!-- Node13&#45;&gt;Node15 -->
<g id="edge14" class="edge">
<title>Node13&#45;&gt;Node15</title>
<path fill="none" stroke="midnightblue" d="M147.77,-44.59C139.08,-43.62 130.39,-42.64 122.05,-41.71"/>
<polygon fill="midnightblue" stroke="midnightblue" points="147.6,-48.09 157.93,-45.72 148.38,-41.13 147.6,-48.09"/>
</g>
<!-- Node17&#45;&gt;Node4 -->
<g id="edge17" class="edge">
<title>Node17&#45;&gt;Node4</title>
<path fill="none" stroke="midnightblue" d="M503.66,-122.22C499.66,-124.06 495.73,-126 492,-128 474.83,-137.21 472.72,-143 456,-153 448.55,-157.45 440.31,-161.89 432.52,-165.88"/>
<polygon fill="midnightblue" stroke="midnightblue" points="505.3,-125.32 513.04,-118.09 502.48,-118.91 505.3,-125.32"/>
</g>
<!-- Node17&#45;&gt;Node8 -->
<g id="edge18" class="edge">
<title>Node17&#45;&gt;Node8</title>
<path fill="none" stroke="midnightblue" d="M485.4,-114.3C475.66,-115.88 465.77,-117.49 456.35,-119.02"/>
<polygon fill="midnightblue" stroke="midnightblue" points="486.15,-117.72 495.46,-112.67 485.03,-110.81 486.15,-117.72"/>
</g>
<!-- Node17&#45;&gt;Node12 -->
<g id="edge19" class="edge">
<title>Node17&#45;&gt;Node12</title>
<path fill="none" stroke="midnightblue" d="M485.39,-88.53C474.79,-86.33 464.01,-84.09 453.85,-81.98"/>
<polygon fill="midnightblue" stroke="midnightblue" points="484.96,-92.02 495.46,-90.63 486.38,-85.17 484.96,-92.02"/>
</g>
</g>
</svg>
