<?xml version="1.0" encoding="UTF-8" standalone="no"?>
<!DOCTYPE svg PUBLIC "-//W3C//DTD SVG 1.1//EN"
 "http://www.w3.org/Graphics/SVG/1.1/DTD/svg11.dtd">
<!-- Generated by graphviz version 5.0.0 (20220707.1540)
 -->
<!-- Title: HF::RayTracer::Triangle Pages: 1 -->
<svg width="127pt" height="117pt"
 viewBox="0.00 0.00 127.00 117.00" xmlns="http://www.w3.org/2000/svg" xmlns:xlink="http://www.w3.org/1999/xlink">
<g id="graph0" class="graph" transform="scale(1 1) rotate(0) translate(4 113)">
<title>HF::RayTracer::Triangle</title>
<polygon fill="white" stroke="transparent" points="-4,4 -4,-113 123,-113 123,4 -4,4"/>
<!-- Node1 -->
<g id="node1" class="node">
<title>Node1</title>
<g id="a_node1"><a xlink:title="A triangle. Used internally in Embree.">
<polygon fill="#bfbfbf" stroke="black" points="0,-0.5 0,-19.5 119,-19.5 119,-0.5 0,-0.5"/>
<text text-anchor="middle" x="59.5" y="-7.5" font-family="Helvetica,sans-Serif" font-size="10.00">HF::RayTracer::Triangle</text>
</a>
</g>
</g>
<!-- Node2 -->
<g id="node2" class="node">
<title>Node2</title>
<g id="a_node2"><a xlink:title=" ">
<polygon fill="white" stroke="black" points="45,-89.5 45,-108.5 74,-108.5 74,-89.5 45,-89.5"/>
<text text-anchor="middle" x="59.5" y="-96.5" font-family="Helvetica,sans-Serif" font-size="10.00">int</text>
</a>
</g>
</g>
<!-- Node2&#45;&gt;Node1 -->
<g id="edge1" class="edge">
<title>Node2&#45;&gt;Node1</title>
<path fill="none" stroke="#9a32cd" stroke-dasharray="5,2" d="M59.5,-79.19C59.5,-60.74 59.5,-33.41 59.5,-19.62"/>
<polygon fill="#9a32cd" stroke="#9a32cd" points="56,-79.34 59.5,-89.34 63,-79.34 56,-79.34"/>
<text text-anchor="middle" x="66" y="-63" font-family="Helvetica,sans-Serif" font-size="10.00"> v0</text>
<text text-anchor="middle" x="66" y="-52" font-family="Helvetica,sans-Serif" font-size="10.00">v1</text>
<text text-anchor="middle" x="66" y="-41" font-family="Helvetica,sans-Serif" font-size="10.00">v2</text>
</g>
</g>
</svg>
