<?xml version="1.0" encoding="UTF-8" standalone="no"?>
<!DOCTYPE svg PUBLIC "-//W3C//DTD SVG 1.1//EN"
 "http://www.w3.org/Graphics/SVG/1.1/DTD/svg11.dtd">
<!-- Generated by graphviz version 2.43.0 (0)
 -->
<!-- Title: HF::RayTracer::EmbreeRayTracer::PointIntersections Pages: 1 -->
<svg width="336pt" height="39pt"
 viewBox="0.00 0.00 336.00 39.00" xmlns="http://www.w3.org/2000/svg" xmlns:xlink="http://www.w3.org/1999/xlink">
<g id="graph0" class="graph" transform="scale(1 1) rotate(0) translate(4 35)">
<title>HF::RayTracer::EmbreeRayTracer::PointIntersections</title>
<polygon fill="white" stroke="transparent" points="-4,4 -4,-35 332,-35 332,4 -4,4"/>
<!-- Node1 -->
<g id="node1" class="node">
<title>Node1</title>
<g id="a_node1"><a xlink:title="Cast multiple rays and recieve hitpoints in return.">
<polygon fill="#bfbfbf" stroke="black" points="0,-0.5 0,-30.5 146,-30.5 146,-0.5 0,-0.5"/>
<text text-anchor="start" x="8" y="-18.5" font-family="Helvetica,sans-Serif" font-size="10.00">HF::RayTracer::EmbreeRay</text>
<text text-anchor="middle" x="73" y="-7.5" font-family="Helvetica,sans-Serif" font-size="10.00">Tracer::PointIntersections</text>
</a>
</g>
</g>
<!-- Node2 -->
<g id="node2" class="node">
<title>Node2</title>
<g id="a_node2"><a xlink:href="a01357.html#aa8424b274c7c5d0598ff13b49ac8c8d2" target="_top" xlink:title="Cast a ray and overwrite the origin with the hitpoint if it intersects any geometry.">
<polygon fill="white" stroke="black" points="182,-0.5 182,-30.5 328,-30.5 328,-0.5 182,-0.5"/>
<text text-anchor="start" x="190" y="-18.5" font-family="Helvetica,sans-Serif" font-size="10.00">HF::RayTracer::EmbreeRay</text>
<text text-anchor="middle" x="255" y="-7.5" font-family="Helvetica,sans-Serif" font-size="10.00">Tracer::PointIntersection</text>
</a>
</g>
</g>
<!-- Node1&#45;&gt;Node2 -->
<g id="edge1" class="edge">
<title>Node1&#45;&gt;Node2</title>
<path fill="none" stroke="midnightblue" d="M146.18,-15.5C154.52,-15.5 163.08,-15.5 171.54,-15.5"/>
<polygon fill="midnightblue" stroke="midnightblue" points="171.81,-19 181.81,-15.5 171.81,-12 171.81,-19"/>
</g>
</g>
</svg>
