<?xml version="1.0" encoding="UTF-8" standalone="no"?>
<!DOCTYPE svg PUBLIC "-//W3C//DTD SVG 1.1//EN"
 "http://www.w3.org/Graphics/SVG/1.1/DTD/svg11.dtd">
<!-- Generated by graphviz version 7.0.2 (20221119.0110)
 -->
<!-- Title: nanort::BVHTraceOptions Pages: 1 -->
<svg width="245pt" height="104pt"
 viewBox="0.00 0.00 245.00 104.00" xmlns="http://www.w3.org/2000/svg" xmlns:xlink="http://www.w3.org/1999/xlink">
<g id="graph0" class="graph" transform="scale(1 1) rotate(0) translate(4 100)">
<title>nanort::BVHTraceOptions</title>
<!-- Node1 -->
<g id="node1" class="node">
<title>Node1</title>
<g id="a_node1"><a xlink:title="BVH trace option.">
<polygon fill="#999999" stroke="#666666" points="171.5,-19 43.5,-19 43.5,0 171.5,0 171.5,-19"/>
<text text-anchor="middle" x="107.5" y="-7" font-family="Helvetica,sans-Serif" font-size="10.00">nanort::BVHTraceOptions</text>
</a>
</g>
</g>
<!-- Node2 -->
<g id="node2" class="node">
<title>Node2</title>
<g id="a_node2"><a xlink:title=" ">
<polygon fill="white" stroke="#666666" points="29,-96 0,-96 0,-77 29,-77 29,-96"/>
<text text-anchor="middle" x="14.5" y="-84" font-family="Helvetica,sans-Serif" font-size="10.00">int</text>
</a>
</g>
</g>
<!-- Node2&#45;&gt;Node1 -->
<g id="edge1" class="edge">
<title>Node2&#45;&gt;Node1</title>
<path fill="none" stroke="#9a32cd" stroke-dasharray="5,2" d="M18.23,-65.61C20.98,-55.86 25.65,-44.62 33.5,-37 41.72,-29.02 52.52,-23.42 63.31,-19.5"/>
<polygon fill="#9a32cd" stroke="#9a32cd" points="14.84,-64.76 16.03,-75.29 21.66,-66.31 14.84,-64.76"/>
<text text-anchor="middle" x="68.5" y="-51" font-family="Helvetica,sans-Serif" font-size="10.00"> prim_ids_range</text>
<text text-anchor="middle" x="68.5" y="-40" font-family="Helvetica,sans-Serif" font-size="10.00">skip_prim_id</text>
</g>
<!-- Node3 -->
<g id="node3" class="node">
<title>Node3</title>
<g id="a_node3"><a xlink:title=" ">
<polygon fill="white" stroke="#666666" points="125,-96 90,-96 90,-77 125,-77 125,-96"/>
<text text-anchor="middle" x="107.5" y="-84" font-family="Helvetica,sans-Serif" font-size="10.00">bool</text>
</a>
</g>
</g>
<!-- Node3&#45;&gt;Node1 -->
<g id="edge2" class="edge">
<title>Node3&#45;&gt;Node1</title>
<path fill="none" stroke="#9a32cd" stroke-dasharray="5,2" d="M107.5,-65.42C107.5,-50.43 107.5,-30.66 107.5,-19.39"/>
<polygon fill="#9a32cd" stroke="#9a32cd" points="104,-65.09 107.5,-75.09 111,-65.09 104,-65.09"/>
<text text-anchor="middle" x="141.5" y="-45.5" font-family="Helvetica,sans-Serif" font-size="10.00"> cull_back_face</text>
</g>
<!-- Node4 -->
<g id="node4" class="node">
<title>Node4</title>
<g id="a_node4"><a xlink:title=" ">
<polygon fill="white" stroke="#666666" points="237,-96 160,-96 160,-77 237,-77 237,-96"/>
<text text-anchor="middle" x="198.5" y="-84" font-family="Helvetica,sans-Serif" font-size="10.00">unsigned char</text>
</a>
</g>
</g>
<!-- Node4&#45;&gt;Node1 -->
<g id="edge3" class="edge">
<title>Node4&#45;&gt;Node1</title>
<path fill="none" stroke="#9a32cd" stroke-dasharray="5,2" d="M193.5,-65.97C190.11,-56.17 184.73,-44.75 176.5,-37 168.1,-29.08 157.07,-23.45 146.31,-19.49"/>
<polygon fill="#9a32cd" stroke="#9a32cd" points="190.07,-66.73 196.26,-75.33 196.79,-64.75 190.07,-66.73"/>
<text text-anchor="middle" x="200" y="-45.5" font-family="Helvetica,sans-Serif" font-size="10.00"> pad</text>
</g>
</g>
</svg>
