<?xml version="1.0" encoding="UTF-8" standalone="no"?>
<!DOCTYPE svg PUBLIC "-//W3C//DTD SVG 1.1//EN"
 "http://www.w3.org/Graphics/SVG/1.1/DTD/svg11.dtd">
<!-- Generated by graphviz version 2.43.0 (0)
 -->
<!-- Title: HF::RayTracer::EmbreeRayTracer::PointIntersection Pages: 1 -->
<svg width="545pt" height="192pt"
 viewBox="0.00 0.00 545.00 192.00" xmlns="http://www.w3.org/2000/svg" xmlns:xlink="http://www.w3.org/1999/xlink">
<g id="graph0" class="graph" transform="scale(1 1) rotate(0) translate(4 188)">
<title>HF::RayTracer::EmbreeRayTracer::PointIntersection</title>
<polygon fill="white" stroke="transparent" points="-4,4 -4,-188 541,-188 541,4 -4,4"/>
<!-- Node1 -->
<g id="node1" class="node">
<title>Node1</title>
<g id="a_node1"><a xlink:title="Cast a ray and overwrite the origin with the hitpoint if it intersects any geometry.">
<polygon fill="#bfbfbf" stroke="black" points="391,-71 391,-101 537,-101 537,-71 391,-71"/>
<text text-anchor="start" x="399" y="-89" font-family="Helvetica,sans-Serif" font-size="10.00">HF::RayTracer::EmbreeRay</text>
<text text-anchor="middle" x="464" y="-78" font-family="Helvetica,sans-Serif" font-size="10.00">Tracer::PointIntersection</text>
</a>
</g>
</g>
<!-- Node2 -->
<g id="node2" class="node">
<title>Node2</title>
<g id="a_node2"><a xlink:href="a00391.html#ga3c06d32b8a4af0110489372e292555fd" target="_top" xlink:title="Fire a single ray from the raytracer and receive a point in return.">
<polygon fill="white" stroke="black" points="255.5,-142.5 255.5,-161.5 308.5,-161.5 308.5,-142.5 255.5,-142.5"/>
<text text-anchor="middle" x="282" y="-149.5" font-family="Helvetica,sans-Serif" font-size="10.00">FireRay</text>
</a>
</g>
</g>
<!-- Node1&#45;&gt;Node2 -->
<g id="edge1" class="edge">
<title>Node1&#45;&gt;Node2</title>
<path fill="none" stroke="midnightblue" d="M411.99,-104.7C378.21,-117.09 335.35,-132.81 308.54,-142.64"/>
<polygon fill="midnightblue" stroke="midnightblue" points="413.52,-107.87 421.7,-101.14 411.11,-101.3 413.52,-107.87"/>
</g>
<!-- Node4 -->
<g id="node4" class="node">
<title>Node4</title>
<g id="a_node4"><a xlink:href="a01357.html#a5dd86a06e71c5215b6abdc39056db15f" target="_top" xlink:title="Cast multiple rays and recieve hitpoints in return.">
<polygon fill="white" stroke="black" points="209,-71 209,-101 355,-101 355,-71 209,-71"/>
<text text-anchor="start" x="217" y="-89" font-family="Helvetica,sans-Serif" font-size="10.00">HF::RayTracer::EmbreeRay</text>
<text text-anchor="middle" x="282" y="-78" font-family="Helvetica,sans-Serif" font-size="10.00">Tracer::PointIntersections</text>
</a>
</g>
</g>
<!-- Node1&#45;&gt;Node4 -->
<g id="edge3" class="edge">
<title>Node1&#45;&gt;Node4</title>
<path fill="none" stroke="midnightblue" d="M380.56,-86C372.09,-86 363.54,-86 355.19,-86"/>
<polygon fill="midnightblue" stroke="midnightblue" points="380.82,-89.5 390.82,-86 380.82,-82.5 380.82,-89.5"/>
</g>
<!-- Node9 -->
<g id="node9" class="node">
<title>Node9</title>
<g id="a_node9"><a xlink:href="a02916.html#af0131bc35104e8c2233bbd0a7ca148b3" target="_top" xlink:title=" ">
<polygon fill="white" stroke="black" points="261.5,-32.5 261.5,-51.5 302.5,-51.5 302.5,-32.5 261.5,-32.5"/>
<text text-anchor="middle" x="282" y="-39.5" font-family="Helvetica,sans-Serif" font-size="10.00">TEST</text>
</a>
</g>
</g>
<!-- Node1&#45;&gt;Node9 -->
<g id="edge8" class="edge">
<title>Node1&#45;&gt;Node9</title>
<path fill="none" stroke="midnightblue" d="M391.73,-68.58C359.66,-60.74 324.28,-52.09 302.84,-46.85"/>
<polygon fill="midnightblue" stroke="midnightblue" points="391.01,-72.01 401.56,-70.98 392.67,-65.21 391.01,-72.01"/>
</g>
<!-- Node3 -->
<g id="node3" class="node">
<title>Node3</title>
<g id="a_node3"><a xlink:href="a00416.html#a493636385f041004568ceaf4ae02d208" target="_top" xlink:title=" ">
<polygon fill="white" stroke="black" points="35.5,-164.5 35.5,-183.5 137.5,-183.5 137.5,-164.5 35.5,-164.5"/>
<text text-anchor="middle" x="86.5" y="-171.5" font-family="Helvetica,sans-Serif" font-size="10.00">C_Interface::TEST</text>
</a>
</g>
</g>
<!-- Node2&#45;&gt;Node3 -->
<g id="edge2" class="edge">
<title>Node2&#45;&gt;Node3</title>
<path fill="none" stroke="midnightblue" d="M245.2,-156.07C214.96,-159.51 171.3,-164.47 137.58,-168.31"/>
<polygon fill="midnightblue" stroke="midnightblue" points="245.76,-159.53 255.3,-154.92 244.97,-152.57 245.76,-159.53"/>
</g>
<!-- Node5 -->
<g id="node5" class="node">
<title>Node5</title>
<g id="a_node5"><a xlink:href="a00391.html#ga03461ff9a261808c13f79f054435d4a6" target="_top" xlink:title="Fire rays from a single origin point in multiple directions and get a the points where they intersect...">
<polygon fill="white" stroke="black" points="15,-115 15,-145 158,-145 158,-115 15,-115"/>
<text text-anchor="start" x="23" y="-133" font-family="Helvetica,sans-Serif" font-size="10.00">FireMultipleDirectionsOne</text>
<text text-anchor="middle" x="86.5" y="-122" font-family="Helvetica,sans-Serif" font-size="10.00">Origin</text>
</a>
</g>
</g>
<!-- Node4&#45;&gt;Node5 -->
<g id="edge4" class="edge">
<title>Node4&#45;&gt;Node5</title>
<path fill="none" stroke="midnightblue" d="M205.06,-103.27C188.05,-107.14 170.15,-111.21 153.58,-114.97"/>
<polygon fill="midnightblue" stroke="midnightblue" points="205.97,-106.65 214.95,-101.02 204.42,-99.82 205.97,-106.65"/>
</g>
<!-- Node6 -->
<g id="node6" class="node">
<title>Node6</title>
<g id="a_node6"><a xlink:href="a00391.html#ga245b0839ec087dfdec623a3e16ffa859" target="_top" xlink:title="Fire rays from each origin point in the given direction.">
<polygon fill="white" stroke="black" points="0,-76.5 0,-95.5 173,-95.5 173,-76.5 0,-76.5"/>
<text text-anchor="middle" x="86.5" y="-83.5" font-family="Helvetica,sans-Serif" font-size="10.00">FireMultipleOriginsOneDirection</text>
</a>
</g>
</g>
<!-- Node4&#45;&gt;Node6 -->
<g id="edge5" class="edge">
<title>Node4&#45;&gt;Node6</title>
<path fill="none" stroke="midnightblue" d="M198.68,-86C190.18,-86 181.54,-86 173.01,-86"/>
<polygon fill="midnightblue" stroke="midnightblue" points="198.95,-89.5 208.95,-86 198.95,-82.5 198.95,-89.5"/>
</g>
<!-- Node7 -->
<g id="node7" class="node">
<title>Node7</title>
<g id="a_node7"><a xlink:href="a00391.html#ga4ebcc7736a5e5d25b7696f7ce9f2d645" target="_top" xlink:title="Fire multiple rays at once in parallel and receive their hitpoints in return. The number of direction...">
<polygon fill="white" stroke="black" points="37.5,-38.5 37.5,-57.5 135.5,-57.5 135.5,-38.5 37.5,-38.5"/>
<text text-anchor="middle" x="86.5" y="-45.5" font-family="Helvetica,sans-Serif" font-size="10.00">FireMultipleRays</text>
</a>
</g>
</g>
<!-- Node4&#45;&gt;Node7 -->
<g id="edge6" class="edge">
<title>Node4&#45;&gt;Node7</title>
<path fill="none" stroke="midnightblue" d="M199.08,-69.91C177.42,-65.66 154.74,-61.21 135.53,-57.43"/>
<polygon fill="midnightblue" stroke="midnightblue" points="198.46,-73.36 208.95,-71.85 199.81,-66.49 198.46,-73.36"/>
</g>
<!-- Node8 -->
<g id="node8" class="node">
<title>Node8</title>
<g id="a_node8"><a xlink:href="a02916.html#a510db65c93ed34b3286c97ce976b01ec" target="_top" xlink:title=" ">
<polygon fill="white" stroke="black" points="66,-0.5 66,-19.5 107,-19.5 107,-0.5 66,-0.5"/>
<text text-anchor="middle" x="86.5" y="-7.5" font-family="Helvetica,sans-Serif" font-size="10.00">TEST</text>
</a>
</g>
</g>
<!-- Node4&#45;&gt;Node8 -->
<g id="edge7" class="edge">
<title>Node4&#45;&gt;Node8</title>
<path fill="none" stroke="midnightblue" d="M220.3,-66.91C216.4,-65.08 212.6,-63.11 209,-61 190.53,-50.17 192.06,-38.75 173,-29 152.01,-18.27 125.1,-13.57 107.12,-11.53"/>
<polygon fill="midnightblue" stroke="midnightblue" points="218.97,-70.15 229.53,-70.93 221.76,-63.73 218.97,-70.15"/>
</g>
</g>
</svg>
