<?xml version="1.0" encoding="UTF-8" standalone="no"?>
<!DOCTYPE svg PUBLIC "-//W3C//DTD SVG 1.1//EN"
 "http://www.w3.org/Graphics/SVG/1.1/DTD/svg11.dtd">
<!-- Generated by graphviz version 2.43.0 (0)
 -->
<!-- Title: HF::RayTracer::EmbreeRayTracer::AddMesh Pages: 1 -->
<svg width="543pt" height="345pt"
 viewBox="0.00 0.00 543.00 345.00" xmlns="http://www.w3.org/2000/svg" xmlns:xlink="http://www.w3.org/1999/xlink">
<g id="graph0" class="graph" transform="scale(1 1) rotate(0) translate(4 341)">
<title>HF::RayTracer::EmbreeRayTracer::AddMesh</title>
<polygon fill="white" stroke="transparent" points="-4,4 -4,-341 539,-341 539,4 -4,4"/>
<!-- Node1 -->
<g id="node1" class="node">
<title>Node1</title>
<g id="a_node1"><a xlink:title="Add a new mesh to the BVH with the specified ID. If False, then the addition failed,...">
<polygon fill="#bfbfbf" stroke="black" points="0,-147.5 0,-177.5 146,-177.5 146,-147.5 0,-147.5"/>
<text text-anchor="start" x="8" y="-165.5" font-family="Helvetica,sans-Serif" font-size="10.00">HF::RayTracer::EmbreeRay</text>
<text text-anchor="middle" x="73" y="-154.5" font-family="Helvetica,sans-Serif" font-size="10.00">Tracer::AddMesh</text>
</a>
</g>
</g>
<!-- Node2 -->
<g id="node2" class="node">
<title>Node2</title>
<g id="a_node2"><a xlink:href="a00398.html#aac8c0b245ea813969c50b6496cc67945" target="_top" xlink:title="Package raw arrays of floats and indices in buffers to the required Embree types.">
<polygon fill="white" stroke="black" points="201,-306.5 201,-336.5 335,-336.5 335,-306.5 201,-306.5"/>
<text text-anchor="start" x="209" y="-324.5" font-family="Helvetica,sans-Serif" font-size="10.00">HF::RayTracer::buffersTo</text>
<text text-anchor="middle" x="268" y="-313.5" font-family="Helvetica,sans-Serif" font-size="10.00">Structs</text>
</a>
</g>
</g>
<!-- Node1&#45;&gt;Node2 -->
<g id="edge1" class="edge">
<title>Node1&#45;&gt;Node2</title>
<path fill="none" stroke="midnightblue" d="M82.18,-177.9C97.79,-205.8 134.55,-264.78 182,-296.5 185.06,-298.54 188.28,-300.42 191.62,-302.15"/>
<polygon fill="midnightblue" stroke="midnightblue" points="190.14,-305.32 200.68,-306.39 193.11,-298.98 190.14,-305.32"/>
</g>
<!-- Node3 -->
<g id="node3" class="node">
<title>Node3</title>
<g id="a_node3"><a xlink:href="a01357.html#aa602f6c44fa5230477642942ebc3216e" target="_top" xlink:title="Create a new instance of RTCGeometry from a triangle and vertex buffer.">
<polygon fill="white" stroke="black" points="182,-246 182,-287 354,-287 354,-246 182,-246"/>
<text text-anchor="start" x="190" y="-275" font-family="Helvetica,sans-Serif" font-size="10.00">HF::RayTracer::EmbreeRay</text>
<text text-anchor="start" x="190" y="-264" font-family="Helvetica,sans-Serif" font-size="10.00">Tracer::ConstructGeometryFrom</text>
<text text-anchor="middle" x="268" y="-253" font-family="Helvetica,sans-Serif" font-size="10.00">Buffers</text>
</a>
</g>
</g>
<!-- Node1&#45;&gt;Node3 -->
<g id="edge2" class="edge">
<title>Node1&#45;&gt;Node3</title>
<path fill="none" stroke="midnightblue" d="M92.94,-177.76C113.79,-194 148.77,-219.62 182,-236.5 185.69,-238.37 189.52,-240.18 193.43,-241.91"/>
<polygon fill="midnightblue" stroke="midnightblue" points="192.08,-245.14 202.66,-245.82 194.81,-238.7 192.08,-245.14"/>
</g>
<!-- Node4 -->
<g id="node4" class="node">
<title>Node4</title>
<g id="a_node4"><a xlink:href="a01297.html#af2d1b696c55aa036cff585d2e7eba50b" target="_top" xlink:title="A copy of every vertex in this array.">
<polygon fill="white" stroke="black" points="201,-196.5 201,-226.5 335,-226.5 335,-196.5 201,-196.5"/>
<text text-anchor="start" x="209" y="-214.5" font-family="Helvetica,sans-Serif" font-size="10.00">HF::Geometry::MeshInfo</text>
<text text-anchor="middle" x="268" y="-203.5" font-family="Helvetica,sans-Serif" font-size="10.00">::GetIndexedVertices</text>
</a>
</g>
</g>
<!-- Node1&#45;&gt;Node4 -->
<g id="edge3" class="edge">
<title>Node1&#45;&gt;Node4</title>
<path fill="none" stroke="midnightblue" d="M133.22,-177.53C153.69,-182.73 176.8,-188.6 197.99,-193.98"/>
<polygon fill="midnightblue" stroke="midnightblue" points="197.34,-197.43 207.89,-196.49 199.06,-190.64 197.34,-197.43"/>
</g>
<!-- Node5 -->
<g id="node5" class="node">
<title>Node5</title>
<g id="a_node5"><a xlink:href="a01297.html#afddea10734ba213b2bb5cc148c24c942" target="_top" xlink:title="Retrieve a copy of this mesh&#39;s index buffer as a 1D array.">
<polygon fill="white" stroke="black" points="201,-147.5 201,-177.5 335,-177.5 335,-147.5 201,-147.5"/>
<text text-anchor="start" x="209" y="-165.5" font-family="Helvetica,sans-Serif" font-size="10.00">HF::Geometry::MeshInfo</text>
<text text-anchor="middle" x="268" y="-154.5" font-family="Helvetica,sans-Serif" font-size="10.00">::getRawIndices</text>
</a>
</g>
</g>
<!-- Node1&#45;&gt;Node5 -->
<g id="edge4" class="edge">
<title>Node1&#45;&gt;Node5</title>
<path fill="none" stroke="midnightblue" d="M146.14,-162.5C160.76,-162.5 176.17,-162.5 190.91,-162.5"/>
<polygon fill="midnightblue" stroke="midnightblue" points="191,-166 201,-162.5 191,-159 191,-166"/>
</g>
<!-- Node6 -->
<g id="node6" class="node">
<title>Node6</title>
<g id="a_node6"><a xlink:href="a01357.html#a6ee1e15bc515878b156bc6a3778f8033" target="_top" xlink:title="Attach geometry to the current scene.">
<polygon fill="white" stroke="black" points="195,-98.5 195,-128.5 341,-128.5 341,-98.5 195,-98.5"/>
<text text-anchor="start" x="203" y="-116.5" font-family="Helvetica,sans-Serif" font-size="10.00">HF::RayTracer::EmbreeRay</text>
<text text-anchor="middle" x="268" y="-105.5" font-family="Helvetica,sans-Serif" font-size="10.00">Tracer::InsertGeom</text>
</a>
</g>
</g>
<!-- Node1&#45;&gt;Node6 -->
<g id="edge5" class="edge">
<title>Node1&#45;&gt;Node6</title>
<path fill="none" stroke="midnightblue" d="M133.22,-147.47C153.69,-142.27 176.8,-136.4 197.99,-131.02"/>
<polygon fill="midnightblue" stroke="midnightblue" points="199.06,-134.36 207.89,-128.51 197.34,-127.57 199.06,-134.36"/>
</g>
<!-- Node8 -->
<g id="node8" class="node">
<title>Node8</title>
<g id="a_node8"><a xlink:href="a01297.html#a5fa8cc590a7bd0764a7903ed521e2fc4" target="_top" xlink:title="Calculate the total number of triangles in this mesh.">
<polygon fill="white" stroke="black" points="201,-49.5 201,-79.5 335,-79.5 335,-49.5 201,-49.5"/>
<text text-anchor="start" x="209" y="-67.5" font-family="Helvetica,sans-Serif" font-size="10.00">HF::Geometry::MeshInfo</text>
<text text-anchor="middle" x="268" y="-56.5" font-family="Helvetica,sans-Serif" font-size="10.00">::NumTris</text>
</a>
</g>
</g>
<!-- Node1&#45;&gt;Node8 -->
<g id="edge7" class="edge">
<title>Node1&#45;&gt;Node8</title>
<path fill="none" stroke="midnightblue" d="M92.43,-147.42C113.12,-131.14 148.22,-105.41 182,-89.5 186.96,-87.16 192.18,-85 197.5,-82.99"/>
<polygon fill="midnightblue" stroke="midnightblue" points="198.9,-86.21 207.14,-79.56 196.55,-79.61 198.9,-86.21"/>
</g>
<!-- Node9 -->
<g id="node9" class="node">
<title>Node9</title>
<g id="a_node9"><a xlink:href="a01297.html#a70a6f6b9270d47e0b8428cdc15b707d3" target="_top" xlink:title="Determine how many vertices are in this mesh.">
<polygon fill="white" stroke="black" points="201,-0.5 201,-30.5 335,-30.5 335,-0.5 201,-0.5"/>
<text text-anchor="start" x="209" y="-18.5" font-family="Helvetica,sans-Serif" font-size="10.00">HF::Geometry::MeshInfo</text>
<text text-anchor="middle" x="268" y="-7.5" font-family="Helvetica,sans-Serif" font-size="10.00">::NumVerts</text>
</a>
</g>
</g>
<!-- Node1&#45;&gt;Node9 -->
<g id="edge8" class="edge">
<title>Node1&#45;&gt;Node9</title>
<path fill="none" stroke="midnightblue" d="M83.31,-147.29C99.91,-121.45 137.12,-69.02 182,-40.5 185.34,-38.38 188.86,-36.43 192.5,-34.65"/>
<polygon fill="midnightblue" stroke="midnightblue" points="194.03,-37.79 201.74,-30.53 191.18,-31.4 194.03,-37.79"/>
</g>
<!-- Node7 -->
<g id="node7" class="node">
<title>Node7</title>
<g id="a_node7"><a xlink:href="a00398.html#a19e11d13f73136d6819b8abee57b0fd9" target="_top" xlink:title="Check an embree device for errors.">
<polygon fill="white" stroke="black" points="390,-104 390,-123 535,-123 535,-104 390,-104"/>
<text text-anchor="middle" x="462.5" y="-111" font-family="Helvetica,sans-Serif" font-size="10.00">HF::RayTracer::CheckState</text>
</a>
</g>
</g>
<!-- Node6&#45;&gt;Node7 -->
<g id="edge6" class="edge">
<title>Node6&#45;&gt;Node7</title>
<path fill="none" stroke="midnightblue" d="M341.23,-113.5C353.77,-113.5 366.89,-113.5 379.67,-113.5"/>
<polygon fill="midnightblue" stroke="midnightblue" points="379.83,-117 389.83,-113.5 379.83,-110 379.83,-117"/>
</g>
</g>
</svg>
