<?xml version="1.0" encoding="UTF-8" standalone="no"?>
<!DOCTYPE svg PUBLIC "-//W3C//DTD SVG 1.1//EN"
 "http://www.w3.org/Graphics/SVG/1.1/DTD/svg11.dtd">
<!-- Generated by graphviz version 5.0.0 (20220707.1540)
 -->
<!-- Title: HF::RayTracer::EmbreeRayTracer::EmbreeRayTracer Pages: 1 -->
<svg width="511pt" height="216pt"
 viewBox="0.00 0.00 511.00 215.50" xmlns="http://www.w3.org/2000/svg" xmlns:xlink="http://www.w3.org/1999/xlink">
<g id="graph0" class="graph" transform="scale(1 1) rotate(0) translate(4 211.5)">
<title>HF::RayTracer::EmbreeRayTracer::EmbreeRayTracer</title>
<polygon fill="white" stroke="transparent" points="-4,4 -4,-211.5 507,-211.5 507,4 -4,4"/>
<!-- Node1 -->
<g id="node1" class="node">
<title>Node1</title>
<g id="a_node1"><a xlink:title="Create a new Raytracer and generate its BVH from a flat array of vertices.">
<polygon fill="#bfbfbf" stroke="black" points="0,-73.5 0,-103.5 137,-103.5 137,-73.5 0,-73.5"/>
<text text-anchor="start" x="8" y="-91.5" font-family="Helvetica,sans-Serif" font-size="10.00">HF::RayTracer::EmbreeRay</text>
<text text-anchor="middle" x="68.5" y="-80.5" font-family="Helvetica,sans-Serif" font-size="10.00">Tracer::EmbreeRayTracer</text>
</a>
</g>
</g>
<!-- Node2 -->
<g id="node2" class="node">
<title>Node2</title>
<g id="a_node2"><a xlink:href="a01345.html#aa602f6c44fa5230477642942ebc3216e" target="_top" xlink:title="Create a new instance of RTCGeometry from a triangle and vertex buffer.">
<polygon fill="white" stroke="black" points="173,-166 173,-207 330,-207 330,-166 173,-166"/>
<text text-anchor="start" x="181" y="-195" font-family="Helvetica,sans-Serif" font-size="10.00">HF::RayTracer::EmbreeRay</text>
<text text-anchor="start" x="181" y="-184" font-family="Helvetica,sans-Serif" font-size="10.00">Tracer::ConstructGeometryFrom</text>
<text text-anchor="middle" x="251.5" y="-173" font-family="Helvetica,sans-Serif" font-size="10.00">Buffers</text>
</a>
</g>
</g>
<!-- Node1&#45;&gt;Node2 -->
<g id="edge1" class="edge">
<title>Node1&#45;&gt;Node2</title>
<path fill="none" stroke="midnightblue" d="M89.73,-103.65C110.04,-118.41 142.6,-140.86 173,-156.5 176.51,-158.31 180.15,-160.07 183.86,-161.77"/>
<polygon fill="midnightblue" stroke="midnightblue" points="182.61,-165.05 193.17,-165.9 185.45,-158.65 182.61,-165.05"/>
</g>
<!-- Node3 -->
<g id="node3" class="node">
<title>Node3</title>
<g id="a_node3"><a xlink:href="a01345.html#a6ee1e15bc515878b156bc6a3778f8033" target="_top" xlink:title="Attach geometry to the current scene.">
<polygon fill="white" stroke="black" points="183,-98.5 183,-128.5 320,-128.5 320,-98.5 183,-98.5"/>
<text text-anchor="start" x="191" y="-116.5" font-family="Helvetica,sans-Serif" font-size="10.00">HF::RayTracer::EmbreeRay</text>
<text text-anchor="middle" x="251.5" y="-105.5" font-family="Helvetica,sans-Serif" font-size="10.00">Tracer::InsertGeom</text>
</a>
</g>
</g>
<!-- Node1&#45;&gt;Node3 -->
<g id="edge2" class="edge">
<title>Node1&#45;&gt;Node3</title>
<path fill="none" stroke="midnightblue" d="M137.16,-97.84C148.84,-99.46 161.08,-101.15 173,-102.8"/>
<polygon fill="midnightblue" stroke="midnightblue" points="172.54,-106.27 182.93,-104.17 173.5,-99.33 172.54,-106.27"/>
</g>
<!-- Node5 -->
<g id="node5" class="node">
<title>Node5</title>
<g id="a_node5"><a xlink:href="a01345.html#a19527943d1afe002c1105cb3b3691ca7" target="_top" xlink:title="Performs all the necessary operations to set up the scene.">
<polygon fill="white" stroke="black" points="183,-49.5 183,-79.5 320,-79.5 320,-49.5 183,-49.5"/>
<text text-anchor="start" x="191" y="-67.5" font-family="Helvetica,sans-Serif" font-size="10.00">HF::RayTracer::EmbreeRay</text>
<text text-anchor="middle" x="251.5" y="-56.5" font-family="Helvetica,sans-Serif" font-size="10.00">Tracer::SetupScene</text>
</a>
</g>
</g>
<!-- Node1&#45;&gt;Node5 -->
<g id="edge5" class="edge">
<title>Node1&#45;&gt;Node5</title>
<path fill="none" stroke="midnightblue" d="M137.16,-79.53C148.84,-77.98 161.08,-76.36 173,-74.78"/>
<polygon fill="midnightblue" stroke="midnightblue" points="173.47,-78.24 182.93,-73.46 172.55,-71.3 173.47,-78.24"/>
</g>
<!-- Node6 -->
<g id="node6" class="node">
<title>Node6</title>
<g id="a_node6"><a xlink:href="a00398.html#a732eb910d06064bea04e6a959fd235f0" target="_top" xlink:title="Index a list of verticies and place them into a triangle and vertex buffer.">
<polygon fill="white" stroke="black" points="188,-0.5 188,-30.5 315,-30.5 315,-0.5 188,-0.5"/>
<text text-anchor="start" x="196" y="-18.5" font-family="Helvetica,sans-Serif" font-size="10.00">HF::RayTracer::vectorsTo</text>
<text text-anchor="middle" x="251.5" y="-7.5" font-family="Helvetica,sans-Serif" font-size="10.00">Buffers</text>
</a>
</g>
</g>
<!-- Node1&#45;&gt;Node6 -->
<g id="edge6" class="edge">
<title>Node1&#45;&gt;Node6</title>
<path fill="none" stroke="midnightblue" d="M99.42,-73.44C119.87,-63.44 147.73,-50.39 173,-40.5 178.79,-38.23 184.87,-36.01 190.99,-33.88"/>
<polygon fill="midnightblue" stroke="midnightblue" points="192.23,-37.15 200.57,-30.61 189.98,-30.52 192.23,-37.15"/>
</g>
<!-- Node3&#45;&gt;Node3 -->
<g id="edge4" class="edge">
<title>Node3&#45;&gt;Node3</title>
<path fill="none" stroke="midnightblue" d="M219.78,-128.66C212.13,-138.06 222.71,-147 251.5,-147 269.05,-147 279.83,-143.68 283.84,-138.96"/>
<polygon fill="midnightblue" stroke="midnightblue" points="287.31,-138.43 283.22,-128.66 280.33,-138.85 287.31,-138.43"/>
</g>
<!-- Node4 -->
<g id="node4" class="node">
<title>Node4</title>
<g id="a_node4"><a xlink:href="a00398.html#a19e11d13f73136d6819b8abee57b0fd9" target="_top" xlink:title="Check an embree device for errors.">
<polygon fill="white" stroke="black" points="366,-104 366,-123 503,-123 503,-104 366,-104"/>
<text text-anchor="middle" x="434.5" y="-111" font-family="Helvetica,sans-Serif" font-size="10.00">HF::RayTracer::CheckState</text>
</a>
</g>
</g>
<!-- Node3&#45;&gt;Node4 -->
<g id="edge3" class="edge">
<title>Node3&#45;&gt;Node4</title>
<path fill="none" stroke="midnightblue" d="M320.16,-113.5C331.73,-113.5 343.83,-113.5 355.64,-113.5"/>
<polygon fill="midnightblue" stroke="midnightblue" points="355.93,-117 365.93,-113.5 355.93,-110 355.93,-117"/>
</g>
</g>
</svg>
