<?xml version="1.0" encoding="UTF-8" standalone="no"?>
<!DOCTYPE svg PUBLIC "-//W3C//DTD SVG 1.1//EN"
 "http://www.w3.org/Graphics/SVG/1.1/DTD/svg11.dtd">
<!-- Generated by graphviz version 7.0.4 (20221203.1631)
 -->
<!-- Title: nanort::BVHBuildOptions&lt; T &gt; Pages: 1 -->
<svg width="328pt" height="148pt"
 viewBox="0.00 0.00 328.00 148.00" xmlns="http://www.w3.org/2000/svg" xmlns:xlink="http://www.w3.org/1999/xlink">
<g id="graph0" class="graph" transform="scale(1 1) rotate(0) translate(4 144)">
<title>nanort::BVHBuildOptions&lt; T &gt;</title>
<!-- Node1 -->
<g id="node1" class="node">
<title>Node1</title>
<g id="a_node1"><a xlink:title="BVH build option.">
<polygon fill="#999999" stroke="#666666" points="224,-19 75,-19 75,0 224,0 224,-19"/>
<text text-anchor="middle" x="149.5" y="-7" font-family="Helvetica,sans-Serif" font-size="10.00">nanort::BVHBuildOptions&lt; T &gt;</text>
</a>
</g>
</g>
<!-- Node2 -->
<g id="node2" class="node">
<title>Node2</title>
<g id="a_node2"><a xlink:title=" ">
<polygon fill="white" stroke="#666666" points="35,-140 0,-140 0,-121 35,-121 35,-140"/>
<text text-anchor="middle" x="17.5" y="-128" font-family="Helvetica,sans-Serif" font-size="10.00">float</text>
</a>
</g>
</g>
<!-- Node2&#45;&gt;Node1 -->
<g id="edge1" class="edge">
<title>Node2&#45;&gt;Node1</title>
<path fill="none" stroke="#9a32cd" stroke-dasharray="5,2" d="M13.75,-109.21C11.17,-88.41 10.86,-56.44 28.5,-37 35.54,-29.24 54.77,-23.54 75.89,-19.47"/>
<polygon fill="#9a32cd" stroke="#9a32cd" points="10.28,-109.67 15.29,-119.01 17.2,-108.59 10.28,-109.67"/>
<text text-anchor="middle" x="57" y="-67.5" font-family="Helvetica,sans-Serif" font-size="10.00"> cost_t_aabb</text>
</g>
<!-- Node3 -->
<g id="node3" class="node">
<title>Node3</title>
<g id="a_node3"><a xlink:title=" ">
<polygon fill="white" stroke="#666666" points="112,-140 83,-140 83,-121 112,-121 112,-140"/>
<text text-anchor="middle" x="97.5" y="-128" font-family="Helvetica,sans-Serif" font-size="10.00">int</text>
</a>
</g>
</g>
<!-- Node3&#45;&gt;Node1 -->
<g id="edge2" class="edge">
<title>Node3&#45;&gt;Node1</title>
<path fill="none" stroke="#9a32cd" stroke-dasharray="5,2" d="M92.13,-109.43C88.01,-89.51 85.05,-58.88 98.5,-37 103.36,-29.09 111.42,-23.44 119.71,-19.43"/>
<polygon fill="#9a32cd" stroke="#9a32cd" points="88.7,-110.13 94.43,-119.05 95.51,-108.51 88.7,-110.13"/>
<text text-anchor="middle" x="139.5" y="-95" font-family="Helvetica,sans-Serif" font-size="10.00"> bin_size</text>
<text text-anchor="middle" x="139.5" y="-84" font-family="Helvetica,sans-Serif" font-size="10.00">max_tree_depth</text>
<text text-anchor="middle" x="139.5" y="-73" font-family="Helvetica,sans-Serif" font-size="10.00">min_leaf_primitives</text>
<text text-anchor="start" x="98.5" y="-62" font-family="Helvetica,sans-Serif" font-size="10.00">min_primitives_for</text>
<text text-anchor="middle" x="139.5" y="-51" font-family="Helvetica,sans-Serif" font-size="10.00">_parallel_build</text>
<text text-anchor="middle" x="139.5" y="-40" font-family="Helvetica,sans-Serif" font-size="10.00">shallow_depth</text>
</g>
<!-- Node4 -->
<g id="node4" class="node">
<title>Node4</title>
<g id="a_node4"><a xlink:title=" ">
<polygon fill="white" stroke="#666666" points="220,-140 185,-140 185,-121 220,-121 220,-140"/>
<text text-anchor="middle" x="202.5" y="-128" font-family="Helvetica,sans-Serif" font-size="10.00">bool</text>
</a>
</g>
</g>
<!-- Node4&#45;&gt;Node1 -->
<g id="edge3" class="edge">
<title>Node4&#45;&gt;Node1</title>
<path fill="none" stroke="#9a32cd" stroke-dasharray="5,2" d="M201.32,-109.42C199.37,-89.71 194.2,-59.42 180.5,-37 176.22,-29.99 169.45,-23.89 163.33,-19.32"/>
<polygon fill="#9a32cd" stroke="#9a32cd" points="197.81,-109.45 202.07,-119.15 204.79,-108.91 197.81,-109.45"/>
<text text-anchor="middle" x="227.5" y="-67.5" font-family="Helvetica,sans-Serif" font-size="10.00"> cache_bbox</text>
</g>
<!-- Node5 -->
<g id="node5" class="node">
<title>Node5</title>
<g id="a_node5"><a xlink:title=" ">
<polygon fill="white" stroke="#666666" points="320,-140 243,-140 243,-121 320,-121 320,-140"/>
<text text-anchor="middle" x="281.5" y="-128" font-family="Helvetica,sans-Serif" font-size="10.00">unsigned char</text>
</a>
</g>
</g>
<!-- Node5&#45;&gt;Node1 -->
<g id="edge4" class="edge">
<title>Node5&#45;&gt;Node1</title>
<path fill="none" stroke="#9a32cd" stroke-dasharray="5,2" d="M282.42,-109.34C282.23,-88.4 278.51,-56.07 259.5,-37 252.11,-29.59 231.84,-23.76 210.67,-19.48"/>
<polygon fill="#9a32cd" stroke="#9a32cd" points="278.93,-109.11 282.22,-119.18 285.92,-109.25 278.93,-109.11"/>
<text text-anchor="middle" x="291" y="-67.5" font-family="Helvetica,sans-Serif" font-size="10.00"> pad</text>
</g>
</g>
</svg>
