<?xml version="1.0" encoding="UTF-8" standalone="no"?>
<!DOCTYPE svg PUBLIC "-//W3C//DTD SVG 1.1//EN"
 "http://www.w3.org/Graphics/SVG/1.1/DTD/svg11.dtd">
<!-- Generated by graphviz version 7.0.3 (20221126.0506)
 -->
<!-- Title: nanort::Ray&lt; T &gt; Pages: 1 -->
<svg width="98pt" height="126pt"
 viewBox="0.00 0.00 98.00 126.00" xmlns="http://www.w3.org/2000/svg" xmlns:xlink="http://www.w3.org/1999/xlink">
<g id="graph0" class="graph" transform="scale(1 1) rotate(0) translate(4 122)">
<title>nanort::Ray&lt; T &gt;</title>
<!-- Node1 -->
<g id="node1" class="node">
<title>Node1</title>
<g id="a_node1"><a xlink:title=" ">
<polygon fill="#999999" stroke="#666666" points="90,-19 0,-19 0,0 90,0 90,-19"/>
<text text-anchor="middle" x="45" y="-7" font-family="Helvetica,sans-Serif" font-size="10.00">nanort::Ray&lt; T &gt;</text>
</a>
</g>
</g>
<!-- Node2 -->
<g id="node2" class="node">
<title>Node2</title>
<g id="a_node2"><a xlink:title=" ">
<polygon fill="white" stroke="#666666" points="37.5,-118 2.5,-118 2.5,-99 37.5,-99 37.5,-118"/>
<text text-anchor="middle" x="20" y="-106" font-family="Helvetica,sans-Serif" font-size="10.00">float</text>
</a>
</g>
</g>
<!-- Node2&#45;&gt;Node1 -->
<g id="edge1" class="edge">
<title>Node2&#45;&gt;Node1</title>
<path fill="none" stroke="#9a32cd" stroke-dasharray="5,2" d="M16.64,-87.73C15.02,-73.18 14.62,-53.21 21,-37 23.68,-30.18 28.99,-24.02 33.94,-19.36"/>
<polygon fill="#9a32cd" stroke="#9a32cd" points="13.14,-87.98 18.02,-97.38 20.07,-86.99 13.14,-87.98"/>
<text text-anchor="middle" x="35" y="-73" font-family="Helvetica,sans-Serif" font-size="10.00"> dir</text>
<text text-anchor="middle" x="35" y="-62" font-family="Helvetica,sans-Serif" font-size="10.00">max_t</text>
<text text-anchor="middle" x="35" y="-51" font-family="Helvetica,sans-Serif" font-size="10.00">min_t</text>
<text text-anchor="middle" x="35" y="-40" font-family="Helvetica,sans-Serif" font-size="10.00">org</text>
</g>
<!-- Node3 -->
<g id="node3" class="node">
<title>Node3</title>
<g id="a_node3"><a xlink:title=" ">
<polygon fill="white" stroke="#666666" points="85.5,-118 56.5,-118 56.5,-99 85.5,-99 85.5,-118"/>
<text text-anchor="middle" x="71" y="-106" font-family="Helvetica,sans-Serif" font-size="10.00">int</text>
</a>
</g>
</g>
<!-- Node3&#45;&gt;Node1 -->
<g id="edge2" class="edge">
<title>Node3&#45;&gt;Node1</title>
<path fill="none" stroke="#9a32cd" stroke-dasharray="5,2" d="M65.63,-87.46C60.03,-66.57 51.51,-34.79 47.39,-19.43"/>
<polygon fill="#9a32cd" stroke="#9a32cd" points="62.24,-88.33 68.21,-97.09 69,-86.52 62.24,-88.33"/>
<text text-anchor="middle" x="74" y="-56.5" font-family="Helvetica,sans-Serif" font-size="10.00"> type</text>
</g>
</g>
</svg>
