<?xml version="1.0" encoding="UTF-8" standalone="no"?>
<!DOCTYPE svg PUBLIC "-//W3C//DTD SVG 1.1//EN"
 "http://www.w3.org/Graphics/SVG/1.1/DTD/svg11.dtd">
<!-- Generated by graphviz version 7.0.3 (20221126.0506)
 -->
<!-- Title: HF::Pathfinding::vertex_data Pages: 1 -->
<svg width="166pt" height="93pt"
 viewBox="0.00 0.00 165.50 93.00" xmlns="http://www.w3.org/2000/svg" xmlns:xlink="http://www.w3.org/1999/xlink">
<g id="graph0" class="graph" transform="scale(1 1) rotate(0) translate(4 89)">
<title>HF::Pathfinding::vertex_data</title>
<!-- Node1 -->
<g id="node1" class="node">
<title>Node1</title>
<g id="a_node1"><a xlink:title="Data stored for every vertex in the BoostGraph.">
<polygon fill="#999999" stroke="#666666" points="157.5,-19 18.5,-19 18.5,0 157.5,0 157.5,-19"/>
<text text-anchor="middle" x="88" y="-7" font-family="Helvetica,sans-Serif" font-size="10.00">HF::Pathfinding::vertex_data</text>
</a>
</g>
</g>
<!-- Node2 -->
<g id="node2" class="node">
<title>Node2</title>
<g id="a_node2"><a xlink:title=" ">
<polygon fill="white" stroke="#666666" points="90,-85 0,-85 0,-66 90,-66 90,-85"/>
<text text-anchor="middle" x="45" y="-73" font-family="Helvetica,sans-Serif" font-size="10.00">vertex_descriptor</text>
</a>
</g>
</g>
<!-- Node2&#45;&gt;Node1 -->
<g id="edge1" class="edge">
<title>Node2&#45;&gt;Node1</title>
<path fill="none" stroke="#9a32cd" stroke-dasharray="5,2" d="M57.16,-56.4C65.31,-44.27 75.67,-28.84 82.07,-19.32"/>
<polygon fill="#9a32cd" stroke="#9a32cd" points="54.49,-54.09 51.82,-64.34 60.31,-58 54.49,-54.09"/>
<text text-anchor="middle" x="74.5" y="-40" font-family="Helvetica,sans-Serif" font-size="10.00"> p</text>
</g>
<!-- Node3 -->
<g id="node3" class="node">
<title>Node3</title>
<g id="a_node3"><a xlink:href="a00001.html#a02073" target="_top" xlink:title=" ">
<polygon fill="white" stroke="#666666" points="153.5,-85 108.5,-85 108.5,-66 153.5,-66 153.5,-85"/>
<text text-anchor="middle" x="131" y="-73" font-family="Helvetica,sans-Serif" font-size="10.00">double</text>
</a>
</g>
</g>
<!-- Node3&#45;&gt;Node1 -->
<g id="edge2" class="edge">
<title>Node3&#45;&gt;Node1</title>
<path fill="none" stroke="#9a32cd" stroke-dasharray="5,2" d="M118.84,-56.4C110.69,-44.27 100.33,-28.84 93.93,-19.32"/>
<polygon fill="#9a32cd" stroke="#9a32cd" points="115.69,-58 124.18,-64.34 121.51,-54.09 115.69,-58"/>
<text text-anchor="middle" x="116.5" y="-40" font-family="Helvetica,sans-Serif" font-size="10.00"> d</text>
</g>
</g>
</svg>
