<?xml version="1.0" encoding="UTF-8" standalone="no"?>
<!DOCTYPE svg PUBLIC "-//W3C//DTD SVG 1.1//EN"
 "http://www.w3.org/Graphics/SVG/1.1/DTD/svg11.dtd">
<!-- Generated by graphviz version 8.0.5 (20230430.1635)
 -->
<!-- Title: HF::RayTracer::EmbreeRayTracer::PointIntersection Pages: 1 -->
<svg width="476pt" height="40pt"
 viewBox="0.00 0.00 476.00 40.00" xmlns="http://www.w3.org/2000/svg" xmlns:xlink="http://www.w3.org/1999/xlink">
<g id="graph0" class="graph" transform="scale(1 1) rotate(0) translate(4 36)">
<title>HF::RayTracer::EmbreeRayTracer::PointIntersection</title>
<!-- Node1 -->
<g id="node1" class="node">
<title>Node1</title>
<g id="a_node1"><a xlink:title="Cast a single ray and get the hitpoint. x , y ,and z &#160;are overridden with the hitpoint on a successfu...">
<polygon fill="#999999" stroke="#666666" points="136,-32 0,-32 0,0 136,0 136,-32"/>
<text text-anchor="start" x="8" y="-18.5" font-family="Helvetica,sans-Serif" font-size="10.00">HF::RayTracer::EmbreeRay</text>
<text text-anchor="middle" x="68" y="-6.5" font-family="Helvetica,sans-Serif" font-size="10.00">Tracer::PointIntersection</text>
</a>
</g>
</g>
<!-- Node2 -->
<g id="node2" class="node">
<title>Node2</title>
<g id="a_node2"><a xlink:href="a01349.html#a3d86c2c8d8e0ec6bf63a653ec89807a8" target="_top" xlink:title="Determine whether or not this hitstruct contains a hit.">
<polygon fill="white" stroke="#666666" points="295.25,-32 172,-32 172,0 295.25,0 295.25,-32"/>
<text text-anchor="start" x="180" y="-18.5" font-family="Helvetica,sans-Serif" font-size="10.00">HF::RayTracer::HitStruct</text>
<text text-anchor="middle" x="233.63" y="-6.5" font-family="Helvetica,sans-Serif" font-size="10.00">::DidHit</text>
</a>
</g>
</g>
<!-- Node1&#45;&gt;Node2 -->
<g id="edge1" class="edge">
<title>Node1&#45;&gt;Node2</title>
<path fill="none" stroke="#63b8ff" d="M136.5,-16C144.49,-16 152.66,-16 160.71,-16"/>
<polygon fill="#63b8ff" stroke="#63b8ff" points="160.57,-19.5 170.57,-16 160.57,-12.5 160.57,-19.5"/>
</g>
<!-- Node3 -->
<g id="node3" class="node">
<title>Node3</title>
<g id="a_node3"><a xlink:href="a00398.html#a2630761a64fac02a4ee33abaf5c885a1" target="_top" xlink:title=" ">
<polygon fill="white" stroke="#666666" points="468,-26 331.25,-26 331.25,-6 468,-6 468,-26"/>
<text text-anchor="middle" x="399.63" y="-12.5" font-family="Helvetica,sans-Serif" font-size="10.00">HF::RayTracer::DidIntersect</text>
</a>
</g>
</g>
<!-- Node2&#45;&gt;Node3 -->
<g id="edge2" class="edge">
<title>Node2&#45;&gt;Node3</title>
<path fill="none" stroke="#63b8ff" d="M295.69,-16C303.67,-16 311.93,-16 320.15,-16"/>
<polygon fill="#63b8ff" stroke="#63b8ff" points="319.89,-19.5 329.89,-16 319.89,-12.5 319.89,-19.5"/>
</g>
</g>
</svg>
