<?xml version="1.0" encoding="UTF-8" standalone="no"?>
<!DOCTYPE svg PUBLIC "-//W3C//DTD SVG 1.1//EN"
 "http://www.w3.org/Graphics/SVG/1.1/DTD/svg11.dtd">
<!-- Generated by graphviz version 4.0.0 (20220529.0937)
 -->
<!-- Title: nanort::BVHBuildStatistics Pages: 1 -->
<svg width="174pt" height="117pt"
 viewBox="0.00 0.00 173.50 117.00" xmlns="http://www.w3.org/2000/svg" xmlns:xlink="http://www.w3.org/1999/xlink">
<g id="graph0" class="graph" transform="scale(1 1) rotate(0) translate(4 113)">
<title>nanort::BVHBuildStatistics</title>
<polygon fill="white" stroke="transparent" points="-4,4 -4,-113 169.5,-113 169.5,4 -4,4"/>
<!-- Node1 -->
<g id="node1" class="node">
<title>Node1</title>
<g id="a_node1"><a xlink:title="BVH build statistics.">
<polygon fill="#bfbfbf" stroke="black" points="2,-0.5 2,-19.5 135,-19.5 135,-0.5 2,-0.5"/>
<text text-anchor="middle" x="68.5" y="-7.5" font-family="Helvetica,sans-Serif" font-size="10.00">nanort::BVHBuildStatistics</text>
</a>
</g>
</g>
<!-- Node2 -->
<g id="node2" class="node">
<title>Node2</title>
<g id="a_node2"><a xlink:title=" ">
<polygon fill="white" stroke="black" points="0,-89.5 0,-108.5 29,-108.5 29,-89.5 0,-89.5"/>
<text text-anchor="middle" x="14.5" y="-96.5" font-family="Helvetica,sans-Serif" font-size="10.00">int</text>
</a>
</g>
</g>
<!-- Node2&#45;&gt;Node1 -->
<g id="edge1" class="edge">
<title>Node2&#45;&gt;Node1</title>
<path fill="none" stroke="#9a32cd" stroke-dasharray="5,2" d="M10.14,-79.61C8.2,-66.97 7.82,-50.3 15.5,-38 20.75,-29.59 29.52,-23.69 38.42,-19.6"/>
<polygon fill="#9a32cd" stroke="#9a32cd" points="6.72,-80.35 12.09,-89.48 13.58,-78.99 6.72,-80.35"/>
<text text-anchor="middle" x="58" y="-63" font-family="Helvetica,sans-Serif" font-size="10.00"> max_tree_depth</text>
<text text-anchor="middle" x="58" y="-52" font-family="Helvetica,sans-Serif" font-size="10.00">num_branch_nodes</text>
<text text-anchor="middle" x="58" y="-41" font-family="Helvetica,sans-Serif" font-size="10.00">num_leaf_nodes</text>
</g>
<!-- Node3 -->
<g id="node3" class="node">
<title>Node3</title>
<g id="a_node3"><a xlink:title=" ">
<polygon fill="white" stroke="black" points="105,-89.5 105,-108.5 140,-108.5 140,-89.5 105,-89.5"/>
<text text-anchor="middle" x="122.5" y="-96.5" font-family="Helvetica,sans-Serif" font-size="10.00">float</text>
</a>
</g>
</g>
<!-- Node3&#45;&gt;Node1 -->
<g id="edge2" class="edge">
<title>Node3&#45;&gt;Node1</title>
<path fill="none" stroke="#9a32cd" stroke-dasharray="5,2" d="M118.36,-79.41C114.96,-66.92 109.26,-50.51 100.5,-38 95.5,-30.85 88.15,-24.47 81.76,-19.71"/>
<polygon fill="#9a32cd" stroke="#9a32cd" points="114.98,-80.32 120.77,-89.19 121.77,-78.64 114.98,-80.32"/>
<text text-anchor="middle" x="140.5" y="-52" font-family="Helvetica,sans-Serif" font-size="10.00"> build_secs</text>
</g>
</g>
</svg>
