<?xml version="1.0" encoding="UTF-8" standalone="no"?>
<!DOCTYPE svg PUBLIC "-//W3C//DTD SVG 1.1//EN"
 "http://www.w3.org/Graphics/SVG/1.1/DTD/svg11.dtd">
<!-- Generated by graphviz version 2.43.0 (0)
 -->
<!-- Title: HF::Pathfinding::DistanceAndPredecessor::GetRowOfPred Pages: 1 -->
<svg width="733pt" height="110pt"
 viewBox="0.00 0.00 733.00 110.00" xmlns="http://www.w3.org/2000/svg" xmlns:xlink="http://www.w3.org/1999/xlink">
<g id="graph0" class="graph" transform="scale(1 1) rotate(0) translate(4 106)">
<title>HF::Pathfinding::DistanceAndPredecessor::GetRowOfPred</title>
<polygon fill="white" stroke="transparent" points="-4,4 -4,-106 729,-106 729,4 -4,4"/>
<!-- Node1 -->
<g id="node1" class="node">
<title>Node1</title>
<g id="a_node1"><a xlink:title="Get a pointer to the beginning of the ith row of the predecessor array.">
<polygon fill="#bfbfbf" stroke="black" points="553,-17 553,-47 725,-47 725,-17 553,-17"/>
<text text-anchor="start" x="561" y="-35" font-family="Helvetica,sans-Serif" font-size="10.00">HF::Pathfinding::Distance</text>
<text text-anchor="middle" x="639" y="-24" font-family="Helvetica,sans-Serif" font-size="10.00">AndPredecessor::GetRowOfPred</text>
</a>
</g>
</g>
<!-- Node2 -->
<g id="node2" class="node">
<title>Node2</title>
<g id="a_node2"><a xlink:href="a00406.html#ab58662be8e56c333d74d60a823e810e3" target="_top" xlink:title="Generate the distance and predecessor matricies for a specific boost graph.">
<polygon fill="white" stroke="black" points="377,-39 377,-69 517,-69 517,-39 377,-39"/>
<text text-anchor="start" x="385" y="-57" font-family="Helvetica,sans-Serif" font-size="10.00">HF::Pathfinding::Generate</text>
<text text-anchor="middle" x="447" y="-46" font-family="Helvetica,sans-Serif" font-size="10.00">DistanceAndPred</text>
</a>
</g>
</g>
<!-- Node1&#45;&gt;Node2 -->
<g id="edge1" class="edge">
<title>Node1&#45;&gt;Node2</title>
<path fill="none" stroke="midnightblue" d="M542.62,-43.04C534,-44.04 525.39,-45.04 517.06,-46"/>
<polygon fill="midnightblue" stroke="midnightblue" points="543.2,-46.5 552.73,-41.87 542.39,-39.55 543.2,-46.5"/>
</g>
<!-- Node7 -->
<g id="node7" class="node">
<title>Node7</title>
<g id="a_node7"><a xlink:href="a00140.html#ad50018a1dd0c6e3648abea6dcd2d7a86" target="_top" xlink:title="An overload to print HF::Pathfinding::DistanceAndPredecessor when passed to cout .">
<polygon fill="white" stroke="black" points="410,-0.5 410,-19.5 484,-19.5 484,-0.5 410,-0.5"/>
<text text-anchor="middle" x="447" y="-7.5" font-family="Helvetica,sans-Serif" font-size="10.00">operator&lt;&lt;</text>
</a>
</g>
</g>
<!-- Node1&#45;&gt;Node7 -->
<g id="edge7" class="edge">
<title>Node1&#45;&gt;Node7</title>
<path fill="none" stroke="midnightblue" d="M542.54,-20.95C521.76,-18.54 501,-16.14 484.26,-14.2"/>
<polygon fill="midnightblue" stroke="midnightblue" points="542.39,-24.45 552.73,-22.13 543.2,-17.5 542.39,-24.45"/>
</g>
<!-- Node3 -->
<g id="node3" class="node">
<title>Node3</title>
<g id="a_node3"><a xlink:href="a00390.html#ga27b1f45019ccbda909301520d1c738ca" target="_top" xlink:title="Calculate the distance and predecessor matricies for a graph.">
<polygon fill="white" stroke="black" points="158,-82.5 158,-101.5 341,-101.5 341,-82.5 158,-82.5"/>
<text text-anchor="middle" x="249.5" y="-89.5" font-family="Helvetica,sans-Serif" font-size="10.00">CalculateDistanceAndPredecessor</text>
</a>
</g>
</g>
<!-- Node2&#45;&gt;Node3 -->
<g id="edge2" class="edge">
<title>Node2&#45;&gt;Node3</title>
<path fill="none" stroke="midnightblue" d="M366.82,-69.39C344.1,-73.81 319.98,-78.49 299.64,-82.45"/>
<polygon fill="midnightblue" stroke="midnightblue" points="367.65,-72.79 376.8,-67.45 366.31,-65.92 367.65,-72.79"/>
</g>
<!-- Node5 -->
<g id="node5" class="node">
<title>Node5</title>
<g id="a_node5"><a xlink:href="a00414.html#a54e90e9bc9234bfe95b0e18e74baa0b2" target="_top" xlink:title=" ">
<polygon fill="white" stroke="black" points="0,-44.5 0,-63.5 122,-63.5 122,-44.5 0,-44.5"/>
<text text-anchor="middle" x="61" y="-51.5" font-family="Helvetica,sans-Serif" font-size="10.00">CInterfaceTests::TEST</text>
</a>
</g>
</g>
<!-- Node2&#45;&gt;Node5 -->
<g id="edge6" class="edge">
<title>Node2&#45;&gt;Node5</title>
<path fill="none" stroke="midnightblue" d="M366.88,-54C294.17,-54 187.97,-54 122.02,-54"/>
<polygon fill="midnightblue" stroke="midnightblue" points="366.91,-57.5 376.91,-54 366.9,-50.5 366.91,-57.5"/>
</g>
<!-- Node6 -->
<g id="node6" class="node">
<title>Node6</title>
<g id="a_node6"><a xlink:href="a00311.html#a09030f1e30c1d241c360d2f8a96023c8" target="_top" xlink:title=" ">
<polygon fill="white" stroke="black" points="229,-6.5 229,-25.5 270,-25.5 270,-6.5 229,-6.5"/>
<text text-anchor="middle" x="249.5" y="-13.5" font-family="Helvetica,sans-Serif" font-size="10.00">TEST</text>
</a>
</g>
</g>
<!-- Node2&#45;&gt;Node6 -->
<g id="edge5" class="edge">
<title>Node2&#45;&gt;Node6</title>
<path fill="none" stroke="midnightblue" d="M366.94,-38.63C331.59,-31.76 292.86,-24.23 270.17,-19.82"/>
<polygon fill="midnightblue" stroke="midnightblue" points="366.31,-42.08 376.8,-40.55 367.65,-35.21 366.31,-42.08"/>
</g>
<!-- Node4 -->
<g id="node4" class="node">
<title>Node4</title>
<g id="a_node4"><a xlink:href="a00311.html#a9cd14b781d7d4572fbcd5be32c359bf8" target="_top" xlink:title=" ">
<polygon fill="white" stroke="black" points="40.5,-82.5 40.5,-101.5 81.5,-101.5 81.5,-82.5 40.5,-82.5"/>
<text text-anchor="middle" x="61" y="-89.5" font-family="Helvetica,sans-Serif" font-size="10.00">TEST</text>
</a>
</g>
</g>
<!-- Node3&#45;&gt;Node4 -->
<g id="edge3" class="edge">
<title>Node3&#45;&gt;Node4</title>
<path fill="none" stroke="midnightblue" d="M147.87,-92C122.53,-92 97.93,-92 81.6,-92"/>
<polygon fill="midnightblue" stroke="midnightblue" points="147.98,-95.5 157.98,-92 147.98,-88.5 147.98,-95.5"/>
</g>
<!-- Node3&#45;&gt;Node5 -->
<g id="edge4" class="edge">
<title>Node3&#45;&gt;Node5</title>
<path fill="none" stroke="midnightblue" d="M191.52,-80.39C165,-74.99 133.83,-68.64 108.72,-63.52"/>
<polygon fill="midnightblue" stroke="midnightblue" points="190.94,-83.84 201.44,-82.41 192.34,-76.98 190.94,-83.84"/>
</g>
</g>
</svg>
