<?xml version="1.0" encoding="UTF-8" standalone="no"?>
<!DOCTYPE svg PUBLIC "-//W3C//DTD SVG 1.1//EN"
 "http://www.w3.org/Graphics/SVG/1.1/DTD/svg11.dtd">
<!-- Generated by graphviz version 7.0.1 (20221109.1506)
 -->
<!-- Title: HF::RayTracer::EmbreeRayTracer::CalculatePreciseDistance Pages: 1 -->
<svg width="524pt" height="115pt"
 viewBox="0.00 0.00 524.00 114.50" xmlns="http://www.w3.org/2000/svg" xmlns:xlink="http://www.w3.org/1999/xlink">
<g id="graph0" class="graph" transform="scale(1 1) rotate(0) translate(4 110.5)">
<title>HF::RayTracer::EmbreeRayTracer::CalculatePreciseDistance</title>
<!-- Node1 -->
<g id="node1" class="node">
<title>Node1</title>
<g id="a_node1"><a xlink:title="Calculate the distance from origin to the point of intersection using an algorithm with higher precis...">
<polygon fill="#999999" stroke="#666666" points="161,-82.5 0,-82.5 0,-52.5 161,-52.5 161,-82.5"/>
<text text-anchor="start" x="8" y="-70.5" font-family="Helvetica,sans-Serif" font-size="10.00">HF::RayTracer::EmbreeRay</text>
<text text-anchor="middle" x="80.5" y="-59.5" font-family="Helvetica,sans-Serif" font-size="10.00">Tracer::CalculatePreciseDistance</text>
</a>
</g>
</g>
<!-- Node2 -->
<g id="node2" class="node">
<title>Node2</title>
<g id="a_node2"><a xlink:href="a01345.html#a619072a17db71253fc9ce3bdf1ba1920" target="_top" xlink:title="Get the vertices for a specific triangle in a mesh.">
<polygon fill="white" stroke="#666666" points="334,-106.5 197,-106.5 197,-76.5 334,-76.5 334,-106.5"/>
<text text-anchor="start" x="205" y="-94.5" font-family="Helvetica,sans-Serif" font-size="10.00">HF::RayTracer::EmbreeRay</text>
<text text-anchor="middle" x="265.5" y="-83.5" font-family="Helvetica,sans-Serif" font-size="10.00">Tracer::GetTriangle</text>
</a>
</g>
</g>
<!-- Node1&#45;&gt;Node2 -->
<g id="edge1" class="edge">
<title>Node1&#45;&gt;Node2</title>
<path fill="none" stroke="#63b8ff" d="M161.23,-77.96C169.29,-79.01 177.46,-80.09 185.51,-81.14"/>
<polygon fill="#63b8ff" stroke="#63b8ff" points="184.89,-84.59 195.27,-82.42 185.81,-77.65 184.89,-84.59"/>
</g>
<!-- Node4 -->
<g id="node4" class="node">
<title>Node4</title>
<g id="a_node4"><a xlink:href="a00398.html#a9498ae7ffabd8c5bca4026374ac862e9" target="_top" xlink:title="Determine the distance between a ray&#39;s origin and it&#39;s point of intersection with a triangle.">
<polygon fill="white" stroke="#666666" points="334,-58.5 197,-58.5 197,-28.5 334,-28.5 334,-58.5"/>
<text text-anchor="start" x="205" y="-46.5" font-family="Helvetica,sans-Serif" font-size="10.00">HF::RayTracer::RayTriangle</text>
<text text-anchor="middle" x="265.5" y="-35.5" font-family="Helvetica,sans-Serif" font-size="10.00">Intersection</text>
</a>
</g>
</g>
<!-- Node1&#45;&gt;Node4 -->
<g id="edge3" class="edge">
<title>Node1&#45;&gt;Node4</title>
<path fill="none" stroke="#63b8ff" d="M161.23,-57.04C169.29,-55.99 177.46,-54.91 185.51,-53.86"/>
<polygon fill="#63b8ff" stroke="#63b8ff" points="185.81,-57.35 195.27,-52.58 184.89,-50.41 185.81,-57.35"/>
</g>
<!-- Node3 -->
<g id="node3" class="node">
<title>Node3</title>
<g id="a_node3"><a xlink:href="a00398.html#a6e20c473674ea46f649ef827818841d2" target="_top" xlink:title=" ">
<polygon fill="white" stroke="#666666" points="516,-106.5 370,-106.5 370,-76.5 516,-76.5 516,-106.5"/>
<text text-anchor="start" x="378" y="-94.5" font-family="Helvetica,sans-Serif" font-size="10.00">HF::RayTracer::GetPointFrom</text>
<text text-anchor="middle" x="443" y="-83.5" font-family="Helvetica,sans-Serif" font-size="10.00">Buffer</text>
</a>
</g>
</g>
<!-- Node2&#45;&gt;Node3 -->
<g id="edge2" class="edge">
<title>Node2&#45;&gt;Node3</title>
<path fill="none" stroke="#63b8ff" d="M334.35,-91.5C342.22,-91.5 350.31,-91.5 358.36,-91.5"/>
<polygon fill="#63b8ff" stroke="#63b8ff" points="358.16,-95 368.16,-91.5 358.16,-88 358.16,-95"/>
</g>
<!-- Node5 -->
<g id="node5" class="node">
<title>Node5</title>
<g id="a_node5"><a xlink:href="a00398.html#a16f9f26b0140f023ce820ec55e38c66b" target="_top" xlink:title=" ">
<polygon fill="white" stroke="#666666" points="498,-56 388,-56 388,-37 498,-37 498,-56"/>
<text text-anchor="middle" x="443" y="-44" font-family="Helvetica,sans-Serif" font-size="10.00">HF::RayTracer::cross</text>
</a>
</g>
</g>
<!-- Node4&#45;&gt;Node5 -->
<g id="edge4" class="edge">
<title>Node4&#45;&gt;Node5</title>
<path fill="none" stroke="#63b8ff" d="M334.35,-44.66C348.14,-44.9 362.63,-45.14 376.34,-45.38"/>
<polygon fill="#63b8ff" stroke="#63b8ff" points="376.07,-48.87 386.13,-45.54 376.19,-41.87 376.07,-48.87"/>
</g>
<!-- Node6 -->
<g id="node6" class="node">
<title>Node6</title>
<g id="a_node6"><a xlink:href="a00398.html#ae551c109488ce94d0a568712b50da689" target="_top" xlink:title=" ">
<polygon fill="white" stroke="#666666" points="492.5,-19 393.5,-19 393.5,0 492.5,0 492.5,-19"/>
<text text-anchor="middle" x="443" y="-7" font-family="Helvetica,sans-Serif" font-size="10.00">HF::RayTracer::dot</text>
</a>
</g>
</g>
<!-- Node4&#45;&gt;Node6 -->
<g id="edge5" class="edge">
<title>Node4&#45;&gt;Node6</title>
<path fill="none" stroke="#63b8ff" d="M334.35,-30.35C350.11,-27.3 366.77,-24.07 382.15,-21.09"/>
<polygon fill="#63b8ff" stroke="#63b8ff" points="382.46,-24.6 391.61,-19.26 381.13,-17.73 382.46,-24.6"/>
</g>
</g>
</svg>
