<?xml version="1.0" encoding="UTF-8" standalone="no"?>
<!DOCTYPE svg PUBLIC "-//W3C//DTD SVG 1.1//EN"
 "http://www.w3.org/Graphics/SVG/1.1/DTD/svg11.dtd">
<!-- Generated by graphviz version 8.0.5 (20230430.1635)
 -->
<!-- Title: HF::RayTracer::EmbreeRayTracer::CalculatePreciseDistance Pages: 1 -->
<svg width="523pt" height="119pt"
 viewBox="0.00 0.00 522.50 119.00" xmlns="http://www.w3.org/2000/svg" xmlns:xlink="http://www.w3.org/1999/xlink">
<g id="graph0" class="graph" transform="scale(1 1) rotate(0) translate(4 115)">
<title>HF::RayTracer::EmbreeRayTracer::CalculatePreciseDistance</title>
<!-- Node1 -->
<g id="node1" class="node">
<title>Node1</title>
<g id="a_node1"><a xlink:title="Calculate the distance from origin to the point of intersection using an algorithm with higher precis...">
<polygon fill="#999999" stroke="#666666" points="160.75,-86 0,-86 0,-54 160.75,-54 160.75,-86"/>
<text text-anchor="start" x="8" y="-72.5" font-family="Helvetica,sans-Serif" font-size="10.00">HF::RayTracer::EmbreeRay</text>
<text text-anchor="middle" x="80.38" y="-60.5" font-family="Helvetica,sans-Serif" font-size="10.00">Tracer::CalculatePreciseDistance</text>
</a>
</g>
</g>
<!-- Node2 -->
<g id="node2" class="node">
<title>Node2</title>
<g id="a_node2"><a xlink:href="a01345.html#a619072a17db71253fc9ce3bdf1ba1920" target="_top" xlink:title="Get the vertices for a specific triangle in a mesh.">
<polygon fill="white" stroke="#666666" points="332.75,-111 196.75,-111 196.75,-79 332.75,-79 332.75,-111"/>
<text text-anchor="start" x="204.75" y="-97.5" font-family="Helvetica,sans-Serif" font-size="10.00">HF::RayTracer::EmbreeRay</text>
<text text-anchor="middle" x="264.75" y="-85.5" font-family="Helvetica,sans-Serif" font-size="10.00">Tracer::GetTriangle</text>
</a>
</g>
</g>
<!-- Node1&#45;&gt;Node2 -->
<g id="edge1" class="edge">
<title>Node1&#45;&gt;Node2</title>
<path fill="none" stroke="#63b8ff" d="M161.1,-80.93C169.3,-82.05 177.62,-83.19 185.8,-84.31"/>
<polygon fill="#63b8ff" stroke="#63b8ff" points="185.06,-87.88 195.44,-85.77 186.01,-80.95 185.06,-87.88"/>
</g>
<!-- Node4 -->
<g id="node4" class="node">
<title>Node4</title>
<g id="a_node4"><a xlink:href="a00398.html#a9498ae7ffabd8c5bca4026374ac862e9" target="_top" xlink:title="Determine the distance between a ray&#39;s origin and it&#39;s point of intersection with a triangle.">
<polygon fill="white" stroke="#666666" points="332.75,-61 196.75,-61 196.75,-29 332.75,-29 332.75,-61"/>
<text text-anchor="start" x="204.75" y="-47.5" font-family="Helvetica,sans-Serif" font-size="10.00">HF::RayTracer::RayTriangle</text>
<text text-anchor="middle" x="264.75" y="-35.5" font-family="Helvetica,sans-Serif" font-size="10.00">Intersection</text>
</a>
</g>
</g>
<!-- Node1&#45;&gt;Node4 -->
<g id="edge3" class="edge">
<title>Node1&#45;&gt;Node4</title>
<path fill="none" stroke="#63b8ff" d="M161.1,-59.07C169.3,-57.95 177.62,-56.81 185.8,-55.69"/>
<polygon fill="#63b8ff" stroke="#63b8ff" points="186.01,-59.05 195.44,-54.23 185.06,-52.12 186.01,-59.05"/>
</g>
<!-- Node3 -->
<g id="node3" class="node">
<title>Node3</title>
<g id="a_node3"><a xlink:href="a00398.html#a6e20c473674ea46f649ef827818841d2" target="_top" xlink:title=" ">
<polygon fill="white" stroke="#666666" points="514.5,-111 368.75,-111 368.75,-79 514.5,-79 514.5,-111"/>
<text text-anchor="start" x="376.75" y="-97.5" font-family="Helvetica,sans-Serif" font-size="10.00">HF::RayTracer::GetPointFrom</text>
<text text-anchor="middle" x="441.63" y="-85.5" font-family="Helvetica,sans-Serif" font-size="10.00">Buffer</text>
</a>
</g>
</g>
<!-- Node2&#45;&gt;Node3 -->
<g id="edge2" class="edge">
<title>Node2&#45;&gt;Node3</title>
<path fill="none" stroke="#63b8ff" d="M333.11,-95C341.14,-95 349.41,-95 357.62,-95"/>
<polygon fill="#63b8ff" stroke="#63b8ff" points="357.36,-98.5 367.36,-95 357.36,-91.5 357.36,-98.5"/>
</g>
<!-- Node5 -->
<g id="node5" class="node">
<title>Node5</title>
<g id="a_node5"><a xlink:href="a00398.html#a16f9f26b0140f023ce820ec55e38c66b" target="_top" xlink:title=" ">
<polygon fill="white" stroke="#666666" points="496.13,-58 387.13,-58 387.13,-38 496.13,-38 496.13,-58"/>
<text text-anchor="middle" x="441.63" y="-44.5" font-family="Helvetica,sans-Serif" font-size="10.00">HF::RayTracer::cross</text>
</a>
</g>
</g>
<!-- Node4&#45;&gt;Node5 -->
<g id="edge4" class="edge">
<title>Node4&#45;&gt;Node5</title>
<path fill="none" stroke="#63b8ff" d="M333.11,-46.16C347.16,-46.4 361.93,-46.65 375.88,-46.89"/>
<polygon fill="#63b8ff" stroke="#63b8ff" points="375.8,-50.41 385.86,-47.08 375.92,-43.41 375.8,-50.41"/>
</g>
<!-- Node6 -->
<g id="node6" class="node">
<title>Node6</title>
<g id="a_node6"><a xlink:href="a00398.html#ae551c109488ce94d0a568712b50da689" target="_top" xlink:title=" ">
<polygon fill="white" stroke="#666666" points="490.88,-20 392.38,-20 392.38,0 490.88,0 490.88,-20"/>
<text text-anchor="middle" x="441.63" y="-6.5" font-family="Helvetica,sans-Serif" font-size="10.00">HF::RayTracer::dot</text>
</a>
</g>
</g>
<!-- Node4&#45;&gt;Node6 -->
<g id="edge5" class="edge">
<title>Node4&#45;&gt;Node6</title>
<path fill="none" stroke="#63b8ff" d="M333.11,-31.52C349.06,-28.33 365.95,-24.95 381.5,-21.83"/>
<polygon fill="#63b8ff" stroke="#63b8ff" points="381.9,-25.12 391.02,-19.73 380.53,-18.26 381.9,-25.12"/>
</g>
</g>
</svg>
