<?xml version="1.0" encoding="UTF-8" standalone="no"?>
<!DOCTYPE svg PUBLIC "-//W3C//DTD SVG 1.1//EN"
 "http://www.w3.org/Graphics/SVG/1.1/DTD/svg11.dtd">
<!-- Generated by graphviz version 4.0.0 (20220529.0937)
 -->
<!-- Title: HF::RayTracer::EmbreeRayTracer::PointIntersection Pages: 1 -->
<svg width="512pt" height="116pt"
 viewBox="0.00 0.00 512.00 115.50" xmlns="http://www.w3.org/2000/svg" xmlns:xlink="http://www.w3.org/1999/xlink">
<g id="graph0" class="graph" transform="scale(1 1) rotate(0) translate(4 111.5)">
<title>HF::RayTracer::EmbreeRayTracer::PointIntersection</title>
<polygon fill="white" stroke="transparent" points="-4,4 -4,-111.5 508,-111.5 508,4 -4,4"/>
<!-- Node1 -->
<g id="node1" class="node">
<title>Node1</title>
<g id="a_node1"><a xlink:title="Cast a ray and overwrite the origin with the hitpoint if it intersects any geometry.">
<polygon fill="#bfbfbf" stroke="black" points="367,-55 367,-85 504,-85 504,-55 367,-55"/>
<text text-anchor="start" x="375" y="-73" font-family="Helvetica,sans-Serif" font-size="10.00">HF::RayTracer::EmbreeRay</text>
<text text-anchor="middle" x="435.5" y="-62" font-family="Helvetica,sans-Serif" font-size="10.00">Tracer::PointIntersection</text>
</a>
</g>
</g>
<!-- Node1&#45;&gt;Node1 -->
<g id="edge2" class="edge">
<title>Node1&#45;&gt;Node1</title>
<path fill="none" stroke="midnightblue" d="M466.06,-95.46C462.27,-100.18 452.08,-103.5 435.5,-103.5 408.29,-103.5 398.3,-94.56 405.53,-85.16"/>
<polygon fill="midnightblue" stroke="midnightblue" points="469.54,-94.94 465.47,-85.16 462.55,-95.34 469.54,-94.94"/>
</g>
<!-- Node2 -->
<g id="node2" class="node">
<title>Node2</title>
<g id="a_node2"><a xlink:href="a00391.html#gab12d174cbad096750b3bc2acc1593ee7" target="_top" xlink:title="Cast a single ray from the raytracer and receive a point in return.">
<polygon fill="white" stroke="black" points="235.5,-82.5 235.5,-101.5 289.5,-101.5 289.5,-82.5 235.5,-82.5"/>
<text text-anchor="middle" x="262.5" y="-89.5" font-family="Helvetica,sans-Serif" font-size="10.00">CastRay</text>
</a>
</g>
</g>
<!-- Node1&#45;&gt;Node2 -->
<g id="edge1" class="edge">
<title>Node1&#45;&gt;Node2</title>
<path fill="none" stroke="midnightblue" d="M356.99,-79.97C332.81,-83.08 307.77,-86.3 289.7,-88.63"/>
<polygon fill="midnightblue" stroke="midnightblue" points="357.44,-83.44 366.92,-78.69 356.55,-76.5 357.44,-83.44"/>
</g>
<!-- Node3 -->
<g id="node3" class="node">
<title>Node3</title>
<g id="a_node3"><a xlink:href="a01345.html#a0c4abe0d3160c1a59231e0ae492fe537" target="_top" xlink:title="Cast multiple rays and recieve hitpoints in return.">
<polygon fill="white" stroke="black" points="194,-33 194,-63 331,-63 331,-33 194,-33"/>
<text text-anchor="start" x="202" y="-51" font-family="Helvetica,sans-Serif" font-size="10.00">HF::RayTracer::EmbreeRay</text>
<text text-anchor="middle" x="262.5" y="-40" font-family="Helvetica,sans-Serif" font-size="10.00">Tracer::PointIntersections</text>
</a>
</g>
</g>
<!-- Node1&#45;&gt;Node3 -->
<g id="edge3" class="edge">
<title>Node1&#45;&gt;Node3</title>
<path fill="none" stroke="midnightblue" d="M356.9,-60.02C348.31,-58.91 339.61,-57.79 331.15,-56.7"/>
<polygon fill="midnightblue" stroke="midnightblue" points="356.55,-63.5 366.92,-61.31 357.44,-56.56 356.55,-63.5"/>
</g>
<!-- Node4 -->
<g id="node4" class="node">
<title>Node4</title>
<g id="a_node4"><a xlink:href="a00391.html#ga9debc0081ffc5b1f26262cd935b6f5ce" target="_top" xlink:title="Cast rays from a single origin point in multiple directions and get a the points where they intersect...">
<polygon fill="white" stroke="black" points="13,-77 13,-107 145,-107 145,-77 13,-77"/>
<text text-anchor="start" x="21" y="-95" font-family="Helvetica,sans-Serif" font-size="10.00">CastMultipleDirectionsOne</text>
<text text-anchor="middle" x="79" y="-84" font-family="Helvetica,sans-Serif" font-size="10.00">Origin</text>
</a>
</g>
</g>
<!-- Node3&#45;&gt;Node4 -->
<g id="edge4" class="edge">
<title>Node3&#45;&gt;Node4</title>
<path fill="none" stroke="midnightblue" d="M189.82,-65.38C174,-69.21 157.38,-73.24 141.98,-76.97"/>
<polygon fill="midnightblue" stroke="midnightblue" points="190.65,-68.78 199.55,-63.02 189,-61.97 190.65,-68.78"/>
</g>
<!-- Node5 -->
<g id="node5" class="node">
<title>Node5</title>
<g id="a_node5"><a xlink:href="a00391.html#gad4a9f19d6fe4a802b7788948707ed5c0" target="_top" xlink:title="Cast rays from each origin point in the given direction.">
<polygon fill="white" stroke="black" points="0,-38.5 0,-57.5 158,-57.5 158,-38.5 0,-38.5"/>
<text text-anchor="middle" x="79" y="-45.5" font-family="Helvetica,sans-Serif" font-size="10.00">CastMultipleOriginsOneDirection</text>
</a>
</g>
</g>
<!-- Node3&#45;&gt;Node5 -->
<g id="edge5" class="edge">
<title>Node3&#45;&gt;Node5</title>
<path fill="none" stroke="midnightblue" d="M183.66,-48C175.17,-48 166.53,-48 158.04,-48"/>
<polygon fill="midnightblue" stroke="midnightblue" points="183.92,-51.5 193.92,-48 183.92,-44.5 183.92,-51.5"/>
</g>
<!-- Node6 -->
<g id="node6" class="node">
<title>Node6</title>
<g id="a_node6"><a xlink:href="a00391.html#ga7763f4488e7c507e078882fe699d717f" target="_top" xlink:title="Cast multiple rays at once in parallel and receive their hitpoints in return. The number of direction...">
<polygon fill="white" stroke="black" points="32.5,-0.5 32.5,-19.5 125.5,-19.5 125.5,-0.5 32.5,-0.5"/>
<text text-anchor="middle" x="79" y="-7.5" font-family="Helvetica,sans-Serif" font-size="10.00">CastMultipleRays</text>
</a>
</g>
</g>
<!-- Node3&#45;&gt;Node6 -->
<g id="edge6" class="edge">
<title>Node3&#45;&gt;Node6</title>
<path fill="none" stroke="midnightblue" d="M183.93,-31.76C164.04,-27.59 143.29,-23.25 125.6,-19.55"/>
<polygon fill="midnightblue" stroke="midnightblue" points="183.41,-35.23 193.92,-33.85 184.85,-28.38 183.41,-35.23"/>
</g>
</g>
</svg>
