<?xml version="1.0" encoding="UTF-8" standalone="no"?>
<!DOCTYPE svg PUBLIC "-//W3C//DTD SVG 1.1//EN"
 "http://www.w3.org/Graphics/SVG/1.1/DTD/svg11.dtd">
<!-- Generated by graphviz version 7.0.3 (20221126.0506)
 -->
<!-- Title: nanort::StackVector&lt; T, stack_capacity &gt; Pages: 1 -->
<svg width="968pt" height="158pt"
 viewBox="0.00 0.00 968.00 157.50" xmlns="http://www.w3.org/2000/svg" xmlns:xlink="http://www.w3.org/1999/xlink">
<g id="graph0" class="graph" transform="scale(1 1) rotate(0) translate(4 153.5)">
<title>nanort::StackVector&lt; T, stack_capacity &gt;</title>
<!-- Node1 -->
<g id="node1" class="node">
<title>Node1</title>
<g id="a_node1"><a xlink:title=" ">
<polygon fill="#999999" stroke="#666666" points="960,-109 848,-109 848,-79 960,-79 960,-109"/>
<text text-anchor="start" x="856" y="-97" font-family="Helvetica,sans-Serif" font-size="10.00">nanort::StackVector</text>
<text text-anchor="middle" x="904" y="-86" font-family="Helvetica,sans-Serif" font-size="10.00">&lt; T, stack_capacity &gt;</text>
</a>
</g>
</g>
<!-- Node2 -->
<g id="node2" class="node">
<title>Node2</title>
<g id="a_node2"><a xlink:href="a01369.html" target="_top" xlink:title=" ">
<polygon fill="white" stroke="#666666" points="811,-120 656,-120 656,-68 811,-68 811,-120"/>
<text text-anchor="start" x="664" y="-108" font-family="Helvetica,sans-Serif" font-size="10.00">nanort::StackContainer</text>
<text text-anchor="start" x="664" y="-97" font-family="Helvetica,sans-Serif" font-size="10.00">&lt; std::vector&lt; T, StackAllocator</text>
<text text-anchor="start" x="664" y="-86" font-family="Helvetica,sans-Serif" font-size="10.00">&lt; T, stack_capacity &gt; &gt;, stack</text>
<text text-anchor="middle" x="733.5" y="-75" font-family="Helvetica,sans-Serif" font-size="10.00">_capacity &gt;</text>
</a>
</g>
</g>
<!-- Node2&#45;&gt;Node1 -->
<g id="edge1" class="edge">
<title>Node2&#45;&gt;Node1</title>
<path fill="none" stroke="#63b8ff" d="M822.65,-94C831.24,-94 839.78,-94 847.9,-94"/>
<polygon fill="#63b8ff" stroke="#63b8ff" points="822.87,-90.5 812.87,-94 822.87,-97.5 822.87,-90.5"/>
</g>
<!-- Node3 -->
<g id="node3" class="node">
<title>Node3</title>
<g id="a_node3"><a xlink:href="a01361.html" target="_top" xlink:title=" ">
<polygon fill="white" stroke="#666666" points="272,-149.5 159,-149.5 159,-108.5 272,-108.5 272,-149.5"/>
<text text-anchor="start" x="167" y="-137.5" font-family="Helvetica,sans-Serif" font-size="10.00">nanort::StackAllocator</text>
<text text-anchor="start" x="167" y="-126.5" font-family="Helvetica,sans-Serif" font-size="10.00">&lt; T, stack_capacity &gt;</text>
<text text-anchor="middle" x="215.5" y="-115.5" font-family="Helvetica,sans-Serif" font-size="10.00">::Source</text>
</a>
</g>
</g>
<!-- Node3&#45;&gt;Node2 -->
<g id="edge2" class="edge">
<title>Node3&#45;&gt;Node2</title>
<path fill="none" stroke="#9a32cd" stroke-dasharray="5,2" d="M283.6,-135.16C367.56,-141.11 515.22,-145.74 638,-119 643.72,-117.75 649.62,-116.39 655.53,-114.96"/>
<polygon fill="#9a32cd" stroke="#9a32cd" points="283.93,-131.68 273.7,-134.43 283.41,-138.66 283.93,-131.68"/>
<text text-anchor="middle" x="514" y="-141" font-family="Helvetica,sans-Serif" font-size="10.00"> stack_data_</text>
</g>
<!-- Node7 -->
<g id="node7" class="node">
<title>Node7</title>
<g id="a_node7"><a xlink:href="a01357.html" target="_top" xlink:title=" ">
<polygon fill="white" stroke="#666666" points="574,-83.5 454,-83.5 454,-42.5 574,-42.5 574,-83.5"/>
<text text-anchor="start" x="462" y="-71.5" font-family="Helvetica,sans-Serif" font-size="10.00">nanort::StackAllocator</text>
<text text-anchor="start" x="462" y="-60.5" font-family="Helvetica,sans-Serif" font-size="10.00">&lt; ContainedType, stack</text>
<text text-anchor="middle" x="514" y="-49.5" font-family="Helvetica,sans-Serif" font-size="10.00">_capacity &gt;</text>
</a>
</g>
</g>
<!-- Node3&#45;&gt;Node7 -->
<g id="edge9" class="edge">
<title>Node3&#45;&gt;Node7</title>
<path fill="none" stroke="#9a32cd" stroke-dasharray="5,2" d="M283.22,-114.15C334.41,-102.75 404.42,-87.17 453.67,-76.21"/>
<polygon fill="#9a32cd" stroke="#9a32cd" points="282.75,-110.67 273.75,-116.26 284.27,-117.5 282.75,-110.67"/>
<text text-anchor="middle" x="363" y="-114" font-family="Helvetica,sans-Serif" font-size="10.00"> source_</text>
</g>
<!-- Node4 -->
<g id="node4" class="node">
<title>Node4</title>
<g id="a_node4"><a xlink:title=" ">
<polygon fill="white" stroke="#666666" points="35,-139.5 0,-139.5 0,-120.5 35,-120.5 35,-139.5"/>
<text text-anchor="middle" x="17.5" y="-127.5" font-family="Helvetica,sans-Serif" font-size="10.00">char</text>
</a>
</g>
</g>
<!-- Node4&#45;&gt;Node3 -->
<g id="edge3" class="edge">
<title>Node4&#45;&gt;Node3</title>
<path fill="none" stroke="#9a32cd" stroke-dasharray="5,2" d="M46.56,-129.86C75.67,-129.71 121.99,-129.47 158.61,-129.29"/>
<polygon fill="#9a32cd" stroke="#9a32cd" points="46.71,-126.36 36.72,-129.91 46.74,-133.36 46.71,-126.36"/>
<text text-anchor="middle" x="97" y="-132" font-family="Helvetica,sans-Serif" font-size="10.00"> stack_buffer_</text>
</g>
<!-- Node5 -->
<g id="node5" class="node">
<title>Node5</title>
<g id="a_node5"><a xlink:title=" ">
<polygon fill="white" stroke="#666666" points="35,-102.5 0,-102.5 0,-83.5 35,-83.5 35,-102.5"/>
<text text-anchor="middle" x="17.5" y="-90.5" font-family="Helvetica,sans-Serif" font-size="10.00">bool</text>
</a>
</g>
</g>
<!-- Node5&#45;&gt;Node3 -->
<g id="edge4" class="edge">
<title>Node5&#45;&gt;Node3</title>
<path fill="none" stroke="#9a32cd" stroke-dasharray="5,2" d="M46.29,-97.51C71.15,-101.6 108.56,-107.91 141,-114 146.76,-115.08 152.77,-116.25 158.75,-117.43"/>
<polygon fill="#9a32cd" stroke="#9a32cd" points="47.1,-94.09 36.67,-95.93 45.97,-101 47.1,-94.09"/>
<text text-anchor="middle" x="97" y="-117" font-family="Helvetica,sans-Serif" font-size="10.00"> used_stack_buffer_</text>
</g>
<!-- Node6 -->
<g id="node6" class="node">
<title>Node6</title>
<g id="a_node6"><a xlink:title=" ">
<polygon fill="white" stroke="#666666" points="552.5,-120.5 475.5,-120.5 475.5,-101.5 552.5,-101.5 552.5,-120.5"/>
<text text-anchor="middle" x="514" y="-108.5" font-family="Helvetica,sans-Serif" font-size="10.00">unsigned char</text>
</a>
</g>
</g>
<!-- Node6&#45;&gt;Node2 -->
<g id="edge5" class="edge">
<title>Node6&#45;&gt;Node2</title>
<path fill="none" stroke="#9a32cd" stroke-dasharray="5,2" d="M564.02,-107.17C591.1,-105.05 625.35,-102.37 655.88,-99.99"/>
<polygon fill="#9a32cd" stroke="#9a32cd" points="564.09,-103.65 554.39,-107.92 564.64,-110.63 564.09,-103.65"/>
<text text-anchor="middle" x="615" y="-107" font-family="Helvetica,sans-Serif" font-size="10.00"> pad_</text>
</g>
<!-- Node7&#45;&gt;Node2 -->
<g id="edge6" class="edge">
<title>Node7&#45;&gt;Node2</title>
<path fill="none" stroke="#9a32cd" stroke-dasharray="5,2" d="M585.54,-73.05C607.92,-76.24 632.77,-79.79 655.57,-83.04"/>
<polygon fill="#9a32cd" stroke="#9a32cd" points="586.33,-69.63 575.93,-71.68 585.34,-76.56 586.33,-69.63"/>
<text text-anchor="middle" x="615" y="-83" font-family="Helvetica,sans-Serif" font-size="10.00"> allocator_</text>
</g>
<!-- Node8 -->
<g id="node8" class="node">
<title>Node8</title>
<g id="a_node8"><a xlink:title=" ">
<polygon fill="white" stroke="#666666" points="263.5,-70.5 167.5,-70.5 167.5,-51.5 263.5,-51.5 263.5,-70.5"/>
<text text-anchor="middle" x="215.5" y="-58.5" font-family="Helvetica,sans-Serif" font-size="10.00">std::allocator&lt; T &gt;</text>
</a>
</g>
</g>
<!-- Node8&#45;&gt;Node7 -->
<g id="edge7" class="edge">
<title>Node8&#45;&gt;Node7</title>
<path fill="none" stroke="#63b8ff" d="M275.11,-61.4C326.77,-61.74 401.69,-62.25 453.59,-62.6"/>
<polygon fill="#63b8ff" stroke="#63b8ff" points="275.35,-57.9 265.32,-61.33 275.3,-64.9 275.35,-57.9"/>
</g>
<!-- Node9 -->
<g id="node9" class="node">
<title>Node9</title>
<g id="a_node9"><a xlink:title=" ">
<polygon fill="white" stroke="#666666" points="32,-49.5 3,-49.5 3,-30.5 32,-30.5 32,-49.5"/>
<text text-anchor="middle" x="17.5" y="-37.5" font-family="Helvetica,sans-Serif" font-size="10.00">T</text>
</a>
</g>
</g>
<!-- Node9&#45;&gt;Node8 -->
<g id="edge8" class="edge">
<title>Node9&#45;&gt;Node8</title>
<path fill="none" stroke="#9a32cd" stroke-dasharray="5,2" d="M43.37,-42.67C74.47,-46 128.35,-51.77 167.36,-55.95"/>
<polygon fill="#9a32cd" stroke="#9a32cd" points="44.1,-39.22 33.79,-41.64 43.36,-46.18 44.1,-39.22"/>
<text text-anchor="middle" x="97" y="-55" font-family="Helvetica,sans-Serif" font-size="10.00"> elements</text>
</g>
<!-- Node10 -->
<g id="node10" class="node">
<title>Node10</title>
<g id="a_node10"><a xlink:title=" ">
<polygon fill="white" stroke="#666666" points="436,-30 290,-30 290,0 436,0 436,-30"/>
<text text-anchor="start" x="298" y="-18" font-family="Helvetica,sans-Serif" font-size="10.00">std::vector&lt; T, StackAllocator</text>
<text text-anchor="middle" x="363" y="-7" font-family="Helvetica,sans-Serif" font-size="10.00">&lt; T, stack_capacity &gt; &gt;</text>
</a>
</g>
</g>
<!-- Node9&#45;&gt;Node10 -->
<g id="edge11" class="edge">
<title>Node9&#45;&gt;Node10</title>
<path fill="none" stroke="#9a32cd" stroke-dasharray="5,2" d="M43.08,-31.3C46.38,-30.39 49.75,-29.58 53,-29 133.09,-14.68 226.6,-12.4 289.6,-12.93"/>
<polygon fill="#9a32cd" stroke="#9a32cd" points="42.33,-27.87 33.83,-34.2 44.42,-34.55 42.33,-27.87"/>
<text text-anchor="middle" x="97" y="-32" font-family="Helvetica,sans-Serif" font-size="10.00"> elements</text>
</g>
<!-- Node10&#45;&gt;Node2 -->
<g id="edge10" class="edge">
<title>Node10&#45;&gt;Node2</title>
<path fill="none" stroke="#9a32cd" stroke-dasharray="5,2" d="M447.63,-10.33C486.52,-10.05 533.11,-12.43 574,-22 614.02,-31.36 656.25,-51.1 687.05,-67.54"/>
<polygon fill="#9a32cd" stroke="#9a32cd" points="447.82,-6.83 437.87,-10.47 447.91,-13.83 447.82,-6.83"/>
<text text-anchor="middle" x="514" y="-25" font-family="Helvetica,sans-Serif" font-size="10.00"> container_</text>
</g>
</g>
</svg>
