<?xml version="1.0" encoding="UTF-8" standalone="no"?>
<!DOCTYPE svg PUBLIC "-//W3C//DTD SVG 1.1//EN"
 "http://www.w3.org/Graphics/SVG/1.1/DTD/svg11.dtd">
<!-- Generated by graphviz version 2.43.0 (0)
 -->
<!-- Title: nanort::Ray&lt; T &gt; Pages: 1 -->
<svg width="109pt" height="128pt"
 viewBox="0.00 0.00 109.00 128.00" xmlns="http://www.w3.org/2000/svg" xmlns:xlink="http://www.w3.org/1999/xlink">
<g id="graph0" class="graph" transform="scale(1 1) rotate(0) translate(4 124)">
<title>nanort::Ray&lt; T &gt;</title>
<polygon fill="white" stroke="transparent" points="-4,4 -4,-124 105,-124 105,4 -4,4"/>
<!-- Node1 -->
<g id="node1" class="node">
<title>Node1</title>
<g id="a_node1"><a xlink:title=" ">
<polygon fill="#bfbfbf" stroke="black" points="0,-0.5 0,-19.5 101,-19.5 101,-0.5 0,-0.5"/>
<text text-anchor="middle" x="50.5" y="-7.5" font-family="Helvetica,sans-Serif" font-size="10.00">nanort::Ray&lt; T &gt;</text>
</a>
</g>
</g>
<!-- Node2 -->
<g id="node2" class="node">
<title>Node2</title>
<g id="a_node2"><a xlink:title=" ">
<polygon fill="white" stroke="#bfbfbf" points="3.5,-100.5 3.5,-119.5 41.5,-119.5 41.5,-100.5 3.5,-100.5"/>
<text text-anchor="middle" x="22.5" y="-107.5" font-family="Helvetica,sans-Serif" font-size="10.00">float</text>
</a>
</g>
</g>
<!-- Node2&#45;&gt;Node1 -->
<g id="edge1" class="edge">
<title>Node2&#45;&gt;Node1</title>
<path fill="none" stroke="#9a32cd" stroke-dasharray="5,2" d="M19.04,-90.31C17.16,-75.52 16.47,-54.65 23.5,-38 26.6,-30.67 32.72,-24.28 38.36,-19.56"/>
<polygon fill="#9a32cd" stroke="#9a32cd" points="15.59,-90.93 20.6,-100.27 22.51,-89.85 15.59,-90.93"/>
<text text-anchor="middle" x="40.5" y="-74" font-family="Helvetica,sans-Serif" font-size="10.00"> max_t</text>
<text text-anchor="middle" x="40.5" y="-63" font-family="Helvetica,sans-Serif" font-size="10.00">dir</text>
<text text-anchor="middle" x="40.5" y="-52" font-family="Helvetica,sans-Serif" font-size="10.00">org</text>
<text text-anchor="middle" x="40.5" y="-41" font-family="Helvetica,sans-Serif" font-size="10.00">min_t</text>
</g>
<!-- Node3 -->
<g id="node3" class="node">
<title>Node3</title>
<g id="a_node3"><a xlink:title=" ">
<polygon fill="white" stroke="#bfbfbf" points="65,-100.5 65,-119.5 94,-119.5 94,-100.5 65,-100.5"/>
<text text-anchor="middle" x="79.5" y="-107.5" font-family="Helvetica,sans-Serif" font-size="10.00">int</text>
</a>
</g>
</g>
<!-- Node3&#45;&gt;Node1 -->
<g id="edge2" class="edge">
<title>Node3&#45;&gt;Node1</title>
<path fill="none" stroke="#9a32cd" stroke-dasharray="5,2" d="M74.03,-90.51C67.74,-69.26 57.69,-35.29 53.03,-19.54"/>
<polygon fill="#9a32cd" stroke="#9a32cd" points="70.73,-91.71 76.93,-100.3 77.44,-89.72 70.73,-91.71"/>
<text text-anchor="middle" x="83" y="-57.5" font-family="Helvetica,sans-Serif" font-size="10.00"> type</text>
</g>
</g>
</svg>
