<?xml version="1.0" encoding="UTF-8" standalone="no"?>
<!DOCTYPE svg PUBLIC "-//W3C//DTD SVG 1.1//EN"
 "http://www.w3.org/Graphics/SVG/1.1/DTD/svg11.dtd">
<!-- Generated by graphviz version 4.0.0 (20220529.0937)
 -->
<!-- Title: HF::RayTracer::EmbreeRayTracer::CalculatePreciseDistance Pages: 1 -->
<svg width="524pt" height="118pt"
 viewBox="0.00 0.00 524.00 117.50" xmlns="http://www.w3.org/2000/svg" xmlns:xlink="http://www.w3.org/1999/xlink">
<g id="graph0" class="graph" transform="scale(1 1) rotate(0) translate(4 113.5)">
<title>HF::RayTracer::EmbreeRayTracer::CalculatePreciseDistance</title>
<polygon fill="white" stroke="transparent" points="-4,4 -4,-113.5 520,-113.5 520,4 -4,4"/>
<!-- Node1 -->
<g id="node1" class="node">
<title>Node1</title>
<g id="a_node1"><a xlink:title="Calculate the distance from origin to the point of intersection using an algorithm with higher precis...">
<polygon fill="#bfbfbf" stroke="black" points="0,-54 0,-84 161,-84 161,-54 0,-54"/>
<text text-anchor="start" x="8" y="-72" font-family="Helvetica,sans-Serif" font-size="10.00">HF::RayTracer::EmbreeRay</text>
<text text-anchor="middle" x="80.5" y="-61" font-family="Helvetica,sans-Serif" font-size="10.00">Tracer::CalculatePreciseDistance</text>
</a>
</g>
</g>
<!-- Node2 -->
<g id="node2" class="node">
<title>Node2</title>
<g id="a_node2"><a xlink:href="a01345.html#a619072a17db71253fc9ce3bdf1ba1920" target="_top" xlink:title="Get the vertices for a specific triangle in a mesh.">
<polygon fill="white" stroke="black" points="197,-79 197,-109 334,-109 334,-79 197,-79"/>
<text text-anchor="start" x="205" y="-97" font-family="Helvetica,sans-Serif" font-size="10.00">HF::RayTracer::EmbreeRay</text>
<text text-anchor="middle" x="265.5" y="-86" font-family="Helvetica,sans-Serif" font-size="10.00">Tracer::GetTriangle</text>
</a>
</g>
</g>
<!-- Node1&#45;&gt;Node2 -->
<g id="edge1" class="edge">
<title>Node1&#45;&gt;Node2</title>
<path fill="none" stroke="midnightblue" d="M161.23,-79.89C169.66,-81.04 178.21,-82.21 186.62,-83.36"/>
<polygon fill="midnightblue" stroke="midnightblue" points="186.38,-86.86 196.77,-84.75 187.33,-79.93 186.38,-86.86"/>
</g>
<!-- Node4 -->
<g id="node4" class="node">
<title>Node4</title>
<g id="a_node4"><a xlink:href="a00398.html#a9498ae7ffabd8c5bca4026374ac862e9" target="_top" xlink:title="Determine the distance between a ray&#39;s origin and it&#39;s point of intersection with a triangle.">
<polygon fill="white" stroke="black" points="197,-30 197,-60 334,-60 334,-30 197,-30"/>
<text text-anchor="start" x="205" y="-48" font-family="Helvetica,sans-Serif" font-size="10.00">HF::RayTracer::RayTriangle</text>
<text text-anchor="middle" x="265.5" y="-37" font-family="Helvetica,sans-Serif" font-size="10.00">Intersection</text>
</a>
</g>
</g>
<!-- Node1&#45;&gt;Node4 -->
<g id="edge3" class="edge">
<title>Node1&#45;&gt;Node4</title>
<path fill="none" stroke="midnightblue" d="M161.23,-58.54C169.66,-57.44 178.21,-56.32 186.62,-55.21"/>
<polygon fill="midnightblue" stroke="midnightblue" points="187.31,-58.65 196.77,-53.88 186.4,-51.71 187.31,-58.65"/>
</g>
<!-- Node3 -->
<g id="node3" class="node">
<title>Node3</title>
<g id="a_node3"><a xlink:href="a00398.html#a6e20c473674ea46f649ef827818841d2" target="_top" xlink:title=" ">
<polygon fill="white" stroke="black" points="370,-79 370,-109 516,-109 516,-79 370,-79"/>
<text text-anchor="start" x="378" y="-97" font-family="Helvetica,sans-Serif" font-size="10.00">HF::RayTracer::GetPointFrom</text>
<text text-anchor="middle" x="443" y="-86" font-family="Helvetica,sans-Serif" font-size="10.00">Buffer</text>
</a>
</g>
</g>
<!-- Node2&#45;&gt;Node3 -->
<g id="edge2" class="edge">
<title>Node2&#45;&gt;Node3</title>
<path fill="none" stroke="midnightblue" d="M334.1,-94C342.5,-94 351.16,-94 359.75,-94"/>
<polygon fill="midnightblue" stroke="midnightblue" points="359.77,-97.5 369.77,-94 359.77,-90.5 359.77,-97.5"/>
</g>
<!-- Node5 -->
<g id="node5" class="node">
<title>Node5</title>
<g id="a_node5"><a xlink:href="a00398.html#a16f9f26b0140f023ce820ec55e38c66b" target="_top" xlink:title=" ">
<polygon fill="white" stroke="black" points="388,-38.5 388,-57.5 498,-57.5 498,-38.5 388,-38.5"/>
<text text-anchor="middle" x="443" y="-45.5" font-family="Helvetica,sans-Serif" font-size="10.00">HF::RayTracer::cross</text>
</a>
</g>
</g>
<!-- Node4&#45;&gt;Node5 -->
<g id="edge4" class="edge">
<title>Node4&#45;&gt;Node5</title>
<path fill="none" stroke="midnightblue" d="M334.1,-46.16C348.4,-46.4 363.45,-46.66 377.62,-46.9"/>
<polygon fill="midnightblue" stroke="midnightblue" points="377.71,-50.4 387.77,-47.07 377.83,-43.4 377.71,-50.4"/>
</g>
<!-- Node6 -->
<g id="node6" class="node">
<title>Node6</title>
<g id="a_node6"><a xlink:href="a00398.html#ae551c109488ce94d0a568712b50da689" target="_top" xlink:title=" ">
<polygon fill="white" stroke="black" points="393.5,-0.5 393.5,-19.5 492.5,-19.5 492.5,-0.5 393.5,-0.5"/>
<text text-anchor="middle" x="443" y="-7.5" font-family="Helvetica,sans-Serif" font-size="10.00">HF::RayTracer::dot</text>
</a>
</g>
</g>
<!-- Node4&#45;&gt;Node6 -->
<g id="edge5" class="edge">
<title>Node4&#45;&gt;Node6</title>
<path fill="none" stroke="midnightblue" d="M334.1,-31.52C350.58,-28.23 368.05,-24.75 384.04,-21.56"/>
<polygon fill="midnightblue" stroke="midnightblue" points="385.18,-24.9 394.3,-19.51 383.81,-18.04 385.18,-24.9"/>
</g>
</g>
</svg>
