<?xml version="1.0" encoding="UTF-8" standalone="no"?>
<!DOCTYPE svg PUBLIC "-//W3C//DTD SVG 1.1//EN"
 "http://www.w3.org/Graphics/SVG/1.1/DTD/svg11.dtd">
<!-- Generated by graphviz version 7.0.3 (20221126.0506)
 -->
<!-- Title: nanort::real3::real3 Pages: 1 -->
<svg width="260pt" height="138pt"
 viewBox="0.00 0.00 260.00 138.00" xmlns="http://www.w3.org/2000/svg" xmlns:xlink="http://www.w3.org/1999/xlink">
<g id="graph0" class="graph" transform="scale(1 1) rotate(0) translate(4 134)">
<title>nanort::real3::real3</title>
<!-- Node1 -->
<g id="node1" class="node">
<title>Node1</title>
<g id="a_node1"><a xlink:title=" ">
<polygon fill="#999999" stroke="#666666" points="252,-74 154,-74 154,-55 252,-55 252,-74"/>
<text text-anchor="middle" x="203" y="-62" font-family="Helvetica,sans-Serif" font-size="10.00">nanort::real3::real3</text>
</a>
</g>
</g>
<!-- Node2 -->
<g id="node2" class="node">
<title>Node2</title>
<g id="a_node2"><a xlink:href="a01377.html#a53be64ec8d91a0d750a386c28b86d8c5" target="_top" xlink:title=" ">
<polygon fill="white" stroke="#666666" points="117,-130 1,-130 1,-111 117,-111 117,-130"/>
<text text-anchor="middle" x="59" y="-118" font-family="Helvetica,sans-Serif" font-size="10.00">nanort::real3::operator*</text>
</a>
</g>
</g>
<!-- Node1&#45;&gt;Node2 -->
<g id="edge1" class="edge">
<title>Node1&#45;&gt;Node2</title>
<path fill="none" stroke="#63b8ff" d="M171.69,-79.31C155.88,-86.75 136.12,-95.62 118,-102.5 110.51,-105.34 102.35,-108.09 94.59,-110.54"/>
<polygon fill="#63b8ff" stroke="#63b8ff" points="173.04,-82.54 180.56,-75.08 170.03,-76.22 173.04,-82.54"/>
</g>
<!-- Node3 -->
<g id="node3" class="node">
<title>Node3</title>
<g id="a_node3"><a xlink:href="a01377.html#abba2600acee60dddefa6797835e44300" target="_top" xlink:title=" ">
<polygon fill="white" stroke="#666666" points="118,-93 0,-93 0,-74 118,-74 118,-93"/>
<text text-anchor="middle" x="59" y="-81" font-family="Helvetica,sans-Serif" font-size="10.00">nanort::real3::operator+</text>
</a>
</g>
</g>
<!-- Node1&#45;&gt;Node3 -->
<g id="edge2" class="edge">
<title>Node1&#45;&gt;Node3</title>
<path fill="none" stroke="#63b8ff" d="M142.34,-72.48C134.31,-73.56 126.07,-74.66 118.06,-75.73"/>
<polygon fill="#63b8ff" stroke="#63b8ff" points="142.58,-75.98 152.03,-71.19 141.65,-69.04 142.58,-75.98"/>
</g>
<!-- Node4 -->
<g id="node4" class="node">
<title>Node4</title>
<g id="a_node4"><a xlink:href="a01377.html#aff71230adfb3070aa773cb08dad19e03" target="_top" xlink:title=" ">
<polygon fill="white" stroke="#666666" points="116.5,-56 1.5,-56 1.5,-37 116.5,-37 116.5,-56"/>
<text text-anchor="middle" x="59" y="-44" font-family="Helvetica,sans-Serif" font-size="10.00">nanort::real3::operator&#45;</text>
</a>
</g>
</g>
<!-- Node1&#45;&gt;Node4 -->
<g id="edge3" class="edge">
<title>Node1&#45;&gt;Node4</title>
<path fill="none" stroke="#63b8ff" d="M142.15,-56.91C133.68,-55.84 124.98,-54.74 116.57,-53.67"/>
<polygon fill="#63b8ff" stroke="#63b8ff" points="141.67,-60.38 152.03,-58.17 142.55,-53.44 141.67,-60.38"/>
</g>
<!-- Node5 -->
<g id="node5" class="node">
<title>Node5</title>
<g id="a_node5"><a xlink:href="a01377.html#a0fdbf92ea5a1299ad4b6eb6199336eeb" target="_top" xlink:title=" ">
<polygon fill="white" stroke="#666666" points="116.5,-19 1.5,-19 1.5,0 116.5,0 116.5,-19"/>
<text text-anchor="middle" x="59" y="-7" font-family="Helvetica,sans-Serif" font-size="10.00">nanort::real3::operator/</text>
</a>
</g>
</g>
<!-- Node1&#45;&gt;Node5 -->
<g id="edge4" class="edge">
<title>Node1&#45;&gt;Node5</title>
<path fill="none" stroke="#63b8ff" d="M170.28,-50.12C154.67,-43.25 135.49,-35.1 118,-28.5 109.67,-25.36 100.56,-22.23 92.09,-19.45"/>
<polygon fill="#63b8ff" stroke="#63b8ff" points="168.52,-53.17 179.08,-54.03 171.36,-46.77 168.52,-53.17"/>
</g>
</g>
</svg>
