<?xml version="1.0" encoding="UTF-8" standalone="no"?>
<!DOCTYPE svg PUBLIC "-//W3C//DTD SVG 1.1//EN"
 "http://www.w3.org/Graphics/SVG/1.1/DTD/svg11.dtd">
<!-- Generated by graphviz version 8.0.5 (20230430.1635)
 -->
<!-- Title: HF::RayTracer::EmbreeRayTracer::PointIntersections Pages: 1 -->
<svg width="337pt" height="116pt"
 viewBox="0.00 0.00 337.00 116.00" xmlns="http://www.w3.org/2000/svg" xmlns:xlink="http://www.w3.org/1999/xlink">
<g id="graph0" class="graph" transform="scale(1 1) rotate(0) translate(4 112)">
<title>HF::RayTracer::EmbreeRayTracer::PointIntersections</title>
<!-- Node1 -->
<g id="node1" class="node">
<title>Node1</title>
<g id="a_node1"><a xlink:title="Cast multiple rays and recieve hitpoints in return.">
<polygon fill="#999999" stroke="#666666" points="329,-64 193,-64 193,-32 329,-32 329,-64"/>
<text text-anchor="start" x="201" y="-50.5" font-family="Helvetica,sans-Serif" font-size="10.00">HF::RayTracer::EmbreeRay</text>
<text text-anchor="middle" x="261" y="-38.5" font-family="Helvetica,sans-Serif" font-size="10.00">Tracer::PointIntersections</text>
</a>
</g>
</g>
<!-- Node2 -->
<g id="node2" class="node">
<title>Node2</title>
<g id="a_node2"><a xlink:href="a00391.html#ga9debc0081ffc5b1f26262cd935b6f5ce" target="_top" xlink:title="Cast rays from a single origin point in multiple directions and get a the points where they intersect...">
<polygon fill="white" stroke="#666666" points="144.25,-108 12.75,-108 12.75,-76 144.25,-76 144.25,-108"/>
<text text-anchor="start" x="20.75" y="-94.5" font-family="Helvetica,sans-Serif" font-size="10.00">CastMultipleDirectionsOne</text>
<text text-anchor="middle" x="78.5" y="-82.5" font-family="Helvetica,sans-Serif" font-size="10.00">Origin</text>
</a>
</g>
</g>
<!-- Node1&#45;&gt;Node2 -->
<g id="edge1" class="edge">
<title>Node1&#45;&gt;Node2</title>
<path fill="none" stroke="#63b8ff" d="M182.1,-66.99C169.55,-70.05 156.69,-73.18 144.49,-76.16"/>
<polygon fill="#63b8ff" stroke="#63b8ff" points="182.65,-70.22 191.53,-64.45 180.99,-63.41 182.65,-70.22"/>
</g>
<!-- Node3 -->
<g id="node3" class="node">
<title>Node3</title>
<g id="a_node3"><a xlink:href="a00391.html#gad4a9f19d6fe4a802b7788948707ed5c0" target="_top" xlink:title="Cast rays from each origin point in the given direction.">
<polygon fill="white" stroke="#666666" points="157,-58 0,-58 0,-38 157,-38 157,-58"/>
<text text-anchor="middle" x="78.5" y="-44.5" font-family="Helvetica,sans-Serif" font-size="10.00">CastMultipleOriginsOneDirection</text>
</a>
</g>
</g>
<!-- Node1&#45;&gt;Node3 -->
<g id="edge2" class="edge">
<title>Node1&#45;&gt;Node3</title>
<path fill="none" stroke="#63b8ff" d="M181.61,-48C173.52,-48 165.3,-48 157.22,-48"/>
<polygon fill="#63b8ff" stroke="#63b8ff" points="181.53,-51.5 191.53,-48 181.53,-44.5 181.53,-51.5"/>
</g>
<!-- Node4 -->
<g id="node4" class="node">
<title>Node4</title>
<g id="a_node4"><a xlink:href="a00391.html#ga7763f4488e7c507e078882fe699d717f" target="_top" xlink:title="Cast multiple rays at once in parallel and receive their hitpoints in return. The number of direction...">
<polygon fill="white" stroke="#666666" points="124.75,-20 32.25,-20 32.25,0 124.75,0 124.75,-20"/>
<text text-anchor="middle" x="78.5" y="-6.5" font-family="Helvetica,sans-Serif" font-size="10.00">CastMultipleRays</text>
</a>
</g>
</g>
<!-- Node1&#45;&gt;Node4 -->
<g id="edge3" class="edge">
<title>Node1&#45;&gt;Node4</title>
<path fill="none" stroke="#63b8ff" d="M181.85,-31.55C162.43,-27.46 142.25,-23.21 124.99,-19.58"/>
<polygon fill="#63b8ff" stroke="#63b8ff" points="181.03,-35.16 191.53,-33.8 182.47,-28.31 181.03,-35.16"/>
</g>
</g>
</svg>
