<?xml version="1.0" encoding="UTF-8" standalone="no"?>
<!DOCTYPE svg PUBLIC "-//W3C//DTD SVG 1.1//EN"
 "http://www.w3.org/Graphics/SVG/1.1/DTD/svg11.dtd">
<!-- Generated by graphviz version 2.43.0 (0)
 -->
<!-- Title: HF::Geometry::tinyobj_material Pages: 1 -->
<svg width="131pt" height="174pt"
 viewBox="0.00 0.00 131.00 174.00" xmlns="http://www.w3.org/2000/svg" xmlns:xlink="http://www.w3.org/1999/xlink">
<g id="graph0" class="graph" transform="scale(1 1) rotate(0) translate(4 170)">
<title>HF::Geometry::tinyobj_material</title>
<polygon fill="white" stroke="transparent" points="-4,4 -4,-170 127,-170 127,4 -4,4"/>
<!-- Node1 -->
<g id="node1" class="node">
<title>Node1</title>
<g id="a_node1"><a xlink:title=" ">
<polygon fill="#bfbfbf" stroke="black" points="0,-0.5 0,-30.5 123,-30.5 123,-0.5 0,-0.5"/>
<text text-anchor="start" x="8" y="-18.5" font-family="Helvetica,sans-Serif" font-size="10.00">HF::Geometry::tinyobj</text>
<text text-anchor="middle" x="61.5" y="-7.5" font-family="Helvetica,sans-Serif" font-size="10.00">_material</text>
</a>
</g>
</g>
<!-- Node2 -->
<g id="node2" class="node">
<title>Node2</title>
<g id="a_node2"><a xlink:title="STL class.">
<polygon fill="white" stroke="#bfbfbf" points="29,-78.5 29,-97.5 94,-97.5 94,-78.5 29,-78.5"/>
<text text-anchor="middle" x="61.5" y="-85.5" font-family="Helvetica,sans-Serif" font-size="10.00">std::string</text>
</a>
</g>
</g>
<!-- Node2&#45;&gt;Node1 -->
<g id="edge1" class="edge">
<title>Node2&#45;&gt;Node1</title>
<path fill="none" stroke="#9a32cd" stroke-dasharray="5,2" d="M61.5,-68.24C61.5,-56.41 61.5,-41.38 61.5,-30.58"/>
<polygon fill="#9a32cd" stroke="#9a32cd" points="58,-68.36 61.5,-78.36 65,-68.36 58,-68.36"/>
<text text-anchor="middle" x="77" y="-52" font-family="Helvetica,sans-Serif" font-size="10.00"> name</text>
</g>
<!-- Node3 -->
<g id="node3" class="node">
<title>Node3</title>
<g id="a_node3"><a xlink:title="STL class.">
<polygon fill="white" stroke="#bfbfbf" points="9.5,-135.5 9.5,-165.5 113.5,-165.5 113.5,-135.5 9.5,-135.5"/>
<text text-anchor="start" x="17.5" y="-153.5" font-family="Helvetica,sans-Serif" font-size="10.00">std::basic_string&lt;</text>
<text text-anchor="middle" x="61.5" y="-142.5" font-family="Helvetica,sans-Serif" font-size="10.00"> char &gt;</text>
</a>
</g>
</g>
<!-- Node3&#45;&gt;Node2 -->
<g id="edge2" class="edge">
<title>Node3&#45;&gt;Node2</title>
<path fill="none" stroke="midnightblue" d="M61.5,-125.35C61.5,-115.51 61.5,-104.78 61.5,-97.54"/>
<polygon fill="midnightblue" stroke="midnightblue" points="58,-125.47 61.5,-135.47 65,-125.47 58,-125.47"/>
</g>
</g>
</svg>
