<?xml version="1.0" encoding="UTF-8" standalone="no"?>
<!DOCTYPE svg PUBLIC "-//W3C//DTD SVG 1.1//EN"
 "http://www.w3.org/Graphics/SVG/1.1/DTD/svg11.dtd">
<!-- Generated by graphviz version 2.43.0 (0)
 -->
<!-- Title: nanort::StackVector::StackVector Pages: 1 -->
<svg width="329pt" height="61pt"
 viewBox="0.00 0.00 329.00 61.00" xmlns="http://www.w3.org/2000/svg" xmlns:xlink="http://www.w3.org/1999/xlink">
<g id="graph0" class="graph" transform="scale(1 1) rotate(0) translate(4 57)">
<title>nanort::StackVector::StackVector</title>
<polygon fill="white" stroke="transparent" points="-4,4 -4,-57 325,-57 325,4 -4,4"/>
<!-- Node1 -->
<g id="node1" class="node">
<title>Node1</title>
<g id="a_node1"><a xlink:title=" ">
<polygon fill="#bfbfbf" stroke="black" points="0,-11.5 0,-41.5 112,-41.5 112,-11.5 0,-11.5"/>
<text text-anchor="start" x="8" y="-29.5" font-family="Helvetica,sans-Serif" font-size="10.00">nanort::StackVector</text>
<text text-anchor="middle" x="56" y="-18.5" font-family="Helvetica,sans-Serif" font-size="10.00">::StackVector</text>
</a>
</g>
</g>
<!-- Node2 -->
<g id="node2" class="node">
<title>Node2</title>
<g id="a_node2"><a xlink:href="a01381.html#a6e5ddb6a1637b1110acb22487421a235" target="_top" xlink:title=" ">
<polygon fill="white" stroke="black" points="148,-0.5 148,-52.5 321,-52.5 321,-0.5 148,-0.5"/>
<text text-anchor="start" x="156" y="-40.5" font-family="Helvetica,sans-Serif" font-size="10.00">nanort::StackContainer</text>
<text text-anchor="start" x="156" y="-29.5" font-family="Helvetica,sans-Serif" font-size="10.00">&lt; std::vector&lt; T, StackAllocator</text>
<text text-anchor="start" x="156" y="-18.5" font-family="Helvetica,sans-Serif" font-size="10.00">&lt; T, stack_capacity &gt; &gt;, stack</text>
<text text-anchor="middle" x="234.5" y="-7.5" font-family="Helvetica,sans-Serif" font-size="10.00">_capacity &gt;::container</text>
</a>
</g>
</g>
<!-- Node1&#45;&gt;Node2 -->
<g id="edge1" class="edge">
<title>Node1&#45;&gt;Node2</title>
<path fill="none" stroke="midnightblue" d="M112.36,-26.5C120.5,-26.5 129.07,-26.5 137.74,-26.5"/>
<polygon fill="midnightblue" stroke="midnightblue" points="137.95,-30 147.95,-26.5 137.95,-23 137.95,-30"/>
</g>
</g>
</svg>
