<?xml version="1.0" encoding="UTF-8" standalone="no"?>
<!DOCTYPE svg PUBLIC "-//W3C//DTD SVG 1.1//EN"
 "http://www.w3.org/Graphics/SVG/1.1/DTD/svg11.dtd">
<!-- Generated by graphviz version 8.0.5 (20230430.1635)
 -->
<!-- Title: HF::RayTracer::EmbreeRayTracer::Intersect Pages: 1 -->
<svg width="698pt" height="156pt"
 viewBox="0.00 0.00 697.50 156.00" xmlns="http://www.w3.org/2000/svg" xmlns:xlink="http://www.w3.org/1999/xlink">
<g id="graph0" class="graph" transform="scale(1 1) rotate(0) translate(4 152)">
<title>HF::RayTracer::EmbreeRayTracer::Intersect</title>
<!-- Node1 -->
<g id="node1" class="node">
<title>Node1</title>
<g id="a_node1"><a xlink:title="Cast a ray from origin in direction.">
<polygon fill="#999999" stroke="#666666" points="136,-76 0,-76 0,-44 136,-44 136,-76"/>
<text text-anchor="start" x="8" y="-62.5" font-family="Helvetica,sans-Serif" font-size="10.00">HF::RayTracer::EmbreeRay</text>
<text text-anchor="middle" x="68" y="-50.5" font-family="Helvetica,sans-Serif" font-size="10.00">Tracer::Intersect</text>
</a>
</g>
</g>
<!-- Node2 -->
<g id="node2" class="node">
<title>Node2</title>
<g id="a_node2"><a xlink:href="a01345.html#a28032c693ac330c5b11bc2a877b04c75" target="_top" xlink:title="Calculate the distance from origin to the point of intersection using an algorithm with higher precis...">
<polygon fill="white" stroke="#666666" points="332.75,-120 172,-120 172,-88 332.75,-88 332.75,-120"/>
<text text-anchor="start" x="180" y="-106.5" font-family="Helvetica,sans-Serif" font-size="10.00">HF::RayTracer::EmbreeRay</text>
<text text-anchor="middle" x="252.38" y="-94.5" font-family="Helvetica,sans-Serif" font-size="10.00">Tracer::CalculatePreciseDistance</text>
</a>
</g>
</g>
<!-- Node1&#45;&gt;Node2 -->
<g id="edge1" class="edge">
<title>Node1&#45;&gt;Node2</title>
<path fill="none" stroke="#63b8ff" d="M136.39,-76.26C148.16,-79.1 160.5,-82.08 172.55,-84.98"/>
<polygon fill="#63b8ff" stroke="#63b8ff" points="171.5,-88.57 182.04,-87.51 173.14,-81.77 171.5,-88.57"/>
</g>
<!-- Node8 -->
<g id="node8" class="node">
<title>Node8</title>
<g id="a_node8"><a xlink:href="a00398.html#a2630761a64fac02a4ee33abaf5c885a1" target="_top" xlink:title=" ">
<polygon fill="white" stroke="#666666" points="320.75,-70 184,-70 184,-50 320.75,-50 320.75,-70"/>
<text text-anchor="middle" x="252.38" y="-56.5" font-family="Helvetica,sans-Serif" font-size="10.00">HF::RayTracer::DidIntersect</text>
</a>
</g>
</g>
<!-- Node1&#45;&gt;Node8 -->
<g id="edge7" class="edge">
<title>Node1&#45;&gt;Node8</title>
<path fill="none" stroke="#63b8ff" d="M136.39,-60C148.2,-60 160.58,-60 172.66,-60"/>
<polygon fill="#63b8ff" stroke="#63b8ff" points="172.65,-63.5 182.65,-60 172.65,-56.5 172.65,-63.5"/>
</g>
<!-- Node9 -->
<g id="node9" class="node">
<title>Node9</title>
<g id="a_node9"><a xlink:href="a01345.html#ae3341adf12ae91e33f1188a434d8e28d" target="_top" xlink:title="Implementation for fundamental ray intersection.">
<polygon fill="white" stroke="#666666" points="320.38,-32 184.38,-32 184.38,0 320.38,0 320.38,-32"/>
<text text-anchor="start" x="192.38" y="-18.5" font-family="Helvetica,sans-Serif" font-size="10.00">HF::RayTracer::EmbreeRay</text>
<text text-anchor="middle" x="252.38" y="-6.5" font-family="Helvetica,sans-Serif" font-size="10.00">Tracer::Intersect_IMPL</text>
</a>
</g>
</g>
<!-- Node1&#45;&gt;Node9 -->
<g id="edge8" class="edge">
<title>Node1&#45;&gt;Node9</title>
<path fill="none" stroke="#63b8ff" d="M136.39,-43.74C148.4,-40.84 161,-37.8 173.27,-34.84"/>
<polygon fill="#63b8ff" stroke="#63b8ff" points="174.06,-38.01 182.96,-32.27 172.41,-31.21 174.06,-38.01"/>
</g>
<!-- Node3 -->
<g id="node3" class="node">
<title>Node3</title>
<g id="a_node3"><a xlink:href="a01345.html#a619072a17db71253fc9ce3bdf1ba1920" target="_top" xlink:title="Get the vertices for a specific triangle in a mesh.">
<polygon fill="white" stroke="#666666" points="506.25,-148 370.25,-148 370.25,-116 506.25,-116 506.25,-148"/>
<text text-anchor="start" x="378.25" y="-134.5" font-family="Helvetica,sans-Serif" font-size="10.00">HF::RayTracer::EmbreeRay</text>
<text text-anchor="middle" x="438.25" y="-122.5" font-family="Helvetica,sans-Serif" font-size="10.00">Tracer::GetTriangle</text>
</a>
</g>
</g>
<!-- Node2&#45;&gt;Node3 -->
<g id="edge2" class="edge">
<title>Node2&#45;&gt;Node3</title>
<path fill="none" stroke="#63b8ff" d="M333.22,-116.16C341.81,-117.47 350.54,-118.8 359.11,-120.1"/>
<polygon fill="#63b8ff" stroke="#63b8ff" points="358.43,-123.69 368.85,-121.74 359.49,-116.77 358.43,-123.69"/>
</g>
<!-- Node5 -->
<g id="node5" class="node">
<title>Node5</title>
<g id="a_node5"><a xlink:href="a00398.html#a9498ae7ffabd8c5bca4026374ac862e9" target="_top" xlink:title="Determine the distance between a ray&#39;s origin and it&#39;s point of intersection with a triangle.">
<polygon fill="white" stroke="#666666" points="506.25,-98 370.25,-98 370.25,-66 506.25,-66 506.25,-98"/>
<text text-anchor="start" x="378.25" y="-84.5" font-family="Helvetica,sans-Serif" font-size="10.00">HF::RayTracer::RayTriangle</text>
<text text-anchor="middle" x="438.25" y="-72.5" font-family="Helvetica,sans-Serif" font-size="10.00">Intersection</text>
</a>
</g>
</g>
<!-- Node2&#45;&gt;Node5 -->
<g id="edge4" class="edge">
<title>Node2&#45;&gt;Node5</title>
<path fill="none" stroke="#63b8ff" d="M333.22,-94.45C341.81,-93.42 350.54,-92.37 359.11,-91.35"/>
<polygon fill="#63b8ff" stroke="#63b8ff" points="359.33,-94.73 368.85,-90.06 358.5,-87.78 359.33,-94.73"/>
</g>
<!-- Node4 -->
<g id="node4" class="node">
<title>Node4</title>
<g id="a_node4"><a xlink:href="a00398.html#a6e20c473674ea46f649ef827818841d2" target="_top" xlink:title=" ">
<polygon fill="white" stroke="#666666" points="689.5,-148 543.75,-148 543.75,-116 689.5,-116 689.5,-148"/>
<text text-anchor="start" x="551.75" y="-134.5" font-family="Helvetica,sans-Serif" font-size="10.00">HF::RayTracer::GetPointFrom</text>
<text text-anchor="middle" x="616.63" y="-122.5" font-family="Helvetica,sans-Serif" font-size="10.00">Buffer</text>
</a>
</g>
</g>
<!-- Node3&#45;&gt;Node4 -->
<g id="edge3" class="edge">
<title>Node3&#45;&gt;Node4</title>
<path fill="none" stroke="#63b8ff" d="M506.68,-132C515.16,-132 523.91,-132 532.6,-132"/>
<polygon fill="#63b8ff" stroke="#63b8ff" points="532.53,-135.5 542.53,-132 532.53,-128.5 532.53,-135.5"/>
</g>
<!-- Node6 -->
<g id="node6" class="node">
<title>Node6</title>
<g id="a_node6"><a xlink:href="a00398.html#a16f9f26b0140f023ce820ec55e38c66b" target="_top" xlink:title=" ">
<polygon fill="white" stroke="#666666" points="671.13,-95 562.13,-95 562.13,-75 671.13,-75 671.13,-95"/>
<text text-anchor="middle" x="616.63" y="-81.5" font-family="Helvetica,sans-Serif" font-size="10.00">HF::RayTracer::cross</text>
</a>
</g>
</g>
<!-- Node5&#45;&gt;Node6 -->
<g id="edge5" class="edge">
<title>Node5&#45;&gt;Node6</title>
<path fill="none" stroke="#63b8ff" d="M506.68,-83.15C521.18,-83.39 536.46,-83.65 550.85,-83.9"/>
<polygon fill="#63b8ff" stroke="#63b8ff" points="550.59,-87.41 560.65,-84.08 550.71,-80.41 550.59,-87.41"/>
</g>
<!-- Node7 -->
<g id="node7" class="node">
<title>Node7</title>
<g id="a_node7"><a xlink:href="a00398.html#ae551c109488ce94d0a568712b50da689" target="_top" xlink:title=" ">
<polygon fill="white" stroke="#666666" points="665.88,-57 567.38,-57 567.38,-37 665.88,-37 665.88,-57"/>
<text text-anchor="middle" x="616.63" y="-43.5" font-family="Helvetica,sans-Serif" font-size="10.00">HF::RayTracer::dot</text>
</a>
</g>
</g>
<!-- Node5&#45;&gt;Node7 -->
<g id="edge6" class="edge">
<title>Node5&#45;&gt;Node7</title>
<path fill="none" stroke="#63b8ff" d="M506.68,-68.62C523.04,-65.37 540.41,-61.93 556.35,-58.76"/>
<polygon fill="#63b8ff" stroke="#63b8ff" points="557.01,-62 566.14,-56.62 555.65,-55.14 557.01,-62"/>
</g>
<!-- Node10 -->
<g id="node10" class="node">
<title>Node10</title>
<g id="a_node10"><a xlink:href="a00398.html#a864ebcf0023de27e610ee897de5436c2" target="_top" xlink:title=" ">
<polygon fill="white" stroke="#666666" points="507.75,-26 368.75,-26 368.75,-6 507.75,-6 507.75,-26"/>
<text text-anchor="middle" x="438.25" y="-12.5" font-family="Helvetica,sans-Serif" font-size="10.00">HF::RayTracer::ConstructHit</text>
</a>
</g>
</g>
<!-- Node9&#45;&gt;Node10 -->
<g id="edge9" class="edge">
<title>Node9&#45;&gt;Node10</title>
<path fill="none" stroke="#63b8ff" d="M320.8,-16C332.77,-16 345.34,-16 357.61,-16"/>
<polygon fill="#63b8ff" stroke="#63b8ff" points="357.29,-19.5 367.29,-16 357.29,-12.5 357.29,-19.5"/>
</g>
</g>
</svg>
