<?xml version="1.0" encoding="UTF-8" standalone="no"?>
<!DOCTYPE svg PUBLIC "-//W3C//DTD SVG 1.1//EN"
 "http://www.w3.org/Graphics/SVG/1.1/DTD/svg11.dtd">
<!-- Generated by graphviz version 4.0.0 (20220529.0937)
 -->
<!-- Title: nanort::real3::real3 Pages: 1 -->
<svg width="260pt" height="142pt"
 viewBox="0.00 0.00 260.00 142.00" xmlns="http://www.w3.org/2000/svg" xmlns:xlink="http://www.w3.org/1999/xlink">
<g id="graph0" class="graph" transform="scale(1 1) rotate(0) translate(4 138)">
<title>nanort::real3::real3</title>
<polygon fill="white" stroke="transparent" points="-4,4 -4,-138 256,-138 256,4 -4,4"/>
<!-- Node1 -->
<g id="node1" class="node">
<title>Node1</title>
<g id="a_node1"><a xlink:title=" ">
<polygon fill="#bfbfbf" stroke="black" points="154,-57.5 154,-76.5 252,-76.5 252,-57.5 154,-57.5"/>
<text text-anchor="middle" x="203" y="-64.5" font-family="Helvetica,sans-Serif" font-size="10.00">nanort::real3::real3</text>
</a>
</g>
</g>
<!-- Node2 -->
<g id="node2" class="node">
<title>Node2</title>
<g id="a_node2"><a xlink:href="a01377.html#a53be64ec8d91a0d750a386c28b86d8c5" target="_top" xlink:title=" ">
<polygon fill="white" stroke="black" points="1,-114.5 1,-133.5 117,-133.5 117,-114.5 1,-114.5"/>
<text text-anchor="middle" x="59" y="-121.5" font-family="Helvetica,sans-Serif" font-size="10.00">nanort::real3::operator*</text>
</a>
</g>
</g>
<!-- Node1&#45;&gt;Node2 -->
<g id="edge1" class="edge">
<title>Node1&#45;&gt;Node2</title>
<path fill="none" stroke="midnightblue" d="M173.19,-80.97C157.13,-88.52 136.66,-97.75 118,-105 109.41,-108.34 99.96,-111.6 91.22,-114.46"/>
<polygon fill="midnightblue" stroke="midnightblue" points="175.03,-83.96 182.57,-76.52 172.03,-77.64 175.03,-83.96"/>
</g>
<!-- Node3 -->
<g id="node3" class="node">
<title>Node3</title>
<g id="a_node3"><a xlink:href="a01377.html#abba2600acee60dddefa6797835e44300" target="_top" xlink:title=" ">
<polygon fill="white" stroke="black" points="0,-76.5 0,-95.5 118,-95.5 118,-76.5 0,-76.5"/>
<text text-anchor="middle" x="59" y="-83.5" font-family="Helvetica,sans-Serif" font-size="10.00">nanort::real3::operator+</text>
</a>
</g>
</g>
<!-- Node1&#45;&gt;Node3 -->
<g id="edge2" class="edge">
<title>Node1&#45;&gt;Node3</title>
<path fill="none" stroke="midnightblue" d="M143.76,-74.79C135.29,-75.93 126.57,-77.09 118.11,-78.22"/>
<polygon fill="midnightblue" stroke="midnightblue" points="144.48,-78.23 153.93,-73.43 143.55,-71.29 144.48,-78.23"/>
</g>
<!-- Node4 -->
<g id="node4" class="node">
<title>Node4</title>
<g id="a_node4"><a xlink:href="a01377.html#aff71230adfb3070aa773cb08dad19e03" target="_top" xlink:title=" ">
<polygon fill="white" stroke="black" points="1.5,-38.5 1.5,-57.5 116.5,-57.5 116.5,-38.5 1.5,-38.5"/>
<text text-anchor="middle" x="59" y="-45.5" font-family="Helvetica,sans-Serif" font-size="10.00">nanort::real3::operator&#45;</text>
</a>
</g>
</g>
<!-- Node1&#45;&gt;Node4 -->
<g id="edge3" class="edge">
<title>Node1&#45;&gt;Node4</title>
<path fill="none" stroke="midnightblue" d="M143.97,-59.24C135.02,-58.04 125.79,-56.8 116.86,-55.61"/>
<polygon fill="midnightblue" stroke="midnightblue" points="143.55,-62.71 153.93,-60.57 144.48,-55.77 143.55,-62.71"/>
</g>
<!-- Node5 -->
<g id="node5" class="node">
<title>Node5</title>
<g id="a_node5"><a xlink:href="a01377.html#a0fdbf92ea5a1299ad4b6eb6199336eeb" target="_top" xlink:title=" ">
<polygon fill="white" stroke="black" points="1.5,-0.5 1.5,-19.5 116.5,-19.5 116.5,-0.5 1.5,-0.5"/>
<text text-anchor="middle" x="59" y="-7.5" font-family="Helvetica,sans-Serif" font-size="10.00">nanort::real3::operator/</text>
</a>
</g>
</g>
<!-- Node1&#45;&gt;Node5 -->
<g id="edge4" class="edge">
<title>Node1&#45;&gt;Node5</title>
<path fill="none" stroke="midnightblue" d="M173.19,-53.03C157.13,-45.48 136.66,-36.25 118,-29 109.41,-25.66 99.96,-22.4 91.22,-19.54"/>
<polygon fill="midnightblue" stroke="midnightblue" points="172.03,-56.36 182.57,-57.48 175.03,-50.04 172.03,-56.36"/>
</g>
</g>
</svg>
