<?xml version="1.0" encoding="UTF-8" standalone="no"?>
<!DOCTYPE svg PUBLIC "-//W3C//DTD SVG 1.1//EN"
 "http://www.w3.org/Graphics/SVG/1.1/DTD/svg11.dtd">
<!-- Generated by graphviz version 2.43.0 (0)
 -->
<!-- Title: HF::Pathfinding::DistPred Pages: 1 -->
<svg width="250pt" height="173pt"
 viewBox="0.00 0.00 250.00 173.00" xmlns="http://www.w3.org/2000/svg" xmlns:xlink="http://www.w3.org/1999/xlink">
<g id="graph0" class="graph" transform="scale(1 1) rotate(0) translate(4 169)">
<title>HF::Pathfinding::DistPred</title>
<polygon fill="white" stroke="transparent" points="-4,4 -4,-169 246,-169 246,4 -4,4"/>
<!-- Node1 -->
<g id="node1" class="node">
<title>Node1</title>
<g id="a_node1"><a xlink:title="A single row of a distance and predecessor matrix.">
<polygon fill="#bfbfbf" stroke="black" points="52,-0.5 52,-19.5 189,-19.5 189,-0.5 52,-0.5"/>
<text text-anchor="middle" x="120.5" y="-7.5" font-family="Helvetica,sans-Serif" font-size="10.00">HF::Pathfinding::DistPred</text>
</a>
</g>
</g>
<!-- Node2 -->
<g id="node2" class="node">
<title>Node2</title>
<g id="a_node2"><a xlink:title=" ">
<polygon fill="white" stroke="#bfbfbf" points="0,-67.5 0,-97.5 111,-97.5 111,-67.5 0,-67.5"/>
<text text-anchor="start" x="8" y="-85.5" font-family="Helvetica,sans-Serif" font-size="10.00">std::vector&lt; vertex</text>
<text text-anchor="middle" x="55.5" y="-74.5" font-family="Helvetica,sans-Serif" font-size="10.00">_descriptor &gt;</text>
</a>
</g>
</g>
<!-- Node2&#45;&gt;Node1 -->
<g id="edge1" class="edge">
<title>Node2&#45;&gt;Node1</title>
<path fill="none" stroke="#9a32cd" stroke-dasharray="5,2" d="M71.87,-58.88C77.23,-51.95 83.38,-44.46 89.5,-38 95.79,-31.37 103.54,-24.62 109.71,-19.53"/>
<polygon fill="#9a32cd" stroke="#9a32cd" points="68.8,-57.14 65.58,-67.23 74.39,-61.35 68.8,-57.14"/>
<text text-anchor="middle" x="121" y="-41" font-family="Helvetica,sans-Serif" font-size="10.00"> predecessor</text>
</g>
<!-- Node3 -->
<g id="node3" class="node">
<title>Node3</title>
<g id="a_node3"><a xlink:title=" ">
<polygon fill="white" stroke="#bfbfbf" points="4.5,-145.5 4.5,-164.5 106.5,-164.5 106.5,-145.5 4.5,-145.5"/>
<text text-anchor="middle" x="55.5" y="-152.5" font-family="Helvetica,sans-Serif" font-size="10.00">vertex_descriptor</text>
</a>
</g>
</g>
<!-- Node3&#45;&gt;Node2 -->
<g id="edge2" class="edge">
<title>Node3&#45;&gt;Node2</title>
<path fill="none" stroke="#9a32cd" stroke-dasharray="5,2" d="M55.5,-135.24C55.5,-123.41 55.5,-108.38 55.5,-97.58"/>
<polygon fill="#9a32cd" stroke="#9a32cd" points="52,-135.36 55.5,-145.36 59,-135.36 52,-135.36"/>
<text text-anchor="middle" x="80" y="-119" font-family="Helvetica,sans-Serif" font-size="10.00"> elements</text>
</g>
<!-- Node4 -->
<g id="node4" class="node">
<title>Node4</title>
<g id="a_node4"><a xlink:title=" ">
<polygon fill="white" stroke="#bfbfbf" points="129,-73 129,-92 242,-92 242,-73 129,-73"/>
<text text-anchor="middle" x="185.5" y="-80" font-family="Helvetica,sans-Serif" font-size="10.00">std::vector&lt; float &gt;</text>
</a>
</g>
</g>
<!-- Node4&#45;&gt;Node1 -->
<g id="edge3" class="edge">
<title>Node4&#45;&gt;Node1</title>
<path fill="none" stroke="#9a32cd" stroke-dasharray="5,2" d="M173.93,-64.48C167.94,-56.15 160.26,-46.18 152.5,-38 146.19,-31.36 138.34,-24.71 132,-19.68"/>
<polygon fill="#9a32cd" stroke="#9a32cd" points="171.09,-66.53 179.7,-72.72 176.83,-62.52 171.09,-66.53"/>
<text text-anchor="middle" x="183" y="-41" font-family="Helvetica,sans-Serif" font-size="10.00"> distance</text>
</g>
<!-- Node5 -->
<g id="node5" class="node">
<title>Node5</title>
<g id="a_node5"><a xlink:title=" ">
<polygon fill="white" stroke="#bfbfbf" points="166.5,-145.5 166.5,-164.5 204.5,-164.5 204.5,-145.5 166.5,-145.5"/>
<text text-anchor="middle" x="185.5" y="-152.5" font-family="Helvetica,sans-Serif" font-size="10.00">float</text>
</a>
</g>
</g>
<!-- Node5&#45;&gt;Node4 -->
<g id="edge4" class="edge">
<title>Node5&#45;&gt;Node4</title>
<path fill="none" stroke="#9a32cd" stroke-dasharray="5,2" d="M185.5,-134.94C185.5,-121.03 185.5,-102.82 185.5,-92.22"/>
<polygon fill="#9a32cd" stroke="#9a32cd" points="182,-135.36 185.5,-145.36 189,-135.36 182,-135.36"/>
<text text-anchor="middle" x="210" y="-119" font-family="Helvetica,sans-Serif" font-size="10.00"> elements</text>
</g>
</g>
</svg>
