<?xml version="1.0" encoding="UTF-8" standalone="no"?>
<!DOCTYPE svg PUBLIC "-//W3C//DTD SVG 1.1//EN"
 "http://www.w3.org/Graphics/SVG/1.1/DTD/svg11.dtd">
<!-- Generated by graphviz version 8.0.5 (20230430.1635)
 -->
<!-- Title: HF::RayTracer::EmbreeRayTracer::PointIntersections Pages: 1 -->
<svg width="316pt" height="58pt"
 viewBox="0.00 0.00 316.00 58.00" xmlns="http://www.w3.org/2000/svg" xmlns:xlink="http://www.w3.org/1999/xlink">
<g id="graph0" class="graph" transform="scale(1 1) rotate(0) translate(4 54)">
<title>HF::RayTracer::EmbreeRayTracer::PointIntersections</title>
<!-- Node1 -->
<g id="node1" class="node">
<title>Node1</title>
<g id="a_node1"><a xlink:title="Cast multiple rays and recieve hitpoints in return.">
<polygon fill="#999999" stroke="#666666" points="136,-32 0,-32 0,0 136,0 136,-32"/>
<text text-anchor="start" x="8" y="-18.5" font-family="Helvetica,sans-Serif" font-size="10.00">HF::RayTracer::EmbreeRay</text>
<text text-anchor="middle" x="68" y="-6.5" font-family="Helvetica,sans-Serif" font-size="10.00">Tracer::PointIntersections</text>
</a>
</g>
</g>
<!-- Node2 -->
<g id="node2" class="node">
<title>Node2</title>
<g id="a_node2"><a xlink:href="a01345.html#aa8424b274c7c5d0598ff13b49ac8c8d2" target="_top" xlink:title="Cast a ray and overwrite the origin with the hitpoint if it intersects any geometry.">
<polygon fill="white" stroke="#666666" points="308,-32 172,-32 172,0 308,0 308,-32"/>
<text text-anchor="start" x="180" y="-18.5" font-family="Helvetica,sans-Serif" font-size="10.00">HF::RayTracer::EmbreeRay</text>
<text text-anchor="middle" x="240" y="-6.5" font-family="Helvetica,sans-Serif" font-size="10.00">Tracer::PointIntersection</text>
</a>
</g>
</g>
<!-- Node1&#45;&gt;Node2 -->
<g id="edge1" class="edge">
<title>Node1&#45;&gt;Node2</title>
<path fill="none" stroke="#63b8ff" d="M136.19,-16C144.32,-16 152.68,-16 160.95,-16"/>
<polygon fill="#63b8ff" stroke="#63b8ff" points="160.74,-19.5 170.74,-16 160.74,-12.5 160.74,-19.5"/>
</g>
<!-- Node2&#45;&gt;Node2 -->
<g id="edge2" class="edge">
<title>Node2&#45;&gt;Node2</title>
<path fill="none" stroke="#63b8ff" d="M209.29,-32.44C203.56,-41.58 213.8,-50 240,-50 255.15,-50 264.96,-47.19 269.44,-43.05"/>
<polygon fill="#63b8ff" stroke="#63b8ff" points="272.99,-43.79 270.71,-33.44 266.04,-42.96 272.99,-43.79"/>
</g>
</g>
</svg>
