<?xml version="1.0" encoding="UTF-8" standalone="no"?>
<!DOCTYPE svg PUBLIC "-//W3C//DTD SVG 1.1//EN"
 "http://www.w3.org/Graphics/SVG/1.1/DTD/svg11.dtd">
<!-- Generated by graphviz version 7.0.3 (20221126.0506)
 -->
<!-- Title: HF::Pathfinding::DistPred Pages: 1 -->
<svg width="220pt" height="170pt"
 viewBox="0.00 0.00 220.00 170.00" xmlns="http://www.w3.org/2000/svg" xmlns:xlink="http://www.w3.org/1999/xlink">
<g id="graph0" class="graph" transform="scale(1 1) rotate(0) translate(4 166)">
<title>HF::Pathfinding::DistPred</title>
<!-- Node1 -->
<g id="node1" class="node">
<title>Node1</title>
<g id="a_node1"><a xlink:title="A single row of a distance and predecessor matrix.">
<polygon fill="#999999" stroke="#666666" points="169.5,-19 42.5,-19 42.5,0 169.5,0 169.5,-19"/>
<text text-anchor="middle" x="106" y="-7" font-family="Helvetica,sans-Serif" font-size="10.00">HF::Pathfinding::DistPred</text>
</a>
</g>
</g>
<!-- Node2 -->
<g id="node2" class="node">
<title>Node2</title>
<g id="a_node2"><a xlink:title=" ">
<polygon fill="white" stroke="#666666" points="98,-90.5 0,-90.5 0,-71.5 98,-71.5 98,-90.5"/>
<text text-anchor="middle" x="49" y="-78.5" font-family="Helvetica,sans-Serif" font-size="10.00">std::vector&lt; float &gt;</text>
</a>
</g>
</g>
<!-- Node2&#45;&gt;Node1 -->
<g id="edge1" class="edge">
<title>Node2&#45;&gt;Node1</title>
<path fill="none" stroke="#9a32cd" stroke-dasharray="5,2" d="M63.24,-62.63C74.5,-48.91 89.74,-30.32 98.66,-19.45"/>
<polygon fill="#9a32cd" stroke="#9a32cd" points="60.81,-60.08 57.18,-70.03 66.23,-64.51 60.81,-60.08"/>
<text text-anchor="middle" x="103" y="-40" font-family="Helvetica,sans-Serif" font-size="10.00"> distance</text>
</g>
<!-- Node3 -->
<g id="node3" class="node">
<title>Node3</title>
<g id="a_node3"><a xlink:title=" ">
<polygon fill="white" stroke="#666666" points="66.5,-162 31.5,-162 31.5,-143 66.5,-143 66.5,-162"/>
<text text-anchor="middle" x="49" y="-150" font-family="Helvetica,sans-Serif" font-size="10.00">float</text>
</a>
</g>
</g>
<!-- Node3&#45;&gt;Node2 -->
<g id="edge2" class="edge">
<title>Node3&#45;&gt;Node2</title>
<path fill="none" stroke="#9a32cd" stroke-dasharray="5,2" d="M49,-131.3C49,-117.94 49,-101.09 49,-90.95"/>
<polygon fill="#9a32cd" stroke="#9a32cd" points="45.5,-131.18 49,-141.18 52.5,-131.18 45.5,-131.18"/>
<text text-anchor="middle" x="70.5" y="-117" font-family="Helvetica,sans-Serif" font-size="10.00"> elements</text>
</g>
<!-- Node4 -->
<g id="node4" class="node">
<title>Node4</title>
<g id="a_node4"><a xlink:title=" ">
<polygon fill="white" stroke="#666666" points="212,-96 116,-96 116,-66 212,-66 212,-96"/>
<text text-anchor="start" x="124" y="-84" font-family="Helvetica,sans-Serif" font-size="10.00">std::vector&lt; vertex</text>
<text text-anchor="middle" x="164" y="-73" font-family="Helvetica,sans-Serif" font-size="10.00">_descriptor &gt;</text>
</a>
</g>
</g>
<!-- Node4&#45;&gt;Node1 -->
<g id="edge3" class="edge">
<title>Node4&#45;&gt;Node1</title>
<path fill="none" stroke="#9a32cd" stroke-dasharray="5,2" d="M144.9,-57.12C134.06,-44.13 121.13,-28.63 113.24,-19.18"/>
<polygon fill="#9a32cd" stroke="#9a32cd" points="141.92,-59 151.01,-64.44 147.29,-54.52 141.92,-59"/>
<text text-anchor="middle" x="165.5" y="-40" font-family="Helvetica,sans-Serif" font-size="10.00"> predecessor</text>
</g>
<!-- Node5 -->
<g id="node5" class="node">
<title>Node5</title>
<g id="a_node5"><a xlink:title=" ">
<polygon fill="white" stroke="#666666" points="209,-162 119,-162 119,-143 209,-143 209,-162"/>
<text text-anchor="middle" x="164" y="-150" font-family="Helvetica,sans-Serif" font-size="10.00">vertex_descriptor</text>
</a>
</g>
</g>
<!-- Node5&#45;&gt;Node4 -->
<g id="edge4" class="edge">
<title>Node5&#45;&gt;Node4</title>
<path fill="none" stroke="#9a32cd" stroke-dasharray="5,2" d="M164,-131.39C164,-120.15 164,-106.41 164,-96.27"/>
<polygon fill="#9a32cd" stroke="#9a32cd" points="160.5,-131.18 164,-141.18 167.5,-131.18 160.5,-131.18"/>
<text text-anchor="middle" x="185.5" y="-117" font-family="Helvetica,sans-Serif" font-size="10.00"> elements</text>
</g>
</g>
</svg>
