<?xml version="1.0" encoding="UTF-8" standalone="no"?>
<!DOCTYPE svg PUBLIC "-//W3C//DTD SVG 1.1//EN"
 "http://www.w3.org/Graphics/SVG/1.1/DTD/svg11.dtd">
<!-- Generated by graphviz version 8.0.5 (20230430.1635)
 -->
<!-- Title: nanort::real3::y Pages: 1 -->
<svg width="379pt" height="294pt"
 viewBox="0.00 0.00 379.25 294.00" xmlns="http://www.w3.org/2000/svg" xmlns:xlink="http://www.w3.org/1999/xlink">
<g id="graph0" class="graph" transform="scale(1 1) rotate(0) translate(4 290)">
<title>nanort::real3::y</title>
<!-- Node1 -->
<g id="node1" class="node">
<title>Node1</title>
<g id="a_node1"><a xlink:title=" ">
<polygon fill="#999999" stroke="#666666" points="371.25,-153 290,-153 290,-133 371.25,-133 371.25,-153"/>
<text text-anchor="middle" x="330.63" y="-139.5" font-family="Helvetica,sans-Serif" font-size="10.00">nanort::real3::y</text>
</a>
</g>
</g>
<!-- Node2 -->
<g id="node2" class="node">
<title>Node2</title>
<g id="a_node2"><a xlink:href="a01377.html#a53be64ec8d91a0d750a386c28b86d8c5" target="_top" xlink:title=" ">
<polygon fill="white" stroke="#666666" points="249.88,-286 134.88,-286 134.88,-266 249.88,-266 249.88,-286"/>
<text text-anchor="middle" x="192.38" y="-272.5" font-family="Helvetica,sans-Serif" font-size="10.00">nanort::real3::operator*</text>
</a>
</g>
</g>
<!-- Node1&#45;&gt;Node2 -->
<g id="edge1" class="edge">
<title>Node1&#45;&gt;Node2</title>
<path fill="none" stroke="#63b8ff" d="M321.36,-163.24C309.93,-188.76 286.91,-232.27 254,-257 249.41,-260.45 244.19,-263.28 238.78,-265.6"/>
<polygon fill="#63b8ff" stroke="#63b8ff" points="324.94,-164.79 325.67,-154.22 318.5,-162.02 324.94,-164.79"/>
</g>
<!-- Node3 -->
<g id="node3" class="node">
<title>Node3</title>
<g id="a_node3"><a xlink:href="a00408.html#ac087438e0e06d6e0bfd900f023d566cf" target="_top" xlink:title=" ">
<polygon fill="white" stroke="#666666" points="236.38,-248 148.38,-248 148.38,-228 236.38,-228 236.38,-248"/>
<text text-anchor="middle" x="192.38" y="-234.5" font-family="Helvetica,sans-Serif" font-size="10.00">nanort::operator*</text>
</a>
</g>
</g>
<!-- Node1&#45;&gt;Node3 -->
<g id="edge2" class="edge">
<title>Node1&#45;&gt;Node3</title>
<path fill="none" stroke="#63b8ff" d="M315.57,-161.6C301.67,-178.78 278.93,-203.86 254,-219 248.44,-222.38 242.22,-225.21 235.94,-227.56"/>
<polygon fill="#63b8ff" stroke="#63b8ff" points="318.56,-164.46 321.99,-154.43 313.06,-160.13 318.56,-164.46"/>
</g>
<!-- Node4 -->
<g id="node4" class="node">
<title>Node4</title>
<g id="a_node4"><a xlink:href="a01377.html#abba2600acee60dddefa6797835e44300" target="_top" xlink:title=" ">
<polygon fill="white" stroke="#666666" points="251,-210 133.75,-210 133.75,-190 251,-190 251,-210"/>
<text text-anchor="middle" x="192.38" y="-196.5" font-family="Helvetica,sans-Serif" font-size="10.00">nanort::real3::operator+</text>
</a>
</g>
</g>
<!-- Node1&#45;&gt;Node4 -->
<g id="edge3" class="edge">
<title>Node1&#45;&gt;Node4</title>
<path fill="none" stroke="#63b8ff" d="M301.5,-158.5C287.48,-165.87 270.11,-174.48 254,-181 246.33,-184.1 237.95,-187.02 229.94,-189.59"/>
<polygon fill="#63b8ff" stroke="#63b8ff" points="302.89,-161.19 310.06,-153.39 299.59,-155.02 302.89,-161.19"/>
</g>
<!-- Node5 -->
<g id="node5" class="node">
<title>Node5</title>
<g id="a_node5"><a xlink:href="a01377.html#ac5df078f42dc0877ba9fab81dc48d1c4" target="_top" xlink:title=" ">
<polygon fill="white" stroke="#666666" points="254,-172 130.75,-172 130.75,-152 254,-152 254,-172"/>
<text text-anchor="middle" x="192.38" y="-158.5" font-family="Helvetica,sans-Serif" font-size="10.00">nanort::real3::operator+=</text>
</a>
</g>
</g>
<!-- Node1&#45;&gt;Node5 -->
<g id="edge4" class="edge">
<title>Node1&#45;&gt;Node5</title>
<path fill="none" stroke="#63b8ff" d="M279.16,-150.04C271.12,-151.16 262.73,-152.33 254.48,-153.48"/>
<polygon fill="#63b8ff" stroke="#63b8ff" points="279.43,-153.39 288.85,-148.55 278.46,-146.46 279.43,-153.39"/>
</g>
<!-- Node6 -->
<g id="node6" class="node">
<title>Node6</title>
<g id="a_node6"><a xlink:href="a01377.html#aff71230adfb3070aa773cb08dad19e03" target="_top" xlink:title=" ">
<polygon fill="white" stroke="#666666" points="249.5,-134 135.25,-134 135.25,-114 249.5,-114 249.5,-134"/>
<text text-anchor="middle" x="192.38" y="-120.5" font-family="Helvetica,sans-Serif" font-size="10.00">nanort::real3::operator&#45;</text>
</a>
</g>
</g>
<!-- Node1&#45;&gt;Node6 -->
<g id="edge5" class="edge">
<title>Node1&#45;&gt;Node6</title>
<path fill="none" stroke="#63b8ff" d="M278.99,-135.94C269.51,-134.62 259.55,-133.23 249.91,-131.88"/>
<polygon fill="#63b8ff" stroke="#63b8ff" points="278.46,-139.54 288.85,-137.45 279.43,-132.61 278.46,-139.54"/>
</g>
<!-- Node7 -->
<g id="node7" class="node">
<title>Node7</title>
<g id="a_node7"><a xlink:href="a01377.html#a0fdbf92ea5a1299ad4b6eb6199336eeb" target="_top" xlink:title=" ">
<polygon fill="white" stroke="#666666" points="249.5,-96 135.25,-96 135.25,-76 249.5,-76 249.5,-96"/>
<text text-anchor="middle" x="192.38" y="-82.5" font-family="Helvetica,sans-Serif" font-size="10.00">nanort::real3::operator/</text>
</a>
</g>
</g>
<!-- Node1&#45;&gt;Node7 -->
<g id="edge6" class="edge">
<title>Node1&#45;&gt;Node7</title>
<path fill="none" stroke="#63b8ff" d="M301.5,-127.5C287.48,-120.13 270.11,-111.52 254,-105 246.33,-101.9 237.95,-98.98 229.94,-96.41"/>
<polygon fill="#63b8ff" stroke="#63b8ff" points="299.59,-130.98 310.06,-132.61 302.89,-124.81 299.59,-130.98"/>
</g>
<!-- Node8 -->
<g id="node8" class="node">
<title>Node8</title>
<g id="a_node8"><a xlink:href="a00408.html#ab9ba72d8d5e11d213c39ce9bd8e851ef" target="_top" xlink:title=" ">
<polygon fill="white" stroke="#666666" points="231.88,-58 152.88,-58 152.88,-38 231.88,-38 231.88,-58"/>
<text text-anchor="middle" x="192.38" y="-44.5" font-family="Helvetica,sans-Serif" font-size="10.00">nanort::vlength</text>
</a>
</g>
</g>
<!-- Node1&#45;&gt;Node8 -->
<g id="edge7" class="edge">
<title>Node1&#45;&gt;Node8</title>
<path fill="none" stroke="#63b8ff" d="M315.57,-124.4C301.67,-107.22 278.93,-82.14 254,-67 247.31,-62.93 239.66,-59.66 232.11,-57.06"/>
<polygon fill="#63b8ff" stroke="#63b8ff" points="313.06,-125.87 321.99,-131.57 318.56,-121.54 313.06,-125.87"/>
</g>
<!-- Node10 -->
<g id="node10" class="node">
<title>Node10</title>
<g id="a_node10"><a xlink:href="a00408.html#aecb04fda18a17169fe84e62932fba761" target="_top" xlink:title=" ">
<polygon fill="white" stroke="#666666" points="226.63,-20 158.13,-20 158.13,0 226.63,0 226.63,-20"/>
<text text-anchor="middle" x="192.38" y="-6.5" font-family="Helvetica,sans-Serif" font-size="10.00">nanort::vneg</text>
</a>
</g>
</g>
<!-- Node1&#45;&gt;Node10 -->
<g id="edge9" class="edge">
<title>Node1&#45;&gt;Node10</title>
<path fill="none" stroke="#63b8ff" d="M321.36,-122.76C309.93,-97.24 286.91,-53.73 254,-29 246.15,-23.1 236.43,-19.01 227.09,-16.18"/>
<polygon fill="#63b8ff" stroke="#63b8ff" points="318.5,-123.98 325.67,-131.78 324.94,-121.21 318.5,-123.98"/>
</g>
<!-- Node9 -->
<g id="node9" class="node">
<title>Node9</title>
<g id="a_node9"><a xlink:href="a00408.html#a3158af945b024d902dbe469939dfd025" target="_top" xlink:title=" ">
<polygon fill="white" stroke="#666666" points="94.75,-58 0,-58 0,-38 94.75,-38 94.75,-58"/>
<text text-anchor="middle" x="47.38" y="-44.5" font-family="Helvetica,sans-Serif" font-size="10.00">nanort::vnormalize</text>
</a>
</g>
</g>
<!-- Node8&#45;&gt;Node9 -->
<g id="edge8" class="edge">
<title>Node8&#45;&gt;Node9</title>
<path fill="none" stroke="#63b8ff" d="M141.91,-48C126.69,-48 110.01,-48 95,-48"/>
<polygon fill="#63b8ff" stroke="#63b8ff" points="141.68,-51.5 151.68,-48 141.68,-44.5 141.68,-51.5"/>
</g>
</g>
</svg>
