<?xml version="1.0" encoding="UTF-8" standalone="no"?>
<!DOCTYPE svg PUBLIC "-//W3C//DTD SVG 1.1//EN"
 "http://www.w3.org/Graphics/SVG/1.1/DTD/svg11.dtd">
<!-- Generated by graphviz version 2.43.0 (0)
 -->
<!-- Title: HF::RayTracer::EmbreeRayTracer::CalculatePreciseDistance Pages: 1 -->
<svg width="558pt" height="118pt"
 viewBox="0.00 0.00 558.00 117.50" xmlns="http://www.w3.org/2000/svg" xmlns:xlink="http://www.w3.org/1999/xlink">
<g id="graph0" class="graph" transform="scale(1 1) rotate(0) translate(4 113.5)">
<title>HF::RayTracer::EmbreeRayTracer::CalculatePreciseDistance</title>
<polygon fill="white" stroke="transparent" points="-4,4 -4,-113.5 554,-113.5 554,4 -4,4"/>
<!-- Node1 -->
<g id="node1" class="node">
<title>Node1</title>
<g id="a_node1"><a xlink:title="Calculate the distance from origin to the point of intersection using an algorithm with higher precis...">
<polygon fill="#bfbfbf" stroke="black" points="0,-54 0,-84 176,-84 176,-54 0,-54"/>
<text text-anchor="start" x="8" y="-72" font-family="Helvetica,sans-Serif" font-size="10.00">HF::RayTracer::EmbreeRay</text>
<text text-anchor="middle" x="88" y="-61" font-family="Helvetica,sans-Serif" font-size="10.00">Tracer::CalculatePreciseDistance</text>
</a>
</g>
</g>
<!-- Node2 -->
<g id="node2" class="node">
<title>Node2</title>
<g id="a_node2"><a xlink:href="a01357.html#a619072a17db71253fc9ce3bdf1ba1920" target="_top" xlink:title="Get the vertices for a specific triangle in a mesh.">
<polygon fill="white" stroke="black" points="212,-79 212,-109 358,-109 358,-79 212,-79"/>
<text text-anchor="start" x="220" y="-97" font-family="Helvetica,sans-Serif" font-size="10.00">HF::RayTracer::EmbreeRay</text>
<text text-anchor="middle" x="285" y="-86" font-family="Helvetica,sans-Serif" font-size="10.00">Tracer::GetTriangle</text>
</a>
</g>
</g>
<!-- Node1&#45;&gt;Node2 -->
<g id="edge1" class="edge">
<title>Node1&#45;&gt;Node2</title>
<path fill="none" stroke="midnightblue" d="M176.23,-80.18C184.67,-81.27 193.21,-82.36 201.59,-83.44"/>
<polygon fill="midnightblue" stroke="midnightblue" points="201.37,-86.93 211.73,-84.73 202.26,-79.99 201.37,-86.93"/>
</g>
<!-- Node4 -->
<g id="node4" class="node">
<title>Node4</title>
<g id="a_node4"><a xlink:href="a00398.html#a9498ae7ffabd8c5bca4026374ac862e9" target="_top" xlink:title="Determine the distance between a ray&#39;s origin and it&#39;s point of intersection with a triangle.">
<polygon fill="white" stroke="black" points="212,-30 212,-60 358,-60 358,-30 212,-30"/>
<text text-anchor="start" x="220" y="-48" font-family="Helvetica,sans-Serif" font-size="10.00">HF::RayTracer::RayTriangle</text>
<text text-anchor="middle" x="285" y="-37" font-family="Helvetica,sans-Serif" font-size="10.00">Intersection</text>
</a>
</g>
</g>
<!-- Node1&#45;&gt;Node4 -->
<g id="edge3" class="edge">
<title>Node1&#45;&gt;Node4</title>
<path fill="none" stroke="midnightblue" d="M176.23,-58.26C184.67,-57.23 193.21,-56.17 201.59,-55.14"/>
<polygon fill="midnightblue" stroke="midnightblue" points="202.23,-58.59 211.73,-53.89 201.38,-51.64 202.23,-58.59"/>
</g>
<!-- Node3 -->
<g id="node3" class="node">
<title>Node3</title>
<g id="a_node3"><a xlink:href="a00398.html#a6e20c473674ea46f649ef827818841d2" target="_top" xlink:title=" ">
<polygon fill="white" stroke="black" points="394,-79 394,-109 550,-109 550,-79 394,-79"/>
<text text-anchor="start" x="402" y="-97" font-family="Helvetica,sans-Serif" font-size="10.00">HF::RayTracer::GetPointFrom</text>
<text text-anchor="middle" x="472" y="-86" font-family="Helvetica,sans-Serif" font-size="10.00">Buffer</text>
</a>
</g>
</g>
<!-- Node2&#45;&gt;Node3 -->
<g id="edge2" class="edge">
<title>Node2&#45;&gt;Node3</title>
<path fill="none" stroke="midnightblue" d="M358.06,-94C366.51,-94 375.21,-94 383.85,-94"/>
<polygon fill="midnightblue" stroke="midnightblue" points="383.94,-97.5 393.94,-94 383.94,-90.5 383.94,-97.5"/>
</g>
<!-- Node5 -->
<g id="node5" class="node">
<title>Node5</title>
<g id="a_node5"><a xlink:href="a00398.html#a16f9f26b0140f023ce820ec55e38c66b" target="_top" xlink:title=" ">
<polygon fill="white" stroke="black" points="414.5,-38.5 414.5,-57.5 529.5,-57.5 529.5,-38.5 414.5,-38.5"/>
<text text-anchor="middle" x="472" y="-45.5" font-family="Helvetica,sans-Serif" font-size="10.00">HF::RayTracer::cross</text>
</a>
</g>
</g>
<!-- Node4&#45;&gt;Node5 -->
<g id="edge4" class="edge">
<title>Node4&#45;&gt;Node5</title>
<path fill="none" stroke="midnightblue" d="M358.06,-46.17C373.22,-46.41 389.16,-46.67 404.13,-46.92"/>
<polygon fill="midnightblue" stroke="midnightblue" points="404.26,-50.42 414.32,-47.08 404.37,-43.42 404.26,-50.42"/>
</g>
<!-- Node6 -->
<g id="node6" class="node">
<title>Node6</title>
<g id="a_node6"><a xlink:href="a00398.html#ae551c109488ce94d0a568712b50da689" target="_top" xlink:title=" ">
<polygon fill="white" stroke="black" points="419.5,-0.5 419.5,-19.5 524.5,-19.5 524.5,-0.5 419.5,-0.5"/>
<text text-anchor="middle" x="472" y="-7.5" font-family="Helvetica,sans-Serif" font-size="10.00">HF::RayTracer::dot</text>
</a>
</g>
</g>
<!-- Node4&#45;&gt;Node6 -->
<g id="edge5" class="edge">
<title>Node4&#45;&gt;Node6</title>
<path fill="none" stroke="midnightblue" d="M358.06,-31.37C375.36,-28.09 393.68,-24.63 410.4,-21.46"/>
<polygon fill="midnightblue" stroke="midnightblue" points="411.41,-24.84 420.59,-19.54 410.11,-17.96 411.41,-24.84"/>
</g>
</g>
</svg>
