<?xml version="1.0" encoding="UTF-8" standalone="no"?>
<!DOCTYPE svg PUBLIC "-//W3C//DTD SVG 1.1//EN"
 "http://www.w3.org/Graphics/SVG/1.1/DTD/svg11.dtd">
<!-- Generated by graphviz version 8.0.5 (20230430.1635)
 -->
<!-- Title: HF::RayTracer::NanoRTRayTracer::CreateHit Pages: 1 -->
<svg width="490pt" height="90pt"
 viewBox="0.00 0.00 490.25 90.00" xmlns="http://www.w3.org/2000/svg" xmlns:xlink="http://www.w3.org/1999/xlink">
<g id="graph0" class="graph" transform="scale(1 1) rotate(0) translate(4 86)">
<title>HF::RayTracer::NanoRTRayTracer::CreateHit</title>
<!-- Node1 -->
<g id="node1" class="node">
<title>Node1</title>
<g id="a_node1"><a xlink:title=" ">
<polygon fill="#999999" stroke="#666666" points="482.25,-57 345.5,-57 345.5,-25 482.25,-25 482.25,-57"/>
<text text-anchor="start" x="353.5" y="-43.5" font-family="Helvetica,sans-Serif" font-size="10.00">HF::RayTracer::NanoRTRay</text>
<text text-anchor="middle" x="413.88" y="-31.5" font-family="Helvetica,sans-Serif" font-size="10.00">Tracer::CreateHit</text>
</a>
</g>
</g>
<!-- Node2 -->
<g id="node2" class="node">
<title>Node2</title>
<g id="a_node2"><a xlink:href="a01453.html#a980fe63296fb23f96ceafc82789cff6c" target="_top" xlink:title=" ">
<polygon fill="white" stroke="#666666" points="309.5,-57 172.75,-57 172.75,-25 309.5,-25 309.5,-57"/>
<text text-anchor="start" x="180.75" y="-43.5" font-family="Helvetica,sans-Serif" font-size="10.00">HF::RayTracer::NanoRTRay</text>
<text text-anchor="middle" x="241.13" y="-31.5" font-family="Helvetica,sans-Serif" font-size="10.00">Tracer::Intersect</text>
</a>
</g>
</g>
<!-- Node1&#45;&gt;Node2 -->
<g id="edge1" class="edge">
<title>Node1&#45;&gt;Node2</title>
<path fill="none" stroke="#63b8ff" d="M334.64,-41C326.4,-41 318.07,-41 309.96,-41"/>
<polygon fill="#63b8ff" stroke="#63b8ff" points="334.39,-44.5 344.39,-41 334.39,-37.5 334.39,-44.5"/>
</g>
<!-- Node3 -->
<g id="node3" class="node">
<title>Node3</title>
<g id="a_node3"><a xlink:href="a01453.html#a026deea38d40b0980713e96869761ac5" target="_top" xlink:title=" ">
<polygon fill="white" stroke="#666666" points="136.75,-82 0,-82 0,-50 136.75,-50 136.75,-82"/>
<text text-anchor="start" x="8" y="-68.5" font-family="Helvetica,sans-Serif" font-size="10.00">HF::RayTracer::NanoRTRay</text>
<text text-anchor="middle" x="68.38" y="-56.5" font-family="Helvetica,sans-Serif" font-size="10.00">Tracer::Occluded</text>
</a>
</g>
</g>
<!-- Node2&#45;&gt;Node3 -->
<g id="edge2" class="edge">
<title>Node2&#45;&gt;Node3</title>
<path fill="none" stroke="#63b8ff" d="M161.89,-52.46C153.65,-53.66 145.32,-54.88 137.21,-56.07"/>
<polygon fill="#63b8ff" stroke="#63b8ff" points="162.25,-55.79 171.64,-50.88 161.24,-48.87 162.25,-55.79"/>
</g>
<!-- Node4 -->
<g id="node4" class="node">
<title>Node4</title>
<g id="a_node4"><a xlink:href="a01453.html#a2d5a5ae0fd9a0830b8eb14e5cd9ffd34" target="_top" xlink:title=" ">
<polygon fill="white" stroke="#666666" points="136.75,-32 0,-32 0,0 136.75,0 136.75,-32"/>
<text text-anchor="start" x="8" y="-18.5" font-family="Helvetica,sans-Serif" font-size="10.00">HF::RayTracer::NanoRTRay</text>
<text text-anchor="middle" x="68.38" y="-6.5" font-family="Helvetica,sans-Serif" font-size="10.00">Tracer::PointIntersection</text>
</a>
</g>
</g>
<!-- Node2&#45;&gt;Node4 -->
<g id="edge3" class="edge">
<title>Node2&#45;&gt;Node4</title>
<path fill="none" stroke="#63b8ff" d="M161.89,-29.54C153.65,-28.34 145.32,-27.12 137.21,-25.93"/>
<polygon fill="#63b8ff" stroke="#63b8ff" points="161.24,-33.13 171.64,-31.12 162.25,-26.21 161.24,-33.13"/>
</g>
</g>
</svg>
