<?xml version="1.0" encoding="UTF-8" standalone="no"?>
<!DOCTYPE svg PUBLIC "-//W3C//DTD SVG 1.1//EN"
 "http://www.w3.org/Graphics/SVG/1.1/DTD/svg11.dtd">
<!-- Generated by graphviz version 8.0.5 (20230430.1635)
 -->
<!-- Title: nanort::TriangleSAHPred&lt; T &gt; Pages: 1 -->
<svg width="226pt" height="108pt"
 viewBox="0.00 0.00 225.50 108.00" xmlns="http://www.w3.org/2000/svg" xmlns:xlink="http://www.w3.org/1999/xlink">
<g id="graph0" class="graph" transform="scale(1 1) rotate(0) translate(4 104)">
<title>nanort::TriangleSAHPred&lt; T &gt;</title>
<!-- Node1 -->
<g id="node1" class="node">
<title>Node1</title>
<g id="a_node1"><a xlink:title=" ">
<polygon fill="#999999" stroke="#666666" points="146.5,-20 0,-20 0,0 146.5,0 146.5,-20"/>
<text text-anchor="middle" x="73.25" y="-6.5" font-family="Helvetica,sans-Serif" font-size="10.00">nanort::TriangleSAHPred&lt; T &gt;</text>
</a>
</g>
</g>
<!-- Node2 -->
<g id="node2" class="node">
<title>Node2</title>
<g id="a_node2"><a xlink:title=" ">
<polygon fill="white" stroke="#666666" points="35.65,-100 6.85,-100 6.85,-80 35.65,-80 35.65,-100"/>
<text text-anchor="middle" x="21.25" y="-86.5" font-family="Helvetica,sans-Serif" font-size="10.00">int</text>
</a>
</g>
</g>
<!-- Node2&#45;&gt;Node1 -->
<g id="edge1" class="edge">
<title>Node2&#45;&gt;Node1</title>
<path fill="none" stroke="#9a32cd" stroke-dasharray="5,2" d="M26.25,-69.13C29.37,-59.18 34.09,-47.31 40.75,-38 45.62,-31.2 52.6,-25.1 58.84,-20.43"/>
<polygon fill="#9a32cd" stroke="#9a32cd" points="22.63,-68.08 23.29,-78.65 29.37,-69.97 22.63,-68.08"/>
<text text-anchor="middle" x="54.5" y="-52.5" font-family="Helvetica,sans-Serif" font-size="10.00"> axis_</text>
<text text-anchor="middle" x="54.5" y="-40.5" font-family="Helvetica,sans-Serif" font-size="10.00">faces_</text>
</g>
<!-- Node3 -->
<g id="node3" class="node">
<title>Node3</title>
<g id="a_node3"><a xlink:title=" ">
<polygon fill="white" stroke="#666666" points="90.25,-100 56.25,-100 56.25,-80 90.25,-80 90.25,-100"/>
<text text-anchor="middle" x="73.25" y="-86.5" font-family="Helvetica,sans-Serif" font-size="10.00">float</text>
</a>
</g>
</g>
<!-- Node3&#45;&gt;Node1 -->
<g id="edge2" class="edge">
<title>Node3&#45;&gt;Node1</title>
<path fill="none" stroke="#9a32cd" stroke-dasharray="5,2" d="M73.25,-69.05C73.25,-53.35 73.25,-32.2 73.25,-20.24"/>
<polygon fill="#9a32cd" stroke="#9a32cd" points="69.75,-68.75 73.25,-78.75 76.75,-68.75 69.75,-68.75"/>
<text text-anchor="middle" x="92.38" y="-52.5" font-family="Helvetica,sans-Serif" font-size="10.00"> pos_</text>
<text text-anchor="middle" x="92.38" y="-40.5" font-family="Helvetica,sans-Serif" font-size="10.00">vertices_</text>
</g>
<!-- Node4 -->
<g id="node4" class="node">
<title>Node4</title>
<g id="a_node4"><a xlink:title=" ">
<polygon fill="white" stroke="#666666" points="155.38,-100 113.13,-100 113.13,-80 155.38,-80 155.38,-100"/>
<text text-anchor="middle" x="134.25" y="-86.5" font-family="Helvetica,sans-Serif" font-size="10.00">size_t</text>
</a>
</g>
</g>
<!-- Node4&#45;&gt;Node1 -->
<g id="edge3" class="edge">
<title>Node4&#45;&gt;Node1</title>
<path fill="none" stroke="#9a32cd" stroke-dasharray="5,2" d="M128.61,-69.2C125.06,-59.12 119.71,-47.11 112.25,-38 106.51,-30.99 98.5,-25.02 91.24,-20.49"/>
<polygon fill="#9a32cd" stroke="#9a32cd" points="125.52,-70.03 131.88,-78.51 132.19,-67.92 125.52,-70.03"/>
<text text-anchor="middle" x="171.38" y="-46.5" font-family="Helvetica,sans-Serif" font-size="10.00"> vertex_stride_bytes_</text>
</g>
</g>
</svg>
