<?xml version="1.0" encoding="UTF-8" standalone="no"?>
<!DOCTYPE svg PUBLIC "-//W3C//DTD SVG 1.1//EN"
 "http://www.w3.org/Graphics/SVG/1.1/DTD/svg11.dtd">
<!-- Generated by graphviz version 5.0.0 (20220707.1540)
 -->
<!-- Title: nlohmann::detail::exception Pages: 1 -->
<svg width="204pt" height="152pt"
 viewBox="0.00 0.00 203.50 152.00" xmlns="http://www.w3.org/2000/svg" xmlns:xlink="http://www.w3.org/1999/xlink">
<g id="graph0" class="graph" transform="scale(1 1) rotate(0) translate(4 148)">
<title>nlohmann::detail::exception</title>
<polygon fill="white" stroke="transparent" points="-4,4 -4,-148 199.5,-148 199.5,4 -4,4"/>
<!-- Node1 -->
<g id="node1" class="node">
<title>Node1</title>
<g id="a_node1"><a xlink:title="general exception of the basic_json class">
<polygon fill="#bfbfbf" stroke="black" points="34,-0.5 34,-19.5 170,-19.5 170,-0.5 34,-0.5"/>
<text text-anchor="middle" x="102" y="-7.5" font-family="Helvetica,sans-Serif" font-size="10.00">nlohmann::detail::exception</text>
</a>
</g>
</g>
<!-- Node2 -->
<g id="node2" class="node">
<title>Node2</title>
<g id="a_node2"><a xlink:title=" ">
<polygon fill="white" stroke="black" points="0,-124.5 0,-143.5 78,-143.5 78,-124.5 0,-124.5"/>
<text text-anchor="middle" x="39" y="-131.5" font-family="Helvetica,sans-Serif" font-size="10.00">std::exception</text>
</a>
</g>
</g>
<!-- Node2&#45;&gt;Node1 -->
<g id="edge1" class="edge">
<title>Node2&#45;&gt;Node1</title>
<path fill="none" stroke="midnightblue" d="M37.73,-114.23C37.56,-100.51 38.94,-81.78 46,-67 55.72,-46.65 75.97,-29.39 89.27,-19.62"/>
<polygon fill="midnightblue" stroke="midnightblue" points="34.24,-114.54 38.15,-124.39 41.24,-114.25 34.24,-114.54"/>
</g>
<!-- Node4 -->
<g id="node4" class="node">
<title>Node4</title>
<g id="a_node4"><a xlink:title=" ">
<polygon fill="white" stroke="black" points="55.5,-67.5 55.5,-86.5 148.5,-86.5 148.5,-67.5 55.5,-67.5"/>
<text text-anchor="middle" x="102" y="-74.5" font-family="Helvetica,sans-Serif" font-size="10.00">std::runtime_error</text>
</a>
</g>
</g>
<!-- Node2&#45;&gt;Node4 -->
<g id="edge4" class="edge">
<title>Node2&#45;&gt;Node4</title>
<path fill="none" stroke="midnightblue" d="M56.52,-117.71C67.96,-107.72 82.5,-95.02 92.02,-86.71"/>
<polygon fill="midnightblue" stroke="midnightblue" points="54.08,-115.19 48.84,-124.41 58.68,-120.47 54.08,-115.19"/>
</g>
<!-- Node3 -->
<g id="node3" class="node">
<title>Node3</title>
<g id="a_node3"><a xlink:title=" ">
<polygon fill="white" stroke="black" points="166.5,-67.5 166.5,-86.5 195.5,-86.5 195.5,-67.5 166.5,-67.5"/>
<text text-anchor="middle" x="181" y="-74.5" font-family="Helvetica,sans-Serif" font-size="10.00">int</text>
</a>
</g>
</g>
<!-- Node3&#45;&gt;Node1 -->
<g id="edge2" class="edge">
<title>Node3&#45;&gt;Node1</title>
<path fill="none" stroke="#9a32cd" stroke-dasharray="5,2" d="M162.42,-60.71C146.86,-47.91 125.2,-30.09 112.49,-19.63"/>
<polygon fill="#9a32cd" stroke="#9a32cd" points="160.4,-63.58 170.35,-67.23 164.85,-58.18 160.4,-63.58"/>
<text text-anchor="middle" x="151.5" y="-41" font-family="Helvetica,sans-Serif" font-size="10.00"> id</text>
</g>
<!-- Node4&#45;&gt;Node1 -->
<g id="edge3" class="edge">
<title>Node4&#45;&gt;Node1</title>
<path fill="none" stroke="#9a32cd" stroke-dasharray="5,2" d="M102,-57.04C102,-44.67 102,-29.12 102,-19.63"/>
<polygon fill="#9a32cd" stroke="#9a32cd" points="98.5,-57.23 102,-67.23 105.5,-57.23 98.5,-57.23"/>
<text text-anchor="middle" x="108" y="-41" font-family="Helvetica,sans-Serif" font-size="10.00"> m</text>
</g>
</g>
</svg>
