<?xml version="1.0" encoding="UTF-8" standalone="no"?>
<!DOCTYPE svg PUBLIC "-//W3C//DTD SVG 1.1//EN"
 "http://www.w3.org/Graphics/SVG/1.1/DTD/svg11.dtd">
<!-- Generated by graphviz version 2.43.0 (0)
 -->
<!-- Title: HF::SpatialStructures::CSRPtrs Pages: 1 -->
<svg width="153pt" height="150pt"
 viewBox="0.00 0.00 152.50 150.00" xmlns="http://www.w3.org/2000/svg" xmlns:xlink="http://www.w3.org/1999/xlink">
<g id="graph0" class="graph" transform="scale(1 1) rotate(0) translate(4 146)">
<title>HF::SpatialStructures::CSRPtrs</title>
<polygon fill="white" stroke="transparent" points="-4,4 -4,-146 148.5,-146 148.5,4 -4,4"/>
<!-- Node1 -->
<g id="node1" class="node">
<title>Node1</title>
<g id="a_node1"><a xlink:title="A struct to hold all necessary information for a CSR.">
<polygon fill="#bfbfbf" stroke="black" points="0,-0.5 0,-30.5 119,-30.5 119,-0.5 0,-0.5"/>
<text text-anchor="start" x="8" y="-18.5" font-family="Helvetica,sans-Serif" font-size="10.00">HF::SpatialStructures</text>
<text text-anchor="middle" x="59.5" y="-7.5" font-family="Helvetica,sans-Serif" font-size="10.00">::CSRPtrs</text>
</a>
</g>
</g>
<!-- Node2 -->
<g id="node2" class="node">
<title>Node2</title>
<g id="a_node2"><a xlink:title=" ">
<polygon fill="white" stroke="#bfbfbf" points="14.5,-122.5 14.5,-141.5 52.5,-141.5 52.5,-122.5 14.5,-122.5"/>
<text text-anchor="middle" x="33.5" y="-129.5" font-family="Helvetica,sans-Serif" font-size="10.00">float</text>
</a>
</g>
</g>
<!-- Node2&#45;&gt;Node1 -->
<g id="edge1" class="edge">
<title>Node2&#45;&gt;Node1</title>
<path fill="none" stroke="#9a32cd" stroke-dasharray="5,2" d="M31.97,-111.84C31.24,-94.89 31.7,-69.7 38.5,-49 40.64,-42.49 44.41,-36.01 48.17,-30.57"/>
<polygon fill="#9a32cd" stroke="#9a32cd" points="28.49,-112.34 32.6,-122.11 35.48,-111.91 28.49,-112.34"/>
<text text-anchor="middle" x="51" y="-74" font-family="Helvetica,sans-Serif" font-size="10.00"> data</text>
</g>
<!-- Node3 -->
<g id="node3" class="node">
<title>Node3</title>
<g id="a_node3"><a xlink:title=" ">
<polygon fill="white" stroke="#bfbfbf" points="71,-122.5 71,-141.5 100,-141.5 100,-122.5 71,-122.5"/>
<text text-anchor="middle" x="85.5" y="-129.5" font-family="Helvetica,sans-Serif" font-size="10.00">int</text>
</a>
</g>
</g>
<!-- Node3&#45;&gt;Node1 -->
<g id="edge2" class="edge">
<title>Node3&#45;&gt;Node1</title>
<path fill="none" stroke="#9a32cd" stroke-dasharray="5,2" d="M81.32,-112.61C76.15,-89.83 67.45,-51.51 62.75,-30.81"/>
<polygon fill="#9a32cd" stroke="#9a32cd" points="77.92,-113.42 83.55,-122.39 84.74,-111.87 77.92,-113.42"/>
<text text-anchor="middle" x="111.5" y="-96" font-family="Helvetica,sans-Serif" font-size="10.00"> cols</text>
<text text-anchor="middle" x="111.5" y="-85" font-family="Helvetica,sans-Serif" font-size="10.00">nnz</text>
<text text-anchor="middle" x="111.5" y="-74" font-family="Helvetica,sans-Serif" font-size="10.00">outer_indices</text>
<text text-anchor="middle" x="111.5" y="-63" font-family="Helvetica,sans-Serif" font-size="10.00">rows</text>
<text text-anchor="middle" x="111.5" y="-52" font-family="Helvetica,sans-Serif" font-size="10.00">inner_indices</text>
</g>
</g>
</svg>
