<?xml version="1.0" encoding="UTF-8" standalone="no"?>
<!DOCTYPE svg PUBLIC "-//W3C//DTD SVG 1.1//EN"
 "http://www.w3.org/Graphics/SVG/1.1/DTD/svg11.dtd">
<!-- Generated by graphviz version 8.0.5 (20230430.1635)
 -->
<!-- Title: HF::SpatialStructures::EdgeCostSet::EdgeCostSet Pages: 1 -->
<svg width="487pt" height="40pt"
 viewBox="0.00 0.00 486.50 40.00" xmlns="http://www.w3.org/2000/svg" xmlns:xlink="http://www.w3.org/1999/xlink">
<g id="graph0" class="graph" transform="scale(1 1) rotate(0) translate(4 36)">
<title>HF::SpatialStructures::EdgeCostSet::EdgeCostSet</title>
<!-- Node1 -->
<g id="node1" class="node">
<title>Node1</title>
<g id="a_node1"><a xlink:title="Create an edge cost set and allocate a specific size.">
<polygon fill="#999999" stroke="#666666" points="143.5,-32 0,-32 0,0 143.5,0 143.5,-32"/>
<text text-anchor="start" x="8" y="-18.5" font-family="Helvetica,sans-Serif" font-size="10.00">HF::SpatialStructures</text>
<text text-anchor="middle" x="71.75" y="-6.5" font-family="Helvetica,sans-Serif" font-size="10.00">::EdgeCostSet::EdgeCostSet</text>
</a>
</g>
</g>
<!-- Node2 -->
<g id="node2" class="node">
<title>Node2</title>
<g id="a_node2"><a xlink:href="a01481.html#a22bf925d64a8ab8c0920d668068dc3db" target="_top" xlink:title="Resize this edge matrix if needed.">
<polygon fill="white" stroke="#666666" points="332.75,-32 179.5,-32 179.5,0 332.75,0 332.75,-32"/>
<text text-anchor="start" x="187.5" y="-18.5" font-family="Helvetica,sans-Serif" font-size="10.00">HF::SpatialStructures</text>
<text text-anchor="middle" x="256.13" y="-6.5" font-family="Helvetica,sans-Serif" font-size="10.00">::EdgeCostSet::ResizeIfNeeded</text>
</a>
</g>
</g>
<!-- Node1&#45;&gt;Node2 -->
<g id="edge1" class="edge">
<title>Node1&#45;&gt;Node2</title>
<path fill="none" stroke="#63b8ff" d="M143.78,-16C151.85,-16 160.14,-16 168.38,-16"/>
<polygon fill="#63b8ff" stroke="#63b8ff" points="168.16,-19.5 178.16,-16 168.16,-12.5 168.16,-19.5"/>
</g>
<!-- Node3 -->
<g id="node3" class="node">
<title>Node3</title>
<g id="a_node3"><a xlink:href="a01481.html#abc5ff8ee3175dca75cacbfbd592907db" target="_top" xlink:title="Get the size of this edge matrix.">
<polygon fill="white" stroke="#666666" points="478.5,-32 368.75,-32 368.75,0 478.5,0 478.5,-32"/>
<text text-anchor="start" x="376.75" y="-18.5" font-family="Helvetica,sans-Serif" font-size="10.00">HF::SpatialStructures</text>
<text text-anchor="middle" x="423.63" y="-6.5" font-family="Helvetica,sans-Serif" font-size="10.00">::EdgeCostSet::size</text>
</a>
</g>
</g>
<!-- Node2&#45;&gt;Node3 -->
<g id="edge2" class="edge">
<title>Node2&#45;&gt;Node3</title>
<path fill="none" stroke="#63b8ff" d="M333.09,-16C341.27,-16 349.54,-16 357.57,-16"/>
<polygon fill="#63b8ff" stroke="#63b8ff" points="357.36,-19.5 367.36,-16 357.36,-12.5 357.36,-19.5"/>
</g>
</g>
</svg>
