<?xml version="1.0" encoding="UTF-8" standalone="no"?>
<!DOCTYPE svg PUBLIC "-//W3C//DTD SVG 1.1//EN"
 "http://www.w3.org/Graphics/SVG/1.1/DTD/svg11.dtd">
<!-- Generated by graphviz version 2.43.0 (0)
 -->
<!-- Title: nanort::TriangleSAHPred&lt; T &gt; Pages: 1 -->
<svg width="257pt" height="106pt"
 viewBox="0.00 0.00 256.50 106.00" xmlns="http://www.w3.org/2000/svg" xmlns:xlink="http://www.w3.org/1999/xlink">
<g id="graph0" class="graph" transform="scale(1 1) rotate(0) translate(4 102)">
<title>nanort::TriangleSAHPred&lt; T &gt;</title>
<polygon fill="white" stroke="transparent" points="-4,4 -4,-102 252.5,-102 252.5,4 -4,4"/>
<!-- Node1 -->
<g id="node1" class="node">
<title>Node1</title>
<g id="a_node1"><a xlink:title=" ">
<polygon fill="#bfbfbf" stroke="black" points="69.5,-0.5 69.5,-19.5 233.5,-19.5 233.5,-0.5 69.5,-0.5"/>
<text text-anchor="middle" x="151.5" y="-7.5" font-family="Helvetica,sans-Serif" font-size="10.00">nanort::TriangleSAHPred&lt; T &gt;</text>
</a>
</g>
</g>
<!-- Node2 -->
<g id="node2" class="node">
<title>Node2</title>
<g id="a_node2"><a xlink:title=" ">
<polygon fill="white" stroke="#bfbfbf" points="0,-78.5 0,-97.5 45,-97.5 45,-78.5 0,-78.5"/>
<text text-anchor="middle" x="22.5" y="-85.5" font-family="Helvetica,sans-Serif" font-size="10.00">size_t</text>
</a>
</g>
</g>
<!-- Node2&#45;&gt;Node1 -->
<g id="edge1" class="edge">
<title>Node2&#45;&gt;Node1</title>
<path fill="none" stroke="#9a32cd" stroke-dasharray="5,2" d="M25.43,-68.23C27.99,-57.92 32.74,-45.69 41.5,-38 51.1,-29.56 62.92,-23.67 75.21,-19.57"/>
<polygon fill="#9a32cd" stroke="#9a32cd" points="21.93,-67.87 23.43,-78.36 28.8,-69.23 21.93,-67.87"/>
<text text-anchor="middle" x="94.5" y="-46.5" font-family="Helvetica,sans-Serif" font-size="10.00"> vertex_stride_bytes_</text>
</g>
<!-- Node3 -->
<g id="node3" class="node">
<title>Node3</title>
<g id="a_node3"><a xlink:title=" ">
<polygon fill="white" stroke="#bfbfbf" points="132.5,-78.5 132.5,-97.5 170.5,-97.5 170.5,-78.5 132.5,-78.5"/>
<text text-anchor="middle" x="151.5" y="-85.5" font-family="Helvetica,sans-Serif" font-size="10.00">float</text>
</a>
</g>
</g>
<!-- Node3&#45;&gt;Node1 -->
<g id="edge2" class="edge">
<title>Node3&#45;&gt;Node1</title>
<path fill="none" stroke="#9a32cd" stroke-dasharray="5,2" d="M151.5,-68.22C151.5,-52.7 151.5,-31.36 151.5,-19.62"/>
<polygon fill="#9a32cd" stroke="#9a32cd" points="148,-68.28 151.5,-78.28 155,-68.28 148,-68.28"/>
<text text-anchor="middle" x="175.5" y="-52" font-family="Helvetica,sans-Serif" font-size="10.00"> vertices_</text>
<text text-anchor="middle" x="175.5" y="-41" font-family="Helvetica,sans-Serif" font-size="10.00">pos_</text>
</g>
<!-- Node4 -->
<g id="node4" class="node">
<title>Node4</title>
<g id="a_node4"><a xlink:title=" ">
<polygon fill="white" stroke="#bfbfbf" points="208,-78.5 208,-97.5 237,-97.5 237,-78.5 208,-78.5"/>
<text text-anchor="middle" x="222.5" y="-85.5" font-family="Helvetica,sans-Serif" font-size="10.00">int</text>
</a>
</g>
</g>
<!-- Node4&#45;&gt;Node1 -->
<g id="edge3" class="edge">
<title>Node4&#45;&gt;Node1</title>
<path fill="none" stroke="#9a32cd" stroke-dasharray="5,2" d="M217.43,-68.68C213.94,-58.7 208.48,-46.66 200.5,-38 193.26,-30.14 183.19,-24.05 174.07,-19.66"/>
<polygon fill="#9a32cd" stroke="#9a32cd" points="214.15,-69.93 220.46,-78.44 220.84,-67.86 214.15,-69.93"/>
<text text-anchor="middle" x="231" y="-52" font-family="Helvetica,sans-Serif" font-size="10.00"> faces_</text>
<text text-anchor="middle" x="231" y="-41" font-family="Helvetica,sans-Serif" font-size="10.00">axis_</text>
</g>
</g>
</svg>
