<?xml version="1.0" encoding="UTF-8" standalone="no"?>
<!DOCTYPE svg PUBLIC "-//W3C//DTD SVG 1.1//EN"
 "http://www.w3.org/Graphics/SVG/1.1/DTD/svg11.dtd">
<!-- Generated by graphviz version 5.0.0 (20220707.1540)
 -->
<!-- Title: nanoRT_Data Pages: 1 -->
<svg width="784pt" height="693pt"
 viewBox="0.00 0.00 784.00 693.00" xmlns="http://www.w3.org/2000/svg" xmlns:xlink="http://www.w3.org/1999/xlink">
<g id="graph0" class="graph" transform="scale(1 1) rotate(0) translate(4 689)">
<title>nanoRT_Data</title>
<polygon fill="white" stroke="transparent" points="-4,4 -4,-689 780,-689 780,4 -4,4"/>
<!-- Node1 -->
<g id="node1" class="node">
<title>Node1</title>
<g id="a_node1"><a xlink:title=" ">
<polygon fill="#bfbfbf" stroke="black" points="701,-192.5 701,-211.5 776,-211.5 776,-192.5 701,-192.5"/>
<text text-anchor="middle" x="738.5" y="-199.5" font-family="Helvetica,sans-Serif" font-size="10.00">nanoRT_Data</text>
</a>
</g>
</g>
<!-- Node2 -->
<g id="node2" class="node">
<title>Node2</title>
<g id="a_node2"><a xlink:href="a01433.html" target="_top" xlink:title=" ">
<polygon fill="white" stroke="black" points="487,-490.5 487,-531.5 664,-531.5 664,-490.5 487,-490.5"/>
<text text-anchor="start" x="495" y="-519.5" font-family="Helvetica,sans-Serif" font-size="10.00">nanort::TriangleIntersector</text>
<text text-anchor="start" x="495" y="-508.5" font-family="Helvetica,sans-Serif" font-size="10.00">&lt; double, nanort::TriangleIntersection</text>
<text text-anchor="middle" x="575.5" y="-497.5" font-family="Helvetica,sans-Serif" font-size="10.00">&lt; double &gt; &gt;</text>
</a>
</g>
</g>
<!-- Node2&#45;&gt;Node1 -->
<g id="edge1" class="edge">
<title>Node2&#45;&gt;Node1</title>
<path fill="none" stroke="midnightblue" d="M592.14,-480.99C627.31,-413.49 711.24,-252.39 732.53,-211.54"/>
<polygon fill="midnightblue" stroke="midnightblue" points="588.83,-479.76 587.31,-490.25 595.04,-482.99 588.83,-479.76"/>
</g>
<!-- Node3 -->
<g id="node3" class="node">
<title>Node3</title>
<g id="a_node3"><a xlink:href="a00001.html#a02057" target="_top" xlink:title=" ">
<polygon fill="white" stroke="black" points="251.5,-665.5 251.5,-684.5 330.5,-684.5 330.5,-665.5 251.5,-665.5"/>
<text text-anchor="middle" x="291" y="-672.5" font-family="Helvetica,sans-Serif" font-size="10.00">const double *</text>
</a>
</g>
</g>
<!-- Node3&#45;&gt;Node2 -->
<g id="edge2" class="edge">
<title>Node3&#45;&gt;Node2</title>
<path fill="none" stroke="#9a32cd" stroke-dasharray="5,2" d="M340.73,-673.79C378.18,-670.9 429.93,-662.47 469,-639 513.18,-612.45 547.16,-560.45 563.6,-531.57"/>
<polygon fill="#9a32cd" stroke="#9a32cd" points="340.32,-670.31 330.57,-674.47 340.78,-677.3 340.32,-670.31"/>
<text text-anchor="middle" x="422.5" y="-672" font-family="Helvetica,sans-Serif" font-size="10.00"> vertices_</text>
</g>
<!-- Node4 -->
<g id="node4" class="node">
<title>Node4</title>
<g id="a_node4"><a xlink:href="a00001.html#a02061" target="_top" xlink:title=" ">
<polygon fill="white" stroke="black" points="239.5,-627.5 239.5,-646.5 342.5,-646.5 342.5,-627.5 239.5,-627.5"/>
<text text-anchor="middle" x="291" y="-634.5" font-family="Helvetica,sans-Serif" font-size="10.00">const unsigned int *</text>
</a>
</g>
</g>
<!-- Node4&#45;&gt;Node2 -->
<g id="edge3" class="edge">
<title>Node4&#45;&gt;Node2</title>
<path fill="none" stroke="#9a32cd" stroke-dasharray="5,2" d="M352.96,-629.31C388.17,-623.24 432.55,-612.73 469,-595 502.06,-578.92 534.25,-550.97 554.2,-531.76"/>
<polygon fill="#9a32cd" stroke="#9a32cd" points="352.12,-625.9 342.82,-630.98 353.26,-632.81 352.12,-625.9"/>
<text text-anchor="middle" x="422.5" y="-627" font-family="Helvetica,sans-Serif" font-size="10.00"> faces_</text>
</g>
<!-- Node5 -->
<g id="node5" class="node">
<title>Node5</title>
<g id="a_node5"><a xlink:href="a00001.html#a02065" target="_top" xlink:title=" ">
<polygon fill="white" stroke="black" points="256,-589.5 256,-608.5 326,-608.5 326,-589.5 256,-589.5"/>
<text text-anchor="middle" x="291" y="-596.5" font-family="Helvetica,sans-Serif" font-size="10.00">const size_t</text>
</a>
</g>
</g>
<!-- Node5&#45;&gt;Node2 -->
<g id="edge4" class="edge">
<title>Node5&#45;&gt;Node2</title>
<path fill="none" stroke="#9a32cd" stroke-dasharray="5,2" d="M336.24,-589.95C372.37,-582.1 424.54,-569.7 469,-555 489.16,-548.33 510.9,-539.55 529.37,-531.59"/>
<polygon fill="#9a32cd" stroke="#9a32cd" points="335.08,-586.62 326.04,-592.14 336.55,-593.47 335.08,-586.62"/>
<text text-anchor="middle" x="422.5" y="-583" font-family="Helvetica,sans-Serif" font-size="10.00"> vertex_stride_bytes_</text>
</g>
<!-- Node6 -->
<g id="node6" class="node">
<title>Node6</title>
<g id="a_node6"><a xlink:href="a01377.html" target="_top" xlink:title=" ">
<polygon fill="white" stroke="black" points="232.5,-463.5 232.5,-482.5 349.5,-482.5 349.5,-463.5 232.5,-463.5"/>
<text text-anchor="middle" x="291" y="-470.5" font-family="Helvetica,sans-Serif" font-size="10.00">nanort::real3&lt; double &gt;</text>
</a>
</g>
</g>
<!-- Node6&#45;&gt;Node2 -->
<g id="edge5" class="edge">
<title>Node6&#45;&gt;Node2</title>
<path fill="none" stroke="#9a32cd" stroke-dasharray="5,2" d="M359.8,-481.62C392.77,-485.86 432.97,-491.1 469,-496 474.77,-496.79 480.73,-497.61 486.72,-498.44"/>
<polygon fill="#9a32cd" stroke="#9a32cd" points="360.18,-478.14 349.82,-480.33 359.29,-485.08 360.18,-478.14"/>
<text text-anchor="middle" x="422.5" y="-499" font-family="Helvetica,sans-Serif" font-size="10.00"> ray_org_</text>
</g>
<!-- Node7 -->
<g id="node7" class="node">
<title>Node7</title>
<g id="a_node7"><a xlink:href="a00001.html#a02073" target="_top" xlink:title=" ">
<polygon fill="white" stroke="black" points="16,-209.5 16,-228.5 61,-228.5 61,-209.5 16,-209.5"/>
<text text-anchor="middle" x="38.5" y="-216.5" font-family="Helvetica,sans-Serif" font-size="10.00">double</text>
</a>
</g>
</g>
<!-- Node7&#45;&gt;Node1 -->
<g id="edge26" class="edge">
<title>Node7&#45;&gt;Node1</title>
<path fill="none" stroke="#9a32cd" stroke-dasharray="5,2" d="M50.2,-200.55C59.83,-185.95 75.45,-166.64 95,-158 140.12,-138.05 156.7,-156.31 206,-158 392.46,-164.37 614.68,-187.97 700.84,-197.73"/>
<polygon fill="#9a32cd" stroke="#9a32cd" points="47.07,-198.96 44.76,-209.3 53.01,-202.65 47.07,-198.96"/>
<text text-anchor="middle" x="422.5" y="-189" font-family="Helvetica,sans-Serif" font-size="10.00"> dist</text>
<text text-anchor="middle" x="422.5" y="-178" font-family="Helvetica,sans-Serif" font-size="10.00">point</text>
</g>
<!-- Node7&#45;&gt;Node2 -->
<g id="edge14" class="edge">
<title>Node7&#45;&gt;Node2</title>
<path fill="none" stroke="#9a32cd" stroke-dasharray="5,2" d="M41.68,-238.8C46.06,-268.22 58.87,-322.81 95,-349 142.5,-383.43 302.46,-353.09 358,-372 435.8,-398.49 513.61,-458.71 551.22,-490.49"/>
<polygon fill="#9a32cd" stroke="#9a32cd" points="45.1,-238.01 40.34,-228.54 38.16,-238.91 45.1,-238.01"/>
<text text-anchor="middle" x="291" y="-408" font-family="Helvetica,sans-Serif" font-size="10.00"> t_</text>
<text text-anchor="middle" x="291" y="-397" font-family="Helvetica,sans-Serif" font-size="10.00">t_min_</text>
<text text-anchor="middle" x="291" y="-386" font-family="Helvetica,sans-Serif" font-size="10.00">u_</text>
<text text-anchor="middle" x="291" y="-375" font-family="Helvetica,sans-Serif" font-size="10.00">v_</text>
</g>
<!-- Node7&#45;&gt;Node6 -->
<g id="edge6" class="edge">
<title>Node7&#45;&gt;Node6</title>
<path fill="none" stroke="#9a32cd" stroke-dasharray="5,2" d="M40.57,-239.17C43.48,-272.61 54.37,-339.29 95,-374 133.18,-406.61 168.61,-361.49 206,-395 226.41,-413.3 204.46,-434.77 224,-454 227.91,-457.85 232.54,-460.93 237.52,-463.39"/>
<polygon fill="#9a32cd" stroke="#9a32cd" points="44.03,-238.56 39.83,-228.83 37.05,-239.05 44.03,-238.56"/>
<text text-anchor="middle" x="150.5" y="-398" font-family="Helvetica,sans-Serif" font-size="10.00"> v</text>
</g>
<!-- Node15 -->
<g id="node15" class="node">
<title>Node15</title>
<g id="a_node15"><a xlink:href="a00404.html#a01273" target="_top" xlink:title=" ">
<polygon fill="white" stroke="black" points="234.5,-56.5 234.5,-75.5 347.5,-75.5 347.5,-56.5 234.5,-56.5"/>
<text text-anchor="middle" x="291" y="-63.5" font-family="Helvetica,sans-Serif" font-size="10.00">HF::nanoGeom::Mesh</text>
</a>
</g>
</g>
<!-- Node7&#45;&gt;Node15 -->
<g id="edge18" class="edge">
<title>Node7&#45;&gt;Node15</title>
<path fill="none" stroke="#9a32cd" stroke-dasharray="5,2" d="M39.43,-199.41C40.5,-163.84 48.5,-89.29 95,-56 146.82,-18.9 227.69,-41.69 267,-56.41"/>
<polygon fill="#9a32cd" stroke="#9a32cd" points="35.93,-199.43 39.29,-209.48 42.93,-199.53 35.93,-199.43"/>
<text text-anchor="middle" x="150.5" y="-114" font-family="Helvetica,sans-Serif" font-size="10.00"> facevarying_binormals</text>
<text text-anchor="middle" x="150.5" y="-103" font-family="Helvetica,sans-Serif" font-size="10.00">facevarying_normals</text>
<text text-anchor="middle" x="150.5" y="-92" font-family="Helvetica,sans-Serif" font-size="10.00">facevarying_tangents</text>
<text text-anchor="middle" x="150.5" y="-81" font-family="Helvetica,sans-Serif" font-size="10.00">facevarying_uvs</text>
<text text-anchor="middle" x="150.5" y="-70" font-family="Helvetica,sans-Serif" font-size="10.00">facevarying_vertex_colors</text>
<text text-anchor="middle" x="150.5" y="-59" font-family="Helvetica,sans-Serif" font-size="10.00">vertices</text>
</g>
<!-- Node17 -->
<g id="node17" class="node">
<title>Node17</title>
<g id="a_node17"><a xlink:href="a01381.html" target="_top" xlink:title=" ">
<polygon fill="white" stroke="black" points="234.5,-260.5 234.5,-279.5 347.5,-279.5 347.5,-260.5 234.5,-260.5"/>
<text text-anchor="middle" x="291" y="-267.5" font-family="Helvetica,sans-Serif" font-size="10.00">nanort::Ray&lt; double &gt;</text>
</a>
</g>
</g>
<!-- Node7&#45;&gt;Node17 -->
<g id="edge21" class="edge">
<title>Node7&#45;&gt;Node17</title>
<path fill="none" stroke="#9a32cd" stroke-dasharray="5,2" d="M63.26,-233.88C72.79,-239.18 84.08,-244.66 95,-248 140.61,-261.96 194.65,-267.23 234.26,-269.14"/>
<polygon fill="#9a32cd" stroke="#9a32cd" points="64.8,-230.73 54.39,-228.72 61.28,-236.78 64.8,-230.73"/>
<text text-anchor="middle" x="150.5" y="-304" font-family="Helvetica,sans-Serif" font-size="10.00"> dir</text>
<text text-anchor="middle" x="150.5" y="-293" font-family="Helvetica,sans-Serif" font-size="10.00">max_t</text>
<text text-anchor="middle" x="150.5" y="-282" font-family="Helvetica,sans-Serif" font-size="10.00">min_t</text>
<text text-anchor="middle" x="150.5" y="-271" font-family="Helvetica,sans-Serif" font-size="10.00">org</text>
</g>
<!-- Node18 -->
<g id="node18" class="node">
<title>Node18</title>
<g id="a_node18"><a xlink:href="a00408.html#a00408" target="_top" xlink:title=" ">
<polygon fill="white" stroke="black" points="224,-187 224,-217 358,-217 358,-187 224,-187"/>
<text text-anchor="start" x="232" y="-205" font-family="Helvetica,sans-Serif" font-size="10.00">nanort::TriangleIntersection</text>
<text text-anchor="middle" x="291" y="-194" font-family="Helvetica,sans-Serif" font-size="10.00">&lt; double &gt;</text>
</a>
</g>
</g>
<!-- Node7&#45;&gt;Node18 -->
<g id="edge24" class="edge">
<title>Node7&#45;&gt;Node18</title>
<path fill="none" stroke="#9a32cd" stroke-dasharray="5,2" d="M53.34,-201.47C63.49,-190.11 78.36,-176.29 95,-170 149.87,-149.24 218.44,-170.49 257.93,-186.89"/>
<polygon fill="#9a32cd" stroke="#9a32cd" points="50.62,-199.27 46.83,-209.16 55.96,-203.79 50.62,-199.27"/>
<text text-anchor="middle" x="150.5" y="-195" font-family="Helvetica,sans-Serif" font-size="10.00"> t</text>
<text text-anchor="middle" x="150.5" y="-184" font-family="Helvetica,sans-Serif" font-size="10.00">u</text>
<text text-anchor="middle" x="150.5" y="-173" font-family="Helvetica,sans-Serif" font-size="10.00">v</text>
</g>
<!-- Node8 -->
<g id="node8" class="node">
<title>Node8</title>
<g id="a_node8"><a xlink:href="a01433.html#a01437" target="_top" xlink:title=" ">
<polygon fill="white" stroke="black" points="226.5,-540 226.5,-570 355.5,-570 355.5,-540 226.5,-540"/>
<text text-anchor="start" x="234.5" y="-558" font-family="Helvetica,sans-Serif" font-size="10.00">nanort::TriangleIntersector</text>
<text text-anchor="middle" x="291" y="-547" font-family="Helvetica,sans-Serif" font-size="10.00">&lt; T, H &gt;::RayCoeff</text>
</a>
</g>
</g>
<!-- Node8&#45;&gt;Node2 -->
<g id="edge7" class="edge">
<title>Node8&#45;&gt;Node2</title>
<path fill="none" stroke="#9a32cd" stroke-dasharray="5,2" d="M365.97,-543.48C403.02,-537.71 448.12,-530.68 486.89,-524.65"/>
<polygon fill="#9a32cd" stroke="#9a32cd" points="365.09,-540.07 355.75,-545.07 366.17,-546.99 365.09,-540.07"/>
<text text-anchor="middle" x="422.5" y="-543" font-family="Helvetica,sans-Serif" font-size="10.00"> ray_coeff_</text>
</g>
<!-- Node9 -->
<g id="node9" class="node">
<title>Node9</title>
<g id="a_node9"><a xlink:title=" ">
<polygon fill="white" stroke="black" points="24,-627.5 24,-646.5 53,-646.5 53,-627.5 24,-627.5"/>
<text text-anchor="middle" x="38.5" y="-634.5" font-family="Helvetica,sans-Serif" font-size="10.00">T</text>
</a>
</g>
</g>
<!-- Node9&#45;&gt;Node8 -->
<g id="edge8" class="edge">
<title>Node9&#45;&gt;Node8</title>
<path fill="none" stroke="#9a32cd" stroke-dasharray="5,2" d="M63.16,-640.06C97.8,-643.25 162.85,-644.19 206,-614 220.01,-604.2 211.18,-591.31 224,-580 228.32,-576.19 233.28,-572.94 238.49,-570.16"/>
<polygon fill="#9a32cd" stroke="#9a32cd" points="63.37,-636.56 53.05,-638.98 62.62,-643.52 63.37,-636.56"/>
<text text-anchor="middle" x="150.5" y="-666" font-family="Helvetica,sans-Serif" font-size="10.00"> Sx</text>
<text text-anchor="middle" x="150.5" y="-655" font-family="Helvetica,sans-Serif" font-size="10.00">Sy</text>
<text text-anchor="middle" x="150.5" y="-644" font-family="Helvetica,sans-Serif" font-size="10.00">Sz</text>
</g>
<!-- Node10 -->
<g id="node10" class="node">
<title>Node10</title>
<g id="a_node10"><a xlink:title=" ">
<polygon fill="white" stroke="black" points="24,-420.5 24,-439.5 53,-439.5 53,-420.5 24,-420.5"/>
<text text-anchor="middle" x="38.5" y="-427.5" font-family="Helvetica,sans-Serif" font-size="10.00">int</text>
</a>
</g>
</g>
<!-- Node10&#45;&gt;Node8 -->
<g id="edge9" class="edge">
<title>Node10&#45;&gt;Node8</title>
<path fill="none" stroke="#9a32cd" stroke-dasharray="5,2" d="M51.12,-448.25C58.61,-460.09 68.5,-475.89 77,-490 85.22,-503.65 81.92,-511.91 95,-521 136.11,-549.55 156.7,-531.38 206,-540 212.57,-541.15 219.42,-542.36 226.26,-543.57"/>
<polygon fill="#9a32cd" stroke="#9a32cd" points="54.02,-446.28 45.7,-439.71 48.1,-450.03 54.02,-446.28"/>
<text text-anchor="middle" x="150.5" y="-565" font-family="Helvetica,sans-Serif" font-size="10.00"> kx</text>
<text text-anchor="middle" x="150.5" y="-554" font-family="Helvetica,sans-Serif" font-size="10.00">ky</text>
<text text-anchor="middle" x="150.5" y="-543" font-family="Helvetica,sans-Serif" font-size="10.00">kz</text>
</g>
<!-- Node11 -->
<g id="node11" class="node">
<title>Node11</title>
<g id="a_node11"><a xlink:href="a01401.html" target="_top" xlink:title="BVH trace option.">
<polygon fill="white" stroke="black" points="227,-501.5 227,-520.5 355,-520.5 355,-501.5 227,-501.5"/>
<text text-anchor="middle" x="291" y="-508.5" font-family="Helvetica,sans-Serif" font-size="10.00">nanort::BVHTraceOptions</text>
</a>
</g>
</g>
<!-- Node10&#45;&gt;Node11 -->
<g id="edge11" class="edge">
<title>Node10&#45;&gt;Node11</title>
<path fill="none" stroke="#9a32cd" stroke-dasharray="5,2" d="M63.07,-436.25C95.71,-445.19 156.26,-462.79 206,-483 214.29,-486.37 215.67,-488.75 224,-492 233,-495.51 242.91,-498.7 252.25,-501.42"/>
<polygon fill="#9a32cd" stroke="#9a32cd" points="63.7,-432.8 53.13,-433.56 61.87,-439.55 63.7,-432.8"/>
<text text-anchor="middle" x="150.5" y="-497" font-family="Helvetica,sans-Serif" font-size="10.00"> prim_ids_range</text>
<text text-anchor="middle" x="150.5" y="-486" font-family="Helvetica,sans-Serif" font-size="10.00">skip_prim_id</text>
</g>
<!-- Node10&#45;&gt;Node15 -->
<g id="edge19" class="edge">
<title>Node10&#45;&gt;Node15</title>
<path fill="none" stroke="#9a32cd" stroke-dasharray="5,2" d="M42.03,-410.4C48.46,-363.66 66.95,-247.6 95,-222 131.97,-188.26 164.55,-231.06 206,-203 212.18,-198.82 266.73,-105.89 284.46,-75.51"/>
<polygon fill="#9a32cd" stroke="#9a32cd" points="38.54,-410.09 40.68,-420.46 45.48,-411.01 38.54,-410.09"/>
<text text-anchor="middle" x="150.5" y="-236" font-family="Helvetica,sans-Serif" font-size="10.00"> faces</text>
<text text-anchor="middle" x="150.5" y="-225" font-family="Helvetica,sans-Serif" font-size="10.00">material_ids</text>
</g>
<!-- Node10&#45;&gt;Node17 -->
<g id="edge22" class="edge">
<title>Node10&#45;&gt;Node17</title>
<path fill="none" stroke="#9a32cd" stroke-dasharray="5,2" d="M63.39,-430C104.27,-429.51 185.26,-426.18 206,-408 229.18,-387.67 209.06,-367.97 224,-341 238.1,-315.53 263.29,-292.06 278.13,-279.52"/>
<polygon fill="#9a32cd" stroke="#9a32cd" points="63.2,-426.5 53.23,-430.08 63.25,-433.5 63.2,-426.5"/>
<text text-anchor="middle" x="150.5" y="-432" font-family="Helvetica,sans-Serif" font-size="10.00"> type</text>
</g>
<!-- Node10&#45;&gt;Node18 -->
<g id="edge25" class="edge">
<title>Node10&#45;&gt;Node18</title>
<path fill="none" stroke="#9a32cd" stroke-dasharray="5,2" d="M51.32,-411.35C61.44,-396.62 77.16,-376.38 95,-363 138,-330.75 170.62,-355.46 206,-315 225.45,-292.75 207.24,-275.33 224,-251 233.63,-237.01 248.57,-225.44 261.8,-217.06"/>
<polygon fill="#9a32cd" stroke="#9a32cd" points="48.12,-409.84 45.52,-420.1 53.96,-413.7 48.12,-409.84"/>
<text text-anchor="middle" x="150.5" y="-366" font-family="Helvetica,sans-Serif" font-size="10.00"> prim_id</text>
</g>
<!-- Node11&#45;&gt;Node2 -->
<g id="edge10" class="edge">
<title>Node11&#45;&gt;Node2</title>
<path fill="none" stroke="#9a32cd" stroke-dasharray="5,2" d="M365.29,-511C402.41,-511 447.77,-511 486.74,-511"/>
<polygon fill="#9a32cd" stroke="#9a32cd" points="365.05,-507.5 355.05,-511 365.05,-514.5 365.05,-507.5"/>
<text text-anchor="middle" x="422.5" y="-514" font-family="Helvetica,sans-Serif" font-size="10.00"> trace_options_</text>
</g>
<!-- Node12 -->
<g id="node12" class="node">
<title>Node12</title>
<g id="a_node12"><a xlink:title=" ">
<polygon fill="white" stroke="black" points="21,-589.5 21,-608.5 56,-608.5 56,-589.5 21,-589.5"/>
<text text-anchor="middle" x="38.5" y="-596.5" font-family="Helvetica,sans-Serif" font-size="10.00">bool</text>
</a>
</g>
</g>
<!-- Node12&#45;&gt;Node11 -->
<g id="edge12" class="edge">
<title>Node12&#45;&gt;Node11</title>
<path fill="none" stroke="#9a32cd" stroke-dasharray="5,2" d="M66.25,-598.69C107.68,-597.69 184.83,-593.59 206,-577 223.28,-563.46 207.88,-545.9 224,-531 228.75,-526.61 234.43,-523.19 240.44,-520.51"/>
<polygon fill="#9a32cd" stroke="#9a32cd" points="65.99,-595.2 56.06,-598.89 66.13,-602.2 65.99,-595.2"/>
<text text-anchor="middle" x="150.5" y="-600" font-family="Helvetica,sans-Serif" font-size="10.00"> cull_back_face</text>
</g>
<!-- Node13 -->
<g id="node13" class="node">
<title>Node13</title>
<g id="a_node13"><a xlink:title=" ">
<polygon fill="white" stroke="black" points="0,-499.5 0,-518.5 77,-518.5 77,-499.5 0,-499.5"/>
<text text-anchor="middle" x="38.5" y="-506.5" font-family="Helvetica,sans-Serif" font-size="10.00">unsigned char</text>
</a>
</g>
</g>
<!-- Node13&#45;&gt;Node11 -->
<g id="edge13" class="edge">
<title>Node13&#45;&gt;Node11</title>
<path fill="none" stroke="#9a32cd" stroke-dasharray="5,2" d="M87.55,-509.21C120.81,-509.38 166.09,-509.64 206,-510 212.71,-510.06 219.72,-510.13 226.7,-510.21"/>
<polygon fill="#9a32cd" stroke="#9a32cd" points="87.21,-505.71 77.19,-509.16 87.18,-512.71 87.21,-505.71"/>
<text text-anchor="middle" x="150.5" y="-513" font-family="Helvetica,sans-Serif" font-size="10.00"> pad</text>
</g>
<!-- Node14 -->
<g id="node14" class="node">
<title>Node14</title>
<g id="a_node14"><a xlink:href="a00001.html#a02077" target="_top" xlink:title=" ">
<polygon fill="white" stroke="black" points="256.5,-425.5 256.5,-444.5 325.5,-444.5 325.5,-425.5 256.5,-425.5"/>
<text text-anchor="middle" x="291" y="-432.5" font-family="Helvetica,sans-Serif" font-size="10.00">unsigned int</text>
</a>
</g>
</g>
<!-- Node14&#45;&gt;Node2 -->
<g id="edge15" class="edge">
<title>Node14&#45;&gt;Node2</title>
<path fill="none" stroke="#9a32cd" stroke-dasharray="5,2" d="M335.97,-440.67C372.14,-445.93 424.51,-454.93 469,-468 489.4,-473.99 511.27,-482.53 529.78,-490.43"/>
<polygon fill="#9a32cd" stroke="#9a32cd" points="336.14,-437.16 325.75,-439.22 335.16,-444.09 336.14,-437.16"/>
<text text-anchor="middle" x="422.5" y="-471" font-family="Helvetica,sans-Serif" font-size="10.00"> prim_id_</text>
</g>
<!-- Node15&#45;&gt;Node1 -->
<g id="edge16" class="edge">
<title>Node15&#45;&gt;Node1</title>
<path fill="none" stroke="#9a32cd" stroke-dasharray="5,2" d="M358.07,-66.04C433.84,-67.89 560.88,-76.53 664,-111 702.33,-123.81 725.48,-171.69 733.89,-192.38"/>
<polygon fill="#9a32cd" stroke="#9a32cd" points="357.8,-62.54 347.73,-65.82 357.65,-69.53 357.8,-62.54"/>
<text text-anchor="middle" x="575.5" y="-114" font-family="Helvetica,sans-Serif" font-size="10.00"> mesh</text>
</g>
<!-- Node16 -->
<g id="node16" class="node">
<title>Node16</title>
<g id="a_node16"><a xlink:title=" ">
<polygon fill="white" stroke="black" points="17,-0.5 17,-19.5 60,-19.5 60,-0.5 17,-0.5"/>
<text text-anchor="middle" x="38.5" y="-7.5" font-family="Helvetica,sans-Serif" font-size="10.00">size_t</text>
</a>
</g>
</g>
<!-- Node16&#45;&gt;Node15 -->
<g id="edge17" class="edge">
<title>Node16&#45;&gt;Node15</title>
<path fill="none" stroke="#9a32cd" stroke-dasharray="5,2" d="M70.27,-5.08C104.28,-0.8 160.3,2.78 206,-11 235.71,-19.96 264.71,-43.05 279.63,-56.29"/>
<polygon fill="#9a32cd" stroke="#9a32cd" points="69.48,-1.66 60.04,-6.47 70.42,-8.59 69.48,-1.66"/>
<text text-anchor="middle" x="150.5" y="-25" font-family="Helvetica,sans-Serif" font-size="10.00"> num_faces</text>
<text text-anchor="middle" x="150.5" y="-14" font-family="Helvetica,sans-Serif" font-size="10.00">num_vertices</text>
</g>
<!-- Node17&#45;&gt;Node1 -->
<g id="edge20" class="edge">
<title>Node17&#45;&gt;Node1</title>
<path fill="none" stroke="#9a32cd" stroke-dasharray="5,2" d="M357.86,-263.23C435.88,-254.67 569.59,-238.32 683,-216 689.42,-214.74 696.22,-213.17 702.75,-211.56"/>
<polygon fill="#9a32cd" stroke="#9a32cd" points="357.26,-259.77 347.69,-264.33 358.01,-266.73 357.26,-259.77"/>
<text text-anchor="middle" x="575.5" y="-251" font-family="Helvetica,sans-Serif" font-size="10.00"> ray</text>
</g>
<!-- Node18&#45;&gt;Node1 -->
<g id="edge23" class="edge">
<title>Node18&#45;&gt;Node1</title>
<path fill="none" stroke="#9a32cd" stroke-dasharray="5,2" d="M368.25,-202C465.15,-202 628.53,-202 700.99,-202"/>
<polygon fill="#9a32cd" stroke="#9a32cd" points="368.21,-198.5 358.21,-202 368.21,-205.5 368.21,-198.5"/>
<text text-anchor="middle" x="575.5" y="-205" font-family="Helvetica,sans-Serif" font-size="10.00"> hit</text>
</g>
</g>
</svg>
