<?xml version="1.0" encoding="UTF-8" standalone="no"?>
<!DOCTYPE svg PUBLIC "-//W3C//DTD SVG 1.1//EN"
 "http://www.w3.org/Graphics/SVG/1.1/DTD/svg11.dtd">
<!-- Generated by graphviz version 7.0.1 (20221109.1506)
 -->
<!-- Title: nanort::BVHAccel&lt; T &gt; Pages: 1 -->
<svg width="793pt" height="479pt"
 viewBox="0.00 0.00 793.00 478.50" xmlns="http://www.w3.org/2000/svg" xmlns:xlink="http://www.w3.org/1999/xlink">
<g id="graph0" class="graph" transform="scale(1 1) rotate(0) translate(4 474.5)">
<title>nanort::BVHAccel&lt; T &gt;</title>
<!-- Node1 -->
<g id="node1" class="node">
<title>Node1</title>
<g id="a_node1"><a xlink:title="Bounding Volume Hierarchy acceleration.">
<polygon fill="#999999" stroke="#666666" points="785,-328 667,-328 667,-309 785,-309 785,-328"/>
<text text-anchor="middle" x="726" y="-316" font-family="Helvetica,sans-Serif" font-size="10.00">nanort::BVHAccel&lt; T &gt;</text>
</a>
</g>
</g>
<!-- Node2 -->
<g id="node2" class="node">
<title>Node2</title>
<g id="a_node2"><a xlink:title=" ">
<polygon fill="white" stroke="#666666" points="591,-354.5 493,-354.5 493,-324.5 591,-324.5 591,-354.5"/>
<text text-anchor="start" x="501" y="-342.5" font-family="Helvetica,sans-Serif" font-size="10.00">std::vector&lt; nanort</text>
<text text-anchor="middle" x="542" y="-331.5" font-family="Helvetica,sans-Serif" font-size="10.00">::BVHNode&lt; T &gt; &gt;</text>
</a>
</g>
</g>
<!-- Node2&#45;&gt;Node1 -->
<g id="edge1" class="edge">
<title>Node2&#45;&gt;Node1</title>
<path fill="none" stroke="#9a32cd" stroke-dasharray="5,2" d="M602.47,-332.64C623.11,-330.26 646.21,-327.59 666.75,-325.22"/>
<polygon fill="#9a32cd" stroke="#9a32cd" points="602.33,-329.13 592.8,-333.75 603.13,-336.08 602.33,-329.13"/>
<text text-anchor="middle" x="629" y="-333.5" font-family="Helvetica,sans-Serif" font-size="10.00"> nodes_</text>
</g>
<!-- Node3 -->
<g id="node3" class="node">
<title>Node3</title>
<g id="a_node3"><a xlink:href="a01385.html" target="_top" xlink:title=" ">
<polygon fill="white" stroke="#666666" points="330.5,-348 214.5,-348 214.5,-329 330.5,-329 330.5,-348"/>
<text text-anchor="middle" x="272.5" y="-336" font-family="Helvetica,sans-Serif" font-size="10.00">nanort::BVHNode&lt; T &gt;</text>
</a>
</g>
</g>
<!-- Node3&#45;&gt;Node2 -->
<g id="edge2" class="edge">
<title>Node3&#45;&gt;Node2</title>
<path fill="none" stroke="#9a32cd" stroke-dasharray="5,2" d="M342.23,-338.76C389.33,-338.93 450.66,-339.16 492.66,-339.32"/>
<polygon fill="#9a32cd" stroke="#9a32cd" points="342.41,-335.26 332.4,-338.72 342.39,-342.26 342.41,-335.26"/>
<text text-anchor="middle" x="420" y="-341.5" font-family="Helvetica,sans-Serif" font-size="10.00"> elements</text>
</g>
<!-- Node4 -->
<g id="node4" class="node">
<title>Node4</title>
<g id="a_node4"><a xlink:title=" ">
<polygon fill="white" stroke="#666666" points="53,-204 24,-204 24,-185 53,-185 53,-204"/>
<text text-anchor="middle" x="38.5" y="-192" font-family="Helvetica,sans-Serif" font-size="10.00">T</text>
</a>
</g>
</g>
<!-- Node4&#45;&gt;Node3 -->
<g id="edge3" class="edge">
<title>Node4&#45;&gt;Node3</title>
<path fill="none" stroke="#9a32cd" stroke-dasharray="5,2" d="M63.65,-203.83C73.36,-207.54 84.69,-211.79 95,-215.5 132.56,-229.01 152.67,-215.41 180,-244.5 200.82,-266.66 177.58,-287.98 198,-310.5 205.43,-318.69 215.52,-324.51 225.83,-328.62"/>
<polygon fill="#9a32cd" stroke="#9a32cd" points="65.14,-200.66 54.55,-200.35 62.63,-207.19 65.14,-200.66"/>
<text text-anchor="middle" x="137.5" y="-258.5" font-family="Helvetica,sans-Serif" font-size="10.00"> bmax</text>
<text text-anchor="middle" x="137.5" y="-247.5" font-family="Helvetica,sans-Serif" font-size="10.00">bmin</text>
</g>
<!-- Node9 -->
<g id="node9" class="node">
<title>Node9</title>
<g id="a_node9"><a xlink:href="a01393.html" target="_top" xlink:title=" ">
<polygon fill="white" stroke="#666666" points="347,-90 198,-90 198,-71 347,-71 347,-90"/>
<text text-anchor="middle" x="272.5" y="-78" font-family="Helvetica,sans-Serif" font-size="10.00">nanort::BVHBuildOptions&lt; T &gt;</text>
</a>
</g>
</g>
<!-- Node4&#45;&gt;Node9 -->
<g id="edge10" class="edge">
<title>Node4&#45;&gt;Node9</title>
<path fill="none" stroke="#9a32cd" stroke-dasharray="5,2" d="M52.47,-175.38C60.23,-163.4 69.93,-147.45 77,-132.5 87.27,-110.77 75.42,-95.44 95,-81.5 137.44,-51.29 201.35,-60.76 239.5,-70.54"/>
<polygon fill="#9a32cd" stroke="#9a32cd" points="49.7,-173.22 47.09,-183.49 55.53,-177.09 49.7,-173.22"/>
<text text-anchor="middle" x="137.5" y="-84.5" font-family="Helvetica,sans-Serif" font-size="10.00"> cost_t_aabb</text>
</g>
<!-- Node5 -->
<g id="node5" class="node">
<title>Node5</title>
<g id="a_node5"><a xlink:title=" ">
<polygon fill="white" stroke="#666666" points="53,-348 24,-348 24,-329 53,-329 53,-348"/>
<text text-anchor="middle" x="38.5" y="-336" font-family="Helvetica,sans-Serif" font-size="10.00">int</text>
</a>
</g>
</g>
<!-- Node5&#45;&gt;Node1 -->
<g id="edge17" class="edge">
<title>Node5&#45;&gt;Node1</title>
<path fill="none" stroke="#9a32cd" stroke-dasharray="5,2" d="M49.84,-358.39C59.27,-374.25 74.8,-395.4 95,-405.5 292.19,-504.12 380.89,-464.31 591,-397.5 639.9,-381.95 690.03,-345.97 712.62,-328.44"/>
<polygon fill="#9a32cd" stroke="#9a32cd" points="52.97,-356.82 45.04,-349.79 46.85,-360.23 52.97,-356.82"/>
<text text-anchor="middle" x="420" y="-462.5" font-family="Helvetica,sans-Serif" font-size="10.00"> pad0_</text>
</g>
<!-- Node5&#45;&gt;Node3 -->
<g id="edge4" class="edge">
<title>Node5&#45;&gt;Node3</title>
<path fill="none" stroke="#9a32cd" stroke-dasharray="5,2" d="M64.54,-338.5C100.08,-338.5 166.16,-338.5 214.12,-338.5"/>
<polygon fill="#9a32cd" stroke="#9a32cd" points="64.83,-335 54.83,-338.5 64.83,-342 64.83,-335"/>
<text text-anchor="middle" x="137.5" y="-363.5" font-family="Helvetica,sans-Serif" font-size="10.00"> axis</text>
<text text-anchor="middle" x="137.5" y="-352.5" font-family="Helvetica,sans-Serif" font-size="10.00">data</text>
<text text-anchor="middle" x="137.5" y="-341.5" font-family="Helvetica,sans-Serif" font-size="10.00">flag</text>
</g>
<!-- Node6 -->
<g id="node6" class="node">
<title>Node6</title>
<g id="a_node6"><a xlink:title=" ">
<polygon fill="white" stroke="#666666" points="475,-409.5 365,-409.5 365,-379.5 475,-379.5 475,-409.5"/>
<text text-anchor="start" x="373" y="-397.5" font-family="Helvetica,sans-Serif" font-size="10.00">std::vector&lt; unsigned</text>
<text text-anchor="middle" x="420" y="-386.5" font-family="Helvetica,sans-Serif" font-size="10.00"> int &gt;</text>
</a>
</g>
</g>
<!-- Node5&#45;&gt;Node6 -->
<g id="edge6" class="edge">
<title>Node5&#45;&gt;Node6</title>
<path fill="none" stroke="#9a32cd" stroke-dasharray="5,2" d="M60.77,-354.88C70.64,-361.56 82.86,-368.63 95,-372.5 186.31,-401.62 299.23,-401.77 364.79,-398.58"/>
<polygon fill="#9a32cd" stroke="#9a32cd" points="62.83,-352.05 52.67,-349.07 58.76,-357.74 62.83,-352.05"/>
<text text-anchor="middle" x="137.5" y="-393.5" font-family="Helvetica,sans-Serif" font-size="10.00"> elements</text>
</g>
<!-- Node5&#45;&gt;Node9 -->
<g id="edge11" class="edge">
<title>Node5&#45;&gt;Node9</title>
<path fill="none" stroke="#9a32cd" stroke-dasharray="5,2" d="M45.86,-317.76C53.46,-292.83 66.47,-249.7 77,-212.5 85.4,-182.83 72.74,-166.83 95,-145.5 122.95,-118.72 143.54,-139.51 180,-126.5 207.29,-116.76 236.93,-100.77 254.85,-90.44"/>
<polygon fill="#9a32cd" stroke="#9a32cd" points="42.53,-316.69 42.95,-327.28 49.22,-318.74 42.53,-316.69"/>
<text text-anchor="middle" x="137.5" y="-203.5" font-family="Helvetica,sans-Serif" font-size="10.00"> bin_size</text>
<text text-anchor="middle" x="137.5" y="-192.5" font-family="Helvetica,sans-Serif" font-size="10.00">max_tree_depth</text>
<text text-anchor="middle" x="137.5" y="-181.5" font-family="Helvetica,sans-Serif" font-size="10.00">min_leaf_primitives</text>
<text text-anchor="start" x="96.5" y="-170.5" font-family="Helvetica,sans-Serif" font-size="10.00">min_primitives_for</text>
<text text-anchor="middle" x="137.5" y="-159.5" font-family="Helvetica,sans-Serif" font-size="10.00">_parallel_build</text>
<text text-anchor="middle" x="137.5" y="-148.5" font-family="Helvetica,sans-Serif" font-size="10.00">shallow_depth</text>
</g>
<!-- Node12 -->
<g id="node12" class="node">
<title>Node12</title>
<g id="a_node12"><a xlink:href="a01397.html" target="_top" xlink:title="BVH build statistics.">
<polygon fill="white" stroke="#666666" points="339,-257 206,-257 206,-238 339,-238 339,-257"/>
<text text-anchor="middle" x="272.5" y="-245" font-family="Helvetica,sans-Serif" font-size="10.00">nanort::BVHBuildStatistics</text>
</a>
</g>
</g>
<!-- Node5&#45;&gt;Node12 -->
<g id="edge15" class="edge">
<title>Node5&#45;&gt;Node12</title>
<path fill="none" stroke="#9a32cd" stroke-dasharray="5,2" d="M61.17,-321.91C71.08,-314.9 83.23,-307.08 95,-301.5 137.71,-281.26 189.8,-266.42 226.28,-257.47"/>
<polygon fill="#9a32cd" stroke="#9a32cd" points="59.32,-318.93 53.31,-327.65 63.45,-324.58 59.32,-318.93"/>
<text text-anchor="middle" x="137.5" y="-326.5" font-family="Helvetica,sans-Serif" font-size="10.00"> max_tree_depth</text>
<text text-anchor="middle" x="137.5" y="-315.5" font-family="Helvetica,sans-Serif" font-size="10.00">num_branch_nodes</text>
<text text-anchor="middle" x="137.5" y="-304.5" font-family="Helvetica,sans-Serif" font-size="10.00">num_leaf_nodes</text>
</g>
<!-- Node6&#45;&gt;Node1 -->
<g id="edge5" class="edge">
<title>Node6&#45;&gt;Node1</title>
<path fill="none" stroke="#9a32cd" stroke-dasharray="5,2" d="M486.68,-384.42C518.4,-379.07 556.88,-371.87 591,-363.5 617.21,-357.07 623.39,-354.02 649,-345.5 665.34,-340.06 683.53,-333.62 698.01,-328.39"/>
<polygon fill="#9a32cd" stroke="#9a32cd" points="486.11,-380.97 476.82,-386.06 487.26,-387.87 486.11,-380.97"/>
<text text-anchor="middle" x="542" y="-385.5" font-family="Helvetica,sans-Serif" font-size="10.00"> indices_</text>
</g>
<!-- Node7 -->
<g id="node7" class="node">
<title>Node7</title>
<g id="a_node7"><a xlink:title=" ">
<polygon fill="white" stroke="#666666" points="591,-306.5 493,-306.5 493,-276.5 591,-276.5 591,-306.5"/>
<text text-anchor="start" x="501" y="-294.5" font-family="Helvetica,sans-Serif" font-size="10.00">std::vector&lt; nanort</text>
<text text-anchor="middle" x="542" y="-283.5" font-family="Helvetica,sans-Serif" font-size="10.00">::BBox&lt; T &gt; &gt;</text>
</a>
</g>
</g>
<!-- Node7&#45;&gt;Node1 -->
<g id="edge7" class="edge">
<title>Node7&#45;&gt;Node1</title>
<path fill="none" stroke="#9a32cd" stroke-dasharray="5,2" d="M602.47,-300.32C623.11,-303.38 646.21,-306.81 666.75,-309.86"/>
<polygon fill="#9a32cd" stroke="#9a32cd" points="603.2,-296.89 592.79,-298.89 602.17,-303.82 603.2,-296.89"/>
<text text-anchor="middle" x="629" y="-309.5" font-family="Helvetica,sans-Serif" font-size="10.00"> bboxes_</text>
</g>
<!-- Node8 -->
<g id="node8" class="node">
<title>Node8</title>
<g id="a_node8"><a xlink:title=" ">
<polygon fill="white" stroke="#666666" points="304.5,-301 240.5,-301 240.5,-282 304.5,-282 304.5,-301"/>
<text text-anchor="middle" x="272.5" y="-289" font-family="Helvetica,sans-Serif" font-size="10.00">BBox&lt; T &gt;</text>
</a>
</g>
</g>
<!-- Node8&#45;&gt;Node7 -->
<g id="edge8" class="edge">
<title>Node8&#45;&gt;Node7</title>
<path fill="none" stroke="#9a32cd" stroke-dasharray="5,2" d="M316.25,-291.5C364.46,-291.5 442.67,-291.5 492.95,-291.5"/>
<polygon fill="#9a32cd" stroke="#9a32cd" points="316.49,-288 306.49,-291.5 316.49,-295 316.49,-288"/>
<text text-anchor="middle" x="420" y="-294.5" font-family="Helvetica,sans-Serif" font-size="10.00"> elements</text>
</g>
<!-- Node9&#45;&gt;Node1 -->
<g id="edge9" class="edge">
<title>Node9&#45;&gt;Node1</title>
<path fill="none" stroke="#9a32cd" stroke-dasharray="5,2" d="M311.24,-94.39C381,-120.92 533.54,-182.93 649,-258.5 673.47,-274.52 699.79,-296.48 714.14,-308.91"/>
<polygon fill="#9a32cd" stroke="#9a32cd" points="312.78,-91.23 302.19,-90.98 310.31,-97.78 312.78,-91.23"/>
<text text-anchor="middle" x="542" y="-226.5" font-family="Helvetica,sans-Serif" font-size="10.00"> options_</text>
</g>
<!-- Node10 -->
<g id="node10" class="node">
<title>Node10</title>
<g id="a_node10"><a xlink:title=" ">
<polygon fill="white" stroke="#666666" points="56,-56 21,-56 21,-37 56,-37 56,-56"/>
<text text-anchor="middle" x="38.5" y="-44" font-family="Helvetica,sans-Serif" font-size="10.00">bool</text>
</a>
</g>
</g>
<!-- Node10&#45;&gt;Node9 -->
<g id="edge12" class="edge">
<title>Node10&#45;&gt;Node9</title>
<path fill="none" stroke="#9a32cd" stroke-dasharray="5,2" d="M67.21,-43.96C95.73,-41.98 141.34,-40.6 180,-47.5 204.94,-51.95 232.06,-62.52 250.25,-70.5"/>
<polygon fill="#9a32cd" stroke="#9a32cd" points="67.31,-40.44 57.61,-44.7 67.85,-47.42 67.31,-40.44"/>
<text text-anchor="middle" x="137.5" y="-50.5" font-family="Helvetica,sans-Serif" font-size="10.00"> cache_bbox</text>
</g>
<!-- Node11 -->
<g id="node11" class="node">
<title>Node11</title>
<g id="a_node11"><a xlink:title=" ">
<polygon fill="white" stroke="#666666" points="77,-19 0,-19 0,0 77,0 77,-19"/>
<text text-anchor="middle" x="38.5" y="-7" font-family="Helvetica,sans-Serif" font-size="10.00">unsigned char</text>
</a>
</g>
</g>
<!-- Node11&#45;&gt;Node9 -->
<g id="edge13" class="edge">
<title>Node11&#45;&gt;Node9</title>
<path fill="none" stroke="#9a32cd" stroke-dasharray="5,2" d="M88.69,-11.03C116.15,-13.05 150.65,-17.57 180,-27.5 210.08,-37.68 241.29,-58.3 258.37,-70.61"/>
<polygon fill="#9a32cd" stroke="#9a32cd" points="89.1,-7.55 78.9,-10.4 88.65,-14.53 89.1,-7.55"/>
<text text-anchor="middle" x="137.5" y="-30.5" font-family="Helvetica,sans-Serif" font-size="10.00"> pad</text>
</g>
<!-- Node12&#45;&gt;Node1 -->
<g id="edge14" class="edge">
<title>Node12&#45;&gt;Node1</title>
<path fill="none" stroke="#9a32cd" stroke-dasharray="5,2" d="M350.62,-241.1C415.62,-237.74 510.61,-237.61 591,-256.5 636.42,-267.17 684.98,-294.01 709.27,-308.63"/>
<polygon fill="#9a32cd" stroke="#9a32cd" points="350.55,-237.6 340.76,-241.65 350.94,-244.59 350.55,-237.6"/>
<text text-anchor="middle" x="542" y="-259.5" font-family="Helvetica,sans-Serif" font-size="10.00"> stats_</text>
</g>
<!-- Node13 -->
<g id="node13" class="node">
<title>Node13</title>
<g id="a_node13"><a xlink:title=" ">
<polygon fill="white" stroke="#666666" points="56,-124 21,-124 21,-105 56,-105 56,-124"/>
<text text-anchor="middle" x="38.5" y="-112" font-family="Helvetica,sans-Serif" font-size="10.00">float</text>
</a>
</g>
</g>
<!-- Node13&#45;&gt;Node12 -->
<g id="edge16" class="edge">
<title>Node13&#45;&gt;Node12</title>
<path fill="none" stroke="#9a32cd" stroke-dasharray="5,2" d="M67.47,-107.5C97.22,-101.63 144.74,-96.88 180,-115.5 231.04,-142.45 259.36,-212.12 268.34,-237.81"/>
<polygon fill="#9a32cd" stroke="#9a32cd" points="66.78,-104.07 57.75,-109.61 68.26,-110.91 66.78,-104.07"/>
<text text-anchor="middle" x="137.5" y="-118.5" font-family="Helvetica,sans-Serif" font-size="10.00"> build_secs</text>
</g>
</g>
</svg>
