<?xml version="1.0" encoding="UTF-8" standalone="no"?>
<!DOCTYPE svg PUBLIC "-//W3C//DTD SVG 1.1//EN"
 "http://www.w3.org/Graphics/SVG/1.1/DTD/svg11.dtd">
<!-- Generated by graphviz version 2.43.0 (0)
 -->
<!-- Title: HF::RayTracer::double3::double3 Pages: 1 -->
<svg width="324pt" height="225pt"
 viewBox="0.00 0.00 324.00 224.50" xmlns="http://www.w3.org/2000/svg" xmlns:xlink="http://www.w3.org/1999/xlink">
<g id="graph0" class="graph" transform="scale(1 1) rotate(0) translate(4 220.5)">
<title>HF::RayTracer::double3::double3</title>
<polygon fill="white" stroke="transparent" points="-4,4 -4,-220.5 320,-220.5 320,4 -4,4"/>
<!-- Node1 -->
<g id="node1" class="node">
<title>Node1</title>
<g id="a_node1"><a xlink:title=" ">
<polygon fill="#bfbfbf" stroke="black" points="188,-98.5 188,-128.5 316,-128.5 316,-98.5 188,-98.5"/>
<text text-anchor="start" x="196" y="-116.5" font-family="Helvetica,sans-Serif" font-size="10.00">HF::RayTracer::double3</text>
<text text-anchor="middle" x="252" y="-105.5" font-family="Helvetica,sans-Serif" font-size="10.00">::double3</text>
</a>
</g>
</g>
<!-- Node2 -->
<g id="node2" class="node">
<title>Node2</title>
<g id="a_node2"><a xlink:href="a01457.html#aa9469a197d7b23d54811dd45fb7fc719" target="_top" xlink:title=" ">
<polygon fill="white" stroke="black" points="0,-197 0,-216 152,-216 152,-197 0,-197"/>
<text text-anchor="middle" x="76" y="-204" font-family="Helvetica,sans-Serif" font-size="10.00">HF::RayTracer::double3::neg</text>
</a>
</g>
</g>
<!-- Node1&#45;&gt;Node2 -->
<g id="edge1" class="edge">
<title>Node1&#45;&gt;Node2</title>
<path fill="none" stroke="midnightblue" d="M227.58,-135.23C208.55,-151.8 180.3,-174 152,-187.5 144,-191.32 135.14,-194.43 126.39,-196.94"/>
<polygon fill="midnightblue" stroke="midnightblue" points="229.99,-137.78 235.15,-128.52 225.35,-132.54 229.99,-137.78"/>
</g>
<!-- Node3 -->
<g id="node3" class="node">
<title>Node3</title>
<g id="a_node3"><a xlink:href="a01457.html#abe98e17394908fa0b6db4f3cd6bbb52f" target="_top" xlink:title=" ">
<polygon fill="white" stroke="black" points="12,-147.5 12,-177.5 140,-177.5 140,-147.5 12,-147.5"/>
<text text-anchor="start" x="20" y="-165.5" font-family="Helvetica,sans-Serif" font-size="10.00">HF::RayTracer::double3</text>
<text text-anchor="middle" x="76" y="-154.5" font-family="Helvetica,sans-Serif" font-size="10.00">::operator*</text>
</a>
</g>
</g>
<!-- Node1&#45;&gt;Node3 -->
<g id="edge2" class="edge">
<title>Node1&#45;&gt;Node3</title>
<path fill="none" stroke="midnightblue" d="M187.72,-131.32C168.93,-136.61 148.55,-142.35 130.45,-147.45"/>
<polygon fill="midnightblue" stroke="midnightblue" points="188.7,-134.68 197.37,-128.6 186.8,-127.94 188.7,-134.68"/>
</g>
<!-- Node4 -->
<g id="node4" class="node">
<title>Node4</title>
<g id="a_node4"><a xlink:href="a01457.html#a946b0c048bdc441f58fdea464be2b1df" target="_top" xlink:title=" ">
<polygon fill="white" stroke="black" points="12,-98.5 12,-128.5 140,-128.5 140,-98.5 12,-98.5"/>
<text text-anchor="start" x="20" y="-116.5" font-family="Helvetica,sans-Serif" font-size="10.00">HF::RayTracer::double3</text>
<text text-anchor="middle" x="76" y="-105.5" font-family="Helvetica,sans-Serif" font-size="10.00">::operator+</text>
</a>
</g>
</g>
<!-- Node1&#45;&gt;Node4 -->
<g id="edge3" class="edge">
<title>Node1&#45;&gt;Node4</title>
<path fill="none" stroke="midnightblue" d="M177.42,-113.5C165.06,-113.5 152.33,-113.5 140.26,-113.5"/>
<polygon fill="midnightblue" stroke="midnightblue" points="177.69,-117 187.69,-113.5 177.69,-110 177.69,-117"/>
</g>
<!-- Node5 -->
<g id="node5" class="node">
<title>Node5</title>
<g id="a_node5"><a xlink:href="a01457.html#a59ea40cffd2d7698a0abdc5b467eb587" target="_top" xlink:title=" ">
<polygon fill="white" stroke="black" points="12,-49.5 12,-79.5 140,-79.5 140,-49.5 12,-49.5"/>
<text text-anchor="start" x="20" y="-67.5" font-family="Helvetica,sans-Serif" font-size="10.00">HF::RayTracer::double3</text>
<text text-anchor="middle" x="76" y="-56.5" font-family="Helvetica,sans-Serif" font-size="10.00">::operator&#45;</text>
</a>
</g>
</g>
<!-- Node1&#45;&gt;Node5 -->
<g id="edge4" class="edge">
<title>Node1&#45;&gt;Node5</title>
<path fill="none" stroke="midnightblue" d="M187.72,-95.68C168.93,-90.39 148.55,-84.65 130.45,-79.55"/>
<polygon fill="midnightblue" stroke="midnightblue" points="186.8,-99.06 197.37,-98.4 188.7,-92.32 186.8,-99.06"/>
</g>
<!-- Node6 -->
<g id="node6" class="node">
<title>Node6</title>
<g id="a_node6"><a xlink:href="a01457.html#aabbfb9b8c3511d380b2036bcd019cac7" target="_top" xlink:title=" ">
<polygon fill="white" stroke="black" points="12,-0.5 12,-30.5 140,-30.5 140,-0.5 12,-0.5"/>
<text text-anchor="start" x="20" y="-18.5" font-family="Helvetica,sans-Serif" font-size="10.00">HF::RayTracer::double3</text>
<text text-anchor="middle" x="76" y="-7.5" font-family="Helvetica,sans-Serif" font-size="10.00">::operator/</text>
</a>
</g>
</g>
<!-- Node1&#45;&gt;Node6 -->
<g id="edge5" class="edge">
<title>Node1&#45;&gt;Node6</title>
<path fill="none" stroke="midnightblue" d="M226.21,-91.77C207.01,-75.84 179.2,-54.61 152,-40.5 144.81,-36.77 136.95,-33.43 129.12,-30.5"/>
<polygon fill="midnightblue" stroke="midnightblue" points="223.98,-94.47 233.88,-98.24 228.49,-89.12 223.98,-94.47"/>
</g>
</g>
</svg>
