<?xml version="1.0" encoding="UTF-8" standalone="no"?>
<!DOCTYPE svg PUBLIC "-//W3C//DTD SVG 1.1//EN"
 "http://www.w3.org/Graphics/SVG/1.1/DTD/svg11.dtd">
<!-- Generated by graphviz version 5.0.0 (20220707.1540)
 -->
<!-- Title: HF::SpatialStructures::Graph::size Pages: 1 -->
<svg width="465pt" height="225pt"
 viewBox="0.00 0.00 465.00 225.00" xmlns="http://www.w3.org/2000/svg" xmlns:xlink="http://www.w3.org/1999/xlink">
<g id="graph0" class="graph" transform="scale(1 1) rotate(0) translate(4 221)">
<title>HF::SpatialStructures::Graph::size</title>
<polygon fill="white" stroke="transparent" points="-4,4 -4,-221 461,-221 461,4 -4,4"/>
<!-- Node1 -->
<g id="node1" class="node">
<title>Node1</title>
<g id="a_node1"><a xlink:title="Determine how many nodes are in the graph.">
<polygon fill="#bfbfbf" stroke="black" points="347,-88.5 347,-118.5 457,-118.5 457,-88.5 347,-88.5"/>
<text text-anchor="start" x="355" y="-106.5" font-family="Helvetica,sans-Serif" font-size="10.00">HF::SpatialStructures</text>
<text text-anchor="middle" x="402" y="-95.5" font-family="Helvetica,sans-Serif" font-size="10.00">::Graph::size</text>
</a>
</g>
</g>
<!-- Node2 -->
<g id="node2" class="node">
<title>Node2</title>
<g id="a_node2"><a xlink:href="a01317.html#ac7878a25105aec59a116942a717d71b4" target="_top" xlink:title="Create a boost graph from a HF::SpatialStructures::Graph.">
<polygon fill="white" stroke="black" points="170,-186.5 170,-216.5 311,-216.5 311,-186.5 170,-186.5"/>
<text text-anchor="start" x="178" y="-204.5" font-family="Helvetica,sans-Serif" font-size="10.00">HF::Pathfinding::BoostGraph</text>
<text text-anchor="middle" x="240.5" y="-193.5" font-family="Helvetica,sans-Serif" font-size="10.00">::BoostGraph</text>
</a>
</g>
</g>
<!-- Node1&#45;&gt;Node2 -->
<g id="edge1" class="edge">
<title>Node1&#45;&gt;Node2</title>
<path fill="none" stroke="midnightblue" d="M378.66,-125.74C361.4,-141.91 336.26,-163.36 311,-177.5 305.1,-180.8 298.66,-183.77 292.16,-186.39"/>
<polygon fill="midnightblue" stroke="midnightblue" points="381.19,-128.16 386.01,-118.72 376.36,-123.1 381.19,-128.16"/>
</g>
<!-- Node3 -->
<g id="node3" class="node">
<title>Node3</title>
<g id="a_node3"><a xlink:href="a00401.html#a12eb1e4c06400c4625cd22d925927b03" target="_top" xlink:title="Generate a Visibility Graph between every node in a set of nodes in parallel.">
<polygon fill="white" stroke="black" points="191.5,-137.5 191.5,-167.5 289.5,-167.5 289.5,-137.5 191.5,-137.5"/>
<text text-anchor="start" x="199.5" y="-155.5" font-family="Helvetica,sans-Serif" font-size="10.00">HF::VisibilityGraph</text>
<text text-anchor="middle" x="240.5" y="-144.5" font-family="Helvetica,sans-Serif" font-size="10.00">::AllToAll</text>
</a>
</g>
</g>
<!-- Node1&#45;&gt;Node3 -->
<g id="edge2" class="edge">
<title>Node1&#45;&gt;Node3</title>
<path fill="none" stroke="midnightblue" d="M341.9,-121.66C324.7,-126.94 306.12,-132.65 289.67,-137.7"/>
<polygon fill="midnightblue" stroke="midnightblue" points="343.31,-124.88 351.84,-118.6 341.26,-118.19 343.31,-124.88"/>
</g>
<!-- Node5 -->
<g id="node5" class="node">
<title>Node5</title>
<g id="a_node5"><a xlink:href="a00401.html#ab1db87927118f70786a664c3b3cc7905" target="_top" xlink:title="Generate a Visibility Graph with every edge stored twice.">
<polygon fill="white" stroke="black" points="189.5,-88.5 189.5,-118.5 291.5,-118.5 291.5,-88.5 189.5,-88.5"/>
<text text-anchor="start" x="197.5" y="-106.5" font-family="Helvetica,sans-Serif" font-size="10.00">HF::VisibilityGraph</text>
<text text-anchor="middle" x="240.5" y="-95.5" font-family="Helvetica,sans-Serif" font-size="10.00">::AllToAllUndirected</text>
</a>
</g>
</g>
<!-- Node1&#45;&gt;Node5 -->
<g id="edge4" class="edge">
<title>Node1&#45;&gt;Node5</title>
<path fill="none" stroke="midnightblue" d="M336.38,-103.5C321.49,-103.5 305.85,-103.5 291.68,-103.5"/>
<polygon fill="midnightblue" stroke="midnightblue" points="336.56,-107 346.56,-103.5 336.56,-100 336.56,-107"/>
</g>
<!-- Node7 -->
<g id="node7" class="node">
<title>Node7</title>
<g id="a_node7"><a xlink:href="a00392.html#ga5bbc8687b0d04c0f177fbb8385302a56" target="_top" xlink:title="Get the number of nodes in a graph.">
<polygon fill="white" stroke="black" points="196.5,-50 196.5,-69 284.5,-69 284.5,-50 196.5,-50"/>
<text text-anchor="middle" x="240.5" y="-57" font-family="Helvetica,sans-Serif" font-size="10.00">GetSizeOfGraph</text>
</a>
</g>
</g>
<!-- Node1&#45;&gt;Node7 -->
<g id="edge6" class="edge">
<title>Node1&#45;&gt;Node7</title>
<path fill="none" stroke="midnightblue" d="M336.85,-85.8C316.14,-80.09 293.97,-73.97 276.22,-69.08"/>
<polygon fill="midnightblue" stroke="midnightblue" points="335.98,-89.2 346.56,-88.48 337.85,-82.45 335.98,-89.2"/>
</g>
<!-- Node8 -->
<g id="node8" class="node">
<title>Node8</title>
<g id="a_node8"><a xlink:href="a00401.html#ae42a5aafdfcc29b6a668355c07602efb" target="_top" xlink:title="Generate a Visibility Graph from a set of nodes to another set of nodes.">
<polygon fill="white" stroke="black" points="191.5,-0.5 191.5,-30.5 289.5,-30.5 289.5,-0.5 191.5,-0.5"/>
<text text-anchor="start" x="199.5" y="-18.5" font-family="Helvetica,sans-Serif" font-size="10.00">HF::VisibilityGraph</text>
<text text-anchor="middle" x="240.5" y="-7.5" font-family="Helvetica,sans-Serif" font-size="10.00">::GroupToGroup</text>
</a>
</g>
</g>
<!-- Node1&#45;&gt;Node8 -->
<g id="edge7" class="edge">
<title>Node1&#45;&gt;Node8</title>
<path fill="none" stroke="midnightblue" d="M374.65,-82.24C357.31,-68.98 333.7,-52.26 311,-40.5 303.94,-36.84 296.22,-33.49 288.58,-30.51"/>
<polygon fill="midnightblue" stroke="midnightblue" points="372.58,-85.07 382.62,-88.44 376.87,-79.54 372.58,-85.07"/>
</g>
<!-- Node4 -->
<g id="node4" class="node">
<title>Node4</title>
<g id="a_node4"><a xlink:href="a00394.html#ga0255e6c4811298e61110adc64c0f8acd" target="_top" xlink:title="Create a new directed visibility graph between all nodes in parameter nodes.">
<polygon fill="white" stroke="black" points="7.5,-137.5 7.5,-167.5 126.5,-167.5 126.5,-137.5 7.5,-137.5"/>
<text text-anchor="start" x="15.5" y="-155.5" font-family="Helvetica,sans-Serif" font-size="10.00">CreateVisibilityGraphAll</text>
<text text-anchor="middle" x="67" y="-144.5" font-family="Helvetica,sans-Serif" font-size="10.00">ToAll</text>
</a>
</g>
</g>
<!-- Node3&#45;&gt;Node4 -->
<g id="edge3" class="edge">
<title>Node3&#45;&gt;Node4</title>
<path fill="none" stroke="midnightblue" d="M181.12,-152.5C163.5,-152.5 144.16,-152.5 126.53,-152.5"/>
<polygon fill="midnightblue" stroke="midnightblue" points="181.27,-156 191.27,-152.5 181.27,-149 181.27,-156"/>
</g>
<!-- Node6 -->
<g id="node6" class="node">
<title>Node6</title>
<g id="a_node6"><a xlink:href="a00394.html#ga9b0664a60bcdf276b0fe0a2023b3d9b8" target="_top" xlink:title="Create a new undirected visibility graph between all nodes in nodes.">
<polygon fill="white" stroke="black" points="7.5,-88.5 7.5,-118.5 126.5,-118.5 126.5,-88.5 7.5,-88.5"/>
<text text-anchor="start" x="15.5" y="-106.5" font-family="Helvetica,sans-Serif" font-size="10.00">CreateVisibilityGraphAll</text>
<text text-anchor="middle" x="67" y="-95.5" font-family="Helvetica,sans-Serif" font-size="10.00">ToAllUndirected</text>
</a>
</g>
</g>
<!-- Node5&#45;&gt;Node6 -->
<g id="edge5" class="edge">
<title>Node5&#45;&gt;Node6</title>
<path fill="none" stroke="midnightblue" d="M179.05,-103.5C162.02,-103.5 143.52,-103.5 126.6,-103.5"/>
<polygon fill="midnightblue" stroke="midnightblue" points="179.43,-107 189.43,-103.5 179.43,-100 179.43,-107"/>
</g>
<!-- Node9 -->
<g id="node9" class="node">
<title>Node9</title>
<g id="a_node9"><a xlink:href="a00394.html#gaf2e404cb696aee3473cac0d1507576d8" target="_top" xlink:title="Create a new visibility graph from the nodes in group_a, into the nodes of group_b.">
<polygon fill="white" stroke="black" points="0,-0.5 0,-30.5 134,-30.5 134,-0.5 0,-0.5"/>
<text text-anchor="start" x="8" y="-18.5" font-family="Helvetica,sans-Serif" font-size="10.00">CreateVisibilityGraphGroup</text>
<text text-anchor="middle" x="67" y="-7.5" font-family="Helvetica,sans-Serif" font-size="10.00">ToGroup</text>
</a>
</g>
</g>
<!-- Node8&#45;&gt;Node9 -->
<g id="edge8" class="edge">
<title>Node8&#45;&gt;Node9</title>
<path fill="none" stroke="midnightblue" d="M181.04,-15.5C165.93,-15.5 149.57,-15.5 134.1,-15.5"/>
<polygon fill="midnightblue" stroke="midnightblue" points="181.27,-19 191.27,-15.5 181.27,-12 181.27,-19"/>
</g>
</g>
</svg>
