<?xml version="1.0" encoding="UTF-8" standalone="no"?>
<!DOCTYPE svg PUBLIC "-//W3C//DTD SVG 1.1//EN"
 "http://www.w3.org/Graphics/SVG/1.1/DTD/svg11.dtd">
<!-- Generated by graphviz version 8.0.5 (20230430.1635)
 -->
<!-- Title: nanort::StackContainer&lt; TContainerType, stack_capacity &gt; Pages: 1 -->
<svg width="678pt" height="176pt"
 viewBox="0.00 0.00 678.00 176.00" xmlns="http://www.w3.org/2000/svg" xmlns:xlink="http://www.w3.org/1999/xlink">
<g id="graph0" class="graph" transform="scale(1 1) rotate(0) translate(4 172)">
<title>nanort::StackContainer&lt; TContainerType, stack_capacity &gt;</title>
<!-- Node1 -->
<g id="node1" class="node">
<title>Node1</title>
<g id="a_node1"><a xlink:title=" ">
<polygon fill="#999999" stroke="#666666" points="670,-93 547.5,-93 547.5,-49 670,-49 670,-93"/>
<text text-anchor="start" x="555.5" y="-79.5" font-family="Helvetica,sans-Serif" font-size="10.00">nanort::StackContainer</text>
<text text-anchor="start" x="555.5" y="-67.5" font-family="Helvetica,sans-Serif" font-size="10.00">&lt; TContainerType, stack</text>
<text text-anchor="middle" x="608.75" y="-55.5" font-family="Helvetica,sans-Serif" font-size="10.00">_capacity &gt;</text>
</a>
</g>
</g>
<!-- Node2 -->
<g id="node2" class="node">
<title>Node2</title>
<g id="a_node2"><a xlink:href="a01427.html" target="_top" xlink:title=" ">
<polygon fill="white" stroke="#666666" points="270.5,-123 157.75,-123 157.75,-79 270.5,-79 270.5,-123"/>
<text text-anchor="start" x="165.75" y="-109.5" font-family="Helvetica,sans-Serif" font-size="10.00">nanort::StackAllocator</text>
<text text-anchor="start" x="165.75" y="-97.5" font-family="Helvetica,sans-Serif" font-size="10.00">&lt; T, stack_capacity &gt;</text>
<text text-anchor="middle" x="214.13" y="-85.5" font-family="Helvetica,sans-Serif" font-size="10.00">::Source</text>
</a>
</g>
</g>
<!-- Node2&#45;&gt;Node1 -->
<g id="edge1" class="edge">
<title>Node2&#45;&gt;Node1</title>
<path fill="none" stroke="#9a32cd" stroke-dasharray="5,2" d="M281.6,-95.92C355.97,-90.24 475.43,-81.11 547.27,-75.62"/>
<polygon fill="#9a32cd" stroke="#9a32cd" points="281.67,-92.48 271.96,-96.73 282.2,-99.46 281.67,-92.48"/>
<text text-anchor="middle" x="403.75" y="-92.5" font-family="Helvetica,sans-Serif" font-size="10.00"> stack_data_</text>
</g>
<!-- Node5 -->
<g id="node5" class="node">
<title>Node5</title>
<g id="a_node5"><a xlink:href="a01423.html" target="_top" xlink:title=" ">
<polygon fill="white" stroke="#666666" points="463.5,-168 344,-168 344,-124 463.5,-124 463.5,-168"/>
<text text-anchor="start" x="352" y="-154.5" font-family="Helvetica,sans-Serif" font-size="10.00">nanort::StackAllocator</text>
<text text-anchor="start" x="352" y="-142.5" font-family="Helvetica,sans-Serif" font-size="10.00">&lt; ContainedType, stack</text>
<text text-anchor="middle" x="403.75" y="-130.5" font-family="Helvetica,sans-Serif" font-size="10.00">_capacity &gt;</text>
</a>
</g>
</g>
<!-- Node2&#45;&gt;Node5 -->
<g id="edge8" class="edge">
<title>Node2&#45;&gt;Node5</title>
<path fill="none" stroke="#9a32cd" stroke-dasharray="5,2" d="M281.61,-116.94C301.82,-121.79 323.89,-127.09 343.59,-131.81"/>
<polygon fill="#9a32cd" stroke="#9a32cd" points="282.45,-113.31 271.91,-114.38 280.82,-120.12 282.45,-113.31"/>
<text text-anchor="middle" x="307.25" y="-129.5" font-family="Helvetica,sans-Serif" font-size="10.00"> source_</text>
</g>
<!-- Node3 -->
<g id="node3" class="node">
<title>Node3</title>
<g id="a_node3"><a xlink:title=" ">
<polygon fill="white" stroke="#666666" points="34.75,-73 0,-73 0,-53 34.75,-53 34.75,-73"/>
<text text-anchor="middle" x="17.38" y="-59.5" font-family="Helvetica,sans-Serif" font-size="10.00">char</text>
</a>
</g>
</g>
<!-- Node3&#45;&gt;Node1 -->
<g id="edge4" class="edge">
<title>Node3&#45;&gt;Node1</title>
<path fill="none" stroke="#9a32cd" stroke-dasharray="5,2" d="M45.95,-63.37C135.79,-64.59 421.5,-68.47 547.3,-70.18"/>
<polygon fill="#9a32cd" stroke="#9a32cd" points="46.11,-59.86 36.06,-63.23 46.02,-66.86 46.11,-59.86"/>
<text text-anchor="middle" x="307.25" y="-69.5" font-family="Helvetica,sans-Serif" font-size="10.00"> pad_</text>
</g>
<!-- Node3&#45;&gt;Node2 -->
<g id="edge2" class="edge">
<title>Node3&#45;&gt;Node2</title>
<path fill="none" stroke="#9a32cd" stroke-dasharray="5,2" d="M45.48,-68.29C74.36,-73.92 120.88,-83 157.59,-90.16"/>
<polygon fill="#9a32cd" stroke="#9a32cd" points="46.46,-64.72 35.98,-66.24 45.12,-71.59 46.46,-64.72"/>
<text text-anchor="middle" x="96.25" y="-88.5" font-family="Helvetica,sans-Serif" font-size="10.00"> stack_buffer_</text>
</g>
<!-- Node4 -->
<g id="node4" class="node">
<title>Node4</title>
<g id="a_node4"><a xlink:title=" ">
<polygon fill="white" stroke="#666666" points="34.38,-126 0.38,-126 0.38,-106 34.38,-106 34.38,-126"/>
<text text-anchor="middle" x="17.38" y="-112.5" font-family="Helvetica,sans-Serif" font-size="10.00">bool</text>
</a>
</g>
</g>
<!-- Node4&#45;&gt;Node2 -->
<g id="edge3" class="edge">
<title>Node4&#45;&gt;Node2</title>
<path fill="none" stroke="#9a32cd" stroke-dasharray="5,2" d="M45.48,-113.91C74.3,-111.69 120.69,-108.12 157.37,-105.29"/>
<polygon fill="#9a32cd" stroke="#9a32cd" points="45.35,-110.49 35.64,-114.75 45.88,-117.47 45.35,-110.49"/>
<text text-anchor="middle" x="96.25" y="-115.5" font-family="Helvetica,sans-Serif" font-size="10.00"> used_stack_buffer_</text>
</g>
<!-- Node5&#45;&gt;Node1 -->
<g id="edge5" class="edge">
<title>Node5&#45;&gt;Node1</title>
<path fill="none" stroke="#9a32cd" stroke-dasharray="5,2" d="M474.26,-126.79C492.42,-121.24 511.85,-114.82 529.5,-108 540.57,-103.72 552.26,-98.56 563.14,-93.47"/>
<polygon fill="#9a32cd" stroke="#9a32cd" points="473.31,-123.72 464.74,-129.95 475.32,-130.43 473.31,-123.72"/>
<text text-anchor="middle" x="505.5" y="-126.5" font-family="Helvetica,sans-Serif" font-size="10.00"> allocator_</text>
</g>
<!-- Node6 -->
<g id="node6" class="node">
<title>Node6</title>
<g id="a_node6"><a xlink:title=" ">
<polygon fill="white" stroke="#666666" points="261.88,-164 166.38,-164 166.38,-144 261.88,-144 261.88,-164"/>
<text text-anchor="middle" x="214.13" y="-150.5" font-family="Helvetica,sans-Serif" font-size="10.00">std::allocator&lt; T &gt;</text>
</a>
</g>
</g>
<!-- Node6&#45;&gt;Node5 -->
<g id="edge6" class="edge">
<title>Node6&#45;&gt;Node5</title>
<path fill="none" stroke="#63b8ff" d="M272.75,-151.54C295.26,-150.58 321.06,-149.48 343.71,-148.52"/>
<polygon fill="#63b8ff" stroke="#63b8ff" points="272.83,-148.08 262.99,-152 273.13,-155.07 272.83,-148.08"/>
</g>
<!-- Node7 -->
<g id="node7" class="node">
<title>Node7</title>
<g id="a_node7"><a xlink:title=" ">
<polygon fill="white" stroke="#666666" points="31.77,-164 2.97,-164 2.97,-144 31.77,-144 31.77,-164"/>
<text text-anchor="middle" x="17.38" y="-150.5" font-family="Helvetica,sans-Serif" font-size="10.00">T</text>
</a>
</g>
</g>
<!-- Node7&#45;&gt;Node6 -->
<g id="edge7" class="edge">
<title>Node7&#45;&gt;Node6</title>
<path fill="none" stroke="#9a32cd" stroke-dasharray="5,2" d="M42.68,-154C73.52,-154 127.35,-154 166.28,-154"/>
<polygon fill="#9a32cd" stroke="#9a32cd" points="43.07,-150.5 33.07,-154 43.07,-157.5 43.07,-150.5"/>
<text text-anchor="middle" x="96.25" y="-156.5" font-family="Helvetica,sans-Serif" font-size="10.00"> elements</text>
</g>
<!-- Node8 -->
<g id="node8" class="node">
<title>Node8</title>
<g id="a_node8"><a xlink:title=" ">
<polygon fill="white" stroke="#666666" points="445.5,-20 362,-20 362,0 445.5,0 445.5,-20"/>
<text text-anchor="middle" x="403.75" y="-6.5" font-family="Helvetica,sans-Serif" font-size="10.00">TContainerType</text>
</a>
</g>
</g>
<!-- Node8&#45;&gt;Node1 -->
<g id="edge9" class="edge">
<title>Node8&#45;&gt;Node1</title>
<path fill="none" stroke="#9a32cd" stroke-dasharray="5,2" d="M456.77,-9.67C479.59,-10.87 506.4,-14.15 529.5,-22 547.26,-28.04 565.13,-38.79 579.3,-48.69"/>
<polygon fill="#9a32cd" stroke="#9a32cd" points="457.05,-6.14 446.92,-9.24 456.77,-13.13 457.05,-6.14"/>
<text text-anchor="middle" x="505.5" y="-24.5" font-family="Helvetica,sans-Serif" font-size="10.00"> container_</text>
</g>
</g>
</svg>
