<?xml version="1.0" encoding="UTF-8" standalone="no"?>
<!DOCTYPE svg PUBLIC "-//W3C//DTD SVG 1.1//EN"
 "http://www.w3.org/Graphics/SVG/1.1/DTD/svg11.dtd">
<!-- Generated by graphviz version 8.0.5 (20230430.1635)
 -->
<!-- Title: HF::RayTracer::MultiRT Pages: 1 -->
<svg width="129pt" height="96pt"
 viewBox="0.00 0.00 129.13 96.00" xmlns="http://www.w3.org/2000/svg" xmlns:xlink="http://www.w3.org/1999/xlink">
<g id="graph0" class="graph" transform="scale(1 1) rotate(0) translate(4 92)">
<title>HF::RayTracer::MultiRT</title>
<!-- Node1 -->
<g id="node1" class="node">
<title>Node1</title>
<g id="a_node1"><a xlink:title=" ">
<polygon fill="#999999" stroke="#666666" points="118,-20 0,-20 0,0 118,0 118,-20"/>
<text text-anchor="middle" x="59" y="-6.5" font-family="Helvetica,sans-Serif" font-size="10.00">HF::RayTracer::MultiRT</text>
</a>
</g>
</g>
<!-- Node2 -->
<g id="node2" class="node">
<title>Node2</title>
<g id="a_node2"><a xlink:title=" ">
<polygon fill="white" stroke="#666666" points="43.63,-88 4.38,-88 4.38,-68 43.63,-68 43.63,-88"/>
<text text-anchor="middle" x="24" y="-74.5" font-family="Helvetica,sans-Serif" font-size="10.00">void *</text>
</a>
</g>
</g>
<!-- Node2&#45;&gt;Node1 -->
<g id="edge1" class="edge">
<title>Node2&#45;&gt;Node1</title>
<path fill="none" stroke="#9a32cd" stroke-dasharray="5,2" d="M21.12,-57.21C21.02,-50.8 21.85,-43.84 24.75,-38 28.39,-30.68 35.05,-24.73 41.54,-20.3"/>
<polygon fill="#9a32cd" stroke="#9a32cd" points="17.69,-57.15 22.05,-66.81 24.66,-56.54 17.69,-57.15"/>
<text text-anchor="middle" x="48.63" y="-40.5" font-family="Helvetica,sans-Serif" font-size="10.00"> RayTracer</text>
</g>
<!-- Node3 -->
<g id="node3" class="node">
<title>Node3</title>
<g id="a_node3"><a xlink:title=" ">
<polygon fill="white" stroke="#666666" points="121.13,-88 66.88,-88 66.88,-68 121.13,-68 121.13,-88"/>
<text text-anchor="middle" x="94" y="-74.5" font-family="Helvetica,sans-Serif" font-size="10.00">RT_Type</text>
</a>
</g>
</g>
<!-- Node3&#45;&gt;Node1 -->
<g id="edge2" class="edge">
<title>Node3&#45;&gt;Node1</title>
<path fill="none" stroke="#9a32cd" stroke-dasharray="5,2" d="M84,-58.15C77.46,-45.82 69.2,-30.23 64.01,-20.44"/>
<polygon fill="#9a32cd" stroke="#9a32cd" points="81.21,-59.35 88.99,-66.54 87.39,-56.07 81.21,-59.35"/>
<text text-anchor="middle" x="89.88" y="-40.5" font-family="Helvetica,sans-Serif" font-size="10.00"> type</text>
</g>
</g>
</svg>
