<?xml version="1.0" encoding="UTF-8" standalone="no"?>
<!DOCTYPE svg PUBLIC "-//W3C//DTD SVG 1.1//EN"
 "http://www.w3.org/Graphics/SVG/1.1/DTD/svg11.dtd">
<!-- Generated by graphviz version 7.0.1 (20221109.1506)
 -->
<!-- Title: HF::SpatialStructures::Subgraph Pages: 1 -->
<svg width="236pt" height="357pt"
 viewBox="0.00 0.00 236.00 357.00" xmlns="http://www.w3.org/2000/svg" xmlns:xlink="http://www.w3.org/1999/xlink">
<g id="graph0" class="graph" transform="scale(1 1) rotate(0) translate(4 353)">
<title>HF::SpatialStructures::Subgraph</title>
<!-- Node1 -->
<g id="node1" class="node">
<title>Node1</title>
<g id="a_node1"><a xlink:title="A Subgraph consists of a parent Node m_parent and a container of Edge m_edges such that all Edge in m...">
<polygon fill="#999999" stroke="#666666" points="127,-30 17,-30 17,0 127,0 127,-30"/>
<text text-anchor="start" x="25" y="-18" font-family="Helvetica,sans-Serif" font-size="10.00">HF::SpatialStructures</text>
<text text-anchor="middle" x="72" y="-7" font-family="Helvetica,sans-Serif" font-size="10.00">::Subgraph</text>
</a>
</g>
</g>
<!-- Node2 -->
<g id="node2" class="node">
<title>Node2</title>
<g id="a_node2"><a xlink:href="a02005.html" target="_top" xlink:title="A point in space with an ID.">
<polygon fill="white" stroke="#666666" points="110,-261 0,-261 0,-231 110,-231 110,-261"/>
<text text-anchor="start" x="8" y="-249" font-family="Helvetica,sans-Serif" font-size="10.00">HF::SpatialStructures</text>
<text text-anchor="middle" x="55" y="-238" font-family="Helvetica,sans-Serif" font-size="10.00">::Node</text>
</a>
</g>
</g>
<!-- Node2&#45;&gt;Node1 -->
<g id="edge1" class="edge">
<title>Node2&#45;&gt;Node1</title>
<path fill="none" stroke="#9a32cd" stroke-dasharray="5,2" d="M56.9,-219.39C60.48,-171.13 68.13,-68.15 70.94,-30.32"/>
<polygon fill="#9a32cd" stroke="#9a32cd" points="53.43,-218.93 56.18,-229.17 60.41,-219.45 53.43,-218.93"/>
<text text-anchor="middle" x="85" y="-128" font-family="Helvetica,sans-Serif" font-size="10.00"> m_parent</text>
</g>
<!-- Node7 -->
<g id="node7" class="node">
<title>Node7</title>
<g id="a_node7"><a xlink:href="a01461.html" target="_top" xlink:title="A connection to a child node.">
<polygon fill="white" stroke="#666666" points="200,-184 90,-184 90,-154 200,-154 200,-184"/>
<text text-anchor="start" x="98" y="-172" font-family="Helvetica,sans-Serif" font-size="10.00">HF::SpatialStructures</text>
<text text-anchor="middle" x="145" y="-161" font-family="Helvetica,sans-Serif" font-size="10.00">::Edge</text>
</a>
</g>
</g>
<!-- Node2&#45;&gt;Node7 -->
<g id="edge7" class="edge">
<title>Node2&#45;&gt;Node7</title>
<path fill="none" stroke="#9a32cd" stroke-dasharray="5,2" d="M81.16,-223.2C96.14,-210.72 114.52,-195.4 127.7,-184.42"/>
<polygon fill="#9a32cd" stroke="#9a32cd" points="78.96,-220.48 73.52,-229.57 83.44,-225.86 78.96,-220.48"/>
<text text-anchor="middle" x="117" y="-205" font-family="Helvetica,sans-Serif" font-size="10.00"> child</text>
</g>
<!-- Node3 -->
<g id="node3" class="node">
<title>Node3</title>
<g id="a_node3"><a xlink:title=" ">
<polygon fill="white" stroke="#666666" points="180.5,-349 145.5,-349 145.5,-330 180.5,-330 180.5,-349"/>
<text text-anchor="middle" x="163" y="-337" font-family="Helvetica,sans-Serif" font-size="10.00">float</text>
</a>
</g>
</g>
<!-- Node3&#45;&gt;Node2 -->
<g id="edge2" class="edge">
<title>Node3&#45;&gt;Node2</title>
<path fill="none" stroke="#9a32cd" stroke-dasharray="5,2" d="M143.91,-322.32C123.46,-305 91.34,-277.79 71.82,-261.25"/>
<polygon fill="#9a32cd" stroke="#9a32cd" points="141.6,-324.95 151.49,-328.75 146.12,-319.61 141.6,-324.95"/>
<text text-anchor="middle" x="135.5" y="-304" font-family="Helvetica,sans-Serif" font-size="10.00"> x</text>
<text text-anchor="middle" x="135.5" y="-293" font-family="Helvetica,sans-Serif" font-size="10.00">y</text>
<text text-anchor="middle" x="135.5" y="-282" font-family="Helvetica,sans-Serif" font-size="10.00">z</text>
</g>
<!-- Node3&#45;&gt;Node7 -->
<g id="edge9" class="edge">
<title>Node3&#45;&gt;Node7</title>
<path fill="none" stroke="#9a32cd" stroke-dasharray="5,2" d="M174.5,-319.82C189.72,-292.47 212.41,-240.59 192,-202 188.22,-194.84 182.03,-188.99 175.38,-184.34"/>
<polygon fill="#9a32cd" stroke="#9a32cd" points="171.55,-317.93 169.52,-328.33 177.59,-321.46 171.55,-317.93"/>
<text text-anchor="middle" x="214" y="-243.5" font-family="Helvetica,sans-Serif" font-size="10.00"> score</text>
</g>
<!-- Node4 -->
<g id="node4" class="node">
<title>Node4</title>
<g id="a_node4"><a xlink:title=" ">
<polygon fill="white" stroke="#666666" points="48,-349 10,-349 10,-330 48,-330 48,-349"/>
<text text-anchor="middle" x="29" y="-337" font-family="Helvetica,sans-Serif" font-size="10.00">short</text>
</a>
</g>
</g>
<!-- Node4&#45;&gt;Node2 -->
<g id="edge3" class="edge">
<title>Node4&#45;&gt;Node2</title>
<path fill="none" stroke="#9a32cd" stroke-dasharray="5,2" d="M29.8,-318.58C30.73,-306.82 32.72,-291.77 37,-279 39.02,-272.96 42.21,-266.75 45.35,-261.43"/>
<polygon fill="#9a32cd" stroke="#9a32cd" points="26.32,-318.1 29.24,-328.29 33.31,-318.5 26.32,-318.1"/>
<text text-anchor="middle" x="48" y="-293" font-family="Helvetica,sans-Serif" font-size="10.00"> type</text>
</g>
<!-- Node5 -->
<g id="node5" class="node">
<title>Node5</title>
<g id="a_node5"><a xlink:title=" ">
<polygon fill="white" stroke="#666666" points="95.5,-349 66.5,-349 66.5,-330 95.5,-330 95.5,-349"/>
<text text-anchor="middle" x="81" y="-337" font-family="Helvetica,sans-Serif" font-size="10.00">int</text>
</a>
</g>
</g>
<!-- Node5&#45;&gt;Node2 -->
<g id="edge4" class="edge">
<title>Node5&#45;&gt;Node2</title>
<path fill="none" stroke="#9a32cd" stroke-dasharray="5,2" d="M75.36,-318.67C70.45,-301.36 63.43,-276.67 59.05,-261.25"/>
<polygon fill="#9a32cd" stroke="#9a32cd" points="71.99,-319.61 78.09,-328.27 78.73,-317.69 71.99,-319.61"/>
<text text-anchor="middle" x="78.5" y="-293" font-family="Helvetica,sans-Serif" font-size="10.00"> id</text>
</g>
<!-- Node6 -->
<g id="node6" class="node">
<title>Node6</title>
<g id="a_node6"><a xlink:title=" ">
<polygon fill="white" stroke="#666666" points="204.5,-107 85.5,-107 85.5,-77 204.5,-77 204.5,-107"/>
<text text-anchor="start" x="93.5" y="-95" font-family="Helvetica,sans-Serif" font-size="10.00">std::vector&lt; HF::Spatial</text>
<text text-anchor="middle" x="145" y="-84" font-family="Helvetica,sans-Serif" font-size="10.00">Structures::Edge &gt;</text>
</a>
</g>
</g>
<!-- Node6&#45;&gt;Node1 -->
<g id="edge5" class="edge">
<title>Node6&#45;&gt;Node1</title>
<path fill="none" stroke="#9a32cd" stroke-dasharray="5,2" d="M123.09,-68.49C111.07,-56.14 96.52,-41.2 86.03,-30.42"/>
<polygon fill="#9a32cd" stroke="#9a32cd" points="120.39,-70.73 129.87,-75.45 125.4,-65.85 120.39,-70.73"/>
<text text-anchor="middle" x="133.5" y="-51" font-family="Helvetica,sans-Serif" font-size="10.00"> m_edges</text>
</g>
<!-- Node7&#45;&gt;Node6 -->
<g id="edge6" class="edge">
<title>Node7&#45;&gt;Node6</title>
<path fill="none" stroke="#9a32cd" stroke-dasharray="5,2" d="M145,-142.23C145,-130.58 145,-117.26 145,-107.42"/>
<polygon fill="#9a32cd" stroke="#9a32cd" points="141.5,-142.03 145,-152.03 148.5,-142.03 141.5,-142.03"/>
<text text-anchor="middle" x="166.5" y="-128" font-family="Helvetica,sans-Serif" font-size="10.00"> elements</text>
</g>
<!-- Node8 -->
<g id="node8" class="node">
<title>Node8</title>
<g id="a_node8"><a xlink:title=" ">
<polygon fill="white" stroke="#666666" points="170,-255.5 128,-255.5 128,-236.5 170,-236.5 170,-255.5"/>
<text text-anchor="middle" x="149" y="-243.5" font-family="Helvetica,sans-Serif" font-size="10.00">STEP</text>
</a>
</g>
</g>
<!-- Node8&#45;&gt;Node7 -->
<g id="edge8" class="edge">
<title>Node8&#45;&gt;Node7</title>
<path fill="none" stroke="#9a32cd" stroke-dasharray="5,2" d="M146.88,-224.67C146.54,-220.8 146.22,-216.78 146,-213 145.44,-203.46 145.19,-192.71 145.08,-184.34"/>
<polygon fill="#9a32cd" stroke="#9a32cd" points="143.39,-224.93 147.84,-234.54 150.35,-224.25 143.39,-224.93"/>
<text text-anchor="middle" x="169" y="-205" font-family="Helvetica,sans-Serif" font-size="10.00"> step_type</text>
</g>
</g>
</svg>
