<?xml version="1.0" encoding="UTF-8" standalone="no"?>
<!DOCTYPE svg PUBLIC "-//W3C//DTD SVG 1.1//EN"
 "http://www.w3.org/Graphics/SVG/1.1/DTD/svg11.dtd">
<!-- Generated by graphviz version 7.0.4 (20221203.1631)
 -->
<!-- Title: HF::RayTracer::NanoRTRayTracer::NanoRTRayTracer Pages: 1 -->
<svg width="304pt" height="86pt"
 viewBox="0.00 0.00 304.00 86.00" xmlns="http://www.w3.org/2000/svg" xmlns:xlink="http://www.w3.org/1999/xlink">
<g id="graph0" class="graph" transform="scale(1 1) rotate(0) translate(4 82)">
<title>HF::RayTracer::NanoRTRayTracer::NanoRTRayTracer</title>
<!-- Node1 -->
<g id="node1" class="node">
<title>Node1</title>
<g id="a_node1"><a xlink:title="Construct a new raytracer with an instance of meshinfo.">
<polygon fill="#999999" stroke="#666666" points="137,-54 0,-54 0,-24 137,-24 137,-54"/>
<text text-anchor="start" x="8" y="-42" font-family="Helvetica,sans-Serif" font-size="10.00">HF::RayTracer::NanoRTRay</text>
<text text-anchor="middle" x="68.5" y="-31" font-family="Helvetica,sans-Serif" font-size="10.00">Tracer::NanoRTRayTracer</text>
</a>
</g>
</g>
<!-- Node2 -->
<g id="node2" class="node">
<title>Node2</title>
<g id="a_node2"><a xlink:href="a01285.html#a9ca41370061bec524b5c84d689114e41" target="_top" xlink:title="Get a pointer to the index array of this mesh.">
<polygon fill="white" stroke="#666666" points="296,-78 173,-78 173,-48 296,-48 296,-78"/>
<text text-anchor="start" x="181" y="-66" font-family="Helvetica,sans-Serif" font-size="10.00">HF::Geometry::MeshInfo</text>
<text text-anchor="middle" x="234.5" y="-55" font-family="Helvetica,sans-Serif" font-size="10.00">::GetIndexPointer</text>
</a>
</g>
</g>
<!-- Node1&#45;&gt;Node2 -->
<g id="edge1" class="edge">
<title>Node1&#45;&gt;Node2</title>
<path fill="none" stroke="#63b8ff" d="M137.15,-48.9C145.13,-50.07 153.29,-51.26 161.33,-52.44"/>
<polygon fill="#63b8ff" stroke="#63b8ff" points="160.67,-55.88 171.07,-53.86 161.68,-48.95 160.67,-55.88"/>
</g>
<!-- Node3 -->
<g id="node3" class="node">
<title>Node3</title>
<g id="a_node3"><a xlink:href="a01285.html#aa88fe8bcfc24db635994e529fac008da" target="_top" xlink:title="Get a pointer to the vertex array of this mesh.">
<polygon fill="white" stroke="#666666" points="296,-30 173,-30 173,0 296,0 296,-30"/>
<text text-anchor="start" x="181" y="-18" font-family="Helvetica,sans-Serif" font-size="10.00">HF::Geometry::MeshInfo</text>
<text text-anchor="middle" x="234.5" y="-7" font-family="Helvetica,sans-Serif" font-size="10.00">::GetVertexPointer</text>
</a>
</g>
</g>
<!-- Node1&#45;&gt;Node3 -->
<g id="edge2" class="edge">
<title>Node1&#45;&gt;Node3</title>
<path fill="none" stroke="#63b8ff" d="M137.15,-29.1C145.13,-27.93 153.29,-26.74 161.33,-25.56"/>
<polygon fill="#63b8ff" stroke="#63b8ff" points="161.68,-29.05 171.07,-24.14 160.67,-22.12 161.68,-29.05"/>
</g>
</g>
</svg>
