<?xml version="1.0" encoding="UTF-8" standalone="no"?>
<!DOCTYPE svg PUBLIC "-//W3C//DTD SVG 1.1//EN"
 "http://www.w3.org/Graphics/SVG/1.1/DTD/svg11.dtd">
<!-- Generated by graphviz version 5.0.0 (20220707.1540)
 -->
<!-- Title: HF::RayTracer::NanoRTRayTracer::NanoRTRayTracer Pages: 1 -->
<svg width="304pt" height="88pt"
 viewBox="0.00 0.00 304.00 88.00" xmlns="http://www.w3.org/2000/svg" xmlns:xlink="http://www.w3.org/1999/xlink">
<g id="graph0" class="graph" transform="scale(1 1) rotate(0) translate(4 84)">
<title>HF::RayTracer::NanoRTRayTracer::NanoRTRayTracer</title>
<polygon fill="white" stroke="transparent" points="-4,4 -4,-84 300,-84 300,4 -4,4"/>
<!-- Node1 -->
<g id="node1" class="node">
<title>Node1</title>
<g id="a_node1"><a xlink:title=" ">
<polygon fill="#bfbfbf" stroke="black" points="0,-24.5 0,-54.5 137,-54.5 137,-24.5 0,-24.5"/>
<text text-anchor="start" x="8" y="-42.5" font-family="Helvetica,sans-Serif" font-size="10.00">HF::RayTracer::NanoRTRay</text>
<text text-anchor="middle" x="68.5" y="-31.5" font-family="Helvetica,sans-Serif" font-size="10.00">Tracer::NanoRTRayTracer</text>
</a>
</g>
</g>
<!-- Node2 -->
<g id="node2" class="node">
<title>Node2</title>
<g id="a_node2"><a xlink:href="a01285.html#a9ca41370061bec524b5c84d689114e41" target="_top" xlink:title="Get a pointer to the index array of this mesh.">
<polygon fill="white" stroke="black" points="173,-49.5 173,-79.5 296,-79.5 296,-49.5 173,-49.5"/>
<text text-anchor="start" x="181" y="-67.5" font-family="Helvetica,sans-Serif" font-size="10.00">HF::Geometry::MeshInfo</text>
<text text-anchor="middle" x="234.5" y="-56.5" font-family="Helvetica,sans-Serif" font-size="10.00">::GetIndexPointer</text>
</a>
</g>
</g>
<!-- Node1&#45;&gt;Node2 -->
<g id="edge1" class="edge">
<title>Node1&#45;&gt;Node2</title>
<path fill="none" stroke="midnightblue" d="M137.15,-49.81C145.65,-51.11 154.36,-52.44 162.9,-53.74"/>
<polygon fill="midnightblue" stroke="midnightblue" points="162.42,-57.2 172.83,-55.25 163.47,-50.28 162.42,-57.2"/>
</g>
<!-- Node3 -->
<g id="node3" class="node">
<title>Node3</title>
<g id="a_node3"><a xlink:href="a01285.html#aa88fe8bcfc24db635994e529fac008da" target="_top" xlink:title="Get a pointer to the vertex array of this mesh.">
<polygon fill="white" stroke="black" points="173,-0.5 173,-30.5 296,-30.5 296,-0.5 173,-0.5"/>
<text text-anchor="start" x="181" y="-18.5" font-family="Helvetica,sans-Serif" font-size="10.00">HF::Geometry::MeshInfo</text>
<text text-anchor="middle" x="234.5" y="-7.5" font-family="Helvetica,sans-Serif" font-size="10.00">::GetVertexPointer</text>
</a>
</g>
</g>
<!-- Node1&#45;&gt;Node3 -->
<g id="edge2" class="edge">
<title>Node1&#45;&gt;Node3</title>
<path fill="none" stroke="midnightblue" d="M137.15,-29.6C145.65,-28.36 154.36,-27.08 162.9,-25.83"/>
<polygon fill="midnightblue" stroke="midnightblue" points="163.44,-29.29 172.83,-24.38 162.43,-22.36 163.44,-29.29"/>
</g>
</g>
</svg>
