<?xml version="1.0" encoding="UTF-8" standalone="no"?>
<!DOCTYPE svg PUBLIC "-//W3C//DTD SVG 1.1//EN"
 "http://www.w3.org/Graphics/SVG/1.1/DTD/svg11.dtd">
<!-- Generated by graphviz version 7.0.1 (20221109.1506)
 -->
<!-- Title: nlohmann::detail::exception Pages: 1 -->
<svg width="204pt" height="149pt"
 viewBox="0.00 0.00 203.50 149.00" xmlns="http://www.w3.org/2000/svg" xmlns:xlink="http://www.w3.org/1999/xlink">
<g id="graph0" class="graph" transform="scale(1 1) rotate(0) translate(4 145)">
<title>nlohmann::detail::exception</title>
<!-- Node1 -->
<g id="node1" class="node">
<title>Node1</title>
<g id="a_node1"><a xlink:title="general exception of the basic_json class">
<polygon fill="#999999" stroke="#666666" points="170,-19 34,-19 34,0 170,0 170,-19"/>
<text text-anchor="middle" x="102" y="-7" font-family="Helvetica,sans-Serif" font-size="10.00">nlohmann::detail::exception</text>
</a>
</g>
</g>
<!-- Node2 -->
<g id="node2" class="node">
<title>Node2</title>
<g id="a_node2"><a xlink:title=" ">
<polygon fill="white" stroke="#666666" points="78,-141 0,-141 0,-122 78,-122 78,-141"/>
<text text-anchor="middle" x="39" y="-129" font-family="Helvetica,sans-Serif" font-size="10.00">std::exception</text>
</a>
</g>
</g>
<!-- Node2&#45;&gt;Node1 -->
<g id="edge1" class="edge">
<title>Node2&#45;&gt;Node1</title>
<path fill="none" stroke="#63b8ff" d="M37.79,-110.48C37.78,-97.25 39.33,-79.84 46,-66 55.63,-46.02 75.49,-29.1 88.79,-19.37"/>
<polygon fill="#63b8ff" stroke="#63b8ff" points="34.28,-110.26 38.11,-120.14 41.28,-110.03 34.28,-110.26"/>
</g>
<!-- Node4 -->
<g id="node4" class="node">
<title>Node4</title>
<g id="a_node4"><a xlink:title=" ">
<polygon fill="white" stroke="#666666" points="148.5,-85 55.5,-85 55.5,-66 148.5,-66 148.5,-85"/>
<text text-anchor="middle" x="102" y="-73" font-family="Helvetica,sans-Serif" font-size="10.00">std::runtime_error</text>
</a>
</g>
</g>
<!-- Node2&#45;&gt;Node4 -->
<g id="edge4" class="edge">
<title>Node2&#45;&gt;Node4</title>
<path fill="none" stroke="#63b8ff" d="M58,-114.22C69.1,-104.7 82.68,-93.06 91.79,-85.25"/>
<polygon fill="#63b8ff" stroke="#63b8ff" points="55.87,-111.43 50.55,-120.6 60.42,-116.75 55.87,-111.43"/>
</g>
<!-- Node3 -->
<g id="node3" class="node">
<title>Node3</title>
<g id="a_node3"><a xlink:title=" ">
<polygon fill="white" stroke="#666666" points="195.5,-85 166.5,-85 166.5,-66 195.5,-66 195.5,-85"/>
<text text-anchor="middle" x="181" y="-73" font-family="Helvetica,sans-Serif" font-size="10.00">int</text>
</a>
</g>
</g>
<!-- Node3&#45;&gt;Node1 -->
<g id="edge2" class="edge">
<title>Node3&#45;&gt;Node1</title>
<path fill="none" stroke="#9a32cd" stroke-dasharray="5,2" d="M161.3,-58.54C146,-46.14 125.35,-29.42 112.89,-19.32"/>
<polygon fill="#9a32cd" stroke="#9a32cd" points="158.87,-61.07 168.84,-64.65 163.27,-55.63 158.87,-61.07"/>
<text text-anchor="middle" x="151.5" y="-40" font-family="Helvetica,sans-Serif" font-size="10.00"> id</text>
</g>
<!-- Node4&#45;&gt;Node1 -->
<g id="edge3" class="edge">
<title>Node4&#45;&gt;Node1</title>
<path fill="none" stroke="#9a32cd" stroke-dasharray="5,2" d="M102,-54.18C102,-42.44 102,-28.27 102,-19.32"/>
<polygon fill="#9a32cd" stroke="#9a32cd" points="98.5,-54.09 102,-64.09 105.5,-54.09 98.5,-54.09"/>
<text text-anchor="middle" x="108" y="-40" font-family="Helvetica,sans-Serif" font-size="10.00"> m</text>
</g>
</g>
</svg>
