<?xml version="1.0" encoding="UTF-8" standalone="no"?>
<!DOCTYPE svg PUBLIC "-//W3C//DTD SVG 1.1//EN"
 "http://www.w3.org/Graphics/SVG/1.1/DTD/svg11.dtd">
<!-- Generated by graphviz version 2.43.0 (0)
 -->
<!-- Title: nanort::BVHBuildStatistics Pages: 1 -->
<svg width="209pt" height="117pt"
 viewBox="0.00 0.00 208.50 117.00" xmlns="http://www.w3.org/2000/svg" xmlns:xlink="http://www.w3.org/1999/xlink">
<g id="graph0" class="graph" transform="scale(1 1) rotate(0) translate(4 113)">
<title>nanort::BVHBuildStatistics</title>
<polygon fill="white" stroke="transparent" points="-4,4 -4,-113 204.5,-113 204.5,4 -4,4"/>
<!-- Node1 -->
<g id="node1" class="node">
<title>Node1</title>
<g id="a_node1"><a xlink:title="BVH build statistics.">
<polygon fill="#bfbfbf" stroke="black" points="0,-0.5 0,-19.5 145,-19.5 145,-0.5 0,-0.5"/>
<text text-anchor="middle" x="72.5" y="-7.5" font-family="Helvetica,sans-Serif" font-size="10.00">nanort::BVHBuildStatistics</text>
</a>
</g>
</g>
<!-- Node2 -->
<g id="node2" class="node">
<title>Node2</title>
<g id="a_node2"><a xlink:title=" ">
<polygon fill="white" stroke="#bfbfbf" points="14.5,-89.5 14.5,-108.5 52.5,-108.5 52.5,-89.5 14.5,-89.5"/>
<text text-anchor="middle" x="33.5" y="-96.5" font-family="Helvetica,sans-Serif" font-size="10.00">float</text>
</a>
</g>
</g>
<!-- Node2&#45;&gt;Node1 -->
<g id="edge1" class="edge">
<title>Node2&#45;&gt;Node1</title>
<path fill="none" stroke="#9a32cd" stroke-dasharray="5,2" d="M29.61,-79.15C28.03,-66.75 27.88,-50.56 34.5,-38 38.65,-30.12 46.25,-24.03 53.57,-19.64"/>
<polygon fill="#9a32cd" stroke="#9a32cd" points="26.2,-79.98 31.31,-89.25 33.1,-78.81 26.2,-79.98"/>
<text text-anchor="middle" x="62" y="-52" font-family="Helvetica,sans-Serif" font-size="10.00"> build_secs</text>
</g>
<!-- Node3 -->
<g id="node3" class="node">
<title>Node3</title>
<g id="a_node3"><a xlink:title=" ">
<polygon fill="white" stroke="#bfbfbf" points="97,-89.5 97,-108.5 126,-108.5 126,-89.5 97,-89.5"/>
<text text-anchor="middle" x="111.5" y="-96.5" font-family="Helvetica,sans-Serif" font-size="10.00">int</text>
</a>
</g>
</g>
<!-- Node3&#45;&gt;Node1 -->
<g id="edge2" class="edge">
<title>Node3&#45;&gt;Node1</title>
<path fill="none" stroke="#9a32cd" stroke-dasharray="5,2" d="M105.81,-79.4C101.84,-67.33 96.09,-51.42 89.5,-38 86.37,-31.64 82.12,-24.89 78.66,-19.73"/>
<polygon fill="#9a32cd" stroke="#9a32cd" points="102.56,-80.74 108.92,-89.22 109.23,-78.63 102.56,-80.74"/>
<text text-anchor="middle" x="151.5" y="-63" font-family="Helvetica,sans-Serif" font-size="10.00"> num_branch_nodes</text>
<text text-anchor="middle" x="151.5" y="-52" font-family="Helvetica,sans-Serif" font-size="10.00">num_leaf_nodes</text>
<text text-anchor="middle" x="151.5" y="-41" font-family="Helvetica,sans-Serif" font-size="10.00">max_tree_depth</text>
</g>
</g>
</svg>
