<?xml version="1.0" encoding="UTF-8" standalone="no"?>
<!DOCTYPE svg PUBLIC "-//W3C//DTD SVG 1.1//EN"
 "http://www.w3.org/Graphics/SVG/1.1/DTD/svg11.dtd">
<!-- Generated by graphviz version 7.0.3 (20221126.0506)
 -->
<!-- Title: HF::SpatialStructures::Graph::AddEdges Pages: 1 -->
<svg width="334pt" height="64pt"
 viewBox="0.00 0.00 334.00 64.00" xmlns="http://www.w3.org/2000/svg" xmlns:xlink="http://www.w3.org/1999/xlink">
<g id="graph0" class="graph" transform="scale(1 1) rotate(0) translate(4 60)">
<title>HF::SpatialStructures::Graph::AddEdges</title>
<!-- Node1 -->
<g id="node1" class="node">
<title>Node1</title>
<g id="a_node1"><a xlink:title="Add multiple edges to the graph.">
<polygon fill="#999999" stroke="#666666" points="326,-42.5 216,-42.5 216,-12.5 326,-12.5 326,-42.5"/>
<text text-anchor="start" x="224" y="-30.5" font-family="Helvetica,sans-Serif" font-size="10.00">HF::SpatialStructures</text>
<text text-anchor="middle" x="271" y="-19.5" font-family="Helvetica,sans-Serif" font-size="10.00">::Graph::AddEdges</text>
</a>
</g>
</g>
<!-- Node2 -->
<g id="node2" class="node">
<title>Node2</title>
<g id="a_node2"><a xlink:href="a00392.html#gad7f7fa84fbf7484d38228ccd346d1ae0" target="_top" xlink:title="Calculates cross slope for all subgraphs in *g.">
<polygon fill="white" stroke="#666666" points="164,-56 16,-56 16,-37 164,-37 164,-56"/>
<text text-anchor="middle" x="90" y="-44" font-family="Helvetica,sans-Serif" font-size="10.00">CalculateAndStoreCrossSlope</text>
</a>
</g>
</g>
<!-- Node1&#45;&gt;Node2 -->
<g id="edge1" class="edge">
<title>Node1&#45;&gt;Node2</title>
<path fill="none" stroke="#63b8ff" d="M204.58,-34.44C191.55,-35.83 177.78,-37.29 164.5,-38.7"/>
<polygon fill="#63b8ff" stroke="#63b8ff" points="204.73,-37.95 214.3,-33.41 203.99,-30.99 204.73,-37.95"/>
</g>
<!-- Node3 -->
<g id="node3" class="node">
<title>Node3</title>
<g id="a_node3"><a xlink:href="a00392.html#ga76d98cf2df63a766a74137dfa815d9a9" target="_top" xlink:title="Calculates energy expenditure for all subgraphs in *g and stores them in the graph at AlgorithmCostTi...">
<polygon fill="white" stroke="#666666" points="180,-19 0,-19 0,0 180,0 180,-19"/>
<text text-anchor="middle" x="90" y="-7" font-family="Helvetica,sans-Serif" font-size="10.00">CalculateAndStoreEnergyExpenditure</text>
</a>
</g>
</g>
<!-- Node1&#45;&gt;Node3 -->
<g id="edge2" class="edge">
<title>Node1&#45;&gt;Node3</title>
<path fill="none" stroke="#63b8ff" d="M204.51,-20.91C196.65,-20.12 188.53,-19.31 180.4,-18.49"/>
<polygon fill="#63b8ff" stroke="#63b8ff" points="204,-24.38 214.3,-21.9 204.7,-17.42 204,-24.38"/>
</g>
</g>
</svg>
