<?xml version="1.0" encoding="UTF-8" standalone="no"?>
<!DOCTYPE svg PUBLIC "-//W3C//DTD SVG 1.1//EN"
 "http://www.w3.org/Graphics/SVG/1.1/DTD/svg11.dtd">
<!-- Generated by graphviz version 2.43.0 (0)
 -->
<!-- Title: HF::SpatialStructures::Graph::GetCSRPointers Pages: 1 -->
<svg width="479pt" height="104pt"
 viewBox="0.00 0.00 479.00 104.00" xmlns="http://www.w3.org/2000/svg" xmlns:xlink="http://www.w3.org/1999/xlink">
<g id="graph0" class="graph" transform="scale(1 1) rotate(0) translate(4 100)">
<title>HF::SpatialStructures::Graph::GetCSRPointers</title>
<polygon fill="white" stroke="transparent" points="-4,4 -4,-100 475,-100 475,4 -4,4"/>
<!-- Node1 -->
<g id="node1" class="node">
<title>Node1</title>
<g id="a_node1"><a xlink:title="Obtain the size of and pointers to the 3 arrays that comprise this graph&#39;s CSR. graph if it isn&#39;t com...">
<polygon fill="#bfbfbf" stroke="black" points="337,-33 337,-63 471,-63 471,-33 337,-33"/>
<text text-anchor="start" x="345" y="-51" font-family="Helvetica,sans-Serif" font-size="10.00">HF::SpatialStructures</text>
<text text-anchor="middle" x="404" y="-40" font-family="Helvetica,sans-Serif" font-size="10.00">::Graph::GetCSRPointers</text>
</a>
</g>
</g>
<!-- Node2 -->
<g id="node2" class="node">
<title>Node2</title>
<g id="a_node2"><a xlink:href="a00392.html#ga58e27a4c3b5a2d9692536877c2e13691" target="_top" xlink:title="Retrieve all information for a graph&#39;s CSR representation. This will compress the graph if it was not...">
<polygon fill="white" stroke="black" points="183,-76.5 183,-95.5 276,-95.5 276,-76.5 183,-76.5"/>
<text text-anchor="middle" x="229.5" y="-83.5" font-family="Helvetica,sans-Serif" font-size="10.00">GetCSRPointers</text>
</a>
</g>
</g>
<!-- Node1&#45;&gt;Node2 -->
<g id="edge1" class="edge">
<title>Node1&#45;&gt;Node2</title>
<path fill="none" stroke="midnightblue" d="M326.81,-64.78C308.68,-68.78 289.95,-72.9 273.88,-76.44"/>
<polygon fill="midnightblue" stroke="midnightblue" points="327.79,-68.15 336.8,-62.58 326.28,-61.32 327.79,-68.15"/>
</g>
<!-- Node4 -->
<g id="node4" class="node">
<title>Node4</title>
<g id="a_node4"><a xlink:href="a00320.html#a24a05180dfb42b123220fb8626775f0d" target="_top" xlink:title=" ">
<polygon fill="white" stroke="black" points="209,-38.5 209,-57.5 250,-57.5 250,-38.5 209,-38.5"/>
<text text-anchor="middle" x="229.5" y="-45.5" font-family="Helvetica,sans-Serif" font-size="10.00">TEST</text>
</a>
</g>
</g>
<!-- Node1&#45;&gt;Node4 -->
<g id="edge3" class="edge">
<title>Node1&#45;&gt;Node4</title>
<path fill="none" stroke="midnightblue" d="M326.53,-48C298.41,-48 268.9,-48 250.13,-48"/>
<polygon fill="midnightblue" stroke="midnightblue" points="326.8,-51.5 336.8,-48 326.8,-44.5 326.8,-51.5"/>
</g>
<!-- Node5 -->
<g id="node5" class="node">
<title>Node5</title>
<g id="a_node5"><a xlink:href="a00422.html#aa84cb04c7d2480c614d5b22f3d825263" target="_top" xlink:title=" ">
<polygon fill="white" stroke="black" points="158,-0.5 158,-19.5 301,-19.5 301,-0.5 158,-0.5"/>
<text text-anchor="middle" x="229.5" y="-7.5" font-family="Helvetica,sans-Serif" font-size="10.00">GraphExampleTests::TEST</text>
</a>
</g>
</g>
<!-- Node1&#45;&gt;Node5 -->
<g id="edge4" class="edge">
<title>Node1&#45;&gt;Node5</title>
<path fill="none" stroke="midnightblue" d="M326.81,-31.22C308.68,-27.22 289.95,-23.1 273.88,-19.56"/>
<polygon fill="midnightblue" stroke="midnightblue" points="326.28,-34.68 336.8,-33.42 327.79,-27.85 326.28,-34.68"/>
</g>
<!-- Node3 -->
<g id="node3" class="node">
<title>Node3</title>
<g id="a_node3"><a xlink:href="a00414.html#a39dada2979ec7c99d29347a80cecb44d" target="_top" xlink:title=" ">
<polygon fill="white" stroke="black" points="0,-76.5 0,-95.5 122,-95.5 122,-76.5 0,-76.5"/>
<text text-anchor="middle" x="61" y="-83.5" font-family="Helvetica,sans-Serif" font-size="10.00">CInterfaceTests::TEST</text>
</a>
</g>
</g>
<!-- Node2&#45;&gt;Node3 -->
<g id="edge2" class="edge">
<title>Node2&#45;&gt;Node3</title>
<path fill="none" stroke="midnightblue" d="M172.22,-86C156.1,-86 138.48,-86 122.14,-86"/>
<polygon fill="midnightblue" stroke="midnightblue" points="172.56,-89.5 182.56,-86 172.56,-82.5 172.56,-89.5"/>
</g>
</g>
</svg>
