<?xml version="1.0" encoding="UTF-8" standalone="no"?>
<!DOCTYPE svg PUBLIC "-//W3C//DTD SVG 1.1//EN"
 "http://www.w3.org/Graphics/SVG/1.1/DTD/svg11.dtd">
<!-- Generated by graphviz version 8.0.5 (20230430.1635)
 -->
<!-- Title: HF::SpatialStructures::EdgeCostSet::operator[] Pages: 1 -->
<svg width="466pt" height="40pt"
 viewBox="0.00 0.00 465.50 40.00" xmlns="http://www.w3.org/2000/svg" xmlns:xlink="http://www.w3.org/1999/xlink">
<g id="graph0" class="graph" transform="scale(1 1) rotate(0) translate(4 36)">
<title>HF::SpatialStructures::EdgeCostSet::operator[]</title>
<!-- Node1 -->
<g id="node1" class="node">
<title>Node1</title>
<g id="a_node1"><a xlink:title="Index internal values array.">
<polygon fill="#999999" stroke="#666666" points="127,-32 0,-32 0,0 127,0 127,-32"/>
<text text-anchor="start" x="8" y="-18.5" font-family="Helvetica,sans-Serif" font-size="10.00">HF::SpatialStructures</text>
<text text-anchor="middle" x="63.5" y="-6.5" font-family="Helvetica,sans-Serif" font-size="10.00">::EdgeCostSet::operator[]</text>
</a>
</g>
</g>
<!-- Node2 -->
<g id="node2" class="node">
<title>Node2</title>
<g id="a_node2"><a xlink:href="a01481.html#a4b139518bc0939554df19e83c8e0b916" target="_top" xlink:title=" ">
<polygon fill="white" stroke="#666666" points="311.75,-32 163,-32 163,0 311.75,0 311.75,-32"/>
<text text-anchor="start" x="171" y="-18.5" font-family="Helvetica,sans-Serif" font-size="10.00">HF::SpatialStructures</text>
<text text-anchor="middle" x="237.38" y="-6.5" font-family="Helvetica,sans-Serif" font-size="10.00">::EdgeCostSet::bounds_check</text>
</a>
</g>
</g>
<!-- Node1&#45;&gt;Node2 -->
<g id="edge1" class="edge">
<title>Node1&#45;&gt;Node2</title>
<path fill="none" stroke="#63b8ff" d="M127.04,-16C135.11,-16 143.49,-16 151.84,-16"/>
<polygon fill="#63b8ff" stroke="#63b8ff" points="151.79,-19.5 161.79,-16 151.79,-12.5 151.79,-19.5"/>
</g>
<!-- Node3 -->
<g id="node3" class="node">
<title>Node3</title>
<g id="a_node3"><a xlink:href="a01481.html#abc5ff8ee3175dca75cacbfbd592907db" target="_top" xlink:title="Get the size of this edge matrix.">
<polygon fill="white" stroke="#666666" points="457.5,-32 347.75,-32 347.75,0 457.5,0 457.5,-32"/>
<text text-anchor="start" x="355.75" y="-18.5" font-family="Helvetica,sans-Serif" font-size="10.00">HF::SpatialStructures</text>
<text text-anchor="middle" x="402.63" y="-6.5" font-family="Helvetica,sans-Serif" font-size="10.00">::EdgeCostSet::size</text>
</a>
</g>
</g>
<!-- Node2&#45;&gt;Node3 -->
<g id="edge2" class="edge">
<title>Node2&#45;&gt;Node3</title>
<path fill="none" stroke="#63b8ff" d="M311.88,-16C320.14,-16 328.52,-16 336.66,-16"/>
<polygon fill="#63b8ff" stroke="#63b8ff" points="336.59,-19.5 346.59,-16 336.59,-12.5 336.59,-19.5"/>
</g>
</g>
</svg>
