<?xml version="1.0" encoding="UTF-8" standalone="no"?>
<!DOCTYPE svg PUBLIC "-//W3C//DTD SVG 1.1//EN"
 "http://www.w3.org/Graphics/SVG/1.1/DTD/svg11.dtd">
<!-- Generated by graphviz version 2.43.0 (0)
 -->
<!-- Title: HF::SpatialStructures::Graph::size Pages: 1 -->
<svg width="479pt" height="306pt"
 viewBox="0.00 0.00 479.00 305.50" xmlns="http://www.w3.org/2000/svg" xmlns:xlink="http://www.w3.org/1999/xlink">
<g id="graph0" class="graph" transform="scale(1 1) rotate(0) translate(4 301.5)">
<title>HF::SpatialStructures::Graph::size</title>
<polygon fill="white" stroke="transparent" points="-4,4 -4,-301.5 475,-301.5 475,4 -4,4"/>
<!-- Node1 -->
<g id="node1" class="node">
<title>Node1</title>
<g id="a_node1"><a xlink:title="Determine how many nodes are in the graph.">
<polygon fill="#bfbfbf" stroke="black" points="352,-128 352,-158 471,-158 471,-128 352,-128"/>
<text text-anchor="start" x="360" y="-146" font-family="Helvetica,sans-Serif" font-size="10.00">HF::SpatialStructures</text>
<text text-anchor="middle" x="411.5" y="-135" font-family="Helvetica,sans-Serif" font-size="10.00">::Graph::size</text>
</a>
</g>
</g>
<!-- Node2 -->
<g id="node2" class="node">
<title>Node2</title>
<g id="a_node2"><a xlink:href="a01329.html#ac7878a25105aec59a116942a717d71b4" target="_top" xlink:title="Create a boost graph from a HF::SpatialStructures::Graph.">
<polygon fill="white" stroke="black" points="161,-267 161,-297 313,-297 313,-267 161,-267"/>
<text text-anchor="start" x="169" y="-285" font-family="Helvetica,sans-Serif" font-size="10.00">HF::Pathfinding::BoostGraph</text>
<text text-anchor="middle" x="237" y="-274" font-family="Helvetica,sans-Serif" font-size="10.00">::BoostGraph</text>
</a>
</g>
</g>
<!-- Node1&#45;&gt;Node2 -->
<g id="edge1" class="edge">
<title>Node1&#45;&gt;Node2</title>
<path fill="none" stroke="midnightblue" d="M396.42,-167.08C380.16,-192.87 351.09,-233.28 316,-257 310.35,-260.82 304.07,-264.09 297.6,-266.88"/>
<polygon fill="midnightblue" stroke="midnightblue" points="399.56,-168.65 401.82,-158.3 393.6,-164.98 399.56,-168.65"/>
</g>
<!-- Node3 -->
<g id="node3" class="node">
<title>Node3</title>
<g id="a_node3"><a xlink:href="a00396.html#a2d6862311c7465384d42ce52d43a3e30" target="_top" xlink:title=" ">
<polygon fill="white" stroke="black" points="171,-228.5 171,-247.5 303,-247.5 303,-228.5 171,-228.5"/>
<text text-anchor="middle" x="237" y="-235.5" font-family="Helvetica,sans-Serif" font-size="10.00">HF::CheckForDuplicates</text>
</a>
</g>
</g>
<!-- Node1&#45;&gt;Node3 -->
<g id="edge2" class="edge">
<title>Node1&#45;&gt;Node3</title>
<path fill="none" stroke="midnightblue" d="M388.31,-165.62C370.31,-182.7 343.51,-205.43 316,-219 308.25,-222.82 299.68,-225.91 291.14,-228.39"/>
<polygon fill="midnightblue" stroke="midnightblue" points="391.19,-167.7 395.92,-158.22 386.31,-162.68 391.19,-167.7"/>
</g>
<!-- Node5 -->
<g id="node5" class="node">
<title>Node5</title>
<g id="a_node5"><a xlink:href="a00396.html#a8428323b382fd801560d0b54d9b8e4ce" target="_top" xlink:title=" ">
<polygon fill="white" stroke="black" points="158,-190.5 158,-209.5 316,-209.5 316,-190.5 158,-190.5"/>
<text text-anchor="middle" x="237" y="-197.5" font-family="Helvetica,sans-Serif" font-size="10.00">HF::CheckForDuplicatesNano</text>
</a>
</g>
</g>
<!-- Node1&#45;&gt;Node5 -->
<g id="edge4" class="edge">
<title>Node1&#45;&gt;Node5</title>
<path fill="none" stroke="midnightblue" d="M366.85,-162.07C351.01,-168.59 332.87,-175.58 316,-181 305.12,-184.49 293.2,-187.7 282.04,-190.44"/>
<polygon fill="midnightblue" stroke="midnightblue" points="368.49,-165.18 376.37,-158.1 365.8,-158.72 368.49,-165.18"/>
</g>
<!-- Node7 -->
<g id="node7" class="node">
<title>Node7</title>
<g id="a_node7"><a xlink:href="a00392.html#ga5bbc8687b0d04c0f177fbb8385302a56" target="_top" xlink:title="Get the number of nodes in a graph.">
<polygon fill="white" stroke="black" points="189.5,-152.5 189.5,-171.5 284.5,-171.5 284.5,-152.5 189.5,-152.5"/>
<text text-anchor="middle" x="237" y="-159.5" font-family="Helvetica,sans-Serif" font-size="10.00">GetSizeOfGraph</text>
</a>
</g>
</g>
<!-- Node1&#45;&gt;Node7 -->
<g id="edge6" class="edge">
<title>Node1&#45;&gt;Node7</title>
<path fill="none" stroke="midnightblue" d="M341.47,-150.6C322.39,-152.71 302.13,-154.94 284.65,-156.86"/>
<polygon fill="midnightblue" stroke="midnightblue" points="342.06,-154.06 351.62,-149.49 341.29,-147.1 342.06,-154.06"/>
</g>
<!-- Node9 -->
<g id="node9" class="node">
<title>Node9</title>
<g id="a_node9"><a xlink:href="a00417.html#a57418dc2df51e104cedd7bd08ee5d960" target="_top" xlink:title=" ">
<polygon fill="white" stroke="black" points="186.5,-114.5 186.5,-133.5 287.5,-133.5 287.5,-114.5 186.5,-114.5"/>
<text text-anchor="middle" x="237" y="-121.5" font-family="Helvetica,sans-Serif" font-size="10.00">GraphTests::TEST</text>
</a>
</g>
</g>
<!-- Node1&#45;&gt;Node9 -->
<g id="edge8" class="edge">
<title>Node1&#45;&gt;Node9</title>
<path fill="none" stroke="midnightblue" d="M341.47,-135.4C323.49,-133.42 304.48,-131.32 287.72,-129.48"/>
<polygon fill="midnightblue" stroke="midnightblue" points="341.29,-138.9 351.62,-136.51 342.06,-131.94 341.29,-138.9"/>
</g>
<!-- Node10 -->
<g id="node10" class="node">
<title>Node10</title>
<g id="a_node10"><a xlink:href="a00299.html#a3677846ac7d998cec3eb73845cd54a7f" target="_top" xlink:title=" ">
<polygon fill="white" stroke="black" points="216.5,-76.5 216.5,-95.5 257.5,-95.5 257.5,-76.5 216.5,-76.5"/>
<text text-anchor="middle" x="237" y="-83.5" font-family="Helvetica,sans-Serif" font-size="10.00">TEST</text>
</a>
</g>
</g>
<!-- Node1&#45;&gt;Node10 -->
<g id="edge9" class="edge">
<title>Node1&#45;&gt;Node10</title>
<path fill="none" stroke="midnightblue" d="M366.85,-123.93C351.01,-117.41 332.87,-110.42 316,-105 296.49,-98.74 273.67,-93.4 257.77,-89.99"/>
<polygon fill="midnightblue" stroke="midnightblue" points="365.8,-127.28 376.37,-127.9 368.49,-120.82 365.8,-127.28"/>
</g>
<!-- Node11 -->
<g id="node11" class="node">
<title>Node11</title>
<g id="a_node11"><a xlink:href="a00422.html#a68c9bc9bba9a42db7cf1ac6b241a9729" target="_top" xlink:title=" ">
<polygon fill="white" stroke="black" points="165.5,-38.5 165.5,-57.5 308.5,-57.5 308.5,-38.5 165.5,-38.5"/>
<text text-anchor="middle" x="237" y="-45.5" font-family="Helvetica,sans-Serif" font-size="10.00">GraphExampleTests::TEST</text>
</a>
</g>
</g>
<!-- Node1&#45;&gt;Node11 -->
<g id="edge10" class="edge">
<title>Node1&#45;&gt;Node11</title>
<path fill="none" stroke="midnightblue" d="M388.31,-120.38C370.31,-103.3 343.51,-80.57 316,-67 308.25,-63.18 299.68,-60.09 291.14,-57.61"/>
<polygon fill="midnightblue" stroke="midnightblue" points="386.31,-123.32 395.92,-127.78 391.19,-118.3 386.31,-123.32"/>
</g>
<!-- Node12 -->
<g id="node12" class="node">
<title>Node12</title>
<g id="a_node12"><a xlink:href="a00414.html#a88692408fbb27499dd81e826fe4dc657" target="_top" xlink:title=" ">
<polygon fill="white" stroke="black" points="176,-0.5 176,-19.5 298,-19.5 298,-0.5 176,-0.5"/>
<text text-anchor="middle" x="237" y="-7.5" font-family="Helvetica,sans-Serif" font-size="10.00">CInterfaceTests::TEST</text>
</a>
</g>
</g>
<!-- Node1&#45;&gt;Node12 -->
<g id="edge11" class="edge">
<title>Node1&#45;&gt;Node12</title>
<path fill="none" stroke="midnightblue" d="M396.99,-118.86C381.06,-92.67 352.11,-51.58 316,-29 309.74,-25.08 302.72,-21.97 295.54,-19.51"/>
<polygon fill="midnightblue" stroke="midnightblue" points="394.16,-120.95 402.26,-127.78 400.18,-117.39 394.16,-120.95"/>
</g>
<!-- Node4 -->
<g id="node4" class="node">
<title>Node4</title>
<g id="a_node4"><a xlink:href="a00396.html#ad4d7fe23b2913d7e6f0bd00a9730ea10" target="_top" xlink:title=" ">
<polygon fill="white" stroke="black" points="31.5,-228.5 31.5,-247.5 90.5,-247.5 90.5,-228.5 31.5,-228.5"/>
<text text-anchor="middle" x="61" y="-235.5" font-family="Helvetica,sans-Serif" font-size="10.00">HF::TEST</text>
</a>
</g>
</g>
<!-- Node3&#45;&gt;Node4 -->
<g id="edge3" class="edge">
<title>Node3&#45;&gt;Node4</title>
<path fill="none" stroke="midnightblue" d="M160.58,-238C135.83,-238 109.81,-238 90.72,-238"/>
<polygon fill="midnightblue" stroke="midnightblue" points="160.71,-241.5 170.71,-238 160.71,-234.5 160.71,-241.5"/>
</g>
<!-- Node6 -->
<g id="node6" class="node">
<title>Node6</title>
<g id="a_node6"><a xlink:href="a00396.html#a1c87886288259aba339494ad1602b311" target="_top" xlink:title=" ">
<polygon fill="white" stroke="black" points="31.5,-190.5 31.5,-209.5 90.5,-209.5 90.5,-190.5 31.5,-190.5"/>
<text text-anchor="middle" x="61" y="-197.5" font-family="Helvetica,sans-Serif" font-size="10.00">HF::TEST</text>
</a>
</g>
</g>
<!-- Node5&#45;&gt;Node6 -->
<g id="edge5" class="edge">
<title>Node5&#45;&gt;Node6</title>
<path fill="none" stroke="midnightblue" d="M147.73,-200C126.99,-200 106.34,-200 90.5,-200"/>
<polygon fill="midnightblue" stroke="midnightblue" points="147.91,-203.5 157.91,-200 147.91,-196.5 147.91,-203.5"/>
</g>
<!-- Node8 -->
<g id="node8" class="node">
<title>Node8</title>
<g id="a_node8"><a xlink:href="a00414.html#a85df9453c51b1a79c493f8ab5222a405" target="_top" xlink:title=" ">
<polygon fill="white" stroke="black" points="0,-152.5 0,-171.5 122,-171.5 122,-152.5 0,-152.5"/>
<text text-anchor="middle" x="61" y="-159.5" font-family="Helvetica,sans-Serif" font-size="10.00">CInterfaceTests::TEST</text>
</a>
</g>
</g>
<!-- Node7&#45;&gt;Node8 -->
<g id="edge7" class="edge">
<title>Node7&#45;&gt;Node8</title>
<path fill="none" stroke="midnightblue" d="M179.18,-162C160.94,-162 140.68,-162 122.21,-162"/>
<polygon fill="midnightblue" stroke="midnightblue" points="179.37,-165.5 189.37,-162 179.37,-158.5 179.37,-165.5"/>
</g>
</g>
</svg>
