<?xml version="1.0" encoding="UTF-8" standalone="no"?>
<!DOCTYPE svg PUBLIC "-//W3C//DTD SVG 1.1//EN"
 "http://www.w3.org/Graphics/SVG/1.1/DTD/svg11.dtd">
<!-- Generated by graphviz version 5.0.0 (20220707.1540)
 -->
<!-- Title: HF::SpatialStructures::Graph::Nodes Pages: 1 -->
<svg width="290pt" height="224pt"
 viewBox="0.00 0.00 290.00 224.00" xmlns="http://www.w3.org/2000/svg" xmlns:xlink="http://www.w3.org/1999/xlink">
<g id="graph0" class="graph" transform="scale(1 1) rotate(0) translate(4 220)">
<title>HF::SpatialStructures::Graph::Nodes</title>
<polygon fill="white" stroke="transparent" points="-4,4 -4,-220 286,-220 286,4 -4,4"/>
<!-- Node1 -->
<g id="node1" class="node">
<title>Node1</title>
<g id="a_node1"><a xlink:title="Get a list of nodes from the graph sorted by ID.">
<polygon fill="#bfbfbf" stroke="black" points="172,-71 172,-101 282,-101 282,-71 172,-71"/>
<text text-anchor="start" x="180" y="-89" font-family="Helvetica,sans-Serif" font-size="10.00">HF::SpatialStructures</text>
<text text-anchor="middle" x="227" y="-78" font-family="Helvetica,sans-Serif" font-size="10.00">::Graph::Nodes</text>
</a>
</g>
</g>
<!-- Node2 -->
<g id="node2" class="node">
<title>Node2</title>
<g id="a_node2"><a xlink:href="a00409.html#a6d12a3af69887cb335b490304138afc6" target="_top" xlink:title=" ">
<polygon fill="white" stroke="black" points="0,-174.5 0,-215.5 136,-215.5 136,-174.5 0,-174.5"/>
<text text-anchor="start" x="8" y="-203.5" font-family="Helvetica,sans-Serif" font-size="10.00">HF::SpatialStructures</text>
<text text-anchor="start" x="8" y="-192.5" font-family="Helvetica,sans-Serif" font-size="10.00">::CostAlgorithms::Calculate</text>
<text text-anchor="middle" x="68" y="-181.5" font-family="Helvetica,sans-Serif" font-size="10.00">CrossSlope</text>
</a>
</g>
</g>
<!-- Node1&#45;&gt;Node2 -->
<g id="edge1" class="edge">
<title>Node1&#45;&gt;Node2</title>
<path fill="none" stroke="midnightblue" d="M204.16,-108.56C186.81,-125.59 161.34,-148.73 136,-165 130.74,-168.37 125.05,-171.55 119.27,-174.49"/>
<polygon fill="midnightblue" stroke="midnightblue" points="206.92,-110.75 211.52,-101.2 201.97,-105.79 206.92,-110.75"/>
</g>
<!-- Node3 -->
<g id="node3" class="node">
<title>Node3</title>
<g id="a_node3"><a xlink:href="a00409.html#adbe5e58355a884494d6e99bf17fc5f7b" target="_top" xlink:title=" ">
<polygon fill="white" stroke="black" points="0,-114.5 0,-155.5 136,-155.5 136,-114.5 0,-114.5"/>
<text text-anchor="start" x="8" y="-143.5" font-family="Helvetica,sans-Serif" font-size="10.00">HF::SpatialStructures</text>
<text text-anchor="start" x="8" y="-132.5" font-family="Helvetica,sans-Serif" font-size="10.00">::CostAlgorithms::Calculate</text>
<text text-anchor="middle" x="68" y="-121.5" font-family="Helvetica,sans-Serif" font-size="10.00">EnergyExpenditure</text>
</a>
</g>
</g>
<!-- Node1&#45;&gt;Node3 -->
<g id="edge2" class="edge">
<title>Node1&#45;&gt;Node3</title>
<path fill="none" stroke="midnightblue" d="M167.91,-104.13C157.14,-107.49 145.82,-111.02 134.84,-114.45"/>
<polygon fill="midnightblue" stroke="midnightblue" points="169.11,-107.42 177.61,-101.1 167.03,-100.74 169.11,-107.42"/>
</g>
<!-- Node4 -->
<g id="node4" class="node">
<title>Node4</title>
<g id="a_node4"><a xlink:href="a00388.html#gac2583dc1ee6786b15fa4f06bfde2130a" target="_top" xlink:title="Construct a graph by performing a breadth&#45;first search of accessible space.">
<polygon fill="white" stroke="black" points="26.5,-76.5 26.5,-95.5 109.5,-95.5 109.5,-76.5 26.5,-76.5"/>
<text text-anchor="middle" x="68" y="-83.5" font-family="Helvetica,sans-Serif" font-size="10.00">GenerateGraph</text>
</a>
</g>
</g>
<!-- Node1&#45;&gt;Node4 -->
<g id="edge3" class="edge">
<title>Node1&#45;&gt;Node4</title>
<path fill="none" stroke="midnightblue" d="M161.76,-86C144.17,-86 125.6,-86 109.73,-86"/>
<polygon fill="midnightblue" stroke="midnightblue" points="161.97,-89.5 171.97,-86 161.97,-82.5 161.97,-89.5"/>
</g>
<!-- Node5 -->
<g id="node5" class="node">
<title>Node5</title>
<g id="a_node5"><a xlink:href="a00388.html#ga4dea438697ab06c4ab5e6da840bfdcfa" target="_top" xlink:title="Construct a graph by performing a breadth&#45;first search of accessible space, seperating obstacles from...">
<polygon fill="white" stroke="black" points="4.5,-38.5 4.5,-57.5 131.5,-57.5 131.5,-38.5 4.5,-38.5"/>
<text text-anchor="middle" x="68" y="-45.5" font-family="Helvetica,sans-Serif" font-size="10.00">GenerateGraphObstacles</text>
</a>
</g>
</g>
<!-- Node1&#45;&gt;Node5 -->
<g id="edge4" class="edge">
<title>Node1&#45;&gt;Node5</title>
<path fill="none" stroke="midnightblue" d="M162.25,-70.57C143.97,-66.15 124.59,-61.45 108.26,-57.5"/>
<polygon fill="midnightblue" stroke="midnightblue" points="161.43,-73.97 171.97,-72.92 163.07,-67.17 161.43,-73.97"/>
</g>
<!-- Node6 -->
<g id="node6" class="node">
<title>Node6</title>
<g id="a_node6"><a xlink:href="a00392.html#ga0cc5b82caab046c65a201e4e7be5e9d4" target="_top" xlink:title="Get a vector of every node in the given graph pointer.">
<polygon fill="white" stroke="black" points="8,-0.5 8,-19.5 128,-19.5 128,-0.5 8,-0.5"/>
<text text-anchor="middle" x="68" y="-7.5" font-family="Helvetica,sans-Serif" font-size="10.00">GetAllNodesFromGraph</text>
</a>
</g>
</g>
<!-- Node1&#45;&gt;Node6 -->
<g id="edge5" class="edge">
<title>Node1&#45;&gt;Node6</title>
<path fill="none" stroke="midnightblue" d="M197.44,-64.91C180.32,-53.04 157.71,-38.71 136,-29 127.72,-25.3 118.54,-22.14 109.7,-19.51"/>
<polygon fill="midnightblue" stroke="midnightblue" points="195.68,-67.95 205.87,-70.85 199.71,-62.23 195.68,-67.95"/>
</g>
</g>
</svg>
