<?xml version="1.0" encoding="UTF-8" standalone="no"?>
<!DOCTYPE svg PUBLIC "-//W3C//DTD SVG 1.1//EN"
 "http://www.w3.org/Graphics/SVG/1.1/DTD/svg11.dtd">
<!-- Generated by graphviz version 5.0.0 (20220707.1540)
 -->
<!-- Title: nlohmann::basic_json::rend Pages: 1 -->
<svg width="721pt" height="88pt"
 viewBox="0.00 0.00 721.00 88.00" xmlns="http://www.w3.org/2000/svg" xmlns:xlink="http://www.w3.org/1999/xlink">
<g id="graph0" class="graph" transform="scale(1 1) rotate(0) translate(4 84)">
<title>nlohmann::basic_json::rend</title>
<polygon fill="white" stroke="transparent" points="-4,4 -4,-84 717,-84 717,4 -4,4"/>
<!-- Node1 -->
<g id="node1" class="node">
<title>Node1</title>
<g id="a_node1"><a xlink:title="returns a const reverse iterator to one before the first">
<polygon fill="#bfbfbf" stroke="black" points="0,-24.5 0,-54.5 111,-54.5 111,-24.5 0,-24.5"/>
<text text-anchor="start" x="8" y="-42.5" font-family="Helvetica,sans-Serif" font-size="10.00">nlohmann::basic_json</text>
<text text-anchor="middle" x="55.5" y="-31.5" font-family="Helvetica,sans-Serif" font-size="10.00">::rend</text>
</a>
</g>
</g>
<!-- Node2 -->
<g id="node2" class="node">
<title>Node2</title>
<g id="a_node2"><a xlink:href="a01593.html#a223480466a0922267d680ec8f0722d58" target="_top" xlink:title="returns a const reverse iterator to one before the first">
<polygon fill="white" stroke="black" points="147,-24.5 147,-54.5 258,-54.5 258,-24.5 147,-24.5"/>
<text text-anchor="start" x="155" y="-42.5" font-family="Helvetica,sans-Serif" font-size="10.00">nlohmann::basic_json</text>
<text text-anchor="middle" x="202.5" y="-31.5" font-family="Helvetica,sans-Serif" font-size="10.00">::crend</text>
</a>
</g>
</g>
<!-- Node1&#45;&gt;Node2 -->
<g id="edge1" class="edge">
<title>Node1&#45;&gt;Node2</title>
<path fill="none" stroke="midnightblue" d="M111.32,-39.5C119.53,-39.5 128.06,-39.5 136.46,-39.5"/>
<polygon fill="midnightblue" stroke="midnightblue" points="136.6,-43 146.6,-39.5 136.6,-36 136.6,-43"/>
</g>
<!-- Node3 -->
<g id="node3" class="node">
<title>Node3</title>
<g id="a_node3"><a xlink:href="a01593.html#ae508c13e3ad6ce445bcaf24a2bc7d039" target="_top" xlink:title="returns a const iterator to the first element">
<polygon fill="white" stroke="black" points="294,-24.5 294,-54.5 405,-54.5 405,-24.5 294,-24.5"/>
<text text-anchor="start" x="302" y="-42.5" font-family="Helvetica,sans-Serif" font-size="10.00">nlohmann::basic_json</text>
<text text-anchor="middle" x="349.5" y="-31.5" font-family="Helvetica,sans-Serif" font-size="10.00">::cbegin</text>
</a>
</g>
</g>
<!-- Node2&#45;&gt;Node3 -->
<g id="edge2" class="edge">
<title>Node2&#45;&gt;Node3</title>
<path fill="none" stroke="midnightblue" d="M258.32,-39.5C266.53,-39.5 275.06,-39.5 283.46,-39.5"/>
<polygon fill="midnightblue" stroke="midnightblue" points="283.6,-43 293.6,-39.5 283.6,-36 283.6,-43"/>
</g>
<!-- Node4 -->
<g id="node4" class="node">
<title>Node4</title>
<g id="a_node4"><a xlink:href="a01945.html#a5d5f92c7f6848814bc82cf7e4e541820" target="_top" xlink:title="set the iterator to the first value">
<polygon fill="white" stroke="black" points="441,-24.5 441,-54.5 548,-54.5 548,-24.5 441,-24.5"/>
<text text-anchor="start" x="449" y="-42.5" font-family="Helvetica,sans-Serif" font-size="10.00">nlohmann::detail::iter</text>
<text text-anchor="middle" x="494.5" y="-31.5" font-family="Helvetica,sans-Serif" font-size="10.00">_impl::set_begin</text>
</a>
</g>
</g>
<!-- Node3&#45;&gt;Node4 -->
<g id="edge3" class="edge">
<title>Node3&#45;&gt;Node4</title>
<path fill="none" stroke="midnightblue" d="M405.38,-39.5C413.67,-39.5 422.27,-39.5 430.71,-39.5"/>
<polygon fill="midnightblue" stroke="midnightblue" points="430.89,-43 440.89,-39.5 430.89,-36 430.89,-43"/>
</g>
<!-- Node5 -->
<g id="node5" class="node">
<title>Node5</title>
<g id="a_node5"><a xlink:href="a01937.html#a9d9b005906106e12aed738f97d7fee42" target="_top" xlink:title="set iterator to a defined beginning">
<polygon fill="white" stroke="black" points="584,-49.5 584,-79.5 713,-79.5 713,-49.5 584,-49.5"/>
<text text-anchor="start" x="592" y="-67.5" font-family="Helvetica,sans-Serif" font-size="10.00">nlohmann::detail::primitive</text>
<text text-anchor="middle" x="648.5" y="-56.5" font-family="Helvetica,sans-Serif" font-size="10.00">_iterator_t::set_begin</text>
</a>
</g>
</g>
<!-- Node4&#45;&gt;Node5 -->
<g id="edge4" class="edge">
<title>Node4&#45;&gt;Node5</title>
<path fill="none" stroke="midnightblue" d="M548.24,-48.17C556.49,-49.53 565.16,-50.96 573.78,-52.38"/>
<polygon fill="midnightblue" stroke="midnightblue" points="573.43,-55.86 583.86,-54.03 574.56,-48.96 573.43,-55.86"/>
</g>
<!-- Node6 -->
<g id="node6" class="node">
<title>Node6</title>
<g id="a_node6"><a xlink:href="a01937.html#ad26a823483846a12d890c3feed3097eb" target="_top" xlink:title="set iterator to a defined past the end">
<polygon fill="white" stroke="black" points="584,-0.5 584,-30.5 713,-30.5 713,-0.5 584,-0.5"/>
<text text-anchor="start" x="592" y="-18.5" font-family="Helvetica,sans-Serif" font-size="10.00">nlohmann::detail::primitive</text>
<text text-anchor="middle" x="648.5" y="-7.5" font-family="Helvetica,sans-Serif" font-size="10.00">_iterator_t::set_end</text>
</a>
</g>
</g>
<!-- Node4&#45;&gt;Node6 -->
<g id="edge5" class="edge">
<title>Node4&#45;&gt;Node6</title>
<path fill="none" stroke="midnightblue" d="M548.24,-31.17C556.49,-29.87 565.16,-28.5 573.78,-27.14"/>
<polygon fill="midnightblue" stroke="midnightblue" points="574.53,-30.56 583.86,-25.55 573.44,-23.65 574.53,-30.56"/>
</g>
</g>
</svg>
