<?xml version="1.0" encoding="UTF-8" standalone="no"?>
<!DOCTYPE svg PUBLIC "-//W3C//DTD SVG 1.1//EN"
 "http://www.w3.org/Graphics/SVG/1.1/DTD/svg11.dtd">
<!-- Generated by graphviz version 8.0.5 (20230430.1635)
 -->
<!-- Title: nlohmann::json_pointer::replace_substring Pages: 1 -->
<svg width="576pt" height="176pt"
 viewBox="0.00 0.00 576.00 176.00" xmlns="http://www.w3.org/2000/svg" xmlns:xlink="http://www.w3.org/1999/xlink">
<g id="graph0" class="graph" transform="scale(1 1) rotate(0) translate(4 172)">
<title>nlohmann::json_pointer::replace_substring</title>
<!-- Node1 -->
<g id="node1" class="node">
<title>Node1</title>
<g id="a_node1"><a xlink:title="replace all occurrences of a substring by another string">
<polygon fill="#999999" stroke="#666666" points="568,-57 451.5,-57 451.5,-25 568,-25 568,-57"/>
<text text-anchor="start" x="459.5" y="-43.5" font-family="Helvetica,sans-Serif" font-size="10.00">nlohmann::json_pointer</text>
<text text-anchor="middle" x="509.75" y="-31.5" font-family="Helvetica,sans-Serif" font-size="10.00">::replace_substring</text>
</a>
</g>
</g>
<!-- Node2 -->
<g id="node2" class="node">
<title>Node2</title>
<g id="a_node2"><a xlink:href="a01597.html#a8abf3577f9a0087f29a233893cdc73ad" target="_top" xlink:title="escape &quot;~&quot; to &quot;~0&quot; and &quot;/&quot; to &quot;~1&quot;">
<polygon fill="white" stroke="#666666" points="415.5,-82 299,-82 299,-50 415.5,-50 415.5,-82"/>
<text text-anchor="start" x="307" y="-68.5" font-family="Helvetica,sans-Serif" font-size="10.00">nlohmann::json_pointer</text>
<text text-anchor="middle" x="357.25" y="-56.5" font-family="Helvetica,sans-Serif" font-size="10.00">::escape</text>
</a>
</g>
</g>
<!-- Node1&#45;&gt;Node2 -->
<g id="edge1" class="edge">
<title>Node1&#45;&gt;Node2</title>
<path fill="none" stroke="#63b8ff" d="M440.66,-52.31C432.39,-53.68 424.01,-55.08 415.92,-56.42"/>
<polygon fill="#63b8ff" stroke="#63b8ff" points="441.13,-55.61 450.42,-50.52 439.98,-48.71 441.13,-55.61"/>
</g>
<!-- Node6 -->
<g id="node6" class="node">
<title>Node6</title>
<g id="a_node6"><a xlink:href="a01597.html#ab85442d5fbcc289b79beeefc2175446f" target="_top" xlink:title="unescape &quot;~1&quot; to tilde and &quot;~0&quot; to slash (order is important!)">
<polygon fill="white" stroke="#666666" points="415.5,-32 299,-32 299,0 415.5,0 415.5,-32"/>
<text text-anchor="start" x="307" y="-18.5" font-family="Helvetica,sans-Serif" font-size="10.00">nlohmann::json_pointer</text>
<text text-anchor="middle" x="357.25" y="-6.5" font-family="Helvetica,sans-Serif" font-size="10.00">::unescape</text>
</a>
</g>
</g>
<!-- Node1&#45;&gt;Node6 -->
<g id="edge7" class="edge">
<title>Node1&#45;&gt;Node6</title>
<path fill="none" stroke="#63b8ff" d="M440.66,-29.69C432.39,-28.32 424.01,-26.92 415.92,-25.58"/>
<polygon fill="#63b8ff" stroke="#63b8ff" points="439.98,-33.29 450.42,-31.48 441.13,-26.39 439.98,-33.29"/>
</g>
<!-- Node3 -->
<g id="node3" class="node">
<title>Node3</title>
<g id="a_node3"><a xlink:href="a01593.html#a1c1f21327df91a4dd6c5f5a107240385" target="_top" xlink:title="creates a diff as a JSON patch">
<polygon fill="white" stroke="#666666" points="260,-150 149.5,-150 149.5,-118 260,-118 260,-150"/>
<text text-anchor="start" x="157.5" y="-136.5" font-family="Helvetica,sans-Serif" font-size="10.00">nlohmann::basic_json</text>
<text text-anchor="middle" x="204.75" y="-124.5" font-family="Helvetica,sans-Serif" font-size="10.00">::diff</text>
</a>
</g>
</g>
<!-- Node2&#45;&gt;Node3 -->
<g id="edge2" class="edge">
<title>Node2&#45;&gt;Node3</title>
<path fill="none" stroke="#63b8ff" d="M311.57,-86.83C296.2,-93.93 278.88,-101.87 263,-109 256.77,-111.8 250.13,-114.73 243.68,-117.57"/>
<polygon fill="#63b8ff" stroke="#63b8ff" points="312.74,-89.68 320.34,-82.3 309.8,-83.33 312.74,-89.68"/>
</g>
<!-- Node4 -->
<g id="node4" class="node">
<title>Node4</title>
<g id="a_node4"><a xlink:href="a01597.html#ab0d7759d0caa6a0c0187916da28e6ee7" target="_top" xlink:title=" ">
<polygon fill="white" stroke="#666666" points="263,-82 146.5,-82 146.5,-50 263,-50 263,-82"/>
<text text-anchor="start" x="154.5" y="-68.5" font-family="Helvetica,sans-Serif" font-size="10.00">nlohmann::json_pointer</text>
<text text-anchor="middle" x="204.75" y="-56.5" font-family="Helvetica,sans-Serif" font-size="10.00">::flatten</text>
</a>
</g>
</g>
<!-- Node2&#45;&gt;Node4 -->
<g id="edge4" class="edge">
<title>Node2&#45;&gt;Node4</title>
<path fill="none" stroke="#63b8ff" d="M288.16,-66C279.89,-66 271.51,-66 263.42,-66"/>
<polygon fill="#63b8ff" stroke="#63b8ff" points="287.92,-69.5 297.92,-66 287.92,-62.5 287.92,-69.5"/>
</g>
<!-- Node3&#45;&gt;Node3 -->
<g id="edge3" class="edge">
<title>Node3&#45;&gt;Node3</title>
<path fill="none" stroke="#63b8ff" d="M230.34,-161.05C226.45,-165.19 217.92,-168 204.75,-168 181.97,-168 173.08,-159.58 178.06,-150.44"/>
<polygon fill="#63b8ff" stroke="#63b8ff" points="233.88,-161.75 231.44,-151.44 226.92,-161.03 233.88,-161.75"/>
</g>
<!-- Node4&#45;&gt;Node4 -->
<g id="edge6" class="edge">
<title>Node4&#45;&gt;Node4</title>
<path fill="none" stroke="#63b8ff" d="M230.34,-93.05C226.45,-97.19 217.92,-100 204.75,-100 181.97,-100 173.08,-91.58 178.06,-82.44"/>
<polygon fill="#63b8ff" stroke="#63b8ff" points="233.88,-93.75 231.44,-83.44 226.92,-93.03 233.88,-93.75"/>
</g>
<!-- Node5 -->
<g id="node5" class="node">
<title>Node5</title>
<g id="a_node5"><a xlink:href="a01593.html#ab7aa6e048e659481a036f2d872c7cba6" target="_top" xlink:title="return flattened JSON value">
<polygon fill="white" stroke="#666666" points="110.5,-82 0,-82 0,-50 110.5,-50 110.5,-82"/>
<text text-anchor="start" x="8" y="-68.5" font-family="Helvetica,sans-Serif" font-size="10.00">nlohmann::basic_json</text>
<text text-anchor="middle" x="55.25" y="-56.5" font-family="Helvetica,sans-Serif" font-size="10.00">::flatten</text>
</a>
</g>
</g>
<!-- Node4&#45;&gt;Node5 -->
<g id="edge5" class="edge">
<title>Node4&#45;&gt;Node5</title>
<path fill="none" stroke="#63b8ff" d="M135.53,-66C127.27,-66 118.91,-66 110.89,-66"/>
<polygon fill="#63b8ff" stroke="#63b8ff" points="135.3,-69.5 145.3,-66 135.3,-62.5 135.3,-69.5"/>
</g>
<!-- Node7 -->
<g id="node7" class="node">
<title>Node7</title>
<g id="a_node7"><a xlink:href="a01597.html#afe76eec98c85eeaf61638b3b40d14575" target="_top" xlink:title="split the string input to reference tokens">
<polygon fill="white" stroke="#666666" points="263,-32 146.5,-32 146.5,0 263,0 263,-32"/>
<text text-anchor="start" x="154.5" y="-18.5" font-family="Helvetica,sans-Serif" font-size="10.00">nlohmann::json_pointer</text>
<text text-anchor="middle" x="204.75" y="-6.5" font-family="Helvetica,sans-Serif" font-size="10.00">::split</text>
</a>
</g>
</g>
<!-- Node6&#45;&gt;Node7 -->
<g id="edge8" class="edge">
<title>Node6&#45;&gt;Node7</title>
<path fill="none" stroke="#63b8ff" d="M288.16,-16C279.89,-16 271.51,-16 263.42,-16"/>
<polygon fill="#63b8ff" stroke="#63b8ff" points="287.92,-19.5 297.92,-16 287.92,-12.5 287.92,-19.5"/>
</g>
</g>
</svg>
