<?xml version="1.0" encoding="UTF-8" standalone="no"?>
<!DOCTYPE svg PUBLIC "-//W3C//DTD SVG 1.1//EN"
 "http://www.w3.org/Graphics/SVG/1.1/DTD/svg11.dtd">
<!-- Generated by graphviz version 8.0.5 (20230430.1635)
 -->
<!-- Title: nlohmann::basic_json::size Pages: 1 -->
<svg width="265pt" height="208pt"
 viewBox="0.00 0.00 265.00 208.00" xmlns="http://www.w3.org/2000/svg" xmlns:xlink="http://www.w3.org/1999/xlink">
<g id="graph0" class="graph" transform="scale(1 1) rotate(0) translate(4 204)">
<title>nlohmann::basic_json::size</title>
<!-- Node1 -->
<g id="node1" class="node">
<title>Node1</title>
<g id="a_node1"><a xlink:title="returns the number of elements">
<polygon fill="#999999" stroke="#666666" points="257,-107 146.5,-107 146.5,-75 257,-75 257,-107"/>
<text text-anchor="start" x="154.5" y="-93.5" font-family="Helvetica,sans-Serif" font-size="10.00">nlohmann::basic_json</text>
<text text-anchor="middle" x="201.75" y="-81.5" font-family="Helvetica,sans-Serif" font-size="10.00">::size</text>
</a>
</g>
</g>
<!-- Node2 -->
<g id="node2" class="node">
<title>Node2</title>
<g id="a_node2"><a xlink:href="a01593.html#a1c1f21327df91a4dd6c5f5a107240385" target="_top" xlink:title="creates a diff as a JSON patch">
<polygon fill="white" stroke="#666666" points="110.5,-182 0,-182 0,-150 110.5,-150 110.5,-182"/>
<text text-anchor="start" x="8" y="-168.5" font-family="Helvetica,sans-Serif" font-size="10.00">nlohmann::basic_json</text>
<text text-anchor="middle" x="55.25" y="-156.5" font-family="Helvetica,sans-Serif" font-size="10.00">::diff</text>
</a>
</g>
</g>
<!-- Node1&#45;&gt;Node2 -->
<g id="edge1" class="edge">
<title>Node1&#45;&gt;Node2</title>
<path fill="none" stroke="#63b8ff" d="M163.02,-112.72C146.97,-121.74 127.97,-132.15 110.5,-141 104.86,-143.86 98.82,-146.77 92.9,-149.56"/>
<polygon fill="#63b8ff" stroke="#63b8ff" points="164.61,-115.28 171.59,-107.31 161.16,-109.19 164.61,-115.28"/>
</g>
<!-- Node3 -->
<g id="node3" class="node">
<title>Node3</title>
<g id="a_node3"><a xlink:href="a01593.html#a221b943d3228488c14225e55f726cc26" target="_top" xlink:title="remove element from a JSON array given an index">
<polygon fill="white" stroke="#666666" points="110.5,-132 0,-132 0,-100 110.5,-100 110.5,-132"/>
<text text-anchor="start" x="8" y="-118.5" font-family="Helvetica,sans-Serif" font-size="10.00">nlohmann::basic_json</text>
<text text-anchor="middle" x="55.25" y="-106.5" font-family="Helvetica,sans-Serif" font-size="10.00">::erase</text>
</a>
</g>
</g>
<!-- Node1&#45;&gt;Node3 -->
<g id="edge3" class="edge">
<title>Node1&#45;&gt;Node3</title>
<path fill="none" stroke="#63b8ff" d="M135.46,-102.3C127.27,-103.71 118.96,-105.15 110.96,-106.54"/>
<polygon fill="#63b8ff" stroke="#63b8ff" points="135.86,-105.61 145.12,-100.45 134.67,-98.71 135.86,-105.61"/>
</g>
<!-- Node4 -->
<g id="node4" class="node">
<title>Node4</title>
<g id="a_node4"><a xlink:href="a01593.html#a1b46c6631e30b8394e89bd1546d69736" target="_top" xlink:title="returns the maximum possible number of elements">
<polygon fill="white" stroke="#666666" points="110.5,-82 0,-82 0,-50 110.5,-50 110.5,-82"/>
<text text-anchor="start" x="8" y="-68.5" font-family="Helvetica,sans-Serif" font-size="10.00">nlohmann::basic_json</text>
<text text-anchor="middle" x="55.25" y="-56.5" font-family="Helvetica,sans-Serif" font-size="10.00">::max_size</text>
</a>
</g>
</g>
<!-- Node1&#45;&gt;Node4 -->
<g id="edge4" class="edge">
<title>Node1&#45;&gt;Node4</title>
<path fill="none" stroke="#63b8ff" d="M135.46,-79.7C127.27,-78.29 118.96,-76.85 110.96,-75.46"/>
<polygon fill="#63b8ff" stroke="#63b8ff" points="134.67,-83.29 145.12,-81.55 135.86,-76.39 134.67,-83.29"/>
</g>
<!-- Node5 -->
<g id="node5" class="node">
<title>Node5</title>
<g id="a_node5"><a xlink:href="a01593.html#adcc786998f220a5b3083ee8a37c4553e" target="_top" xlink:title="applies a JSON patch">
<polygon fill="white" stroke="#666666" points="110.5,-32 0,-32 0,0 110.5,0 110.5,-32"/>
<text text-anchor="start" x="8" y="-18.5" font-family="Helvetica,sans-Serif" font-size="10.00">nlohmann::basic_json</text>
<text text-anchor="middle" x="55.25" y="-6.5" font-family="Helvetica,sans-Serif" font-size="10.00">::patch</text>
</a>
</g>
</g>
<!-- Node1&#45;&gt;Node5 -->
<g id="edge5" class="edge">
<title>Node1&#45;&gt;Node5</title>
<path fill="none" stroke="#63b8ff" d="M163.02,-69.28C146.97,-60.26 127.97,-49.85 110.5,-41 104.86,-38.14 98.82,-35.23 92.9,-32.44"/>
<polygon fill="#63b8ff" stroke="#63b8ff" points="161.16,-72.81 171.59,-74.69 164.61,-66.72 161.16,-72.81"/>
</g>
<!-- Node2&#45;&gt;Node2 -->
<g id="edge2" class="edge">
<title>Node2&#45;&gt;Node2</title>
<path fill="none" stroke="#63b8ff" d="M80.32,-193.05C76.51,-197.19 68.15,-200 55.25,-200 32.93,-200 24.21,-191.58 29.1,-182.44"/>
<polygon fill="#63b8ff" stroke="#63b8ff" points="83.87,-193.75 81.4,-183.44 76.91,-193.04 83.87,-193.75"/>
</g>
</g>
</svg>
