<?xml version="1.0" encoding="UTF-8" standalone="no"?>
<!DOCTYPE svg PUBLIC "-//W3C//DTD SVG 1.1//EN"
 "http://www.w3.org/Graphics/SVG/1.1/DTD/svg11.dtd">
<!-- Generated by graphviz version 4.0.0 (20220529.0937)
 -->
<!-- Title: nlohmann::basic_json::update Pages: 1 -->
<svg width="585pt" height="284pt"
 viewBox="0.00 0.00 585.00 284.00" xmlns="http://www.w3.org/2000/svg" xmlns:xlink="http://www.w3.org/1999/xlink">
<g id="graph0" class="graph" transform="scale(1 1) rotate(0) translate(4 280)">
<title>nlohmann::basic_json::update</title>
<polygon fill="white" stroke="transparent" points="-4,4 -4,-280 581,-280 581,4 -4,4"/>
<!-- Node1 -->
<g id="node1" class="node">
<title>Node1</title>
<g id="a_node1"><a xlink:title="updates a JSON object from another object, overwriting existing keys">
<polygon fill="#bfbfbf" stroke="black" points="0,-122.5 0,-152.5 111,-152.5 111,-122.5 0,-122.5"/>
<text text-anchor="start" x="8" y="-140.5" font-family="Helvetica,sans-Serif" font-size="10.00">nlohmann::basic_json</text>
<text text-anchor="middle" x="55.5" y="-129.5" font-family="Helvetica,sans-Serif" font-size="10.00">::update</text>
</a>
</g>
</g>
<!-- Node2 -->
<g id="node2" class="node">
<title>Node2</title>
<g id="a_node2"><a xlink:href="a01593.html#aa7e7b1bdb6e9dbcfa5e284e8a2fb6464" target="_top" xlink:title="checks the class invariants">
<polygon fill="white" stroke="black" points="151.5,-245.5 151.5,-275.5 262.5,-275.5 262.5,-245.5 151.5,-245.5"/>
<text text-anchor="start" x="159.5" y="-263.5" font-family="Helvetica,sans-Serif" font-size="10.00">nlohmann::basic_json</text>
<text text-anchor="middle" x="207" y="-252.5" font-family="Helvetica,sans-Serif" font-size="10.00">::assert_invariant</text>
</a>
</g>
</g>
<!-- Node1&#45;&gt;Node2 -->
<g id="edge1" class="edge">
<title>Node1&#45;&gt;Node2</title>
<path fill="none" stroke="midnightblue" d="M66.85,-152.52C82.18,-173.77 112.79,-212.68 147,-236.5 149.1,-237.97 151.31,-239.36 153.59,-240.69"/>
<polygon fill="midnightblue" stroke="midnightblue" points="152.14,-243.88 162.61,-245.48 155.42,-237.7 152.14,-243.88"/>
</g>
<!-- Node3 -->
<g id="node3" class="node">
<title>Node3</title>
<g id="a_node3"><a xlink:href="a01501.html#a4e849260a3caa1b288c7e619130c6c09" target="_top" xlink:title=" ">
<polygon fill="white" stroke="black" points="147,-196.5 147,-226.5 267,-226.5 267,-196.5 147,-196.5"/>
<text text-anchor="start" x="155" y="-214.5" font-family="Helvetica,sans-Serif" font-size="10.00">nlohmann::detail::invalid</text>
<text text-anchor="middle" x="207" y="-203.5" font-family="Helvetica,sans-Serif" font-size="10.00">_iterator::create</text>
</a>
</g>
</g>
<!-- Node1&#45;&gt;Node3 -->
<g id="edge2" class="edge">
<title>Node1&#45;&gt;Node3</title>
<path fill="none" stroke="midnightblue" d="M81.82,-152.55C99.74,-162.93 124.48,-176.75 147,-187.5 150.39,-189.12 153.92,-190.73 157.5,-192.31"/>
<polygon fill="midnightblue" stroke="midnightblue" points="156.43,-195.66 167,-196.4 159.19,-189.23 156.43,-195.66"/>
</g>
<!-- Node7 -->
<g id="node7" class="node">
<title>Node7</title>
<g id="a_node7"><a xlink:href="a01505.html#aecc083aea4b698c33d042670ba50c10f" target="_top" xlink:title=" ">
<polygon fill="white" stroke="black" points="150.5,-147.5 150.5,-177.5 263.5,-177.5 263.5,-147.5 150.5,-147.5"/>
<text text-anchor="start" x="158.5" y="-165.5" font-family="Helvetica,sans-Serif" font-size="10.00">nlohmann::detail::type</text>
<text text-anchor="middle" x="207" y="-154.5" font-family="Helvetica,sans-Serif" font-size="10.00">_error::create</text>
</a>
</g>
</g>
<!-- Node1&#45;&gt;Node7 -->
<g id="edge6" class="edge">
<title>Node1&#45;&gt;Node7</title>
<path fill="none" stroke="midnightblue" d="M111.32,-146.67C120.78,-148.25 130.71,-149.91 140.42,-151.53"/>
<polygon fill="midnightblue" stroke="midnightblue" points="140,-155.01 150.44,-153.21 141.15,-148.11 140,-155.01"/>
</g>
<!-- Node9 -->
<g id="node9" class="node">
<title>Node9</title>
<g id="a_node9"><a xlink:href="a01593.html#aedc7afad96292b5ab61a2e0ad3067f5f" target="_top" xlink:title="return whether value is null">
<polygon fill="white" stroke="black" points="151.5,-98.5 151.5,-128.5 262.5,-128.5 262.5,-98.5 151.5,-98.5"/>
<text text-anchor="start" x="159.5" y="-116.5" font-family="Helvetica,sans-Serif" font-size="10.00">nlohmann::basic_json</text>
<text text-anchor="middle" x="207" y="-105.5" font-family="Helvetica,sans-Serif" font-size="10.00">::is_null</text>
</a>
</g>
</g>
<!-- Node1&#45;&gt;Node9 -->
<g id="edge9" class="edge">
<title>Node1&#45;&gt;Node9</title>
<path fill="none" stroke="midnightblue" d="M111.32,-128.7C121.07,-127.13 131.31,-125.49 141.3,-123.89"/>
<polygon fill="midnightblue" stroke="midnightblue" points="141.87,-127.34 151.19,-122.3 140.76,-120.43 141.87,-127.34"/>
</g>
<!-- Node10 -->
<g id="node10" class="node">
<title>Node10</title>
<g id="a_node10"><a xlink:href="a01593.html#a57e8411a770a6263d6d8f2116c37f3aa" target="_top" xlink:title="return whether value is an object">
<polygon fill="white" stroke="black" points="151.5,-49.5 151.5,-79.5 262.5,-79.5 262.5,-49.5 151.5,-49.5"/>
<text text-anchor="start" x="159.5" y="-67.5" font-family="Helvetica,sans-Serif" font-size="10.00">nlohmann::basic_json</text>
<text text-anchor="middle" x="207" y="-56.5" font-family="Helvetica,sans-Serif" font-size="10.00">::is_object</text>
</a>
</g>
</g>
<!-- Node1&#45;&gt;Node10 -->
<g id="edge10" class="edge">
<title>Node1&#45;&gt;Node10</title>
<path fill="none" stroke="midnightblue" d="M82.64,-122.36C100.5,-112.25 124.87,-98.95 147,-88.5 150.55,-86.82 154.26,-85.15 158,-83.51"/>
<polygon fill="midnightblue" stroke="midnightblue" points="159.51,-86.67 167.33,-79.52 156.76,-80.23 159.51,-86.67"/>
</g>
<!-- Node11 -->
<g id="node11" class="node">
<title>Node11</title>
<g id="a_node11"><a xlink:href="a01593.html#ab8811fc4eab6091b32b34b3ac3e90474" target="_top" xlink:title="return the type as string">
<polygon fill="white" stroke="black" points="151.5,-0.5 151.5,-30.5 262.5,-30.5 262.5,-0.5 151.5,-0.5"/>
<text text-anchor="start" x="159.5" y="-18.5" font-family="Helvetica,sans-Serif" font-size="10.00">nlohmann::basic_json</text>
<text text-anchor="middle" x="207" y="-7.5" font-family="Helvetica,sans-Serif" font-size="10.00">::type_name</text>
</a>
</g>
</g>
<!-- Node1&#45;&gt;Node11 -->
<g id="edge11" class="edge">
<title>Node1&#45;&gt;Node11</title>
<path fill="none" stroke="midnightblue" d="M67.15,-122.29C82.6,-101.18 113.11,-62.97 147,-39.5 149.11,-38.04 151.32,-36.65 153.59,-35.32"/>
<polygon fill="midnightblue" stroke="midnightblue" points="155.42,-38.31 162.63,-30.54 152.15,-32.13 155.42,-38.31"/>
</g>
<!-- Node4 -->
<g id="node4" class="node">
<title>Node4</title>
<g id="a_node4"><a xlink:href="a01501.html#adf4a6697420f3bddb4addfc0b98f6ee2" target="_top" xlink:title=" ">
<polygon fill="white" stroke="black" points="311,-220.5 311,-250.5 431,-250.5 431,-220.5 311,-220.5"/>
<text text-anchor="start" x="319" y="-238.5" font-family="Helvetica,sans-Serif" font-size="10.00">nlohmann::detail::invalid</text>
<text text-anchor="middle" x="371" y="-227.5" font-family="Helvetica,sans-Serif" font-size="10.00">_iterator::invalid_iterator</text>
</a>
</g>
</g>
<!-- Node3&#45;&gt;Node4 -->
<g id="edge3" class="edge">
<title>Node3&#45;&gt;Node4</title>
<path fill="none" stroke="midnightblue" d="M267.4,-220.3C278.26,-221.91 289.67,-223.6 300.78,-225.25"/>
<polygon fill="midnightblue" stroke="midnightblue" points="300.47,-228.74 310.88,-226.74 301.5,-221.81 300.47,-228.74"/>
</g>
<!-- Node5 -->
<g id="node5" class="node">
<title>Node5</title>
<g id="a_node5"><a xlink:href="a01493.html#abf41a7e9178356314082284e6cfea278" target="_top" xlink:title=" ">
<polygon fill="white" stroke="black" points="303,-171.5 303,-201.5 439,-201.5 439,-171.5 303,-171.5"/>
<text text-anchor="start" x="311" y="-189.5" font-family="Helvetica,sans-Serif" font-size="10.00">nlohmann::detail::exception</text>
<text text-anchor="middle" x="371" y="-178.5" font-family="Helvetica,sans-Serif" font-size="10.00">::name</text>
</a>
</g>
</g>
<!-- Node3&#45;&gt;Node5 -->
<g id="edge4" class="edge">
<title>Node3&#45;&gt;Node5</title>
<path fill="none" stroke="midnightblue" d="M267.4,-202.33C275.71,-201.05 284.35,-199.72 292.92,-198.39"/>
<polygon fill="midnightblue" stroke="midnightblue" points="293.59,-201.83 302.94,-196.85 292.52,-194.92 293.59,-201.83"/>
</g>
<!-- Node6 -->
<g id="node6" class="node">
<title>Node6</title>
<g id="a_node6"><a xlink:href="a00410.html#a6ce645a0b8717757e096a5b5773b7a16" target="_top" xlink:title="user&#45;defined to_string function for JSON values">
<polygon fill="white" stroke="black" points="475,-177 475,-196 577,-196 577,-177 475,-177"/>
<text text-anchor="middle" x="526" y="-184" font-family="Helvetica,sans-Serif" font-size="10.00">nlohmann::to_string</text>
</a>
</g>
</g>
<!-- Node5&#45;&gt;Node6 -->
<g id="edge5" class="edge">
<title>Node5&#45;&gt;Node6</title>
<path fill="none" stroke="midnightblue" d="M439.11,-186.5C447.67,-186.5 456.39,-186.5 464.84,-186.5"/>
<polygon fill="midnightblue" stroke="midnightblue" points="464.97,-190 474.97,-186.5 464.97,-183 464.97,-190"/>
</g>
<!-- Node7&#45;&gt;Node5 -->
<g id="edge8" class="edge">
<title>Node7&#45;&gt;Node5</title>
<path fill="none" stroke="midnightblue" d="M263.75,-170.76C273.13,-172.15 283,-173.61 292.8,-175.06"/>
<polygon fill="midnightblue" stroke="midnightblue" points="292.56,-178.57 302.96,-176.57 293.59,-171.64 292.56,-178.57"/>
</g>
<!-- Node8 -->
<g id="node8" class="node">
<title>Node8</title>
<g id="a_node8"><a xlink:href="a01505.html#aa01edaa0bf18b853368f0b900e485cd7" target="_top" xlink:title=" ">
<polygon fill="white" stroke="black" points="314.5,-122.5 314.5,-152.5 427.5,-152.5 427.5,-122.5 314.5,-122.5"/>
<text text-anchor="start" x="322.5" y="-140.5" font-family="Helvetica,sans-Serif" font-size="10.00">nlohmann::detail::type</text>
<text text-anchor="middle" x="371" y="-129.5" font-family="Helvetica,sans-Serif" font-size="10.00">_error::type_error</text>
</a>
</g>
</g>
<!-- Node7&#45;&gt;Node8 -->
<g id="edge7" class="edge">
<title>Node7&#45;&gt;Node8</title>
<path fill="none" stroke="midnightblue" d="M263.75,-153.9C276.81,-151.88 290.83,-149.72 304.28,-147.64"/>
<polygon fill="midnightblue" stroke="midnightblue" points="305.07,-151.06 314.42,-146.08 304,-144.14 305.07,-151.06"/>
</g>
</g>
</svg>
