<?xml version="1.0" encoding="UTF-8" standalone="no"?>
<!DOCTYPE svg PUBLIC "-//W3C//DTD SVG 1.1//EN"
 "http://www.w3.org/Graphics/SVG/1.1/DTD/svg11.dtd">
<!-- Generated by graphviz version 4.0.0 (20220529.0937)
 -->
<!-- Title: nlohmann::basic_json::find Pages: 1 -->
<svg width="421pt" height="179pt"
 viewBox="0.00 0.00 421.00 179.00" xmlns="http://www.w3.org/2000/svg" xmlns:xlink="http://www.w3.org/1999/xlink">
<g id="graph0" class="graph" transform="scale(1 1) rotate(0) translate(4 175)">
<title>nlohmann::basic_json::find</title>
<polygon fill="white" stroke="transparent" points="-4,4 -4,-175 417,-175 417,4 -4,4"/>
<!-- Node1 -->
<g id="node1" class="node">
<title>Node1</title>
<g id="a_node1"><a xlink:title="find an element in a JSON object">
<polygon fill="#bfbfbf" stroke="black" points="302,-73.5 302,-103.5 413,-103.5 413,-73.5 302,-73.5"/>
<text text-anchor="start" x="310" y="-91.5" font-family="Helvetica,sans-Serif" font-size="10.00">nlohmann::basic_json</text>
<text text-anchor="middle" x="357.5" y="-80.5" font-family="Helvetica,sans-Serif" font-size="10.00">::find</text>
</a>
</g>
</g>
<!-- Node2 -->
<g id="node2" class="node">
<title>Node2</title>
<g id="a_node2"><a xlink:href="a01593.html#a1c1f21327df91a4dd6c5f5a107240385" target="_top" xlink:title="creates a diff as a JSON patch">
<polygon fill="white" stroke="black" points="155,-122.5 155,-152.5 266,-152.5 266,-122.5 155,-122.5"/>
<text text-anchor="start" x="163" y="-140.5" font-family="Helvetica,sans-Serif" font-size="10.00">nlohmann::basic_json</text>
<text text-anchor="middle" x="210.5" y="-129.5" font-family="Helvetica,sans-Serif" font-size="10.00">::diff</text>
</a>
</g>
</g>
<!-- Node1&#45;&gt;Node2 -->
<g id="edge1" class="edge">
<title>Node1&#45;&gt;Node2</title>
<path fill="none" stroke="midnightblue" d="M302.08,-106.89C286.98,-111.99 270.77,-117.47 256.29,-122.36"/>
<polygon fill="midnightblue" stroke="midnightblue" points="303.46,-110.12 311.81,-103.6 301.22,-103.49 303.46,-110.12"/>
</g>
<!-- Node3 -->
<g id="node3" class="node">
<title>Node3</title>
<g id="a_node3"><a xlink:href="a01593.html#adcc786998f220a5b3083ee8a37c4553e" target="_top" xlink:title="applies a JSON patch">
<polygon fill="white" stroke="black" points="155,-73.5 155,-103.5 266,-103.5 266,-73.5 155,-73.5"/>
<text text-anchor="start" x="163" y="-91.5" font-family="Helvetica,sans-Serif" font-size="10.00">nlohmann::basic_json</text>
<text text-anchor="middle" x="210.5" y="-80.5" font-family="Helvetica,sans-Serif" font-size="10.00">::patch</text>
</a>
</g>
</g>
<!-- Node1&#45;&gt;Node3 -->
<g id="edge3" class="edge">
<title>Node1&#45;&gt;Node3</title>
<path fill="none" stroke="midnightblue" d="M291.54,-88.5C283.14,-88.5 274.61,-88.5 266.4,-88.5"/>
<polygon fill="midnightblue" stroke="midnightblue" points="291.68,-92 301.68,-88.5 291.68,-85 291.68,-92"/>
</g>
<!-- Node4 -->
<g id="node4" class="node">
<title>Node4</title>
<g id="a_node4"><a xlink:href="a01593.html#a11641b35219676b225d9bd15c7677659" target="_top" xlink:title="access specified object element with default value">
<polygon fill="white" stroke="black" points="155,-24.5 155,-54.5 266,-54.5 266,-24.5 155,-24.5"/>
<text text-anchor="start" x="163" y="-42.5" font-family="Helvetica,sans-Serif" font-size="10.00">nlohmann::basic_json</text>
<text text-anchor="middle" x="210.5" y="-31.5" font-family="Helvetica,sans-Serif" font-size="10.00">::value</text>
</a>
</g>
</g>
<!-- Node1&#45;&gt;Node4 -->
<g id="edge4" class="edge">
<title>Node1&#45;&gt;Node4</title>
<path fill="none" stroke="midnightblue" d="M302.08,-70.11C286.98,-65.01 270.77,-59.53 256.29,-54.64"/>
<polygon fill="midnightblue" stroke="midnightblue" points="301.22,-73.51 311.81,-73.4 303.46,-66.88 301.22,-73.51"/>
</g>
<!-- Node2&#45;&gt;Node2 -->
<g id="edge2" class="edge">
<title>Node2&#45;&gt;Node2</title>
<path fill="none" stroke="midnightblue" d="M236.44,-162.96C233.22,-167.68 224.58,-171 210.5,-171 187.4,-171 178.92,-162.06 185.06,-152.66"/>
<polygon fill="midnightblue" stroke="midnightblue" points="239.92,-162.48 235.94,-152.66 232.93,-162.82 239.92,-162.48"/>
</g>
<!-- Node5 -->
<g id="node5" class="node">
<title>Node5</title>
<g id="a_node5"><a xlink:href="a01993.html#ad7f122fa9bfc5aa4d9b65a3059892146" target="_top" xlink:title="constructor for strings">
<polygon fill="white" stroke="black" points="0,-49.5 0,-79.5 119,-79.5 119,-49.5 0,-49.5"/>
<text text-anchor="start" x="8" y="-67.5" font-family="Helvetica,sans-Serif" font-size="10.00">nlohmann::basic_json</text>
<text text-anchor="middle" x="59.5" y="-56.5" font-family="Helvetica,sans-Serif" font-size="10.00">::json_value::json_value</text>
</a>
</g>
</g>
<!-- Node4&#45;&gt;Node5 -->
<g id="edge5" class="edge">
<title>Node4&#45;&gt;Node5</title>
<path fill="none" stroke="midnightblue" d="M144.92,-50.34C136.35,-51.77 127.6,-53.24 119.14,-54.66"/>
<polygon fill="midnightblue" stroke="midnightblue" points="145.58,-53.77 154.86,-48.67 144.42,-46.87 145.58,-53.77"/>
</g>
<!-- Node6 -->
<g id="node6" class="node">
<title>Node6</title>
<g id="a_node6"><a xlink:href="a01593.html#adcfdefe95d5c2471a5c97e911d46ee88" target="_top" xlink:title="overload for a default value of type const char*">
<polygon fill="white" stroke="black" points="4,-0.5 4,-30.5 115,-30.5 115,-0.5 4,-0.5"/>
<text text-anchor="start" x="12" y="-18.5" font-family="Helvetica,sans-Serif" font-size="10.00">nlohmann::basic_json</text>
<text text-anchor="middle" x="59.5" y="-7.5" font-family="Helvetica,sans-Serif" font-size="10.00">::value</text>
</a>
</g>
</g>
<!-- Node4&#45;&gt;Node6 -->
<g id="edge6" class="edge">
<title>Node4&#45;&gt;Node6</title>
<path fill="none" stroke="midnightblue" d="M144.7,-29.06C134.84,-27.47 124.75,-25.85 115.13,-24.3"/>
<polygon fill="midnightblue" stroke="midnightblue" points="144.43,-32.56 154.86,-30.7 145.55,-25.65 144.43,-32.56"/>
</g>
</g>
</svg>
