<?xml version="1.0" encoding="UTF-8" standalone="no"?>
<!DOCTYPE svg PUBLIC "-//W3C//DTD SVG 1.1//EN"
 "http://www.w3.org/Graphics/SVG/1.1/DTD/svg11.dtd">
<!-- Generated by graphviz version 7.0.1 (20221109.1506)
 -->
<!-- Title: nlohmann::basic_json::merge_patch Pages: 1 -->
<svg width="772pt" height="503pt"
 viewBox="0.00 0.00 772.00 503.00" xmlns="http://www.w3.org/2000/svg" xmlns:xlink="http://www.w3.org/1999/xlink">
<g id="graph0" class="graph" transform="scale(1 1) rotate(0) translate(4 499)">
<title>nlohmann::basic_json::merge_patch</title>
<!-- Node1 -->
<g id="node1" class="node">
<title>Node1</title>
<g id="a_node1"><a xlink:title="applies a JSON Merge Patch">
<polygon fill="#999999" stroke="#666666" points="111,-210 0,-210 0,-180 111,-180 111,-210"/>
<text text-anchor="start" x="8" y="-198" font-family="Helvetica,sans-Serif" font-size="10.00">nlohmann::basic_json</text>
<text text-anchor="middle" x="55.5" y="-187" font-family="Helvetica,sans-Serif" font-size="10.00">::merge_patch</text>
</a>
</g>
</g>
<!-- Node1&#45;&gt;Node1 -->
<g id="edge19" class="edge">
<title>Node1&#45;&gt;Node1</title>
<path fill="none" stroke="#63b8ff" d="M29.66,-210.28C23.92,-219.41 32.53,-228 55.5,-228 68.06,-228 76.33,-225.43 80.3,-221.61"/>
<polygon fill="#63b8ff" stroke="#63b8ff" points="83.78,-222.06 81.2,-211.78 76.81,-221.42 83.78,-222.06"/>
</g>
<!-- Node2 -->
<g id="node2" class="node">
<title>Node2</title>
<g id="a_node2"><a xlink:href="a01593.html#a23b495b4c282e4afacf382f5b49af7c7" target="_top" xlink:title="returns an iterator to the first element">
<polygon fill="white" stroke="#666666" points="258,-434 147,-434 147,-404 258,-404 258,-434"/>
<text text-anchor="start" x="155" y="-422" font-family="Helvetica,sans-Serif" font-size="10.00">nlohmann::basic_json</text>
<text text-anchor="middle" x="202.5" y="-411" font-family="Helvetica,sans-Serif" font-size="10.00">::begin</text>
</a>
</g>
</g>
<!-- Node1&#45;&gt;Node2 -->
<g id="edge1" class="edge">
<title>Node1&#45;&gt;Node2</title>
<path fill="none" stroke="#63b8ff" d="M63.34,-210.29C77.1,-240.32 109.98,-308.55 147,-360 156.04,-372.56 167.47,-385.31 177.54,-395.73"/>
<polygon fill="#63b8ff" stroke="#63b8ff" points="175,-398.15 184.52,-402.81 179.99,-393.23 175,-398.15"/>
</g>
<!-- Node6 -->
<g id="node6" class="node">
<title>Node6</title>
<g id="a_node6"><a xlink:href="a01593.html#a931267ec3f09eb67e4382f321b2c52bc" target="_top" xlink:title="returns an iterator to one past the last element">
<polygon fill="white" stroke="#666666" points="427,-403.5 294,-403.5 294,-384.5 427,-384.5 427,-403.5"/>
<text text-anchor="middle" x="360.5" y="-391.5" font-family="Helvetica,sans-Serif" font-size="10.00">nlohmann::basic_json::end</text>
</a>
</g>
</g>
<!-- Node1&#45;&gt;Node6 -->
<g id="edge5" class="edge">
<title>Node1&#45;&gt;Node6</title>
<path fill="none" stroke="#63b8ff" d="M72.03,-210.25C107.97,-244.7 200.96,-329.14 294,-375 297.95,-376.95 302.13,-378.73 306.4,-380.35"/>
<polygon fill="#63b8ff" stroke="#63b8ff" points="305.07,-383.6 315.66,-383.57 307.37,-376.98 305.07,-383.6"/>
</g>
<!-- Node8 -->
<g id="node8" class="node">
<title>Node8</title>
<g id="a_node8"><a xlink:href="a01593.html#a494632b69bbe1d0153d3bedad0901b8e" target="_top" xlink:title="remove element given an iterator">
<polygon fill="white" stroke="#666666" points="258,-258 147,-258 147,-228 258,-228 258,-258"/>
<text text-anchor="start" x="155" y="-246" font-family="Helvetica,sans-Serif" font-size="10.00">nlohmann::basic_json</text>
<text text-anchor="middle" x="202.5" y="-235" font-family="Helvetica,sans-Serif" font-size="10.00">::erase</text>
</a>
</g>
</g>
<!-- Node1&#45;&gt;Node8 -->
<g id="edge8" class="edge">
<title>Node1&#45;&gt;Node8</title>
<path fill="none" stroke="#63b8ff" d="M103.18,-210.45C116.24,-214.78 130.59,-219.53 144.2,-224.03"/>
<polygon fill="#63b8ff" stroke="#63b8ff" points="142.88,-227.28 153.47,-227.1 145.08,-220.64 142.88,-227.28"/>
</g>
<!-- Node16 -->
<g id="node16" class="node">
<title>Node16</title>
<g id="a_node16"><a xlink:href="a01593.html#a57e8411a770a6263d6d8f2116c37f3aa" target="_top" xlink:title="return whether value is an object">
<polygon fill="white" stroke="#666666" points="258,-138 147,-138 147,-108 258,-108 258,-138"/>
<text text-anchor="start" x="155" y="-126" font-family="Helvetica,sans-Serif" font-size="10.00">nlohmann::basic_json</text>
<text text-anchor="middle" x="202.5" y="-115" font-family="Helvetica,sans-Serif" font-size="10.00">::is_object</text>
</a>
</g>
</g>
<!-- Node1&#45;&gt;Node16 -->
<g id="edge18" class="edge">
<title>Node1&#45;&gt;Node16</title>
<path fill="none" stroke="#63b8ff" d="M84.36,-179.55C102.12,-169.87 125.71,-157.32 147,-147 149.7,-145.69 152.48,-144.37 155.3,-143.06"/>
<polygon fill="#63b8ff" stroke="#63b8ff" points="156.54,-146.34 164.19,-139.01 153.64,-139.98 156.54,-146.34"/>
</g>
<!-- Node17 -->
<g id="node17" class="node">
<title>Node17</title>
<g id="a_node17"><a xlink:href="a01593.html#a9a4df356e05415438fadf8a15e583903" target="_top" xlink:title="explicitly create an object from an initializer list">
<polygon fill="white" stroke="#666666" points="258,-90 147,-90 147,-60 258,-60 258,-90"/>
<text text-anchor="start" x="155" y="-78" font-family="Helvetica,sans-Serif" font-size="10.00">nlohmann::basic_json</text>
<text text-anchor="middle" x="202.5" y="-67" font-family="Helvetica,sans-Serif" font-size="10.00">::object</text>
</a>
</g>
</g>
<!-- Node1&#45;&gt;Node17 -->
<g id="edge20" class="edge">
<title>Node1&#45;&gt;Node17</title>
<path fill="none" stroke="#63b8ff" d="M67.84,-179.55C83.64,-158.91 114.07,-122.25 147,-99 148.54,-97.91 150.13,-96.86 151.77,-95.84"/>
<polygon fill="#63b8ff" stroke="#63b8ff" points="153.16,-99.07 160.16,-91.12 149.73,-92.97 153.16,-99.07"/>
</g>
<!-- Node18 -->
<g id="node18" class="node">
<title>Node18</title>
<g id="a_node18"><a xlink:href="a01593.html#a9ea67fc1ef0ccc42e1d5388fe0416ae5" target="_top" xlink:title="access specified array element">
<polygon fill="white" stroke="#666666" points="258,-186 147,-186 147,-156 258,-156 258,-186"/>
<text text-anchor="start" x="155" y="-174" font-family="Helvetica,sans-Serif" font-size="10.00">nlohmann::basic_json</text>
<text text-anchor="middle" x="202.5" y="-163" font-family="Helvetica,sans-Serif" font-size="10.00">::operator[]</text>
</a>
</g>
</g>
<!-- Node1&#45;&gt;Node18 -->
<g id="edge21" class="edge">
<title>Node1&#45;&gt;Node18</title>
<path fill="none" stroke="#63b8ff" d="M111.32,-185.93C119.17,-184.63 127.31,-183.28 135.35,-181.95"/>
<polygon fill="#63b8ff" stroke="#63b8ff" points="135.82,-185.42 145.11,-180.33 134.67,-178.51 135.82,-185.42"/>
</g>
<!-- Node3 -->
<g id="node3" class="node">
<title>Node3</title>
<g id="a_node3"><a xlink:href="a01945.html#a5d5f92c7f6848814bc82cf7e4e541820" target="_top" xlink:title="set the iterator to the first value">
<polygon fill="white" stroke="#666666" points="414,-452 307,-452 307,-422 414,-422 414,-452"/>
<text text-anchor="start" x="315" y="-440" font-family="Helvetica,sans-Serif" font-size="10.00">nlohmann::detail::iter</text>
<text text-anchor="middle" x="360.5" y="-429" font-family="Helvetica,sans-Serif" font-size="10.00">_impl::set_begin</text>
</a>
</g>
</g>
<!-- Node2&#45;&gt;Node3 -->
<g id="edge2" class="edge">
<title>Node2&#45;&gt;Node3</title>
<path fill="none" stroke="#63b8ff" d="M258.5,-425.35C270.45,-426.73 283.2,-428.2 295.47,-429.61"/>
<polygon fill="#63b8ff" stroke="#63b8ff" points="294.73,-433.05 305.06,-430.72 295.53,-426.1 294.73,-433.05"/>
</g>
<!-- Node4 -->
<g id="node4" class="node">
<title>Node4</title>
<g id="a_node4"><a xlink:href="a01937.html#a9d9b005906106e12aed738f97d7fee42" target="_top" xlink:title="set iterator to a defined beginning">
<polygon fill="white" stroke="#666666" points="595.5,-495 466.5,-495 466.5,-465 595.5,-465 595.5,-495"/>
<text text-anchor="start" x="474.5" y="-483" font-family="Helvetica,sans-Serif" font-size="10.00">nlohmann::detail::primitive</text>
<text text-anchor="middle" x="531" y="-472" font-family="Helvetica,sans-Serif" font-size="10.00">_iterator_t::set_begin</text>
</a>
</g>
</g>
<!-- Node3&#45;&gt;Node4 -->
<g id="edge3" class="edge">
<title>Node3&#45;&gt;Node4</title>
<path fill="none" stroke="#63b8ff" d="M414.35,-450.49C428.27,-454.04 443.53,-457.93 458.26,-461.69"/>
<polygon fill="#63b8ff" stroke="#63b8ff" points="457.37,-465.08 467.93,-464.16 459.1,-458.3 457.37,-465.08"/>
</g>
<!-- Node5 -->
<g id="node5" class="node">
<title>Node5</title>
<g id="a_node5"><a xlink:href="a01937.html#ad26a823483846a12d890c3feed3097eb" target="_top" xlink:title="set iterator to a defined past the end">
<polygon fill="white" stroke="#666666" points="764,-430 635,-430 635,-400 764,-400 764,-430"/>
<text text-anchor="start" x="643" y="-418" font-family="Helvetica,sans-Serif" font-size="10.00">nlohmann::detail::primitive</text>
<text text-anchor="middle" x="699.5" y="-407" font-family="Helvetica,sans-Serif" font-size="10.00">_iterator_t::set_end</text>
</a>
</g>
</g>
<!-- Node3&#45;&gt;Node5 -->
<g id="edge4" class="edge">
<title>Node3&#45;&gt;Node5</title>
<path fill="none" stroke="#63b8ff" d="M414.16,-433.56C470.39,-429.89 559.98,-424.04 623.56,-419.89"/>
<polygon fill="#63b8ff" stroke="#63b8ff" points="623.46,-423.41 633.21,-419.26 623,-416.42 623.46,-423.41"/>
</g>
<!-- Node7 -->
<g id="node7" class="node">
<title>Node7</title>
<g id="a_node7"><a xlink:href="a01945.html#a23e50ad4c13aa62d9ac7f60a123823ee" target="_top" xlink:title="set the iterator past the last value">
<polygon fill="white" stroke="#666666" points="584.5,-409 477.5,-409 477.5,-379 584.5,-379 584.5,-409"/>
<text text-anchor="start" x="485.5" y="-397" font-family="Helvetica,sans-Serif" font-size="10.00">nlohmann::detail::iter</text>
<text text-anchor="middle" x="531" y="-386" font-family="Helvetica,sans-Serif" font-size="10.00">_impl::set_end</text>
</a>
</g>
</g>
<!-- Node6&#45;&gt;Node7 -->
<g id="edge6" class="edge">
<title>Node6&#45;&gt;Node7</title>
<path fill="none" stroke="#63b8ff" d="M427.13,-394C439.79,-394 453.05,-394 465.67,-394"/>
<polygon fill="#63b8ff" stroke="#63b8ff" points="465.54,-397.5 475.54,-394 465.54,-390.5 465.54,-397.5"/>
</g>
<!-- Node7&#45;&gt;Node5 -->
<g id="edge7" class="edge">
<title>Node7&#45;&gt;Node5</title>
<path fill="none" stroke="#63b8ff" d="M584.68,-400.64C596.99,-402.2 610.33,-403.88 623.4,-405.53"/>
<polygon fill="#63b8ff" stroke="#63b8ff" points="622.92,-409 633.28,-406.77 623.8,-402.05 622.92,-409"/>
</g>
<!-- Node8&#45;&gt;Node6 -->
<g id="edge14" class="edge">
<title>Node8&#45;&gt;Node6</title>
<path fill="none" stroke="#63b8ff" d="M212.17,-258.25C230.19,-289.44 271.82,-358.96 294,-375 296.07,-376.49 298.25,-377.87 300.51,-379.14"/>
<polygon fill="#63b8ff" stroke="#63b8ff" points="298.95,-382.27 309.48,-383.39 301.95,-375.95 298.95,-382.27"/>
</g>
<!-- Node9 -->
<g id="node9" class="node">
<title>Node9</title>
<g id="a_node9"><a xlink:href="a01593.html#aa7e7b1bdb6e9dbcfa5e284e8a2fb6464" target="_top" xlink:title="checks the class invariants">
<polygon fill="white" stroke="#666666" points="416,-222 305,-222 305,-192 416,-192 416,-222"/>
<text text-anchor="start" x="313" y="-210" font-family="Helvetica,sans-Serif" font-size="10.00">nlohmann::basic_json</text>
<text text-anchor="middle" x="360.5" y="-199" font-family="Helvetica,sans-Serif" font-size="10.00">::assert_invariant</text>
</a>
</g>
</g>
<!-- Node8&#45;&gt;Node9 -->
<g id="edge9" class="edge">
<title>Node8&#45;&gt;Node9</title>
<path fill="none" stroke="#63b8ff" d="M258.5,-230.31C269.87,-227.68 281.95,-224.9 293.66,-222.19"/>
<polygon fill="#63b8ff" stroke="#63b8ff" points="294.3,-225.64 303.26,-219.98 292.73,-218.82 294.3,-225.64"/>
</g>
<!-- Node10 -->
<g id="node10" class="node">
<title>Node10</title>
<g id="a_node10"><a xlink:href="a01501.html#a4e849260a3caa1b288c7e619130c6c09" target="_top" xlink:title=" ">
<polygon fill="white" stroke="#666666" points="420.5,-366 300.5,-366 300.5,-336 420.5,-336 420.5,-366"/>
<text text-anchor="start" x="308.5" y="-354" font-family="Helvetica,sans-Serif" font-size="10.00">nlohmann::detail::invalid</text>
<text text-anchor="middle" x="360.5" y="-343" font-family="Helvetica,sans-Serif" font-size="10.00">_iterator::create</text>
</a>
</g>
</g>
<!-- Node8&#45;&gt;Node10 -->
<g id="edge10" class="edge">
<title>Node8&#45;&gt;Node10</title>
<path fill="none" stroke="#63b8ff" d="M216.47,-258.3C232.86,-276.8 262.74,-307.85 294,-327 296.02,-328.24 298.11,-329.42 300.25,-330.56"/>
<polygon fill="#63b8ff" stroke="#63b8ff" points="298.66,-333.68 309.19,-334.88 301.7,-327.38 298.66,-333.68"/>
</g>
<!-- Node12 -->
<g id="node12" class="node">
<title>Node12</title>
<g id="a_node12"><a xlink:href="a01505.html#aecc083aea4b698c33d042670ba50c10f" target="_top" xlink:title=" ">
<polygon fill="white" stroke="#666666" points="417,-174 304,-174 304,-144 417,-144 417,-174"/>
<text text-anchor="start" x="312" y="-162" font-family="Helvetica,sans-Serif" font-size="10.00">nlohmann::detail::type</text>
<text text-anchor="middle" x="360.5" y="-151" font-family="Helvetica,sans-Serif" font-size="10.00">_error::create</text>
</a>
</g>
</g>
<!-- Node8&#45;&gt;Node12 -->
<g id="edge12" class="edge">
<title>Node8&#45;&gt;Node12</title>
<path fill="none" stroke="#63b8ff" d="M223.51,-227.74C241.32,-214.66 268.43,-195.93 294,-183 296.84,-181.56 299.78,-180.17 302.78,-178.83"/>
<polygon fill="#63b8ff" stroke="#63b8ff" points="303.88,-182.16 311.72,-175.04 301.15,-175.72 303.88,-182.16"/>
</g>
<!-- Node13 -->
<g id="node13" class="node">
<title>Node13</title>
<g id="a_node13"><a xlink:href="a01593.html#a9576224f7b3ff812a308e7c1e784ea80" target="_top" xlink:title="return whether value is a binary array">
<polygon fill="white" stroke="#666666" points="416,-318 305,-318 305,-288 416,-288 416,-318"/>
<text text-anchor="start" x="313" y="-306" font-family="Helvetica,sans-Serif" font-size="10.00">nlohmann::basic_json</text>
<text text-anchor="middle" x="360.5" y="-295" font-family="Helvetica,sans-Serif" font-size="10.00">::is_binary</text>
</a>
</g>
</g>
<!-- Node8&#45;&gt;Node13 -->
<g id="edge15" class="edge">
<title>Node8&#45;&gt;Node13</title>
<path fill="none" stroke="#63b8ff" d="M241.72,-258.47C257.82,-264.92 276.78,-272.42 294,-279 297.91,-280.49 301.95,-282.02 306.03,-283.54"/>
<polygon fill="#63b8ff" stroke="#63b8ff" points="304.79,-286.82 315.39,-287.02 307.23,-280.26 304.79,-286.82"/>
</g>
<!-- Node14 -->
<g id="node14" class="node">
<title>Node14</title>
<g id="a_node14"><a xlink:href="a01593.html#ab303d17366c26fca12242c7f8def1bb7" target="_top" xlink:title="return whether value is a string">
<polygon fill="white" stroke="#666666" points="416,-270 305,-270 305,-240 416,-240 416,-270"/>
<text text-anchor="start" x="313" y="-258" font-family="Helvetica,sans-Serif" font-size="10.00">nlohmann::basic_json</text>
<text text-anchor="middle" x="360.5" y="-247" font-family="Helvetica,sans-Serif" font-size="10.00">::is_string</text>
</a>
</g>
</g>
<!-- Node8&#45;&gt;Node14 -->
<g id="edge16" class="edge">
<title>Node8&#45;&gt;Node14</title>
<path fill="none" stroke="#63b8ff" d="M258.5,-247.23C269.75,-248.1 281.7,-249.02 293.3,-249.91"/>
<polygon fill="#63b8ff" stroke="#63b8ff" points="292.99,-253.39 303.23,-250.67 293.52,-246.41 292.99,-253.39"/>
</g>
<!-- Node15 -->
<g id="node15" class="node">
<title>Node15</title>
<g id="a_node15"><a xlink:href="a01593.html#ab8811fc4eab6091b32b34b3ac3e90474" target="_top" xlink:title="return the type as string">
<polygon fill="white" stroke="#666666" points="416,-126 305,-126 305,-96 416,-96 416,-126"/>
<text text-anchor="start" x="313" y="-114" font-family="Helvetica,sans-Serif" font-size="10.00">nlohmann::basic_json</text>
<text text-anchor="middle" x="360.5" y="-103" font-family="Helvetica,sans-Serif" font-size="10.00">::type_name</text>
</a>
</g>
</g>
<!-- Node8&#45;&gt;Node15 -->
<g id="edge17" class="edge">
<title>Node8&#45;&gt;Node15</title>
<path fill="none" stroke="#63b8ff" d="M223.78,-227.67C234.68,-218.84 247.91,-207.11 258,-195 277.9,-171.11 270.03,-154.81 294,-135 295.1,-134.09 296.24,-133.21 297.42,-132.36"/>
<polygon fill="#63b8ff" stroke="#63b8ff" points="298.98,-135.51 305.64,-127.28 295.3,-129.56 298.98,-135.51"/>
</g>
<!-- Node11 -->
<g id="node11" class="node">
<title>Node11</title>
<g id="a_node11"><a xlink:href="a01493.html#abf41a7e9178356314082284e6cfea278" target="_top" xlink:title=" ">
<polygon fill="white" stroke="#666666" points="599,-268 463,-268 463,-238 599,-238 599,-268"/>
<text text-anchor="start" x="471" y="-256" font-family="Helvetica,sans-Serif" font-size="10.00">nlohmann::detail::exception</text>
<text text-anchor="middle" x="531" y="-245" font-family="Helvetica,sans-Serif" font-size="10.00">::name</text>
</a>
</g>
</g>
<!-- Node10&#45;&gt;Node11 -->
<g id="edge11" class="edge">
<title>Node10&#45;&gt;Node11</title>
<path fill="none" stroke="#63b8ff" d="M408.34,-335.61C414.73,-333 421.11,-330.12 427,-327 454.55,-312.41 483.13,-291.32 503.17,-275.39"/>
<polygon fill="#63b8ff" stroke="#63b8ff" points="505.26,-278.21 510.84,-269.2 500.86,-272.76 505.26,-278.21"/>
</g>
<!-- Node12&#45;&gt;Node11 -->
<g id="edge13" class="edge">
<title>Node12&#45;&gt;Node11</title>
<path fill="none" stroke="#63b8ff" d="M407.92,-174.39C414.44,-177.01 420.97,-179.9 427,-183 453.45,-196.57 481.2,-215.76 501.22,-230.61"/>
<polygon fill="#63b8ff" stroke="#63b8ff" points="499.09,-233.39 509.19,-236.6 503.3,-227.79 499.09,-233.39"/>
</g>
<!-- Node18&#45;&gt;Node9 -->
<g id="edge22" class="edge">
<title>Node18&#45;&gt;Node9</title>
<path fill="none" stroke="#63b8ff" d="M258.5,-183.69C269.87,-186.32 281.95,-189.1 293.66,-191.81"/>
<polygon fill="#63b8ff" stroke="#63b8ff" points="292.73,-195.18 303.26,-194.02 294.3,-188.36 292.73,-195.18"/>
</g>
<!-- Node18&#45;&gt;Node12 -->
<g id="edge23" class="edge">
<title>Node18&#45;&gt;Node12</title>
<path fill="none" stroke="#63b8ff" d="M258.5,-166.77C269.49,-165.92 281.14,-165.03 292.48,-164.16"/>
<polygon fill="#63b8ff" stroke="#63b8ff" points="292.47,-167.67 302.17,-163.41 291.93,-160.69 292.47,-167.67"/>
</g>
<!-- Node18&#45;&gt;Node15 -->
<g id="edge26" class="edge">
<title>Node18&#45;&gt;Node15</title>
<path fill="none" stroke="#63b8ff" d="M241.72,-155.53C257.82,-149.08 276.78,-141.58 294,-135 297.91,-133.51 301.95,-131.98 306.03,-130.46"/>
<polygon fill="#63b8ff" stroke="#63b8ff" points="307.23,-133.74 315.39,-126.98 304.79,-127.18 307.23,-133.74"/>
</g>
<!-- Node19 -->
<g id="node19" class="node">
<title>Node19</title>
<g id="a_node19"><a xlink:href="a01593.html#ab5b70d60a636b9c5e10f6c8caac60b9e" target="_top" xlink:title="return whether value is an array">
<polygon fill="white" stroke="#666666" points="416,-78 305,-78 305,-48 416,-48 416,-78"/>
<text text-anchor="start" x="313" y="-66" font-family="Helvetica,sans-Serif" font-size="10.00">nlohmann::basic_json</text>
<text text-anchor="middle" x="360.5" y="-55" font-family="Helvetica,sans-Serif" font-size="10.00">::is_array</text>
</a>
</g>
</g>
<!-- Node18&#45;&gt;Node19 -->
<g id="edge24" class="edge">
<title>Node18&#45;&gt;Node19</title>
<path fill="none" stroke="#63b8ff" d="M245.88,-155.56C250.21,-153.06 254.36,-150.21 258,-147 281.33,-126.43 270.03,-106.81 294,-87 295.1,-86.09 296.24,-85.21 297.42,-84.36"/>
<polygon fill="#63b8ff" stroke="#63b8ff" points="298.98,-87.51 305.64,-79.28 295.3,-81.56 298.98,-87.51"/>
</g>
<!-- Node20 -->
<g id="node20" class="node">
<title>Node20</title>
<g id="a_node20"><a xlink:href="a01593.html#aedc7afad96292b5ab61a2e0ad3067f5f" target="_top" xlink:title="return whether value is null">
<polygon fill="white" stroke="#666666" points="416,-30 305,-30 305,0 416,0 416,-30"/>
<text text-anchor="start" x="313" y="-18" font-family="Helvetica,sans-Serif" font-size="10.00">nlohmann::basic_json</text>
<text text-anchor="middle" x="360.5" y="-7" font-family="Helvetica,sans-Serif" font-size="10.00">::is_null</text>
</a>
</g>
</g>
<!-- Node18&#45;&gt;Node20 -->
<g id="edge25" class="edge">
<title>Node18&#45;&gt;Node20</title>
<path fill="none" stroke="#63b8ff" d="M247.69,-155.63C251.48,-153.15 255.01,-150.29 258,-147 292.07,-109.6 258.75,-75.3 294,-39 294.6,-38.38 295.22,-37.78 295.85,-37.19"/>
<polygon fill="#63b8ff" stroke="#63b8ff" points="297.79,-40.11 303.67,-31.3 293.58,-34.52 297.79,-40.11"/>
</g>
</g>
</svg>
