<?xml version="1.0" encoding="UTF-8" standalone="no"?>
<!DOCTYPE svg PUBLIC "-//W3C//DTD SVG 1.1//EN"
 "http://www.w3.org/Graphics/SVG/1.1/DTD/svg11.dtd">
<!-- Generated by graphviz version 5.0.0 (20220707.1540)
 -->
<!-- Title: nlohmann::basic_json::diff Pages: 1 -->
<svg width="778pt" height="716pt"
 viewBox="0.00 0.00 778.00 716.00" xmlns="http://www.w3.org/2000/svg" xmlns:xlink="http://www.w3.org/1999/xlink">
<g id="graph0" class="graph" transform="scale(1 1) rotate(0) translate(4 712)">
<title>nlohmann::basic_json::diff</title>
<polygon fill="white" stroke="transparent" points="-4,4 -4,-712 774,-712 774,4 -4,4"/>
<!-- Node1 -->
<g id="node1" class="node">
<title>Node1</title>
<g id="a_node1"><a xlink:title="creates a diff as a JSON patch">
<polygon fill="#bfbfbf" stroke="black" points="0,-381.5 0,-411.5 111,-411.5 111,-381.5 0,-381.5"/>
<text text-anchor="start" x="8" y="-399.5" font-family="Helvetica,sans-Serif" font-size="10.00">nlohmann::basic_json</text>
<text text-anchor="middle" x="55.5" y="-388.5" font-family="Helvetica,sans-Serif" font-size="10.00">::diff</text>
</a>
</g>
</g>
<!-- Node1&#45;&gt;Node1 -->
<g id="edge10" class="edge">
<title>Node1&#45;&gt;Node1</title>
<path fill="none" stroke="midnightblue" d="M29.36,-411.66C23.06,-421.06 31.77,-430 55.5,-430 69.96,-430 78.85,-426.68 82.15,-421.96"/>
<polygon fill="midnightblue" stroke="midnightblue" points="85.63,-421.47 81.64,-411.66 78.64,-421.82 85.63,-421.47"/>
</g>
<!-- Node2 -->
<g id="node2" class="node">
<title>Node2</title>
<g id="a_node2"><a xlink:href="a01593.html#a23b495b4c282e4afacf382f5b49af7c7" target="_top" xlink:title="returns an iterator to the first element">
<polygon fill="white" stroke="black" points="150,-655.5 150,-685.5 261,-685.5 261,-655.5 150,-655.5"/>
<text text-anchor="start" x="158" y="-673.5" font-family="Helvetica,sans-Serif" font-size="10.00">nlohmann::basic_json</text>
<text text-anchor="middle" x="205.5" y="-662.5" font-family="Helvetica,sans-Serif" font-size="10.00">::begin</text>
</a>
</g>
</g>
<!-- Node1&#45;&gt;Node2 -->
<g id="edge1" class="edge">
<title>Node1&#45;&gt;Node2</title>
<path fill="none" stroke="midnightblue" d="M57.8,-411.62C62.24,-454.23 80.44,-576.66 147,-646.5 147.92,-647.47 148.89,-648.4 149.9,-649.3"/>
<polygon fill="midnightblue" stroke="midnightblue" points="148.14,-652.35 158.27,-655.47 152.3,-646.72 148.14,-652.35"/>
</g>
<!-- Node6 -->
<g id="node6" class="node">
<title>Node6</title>
<g id="a_node6"><a xlink:href="a01593.html#ae508c13e3ad6ce445bcaf24a2bc7d039" target="_top" xlink:title="returns a const iterator to the first element">
<polygon fill="white" stroke="black" points="150,-606.5 150,-636.5 261,-636.5 261,-606.5 150,-606.5"/>
<text text-anchor="start" x="158" y="-624.5" font-family="Helvetica,sans-Serif" font-size="10.00">nlohmann::basic_json</text>
<text text-anchor="middle" x="205.5" y="-613.5" font-family="Helvetica,sans-Serif" font-size="10.00">::cbegin</text>
</a>
</g>
</g>
<!-- Node1&#45;&gt;Node6 -->
<g id="edge5" class="edge">
<title>Node1&#45;&gt;Node6</title>
<path fill="none" stroke="midnightblue" d="M59.31,-411.54C66.92,-448.22 91.18,-543.2 147,-597.5 148.09,-598.56 149.23,-599.58 150.42,-600.55"/>
<polygon fill="midnightblue" stroke="midnightblue" points="148.61,-603.55 158.82,-606.38 152.6,-597.8 148.61,-603.55"/>
</g>
<!-- Node7 -->
<g id="node7" class="node">
<title>Node7</title>
<g id="a_node7"><a xlink:href="a01593.html#a3017cf0f1a4673e904e34cfef62e7758" target="_top" xlink:title="returns a const iterator to one past the last element">
<polygon fill="white" stroke="black" points="150,-557.5 150,-587.5 261,-587.5 261,-557.5 150,-557.5"/>
<text text-anchor="start" x="158" y="-575.5" font-family="Helvetica,sans-Serif" font-size="10.00">nlohmann::basic_json</text>
<text text-anchor="middle" x="205.5" y="-564.5" font-family="Helvetica,sans-Serif" font-size="10.00">::cend</text>
</a>
</g>
</g>
<!-- Node1&#45;&gt;Node7 -->
<g id="edge7" class="edge">
<title>Node1&#45;&gt;Node7</title>
<path fill="none" stroke="midnightblue" d="M61.76,-411.59C72.93,-441.6 101.76,-509.25 147,-548.5 148.35,-549.67 149.76,-550.79 151.23,-551.86"/>
<polygon fill="midnightblue" stroke="midnightblue" points="149.75,-555.07 160.07,-557.45 153.49,-549.15 149.75,-555.07"/>
</g>
<!-- Node9 -->
<g id="node9" class="node">
<title>Node9</title>
<g id="a_node9"><a xlink:href="a01593.html#a931267ec3f09eb67e4382f321b2c52bc" target="_top" xlink:title="returns an iterator to one past the last element">
<polygon fill="white" stroke="black" points="300,-529 300,-548 433,-548 433,-529 300,-529"/>
<text text-anchor="middle" x="366.5" y="-536" font-family="Helvetica,sans-Serif" font-size="10.00">nlohmann::basic_json::end</text>
</a>
</g>
</g>
<!-- Node1&#45;&gt;Node9 -->
<g id="edge11" class="edge">
<title>Node1&#45;&gt;Node9</title>
<path fill="none" stroke="midnightblue" d="M88.02,-411.58C128.88,-431.26 202.23,-467.03 264,-499.5 280.2,-508.02 283.1,-512.46 300,-519.5 305.53,-521.8 311.44,-523.94 317.35,-525.88"/>
<polygon fill="midnightblue" stroke="midnightblue" points="316.66,-529.33 327.25,-528.97 318.74,-522.65 316.66,-529.33"/>
</g>
<!-- Node10 -->
<g id="node10" class="node">
<title>Node10</title>
<g id="a_node10"><a xlink:href="a01597.html#a8abf3577f9a0087f29a233893cdc73ad" target="_top" xlink:title="escape &quot;~&quot; to &quot;~0&quot; and &quot;/&quot; to &quot;~1&quot;">
<polygon fill="white" stroke="black" points="147,-391.5 147,-421.5 264,-421.5 264,-391.5 147,-391.5"/>
<text text-anchor="start" x="155" y="-409.5" font-family="Helvetica,sans-Serif" font-size="10.00">nlohmann::json_pointer</text>
<text text-anchor="middle" x="205.5" y="-398.5" font-family="Helvetica,sans-Serif" font-size="10.00">::escape</text>
</a>
</g>
</g>
<!-- Node1&#45;&gt;Node10 -->
<g id="edge13" class="edge">
<title>Node1&#45;&gt;Node10</title>
<path fill="none" stroke="midnightblue" d="M111.19,-400.2C119.38,-400.75 127.92,-401.33 136.35,-401.9"/>
<polygon fill="midnightblue" stroke="midnightblue" points="136.35,-405.4 146.56,-402.59 136.82,-398.42 136.35,-405.4"/>
</g>
<!-- Node12 -->
<g id="node12" class="node">
<title>Node12</title>
<g id="a_node12"><a xlink:href="a01593.html#acdf9b3aab82dcf443dd91ca5ec06b80c" target="_top" xlink:title="find an element in a JSON object">
<polygon fill="white" stroke="black" points="150,-508.5 150,-538.5 261,-538.5 261,-508.5 150,-508.5"/>
<text text-anchor="start" x="158" y="-526.5" font-family="Helvetica,sans-Serif" font-size="10.00">nlohmann::basic_json</text>
<text text-anchor="middle" x="205.5" y="-515.5" font-family="Helvetica,sans-Serif" font-size="10.00">::find</text>
</a>
</g>
</g>
<!-- Node1&#45;&gt;Node12 -->
<g id="edge15" class="edge">
<title>Node1&#45;&gt;Node12</title>
<path fill="none" stroke="midnightblue" d="M70.88,-411.72C88.2,-429.71 118.52,-460.15 147,-483.5 155.04,-490.09 164.12,-496.74 172.66,-502.68"/>
<polygon fill="midnightblue" stroke="midnightblue" points="170.72,-505.59 180.95,-508.34 174.67,-499.81 170.72,-505.59"/>
</g>
<!-- Node14 -->
<g id="node14" class="node">
<title>Node14</title>
<g id="a_node14"><a xlink:href="a01593.html#aeb86e8478e20d95970a8b61ff01dce3b" target="_top" xlink:title="inserts element">
<polygon fill="white" stroke="black" points="150,-337.5 150,-367.5 261,-367.5 261,-337.5 150,-337.5"/>
<text text-anchor="start" x="158" y="-355.5" font-family="Helvetica,sans-Serif" font-size="10.00">nlohmann::basic_json</text>
<text text-anchor="middle" x="205.5" y="-344.5" font-family="Helvetica,sans-Serif" font-size="10.00">::insert</text>
</a>
</g>
</g>
<!-- Node1&#45;&gt;Node14 -->
<g id="edge18" class="edge">
<title>Node1&#45;&gt;Node14</title>
<path fill="none" stroke="midnightblue" d="M107.02,-381.48C118.98,-377.93 131.85,-374.1 144.2,-370.43"/>
<polygon fill="midnightblue" stroke="midnightblue" points="145.37,-373.73 153.96,-367.53 143.37,-367.02 145.37,-373.73"/>
</g>
<!-- Node18 -->
<g id="node18" class="node">
<title>Node18</title>
<g id="a_node18"><a xlink:href="a00410.html#a6ce645a0b8717757e096a5b5773b7a16" target="_top" xlink:title="user&#45;defined to_string function for JSON values">
<polygon fill="white" stroke="black" points="654.5,-242 654.5,-261 756.5,-261 756.5,-242 654.5,-242"/>
<text text-anchor="middle" x="705.5" y="-249" font-family="Helvetica,sans-Serif" font-size="10.00">nlohmann::to_string</text>
</a>
</g>
</g>
<!-- Node1&#45;&gt;Node18 -->
<g id="edge37" class="edge">
<title>Node1&#45;&gt;Node18</title>
<path fill="none" stroke="midnightblue" d="M63.39,-381.43C87.28,-331.46 172.08,-171.83 300,-126.5 445.31,-75.01 624.02,-191.79 683.88,-235.68"/>
<polygon fill="midnightblue" stroke="midnightblue" points="682.02,-238.67 692.13,-241.83 686.21,-233.05 682.02,-238.67"/>
</g>
<!-- Node24 -->
<g id="node24" class="node">
<title>Node24</title>
<g id="a_node24"><a xlink:href="a01593.html#a9a4df356e05415438fadf8a15e583903" target="_top" xlink:title="explicitly create an object from an initializer list">
<polygon fill="white" stroke="black" points="150,-98.5 150,-128.5 261,-128.5 261,-98.5 150,-98.5"/>
<text text-anchor="start" x="158" y="-116.5" font-family="Helvetica,sans-Serif" font-size="10.00">nlohmann::basic_json</text>
<text text-anchor="middle" x="205.5" y="-105.5" font-family="Helvetica,sans-Serif" font-size="10.00">::object</text>
</a>
</g>
</g>
<!-- Node1&#45;&gt;Node24 -->
<g id="edge29" class="edge">
<title>Node1&#45;&gt;Node24</title>
<path fill="none" stroke="midnightblue" d="M58.05,-381.48C63.16,-339.12 82.95,-217.01 147,-143.5 149.99,-140.06 153.48,-136.97 157.22,-134.18"/>
<polygon fill="midnightblue" stroke="midnightblue" points="159.31,-137 165.75,-128.59 155.47,-131.15 159.31,-137"/>
</g>
<!-- Node25 -->
<g id="node25" class="node">
<title>Node25</title>
<g id="a_node25"><a xlink:href="a01593.html#ab9e0253c92736db021840105d374c4c4" target="_top" xlink:title="add an object to an array">
<polygon fill="white" stroke="black" points="150,-259.5 150,-289.5 261,-289.5 261,-259.5 150,-259.5"/>
<text text-anchor="start" x="158" y="-277.5" font-family="Helvetica,sans-Serif" font-size="10.00">nlohmann::basic_json</text>
<text text-anchor="middle" x="205.5" y="-266.5" font-family="Helvetica,sans-Serif" font-size="10.00">::push_back</text>
</a>
</g>
</g>
<!-- Node1&#45;&gt;Node25 -->
<g id="edge30" class="edge">
<title>Node1&#45;&gt;Node25</title>
<path fill="none" stroke="midnightblue" d="M74.95,-381.3C101.01,-359.81 148.75,-320.46 178.43,-295.99"/>
<polygon fill="midnightblue" stroke="midnightblue" points="180.8,-298.57 186.29,-289.51 176.34,-293.17 180.8,-298.57"/>
</g>
<!-- Node28 -->
<g id="node28" class="node">
<title>Node28</title>
<g id="a_node28"><a xlink:href="a01593.html#a33c7c8638bb0b12e6d1b69d8106dd2e0" target="_top" xlink:title="returns the number of elements">
<polygon fill="white" stroke="black" points="150,-49.5 150,-79.5 261,-79.5 261,-49.5 150,-49.5"/>
<text text-anchor="start" x="158" y="-67.5" font-family="Helvetica,sans-Serif" font-size="10.00">nlohmann::basic_json</text>
<text text-anchor="middle" x="205.5" y="-56.5" font-family="Helvetica,sans-Serif" font-size="10.00">::size</text>
</a>
</g>
</g>
<!-- Node1&#45;&gt;Node28 -->
<g id="edge36" class="edge">
<title>Node1&#45;&gt;Node28</title>
<path fill="none" stroke="midnightblue" d="M56.59,-381.18C57.69,-332.15 67.6,-177.12 147,-88.5 147.87,-87.53 148.79,-86.59 149.75,-85.69"/>
<polygon fill="midnightblue" stroke="midnightblue" points="151.99,-88.38 157.77,-79.5 147.71,-82.84 151.99,-88.38"/>
</g>
<!-- Node29 -->
<g id="node29" class="node">
<title>Node29</title>
<g id="a_node29"><a xlink:href="a01593.html#a5b7c4b35a0ad9f97474912a08965d7ad" target="_top" xlink:title="return the type of the JSON value (explicit)">
<polygon fill="white" stroke="black" points="150,-0.5 150,-30.5 261,-30.5 261,-0.5 150,-0.5"/>
<text text-anchor="start" x="158" y="-18.5" font-family="Helvetica,sans-Serif" font-size="10.00">nlohmann::basic_json</text>
<text text-anchor="middle" x="205.5" y="-7.5" font-family="Helvetica,sans-Serif" font-size="10.00">::type</text>
</a>
</g>
</g>
<!-- Node1&#45;&gt;Node29 -->
<g id="edge38" class="edge">
<title>Node1&#45;&gt;Node29</title>
<path fill="none" stroke="midnightblue" d="M55.85,-381.48C54.36,-328.02 56.37,-144.56 147,-39.5 147.74,-38.64 148.52,-37.81 149.33,-37.01"/>
<polygon fill="midnightblue" stroke="midnightblue" points="151.75,-39.55 157.36,-30.56 147.37,-34.1 151.75,-39.55"/>
</g>
<!-- Node3 -->
<g id="node3" class="node">
<title>Node3</title>
<g id="a_node3"><a xlink:href="a01945.html#a5d5f92c7f6848814bc82cf7e4e541820" target="_top" xlink:title="set the iterator to the first value">
<polygon fill="white" stroke="black" points="313,-655.5 313,-685.5 420,-685.5 420,-655.5 313,-655.5"/>
<text text-anchor="start" x="321" y="-673.5" font-family="Helvetica,sans-Serif" font-size="10.00">nlohmann::detail::iter</text>
<text text-anchor="middle" x="366.5" y="-662.5" font-family="Helvetica,sans-Serif" font-size="10.00">_impl::set_begin</text>
</a>
</g>
</g>
<!-- Node2&#45;&gt;Node3 -->
<g id="edge2" class="edge">
<title>Node2&#45;&gt;Node3</title>
<path fill="none" stroke="midnightblue" d="M261.22,-670.5C274.53,-670.5 288.88,-670.5 302.54,-670.5"/>
<polygon fill="midnightblue" stroke="midnightblue" points="302.83,-674 312.83,-670.5 302.83,-667 302.83,-674"/>
</g>
<!-- Node4 -->
<g id="node4" class="node">
<title>Node4</title>
<g id="a_node4"><a xlink:href="a01937.html#a9d9b005906106e12aed738f97d7fee42" target="_top" xlink:title="set iterator to a defined beginning">
<polygon fill="white" stroke="black" points="472.5,-677.5 472.5,-707.5 601.5,-707.5 601.5,-677.5 472.5,-677.5"/>
<text text-anchor="start" x="480.5" y="-695.5" font-family="Helvetica,sans-Serif" font-size="10.00">nlohmann::detail::primitive</text>
<text text-anchor="middle" x="537" y="-684.5" font-family="Helvetica,sans-Serif" font-size="10.00">_iterator_t::set_begin</text>
</a>
</g>
</g>
<!-- Node3&#45;&gt;Node4 -->
<g id="edge3" class="edge">
<title>Node3&#45;&gt;Node4</title>
<path fill="none" stroke="midnightblue" d="M420.35,-677.4C433.63,-679.13 448.13,-681.03 462.23,-682.87"/>
<polygon fill="midnightblue" stroke="midnightblue" points="462.03,-686.37 472.4,-684.2 462.94,-679.43 462.03,-686.37"/>
</g>
<!-- Node5 -->
<g id="node5" class="node">
<title>Node5</title>
<g id="a_node5"><a xlink:href="a01937.html#ad26a823483846a12d890c3feed3097eb" target="_top" xlink:title="set iterator to a defined past the end">
<polygon fill="white" stroke="black" points="641,-611.5 641,-641.5 770,-641.5 770,-611.5 641,-611.5"/>
<text text-anchor="start" x="649" y="-629.5" font-family="Helvetica,sans-Serif" font-size="10.00">nlohmann::detail::primitive</text>
<text text-anchor="middle" x="705.5" y="-618.5" font-family="Helvetica,sans-Serif" font-size="10.00">_iterator_t::set_end</text>
</a>
</g>
</g>
<!-- Node3&#45;&gt;Node5 -->
<g id="edge4" class="edge">
<title>Node3&#45;&gt;Node5</title>
<path fill="none" stroke="midnightblue" d="M420.16,-663.63C476.74,-656.24 567.1,-644.44 630.74,-636.13"/>
<polygon fill="midnightblue" stroke="midnightblue" points="631.25,-639.59 640.72,-634.83 630.35,-632.65 631.25,-639.59"/>
</g>
<!-- Node6&#45;&gt;Node3 -->
<g id="edge6" class="edge">
<title>Node6&#45;&gt;Node3</title>
<path fill="none" stroke="midnightblue" d="M255.5,-636.6C271.75,-641.61 290,-647.23 306.89,-652.44"/>
<polygon fill="midnightblue" stroke="midnightblue" points="306.07,-655.85 316.66,-655.45 308.13,-649.16 306.07,-655.85"/>
</g>
<!-- Node8 -->
<g id="node8" class="node">
<title>Node8</title>
<g id="a_node8"><a xlink:href="a01945.html#a23e50ad4c13aa62d9ac7f60a123823ee" target="_top" xlink:title="set the iterator past the last value">
<polygon fill="white" stroke="black" points="483.5,-589.5 483.5,-619.5 590.5,-619.5 590.5,-589.5 483.5,-589.5"/>
<text text-anchor="start" x="491.5" y="-607.5" font-family="Helvetica,sans-Serif" font-size="10.00">nlohmann::detail::iter</text>
<text text-anchor="middle" x="537" y="-596.5" font-family="Helvetica,sans-Serif" font-size="10.00">_impl::set_end</text>
</a>
</g>
</g>
<!-- Node7&#45;&gt;Node8 -->
<g id="edge8" class="edge">
<title>Node7&#45;&gt;Node8</title>
<path fill="none" stroke="midnightblue" d="M242.66,-587.55C263.86,-596.08 288.66,-605.45 300,-607.5 358.04,-618.01 425.42,-615.75 473.29,-611.76"/>
<polygon fill="midnightblue" stroke="midnightblue" points="473.85,-615.23 483.5,-610.86 473.23,-608.25 473.85,-615.23"/>
</g>
<!-- Node8&#45;&gt;Node5 -->
<g id="edge9" class="edge">
<title>Node8&#45;&gt;Node5</title>
<path fill="none" stroke="midnightblue" d="M590.68,-611.46C603.36,-613.14 617.14,-614.96 630.59,-616.73"/>
<polygon fill="midnightblue" stroke="midnightblue" points="630.41,-620.24 640.78,-618.08 631.33,-613.3 630.41,-620.24"/>
</g>
<!-- Node9&#45;&gt;Node8 -->
<g id="edge12" class="edge">
<title>Node9&#45;&gt;Node8</title>
<path fill="none" stroke="midnightblue" d="M401.76,-548.09C411.91,-551.16 422.98,-554.75 433,-558.5 454.03,-566.37 476.87,-576.42 495.7,-585.11"/>
<polygon fill="midnightblue" stroke="midnightblue" points="494.32,-588.33 504.86,-589.38 497.28,-581.99 494.32,-588.33"/>
</g>
<!-- Node11 -->
<g id="node11" class="node">
<title>Node11</title>
<g id="a_node11"><a xlink:href="a01597.html#aa7649d30da9fc10b0e20704a27aea2a9" target="_top" xlink:title="replace all occurrences of a substring by another string">
<polygon fill="white" stroke="black" points="308,-479.5 308,-509.5 425,-509.5 425,-479.5 308,-479.5"/>
<text text-anchor="start" x="316" y="-497.5" font-family="Helvetica,sans-Serif" font-size="10.00">nlohmann::json_pointer</text>
<text text-anchor="middle" x="366.5" y="-486.5" font-family="Helvetica,sans-Serif" font-size="10.00">::replace_substring</text>
</a>
</g>
</g>
<!-- Node10&#45;&gt;Node11 -->
<g id="edge14" class="edge">
<title>Node10&#45;&gt;Node11</title>
<path fill="none" stroke="midnightblue" d="M225.67,-421.73C243.97,-435.75 272.72,-456.45 300,-470.5 303.32,-472.21 306.78,-473.85 310.32,-475.43"/>
<polygon fill="midnightblue" stroke="midnightblue" points="309.19,-478.75 319.77,-479.41 311.91,-472.3 309.19,-478.75"/>
</g>
<!-- Node12&#45;&gt;Node9 -->
<g id="edge16" class="edge">
<title>Node12&#45;&gt;Node9</title>
<path fill="none" stroke="midnightblue" d="M261.22,-528.66C270.49,-529.54 280.25,-530.46 289.94,-531.37"/>
<polygon fill="midnightblue" stroke="midnightblue" points="289.7,-534.86 299.98,-532.32 290.36,-527.9 289.7,-534.86"/>
</g>
<!-- Node13 -->
<g id="node13" class="node">
<title>Node13</title>
<g id="a_node13"><a xlink:href="a01593.html#a57e8411a770a6263d6d8f2116c37f3aa" target="_top" xlink:title="return whether value is an object">
<polygon fill="white" stroke="black" points="311,-567.5 311,-597.5 422,-597.5 422,-567.5 311,-567.5"/>
<text text-anchor="start" x="319" y="-585.5" font-family="Helvetica,sans-Serif" font-size="10.00">nlohmann::basic_json</text>
<text text-anchor="middle" x="366.5" y="-574.5" font-family="Helvetica,sans-Serif" font-size="10.00">::is_object</text>
</a>
</g>
</g>
<!-- Node12&#45;&gt;Node13 -->
<g id="edge17" class="edge">
<title>Node12&#45;&gt;Node13</title>
<path fill="none" stroke="midnightblue" d="M247.03,-538.54C267.87,-546.27 293.46,-555.77 315.51,-563.95"/>
<polygon fill="midnightblue" stroke="midnightblue" points="314.45,-567.29 325.04,-567.49 316.88,-560.73 314.45,-567.29"/>
</g>
<!-- Node15 -->
<g id="node15" class="node">
<title>Node15</title>
<g id="a_node15"><a xlink:href="a01501.html#a4e849260a3caa1b288c7e619130c6c09" target="_top" xlink:title=" ">
<polygon fill="white" stroke="black" points="306.5,-430.5 306.5,-460.5 426.5,-460.5 426.5,-430.5 306.5,-430.5"/>
<text text-anchor="start" x="314.5" y="-448.5" font-family="Helvetica,sans-Serif" font-size="10.00">nlohmann::detail::invalid</text>
<text text-anchor="middle" x="366.5" y="-437.5" font-family="Helvetica,sans-Serif" font-size="10.00">_iterator::create</text>
</a>
</g>
</g>
<!-- Node14&#45;&gt;Node15 -->
<g id="edge19" class="edge">
<title>Node14&#45;&gt;Node15</title>
<path fill="none" stroke="midnightblue" d="M240.22,-367.62C248.34,-371.92 256.76,-376.96 264,-382.5 282.73,-396.83 280.38,-408.41 300,-421.5 302.28,-423.02 304.67,-424.46 307.14,-425.83"/>
<polygon fill="midnightblue" stroke="midnightblue" points="305.8,-429.07 316.31,-430.42 308.93,-422.81 305.8,-429.07"/>
</g>
<!-- Node19 -->
<g id="node19" class="node">
<title>Node19</title>
<g id="a_node19"><a xlink:href="a01505.html#aecc083aea4b698c33d042670ba50c10f" target="_top" xlink:title=" ">
<polygon fill="white" stroke="black" points="310,-332.5 310,-362.5 423,-362.5 423,-332.5 310,-332.5"/>
<text text-anchor="start" x="318" y="-350.5" font-family="Helvetica,sans-Serif" font-size="10.00">nlohmann::detail::type</text>
<text text-anchor="middle" x="366.5" y="-339.5" font-family="Helvetica,sans-Serif" font-size="10.00">_error::create</text>
</a>
</g>
</g>
<!-- Node14&#45;&gt;Node19 -->
<g id="edge23" class="edge">
<title>Node14&#45;&gt;Node19</title>
<path fill="none" stroke="midnightblue" d="M261.22,-350.78C273.62,-350.39 286.92,-349.97 299.73,-349.57"/>
<polygon fill="midnightblue" stroke="midnightblue" points="299.99,-353.06 309.87,-349.25 299.77,-346.07 299.99,-353.06"/>
</g>
<!-- Node21 -->
<g id="node21" class="node">
<title>Node21</title>
<g id="a_node21"><a xlink:href="a01593.html#ab5c8034e997c5b852b92bdc6a3f70994" target="_top" xlink:title="Helper for insertion of an iterator.">
<polygon fill="white" stroke="black" points="311,-381.5 311,-411.5 422,-411.5 422,-381.5 311,-381.5"/>
<text text-anchor="start" x="319" y="-399.5" font-family="Helvetica,sans-Serif" font-size="10.00">nlohmann::basic_json</text>
<text text-anchor="middle" x="366.5" y="-388.5" font-family="Helvetica,sans-Serif" font-size="10.00">::insert_iterator</text>
</a>
</g>
</g>
<!-- Node14&#45;&gt;Node21 -->
<g id="edge26" class="edge">
<title>Node14&#45;&gt;Node21</title>
<path fill="none" stroke="midnightblue" d="M260.77,-367.52C273.88,-371.15 288,-375.05 301.5,-378.79"/>
<polygon fill="midnightblue" stroke="midnightblue" points="300.63,-382.18 311.2,-381.47 302.5,-375.43 300.63,-382.18"/>
</g>
<!-- Node22 -->
<g id="node22" class="node">
<title>Node22</title>
<g id="a_node22"><a xlink:href="a01593.html#ab5b70d60a636b9c5e10f6c8caac60b9e" target="_top" xlink:title="return whether value is an array">
<polygon fill="white" stroke="black" points="311,-234.5 311,-264.5 422,-264.5 422,-234.5 311,-234.5"/>
<text text-anchor="start" x="319" y="-252.5" font-family="Helvetica,sans-Serif" font-size="10.00">nlohmann::basic_json</text>
<text text-anchor="middle" x="366.5" y="-241.5" font-family="Helvetica,sans-Serif" font-size="10.00">::is_array</text>
</a>
</g>
</g>
<!-- Node14&#45;&gt;Node22 -->
<g id="edge27" class="edge">
<title>Node14&#45;&gt;Node22</title>
<path fill="none" stroke="midnightblue" d="M221.5,-337.24C239.03,-320.1 269.54,-292.34 300,-274.5 303.45,-272.48 307.08,-270.57 310.81,-268.77"/>
<polygon fill="midnightblue" stroke="midnightblue" points="312.52,-271.84 320.19,-264.53 309.63,-265.46 312.52,-271.84"/>
</g>
<!-- Node23 -->
<g id="node23" class="node">
<title>Node23</title>
<g id="a_node23"><a xlink:href="a01593.html#ab8811fc4eab6091b32b34b3ac3e90474" target="_top" xlink:title="return the type as string">
<polygon fill="white" stroke="black" points="311,-283.5 311,-313.5 422,-313.5 422,-283.5 311,-283.5"/>
<text text-anchor="start" x="319" y="-301.5" font-family="Helvetica,sans-Serif" font-size="10.00">nlohmann::basic_json</text>
<text text-anchor="middle" x="366.5" y="-290.5" font-family="Helvetica,sans-Serif" font-size="10.00">::type_name</text>
</a>
</g>
</g>
<!-- Node14&#45;&gt;Node23 -->
<g id="edge28" class="edge">
<title>Node14&#45;&gt;Node23</title>
<path fill="none" stroke="midnightblue" d="M250.79,-337.46C269.66,-331.05 291.85,-323.51 311.66,-316.78"/>
<polygon fill="midnightblue" stroke="midnightblue" points="312.83,-320.08 321.17,-313.55 310.58,-313.46 312.83,-320.08"/>
</g>
<!-- Node16 -->
<g id="node16" class="node">
<title>Node16</title>
<g id="a_node16"><a xlink:href="a01501.html#adf4a6697420f3bddb4addfc0b98f6ee2" target="_top" xlink:title=" ">
<polygon fill="white" stroke="black" points="477,-430.5 477,-460.5 597,-460.5 597,-430.5 477,-430.5"/>
<text text-anchor="start" x="485" y="-448.5" font-family="Helvetica,sans-Serif" font-size="10.00">nlohmann::detail::invalid</text>
<text text-anchor="middle" x="537" y="-437.5" font-family="Helvetica,sans-Serif" font-size="10.00">_iterator::invalid_iterator</text>
</a>
</g>
</g>
<!-- Node15&#45;&gt;Node16 -->
<g id="edge20" class="edge">
<title>Node15&#45;&gt;Node16</title>
<path fill="none" stroke="midnightblue" d="M426.91,-445.5C439.82,-445.5 453.58,-445.5 466.84,-445.5"/>
<polygon fill="midnightblue" stroke="midnightblue" points="466.85,-449 476.85,-445.5 466.85,-442 466.85,-449"/>
</g>
<!-- Node17 -->
<g id="node17" class="node">
<title>Node17</title>
<g id="a_node17"><a xlink:href="a01493.html#abf41a7e9178356314082284e6cfea278" target="_top" xlink:title=" ">
<polygon fill="white" stroke="black" points="469,-356.5 469,-386.5 605,-386.5 605,-356.5 469,-356.5"/>
<text text-anchor="start" x="477" y="-374.5" font-family="Helvetica,sans-Serif" font-size="10.00">nlohmann::detail::exception</text>
<text text-anchor="middle" x="537" y="-363.5" font-family="Helvetica,sans-Serif" font-size="10.00">::name</text>
</a>
</g>
</g>
<!-- Node15&#45;&gt;Node17 -->
<g id="edge21" class="edge">
<title>Node15&#45;&gt;Node17</title>
<path fill="none" stroke="midnightblue" d="M410.38,-430.49C417.97,-427.64 425.75,-424.58 433,-421.5 454.86,-412.22 478.74,-400.71 498,-391.08"/>
<polygon fill="midnightblue" stroke="midnightblue" points="499.7,-394.14 507.06,-386.52 496.55,-387.89 499.7,-394.14"/>
</g>
<!-- Node17&#45;&gt;Node18 -->
<g id="edge22" class="edge">
<title>Node17&#45;&gt;Node18</title>
<path fill="none" stroke="midnightblue" d="M587.78,-356.37C593.77,-353.78 599.65,-350.82 605,-347.5 639.95,-325.8 672.7,-290.13 690.53,-268.92"/>
<polygon fill="midnightblue" stroke="midnightblue" points="693.36,-270.99 697.02,-261.05 687.96,-266.54 693.36,-270.99"/>
</g>
<!-- Node19&#45;&gt;Node17 -->
<g id="edge25" class="edge">
<title>Node19&#45;&gt;Node17</title>
<path fill="none" stroke="midnightblue" d="M423.14,-355.43C434.6,-357.06 446.86,-358.8 458.92,-360.52"/>
<polygon fill="midnightblue" stroke="midnightblue" points="458.59,-364.01 468.98,-361.95 459.58,-357.08 458.59,-364.01"/>
</g>
<!-- Node20 -->
<g id="node20" class="node">
<title>Node20</title>
<g id="a_node20"><a xlink:href="a01505.html#aa01edaa0bf18b853368f0b900e485cd7" target="_top" xlink:title=" ">
<polygon fill="white" stroke="black" points="480.5,-307.5 480.5,-337.5 593.5,-337.5 593.5,-307.5 480.5,-307.5"/>
<text text-anchor="start" x="488.5" y="-325.5" font-family="Helvetica,sans-Serif" font-size="10.00">nlohmann::detail::type</text>
<text text-anchor="middle" x="537" y="-314.5" font-family="Helvetica,sans-Serif" font-size="10.00">_error::type_error</text>
</a>
</g>
</g>
<!-- Node19&#45;&gt;Node20 -->
<g id="edge24" class="edge">
<title>Node19&#45;&gt;Node20</title>
<path fill="none" stroke="midnightblue" d="M423.14,-339.24C438.24,-337 454.73,-334.56 470.32,-332.24"/>
<polygon fill="midnightblue" stroke="midnightblue" points="471.04,-335.68 480.42,-330.75 470.01,-328.75 471.04,-335.68"/>
</g>
<!-- Node25&#45;&gt;Node19 -->
<g id="edge32" class="edge">
<title>Node25&#45;&gt;Node19</title>
<path fill="none" stroke="midnightblue" d="M233.04,-289.61C251.51,-299.82 276.88,-313.26 300,-323.5 304.03,-325.29 308.24,-327.05 312.5,-328.76"/>
<polygon fill="midnightblue" stroke="midnightblue" points="311.26,-332.03 321.84,-332.41 313.8,-325.51 311.26,-332.03"/>
</g>
<!-- Node25&#45;&gt;Node22 -->
<g id="edge33" class="edge">
<title>Node25&#45;&gt;Node22</title>
<path fill="none" stroke="midnightblue" d="M261.22,-265.9C274.03,-263.88 287.8,-261.72 301,-259.64"/>
<polygon fill="midnightblue" stroke="midnightblue" points="301.61,-263.09 310.95,-258.08 300.53,-256.17 301.61,-263.09"/>
</g>
<!-- Node25&#45;&gt;Node23 -->
<g id="edge35" class="edge">
<title>Node25&#45;&gt;Node23</title>
<path fill="none" stroke="midnightblue" d="M261.22,-282.76C274.03,-284.69 287.8,-286.77 301,-288.76"/>
<polygon fill="midnightblue" stroke="midnightblue" points="300.54,-292.23 310.95,-290.27 301.58,-285.31 300.54,-292.23"/>
</g>
<!-- Node26 -->
<g id="node26" class="node">
<title>Node26</title>
<g id="a_node26"><a xlink:href="a01593.html#aa7e7b1bdb6e9dbcfa5e284e8a2fb6464" target="_top" xlink:title="checks the class invariants">
<polygon fill="white" stroke="black" points="311,-136.5 311,-166.5 422,-166.5 422,-136.5 311,-136.5"/>
<text text-anchor="start" x="319" y="-154.5" font-family="Helvetica,sans-Serif" font-size="10.00">nlohmann::basic_json</text>
<text text-anchor="middle" x="366.5" y="-143.5" font-family="Helvetica,sans-Serif" font-size="10.00">::assert_invariant</text>
</a>
</g>
</g>
<!-- Node25&#45;&gt;Node26 -->
<g id="edge31" class="edge">
<title>Node25&#45;&gt;Node26</title>
<path fill="none" stroke="midnightblue" d="M217.54,-259.2C233.56,-238 265.14,-199.67 300,-176.5 302.93,-174.55 306.03,-172.73 309.22,-171.02"/>
<polygon fill="midnightblue" stroke="midnightblue" points="310.98,-174.06 318.42,-166.52 307.9,-167.77 310.98,-174.06"/>
</g>
<!-- Node27 -->
<g id="node27" class="node">
<title>Node27</title>
<g id="a_node27"><a xlink:href="a01593.html#aedc7afad96292b5ab61a2e0ad3067f5f" target="_top" xlink:title="return whether value is null">
<polygon fill="white" stroke="black" points="311,-185.5 311,-215.5 422,-215.5 422,-185.5 311,-185.5"/>
<text text-anchor="start" x="319" y="-203.5" font-family="Helvetica,sans-Serif" font-size="10.00">nlohmann::basic_json</text>
<text text-anchor="middle" x="366.5" y="-192.5" font-family="Helvetica,sans-Serif" font-size="10.00">::is_null</text>
</a>
</g>
</g>
<!-- Node25&#45;&gt;Node27 -->
<g id="edge34" class="edge">
<title>Node25&#45;&gt;Node27</title>
<path fill="none" stroke="midnightblue" d="M233.09,-259.49C251.58,-249.32 276.95,-235.9 300,-225.5 304.67,-223.4 309.57,-221.31 314.5,-219.29"/>
<polygon fill="midnightblue" stroke="midnightblue" points="315.98,-222.47 323.97,-215.5 313.38,-215.97 315.98,-222.47"/>
</g>
</g>
</svg>
