<?xml version="1.0" encoding="UTF-8" standalone="no"?>
<!DOCTYPE svg PUBLIC "-//W3C//DTD SVG 1.1//EN"
 "http://www.w3.org/Graphics/SVG/1.1/DTD/svg11.dtd">
<!-- Generated by graphviz version 8.0.5 (20230430.1635)
 -->
<!-- Title: nlohmann::basic_json::to_bson Pages: 1 -->
<svg width="1703pt" height="560pt"
 viewBox="0.00 0.00 1703.25 559.94" xmlns="http://www.w3.org/2000/svg" xmlns:xlink="http://www.w3.org/1999/xlink">
<g id="graph0" class="graph" transform="scale(1 1) rotate(0) translate(4 555.94)">
<title>nlohmann::basic_json::to_bson</title>
<!-- Node1 -->
<g id="node1" class="node">
<title>Node1</title>
<g id="a_node1"><a xlink:title="Serializes the given JSON object j to BSON and forwards the corresponding BSON&#45;representation to the ...">
<polygon fill="#999999" stroke="#666666" points="110.5,-310.94 0,-310.94 0,-278.94 110.5,-278.94 110.5,-310.94"/>
<text text-anchor="start" x="8" y="-297.44" font-family="Helvetica,sans-Serif" font-size="10.00">nlohmann::basic_json</text>
<text text-anchor="middle" x="55.25" y="-285.44" font-family="Helvetica,sans-Serif" font-size="10.00">::to_bson</text>
</a>
</g>
</g>
<!-- Node2 -->
<g id="node2" class="node">
<title>Node2</title>
<g id="a_node2"><a xlink:href="a01973.html#a9ffc566db5219b473762462234b47db9" target="_top" xlink:title=" ">
<polygon fill="white" stroke="#666666" points="266,-310.94 146.5,-310.94 146.5,-278.94 266,-278.94 266,-310.94"/>
<text text-anchor="start" x="154.5" y="-297.44" font-family="Helvetica,sans-Serif" font-size="10.00">nlohmann::detail::binary</text>
<text text-anchor="middle" x="206.25" y="-285.44" font-family="Helvetica,sans-Serif" font-size="10.00">_writer::write_bson</text>
</a>
</g>
</g>
<!-- Node1&#45;&gt;Node2 -->
<g id="edge1" class="edge">
<title>Node1&#45;&gt;Node2</title>
<path fill="none" stroke="#63b8ff" d="M110.89,-294.94C118.86,-294.94 127.15,-294.94 135.37,-294.94"/>
<polygon fill="#63b8ff" stroke="#63b8ff" points="135.1,-298.44 145.1,-294.94 135.1,-291.44 135.1,-298.44"/>
</g>
<!-- Node3 -->
<g id="node3" class="node">
<title>Node3</title>
<g id="a_node3"><a xlink:href="a01505.html#aecc083aea4b698c33d042670ba50c10f" target="_top" xlink:title=" ">
<polygon fill="white" stroke="#666666" points="590.88,-551.94 478.88,-551.94 478.88,-519.94 590.88,-519.94 590.88,-551.94"/>
<text text-anchor="start" x="486.88" y="-538.44" font-family="Helvetica,sans-Serif" font-size="10.00">nlohmann::detail::type</text>
<text text-anchor="middle" x="534.88" y="-526.44" font-family="Helvetica,sans-Serif" font-size="10.00">_error::create</text>
</a>
</g>
</g>
<!-- Node2&#45;&gt;Node3 -->
<g id="edge2" class="edge">
<title>Node2&#45;&gt;Node3</title>
<path fill="none" stroke="#63b8ff" d="M223.95,-311.24C263.47,-349.15 366.87,-444.72 466.5,-505.94 471.55,-509.04 476.97,-512 482.46,-514.77"/>
<polygon fill="#63b8ff" stroke="#63b8ff" points="480.85,-518.36 491.37,-519.54 483.88,-512.05 480.85,-518.36"/>
</g>
<!-- Node5 -->
<g id="node5" class="node">
<title>Node5</title>
<g id="a_node5"><a xlink:href="a01973.html#a29b3e0f83a8e5f2307804023109ba2c9" target="_top" xlink:title=" ">
<polygon fill="white" stroke="#666666" points="430.5,-288.94 302,-288.94 302,-256.94 430.5,-256.94 430.5,-288.94"/>
<text text-anchor="start" x="310" y="-275.44" font-family="Helvetica,sans-Serif" font-size="10.00">nlohmann::detail::binary</text>
<text text-anchor="middle" x="366.25" y="-263.44" font-family="Helvetica,sans-Serif" font-size="10.00">_writer::write_bson_object</text>
</a>
</g>
</g>
<!-- Node2&#45;&gt;Node5 -->
<g id="edge4" class="edge">
<title>Node2&#45;&gt;Node5</title>
<path fill="none" stroke="#63b8ff" d="M266.08,-286.75C274.14,-285.63 282.49,-284.47 290.77,-283.31"/>
<polygon fill="#63b8ff" stroke="#63b8ff" points="291.18,-286.65 300.6,-281.81 290.21,-279.72 291.18,-286.65"/>
</g>
<!-- Node4 -->
<g id="node4" class="node">
<title>Node4</title>
<g id="a_node4"><a xlink:href="a01493.html#abf41a7e9178356314082284e6cfea278" target="_top" xlink:title=" ">
<polygon fill="white" stroke="#666666" points="1695.25,-507.94 1560,-507.94 1560,-475.94 1695.25,-475.94 1695.25,-507.94"/>
<text text-anchor="start" x="1568" y="-494.44" font-family="Helvetica,sans-Serif" font-size="10.00">nlohmann::detail::exception</text>
<text text-anchor="middle" x="1627.63" y="-482.44" font-family="Helvetica,sans-Serif" font-size="10.00">::name</text>
</a>
</g>
</g>
<!-- Node3&#45;&gt;Node4 -->
<g id="edge3" class="edge">
<title>Node3&#45;&gt;Node4</title>
<path fill="none" stroke="#63b8ff" d="M591.19,-535.94C664.04,-535.94 796.12,-535.94 909,-535.94 909,-535.94 909,-535.94 1301.13,-535.94 1386.47,-535.94 1483.28,-520.9 1548.98,-508.41"/>
<polygon fill="#63b8ff" stroke="#63b8ff" points="1549.5,-511.68 1558.65,-506.35 1548.17,-504.81 1549.5,-511.68"/>
</g>
<!-- Node6 -->
<g id="node6" class="node">
<title>Node6</title>
<g id="a_node6"><a xlink:href="a01973.html#acc6f1cc1fd370ee84ebc8cf7b8712840" target="_top" xlink:title="Calculates the size of the BSON serialization of the given JSON&#45;object j.">
<polygon fill="white" stroke="#666666" points="1374.88,-507.94 1225.38,-507.94 1225.38,-475.94 1374.88,-475.94 1374.88,-507.94"/>
<text text-anchor="start" x="1233.38" y="-494.44" font-family="Helvetica,sans-Serif" font-size="10.00">nlohmann::detail::binary</text>
<text text-anchor="middle" x="1300.13" y="-482.44" font-family="Helvetica,sans-Serif" font-size="10.00">_writer::calc_bson_object_size</text>
</a>
</g>
</g>
<!-- Node5&#45;&gt;Node6 -->
<g id="edge5" class="edge">
<title>Node5&#45;&gt;Node6</title>
<path fill="none" stroke="#63b8ff" d="M380.57,-289.4C423.41,-340.34 563.72,-491.94 716,-491.94 716,-491.94 716,-491.94 911,-491.94 1015.42,-491.94 1135.64,-491.94 1214.27,-491.94"/>
<polygon fill="#63b8ff" stroke="#63b8ff" points="1214.08,-495.44 1224.08,-491.94 1214.08,-488.44 1214.08,-495.44"/>
</g>
<!-- Node7 -->
<g id="node7" class="node">
<title>Node7</title>
<g id="a_node7"><a xlink:href="a01973.html#ab77aa48692bd4e64e4f051ce6aeb6d2d" target="_top" xlink:title=" ">
<polygon fill="white" stroke="#666666" points="1163.88,-285.94 1044.38,-285.94 1044.38,-253.94 1163.88,-253.94 1163.88,-285.94"/>
<text text-anchor="start" x="1052.38" y="-272.44" font-family="Helvetica,sans-Serif" font-size="10.00">nlohmann::detail::binary</text>
<text text-anchor="middle" x="1104.13" y="-260.44" font-family="Helvetica,sans-Serif" font-size="10.00">_writer::to_char_type</text>
</a>
</g>
</g>
<!-- Node5&#45;&gt;Node7 -->
<g id="edge6" class="edge">
<title>Node5&#45;&gt;Node7</title>
<path fill="none" stroke="#63b8ff" d="M372.04,-256.52C383.05,-221.53 413.37,-138.98 466.5,-91.94 528.4,-37.14 558.06,-38.56 639.25,-22.94 793.56,6.73 864.08,22.05 989.25,-72.94 1047.46,-117.12 1081,-200.3 1095.13,-243.06"/>
<polygon fill="#63b8ff" stroke="#63b8ff" points="1092.09,-244.04 1098.46,-252.5 1098.76,-241.91 1092.09,-244.04"/>
</g>
<!-- Node8 -->
<g id="node8" class="node">
<title>Node8</title>
<g id="a_node8"><a xlink:href="a01973.html#a7ff58bf1a80018148bed860667ffca07" target="_top" xlink:title="Serializes the JSON value j to BSON and associates it with the key name.">
<polygon fill="white" stroke="#666666" points="603.25,-288.94 466.5,-288.94 466.5,-256.94 603.25,-256.94 603.25,-288.94"/>
<text text-anchor="start" x="474.5" y="-275.44" font-family="Helvetica,sans-Serif" font-size="10.00">nlohmann::detail::binary</text>
<text text-anchor="middle" x="534.88" y="-263.44" font-family="Helvetica,sans-Serif" font-size="10.00">_writer::write_bson_element</text>
</a>
</g>
</g>
<!-- Node5&#45;&gt;Node8 -->
<g id="edge7" class="edge">
<title>Node5&#45;&gt;Node8</title>
<path fill="none" stroke="#63b8ff" d="M430.72,-272.94C438.78,-272.94 447.1,-272.94 455.35,-272.94"/>
<polygon fill="#63b8ff" stroke="#63b8ff" points="455.15,-276.44 465.15,-272.94 455.15,-269.44 455.15,-276.44"/>
</g>
<!-- Node9 -->
<g id="node9" class="node">
<title>Node9</title>
<g id="a_node9"><a xlink:href="a01973.html#a025212bd170253638b9f05b3b6aa5bf9" target="_top" xlink:title="Writes a BSON element with key name and array value.">
<polygon fill="white" stroke="#666666" points="779,-413.94 655,-413.94 655,-381.94 779,-381.94 779,-413.94"/>
<text text-anchor="start" x="663" y="-400.44" font-family="Helvetica,sans-Serif" font-size="10.00">nlohmann::detail::binary</text>
<text text-anchor="middle" x="717" y="-388.44" font-family="Helvetica,sans-Serif" font-size="10.00">_writer::write_bson_array</text>
</a>
</g>
</g>
<!-- Node8&#45;&gt;Node9 -->
<g id="edge8" class="edge">
<title>Node8&#45;&gt;Node9</title>
<path fill="none" stroke="#63b8ff" d="M554.14,-289.09C573.2,-309.43 605.02,-343.34 639.25,-363.94 648.61,-369.58 659.4,-374.1 669.87,-377.92"/>
<polygon fill="#63b8ff" stroke="#63b8ff" points="668.57,-381.53 679.16,-381.52 670.88,-374.92 668.57,-381.53"/>
</g>
<!-- Node19 -->
<g id="node19" class="node">
<title>Node19</title>
<g id="a_node19"><a xlink:href="a01973.html#a97d34d9a70ddc06ae782c55454df42bc" target="_top" xlink:title="Writes a BSON element with key name and binary value value.">
<polygon fill="white" stroke="#666666" points="781.25,-113.94 652.75,-113.94 652.75,-81.94 781.25,-81.94 781.25,-113.94"/>
<text text-anchor="start" x="660.75" y="-100.44" font-family="Helvetica,sans-Serif" font-size="10.00">nlohmann::detail::binary</text>
<text text-anchor="middle" x="717" y="-88.44" font-family="Helvetica,sans-Serif" font-size="10.00">_writer::write_bson_binary</text>
</a>
</g>
</g>
<!-- Node8&#45;&gt;Node19 -->
<g id="edge24" class="edge">
<title>Node8&#45;&gt;Node19</title>
<path fill="none" stroke="#63b8ff" d="M542.69,-256.8C556.42,-226.17 590.33,-159.45 639.25,-122.94 640.76,-121.82 642.31,-120.75 643.92,-119.72"/>
<polygon fill="#63b8ff" stroke="#63b8ff" points="645.49,-122.29 652.49,-114.33 642.06,-116.18 645.49,-122.29"/>
</g>
<!-- Node21 -->
<g id="node21" class="node">
<title>Node21</title>
<g id="a_node21"><a xlink:href="a01973.html#ae099435e1df3096e0fc78333282f8f67" target="_top" xlink:title="Writes a BSON element with key name and boolean value value.">
<polygon fill="white" stroke="#666666" points="785,-363.94 649,-363.94 649,-331.94 785,-331.94 785,-363.94"/>
<text text-anchor="start" x="657" y="-350.44" font-family="Helvetica,sans-Serif" font-size="10.00">nlohmann::detail::binary</text>
<text text-anchor="middle" x="717" y="-338.44" font-family="Helvetica,sans-Serif" font-size="10.00">_writer::write_bson_boolean</text>
</a>
</g>
</g>
<!-- Node8&#45;&gt;Node21 -->
<g id="edge27" class="edge">
<title>Node8&#45;&gt;Node21</title>
<path fill="none" stroke="#63b8ff" d="M567.05,-289.39C587.31,-299.74 614.47,-312.97 639.25,-322.94 643.42,-324.62 647.75,-326.27 652.13,-327.87"/>
<polygon fill="#63b8ff" stroke="#63b8ff" points="650.81,-331.47 661.4,-331.52 653.15,-324.88 650.81,-331.47"/>
</g>
<!-- Node22 -->
<g id="node22" class="node">
<title>Node22</title>
<g id="a_node22"><a xlink:href="a01973.html#a263ec18815467bb9919021ef126919ca" target="_top" xlink:title="Writes a BSON element with key name and double value value.">
<polygon fill="white" stroke="#666666" points="782.38,-313.94 651.63,-313.94 651.63,-281.94 782.38,-281.94 782.38,-313.94"/>
<text text-anchor="start" x="659.63" y="-300.44" font-family="Helvetica,sans-Serif" font-size="10.00">nlohmann::detail::binary</text>
<text text-anchor="middle" x="717" y="-288.44" font-family="Helvetica,sans-Serif" font-size="10.00">_writer::write_bson_double</text>
</a>
</g>
</g>
<!-- Node8&#45;&gt;Node22 -->
<g id="edge30" class="edge">
<title>Node8&#45;&gt;Node22</title>
<path fill="none" stroke="#63b8ff" d="M603.72,-282.36C615.75,-284.03 628.35,-285.78 640.57,-287.48"/>
<polygon fill="#63b8ff" stroke="#63b8ff" points="639.81,-291.04 650.2,-288.95 640.78,-284.11 639.81,-291.04"/>
</g>
<!-- Node23 -->
<g id="node23" class="node">
<title>Node23</title>
<g id="a_node23"><a xlink:href="a01973.html#a553ad4dbdf27238eef90867e4bf2f3e5" target="_top" xlink:title="Writes a BSON element with key name and integer value.">
<polygon fill="white" stroke="#666666" points="782.75,-163.94 651.25,-163.94 651.25,-131.94 782.75,-131.94 782.75,-163.94"/>
<text text-anchor="start" x="659.25" y="-150.44" font-family="Helvetica,sans-Serif" font-size="10.00">nlohmann::detail::binary</text>
<text text-anchor="middle" x="717" y="-138.44" font-family="Helvetica,sans-Serif" font-size="10.00">_writer::write_bson_integer</text>
</a>
</g>
</g>
<!-- Node8&#45;&gt;Node23 -->
<g id="edge32" class="edge">
<title>Node8&#45;&gt;Node23</title>
<path fill="none" stroke="#63b8ff" d="M548.51,-256.76C566.46,-234.82 601.38,-195.74 639.25,-172.94 641.56,-171.55 643.96,-170.23 646.42,-168.97"/>
<polygon fill="#63b8ff" stroke="#63b8ff" points="647.56,-171.84 655.14,-164.44 644.6,-165.49 647.56,-171.84"/>
</g>
<!-- Node24 -->
<g id="node24" class="node">
<title>Node24</title>
<g id="a_node24"><a xlink:href="a01973.html#a9927c1110b18661e0224a76156e5a7a9" target="_top" xlink:title="Writes a BSON element with key name and null value.">
<polygon fill="white" stroke="#666666" points="776.75,-263.94 657.25,-263.94 657.25,-231.94 776.75,-231.94 776.75,-263.94"/>
<text text-anchor="start" x="665.25" y="-250.44" font-family="Helvetica,sans-Serif" font-size="10.00">nlohmann::detail::binary</text>
<text text-anchor="middle" x="717" y="-238.44" font-family="Helvetica,sans-Serif" font-size="10.00">_writer::write_bson_null</text>
</a>
</g>
</g>
<!-- Node8&#45;&gt;Node24 -->
<g id="edge34" class="edge">
<title>Node8&#45;&gt;Node24</title>
<path fill="none" stroke="#63b8ff" d="M603.72,-263.53C617.62,-261.6 632.28,-259.56 646.26,-257.62"/>
<polygon fill="#63b8ff" stroke="#63b8ff" points="646.36,-261 655.78,-256.16 645.4,-254.07 646.36,-261"/>
</g>
<!-- Node25 -->
<g id="node25" class="node">
<title>Node25</title>
<g id="a_node25"><a xlink:href="a01973.html#a6231302930265eccb3f56c378f7b0661" target="_top" xlink:title="Writes a BSON element with key name and object value.">
<polygon fill="white" stroke="#666666" points="794.75,-63.94 639.25,-63.94 639.25,-31.94 794.75,-31.94 794.75,-63.94"/>
<text text-anchor="start" x="647.25" y="-50.44" font-family="Helvetica,sans-Serif" font-size="10.00">nlohmann::detail::binary</text>
<text text-anchor="middle" x="717" y="-38.44" font-family="Helvetica,sans-Serif" font-size="10.00">_writer::write_bson_object_entry</text>
</a>
</g>
</g>
<!-- Node8&#45;&gt;Node25 -->
<g id="edge36" class="edge">
<title>Node8&#45;&gt;Node25</title>
<path fill="none" stroke="#63b8ff" d="M544.14,-256.55C567.96,-209.35 635.33,-76.27 639.25,-72.94 640.45,-71.92 641.7,-70.94 642.98,-70"/>
<polygon fill="#63b8ff" stroke="#63b8ff" points="644.31,-72.67 650.89,-64.36 640.57,-66.75 644.31,-72.67"/>
</g>
<!-- Node26 -->
<g id="node26" class="node">
<title>Node26</title>
<g id="a_node26"><a xlink:href="a01973.html#a5e6574416915208fc035b57338ae3252" target="_top" xlink:title="Writes a BSON element with key name and string value value.">
<polygon fill="white" stroke="#666666" points="780.13,-213.94 653.88,-213.94 653.88,-181.94 780.13,-181.94 780.13,-213.94"/>
<text text-anchor="start" x="661.88" y="-200.44" font-family="Helvetica,sans-Serif" font-size="10.00">nlohmann::detail::binary</text>
<text text-anchor="middle" x="717" y="-188.44" font-family="Helvetica,sans-Serif" font-size="10.00">_writer::write_bson_string</text>
</a>
</g>
</g>
<!-- Node8&#45;&gt;Node26 -->
<g id="edge39" class="edge">
<title>Node8&#45;&gt;Node26</title>
<path fill="none" stroke="#63b8ff" d="M567.05,-256.5C587.31,-246.15 614.47,-232.92 639.25,-222.94 643.42,-221.27 647.75,-219.62 652.13,-218.01"/>
<polygon fill="#63b8ff" stroke="#63b8ff" points="653.15,-221.01 661.4,-214.37 650.81,-214.41 653.15,-221.01"/>
</g>
<!-- Node27 -->
<g id="node27" class="node">
<title>Node27</title>
<g id="a_node27"><a xlink:href="a01973.html#a5e295ed1be6af6260d2a65f7397c3742" target="_top" xlink:title="Writes a BSON element with key name and unsigned value.">
<polygon fill="white" stroke="#666666" points="787.63,-463.94 646.38,-463.94 646.38,-431.94 787.63,-431.94 787.63,-463.94"/>
<text text-anchor="start" x="654.38" y="-450.44" font-family="Helvetica,sans-Serif" font-size="10.00">nlohmann::detail::binary</text>
<text text-anchor="middle" x="717" y="-438.44" font-family="Helvetica,sans-Serif" font-size="10.00">_writer::write_bson_unsigned</text>
</a>
</g>
</g>
<!-- Node8&#45;&gt;Node27 -->
<g id="edge41" class="edge">
<title>Node8&#45;&gt;Node27</title>
<path fill="none" stroke="#63b8ff" d="M542.69,-289.09C556.42,-319.72 590.33,-386.44 639.25,-422.94 640.76,-424.07 642.31,-425.14 643.92,-426.17"/>
<polygon fill="#63b8ff" stroke="#63b8ff" points="642.06,-429.7 652.49,-431.55 645.49,-423.6 642.06,-429.7"/>
</g>
<!-- Node9&#45;&gt;Node7 -->
<g id="edge20" class="edge">
<title>Node9&#45;&gt;Node7</title>
<path fill="none" stroke="#63b8ff" d="M774.45,-381.52C781.4,-378.93 788.32,-376.06 794.75,-372.94 812.05,-364.55 813.04,-356.43 830.75,-348.94 897.12,-320.91 920.29,-335.81 989.25,-314.94 1011.62,-308.18 1035.77,-298.92 1056.06,-290.57"/>
<polygon fill="#63b8ff" stroke="#63b8ff" points="1057.1,-293.51 1064.98,-286.42 1054.4,-287.05 1057.1,-293.51"/>
</g>
<!-- Node9&#45;&gt;Node8 -->
<g id="edge21" class="edge">
<title>Node9&#45;&gt;Node8</title>
<path fill="none" stroke="#63b8ff" d="M654.54,-389.72C649.23,-387.43 644.05,-384.83 639.25,-381.94 602.83,-360.02 569.13,-323.03 550.64,-298.06"/>
<polygon fill="#63b8ff" stroke="#63b8ff" points="552.96,-296.28 544.33,-290.14 547.25,-300.32 552.96,-296.28"/>
</g>
<!-- Node10 -->
<g id="node10" class="node">
<title>Node10</title>
<g id="a_node10"><a xlink:href="a01973.html#af08f9302a02516ff8cf358a99aaa1ddf" target="_top" xlink:title=" ">
<polygon fill="white" stroke="#666666" points="982.5,-389.94 837.5,-389.94 837.5,-357.94 982.5,-357.94 982.5,-389.94"/>
<text text-anchor="start" x="845.5" y="-376.44" font-family="Helvetica,sans-Serif" font-size="10.00">nlohmann::detail::binary</text>
<text text-anchor="middle" x="910" y="-364.44" font-family="Helvetica,sans-Serif" font-size="10.00">_writer::calc_bson_array_size</text>
</a>
</g>
</g>
<!-- Node9&#45;&gt;Node10 -->
<g id="edge9" class="edge">
<title>Node9&#45;&gt;Node10</title>
<path fill="none" stroke="#63b8ff" d="M779.48,-390.22C794.46,-388.34 810.72,-386.29 826.49,-384.31"/>
<polygon fill="#63b8ff" stroke="#63b8ff" points="826.83,-387.67 836.32,-382.95 825.96,-380.73 826.83,-387.67"/>
</g>
<!-- Node18 -->
<g id="node18" class="node">
<title>Node18</title>
<g id="a_node18"><a xlink:href="a01973.html#a1b5b7f5c03b1f8b1f59ea61db9634108" target="_top" xlink:title="Writes the given element_type and name to the output adapter.">
<polygon fill="white" stroke="#666666" points="989.25,-263.94 830.75,-263.94 830.75,-231.94 989.25,-231.94 989.25,-263.94"/>
<text text-anchor="start" x="838.75" y="-250.44" font-family="Helvetica,sans-Serif" font-size="10.00">nlohmann::detail::binary</text>
<text text-anchor="middle" x="910" y="-238.44" font-family="Helvetica,sans-Serif" font-size="10.00">_writer::write_bson_entry_header</text>
</a>
</g>
</g>
<!-- Node9&#45;&gt;Node18 -->
<g id="edge22" class="edge">
<title>Node9&#45;&gt;Node18</title>
<path fill="none" stroke="#63b8ff" d="M779.49,-382.32C784.92,-379.66 790.1,-376.56 794.75,-372.94 818.4,-354.54 811.23,-338.68 830.75,-315.94 844.86,-299.5 863,-283.49 878.26,-271.14"/>
<polygon fill="#63b8ff" stroke="#63b8ff" points="880.21,-273.27 885.87,-264.31 875.86,-267.79 880.21,-273.27"/>
</g>
<!-- Node11 -->
<g id="node11" class="node">
<title>Node11</title>
<g id="a_node11"><a xlink:href="a01973.html#a1e4372c5984184eb5bcc09af1fcc2ee0" target="_top" xlink:title="Calculates the size necessary to serialize the JSON value j with its name.">
<polygon fill="white" stroke="#666666" points="1183,-376.94 1025.25,-376.94 1025.25,-344.94 1183,-344.94 1183,-376.94"/>
<text text-anchor="start" x="1033.25" y="-363.44" font-family="Helvetica,sans-Serif" font-size="10.00">nlohmann::detail::binary</text>
<text text-anchor="middle" x="1104.13" y="-351.44" font-family="Helvetica,sans-Serif" font-size="10.00">_writer::calc_bson_element_size</text>
</a>
</g>
</g>
<!-- Node10&#45;&gt;Node11 -->
<g id="edge10" class="edge">
<title>Node10&#45;&gt;Node11</title>
<path fill="none" stroke="#63b8ff" d="M982.81,-362.53C993.02,-361.67 1003.61,-360.9 1014.1,-360.23"/>
<polygon fill="#63b8ff" stroke="#63b8ff" points="1014.18,-363.68 1023.96,-359.59 1013.77,-356.69 1014.18,-363.68"/>
</g>
<!-- Node11&#45;&gt;Node6 -->
<g id="edge17" class="edge">
<title>Node11&#45;&gt;Node6</title>
<path fill="none" stroke="#63b8ff" d="M1129.3,-377.27C1163.81,-400.57 1227.3,-443.45 1266.12,-469.65"/>
<polygon fill="#63b8ff" stroke="#63b8ff" points="1263.7,-472.92 1273.95,-475.62 1267.62,-467.12 1263.7,-472.92"/>
</g>
<!-- Node11&#45;&gt;Node10 -->
<g id="edge11" class="edge">
<title>Node11&#45;&gt;Node10</title>
<path fill="none" stroke="#63b8ff" d="M1024.96,-372.88C1014.61,-373.7 1003.98,-374.44 993.57,-375.05"/>
<polygon fill="#63b8ff" stroke="#63b8ff" points="993.61,-371.59 983.81,-375.64 993.99,-378.58 993.61,-371.59"/>
</g>
<!-- Node12 -->
<g id="node12" class="node">
<title>Node12</title>
<g id="a_node12"><a xlink:href="a01973.html#a9dd6062fd249a695e0f93d558dba4685" target="_top" xlink:title=" ">
<polygon fill="white" stroke="#666666" points="1374.88,-307.94 1225.38,-307.94 1225.38,-275.94 1374.88,-275.94 1374.88,-307.94"/>
<text text-anchor="start" x="1233.38" y="-294.44" font-family="Helvetica,sans-Serif" font-size="10.00">nlohmann::detail::binary</text>
<text text-anchor="middle" x="1300.13" y="-282.44" font-family="Helvetica,sans-Serif" font-size="10.00">_writer::calc_bson_binary_size</text>
</a>
</g>
</g>
<!-- Node11&#45;&gt;Node12 -->
<g id="edge12" class="edge">
<title>Node11&#45;&gt;Node12</title>
<path fill="none" stroke="#63b8ff" d="M1145.73,-344.5C1167.36,-335.94 1194.49,-325.49 1219,-316.94 1224.03,-315.19 1229.26,-313.43 1234.53,-311.69"/>
<polygon fill="#63b8ff" stroke="#63b8ff" points="1235.23,-314.82 1243.66,-308.4 1233.07,-308.16 1235.23,-314.82"/>
</g>
<!-- Node13 -->
<g id="node13" class="node">
<title>Node13</title>
<g id="a_node13"><a xlink:href="a01973.html#a5bae2f1db2c511b869dffaddf15a1653" target="_top" xlink:title=" ">
<polygon fill="white" stroke="#666666" points="1361,-369.94 1239.25,-369.94 1239.25,-325.94 1361,-325.94 1361,-369.94"/>
<text text-anchor="start" x="1247.25" y="-356.44" font-family="Helvetica,sans-Serif" font-size="10.00">nlohmann::detail::binary</text>
<text text-anchor="start" x="1247.25" y="-344.44" font-family="Helvetica,sans-Serif" font-size="10.00">_writer::calc_bson_entry</text>
<text text-anchor="middle" x="1300.13" y="-332.44" font-family="Helvetica,sans-Serif" font-size="10.00">_header_size</text>
</a>
</g>
</g>
<!-- Node11&#45;&gt;Node13 -->
<g id="edge13" class="edge">
<title>Node11&#45;&gt;Node13</title>
<path fill="none" stroke="#63b8ff" d="M1183.47,-355.69C1198.22,-354.71 1213.57,-353.68 1228.08,-352.7"/>
<polygon fill="#63b8ff" stroke="#63b8ff" points="1228.24,-356.13 1237.99,-351.97 1227.78,-349.15 1228.24,-356.13"/>
</g>
<!-- Node15 -->
<g id="node15" class="node">
<title>Node15</title>
<g id="a_node15"><a xlink:href="a01973.html#aeab70c895931b96ea598306b37eca271" target="_top" xlink:title=" ">
<polygon fill="white" stroke="#666666" points="1376.38,-257.94 1223.88,-257.94 1223.88,-225.94 1376.38,-225.94 1376.38,-257.94"/>
<text text-anchor="start" x="1231.88" y="-244.44" font-family="Helvetica,sans-Serif" font-size="10.00">nlohmann::detail::binary</text>
<text text-anchor="middle" x="1300.13" y="-232.44" font-family="Helvetica,sans-Serif" font-size="10.00">_writer::calc_bson_integer_size</text>
</a>
</g>
</g>
<!-- Node11&#45;&gt;Node15 -->
<g id="edge16" class="edge">
<title>Node11&#45;&gt;Node15</title>
<path fill="none" stroke="#63b8ff" d="M1124.58,-344.55C1155.71,-318.38 1213.74,-269.79 1219,-266.94 1221.86,-265.4 1224.82,-263.93 1227.85,-262.54"/>
<polygon fill="#63b8ff" stroke="#63b8ff" points="1228.88,-265.49 1236.73,-258.37 1226.16,-259.04 1228.88,-265.49"/>
</g>
<!-- Node16 -->
<g id="node16" class="node">
<title>Node16</title>
<g id="a_node16"><a xlink:href="a01973.html#aea44fd97a5cb9b4f175e66e3e4fdf158" target="_top" xlink:title=" ">
<polygon fill="white" stroke="#666666" points="1373.75,-207.94 1226.5,-207.94 1226.5,-175.94 1373.75,-175.94 1373.75,-207.94"/>
<text text-anchor="start" x="1234.5" y="-194.44" font-family="Helvetica,sans-Serif" font-size="10.00">nlohmann::detail::binary</text>
<text text-anchor="middle" x="1300.13" y="-182.44" font-family="Helvetica,sans-Serif" font-size="10.00">_writer::calc_bson_string_size</text>
</a>
</g>
</g>
<!-- Node11&#45;&gt;Node16 -->
<g id="edge18" class="edge">
<title>Node11&#45;&gt;Node16</title>
<path fill="none" stroke="#63b8ff" d="M1129.71,-344.48C1146.41,-332.33 1168.09,-314.55 1183,-294.94 1206.11,-264.55 1190.31,-242.13 1219,-216.94 1220.05,-216.02 1221.13,-215.14 1222.24,-214.29"/>
<polygon fill="#63b8ff" stroke="#63b8ff" points="1223.82,-216.78 1230.26,-208.36 1219.98,-210.92 1223.82,-216.78"/>
</g>
<!-- Node17 -->
<g id="node17" class="node">
<title>Node17</title>
<g id="a_node17"><a xlink:href="a01973.html#aa1d6bb9f3af16f07ce2440c354b5787b" target="_top" xlink:title=" ">
<polygon fill="white" stroke="#666666" points="1381.25,-419.94 1219,-419.94 1219,-387.94 1381.25,-387.94 1381.25,-419.94"/>
<text text-anchor="start" x="1227" y="-406.44" font-family="Helvetica,sans-Serif" font-size="10.00">nlohmann::detail::binary</text>
<text text-anchor="middle" x="1300.13" y="-394.44" font-family="Helvetica,sans-Serif" font-size="10.00">_writer::calc_bson_unsigned_size</text>
</a>
</g>
</g>
<!-- Node11&#45;&gt;Node17 -->
<g id="edge19" class="edge">
<title>Node11&#45;&gt;Node17</title>
<path fill="none" stroke="#63b8ff" d="M1179.3,-377.38C1190.76,-379.93 1202.68,-382.57 1214.36,-385.16"/>
<polygon fill="#63b8ff" stroke="#63b8ff" points="1213.47,-388.77 1223.99,-387.51 1214.99,-381.93 1213.47,-388.77"/>
</g>
<!-- Node14 -->
<g id="node14" class="node">
<title>Node14</title>
<g id="a_node14"><a xlink:href="a01509.html#a3f6d82a6f967c4728a1ec735a7867073" target="_top" xlink:title=" ">
<polygon fill="white" stroke="#666666" points="1524,-463.94 1417.25,-463.94 1417.25,-431.94 1524,-431.94 1524,-463.94"/>
<text text-anchor="start" x="1425.25" y="-450.44" font-family="Helvetica,sans-Serif" font-size="10.00">nlohmann::detail::out</text>
<text text-anchor="middle" x="1470.63" y="-438.44" font-family="Helvetica,sans-Serif" font-size="10.00">_of_range::create</text>
</a>
</g>
</g>
<!-- Node13&#45;&gt;Node14 -->
<g id="edge14" class="edge">
<title>Node13&#45;&gt;Node14</title>
<path fill="none" stroke="#63b8ff" d="M1361.1,-368.9C1368.03,-371.98 1374.89,-375.34 1381.25,-378.94 1403.89,-391.79 1426.98,-410.03 1443.88,-424.54"/>
<polygon fill="#63b8ff" stroke="#63b8ff" points="1441.29,-427.79 1451.12,-431.73 1445.89,-422.52 1441.29,-427.79"/>
</g>
<!-- Node14&#45;&gt;Node4 -->
<g id="edge15" class="edge">
<title>Node14&#45;&gt;Node4</title>
<path fill="none" stroke="#63b8ff" d="M1524.1,-462.84C1535.06,-465.95 1546.77,-469.28 1558.21,-472.52"/>
<polygon fill="#63b8ff" stroke="#63b8ff" points="1557.04,-476.11 1567.61,-475.48 1558.95,-469.38 1557.04,-476.11"/>
</g>
<!-- Node18&#45;&gt;Node7 -->
<g id="edge23" class="edge">
<title>Node18&#45;&gt;Node7</title>
<path fill="none" stroke="#63b8ff" d="M989.7,-256.96C1004.15,-258.61 1019.14,-260.33 1033.31,-261.95"/>
<polygon fill="#63b8ff" stroke="#63b8ff" points="1032.63,-265.51 1042.96,-263.17 1033.43,-258.55 1032.63,-265.51"/>
</g>
<!-- Node19&#45;&gt;Node18 -->
<g id="edge25" class="edge">
<title>Node19&#45;&gt;Node18</title>
<path fill="none" stroke="#63b8ff" d="M778.46,-114.28C784.16,-116.81 789.69,-119.68 794.75,-122.94 836.04,-149.56 872.11,-194.69 892.18,-222.83"/>
<polygon fill="#63b8ff" stroke="#63b8ff" points="889.76,-224.47 898.35,-230.66 895.49,-220.46 889.76,-224.47"/>
</g>
<!-- Node20 -->
<g id="node20" class="node">
<title>Node20</title>
<g id="a_node20"><a xlink:href="a01973.html#a6e11b7227fcecc25a548ed45507b7d1c" target="_top" xlink:title=" ">
<polygon fill="white" stroke="#666666" points="969.75,-113.94 850.25,-113.94 850.25,-81.94 969.75,-81.94 969.75,-113.94"/>
<text text-anchor="start" x="858.25" y="-100.44" font-family="Helvetica,sans-Serif" font-size="10.00">nlohmann::detail::binary</text>
<text text-anchor="middle" x="910" y="-88.44" font-family="Helvetica,sans-Serif" font-size="10.00">_writer::write_number</text>
</a>
</g>
</g>
<!-- Node19&#45;&gt;Node20 -->
<g id="edge26" class="edge">
<title>Node19&#45;&gt;Node20</title>
<path fill="none" stroke="#63b8ff" d="M781.6,-97.94C800.02,-97.94 820.22,-97.94 839,-97.94"/>
<polygon fill="#63b8ff" stroke="#63b8ff" points="838.87,-101.44 848.87,-97.94 838.87,-94.44 838.87,-101.44"/>
</g>
<!-- Node21&#45;&gt;Node7 -->
<g id="edge28" class="edge">
<title>Node21&#45;&gt;Node7</title>
<path fill="none" stroke="#63b8ff" d="M771.32,-331.52C790,-326.11 811.2,-320.36 830.75,-315.94 899.06,-300.53 978.05,-287.74 1033.32,-279.59"/>
<polygon fill="#63b8ff" stroke="#63b8ff" points="1033.66,-282.93 1043.05,-278.02 1032.65,-276 1033.66,-282.93"/>
</g>
<!-- Node21&#45;&gt;Node18 -->
<g id="edge29" class="edge">
<title>Node21&#45;&gt;Node18</title>
<path fill="none" stroke="#63b8ff" d="M779.48,-331.58C784.85,-329.08 790.03,-326.21 794.75,-322.94 815.81,-308.37 810.07,-293.06 830.75,-277.94 835.19,-274.7 840.02,-271.76 845.03,-269.11"/>
<polygon fill="#63b8ff" stroke="#63b8ff" points="846.37,-271.86 853.84,-264.35 843.32,-265.56 846.37,-271.86"/>
</g>
<!-- Node22&#45;&gt;Node18 -->
<g id="edge31" class="edge">
<title>Node22&#45;&gt;Node18</title>
<path fill="none" stroke="#63b8ff" d="M780.81,-281.5C798.35,-276.91 817.56,-271.88 835.66,-267.14"/>
<polygon fill="#63b8ff" stroke="#63b8ff" points="836.37,-270.31 845.16,-264.39 834.6,-263.54 836.37,-270.31"/>
</g>
<!-- Node23&#45;&gt;Node18 -->
<g id="edge33" class="edge">
<title>Node23&#45;&gt;Node18</title>
<path fill="none" stroke="#63b8ff" d="M774.43,-164.41C781.39,-166.99 788.31,-169.85 794.75,-172.94 825.01,-187.48 856.73,-208.86 879.04,-225.08"/>
<polygon fill="#63b8ff" stroke="#63b8ff" points="876.57,-228.35 886.7,-231.46 880.73,-222.71 876.57,-228.35"/>
</g>
<!-- Node24&#45;&gt;Node18 -->
<g id="edge35" class="edge">
<title>Node24&#45;&gt;Node18</title>
<path fill="none" stroke="#63b8ff" d="M777.13,-247.94C790.57,-247.94 805.15,-247.94 819.54,-247.94"/>
<polygon fill="#63b8ff" stroke="#63b8ff" points="819.49,-251.44 829.49,-247.94 819.49,-244.44 819.49,-251.44"/>
</g>
<!-- Node25&#45;&gt;Node5 -->
<g id="edge38" class="edge">
<title>Node25&#45;&gt;Node5</title>
<path fill="none" stroke="#63b8ff" d="M658.59,-64.39C651.94,-66.95 645.36,-69.81 639.25,-72.94 540.59,-123.61 439.17,-208.65 392.98,-249.56"/>
<polygon fill="#63b8ff" stroke="#63b8ff" points="391.14,-246.4 386.01,-255.67 395.8,-251.63 391.14,-246.4"/>
</g>
<!-- Node25&#45;&gt;Node18 -->
<g id="edge37" class="edge">
<title>Node25&#45;&gt;Node18</title>
<path fill="none" stroke="#63b8ff" d="M780.98,-64.41C785.86,-66.88 790.52,-69.71 794.75,-72.94 801.69,-78.26 862.97,-174.82 892.81,-222.18"/>
<polygon fill="#63b8ff" stroke="#63b8ff" points="890.38,-223.89 898.67,-230.48 896.31,-220.16 890.38,-223.89"/>
</g>
<!-- Node26&#45;&gt;Node18 -->
<g id="edge40" class="edge">
<title>Node26&#45;&gt;Node18</title>
<path fill="none" stroke="#63b8ff" d="M780.54,-214.32C798.09,-218.91 817.34,-223.95 835.47,-228.69"/>
<polygon fill="#63b8ff" stroke="#63b8ff" points="834.43,-232.3 844.99,-231.45 836.2,-225.53 834.43,-232.3"/>
</g>
<!-- Node27&#45;&gt;Node14 -->
<g id="edge42" class="edge">
<title>Node27&#45;&gt;Node14</title>
<path fill="none" stroke="#63b8ff" d="M788.04,-447.94C933.51,-447.94 1266.47,-447.94 1406.13,-447.94"/>
<polygon fill="#63b8ff" stroke="#63b8ff" points="1406.04,-451.44 1416.04,-447.94 1406.04,-444.44 1406.04,-451.44"/>
</g>
<!-- Node27&#45;&gt;Node18 -->
<g id="edge43" class="edge">
<title>Node27&#45;&gt;Node18</title>
<path fill="none" stroke="#63b8ff" d="M782.19,-431.63C786.69,-429.13 790.95,-426.26 794.75,-422.94 822.33,-398.92 811.45,-380.01 830.75,-348.94 847.88,-321.37 871,-292.32 887.66,-272.49"/>
<polygon fill="#63b8ff" stroke="#63b8ff" points="890.79,-275.21 894.59,-265.32 885.45,-270.68 890.79,-275.21"/>
</g>
</g>
</svg>
