<?xml version="1.0" encoding="UTF-8" standalone="no"?>
<!DOCTYPE svg PUBLIC "-//W3C//DTD SVG 1.1//EN"
 "http://www.w3.org/Graphics/SVG/1.1/DTD/svg11.dtd">
<!-- Generated by graphviz version 7.0.1 (20221109.1506)
 -->
<!-- Title: nlohmann::basic_json::sax_parse Pages: 1 -->
<svg width="1879pt" height="2332pt"
 viewBox="0.00 0.00 1879.00 2331.83" xmlns="http://www.w3.org/2000/svg" xmlns:xlink="http://www.w3.org/1999/xlink">
<g id="graph0" class="graph" transform="scale(1 1) rotate(0) translate(4 2327.83)">
<title>nlohmann::basic_json::sax_parse</title>
<!-- Node1 -->
<g id="node1" class="node">
<title>Node1</title>
<g id="a_node1"><a xlink:title="generate SAX events">
<polygon fill="#999999" stroke="#666666" points="111,-1374.83 0,-1374.83 0,-1344.83 111,-1344.83 111,-1374.83"/>
<text text-anchor="start" x="8" y="-1362.83" font-family="Helvetica,sans-Serif" font-size="10.00">nlohmann::basic_json</text>
<text text-anchor="middle" x="55.5" y="-1351.83" font-family="Helvetica,sans-Serif" font-size="10.00">::sax_parse</text>
</a>
</g>
</g>
<!-- Node2 -->
<g id="node2" class="node">
<title>Node2</title>
<g id="a_node2"><a xlink:href="a00411.html#a616a53cc3114fdc113fc44e6af4c3c7f" target="_top" xlink:title=" ">
<polygon fill="white" stroke="#666666" points="1183.5,-1373.83 1068.5,-1373.83 1068.5,-1343.83 1183.5,-1343.83 1183.5,-1373.83"/>
<text text-anchor="start" x="1076.5" y="-1361.83" font-family="Helvetica,sans-Serif" font-size="10.00">nlohmann::detail::input</text>
<text text-anchor="middle" x="1126" y="-1350.83" font-family="Helvetica,sans-Serif" font-size="10.00">_adapter</text>
</a>
</g>
</g>
<!-- Node1&#45;&gt;Node2 -->
<g id="edge1" class="edge">
<title>Node1&#45;&gt;Node2</title>
<path fill="none" stroke="#63b8ff" d="M71.19,-1375.15C113.94,-1417.97 243.67,-1535.83 376.5,-1535.83 376.5,-1535.83 376.5,-1535.83 748.5,-1535.83 866.8,-1535.83 923.03,-1592.46 1014,-1516.83 1062.74,-1476.31 1005.3,-1423.78 1050,-1378.83 1052.49,-1376.34 1055.25,-1374.14 1058.2,-1372.21"/>
<polygon fill="#63b8ff" stroke="#63b8ff" points="1059.66,-1375.39 1066.85,-1367.61 1056.38,-1369.21 1059.66,-1375.39"/>
</g>
<!-- Node3 -->
<g id="node3" class="node">
<title>Node3</title>
<g id="a_node3"><a xlink:href="a01929.html#ab4afd9ee276bbb15a0f898061aad94dd" target="_top" xlink:title=" ">
<polygon fill="white" stroke="#666666" points="267,-1217.83 147,-1217.83 147,-1187.83 267,-1187.83 267,-1217.83"/>
<text text-anchor="start" x="155" y="-1205.83" font-family="Helvetica,sans-Serif" font-size="10.00">nlohmann::detail::binary</text>
<text text-anchor="middle" x="207" y="-1194.83" font-family="Helvetica,sans-Serif" font-size="10.00">_reader::sax_parse</text>
</a>
</g>
</g>
<!-- Node1&#45;&gt;Node3 -->
<g id="edge2" class="edge">
<title>Node1&#45;&gt;Node3</title>
<path fill="none" stroke="#63b8ff" d="M71.11,-1344.49C97.41,-1316.87 152.88,-1258.62 183.87,-1226.07"/>
<polygon fill="#63b8ff" stroke="#63b8ff" points="186.15,-1228.76 190.51,-1219.1 181.08,-1223.93 186.15,-1228.76"/>
</g>
<!-- Node4 -->
<g id="node4" class="node">
<title>Node4</title>
<g id="a_node4"><a xlink:href="a01497.html#a137ea4d27de45d8a844fd13451d40f3d" target="_top" xlink:title="create a parse error exception">
<polygon fill="white" stroke="#666666" points="1687,-1110.83 1569,-1110.83 1569,-1080.83 1687,-1080.83 1687,-1110.83"/>
<text text-anchor="start" x="1577" y="-1098.83" font-family="Helvetica,sans-Serif" font-size="10.00">nlohmann::detail::parse</text>
<text text-anchor="middle" x="1628" y="-1087.83" font-family="Helvetica,sans-Serif" font-size="10.00">_error::create</text>
</a>
</g>
</g>
<!-- Node3&#45;&gt;Node4 -->
<g id="edge3" class="edge">
<title>Node3&#45;&gt;Node4</title>
<path fill="none" stroke="#63b8ff" d="M209.31,-1218.25C221.17,-1352.9 315.12,-2323.83 558,-2323.83 558,-2323.83 558,-2323.83 1302.5,-2323.83 1424.73,-2323.83 1466.28,-2266.13 1521,-2156.83 1615.93,-1967.24 1625.84,-1267.41 1626.88,-1122.29"/>
<polygon fill="#63b8ff" stroke="#63b8ff" points="1630.38,-1122.57 1626.94,-1112.55 1623.38,-1122.53 1630.38,-1122.57"/>
</g>
<!-- Node7 -->
<g id="node7" class="node">
<title>Node7</title>
<g id="a_node7"><a xlink:href="a01929.html#a9c413c9a1bade1ce345740f4d69156f0" target="_top" xlink:title=" ">
<polygon fill="white" stroke="#666666" points="1699,-806.83 1557,-806.83 1557,-776.83 1699,-776.83 1699,-806.83"/>
<text text-anchor="start" x="1565" y="-794.83" font-family="Helvetica,sans-Serif" font-size="10.00">nlohmann::detail::binary</text>
<text text-anchor="middle" x="1628" y="-783.83" font-family="Helvetica,sans-Serif" font-size="10.00">_reader::exception_message</text>
</a>
</g>
</g>
<!-- Node3&#45;&gt;Node7 -->
<g id="edge6" class="edge">
<title>Node3&#45;&gt;Node7</title>
<path fill="none" stroke="#63b8ff" d="M208.18,-1187.57C209.82,-1058.15 224.17,-147.25 303,-58.83 379.91,27.44 442.42,-7.83 558,-7.83 558,-7.83 558,-7.83 1302.5,-7.83 1435.97,-7.83 1457.24,-96.59 1521,-213.83 1574.34,-311.92 1613.96,-664.84 1624.33,-765.1"/>
<polygon fill="#63b8ff" stroke="#63b8ff" points="1620.84,-765.44 1625.34,-775.03 1627.81,-764.73 1620.84,-765.44"/>
</g>
<!-- Node8 -->
<g id="node8" class="node">
<title>Node8</title>
<g id="a_node8"><a xlink:href="a01929.html#ad222095c0b21a87824cb10629299629a" target="_top" xlink:title="get next character from the input">
<polygon fill="white" stroke="#666666" points="1521,-1332.83 1401,-1332.83 1401,-1302.83 1521,-1302.83 1521,-1332.83"/>
<text text-anchor="start" x="1409" y="-1320.83" font-family="Helvetica,sans-Serif" font-size="10.00">nlohmann::detail::binary</text>
<text text-anchor="middle" x="1461" y="-1309.83" font-family="Helvetica,sans-Serif" font-size="10.00">_reader::get</text>
</a>
</g>
</g>
<!-- Node3&#45;&gt;Node8 -->
<g id="edge7" class="edge">
<title>Node3&#45;&gt;Node8</title>
<path fill="none" stroke="#63b8ff" d="M208.68,-1187.69C214.06,-1070.02 250.95,-304.05 303,-216.83 372.93,-99.66 421.54,-45.83 558,-45.83 558,-45.83 558,-45.83 748.5,-45.83 1030.18,-45.83 1187.55,25.93 1365,-192.83 1400.84,-237.02 1449.82,-1126.51 1458.62,-1291.59"/>
<polygon fill="#63b8ff" stroke="#63b8ff" points="1455.1,-1291.29 1459.12,-1301.09 1462.09,-1290.92 1455.1,-1291.29"/>
</g>
<!-- Node9 -->
<g id="node9" class="node">
<title>Node9</title>
<g id="a_node9"><a xlink:href="a01929.html#a252c1179651d22c5343bcf0b538ed26a" target="_top" xlink:title=" ">
<polygon fill="white" stroke="#666666" points="1364.5,-231.83 1238.5,-231.83 1238.5,-201.83 1364.5,-201.83 1364.5,-231.83"/>
<text text-anchor="start" x="1246.5" y="-219.83" font-family="Helvetica,sans-Serif" font-size="10.00">nlohmann::detail::binary</text>
<text text-anchor="middle" x="1301.5" y="-208.83" font-family="Helvetica,sans-Serif" font-size="10.00">_reader::get_ignore_noop</text>
</a>
</g>
</g>
<!-- Node3&#45;&gt;Node9 -->
<g id="edge8" class="edge">
<title>Node3&#45;&gt;Node9</title>
<path fill="none" stroke="#63b8ff" d="M208.27,-1187.46C209.94,-1113.67 221.79,-789.15 303,-539.83 357.37,-372.91 347.06,-295.5 488,-190.83 676.37,-50.95 779.64,-134.64 1014,-145.83 1097.84,-149.84 1121.68,-139.47 1202,-163.83 1225.52,-170.97 1249.86,-184 1268.46,-195.36"/>
<polygon fill="#63b8ff" stroke="#63b8ff" points="1266.55,-198.29 1276.88,-200.64 1270.27,-192.36 1266.55,-198.29"/>
</g>
<!-- Node10 -->
<g id="node10" class="node">
<title>Node10</title>
<g id="a_node10"><a xlink:href="a01929.html#a7d323283c60a0b89ee5eeadf5cb9a5ad" target="_top" xlink:title=" ">
<polygon fill="white" stroke="#666666" points="1365,-1191.83 1238,-1191.83 1238,-1161.83 1365,-1161.83 1365,-1191.83"/>
<text text-anchor="start" x="1246" y="-1179.83" font-family="Helvetica,sans-Serif" font-size="10.00">nlohmann::detail::binary</text>
<text text-anchor="middle" x="1301.5" y="-1168.83" font-family="Helvetica,sans-Serif" font-size="10.00">_reader::get_token_string</text>
</a>
</g>
</g>
<!-- Node3&#45;&gt;Node10 -->
<g id="edge10" class="edge">
<title>Node3&#45;&gt;Node10</title>
<path fill="none" stroke="#63b8ff" d="M267.12,-1201.43C452.44,-1197.02 1021.76,-1183.47 1226.33,-1178.6"/>
<polygon fill="#63b8ff" stroke="#63b8ff" points="1226.4,-1182.1 1236.31,-1178.36 1226.23,-1175.1 1226.4,-1182.1"/>
</g>
<!-- Node11 -->
<g id="node11" class="node">
<title>Node11</title>
<g id="a_node11"><a xlink:href="a01929.html#abf2051ba57d9ea9b378a2e7c14e22b34" target="_top" xlink:title="Reads in a BSON&#45;object and passes it to the SAX&#45;parser.">
<polygon fill="white" stroke="#666666" points="630,-1155.83 488,-1155.83 488,-1125.83 630,-1125.83 630,-1155.83"/>
<text text-anchor="start" x="496" y="-1143.83" font-family="Helvetica,sans-Serif" font-size="10.00">nlohmann::detail::binary</text>
<text text-anchor="middle" x="559" y="-1132.83" font-family="Helvetica,sans-Serif" font-size="10.00">_reader::parse_bson_internal</text>
</a>
</g>
</g>
<!-- Node3&#45;&gt;Node11 -->
<g id="edge11" class="edge">
<title>Node3&#45;&gt;Node11</title>
<path fill="none" stroke="#63b8ff" d="M267.37,-1192.32C324.87,-1182.13 412.5,-1166.61 476.51,-1155.27"/>
<polygon fill="#63b8ff" stroke="#63b8ff" points="477.05,-1158.73 486.28,-1153.54 475.82,-1151.84 477.05,-1158.73"/>
</g>
<!-- Node21 -->
<g id="node21" class="node">
<title>Node21</title>
<g id="a_node21"><a xlink:href="a01929.html#a4e4accd5a2a41bfb2f18a8a0fcc9421c" target="_top" xlink:title=" ">
<polygon fill="white" stroke="#666666" points="817.5,-1945.83 677.5,-1945.83 677.5,-1915.83 817.5,-1915.83 817.5,-1945.83"/>
<text text-anchor="start" x="685.5" y="-1933.83" font-family="Helvetica,sans-Serif" font-size="10.00">nlohmann::detail::binary</text>
<text text-anchor="middle" x="747.5" y="-1922.83" font-family="Helvetica,sans-Serif" font-size="10.00">_reader::parse_cbor_internal</text>
</a>
</g>
</g>
<!-- Node3&#45;&gt;Node21 -->
<g id="edge41" class="edge">
<title>Node3&#45;&gt;Node21</title>
<path fill="none" stroke="#63b8ff" d="M219.25,-1218.04C287.27,-1310 643.59,-1791.71 728.38,-1906.34"/>
<polygon fill="#63b8ff" stroke="#63b8ff" points="725.43,-1908.23 734.19,-1914.19 731.05,-1904.07 725.43,-1908.23"/>
</g>
<!-- Node27 -->
<g id="node27" class="node">
<title>Node27</title>
<g id="a_node27"><a xlink:href="a01929.html#ae020385ce9424271d61f85d3842c02cb" target="_top" xlink:title=" ">
<polygon fill="white" stroke="#666666" points="809.5,-1507.33 685.5,-1507.33 685.5,-1466.33 809.5,-1466.33 809.5,-1507.33"/>
<text text-anchor="start" x="693.5" y="-1495.33" font-family="Helvetica,sans-Serif" font-size="10.00">nlohmann::detail::binary</text>
<text text-anchor="start" x="693.5" y="-1484.33" font-family="Helvetica,sans-Serif" font-size="10.00">_reader::parse_msgpack</text>
<text text-anchor="middle" x="747.5" y="-1473.33" font-family="Helvetica,sans-Serif" font-size="10.00">_internal</text>
</a>
</g>
</g>
<!-- Node3&#45;&gt;Node27 -->
<g id="edge76" class="edge">
<title>Node3&#45;&gt;Node27</title>
<path fill="none" stroke="#63b8ff" d="M237.33,-1218.31C325.15,-1264.62 586.64,-1402.52 696.75,-1460.59"/>
<polygon fill="#63b8ff" stroke="#63b8ff" points="695.1,-1463.68 705.58,-1465.25 698.37,-1457.49 695.1,-1463.68"/>
</g>
<!-- Node32 -->
<g id="node32" class="node">
<title>Node32</title>
<g id="a_node32"><a xlink:href="a01929.html#a5a79480d661019b0f3fc615ae12f7de7" target="_top" xlink:title=" ">
<polygon fill="white" stroke="#666666" points="452,-578.83 303,-578.83 303,-548.83 452,-548.83 452,-578.83"/>
<text text-anchor="start" x="311" y="-566.83" font-family="Helvetica,sans-Serif" font-size="10.00">nlohmann::detail::binary</text>
<text text-anchor="middle" x="377.5" y="-555.83" font-family="Helvetica,sans-Serif" font-size="10.00">_reader::parse_ubjson_internal</text>
</a>
</g>
</g>
<!-- Node3&#45;&gt;Node32 -->
<g id="edge99" class="edge">
<title>Node3&#45;&gt;Node32</title>
<path fill="none" stroke="#63b8ff" d="M212.08,-1187.36C234.34,-1102.93 341.14,-697.94 369.55,-590.21"/>
<polygon fill="#63b8ff" stroke="#63b8ff" points="372.92,-591.14 372.09,-580.57 366.15,-589.35 372.92,-591.14"/>
</g>
<!-- Node5 -->
<g id="node5" class="node">
<title>Node5</title>
<g id="a_node5"><a xlink:href="a01493.html#abf41a7e9178356314082284e6cfea278" target="_top" xlink:title=" ">
<polygon fill="white" stroke="#666666" points="1871,-1134.83 1735,-1134.83 1735,-1104.83 1871,-1104.83 1871,-1134.83"/>
<text text-anchor="start" x="1743" y="-1122.83" font-family="Helvetica,sans-Serif" font-size="10.00">nlohmann::detail::exception</text>
<text text-anchor="middle" x="1803" y="-1111.83" font-family="Helvetica,sans-Serif" font-size="10.00">::name</text>
</a>
</g>
</g>
<!-- Node4&#45;&gt;Node5 -->
<g id="edge4" class="edge">
<title>Node4&#45;&gt;Node5</title>
<path fill="none" stroke="#63b8ff" d="M1687.09,-1103.89C1698.81,-1105.52 1711.32,-1107.25 1723.61,-1108.96"/>
<polygon fill="#63b8ff" stroke="#63b8ff" points="1722.91,-1112.4 1733.3,-1110.3 1723.88,-1105.46 1722.91,-1112.4"/>
</g>
<!-- Node6 -->
<g id="node6" class="node">
<title>Node6</title>
<g id="a_node6"><a xlink:href="a01497.html#aefe74adeaa48781464ba2fd2ec63d221" target="_top" xlink:title=" ">
<polygon fill="white" stroke="#666666" points="1862,-1086.83 1744,-1086.83 1744,-1056.83 1862,-1056.83 1862,-1086.83"/>
<text text-anchor="start" x="1752" y="-1074.83" font-family="Helvetica,sans-Serif" font-size="10.00">nlohmann::detail::parse</text>
<text text-anchor="middle" x="1803" y="-1063.83" font-family="Helvetica,sans-Serif" font-size="10.00">_error::position_string</text>
</a>
</g>
</g>
<!-- Node4&#45;&gt;Node6 -->
<g id="edge5" class="edge">
<title>Node4&#45;&gt;Node6</title>
<path fill="none" stroke="#63b8ff" d="M1687.09,-1087.78C1701.64,-1085.76 1717.39,-1083.57 1732.44,-1081.48"/>
<polygon fill="#63b8ff" stroke="#63b8ff" points="1732.85,-1084.96 1742.27,-1080.12 1731.89,-1078.03 1732.85,-1084.96"/>
</g>
<!-- Node9&#45;&gt;Node8 -->
<g id="edge9" class="edge">
<title>Node9&#45;&gt;Node8</title>
<path fill="none" stroke="#63b8ff" d="M1311.11,-232.13C1325.04,-257.68 1352.27,-311.07 1365,-359.83 1458.93,-719.5 1461.35,-1177.32 1460.37,-1291.26"/>
<polygon fill="#63b8ff" stroke="#63b8ff" points="1456.88,-1291.05 1460.27,-1301.09 1463.88,-1291.13 1456.88,-1291.05"/>
</g>
<!-- Node12 -->
<g id="node12" class="node">
<title>Node12</title>
<g id="a_node12"><a xlink:href="a01929.html#a4e07b75ccb2579d0e738b894f0fd8cf8" target="_top" xlink:title="Read a BSON element list (as specified in the BSON&#45;spec)">
<polygon fill="white" stroke="#666666" points="829,-1155.83 666,-1155.83 666,-1125.83 829,-1125.83 829,-1155.83"/>
<text text-anchor="start" x="674" y="-1143.83" font-family="Helvetica,sans-Serif" font-size="10.00">nlohmann::detail::binary</text>
<text text-anchor="middle" x="747.5" y="-1132.83" font-family="Helvetica,sans-Serif" font-size="10.00">_reader::parse_bson_element_list</text>
</a>
</g>
</g>
<!-- Node11&#45;&gt;Node12 -->
<g id="edge12" class="edge">
<title>Node11&#45;&gt;Node12</title>
<path fill="none" stroke="#63b8ff" d="M630.24,-1140.83C638.1,-1140.83 646.2,-1140.83 654.28,-1140.83"/>
<polygon fill="#63b8ff" stroke="#63b8ff" points="654.16,-1144.33 664.16,-1140.83 654.16,-1137.33 654.16,-1144.33"/>
</g>
<!-- Node12&#45;&gt;Node8 -->
<g id="edge13" class="edge">
<title>Node12&#45;&gt;Node8</title>
<path fill="none" stroke="#63b8ff" d="M829.35,-1153.11C882.16,-1161.63 952.48,-1173.92 1014,-1187.83 1171.86,-1223.54 1210.48,-1236.7 1365,-1284.83 1378.68,-1289.1 1393.35,-1294.02 1406.97,-1298.73"/>
<polygon fill="#63b8ff" stroke="#63b8ff" points="1405.61,-1301.97 1416.2,-1301.96 1407.92,-1295.36 1405.61,-1301.97"/>
</g>
<!-- Node13 -->
<g id="node13" class="node">
<title>Node13</title>
<g id="a_node13"><a xlink:href="a01929.html#a354cbbaaea672c024ac949e1801c4302" target="_top" xlink:title="Parses a C&#45;style string from the BSON input.">
<polygon fill="white" stroke="#666666" points="1361.5,-1391.83 1241.5,-1391.83 1241.5,-1361.83 1361.5,-1361.83 1361.5,-1391.83"/>
<text text-anchor="start" x="1249.5" y="-1379.83" font-family="Helvetica,sans-Serif" font-size="10.00">nlohmann::detail::binary</text>
<text text-anchor="middle" x="1301.5" y="-1368.83" font-family="Helvetica,sans-Serif" font-size="10.00">_reader::get_bson_cstr</text>
</a>
</g>
</g>
<!-- Node12&#45;&gt;Node13 -->
<g id="edge14" class="edge">
<title>Node12&#45;&gt;Node13</title>
<path fill="none" stroke="#63b8ff" d="M794.42,-1156.32C805.82,-1160.45 817.94,-1165.1 829,-1169.83 845.44,-1176.88 848.44,-1181.07 865,-1187.83 929.41,-1214.13 949.51,-1209.74 1014,-1235.83 1105.73,-1272.95 1208.83,-1326.86 1262.84,-1356.09"/>
<polygon fill="#63b8ff" stroke="#63b8ff" points="1260.87,-1359.01 1271.33,-1360.71 1264.21,-1352.86 1260.87,-1359.01"/>
</g>
<!-- Node14 -->
<g id="node14" class="node">
<title>Node14</title>
<g id="a_node14"><a xlink:href="a01929.html#a61a0bd8bbe7b560bd429fa990ba3ba1a" target="_top" xlink:title=" ">
<polygon fill="white" stroke="#666666" points="1521,-1463.83 1401,-1463.83 1401,-1433.83 1521,-1433.83 1521,-1463.83"/>
<text text-anchor="start" x="1409" y="-1451.83" font-family="Helvetica,sans-Serif" font-size="10.00">nlohmann::detail::binary</text>
<text text-anchor="middle" x="1461" y="-1440.83" font-family="Helvetica,sans-Serif" font-size="10.00">_reader::unexpect_eof</text>
</a>
</g>
</g>
<!-- Node12&#45;&gt;Node14 -->
<g id="edge40" class="edge">
<title>Node12&#45;&gt;Node14</title>
<path fill="none" stroke="#63b8ff" d="M805.96,-1156.22C814.17,-1159.89 822.14,-1164.37 829,-1169.83 852.14,-1188.27 841.55,-1207.8 865,-1225.83 920.15,-1268.25 964.62,-1224.82 1014,-1273.83 1050.21,-1309.78 1018.22,-1342.92 1050,-1382.83 1110.86,-1459.28 1143.89,-1470.53 1238,-1496.83 1292.36,-1512.03 1311.61,-1515.15 1365,-1496.83 1381.63,-1491.13 1383.07,-1481.49 1401.01,-1469.74"/>
<polygon fill="#63b8ff" stroke="#63b8ff" points="1402.34,-1473.02 1409.23,-1464.97 1398.82,-1466.97 1402.34,-1473.02"/>
</g>
<!-- Node15 -->
<g id="node15" class="node">
<title>Node15</title>
<g id="a_node15"><a xlink:href="a01929.html#a23bde2450d7a5772bf5051e36ff560a4" target="_top" xlink:title="Read a BSON document element of the given element_type.">
<polygon fill="white" stroke="#666666" points="1012,-1017.33 867,-1017.33 867,-976.33 1012,-976.33 1012,-1017.33"/>
<text text-anchor="start" x="875" y="-1005.33" font-family="Helvetica,sans-Serif" font-size="10.00">nlohmann::detail::binary</text>
<text text-anchor="start" x="875" y="-994.33" font-family="Helvetica,sans-Serif" font-size="10.00">_reader::parse_bson_element</text>
<text text-anchor="middle" x="939.5" y="-983.33" font-family="Helvetica,sans-Serif" font-size="10.00">_internal</text>
</a>
</g>
</g>
<!-- Node12&#45;&gt;Node15 -->
<g id="edge19" class="edge">
<title>Node12&#45;&gt;Node15</title>
<path fill="none" stroke="#63b8ff" d="M766.23,-1125.47C788.71,-1106.22 828.89,-1072.5 865,-1045.83 875.01,-1038.44 886.06,-1030.81 896.49,-1023.84"/>
<polygon fill="#63b8ff" stroke="#63b8ff" points="898.17,-1026.92 904.58,-1018.48 894.31,-1021.08 898.17,-1026.92"/>
</g>
<!-- Node13&#45;&gt;Node8 -->
<g id="edge15" class="edge">
<title>Node13&#45;&gt;Node8</title>
<path fill="none" stroke="#63b8ff" d="M1343.47,-1361.49C1363.18,-1354.1 1387.04,-1345.17 1408.02,-1337.31"/>
<polygon fill="#63b8ff" stroke="#63b8ff" points="1409.13,-1340.63 1417.27,-1333.84 1406.68,-1334.07 1409.13,-1340.63"/>
</g>
<!-- Node13&#45;&gt;Node14 -->
<g id="edge16" class="edge">
<title>Node13&#45;&gt;Node14</title>
<path fill="none" stroke="#63b8ff" d="M1344.43,-1392.26C1351.35,-1395 1358.41,-1397.91 1365,-1400.83 1383.75,-1409.14 1404.09,-1419.27 1421.13,-1428.07"/>
<polygon fill="#63b8ff" stroke="#63b8ff" points="1419.43,-1431.14 1429.92,-1432.66 1422.67,-1424.93 1419.43,-1431.14"/>
</g>
<!-- Node14&#45;&gt;Node4 -->
<g id="edge17" class="edge">
<title>Node14&#45;&gt;Node4</title>
<path fill="none" stroke="#63b8ff" d="M1471.08,-1433.49C1483.1,-1412.93 1504.67,-1375.17 1521,-1341.83 1559.48,-1263.26 1598.65,-1167.33 1616.71,-1121.97"/>
<polygon fill="#63b8ff" stroke="#63b8ff" points="1619.94,-1123.32 1620.38,-1112.73 1613.44,-1120.74 1619.94,-1123.32"/>
</g>
<!-- Node14&#45;&gt;Node7 -->
<g id="edge18" class="edge">
<title>Node14&#45;&gt;Node7</title>
<path fill="none" stroke="#63b8ff" d="M1472.96,-1433.38C1486.61,-1413.3 1509.52,-1376.69 1521,-1341.83 1558.88,-1226.85 1534.28,-1190.75 1557,-1071.83 1575.02,-977.49 1605.3,-867.44 1619.38,-818.1"/>
<polygon fill="#63b8ff" stroke="#63b8ff" points="1622.7,-819.21 1622.1,-808.63 1615.97,-817.28 1622.7,-819.21"/>
</g>
<!-- Node15&#45;&gt;Node4 -->
<g id="edge20" class="edge">
<title>Node15&#45;&gt;Node4</title>
<path fill="none" stroke="#63b8ff" d="M948.1,-976.16C971.06,-913.96 1038.82,-732.38 1050,-724.83 1166.1,-646.42 1229.36,-701.77 1365,-736.83 1438.93,-755.94 1469.17,-752.76 1521,-808.83 1592.06,-885.71 1616.53,-1014.33 1624.03,-1069.45"/>
<polygon fill="#63b8ff" stroke="#63b8ff" points="1620.53,-1069.66 1625.27,-1079.14 1627.48,-1068.78 1620.53,-1069.66"/>
</g>
<!-- Node15&#45;&gt;Node8 -->
<g id="edge21" class="edge">
<title>Node15&#45;&gt;Node8</title>
<path fill="none" stroke="#63b8ff" d="M963.22,-976.09C984.05,-958.58 1016.65,-934.82 1050,-924.83 1114.72,-905.46 1135.86,-911.06 1202,-924.83 1279.36,-940.95 1312.69,-936.61 1365,-995.83 1442.26,-1083.32 1456.78,-1230.97 1459.44,-1291.12"/>
<polygon fill="#63b8ff" stroke="#63b8ff" points="1455.94,-1291.2 1459.79,-1301.07 1462.93,-1290.95 1455.94,-1291.2"/>
</g>
<!-- Node15&#45;&gt;Node11 -->
<g id="edge39" class="edge">
<title>Node15&#45;&gt;Node11</title>
<path fill="none" stroke="#63b8ff" d="M883.37,-1017.81C810.2,-1045.65 681.99,-1094.42 610.98,-1121.44"/>
<polygon fill="#63b8ff" stroke="#63b8ff" points="610.02,-1118.06 601.92,-1124.89 612.51,-1124.6 610.02,-1118.06"/>
</g>
<!-- Node16 -->
<g id="node16" class="node">
<title>Node16</title>
<g id="a_node16"><a xlink:href="a01929.html#a9940f56290b9278c58772eda2931e599" target="_top" xlink:title="Parses a byte array input of length len from the BSON input.">
<polygon fill="white" stroke="#666666" points="1189,-1011.83 1063,-1011.83 1063,-981.83 1189,-981.83 1189,-1011.83"/>
<text text-anchor="start" x="1071" y="-999.83" font-family="Helvetica,sans-Serif" font-size="10.00">nlohmann::detail::binary</text>
<text text-anchor="middle" x="1126" y="-988.83" font-family="Helvetica,sans-Serif" font-size="10.00">_reader::get_bson_binary</text>
</a>
</g>
</g>
<!-- Node15&#45;&gt;Node16 -->
<g id="edge22" class="edge">
<title>Node15&#45;&gt;Node16</title>
<path fill="none" stroke="#63b8ff" d="M1012.36,-996.83C1025.19,-996.83 1038.58,-996.83 1051.46,-996.83"/>
<polygon fill="#63b8ff" stroke="#63b8ff" points="1051.11,-1000.33 1061.11,-996.83 1051.11,-993.33 1051.11,-1000.33"/>
</g>
<!-- Node18 -->
<g id="node18" class="node">
<title>Node18</title>
<g id="a_node18"><a xlink:href="a01929.html#a23921422802aa472360dd05023e20565" target="_top" xlink:title="Parses a zero&#45;terminated string of length len from the BSON input.">
<polygon fill="white" stroke="#666666" points="1188,-963.83 1064,-963.83 1064,-933.83 1188,-933.83 1188,-963.83"/>
<text text-anchor="start" x="1072" y="-951.83" font-family="Helvetica,sans-Serif" font-size="10.00">nlohmann::detail::binary</text>
<text text-anchor="middle" x="1126" y="-940.83" font-family="Helvetica,sans-Serif" font-size="10.00">_reader::get_bson_string</text>
</a>
</g>
</g>
<!-- Node15&#45;&gt;Node18 -->
<g id="edge29" class="edge">
<title>Node15&#45;&gt;Node18</title>
<path fill="none" stroke="#63b8ff" d="M1012.36,-978.14C1026.25,-974.52 1040.79,-970.74 1054.64,-967.14"/>
<polygon fill="#63b8ff" stroke="#63b8ff" points="1055.3,-970.58 1064.1,-964.68 1053.54,-963.81 1055.3,-970.58"/>
</g>
<!-- Node20 -->
<g id="node20" class="node">
<title>Node20</title>
<g id="a_node20"><a xlink:href="a01929.html#a23eb89a222e22533e9fd43e76722f44f" target="_top" xlink:title="Reads an array from the BSON input and passes it to the SAX&#45;parser.">
<polygon fill="white" stroke="#666666" points="1192,-1097.83 1060,-1097.83 1060,-1067.83 1192,-1067.83 1192,-1097.83"/>
<text text-anchor="start" x="1068" y="-1085.83" font-family="Helvetica,sans-Serif" font-size="10.00">nlohmann::detail::binary</text>
<text text-anchor="middle" x="1126" y="-1074.83" font-family="Helvetica,sans-Serif" font-size="10.00">_reader::parse_bson_array</text>
</a>
</g>
</g>
<!-- Node15&#45;&gt;Node20 -->
<g id="edge37" class="edge">
<title>Node15&#45;&gt;Node20</title>
<path fill="none" stroke="#63b8ff" d="M978.25,-1017.8C999.12,-1029.06 1025.69,-1042.85 1050,-1053.83 1057.09,-1057.04 1064.65,-1060.22 1072.13,-1063.24"/>
<polygon fill="#63b8ff" stroke="#63b8ff" points="1070.62,-1066.41 1081.21,-1066.83 1073.19,-1059.9 1070.62,-1066.41"/>
</g>
<!-- Node16&#45;&gt;Node4 -->
<g id="edge23" class="edge">
<title>Node16&#45;&gt;Node4</title>
<path fill="none" stroke="#63b8ff" d="M1189.31,-1009.17C1282.99,-1027.72 1459.51,-1062.67 1557.33,-1082.04"/>
<polygon fill="#63b8ff" stroke="#63b8ff" points="1556.59,-1085.46 1567.08,-1083.97 1557.95,-1078.59 1556.59,-1085.46"/>
</g>
<!-- Node16&#45;&gt;Node7 -->
<g id="edge24" class="edge">
<title>Node16&#45;&gt;Node7</title>
<path fill="none" stroke="#63b8ff" d="M1177.65,-981.33C1185.83,-978.63 1194.18,-975.74 1202,-972.83 1343.78,-920.09 1507.36,-846.8 1583.65,-811.88"/>
<polygon fill="#63b8ff" stroke="#63b8ff" points="1584.81,-815.2 1592.44,-807.85 1581.89,-808.84 1584.81,-815.2"/>
</g>
<!-- Node16&#45;&gt;Node10 -->
<g id="edge28" class="edge">
<title>Node16&#45;&gt;Node10</title>
<path fill="none" stroke="#63b8ff" d="M1183.86,-1012.15C1190.6,-1015.79 1196.89,-1020.29 1202,-1025.83 1240.3,-1067.41 1201.08,-1105.02 1238,-1147.83 1240.27,-1150.47 1242.83,-1152.88 1245.59,-1155.08"/>
<polygon fill="#63b8ff" stroke="#63b8ff" points="1243.44,-1157.85 1253.68,-1160.57 1247.37,-1152.06 1243.44,-1157.85"/>
</g>
<!-- Node17 -->
<g id="node17" class="node">
<title>Node17</title>
<g id="a_node17"><a xlink:href="a01929.html#a55e13d567a53234573ab3833c0ca32e9" target="_top" xlink:title="create a byte array by reading bytes from the input">
<polygon fill="white" stroke="#666666" points="1361.5,-1487.83 1241.5,-1487.83 1241.5,-1457.83 1361.5,-1457.83 1361.5,-1487.83"/>
<text text-anchor="start" x="1249.5" y="-1475.83" font-family="Helvetica,sans-Serif" font-size="10.00">nlohmann::detail::binary</text>
<text text-anchor="middle" x="1301.5" y="-1464.83" font-family="Helvetica,sans-Serif" font-size="10.00">_reader::get_binary</text>
</a>
</g>
</g>
<!-- Node16&#45;&gt;Node17 -->
<g id="edge25" class="edge">
<title>Node16&#45;&gt;Node17</title>
<path fill="none" stroke="#63b8ff" d="M1155.04,-1012.26C1171.67,-1023.01 1191.5,-1038.97 1202,-1058.83 1242.66,-1135.79 1185.46,-1379.45 1238,-1448.83 1238.24,-1449.15 1238.48,-1449.46 1238.72,-1449.76"/>
<polygon fill="#63b8ff" stroke="#63b8ff" points="1236.18,-1452.17 1245.86,-1456.48 1240.98,-1447.07 1236.18,-1452.17"/>
</g>
<!-- Node17&#45;&gt;Node8 -->
<g id="edge26" class="edge">
<title>Node17&#45;&gt;Node8</title>
<path fill="none" stroke="#63b8ff" d="M1351.11,-1457.46C1356.03,-1454.95 1360.76,-1452.09 1365,-1448.83 1402.54,-1420 1431.81,-1372.38 1447.44,-1343.19"/>
<polygon fill="#63b8ff" stroke="#63b8ff" points="1450.54,-1344.81 1452.06,-1334.33 1444.33,-1341.58 1450.54,-1344.81"/>
</g>
<!-- Node17&#45;&gt;Node14 -->
<g id="edge27" class="edge">
<title>Node17&#45;&gt;Node14</title>
<path fill="none" stroke="#63b8ff" d="M1361.6,-1463.83C1370.66,-1462.45 1380.09,-1461.01 1389.37,-1459.6"/>
<polygon fill="#63b8ff" stroke="#63b8ff" points="1389.72,-1463.08 1399.08,-1458.12 1388.66,-1456.16 1389.72,-1463.08"/>
</g>
<!-- Node18&#45;&gt;Node4 -->
<g id="edge30" class="edge">
<title>Node18&#45;&gt;Node4</title>
<path fill="none" stroke="#63b8ff" d="M1188.4,-960.7C1266.77,-976.65 1405.96,-1007.7 1521,-1047.83 1543.21,-1055.58 1567.14,-1066.21 1586.64,-1075.5"/>
<polygon fill="#63b8ff" stroke="#63b8ff" points="1585.09,-1078.64 1595.61,-1079.84 1588.13,-1072.33 1585.09,-1078.64"/>
</g>
<!-- Node18&#45;&gt;Node7 -->
<g id="edge31" class="edge">
<title>Node18&#45;&gt;Node7</title>
<path fill="none" stroke="#63b8ff" d="M1134.45,-933.4C1149.42,-904.33 1186.21,-842.04 1238,-815.83 1334.87,-766.81 1463.13,-769.81 1545.37,-778.88"/>
<polygon fill="#63b8ff" stroke="#63b8ff" points="1544.82,-782.34 1555.16,-780.02 1545.63,-775.39 1544.82,-782.34"/>
</g>
<!-- Node18&#45;&gt;Node8 -->
<g id="edge32" class="edge">
<title>Node18&#45;&gt;Node8</title>
<path fill="none" stroke="#63b8ff" d="M1185.71,-964.25C1191.41,-966.73 1196.94,-969.58 1202,-972.83 1330.97,-1055.92 1418.91,-1227.37 1448.77,-1292.23"/>
<polygon fill="#63b8ff" stroke="#63b8ff" points="1445.42,-1293.33 1452.74,-1300.99 1451.8,-1290.44 1445.42,-1293.33"/>
</g>
<!-- Node18&#45;&gt;Node10 -->
<g id="edge36" class="edge">
<title>Node18&#45;&gt;Node10</title>
<path fill="none" stroke="#63b8ff" d="M1188.2,-961.95C1193.35,-964.88 1198.07,-968.46 1202,-972.83 1255.07,-1031.9 1188.71,-1085.58 1238,-1147.83 1240.02,-1150.38 1242.31,-1152.72 1244.8,-1154.86"/>
<polygon fill="#63b8ff" stroke="#63b8ff" points="1242.5,-1157.52 1252.67,-1160.51 1246.59,-1151.83 1242.5,-1157.52"/>
</g>
<!-- Node19 -->
<g id="node19" class="node">
<title>Node19</title>
<g id="a_node19"><a xlink:href="a01929.html#a540919db22df36512f05a88945c13263" target="_top" xlink:title="create a string by reading characters from the input">
<polygon fill="white" stroke="#666666" points="1361.5,-1439.83 1241.5,-1439.83 1241.5,-1409.83 1361.5,-1409.83 1361.5,-1439.83"/>
<text text-anchor="start" x="1249.5" y="-1427.83" font-family="Helvetica,sans-Serif" font-size="10.00">nlohmann::detail::binary</text>
<text text-anchor="middle" x="1301.5" y="-1416.83" font-family="Helvetica,sans-Serif" font-size="10.00">_reader::get_string</text>
</a>
</g>
</g>
<!-- Node18&#45;&gt;Node19 -->
<g id="edge33" class="edge">
<title>Node18&#45;&gt;Node19</title>
<path fill="none" stroke="#63b8ff" d="M1188.41,-961.27C1193.58,-964.33 1198.25,-968.13 1202,-972.83 1261.46,-1047.5 1180.69,-1324.51 1238,-1400.83 1238.24,-1401.15 1238.48,-1401.46 1238.72,-1401.76"/>
<polygon fill="#63b8ff" stroke="#63b8ff" points="1236.16,-1404.16 1245.83,-1408.5 1240.98,-1399.08 1236.16,-1404.16"/>
</g>
<!-- Node19&#45;&gt;Node8 -->
<g id="edge34" class="edge">
<title>Node19&#45;&gt;Node8</title>
<path fill="none" stroke="#63b8ff" d="M1348.45,-1409.35C1354.17,-1406.8 1359.82,-1403.95 1365,-1400.83 1392.65,-1384.17 1419.96,-1359.17 1438.15,-1340.97"/>
<polygon fill="#63b8ff" stroke="#63b8ff" points="1440.27,-1343.81 1444.78,-1334.22 1435.27,-1338.9 1440.27,-1343.81"/>
</g>
<!-- Node19&#45;&gt;Node14 -->
<g id="edge35" class="edge">
<title>Node19&#45;&gt;Node14</title>
<path fill="none" stroke="#63b8ff" d="M1361.6,-1433.84C1370.66,-1435.22 1380.09,-1436.66 1389.37,-1438.07"/>
<polygon fill="#63b8ff" stroke="#63b8ff" points="1388.66,-1441.5 1399.08,-1439.55 1389.72,-1434.58 1388.66,-1441.5"/>
</g>
<!-- Node20&#45;&gt;Node12 -->
<g id="edge38" class="edge">
<title>Node20&#45;&gt;Node12</title>
<path fill="none" stroke="#63b8ff" d="M1059.52,-1092.42C1006.92,-1100.18 931.18,-1111.48 865,-1121.83 857.07,-1123.08 848.83,-1124.38 840.57,-1125.71"/>
<polygon fill="#63b8ff" stroke="#63b8ff" points="840.14,-1122.23 830.82,-1127.28 841.25,-1129.14 840.14,-1122.23"/>
</g>
<!-- Node21&#45;&gt;Node4 -->
<g id="edge42" class="edge">
<title>Node21&#45;&gt;Node4</title>
<path fill="none" stroke="#63b8ff" d="M749.76,-1946.06C754.62,-1994.65 776.61,-2147.37 865,-2223.83 954.84,-2301.56 1006.2,-2285.83 1125,-2285.83 1125,-2285.83 1125,-2285.83 1302.5,-2285.83 1452.09,-2285.83 1461.41,-2167.04 1521,-2029.83 1594.84,-1859.83 1621.1,-1256.13 1626.08,-1122.25"/>
<polygon fill="#63b8ff" stroke="#63b8ff" points="1629.56,-1122.75 1626.43,-1112.63 1622.57,-1122.5 1629.56,-1122.75"/>
</g>
<!-- Node21&#45;&gt;Node7 -->
<g id="edge43" class="edge">
<title>Node21&#45;&gt;Node7</title>
<path fill="none" stroke="#63b8ff" d="M761.56,-1946.21C781.55,-1968.77 821.98,-2010.67 865,-2033.83 939.99,-2074.22 965.57,-2072.63 1050,-2083.83 1280.36,-2114.41 1436.28,-2073.22 1521,-1856.83 1584.67,-1694.23 1531.7,-1244.62 1557,-1071.83 1570.92,-976.8 1603.24,-867.09 1618.6,-817.97"/>
<polygon fill="#63b8ff" stroke="#63b8ff" points="1621.91,-819.13 1621.58,-808.54 1615.23,-817.02 1621.91,-819.13"/>
</g>
<!-- Node21&#45;&gt;Node8 -->
<g id="edge44" class="edge">
<title>Node21&#45;&gt;Node8</title>
<path fill="none" stroke="#63b8ff" d="M770.55,-1915.47C793.46,-1899.93 830.7,-1875.83 865,-1858.83 1022.18,-1780.96 1069.26,-1777.76 1238,-1729.83 1294.1,-1713.9 1326.37,-1740.52 1365,-1696.83 1405.39,-1651.16 1381.95,-1482.75 1401,-1424.83 1410.85,-1394.87 1429.16,-1363.63 1442.78,-1342.69"/>
<polygon fill="#63b8ff" stroke="#63b8ff" points="1445.57,-1344.82 1448.19,-1334.55 1439.74,-1340.94 1445.57,-1344.82"/>
</g>
<!-- Node21&#45;&gt;Node10 -->
<g id="edge73" class="edge">
<title>Node21&#45;&gt;Node10</title>
<path fill="none" stroke="#63b8ff" d="M755.85,-1915.46C772.76,-1880.78 816.68,-1794.43 865,-1729.83 936.55,-1634.17 966.64,-1620.41 1050,-1534.83 1116.66,-1466.4 1146.82,-1460.83 1202,-1382.83 1243.97,-1323.5 1276.35,-1243.5 1291.34,-1202.86"/>
<polygon fill="#63b8ff" stroke="#63b8ff" points="1294.55,-1204.28 1294.67,-1193.69 1287.97,-1201.9 1294.55,-1204.28"/>
</g>
<!-- Node21&#45;&gt;Node14 -->
<g id="edge75" class="edge">
<title>Node21&#45;&gt;Node14</title>
<path fill="none" stroke="#63b8ff" d="M772.08,-1946.09C794.96,-1960.22 831.1,-1980.82 865,-1992.83 1074.47,-2067.08 1214.49,-2149.36 1365,-1985.83 1434.95,-1909.84 1454.67,-1573.31 1458.97,-1475.55"/>
<polygon fill="#63b8ff" stroke="#63b8ff" points="1462.47,-1475.76 1459.39,-1465.62 1455.47,-1475.47 1462.47,-1475.76"/>
</g>
<!-- Node21&#45;&gt;Node21 -->
<g id="edge74" class="edge">
<title>Node21&#45;&gt;Node21</title>
<path fill="none" stroke="#63b8ff" d="M714.37,-1946.11C707,-1955.24 718.05,-1963.83 747.5,-1963.83 763.61,-1963.83 774.21,-1961.26 779.31,-1957.44"/>
<polygon fill="#63b8ff" stroke="#63b8ff" points="782.77,-1957.95 780.46,-1947.61 775.82,-1957.14 782.77,-1957.95"/>
</g>
<!-- Node22 -->
<g id="node22" class="node">
<title>Node22</title>
<g id="a_node22"><a xlink:href="a01929.html#a3750658328bf3ec3cf23f1626f9ec3af" target="_top" xlink:title=" ">
<polygon fill="white" stroke="#666666" points="999.5,-1897.83 879.5,-1897.83 879.5,-1867.83 999.5,-1867.83 999.5,-1897.83"/>
<text text-anchor="start" x="887.5" y="-1885.83" font-family="Helvetica,sans-Serif" font-size="10.00">nlohmann::detail::binary</text>
<text text-anchor="middle" x="939.5" y="-1874.83" font-family="Helvetica,sans-Serif" font-size="10.00">_reader::get_cbor_array</text>
</a>
</g>
</g>
<!-- Node21&#45;&gt;Node22 -->
<g id="edge45" class="edge">
<title>Node21&#45;&gt;Node22</title>
<path fill="none" stroke="#63b8ff" d="M787.41,-1915.43C810.6,-1908.46 840.73,-1900.53 867.98,-1894.1"/>
<polygon fill="#63b8ff" stroke="#63b8ff" points="868.62,-1897.55 877.58,-1891.88 867.05,-1890.73 868.62,-1897.55"/>
</g>
<!-- Node23 -->
<g id="node23" class="node">
<title>Node23</title>
<g id="a_node23"><a xlink:href="a01929.html#acb001d18095dc5bcf7336ae5122b8340" target="_top" xlink:title="reads a CBOR byte array">
<polygon fill="white" stroke="#666666" points="1188,-2001.83 1064,-2001.83 1064,-1971.83 1188,-1971.83 1188,-2001.83"/>
<text text-anchor="start" x="1072" y="-1989.83" font-family="Helvetica,sans-Serif" font-size="10.00">nlohmann::detail::binary</text>
<text text-anchor="middle" x="1126" y="-1978.83" font-family="Helvetica,sans-Serif" font-size="10.00">_reader::get_cbor_binary</text>
</a>
</g>
</g>
<!-- Node21&#45;&gt;Node23 -->
<g id="edge48" class="edge">
<title>Node21&#45;&gt;Node23</title>
<path fill="none" stroke="#63b8ff" d="M783.97,-1946.25C806.69,-1955.38 837.04,-1966.22 865,-1971.83 927.47,-1984.37 999.94,-1987.65 1052.48,-1988.06"/>
<polygon fill="#63b8ff" stroke="#63b8ff" points="1052.18,-1991.56 1062.19,-1988.11 1052.21,-1984.56 1052.18,-1991.56"/>
</g>
<!-- Node24 -->
<g id="node24" class="node">
<title>Node24</title>
<g id="a_node24"><a xlink:href="a01929.html#ac356c6364fe0273d3303fb7a447f4ef6" target="_top" xlink:title=" ">
<polygon fill="white" stroke="#666666" points="1361.5,-1687.83 1241.5,-1687.83 1241.5,-1657.83 1361.5,-1657.83 1361.5,-1687.83"/>
<text text-anchor="start" x="1249.5" y="-1675.83" font-family="Helvetica,sans-Serif" font-size="10.00">nlohmann::detail::binary</text>
<text text-anchor="middle" x="1301.5" y="-1664.83" font-family="Helvetica,sans-Serif" font-size="10.00">_reader::get_number</text>
</a>
</g>
</g>
<!-- Node21&#45;&gt;Node24 -->
<g id="edge72" class="edge">
<title>Node21&#45;&gt;Node24</title>
<path fill="none" stroke="#63b8ff" d="M756.5,-1915.66C772.81,-1886.26 812.79,-1821.5 865,-1787.83 925.3,-1748.95 1122.93,-1706.72 1230.02,-1685.92"/>
<polygon fill="#63b8ff" stroke="#63b8ff" points="1230.39,-1689.42 1239.55,-1684.08 1229.07,-1682.54 1230.39,-1689.42"/>
</g>
<!-- Node25 -->
<g id="node25" class="node">
<title>Node25</title>
<g id="a_node25"><a xlink:href="a01929.html#a47092a2195bf9cd3cdb4dda67cc404ed" target="_top" xlink:title=" ">
<polygon fill="white" stroke="#666666" points="1001.5,-1945.83 877.5,-1945.83 877.5,-1915.83 1001.5,-1915.83 1001.5,-1945.83"/>
<text text-anchor="start" x="885.5" y="-1933.83" font-family="Helvetica,sans-Serif" font-size="10.00">nlohmann::detail::binary</text>
<text text-anchor="middle" x="939.5" y="-1922.83" font-family="Helvetica,sans-Serif" font-size="10.00">_reader::get_cbor_object</text>
</a>
</g>
</g>
<!-- Node21&#45;&gt;Node25 -->
<g id="edge59" class="edge">
<title>Node21&#45;&gt;Node25</title>
<path fill="none" stroke="#63b8ff" d="M817.9,-1924.31C833.51,-1924.03 850.12,-1924.01 865.86,-1924.25"/>
<polygon fill="#63b8ff" stroke="#63b8ff" points="865.56,-1927.75 875.62,-1924.45 865.7,-1920.75 865.56,-1927.75"/>
</g>
<!-- Node26 -->
<g id="node26" class="node">
<title>Node26</title>
<g id="a_node26"><a xlink:href="a01929.html#a545a44ae4b3fa2b7a61d9e8517fb7154" target="_top" xlink:title="reads a CBOR string">
<polygon fill="white" stroke="#666666" points="1187,-1935.83 1065,-1935.83 1065,-1905.83 1187,-1905.83 1187,-1935.83"/>
<text text-anchor="start" x="1073" y="-1923.83" font-family="Helvetica,sans-Serif" font-size="10.00">nlohmann::detail::binary</text>
<text text-anchor="middle" x="1126" y="-1912.83" font-family="Helvetica,sans-Serif" font-size="10.00">_reader::get_cbor_string</text>
</a>
</g>
</g>
<!-- Node21&#45;&gt;Node26 -->
<g id="edge71" class="edge">
<title>Node21&#45;&gt;Node26</title>
<path fill="none" stroke="#63b8ff" d="M811.93,-1946.33C829.05,-1949.85 847.64,-1953.06 865,-1954.83 930.88,-1961.55 948.51,-1964.64 1014,-1954.83 1033.98,-1951.84 1055.34,-1945.98 1073.93,-1939.95"/>
<polygon fill="#63b8ff" stroke="#63b8ff" points="1075.01,-1943.28 1083.38,-1936.79 1072.79,-1936.64 1075.01,-1943.28"/>
</g>
<!-- Node22&#45;&gt;Node8 -->
<g id="edge46" class="edge">
<title>Node22&#45;&gt;Node8</title>
<path fill="none" stroke="#63b8ff" d="M984.35,-1867.37C1092.2,-1829.28 1361.88,-1733.76 1365,-1729.83 1407.44,-1676.39 1380.13,-1489.81 1401,-1424.83 1410.64,-1394.81 1428.98,-1363.57 1442.67,-1342.65"/>
<polygon fill="#63b8ff" stroke="#63b8ff" points="1445.46,-1344.78 1448.11,-1334.52 1439.64,-1340.88 1445.46,-1344.78"/>
</g>
<!-- Node22&#45;&gt;Node21 -->
<g id="edge47" class="edge">
<title>Node22&#45;&gt;Node21</title>
<path fill="none" stroke="#63b8ff" d="M899.37,-1898.3C879.01,-1904.41 853.34,-1911.27 828.98,-1917.18"/>
<polygon fill="#63b8ff" stroke="#63b8ff" points="828.29,-1913.75 819.37,-1919.48 829.91,-1920.56 828.29,-1913.75"/>
</g>
<!-- Node23&#45;&gt;Node4 -->
<g id="edge49" class="edge">
<title>Node23&#45;&gt;Node4</title>
<path fill="none" stroke="#63b8ff" d="M1143.85,-2002.31C1164.33,-2019.97 1200.78,-2047.82 1238,-2058.83 1292.12,-2074.85 1314.07,-2083.16 1365,-2058.83 1464.53,-2011.31 1477.21,-1967.06 1521,-1865.83 1581.03,-1727.08 1617.18,-1241.32 1625.27,-1122.31"/>
<polygon fill="#63b8ff" stroke="#63b8ff" points="1628.74,-1122.8 1625.92,-1112.59 1621.76,-1122.33 1628.74,-1122.8"/>
</g>
<!-- Node23&#45;&gt;Node7 -->
<g id="edge50" class="edge">
<title>Node23&#45;&gt;Node7</title>
<path fill="none" stroke="#63b8ff" d="M1188.46,-1997.62C1239.22,-2003.31 1311.38,-2003.73 1365,-1972.83 1473.94,-1910.06 1481.56,-1856.22 1521,-1736.83 1567.43,-1596.31 1534.95,-1218.18 1557,-1071.83 1571.31,-976.85 1603.44,-867.12 1618.68,-817.98"/>
<polygon fill="#63b8ff" stroke="#63b8ff" points="1621.98,-819.14 1621.63,-808.55 1615.3,-817.05 1621.98,-819.14"/>
</g>
<!-- Node23&#45;&gt;Node8 -->
<g id="edge51" class="edge">
<title>Node23&#45;&gt;Node8</title>
<path fill="none" stroke="#63b8ff" d="M1182.3,-1971.39C1189.07,-1968.85 1195.78,-1965.99 1202,-1962.83 1241.98,-1942.52 1342.99,-1882.91 1365,-1843.83 1410.86,-1762.41 1373.85,-1514.26 1401,-1424.83 1410.16,-1394.66 1428.58,-1363.44 1442.42,-1342.57"/>
<polygon fill="#63b8ff" stroke="#63b8ff" points="1445.2,-1344.7 1447.93,-1334.46 1439.41,-1340.77 1445.2,-1344.7"/>
</g>
<!-- Node23&#45;&gt;Node10 -->
<g id="edge57" class="edge">
<title>Node23&#45;&gt;Node10</title>
<path fill="none" stroke="#63b8ff" d="M1188.17,-1974.7C1193.46,-1971.59 1198.23,-1967.69 1202,-1962.83 1243.63,-1909.2 1224.51,-1419.38 1238,-1352.83 1249.23,-1297.45 1274.14,-1235.89 1288.9,-1202.25"/>
<polygon fill="#63b8ff" stroke="#63b8ff" points="1291.99,-1203.9 1292.86,-1193.34 1285.6,-1201.05 1291.99,-1203.9"/>
</g>
<!-- Node23&#45;&gt;Node14 -->
<g id="edge58" class="edge">
<title>Node23&#45;&gt;Node14</title>
<path fill="none" stroke="#63b8ff" d="M1188.49,-1994.94C1242.28,-1998.34 1318.84,-1993.65 1365,-1948.83 1433.78,-1882.05 1454.22,-1569.21 1458.85,-1475.45"/>
<polygon fill="#63b8ff" stroke="#63b8ff" points="1462.33,-1475.86 1459.31,-1465.7 1455.34,-1475.53 1462.33,-1475.86"/>
</g>
<!-- Node23&#45;&gt;Node17 -->
<g id="edge52" class="edge">
<title>Node23&#45;&gt;Node17</title>
<path fill="none" stroke="#63b8ff" d="M1188.26,-1974.28C1193.46,-1971.24 1198.18,-1967.48 1202,-1962.83 1246.58,-1908.56 1222.15,-1717.26 1238,-1648.83 1250.76,-1593.78 1275.11,-1532.11 1289.36,-1498.35"/>
<polygon fill="#63b8ff" stroke="#63b8ff" points="1292.47,-1499.98 1293.18,-1489.41 1286.03,-1497.23 1292.47,-1499.98"/>
</g>
<!-- Node23&#45;&gt;Node23 -->
<g id="edge53" class="edge">
<title>Node23&#45;&gt;Node23</title>
<path fill="none" stroke="#63b8ff" d="M1095.15,-2002.11C1088.29,-2011.24 1098.58,-2019.83 1126,-2019.83 1141,-2019.83 1150.87,-2017.26 1155.61,-2013.44"/>
<polygon fill="#63b8ff" stroke="#63b8ff" points="1159.08,-2013.94 1156.69,-2003.61 1152.12,-2013.18 1159.08,-2013.94"/>
</g>
<!-- Node23&#45;&gt;Node24 -->
<g id="edge54" class="edge">
<title>Node23&#45;&gt;Node24</title>
<path fill="none" stroke="#63b8ff" d="M1188.42,-1972.83C1193.39,-1970.08 1198.02,-1966.78 1202,-1962.83 1238.24,-1926.93 1221.67,-1902.17 1238,-1853.83 1256.64,-1798.65 1279.04,-1734.23 1291.32,-1699.06"/>
<polygon fill="#63b8ff" stroke="#63b8ff" points="1294.58,-1700.33 1294.58,-1689.73 1287.98,-1698.02 1294.58,-1700.33"/>
</g>
<!-- Node24&#45;&gt;Node8 -->
<g id="edge55" class="edge">
<title>Node24&#45;&gt;Node8</title>
<path fill="none" stroke="#63b8ff" d="M1307.84,-1657.45C1321.69,-1618.08 1360.46,-1510.72 1401,-1424.83 1414.56,-1396.11 1432.43,-1364.39 1444.94,-1343"/>
<polygon fill="#63b8ff" stroke="#63b8ff" points="1447.94,-1344.8 1450.01,-1334.41 1441.91,-1341.25 1447.94,-1344.8"/>
</g>
<!-- Node24&#45;&gt;Node14 -->
<g id="edge56" class="edge">
<title>Node24&#45;&gt;Node14</title>
<path fill="none" stroke="#63b8ff" d="M1313.33,-1657.44C1340.2,-1619.22 1410.12,-1519.77 1442.76,-1473.36"/>
<polygon fill="#63b8ff" stroke="#63b8ff" points="1445.55,-1475.47 1448.44,-1465.28 1439.82,-1471.45 1445.55,-1475.47"/>
</g>
<!-- Node25&#45;&gt;Node8 -->
<g id="edge60" class="edge">
<title>Node25&#45;&gt;Node8</title>
<path fill="none" stroke="#63b8ff" d="M989.29,-1915.42C997.57,-1912.66 1006.06,-1909.73 1014,-1906.83 1098.66,-1875.94 1122.72,-1873.69 1202,-1830.83 1219.14,-1821.57 1220.48,-1814.35 1238,-1805.83 1291.1,-1780.02 1327.47,-1812.42 1365,-1766.83 1413.58,-1707.84 1378.1,-1497.74 1401,-1424.83 1410.45,-1394.75 1428.82,-1363.52 1442.57,-1342.62"/>
<polygon fill="#63b8ff" stroke="#63b8ff" points="1445.36,-1344.75 1448.04,-1334.5 1439.55,-1340.84 1445.36,-1344.75"/>
</g>
<!-- Node25&#45;&gt;Node21 -->
<g id="edge70" class="edge">
<title>Node25&#45;&gt;Node21</title>
<path fill="none" stroke="#63b8ff" d="M877.14,-1937.19C861.78,-1937.56 845.08,-1937.67 828.95,-1937.51"/>
<polygon fill="#63b8ff" stroke="#63b8ff" points="829.46,-1934.02 819.41,-1937.38 829.37,-1941.02 829.46,-1934.02"/>
</g>
<!-- Node25&#45;&gt;Node26 -->
<g id="edge61" class="edge">
<title>Node25&#45;&gt;Node26</title>
<path fill="none" stroke="#63b8ff" d="M1001.94,-1927.5C1018.53,-1926.6 1036.63,-1925.62 1053.72,-1924.7"/>
<polygon fill="#63b8ff" stroke="#63b8ff" points="1053.47,-1928.22 1063.26,-1924.18 1053.09,-1921.23 1053.47,-1928.22"/>
</g>
<!-- Node26&#45;&gt;Node4 -->
<g id="edge62" class="edge">
<title>Node26&#45;&gt;Node4</title>
<path fill="none" stroke="#63b8ff" d="M1164.33,-1936.22C1177.41,-1942.95 1191.46,-1951.85 1202,-1962.83 1226.5,-1988.36 1207.85,-2015.32 1238,-2033.83 1286.1,-2063.37 1318.29,-2065.52 1365,-2033.83 1524.77,-1925.46 1607.98,-1264.06 1624.08,-1122.49"/>
<polygon fill="#63b8ff" stroke="#63b8ff" points="1627.55,-1122.95 1625.19,-1112.63 1620.6,-1122.17 1627.55,-1122.95"/>
</g>
<!-- Node26&#45;&gt;Node7 -->
<g id="edge63" class="edge">
<title>Node26&#45;&gt;Node7</title>
<path fill="none" stroke="#63b8ff" d="M1157.19,-1936.25C1205.68,-1958.61 1301.84,-1992.82 1365,-1948.83 1529.09,-1834.55 1478.04,-1722.13 1521,-1526.83 1564.58,-1328.72 1524.29,-1272.03 1557,-1071.83 1572.49,-977.04 1604.03,-867.21 1618.9,-818.02"/>
<polygon fill="#63b8ff" stroke="#63b8ff" points="1622.21,-819.16 1621.78,-808.57 1615.51,-817.12 1622.21,-819.16"/>
</g>
<!-- Node26&#45;&gt;Node8 -->
<g id="edge64" class="edge">
<title>Node26&#45;&gt;Node8</title>
<path fill="none" stroke="#63b8ff" d="M1176.18,-1905.44C1185.13,-1901.65 1194.12,-1897.12 1202,-1891.83 1221.32,-1878.88 1218.63,-1866.72 1238,-1853.83 1288.24,-1820.42 1328.39,-1853.8 1365,-1805.83 1416.59,-1738.23 1375.94,-1506.1 1401,-1424.83 1410.29,-1394.7 1428.69,-1363.48 1442.48,-1342.59"/>
<polygon fill="#63b8ff" stroke="#63b8ff" points="1445.27,-1344.72 1447.98,-1334.48 1439.47,-1340.8 1445.27,-1344.72"/>
</g>
<!-- Node26&#45;&gt;Node10 -->
<g id="edge68" class="edge">
<title>Node26&#45;&gt;Node10</title>
<path fill="none" stroke="#63b8ff" d="M1131.66,-1905.58C1144.61,-1862.71 1181.42,-1737.29 1202,-1630.83 1225.64,-1508.51 1208.99,-1474 1238,-1352.83 1251.16,-1297.87 1275.37,-1236.17 1289.49,-1202.38"/>
<polygon fill="#63b8ff" stroke="#63b8ff" points="1292.6,-1204.01 1293.27,-1193.43 1286.15,-1201.28 1292.6,-1204.01"/>
</g>
<!-- Node26&#45;&gt;Node14 -->
<g id="edge69" class="edge">
<title>Node26&#45;&gt;Node14</title>
<path fill="none" stroke="#63b8ff" d="M1171.32,-1936.27C1224.32,-1951.61 1312.43,-1966.74 1365,-1919.83 1415.76,-1874.54 1385.57,-1682.09 1401,-1615.83 1412.98,-1564.4 1435.44,-1506.81 1448.93,-1474.48"/>
<polygon fill="#63b8ff" stroke="#63b8ff" points="1452.03,-1476.11 1452.7,-1465.54 1445.59,-1473.39 1452.03,-1476.11"/>
</g>
<!-- Node26&#45;&gt;Node19 -->
<g id="edge67" class="edge">
<title>Node26&#45;&gt;Node19</title>
<path fill="none" stroke="#63b8ff" d="M1131.3,-1905.51C1143.31,-1862.43 1177.9,-1736.55 1202,-1630.83 1220.33,-1550.44 1184.9,-1511.92 1238,-1448.83 1238.35,-1448.42 1238.7,-1448.02 1239.06,-1447.62"/>
<polygon fill="#63b8ff" stroke="#63b8ff" points="1241.18,-1450.42 1246.47,-1441.24 1236.61,-1445.11 1241.18,-1450.42"/>
</g>
<!-- Node26&#45;&gt;Node24 -->
<g id="edge66" class="edge">
<title>Node26&#45;&gt;Node24</title>
<path fill="none" stroke="#63b8ff" d="M1137.59,-1905.69C1166.63,-1864.19 1247.71,-1748.3 1283.34,-1697.37"/>
<polygon fill="#63b8ff" stroke="#63b8ff" points="1286.09,-1699.53 1288.96,-1689.33 1280.36,-1695.52 1286.09,-1699.53"/>
</g>
<!-- Node26&#45;&gt;Node26 -->
<g id="edge65" class="edge">
<title>Node26&#45;&gt;Node26</title>
<path fill="none" stroke="#63b8ff" d="M1095.15,-1936.11C1088.29,-1945.24 1098.58,-1953.83 1126,-1953.83 1141,-1953.83 1150.87,-1951.26 1155.61,-1947.44"/>
<polygon fill="#63b8ff" stroke="#63b8ff" points="1159.08,-1947.94 1156.69,-1937.61 1152.12,-1947.18 1159.08,-1947.94"/>
</g>
<!-- Node27&#45;&gt;Node4 -->
<g id="edge77" class="edge">
<title>Node27&#45;&gt;Node4</title>
<path fill="none" stroke="#63b8ff" d="M758.81,-1507.72C777.74,-1545.32 820.22,-1626.29 865,-1688.83 923.49,-1770.52 969.02,-1769 1014,-1858.83 1048.58,-1927.89 996.95,-1972.71 1050,-2028.83 1147.43,-2131.9 1230.18,-2123.85 1365,-2079.83 1446.63,-2053.19 1477.55,-2039.91 1521,-1965.83 1608.07,-1817.39 1624.03,-1252.02 1626.56,-1122.42"/>
<polygon fill="#63b8ff" stroke="#63b8ff" points="1630.06,-1122.84 1626.74,-1112.78 1623.06,-1122.71 1630.06,-1122.84"/>
</g>
<!-- Node27&#45;&gt;Node7 -->
<g id="edge78" class="edge">
<title>Node27&#45;&gt;Node7</title>
<path fill="none" stroke="#63b8ff" d="M782.89,-1465.96C805.56,-1452.93 836.26,-1436.64 865,-1425.83 928.77,-1401.85 958.32,-1429.09 1014,-1389.83 1037.88,-1373 1027.56,-1353.54 1050,-1334.83 1106.3,-1287.9 1134.55,-1299.52 1202,-1270.83 1274.55,-1239.98 1304.87,-1251.83 1365,-1200.83 1498.73,-1087.43 1588.06,-888.43 1616.9,-817.69"/>
<polygon fill="#63b8ff" stroke="#63b8ff" points="1620.11,-819.09 1620.59,-808.51 1613.61,-816.49 1620.11,-819.09"/>
</g>
<!-- Node27&#45;&gt;Node8 -->
<g id="edge79" class="edge">
<title>Node27&#45;&gt;Node8</title>
<path fill="none" stroke="#63b8ff" d="M809.85,-1473.56C863.78,-1461.7 944.32,-1443.51 1014,-1425.83 1030.1,-1421.75 1033.88,-1419.82 1050,-1415.83 1117.11,-1399.24 1147.41,-1425.24 1202,-1382.83 1230.25,-1360.89 1207.57,-1329.64 1238,-1310.83 1287.2,-1280.43 1354.94,-1288.05 1402.62,-1299.58"/>
<polygon fill="#63b8ff" stroke="#63b8ff" points="1401.66,-1302.95 1412.21,-1302.04 1403.39,-1296.17 1401.66,-1302.95"/>
</g>
<!-- Node27&#45;&gt;Node10 -->
<g id="edge97" class="edge">
<title>Node27&#45;&gt;Node10</title>
<path fill="none" stroke="#63b8ff" d="M770.44,-1466.03C792.67,-1445.96 828.86,-1416.04 865,-1397.83 926.55,-1366.82 958.21,-1395.3 1014,-1354.83 1037.05,-1338.11 1028.56,-1320.58 1050,-1301.83 1107.16,-1251.85 1187.86,-1216.32 1242.07,-1196.22"/>
<polygon fill="#63b8ff" stroke="#63b8ff" points="1243.26,-1199.51 1251.46,-1192.8 1240.86,-1192.93 1243.26,-1199.51"/>
</g>
<!-- Node27&#45;&gt;Node14 -->
<g id="edge98" class="edge">
<title>Node27&#45;&gt;Node14</title>
<path fill="none" stroke="#63b8ff" d="M759.92,-1507.67C778.08,-1538.87 816.51,-1597.5 865,-1629.83 1051.54,-1754.22 1191.14,-1838.41 1365,-1696.83 1426.24,-1646.97 1367.47,-1594.33 1401,-1522.83 1409.76,-1504.16 1424.11,-1486.01 1436.46,-1472.36"/>
<polygon fill="#63b8ff" stroke="#63b8ff" points="1438.9,-1474.88 1443.18,-1465.18 1433.79,-1470.09 1438.9,-1474.88"/>
</g>
<!-- Node27&#45;&gt;Node24 -->
<g id="edge96" class="edge">
<title>Node27&#45;&gt;Node24</title>
<path fill="none" stroke="#63b8ff" d="M771.87,-1507.7C794.6,-1527.34 830.63,-1556.8 865,-1577.83 942.34,-1625.16 961.83,-1642.68 1050,-1663.83 1109.38,-1678.08 1178.92,-1679.42 1229.65,-1677.71"/>
<polygon fill="#63b8ff" stroke="#63b8ff" points="1229.78,-1681.21 1239.64,-1677.32 1229.51,-1674.21 1229.78,-1681.21"/>
</g>
<!-- Node28 -->
<g id="node28" class="node">
<title>Node28</title>
<g id="a_node28"><a xlink:href="a01929.html#a0ce1d7066597952efb008aaf578b2bd6" target="_top" xlink:title=" ">
<polygon fill="white" stroke="#666666" points="1009.5,-1345.83 869.5,-1345.83 869.5,-1315.83 1009.5,-1315.83 1009.5,-1345.83"/>
<text text-anchor="start" x="877.5" y="-1333.83" font-family="Helvetica,sans-Serif" font-size="10.00">nlohmann::detail::binary</text>
<text text-anchor="middle" x="939.5" y="-1322.83" font-family="Helvetica,sans-Serif" font-size="10.00">_reader::get_msgpack_array</text>
</a>
</g>
</g>
<!-- Node27&#45;&gt;Node28 -->
<g id="edge80" class="edge">
<title>Node27&#45;&gt;Node28</title>
<path fill="none" stroke="#63b8ff" d="M758.98,-1466.02C776.46,-1438 813.9,-1388.89 863.09,-1352.75"/>
<polygon fill="#63b8ff" stroke="#63b8ff" points="865.02,-1355.67 871.17,-1347.03 860.98,-1349.95 865.02,-1355.67"/>
</g>
<!-- Node29 -->
<g id="node29" class="node">
<title>Node29</title>
<g id="a_node29"><a xlink:href="a01929.html#a389e550fd397a48121cb82d92bb7475a" target="_top" xlink:title="reads a MessagePack byte array">
<polygon fill="white" stroke="#666666" points="1198.5,-1621.83 1053.5,-1621.83 1053.5,-1591.83 1198.5,-1591.83 1198.5,-1621.83"/>
<text text-anchor="start" x="1061.5" y="-1609.83" font-family="Helvetica,sans-Serif" font-size="10.00">nlohmann::detail::binary</text>
<text text-anchor="middle" x="1126" y="-1598.83" font-family="Helvetica,sans-Serif" font-size="10.00">_reader::get_msgpack_binary</text>
</a>
</g>
</g>
<!-- Node27&#45;&gt;Node29 -->
<g id="edge82" class="edge">
<title>Node27&#45;&gt;Node29</title>
<path fill="none" stroke="#63b8ff" d="M785.9,-1507.72C808.31,-1519.58 837.68,-1533.97 865,-1543.83 922.79,-1564.69 990.29,-1580.82 1042.02,-1591.53"/>
<polygon fill="#63b8ff" stroke="#63b8ff" points="1041.17,-1594.93 1051.67,-1593.5 1042.57,-1588.07 1041.17,-1594.93"/>
</g>
<!-- Node30 -->
<g id="node30" class="node">
<title>Node30</title>
<g id="a_node30"><a xlink:href="a01929.html#a8bebd21ceef09b6b2562e87861832700" target="_top" xlink:title=" ">
<polygon fill="white" stroke="#666666" points="1012,-1507.83 867,-1507.83 867,-1477.83 1012,-1477.83 1012,-1507.83"/>
<text text-anchor="start" x="875" y="-1495.83" font-family="Helvetica,sans-Serif" font-size="10.00">nlohmann::detail::binary</text>
<text text-anchor="middle" x="939.5" y="-1484.83" font-family="Helvetica,sans-Serif" font-size="10.00">_reader::get_msgpack_object</text>
</a>
</g>
</g>
<!-- Node27&#45;&gt;Node30 -->
<g id="edge85" class="edge">
<title>Node27&#45;&gt;Node30</title>
<path fill="none" stroke="#63b8ff" d="M809.93,-1482.41C824.49,-1482.52 840.27,-1482.91 855.62,-1483.52"/>
<polygon fill="#63b8ff" stroke="#63b8ff" points="855.05,-1486.99 865.19,-1483.93 855.35,-1480 855.05,-1486.99"/>
</g>
<!-- Node31 -->
<g id="node31" class="node">
<title>Node31</title>
<g id="a_node31"><a xlink:href="a01929.html#ad8cba5585327caa550dd5b6dd25a64f8" target="_top" xlink:title="reads a MessagePack string">
<polygon fill="white" stroke="#666666" points="1197.5,-1573.83 1054.5,-1573.83 1054.5,-1543.83 1197.5,-1543.83 1197.5,-1573.83"/>
<text text-anchor="start" x="1062.5" y="-1561.83" font-family="Helvetica,sans-Serif" font-size="10.00">nlohmann::detail::binary</text>
<text text-anchor="middle" x="1126" y="-1550.83" font-family="Helvetica,sans-Serif" font-size="10.00">_reader::get_msgpack_string</text>
</a>
</g>
</g>
<!-- Node27&#45;&gt;Node31 -->
<g id="edge95" class="edge">
<title>Node27&#45;&gt;Node31</title>
<path fill="none" stroke="#63b8ff" d="M809.92,-1503.78C827.62,-1508.35 847.01,-1513.07 865,-1516.83 924.09,-1529.19 991.37,-1539.97 1042.69,-1547.51"/>
<polygon fill="#63b8ff" stroke="#63b8ff" points="1042.15,-1550.97 1052.55,-1548.95 1043.16,-1544.05 1042.15,-1550.97"/>
</g>
<!-- Node28&#45;&gt;Node27 -->
<g id="edge81" class="edge">
<title>Node28&#45;&gt;Node27</title>
<path fill="none" stroke="#63b8ff" d="M911.21,-1346.31C896.7,-1352.09 879.02,-1359.2 865,-1368.83 829.27,-1393.39 796.66,-1430.84 775.09,-1457.09"/>
<polygon fill="#63b8ff" stroke="#63b8ff" points="772.49,-1454.73 768.89,-1464.69 777.92,-1459.15 772.49,-1454.73"/>
</g>
<!-- Node29&#45;&gt;Node17 -->
<g id="edge83" class="edge">
<title>Node29&#45;&gt;Node17</title>
<path fill="none" stroke="#63b8ff" d="M1185.73,-1591.45C1191.42,-1588.96 1196.95,-1586.11 1202,-1582.83 1236.79,-1560.29 1266.93,-1522.33 1284.42,-1497.43"/>
<polygon fill="#63b8ff" stroke="#63b8ff" points="1287.29,-1499.43 1290.05,-1489.2 1281.51,-1495.48 1287.29,-1499.43"/>
</g>
<!-- Node29&#45;&gt;Node24 -->
<g id="edge84" class="edge">
<title>Node29&#45;&gt;Node24</title>
<path fill="none" stroke="#63b8ff" d="M1167.68,-1622.31C1192.06,-1631.58 1223.29,-1643.46 1249.34,-1653.37"/>
<polygon fill="#63b8ff" stroke="#63b8ff" points="1247.77,-1656.52 1258.36,-1656.8 1250.26,-1649.98 1247.77,-1656.52"/>
</g>
<!-- Node30&#45;&gt;Node8 -->
<g id="edge86" class="edge">
<title>Node30&#45;&gt;Node8</title>
<path fill="none" stroke="#63b8ff" d="M1012.38,-1486.35C1069.04,-1478.03 1147.33,-1459.06 1202,-1415.83 1227.3,-1395.83 1211.46,-1371.15 1238,-1352.83 1282.06,-1322.43 1342.65,-1314.56 1389.4,-1313.81"/>
<polygon fill="#63b8ff" stroke="#63b8ff" points="1389.17,-1317.31 1399.15,-1313.76 1389.14,-1310.31 1389.17,-1317.31"/>
</g>
<!-- Node30&#45;&gt;Node27 -->
<g id="edge94" class="edge">
<title>Node30&#45;&gt;Node27</title>
<path fill="none" stroke="#63b8ff" d="M866.7,-1497.13C851.8,-1496.9 836.09,-1496.41 821.16,-1495.71"/>
<polygon fill="#63b8ff" stroke="#63b8ff" points="821.6,-1492.23 811.44,-1495.21 821.24,-1499.22 821.6,-1492.23"/>
</g>
<!-- Node30&#45;&gt;Node31 -->
<g id="edge87" class="edge">
<title>Node30&#45;&gt;Node31</title>
<path fill="none" stroke="#63b8ff" d="M983.76,-1508.31C1009.8,-1517.63 1043.19,-1529.57 1070.96,-1539.5"/>
<polygon fill="#63b8ff" stroke="#63b8ff" points="1069.68,-1542.76 1080.27,-1542.83 1072.03,-1536.17 1069.68,-1542.76"/>
</g>
<!-- Node31&#45;&gt;Node4 -->
<g id="edge88" class="edge">
<title>Node31&#45;&gt;Node4</title>
<path fill="none" stroke="#63b8ff" d="M1180.92,-1574.22C1188.12,-1576.81 1195.32,-1579.7 1202,-1582.83 1219.19,-1590.91 1219.78,-1600.51 1238,-1605.83 1358.73,-1641.11 1423.43,-1685.21 1521,-1605.83 1597.36,-1543.71 1620.51,-1218.41 1625.72,-1122.48"/>
<polygon fill="#63b8ff" stroke="#63b8ff" points="1629.2,-1122.91 1626.23,-1112.74 1622.21,-1122.55 1629.2,-1122.91"/>
</g>
<!-- Node31&#45;&gt;Node7 -->
<g id="edge89" class="edge">
<title>Node31&#45;&gt;Node7</title>
<path fill="none" stroke="#63b8ff" d="M1197.78,-1569C1291.61,-1577.88 1453.2,-1576.15 1521,-1472.83 1570.09,-1398.03 1542.11,-1160.06 1557,-1071.83 1572.99,-977.12 1604.28,-867.25 1619,-818.03"/>
<polygon fill="#63b8ff" stroke="#63b8ff" points="1622.31,-819.17 1621.84,-808.59 1615.61,-817.15 1622.31,-819.17"/>
</g>
<!-- Node31&#45;&gt;Node10 -->
<g id="edge92" class="edge">
<title>Node31&#45;&gt;Node10</title>
<path fill="none" stroke="#63b8ff" d="M1150.69,-1543.4C1167.43,-1531.3 1189.09,-1513 1202,-1491.83 1235.22,-1437.35 1219.3,-1413.85 1238,-1352.83 1254.56,-1298.8 1277.54,-1236.76 1290.52,-1202.66"/>
<polygon fill="#63b8ff" stroke="#63b8ff" points="1293.67,-1204.22 1293.98,-1193.63 1287.14,-1201.72 1293.67,-1204.22"/>
</g>
<!-- Node31&#45;&gt;Node14 -->
<g id="edge93" class="edge">
<title>Node31&#45;&gt;Node14</title>
<path fill="none" stroke="#63b8ff" d="M1197.76,-1560.77C1246.64,-1559.62 1312.12,-1553.05 1365,-1529.83 1394.64,-1516.82 1422.03,-1491.43 1439.71,-1472.52"/>
<polygon fill="#63b8ff" stroke="#63b8ff" points="1442.2,-1474.98 1446.33,-1465.22 1437.02,-1470.28 1442.2,-1474.98"/>
</g>
<!-- Node31&#45;&gt;Node19 -->
<g id="edge91" class="edge">
<title>Node31&#45;&gt;Node19</title>
<path fill="none" stroke="#63b8ff" d="M1145.56,-1543.56C1161.16,-1530.42 1183.78,-1510.65 1202,-1491.83 1219.34,-1473.93 1217.72,-1463.32 1238,-1448.83 1239.56,-1447.72 1241.18,-1446.65 1242.84,-1445.62"/>
<polygon fill="#63b8ff" stroke="#63b8ff" points="1244.34,-1448.79 1251.43,-1440.92 1240.98,-1442.65 1244.34,-1448.79"/>
</g>
<!-- Node31&#45;&gt;Node24 -->
<g id="edge90" class="edge">
<title>Node31&#45;&gt;Node24</title>
<path fill="none" stroke="#63b8ff" d="M1188.33,-1574.16C1193.2,-1576.64 1197.83,-1579.51 1202,-1582.83 1226.6,-1602.47 1214.67,-1622.7 1238,-1643.83 1241.11,-1646.65 1244.54,-1649.24 1248.14,-1651.61"/>
<polygon fill="#63b8ff" stroke="#63b8ff" points="1246.29,-1654.58 1256.68,-1656.62 1249.83,-1648.54 1246.29,-1654.58"/>
</g>
<!-- Node32&#45;&gt;Node9 -->
<g id="edge100" class="edge">
<title>Node32&#45;&gt;Node9</title>
<path fill="none" stroke="#63b8ff" d="M383.64,-548.49C409.44,-474.69 532.08,-159.83 746.5,-159.83 746.5,-159.83 746.5,-159.83 940.5,-159.83 1041.92,-159.83 1157.45,-182.18 1229.68,-198.88"/>
<polygon fill="#63b8ff" stroke="#63b8ff" points="1228.44,-202.19 1238.97,-201.06 1230.04,-195.37 1228.44,-202.19"/>
</g>
<!-- Node33 -->
<g id="node33" class="node">
<title>Node33</title>
<g id="a_node33"><a xlink:href="a01929.html#a7e5e0b71548d0649ce4f131280d06c33" target="_top" xlink:title=" ">
<polygon fill="white" stroke="#666666" points="623.5,-621.83 494.5,-621.83 494.5,-591.83 623.5,-591.83 623.5,-621.83"/>
<text text-anchor="start" x="502.5" y="-609.83" font-family="Helvetica,sans-Serif" font-size="10.00">nlohmann::detail::binary</text>
<text text-anchor="middle" x="559" y="-598.83" font-family="Helvetica,sans-Serif" font-size="10.00">_reader::get_ubjson_value</text>
</a>
</g>
</g>
<!-- Node32&#45;&gt;Node33 -->
<g id="edge101" class="edge">
<title>Node32&#45;&gt;Node33</title>
<path fill="none" stroke="#63b8ff" d="M443.05,-579.3C456.01,-582.4 469.73,-585.69 483,-588.87"/>
<polygon fill="#63b8ff" stroke="#63b8ff" points="482.01,-592.23 492.55,-591.16 483.64,-585.42 482.01,-592.23"/>
</g>
<!-- Node33&#45;&gt;Node4 -->
<g id="edge102" class="edge">
<title>Node33&#45;&gt;Node4</title>
<path fill="none" stroke="#63b8ff" d="M568.52,-622.06C584.11,-648.39 619.94,-702.05 666,-727.83 744.29,-771.66 775.59,-754.25 865,-761.83 930.99,-767.43 958.47,-797.92 1014,-761.83 1047.03,-740.37 1016.97,-702.3 1050,-680.83 1226.94,-565.84 1372.41,-591 1521,-740.83 1544.96,-765 1601.75,-991.83 1620.71,-1069.72"/>
<polygon fill="#63b8ff" stroke="#63b8ff" points="1617.21,-1070.13 1622.97,-1079.02 1624.01,-1068.48 1617.21,-1070.13"/>
</g>
<!-- Node33&#45;&gt;Node7 -->
<g id="edge103" class="edge">
<title>Node33&#45;&gt;Node7</title>
<path fill="none" stroke="#63b8ff" d="M566.09,-591.48C591.58,-529.37 696.36,-295.23 865,-192.83 993.5,-114.81 1052.25,-150.62 1202,-163.83 1275.3,-170.3 1302.33,-154.27 1365,-192.83 1463.41,-253.4 1470.31,-296.99 1521,-400.83 1583.75,-529.39 1613.7,-700.48 1623.36,-765.37"/>
<polygon fill="#63b8ff" stroke="#63b8ff" points="1619.87,-765.66 1624.76,-775.06 1626.79,-764.66 1619.87,-765.66"/>
</g>
<!-- Node33&#45;&gt;Node8 -->
<g id="edge104" class="edge">
<title>Node33&#45;&gt;Node8</title>
<path fill="none" stroke="#63b8ff" d="M623.86,-607.27C678.53,-608.33 759.24,-611.54 829,-620.83 1074.21,-653.51 1201.97,-584.78 1365,-770.83 1434.37,-850 1454.52,-1192.23 1458.94,-1291.04"/>
<polygon fill="#63b8ff" stroke="#63b8ff" points="1455.44,-1290.98 1459.36,-1300.82 1462.43,-1290.68 1455.44,-1290.98"/>
</g>
<!-- Node33&#45;&gt;Node10 -->
<g id="edge106" class="edge">
<title>Node33&#45;&gt;Node10</title>
<path fill="none" stroke="#63b8ff" d="M561.25,-622.12C566.01,-671.08 586.9,-826.31 666,-919.83 788.58,-1064.78 871.06,-1043.47 1050,-1106.83 1058.88,-1109.98 1162.69,-1138.79 1233.86,-1158.45"/>
<polygon fill="#63b8ff" stroke="#63b8ff" points="1232.51,-1161.71 1243.08,-1161 1234.37,-1154.96 1232.51,-1161.71"/>
</g>
<!-- Node33&#45;&gt;Node14 -->
<g id="edge145" class="edge">
<title>Node33&#45;&gt;Node14</title>
<path fill="none" stroke="#63b8ff" d="M564.1,-622.3C574.54,-658.52 605.64,-749.17 666,-794.83 763.74,-868.78 1105.47,-849.31 1202,-924.83 1229.24,-946.15 1219.12,-964.85 1238,-993.83 1287.37,-1069.61 1327.21,-1070.67 1365,-1152.83 1400.73,-1230.52 1371.99,-1261.39 1401,-1341.83 1411.76,-1371.67 1430.08,-1403.16 1443.46,-1424.19"/>
<polygon fill="#63b8ff" stroke="#63b8ff" points="1440.37,-1425.86 1448.75,-1432.35 1446.24,-1422.06 1440.37,-1425.86"/>
</g>
<!-- Node33&#45;&gt;Node24 -->
<g id="edge105" class="edge">
<title>Node33&#45;&gt;Node24</title>
<path fill="none" stroke="#63b8ff" d="M561.09,-622.18C567.07,-702.62 598.11,-1075.24 666,-1164.83 725.66,-1243.57 772.95,-1227.99 865,-1263.83 929.23,-1288.84 969.58,-1254.13 1014,-1306.83 1107.37,-1417.63 950.43,-1525.58 1050,-1630.83 1062.33,-1643.86 1160.16,-1657.3 1229.84,-1665.36"/>
<polygon fill="#63b8ff" stroke="#63b8ff" points="1229.36,-1668.82 1239.69,-1666.48 1230.15,-1661.87 1229.36,-1668.82"/>
</g>
<!-- Node34 -->
<g id="node34" class="node">
<title>Node34</title>
<g id="a_node34"><a xlink:href="a01929.html#afb36cb588b795efa513fc95e949493b7" target="_top" xlink:title=" ">
<polygon fill="white" stroke="#666666" points="812,-530.83 683,-530.83 683,-500.83 812,-500.83 812,-530.83"/>
<text text-anchor="start" x="691" y="-518.83" font-family="Helvetica,sans-Serif" font-size="10.00">nlohmann::detail::binary</text>
<text text-anchor="middle" x="747.5" y="-507.83" font-family="Helvetica,sans-Serif" font-size="10.00">_reader::get_ubjson_array</text>
</a>
</g>
</g>
<!-- Node33&#45;&gt;Node34 -->
<g id="edge107" class="edge">
<title>Node33&#45;&gt;Node34</title>
<path fill="none" stroke="#63b8ff" d="M572.41,-591.62C591.57,-574.18 629.93,-547.23 666,-530.83 667.99,-529.93 670.03,-529.05 672.09,-528.19"/>
<polygon fill="#63b8ff" stroke="#63b8ff" points="673.14,-531.54 681.21,-524.68 670.62,-525.01 673.14,-531.54"/>
</g>
<!-- Node37 -->
<g id="node37" class="node">
<title>Node37</title>
<g id="a_node37"><a xlink:href="a01929.html#a26c694413fb860057e1a839d5422b361" target="_top" xlink:title=" ">
<polygon fill="white" stroke="#666666" points="1002,-752.33 877,-752.33 877,-711.33 1002,-711.33 1002,-752.33"/>
<text text-anchor="start" x="885" y="-740.33" font-family="Helvetica,sans-Serif" font-size="10.00">nlohmann::detail::binary</text>
<text text-anchor="start" x="885" y="-729.33" font-family="Helvetica,sans-Serif" font-size="10.00">_reader::get_ubjson_high</text>
<text text-anchor="middle" x="939.5" y="-718.33" font-family="Helvetica,sans-Serif" font-size="10.00">_precision_number</text>
</a>
</g>
</g>
<!-- Node33&#45;&gt;Node37 -->
<g id="edge124" class="edge">
<title>Node33&#45;&gt;Node37</title>
<path fill="none" stroke="#63b8ff" d="M572.89,-622.33C591.2,-643.16 626.91,-679.57 666,-696.83 729.37,-724.82 808.55,-732.32 865.2,-733.56"/>
<polygon fill="#63b8ff" stroke="#63b8ff" points="865.01,-737.06 875.06,-733.71 865.12,-730.06 865.01,-737.06"/>
</g>
<!-- Node38 -->
<g id="node38" class="node">
<title>Node38</title>
<g id="a_node38"><a xlink:href="a01929.html#adcf64ad3207f4bf37a5a31c920a385c3" target="_top" xlink:title=" ">
<polygon fill="white" stroke="#666666" points="814.5,-578.83 680.5,-578.83 680.5,-548.83 814.5,-548.83 814.5,-578.83"/>
<text text-anchor="start" x="688.5" y="-566.83" font-family="Helvetica,sans-Serif" font-size="10.00">nlohmann::detail::binary</text>
<text text-anchor="middle" x="747.5" y="-555.83" font-family="Helvetica,sans-Serif" font-size="10.00">_reader::get_ubjson_object</text>
</a>
</g>
</g>
<!-- Node33&#45;&gt;Node38 -->
<g id="edge131" class="edge">
<title>Node33&#45;&gt;Node38</title>
<path fill="none" stroke="#63b8ff" d="M601.85,-591.44C621.7,-586 646.06,-580.07 669.09,-575.02"/>
<polygon fill="#63b8ff" stroke="#63b8ff" points="669.74,-578.46 678.78,-572.93 668.27,-571.62 669.74,-578.46"/>
</g>
<!-- Node39 -->
<g id="node39" class="node">
<title>Node39</title>
<g id="a_node39"><a xlink:href="a01929.html#a4ae90db51c102e912b7eac83c78733a6" target="_top" xlink:title="reads a UBJSON string">
<polygon fill="white" stroke="#666666" points="1191.5,-763.83 1060.5,-763.83 1060.5,-733.83 1191.5,-733.83 1191.5,-763.83"/>
<text text-anchor="start" x="1068.5" y="-751.83" font-family="Helvetica,sans-Serif" font-size="10.00">nlohmann::detail::binary</text>
<text text-anchor="middle" x="1126" y="-740.83" font-family="Helvetica,sans-Serif" font-size="10.00">_reader::get_ubjson_string</text>
</a>
</g>
</g>
<!-- Node33&#45;&gt;Node39 -->
<g id="edge144" class="edge">
<title>Node33&#45;&gt;Node39</title>
<path fill="none" stroke="#63b8ff" d="M623.73,-616.49C712.44,-630.8 877.61,-660.55 1014,-702.83 1036.97,-709.96 1061.76,-719.99 1082.08,-728.87"/>
<polygon fill="#63b8ff" stroke="#63b8ff" points="1080.61,-732.05 1091.17,-732.91 1083.45,-725.66 1080.61,-732.05"/>
</g>
<!-- Node34&#45;&gt;Node9 -->
<g id="edge108" class="edge">
<title>Node34&#45;&gt;Node9</title>
<path fill="none" stroke="#63b8ff" d="M749.04,-500.42C751.75,-449.88 767.97,-288.57 865,-221.83 921.78,-182.78 1118.53,-196.81 1227.12,-208.13"/>
<polygon fill="#63b8ff" stroke="#63b8ff" points="1226.48,-211.58 1236.8,-209.16 1227.22,-204.62 1226.48,-211.58"/>
</g>
<!-- Node34&#45;&gt;Node32 -->
<g id="edge123" class="edge">
<title>Node34&#45;&gt;Node32</title>
<path fill="none" stroke="#63b8ff" d="M682.56,-524.17C621.86,-532.09 530.23,-544.04 463.42,-552.76"/>
<polygon fill="#63b8ff" stroke="#63b8ff" points="463.05,-549.28 453.59,-554.04 463.96,-556.22 463.05,-549.28"/>
</g>
<!-- Node34&#45;&gt;Node33 -->
<g id="edge122" class="edge">
<title>Node34&#45;&gt;Node33</title>
<path fill="none" stroke="#63b8ff" d="M714.81,-531.27C699.68,-536.15 681.53,-541.77 666,-548.83 643.39,-559.12 619.87,-573.54 600.75,-585.58"/>
<polygon fill="#63b8ff" stroke="#63b8ff" points="599.05,-582.52 592.46,-590.82 602.79,-588.44 599.05,-582.52"/>
</g>
<!-- Node35 -->
<g id="node35" class="node">
<title>Node35</title>
<g id="a_node35"><a xlink:href="a01929.html#a7b6c2d4c95d56751e233e285a5f1fea7" target="_top" xlink:title="determine the type and size for a container">
<polygon fill="white" stroke="#666666" points="1014,-497.83 865,-497.83 865,-467.83 1014,-467.83 1014,-497.83"/>
<text text-anchor="start" x="873" y="-485.83" font-family="Helvetica,sans-Serif" font-size="10.00">nlohmann::detail::binary</text>
<text text-anchor="middle" x="939.5" y="-474.83" font-family="Helvetica,sans-Serif" font-size="10.00">_reader::get_ubjson_size_type</text>
</a>
</g>
</g>
<!-- Node34&#45;&gt;Node35 -->
<g id="edge109" class="edge">
<title>Node34&#45;&gt;Node35</title>
<path fill="none" stroke="#63b8ff" d="M812.3,-504.75C825.57,-502.45 839.75,-499.99 853.64,-497.57"/>
<polygon fill="#63b8ff" stroke="#63b8ff" points="853.95,-501.07 863.21,-495.91 852.75,-494.17 853.95,-501.07"/>
</g>
<!-- Node35&#45;&gt;Node4 -->
<g id="edge110" class="edge">
<title>Node35&#45;&gt;Node4</title>
<path fill="none" stroke="#63b8ff" d="M972.22,-467.5C993.63,-458.02 1022.83,-446.75 1050,-441.83 1101.61,-432.49 1483.82,-436.83 1521,-473.83 1575.17,-527.74 1543.7,-740.58 1557,-815.83 1573.72,-910.42 1604.65,-1020.35 1619.13,-1069.61"/>
<polygon fill="#63b8ff" stroke="#63b8ff" points="1615.74,-1070.47 1621.93,-1079.07 1622.45,-1068.48 1615.74,-1070.47"/>
</g>
<!-- Node35&#45;&gt;Node7 -->
<g id="edge111" class="edge">
<title>Node35&#45;&gt;Node7</title>
<path fill="none" stroke="#63b8ff" d="M951.32,-467.55C977.52,-430.66 1042.75,-339.48 1050,-335.83 1110.37,-305.52 1136.58,-318.98 1202,-335.83 1358.81,-376.22 1414.93,-389.49 1521,-511.83 1587.65,-588.71 1614.35,-711.74 1623.23,-765.38"/>
<polygon fill="#63b8ff" stroke="#63b8ff" points="1619.74,-765.77 1624.75,-775.11 1626.66,-764.69 1619.74,-765.77"/>
</g>
<!-- Node35&#45;&gt;Node8 -->
<g id="edge112" class="edge">
<title>Node35&#45;&gt;Node8</title>
<path fill="none" stroke="#63b8ff" d="M986.31,-467.36C1039.65,-451.87 1129.66,-433.67 1202,-458.83 1289.26,-489.19 1319.47,-507.45 1365,-587.83 1435.35,-712.03 1455.26,-1175.23 1459.19,-1291.32"/>
<polygon fill="#63b8ff" stroke="#63b8ff" points="1455.69,-1291.2 1459.51,-1301.08 1462.68,-1290.97 1455.69,-1291.2"/>
</g>
<!-- Node35&#45;&gt;Node9 -->
<g id="edge113" class="edge">
<title>Node35&#45;&gt;Node9</title>
<path fill="none" stroke="#63b8ff" d="M945.36,-467.35C957.25,-431.93 991.25,-344.49 1050,-297.83 1105.48,-253.78 1134.63,-271.75 1202,-249.83 1215.67,-245.39 1230.37,-240.51 1244.14,-235.9"/>
<polygon fill="#63b8ff" stroke="#63b8ff" points="1245.14,-239.26 1253.51,-232.76 1242.92,-232.62 1245.14,-239.26"/>
</g>
<!-- Node35&#45;&gt;Node10 -->
<g id="edge114" class="edge">
<title>Node35&#45;&gt;Node10</title>
<path fill="none" stroke="#63b8ff" d="M946.91,-498.26C961.36,-533.7 996.57,-624 1014,-702.83 1029.35,-772.28 1003.14,-967.33 1050,-1020.83 1095.88,-1073.22 1143.01,-1021.84 1202,-1058.83 1239.49,-1082.34 1269.74,-1124.9 1286.4,-1151.97"/>
<polygon fill="#63b8ff" stroke="#63b8ff" points="1283.19,-1153.43 1291.33,-1160.22 1289.2,-1149.84 1283.19,-1153.43"/>
</g>
<!-- Node35&#45;&gt;Node14 -->
<g id="edge121" class="edge">
<title>Node35&#45;&gt;Node14</title>
<path fill="none" stroke="#63b8ff" d="M973.04,-498.24C1055.99,-539.48 1275.09,-661.33 1365,-836.83 1416.3,-936.97 1369.09,-1233.95 1401,-1341.83 1409.94,-1372.08 1428.4,-1403.28 1442.3,-1424.13"/>
<polygon fill="#63b8ff" stroke="#63b8ff" points="1439.31,-1425.96 1447.84,-1432.23 1445.09,-1422 1439.31,-1425.96"/>
</g>
<!-- Node36 -->
<g id="node36" class="node">
<title>Node36</title>
<g id="a_node36"><a xlink:href="a01929.html#aba7ba9ec9a52ad2bee8baff70176aa20" target="_top" xlink:title=" ">
<polygon fill="white" stroke="#666666" points="1202,-497.83 1050,-497.83 1050,-467.83 1202,-467.83 1202,-497.83"/>
<text text-anchor="start" x="1058" y="-485.83" font-family="Helvetica,sans-Serif" font-size="10.00">nlohmann::detail::binary</text>
<text text-anchor="middle" x="1126" y="-474.83" font-family="Helvetica,sans-Serif" font-size="10.00">_reader::get_ubjson_size_value</text>
</a>
</g>
</g>
<!-- Node35&#45;&gt;Node36 -->
<g id="edge115" class="edge">
<title>Node35&#45;&gt;Node36</title>
<path fill="none" stroke="#63b8ff" d="M1014.48,-482.83C1022.38,-482.83 1030.48,-482.83 1038.51,-482.83"/>
<polygon fill="#63b8ff" stroke="#63b8ff" points="1038.29,-486.33 1048.29,-482.83 1038.29,-479.33 1038.29,-486.33"/>
</g>
<!-- Node36&#45;&gt;Node4 -->
<g id="edge116" class="edge">
<title>Node36&#45;&gt;Node4</title>
<path fill="none" stroke="#63b8ff" d="M1202.16,-477.52C1303.64,-472.1 1476.89,-469.64 1521,-511.83 1570.16,-558.86 1544.73,-748.92 1557,-815.83 1574.33,-910.31 1604.96,-1020.3 1619.25,-1069.59"/>
<polygon fill="#63b8ff" stroke="#63b8ff" points="1615.85,-1070.43 1622.01,-1079.05 1622.57,-1068.47 1615.85,-1070.43"/>
</g>
<!-- Node36&#45;&gt;Node7 -->
<g id="edge117" class="edge">
<title>Node36&#45;&gt;Node7</title>
<path fill="none" stroke="#63b8ff" d="M1170.31,-498.29C1180.81,-502.39 1191.92,-507.03 1202,-511.83 1349.54,-582.18 1389.02,-598.41 1521,-694.83 1551.98,-717.47 1584,-747.92 1604.62,-768.62"/>
<polygon fill="#63b8ff" stroke="#63b8ff" points="1601.89,-770.84 1611.4,-775.5 1606.88,-765.92 1601.89,-770.84"/>
</g>
<!-- Node36&#45;&gt;Node9 -->
<g id="edge118" class="edge">
<title>Node36&#45;&gt;Node9</title>
<path fill="none" stroke="#63b8ff" d="M1137.08,-467.38C1165.89,-423.22 1248.78,-296.12 1284.17,-241.87"/>
<polygon fill="#63b8ff" stroke="#63b8ff" points="1287.04,-243.88 1289.57,-233.6 1281.17,-240.06 1287.04,-243.88"/>
</g>
<!-- Node36&#45;&gt;Node10 -->
<g id="edge120" class="edge">
<title>Node36&#45;&gt;Node10</title>
<path fill="none" stroke="#63b8ff" d="M1132.29,-498.27C1145.26,-536.41 1179.2,-638.28 1202,-724.83 1244.17,-884.92 1282.29,-1080.25 1295.54,-1150.28"/>
<polygon fill="#63b8ff" stroke="#63b8ff" points="1292.09,-1150.84 1297.38,-1160.02 1298.96,-1149.54 1292.09,-1150.84"/>
</g>
<!-- Node36&#45;&gt;Node24 -->
<g id="edge119" class="edge">
<title>Node36&#45;&gt;Node24</title>
<path fill="none" stroke="#63b8ff" d="M1133.22,-498.07C1148.27,-535.75 1186.54,-636.67 1202,-724.83 1261.32,-1063.16 1171.81,-1159.79 1238,-1496.83 1248.89,-1552.29 1273.92,-1613.82 1288.79,-1647.44"/>
<polygon fill="#63b8ff" stroke="#63b8ff" points="1285.5,-1648.66 1292.79,-1656.35 1291.89,-1645.79 1285.5,-1648.66"/>
</g>
<!-- Node37&#45;&gt;Node2 -->
<g id="edge129" class="edge">
<title>Node37&#45;&gt;Node2</title>
<path fill="none" stroke="#63b8ff" d="M947.33,-752.57C960.74,-793.52 991.18,-887.77 1014,-967.83 1031.49,-1029.21 1032.9,-1045.35 1050,-1106.83 1073.02,-1189.59 1102.73,-1286.85 1116.85,-1332.57"/>
<polygon fill="#63b8ff" stroke="#63b8ff" points="1113.5,-1333.58 1119.79,-1342.1 1120.18,-1331.52 1113.5,-1333.58"/>
</g>
<!-- Node37&#45;&gt;Node4 -->
<g id="edge125" class="edge">
<title>Node37&#45;&gt;Node4</title>
<path fill="none" stroke="#63b8ff" d="M945.79,-710.87C957.11,-670.96 987.89,-584.95 1050,-549.83 1141.11,-498.32 1442.18,-480.97 1521,-549.83 1565.92,-589.08 1545.75,-757.25 1557,-815.83 1575.12,-910.16 1605.35,-1020.22 1619.4,-1069.56"/>
<polygon fill="#63b8ff" stroke="#63b8ff" points="1615.99,-1070.38 1622.11,-1079.03 1622.72,-1068.45 1615.99,-1070.38"/>
</g>
<!-- Node37&#45;&gt;Node7 -->
<g id="edge126" class="edge">
<title>Node37&#45;&gt;Node7</title>
<path fill="none" stroke="#63b8ff" d="M945.64,-711.05C960.57,-652.55 1005.69,-488.8 1050,-458.83 1105.96,-420.99 1135.76,-445.57 1202,-458.83 1355.62,-489.59 1407.97,-500.35 1521,-608.83 1569.1,-655 1602.29,-727.74 1617.53,-766.13"/>
<polygon fill="#63b8ff" stroke="#63b8ff" points="1614.1,-766.96 1620.97,-775.03 1620.63,-764.44 1614.1,-766.96"/>
</g>
<!-- Node37&#45;&gt;Node8 -->
<g id="edge127" class="edge">
<title>Node37&#45;&gt;Node8</title>
<path fill="none" stroke="#63b8ff" d="M992.47,-752.72C1100.1,-796.4 1339.5,-895.89 1365,-926.83 1411.92,-983.76 1446.08,-1212.89 1456.6,-1291.33"/>
<polygon fill="#63b8ff" stroke="#63b8ff" points="1453.11,-1291.62 1457.89,-1301.08 1460.05,-1290.71 1453.11,-1291.62"/>
</g>
<!-- Node37&#45;&gt;Node14 -->
<g id="edge130" class="edge">
<title>Node37&#45;&gt;Node14</title>
<path fill="none" stroke="#63b8ff" d="M961.74,-752.8C982.84,-772.84 1016.76,-803 1050,-823.83 1112.71,-863.13 1140.32,-850.93 1202,-891.83 1284.55,-946.58 1320.12,-955.53 1365,-1043.83 1425.45,-1162.76 1360.04,-1214.87 1401,-1341.83 1410.68,-1371.85 1429.02,-1403.09 1442.69,-1424.01"/>
<polygon fill="#63b8ff" stroke="#63b8ff" points="1439.66,-1425.77 1448.13,-1432.14 1445.48,-1421.88 1439.66,-1425.77"/>
</g>
<!-- Node37&#45;&gt;Node36 -->
<g id="edge128" class="edge">
<title>Node37&#45;&gt;Node36</title>
<path fill="none" stroke="#63b8ff" d="M945.45,-710.86C956.68,-667.7 988.03,-568.3 1050,-511.83 1053.27,-508.85 1056.89,-506.16 1060.71,-503.74"/>
<polygon fill="#63b8ff" stroke="#63b8ff" points="1062.19,-506.92 1069.22,-498.99 1058.79,-500.81 1062.19,-506.92"/>
</g>
<!-- Node38&#45;&gt;Node9 -->
<g id="edge132" class="edge">
<title>Node38&#45;&gt;Node9</title>
<path fill="none" stroke="#63b8ff" d="M814.76,-549.43C819.89,-546.76 824.73,-543.59 829,-539.83 858.59,-513.82 843.69,-491.97 865,-458.83 932.09,-354.49 940.46,-308.06 1050,-249.83 1079.76,-234.01 1164.07,-225.29 1226.71,-220.85"/>
<polygon fill="#63b8ff" stroke="#63b8ff" points="1226.88,-224.35 1236.62,-220.18 1226.41,-217.37 1226.88,-224.35"/>
</g>
<!-- Node38&#45;&gt;Node32 -->
<g id="edge143" class="edge">
<title>Node38&#45;&gt;Node32</title>
<path fill="none" stroke="#63b8ff" d="M680.15,-563.83C619.41,-563.83 529.22,-563.83 463.28,-563.83"/>
<polygon fill="#63b8ff" stroke="#63b8ff" points="463.6,-560.33 453.6,-563.83 463.6,-567.33 463.6,-560.33"/>
</g>
<!-- Node38&#45;&gt;Node33 -->
<g id="edge142" class="edge">
<title>Node38&#45;&gt;Node33</title>
<path fill="none" stroke="#63b8ff" d="M704.33,-579.31C683.85,-584.92 658.61,-591.04 634.99,-596.18"/>
<polygon fill="#63b8ff" stroke="#63b8ff" points="634.45,-592.71 625.4,-598.22 635.91,-599.56 634.45,-592.71"/>
</g>
<!-- Node38&#45;&gt;Node35 -->
<g id="edge133" class="edge">
<title>Node38&#45;&gt;Node35</title>
<path fill="none" stroke="#63b8ff" d="M805.27,-548.39C813.32,-545.77 821.43,-542.9 829,-539.83 854.44,-529.53 881.82,-515.28 902.84,-503.6"/>
<polygon fill="#63b8ff" stroke="#63b8ff" points="904.3,-506.8 911.3,-498.84 900.86,-500.69 904.3,-506.8"/>
</g>
<!-- Node38&#45;&gt;Node39 -->
<g id="edge134" class="edge">
<title>Node38&#45;&gt;Node39</title>
<path fill="none" stroke="#63b8ff" d="M798.09,-579.33C852.69,-597.31 942.25,-629.58 1014,-668.83 1044.32,-685.42 1076.02,-708.99 1097.75,-726.25"/>
<polygon fill="#63b8ff" stroke="#63b8ff" points="1095.54,-728.96 1105.52,-732.5 1099.92,-723.51 1095.54,-728.96"/>
</g>
<!-- Node39&#45;&gt;Node4 -->
<g id="edge135" class="edge">
<title>Node39&#45;&gt;Node4</title>
<path fill="none" stroke="#63b8ff" d="M1191.75,-741.66C1241.95,-739.08 1311.7,-742.25 1365,-770.83 1381.96,-779.93 1551.23,-997.78 1608.31,-1071.62"/>
<polygon fill="#63b8ff" stroke="#63b8ff" points="1605.49,-1073.69 1614.38,-1079.46 1611.03,-1069.41 1605.49,-1073.69"/>
</g>
<!-- Node39&#45;&gt;Node7 -->
<g id="edge136" class="edge">
<title>Node39&#45;&gt;Node7</title>
<path fill="none" stroke="#63b8ff" d="M1154.74,-733.39C1176.6,-722.15 1208.26,-707.87 1238,-701.83 1362.37,-676.59 1401.68,-696.62 1521,-739.83 1544.63,-748.39 1569.95,-760.68 1589.91,-771.17"/>
<polygon fill="#63b8ff" stroke="#63b8ff" points="1588.02,-774.13 1598.49,-775.74 1591.31,-767.95 1588.02,-774.13"/>
</g>
<!-- Node39&#45;&gt;Node8 -->
<g id="edge137" class="edge">
<title>Node39&#45;&gt;Node8</title>
<path fill="none" stroke="#63b8ff" d="M1191.86,-760.06C1246.54,-773.04 1322.47,-799.95 1365,-853.83 1419.81,-923.26 1449.59,-1203.73 1457.7,-1291.46"/>
<polygon fill="#63b8ff" stroke="#63b8ff" points="1454.2,-1291.59 1458.59,-1301.24 1461.17,-1290.96 1454.2,-1291.59"/>
</g>
<!-- Node39&#45;&gt;Node10 -->
<g id="edge140" class="edge">
<title>Node39&#45;&gt;Node10</title>
<path fill="none" stroke="#63b8ff" d="M1133.78,-764.31C1147.13,-794.87 1177.64,-865.18 1202,-924.83 1235.49,-1006.84 1273.09,-1104.78 1290.57,-1150.67"/>
<polygon fill="#63b8ff" stroke="#63b8ff" points="1287.3,-1151.91 1294.13,-1160.01 1293.84,-1149.42 1287.3,-1151.91"/>
</g>
<!-- Node39&#45;&gt;Node14 -->
<g id="edge141" class="edge">
<title>Node39&#45;&gt;Node14</title>
<path fill="none" stroke="#63b8ff" d="M1148.59,-764.19C1197.12,-800.07 1314.52,-894.85 1365,-1005.83 1427.18,-1142.54 1355.85,-1198.59 1401,-1341.83 1410.48,-1371.91 1428.85,-1403.14 1442.58,-1424.04"/>
<polygon fill="#63b8ff" stroke="#63b8ff" points="1439.56,-1425.82 1448.05,-1432.17 1445.37,-1421.92 1439.56,-1425.82"/>
</g>
<!-- Node39&#45;&gt;Node19 -->
<g id="edge139" class="edge">
<title>Node39&#45;&gt;Node19</title>
<path fill="none" stroke="#63b8ff" d="M1135.63,-764.25C1151.9,-794.15 1186.81,-862.56 1202,-924.83 1227.13,-1027.89 1174.66,-1315.74 1238,-1400.83 1238.15,-1401.04 1238.31,-1401.24 1238.46,-1401.44"/>
<polygon fill="#63b8ff" stroke="#63b8ff" points="1235.92,-1403.85 1245.53,-1408.3 1240.79,-1398.82 1235.92,-1403.85"/>
</g>
<!-- Node39&#45;&gt;Node24 -->
<g id="edge138" class="edge">
<title>Node39&#45;&gt;Node24</title>
<path fill="none" stroke="#63b8ff" d="M1135.7,-764.23C1152.09,-794.1 1187.21,-862.46 1202,-924.83 1260.78,-1172.69 1186.89,-1247.29 1238,-1496.83 1249.34,-1552.2 1274.21,-1613.76 1288.93,-1647.41"/>
<polygon fill="#63b8ff" stroke="#63b8ff" points="1285.63,-1648.6 1292.89,-1656.33 1292.03,-1645.77 1285.63,-1648.6"/>
</g>
</g>
</svg>
