<?xml version="1.0" encoding="UTF-8" standalone="no"?>
<!DOCTYPE svg PUBLIC "-//W3C//DTD SVG 1.1//EN"
 "http://www.w3.org/Graphics/SVG/1.1/DTD/svg11.dtd">
<!-- Generated by graphviz version 4.0.0 (20220529.0937)
 -->
<!-- Title: nlohmann::basic_json::object Pages: 1 -->
<svg width="266pt" height="173pt"
 viewBox="0.00 0.00 266.00 173.00" xmlns="http://www.w3.org/2000/svg" xmlns:xlink="http://www.w3.org/1999/xlink">
<g id="graph0" class="graph" transform="scale(1 1) rotate(0) translate(4 169)">
<title>nlohmann::basic_json::object</title>
<polygon fill="white" stroke="transparent" points="-4,4 -4,-169 262,-169 262,4 -4,4"/>
<!-- Node1 -->
<g id="node1" class="node">
<title>Node1</title>
<g id="a_node1"><a xlink:title="explicitly create an object from an initializer list">
<polygon fill="#bfbfbf" stroke="black" points="147,-67.5 147,-97.5 258,-97.5 258,-67.5 147,-67.5"/>
<text text-anchor="start" x="155" y="-85.5" font-family="Helvetica,sans-Serif" font-size="10.00">nlohmann::basic_json</text>
<text text-anchor="middle" x="202.5" y="-74.5" font-family="Helvetica,sans-Serif" font-size="10.00">::object</text>
</a>
</g>
</g>
<!-- Node2 -->
<g id="node2" class="node">
<title>Node2</title>
<g id="a_node2"><a xlink:href="a01593.html#a9a240441a9ebe4b15fe026da9726387c" target="_top" xlink:title="helper for exception&#45;safe object creation">
<polygon fill="white" stroke="black" points="0,-134.5 0,-164.5 111,-164.5 111,-134.5 0,-134.5"/>
<text text-anchor="start" x="8" y="-152.5" font-family="Helvetica,sans-Serif" font-size="10.00">nlohmann::basic_json</text>
<text text-anchor="middle" x="55.5" y="-141.5" font-family="Helvetica,sans-Serif" font-size="10.00">::create</text>
</a>
</g>
</g>
<!-- Node1&#45;&gt;Node2 -->
<g id="edge1" class="edge">
<title>Node1&#45;&gt;Node2</title>
<path fill="none" stroke="midnightblue" d="M160.85,-102.12C145.3,-109.54 127.37,-118.01 111,-125.5 104.61,-128.43 97.77,-131.49 91.16,-134.41"/>
<polygon fill="midnightblue" stroke="midnightblue" points="162.68,-105.12 170.19,-97.65 159.66,-98.81 162.68,-105.12"/>
</g>
<!-- Node3 -->
<g id="node3" class="node">
<title>Node3</title>
<g id="a_node3"><a xlink:href="a01593.html#a1c1f21327df91a4dd6c5f5a107240385" target="_top" xlink:title="creates a diff as a JSON patch">
<polygon fill="white" stroke="black" points="0,-67.5 0,-97.5 111,-97.5 111,-67.5 0,-67.5"/>
<text text-anchor="start" x="8" y="-85.5" font-family="Helvetica,sans-Serif" font-size="10.00">nlohmann::basic_json</text>
<text text-anchor="middle" x="55.5" y="-74.5" font-family="Helvetica,sans-Serif" font-size="10.00">::diff</text>
</a>
</g>
</g>
<!-- Node1&#45;&gt;Node3 -->
<g id="edge2" class="edge">
<title>Node1&#45;&gt;Node3</title>
<path fill="none" stroke="midnightblue" d="M136.54,-82.5C128.14,-82.5 119.61,-82.5 111.4,-82.5"/>
<polygon fill="midnightblue" stroke="midnightblue" points="136.68,-86 146.68,-82.5 136.68,-79 136.68,-86"/>
</g>
<!-- Node4 -->
<g id="node4" class="node">
<title>Node4</title>
<g id="a_node4"><a xlink:href="a01593.html#a844a77cb154752d12118f10af26d54cb" target="_top" xlink:title="applies a JSON Merge Patch">
<polygon fill="white" stroke="black" points="0,-0.5 0,-30.5 111,-30.5 111,-0.5 0,-0.5"/>
<text text-anchor="start" x="8" y="-18.5" font-family="Helvetica,sans-Serif" font-size="10.00">nlohmann::basic_json</text>
<text text-anchor="middle" x="55.5" y="-7.5" font-family="Helvetica,sans-Serif" font-size="10.00">::merge_patch</text>
</a>
</g>
</g>
<!-- Node1&#45;&gt;Node4 -->
<g id="edge4" class="edge">
<title>Node1&#45;&gt;Node4</title>
<path fill="none" stroke="midnightblue" d="M159.68,-63.17C137.25,-52.81 110.03,-40.24 89.18,-30.6"/>
<polygon fill="midnightblue" stroke="midnightblue" points="158.41,-66.45 168.96,-67.46 161.35,-60.09 158.41,-66.45"/>
</g>
<!-- Node3&#45;&gt;Node3 -->
<g id="edge3" class="edge">
<title>Node3&#45;&gt;Node3</title>
<path fill="none" stroke="midnightblue" d="M81.44,-107.96C78.22,-112.68 69.58,-116 55.5,-116 32.4,-116 23.92,-107.06 30.06,-97.66"/>
<polygon fill="midnightblue" stroke="midnightblue" points="84.92,-107.48 80.94,-97.66 77.93,-107.82 84.92,-107.48"/>
</g>
<!-- Node4&#45;&gt;Node4 -->
<g id="edge5" class="edge">
<title>Node4&#45;&gt;Node4</title>
<path fill="none" stroke="midnightblue" d="M81.44,-40.96C78.22,-45.68 69.58,-49 55.5,-49 32.4,-49 23.92,-40.06 30.06,-30.66"/>
<polygon fill="midnightblue" stroke="midnightblue" points="84.92,-40.48 80.94,-30.66 77.93,-40.82 84.92,-40.48"/>
</g>
</g>
</svg>
