<?xml version="1.0" encoding="UTF-8" standalone="no"?>
<!DOCTYPE svg PUBLIC "-//W3C//DTD SVG 1.1//EN"
 "http://www.w3.org/Graphics/SVG/1.1/DTD/svg11.dtd">
<!-- Generated by graphviz version 4.0.0 (20220529.0937)
 -->
<!-- Title: nlohmann::basic_json::value Pages: 1 -->
<svg width="889pt" height="300pt"
 viewBox="0.00 0.00 889.00 299.51" xmlns="http://www.w3.org/2000/svg" xmlns:xlink="http://www.w3.org/1999/xlink">
<g id="graph0" class="graph" transform="scale(1 1) rotate(0) translate(4 295.51)">
<title>nlohmann::basic_json::value</title>
<polygon fill="white" stroke="transparent" points="-4,4 -4,-295.51 885,-295.51 885,4 -4,4"/>
<!-- Node1 -->
<g id="node1" class="node">
<title>Node1</title>
<g id="a_node1"><a xlink:title="access specified object element via JSON Pointer with default value">
<polygon fill="#bfbfbf" stroke="black" points="0,-73.5 0,-103.5 111,-103.5 111,-73.5 0,-73.5"/>
<text text-anchor="start" x="8" y="-91.5" font-family="Helvetica,sans-Serif" font-size="10.00">nlohmann::basic_json</text>
<text text-anchor="middle" x="55.5" y="-80.5" font-family="Helvetica,sans-Serif" font-size="10.00">::value</text>
</a>
</g>
</g>
<!-- Node2 -->
<g id="node2" class="node">
<title>Node2</title>
<g id="a_node2"><a xlink:href="a01505.html#aecc083aea4b698c33d042670ba50c10f" target="_top" xlink:title=" ">
<polygon fill="white" stroke="black" points="149,-98.5 149,-128.5 262,-128.5 262,-98.5 149,-98.5"/>
<text text-anchor="start" x="157" y="-116.5" font-family="Helvetica,sans-Serif" font-size="10.00">nlohmann::detail::type</text>
<text text-anchor="middle" x="205.5" y="-105.5" font-family="Helvetica,sans-Serif" font-size="10.00">_error::create</text>
</a>
</g>
</g>
<!-- Node1&#45;&gt;Node2 -->
<g id="edge1" class="edge">
<title>Node1&#45;&gt;Node2</title>
<path fill="none" stroke="midnightblue" d="M111.19,-97.74C120.14,-99.25 129.49,-100.83 138.68,-102.38"/>
<polygon fill="midnightblue" stroke="midnightblue" points="138.11,-105.83 148.55,-104.05 139.27,-98.93 138.11,-105.83"/>
</g>
<!-- Node6 -->
<g id="node6" class="node">
<title>Node6</title>
<g id="a_node6"><a xlink:href="a01597.html#ac97f74aff788336b07bc5ecf85598b14" target="_top" xlink:title=" ">
<polygon fill="white" stroke="black" points="147,-166.5 147,-196.5 264,-196.5 264,-166.5 147,-166.5"/>
<text text-anchor="start" x="155" y="-184.5" font-family="Helvetica,sans-Serif" font-size="10.00">nlohmann::json_pointer</text>
<text text-anchor="middle" x="205.5" y="-173.5" font-family="Helvetica,sans-Serif" font-size="10.00">::get_checked</text>
</a>
</g>
</g>
<!-- Node1&#45;&gt;Node6 -->
<g id="edge5" class="edge">
<title>Node1&#45;&gt;Node6</title>
<path fill="none" stroke="midnightblue" d="M80.61,-103.65C105.44,-119.25 144.31,-143.68 171.88,-161"/>
<polygon fill="midnightblue" stroke="midnightblue" points="170.07,-164 180.4,-166.36 173.8,-158.07 170.07,-164"/>
</g>
<!-- Node13 -->
<g id="node13" class="node">
<title>Node13</title>
<g id="a_node13"><a xlink:href="a01593.html#a57e8411a770a6263d6d8f2116c37f3aa" target="_top" xlink:title="return whether value is an object">
<polygon fill="white" stroke="black" points="150,-49.5 150,-79.5 261,-79.5 261,-49.5 150,-49.5"/>
<text text-anchor="start" x="158" y="-67.5" font-family="Helvetica,sans-Serif" font-size="10.00">nlohmann::basic_json</text>
<text text-anchor="middle" x="205.5" y="-56.5" font-family="Helvetica,sans-Serif" font-size="10.00">::is_object</text>
</a>
</g>
</g>
<!-- Node1&#45;&gt;Node13 -->
<g id="edge17" class="edge">
<title>Node1&#45;&gt;Node13</title>
<path fill="none" stroke="midnightblue" d="M111.19,-79.63C120.38,-78.14 130,-76.58 139.42,-75.05"/>
<polygon fill="midnightblue" stroke="midnightblue" points="140.23,-78.47 149.54,-73.41 139.11,-71.56 140.23,-78.47"/>
</g>
<!-- Node14 -->
<g id="node14" class="node">
<title>Node14</title>
<g id="a_node14"><a xlink:href="a01593.html#ab8811fc4eab6091b32b34b3ac3e90474" target="_top" xlink:title="return the type as string">
<polygon fill="white" stroke="black" points="150,-0.5 150,-30.5 261,-30.5 261,-0.5 150,-0.5"/>
<text text-anchor="start" x="158" y="-18.5" font-family="Helvetica,sans-Serif" font-size="10.00">nlohmann::basic_json</text>
<text text-anchor="middle" x="205.5" y="-7.5" font-family="Helvetica,sans-Serif" font-size="10.00">::type_name</text>
</a>
</g>
</g>
<!-- Node1&#45;&gt;Node14 -->
<g id="edge18" class="edge">
<title>Node1&#45;&gt;Node14</title>
<path fill="none" stroke="midnightblue" d="M82.67,-73.42C100.55,-63.35 124.91,-50.05 147,-39.5 150.37,-37.89 153.88,-36.28 157.42,-34.69"/>
<polygon fill="midnightblue" stroke="midnightblue" points="159.07,-37.79 166.83,-30.58 156.27,-31.38 159.07,-37.79"/>
</g>
<!-- Node3 -->
<g id="node3" class="node">
<title>Node3</title>
<g id="a_node3"><a xlink:href="a01505.html#aa01edaa0bf18b853368f0b900e485cd7" target="_top" xlink:title=" ">
<polygon fill="white" stroke="black" points="302,-54.5 302,-84.5 415,-84.5 415,-54.5 302,-54.5"/>
<text text-anchor="start" x="310" y="-72.5" font-family="Helvetica,sans-Serif" font-size="10.00">nlohmann::detail::type</text>
<text text-anchor="middle" x="358.5" y="-61.5" font-family="Helvetica,sans-Serif" font-size="10.00">_error::type_error</text>
</a>
</g>
</g>
<!-- Node2&#45;&gt;Node3 -->
<g id="edge2" class="edge">
<title>Node2&#45;&gt;Node3</title>
<path fill="none" stroke="midnightblue" d="M258.04,-98.48C270.25,-94.93 283.38,-91.1 295.97,-87.43"/>
<polygon fill="midnightblue" stroke="midnightblue" points="297.31,-90.68 305.93,-84.53 295.35,-83.96 297.31,-90.68"/>
</g>
<!-- Node4 -->
<g id="node4" class="node">
<title>Node4</title>
<g id="a_node4"><a xlink:href="a01493.html#abf41a7e9178356314082284e6cfea278" target="_top" xlink:title=" ">
<polygon fill="white" stroke="black" points="607,-142.5 607,-172.5 743,-172.5 743,-142.5 607,-142.5"/>
<text text-anchor="start" x="615" y="-160.5" font-family="Helvetica,sans-Serif" font-size="10.00">nlohmann::detail::exception</text>
<text text-anchor="middle" x="675" y="-149.5" font-family="Helvetica,sans-Serif" font-size="10.00">::name</text>
</a>
</g>
</g>
<!-- Node2&#45;&gt;Node4 -->
<g id="edge3" class="edge">
<title>Node2&#45;&gt;Node4</title>
<path fill="none" stroke="midnightblue" d="M262.08,-113.2C333.83,-113.54 462.37,-116.63 571,-132.5 583.91,-134.39 597.58,-137.15 610.58,-140.15"/>
<polygon fill="midnightblue" stroke="midnightblue" points="609.84,-143.57 620.38,-142.49 611.46,-136.76 609.84,-143.57"/>
</g>
<!-- Node5 -->
<g id="node5" class="node">
<title>Node5</title>
<g id="a_node5"><a xlink:href="a00410.html#a6ce645a0b8717757e096a5b5773b7a16" target="_top" xlink:title="user&#45;defined to_string function for JSON values">
<polygon fill="white" stroke="black" points="779,-197 779,-216 881,-216 881,-197 779,-197"/>
<text text-anchor="middle" x="830" y="-204" font-family="Helvetica,sans-Serif" font-size="10.00">nlohmann::to_string</text>
</a>
</g>
</g>
<!-- Node4&#45;&gt;Node5 -->
<g id="edge4" class="edge">
<title>Node4&#45;&gt;Node5</title>
<path fill="none" stroke="midnightblue" d="M723.15,-172.6C744.43,-179.42 769.28,-187.37 789.55,-193.87"/>
<polygon fill="midnightblue" stroke="midnightblue" points="788.51,-197.21 799.1,-196.92 790.65,-190.54 788.51,-197.21"/>
</g>
<!-- Node6&#45;&gt;Node5 -->
<g id="edge16" class="edge">
<title>Node6&#45;&gt;Node5</title>
<path fill="none" stroke="midnightblue" d="M232.7,-196.51C251.01,-206.4 276.33,-218.88 300,-226.5 431.88,-268.94 468.99,-268.45 607,-280.5 667.22,-285.76 686.33,-301.53 743,-280.5 773.15,-269.31 799.83,-242.29 815.19,-224.19"/>
<polygon fill="midnightblue" stroke="midnightblue" points="818.17,-226.08 821.8,-216.12 812.75,-221.64 818.17,-226.08"/>
</g>
<!-- Node7 -->
<g id="node7" class="node">
<title>Node7</title>
<g id="a_node7"><a xlink:href="a01597.html#ae28e4b79b9d4fac9e6dca29f47f946fa" target="_top" xlink:title=" ">
<polygon fill="white" stroke="black" points="300,-186.5 300,-216.5 417,-216.5 417,-186.5 300,-186.5"/>
<text text-anchor="start" x="308" y="-204.5" font-family="Helvetica,sans-Serif" font-size="10.00">nlohmann::json_pointer</text>
<text text-anchor="middle" x="358.5" y="-193.5" font-family="Helvetica,sans-Serif" font-size="10.00">::array_index</text>
</a>
</g>
</g>
<!-- Node6&#45;&gt;Node7 -->
<g id="edge6" class="edge">
<title>Node6&#45;&gt;Node7</title>
<path fill="none" stroke="midnightblue" d="M264.02,-189.12C272.46,-190.24 281.23,-191.4 289.86,-192.54"/>
<polygon fill="midnightblue" stroke="midnightblue" points="289.52,-196.03 299.89,-193.87 290.44,-189.09 289.52,-196.03"/>
</g>
<!-- Node11 -->
<g id="node11" class="node">
<title>Node11</title>
<g id="a_node11"><a xlink:href="a01509.html#a3f6d82a6f967c4728a1ec735a7867073" target="_top" xlink:title=" ">
<polygon fill="white" stroke="black" points="458.5,-142.5 458.5,-172.5 565.5,-172.5 565.5,-142.5 458.5,-142.5"/>
<text text-anchor="start" x="466.5" y="-160.5" font-family="Helvetica,sans-Serif" font-size="10.00">nlohmann::detail::out</text>
<text text-anchor="middle" x="512" y="-149.5" font-family="Helvetica,sans-Serif" font-size="10.00">_of_range::create</text>
</a>
</g>
</g>
<!-- Node6&#45;&gt;Node11 -->
<g id="edge15" class="edge">
<title>Node6&#45;&gt;Node11</title>
<path fill="none" stroke="midnightblue" d="M264.13,-176.96C316.61,-172.82 393.94,-166.73 448.03,-162.46"/>
<polygon fill="midnightblue" stroke="midnightblue" points="448.49,-165.94 458.19,-161.66 447.94,-158.96 448.49,-165.94"/>
</g>
<!-- Node8 -->
<g id="node8" class="node">
<title>Node8</title>
<g id="a_node8"><a xlink:href="a01497.html#a137ea4d27de45d8a844fd13451d40f3d" target="_top" xlink:title="create a parse error exception">
<polygon fill="white" stroke="black" points="453,-191.5 453,-221.5 571,-221.5 571,-191.5 453,-191.5"/>
<text text-anchor="start" x="461" y="-209.5" font-family="Helvetica,sans-Serif" font-size="10.00">nlohmann::detail::parse</text>
<text text-anchor="middle" x="512" y="-198.5" font-family="Helvetica,sans-Serif" font-size="10.00">_error::create</text>
</a>
</g>
</g>
<!-- Node7&#45;&gt;Node8 -->
<g id="edge7" class="edge">
<title>Node7&#45;&gt;Node8</title>
<path fill="none" stroke="midnightblue" d="M417.21,-203.4C425.62,-203.68 434.35,-203.97 442.95,-204.25"/>
<polygon fill="midnightblue" stroke="midnightblue" points="442.84,-207.75 452.95,-204.58 443.07,-200.76 442.84,-207.75"/>
</g>
<!-- Node7&#45;&gt;Node11 -->
<g id="edge12" class="edge">
<title>Node7&#45;&gt;Node11</title>
<path fill="none" stroke="midnightblue" d="M411.21,-186.48C423.58,-182.89 436.89,-179.02 449.65,-175.32"/>
<polygon fill="midnightblue" stroke="midnightblue" points="450.64,-178.68 459.26,-172.53 448.68,-171.95 450.64,-178.68"/>
</g>
<!-- Node8&#45;&gt;Node4 -->
<g id="edge9" class="edge">
<title>Node8&#45;&gt;Node4</title>
<path fill="none" stroke="midnightblue" d="M562.62,-191.4C579.07,-186.39 597.55,-180.77 614.66,-175.56"/>
<polygon fill="midnightblue" stroke="midnightblue" points="616,-178.81 624.54,-172.55 613.96,-172.11 616,-178.81"/>
</g>
<!-- Node9 -->
<g id="node9" class="node">
<title>Node9</title>
<g id="a_node9"><a xlink:href="a01497.html#a0ea816ea3521d7109407948cb1b850f7" target="_top" xlink:title=" ">
<polygon fill="white" stroke="black" points="616,-240.5 616,-270.5 734,-270.5 734,-240.5 616,-240.5"/>
<text text-anchor="start" x="624" y="-258.5" font-family="Helvetica,sans-Serif" font-size="10.00">nlohmann::detail::parse</text>
<text text-anchor="middle" x="675" y="-247.5" font-family="Helvetica,sans-Serif" font-size="10.00">_error::parse_error</text>
</a>
</g>
</g>
<!-- Node8&#45;&gt;Node9 -->
<g id="edge8" class="edge">
<title>Node8&#45;&gt;Node9</title>
<path fill="none" stroke="midnightblue" d="M562.62,-221.6C579.07,-226.61 597.55,-232.23 614.66,-237.44"/>
<polygon fill="midnightblue" stroke="midnightblue" points="613.96,-240.89 624.54,-240.45 616,-234.19 613.96,-240.89"/>
</g>
<!-- Node10 -->
<g id="node10" class="node">
<title>Node10</title>
<g id="a_node10"><a xlink:href="a01497.html#aefe74adeaa48781464ba2fd2ec63d221" target="_top" xlink:title=" ">
<polygon fill="white" stroke="black" points="616,-191.5 616,-221.5 734,-221.5 734,-191.5 616,-191.5"/>
<text text-anchor="start" x="624" y="-209.5" font-family="Helvetica,sans-Serif" font-size="10.00">nlohmann::detail::parse</text>
<text text-anchor="middle" x="675" y="-198.5" font-family="Helvetica,sans-Serif" font-size="10.00">_error::position_string</text>
</a>
</g>
</g>
<!-- Node8&#45;&gt;Node10 -->
<g id="edge10" class="edge">
<title>Node8&#45;&gt;Node10</title>
<path fill="none" stroke="midnightblue" d="M571.12,-206.5C582.41,-206.5 594.33,-206.5 605.91,-206.5"/>
<polygon fill="midnightblue" stroke="midnightblue" points="605.96,-210 615.96,-206.5 605.96,-203 605.96,-210"/>
</g>
<!-- Node10&#45;&gt;Node5 -->
<g id="edge11" class="edge">
<title>Node10&#45;&gt;Node5</title>
<path fill="none" stroke="midnightblue" d="M734.28,-206.5C745.53,-206.5 757.34,-206.5 768.65,-206.5"/>
<polygon fill="midnightblue" stroke="midnightblue" points="768.87,-210 778.87,-206.5 768.87,-203 768.87,-210"/>
</g>
<!-- Node11&#45;&gt;Node4 -->
<g id="edge14" class="edge">
<title>Node11&#45;&gt;Node4</title>
<path fill="none" stroke="midnightblue" d="M565.72,-157.5C575.66,-157.5 586.24,-157.5 596.75,-157.5"/>
<polygon fill="midnightblue" stroke="midnightblue" points="596.77,-161 606.77,-157.5 596.77,-154 596.77,-161"/>
</g>
<!-- Node12 -->
<g id="node12" class="node">
<title>Node12</title>
<g id="a_node12"><a xlink:href="a01509.html#ab5fe402019dba957558499502f0fd731" target="_top" xlink:title=" ">
<polygon fill="white" stroke="black" points="615,-93.5 615,-123.5 735,-123.5 735,-93.5 615,-93.5"/>
<text text-anchor="start" x="623" y="-111.5" font-family="Helvetica,sans-Serif" font-size="10.00">nlohmann::detail::out</text>
<text text-anchor="middle" x="675" y="-100.5" font-family="Helvetica,sans-Serif" font-size="10.00">_of_range::out_of_range</text>
</a>
</g>
</g>
<!-- Node11&#45;&gt;Node12 -->
<g id="edge13" class="edge">
<title>Node11&#45;&gt;Node12</title>
<path fill="none" stroke="midnightblue" d="M562.62,-142.4C579.07,-137.39 597.55,-131.77 614.66,-126.56"/>
<polygon fill="midnightblue" stroke="midnightblue" points="616,-129.81 624.54,-123.55 613.96,-123.11 616,-129.81"/>
</g>
</g>
</svg>
