<?xml version="1.0" encoding="UTF-8" standalone="no"?>
<!DOCTYPE svg PUBLIC "-//W3C//DTD SVG 1.1//EN"
 "http://www.w3.org/Graphics/SVG/1.1/DTD/svg11.dtd">
<!-- Generated by graphviz version 7.0.3 (20221126.0506)
 -->
<!-- Title: nlohmann::basic_json::insert Pages: 1 -->
<svg width="594pt" height="230pt"
 viewBox="0.00 0.00 594.00 230.00" xmlns="http://www.w3.org/2000/svg" xmlns:xlink="http://www.w3.org/1999/xlink">
<g id="graph0" class="graph" transform="scale(1 1) rotate(0) translate(4 226)">
<title>nlohmann::basic_json::insert</title>
<!-- Node1 -->
<g id="node1" class="node">
<title>Node1</title>
<g id="a_node1"><a xlink:title="inserts element">
<polygon fill="#999999" stroke="#666666" points="111,-126 0,-126 0,-96 111,-96 111,-126"/>
<text text-anchor="start" x="8" y="-114" font-family="Helvetica,sans-Serif" font-size="10.00">nlohmann::basic_json</text>
<text text-anchor="middle" x="55.5" y="-103" font-family="Helvetica,sans-Serif" font-size="10.00">::insert</text>
</a>
</g>
</g>
<!-- Node2 -->
<g id="node2" class="node">
<title>Node2</title>
<g id="a_node2"><a xlink:href="a01593.html#aeb86e8478e20d95970a8b61ff01dce3b" target="_top" xlink:title="inserts element">
<polygon fill="white" stroke="#666666" points="258,-126 147,-126 147,-96 258,-96 258,-126"/>
<text text-anchor="start" x="155" y="-114" font-family="Helvetica,sans-Serif" font-size="10.00">nlohmann::basic_json</text>
<text text-anchor="middle" x="202.5" y="-103" font-family="Helvetica,sans-Serif" font-size="10.00">::insert</text>
</a>
</g>
</g>
<!-- Node1&#45;&gt;Node2 -->
<g id="edge1" class="edge">
<title>Node1&#45;&gt;Node2</title>
<path fill="none" stroke="#63b8ff" d="M111.32,-111C119.17,-111 127.31,-111 135.35,-111"/>
<polygon fill="#63b8ff" stroke="#63b8ff" points="135.09,-114.5 145.09,-111 135.09,-107.5 135.09,-114.5"/>
</g>
<!-- Node3 -->
<g id="node3" class="node">
<title>Node3</title>
<g id="a_node3"><a xlink:href="a01501.html#a4e849260a3caa1b288c7e619130c6c09" target="_top" xlink:title=" ">
<polygon fill="white" stroke="#666666" points="414,-222 294,-222 294,-192 414,-192 414,-222"/>
<text text-anchor="start" x="302" y="-210" font-family="Helvetica,sans-Serif" font-size="10.00">nlohmann::detail::invalid</text>
<text text-anchor="middle" x="354" y="-199" font-family="Helvetica,sans-Serif" font-size="10.00">_iterator::create</text>
</a>
</g>
</g>
<!-- Node2&#45;&gt;Node3 -->
<g id="edge2" class="edge">
<title>Node2&#45;&gt;Node3</title>
<path fill="none" stroke="#63b8ff" d="M219.79,-126.35C237.14,-142.11 265.92,-166.58 294,-183 296.13,-184.25 298.34,-185.46 300.6,-186.63"/>
<polygon fill="#63b8ff" stroke="#63b8ff" points="298.82,-189.66 309.35,-190.87 301.87,-183.36 298.82,-189.66"/>
</g>
<!-- Node5 -->
<g id="node5" class="node">
<title>Node5</title>
<g id="a_node5"><a xlink:href="a01505.html#aecc083aea4b698c33d042670ba50c10f" target="_top" xlink:title=" ">
<polygon fill="white" stroke="#666666" points="410.5,-174 297.5,-174 297.5,-144 410.5,-144 410.5,-174"/>
<text text-anchor="start" x="305.5" y="-162" font-family="Helvetica,sans-Serif" font-size="10.00">nlohmann::detail::type</text>
<text text-anchor="middle" x="354" y="-151" font-family="Helvetica,sans-Serif" font-size="10.00">_error::create</text>
</a>
</g>
</g>
<!-- Node2&#45;&gt;Node5 -->
<g id="edge4" class="edge">
<title>Node2&#45;&gt;Node5</title>
<path fill="none" stroke="#63b8ff" d="M251.63,-126.45C265.23,-130.82 280.19,-135.62 294.34,-140.17"/>
<polygon fill="#63b8ff" stroke="#63b8ff" points="292.93,-143.39 303.52,-143.11 295.07,-136.73 292.93,-143.39"/>
</g>
<!-- Node6 -->
<g id="node6" class="node">
<title>Node6</title>
<g id="a_node6"><a xlink:href="a01593.html#ab5c8034e997c5b852b92bdc6a3f70994" target="_top" xlink:title="Helper for insertion of an iterator.">
<polygon fill="white" stroke="#666666" points="409.5,-126 298.5,-126 298.5,-96 409.5,-96 409.5,-126"/>
<text text-anchor="start" x="306.5" y="-114" font-family="Helvetica,sans-Serif" font-size="10.00">nlohmann::basic_json</text>
<text text-anchor="middle" x="354" y="-103" font-family="Helvetica,sans-Serif" font-size="10.00">::insert_iterator</text>
</a>
</g>
</g>
<!-- Node2&#45;&gt;Node6 -->
<g id="edge6" class="edge">
<title>Node2&#45;&gt;Node6</title>
<path fill="none" stroke="#63b8ff" d="M258.32,-111C267.56,-111 277.24,-111 286.74,-111"/>
<polygon fill="#63b8ff" stroke="#63b8ff" points="286.67,-114.5 296.67,-111 286.67,-107.5 286.67,-114.5"/>
</g>
<!-- Node7 -->
<g id="node7" class="node">
<title>Node7</title>
<g id="a_node7"><a xlink:href="a01593.html#ab5b70d60a636b9c5e10f6c8caac60b9e" target="_top" xlink:title="return whether value is an array">
<polygon fill="white" stroke="#666666" points="409.5,-78 298.5,-78 298.5,-48 409.5,-48 409.5,-78"/>
<text text-anchor="start" x="306.5" y="-66" font-family="Helvetica,sans-Serif" font-size="10.00">nlohmann::basic_json</text>
<text text-anchor="middle" x="354" y="-55" font-family="Helvetica,sans-Serif" font-size="10.00">::is_array</text>
</a>
</g>
</g>
<!-- Node2&#45;&gt;Node7 -->
<g id="edge7" class="edge">
<title>Node2&#45;&gt;Node7</title>
<path fill="none" stroke="#63b8ff" d="M251.63,-95.55C265.23,-91.18 280.19,-86.38 294.34,-81.83"/>
<polygon fill="#63b8ff" stroke="#63b8ff" points="295.07,-85.27 303.52,-78.89 292.93,-78.61 295.07,-85.27"/>
</g>
<!-- Node8 -->
<g id="node8" class="node">
<title>Node8</title>
<g id="a_node8"><a xlink:href="a01593.html#ab8811fc4eab6091b32b34b3ac3e90474" target="_top" xlink:title="return the type as string">
<polygon fill="white" stroke="#666666" points="409.5,-30 298.5,-30 298.5,0 409.5,0 409.5,-30"/>
<text text-anchor="start" x="306.5" y="-18" font-family="Helvetica,sans-Serif" font-size="10.00">nlohmann::basic_json</text>
<text text-anchor="middle" x="354" y="-7" font-family="Helvetica,sans-Serif" font-size="10.00">::type_name</text>
</a>
</g>
</g>
<!-- Node2&#45;&gt;Node8 -->
<g id="edge8" class="edge">
<title>Node2&#45;&gt;Node8</title>
<path fill="none" stroke="#63b8ff" d="M219.79,-95.65C237.14,-79.89 265.92,-55.42 294,-39 296.13,-37.75 298.34,-36.54 300.6,-35.37"/>
<polygon fill="#63b8ff" stroke="#63b8ff" points="301.87,-38.64 309.35,-31.13 298.82,-32.34 301.87,-38.64"/>
</g>
<!-- Node4 -->
<g id="node4" class="node">
<title>Node4</title>
<g id="a_node4"><a xlink:href="a01493.html#abf41a7e9178356314082284e6cfea278" target="_top" xlink:title=" ">
<polygon fill="white" stroke="#666666" points="586,-198 450,-198 450,-168 586,-168 586,-198"/>
<text text-anchor="start" x="458" y="-186" font-family="Helvetica,sans-Serif" font-size="10.00">nlohmann::detail::exception</text>
<text text-anchor="middle" x="518" y="-175" font-family="Helvetica,sans-Serif" font-size="10.00">::name</text>
</a>
</g>
</g>
<!-- Node3&#45;&gt;Node4 -->
<g id="edge3" class="edge">
<title>Node3&#45;&gt;Node4</title>
<path fill="none" stroke="#63b8ff" d="M414.4,-198.2C422.2,-197.04 430.28,-195.85 438.33,-194.65"/>
<polygon fill="#63b8ff" stroke="#63b8ff" points="438.79,-198.13 448.17,-193.2 437.76,-191.2 438.79,-198.13"/>
</g>
<!-- Node5&#45;&gt;Node4 -->
<g id="edge5" class="edge">
<title>Node5&#45;&gt;Node4</title>
<path fill="none" stroke="#63b8ff" d="M410.75,-167.26C419.67,-168.58 429.03,-169.97 438.36,-171.35"/>
<polygon fill="#63b8ff" stroke="#63b8ff" points="437.78,-174.8 448.18,-172.8 438.8,-167.88 437.78,-174.8"/>
</g>
</g>
</svg>
