<?xml version="1.0" encoding="UTF-8" standalone="no"?>
<!DOCTYPE svg PUBLIC "-//W3C//DTD SVG 1.1//EN"
 "http://www.w3.org/Graphics/SVG/1.1/DTD/svg11.dtd">
<!-- Generated by graphviz version 7.0.2 (20221119.0110)
 -->
<!-- Title: nlohmann::basic_json::update Pages: 1 -->
<svg width="447pt" height="278pt"
 viewBox="0.00 0.00 447.00 278.00" xmlns="http://www.w3.org/2000/svg" xmlns:xlink="http://www.w3.org/1999/xlink">
<g id="graph0" class="graph" transform="scale(1 1) rotate(0) translate(4 274)">
<title>nlohmann::basic_json::update</title>
<!-- Node1 -->
<g id="node1" class="node">
<title>Node1</title>
<g id="a_node1"><a xlink:title="updates a JSON object from another object, overwriting existing keys">
<polygon fill="#999999" stroke="#666666" points="111,-150 0,-150 0,-120 111,-120 111,-150"/>
<text text-anchor="start" x="8" y="-138" font-family="Helvetica,sans-Serif" font-size="10.00">nlohmann::basic_json</text>
<text text-anchor="middle" x="55.5" y="-127" font-family="Helvetica,sans-Serif" font-size="10.00">::update</text>
</a>
</g>
</g>
<!-- Node2 -->
<g id="node2" class="node">
<title>Node2</title>
<g id="a_node2"><a xlink:href="a01593.html#aa7e7b1bdb6e9dbcfa5e284e8a2fb6464" target="_top" xlink:title="checks the class invariants">
<polygon fill="white" stroke="#666666" points="262.5,-270 151.5,-270 151.5,-240 262.5,-240 262.5,-270"/>
<text text-anchor="start" x="159.5" y="-258" font-family="Helvetica,sans-Serif" font-size="10.00">nlohmann::basic_json</text>
<text text-anchor="middle" x="207" y="-247" font-family="Helvetica,sans-Serif" font-size="10.00">::assert_invariant</text>
</a>
</g>
</g>
<!-- Node1&#45;&gt;Node2 -->
<g id="edge1" class="edge">
<title>Node1&#45;&gt;Node2</title>
<path fill="none" stroke="#63b8ff" d="M67.48,-150.24C83.09,-170.97 113.55,-208.09 147,-231 148.6,-232.1 150.26,-233.15 151.96,-234.17"/>
<polygon fill="#63b8ff" stroke="#63b8ff" points="150.25,-237.23 160.71,-238.89 153.57,-231.07 150.25,-237.23"/>
</g>
<!-- Node3 -->
<g id="node3" class="node">
<title>Node3</title>
<g id="a_node3"><a xlink:href="a01501.html#a4e849260a3caa1b288c7e619130c6c09" target="_top" xlink:title=" ">
<polygon fill="white" stroke="#666666" points="267,-222 147,-222 147,-192 267,-192 267,-222"/>
<text text-anchor="start" x="155" y="-210" font-family="Helvetica,sans-Serif" font-size="10.00">nlohmann::detail::invalid</text>
<text text-anchor="middle" x="207" y="-199" font-family="Helvetica,sans-Serif" font-size="10.00">_iterator::create</text>
</a>
</g>
</g>
<!-- Node1&#45;&gt;Node3 -->
<g id="edge2" class="edge">
<title>Node1&#45;&gt;Node3</title>
<path fill="none" stroke="#63b8ff" d="M83.86,-150.44C101.62,-160.24 125.41,-172.91 147,-183 149.91,-184.36 152.92,-185.72 155.97,-187.06"/>
<polygon fill="#63b8ff" stroke="#63b8ff" points="154.45,-190.22 165.02,-190.94 157.21,-183.78 154.45,-190.22"/>
</g>
<!-- Node5 -->
<g id="node5" class="node">
<title>Node5</title>
<g id="a_node5"><a xlink:href="a01505.html#aecc083aea4b698c33d042670ba50c10f" target="_top" xlink:title=" ">
<polygon fill="white" stroke="#666666" points="263.5,-174 150.5,-174 150.5,-144 263.5,-144 263.5,-174"/>
<text text-anchor="start" x="158.5" y="-162" font-family="Helvetica,sans-Serif" font-size="10.00">nlohmann::detail::type</text>
<text text-anchor="middle" x="207" y="-151" font-family="Helvetica,sans-Serif" font-size="10.00">_error::create</text>
</a>
</g>
</g>
<!-- Node1&#45;&gt;Node5 -->
<g id="edge4" class="edge">
<title>Node1&#45;&gt;Node5</title>
<path fill="none" stroke="#63b8ff" d="M111.32,-143.8C120.32,-145.25 129.75,-146.76 139.01,-148.25"/>
<polygon fill="#63b8ff" stroke="#63b8ff" points="138.26,-151.67 148.69,-149.8 139.37,-144.76 138.26,-151.67"/>
</g>
<!-- Node6 -->
<g id="node6" class="node">
<title>Node6</title>
<g id="a_node6"><a xlink:href="a01593.html#aedc7afad96292b5ab61a2e0ad3067f5f" target="_top" xlink:title="return whether value is null">
<polygon fill="white" stroke="#666666" points="262.5,-126 151.5,-126 151.5,-96 262.5,-96 262.5,-126"/>
<text text-anchor="start" x="159.5" y="-114" font-family="Helvetica,sans-Serif" font-size="10.00">nlohmann::basic_json</text>
<text text-anchor="middle" x="207" y="-103" font-family="Helvetica,sans-Serif" font-size="10.00">::is_null</text>
</a>
</g>
</g>
<!-- Node1&#45;&gt;Node6 -->
<g id="edge6" class="edge">
<title>Node1&#45;&gt;Node6</title>
<path fill="none" stroke="#63b8ff" d="M111.32,-126.2C120.66,-124.7 130.46,-123.13 140.05,-121.59"/>
<polygon fill="#63b8ff" stroke="#63b8ff" points="140.37,-125.08 149.69,-120.04 139.26,-118.17 140.37,-125.08"/>
</g>
<!-- Node7 -->
<g id="node7" class="node">
<title>Node7</title>
<g id="a_node7"><a xlink:href="a01593.html#a57e8411a770a6263d6d8f2116c37f3aa" target="_top" xlink:title="return whether value is an object">
<polygon fill="white" stroke="#666666" points="262.5,-78 151.5,-78 151.5,-48 262.5,-48 262.5,-78"/>
<text text-anchor="start" x="159.5" y="-66" font-family="Helvetica,sans-Serif" font-size="10.00">nlohmann::basic_json</text>
<text text-anchor="middle" x="207" y="-55" font-family="Helvetica,sans-Serif" font-size="10.00">::is_object</text>
</a>
</g>
</g>
<!-- Node1&#45;&gt;Node7 -->
<g id="edge7" class="edge">
<title>Node1&#45;&gt;Node7</title>
<path fill="none" stroke="#63b8ff" d="M83.86,-119.56C101.62,-109.76 125.41,-97.09 147,-87 149.91,-85.64 152.92,-84.28 155.97,-82.94"/>
<polygon fill="#63b8ff" stroke="#63b8ff" points="157.21,-86.22 165.02,-79.06 154.45,-79.78 157.21,-86.22"/>
</g>
<!-- Node8 -->
<g id="node8" class="node">
<title>Node8</title>
<g id="a_node8"><a xlink:href="a01593.html#ab8811fc4eab6091b32b34b3ac3e90474" target="_top" xlink:title="return the type as string">
<polygon fill="white" stroke="#666666" points="262.5,-30 151.5,-30 151.5,0 262.5,0 262.5,-30"/>
<text text-anchor="start" x="159.5" y="-18" font-family="Helvetica,sans-Serif" font-size="10.00">nlohmann::basic_json</text>
<text text-anchor="middle" x="207" y="-7" font-family="Helvetica,sans-Serif" font-size="10.00">::type_name</text>
</a>
</g>
</g>
<!-- Node1&#45;&gt;Node8 -->
<g id="edge8" class="edge">
<title>Node1&#45;&gt;Node8</title>
<path fill="none" stroke="#63b8ff" d="M67.48,-119.76C83.09,-99.03 113.55,-61.91 147,-39 148.6,-37.9 150.26,-36.85 151.96,-35.83"/>
<polygon fill="#63b8ff" stroke="#63b8ff" points="153.57,-38.93 160.71,-31.11 150.25,-32.77 153.57,-38.93"/>
</g>
<!-- Node4 -->
<g id="node4" class="node">
<title>Node4</title>
<g id="a_node4"><a xlink:href="a01493.html#abf41a7e9178356314082284e6cfea278" target="_top" xlink:title=" ">
<polygon fill="white" stroke="#666666" points="439,-198 303,-198 303,-168 439,-168 439,-198"/>
<text text-anchor="start" x="311" y="-186" font-family="Helvetica,sans-Serif" font-size="10.00">nlohmann::detail::exception</text>
<text text-anchor="middle" x="371" y="-175" font-family="Helvetica,sans-Serif" font-size="10.00">::name</text>
</a>
</g>
</g>
<!-- Node3&#45;&gt;Node4 -->
<g id="edge3" class="edge">
<title>Node3&#45;&gt;Node4</title>
<path fill="none" stroke="#63b8ff" d="M267.4,-198.2C275.2,-197.04 283.28,-195.85 291.33,-194.65"/>
<polygon fill="#63b8ff" stroke="#63b8ff" points="291.79,-198.13 301.17,-193.2 290.76,-191.2 291.79,-198.13"/>
</g>
<!-- Node5&#45;&gt;Node4 -->
<g id="edge5" class="edge">
<title>Node5&#45;&gt;Node4</title>
<path fill="none" stroke="#63b8ff" d="M263.75,-167.26C272.67,-168.58 282.03,-169.97 291.36,-171.35"/>
<polygon fill="#63b8ff" stroke="#63b8ff" points="290.78,-174.8 301.18,-172.8 291.8,-167.88 290.78,-174.8"/>
</g>
</g>
</svg>
