<?xml version="1.0" encoding="UTF-8" standalone="no"?>
<!DOCTYPE svg PUBLIC "-//W3C//DTD SVG 1.1//EN"
 "http://www.w3.org/Graphics/SVG/1.1/DTD/svg11.dtd">
<!-- Generated by graphviz version 8.0.5 (20230430.1635)
 -->
<!-- Title: nlohmann::basic_json&lt; ObjectType, ArrayType, StringType, BooleanType, NumberIntegerType, NumberUnsignedType, NumberFloatType, AllocatorType, JSONSerializer, BinaryType &gt; Pages: 1 -->
<svg width="903pt" height="306pt"
 viewBox="0.00 0.00 903.00 306.00" xmlns="http://www.w3.org/2000/svg" xmlns:xlink="http://www.w3.org/1999/xlink">
<g id="graph0" class="graph" transform="scale(1 1) rotate(0) translate(4 302)">
<title>nlohmann::basic_json&lt; ObjectType, ArrayType, StringType, BooleanType, NumberIntegerType, NumberUnsignedType, NumberFloatType, AllocatorType, JSONSerializer, BinaryType &gt;</title>
<!-- Node1 -->
<g id="node1" class="node">
<title>Node1</title>
<g id="a_node1"><a xlink:title="a class to store JSON values">
<polygon fill="#999999" stroke="#666666" points="895,-220 707.25,-220 707.25,-140 895,-140 895,-220"/>
<text text-anchor="start" x="715.25" y="-206.5" font-family="Helvetica,sans-Serif" font-size="10.00">nlohmann::basic_json</text>
<text text-anchor="start" x="715.25" y="-194.5" font-family="Helvetica,sans-Serif" font-size="10.00">&lt; ObjectType, ArrayType,</text>
<text text-anchor="start" x="715.25" y="-182.5" font-family="Helvetica,sans-Serif" font-size="10.00"> StringType, BooleanType,</text>
<text text-anchor="start" x="715.25" y="-170.5" font-family="Helvetica,sans-Serif" font-size="10.00"> NumberIntegerType, NumberUnsigned</text>
<text text-anchor="start" x="715.25" y="-158.5" font-family="Helvetica,sans-Serif" font-size="10.00">Type, NumberFloatType, AllocatorType,</text>
<text text-anchor="middle" x="801.13" y="-146.5" font-family="Helvetica,sans-Serif" font-size="10.00"> JSONSerializer, BinaryType &gt;</text>
</a>
</g>
</g>
<!-- Node2 -->
<g id="node2" class="node">
<title>Node2</title>
<g id="a_node2"><a xlink:title=" ">
<polygon fill="white" stroke="#666666" points="556.13,-224 510.13,-224 510.13,-204 556.13,-204 556.13,-224"/>
<text text-anchor="middle" x="533.13" y="-210.5" font-family="Helvetica,sans-Serif" font-size="10.00">value_t</text>
</a>
</g>
</g>
<!-- Node2&#45;&gt;Node1 -->
<g id="edge1" class="edge">
<title>Node2&#45;&gt;Node1</title>
<path fill="none" stroke="#9a32cd" stroke-dasharray="5,2" d="M566.83,-209.82C601.58,-205.38 658.12,-198.15 706.84,-191.92"/>
<polygon fill="#9a32cd" stroke="#9a32cd" points="566.82,-206.42 557.35,-211.16 567.71,-213.36 566.82,-206.42"/>
<text text-anchor="middle" x="670.13" y="-201.5" font-family="Helvetica,sans-Serif" font-size="10.00"> m_type</text>
</g>
<!-- Node3 -->
<g id="node3" class="node">
<title>Node3</title>
<g id="a_node3"><a xlink:href="a01993.html" target="_top" xlink:title="a JSON value">
<polygon fill="white" stroke="#666666" points="633,-186 433.25,-186 433.25,-106 633,-106 633,-186"/>
<text text-anchor="start" x="441.25" y="-172.5" font-family="Helvetica,sans-Serif" font-size="10.00">nlohmann::basic_json</text>
<text text-anchor="start" x="441.25" y="-160.5" font-family="Helvetica,sans-Serif" font-size="10.00">&lt; ObjectType, ArrayType,</text>
<text text-anchor="start" x="441.25" y="-148.5" font-family="Helvetica,sans-Serif" font-size="10.00"> StringType, BooleanType,</text>
<text text-anchor="start" x="441.25" y="-136.5" font-family="Helvetica,sans-Serif" font-size="10.00"> NumberIntegerType, NumberUnsigned</text>
<text text-anchor="start" x="441.25" y="-124.5" font-family="Helvetica,sans-Serif" font-size="10.00">Type, NumberFloatType, AllocatorType,</text>
<text text-anchor="middle" x="533.13" y="-112.5" font-family="Helvetica,sans-Serif" font-size="10.00"> JSONSerializer, BinaryType &gt;::json_value</text>
</a>
</g>
</g>
<!-- Node3&#45;&gt;Node1 -->
<g id="edge2" class="edge">
<title>Node3&#45;&gt;Node1</title>
<path fill="none" stroke="#9a32cd" stroke-dasharray="5,2" d="M644.06,-160.05C665.03,-162.73 686.78,-165.51 707.16,-168.12"/>
<polygon fill="#9a32cd" stroke="#9a32cd" points="644.54,-156.46 634.17,-158.66 643.65,-163.4 644.54,-156.46"/>
<text text-anchor="middle" x="670.13" y="-167.5" font-family="Helvetica,sans-Serif" font-size="10.00"> m_value</text>
</g>
<!-- Node4 -->
<g id="node4" class="node">
<title>Node4</title>
<g id="a_node4"><a xlink:title=" ">
<polygon fill="white" stroke="#666666" points="273.88,-298 216.63,-298 216.63,-278 273.88,-278 273.88,-298"/>
<text text-anchor="middle" x="245.25" y="-284.5" font-family="Helvetica,sans-Serif" font-size="10.00">object_t *</text>
</a>
</g>
</g>
<!-- Node4&#45;&gt;Node3 -->
<g id="edge3" class="edge">
<title>Node4&#45;&gt;Node3</title>
<path fill="none" stroke="#9a32cd" stroke-dasharray="5,2" d="M284.89,-289.63C322.72,-289.1 379.71,-282.31 415.25,-250 434.28,-232.7 416.42,-214.45 433.25,-195 435.88,-191.96 438.75,-189.09 441.79,-186.38"/>
<polygon fill="#9a32cd" stroke="#9a32cd" points="285.29,-286.13 275.29,-289.62 285.29,-293.13 285.29,-286.13"/>
<text text-anchor="middle" x="375.5" y="-286.5" font-family="Helvetica,sans-Serif" font-size="10.00"> object</text>
</g>
<!-- Node5 -->
<g id="node5" class="node">
<title>Node5</title>
<g id="a_node5"><a xlink:title=" ">
<polygon fill="white" stroke="#666666" points="271.63,-260 218.88,-260 218.88,-240 271.63,-240 271.63,-260"/>
<text text-anchor="middle" x="245.25" y="-246.5" font-family="Helvetica,sans-Serif" font-size="10.00">array_t *</text>
</a>
</g>
</g>
<!-- Node5&#45;&gt;Node3 -->
<g id="edge4" class="edge">
<title>Node5&#45;&gt;Node3</title>
<path fill="none" stroke="#9a32cd" stroke-dasharray="5,2" d="M282.76,-245.68C318.04,-240.48 372.31,-229.72 415.25,-209 424.38,-204.6 424.67,-200.39 433.25,-195 437.87,-192.1 442.69,-189.23 447.61,-186.44"/>
<polygon fill="#9a32cd" stroke="#9a32cd" points="282.43,-242.33 273.01,-247.18 283.4,-249.26 282.43,-242.33"/>
<text text-anchor="middle" x="375.5" y="-236.5" font-family="Helvetica,sans-Serif" font-size="10.00"> array</text>
</g>
<!-- Node6 -->
<g id="node6" class="node">
<title>Node6</title>
<g id="a_node6"><a xlink:title=" ">
<polygon fill="white" stroke="#666666" points="272.75,-222 217.75,-222 217.75,-202 272.75,-202 272.75,-222"/>
<text text-anchor="middle" x="245.25" y="-208.5" font-family="Helvetica,sans-Serif" font-size="10.00">string_t *</text>
</a>
</g>
</g>
<!-- Node6&#45;&gt;Node3 -->
<g id="edge5" class="edge">
<title>Node6&#45;&gt;Node3</title>
<path fill="none" stroke="#9a32cd" stroke-dasharray="5,2" d="M283.44,-204.54C317.74,-197.55 370.06,-186.61 415.25,-176 421.06,-174.64 427.03,-173.2 433.04,-171.73"/>
<polygon fill="#9a32cd" stroke="#9a32cd" points="283.07,-201.25 273.96,-206.67 284.46,-208.11 283.07,-201.25"/>
<text text-anchor="middle" x="375.5" y="-195.5" font-family="Helvetica,sans-Serif" font-size="10.00"> string</text>
</g>
<!-- Node7 -->
<g id="node7" class="node">
<title>Node7</title>
<g id="a_node7"><a xlink:href="a01849.html" target="_top" xlink:title="an internal type for a backed binary type">
<polygon fill="white" stroke="#666666" points="317.75,-184 172.75,-184 172.75,-152 317.75,-152 317.75,-184"/>
<text text-anchor="start" x="180.75" y="-170.5" font-family="Helvetica,sans-Serif" font-size="10.00">nlohmann::byte_container</text>
<text text-anchor="middle" x="245.25" y="-158.5" font-family="Helvetica,sans-Serif" font-size="10.00">_with_subtype&lt; BinaryType &gt;</text>
</a>
</g>
</g>
<!-- Node7&#45;&gt;Node3 -->
<g id="edge6" class="edge">
<title>Node7&#45;&gt;Node3</title>
<path fill="none" stroke="#9a32cd" stroke-dasharray="5,2" d="M328.82,-161.65C361.29,-159.15 398.85,-156.26 432.78,-153.65"/>
<polygon fill="#9a32cd" stroke="#9a32cd" points="328.72,-158.22 319.02,-162.48 329.26,-165.2 328.72,-158.22"/>
<text text-anchor="middle" x="375.5" y="-162.5" font-family="Helvetica,sans-Serif" font-size="10.00"> binary</text>
</g>
<!-- Node8 -->
<g id="node8" class="node">
<title>Node8</title>
<g id="a_node8"><a xlink:href="a03437.html" target="_top" xlink:title=" ">
<polygon fill="white" stroke="#666666" points="64.75,-216 0,-216 0,-196 64.75,-196 64.75,-216"/>
<text text-anchor="middle" x="32.38" y="-202.5" font-family="Helvetica,sans-Serif" font-size="10.00">BinaryType</text>
</a>
</g>
</g>
<!-- Node8&#45;&gt;Node7 -->
<g id="edge7" class="edge">
<title>Node8&#45;&gt;Node7</title>
<path fill="none" stroke="#63b8ff" d="M75.48,-198.41C103.26,-193.41 140.34,-186.72 172.68,-180.9"/>
<polygon fill="#63b8ff" stroke="#63b8ff" points="75.17,-195.09 65.95,-200.31 76.41,-201.98 75.17,-195.09"/>
</g>
<!-- Node9 -->
<g id="node9" class="node">
<title>Node9</title>
<g id="a_node9"><a xlink:title=" ">
<polygon fill="white" stroke="#666666" points="55,-178 9.75,-178 9.75,-158 55,-158 55,-178"/>
<text text-anchor="middle" x="32.38" y="-164.5" font-family="Helvetica,sans-Serif" font-size="10.00">uint8_t</text>
</a>
</g>
</g>
<!-- Node9&#45;&gt;Node7 -->
<g id="edge8" class="edge">
<title>Node9&#45;&gt;Node7</title>
<path fill="none" stroke="#9a32cd" stroke-dasharray="5,2" d="M66,-168C94.27,-168 136.19,-168 172.27,-168"/>
<polygon fill="#9a32cd" stroke="#9a32cd" points="66.15,-164.5 56.15,-168 66.15,-171.5 66.15,-164.5"/>
<text text-anchor="middle" x="118.75" y="-170.5" font-family="Helvetica,sans-Serif" font-size="10.00"> m_subtype</text>
</g>
<!-- Node10 -->
<g id="node10" class="node">
<title>Node10</title>
<g id="a_node10"><a xlink:title=" ">
<polygon fill="white" stroke="#666666" points="49.38,-140 15.38,-140 15.38,-120 49.38,-120 49.38,-140"/>
<text text-anchor="middle" x="32.38" y="-126.5" font-family="Helvetica,sans-Serif" font-size="10.00">bool</text>
</a>
</g>
</g>
<!-- Node10&#45;&gt;Node7 -->
<g id="edge9" class="edge">
<title>Node10&#45;&gt;Node7</title>
<path fill="none" stroke="#9a32cd" stroke-dasharray="5,2" d="M60.14,-134.82C88.25,-139.89 133.66,-148.07 172.34,-155.04"/>
<polygon fill="#9a32cd" stroke="#9a32cd" points="61.03,-131.25 50.57,-132.92 59.79,-138.14 61.03,-131.25"/>
<text text-anchor="middle" x="118.75" y="-153.5" font-family="Helvetica,sans-Serif" font-size="10.00"> m_has_subtype</text>
</g>
<!-- Node11 -->
<g id="node11" class="node">
<title>Node11</title>
<g id="a_node11"><a xlink:title=" ">
<polygon fill="white" stroke="#666666" points="281.38,-134 209.13,-134 209.13,-114 281.38,-114 281.38,-134"/>
<text text-anchor="middle" x="245.25" y="-120.5" font-family="Helvetica,sans-Serif" font-size="10.00">BooleanType</text>
</a>
</g>
</g>
<!-- Node11&#45;&gt;Node3 -->
<g id="edge10" class="edge">
<title>Node11&#45;&gt;Node3</title>
<path fill="none" stroke="#9a32cd" stroke-dasharray="5,2" d="M292.29,-127.54C330.18,-130.46 385.24,-134.7 433.05,-138.38"/>
<polygon fill="#9a32cd" stroke="#9a32cd" points="292.83,-124 282.59,-126.72 292.29,-130.98 292.83,-124"/>
<text text-anchor="middle" x="375.5" y="-138.5" font-family="Helvetica,sans-Serif" font-size="10.00"> boolean</text>
</g>
<!-- Node12 -->
<g id="node12" class="node">
<title>Node12</title>
<g id="a_node12"><a xlink:title=" ">
<polygon fill="white" stroke="#666666" points="295.25,-96 195.25,-96 195.25,-76 295.25,-76 295.25,-96"/>
<text text-anchor="middle" x="245.25" y="-82.5" font-family="Helvetica,sans-Serif" font-size="10.00">NumberIntegerType</text>
</a>
</g>
</g>
<!-- Node12&#45;&gt;Node3 -->
<g id="edge11" class="edge">
<title>Node12&#45;&gt;Node3</title>
<path fill="none" stroke="#9a32cd" stroke-dasharray="5,2" d="M306.31,-94.97C338.71,-100.14 379.32,-107.17 415.25,-115 420.99,-116.25 426.88,-117.6 432.81,-119.01"/>
<polygon fill="#9a32cd" stroke="#9a32cd" points="307.08,-91.39 296.65,-93.29 305.98,-98.3 307.08,-91.39"/>
<text text-anchor="middle" x="375.5" y="-117.5" font-family="Helvetica,sans-Serif" font-size="10.00"> number_integer</text>
</g>
<!-- Node13 -->
<g id="node13" class="node">
<title>Node13</title>
<g id="a_node13"><a xlink:title=" ">
<polygon fill="white" stroke="#666666" points="300.88,-58 189.63,-58 189.63,-38 300.88,-38 300.88,-58"/>
<text text-anchor="middle" x="245.25" y="-44.5" font-family="Helvetica,sans-Serif" font-size="10.00">NumberUnsignedType</text>
</a>
</g>
</g>
<!-- Node13&#45;&gt;Node3 -->
<g id="edge12" class="edge">
<title>Node13&#45;&gt;Node3</title>
<path fill="none" stroke="#9a32cd" stroke-dasharray="5,2" d="M311.84,-58.17C343.63,-64.14 382.02,-72.94 415.25,-85 430.85,-90.66 446.98,-98.01 462.1,-105.64"/>
<polygon fill="#9a32cd" stroke="#9a32cd" points="312.79,-54.6 302.33,-56.25 311.54,-61.49 312.79,-54.6"/>
<text text-anchor="middle" x="375.5" y="-87.5" font-family="Helvetica,sans-Serif" font-size="10.00"> number_unsigned</text>
</g>
<!-- Node14 -->
<g id="node14" class="node">
<title>Node14</title>
<g id="a_node14"><a xlink:title=" ">
<polygon fill="white" stroke="#666666" points="291.5,-20 199,-20 199,0 291.5,0 291.5,-20"/>
<text text-anchor="middle" x="245.25" y="-6.5" font-family="Helvetica,sans-Serif" font-size="10.00">NumberFloatType</text>
</a>
</g>
</g>
<!-- Node14&#45;&gt;Node3 -->
<g id="edge13" class="edge">
<title>Node14&#45;&gt;Node3</title>
<path fill="none" stroke="#9a32cd" stroke-dasharray="5,2" d="M302.65,-15.85C336.62,-21.01 379.98,-30.55 415.25,-48 444.32,-62.39 472.33,-85.44 493.64,-105.58"/>
<polygon fill="#9a32cd" stroke="#9a32cd" points="303.37,-12.28 292.97,-14.33 302.38,-19.21 303.37,-12.28"/>
<text text-anchor="middle" x="375.5" y="-50.5" font-family="Helvetica,sans-Serif" font-size="10.00"> number_float</text>
</g>
</g>
</svg>
