<?xml version="1.0" encoding="UTF-8" standalone="no"?>
<!DOCTYPE svg PUBLIC "-//W3C//DTD SVG 1.1//EN"
 "http://www.w3.org/Graphics/SVG/1.1/DTD/svg11.dtd">
<!-- Generated by graphviz version 5.0.0 (20220707.1540)
 -->
<!-- Title: nlohmann::basic_json::value Pages: 1 -->
<svg width="895pt" height="258pt"
 viewBox="0.00 0.00 895.00 258.00" xmlns="http://www.w3.org/2000/svg" xmlns:xlink="http://www.w3.org/1999/xlink">
<g id="graph0" class="graph" transform="scale(1 1) rotate(0) translate(4 254)">
<title>nlohmann::basic_json::value</title>
<polygon fill="white" stroke="transparent" points="-4,4 -4,-254 891,-254 891,4 -4,4"/>
<!-- Node1 -->
<g id="node1" class="node">
<title>Node1</title>
<g id="a_node1"><a xlink:title="overload for a default value of type const char*">
<polygon fill="#bfbfbf" stroke="black" points="0,-88.5 0,-118.5 111,-118.5 111,-88.5 0,-88.5"/>
<text text-anchor="start" x="8" y="-106.5" font-family="Helvetica,sans-Serif" font-size="10.00">nlohmann::basic_json</text>
<text text-anchor="middle" x="55.5" y="-95.5" font-family="Helvetica,sans-Serif" font-size="10.00">::value</text>
</a>
</g>
</g>
<!-- Node2 -->
<g id="node2" class="node">
<title>Node2</title>
<g id="a_node2"><a xlink:href="a01593.html#a11641b35219676b225d9bd15c7677659" target="_top" xlink:title="access specified object element with default value">
<polygon fill="white" stroke="black" points="147,-88.5 147,-118.5 258,-118.5 258,-88.5 147,-88.5"/>
<text text-anchor="start" x="155" y="-106.5" font-family="Helvetica,sans-Serif" font-size="10.00">nlohmann::basic_json</text>
<text text-anchor="middle" x="202.5" y="-95.5" font-family="Helvetica,sans-Serif" font-size="10.00">::value</text>
</a>
</g>
</g>
<!-- Node1&#45;&gt;Node2 -->
<g id="edge1" class="edge">
<title>Node1&#45;&gt;Node2</title>
<path fill="none" stroke="midnightblue" d="M111.32,-103.5C119.53,-103.5 128.06,-103.5 136.46,-103.5"/>
<polygon fill="midnightblue" stroke="midnightblue" points="136.6,-107 146.6,-103.5 136.6,-100 136.6,-107"/>
</g>
<!-- Node3 -->
<g id="node3" class="node">
<title>Node3</title>
<g id="a_node3"><a xlink:href="a01505.html#aecc083aea4b698c33d042670ba50c10f" target="_top" xlink:title=" ">
<polygon fill="white" stroke="black" points="294,-176.5 294,-206.5 407,-206.5 407,-176.5 294,-176.5"/>
<text text-anchor="start" x="302" y="-194.5" font-family="Helvetica,sans-Serif" font-size="10.00">nlohmann::detail::type</text>
<text text-anchor="middle" x="350.5" y="-183.5" font-family="Helvetica,sans-Serif" font-size="10.00">_error::create</text>
</a>
</g>
</g>
<!-- Node2&#45;&gt;Node3 -->
<g id="edge2" class="edge">
<title>Node2&#45;&gt;Node3</title>
<path fill="none" stroke="midnightblue" d="M225.9,-118.51C244.04,-130.51 270.37,-147.57 294,-161.5 299.63,-164.82 305.66,-168.23 311.59,-171.49"/>
<polygon fill="midnightblue" stroke="midnightblue" points="310.3,-174.78 320.75,-176.49 313.65,-168.63 310.3,-174.78"/>
</g>
<!-- Node7 -->
<g id="node7" class="node">
<title>Node7</title>
<g id="a_node7"><a xlink:href="a01593.html#a931267ec3f09eb67e4382f321b2c52bc" target="_top" xlink:title="returns an iterator to one past the last element">
<polygon fill="white" stroke="black" points="444.5,-127 444.5,-146 577.5,-146 577.5,-127 444.5,-127"/>
<text text-anchor="middle" x="511" y="-134" font-family="Helvetica,sans-Serif" font-size="10.00">nlohmann::basic_json::end</text>
</a>
</g>
</g>
<!-- Node2&#45;&gt;Node7 -->
<g id="edge6" class="edge">
<title>Node2&#45;&gt;Node7</title>
<path fill="none" stroke="midnightblue" d="M250.02,-118.58C264.01,-122.51 279.5,-126.26 294,-128.5 340.25,-135.65 392.7,-137.73 434.34,-137.98"/>
<polygon fill="midnightblue" stroke="midnightblue" points="434.4,-141.48 444.41,-138.01 434.42,-134.48 434.4,-141.48"/>
</g>
<!-- Node10 -->
<g id="node10" class="node">
<title>Node10</title>
<g id="a_node10"><a xlink:href="a01593.html#acdf9b3aab82dcf443dd91ca5ec06b80c" target="_top" xlink:title="find an element in a JSON object">
<polygon fill="white" stroke="black" points="295,-88.5 295,-118.5 406,-118.5 406,-88.5 295,-88.5"/>
<text text-anchor="start" x="303" y="-106.5" font-family="Helvetica,sans-Serif" font-size="10.00">nlohmann::basic_json</text>
<text text-anchor="middle" x="350.5" y="-95.5" font-family="Helvetica,sans-Serif" font-size="10.00">::find</text>
</a>
</g>
</g>
<!-- Node2&#45;&gt;Node10 -->
<g id="edge9" class="edge">
<title>Node2&#45;&gt;Node10</title>
<path fill="none" stroke="midnightblue" d="M258.28,-103.5C266.89,-103.5 275.86,-103.5 284.66,-103.5"/>
<polygon fill="midnightblue" stroke="midnightblue" points="284.9,-107 294.9,-103.5 284.9,-100 284.9,-107"/>
</g>
<!-- Node11 -->
<g id="node11" class="node">
<title>Node11</title>
<g id="a_node11"><a xlink:href="a01593.html#a57e8411a770a6263d6d8f2116c37f3aa" target="_top" xlink:title="return whether value is an object">
<polygon fill="white" stroke="black" points="455.5,-66.5 455.5,-96.5 566.5,-96.5 566.5,-66.5 455.5,-66.5"/>
<text text-anchor="start" x="463.5" y="-84.5" font-family="Helvetica,sans-Serif" font-size="10.00">nlohmann::basic_json</text>
<text text-anchor="middle" x="511" y="-73.5" font-family="Helvetica,sans-Serif" font-size="10.00">::is_object</text>
</a>
</g>
</g>
<!-- Node2&#45;&gt;Node11 -->
<g id="edge12" class="edge">
<title>Node2&#45;&gt;Node11</title>
<path fill="none" stroke="midnightblue" d="M248.58,-88.48C262.93,-84.39 278.98,-80.54 294,-78.5 344.4,-71.67 402.03,-72.92 445.07,-75.6"/>
<polygon fill="midnightblue" stroke="midnightblue" points="444.92,-79.1 455.13,-76.27 445.39,-72.11 444.92,-79.1"/>
</g>
<!-- Node12 -->
<g id="node12" class="node">
<title>Node12</title>
<g id="a_node12"><a xlink:href="a01593.html#ab8811fc4eab6091b32b34b3ac3e90474" target="_top" xlink:title="return the type as string">
<polygon fill="white" stroke="black" points="295,-0.5 295,-30.5 406,-30.5 406,-0.5 295,-0.5"/>
<text text-anchor="start" x="303" y="-18.5" font-family="Helvetica,sans-Serif" font-size="10.00">nlohmann::basic_json</text>
<text text-anchor="middle" x="350.5" y="-7.5" font-family="Helvetica,sans-Serif" font-size="10.00">::type_name</text>
</a>
</g>
</g>
<!-- Node2&#45;&gt;Node12 -->
<g id="edge13" class="edge">
<title>Node2&#45;&gt;Node12</title>
<path fill="none" stroke="midnightblue" d="M225.9,-88.49C244.04,-76.49 270.37,-59.43 294,-45.5 299.63,-42.18 305.66,-38.77 311.59,-35.51"/>
<polygon fill="midnightblue" stroke="midnightblue" points="313.65,-38.37 320.75,-30.51 310.3,-32.22 313.65,-38.37"/>
</g>
<!-- Node4 -->
<g id="node4" class="node">
<title>Node4</title>
<g id="a_node4"><a xlink:href="a01505.html#aa01edaa0bf18b853368f0b900e485cd7" target="_top" xlink:title=" ">
<polygon fill="white" stroke="black" points="454.5,-219.5 454.5,-249.5 567.5,-249.5 567.5,-219.5 454.5,-219.5"/>
<text text-anchor="start" x="462.5" y="-237.5" font-family="Helvetica,sans-Serif" font-size="10.00">nlohmann::detail::type</text>
<text text-anchor="middle" x="511" y="-226.5" font-family="Helvetica,sans-Serif" font-size="10.00">_error::type_error</text>
</a>
</g>
</g>
<!-- Node3&#45;&gt;Node4 -->
<g id="edge3" class="edge">
<title>Node3&#45;&gt;Node4</title>
<path fill="none" stroke="midnightblue" d="M406.94,-206.54C419.12,-209.85 432.14,-213.38 444.67,-216.78"/>
<polygon fill="midnightblue" stroke="midnightblue" points="444.03,-220.23 454.6,-219.47 445.86,-213.47 444.03,-220.23"/>
</g>
<!-- Node5 -->
<g id="node5" class="node">
<title>Node5</title>
<g id="a_node5"><a xlink:href="a01493.html#abf41a7e9178356314082284e6cfea278" target="_top" xlink:title=" ">
<polygon fill="white" stroke="black" points="443,-170.5 443,-200.5 579,-200.5 579,-170.5 443,-170.5"/>
<text text-anchor="start" x="451" y="-188.5" font-family="Helvetica,sans-Serif" font-size="10.00">nlohmann::detail::exception</text>
<text text-anchor="middle" x="511" y="-177.5" font-family="Helvetica,sans-Serif" font-size="10.00">::name</text>
</a>
</g>
</g>
<!-- Node3&#45;&gt;Node5 -->
<g id="edge4" class="edge">
<title>Node3&#45;&gt;Node5</title>
<path fill="none" stroke="midnightblue" d="M407.38,-189.38C415.64,-189.07 424.28,-188.74 432.88,-188.42"/>
<polygon fill="midnightblue" stroke="midnightblue" points="433.08,-191.91 442.94,-188.04 432.82,-184.92 433.08,-191.91"/>
</g>
<!-- Node6 -->
<g id="node6" class="node">
<title>Node6</title>
<g id="a_node6"><a xlink:href="a00410.html#a6ce645a0b8717757e096a5b5773b7a16" target="_top" xlink:title="user&#45;defined to_string function for JSON values">
<polygon fill="white" stroke="black" points="617.5,-176 617.5,-195 719.5,-195 719.5,-176 617.5,-176"/>
<text text-anchor="middle" x="668.5" y="-183" font-family="Helvetica,sans-Serif" font-size="10.00">nlohmann::to_string</text>
</a>
</g>
</g>
<!-- Node5&#45;&gt;Node6 -->
<g id="edge5" class="edge">
<title>Node5&#45;&gt;Node6</title>
<path fill="none" stroke="midnightblue" d="M579.3,-185.5C588.6,-185.5 598.11,-185.5 607.27,-185.5"/>
<polygon fill="midnightblue" stroke="midnightblue" points="607.45,-189 617.45,-185.5 607.45,-182 607.45,-189"/>
</g>
<!-- Node8 -->
<g id="node8" class="node">
<title>Node8</title>
<g id="a_node8"><a xlink:href="a01945.html#a23e50ad4c13aa62d9ac7f60a123823ee" target="_top" xlink:title="set the iterator past the last value">
<polygon fill="white" stroke="black" points="615,-121.5 615,-151.5 722,-151.5 722,-121.5 615,-121.5"/>
<text text-anchor="start" x="623" y="-139.5" font-family="Helvetica,sans-Serif" font-size="10.00">nlohmann::detail::iter</text>
<text text-anchor="middle" x="668.5" y="-128.5" font-family="Helvetica,sans-Serif" font-size="10.00">_impl::set_end</text>
</a>
</g>
</g>
<!-- Node7&#45;&gt;Node8 -->
<g id="edge7" class="edge">
<title>Node7&#45;&gt;Node8</title>
<path fill="none" stroke="midnightblue" d="M577.95,-136.5C586.75,-136.5 595.76,-136.5 604.52,-136.5"/>
<polygon fill="midnightblue" stroke="midnightblue" points="604.64,-140 614.64,-136.5 604.64,-133 604.64,-140"/>
</g>
<!-- Node9 -->
<g id="node9" class="node">
<title>Node9</title>
<g id="a_node9"><a xlink:href="a01937.html#ad26a823483846a12d890c3feed3097eb" target="_top" xlink:title="set iterator to a defined past the end">
<polygon fill="white" stroke="black" points="758,-121.5 758,-151.5 887,-151.5 887,-121.5 758,-121.5"/>
<text text-anchor="start" x="766" y="-139.5" font-family="Helvetica,sans-Serif" font-size="10.00">nlohmann::detail::primitive</text>
<text text-anchor="middle" x="822.5" y="-128.5" font-family="Helvetica,sans-Serif" font-size="10.00">_iterator_t::set_end</text>
</a>
</g>
</g>
<!-- Node8&#45;&gt;Node9 -->
<g id="edge8" class="edge">
<title>Node8&#45;&gt;Node9</title>
<path fill="none" stroke="midnightblue" d="M722.24,-136.5C730.49,-136.5 739.16,-136.5 747.78,-136.5"/>
<polygon fill="midnightblue" stroke="midnightblue" points="747.86,-140 757.86,-136.5 747.86,-133 747.86,-140"/>
</g>
<!-- Node10&#45;&gt;Node7 -->
<g id="edge10" class="edge">
<title>Node10&#45;&gt;Node7</title>
<path fill="none" stroke="midnightblue" d="M406.05,-114.86C421.62,-118.1 438.61,-121.64 454.25,-124.89"/>
<polygon fill="midnightblue" stroke="midnightblue" points="453.8,-128.37 464.31,-126.99 455.23,-121.52 453.8,-128.37"/>
</g>
<!-- Node10&#45;&gt;Node11 -->
<g id="edge11" class="edge">
<title>Node10&#45;&gt;Node11</title>
<path fill="none" stroke="midnightblue" d="M406.05,-95.93C418.62,-94.18 432.12,-92.31 445.09,-90.51"/>
<polygon fill="midnightblue" stroke="midnightblue" points="445.93,-93.93 455.35,-89.09 444.97,-86.99 445.93,-93.93"/>
</g>
</g>
</svg>
