<?xml version="1.0" encoding="UTF-8" standalone="no"?>
<!DOCTYPE svg PUBLIC "-//W3C//DTD SVG 1.1//EN"
 "http://www.w3.org/Graphics/SVG/1.1/DTD/svg11.dtd">
<!-- Generated by graphviz version 8.0.5 (20230430.1635)
 -->
<!-- Title: nlohmann::detail::exception Pages: 1 -->
<svg width="412pt" height="240pt"
 viewBox="0.00 0.00 412.25 240.00" xmlns="http://www.w3.org/2000/svg" xmlns:xlink="http://www.w3.org/1999/xlink">
<g id="graph0" class="graph" transform="scale(1 1) rotate(0) translate(4 236)">
<title>nlohmann::detail::exception</title>
<!-- Node1 -->
<g id="node1" class="node">
<title>Node1</title>
<g id="a_node1"><a xlink:title="general exception of the basic_json class">
<polygon fill="#999999" stroke="#666666" points="248.75,-126 113.5,-126 113.5,-106 248.75,-106 248.75,-126"/>
<text text-anchor="middle" x="181.13" y="-112.5" font-family="Helvetica,sans-Serif" font-size="10.00">nlohmann::detail::exception</text>
</a>
</g>
</g>
<!-- Node3 -->
<g id="node3" class="node">
<title>Node3</title>
<g id="a_node3"><a xlink:href="a01567.html" target="_top" xlink:title="exception indicating errors with iterators">
<polygon fill="white" stroke="#666666" points="404.25,-232 284.75,-232 284.75,-200 404.25,-200 404.25,-232"/>
<text text-anchor="start" x="292.75" y="-218.5" font-family="Helvetica,sans-Serif" font-size="10.00">nlohmann::detail::invalid</text>
<text text-anchor="middle" x="344.5" y="-206.5" font-family="Helvetica,sans-Serif" font-size="10.00">_iterator</text>
</a>
</g>
</g>
<!-- Node1&#45;&gt;Node3 -->
<g id="edge2" class="edge">
<title>Node1&#45;&gt;Node3</title>
<path fill="none" stroke="#63b8ff" d="M202.8,-133.31C222.87,-149.57 254.63,-173.89 284.75,-191 290.05,-194.01 295.79,-196.88 301.52,-199.54"/>
<polygon fill="#63b8ff" stroke="#63b8ff" points="205.4,-130.09 195.45,-126.46 200.96,-135.51 205.4,-130.09"/>
</g>
<!-- Node4 -->
<g id="node4" class="node">
<title>Node4</title>
<g id="a_node4"><a xlink:href="a01579.html" target="_top" xlink:title="exception indicating other library errors">
<polygon fill="white" stroke="#666666" points="402,-182 287,-182 287,-150 402,-150 402,-182"/>
<text text-anchor="start" x="295" y="-168.5" font-family="Helvetica,sans-Serif" font-size="10.00">nlohmann::detail::other</text>
<text text-anchor="middle" x="344.5" y="-156.5" font-family="Helvetica,sans-Serif" font-size="10.00">_error</text>
</a>
</g>
</g>
<!-- Node1&#45;&gt;Node4 -->
<g id="edge3" class="edge">
<title>Node1&#45;&gt;Node4</title>
<path fill="none" stroke="#63b8ff" d="M226.23,-129.67C246.04,-135.8 269.57,-143.09 290.34,-149.53"/>
<polygon fill="#63b8ff" stroke="#63b8ff" points="227.54,-126.1 216.95,-126.48 225.47,-132.78 227.54,-126.1"/>
</g>
<!-- Node5 -->
<g id="node5" class="node">
<title>Node5</title>
<g id="a_node5"><a xlink:href="a01575.html" target="_top" xlink:title="exception indicating access out of the defined range">
<polygon fill="white" stroke="#666666" points="397.88,-132 291.13,-132 291.13,-100 397.88,-100 397.88,-132"/>
<text text-anchor="start" x="299.13" y="-118.5" font-family="Helvetica,sans-Serif" font-size="10.00">nlohmann::detail::out</text>
<text text-anchor="middle" x="344.5" y="-106.5" font-family="Helvetica,sans-Serif" font-size="10.00">_of_range</text>
</a>
</g>
</g>
<!-- Node1&#45;&gt;Node5 -->
<g id="edge4" class="edge">
<title>Node1&#45;&gt;Node5</title>
<path fill="none" stroke="#63b8ff" d="M259.96,-116C270.37,-116 280.84,-116 290.69,-116"/>
<polygon fill="#63b8ff" stroke="#63b8ff" points="260.16,-112.5 250.16,-116 260.16,-119.5 260.16,-112.5"/>
</g>
<!-- Node6 -->
<g id="node6" class="node">
<title>Node6</title>
<g id="a_node6"><a xlink:href="a01563.html" target="_top" xlink:title="exception indicating a parse error">
<polygon fill="white" stroke="#666666" points="403.13,-82 285.88,-82 285.88,-50 403.13,-50 403.13,-82"/>
<text text-anchor="start" x="293.88" y="-68.5" font-family="Helvetica,sans-Serif" font-size="10.00">nlohmann::detail::parse</text>
<text text-anchor="middle" x="344.5" y="-56.5" font-family="Helvetica,sans-Serif" font-size="10.00">_error</text>
</a>
</g>
</g>
<!-- Node1&#45;&gt;Node6 -->
<g id="edge5" class="edge">
<title>Node1&#45;&gt;Node6</title>
<path fill="none" stroke="#63b8ff" d="M226.23,-102.33C246.04,-96.2 269.57,-88.91 290.34,-82.47"/>
<polygon fill="#63b8ff" stroke="#63b8ff" points="225.47,-99.22 216.95,-105.52 227.54,-105.9 225.47,-99.22"/>
</g>
<!-- Node7 -->
<g id="node7" class="node">
<title>Node7</title>
<g id="a_node7"><a xlink:href="a01571.html" target="_top" xlink:title="exception indicating executing a member function with a wrong type">
<polygon fill="white" stroke="#666666" points="400.5,-32 288.5,-32 288.5,0 400.5,0 400.5,-32"/>
<text text-anchor="start" x="296.5" y="-18.5" font-family="Helvetica,sans-Serif" font-size="10.00">nlohmann::detail::type</text>
<text text-anchor="middle" x="344.5" y="-6.5" font-family="Helvetica,sans-Serif" font-size="10.00">_error</text>
</a>
</g>
</g>
<!-- Node1&#45;&gt;Node7 -->
<g id="edge6" class="edge">
<title>Node1&#45;&gt;Node7</title>
<path fill="none" stroke="#63b8ff" d="M202.8,-98.69C222.87,-82.43 254.63,-58.11 284.75,-41 290.05,-37.99 295.79,-35.12 301.52,-32.46"/>
<polygon fill="#63b8ff" stroke="#63b8ff" points="200.96,-96.49 195.45,-105.54 205.4,-101.91 200.96,-96.49"/>
</g>
<!-- Node2 -->
<g id="node2" class="node">
<title>Node2</title>
<g id="a_node2"><a xlink:title=" ">
<polygon fill="white" stroke="#666666" points="77.5,-126 0,-126 0,-106 77.5,-106 77.5,-126"/>
<text text-anchor="middle" x="38.75" y="-112.5" font-family="Helvetica,sans-Serif" font-size="10.00">std::exception</text>
</a>
</g>
</g>
<!-- Node2&#45;&gt;Node1 -->
<g id="edge1" class="edge">
<title>Node2&#45;&gt;Node1</title>
<path fill="none" stroke="#63b8ff" d="M88.63,-116C96.56,-116 104.9,-116 113.17,-116"/>
<polygon fill="#63b8ff" stroke="#63b8ff" points="88.74,-112.5 78.74,-116 88.74,-119.5 88.74,-112.5"/>
</g>
</g>
</svg>
