<?xml version="1.0" encoding="UTF-8" standalone="no"?>
<!DOCTYPE svg PUBLIC "-//W3C//DTD SVG 1.1//EN"
 "http://www.w3.org/Graphics/SVG/1.1/DTD/svg11.dtd">
<!-- Generated by graphviz version 5.0.0 (20220707.1540)
 -->
<!-- Title: nlohmann::basic_json::erase Pages: 1 -->
<svg width="266pt" height="106pt"
 viewBox="0.00 0.00 266.00 106.00" xmlns="http://www.w3.org/2000/svg" xmlns:xlink="http://www.w3.org/1999/xlink">
<g id="graph0" class="graph" transform="scale(1 1) rotate(0) translate(4 102)">
<title>nlohmann::basic_json::erase</title>
<polygon fill="white" stroke="transparent" points="-4,4 -4,-102 262,-102 262,4 -4,4"/>
<!-- Node1 -->
<g id="node1" class="node">
<title>Node1</title>
<g id="a_node1"><a xlink:title="remove element given an iterator">
<polygon fill="#bfbfbf" stroke="black" points="147,-24.5 147,-54.5 258,-54.5 258,-24.5 147,-24.5"/>
<text text-anchor="start" x="155" y="-42.5" font-family="Helvetica,sans-Serif" font-size="10.00">nlohmann::basic_json</text>
<text text-anchor="middle" x="202.5" y="-31.5" font-family="Helvetica,sans-Serif" font-size="10.00">::erase</text>
</a>
</g>
</g>
<!-- Node2 -->
<g id="node2" class="node">
<title>Node2</title>
<g id="a_node2"><a xlink:href="a01593.html#a844a77cb154752d12118f10af26d54cb" target="_top" xlink:title="applies a JSON Merge Patch">
<polygon fill="white" stroke="black" points="0,-49.5 0,-79.5 111,-79.5 111,-49.5 0,-49.5"/>
<text text-anchor="start" x="8" y="-67.5" font-family="Helvetica,sans-Serif" font-size="10.00">nlohmann::basic_json</text>
<text text-anchor="middle" x="55.5" y="-56.5" font-family="Helvetica,sans-Serif" font-size="10.00">::merge_patch</text>
</a>
</g>
</g>
<!-- Node1&#45;&gt;Node2 -->
<g id="edge1" class="edge">
<title>Node1&#45;&gt;Node2</title>
<path fill="none" stroke="midnightblue" d="M136.81,-50.65C128.33,-52.12 119.7,-53.6 111.4,-55.04"/>
<polygon fill="midnightblue" stroke="midnightblue" points="137.42,-54.1 146.68,-48.95 136.23,-47.2 137.42,-54.1"/>
</g>
<!-- Node3 -->
<g id="node3" class="node">
<title>Node3</title>
<g id="a_node3"><a xlink:href="a01593.html#adcc786998f220a5b3083ee8a37c4553e" target="_top" xlink:title="applies a JSON patch">
<polygon fill="white" stroke="black" points="0,-0.5 0,-30.5 111,-30.5 111,-0.5 0,-0.5"/>
<text text-anchor="start" x="8" y="-18.5" font-family="Helvetica,sans-Serif" font-size="10.00">nlohmann::basic_json</text>
<text text-anchor="middle" x="55.5" y="-7.5" font-family="Helvetica,sans-Serif" font-size="10.00">::patch</text>
</a>
</g>
</g>
<!-- Node1&#45;&gt;Node3 -->
<g id="edge3" class="edge">
<title>Node1&#45;&gt;Node3</title>
<path fill="none" stroke="midnightblue" d="M136.81,-28.79C128.33,-27.39 119.7,-25.96 111.4,-24.59"/>
<polygon fill="midnightblue" stroke="midnightblue" points="136.24,-32.25 146.68,-30.43 137.39,-25.34 136.24,-32.25"/>
</g>
<!-- Node2&#45;&gt;Node2 -->
<g id="edge2" class="edge">
<title>Node2&#45;&gt;Node2</title>
<path fill="none" stroke="midnightblue" d="M81.44,-89.96C78.22,-94.68 69.58,-98 55.5,-98 32.4,-98 23.92,-89.06 30.06,-79.66"/>
<polygon fill="midnightblue" stroke="midnightblue" points="84.92,-89.48 80.94,-79.66 77.93,-89.82 84.92,-89.48"/>
</g>
</g>
</svg>
