<?xml version="1.0" encoding="UTF-8" standalone="no"?>
<!DOCTYPE svg PUBLIC "-//W3C//DTD SVG 1.1//EN"
 "http://www.w3.org/Graphics/SVG/1.1/DTD/svg11.dtd">
<!-- Generated by graphviz version 5.0.0 (20220707.1540)
 -->
<!-- Title: nlohmann::json_pointer::split Pages: 1 -->
<svg width="589pt" height="186pt"
 viewBox="0.00 0.00 589.00 186.00" xmlns="http://www.w3.org/2000/svg" xmlns:xlink="http://www.w3.org/1999/xlink">
<g id="graph0" class="graph" transform="scale(1 1) rotate(0) translate(4 182)">
<title>nlohmann::json_pointer::split</title>
<polygon fill="white" stroke="transparent" points="-4,4 -4,-182 585,-182 585,4 -4,4"/>
<!-- Node1 -->
<g id="node1" class="node">
<title>Node1</title>
<g id="a_node1"><a xlink:title="split the string input to reference tokens">
<polygon fill="#bfbfbf" stroke="black" points="0,-48.5 0,-78.5 117,-78.5 117,-48.5 0,-48.5"/>
<text text-anchor="start" x="8" y="-66.5" font-family="Helvetica,sans-Serif" font-size="10.00">nlohmann::json_pointer</text>
<text text-anchor="middle" x="58.5" y="-55.5" font-family="Helvetica,sans-Serif" font-size="10.00">::split</text>
</a>
</g>
</g>
<!-- Node2 -->
<g id="node2" class="node">
<title>Node2</title>
<g id="a_node2"><a xlink:href="a01497.html#a137ea4d27de45d8a844fd13451d40f3d" target="_top" xlink:title="create a parse error exception">
<polygon fill="white" stroke="black" points="153,-85.5 153,-115.5 271,-115.5 271,-85.5 153,-85.5"/>
<text text-anchor="start" x="161" y="-103.5" font-family="Helvetica,sans-Serif" font-size="10.00">nlohmann::detail::parse</text>
<text text-anchor="middle" x="212" y="-92.5" font-family="Helvetica,sans-Serif" font-size="10.00">_error::create</text>
</a>
</g>
</g>
<!-- Node1&#45;&gt;Node2 -->
<g id="edge1" class="edge">
<title>Node1&#45;&gt;Node2</title>
<path fill="none" stroke="midnightblue" d="M117.21,-77.59C125.71,-79.67 134.54,-81.83 143.23,-83.95"/>
<polygon fill="midnightblue" stroke="midnightblue" points="142.41,-87.35 152.95,-86.32 144.07,-80.55 142.41,-87.35"/>
</g>
<!-- Node7 -->
<g id="node7" class="node">
<title>Node7</title>
<g id="a_node7"><a xlink:href="a01597.html#ab85442d5fbcc289b79beeefc2175446f" target="_top" xlink:title="unescape &quot;~1&quot; to tilde and &quot;~0&quot; to slash (order is important!)">
<polygon fill="white" stroke="black" points="153.5,-24.5 153.5,-54.5 270.5,-54.5 270.5,-24.5 153.5,-24.5"/>
<text text-anchor="start" x="161.5" y="-42.5" font-family="Helvetica,sans-Serif" font-size="10.00">nlohmann::json_pointer</text>
<text text-anchor="middle" x="212" y="-31.5" font-family="Helvetica,sans-Serif" font-size="10.00">::unescape</text>
</a>
</g>
</g>
<!-- Node1&#45;&gt;Node7 -->
<g id="edge7" class="edge">
<title>Node1&#45;&gt;Node7</title>
<path fill="none" stroke="midnightblue" d="M117.21,-54.36C125.74,-53.01 134.6,-51.6 143.32,-50.22"/>
<polygon fill="midnightblue" stroke="midnightblue" points="144.12,-53.64 153.45,-48.62 143.03,-46.72 144.12,-53.64"/>
</g>
<!-- Node3 -->
<g id="node3" class="node">
<title>Node3</title>
<g id="a_node3"><a xlink:href="a01497.html#a0ea816ea3521d7109407948cb1b850f7" target="_top" xlink:title=" ">
<polygon fill="white" stroke="black" points="316,-147.5 316,-177.5 434,-177.5 434,-147.5 316,-147.5"/>
<text text-anchor="start" x="324" y="-165.5" font-family="Helvetica,sans-Serif" font-size="10.00">nlohmann::detail::parse</text>
<text text-anchor="middle" x="375" y="-154.5" font-family="Helvetica,sans-Serif" font-size="10.00">_error::parse_error</text>
</a>
</g>
</g>
<!-- Node2&#45;&gt;Node3 -->
<g id="edge2" class="edge">
<title>Node2&#45;&gt;Node3</title>
<path fill="none" stroke="midnightblue" d="M249.47,-115.64C266.83,-122.75 287.92,-131.23 307,-138.5 311.71,-140.3 316.63,-142.13 321.56,-143.94"/>
<polygon fill="midnightblue" stroke="midnightblue" points="320.42,-147.25 331.01,-147.39 322.82,-140.68 320.42,-147.25"/>
</g>
<!-- Node4 -->
<g id="node4" class="node">
<title>Node4</title>
<g id="a_node4"><a xlink:href="a01493.html#abf41a7e9178356314082284e6cfea278" target="_top" xlink:title=" ">
<polygon fill="white" stroke="black" points="307,-98.5 307,-128.5 443,-128.5 443,-98.5 307,-98.5"/>
<text text-anchor="start" x="315" y="-116.5" font-family="Helvetica,sans-Serif" font-size="10.00">nlohmann::detail::exception</text>
<text text-anchor="middle" x="375" y="-105.5" font-family="Helvetica,sans-Serif" font-size="10.00">::name</text>
</a>
</g>
</g>
<!-- Node2&#45;&gt;Node4 -->
<g id="edge3" class="edge">
<title>Node2&#45;&gt;Node4</title>
<path fill="none" stroke="midnightblue" d="M271.12,-105.19C279.48,-105.87 288.18,-106.57 296.83,-107.27"/>
<polygon fill="midnightblue" stroke="midnightblue" points="296.68,-110.77 306.93,-108.08 297.25,-103.79 296.68,-110.77"/>
</g>
<!-- Node6 -->
<g id="node6" class="node">
<title>Node6</title>
<g id="a_node6"><a xlink:href="a01497.html#aefe74adeaa48781464ba2fd2ec63d221" target="_top" xlink:title=" ">
<polygon fill="white" stroke="black" points="316,-49.5 316,-79.5 434,-79.5 434,-49.5 316,-49.5"/>
<text text-anchor="start" x="324" y="-67.5" font-family="Helvetica,sans-Serif" font-size="10.00">nlohmann::detail::parse</text>
<text text-anchor="middle" x="375" y="-56.5" font-family="Helvetica,sans-Serif" font-size="10.00">_error::position_string</text>
</a>
</g>
</g>
<!-- Node2&#45;&gt;Node6 -->
<g id="edge5" class="edge">
<title>Node2&#45;&gt;Node6</title>
<path fill="none" stroke="midnightblue" d="M271.12,-87.5C282.41,-84.98 294.33,-82.31 305.91,-79.73"/>
<polygon fill="midnightblue" stroke="midnightblue" points="306.97,-83.08 315.96,-77.48 305.44,-76.24 306.97,-83.08"/>
</g>
<!-- Node5 -->
<g id="node5" class="node">
<title>Node5</title>
<g id="a_node5"><a xlink:href="a00410.html#a6ce645a0b8717757e096a5b5773b7a16" target="_top" xlink:title="user&#45;defined to_string function for JSON values">
<polygon fill="white" stroke="black" points="479,-79 479,-98 581,-98 581,-79 479,-79"/>
<text text-anchor="middle" x="530" y="-86" font-family="Helvetica,sans-Serif" font-size="10.00">nlohmann::to_string</text>
</a>
</g>
</g>
<!-- Node4&#45;&gt;Node5 -->
<g id="edge4" class="edge">
<title>Node4&#45;&gt;Node5</title>
<path fill="none" stroke="midnightblue" d="M443.11,-102.53C451.67,-101.14 460.39,-99.71 468.84,-98.33"/>
<polygon fill="midnightblue" stroke="midnightblue" points="469.66,-101.74 478.97,-96.68 468.53,-94.83 469.66,-101.74"/>
</g>
<!-- Node6&#45;&gt;Node5 -->
<g id="edge6" class="edge">
<title>Node6&#45;&gt;Node5</title>
<path fill="none" stroke="midnightblue" d="M434.28,-73.64C445.53,-75.41 457.34,-77.26 468.65,-79.03"/>
<polygon fill="midnightblue" stroke="midnightblue" points="468.45,-82.55 478.87,-80.64 469.54,-75.63 468.45,-82.55"/>
</g>
<!-- Node8 -->
<g id="node8" class="node">
<title>Node8</title>
<g id="a_node8"><a xlink:href="a01597.html#aa7649d30da9fc10b0e20704a27aea2a9" target="_top" xlink:title="replace all occurrences of a substring by another string">
<polygon fill="white" stroke="black" points="316.5,-0.5 316.5,-30.5 433.5,-30.5 433.5,-0.5 316.5,-0.5"/>
<text text-anchor="start" x="324.5" y="-18.5" font-family="Helvetica,sans-Serif" font-size="10.00">nlohmann::json_pointer</text>
<text text-anchor="middle" x="375" y="-7.5" font-family="Helvetica,sans-Serif" font-size="10.00">::replace_substring</text>
</a>
</g>
</g>
<!-- Node7&#45;&gt;Node8 -->
<g id="edge8" class="edge">
<title>Node7&#45;&gt;Node8</title>
<path fill="none" stroke="midnightblue" d="M270.67,-30.9C282.3,-29.17 294.63,-27.33 306.56,-25.55"/>
<polygon fill="midnightblue" stroke="midnightblue" points="307.09,-29.01 316.46,-24.08 306.06,-22.09 307.09,-29.01"/>
</g>
</g>
</svg>
