<?xml version="1.0" encoding="UTF-8" standalone="no"?>
<!DOCTYPE svg PUBLIC "-//W3C//DTD SVG 1.1//EN"
 "http://www.w3.org/Graphics/SVG/1.1/DTD/svg11.dtd">
<!-- Generated by graphviz version 8.0.5 (20230430.1635)
 -->
<!-- Title: nlohmann::json_pointer::empty Pages: 1 -->
<svg width="449pt" height="189pt"
 viewBox="0.00 0.00 449.00 188.63" xmlns="http://www.w3.org/2000/svg" xmlns:xlink="http://www.w3.org/1999/xlink">
<g id="graph0" class="graph" transform="scale(1 1) rotate(0) translate(4 184.63)">
<title>nlohmann::json_pointer::empty</title>
<!-- Node1 -->
<g id="node1" class="node">
<title>Node1</title>
<g id="a_node1"><a xlink:title="return whether pointer points to the root document">
<polygon fill="#999999" stroke="#666666" points="441,-98.63 324.5,-98.63 324.5,-66.63 441,-66.63 441,-98.63"/>
<text text-anchor="start" x="332.5" y="-85.13" font-family="Helvetica,sans-Serif" font-size="10.00">nlohmann::json_pointer</text>
<text text-anchor="middle" x="382.75" y="-73.13" font-family="Helvetica,sans-Serif" font-size="10.00">::empty</text>
</a>
</g>
</g>
<!-- Node2 -->
<g id="node2" class="node">
<title>Node2</title>
<g id="a_node2"><a xlink:href="a01597.html#a58b4e4cd3551787d9c20c67ed5b1dfb8" target="_top" xlink:title="return last reference token">
<polygon fill="white" stroke="#666666" points="278.75,-180.63 162.25,-180.63 162.25,-148.63 278.75,-148.63 278.75,-180.63"/>
<text text-anchor="start" x="170.25" y="-167.13" font-family="Helvetica,sans-Serif" font-size="10.00">nlohmann::json_pointer</text>
<text text-anchor="middle" x="220.5" y="-155.13" font-family="Helvetica,sans-Serif" font-size="10.00">::back</text>
</a>
</g>
</g>
<!-- Node1&#45;&gt;Node2 -->
<g id="edge1" class="edge">
<title>Node1&#45;&gt;Node2</title>
<path fill="none" stroke="#63b8ff" d="M344.43,-104.43C327.53,-114.04 307.2,-125.25 288.5,-134.63 279.27,-139.26 269.18,-143.96 259.69,-148.23"/>
<polygon fill="#63b8ff" stroke="#63b8ff" points="346,-106.99 352.94,-98.98 342.52,-100.92 346,-106.99"/>
</g>
<!-- Node3 -->
<g id="node3" class="node">
<title>Node3</title>
<g id="a_node3"><a xlink:href="a01593.html#adcc786998f220a5b3083ee8a37c4553e" target="_top" xlink:title="applies a JSON patch">
<polygon fill="white" stroke="#666666" points="113.5,-117.63 3,-117.63 3,-85.63 113.5,-85.63 113.5,-117.63"/>
<text text-anchor="start" x="11" y="-104.13" font-family="Helvetica,sans-Serif" font-size="10.00">nlohmann::basic_json</text>
<text text-anchor="middle" x="58.25" y="-92.13" font-family="Helvetica,sans-Serif" font-size="10.00">::patch</text>
</a>
</g>
</g>
<!-- Node1&#45;&gt;Node3 -->
<g id="edge4" class="edge">
<title>Node1&#45;&gt;Node3</title>
<path fill="none" stroke="#63b8ff" d="M313.71,-98.14C305.26,-99.58 296.71,-100.8 288.5,-101.63 228.9,-107.64 160.15,-106.59 113.6,-104.69"/>
<polygon fill="#63b8ff" stroke="#63b8ff" points="314.11,-101.44 323.33,-96.21 312.86,-94.55 314.11,-101.44"/>
</g>
<!-- Node4 -->
<g id="node4" class="node">
<title>Node4</title>
<g id="a_node4"><a xlink:href="a01597.html#afdaacce1edb7145e0434e014f0e8685a" target="_top" xlink:title="returns the parent of this JSON pointer">
<polygon fill="white" stroke="#666666" points="116.5,-32.63 0,-32.63 0,-0.63 116.5,-0.63 116.5,-32.63"/>
<text text-anchor="start" x="8" y="-19.13" font-family="Helvetica,sans-Serif" font-size="10.00">nlohmann::json_pointer</text>
<text text-anchor="middle" x="58.25" y="-7.13" font-family="Helvetica,sans-Serif" font-size="10.00">::parent_pointer</text>
</a>
</g>
</g>
<!-- Node1&#45;&gt;Node4 -->
<g id="edge3" class="edge">
<title>Node1&#45;&gt;Node4</title>
<path fill="none" stroke="#63b8ff" d="M358.51,-58.73C340.99,-42.54 315.46,-22.52 288.5,-13.63 232.36,4.88 164.21,0.9 116.88,-5.7"/>
<polygon fill="#63b8ff" stroke="#63b8ff" points="355.78,-60.93 365.43,-65.31 360.62,-55.87 355.78,-60.93"/>
</g>
<!-- Node5 -->
<g id="node5" class="node">
<title>Node5</title>
<g id="a_node5"><a xlink:href="a01597.html#a4b1ee4d511ca195bed896a3da47e264c" target="_top" xlink:title="remove last reference token">
<polygon fill="white" stroke="#666666" points="278.75,-54.63 162.25,-54.63 162.25,-22.63 278.75,-22.63 278.75,-54.63"/>
<text text-anchor="start" x="170.25" y="-41.13" font-family="Helvetica,sans-Serif" font-size="10.00">nlohmann::json_pointer</text>
<text text-anchor="middle" x="220.5" y="-29.13" font-family="Helvetica,sans-Serif" font-size="10.00">::pop_back</text>
</a>
</g>
</g>
<!-- Node1&#45;&gt;Node5 -->
<g id="edge5" class="edge">
<title>Node1&#45;&gt;Node5</title>
<path fill="none" stroke="#63b8ff" d="M313.84,-63.99C302.25,-60.8 290.32,-57.53 279.04,-54.43"/>
<polygon fill="#63b8ff" stroke="#63b8ff" points="312.78,-67.6 323.35,-66.87 314.63,-60.85 312.78,-67.6"/>
</g>
<!-- Node6 -->
<g id="node6" class="node">
<title>Node6</title>
<g id="a_node6"><a xlink:href="a01597.html#a00eff109d9a0091e42ada9b16b90c8d9" target="_top" xlink:title=" ">
<polygon fill="white" stroke="#666666" points="288.5,-92.63 152.5,-92.63 152.5,-72.63 288.5,-72.63 288.5,-92.63"/>
<text text-anchor="middle" x="220.5" y="-79.13" font-family="Helvetica,sans-Serif" font-size="10.00">nlohmann::json_pointer::top</text>
</a>
</g>
</g>
<!-- Node1&#45;&gt;Node6 -->
<g id="edge8" class="edge">
<title>Node1&#45;&gt;Node6</title>
<path fill="none" stroke="#63b8ff" d="M313.4,-82.63C305.28,-82.63 296.99,-82.63 288.88,-82.63"/>
<polygon fill="#63b8ff" stroke="#63b8ff" points="313.35,-86.13 323.35,-82.63 313.35,-79.13 313.35,-86.13"/>
</g>
<!-- Node2&#45;&gt;Node3 -->
<g id="edge2" class="edge">
<title>Node2&#45;&gt;Node3</title>
<path fill="none" stroke="#63b8ff" d="M167.82,-144.31C146.21,-135.82 121.43,-126.08 101,-118.05"/>
<polygon fill="#63b8ff" stroke="#63b8ff" points="166.23,-147.84 176.81,-148.24 168.79,-141.33 166.23,-147.84"/>
</g>
<!-- Node5&#45;&gt;Node3 -->
<g id="edge7" class="edge">
<title>Node5&#45;&gt;Node3</title>
<path fill="none" stroke="#63b8ff" d="M164.57,-58.98C160.48,-60.54 156.42,-62.1 152.5,-63.63 134.75,-70.56 115.21,-78.48 98.62,-85.28"/>
<polygon fill="#63b8ff" stroke="#63b8ff" points="165.63,-61.94 173.74,-55.12 163.15,-55.39 165.63,-61.94"/>
</g>
<!-- Node5&#45;&gt;Node4 -->
<g id="edge6" class="edge">
<title>Node5&#45;&gt;Node4</title>
<path fill="none" stroke="#63b8ff" d="M151.23,-29.26C139.76,-27.68 127.96,-26.06 116.79,-24.53"/>
<polygon fill="#63b8ff" stroke="#63b8ff" points="150.72,-32.86 161.1,-30.75 151.67,-25.92 150.72,-32.86"/>
</g>
<!-- Node6&#45;&gt;Node3 -->
<g id="edge9" class="edge">
<title>Node6&#45;&gt;Node3</title>
<path fill="none" stroke="#63b8ff" d="M141.1,-91.93C131.78,-93.03 122.42,-94.14 113.54,-95.19"/>
<polygon fill="#63b8ff" stroke="#63b8ff" points="141.49,-95.29 151,-90.63 140.66,-88.34 141.49,-95.29"/>
</g>
</g>
</svg>
