<?xml version="1.0" encoding="UTF-8" standalone="no"?>
<!DOCTYPE svg PUBLIC "-//W3C//DTD SVG 1.1//EN"
 "http://www.w3.org/Graphics/SVG/1.1/DTD/svg11.dtd">
<!-- Generated by graphviz version 8.0.5 (20230430.1635)
 -->
<!-- Title: nlohmann::basic_json::value Pages: 1 -->
<svg width="273pt" height="90pt"
 viewBox="0.00 0.00 272.50 90.00" xmlns="http://www.w3.org/2000/svg" xmlns:xlink="http://www.w3.org/1999/xlink">
<g id="graph0" class="graph" transform="scale(1 1) rotate(0) translate(4 86)">
<title>nlohmann::basic_json::value</title>
<!-- Node1 -->
<g id="node1" class="node">
<title>Node1</title>
<g id="a_node1"><a xlink:title="access specified object element with default value">
<polygon fill="#999999" stroke="#666666" points="264.5,-57 154,-57 154,-25 264.5,-25 264.5,-57"/>
<text text-anchor="start" x="162" y="-43.5" font-family="Helvetica,sans-Serif" font-size="10.00">nlohmann::basic_json</text>
<text text-anchor="middle" x="209.25" y="-31.5" font-family="Helvetica,sans-Serif" font-size="10.00">::value</text>
</a>
</g>
</g>
<!-- Node2 -->
<g id="node2" class="node">
<title>Node2</title>
<g id="a_node2"><a xlink:href="a01993.html#ad7f122fa9bfc5aa4d9b65a3059892146" target="_top" xlink:title="constructor for strings">
<polygon fill="white" stroke="#666666" points="118,-82 0,-82 0,-50 118,-50 118,-82"/>
<text text-anchor="start" x="8" y="-68.5" font-family="Helvetica,sans-Serif" font-size="10.00">nlohmann::basic_json</text>
<text text-anchor="middle" x="59" y="-56.5" font-family="Helvetica,sans-Serif" font-size="10.00">::json_value::json_value</text>
</a>
</g>
</g>
<!-- Node1&#45;&gt;Node2 -->
<g id="edge1" class="edge">
<title>Node1&#45;&gt;Node2</title>
<path fill="none" stroke="#63b8ff" d="M143.16,-51.98C134.9,-53.37 126.49,-54.79 118.35,-56.16"/>
<polygon fill="#63b8ff" stroke="#63b8ff" points="143.61,-55.28 152.89,-50.17 142.45,-48.38 143.61,-55.28"/>
</g>
<!-- Node3 -->
<g id="node3" class="node">
<title>Node3</title>
<g id="a_node3"><a xlink:href="a01593.html#adcfdefe95d5c2471a5c97e911d46ee88" target="_top" xlink:title="overload for a default value of type const char*">
<polygon fill="white" stroke="#666666" points="114.25,-32 3.75,-32 3.75,0 114.25,0 114.25,-32"/>
<text text-anchor="start" x="11.75" y="-18.5" font-family="Helvetica,sans-Serif" font-size="10.00">nlohmann::basic_json</text>
<text text-anchor="middle" x="59" y="-6.5" font-family="Helvetica,sans-Serif" font-size="10.00">::value</text>
</a>
</g>
</g>
<!-- Node1&#45;&gt;Node3 -->
<g id="edge2" class="edge">
<title>Node1&#45;&gt;Node3</title>
<path fill="none" stroke="#63b8ff" d="M143.16,-30.02C133.54,-28.4 123.72,-26.75 114.35,-25.17"/>
<polygon fill="#63b8ff" stroke="#63b8ff" points="142.45,-33.62 152.89,-31.83 143.61,-26.72 142.45,-33.62"/>
</g>
</g>
</svg>
