<?xml version="1.0" encoding="UTF-8" standalone="no"?>
<!DOCTYPE svg PUBLIC "-//W3C//DTD SVG 1.1//EN"
 "http://www.w3.org/Graphics/SVG/1.1/DTD/svg11.dtd">
<!-- Generated by graphviz version 4.0.0 (20220529.0937)
 -->
<!-- Title: nlohmann::basic_json::parser Pages: 1 -->
<svg width="385pt" height="137pt"
 viewBox="0.00 0.00 385.00 137.00" xmlns="http://www.w3.org/2000/svg" xmlns:xlink="http://www.w3.org/1999/xlink">
<g id="graph0" class="graph" transform="scale(1 1) rotate(0) translate(4 133)">
<title>nlohmann::basic_json::parser</title>
<polygon fill="white" stroke="transparent" points="-4,4 -4,-133 381,-133 381,4 -4,4"/>
<!-- Node1 -->
<g id="node1" class="node">
<title>Node1</title>
<g id="a_node1"><a xlink:title=" ">
<polygon fill="#bfbfbf" stroke="black" points="266,-49.5 266,-79.5 377,-79.5 377,-49.5 266,-49.5"/>
<text text-anchor="start" x="274" y="-67.5" font-family="Helvetica,sans-Serif" font-size="10.00">nlohmann::basic_json</text>
<text text-anchor="middle" x="321.5" y="-56.5" font-family="Helvetica,sans-Serif" font-size="10.00">::parser</text>
</a>
</g>
</g>
<!-- Node2 -->
<g id="node2" class="node">
<title>Node2</title>
<g id="a_node2"><a xlink:href="a01593.html#a32872afe5bfd040777e3e2bb85f0ca55" target="_top" xlink:title="check if the input is valid JSON">
<polygon fill="white" stroke="black" points="119,-98.5 119,-128.5 230,-128.5 230,-98.5 119,-98.5"/>
<text text-anchor="start" x="127" y="-116.5" font-family="Helvetica,sans-Serif" font-size="10.00">nlohmann::basic_json</text>
<text text-anchor="middle" x="174.5" y="-105.5" font-family="Helvetica,sans-Serif" font-size="10.00">::accept</text>
</a>
</g>
</g>
<!-- Node1&#45;&gt;Node2 -->
<g id="edge1" class="edge">
<title>Node1&#45;&gt;Node2</title>
<path fill="none" stroke="midnightblue" d="M266.08,-82.89C250.98,-87.99 234.77,-93.47 220.29,-98.36"/>
<polygon fill="midnightblue" stroke="midnightblue" points="267.46,-86.12 275.81,-79.6 265.22,-79.49 267.46,-86.12"/>
</g>
<!-- Node3 -->
<g id="node3" class="node">
<title>Node3</title>
<g id="a_node3"><a xlink:href="a01593.html#a15018ade392a844ea32d5188d1a0b9c6" target="_top" xlink:title="deserialize from a compatible input">
<polygon fill="white" stroke="black" points="119,-49.5 119,-79.5 230,-79.5 230,-49.5 119,-49.5"/>
<text text-anchor="start" x="127" y="-67.5" font-family="Helvetica,sans-Serif" font-size="10.00">nlohmann::basic_json</text>
<text text-anchor="middle" x="174.5" y="-56.5" font-family="Helvetica,sans-Serif" font-size="10.00">::parse</text>
</a>
</g>
</g>
<!-- Node1&#45;&gt;Node3 -->
<g id="edge2" class="edge">
<title>Node1&#45;&gt;Node3</title>
<path fill="none" stroke="midnightblue" d="M255.54,-64.5C247.14,-64.5 238.61,-64.5 230.4,-64.5"/>
<polygon fill="midnightblue" stroke="midnightblue" points="255.68,-68 265.68,-64.5 255.68,-61 255.68,-68"/>
</g>
<!-- Node5 -->
<g id="node5" class="node">
<title>Node5</title>
<g id="a_node5"><a xlink:href="a01593.html#a12b382c6407da5543827ce4b24bb5008" target="_top" xlink:title="generate SAX events">
<polygon fill="white" stroke="black" points="119,-0.5 119,-30.5 230,-30.5 230,-0.5 119,-0.5"/>
<text text-anchor="start" x="127" y="-18.5" font-family="Helvetica,sans-Serif" font-size="10.00">nlohmann::basic_json</text>
<text text-anchor="middle" x="174.5" y="-7.5" font-family="Helvetica,sans-Serif" font-size="10.00">::sax_parse</text>
</a>
</g>
</g>
<!-- Node1&#45;&gt;Node5 -->
<g id="edge4" class="edge">
<title>Node1&#45;&gt;Node5</title>
<path fill="none" stroke="midnightblue" d="M266.08,-46.11C250.98,-41.01 234.77,-35.53 220.29,-30.64"/>
<polygon fill="midnightblue" stroke="midnightblue" points="265.22,-49.51 275.81,-49.4 267.46,-42.88 265.22,-49.51"/>
</g>
<!-- Node4 -->
<g id="node4" class="node">
<title>Node4</title>
<g id="a_node4"><a xlink:href="a00206.html#ae90d59ab420a183cd5fb8588bdc95e06" target="_top" xlink:title="user&#45;defined string literal for JSON values">
<polygon fill="white" stroke="black" points="0,-55 0,-74 83,-74 83,-55 0,-55"/>
<text text-anchor="middle" x="41.5" y="-62" font-family="Helvetica,sans-Serif" font-size="10.00">operator&quot;&quot;_json</text>
</a>
</g>
</g>
<!-- Node3&#45;&gt;Node4 -->
<g id="edge3" class="edge">
<title>Node3&#45;&gt;Node4</title>
<path fill="none" stroke="midnightblue" d="M108.57,-64.5C99.9,-64.5 91.21,-64.5 83.12,-64.5"/>
<polygon fill="midnightblue" stroke="midnightblue" points="108.7,-68 118.7,-64.5 108.7,-61 108.7,-68"/>
</g>
</g>
</svg>
