<?xml version="1.0" encoding="UTF-8" standalone="no"?>
<!DOCTYPE svg PUBLIC "-//W3C//DTD SVG 1.1//EN"
 "http://www.w3.org/Graphics/SVG/1.1/DTD/svg11.dtd">
<!-- Generated by graphviz version 7.0.2 (20221119.0110)
 -->
<!-- Title: nlohmann::basic_json::is_array Pages: 1 -->
<svg width="427pt" height="516pt"
 viewBox="0.00 0.00 427.00 515.50" xmlns="http://www.w3.org/2000/svg" xmlns:xlink="http://www.w3.org/1999/xlink">
<g id="graph0" class="graph" transform="scale(1 1) rotate(0) translate(4 511.5)">
<title>nlohmann::basic_json::is_array</title>
<!-- Node1 -->
<g id="node1" class="node">
<title>Node1</title>
<g id="a_node1"><a xlink:title="return whether value is an array">
<polygon fill="#999999" stroke="#666666" points="419,-270 308,-270 308,-240 419,-240 419,-270"/>
<text text-anchor="start" x="316" y="-258" font-family="Helvetica,sans-Serif" font-size="10.00">nlohmann::basic_json</text>
<text text-anchor="middle" x="363.5" y="-247" font-family="Helvetica,sans-Serif" font-size="10.00">::is_array</text>
</a>
</g>
</g>
<!-- Node2 -->
<g id="node2" class="node">
<title>Node2</title>
<g id="a_node2"><a xlink:href="a01593.html#a52b18a5b7e68652c65b070900c438c6e" target="_top" xlink:title="access specified array element with bounds checking">
<polygon fill="white" stroke="#666666" points="272,-507.5 147,-507.5 147,-488.5 272,-488.5 272,-507.5"/>
<text text-anchor="middle" x="209.5" y="-495.5" font-family="Helvetica,sans-Serif" font-size="10.00">nlohmann::basic_json::at</text>
</a>
</g>
</g>
<!-- Node1&#45;&gt;Node2 -->
<g id="edge1" class="edge">
<title>Node1&#45;&gt;Node2</title>
<path fill="none" stroke="#63b8ff" d="M358.46,-281.51C350.21,-326.89 327.3,-419.79 272,-474 265.78,-480.1 257.83,-484.69 249.73,-488.13"/>
<polygon fill="#63b8ff" stroke="#63b8ff" points="361.89,-282.23 360.12,-271.79 354.99,-281.06 361.89,-282.23"/>
</g>
<!-- Node3 -->
<g id="node3" class="node">
<title>Node3</title>
<g id="a_node3"><a xlink:href="a01593.html#adcc786998f220a5b3083ee8a37c4553e" target="_top" xlink:title="applies a JSON patch">
<polygon fill="white" stroke="#666666" points="111,-505 0,-505 0,-475 111,-475 111,-505"/>
<text text-anchor="start" x="8" y="-493" font-family="Helvetica,sans-Serif" font-size="10.00">nlohmann::basic_json</text>
<text text-anchor="middle" x="55.5" y="-482" font-family="Helvetica,sans-Serif" font-size="10.00">::patch</text>
</a>
</g>
</g>
<!-- Node1&#45;&gt;Node3 -->
<g id="edge18" class="edge">
<title>Node1&#45;&gt;Node3</title>
<path fill="none" stroke="#63b8ff" d="M357.25,-281.48C347.73,-322.27 323.61,-400.05 272,-441 247.5,-460.44 166.84,-474.99 111.46,-482.99"/>
<polygon fill="#63b8ff" stroke="#63b8ff" points="360.65,-282.31 359.38,-271.8 353.81,-280.81 360.65,-282.31"/>
</g>
<!-- Node4 -->
<g id="node4" class="node">
<title>Node4</title>
<g id="a_node4"><a xlink:href="a01993.html#a34d4ecf420c2752268b9b24829cdd393" target="_top" xlink:title=" ">
<polygon fill="white" stroke="#666666" points="265,-318 154,-318 154,-288 265,-288 265,-318"/>
<text text-anchor="start" x="162" y="-306" font-family="Helvetica,sans-Serif" font-size="10.00">nlohmann::basic_json</text>
<text text-anchor="middle" x="209.5" y="-295" font-family="Helvetica,sans-Serif" font-size="10.00">::json_value::destroy</text>
</a>
</g>
</g>
<!-- Node1&#45;&gt;Node4 -->
<g id="edge3" class="edge">
<title>Node1&#45;&gt;Node4</title>
<path fill="none" stroke="#63b8ff" d="M302.76,-273.87C288.37,-278.41 273.16,-283.21 259.34,-287.58"/>
<polygon fill="#63b8ff" stroke="#63b8ff" points="303.64,-277.26 312.13,-270.91 301.54,-270.58 303.64,-277.26"/>
</g>
<!-- Node6 -->
<g id="node6" class="node">
<title>Node6</title>
<g id="a_node6"><a xlink:href="a01593.html#a15c0a5db4fb12d49433801bbe6436bfb" target="_top" xlink:title="add an object to an array">
<polygon fill="white" stroke="#666666" points="265,-270 154,-270 154,-240 265,-240 265,-270"/>
<text text-anchor="start" x="162" y="-258" font-family="Helvetica,sans-Serif" font-size="10.00">nlohmann::basic_json</text>
<text text-anchor="middle" x="209.5" y="-247" font-family="Helvetica,sans-Serif" font-size="10.00">::emplace_back</text>
</a>
</g>
</g>
<!-- Node1&#45;&gt;Node6 -->
<g id="edge6" class="edge">
<title>Node1&#45;&gt;Node6</title>
<path fill="none" stroke="#63b8ff" d="M296.14,-255C285.84,-255 275.3,-255 265.29,-255"/>
<polygon fill="#63b8ff" stroke="#63b8ff" points="296.11,-258.5 306.11,-255 296.11,-251.5 296.11,-258.5"/>
</g>
<!-- Node7 -->
<g id="node7" class="node">
<title>Node7</title>
<g id="a_node7"><a xlink:href="a01593.html#a221b943d3228488c14225e55f726cc26" target="_top" xlink:title="remove element from a JSON array given an index">
<polygon fill="white" stroke="#666666" points="265,-222 154,-222 154,-192 265,-192 265,-222"/>
<text text-anchor="start" x="162" y="-210" font-family="Helvetica,sans-Serif" font-size="10.00">nlohmann::basic_json</text>
<text text-anchor="middle" x="209.5" y="-199" font-family="Helvetica,sans-Serif" font-size="10.00">::erase</text>
</a>
</g>
</g>
<!-- Node1&#45;&gt;Node7 -->
<g id="edge7" class="edge">
<title>Node1&#45;&gt;Node7</title>
<path fill="none" stroke="#63b8ff" d="M302.76,-236.13C288.37,-231.59 273.16,-226.79 259.34,-222.42"/>
<polygon fill="#63b8ff" stroke="#63b8ff" points="301.54,-239.42 312.13,-239.09 303.64,-232.74 301.54,-239.42"/>
</g>
<!-- Node8 -->
<g id="node8" class="node">
<title>Node8</title>
<g id="a_node8"><a xlink:href="a01593.html#a0192ec4b7c513a857215e5fa4323690a" target="_top" xlink:title="get a pointer to the value (array)">
<polygon fill="white" stroke="#666666" points="265,-174 154,-174 154,-144 265,-144 265,-174"/>
<text text-anchor="start" x="162" y="-162" font-family="Helvetica,sans-Serif" font-size="10.00">nlohmann::basic_json</text>
<text text-anchor="middle" x="209.5" y="-151" font-family="Helvetica,sans-Serif" font-size="10.00">::get_impl_ptr</text>
</a>
</g>
</g>
<!-- Node1&#45;&gt;Node8 -->
<g id="edge8" class="edge">
<title>Node1&#45;&gt;Node8</title>
<path fill="none" stroke="#63b8ff" d="M337.83,-232C320.42,-216.65 296.01,-196.81 272,-183 266.64,-179.91 260.8,-177.06 254.92,-174.48"/>
<polygon fill="#63b8ff" stroke="#63b8ff" points="335.35,-234.48 345.13,-238.56 340.03,-229.27 335.35,-234.48"/>
</g>
<!-- Node9 -->
<g id="node9" class="node">
<title>Node9</title>
<g id="a_node9"><a xlink:href="a01593.html#aeb86e8478e20d95970a8b61ff01dce3b" target="_top" xlink:title="inserts element">
<polygon fill="white" stroke="#666666" points="265,-432 154,-432 154,-402 265,-402 265,-432"/>
<text text-anchor="start" x="162" y="-420" font-family="Helvetica,sans-Serif" font-size="10.00">nlohmann::basic_json</text>
<text text-anchor="middle" x="209.5" y="-409" font-family="Helvetica,sans-Serif" font-size="10.00">::insert</text>
</a>
</g>
</g>
<!-- Node1&#45;&gt;Node9 -->
<g id="edge9" class="edge">
<title>Node1&#45;&gt;Node9</title>
<path fill="none" stroke="#63b8ff" d="M351.78,-280.33C337.65,-310.94 310.06,-362.15 272,-393 267.99,-396.25 263.5,-399.1 258.8,-401.58"/>
<polygon fill="#63b8ff" stroke="#63b8ff" points="354.87,-282.01 355.75,-271.45 348.48,-279.15 354.87,-282.01"/>
</g>
<!-- Node12 -->
<g id="node12" class="node">
<title>Node12</title>
<g id="a_node12"><a xlink:href="a01593.html#a4e05a7d5deec758f1d830741b68b4249" target="_top" xlink:title="return whether type is structured">
<polygon fill="white" stroke="#666666" points="265,-126 154,-126 154,-96 265,-96 265,-126"/>
<text text-anchor="start" x="162" y="-114" font-family="Helvetica,sans-Serif" font-size="10.00">nlohmann::basic_json</text>
<text text-anchor="middle" x="209.5" y="-103" font-family="Helvetica,sans-Serif" font-size="10.00">::is_structured</text>
</a>
</g>
</g>
<!-- Node1&#45;&gt;Node12 -->
<g id="edge14" class="edge">
<title>Node1&#45;&gt;Node12</title>
<path fill="none" stroke="#63b8ff" d="M349.11,-229.76C333.73,-202.93 306.15,-160.87 272,-135 267.71,-131.75 262.92,-128.88 257.96,-126.37"/>
<polygon fill="#63b8ff" stroke="#63b8ff" points="345.91,-231.21 353.84,-238.24 352.03,-227.8 345.91,-231.21"/>
</g>
<!-- Node13 -->
<g id="node13" class="node">
<title>Node13</title>
<g id="a_node13"><a xlink:href="a01593.html#a9ea67fc1ef0ccc42e1d5388fe0416ae5" target="_top" xlink:title="access specified array element">
<polygon fill="white" stroke="#666666" points="265,-78 154,-78 154,-48 265,-48 265,-78"/>
<text text-anchor="start" x="162" y="-66" font-family="Helvetica,sans-Serif" font-size="10.00">nlohmann::basic_json</text>
<text text-anchor="middle" x="209.5" y="-55" font-family="Helvetica,sans-Serif" font-size="10.00">::operator[]</text>
</a>
</g>
</g>
<!-- Node1&#45;&gt;Node13 -->
<g id="edge15" class="edge">
<title>Node1&#45;&gt;Node13</title>
<path fill="none" stroke="#63b8ff" d="M354.85,-229.01C342.86,-192.53 316.33,-126.22 272,-87 268.31,-83.73 264.12,-80.89 259.71,-78.41"/>
<polygon fill="#63b8ff" stroke="#63b8ff" points="351.43,-229.8 357.78,-238.29 358.11,-227.7 351.43,-229.8"/>
</g>
<!-- Node15 -->
<g id="node15" class="node">
<title>Node15</title>
<g id="a_node15"><a xlink:href="a01593.html#ab9e0253c92736db021840105d374c4c4" target="_top" xlink:title="add an object to an array">
<polygon fill="white" stroke="#666666" points="265,-384 154,-384 154,-354 265,-354 265,-384"/>
<text text-anchor="start" x="162" y="-372" font-family="Helvetica,sans-Serif" font-size="10.00">nlohmann::basic_json</text>
<text text-anchor="middle" x="209.5" y="-361" font-family="Helvetica,sans-Serif" font-size="10.00">::push_back</text>
</a>
</g>
</g>
<!-- Node1&#45;&gt;Node15 -->
<g id="edge19" class="edge">
<title>Node1&#45;&gt;Node15</title>
<path fill="none" stroke="#63b8ff" d="M343.2,-279.1C326.21,-299 299.89,-326.83 272,-345 267.1,-348.19 261.72,-351.06 256.23,-353.62"/>
<polygon fill="#63b8ff" stroke="#63b8ff" points="345.84,-281.39 349.57,-271.47 340.47,-276.9 345.84,-281.39"/>
</g>
<!-- Node18 -->
<g id="node18" class="node">
<title>Node18</title>
<g id="a_node18"><a xlink:href="a01593.html#a76126242de262f6d38cadda19e0d13e1" target="_top" xlink:title="exchanges the values">
<polygon fill="white" stroke="#666666" points="265,-30 154,-30 154,0 265,0 265,-30"/>
<text text-anchor="start" x="162" y="-18" font-family="Helvetica,sans-Serif" font-size="10.00">nlohmann::basic_json</text>
<text text-anchor="middle" x="209.5" y="-7" font-family="Helvetica,sans-Serif" font-size="10.00">::swap</text>
</a>
</g>
</g>
<!-- Node1&#45;&gt;Node18 -->
<g id="edge24" class="edge">
<title>Node1&#45;&gt;Node18</title>
<path fill="none" stroke="#63b8ff" d="M358.29,-228.52C349.82,-183.64 326.65,-92.32 272,-39 268.64,-35.72 264.77,-32.87 260.66,-30.41"/>
<polygon fill="#63b8ff" stroke="#63b8ff" points="354.8,-228.9 359.99,-238.14 361.69,-227.68 354.8,-228.9"/>
</g>
<!-- Node2&#45;&gt;Node3 -->
<g id="edge2" class="edge">
<title>Node2&#45;&gt;Node3</title>
<path fill="none" stroke="#63b8ff" d="M135.36,-494.15C127.3,-493.73 119.21,-493.3 111.43,-492.89"/>
<polygon fill="#63b8ff" stroke="#63b8ff" points="134.99,-497.64 145.16,-494.67 135.36,-490.65 134.99,-497.64"/>
</g>
<!-- Node4&#45;&gt;Node4 -->
<g id="edge5" class="edge">
<title>Node4&#45;&gt;Node4</title>
<path fill="none" stroke="#63b8ff" d="M235.48,-329.61C231.32,-333.43 222.66,-336 209.5,-336 185.44,-336 176.41,-327.41 182.43,-318.28"/>
<polygon fill="#63b8ff" stroke="#63b8ff" points="238.96,-330.07 236.43,-319.78 231.99,-329.4 238.96,-330.07"/>
</g>
<!-- Node5 -->
<g id="node5" class="node">
<title>Node5</title>
<g id="a_node5"><a xlink:href="a01593.html#a60b643c02a19fa52f99db8215ff58e0f" target="_top" xlink:title="destructor">
<polygon fill="white" stroke="#666666" points="111,-247 0,-247 0,-217 111,-217 111,-247"/>
<text text-anchor="start" x="8" y="-235" font-family="Helvetica,sans-Serif" font-size="10.00">nlohmann::basic_json</text>
<text text-anchor="middle" x="55.5" y="-224" font-family="Helvetica,sans-Serif" font-size="10.00">::~basic_json</text>
</a>
</g>
</g>
<!-- Node4&#45;&gt;Node5 -->
<g id="edge4" class="edge">
<title>Node4&#45;&gt;Node5</title>
<path fill="none" stroke="#63b8ff" d="M155.3,-283C152.47,-281.7 149.69,-280.36 147,-279 130.07,-270.4 127.74,-264.96 111,-256 105.44,-253.02 99.44,-250.1 93.51,-247.38"/>
<polygon fill="#63b8ff" stroke="#63b8ff" points="153.72,-286.14 164.29,-286.94 156.53,-279.72 153.72,-286.14"/>
</g>
<!-- Node9&#45;&gt;Node3 -->
<g id="edge13" class="edge">
<title>Node9&#45;&gt;Node3</title>
<path fill="none" stroke="#63b8ff" d="M164.8,-437.17C158.79,-440.07 152.72,-443.07 147,-446 130.71,-454.35 127.39,-457.86 111,-466 105.17,-468.9 98.9,-471.82 92.78,-474.59"/>
<polygon fill="#63b8ff" stroke="#63b8ff" points="165.9,-440.52 173.42,-433.05 162.89,-434.2 165.9,-440.52"/>
</g>
<!-- Node10 -->
<g id="node10" class="node">
<title>Node10</title>
<g id="a_node10"><a xlink:href="a01593.html#a1c1f21327df91a4dd6c5f5a107240385" target="_top" xlink:title="creates a diff as a JSON patch">
<polygon fill="white" stroke="#666666" points="111,-391 0,-391 0,-361 111,-361 111,-391"/>
<text text-anchor="start" x="8" y="-379" font-family="Helvetica,sans-Serif" font-size="10.00">nlohmann::basic_json</text>
<text text-anchor="middle" x="55.5" y="-368" font-family="Helvetica,sans-Serif" font-size="10.00">::diff</text>
</a>
</g>
</g>
<!-- Node9&#45;&gt;Node10 -->
<g id="edge10" class="edge">
<title>Node9&#45;&gt;Node10</title>
<path fill="none" stroke="#63b8ff" d="M142.8,-399.28C132.29,-396.44 121.52,-393.54 111.29,-390.78"/>
<polygon fill="#63b8ff" stroke="#63b8ff" points="141.6,-402.58 152.16,-401.8 143.42,-395.82 141.6,-402.58"/>
</g>
<!-- Node11 -->
<g id="node11" class="node">
<title>Node11</title>
<g id="a_node11"><a xlink:href="a01593.html#a9c5b9de8a4a759861cb600b38a6c81b1" target="_top" xlink:title="inserts element">
<polygon fill="white" stroke="#666666" points="111,-457 0,-457 0,-427 111,-427 111,-457"/>
<text text-anchor="start" x="8" y="-445" font-family="Helvetica,sans-Serif" font-size="10.00">nlohmann::basic_json</text>
<text text-anchor="middle" x="55.5" y="-434" font-family="Helvetica,sans-Serif" font-size="10.00">::insert</text>
</a>
</g>
</g>
<!-- Node9&#45;&gt;Node11 -->
<g id="edge12" class="edge">
<title>Node9&#45;&gt;Node11</title>
<path fill="none" stroke="#63b8ff" d="M142.47,-427.86C132.07,-429.57 121.41,-431.32 111.29,-432.99"/>
<polygon fill="#63b8ff" stroke="#63b8ff" points="142.83,-431.35 152.13,-426.27 141.7,-424.44 142.83,-431.35"/>
</g>
<!-- Node10&#45;&gt;Node10 -->
<g id="edge11" class="edge">
<title>Node10&#45;&gt;Node10</title>
<path fill="none" stroke="#63b8ff" d="M81.48,-402.61C77.32,-406.43 68.66,-409 55.5,-409 31.44,-409 22.41,-400.41 28.43,-391.28"/>
<polygon fill="#63b8ff" stroke="#63b8ff" points="84.96,-403.07 82.43,-392.78 77.99,-402.4 84.96,-403.07"/>
</g>
<!-- Node14 -->
<g id="node14" class="node">
<title>Node14</title>
<g id="a_node14"><a xlink:href="a01593.html#a844a77cb154752d12118f10af26d54cb" target="_top" xlink:title="applies a JSON Merge Patch">
<polygon fill="white" stroke="#666666" points="111,-78 0,-78 0,-48 111,-48 111,-78"/>
<text text-anchor="start" x="8" y="-66" font-family="Helvetica,sans-Serif" font-size="10.00">nlohmann::basic_json</text>
<text text-anchor="middle" x="55.5" y="-55" font-family="Helvetica,sans-Serif" font-size="10.00">::merge_patch</text>
</a>
</g>
</g>
<!-- Node13&#45;&gt;Node14 -->
<g id="edge16" class="edge">
<title>Node13&#45;&gt;Node14</title>
<path fill="none" stroke="#63b8ff" d="M142.14,-63C131.84,-63 121.3,-63 111.29,-63"/>
<polygon fill="#63b8ff" stroke="#63b8ff" points="142.11,-66.5 152.11,-63 142.11,-59.5 142.11,-66.5"/>
</g>
<!-- Node14&#45;&gt;Node14 -->
<g id="edge17" class="edge">
<title>Node14&#45;&gt;Node14</title>
<path fill="none" stroke="#63b8ff" d="M81.48,-89.61C77.32,-93.43 68.66,-96 55.5,-96 31.44,-96 22.41,-87.41 28.43,-78.28"/>
<polygon fill="#63b8ff" stroke="#63b8ff" points="84.96,-90.07 82.43,-79.78 77.99,-89.4 84.96,-90.07"/>
</g>
<!-- Node15&#45;&gt;Node3 -->
<g id="edge22" class="edge">
<title>Node15&#45;&gt;Node3</title>
<path fill="none" stroke="#63b8ff" d="M149.4,-390.92C148.58,-391.6 147.78,-392.29 147,-393 120.34,-417.46 137.13,-440.98 111,-466 107.64,-469.22 103.78,-472.05 99.69,-474.52"/>
<polygon fill="#63b8ff" stroke="#63b8ff" points="151.33,-393.84 157.61,-385.31 147.38,-388.06 151.33,-393.84"/>
</g>
<!-- Node15&#45;&gt;Node10 -->
<g id="edge20" class="edge">
<title>Node15&#45;&gt;Node10</title>
<path fill="none" stroke="#63b8ff" d="M142.14,-372.06C131.84,-372.53 121.3,-373.02 111.29,-373.48"/>
<polygon fill="#63b8ff" stroke="#63b8ff" points="142.28,-375.55 152.11,-371.6 141.96,-368.56 142.28,-375.55"/>
</g>
<!-- Node16 -->
<g id="node16" class="node">
<title>Node16</title>
<g id="a_node16"><a xlink:href="a01593.html#a40226d9c84fcb9cb948ae0c27b842c57" target="_top" xlink:title="add an object to an array">
<polygon fill="white" stroke="#666666" points="111,-295 0,-295 0,-265 111,-265 111,-295"/>
<text text-anchor="start" x="8" y="-283" font-family="Helvetica,sans-Serif" font-size="10.00">nlohmann::basic_json</text>
<text text-anchor="middle" x="55.5" y="-272" font-family="Helvetica,sans-Serif" font-size="10.00">::operator+=</text>
</a>
</g>
</g>
<!-- Node15&#45;&gt;Node16 -->
<g id="edge21" class="edge">
<title>Node15&#45;&gt;Node16</title>
<path fill="none" stroke="#63b8ff" d="M151.9,-348.2C150.22,-347.17 148.58,-346.11 147,-345 127.14,-331.09 130.56,-318.34 111,-304 106.66,-300.82 101.84,-297.94 96.91,-295.38"/>
<polygon fill="#63b8ff" stroke="#63b8ff" points="150.13,-351.22 160.59,-352.9 153.46,-345.06 150.13,-351.22"/>
</g>
<!-- Node17 -->
<g id="node17" class="node">
<title>Node17</title>
<g id="a_node17"><a xlink:href="a01593.html#a4567cf75f19b1efca090f75d7a8a350a" target="_top" xlink:title="add an object to an object">
<polygon fill="white" stroke="#666666" points="111,-343 0,-343 0,-313 111,-313 111,-343"/>
<text text-anchor="start" x="8" y="-331" font-family="Helvetica,sans-Serif" font-size="10.00">nlohmann::basic_json</text>
<text text-anchor="middle" x="55.5" y="-320" font-family="Helvetica,sans-Serif" font-size="10.00">::push_back</text>
</a>
</g>
</g>
<!-- Node15&#45;&gt;Node17 -->
<g id="edge23" class="edge">
<title>Node15&#45;&gt;Node17</title>
<path fill="none" stroke="#63b8ff" d="M142.8,-351.28C132.29,-348.44 121.52,-345.54 111.29,-342.78"/>
<polygon fill="#63b8ff" stroke="#63b8ff" points="141.6,-354.58 152.16,-353.8 143.42,-347.82 141.6,-354.58"/>
</g>
</g>
</svg>
