<?xml version="1.0" encoding="UTF-8" standalone="no"?>
<!DOCTYPE svg PUBLIC "-//W3C//DTD SVG 1.1//EN"
 "http://www.w3.org/Graphics/SVG/1.1/DTD/svg11.dtd">
<!-- Generated by graphviz version 2.43.0 (0)
 -->
<!-- Title: nlohmann::json_pointer&lt; BasicJsonType &gt; Pages: 1 -->
<svg width="166pt" height="241pt"
 viewBox="0.00 0.00 166.00 241.00" xmlns="http://www.w3.org/2000/svg" xmlns:xlink="http://www.w3.org/1999/xlink">
<g id="graph0" class="graph" transform="scale(1 1) rotate(0) translate(4 237)">
<title>nlohmann::json_pointer&lt; BasicJsonType &gt;</title>
<polygon fill="white" stroke="transparent" points="-4,4 -4,-237 162,-237 162,4 -4,4"/>
<!-- Node1 -->
<g id="node1" class="node">
<title>Node1</title>
<g id="a_node1"><a xlink:title="JSON Pointer.">
<polygon fill="#bfbfbf" stroke="black" points="4.5,-0.5 4.5,-30.5 135.5,-30.5 135.5,-0.5 4.5,-0.5"/>
<text text-anchor="start" x="12.5" y="-18.5" font-family="Helvetica,sans-Serif" font-size="10.00">nlohmann::json_pointer</text>
<text text-anchor="middle" x="70" y="-7.5" font-family="Helvetica,sans-Serif" font-size="10.00">&lt; BasicJsonType &gt;</text>
</a>
</g>
</g>
<!-- Node2 -->
<g id="node2" class="node">
<title>Node2</title>
<g id="a_node2"><a xlink:title=" ">
<polygon fill="white" stroke="#bfbfbf" points="0,-78.5 0,-97.5 140,-97.5 140,-78.5 0,-78.5"/>
<text text-anchor="middle" x="70" y="-85.5" font-family="Helvetica,sans-Serif" font-size="10.00">std::vector&lt; std::string &gt;</text>
</a>
</g>
</g>
<!-- Node2&#45;&gt;Node1 -->
<g id="edge1" class="edge">
<title>Node2&#45;&gt;Node1</title>
<path fill="none" stroke="#9a32cd" stroke-dasharray="5,2" d="M70,-68.24C70,-56.41 70,-41.38 70,-30.58"/>
<polygon fill="#9a32cd" stroke="#9a32cd" points="66.5,-68.36 70,-78.36 73.5,-68.36 66.5,-68.36"/>
<text text-anchor="middle" x="114" y="-52" font-family="Helvetica,sans-Serif" font-size="10.00"> reference_tokens</text>
</g>
<!-- Node3 -->
<g id="node3" class="node">
<title>Node3</title>
<g id="a_node3"><a xlink:title="STL class.">
<polygon fill="white" stroke="#bfbfbf" points="37.5,-145.5 37.5,-164.5 102.5,-164.5 102.5,-145.5 37.5,-145.5"/>
<text text-anchor="middle" x="70" y="-152.5" font-family="Helvetica,sans-Serif" font-size="10.00">std::string</text>
</a>
</g>
</g>
<!-- Node3&#45;&gt;Node2 -->
<g id="edge2" class="edge">
<title>Node3&#45;&gt;Node2</title>
<path fill="none" stroke="#9a32cd" stroke-dasharray="5,2" d="M70,-135.04C70,-122.67 70,-107.12 70,-97.63"/>
<polygon fill="#9a32cd" stroke="#9a32cd" points="66.5,-135.23 70,-145.23 73.5,-135.23 66.5,-135.23"/>
<text text-anchor="middle" x="94.5" y="-119" font-family="Helvetica,sans-Serif" font-size="10.00"> elements</text>
</g>
<!-- Node4 -->
<g id="node4" class="node">
<title>Node4</title>
<g id="a_node4"><a xlink:title="STL class.">
<polygon fill="white" stroke="#bfbfbf" points="18,-202.5 18,-232.5 122,-232.5 122,-202.5 18,-202.5"/>
<text text-anchor="start" x="26" y="-220.5" font-family="Helvetica,sans-Serif" font-size="10.00">std::basic_string&lt;</text>
<text text-anchor="middle" x="70" y="-209.5" font-family="Helvetica,sans-Serif" font-size="10.00"> char &gt;</text>
</a>
</g>
</g>
<!-- Node4&#45;&gt;Node3 -->
<g id="edge3" class="edge">
<title>Node4&#45;&gt;Node3</title>
<path fill="none" stroke="midnightblue" d="M70,-192.35C70,-182.51 70,-171.78 70,-164.54"/>
<polygon fill="midnightblue" stroke="midnightblue" points="66.5,-192.47 70,-202.47 73.5,-192.47 66.5,-192.47"/>
</g>
</g>
</svg>
