<?xml version="1.0" encoding="UTF-8" standalone="no"?>
<!DOCTYPE svg PUBLIC "-//W3C//DTD SVG 1.1//EN"
 "http://www.w3.org/Graphics/SVG/1.1/DTD/svg11.dtd">
<!-- Generated by graphviz version 2.43.0 (0)
 -->
<!-- Title: nlohmann::basic_json::insert Pages: 1 -->
<svg width="801pt" height="259pt"
 viewBox="0.00 0.00 801.00 259.00" xmlns="http://www.w3.org/2000/svg" xmlns:xlink="http://www.w3.org/1999/xlink">
<g id="graph0" class="graph" transform="scale(1 1) rotate(0) translate(4 255)">
<title>nlohmann::basic_json::insert</title>
<polygon fill="white" stroke="transparent" points="-4,4 -4,-255 797,-255 797,4 -4,4"/>
<!-- Node1 -->
<g id="node1" class="node">
<title>Node1</title>
<g id="a_node1"><a xlink:title="inserts element">
<polygon fill="#bfbfbf" stroke="black" points="0,-98.5 0,-128.5 122,-128.5 122,-98.5 0,-98.5"/>
<text text-anchor="start" x="8" y="-116.5" font-family="Helvetica,sans-Serif" font-size="10.00">nlohmann::basic_json</text>
<text text-anchor="middle" x="61" y="-105.5" font-family="Helvetica,sans-Serif" font-size="10.00">::insert</text>
</a>
</g>
</g>
<!-- Node2 -->
<g id="node2" class="node">
<title>Node2</title>
<g id="a_node2"><a xlink:href="a01605.html#ac6be8bd68e9dffd793846e0f0b239d62" target="_top" xlink:title="inserts element">
<polygon fill="white" stroke="black" points="158,-98.5 158,-128.5 280,-128.5 280,-98.5 158,-98.5"/>
<text text-anchor="start" x="166" y="-116.5" font-family="Helvetica,sans-Serif" font-size="10.00">nlohmann::basic_json</text>
<text text-anchor="middle" x="219" y="-105.5" font-family="Helvetica,sans-Serif" font-size="10.00">::insert</text>
</a>
</g>
</g>
<!-- Node1&#45;&gt;Node2 -->
<g id="edge1" class="edge">
<title>Node1&#45;&gt;Node2</title>
<path fill="none" stroke="midnightblue" d="M122.31,-113.5C130.6,-113.5 139.17,-113.5 147.63,-113.5"/>
<polygon fill="midnightblue" stroke="midnightblue" points="147.85,-117 157.85,-113.5 147.85,-110 147.85,-117"/>
</g>
<!-- Node3 -->
<g id="node3" class="node">
<title>Node3</title>
<g id="a_node3"><a xlink:href="a01513.html#a4e849260a3caa1b288c7e619130c6c09" target="_top" xlink:title=" ">
<polygon fill="white" stroke="black" points="316,-196.5 316,-226.5 454,-226.5 454,-196.5 316,-196.5"/>
<text text-anchor="start" x="324" y="-214.5" font-family="Helvetica,sans-Serif" font-size="10.00">nlohmann::detail::invalid</text>
<text text-anchor="middle" x="385" y="-203.5" font-family="Helvetica,sans-Serif" font-size="10.00">_iterator::create</text>
</a>
</g>
</g>
<!-- Node2&#45;&gt;Node3 -->
<g id="edge2" class="edge">
<title>Node2&#45;&gt;Node3</title>
<path fill="none" stroke="midnightblue" d="M236.62,-128.61C254.96,-144.68 285.89,-170 316,-186.5 319.89,-188.63 324,-190.65 328.19,-192.55"/>
<polygon fill="midnightblue" stroke="midnightblue" points="326.88,-195.79 337.46,-196.5 329.63,-189.36 326.88,-195.79"/>
</g>
<!-- Node7 -->
<g id="node7" class="node">
<title>Node7</title>
<g id="a_node7"><a xlink:href="a01517.html#aecc083aea4b698c33d042670ba50c10f" target="_top" xlink:title=" ">
<polygon fill="white" stroke="black" points="321.5,-147.5 321.5,-177.5 448.5,-177.5 448.5,-147.5 321.5,-147.5"/>
<text text-anchor="start" x="329.5" y="-165.5" font-family="Helvetica,sans-Serif" font-size="10.00">nlohmann::detail::type</text>
<text text-anchor="middle" x="385" y="-154.5" font-family="Helvetica,sans-Serif" font-size="10.00">_error::create</text>
</a>
</g>
</g>
<!-- Node2&#45;&gt;Node7 -->
<g id="edge6" class="edge">
<title>Node2&#45;&gt;Node7</title>
<path fill="none" stroke="midnightblue" d="M270.54,-128.6C287.46,-133.66 306.48,-139.34 324.04,-144.58"/>
<polygon fill="midnightblue" stroke="midnightblue" points="323.04,-147.94 333.62,-147.45 325.04,-141.23 323.04,-147.94"/>
</g>
<!-- Node9 -->
<g id="node9" class="node">
<title>Node9</title>
<g id="a_node9"><a xlink:href="a01605.html#ab80c4bdc11b40246f668008bae80df25" target="_top" xlink:title="Helper for insertion of an iterator.">
<polygon fill="white" stroke="black" points="324,-98.5 324,-128.5 446,-128.5 446,-98.5 324,-98.5"/>
<text text-anchor="start" x="332" y="-116.5" font-family="Helvetica,sans-Serif" font-size="10.00">nlohmann::basic_json</text>
<text text-anchor="middle" x="385" y="-105.5" font-family="Helvetica,sans-Serif" font-size="10.00">::insert_iterator</text>
</a>
</g>
</g>
<!-- Node2&#45;&gt;Node9 -->
<g id="edge9" class="edge">
<title>Node2&#45;&gt;Node9</title>
<path fill="none" stroke="midnightblue" d="M280.14,-113.5C291.05,-113.5 302.53,-113.5 313.71,-113.5"/>
<polygon fill="midnightblue" stroke="midnightblue" points="313.87,-117 323.87,-113.5 313.87,-110 313.87,-117"/>
</g>
<!-- Node10 -->
<g id="node10" class="node">
<title>Node10</title>
<g id="a_node10"><a xlink:href="a01605.html#a1859e0c783a24df797b758e3fc21b966" target="_top" xlink:title="return whether value is an array">
<polygon fill="white" stroke="black" points="324,-49.5 324,-79.5 446,-79.5 446,-49.5 324,-49.5"/>
<text text-anchor="start" x="332" y="-67.5" font-family="Helvetica,sans-Serif" font-size="10.00">nlohmann::basic_json</text>
<text text-anchor="middle" x="385" y="-56.5" font-family="Helvetica,sans-Serif" font-size="10.00">::is_array</text>
</a>
</g>
</g>
<!-- Node2&#45;&gt;Node10 -->
<g id="edge10" class="edge">
<title>Node2&#45;&gt;Node10</title>
<path fill="none" stroke="midnightblue" d="M270.54,-98.4C287.46,-93.34 306.48,-87.66 324.04,-82.42"/>
<polygon fill="midnightblue" stroke="midnightblue" points="325.04,-85.77 333.62,-79.55 323.04,-79.06 325.04,-85.77"/>
</g>
<!-- Node11 -->
<g id="node11" class="node">
<title>Node11</title>
<g id="a_node11"><a xlink:href="a01605.html#a0fb9647ea72df0a3099cf6dd7e3f53e9" target="_top" xlink:title="return the type as string">
<polygon fill="white" stroke="black" points="324,-0.5 324,-30.5 446,-30.5 446,-0.5 324,-0.5"/>
<text text-anchor="start" x="332" y="-18.5" font-family="Helvetica,sans-Serif" font-size="10.00">nlohmann::basic_json</text>
<text text-anchor="middle" x="385" y="-7.5" font-family="Helvetica,sans-Serif" font-size="10.00">::type_name</text>
</a>
</g>
</g>
<!-- Node2&#45;&gt;Node11 -->
<g id="edge11" class="edge">
<title>Node2&#45;&gt;Node11</title>
<path fill="none" stroke="midnightblue" d="M236.2,-98.38C254.43,-82.03 285.5,-56.09 316,-39.5 319.21,-37.75 322.58,-36.09 326.02,-34.52"/>
<polygon fill="midnightblue" stroke="midnightblue" points="327.44,-37.72 335.26,-30.57 324.68,-31.28 327.44,-37.72"/>
</g>
<!-- Node4 -->
<g id="node4" class="node">
<title>Node4</title>
<g id="a_node4"><a xlink:href="a01513.html#adf4a6697420f3bddb4addfc0b98f6ee2" target="_top" xlink:title=" ">
<polygon fill="white" stroke="black" points="497.5,-220.5 497.5,-250.5 635.5,-250.5 635.5,-220.5 497.5,-220.5"/>
<text text-anchor="start" x="505.5" y="-238.5" font-family="Helvetica,sans-Serif" font-size="10.00">nlohmann::detail::invalid</text>
<text text-anchor="middle" x="566.5" y="-227.5" font-family="Helvetica,sans-Serif" font-size="10.00">_iterator::invalid_iterator</text>
</a>
</g>
</g>
<!-- Node3&#45;&gt;Node4 -->
<g id="edge3" class="edge">
<title>Node3&#45;&gt;Node4</title>
<path fill="none" stroke="midnightblue" d="M454.12,-220.61C464.98,-222.06 476.28,-223.57 487.35,-225.05"/>
<polygon fill="midnightblue" stroke="midnightblue" points="487.05,-228.54 497.43,-226.4 487.98,-221.6 487.05,-228.54"/>
</g>
<!-- Node5 -->
<g id="node5" class="node">
<title>Node5</title>
<g id="a_node5"><a xlink:href="a01505.html#abf41a7e9178356314082284e6cfea278" target="_top" xlink:title=" ">
<polygon fill="white" stroke="black" points="490,-171.5 490,-201.5 643,-201.5 643,-171.5 490,-171.5"/>
<text text-anchor="start" x="498" y="-189.5" font-family="Helvetica,sans-Serif" font-size="10.00">nlohmann::detail::exception</text>
<text text-anchor="middle" x="566.5" y="-178.5" font-family="Helvetica,sans-Serif" font-size="10.00">::name</text>
</a>
</g>
</g>
<!-- Node3&#45;&gt;Node5 -->
<g id="edge4" class="edge">
<title>Node3&#45;&gt;Node5</title>
<path fill="none" stroke="midnightblue" d="M454.12,-202.01C462.53,-200.84 471.21,-199.63 479.84,-198.43"/>
<polygon fill="midnightblue" stroke="midnightblue" points="480.51,-201.87 489.93,-197.03 479.54,-194.94 480.51,-201.87"/>
</g>
<!-- Node6 -->
<g id="node6" class="node">
<title>Node6</title>
<g id="a_node6"><a xlink:href="a00410.html#a6ce645a0b8717757e096a5b5773b7a16" target="_top" xlink:title="user&#45;defined to_string function for JSON values">
<polygon fill="white" stroke="black" points="679,-177 679,-196 793,-196 793,-177 679,-177"/>
<text text-anchor="middle" x="736" y="-184" font-family="Helvetica,sans-Serif" font-size="10.00">nlohmann::to_string</text>
</a>
</g>
</g>
<!-- Node5&#45;&gt;Node6 -->
<g id="edge5" class="edge">
<title>Node5&#45;&gt;Node6</title>
<path fill="none" stroke="midnightblue" d="M643.41,-186.5C651.9,-186.5 660.5,-186.5 668.86,-186.5"/>
<polygon fill="midnightblue" stroke="midnightblue" points="668.9,-190 678.9,-186.5 668.9,-183 668.9,-190"/>
</g>
<!-- Node7&#45;&gt;Node5 -->
<g id="edge7" class="edge">
<title>Node7&#45;&gt;Node5</title>
<path fill="none" stroke="midnightblue" d="M448.53,-170.86C458.65,-172.21 469.28,-173.64 479.84,-175.05"/>
<polygon fill="midnightblue" stroke="midnightblue" points="479.54,-178.54 489.91,-176.39 480.47,-171.6 479.54,-178.54"/>
</g>
<!-- Node8 -->
<g id="node8" class="node">
<title>Node8</title>
<g id="a_node8"><a xlink:href="a01517.html#aa01edaa0bf18b853368f0b900e485cd7" target="_top" xlink:title=" ">
<polygon fill="white" stroke="black" points="503,-122.5 503,-152.5 630,-152.5 630,-122.5 503,-122.5"/>
<text text-anchor="start" x="511" y="-140.5" font-family="Helvetica,sans-Serif" font-size="10.00">nlohmann::detail::type</text>
<text text-anchor="middle" x="566.5" y="-129.5" font-family="Helvetica,sans-Serif" font-size="10.00">_error::type_error</text>
</a>
</g>
</g>
<!-- Node7&#45;&gt;Node8 -->
<g id="edge8" class="edge">
<title>Node7&#45;&gt;Node8</title>
<path fill="none" stroke="midnightblue" d="M448.53,-153.79C462.83,-151.8 478.16,-149.66 492.84,-147.62"/>
<polygon fill="midnightblue" stroke="midnightblue" points="493.47,-151.07 502.89,-146.22 492.5,-144.13 493.47,-151.07"/>
</g>
</g>
</svg>
