<?xml version="1.0" encoding="UTF-8" standalone="no"?>
<!DOCTYPE svg PUBLIC "-//W3C//DTD SVG 1.1//EN"
 "http://www.w3.org/Graphics/SVG/1.1/DTD/svg11.dtd">
<!-- Generated by graphviz version 2.43.0 (0)
 -->
<!-- Title: nlohmann::basic_json::to_ubjson Pages: 1 -->
<svg width="694pt" height="149pt"
 viewBox="0.00 0.00 694.00 148.50" xmlns="http://www.w3.org/2000/svg" xmlns:xlink="http://www.w3.org/1999/xlink">
<g id="graph0" class="graph" transform="scale(1 1) rotate(0) translate(4 144.5)">
<title>nlohmann::basic_json::to_ubjson</title>
<polygon fill="white" stroke="transparent" points="-4,4 -4,-144.5 690,-144.5 690,4 -4,4"/>
<!-- Node1 -->
<g id="node1" class="node">
<title>Node1</title>
<g id="a_node1"><a xlink:title=" ">
<polygon fill="#bfbfbf" stroke="black" points="0,-61 0,-91 122,-91 122,-61 0,-61"/>
<text text-anchor="start" x="8" y="-79" font-family="Helvetica,sans-Serif" font-size="10.00">nlohmann::basic_json</text>
<text text-anchor="middle" x="61" y="-68" font-family="Helvetica,sans-Serif" font-size="10.00">::to_ubjson</text>
</a>
</g>
</g>
<!-- Node2 -->
<g id="node2" class="node">
<title>Node2</title>
<g id="a_node2"><a xlink:href="a01985.html#a0f6c65053d859269f88eb4ebb0cd7060" target="_top" xlink:title=" ">
<polygon fill="white" stroke="black" points="158,-61 158,-91 294,-91 294,-61 158,-61"/>
<text text-anchor="start" x="166" y="-79" font-family="Helvetica,sans-Serif" font-size="10.00">nlohmann::detail::binary</text>
<text text-anchor="middle" x="226" y="-68" font-family="Helvetica,sans-Serif" font-size="10.00">_writer::write_ubjson</text>
</a>
</g>
</g>
<!-- Node1&#45;&gt;Node2 -->
<g id="edge1" class="edge">
<title>Node1&#45;&gt;Node2</title>
<path fill="none" stroke="midnightblue" d="M122.23,-76C130.58,-76 139.24,-76 147.84,-76"/>
<polygon fill="midnightblue" stroke="midnightblue" points="147.88,-79.5 157.88,-76 147.88,-72.5 147.88,-79.5"/>
</g>
<!-- Node3 -->
<g id="node3" class="node">
<title>Node3</title>
<g id="a_node3"><a xlink:href="a01985.html#ab77aa48692bd4e64e4f051ce6aeb6d2d" target="_top" xlink:title=" ">
<polygon fill="white" stroke="black" points="337,-110 337,-140 473,-140 473,-110 337,-110"/>
<text text-anchor="start" x="345" y="-128" font-family="Helvetica,sans-Serif" font-size="10.00">nlohmann::detail::binary</text>
<text text-anchor="middle" x="405" y="-117" font-family="Helvetica,sans-Serif" font-size="10.00">_writer::to_char_type</text>
</a>
</g>
</g>
<!-- Node2&#45;&gt;Node3 -->
<g id="edge2" class="edge">
<title>Node2&#45;&gt;Node3</title>
<path fill="none" stroke="midnightblue" d="M281.55,-91.1C299.97,-96.2 320.71,-101.94 339.81,-107.23"/>
<polygon fill="midnightblue" stroke="midnightblue" points="339.06,-110.65 349.63,-109.95 340.93,-103.91 339.06,-110.65"/>
</g>
<!-- Node4 -->
<g id="node4" class="node">
<title>Node4</title>
<g id="a_node4"><a xlink:href="a01985.html#a4c129249a5aee8e4ec8add6c6184e4f7" target="_top" xlink:title="determine the type prefix of container values">
<polygon fill="white" stroke="black" points="337,-61 337,-91 473,-91 473,-61 337,-61"/>
<text text-anchor="start" x="345" y="-79" font-family="Helvetica,sans-Serif" font-size="10.00">nlohmann::detail::binary</text>
<text text-anchor="middle" x="405" y="-68" font-family="Helvetica,sans-Serif" font-size="10.00">_writer::ubjson_prefix</text>
</a>
</g>
</g>
<!-- Node2&#45;&gt;Node4 -->
<g id="edge3" class="edge">
<title>Node2&#45;&gt;Node4</title>
<path fill="none" stroke="midnightblue" d="M294.17,-76C304.77,-76 315.8,-76 326.61,-76"/>
<polygon fill="midnightblue" stroke="midnightblue" points="326.88,-79.5 336.88,-76 326.88,-72.5 326.88,-79.5"/>
</g>
<!-- Node6 -->
<g id="node6" class="node">
<title>Node6</title>
<g id="a_node6"><a xlink:href="a01985.html#a0ea6745f944c0c61672146886b4ee90f" target="_top" xlink:title=" ">
<polygon fill="white" stroke="black" points="330,-0.5 330,-41.5 480,-41.5 480,-0.5 330,-0.5"/>
<text text-anchor="start" x="338" y="-29.5" font-family="Helvetica,sans-Serif" font-size="10.00">nlohmann::detail::binary</text>
<text text-anchor="start" x="338" y="-18.5" font-family="Helvetica,sans-Serif" font-size="10.00">_writer::write_number_with</text>
<text text-anchor="middle" x="405" y="-7.5" font-family="Helvetica,sans-Serif" font-size="10.00">_ubjson_prefix</text>
</a>
</g>
</g>
<!-- Node2&#45;&gt;Node6 -->
<g id="edge5" class="edge">
<title>Node2&#45;&gt;Node6</title>
<path fill="none" stroke="midnightblue" d="M275.37,-60.97C291.6,-55.93 310.13,-50.17 327.96,-44.63"/>
<polygon fill="midnightblue" stroke="midnightblue" points="329.27,-47.89 337.78,-41.58 327.19,-41.2 329.27,-47.89"/>
</g>
<!-- Node5 -->
<g id="node5" class="node">
<title>Node5</title>
<g id="a_node5"><a xlink:href="a01985.html#a6837b20574152f7f645d0f6cd9fafdeb" target="_top" xlink:title=" ">
<polygon fill="white" stroke="black" points="516,-58 516,-88 686,-88 686,-58 516,-58"/>
<text text-anchor="start" x="524" y="-76" font-family="Helvetica,sans-Serif" font-size="10.00">nlohmann::detail::binary</text>
<text text-anchor="middle" x="601" y="-65" font-family="Helvetica,sans-Serif" font-size="10.00">_writer::get_ubjson_float_prefix</text>
</a>
</g>
</g>
<!-- Node4&#45;&gt;Node5 -->
<g id="edge4" class="edge">
<title>Node4&#45;&gt;Node5</title>
<path fill="none" stroke="midnightblue" d="M473.04,-74.96C483.6,-74.8 494.69,-74.63 505.74,-74.46"/>
<polygon fill="midnightblue" stroke="midnightblue" points="505.9,-77.96 515.85,-74.3 505.8,-70.96 505.9,-77.96"/>
</g>
<!-- Node6&#45;&gt;Node5 -->
<g id="edge6" class="edge">
<title>Node6&#45;&gt;Node5</title>
<path fill="none" stroke="midnightblue" d="M480.17,-40.88C497.88,-45.63 516.66,-50.66 533.97,-55.3"/>
<polygon fill="midnightblue" stroke="midnightblue" points="533.41,-58.77 543.97,-57.98 535.22,-52.01 533.41,-58.77"/>
</g>
<!-- Node7 -->
<g id="node7" class="node">
<title>Node7</title>
<g id="a_node7"><a xlink:href="a01985.html#a6e11b7227fcecc25a548ed45507b7d1c" target="_top" xlink:title=" ">
<polygon fill="white" stroke="black" points="533,-6 533,-36 669,-36 669,-6 533,-6"/>
<text text-anchor="start" x="541" y="-24" font-family="Helvetica,sans-Serif" font-size="10.00">nlohmann::detail::binary</text>
<text text-anchor="middle" x="601" y="-13" font-family="Helvetica,sans-Serif" font-size="10.00">_writer::write_number</text>
</a>
</g>
</g>
<!-- Node6&#45;&gt;Node7 -->
<g id="edge7" class="edge">
<title>Node6&#45;&gt;Node7</title>
<path fill="none" stroke="midnightblue" d="M480.17,-21C494.12,-21 508.73,-21 522.76,-21"/>
<polygon fill="midnightblue" stroke="midnightblue" points="522.86,-24.5 532.86,-21 522.86,-17.5 522.86,-24.5"/>
</g>
</g>
</svg>
