<?xml version="1.0" encoding="UTF-8" standalone="no"?>
<!DOCTYPE svg PUBLIC "-//W3C//DTD SVG 1.1//EN"
 "http://www.w3.org/Graphics/SVG/1.1/DTD/svg11.dtd">
<!-- Generated by graphviz version 2.43.0 (0)
 -->
<!-- Title: nlohmann::basic_json::object Pages: 1 -->
<svg width="288pt" height="155pt"
 viewBox="0.00 0.00 288.00 155.00" xmlns="http://www.w3.org/2000/svg" xmlns:xlink="http://www.w3.org/1999/xlink">
<g id="graph0" class="graph" transform="scale(1 1) rotate(0) translate(4 151)">
<title>nlohmann::basic_json::object</title>
<polygon fill="white" stroke="transparent" points="-4,4 -4,-151 284,-151 284,4 -4,4"/>
<!-- Node1 -->
<g id="node1" class="node">
<title>Node1</title>
<g id="a_node1"><a xlink:title="explicitly create an object from an initializer list">
<polygon fill="#bfbfbf" stroke="black" points="158,-67.5 158,-97.5 280,-97.5 280,-67.5 158,-67.5"/>
<text text-anchor="start" x="166" y="-85.5" font-family="Helvetica,sans-Serif" font-size="10.00">nlohmann::basic_json</text>
<text text-anchor="middle" x="219" y="-74.5" font-family="Helvetica,sans-Serif" font-size="10.00">::object</text>
</a>
</g>
</g>
<!-- Node2 -->
<g id="node2" class="node">
<title>Node2</title>
<g id="a_node2"><a xlink:href="a01605.html#ae1303d46f7c21d1b6197db5f3f263ea1" target="_top" xlink:title="helper for exception&#45;safe object creation">
<polygon fill="white" stroke="black" points="0,-116.5 0,-146.5 122,-146.5 122,-116.5 0,-116.5"/>
<text text-anchor="start" x="8" y="-134.5" font-family="Helvetica,sans-Serif" font-size="10.00">nlohmann::basic_json</text>
<text text-anchor="middle" x="61" y="-123.5" font-family="Helvetica,sans-Serif" font-size="10.00">::create</text>
</a>
</g>
</g>
<!-- Node1&#45;&gt;Node2 -->
<g id="edge1" class="edge">
<title>Node1&#45;&gt;Node2</title>
<path fill="none" stroke="midnightblue" d="M160.33,-100.61C143.75,-105.82 125.85,-111.45 109.92,-116.45"/>
<polygon fill="midnightblue" stroke="midnightblue" points="161.43,-103.94 169.92,-97.6 159.33,-97.26 161.43,-103.94"/>
</g>
<!-- Node3 -->
<g id="node3" class="node">
<title>Node3</title>
<g id="a_node3"><a xlink:href="a01605.html#ac8305b8912441b11af77564542e6d93e" target="_top" xlink:title="creates a diff as a JSON patch">
<polygon fill="white" stroke="black" points="0,-67.5 0,-97.5 122,-97.5 122,-67.5 0,-67.5"/>
<text text-anchor="start" x="8" y="-85.5" font-family="Helvetica,sans-Serif" font-size="10.00">nlohmann::basic_json</text>
<text text-anchor="middle" x="61" y="-74.5" font-family="Helvetica,sans-Serif" font-size="10.00">::diff</text>
</a>
</g>
</g>
<!-- Node1&#45;&gt;Node3 -->
<g id="edge2" class="edge">
<title>Node1&#45;&gt;Node3</title>
<path fill="none" stroke="midnightblue" d="M147.46,-82.5C139.01,-82.5 130.44,-82.5 122.15,-82.5"/>
<polygon fill="midnightblue" stroke="midnightblue" points="147.69,-86 157.69,-82.5 147.69,-79 147.69,-86"/>
</g>
<!-- Node4 -->
<g id="node4" class="node">
<title>Node4</title>
<g id="a_node4"><a xlink:href="a01605.html#ab68414151f2f3347a71c7a9984f1d72d" target="_top" xlink:title="applies a JSON Merge Patch">
<polygon fill="white" stroke="black" points="0,-0.5 0,-30.5 122,-30.5 122,-0.5 0,-0.5"/>
<text text-anchor="start" x="8" y="-18.5" font-family="Helvetica,sans-Serif" font-size="10.00">nlohmann::basic_json</text>
<text text-anchor="middle" x="61" y="-7.5" font-family="Helvetica,sans-Serif" font-size="10.00">::merge_patch</text>
</a>
</g>
</g>
<!-- Node1&#45;&gt;Node4 -->
<g id="edge3" class="edge">
<title>Node1&#45;&gt;Node4</title>
<path fill="none" stroke="midnightblue" d="M173.65,-63.45C149.4,-53.04 119.8,-40.32 97.16,-30.6"/>
<polygon fill="midnightblue" stroke="midnightblue" points="172.42,-66.73 182.99,-67.46 175.18,-60.3 172.42,-66.73"/>
</g>
<!-- Node4&#45;&gt;Node4 -->
<g id="edge4" class="edge">
<title>Node4&#45;&gt;Node4</title>
<path fill="none" stroke="midnightblue" d="M89.07,-40.96C85.59,-45.68 76.23,-49 61,-49 36,-49 26.83,-40.06 33.47,-30.66"/>
<polygon fill="midnightblue" stroke="midnightblue" points="92.55,-40.46 88.53,-30.66 85.56,-40.83 92.55,-40.46"/>
</g>
</g>
</svg>
