<?xml version="1.0" encoding="UTF-8" standalone="no"?>
<!DOCTYPE svg PUBLIC "-//W3C//DTD SVG 1.1//EN"
 "http://www.w3.org/Graphics/SVG/1.1/DTD/svg11.dtd">
<!-- Generated by graphviz version 2.43.0 (0)
 -->
<!-- Title: nlohmann::basic_json::is_object Pages: 1 -->
<svg width="632pt" height="723pt"
 viewBox="0.00 0.00 632.00 722.50" xmlns="http://www.w3.org/2000/svg" xmlns:xlink="http://www.w3.org/1999/xlink">
<g id="graph0" class="graph" transform="scale(1 1) rotate(0) translate(4 718.5)">
<title>nlohmann::basic_json::is_object</title>
<polygon fill="white" stroke="transparent" points="-4,4 -4,-718.5 628,-718.5 628,4 -4,4"/>
<!-- Node1 -->
<g id="node1" class="node">
<title>Node1</title>
<g id="a_node1"><a xlink:title="return whether value is an object">
<polygon fill="#bfbfbf" stroke="black" points="502,-361.5 502,-391.5 624,-391.5 624,-361.5 502,-361.5"/>
<text text-anchor="start" x="510" y="-379.5" font-family="Helvetica,sans-Serif" font-size="10.00">nlohmann::basic_json</text>
<text text-anchor="middle" x="563" y="-368.5" font-family="Helvetica,sans-Serif" font-size="10.00">::is_object</text>
</a>
</g>
</g>
<!-- Node2 -->
<g id="node2" class="node">
<title>Node2</title>
<g id="a_node2"><a xlink:href="a01605.html#a157868dfcf060bf67fa423bafbf27b57" target="_top" xlink:title="access specified object element with bounds checking">
<polygon fill="white" stroke="black" points="328,-695 328,-714 466,-714 466,-695 328,-695"/>
<text text-anchor="middle" x="397" y="-702" font-family="Helvetica,sans-Serif" font-size="10.00">nlohmann::basic_json::at</text>
</a>
</g>
</g>
<!-- Node1&#45;&gt;Node2 -->
<g id="edge1" class="edge">
<title>Node1&#45;&gt;Node2</title>
<path fill="none" stroke="midnightblue" d="M561.84,-401.81C560.04,-460.46 547.19,-606.61 466,-685.5 462.04,-689.34 457.38,-692.42 452.37,-694.89"/>
<polygon fill="midnightblue" stroke="midnightblue" points="565.34,-401.68 562.06,-391.61 558.34,-401.53 565.34,-401.68"/>
</g>
<!-- Node3 -->
<g id="node3" class="node">
<title>Node3</title>
<g id="a_node3"><a xlink:href="a01605.html#a29333078b6e6cb76f2b5d12590bbf766" target="_top" xlink:title="check the existence of an element in a JSON object">
<polygon fill="white" stroke="black" points="336,-645.5 336,-675.5 458,-675.5 458,-645.5 336,-645.5"/>
<text text-anchor="start" x="344" y="-663.5" font-family="Helvetica,sans-Serif" font-size="10.00">nlohmann::basic_json</text>
<text text-anchor="middle" x="397" y="-652.5" font-family="Helvetica,sans-Serif" font-size="10.00">::contains</text>
</a>
</g>
</g>
<!-- Node1&#45;&gt;Node3 -->
<g id="edge2" class="edge">
<title>Node1&#45;&gt;Node3</title>
<path fill="none" stroke="midnightblue" d="M559.69,-402.02C553.68,-453.48 533.04,-570.41 466,-636.5 462.52,-639.93 458.53,-642.87 454.25,-645.39"/>
<polygon fill="midnightblue" stroke="midnightblue" points="563.2,-402.11 560.79,-391.8 556.24,-401.37 563.2,-402.11"/>
</g>
<!-- Node4 -->
<g id="node4" class="node">
<title>Node4</title>
<g id="a_node4"><a xlink:href="a01605.html#a369cf24de07945494df32e8b61e47917" target="_top" xlink:title="returns the number of occurrences of a key in a JSON object">
<polygon fill="white" stroke="black" points="336,-596.5 336,-626.5 458,-626.5 458,-596.5 336,-596.5"/>
<text text-anchor="start" x="344" y="-614.5" font-family="Helvetica,sans-Serif" font-size="10.00">nlohmann::basic_json</text>
<text text-anchor="middle" x="397" y="-603.5" font-family="Helvetica,sans-Serif" font-size="10.00">::count</text>
</a>
</g>
</g>
<!-- Node1&#45;&gt;Node4 -->
<g id="edge3" class="edge">
<title>Node1&#45;&gt;Node4</title>
<path fill="none" stroke="midnightblue" d="M557.3,-401.47C547.79,-445.23 522.2,-536.02 466,-587.5 462.21,-590.97 457.9,-593.94 453.32,-596.49"/>
<polygon fill="midnightblue" stroke="midnightblue" points="560.73,-402.15 559.33,-391.65 553.88,-400.73 560.73,-402.15"/>
</g>
<!-- Node5 -->
<g id="node5" class="node">
<title>Node5</title>
<g id="a_node5"><a xlink:href="a01605.html#ae3866ccade11e7b73902169714363f21" target="_top" xlink:title="add an object to an object if key does not exist">
<polygon fill="white" stroke="black" points="336,-547.5 336,-577.5 458,-577.5 458,-547.5 336,-547.5"/>
<text text-anchor="start" x="344" y="-565.5" font-family="Helvetica,sans-Serif" font-size="10.00">nlohmann::basic_json</text>
<text text-anchor="middle" x="397" y="-554.5" font-family="Helvetica,sans-Serif" font-size="10.00">::emplace</text>
</a>
</g>
</g>
<!-- Node1&#45;&gt;Node5 -->
<g id="edge4" class="edge">
<title>Node1&#45;&gt;Node5</title>
<path fill="none" stroke="midnightblue" d="M553.51,-401.39C540.24,-436.74 511.3,-501.3 466,-538.5 461.84,-541.92 457.16,-544.86 452.25,-547.4"/>
<polygon fill="midnightblue" stroke="midnightblue" points="556.86,-402.43 556.98,-391.83 550.28,-400.04 556.86,-402.43"/>
</g>
<!-- Node6 -->
<g id="node6" class="node">
<title>Node6</title>
<g id="a_node6"><a xlink:href="a01605.html#a022404d92eb877a7ad5bfce198ef067a" target="_top" xlink:title="remove element from a JSON object given a key">
<polygon fill="white" stroke="black" points="336,-498.5 336,-528.5 458,-528.5 458,-498.5 336,-498.5"/>
<text text-anchor="start" x="344" y="-516.5" font-family="Helvetica,sans-Serif" font-size="10.00">nlohmann::basic_json</text>
<text text-anchor="middle" x="397" y="-505.5" font-family="Helvetica,sans-Serif" font-size="10.00">::erase</text>
</a>
</g>
</g>
<!-- Node1&#45;&gt;Node6 -->
<g id="edge5" class="edge">
<title>Node1&#45;&gt;Node6</title>
<path fill="none" stroke="midnightblue" d="M547.42,-400.16C530.67,-425.55 500.94,-465.45 466,-489.5 461.05,-492.91 455.57,-495.88 449.92,-498.46"/>
<polygon fill="midnightblue" stroke="midnightblue" points="550.52,-401.82 552.99,-391.52 544.63,-398.03 550.52,-401.82"/>
</g>
<!-- Node7 -->
<g id="node7" class="node">
<title>Node7</title>
<g id="a_node7"><a xlink:href="a01605.html#af4167275baa0b2da76cdc89b1117c300" target="_top" xlink:title="find an element in a JSON object">
<polygon fill="white" stroke="black" points="336,-449.5 336,-479.5 458,-479.5 458,-449.5 336,-449.5"/>
<text text-anchor="start" x="344" y="-467.5" font-family="Helvetica,sans-Serif" font-size="10.00">nlohmann::basic_json</text>
<text text-anchor="middle" x="397" y="-456.5" font-family="Helvetica,sans-Serif" font-size="10.00">::find</text>
</a>
</g>
</g>
<!-- Node1&#45;&gt;Node7 -->
<g id="edge6" class="edge">
<title>Node1&#45;&gt;Node7</title>
<path fill="none" stroke="midnightblue" d="M530.23,-397.1C511.81,-408.69 487.97,-423.07 466,-434.5 455.93,-439.74 444.74,-444.92 434.4,-449.47"/>
<polygon fill="midnightblue" stroke="midnightblue" points="532.24,-399.97 538.81,-391.66 528.49,-394.06 532.24,-399.97"/>
</g>
<!-- Node8 -->
<g id="node8" class="node">
<title>Node8</title>
<g id="a_node8"><a xlink:href="a01605.html#ab29a59d20767180d6d2fe4f5054dd245" target="_top" xlink:title="access specified object element with default value">
<polygon fill="white" stroke="black" points="170,-429.5 170,-459.5 292,-459.5 292,-429.5 170,-429.5"/>
<text text-anchor="start" x="178" y="-447.5" font-family="Helvetica,sans-Serif" font-size="10.00">nlohmann::basic_json</text>
<text text-anchor="middle" x="231" y="-436.5" font-family="Helvetica,sans-Serif" font-size="10.00">::value</text>
</a>
</g>
</g>
<!-- Node1&#45;&gt;Node8 -->
<g id="edge20" class="edge">
<title>Node1&#45;&gt;Node8</title>
<path fill="none" stroke="midnightblue" d="M494.42,-393.93C484.9,-396.23 475.22,-398.48 466,-400.5 407.24,-413.36 339.69,-425.81 292.31,-434.17"/>
<polygon fill="midnightblue" stroke="midnightblue" points="495.37,-397.3 504.26,-391.52 493.71,-390.5 495.37,-397.3"/>
</g>
<!-- Node11 -->
<g id="node11" class="node">
<title>Node11</title>
<g id="a_node11"><a xlink:href="a01605.html#a364997745e8a4db417d1c1bfd252ee61" target="_top" xlink:title="get a pointer to the value (object)">
<polygon fill="white" stroke="black" points="336,-361.5 336,-391.5 458,-391.5 458,-361.5 336,-361.5"/>
<text text-anchor="start" x="344" y="-379.5" font-family="Helvetica,sans-Serif" font-size="10.00">nlohmann::basic_json</text>
<text text-anchor="middle" x="397" y="-368.5" font-family="Helvetica,sans-Serif" font-size="10.00">::get_impl_ptr</text>
</a>
</g>
</g>
<!-- Node1&#45;&gt;Node11 -->
<g id="edge10" class="edge">
<title>Node1&#45;&gt;Node11</title>
<path fill="none" stroke="midnightblue" d="M491.7,-376.5C480.52,-376.5 469.05,-376.5 458.13,-376.5"/>
<polygon fill="midnightblue" stroke="midnightblue" points="491.86,-380 501.86,-376.5 491.86,-373 491.86,-380"/>
</g>
<!-- Node13 -->
<g id="node13" class="node">
<title>Node13</title>
<g id="a_node13"><a xlink:href="a01605.html#aab2bc544912cb3954b38ee76772c16d7" target="_top" xlink:title="inserts elements">
<polygon fill="white" stroke="black" points="336,-312.5 336,-342.5 458,-342.5 458,-312.5 336,-312.5"/>
<text text-anchor="start" x="344" y="-330.5" font-family="Helvetica,sans-Serif" font-size="10.00">nlohmann::basic_json</text>
<text text-anchor="middle" x="397" y="-319.5" font-family="Helvetica,sans-Serif" font-size="10.00">::insert</text>
</a>
</g>
</g>
<!-- Node1&#45;&gt;Node13 -->
<g id="edge12" class="edge">
<title>Node1&#45;&gt;Node13</title>
<path fill="none" stroke="midnightblue" d="M501.87,-358.53C484.29,-353.28 465.28,-347.6 448.38,-342.55"/>
<polygon fill="midnightblue" stroke="midnightblue" points="500.87,-361.89 511.46,-361.4 502.88,-355.18 500.87,-361.89"/>
</g>
<!-- Node14 -->
<g id="node14" class="node">
<title>Node14</title>
<g id="a_node14"><a xlink:href="a01605.html#a5a53e5a09d9123bfeed6f664b1334f8c" target="_top" xlink:title="return whether type is structured">
<polygon fill="white" stroke="black" points="336,-263.5 336,-293.5 458,-293.5 458,-263.5 336,-263.5"/>
<text text-anchor="start" x="344" y="-281.5" font-family="Helvetica,sans-Serif" font-size="10.00">nlohmann::basic_json</text>
<text text-anchor="middle" x="397" y="-270.5" font-family="Helvetica,sans-Serif" font-size="10.00">::is_structured</text>
</a>
</g>
</g>
<!-- Node1&#45;&gt;Node14 -->
<g id="edge13" class="edge">
<title>Node1&#45;&gt;Node14</title>
<path fill="none" stroke="midnightblue" d="M538.14,-354.62C519.57,-338.5 492.57,-316.95 466,-302.5 459.95,-299.21 453.36,-296.23 446.74,-293.57"/>
<polygon fill="midnightblue" stroke="midnightblue" points="535.98,-357.39 545.8,-361.38 540.61,-352.14 535.98,-357.39"/>
</g>
<!-- Node15 -->
<g id="node15" class="node">
<title>Node15</title>
<g id="a_node15"><a xlink:href="a01605.html#ab68414151f2f3347a71c7a9984f1d72d" target="_top" xlink:title="applies a JSON Merge Patch">
<polygon fill="white" stroke="black" points="336,-196.5 336,-226.5 458,-226.5 458,-196.5 336,-196.5"/>
<text text-anchor="start" x="344" y="-214.5" font-family="Helvetica,sans-Serif" font-size="10.00">nlohmann::basic_json</text>
<text text-anchor="middle" x="397" y="-203.5" font-family="Helvetica,sans-Serif" font-size="10.00">::merge_patch</text>
</a>
</g>
</g>
<!-- Node1&#45;&gt;Node15 -->
<g id="edge14" class="edge">
<title>Node1&#45;&gt;Node15</title>
<path fill="none" stroke="midnightblue" d="M547.28,-352.89C530.05,-326.52 499.56,-283.58 466,-253.5 454.43,-243.13 439.96,-233.79 427.36,-226.57"/>
<polygon fill="midnightblue" stroke="midnightblue" points="544.46,-354.97 552.81,-361.48 550.34,-351.18 544.46,-354.97"/>
</g>
<!-- Node16 -->
<g id="node16" class="node">
<title>Node16</title>
<g id="a_node16"><a xlink:href="a01605.html#ad983106f7d7fd6a03cf609a9641976f4" target="_top" xlink:title="access specified object element">
<polygon fill="white" stroke="black" points="336,-147.5 336,-177.5 458,-177.5 458,-147.5 336,-147.5"/>
<text text-anchor="start" x="344" y="-165.5" font-family="Helvetica,sans-Serif" font-size="10.00">nlohmann::basic_json</text>
<text text-anchor="middle" x="397" y="-154.5" font-family="Helvetica,sans-Serif" font-size="10.00">::operator[]</text>
</a>
</g>
</g>
<!-- Node1&#45;&gt;Node16 -->
<g id="edge16" class="edge">
<title>Node1&#45;&gt;Node16</title>
<path fill="none" stroke="midnightblue" d="M555.87,-351.46C544.74,-311.13 517.47,-231.75 466,-186.5 462.14,-183.11 457.78,-180.19 453.17,-177.68"/>
<polygon fill="midnightblue" stroke="midnightblue" points="552.53,-352.51 558.47,-361.28 559.3,-350.72 552.53,-352.51"/>
</g>
<!-- Node17 -->
<g id="node17" class="node">
<title>Node17</title>
<g id="a_node17"><a xlink:href="a01605.html#affac3bab5efcb26cdcd0942d24ad0ab5" target="_top" xlink:title="add an object to an object">
<polygon fill="white" stroke="black" points="336,-98.5 336,-128.5 458,-128.5 458,-98.5 336,-98.5"/>
<text text-anchor="start" x="344" y="-116.5" font-family="Helvetica,sans-Serif" font-size="10.00">nlohmann::basic_json</text>
<text text-anchor="middle" x="397" y="-105.5" font-family="Helvetica,sans-Serif" font-size="10.00">::push_back</text>
</a>
</g>
</g>
<!-- Node1&#45;&gt;Node17 -->
<g id="edge17" class="edge">
<title>Node1&#45;&gt;Node17</title>
<path fill="none" stroke="midnightblue" d="M558.78,-351.33C551.32,-303.14 528.43,-197.32 466,-137.5 462.38,-134.04 458.24,-131.07 453.82,-128.53"/>
<polygon fill="midnightblue" stroke="midnightblue" points="555.32,-351.84 560.22,-361.23 562.25,-350.83 555.32,-351.84"/>
</g>
<!-- Node18 -->
<g id="node18" class="node">
<title>Node18</title>
<g id="a_node18"><a xlink:href="a01605.html#a02f73d65a38b3f0450c992e8c337d522" target="_top" xlink:title="exchanges the values">
<polygon fill="white" stroke="black" points="336,-49.5 336,-79.5 458,-79.5 458,-49.5 336,-49.5"/>
<text text-anchor="start" x="344" y="-67.5" font-family="Helvetica,sans-Serif" font-size="10.00">nlohmann::basic_json</text>
<text text-anchor="middle" x="397" y="-56.5" font-family="Helvetica,sans-Serif" font-size="10.00">::swap</text>
</a>
</g>
</g>
<!-- Node1&#45;&gt;Node18 -->
<g id="edge18" class="edge">
<title>Node1&#45;&gt;Node18</title>
<path fill="none" stroke="midnightblue" d="M560.76,-350.99C556.71,-295.58 539.44,-163.24 466,-88.5 462.67,-85.11 458.82,-82.19 454.7,-79.69"/>
<polygon fill="midnightblue" stroke="midnightblue" points="557.29,-351.54 561.43,-361.3 564.28,-351.09 557.29,-351.54"/>
</g>
<!-- Node19 -->
<g id="node19" class="node">
<title>Node19</title>
<g id="a_node19"><a xlink:href="a01605.html#a6c02637be3d8bd730a14082cc05f7a85" target="_top" xlink:title="updates a JSON object from another object, overwriting existing keys">
<polygon fill="white" stroke="black" points="336,-0.5 336,-30.5 458,-30.5 458,-0.5 336,-0.5"/>
<text text-anchor="start" x="344" y="-18.5" font-family="Helvetica,sans-Serif" font-size="10.00">nlohmann::basic_json</text>
<text text-anchor="middle" x="397" y="-7.5" font-family="Helvetica,sans-Serif" font-size="10.00">::update</text>
</a>
</g>
</g>
<!-- Node1&#45;&gt;Node19 -->
<g id="edge19" class="edge">
<title>Node1&#45;&gt;Node19</title>
<path fill="none" stroke="midnightblue" d="M562.24,-351.03C561.42,-289.2 550.73,-129.63 466,-39.5 462.74,-36.03 458.95,-33.07 454.86,-30.53"/>
<polygon fill="midnightblue" stroke="midnightblue" points="558.74,-351.42 562.29,-361.4 565.74,-351.38 558.74,-351.42"/>
</g>
<!-- Node7&#45;&gt;Node8 -->
<g id="edge7" class="edge">
<title>Node7&#45;&gt;Node8</title>
<path fill="none" stroke="midnightblue" d="M325.7,-455.93C314.52,-454.56 303.05,-453.16 292.13,-451.83"/>
<polygon fill="midnightblue" stroke="midnightblue" points="325.51,-459.43 335.86,-457.17 326.36,-452.48 325.51,-459.43"/>
</g>
<!-- Node9 -->
<g id="node9" class="node">
<title>Node9</title>
<g id="a_node9"><a xlink:href="a02005.html#a7d36046b1d3a41021459229963aa906d" target="_top" xlink:title="constructor for strings">
<polygon fill="white" stroke="black" points="0,-454.5 0,-484.5 134,-484.5 134,-454.5 0,-454.5"/>
<text text-anchor="start" x="8" y="-472.5" font-family="Helvetica,sans-Serif" font-size="10.00">nlohmann::basic_json</text>
<text text-anchor="middle" x="67" y="-461.5" font-family="Helvetica,sans-Serif" font-size="10.00">::json_value::json_value</text>
</a>
</g>
</g>
<!-- Node8&#45;&gt;Node9 -->
<g id="edge8" class="edge">
<title>Node8&#45;&gt;Node9</title>
<path fill="none" stroke="midnightblue" d="M159.76,-455.34C151.24,-456.65 142.55,-458 134.09,-459.3"/>
<polygon fill="midnightblue" stroke="midnightblue" points="160.33,-458.79 169.68,-453.81 159.26,-451.88 160.33,-458.79"/>
</g>
<!-- Node10 -->
<g id="node10" class="node">
<title>Node10</title>
<g id="a_node10"><a xlink:href="a01605.html#a7a378b9282dd1f7eb9bfffea6d177bbe" target="_top" xlink:title="overload for a default value of type const char*">
<polygon fill="white" stroke="black" points="6,-405.5 6,-435.5 128,-435.5 128,-405.5 6,-405.5"/>
<text text-anchor="start" x="14" y="-423.5" font-family="Helvetica,sans-Serif" font-size="10.00">nlohmann::basic_json</text>
<text text-anchor="middle" x="67" y="-412.5" font-family="Helvetica,sans-Serif" font-size="10.00">::value</text>
</a>
</g>
</g>
<!-- Node8&#45;&gt;Node10 -->
<g id="edge9" class="edge">
<title>Node8&#45;&gt;Node10</title>
<path fill="none" stroke="midnightblue" d="M159.69,-434.08C149.16,-432.52 138.39,-430.93 128.1,-429.4"/>
<polygon fill="midnightblue" stroke="midnightblue" points="159.27,-437.56 169.68,-435.56 160.3,-430.64 159.27,-437.56"/>
</g>
<!-- Node12 -->
<g id="node12" class="node">
<title>Node12</title>
<g id="a_node12"><a xlink:href="a01605.html#a9e639075f5b3f1733fcb5f04aea3da95" target="_top" xlink:title="get a pointer value (implicit)">
<polygon fill="white" stroke="black" points="170,-361.5 170,-391.5 292,-391.5 292,-361.5 170,-361.5"/>
<text text-anchor="start" x="178" y="-379.5" font-family="Helvetica,sans-Serif" font-size="10.00">nlohmann::basic_json</text>
<text text-anchor="middle" x="231" y="-368.5" font-family="Helvetica,sans-Serif" font-size="10.00">::get_ptr</text>
</a>
</g>
</g>
<!-- Node11&#45;&gt;Node12 -->
<g id="edge11" class="edge">
<title>Node11&#45;&gt;Node12</title>
<path fill="none" stroke="midnightblue" d="M325.7,-376.5C314.52,-376.5 303.05,-376.5 292.13,-376.5"/>
<polygon fill="midnightblue" stroke="midnightblue" points="325.86,-380 335.86,-376.5 325.86,-373 325.86,-380"/>
</g>
<!-- Node15&#45;&gt;Node15 -->
<g id="edge15" class="edge">
<title>Node15&#45;&gt;Node15</title>
<path fill="none" stroke="midnightblue" d="M426.5,-236.96C422.84,-241.68 413,-245 397,-245 370.74,-245 361.1,-236.06 368.07,-226.66"/>
<polygon fill="midnightblue" stroke="midnightblue" points="429.97,-236.45 425.93,-226.66 422.98,-236.84 429.97,-236.45"/>
</g>
</g>
</svg>
