<?xml version="1.0" encoding="UTF-8" standalone="no"?>
<!DOCTYPE svg PUBLIC "-//W3C//DTD SVG 1.1//EN"
 "http://www.w3.org/Graphics/SVG/1.1/DTD/svg11.dtd">
<!-- Generated by graphviz version 2.43.0 (0)
 -->
<!-- Title: nlohmann::basic_json::get Pages: 1 -->
<svg width="844pt" height="88pt"
 viewBox="0.00 0.00 844.00 88.00" xmlns="http://www.w3.org/2000/svg" xmlns:xlink="http://www.w3.org/1999/xlink">
<g id="graph0" class="graph" transform="scale(1 1) rotate(0) translate(4 84)">
<title>nlohmann::basic_json::get</title>
<polygon fill="white" stroke="transparent" points="-4,4 -4,-84 840,-84 840,4 -4,4"/>
<!-- Node1 -->
<g id="node1" class="node">
<title>Node1</title>
<g id="a_node1"><a xlink:title="get a value (explicit)">
<polygon fill="#bfbfbf" stroke="black" points="0,-30 0,-49 144,-49 144,-30 0,-30"/>
<text text-anchor="middle" x="72" y="-37" font-family="Helvetica,sans-Serif" font-size="10.00">nlohmann::basic_json::get</text>
</a>
</g>
</g>
<!-- Node2 -->
<g id="node2" class="node">
<title>Node2</title>
<g id="a_node2"><a xlink:href="a00411.html#aef5c8ea108f4d2b03fb4a635617510de" target="_top" xlink:title=" ">
<polygon fill="white" stroke="black" points="180,-30 180,-49 334,-49 334,-30 180,-30"/>
<text text-anchor="middle" x="257" y="-37" font-family="Helvetica,sans-Serif" font-size="10.00">nlohmann::detail::from_json</text>
</a>
</g>
</g>
<!-- Node1&#45;&gt;Node2 -->
<g id="edge1" class="edge">
<title>Node1&#45;&gt;Node2</title>
<path fill="none" stroke="midnightblue" d="M144.01,-39.5C152.46,-39.5 161.16,-39.5 169.79,-39.5"/>
<polygon fill="midnightblue" stroke="midnightblue" points="169.87,-43 179.87,-39.5 169.87,-36 169.87,-43"/>
</g>
<!-- Node3 -->
<g id="node3" class="node">
<title>Node3</title>
<g id="a_node3"><a xlink:href="a01517.html#aecc083aea4b698c33d042670ba50c10f" target="_top" xlink:title=" ">
<polygon fill="white" stroke="black" points="370,-24.5 370,-54.5 497,-54.5 497,-24.5 370,-24.5"/>
<text text-anchor="start" x="378" y="-42.5" font-family="Helvetica,sans-Serif" font-size="10.00">nlohmann::detail::type</text>
<text text-anchor="middle" x="433.5" y="-31.5" font-family="Helvetica,sans-Serif" font-size="10.00">_error::create</text>
</a>
</g>
</g>
<!-- Node2&#45;&gt;Node3 -->
<g id="edge2" class="edge">
<title>Node2&#45;&gt;Node3</title>
<path fill="none" stroke="midnightblue" d="M334.03,-39.5C342.52,-39.5 351.15,-39.5 359.6,-39.5"/>
<polygon fill="midnightblue" stroke="midnightblue" points="359.79,-43 369.79,-39.5 359.79,-36 359.79,-43"/>
</g>
<!-- Node4 -->
<g id="node4" class="node">
<title>Node4</title>
<g id="a_node4"><a xlink:href="a01505.html#abf41a7e9178356314082284e6cfea278" target="_top" xlink:title=" ">
<polygon fill="white" stroke="black" points="533,-49.5 533,-79.5 686,-79.5 686,-49.5 533,-49.5"/>
<text text-anchor="start" x="541" y="-67.5" font-family="Helvetica,sans-Serif" font-size="10.00">nlohmann::detail::exception</text>
<text text-anchor="middle" x="609.5" y="-56.5" font-family="Helvetica,sans-Serif" font-size="10.00">::name</text>
</a>
</g>
</g>
<!-- Node3&#45;&gt;Node4 -->
<g id="edge3" class="edge">
<title>Node3&#45;&gt;Node4</title>
<path fill="none" stroke="midnightblue" d="M497.32,-48.53C505.57,-49.71 514.15,-50.94 522.7,-52.17"/>
<polygon fill="midnightblue" stroke="midnightblue" points="522.32,-55.65 532.72,-53.61 523.32,-48.73 522.32,-55.65"/>
</g>
<!-- Node6 -->
<g id="node6" class="node">
<title>Node6</title>
<g id="a_node6"><a xlink:href="a01517.html#aa01edaa0bf18b853368f0b900e485cd7" target="_top" xlink:title=" ">
<polygon fill="white" stroke="black" points="546,-0.5 546,-30.5 673,-30.5 673,-0.5 546,-0.5"/>
<text text-anchor="start" x="554" y="-18.5" font-family="Helvetica,sans-Serif" font-size="10.00">nlohmann::detail::type</text>
<text text-anchor="middle" x="609.5" y="-7.5" font-family="Helvetica,sans-Serif" font-size="10.00">_error::type_error</text>
</a>
</g>
</g>
<!-- Node3&#45;&gt;Node6 -->
<g id="edge5" class="edge">
<title>Node3&#45;&gt;Node6</title>
<path fill="none" stroke="midnightblue" d="M497.32,-30.84C509.76,-29.12 522.92,-27.3 535.67,-25.55"/>
<polygon fill="midnightblue" stroke="midnightblue" points="536.35,-28.99 545.77,-24.15 535.39,-22.05 536.35,-28.99"/>
</g>
<!-- Node5 -->
<g id="node5" class="node">
<title>Node5</title>
<g id="a_node5"><a xlink:href="a00410.html#a6ce645a0b8717757e096a5b5773b7a16" target="_top" xlink:title="user&#45;defined to_string function for JSON values">
<polygon fill="white" stroke="black" points="722,-55 722,-74 836,-74 836,-55 722,-55"/>
<text text-anchor="middle" x="779" y="-62" font-family="Helvetica,sans-Serif" font-size="10.00">nlohmann::to_string</text>
</a>
</g>
</g>
<!-- Node4&#45;&gt;Node5 -->
<g id="edge4" class="edge">
<title>Node4&#45;&gt;Node5</title>
<path fill="none" stroke="midnightblue" d="M686.41,-64.5C694.9,-64.5 703.5,-64.5 711.86,-64.5"/>
<polygon fill="midnightblue" stroke="midnightblue" points="711.9,-68 721.9,-64.5 711.9,-61 711.9,-68"/>
</g>
</g>
</svg>
