<?xml version="1.0" encoding="UTF-8" standalone="no"?>
<!DOCTYPE svg PUBLIC "-//W3C//DTD SVG 1.1//EN"
 "http://www.w3.org/Graphics/SVG/1.1/DTD/svg11.dtd">
<!-- Generated by graphviz version 2.43.0 (0)
 -->
<!-- Title: nlohmann::basic_json::value Pages: 1 -->
<svg width="983pt" height="258pt"
 viewBox="0.00 0.00 983.00 258.00" xmlns="http://www.w3.org/2000/svg" xmlns:xlink="http://www.w3.org/1999/xlink">
<g id="graph0" class="graph" transform="scale(1 1) rotate(0) translate(4 254)">
<title>nlohmann::basic_json::value</title>
<polygon fill="white" stroke="transparent" points="-4,4 -4,-254 979,-254 979,4 -4,4"/>
<!-- Node1 -->
<g id="node1" class="node">
<title>Node1</title>
<g id="a_node1"><a xlink:title="overload for a default value of type const char*">
<polygon fill="#bfbfbf" stroke="black" points="0,-88.5 0,-118.5 122,-118.5 122,-88.5 0,-88.5"/>
<text text-anchor="start" x="8" y="-106.5" font-family="Helvetica,sans-Serif" font-size="10.00">nlohmann::basic_json</text>
<text text-anchor="middle" x="61" y="-95.5" font-family="Helvetica,sans-Serif" font-size="10.00">::value</text>
</a>
</g>
</g>
<!-- Node2 -->
<g id="node2" class="node">
<title>Node2</title>
<g id="a_node2"><a xlink:href="a01605.html#ab29a59d20767180d6d2fe4f5054dd245" target="_top" xlink:title="access specified object element with default value">
<polygon fill="white" stroke="black" points="158,-88.5 158,-118.5 280,-118.5 280,-88.5 158,-88.5"/>
<text text-anchor="start" x="166" y="-106.5" font-family="Helvetica,sans-Serif" font-size="10.00">nlohmann::basic_json</text>
<text text-anchor="middle" x="219" y="-95.5" font-family="Helvetica,sans-Serif" font-size="10.00">::value</text>
</a>
</g>
</g>
<!-- Node1&#45;&gt;Node2 -->
<g id="edge1" class="edge">
<title>Node1&#45;&gt;Node2</title>
<path fill="none" stroke="midnightblue" d="M122.31,-103.5C130.6,-103.5 139.17,-103.5 147.63,-103.5"/>
<polygon fill="midnightblue" stroke="midnightblue" points="147.85,-107 157.85,-103.5 147.85,-100 147.85,-107"/>
</g>
<!-- Node3 -->
<g id="node3" class="node">
<title>Node3</title>
<g id="a_node3"><a xlink:href="a01517.html#aecc083aea4b698c33d042670ba50c10f" target="_top" xlink:title=" ">
<polygon fill="white" stroke="black" points="316,-176.5 316,-206.5 443,-206.5 443,-176.5 316,-176.5"/>
<text text-anchor="start" x="324" y="-194.5" font-family="Helvetica,sans-Serif" font-size="10.00">nlohmann::detail::type</text>
<text text-anchor="middle" x="379.5" y="-183.5" font-family="Helvetica,sans-Serif" font-size="10.00">_error::create</text>
</a>
</g>
</g>
<!-- Node2&#45;&gt;Node3 -->
<g id="edge2" class="edge">
<title>Node2&#45;&gt;Node3</title>
<path fill="none" stroke="midnightblue" d="M243.7,-118.69C262.9,-130.79 290.82,-147.89 316,-161.5 322.48,-165 329.43,-168.54 336.26,-171.91"/>
<polygon fill="midnightblue" stroke="midnightblue" points="334.92,-175.14 345.44,-176.36 337.97,-168.85 334.92,-175.14"/>
</g>
<!-- Node7 -->
<g id="node7" class="node">
<title>Node7</title>
<g id="a_node7"><a xlink:href="a01605.html#a4db895fabb72f717b2c641a5c338d5a8" target="_top" xlink:title="returns an iterator to one past the last element">
<polygon fill="white" stroke="black" points="482.5,-127 482.5,-146 628.5,-146 628.5,-127 482.5,-127"/>
<text text-anchor="middle" x="555.5" y="-134" font-family="Helvetica,sans-Serif" font-size="10.00">nlohmann::basic_json::end</text>
</a>
</g>
</g>
<!-- Node2&#45;&gt;Node7 -->
<g id="edge6" class="edge">
<title>Node2&#45;&gt;Node7</title>
<path fill="none" stroke="midnightblue" d="M269.4,-118.59C284.24,-122.52 300.66,-126.27 316,-128.5 367.55,-135.98 426,-138.05 472.13,-138.21"/>
<polygon fill="midnightblue" stroke="midnightblue" points="472.38,-141.71 482.38,-138.21 472.38,-134.71 472.38,-141.71"/>
</g>
<!-- Node10 -->
<g id="node10" class="node">
<title>Node10</title>
<g id="a_node10"><a xlink:href="a01605.html#af4167275baa0b2da76cdc89b1117c300" target="_top" xlink:title="find an element in a JSON object">
<polygon fill="white" stroke="black" points="318.5,-88.5 318.5,-118.5 440.5,-118.5 440.5,-88.5 318.5,-88.5"/>
<text text-anchor="start" x="326.5" y="-106.5" font-family="Helvetica,sans-Serif" font-size="10.00">nlohmann::basic_json</text>
<text text-anchor="middle" x="379.5" y="-95.5" font-family="Helvetica,sans-Serif" font-size="10.00">::find</text>
</a>
</g>
</g>
<!-- Node2&#45;&gt;Node10 -->
<g id="edge9" class="edge">
<title>Node2&#45;&gt;Node10</title>
<path fill="none" stroke="midnightblue" d="M280.37,-103.5C289.5,-103.5 298.97,-103.5 308.28,-103.5"/>
<polygon fill="midnightblue" stroke="midnightblue" points="308.29,-107 318.29,-103.5 308.29,-100 308.29,-107"/>
</g>
<!-- Node11 -->
<g id="node11" class="node">
<title>Node11</title>
<g id="a_node11"><a xlink:href="a01605.html#ae3300a95d3bb4a55cb0e04b9f125e42f" target="_top" xlink:title="return whether value is an object">
<polygon fill="white" stroke="black" points="494.5,-66.5 494.5,-96.5 616.5,-96.5 616.5,-66.5 494.5,-66.5"/>
<text text-anchor="start" x="502.5" y="-84.5" font-family="Helvetica,sans-Serif" font-size="10.00">nlohmann::basic_json</text>
<text text-anchor="middle" x="555.5" y="-73.5" font-family="Helvetica,sans-Serif" font-size="10.00">::is_object</text>
</a>
</g>
</g>
<!-- Node2&#45;&gt;Node11 -->
<g id="edge12" class="edge">
<title>Node2&#45;&gt;Node11</title>
<path fill="none" stroke="midnightblue" d="M267.87,-88.48C283.1,-84.39 300.11,-80.53 316,-78.5 372.25,-71.3 436.57,-72.66 484.23,-75.48"/>
<polygon fill="midnightblue" stroke="midnightblue" points="484.24,-78.99 494.44,-76.13 484.68,-72 484.24,-78.99"/>
</g>
<!-- Node12 -->
<g id="node12" class="node">
<title>Node12</title>
<g id="a_node12"><a xlink:href="a01605.html#a0fb9647ea72df0a3099cf6dd7e3f53e9" target="_top" xlink:title="return the type as string">
<polygon fill="white" stroke="black" points="318.5,-0.5 318.5,-30.5 440.5,-30.5 440.5,-0.5 318.5,-0.5"/>
<text text-anchor="start" x="326.5" y="-18.5" font-family="Helvetica,sans-Serif" font-size="10.00">nlohmann::basic_json</text>
<text text-anchor="middle" x="379.5" y="-7.5" font-family="Helvetica,sans-Serif" font-size="10.00">::type_name</text>
</a>
</g>
</g>
<!-- Node2&#45;&gt;Node12 -->
<g id="edge13" class="edge">
<title>Node2&#45;&gt;Node12</title>
<path fill="none" stroke="midnightblue" d="M243.7,-88.31C262.9,-76.21 290.82,-59.11 316,-45.5 322.48,-42 329.43,-38.46 336.26,-35.09"/>
<polygon fill="midnightblue" stroke="midnightblue" points="337.97,-38.15 345.44,-30.64 334.92,-31.86 337.97,-38.15"/>
</g>
<!-- Node4 -->
<g id="node4" class="node">
<title>Node4</title>
<g id="a_node4"><a xlink:href="a01505.html#abf41a7e9178356314082284e6cfea278" target="_top" xlink:title=" ">
<polygon fill="white" stroke="black" points="479,-219.5 479,-249.5 632,-249.5 632,-219.5 479,-219.5"/>
<text text-anchor="start" x="487" y="-237.5" font-family="Helvetica,sans-Serif" font-size="10.00">nlohmann::detail::exception</text>
<text text-anchor="middle" x="555.5" y="-226.5" font-family="Helvetica,sans-Serif" font-size="10.00">::name</text>
</a>
</g>
</g>
<!-- Node3&#45;&gt;Node4 -->
<g id="edge3" class="edge">
<title>Node3&#45;&gt;Node4</title>
<path fill="none" stroke="midnightblue" d="M441.36,-206.54C455,-209.91 469.59,-213.52 483.6,-216.98"/>
<polygon fill="midnightblue" stroke="midnightblue" points="483.13,-220.47 493.68,-219.47 484.81,-213.67 483.13,-220.47"/>
</g>
<!-- Node6 -->
<g id="node6" class="node">
<title>Node6</title>
<g id="a_node6"><a xlink:href="a01517.html#aa01edaa0bf18b853368f0b900e485cd7" target="_top" xlink:title=" ">
<polygon fill="white" stroke="black" points="492,-170.5 492,-200.5 619,-200.5 619,-170.5 492,-170.5"/>
<text text-anchor="start" x="500" y="-188.5" font-family="Helvetica,sans-Serif" font-size="10.00">nlohmann::detail::type</text>
<text text-anchor="middle" x="555.5" y="-177.5" font-family="Helvetica,sans-Serif" font-size="10.00">_error::type_error</text>
</a>
</g>
</g>
<!-- Node3&#45;&gt;Node6 -->
<g id="edge5" class="edge">
<title>Node3&#45;&gt;Node6</title>
<path fill="none" stroke="midnightblue" d="M443.32,-189.33C455.76,-188.9 468.92,-188.45 481.67,-188.01"/>
<polygon fill="midnightblue" stroke="midnightblue" points="481.9,-191.51 491.77,-187.66 481.66,-184.51 481.9,-191.51"/>
</g>
<!-- Node5 -->
<g id="node5" class="node">
<title>Node5</title>
<g id="a_node5"><a xlink:href="a00410.html#a6ce645a0b8717757e096a5b5773b7a16" target="_top" xlink:title="user&#45;defined to_string function for JSON values">
<polygon fill="white" stroke="black" points="672,-225 672,-244 786,-244 786,-225 672,-225"/>
<text text-anchor="middle" x="729" y="-232" font-family="Helvetica,sans-Serif" font-size="10.00">nlohmann::to_string</text>
</a>
</g>
</g>
<!-- Node4&#45;&gt;Node5 -->
<g id="edge4" class="edge">
<title>Node4&#45;&gt;Node5</title>
<path fill="none" stroke="midnightblue" d="M632.22,-234.5C642.14,-234.5 652.25,-234.5 661.99,-234.5"/>
<polygon fill="midnightblue" stroke="midnightblue" points="662,-238 672,-234.5 662,-231 662,-238"/>
</g>
<!-- Node8 -->
<g id="node8" class="node">
<title>Node8</title>
<g id="a_node8"><a xlink:href="a01957.html#a23e50ad4c13aa62d9ac7f60a123823ee" target="_top" xlink:title="set the iterator past the last value">
<polygon fill="white" stroke="black" points="668,-121.5 668,-151.5 790,-151.5 790,-121.5 668,-121.5"/>
<text text-anchor="start" x="676" y="-139.5" font-family="Helvetica,sans-Serif" font-size="10.00">nlohmann::detail::iter</text>
<text text-anchor="middle" x="729" y="-128.5" font-family="Helvetica,sans-Serif" font-size="10.00">_impl::set_end</text>
</a>
</g>
</g>
<!-- Node7&#45;&gt;Node8 -->
<g id="edge7" class="edge">
<title>Node7&#45;&gt;Node8</title>
<path fill="none" stroke="midnightblue" d="M628.73,-136.5C638.28,-136.5 648.06,-136.5 657.57,-136.5"/>
<polygon fill="midnightblue" stroke="midnightblue" points="657.77,-140 667.77,-136.5 657.77,-133 657.77,-140"/>
</g>
<!-- Node9 -->
<g id="node9" class="node">
<title>Node9</title>
<g id="a_node9"><a xlink:href="a01949.html#ad26a823483846a12d890c3feed3097eb" target="_top" xlink:title="set iterator to a defined past the end">
<polygon fill="white" stroke="black" points="826,-121.5 826,-151.5 975,-151.5 975,-121.5 826,-121.5"/>
<text text-anchor="start" x="834" y="-139.5" font-family="Helvetica,sans-Serif" font-size="10.00">nlohmann::detail::primitive</text>
<text text-anchor="middle" x="900.5" y="-128.5" font-family="Helvetica,sans-Serif" font-size="10.00">_iterator_t::set_end</text>
</a>
</g>
</g>
<!-- Node8&#45;&gt;Node9 -->
<g id="edge8" class="edge">
<title>Node8&#45;&gt;Node9</title>
<path fill="none" stroke="midnightblue" d="M790.24,-136.5C798.51,-136.5 807.13,-136.5 815.73,-136.5"/>
<polygon fill="midnightblue" stroke="midnightblue" points="815.8,-140 825.8,-136.5 815.8,-133 815.8,-140"/>
</g>
<!-- Node10&#45;&gt;Node7 -->
<g id="edge10" class="edge">
<title>Node10&#45;&gt;Node7</title>
<path fill="none" stroke="midnightblue" d="M440.87,-114.95C458.18,-118.23 477.05,-121.81 494.35,-125.09"/>
<polygon fill="midnightblue" stroke="midnightblue" points="493.85,-128.56 504.33,-126.99 495.16,-121.68 493.85,-128.56"/>
</g>
<!-- Node10&#45;&gt;Node11 -->
<g id="edge11" class="edge">
<title>Node10&#45;&gt;Node11</title>
<path fill="none" stroke="midnightblue" d="M440.87,-95.87C454.77,-94.11 469.67,-92.23 483.96,-90.42"/>
<polygon fill="midnightblue" stroke="midnightblue" points="484.76,-93.85 494.24,-89.12 483.88,-86.9 484.76,-93.85"/>
</g>
</g>
</svg>
