<?xml version="1.0" encoding="UTF-8" standalone="no"?>
<!DOCTYPE svg PUBLIC "-//W3C//DTD SVG 1.1//EN"
 "http://www.w3.org/Graphics/SVG/1.1/DTD/svg11.dtd">
<!-- Generated by graphviz version 8.0.5 (20230430.1635)
 -->
<!-- Title: nlohmann::ordered_map::emplace Pages: 1 -->
<svg width="285pt" height="90pt"
 viewBox="0.00 0.00 284.50 90.00" xmlns="http://www.w3.org/2000/svg" xmlns:xlink="http://www.w3.org/1999/xlink">
<g id="graph0" class="graph" transform="scale(1 1) rotate(0) translate(4 86)">
<title>nlohmann::ordered_map::emplace</title>
<!-- Node1 -->
<g id="node1" class="node">
<title>Node1</title>
<g id="a_node1"><a xlink:title=" ">
<polygon fill="#999999" stroke="#666666" points="276.5,-57 156.25,-57 156.25,-25 276.5,-25 276.5,-57"/>
<text text-anchor="start" x="164.25" y="-43.5" font-family="Helvetica,sans-Serif" font-size="10.00">nlohmann::ordered_map</text>
<text text-anchor="middle" x="216.38" y="-31.5" font-family="Helvetica,sans-Serif" font-size="10.00">::emplace</text>
</a>
</g>
</g>
<!-- Node2 -->
<g id="node2" class="node">
<title>Node2</title>
<g id="a_node2"><a xlink:href="a01601.html#a2dafd3fdc7dbd3233bb8c85824ee7cb0" target="_top" xlink:title=" ">
<polygon fill="white" stroke="#666666" points="120.25,-82 0,-82 0,-50 120.25,-50 120.25,-82"/>
<text text-anchor="start" x="8" y="-68.5" font-family="Helvetica,sans-Serif" font-size="10.00">nlohmann::ordered_map</text>
<text text-anchor="middle" x="60.13" y="-56.5" font-family="Helvetica,sans-Serif" font-size="10.00">::insert</text>
</a>
</g>
</g>
<!-- Node1&#45;&gt;Node2 -->
<g id="edge1" class="edge">
<title>Node1&#45;&gt;Node2</title>
<path fill="none" stroke="#63b8ff" d="M145.41,-52.34C137.15,-53.68 128.77,-55.04 120.67,-56.35"/>
<polygon fill="#63b8ff" stroke="#63b8ff" points="145.87,-55.65 155.18,-50.59 144.75,-48.74 145.87,-55.65"/>
</g>
<!-- Node3 -->
<g id="node3" class="node">
<title>Node3</title>
<g id="a_node3"><a xlink:href="a01601.html#a6b0fab5f824a32ddddfd423821e597c6" target="_top" xlink:title=" ">
<polygon fill="white" stroke="#666666" points="120.25,-32 0,-32 0,0 120.25,0 120.25,-32"/>
<text text-anchor="start" x="8" y="-18.5" font-family="Helvetica,sans-Serif" font-size="10.00">nlohmann::ordered_map</text>
<text text-anchor="middle" x="60.13" y="-6.5" font-family="Helvetica,sans-Serif" font-size="10.00">::operator[]</text>
</a>
</g>
</g>
<!-- Node1&#45;&gt;Node3 -->
<g id="edge2" class="edge">
<title>Node1&#45;&gt;Node3</title>
<path fill="none" stroke="#63b8ff" d="M145.41,-29.66C137.15,-28.32 128.77,-26.96 120.67,-25.65"/>
<polygon fill="#63b8ff" stroke="#63b8ff" points="144.75,-33.26 155.18,-31.41 145.87,-26.35 144.75,-33.26"/>
</g>
</g>
</svg>
