<?xml version="1.0" encoding="UTF-8" standalone="no"?>
<!DOCTYPE svg PUBLIC "-//W3C//DTD SVG 1.1//EN"
 "http://www.w3.org/Graphics/SVG/1.1/DTD/svg11.dtd">
<!-- Generated by graphviz version 2.43.0 (0)
 -->
<!-- Title: nlohmann::basic_json::create Pages: 1 -->
<svg width="310pt" height="78pt"
 viewBox="0.00 0.00 310.00 77.50" xmlns="http://www.w3.org/2000/svg" xmlns:xlink="http://www.w3.org/1999/xlink">
<g id="graph0" class="graph" transform="scale(1 1) rotate(0) translate(4 73.5)">
<title>nlohmann::basic_json::create</title>
<polygon fill="white" stroke="transparent" points="-4,4 -4,-73.5 306,-73.5 306,4 -4,4"/>
<!-- Node1 -->
<g id="node1" class="node">
<title>Node1</title>
<g id="a_node1"><a xlink:title="helper for exception&#45;safe object creation">
<polygon fill="#bfbfbf" stroke="black" points="0,-22.5 0,-52.5 122,-52.5 122,-22.5 0,-22.5"/>
<text text-anchor="start" x="8" y="-40.5" font-family="Helvetica,sans-Serif" font-size="10.00">nlohmann::basic_json</text>
<text text-anchor="middle" x="61" y="-29.5" font-family="Helvetica,sans-Serif" font-size="10.00">::create</text>
</a>
</g>
</g>
<!-- Node2 -->
<g id="node2" class="node">
<title>Node2</title>
<g id="a_node2"><a xlink:href="a01605.html#adc6408fbeaf9545882dc62bc20db7d42" target="_top" xlink:title="get special&#45;case overload">
<polygon fill="white" stroke="black" points="158,-50 158,-69 302,-69 302,-50 158,-50"/>
<text text-anchor="middle" x="230" y="-57" font-family="Helvetica,sans-Serif" font-size="10.00">nlohmann::basic_json::get</text>
</a>
</g>
</g>
<!-- Node1&#45;&gt;Node2 -->
<g id="edge1" class="edge">
<title>Node1&#45;&gt;Node2</title>
<path fill="none" stroke="midnightblue" d="M122.29,-45.44C130.62,-46.54 139.28,-47.68 147.91,-48.82"/>
<polygon fill="midnightblue" stroke="midnightblue" points="147.62,-52.31 158,-50.15 148.54,-45.37 147.62,-52.31"/>
</g>
<!-- Node3 -->
<g id="node3" class="node">
<title>Node3</title>
<g id="a_node3"><a xlink:href="a01605.html#a10c8164cc94feabf095b959633c0d709" target="_top" xlink:title="explicitly create an object from an initializer list">
<polygon fill="white" stroke="black" points="169,-0.5 169,-30.5 291,-30.5 291,-0.5 169,-0.5"/>
<text text-anchor="start" x="177" y="-18.5" font-family="Helvetica,sans-Serif" font-size="10.00">nlohmann::basic_json</text>
<text text-anchor="middle" x="230" y="-7.5" font-family="Helvetica,sans-Serif" font-size="10.00">::object</text>
</a>
</g>
</g>
<!-- Node1&#45;&gt;Node3 -->
<g id="edge2" class="edge">
<title>Node1&#45;&gt;Node3</title>
<path fill="none" stroke="midnightblue" d="M122.29,-29.56C134.12,-28 146.61,-26.35 158.73,-24.76"/>
<polygon fill="midnightblue" stroke="midnightblue" points="159.34,-28.21 168.8,-23.43 158.43,-21.27 159.34,-28.21"/>
</g>
</g>
</svg>
