<?xml version="1.0" encoding="UTF-8" standalone="no"?>
<!DOCTYPE svg PUBLIC "-//W3C//DTD SVG 1.1//EN"
 "http://www.w3.org/Graphics/SVG/1.1/DTD/svg11.dtd">
<!-- Generated by graphviz version 8.0.5 (20230430.1635)
 -->
<!-- Title: nlohmann::basic_json::from_ubjson Pages: 1 -->
<svg width="2020pt" height="2343pt"
 viewBox="0.00 0.00 2019.50 2342.77" xmlns="http://www.w3.org/2000/svg" xmlns:xlink="http://www.w3.org/1999/xlink">
<g id="graph0" class="graph" transform="scale(1 1) rotate(0) translate(4 2338.77)">
<title>nlohmann::basic_json::from_ubjson</title>
<!-- Node1 -->
<g id="node1" class="node">
<title>Node1</title>
<g id="a_node1"><a xlink:title=" ">
<polygon fill="#999999" stroke="#666666" points="110.5,-1365.77 0,-1365.77 0,-1333.77 110.5,-1333.77 110.5,-1365.77"/>
<text text-anchor="start" x="8" y="-1352.27" font-family="Helvetica,sans-Serif" font-size="10.00">nlohmann::basic_json</text>
<text text-anchor="middle" x="55.25" y="-1340.27" font-family="Helvetica,sans-Serif" font-size="10.00">::from_ubjson</text>
</a>
</g>
</g>
<!-- Node2 -->
<g id="node2" class="node">
<title>Node2</title>
<g id="a_node2"><a xlink:href="a01659.html#aa81f62db69978b90ff701f05c72e03a7" target="_top" xlink:title="create a JSON value from an input in UBJSON format">
<polygon fill="white" stroke="#666666" points="257,-1365.77 146.5,-1365.77 146.5,-1333.77 257,-1333.77 257,-1365.77"/>
<text text-anchor="start" x="154.5" y="-1352.27" font-family="Helvetica,sans-Serif" font-size="10.00">nlohmann::basic_json</text>
<text text-anchor="middle" x="201.75" y="-1340.27" font-family="Helvetica,sans-Serif" font-size="10.00">::from_ubjson</text>
</a>
</g>
</g>
<!-- Node1&#45;&gt;Node2 -->
<g id="edge1" class="edge">
<title>Node1&#45;&gt;Node2</title>
<path fill="none" stroke="#63b8ff" d="M110.88,-1349.77C118.79,-1349.77 127,-1349.77 135.1,-1349.77"/>
<polygon fill="#63b8ff" stroke="#63b8ff" points="135.04,-1353.27 145.04,-1349.77 135.04,-1346.27 135.04,-1353.27"/>
</g>
<!-- Node3 -->
<g id="node3" class="node">
<title>Node3</title>
<g id="a_node3"><a xlink:href="a00477.html#a616a53cc3114fdc113fc44e6af4c3c7f" target="_top" xlink:title=" ">
<polygon fill="white" stroke="#666666" points="1326.5,-1382.77 1212.25,-1382.77 1212.25,-1350.77 1326.5,-1350.77 1326.5,-1382.77"/>
<text text-anchor="start" x="1220.25" y="-1369.27" font-family="Helvetica,sans-Serif" font-size="10.00">nlohmann::detail::input</text>
<text text-anchor="middle" x="1269.38" y="-1357.27" font-family="Helvetica,sans-Serif" font-size="10.00">_adapter</text>
</a>
</g>
</g>
<!-- Node2&#45;&gt;Node3 -->
<g id="edge2" class="edge">
<title>Node2&#45;&gt;Node3</title>
<path fill="none" stroke="#63b8ff" d="M216.09,-1366.05C256.65,-1413.58 384.11,-1548.77 521.88,-1548.77 521.88,-1548.77 521.88,-1548.77 892.63,-1548.77 1010.65,-1548.77 1067.01,-1605.54 1157.5,-1529.77 1207.42,-1487.97 1148.04,-1434.38 1193.5,-1387.77 1196.17,-1385.03 1199.17,-1382.64 1202.39,-1380.55"/>
<polygon fill="#63b8ff" stroke="#63b8ff" points="1203.79,-1383.24 1210.97,-1375.45 1200.5,-1377.06 1203.79,-1383.24"/>
</g>
<!-- Node4 -->
<g id="node4" class="node">
<title>Node4</title>
<g id="a_node4"><a xlink:href="a01995.html#ab4afd9ee276bbb15a0f898061aad94dd" target="_top" xlink:title=" ">
<polygon fill="white" stroke="#666666" points="412.5,-1207.77 293,-1207.77 293,-1175.77 412.5,-1175.77 412.5,-1207.77"/>
<text text-anchor="start" x="301" y="-1194.27" font-family="Helvetica,sans-Serif" font-size="10.00">nlohmann::detail::binary</text>
<text text-anchor="middle" x="352.75" y="-1182.27" font-family="Helvetica,sans-Serif" font-size="10.00">_reader::sax_parse</text>
</a>
</g>
</g>
<!-- Node2&#45;&gt;Node4 -->
<g id="edge3" class="edge">
<title>Node2&#45;&gt;Node4</title>
<path fill="none" stroke="#63b8ff" d="M218.13,-1333.46C244.46,-1305.54 298.25,-1248.5 328.95,-1215.95"/>
<polygon fill="#63b8ff" stroke="#63b8ff" points="330.91,-1218.91 335.23,-1209.23 325.82,-1214.11 330.91,-1218.91"/>
</g>
<!-- Node5 -->
<g id="node5" class="node">
<title>Node5</title>
<g id="a_node5"><a xlink:href="a01563.html#a137ea4d27de45d8a844fd13451d40f3d" target="_top" xlink:title="create a parse error exception">
<polygon fill="white" stroke="#666666" points="1828.25,-1112.77 1711,-1112.77 1711,-1080.77 1828.25,-1080.77 1828.25,-1112.77"/>
<text text-anchor="start" x="1719" y="-1099.27" font-family="Helvetica,sans-Serif" font-size="10.00">nlohmann::detail::parse</text>
<text text-anchor="middle" x="1769.63" y="-1087.27" font-family="Helvetica,sans-Serif" font-size="10.00">_error::create</text>
</a>
</g>
</g>
<!-- Node4&#45;&gt;Node5 -->
<g id="edge4" class="edge">
<title>Node4&#45;&gt;Node5</title>
<path fill="none" stroke="#63b8ff" d="M355.02,-1207.93C366.4,-1346.85 455.96,-2334.77 702.88,-2334.77 702.88,-2334.77 702.88,-2334.77 1445.38,-2334.77 1567.02,-2334.77 1608.51,-2277.53 1663,-2168.77 1758.84,-1977.49 1767.74,-1271.8 1768.55,-1124.02"/>
<polygon fill="#63b8ff" stroke="#63b8ff" points="1772.05,-1124.28 1768.6,-1114.26 1765.05,-1124.24 1772.05,-1124.28"/>
</g>
<!-- Node8 -->
<g id="node8" class="node">
<title>Node8</title>
<g id="a_node8"><a xlink:href="a01995.html#a9c413c9a1bade1ce345740f4d69156f0" target="_top" xlink:title=" ">
<polygon fill="white" stroke="#666666" points="1840.25,-808.77 1699,-808.77 1699,-776.77 1840.25,-776.77 1840.25,-808.77"/>
<text text-anchor="start" x="1707" y="-795.27" font-family="Helvetica,sans-Serif" font-size="10.00">nlohmann::detail::binary</text>
<text text-anchor="middle" x="1769.63" y="-783.27" font-family="Helvetica,sans-Serif" font-size="10.00">_reader::exception_message</text>
</a>
</g>
</g>
<!-- Node4&#45;&gt;Node8 -->
<g id="edge7" class="edge">
<title>Node4&#45;&gt;Node8</title>
<path fill="none" stroke="#63b8ff" d="M353.95,-1175.42C355.74,-1042.79 370.67,-146.06 448.5,-58.77 525.24,27.29 587.57,-7.77 702.88,-7.77 702.88,-7.77 702.88,-7.77 1445.38,-7.77 1578.56,-7.77 1599.54,-96.68 1663,-213.77 1716.21,-311.96 1755.56,-664.62 1765.93,-765.59"/>
<polygon fill="#63b8ff" stroke="#63b8ff" points="1762.53,-765.77 1767.02,-775.36 1769.49,-765.06 1762.53,-765.77"/>
</g>
<!-- Node9 -->
<g id="node9" class="node">
<title>Node9</title>
<g id="a_node9"><a xlink:href="a01995.html#ad222095c0b21a87824cb10629299629a" target="_top" xlink:title="get next character from the input">
<polygon fill="white" stroke="#666666" points="1663,-1336.77 1543.5,-1336.77 1543.5,-1304.77 1663,-1304.77 1663,-1336.77"/>
<text text-anchor="start" x="1551.5" y="-1323.27" font-family="Helvetica,sans-Serif" font-size="10.00">nlohmann::detail::binary</text>
<text text-anchor="middle" x="1603.25" y="-1311.27" font-family="Helvetica,sans-Serif" font-size="10.00">_reader::get</text>
</a>
</g>
</g>
<!-- Node4&#45;&gt;Node9 -->
<g id="edge8" class="edge">
<title>Node4&#45;&gt;Node9</title>
<path fill="none" stroke="#63b8ff" d="M353.47,-1175.54C351.77,-1062.04 346.12,-386.87 448.5,-215.77 518.32,-99.08 566.9,-45.77 702.88,-45.77 702.88,-45.77 702.88,-45.77 892.63,-45.77 1173.5,-45.77 1349.89,40.72 1507.5,-191.77 1571.3,-285.88 1597.14,-1130.96 1601.55,-1293.71"/>
<polygon fill="#63b8ff" stroke="#63b8ff" points="1598.08,-1293.73 1601.84,-1303.63 1605.07,-1293.54 1598.08,-1293.73"/>
</g>
<!-- Node10 -->
<g id="node10" class="node">
<title>Node10</title>
<g id="a_node10"><a xlink:href="a01995.html#a252c1179651d22c5343bcf0b538ed26a" target="_top" xlink:title=" ">
<polygon fill="white" stroke="#666666" points="1507.13,-232.77 1381.63,-232.77 1381.63,-200.77 1507.13,-200.77 1507.13,-232.77"/>
<text text-anchor="start" x="1389.63" y="-219.27" font-family="Helvetica,sans-Serif" font-size="10.00">nlohmann::detail::binary</text>
<text text-anchor="middle" x="1444.38" y="-207.27" font-family="Helvetica,sans-Serif" font-size="10.00">_reader::get_ignore_noop</text>
</a>
</g>
</g>
<!-- Node4&#45;&gt;Node10 -->
<g id="edge9" class="edge">
<title>Node4&#45;&gt;Node10</title>
<path fill="none" stroke="#63b8ff" d="M354.09,-1175.67C356.05,-1101.27 368.94,-783.93 448.5,-539.77 503,-372.53 491.88,-294.44 633.25,-189.77 887.79,-1.32 1042.61,-67.43 1345.25,-160.77 1369.19,-168.15 1393.67,-182.11 1412.19,-194.24"/>
<polygon fill="#63b8ff" stroke="#63b8ff" points="1410.05,-197.69 1420.3,-200.38 1413.96,-191.89 1410.05,-197.69"/>
</g>
<!-- Node11 -->
<g id="node11" class="node">
<title>Node11</title>
<g id="a_node11"><a xlink:href="a01995.html#a7d323283c60a0b89ee5eeadf5cb9a5ad" target="_top" xlink:title=" ">
<polygon fill="white" stroke="#666666" points="1507.5,-1194.77 1381.25,-1194.77 1381.25,-1162.77 1507.5,-1162.77 1507.5,-1194.77"/>
<text text-anchor="start" x="1389.25" y="-1181.27" font-family="Helvetica,sans-Serif" font-size="10.00">nlohmann::detail::binary</text>
<text text-anchor="middle" x="1444.38" y="-1169.27" font-family="Helvetica,sans-Serif" font-size="10.00">_reader::get_token_string</text>
</a>
</g>
</g>
<!-- Node4&#45;&gt;Node11 -->
<g id="edge11" class="edge">
<title>Node4&#45;&gt;Node11</title>
<path fill="none" stroke="#63b8ff" d="M412.72,-1191.07C597.73,-1188.86 1166.5,-1182.07 1370.01,-1179.64"/>
<polygon fill="#63b8ff" stroke="#63b8ff" points="1369.91,-1183.13 1379.87,-1179.52 1369.82,-1176.13 1369.91,-1183.13"/>
</g>
<!-- Node12 -->
<g id="node12" class="node">
<title>Node12</title>
<g id="a_node12"><a xlink:href="a01995.html#abf2051ba57d9ea9b378a2e7c14e22b34" target="_top" xlink:title="Reads in a BSON&#45;object and passes it to the SAX&#45;parser.">
<polygon fill="white" stroke="#666666" points="774.5,-1166.77 633.25,-1166.77 633.25,-1134.77 774.5,-1134.77 774.5,-1166.77"/>
<text text-anchor="start" x="641.25" y="-1153.27" font-family="Helvetica,sans-Serif" font-size="10.00">nlohmann::detail::binary</text>
<text text-anchor="middle" x="703.88" y="-1141.27" font-family="Helvetica,sans-Serif" font-size="10.00">_reader::parse_bson_internal</text>
</a>
</g>
</g>
<!-- Node4&#45;&gt;Node12 -->
<g id="edge12" class="edge">
<title>Node4&#45;&gt;Node12</title>
<path fill="none" stroke="#63b8ff" d="M412.97,-1184.81C470.44,-1178.07 558.1,-1167.77 621.99,-1160.27"/>
<polygon fill="#63b8ff" stroke="#63b8ff" points="622.3,-1163.64 631.82,-1159 621.48,-1156.69 622.3,-1163.64"/>
</g>
<!-- Node22 -->
<g id="node22" class="node">
<title>Node22</title>
<g id="a_node22"><a xlink:href="a01995.html#a4e4accd5a2a41bfb2f18a8a0fcc9421c" target="_top" xlink:title=" ">
<polygon fill="white" stroke="#666666" points="961.13,-1962.77 822.13,-1962.77 822.13,-1930.77 961.13,-1930.77 961.13,-1962.77"/>
<text text-anchor="start" x="830.13" y="-1949.27" font-family="Helvetica,sans-Serif" font-size="10.00">nlohmann::detail::binary</text>
<text text-anchor="middle" x="891.63" y="-1937.27" font-family="Helvetica,sans-Serif" font-size="10.00">_reader::parse_cbor_internal</text>
</a>
</g>
</g>
<!-- Node4&#45;&gt;Node22 -->
<g id="edge42" class="edge">
<title>Node4&#45;&gt;Node22</title>
<path fill="none" stroke="#63b8ff" d="M365.46,-1208.24C434.59,-1305.45 789.1,-1803.99 872.87,-1921.8"/>
<polygon fill="#63b8ff" stroke="#63b8ff" points="870.42,-1923.39 879.07,-1929.51 876.12,-1919.34 870.42,-1923.39"/>
</g>
<!-- Node28 -->
<g id="node28" class="node">
<title>Node28</title>
<g id="a_node28"><a xlink:href="a01995.html#ae020385ce9424271d61f85d3842c02cb" target="_top" xlink:title=" ">
<polygon fill="white" stroke="#666666" points="953.25,-1520.77 830,-1520.77 830,-1476.77 953.25,-1476.77 953.25,-1520.77"/>
<text text-anchor="start" x="838" y="-1507.27" font-family="Helvetica,sans-Serif" font-size="10.00">nlohmann::detail::binary</text>
<text text-anchor="start" x="838" y="-1495.27" font-family="Helvetica,sans-Serif" font-size="10.00">_reader::parse_msgpack</text>
<text text-anchor="middle" x="891.63" y="-1483.27" font-family="Helvetica,sans-Serif" font-size="10.00">_internal</text>
</a>
</g>
</g>
<!-- Node4&#45;&gt;Node28 -->
<g id="edge77" class="edge">
<title>Node4&#45;&gt;Node28</title>
<path fill="none" stroke="#63b8ff" d="M381.91,-1208.19C400.74,-1219.16 426.08,-1233.87 448.5,-1246.77 590.9,-1328.68 759.69,-1424.55 841.41,-1470.88"/>
<polygon fill="#63b8ff" stroke="#63b8ff" points="839.51,-1474.4 849.93,-1476.28 842.96,-1468.31 839.51,-1474.4"/>
</g>
<!-- Node33 -->
<g id="node33" class="node">
<title>Node33</title>
<g id="a_node33"><a xlink:href="a01995.html#a5a79480d661019b0f3fc615ae12f7de7" target="_top" xlink:title=" ">
<polygon fill="white" stroke="#666666" points="597.25,-580.77 448.5,-580.77 448.5,-548.77 597.25,-548.77 597.25,-580.77"/>
<text text-anchor="start" x="456.5" y="-567.27" font-family="Helvetica,sans-Serif" font-size="10.00">nlohmann::detail::binary</text>
<text text-anchor="middle" x="522.88" y="-555.27" font-family="Helvetica,sans-Serif" font-size="10.00">_reader::parse_ubjson_internal</text>
</a>
</g>
</g>
<!-- Node4&#45;&gt;Node33 -->
<g id="edge100" class="edge">
<title>Node4&#45;&gt;Node33</title>
<path fill="none" stroke="#63b8ff" d="M358.16,-1175.32C381.03,-1090.03 486.15,-697.99 514.7,-591.52"/>
<polygon fill="#63b8ff" stroke="#63b8ff" points="518.3,-592.61 517.51,-582.05 511.54,-590.8 518.3,-592.61"/>
</g>
<!-- Node6 -->
<g id="node6" class="node">
<title>Node6</title>
<g id="a_node6"><a xlink:href="a01559.html#abf41a7e9178356314082284e6cfea278" target="_top" xlink:title=" ">
<polygon fill="white" stroke="#666666" points="2011.5,-1137.77 1876.25,-1137.77 1876.25,-1105.77 2011.5,-1105.77 2011.5,-1137.77"/>
<text text-anchor="start" x="1884.25" y="-1124.27" font-family="Helvetica,sans-Serif" font-size="10.00">nlohmann::detail::exception</text>
<text text-anchor="middle" x="1943.88" y="-1112.27" font-family="Helvetica,sans-Serif" font-size="10.00">::name</text>
</a>
</g>
</g>
<!-- Node5&#45;&gt;Node6 -->
<g id="edge5" class="edge">
<title>Node5&#45;&gt;Node6</title>
<path fill="none" stroke="#63b8ff" d="M1828.46,-1105.16C1840.25,-1106.88 1852.84,-1108.7 1865.2,-1110.5"/>
<polygon fill="#63b8ff" stroke="#63b8ff" points="1864.57,-1114.09 1874.97,-1112.06 1865.57,-1107.16 1864.57,-1114.09"/>
</g>
<!-- Node7 -->
<g id="node7" class="node">
<title>Node7</title>
<g id="a_node7"><a xlink:href="a01563.html#aefe74adeaa48781464ba2fd2ec63d221" target="_top" xlink:title=" ">
<polygon fill="white" stroke="#666666" points="2002.5,-1087.77 1885.25,-1087.77 1885.25,-1055.77 2002.5,-1055.77 2002.5,-1087.77"/>
<text text-anchor="start" x="1893.25" y="-1074.27" font-family="Helvetica,sans-Serif" font-size="10.00">nlohmann::detail::parse</text>
<text text-anchor="middle" x="1943.88" y="-1062.27" font-family="Helvetica,sans-Serif" font-size="10.00">_error::position_string</text>
</a>
</g>
</g>
<!-- Node5&#45;&gt;Node7 -->
<g id="edge6" class="edge">
<title>Node5&#45;&gt;Node7</title>
<path fill="none" stroke="#63b8ff" d="M1828.46,-1088.38C1843.09,-1086.25 1858.94,-1083.95 1874.05,-1081.76"/>
<polygon fill="#63b8ff" stroke="#63b8ff" points="1874.5,-1085.08 1883.9,-1080.18 1873.5,-1078.16 1874.5,-1085.08"/>
</g>
<!-- Node10&#45;&gt;Node9 -->
<g id="edge10" class="edge">
<title>Node10&#45;&gt;Node9</title>
<path fill="none" stroke="#63b8ff" d="M1454.38,-233.02C1468.36,-259.09 1494.97,-312.26 1507.5,-360.77 1600.46,-720.58 1603.46,-1177.9 1602.6,-1293.36"/>
<polygon fill="#63b8ff" stroke="#63b8ff" points="1599.09,-1293.28 1602.5,-1303.31 1606.09,-1293.34 1599.09,-1293.28"/>
</g>
<!-- Node13 -->
<g id="node13" class="node">
<title>Node13</title>
<g id="a_node13"><a xlink:href="a01995.html#a4e07b75ccb2579d0e738b894f0fd8cf8" target="_top" xlink:title="Read a BSON element list (as specified in the BSON&#45;spec)">
<polygon fill="white" stroke="#666666" points="972.75,-1166.77 810.5,-1166.77 810.5,-1134.77 972.75,-1134.77 972.75,-1166.77"/>
<text text-anchor="start" x="818.5" y="-1153.27" font-family="Helvetica,sans-Serif" font-size="10.00">nlohmann::detail::binary</text>
<text text-anchor="middle" x="891.63" y="-1141.27" font-family="Helvetica,sans-Serif" font-size="10.00">_reader::parse_bson_element_list</text>
</a>
</g>
</g>
<!-- Node12&#45;&gt;Node13 -->
<g id="edge13" class="edge">
<title>Node12&#45;&gt;Node13</title>
<path fill="none" stroke="#63b8ff" d="M774.83,-1150.77C782.84,-1150.77 791.09,-1150.77 799.33,-1150.77"/>
<polygon fill="#63b8ff" stroke="#63b8ff" points="799.12,-1154.27 809.12,-1150.77 799.12,-1147.27 799.12,-1154.27"/>
</g>
<!-- Node13&#45;&gt;Node9 -->
<g id="edge14" class="edge">
<title>Node13&#45;&gt;Node9</title>
<path fill="none" stroke="#63b8ff" d="M973.19,-1163.16C1025.84,-1171.66 1095.98,-1183.71 1157.5,-1196.77 1314.4,-1230.07 1354.49,-1236.65 1507.5,-1284.77 1522.09,-1289.36 1537.69,-1294.98 1551.94,-1300.4"/>
<polygon fill="#63b8ff" stroke="#63b8ff" points="1550.45,-1303.97 1561.04,-1304.3 1552.97,-1297.44 1550.45,-1303.97"/>
</g>
<!-- Node14 -->
<g id="node14" class="node">
<title>Node14</title>
<g id="a_node14"><a xlink:href="a01995.html#a354cbbaaea672c024ac949e1801c4302" target="_top" xlink:title="Parses a C&#45;style string from the BSON input.">
<polygon fill="white" stroke="#666666" points="1504.13,-1396.77 1384.63,-1396.77 1384.63,-1364.77 1504.13,-1364.77 1504.13,-1396.77"/>
<text text-anchor="start" x="1392.63" y="-1383.27" font-family="Helvetica,sans-Serif" font-size="10.00">nlohmann::detail::binary</text>
<text text-anchor="middle" x="1444.38" y="-1371.27" font-family="Helvetica,sans-Serif" font-size="10.00">_reader::get_bson_cstr</text>
</a>
</g>
</g>
<!-- Node13&#45;&gt;Node14 -->
<g id="edge15" class="edge">
<title>Node13&#45;&gt;Node14</title>
<path fill="none" stroke="#63b8ff" d="M937.73,-1167.12C949.2,-1171.42 961.48,-1176.16 972.75,-1180.77 988.96,-1187.4 992.4,-1190.52 1008.75,-1196.77 1073.64,-1221.58 1092.94,-1219.13 1157.5,-1244.77 1246.94,-1280.3 1347.77,-1330.85 1402.57,-1359.25"/>
<polygon fill="#63b8ff" stroke="#63b8ff" points="1400.77,-1362.78 1411.25,-1364.29 1404,-1356.57 1400.77,-1362.78"/>
</g>
<!-- Node15 -->
<g id="node15" class="node">
<title>Node15</title>
<g id="a_node15"><a xlink:href="a01995.html#a61a0bd8bbe7b560bd429fa990ba3ba1a" target="_top" xlink:title=" ">
<polygon fill="white" stroke="#666666" points="1663,-1471.77 1543.5,-1471.77 1543.5,-1439.77 1663,-1439.77 1663,-1471.77"/>
<text text-anchor="start" x="1551.5" y="-1458.27" font-family="Helvetica,sans-Serif" font-size="10.00">nlohmann::detail::binary</text>
<text text-anchor="middle" x="1603.25" y="-1446.27" font-family="Helvetica,sans-Serif" font-size="10.00">_reader::unexpect_eof</text>
</a>
</g>
</g>
<!-- Node13&#45;&gt;Node15 -->
<g id="edge41" class="edge">
<title>Node13&#45;&gt;Node15</title>
<path fill="none" stroke="#63b8ff" d="M950.16,-1167.24C958.2,-1170.95 966,-1175.42 972.75,-1180.77 995.35,-1198.69 985.74,-1217.37 1008.75,-1234.77 1064.16,-1276.67 1108.21,-1233.82 1157.5,-1282.77 1193.7,-1318.72 1161.74,-1351.85 1193.5,-1391.77 1254.28,-1468.16 1287.24,-1479.46 1381.25,-1505.77 1435.29,-1520.89 1454.58,-1524.43 1507.5,-1505.77 1524.3,-1499.84 1525.56,-1489.94 1543.06,-1477.92"/>
<polygon fill="#63b8ff" stroke="#63b8ff" points="1544.64,-1480.45 1551.36,-1472.26 1541,-1474.47 1544.64,-1480.45"/>
</g>
<!-- Node16 -->
<g id="node16" class="node">
<title>Node16</title>
<g id="a_node16"><a xlink:href="a01995.html#a23bde2450d7a5772bf5051e36ff560a4" target="_top" xlink:title="Read a BSON document element of the given element_type.">
<polygon fill="white" stroke="#666666" points="1155.25,-1022.77 1011,-1022.77 1011,-978.77 1155.25,-978.77 1155.25,-1022.77"/>
<text text-anchor="start" x="1019" y="-1009.27" font-family="Helvetica,sans-Serif" font-size="10.00">nlohmann::detail::binary</text>
<text text-anchor="start" x="1019" y="-997.27" font-family="Helvetica,sans-Serif" font-size="10.00">_reader::parse_bson_element</text>
<text text-anchor="middle" x="1083.13" y="-985.27" font-family="Helvetica,sans-Serif" font-size="10.00">_internal</text>
</a>
</g>
</g>
<!-- Node13&#45;&gt;Node16 -->
<g id="edge20" class="edge">
<title>Node13&#45;&gt;Node16</title>
<path fill="none" stroke="#63b8ff" d="M911.67,-1134.47C934.45,-1115.09 973.9,-1081.96 1008.75,-1054.77 1019.47,-1046.4 1031.28,-1037.56 1042.22,-1029.51"/>
<polygon fill="#63b8ff" stroke="#63b8ff" points="1043.77,-1031.98 1049.77,-1023.25 1039.64,-1026.33 1043.77,-1031.98"/>
</g>
<!-- Node14&#45;&gt;Node9 -->
<g id="edge16" class="edge">
<title>Node14&#45;&gt;Node9</title>
<path fill="none" stroke="#63b8ff" d="M1488.24,-1364.37C1507.01,-1357.19 1529.24,-1348.7 1549.05,-1341.12"/>
<polygon fill="#63b8ff" stroke="#63b8ff" points="1550.07,-1344.09 1558.16,-1337.25 1547.57,-1337.55 1550.07,-1344.09"/>
</g>
<!-- Node14&#45;&gt;Node15 -->
<g id="edge17" class="edge">
<title>Node14&#45;&gt;Node15</title>
<path fill="none" stroke="#63b8ff" d="M1487.73,-1397.13C1494.4,-1399.9 1501.17,-1402.84 1507.5,-1405.77 1526.26,-1414.47 1546.6,-1425.04 1563.6,-1434.22"/>
<polygon fill="#63b8ff" stroke="#63b8ff" points="1561.74,-1437.73 1572.19,-1439.44 1565.08,-1431.58 1561.74,-1437.73"/>
</g>
<!-- Node15&#45;&gt;Node5 -->
<g id="edge18" class="edge">
<title>Node15&#45;&gt;Node5</title>
<path fill="none" stroke="#63b8ff" d="M1613.47,-1439.6C1625.45,-1418.36 1646.75,-1379.76 1663,-1345.77 1701.15,-1265.95 1740.35,-1168.76 1758.4,-1122.99"/>
<polygon fill="#63b8ff" stroke="#63b8ff" points="1761.92,-1124.6 1762.32,-1114.01 1755.41,-1122.04 1761.92,-1124.6"/>
</g>
<!-- Node15&#45;&gt;Node8 -->
<g id="edge19" class="edge">
<title>Node15&#45;&gt;Node8</title>
<path fill="none" stroke="#63b8ff" d="M1615.4,-1439.46C1629.01,-1418.69 1651.62,-1381.23 1663,-1345.77 1700.54,-1228.82 1676.09,-1192.44 1699,-1071.77 1716.79,-978.03 1746.82,-868.76 1760.9,-819.39"/>
<polygon fill="#63b8ff" stroke="#63b8ff" points="1764.5,-820.56 1763.89,-809.98 1757.77,-818.63 1764.5,-820.56"/>
</g>
<!-- Node16&#45;&gt;Node5 -->
<g id="edge21" class="edge">
<title>Node16&#45;&gt;Node5</title>
<path fill="none" stroke="#63b8ff" d="M1092.2,-978.35C1115.55,-913.78 1182.25,-731.42 1193.5,-723.77 1309,-645.2 1372.5,-701.88 1507.5,-737.77 1581.1,-757.34 1611.37,-753.78 1663,-809.77 1733.73,-886.48 1758.11,-1014.54 1765.62,-1069.91"/>
<polygon fill="#63b8ff" stroke="#63b8ff" points="1762.25,-1070.1 1766.98,-1079.58 1769.19,-1069.22 1762.25,-1070.1"/>
</g>
<!-- Node16&#45;&gt;Node9 -->
<g id="edge22" class="edge">
<title>Node16&#45;&gt;Node9</title>
<path fill="none" stroke="#63b8ff" d="M1107.47,-978.46C1128.21,-960.31 1160.29,-936.06 1193.5,-925.77 1257.92,-905.8 1279.31,-911.62 1345.25,-925.77 1422.56,-942.36 1455.53,-939.17 1507.5,-998.77 1583.97,-1086.47 1598.79,-1233.27 1601.61,-1293.61"/>
<polygon fill="#63b8ff" stroke="#63b8ff" points="1598.15,-1293.63 1602.03,-1303.49 1605.15,-1293.36 1598.15,-1293.63"/>
</g>
<!-- Node16&#45;&gt;Node12 -->
<g id="edge40" class="edge">
<title>Node16&#45;&gt;Node12</title>
<path fill="none" stroke="#63b8ff" d="M1025.61,-1023.24C952.64,-1052.25 826.7,-1102.33 756.3,-1130.32"/>
<polygon fill="#63b8ff" stroke="#63b8ff" points="755.33,-1127.34 747.33,-1134.29 757.91,-1133.85 755.33,-1127.34"/>
</g>
<!-- Node17 -->
<g id="node17" class="node">
<title>Node17</title>
<g id="a_node17"><a xlink:href="a01995.html#a9940f56290b9278c58772eda2931e599" target="_top" xlink:title="Parses a byte array input of length len from the BSON input.">
<polygon fill="white" stroke="#666666" points="1332.13,-1016.77 1206.63,-1016.77 1206.63,-984.77 1332.13,-984.77 1332.13,-1016.77"/>
<text text-anchor="start" x="1214.63" y="-1003.27" font-family="Helvetica,sans-Serif" font-size="10.00">nlohmann::detail::binary</text>
<text text-anchor="middle" x="1269.38" y="-991.27" font-family="Helvetica,sans-Serif" font-size="10.00">_reader::get_bson_binary</text>
</a>
</g>
</g>
<!-- Node16&#45;&gt;Node17 -->
<g id="edge23" class="edge">
<title>Node16&#45;&gt;Node17</title>
<path fill="none" stroke="#63b8ff" d="M1155.62,-1000.77C1168.66,-1000.77 1182.28,-1000.77 1195.37,-1000.77"/>
<polygon fill="#63b8ff" stroke="#63b8ff" points="1195.21,-1004.27 1205.21,-1000.77 1195.21,-997.27 1195.21,-1004.27"/>
</g>
<!-- Node19 -->
<g id="node19" class="node">
<title>Node19</title>
<g id="a_node19"><a xlink:href="a01995.html#a23921422802aa472360dd05023e20565" target="_top" xlink:title="Parses a zero&#45;terminated string of length len from the BSON input.">
<polygon fill="white" stroke="#666666" points="1331,-966.77 1207.75,-966.77 1207.75,-934.77 1331,-934.77 1331,-966.77"/>
<text text-anchor="start" x="1215.75" y="-953.27" font-family="Helvetica,sans-Serif" font-size="10.00">nlohmann::detail::binary</text>
<text text-anchor="middle" x="1269.38" y="-941.27" font-family="Helvetica,sans-Serif" font-size="10.00">_reader::get_bson_string</text>
</a>
</g>
</g>
<!-- Node16&#45;&gt;Node19 -->
<g id="edge30" class="edge">
<title>Node16&#45;&gt;Node19</title>
<path fill="none" stroke="#63b8ff" d="M1155.62,-981.37C1169.33,-977.65 1183.67,-973.76 1197.36,-970.04"/>
<polygon fill="#63b8ff" stroke="#63b8ff" points="1197.94,-973.24 1206.68,-967.24 1196.11,-966.48 1197.94,-973.24"/>
</g>
<!-- Node21 -->
<g id="node21" class="node">
<title>Node21</title>
<g id="a_node21"><a xlink:href="a01995.html#a23eb89a222e22533e9fd43e76722f44f" target="_top" xlink:title="Reads an array from the BSON input and passes it to the SAX&#45;parser.">
<polygon fill="white" stroke="#666666" points="1335.13,-1104.77 1203.63,-1104.77 1203.63,-1072.77 1335.13,-1072.77 1335.13,-1104.77"/>
<text text-anchor="start" x="1211.63" y="-1091.27" font-family="Helvetica,sans-Serif" font-size="10.00">nlohmann::detail::binary</text>
<text text-anchor="middle" x="1269.38" y="-1079.27" font-family="Helvetica,sans-Serif" font-size="10.00">_reader::parse_bson_array</text>
</a>
</g>
</g>
<!-- Node16&#45;&gt;Node21 -->
<g id="edge38" class="edge">
<title>Node16&#45;&gt;Node21</title>
<path fill="none" stroke="#63b8ff" d="M1123.87,-1023.16C1144.4,-1034.38 1170.01,-1047.87 1193.5,-1058.77 1200.49,-1062.01 1207.93,-1065.24 1215.3,-1068.32"/>
<polygon fill="#63b8ff" stroke="#63b8ff" points="1213.7,-1071.86 1224.28,-1072.41 1216.35,-1065.38 1213.7,-1071.86"/>
</g>
<!-- Node17&#45;&gt;Node5 -->
<g id="edge24" class="edge">
<title>Node17&#45;&gt;Node5</title>
<path fill="none" stroke="#63b8ff" d="M1332.47,-1012.73C1426.13,-1030.78 1602.91,-1064.84 1700.18,-1083.58"/>
<polygon fill="#63b8ff" stroke="#63b8ff" points="1699.29,-1087.17 1709.78,-1085.62 1700.62,-1080.29 1699.29,-1087.17"/>
</g>
<!-- Node17&#45;&gt;Node8 -->
<g id="edge25" class="edge">
<title>Node17&#45;&gt;Node8</title>
<path fill="none" stroke="#63b8ff" d="M1321.73,-984.27C1329.65,-981.54 1337.7,-978.66 1345.25,-975.77 1485.19,-922.27 1646.73,-849.22 1723.54,-813.78"/>
<polygon fill="#63b8ff" stroke="#63b8ff" points="1724.76,-816.61 1732.36,-809.24 1721.82,-810.25 1724.76,-816.61"/>
</g>
<!-- Node17&#45;&gt;Node11 -->
<g id="edge29" class="edge">
<title>Node17&#45;&gt;Node11</title>
<path fill="none" stroke="#63b8ff" d="M1327.48,-1017.13C1334.08,-1020.81 1340.23,-1025.3 1345.25,-1030.77 1382.34,-1071.15 1345.57,-1107.14 1381.25,-1148.77 1383.55,-1151.45 1386.14,-1153.92 1388.93,-1156.17"/>
<polygon fill="#63b8ff" stroke="#63b8ff" points="1386.59,-1159.5 1396.8,-1162.35 1390.59,-1153.76 1386.59,-1159.5"/>
</g>
<!-- Node18 -->
<g id="node18" class="node">
<title>Node18</title>
<g id="a_node18"><a xlink:href="a01995.html#a55e13d567a53234573ab3833c0ca32e9" target="_top" xlink:title="create a byte array by reading bytes from the input">
<polygon fill="white" stroke="#666666" points="1504.13,-1496.77 1384.63,-1496.77 1384.63,-1464.77 1504.13,-1464.77 1504.13,-1496.77"/>
<text text-anchor="start" x="1392.63" y="-1483.27" font-family="Helvetica,sans-Serif" font-size="10.00">nlohmann::detail::binary</text>
<text text-anchor="middle" x="1444.38" y="-1471.27" font-family="Helvetica,sans-Serif" font-size="10.00">_reader::get_binary</text>
</a>
</g>
</g>
<!-- Node17&#45;&gt;Node18 -->
<g id="edge26" class="edge">
<title>Node17&#45;&gt;Node18</title>
<path fill="none" stroke="#63b8ff" d="M1299.13,-1017.05C1315.58,-1028.01 1334.94,-1044.04 1345.25,-1063.77 1385.76,-1141.3 1329.02,-1385.6 1381.25,-1455.77 1381.55,-1456.18 1381.87,-1456.58 1382.18,-1456.97"/>
<polygon fill="#63b8ff" stroke="#63b8ff" points="1379.21,-1458.93 1388.85,-1463.34 1384.06,-1453.89 1379.21,-1458.93"/>
</g>
<!-- Node18&#45;&gt;Node9 -->
<g id="edge27" class="edge">
<title>Node18&#45;&gt;Node9</title>
<path fill="none" stroke="#63b8ff" d="M1494.38,-1464.27C1499.03,-1461.77 1503.49,-1458.95 1507.5,-1455.77 1545.22,-1425.84 1574.27,-1376.97 1589.77,-1346.97"/>
<polygon fill="#63b8ff" stroke="#63b8ff" points="1593.31,-1348.71 1594.67,-1338.2 1587.06,-1345.57 1593.31,-1348.71"/>
</g>
<!-- Node18&#45;&gt;Node15 -->
<g id="edge28" class="edge">
<title>Node18&#45;&gt;Node15</title>
<path fill="none" stroke="#63b8ff" d="M1504.24,-1471.39C1513.36,-1469.94 1522.86,-1468.42 1532.2,-1466.93"/>
<polygon fill="#63b8ff" stroke="#63b8ff" points="1532.73,-1470.23 1542.06,-1465.2 1531.63,-1463.32 1532.73,-1470.23"/>
</g>
<!-- Node19&#45;&gt;Node5 -->
<g id="edge31" class="edge">
<title>Node19&#45;&gt;Node5</title>
<path fill="none" stroke="#63b8ff" d="M1331.46,-963.12C1409.45,-979.62 1548.05,-1011.39 1663,-1050.77 1683.85,-1057.91 1706.32,-1067.43 1725.16,-1075.95"/>
<polygon fill="#63b8ff" stroke="#63b8ff" points="1723.38,-1079.45 1733.93,-1080.43 1726.3,-1073.08 1723.38,-1079.45"/>
</g>
<!-- Node19&#45;&gt;Node8 -->
<g id="edge32" class="edge">
<title>Node19&#45;&gt;Node8</title>
<path fill="none" stroke="#63b8ff" d="M1278.25,-934.3C1293.43,-904.64 1329.85,-842.93 1381.25,-816.77 1477.8,-767.64 1605.88,-770.75 1687.79,-779.87"/>
<polygon fill="#63b8ff" stroke="#63b8ff" points="1687.2,-783.44 1697.54,-781.13 1688.01,-776.49 1687.2,-783.44"/>
</g>
<!-- Node19&#45;&gt;Node9 -->
<g id="edge33" class="edge">
<title>Node19&#45;&gt;Node9</title>
<path fill="none" stroke="#63b8ff" d="M1329.36,-967.21C1334.92,-969.72 1340.31,-972.56 1345.25,-975.77 1473.33,-1059.13 1560.85,-1229.63 1590.82,-1294.72"/>
<polygon fill="#63b8ff" stroke="#63b8ff" points="1587.97,-1295.92 1595.29,-1303.58 1594.35,-1293.03 1587.97,-1295.92"/>
</g>
<!-- Node19&#45;&gt;Node11 -->
<g id="edge37" class="edge">
<title>Node19&#45;&gt;Node11</title>
<path fill="none" stroke="#63b8ff" d="M1331.49,-964.74C1336.62,-967.74 1341.33,-971.37 1345.25,-975.77 1397.44,-1034.46 1332.91,-1086.87 1381.25,-1148.77 1383.35,-1151.46 1385.75,-1153.92 1388.37,-1156.18"/>
<polygon fill="#63b8ff" stroke="#63b8ff" points="1385.6,-1159.22 1395.74,-1162.32 1389.75,-1153.58 1385.6,-1159.22"/>
</g>
<!-- Node20 -->
<g id="node20" class="node">
<title>Node20</title>
<g id="a_node20"><a xlink:href="a01995.html#a540919db22df36512f05a88945c13263" target="_top" xlink:title="create a string by reading characters from the input">
<polygon fill="white" stroke="#666666" points="1504.13,-1446.77 1384.63,-1446.77 1384.63,-1414.77 1504.13,-1414.77 1504.13,-1446.77"/>
<text text-anchor="start" x="1392.63" y="-1433.27" font-family="Helvetica,sans-Serif" font-size="10.00">nlohmann::detail::binary</text>
<text text-anchor="middle" x="1444.38" y="-1421.27" font-family="Helvetica,sans-Serif" font-size="10.00">_reader::get_string</text>
</a>
</g>
</g>
<!-- Node19&#45;&gt;Node20 -->
<g id="edge34" class="edge">
<title>Node19&#45;&gt;Node20</title>
<path fill="none" stroke="#63b8ff" d="M1331.36,-963.84C1336.66,-967 1341.44,-970.92 1345.25,-975.77 1404.5,-1051.17 1324.3,-1328.62 1381.25,-1405.77 1381.55,-1406.18 1381.86,-1406.58 1382.18,-1406.98"/>
<polygon fill="#63b8ff" stroke="#63b8ff" points="1379.2,-1408.93 1388.82,-1413.36 1384.06,-1403.9 1379.2,-1408.93"/>
</g>
<!-- Node20&#45;&gt;Node9 -->
<g id="edge35" class="edge">
<title>Node20&#45;&gt;Node9</title>
<path fill="none" stroke="#63b8ff" d="M1491.4,-1414.38C1496.97,-1411.78 1502.47,-1408.9 1507.5,-1405.77 1534.95,-1388.68 1561.98,-1363.35 1580.1,-1344.79"/>
<polygon fill="#63b8ff" stroke="#63b8ff" points="1582.14,-1347.68 1586.53,-1338.04 1577.08,-1342.83 1582.14,-1347.68"/>
</g>
<!-- Node20&#45;&gt;Node15 -->
<g id="edge36" class="edge">
<title>Node20&#45;&gt;Node15</title>
<path fill="none" stroke="#63b8ff" d="M1504.24,-1440.15C1513.36,-1441.6 1522.86,-1443.12 1532.2,-1444.61"/>
<polygon fill="#63b8ff" stroke="#63b8ff" points="1531.63,-1448.22 1542.06,-1446.34 1532.73,-1441.31 1531.63,-1448.22"/>
</g>
<!-- Node21&#45;&gt;Node13 -->
<g id="edge39" class="edge">
<title>Node21&#45;&gt;Node13</title>
<path fill="none" stroke="#63b8ff" d="M1203.26,-1099.12C1150.73,-1107.51 1074.95,-1119.71 1008.75,-1130.77 1000.66,-1132.12 992.26,-1133.54 983.84,-1134.97"/>
<polygon fill="#63b8ff" stroke="#63b8ff" points="983.46,-1131.65 974.19,-1136.78 984.64,-1138.55 983.46,-1131.65"/>
</g>
<!-- Node22&#45;&gt;Node5 -->
<g id="edge43" class="edge">
<title>Node22&#45;&gt;Node5</title>
<path fill="none" stroke="#63b8ff" d="M894.1,-1963.11C899.45,-2012.32 922.35,-2160.36 1008.75,-2234.77 1098.64,-2312.19 1149.74,-2296.77 1268.38,-2296.77 1268.38,-2296.77 1268.38,-2296.77 1445.38,-2296.77 1594.03,-2296.77 1603.77,-2179.12 1663,-2042.77 1737.78,-1870.64 1763.01,-1259.28 1767.75,-1123.58"/>
<polygon fill="#63b8ff" stroke="#63b8ff" points="1771.27,-1124.06 1768.11,-1113.95 1764.27,-1123.83 1771.27,-1124.06"/>
</g>
<!-- Node22&#45;&gt;Node8 -->
<g id="edge44" class="edge">
<title>Node22&#45;&gt;Node8</title>
<path fill="none" stroke="#63b8ff" d="M906.25,-1963.09C926.33,-1986.08 966.12,-2027.76 1008.75,-2050.77 1083.51,-2091.11 1109.26,-2088.79 1193.5,-2099.77 1424.5,-2129.88 1579.16,-2084.11 1663,-1866.77 1726.65,-1701.77 1673.46,-1246.76 1699,-1071.77 1712.74,-977.59 1744.63,-868.95 1760.02,-819.62"/>
<polygon fill="#63b8ff" stroke="#63b8ff" points="1763.63,-820.8 1763.3,-810.21 1756.95,-818.69 1763.63,-820.8"/>
</g>
<!-- Node22&#45;&gt;Node9 -->
<g id="edge45" class="edge">
<title>Node22&#45;&gt;Node9</title>
<path fill="none" stroke="#63b8ff" d="M914.96,-1930.45C937.78,-1914.23 974.6,-1889.33 1008.75,-1871.77 1164.83,-1791.53 1212.48,-1788.87 1381.25,-1740.77 1437.03,-1724.87 1469.16,-1751.29 1507.5,-1707.77 1548.53,-1661.19 1524.57,-1489.89 1543.5,-1430.77 1553.35,-1400.01 1571.66,-1367.76 1585.24,-1346.19"/>
<polygon fill="#63b8ff" stroke="#63b8ff" points="1588.63,-1348.38 1591.09,-1338.07 1582.74,-1344.59 1588.63,-1348.38"/>
</g>
<!-- Node22&#45;&gt;Node11 -->
<g id="edge74" class="edge">
<title>Node22&#45;&gt;Node11</title>
<path fill="none" stroke="#63b8ff" d="M900.3,-1930.3C917.35,-1894.43 960.71,-1807.23 1008.75,-1741.77 1079.96,-1644.74 1109.91,-1630.37 1193.5,-1543.77 1259.79,-1475.08 1290.71,-1470.11 1345.25,-1391.77 1388.06,-1330.27 1420.04,-1247.1 1434.63,-1205.21"/>
<polygon fill="#63b8ff" stroke="#63b8ff" points="1438.19,-1206.61 1438.12,-1196.02 1431.57,-1204.34 1438.19,-1206.61"/>
</g>
<!-- Node22&#45;&gt;Node15 -->
<g id="edge76" class="edge">
<title>Node22&#45;&gt;Node15</title>
<path fill="none" stroke="#63b8ff" d="M917.41,-1963.12C940.24,-1977.46 975.51,-1997.83 1008.75,-2009.77 1217.43,-2084.71 1359.95,-2163.28 1507.5,-1997.77 1576.75,-1920.09 1596.76,-1581.99 1601.18,-1483.06"/>
<polygon fill="#63b8ff" stroke="#63b8ff" points="1604.71,-1483.35 1601.64,-1473.21 1597.72,-1483.05 1604.71,-1483.35"/>
</g>
<!-- Node22&#45;&gt;Node22 -->
<g id="edge75" class="edge">
<title>Node22&#45;&gt;Node22</title>
<path fill="none" stroke="#63b8ff" d="M858.11,-1963.21C851.85,-1972.35 863.02,-1980.77 891.63,-1980.77 908.16,-1980.77 918.87,-1977.96 923.76,-1973.82"/>
<polygon fill="#63b8ff" stroke="#63b8ff" points="927.32,-1974.58 925.14,-1964.21 920.38,-1973.67 927.32,-1974.58"/>
</g>
<!-- Node23 -->
<g id="node23" class="node">
<title>Node23</title>
<g id="a_node23"><a xlink:href="a01995.html#a3750658328bf3ec3cf23f1626f9ec3af" target="_top" xlink:title=" ">
<polygon fill="white" stroke="#666666" points="1142.88,-1912.77 1023.38,-1912.77 1023.38,-1880.77 1142.88,-1880.77 1142.88,-1912.77"/>
<text text-anchor="start" x="1031.38" y="-1899.27" font-family="Helvetica,sans-Serif" font-size="10.00">nlohmann::detail::binary</text>
<text text-anchor="middle" x="1083.13" y="-1887.27" font-family="Helvetica,sans-Serif" font-size="10.00">_reader::get_cbor_array</text>
</a>
</g>
</g>
<!-- Node22&#45;&gt;Node23 -->
<g id="edge46" class="edge">
<title>Node22&#45;&gt;Node23</title>
<path fill="none" stroke="#63b8ff" d="M933.28,-1930.39C956.42,-1923.23 986.03,-1915.12 1012.73,-1908.55"/>
<polygon fill="#63b8ff" stroke="#63b8ff" points="1013.3,-1911.77 1022.2,-1906.02 1011.65,-1904.97 1013.3,-1911.77"/>
</g>
<!-- Node24 -->
<g id="node24" class="node">
<title>Node24</title>
<g id="a_node24"><a xlink:href="a01995.html#acb001d18095dc5bcf7336ae5122b8340" target="_top" xlink:title="reads a CBOR byte array">
<polygon fill="white" stroke="#666666" points="1331,-2018.77 1207.75,-2018.77 1207.75,-1986.77 1331,-1986.77 1331,-2018.77"/>
<text text-anchor="start" x="1215.75" y="-2005.27" font-family="Helvetica,sans-Serif" font-size="10.00">nlohmann::detail::binary</text>
<text text-anchor="middle" x="1269.38" y="-1993.27" font-family="Helvetica,sans-Serif" font-size="10.00">_reader::get_cbor_binary</text>
</a>
</g>
</g>
<!-- Node22&#45;&gt;Node24 -->
<g id="edge49" class="edge">
<title>Node22&#45;&gt;Node24</title>
<path fill="none" stroke="#63b8ff" d="M929.48,-1963.24C951.92,-1972.48 981.44,-1983.22 1008.75,-1988.77 1071.32,-2001.48 1144,-2004.42 1196.52,-2004.51"/>
<polygon fill="#63b8ff" stroke="#63b8ff" points="1196.42,-2008 1206.41,-2004.48 1196.4,-2001 1196.42,-2008"/>
</g>
<!-- Node25 -->
<g id="node25" class="node">
<title>Node25</title>
<g id="a_node25"><a xlink:href="a01995.html#ac356c6364fe0273d3303fb7a447f4ef6" target="_top" xlink:title=" ">
<polygon fill="white" stroke="#666666" points="1504.13,-1698.77 1384.63,-1698.77 1384.63,-1666.77 1504.13,-1666.77 1504.13,-1698.77"/>
<text text-anchor="start" x="1392.63" y="-1685.27" font-family="Helvetica,sans-Serif" font-size="10.00">nlohmann::detail::binary</text>
<text text-anchor="middle" x="1444.38" y="-1673.27" font-family="Helvetica,sans-Serif" font-size="10.00">_reader::get_number</text>
</a>
</g>
</g>
<!-- Node22&#45;&gt;Node25 -->
<g id="edge73" class="edge">
<title>Node22&#45;&gt;Node25</title>
<path fill="none" stroke="#63b8ff" d="M901.03,-1930.37C917.46,-1899.99 956.8,-1834.95 1008.75,-1800.77 1068.82,-1761.24 1266.93,-1717.6 1373.72,-1696.16"/>
<polygon fill="#63b8ff" stroke="#63b8ff" points="1374.27,-1699.42 1383.39,-1694.03 1372.9,-1692.56 1374.27,-1699.42"/>
</g>
<!-- Node26 -->
<g id="node26" class="node">
<title>Node26</title>
<g id="a_node26"><a xlink:href="a01995.html#a47092a2195bf9cd3cdb4dda67cc404ed" target="_top" xlink:title=" ">
<polygon fill="white" stroke="#666666" points="1144.75,-1962.77 1021.5,-1962.77 1021.5,-1930.77 1144.75,-1930.77 1144.75,-1962.77"/>
<text text-anchor="start" x="1029.5" y="-1949.27" font-family="Helvetica,sans-Serif" font-size="10.00">nlohmann::detail::binary</text>
<text text-anchor="middle" x="1083.13" y="-1937.27" font-family="Helvetica,sans-Serif" font-size="10.00">_reader::get_cbor_object</text>
</a>
</g>
</g>
<!-- Node22&#45;&gt;Node26 -->
<g id="edge60" class="edge">
<title>Node22&#45;&gt;Node26</title>
<path fill="none" stroke="#63b8ff" d="M961.57,-1940.25C977.4,-1939.96 994.26,-1939.94 1010.2,-1940.2"/>
<polygon fill="#63b8ff" stroke="#63b8ff" points="1010,-1943.71 1020.07,-1940.41 1010.14,-1936.71 1010,-1943.71"/>
</g>
<!-- Node27 -->
<g id="node27" class="node">
<title>Node27</title>
<g id="a_node27"><a xlink:href="a01995.html#a545a44ae4b3fa2b7a61d9e8517fb7154" target="_top" xlink:title="reads a CBOR string">
<polygon fill="white" stroke="#666666" points="1329.88,-1950.77 1208.88,-1950.77 1208.88,-1918.77 1329.88,-1918.77 1329.88,-1950.77"/>
<text text-anchor="start" x="1216.88" y="-1937.27" font-family="Helvetica,sans-Serif" font-size="10.00">nlohmann::detail::binary</text>
<text text-anchor="middle" x="1269.38" y="-1925.27" font-family="Helvetica,sans-Serif" font-size="10.00">_reader::get_cbor_string</text>
</a>
</g>
</g>
<!-- Node22&#45;&gt;Node27 -->
<g id="edge72" class="edge">
<title>Node22&#45;&gt;Node27</title>
<path fill="none" stroke="#63b8ff" d="M957.33,-1963.24C973.98,-1966.77 991.93,-1969.98 1008.75,-1971.77 1074.49,-1978.77 1092.24,-1982.37 1157.5,-1971.77 1178.2,-1968.41 1200.26,-1961.73 1219.21,-1954.96"/>
<polygon fill="#63b8ff" stroke="#63b8ff" points="1220.21,-1957.95 1228.38,-1951.21 1217.79,-1951.38 1220.21,-1957.95"/>
</g>
<!-- Node23&#45;&gt;Node9 -->
<g id="edge47" class="edge">
<title>Node23&#45;&gt;Node9</title>
<path fill="none" stroke="#63b8ff" d="M1129.24,-1880.32C1238.03,-1840.63 1505.96,-1742.73 1507.5,-1740.77 1550.39,-1686.27 1522.8,-1496.96 1543.5,-1430.77 1553.14,-1399.95 1571.49,-1367.7 1585.13,-1346.15"/>
<polygon fill="#63b8ff" stroke="#63b8ff" points="1588.52,-1348.35 1591.01,-1338.05 1582.65,-1344.54 1588.52,-1348.35"/>
</g>
<!-- Node23&#45;&gt;Node22 -->
<g id="edge48" class="edge">
<title>Node23&#45;&gt;Node22</title>
<path fill="none" stroke="#63b8ff" d="M1041.34,-1913.19C1021.09,-1919.46 995.91,-1926.44 972.06,-1932.48"/>
<polygon fill="#63b8ff" stroke="#63b8ff" points="971.43,-1929.28 962.57,-1935.1 973.12,-1936.07 971.43,-1929.28"/>
</g>
<!-- Node24&#45;&gt;Node5 -->
<g id="edge50" class="edge">
<title>Node24&#45;&gt;Node5</title>
<path fill="none" stroke="#63b8ff" d="M1289.66,-2018.98C1310.64,-2035.46 1345.94,-2059.93 1381.25,-2069.77 1435.3,-2084.83 1456.67,-2093.53 1507.5,-2069.77 1605.11,-2024.14 1619.57,-1982.38 1663,-1883.77 1725.24,-1742.44 1759.44,-1245.72 1767.01,-1123.9"/>
<polygon fill="#63b8ff" stroke="#63b8ff" points="1770.56,-1124.2 1767.68,-1114 1763.57,-1123.77 1770.56,-1124.2"/>
</g>
<!-- Node24&#45;&gt;Node8 -->
<g id="edge51" class="edge">
<title>Node24&#45;&gt;Node8</title>
<path fill="none" stroke="#63b8ff" d="M1331.25,-2012.28C1381.94,-2017.05 1454.19,-2016.29 1507.5,-1984.77 1616.27,-1920.47 1623.73,-1866.87 1663,-1746.77 1709.68,-1603.99 1676.71,-1220.32 1699,-1071.77 1713.12,-977.65 1744.82,-868.98 1760.09,-819.63"/>
<polygon fill="#63b8ff" stroke="#63b8ff" points="1763.7,-820.8 1763.34,-810.21 1757.02,-818.72 1763.7,-820.8"/>
</g>
<!-- Node24&#45;&gt;Node9 -->
<g id="edge52" class="edge">
<title>Node24&#45;&gt;Node9</title>
<path fill="none" stroke="#63b8ff" d="M1326.42,-1986.31C1332.9,-1983.75 1339.31,-1980.9 1345.25,-1977.77 1365.26,-1967.21 1496.59,-1874.59 1507.5,-1854.77 1553.12,-1771.94 1516.68,-1521.45 1543.5,-1430.77 1552.66,-1399.8 1571.09,-1367.58 1584.88,-1346.08"/>
<polygon fill="#63b8ff" stroke="#63b8ff" points="1588.28,-1348.27 1590.84,-1337.99 1582.43,-1344.43 1588.28,-1348.27"/>
</g>
<!-- Node24&#45;&gt;Node11 -->
<g id="edge58" class="edge">
<title>Node24&#45;&gt;Node11</title>
<path fill="none" stroke="#63b8ff" d="M1331.48,-1989.8C1336.76,-1986.62 1341.5,-1982.67 1345.25,-1977.77 1387.32,-1922.79 1367.65,-1423.65 1381.25,-1355.77 1392.33,-1300.45 1416.87,-1238.94 1431.57,-1204.95"/>
<polygon fill="#63b8ff" stroke="#63b8ff" points="1435.16,-1206.49 1435.97,-1195.93 1428.75,-1203.68 1435.16,-1206.49"/>
</g>
<!-- Node24&#45;&gt;Node15 -->
<g id="edge59" class="edge">
<title>Node24&#45;&gt;Node15</title>
<path fill="none" stroke="#63b8ff" d="M1331.26,-2009.64C1384.98,-2012.08 1461.67,-2006.14 1507.5,-1960.77 1576.2,-1892.76 1596.49,-1577.95 1601.1,-1482.97"/>
<polygon fill="#63b8ff" stroke="#63b8ff" points="1604.64,-1483.18 1601.6,-1473.03 1597.64,-1482.85 1604.64,-1483.18"/>
</g>
<!-- Node24&#45;&gt;Node18 -->
<g id="edge53" class="edge">
<title>Node24&#45;&gt;Node18</title>
<path fill="none" stroke="#63b8ff" d="M1331.22,-1989.59C1336.54,-1986.44 1341.37,-1982.56 1345.25,-1977.77 1390.26,-1922.14 1365.3,-1727.53 1381.25,-1657.77 1393.83,-1602.77 1417.83,-1541.14 1432.04,-1507.05"/>
<polygon fill="#63b8ff" stroke="#63b8ff" points="1435.62,-1508.57 1436.28,-1498 1429.17,-1505.85 1435.62,-1508.57"/>
</g>
<!-- Node24&#45;&gt;Node24 -->
<g id="edge54" class="edge">
<title>Node24&#45;&gt;Node24</title>
<path fill="none" stroke="#63b8ff" d="M1238.13,-2019.21C1232.3,-2028.35 1242.71,-2036.77 1269.38,-2036.77 1284.79,-2036.77 1294.77,-2033.96 1299.32,-2029.82"/>
<polygon fill="#63b8ff" stroke="#63b8ff" points="1302.88,-2030.56 1300.62,-2020.21 1295.93,-2029.71 1302.88,-2030.56"/>
</g>
<!-- Node24&#45;&gt;Node25 -->
<g id="edge55" class="edge">
<title>Node24&#45;&gt;Node25</title>
<path fill="none" stroke="#63b8ff" d="M1331.39,-1988.16C1336.48,-1985.29 1341.21,-1981.87 1345.25,-1977.77 1382.26,-1940.24 1364.74,-1914.82 1381.25,-1864.77 1399.64,-1809.03 1422.07,-1744.01 1434.32,-1708.75"/>
<polygon fill="#63b8ff" stroke="#63b8ff" points="1437.8,-1710.4 1437.78,-1699.8 1431.19,-1708.1 1437.8,-1710.4"/>
</g>
<!-- Node25&#45;&gt;Node9 -->
<g id="edge56" class="edge">
<title>Node25&#45;&gt;Node9</title>
<path fill="none" stroke="#63b8ff" d="M1451.03,-1666.27C1465.13,-1625.61 1503.59,-1517.58 1543.5,-1430.77 1557.07,-1401.26 1574.91,-1368.56 1587.36,-1346.54"/>
<polygon fill="#63b8ff" stroke="#63b8ff" points="1590.75,-1348.65 1592.66,-1338.23 1584.67,-1345.19 1590.75,-1348.65"/>
</g>
<!-- Node25&#45;&gt;Node15 -->
<g id="edge57" class="edge">
<title>Node25&#45;&gt;Node15</title>
<path fill="none" stroke="#63b8ff" d="M1456.66,-1666.44C1483.67,-1627.36 1552.22,-1528.16 1584.69,-1481.18"/>
<polygon fill="#63b8ff" stroke="#63b8ff" points="1588.05,-1483.47 1590.86,-1473.25 1582.29,-1479.49 1588.05,-1483.47"/>
</g>
<!-- Node26&#45;&gt;Node9 -->
<g id="edge61" class="edge">
<title>Node26&#45;&gt;Node9</title>
<path fill="none" stroke="#63b8ff" d="M1134.02,-1930.29C1141.91,-1927.54 1149.95,-1924.64 1157.5,-1921.77 1242.12,-1889.6 1266.32,-1887.11 1345.25,-1842.77 1362.46,-1833.1 1363.59,-1825.58 1381.25,-1816.77 1433.81,-1790.56 1470.24,-1823.16 1507.5,-1777.77 1556.68,-1717.84 1520.81,-1504.9 1543.5,-1430.77 1552.95,-1399.89 1571.33,-1367.65 1585.03,-1346.12"/>
<polygon fill="#63b8ff" stroke="#63b8ff" points="1588.43,-1348.32 1590.94,-1338.03 1582.56,-1344.5 1588.43,-1348.32"/>
</g>
<!-- Node26&#45;&gt;Node22 -->
<g id="edge71" class="edge">
<title>Node26&#45;&gt;Node22</title>
<path fill="none" stroke="#63b8ff" d="M1021.07,-1953.12C1005.5,-1953.5 988.54,-1953.61 972.2,-1953.44"/>
<polygon fill="#63b8ff" stroke="#63b8ff" points="972.62,-1949.93 962.57,-1953.29 972.52,-1956.93 972.62,-1949.93"/>
</g>
<!-- Node26&#45;&gt;Node27 -->
<g id="edge62" class="edge">
<title>Node26&#45;&gt;Node27</title>
<path fill="none" stroke="#63b8ff" d="M1145.22,-1942.79C1162.05,-1941.69 1180.44,-1940.5 1197.76,-1939.37"/>
<polygon fill="#63b8ff" stroke="#63b8ff" points="1197.63,-1942.82 1207.38,-1938.68 1197.18,-1935.83 1197.63,-1942.82"/>
</g>
<!-- Node27&#45;&gt;Node5 -->
<g id="edge63" class="edge">
<title>Node27&#45;&gt;Node5</title>
<path fill="none" stroke="#63b8ff" d="M1308.26,-1951.24C1321.09,-1958.11 1334.8,-1967.02 1345.25,-1977.77 1368.81,-2002.01 1352.24,-2027.42 1381.25,-2044.77 1429.41,-2073.56 1461.12,-2076.35 1507.5,-2044.77 1668.59,-1935.06 1750.05,-1266.9 1765.78,-1123.75"/>
<polygon fill="#63b8ff" stroke="#63b8ff" points="1769.35,-1124.27 1766.95,-1113.95 1762.39,-1123.51 1769.35,-1124.27"/>
</g>
<!-- Node27&#45;&gt;Node8 -->
<g id="edge64" class="edge">
<title>Node27&#45;&gt;Node8</title>
<path fill="none" stroke="#63b8ff" d="M1303.69,-1951.22C1352.97,-1972.95 1446.08,-2003.74 1507.5,-1960.77 1672.66,-1845.24 1620.24,-1731.73 1663,-1534.77 1706.79,-1333.07 1665.9,-1275.5 1699,-1071.77 1714.26,-977.82 1745.41,-869.07 1760.31,-819.66"/>
<polygon fill="#63b8ff" stroke="#63b8ff" points="1763.92,-820.82 1763.49,-810.24 1757.23,-818.78 1763.92,-820.82"/>
</g>
<!-- Node27&#45;&gt;Node9 -->
<g id="edge65" class="edge">
<title>Node27&#45;&gt;Node9</title>
<path fill="none" stroke="#63b8ff" d="M1320.76,-1918.29C1329.29,-1914.48 1337.79,-1909.98 1345.25,-1904.77 1364.86,-1891.08 1361.52,-1878.29 1381.25,-1864.77 1430.77,-1830.84 1471.16,-1864.55 1507.5,-1816.77 1559.65,-1748.2 1518.72,-1513.28 1543.5,-1430.77 1552.79,-1399.84 1571.2,-1367.61 1584.95,-1346.1"/>
<polygon fill="#63b8ff" stroke="#63b8ff" points="1588.34,-1348.29 1590.88,-1338.01 1582.48,-1344.46 1588.34,-1348.29"/>
</g>
<!-- Node27&#45;&gt;Node11 -->
<g id="edge69" class="edge">
<title>Node27&#45;&gt;Node11</title>
<path fill="none" stroke="#63b8ff" d="M1275.34,-1918.53C1288.57,-1874.64 1325.06,-1749.85 1345.25,-1643.77 1369.37,-1517.05 1351.72,-1481.34 1381.25,-1355.77 1394.17,-1300.85 1418.05,-1239.2 1432.15,-1205.08"/>
<polygon fill="#63b8ff" stroke="#63b8ff" points="1435.73,-1206.59 1436.35,-1196.01 1429.27,-1203.89 1435.73,-1206.59"/>
</g>
<!-- Node27&#45;&gt;Node15 -->
<g id="edge70" class="edge">
<title>Node27&#45;&gt;Node15</title>
<path fill="none" stroke="#63b8ff" d="M1321.32,-1951.27C1374.7,-1965.03 1457.57,-1975.93 1507.5,-1930.77 1558.28,-1884.84 1528.17,-1691.5 1543.5,-1624.77 1555.37,-1573.09 1577.53,-1515.19 1590.98,-1482.34"/>
<polygon fill="#63b8ff" stroke="#63b8ff" points="1594.59,-1483.78 1595.18,-1473.21 1588.12,-1481.1 1594.59,-1483.78"/>
</g>
<!-- Node27&#45;&gt;Node20 -->
<g id="edge68" class="edge">
<title>Node27&#45;&gt;Node20</title>
<path fill="none" stroke="#63b8ff" d="M1274.96,-1918.45C1287.25,-1874.37 1321.63,-1749.14 1345.25,-1643.77 1363.86,-1560.76 1327.18,-1521.45 1381.25,-1455.77 1381.58,-1455.37 1381.92,-1454.97 1382.27,-1454.58"/>
<polygon fill="#63b8ff" stroke="#63b8ff" points="1384.34,-1457.53 1389.48,-1448.27 1379.69,-1452.3 1384.34,-1457.53"/>
</g>
<!-- Node27&#45;&gt;Node25 -->
<g id="edge67" class="edge">
<title>Node27&#45;&gt;Node25</title>
<path fill="none" stroke="#63b8ff" d="M1281.46,-1918.62C1310.81,-1875.88 1390.69,-1759.52 1426.09,-1707.95"/>
<polygon fill="#63b8ff" stroke="#63b8ff" points="1429.38,-1710.33 1432.16,-1700.11 1423.61,-1706.37 1429.38,-1710.33"/>
</g>
<!-- Node27&#45;&gt;Node27 -->
<g id="edge66" class="edge">
<title>Node27&#45;&gt;Node27</title>
<path fill="none" stroke="#63b8ff" d="M1238.13,-1951.21C1232.3,-1960.35 1242.71,-1968.77 1269.38,-1968.77 1284.79,-1968.77 1294.77,-1965.96 1299.32,-1961.82"/>
<polygon fill="#63b8ff" stroke="#63b8ff" points="1302.88,-1962.56 1300.62,-1952.21 1295.93,-1961.71 1302.88,-1962.56"/>
</g>
<!-- Node28&#45;&gt;Node5 -->
<g id="edge78" class="edge">
<title>Node28&#45;&gt;Node5</title>
<path fill="none" stroke="#63b8ff" d="M903.67,-1521.15C922.91,-1559.35 964.75,-1638.99 1008.75,-1700.77 1067.18,-1782.82 1112.78,-1781.51 1157.5,-1871.77 1192.56,-1942.53 1138.54,-1989.06 1193.5,-2045.77 1291.62,-2147 1373.15,-2133.49 1507.5,-2090.77 1588.18,-2065.12 1619.69,-2053.51 1663,-1980.77 1752.42,-1830.58 1766.28,-1255.76 1768.3,-1123.86"/>
<polygon fill="#63b8ff" stroke="#63b8ff" points="1771.81,-1124.2 1768.45,-1114.15 1764.81,-1124.1 1771.81,-1124.2"/>
</g>
<!-- Node28&#45;&gt;Node8 -->
<g id="edge79" class="edge">
<title>Node28&#45;&gt;Node8</title>
<path fill="none" stroke="#63b8ff" d="M928.89,-1476.33C951.25,-1463.29 980.88,-1447.39 1008.75,-1436.77 1072.31,-1412.56 1102.55,-1440.85 1157.5,-1400.77 1182.32,-1382.67 1170.34,-1361.95 1193.5,-1341.77 1248.96,-1293.46 1277.91,-1305.35 1345.25,-1275.77 1417.48,-1244.04 1447.73,-1255.27 1507.5,-1203.77 1640.6,-1089.08 1729.69,-889.73 1758.51,-818.77"/>
<polygon fill="#63b8ff" stroke="#63b8ff" points="1762,-820.47 1762.47,-809.88 1755.5,-817.86 1762,-820.47"/>
</g>
<!-- Node28&#45;&gt;Node9 -->
<g id="edge80" class="edge">
<title>Node28&#45;&gt;Node9</title>
<path fill="none" stroke="#63b8ff" d="M953.52,-1486.18C1007.47,-1474.63 1088.2,-1456.39 1157.5,-1436.77 1173.73,-1432.18 1177.24,-1429.23 1193.5,-1424.77 1260.06,-1406.5 1291.52,-1435.1 1345.25,-1391.77 1375.28,-1367.55 1348.8,-1333.64 1381.25,-1312.77 1429.43,-1281.78 1496.53,-1289.63 1544.12,-1301.58"/>
<polygon fill="#63b8ff" stroke="#63b8ff" points="1543,-1305.17 1553.57,-1304.34 1544.8,-1298.4 1543,-1305.17"/>
</g>
<!-- Node28&#45;&gt;Node11 -->
<g id="edge98" class="edge">
<title>Node28&#45;&gt;Node11</title>
<path fill="none" stroke="#63b8ff" d="M915.7,-1476.55C937.92,-1456.28 973.28,-1426.8 1008.75,-1408.77 1070.09,-1377.58 1102.48,-1407.11 1157.5,-1365.77 1181.45,-1347.77 1171.45,-1329.05 1193.5,-1308.77 1249.8,-1256.99 1330.59,-1219.95 1384.92,-1198.97"/>
<polygon fill="#63b8ff" stroke="#63b8ff" points="1385.97,-1201.94 1394.08,-1195.12 1383.49,-1195.39 1385.97,-1201.94"/>
</g>
<!-- Node28&#45;&gt;Node15 -->
<g id="edge99" class="edge">
<title>Node28&#45;&gt;Node15</title>
<path fill="none" stroke="#63b8ff" d="M904.9,-1521.17C923.34,-1552.72 961.15,-1609.97 1008.75,-1641.77 1194.67,-1765.99 1334.35,-1849.25 1507.5,-1707.77 1569.66,-1656.98 1509.85,-1603.65 1543.5,-1530.77 1552.11,-1512.12 1566.2,-1493.91 1578.42,-1480.1"/>
<polygon fill="#63b8ff" stroke="#63b8ff" points="1580.56,-1482.85 1584.72,-1473.11 1575.39,-1478.13 1580.56,-1482.85"/>
</g>
<!-- Node28&#45;&gt;Node25 -->
<g id="edge97" class="edge">
<title>Node28&#45;&gt;Node25</title>
<path fill="none" stroke="#63b8ff" d="M917.99,-1521.23C966.97,-1562.79 1079.8,-1649.9 1193.5,-1676.77 1253.01,-1690.83 1322.71,-1691.23 1373.36,-1688.75"/>
<polygon fill="#63b8ff" stroke="#63b8ff" points="1373.39,-1692.2 1383.19,-1688.16 1373.01,-1685.21 1373.39,-1692.2"/>
</g>
<!-- Node29 -->
<g id="node29" class="node">
<title>Node29</title>
<g id="a_node29"><a xlink:href="a01995.html#a0ce1d7066597952efb008aaf578b2bd6" target="_top" xlink:title=" ">
<polygon fill="white" stroke="#666666" points="1153,-1356.77 1013.25,-1356.77 1013.25,-1324.77 1153,-1324.77 1153,-1356.77"/>
<text text-anchor="start" x="1021.25" y="-1343.27" font-family="Helvetica,sans-Serif" font-size="10.00">nlohmann::detail::binary</text>
<text text-anchor="middle" x="1083.13" y="-1331.27" font-family="Helvetica,sans-Serif" font-size="10.00">_reader::get_msgpack_array</text>
</a>
</g>
</g>
<!-- Node28&#45;&gt;Node29 -->
<g id="edge81" class="edge">
<title>Node28&#45;&gt;Node29</title>
<path fill="none" stroke="#63b8ff" d="M903.98,-1476.44C921.82,-1447.99 958.78,-1399.51 1006.97,-1363.56"/>
<polygon fill="#63b8ff" stroke="#63b8ff" points="1008.7,-1365.91 1014.77,-1357.23 1004.61,-1360.23 1008.7,-1365.91"/>
</g>
<!-- Node30 -->
<g id="node30" class="node">
<title>Node30</title>
<g id="a_node30"><a xlink:href="a01995.html#a389e550fd397a48121cb82d92bb7475a" target="_top" xlink:title="reads a MessagePack byte array">
<polygon fill="white" stroke="#666666" points="1341.5,-1634.77 1197.25,-1634.77 1197.25,-1602.77 1341.5,-1602.77 1341.5,-1634.77"/>
<text text-anchor="start" x="1205.25" y="-1621.27" font-family="Helvetica,sans-Serif" font-size="10.00">nlohmann::detail::binary</text>
<text text-anchor="middle" x="1269.38" y="-1609.27" font-family="Helvetica,sans-Serif" font-size="10.00">_reader::get_msgpack_binary</text>
</a>
</g>
</g>
<!-- Node28&#45;&gt;Node30 -->
<g id="edge83" class="edge">
<title>Node28&#45;&gt;Node30</title>
<path fill="none" stroke="#63b8ff" d="M932.79,-1521.19C954.73,-1532.73 982.67,-1546.33 1008.75,-1555.77 1066.79,-1576.77 1134.65,-1592.96 1186.43,-1603.67"/>
<polygon fill="#63b8ff" stroke="#63b8ff" points="1185.4,-1607.24 1195.9,-1605.8 1186.8,-1600.38 1185.4,-1607.24"/>
</g>
<!-- Node31 -->
<g id="node31" class="node">
<title>Node31</title>
<g id="a_node31"><a xlink:href="a01995.html#a8bebd21ceef09b6b2562e87861832700" target="_top" xlink:title=" ">
<polygon fill="white" stroke="#666666" points="1155.25,-1520.77 1011,-1520.77 1011,-1488.77 1155.25,-1488.77 1155.25,-1520.77"/>
<text text-anchor="start" x="1019" y="-1507.27" font-family="Helvetica,sans-Serif" font-size="10.00">nlohmann::detail::binary</text>
<text text-anchor="middle" x="1083.13" y="-1495.27" font-family="Helvetica,sans-Serif" font-size="10.00">_reader::get_msgpack_object</text>
</a>
</g>
</g>
<!-- Node28&#45;&gt;Node31 -->
<g id="edge86" class="edge">
<title>Node28&#45;&gt;Node31</title>
<path fill="none" stroke="#63b8ff" d="M953.63,-1494.35C968.4,-1494.45 984.42,-1494.85 999.99,-1495.47"/>
<polygon fill="#63b8ff" stroke="#63b8ff" points="999.52,-1499 1009.67,-1495.94 999.83,-1492.01 999.52,-1499"/>
</g>
<!-- Node32 -->
<g id="node32" class="node">
<title>Node32</title>
<g id="a_node32"><a xlink:href="a01995.html#ad8cba5585327caa550dd5b6dd25a64f8" target="_top" xlink:title="reads a MessagePack string">
<polygon fill="white" stroke="#666666" points="1340.38,-1584.77 1198.38,-1584.77 1198.38,-1552.77 1340.38,-1552.77 1340.38,-1584.77"/>
<text text-anchor="start" x="1206.38" y="-1571.27" font-family="Helvetica,sans-Serif" font-size="10.00">nlohmann::detail::binary</text>
<text text-anchor="middle" x="1269.38" y="-1559.27" font-family="Helvetica,sans-Serif" font-size="10.00">_reader::get_msgpack_string</text>
</a>
</g>
</g>
<!-- Node28&#45;&gt;Node32 -->
<g id="edge96" class="edge">
<title>Node28&#45;&gt;Node32</title>
<path fill="none" stroke="#63b8ff" d="M953.49,-1516.39C971.21,-1521.15 990.67,-1526.01 1008.75,-1529.77 1068.12,-1542.11 1135.9,-1552.16 1187.31,-1558.96"/>
<polygon fill="#63b8ff" stroke="#63b8ff" points="1186.66,-1562.54 1197.03,-1560.37 1187.56,-1555.6 1186.66,-1562.54"/>
</g>
<!-- Node29&#45;&gt;Node28 -->
<g id="edge82" class="edge">
<title>Node29&#45;&gt;Node28</title>
<path fill="none" stroke="#63b8ff" d="M1053.45,-1357.22C1039.24,-1363.11 1022.28,-1370.29 1008.75,-1379.77 973.42,-1404.52 941.16,-1441.83 919.65,-1468.2"/>
<polygon fill="#63b8ff" stroke="#63b8ff" points="916.35,-1465.72 912.78,-1475.69 921.79,-1470.12 916.35,-1465.72"/>
</g>
<!-- Node30&#45;&gt;Node18 -->
<g id="edge84" class="edge">
<title>Node30&#45;&gt;Node18</title>
<path fill="none" stroke="#63b8ff" d="M1329.83,-1602.27C1335.23,-1599.79 1340.46,-1596.97 1345.25,-1593.77 1380.12,-1570.48 1410.02,-1531.64 1427.36,-1506.12"/>
<polygon fill="#63b8ff" stroke="#63b8ff" points="1430.76,-1508.32 1433.37,-1498.05 1424.93,-1504.45 1430.76,-1508.32"/>
</g>
<!-- Node30&#45;&gt;Node25 -->
<g id="edge85" class="edge">
<title>Node30&#45;&gt;Node25</title>
<path fill="none" stroke="#63b8ff" d="M1314.93,-1635.25C1337.43,-1643.57 1364.92,-1653.75 1388.69,-1662.54"/>
<polygon fill="#63b8ff" stroke="#63b8ff" points="1387.38,-1666.16 1397.97,-1666.34 1389.81,-1659.59 1387.38,-1666.16"/>
</g>
<!-- Node31&#45;&gt;Node9 -->
<g id="edge87" class="edge">
<title>Node31&#45;&gt;Node9</title>
<path fill="none" stroke="#63b8ff" d="M1155.53,-1498.02C1212.45,-1489.36 1291.29,-1469.63 1345.25,-1424.77 1371.85,-1402.66 1353.17,-1375.97 1381.25,-1355.77 1424.75,-1324.48 1485.54,-1316.75 1532.35,-1316.27"/>
<polygon fill="#63b8ff" stroke="#63b8ff" points="1532.32,-1319.77 1542.33,-1316.29 1532.33,-1312.77 1532.32,-1319.77"/>
</g>
<!-- Node31&#45;&gt;Node28 -->
<g id="edge95" class="edge">
<title>Node31&#45;&gt;Node28</title>
<path fill="none" stroke="#63b8ff" d="M1010.67,-1509.07C995.56,-1508.84 979.6,-1508.33 964.47,-1507.62"/>
<polygon fill="#63b8ff" stroke="#63b8ff" points="964.79,-1504.08 954.63,-1507.06 964.43,-1511.07 964.79,-1504.08"/>
</g>
<!-- Node31&#45;&gt;Node32 -->
<g id="edge88" class="edge">
<title>Node31&#45;&gt;Node32</title>
<path fill="none" stroke="#63b8ff" d="M1131.57,-1521.25C1155.75,-1529.65 1185.35,-1539.93 1210.82,-1548.78"/>
<polygon fill="#63b8ff" stroke="#63b8ff" points="1209.49,-1552.37 1220.09,-1552.34 1211.79,-1545.76 1209.49,-1552.37"/>
</g>
<!-- Node32&#45;&gt;Node5 -->
<g id="edge89" class="edge">
<title>Node32&#45;&gt;Node5</title>
<path fill="none" stroke="#63b8ff" d="M1324.07,-1585.2C1331.28,-1587.84 1338.51,-1590.72 1345.25,-1593.77 1362.12,-1601.41 1363.37,-1609.94 1381.25,-1614.77 1502.13,-1647.45 1566.01,-1693.98 1663,-1614.77 1740.36,-1551.59 1762.53,-1221.41 1767.43,-1123.9"/>
<polygon fill="#63b8ff" stroke="#63b8ff" points="1770.96,-1124.36 1767.95,-1114.2 1763.97,-1124.02 1770.96,-1124.36"/>
</g>
<!-- Node32&#45;&gt;Node8 -->
<g id="edge90" class="edge">
<title>Node32&#45;&gt;Node8</title>
<path fill="none" stroke="#63b8ff" d="M1340.6,-1578.45C1434.16,-1586.8 1595.68,-1584.27 1663,-1480.77 1712.75,-1404.29 1683.91,-1161.75 1699,-1071.77 1714.74,-977.9 1745.65,-869.11 1760.41,-819.68"/>
<polygon fill="#63b8ff" stroke="#63b8ff" points="1764.02,-820.83 1763.55,-810.25 1757.31,-818.81 1764.02,-820.83"/>
</g>
<!-- Node32&#45;&gt;Node11 -->
<g id="edge93" class="edge">
<title>Node32&#45;&gt;Node11</title>
<path fill="none" stroke="#63b8ff" d="M1295.16,-1552.27C1311.74,-1539.97 1332.73,-1521.72 1345.25,-1500.77 1379.3,-1443.76 1362.23,-1419.39 1381.25,-1355.77 1397.41,-1301.71 1420.15,-1239.75 1433.16,-1205.35"/>
<polygon fill="#63b8ff" stroke="#63b8ff" points="1436.74,-1206.78 1437.03,-1196.19 1430.2,-1204.3 1436.74,-1206.78"/>
</g>
<!-- Node32&#45;&gt;Node15 -->
<g id="edge94" class="edge">
<title>Node32&#45;&gt;Node15</title>
<path fill="none" stroke="#63b8ff" d="M1340.73,-1570.52C1389.51,-1569.24 1454.9,-1562.43 1507.5,-1538.77 1537.21,-1525.41 1564.42,-1499.5 1581.99,-1480.16"/>
<polygon fill="#63b8ff" stroke="#63b8ff" points="1584.14,-1482.88 1588.13,-1473.07 1578.89,-1478.25 1584.14,-1482.88"/>
</g>
<!-- Node32&#45;&gt;Node20 -->
<g id="edge92" class="edge">
<title>Node32&#45;&gt;Node20</title>
<path fill="none" stroke="#63b8ff" d="M1289.93,-1552.52C1305.51,-1539.21 1327.58,-1519.58 1345.25,-1500.77 1362.79,-1482.1 1360.7,-1471.05 1381.25,-1455.77 1382.73,-1454.67 1384.26,-1453.62 1385.83,-1452.6"/>
<polygon fill="#63b8ff" stroke="#63b8ff" points="1387.29,-1455.22 1394.21,-1447.2 1383.8,-1449.15 1387.29,-1455.22"/>
</g>
<!-- Node32&#45;&gt;Node25 -->
<g id="edge91" class="edge">
<title>Node32&#45;&gt;Node25</title>
<path fill="none" stroke="#63b8ff" d="M1331.93,-1585.22C1336.66,-1587.69 1341.18,-1590.52 1345.25,-1593.77 1369.28,-1612.91 1358.49,-1632.14 1381.25,-1652.77 1384.4,-1655.63 1387.88,-1658.27 1391.53,-1660.71"/>
<polygon fill="#63b8ff" stroke="#63b8ff" points="1389.49,-1664.17 1399.86,-1666.32 1393.1,-1658.17 1389.49,-1664.17"/>
</g>
<!-- Node33&#45;&gt;Node10 -->
<g id="edge101" class="edge">
<title>Node33&#45;&gt;Node10</title>
<path fill="none" stroke="#63b8ff" d="M529.32,-548.39C555.63,-472.62 677.2,-159.77 890.63,-159.77 890.63,-159.77 890.63,-159.77 1084.13,-159.77 1201.05,-159.77 1230.34,-170.18 1345.25,-191.77 1354.35,-193.48 1363.86,-195.54 1373.23,-197.75"/>
<polygon fill="#63b8ff" stroke="#63b8ff" points="1372.17,-201.33 1382.71,-200.28 1373.81,-194.53 1372.17,-201.33"/>
</g>
<!-- Node34 -->
<g id="node34" class="node">
<title>Node34</title>
<g id="a_node34"><a xlink:href="a01995.html#a7e5e0b71548d0649ce4f131280d06c33" target="_top" xlink:title=" ">
<polygon fill="white" stroke="#666666" points="768.13,-624.77 639.63,-624.77 639.63,-592.77 768.13,-592.77 768.13,-624.77"/>
<text text-anchor="start" x="647.63" y="-611.27" font-family="Helvetica,sans-Serif" font-size="10.00">nlohmann::detail::binary</text>
<text text-anchor="middle" x="703.88" y="-599.27" font-family="Helvetica,sans-Serif" font-size="10.00">_reader::get_ubjson_value</text>
</a>
</g>
</g>
<!-- Node33&#45;&gt;Node34 -->
<g id="edge102" class="edge">
<title>Node33&#45;&gt;Node34</title>
<path fill="none" stroke="#63b8ff" d="M590.78,-581.22C603.2,-584.27 616.23,-587.47 628.84,-590.57"/>
<polygon fill="#63b8ff" stroke="#63b8ff" points="627.76,-594.16 638.31,-593.14 629.43,-587.36 627.76,-594.16"/>
</g>
<!-- Node34&#45;&gt;Node5 -->
<g id="edge103" class="edge">
<title>Node34&#45;&gt;Node5</title>
<path fill="none" stroke="#63b8ff" d="M714.13,-625.22C730.08,-651.89 765.4,-704.16 810.5,-729.77 888.38,-773.98 919.56,-757.74 1008.75,-765.77 1074.59,-771.7 1102.46,-802.4 1157.5,-765.77 1192,-742.81 1159,-702.73 1193.5,-679.77 1368.77,-563.13 1515.71,-592.33 1663,-742.77 1686.68,-766.96 1743.14,-992 1762.21,-1070.17"/>
<polygon fill="#63b8ff" stroke="#63b8ff" points="1758.98,-1070.71 1764.74,-1079.6 1765.78,-1069.05 1758.98,-1070.71"/>
</g>
<!-- Node34&#45;&gt;Node8 -->
<g id="edge104" class="edge">
<title>Node34&#45;&gt;Node8</title>
<path fill="none" stroke="#63b8ff" d="M711.27,-592.5C737.18,-528.88 841.12,-295.39 1008.75,-191.77 1136.5,-112.8 1195.73,-146.61 1345.25,-160.77 1418.34,-167.69 1445.3,-152.77 1507.5,-191.77 1605.6,-253.27 1612.49,-296.59 1663,-400.77 1725.36,-529.4 1755.21,-700.27 1764.92,-765.7"/>
<polygon fill="#63b8ff" stroke="#63b8ff" points="1761.56,-765.92 1766.45,-775.32 1768.49,-764.92 1761.56,-765.92"/>
</g>
<!-- Node34&#45;&gt;Node9 -->
<g id="edge105" class="edge">
<title>Node34&#45;&gt;Node9</title>
<path fill="none" stroke="#63b8ff" d="M768.45,-609.31C822.89,-610.43 903.26,-613.67 972.75,-622.77 1217.38,-654.78 1345.08,-586.06 1507.5,-771.77 1576.95,-851.18 1596.84,-1193.86 1601.2,-1293.5"/>
<polygon fill="#63b8ff" stroke="#63b8ff" points="1597.74,-1293.57 1601.66,-1303.41 1604.74,-1293.27 1597.74,-1293.57"/>
</g>
<!-- Node34&#45;&gt;Node11 -->
<g id="edge107" class="edge">
<title>Node34&#45;&gt;Node11</title>
<path fill="none" stroke="#63b8ff" d="M706.3,-624.99C711.43,-674.75 733.01,-827.53 810.5,-920.77 932.33,-1067.36 1013.55,-1050.9 1193.5,-1113.77 1225.9,-1125.09 1308.96,-1146.13 1370.47,-1161.2"/>
<polygon fill="#63b8ff" stroke="#63b8ff" points="1369.37,-1164.78 1379.91,-1163.76 1371.03,-1157.98 1369.37,-1164.78"/>
</g>
<!-- Node34&#45;&gt;Node15 -->
<g id="edge146" class="edge">
<title>Node34&#45;&gt;Node15</title>
<path fill="none" stroke="#63b8ff" d="M709.11,-625.25C719.56,-662.41 750.18,-753.08 810.5,-798.77 907.86,-872.52 1248.88,-850.74 1345.25,-925.77 1372.54,-947.02 1362.41,-965.76 1381.25,-994.77 1430.4,-1070.44 1470.03,-1071.68 1507.5,-1153.77 1543.55,-1232.75 1514.71,-1263.86 1543.5,-1345.77 1554.21,-1376.24 1572.38,-1408.54 1585.69,-1430.2"/>
<polygon fill="#63b8ff" stroke="#63b8ff" points="1583.14,-1431.74 1591.41,-1438.36 1589.08,-1428.02 1583.14,-1431.74"/>
</g>
<!-- Node34&#45;&gt;Node25 -->
<g id="edge106" class="edge">
<title>Node34&#45;&gt;Node25</title>
<path fill="none" stroke="#63b8ff" d="M705.97,-625.19C711.8,-708.63 741.65,-1085.19 810.5,-1175.77 869.86,-1253.86 917.23,-1237.46 1008.75,-1272.77 1072.96,-1297.54 1113.2,-1263.11 1157.5,-1315.77 1251.9,-1428 1092.19,-1537.74 1193.5,-1643.77 1205.86,-1656.71 1303.82,-1668.98 1373.33,-1676.19"/>
<polygon fill="#63b8ff" stroke="#63b8ff" points="1372.93,-1679.77 1383.23,-1677.31 1373.64,-1672.81 1372.93,-1679.77"/>
</g>
<!-- Node35 -->
<g id="node35" class="node">
<title>Node35</title>
<g id="a_node35"><a xlink:href="a01995.html#afb36cb588b795efa513fc95e949493b7" target="_top" xlink:title=" ">
<polygon fill="white" stroke="#666666" points="955.88,-530.77 827.38,-530.77 827.38,-498.77 955.88,-498.77 955.88,-530.77"/>
<text text-anchor="start" x="835.38" y="-517.27" font-family="Helvetica,sans-Serif" font-size="10.00">nlohmann::detail::binary</text>
<text text-anchor="middle" x="891.63" y="-505.27" font-family="Helvetica,sans-Serif" font-size="10.00">_reader::get_ubjson_array</text>
</a>
</g>
</g>
<!-- Node34&#45;&gt;Node35 -->
<g id="edge108" class="edge">
<title>Node34&#45;&gt;Node35</title>
<path fill="none" stroke="#63b8ff" d="M718.17,-592.41C737.53,-574.56 775.04,-547.49 810.5,-530.77 812.56,-529.8 814.67,-528.85 816.81,-527.94"/>
<polygon fill="#63b8ff" stroke="#63b8ff" points="818.03,-530.82 826.02,-523.85 815.43,-524.32 818.03,-530.82"/>
</g>
<!-- Node38 -->
<g id="node38" class="node">
<title>Node38</title>
<g id="a_node38"><a xlink:href="a01995.html#a26c694413fb860057e1a839d5422b361" target="_top" xlink:title=" ">
<polygon fill="white" stroke="#666666" points="1145.5,-756.77 1020.75,-756.77 1020.75,-712.77 1145.5,-712.77 1145.5,-756.77"/>
<text text-anchor="start" x="1028.75" y="-743.27" font-family="Helvetica,sans-Serif" font-size="10.00">nlohmann::detail::binary</text>
<text text-anchor="start" x="1028.75" y="-731.27" font-family="Helvetica,sans-Serif" font-size="10.00">_reader::get_ubjson_high</text>
<text text-anchor="middle" x="1083.13" y="-719.27" font-family="Helvetica,sans-Serif" font-size="10.00">_precision_number</text>
</a>
</g>
</g>
<!-- Node34&#45;&gt;Node38 -->
<g id="edge125" class="edge">
<title>Node34&#45;&gt;Node38</title>
<path fill="none" stroke="#63b8ff" d="M718.34,-624.95C736.77,-645.86 771.98,-681.63 810.5,-698.77 873.75,-726.92 952.88,-734.7 1009.39,-736.17"/>
<polygon fill="#63b8ff" stroke="#63b8ff" points="1009.31,-739.69 1019.38,-736.38 1009.45,-732.69 1009.31,-739.69"/>
</g>
<!-- Node39 -->
<g id="node39" class="node">
<title>Node39</title>
<g id="a_node39"><a xlink:href="a01995.html#adcf64ad3207f4bf37a5a31c920a385c3" target="_top" xlink:title=" ">
<polygon fill="white" stroke="#666666" points="958.13,-580.77 825.13,-580.77 825.13,-548.77 958.13,-548.77 958.13,-580.77"/>
<text text-anchor="start" x="833.13" y="-567.27" font-family="Helvetica,sans-Serif" font-size="10.00">nlohmann::detail::binary</text>
<text text-anchor="middle" x="891.63" y="-555.27" font-family="Helvetica,sans-Serif" font-size="10.00">_reader::get_ubjson_object</text>
</a>
</g>
</g>
<!-- Node34&#45;&gt;Node39 -->
<g id="edge132" class="edge">
<title>Node34&#45;&gt;Node39</title>
<path fill="none" stroke="#63b8ff" d="M749.37,-592.37C768.74,-587 792,-581.22 814.01,-576.26"/>
<polygon fill="#63b8ff" stroke="#63b8ff" points="814.68,-579.48 823.69,-573.9 813.17,-572.64 814.68,-579.48"/>
</g>
<!-- Node40 -->
<g id="node40" class="node">
<title>Node40</title>
<g id="a_node40"><a xlink:href="a01995.html#a4ae90db51c102e912b7eac83c78733a6" target="_top" xlink:title="reads a UBJSON string">
<polygon fill="white" stroke="#666666" points="1334.75,-764.77 1204,-764.77 1204,-732.77 1334.75,-732.77 1334.75,-764.77"/>
<text text-anchor="start" x="1212" y="-751.27" font-family="Helvetica,sans-Serif" font-size="10.00">nlohmann::detail::binary</text>
<text text-anchor="middle" x="1269.38" y="-739.27" font-family="Helvetica,sans-Serif" font-size="10.00">_reader::get_ubjson_string</text>
</a>
</g>
</g>
<!-- Node34&#45;&gt;Node40 -->
<g id="edge145" class="edge">
<title>Node34&#45;&gt;Node40</title>
<path fill="none" stroke="#63b8ff" d="M768.37,-618.41C856.77,-632.67 1021.38,-662.23 1157.5,-703.77 1179.33,-710.43 1202.84,-719.66 1222.57,-728.03"/>
<polygon fill="#63b8ff" stroke="#63b8ff" points="1220.94,-731.57 1231.51,-732.31 1223.71,-725.14 1220.94,-731.57"/>
</g>
<!-- Node35&#45;&gt;Node10 -->
<g id="edge109" class="edge">
<title>Node35&#45;&gt;Node10</title>
<path fill="none" stroke="#63b8ff" d="M893.23,-498.34C896.1,-446.79 912.72,-287.82 1008.75,-221.77 1065.48,-182.75 1262.17,-196.82 1370.47,-208.12"/>
<polygon fill="#63b8ff" stroke="#63b8ff" points="1369.99,-211.69 1380.3,-209.27 1370.73,-204.73 1369.99,-211.69"/>
</g>
<!-- Node35&#45;&gt;Node33 -->
<g id="edge124" class="edge">
<title>Node35&#45;&gt;Node33</title>
<path fill="none" stroke="#63b8ff" d="M827.06,-523.44C766.58,-531.68 675.17,-544.14 608.54,-553.23"/>
<polygon fill="#63b8ff" stroke="#63b8ff" points="608.09,-549.89 598.65,-554.71 609.03,-556.83 608.09,-549.89"/>
</g>
<!-- Node35&#45;&gt;Node34 -->
<g id="edge123" class="edge">
<title>Node35&#45;&gt;Node34</title>
<path fill="none" stroke="#63b8ff" d="M857.1,-531.24C842.44,-536.15 825.26,-541.81 810.5,-548.77 788.13,-559.32 764.94,-573.98 746.01,-586.31"/>
<polygon fill="#63b8ff" stroke="#63b8ff" points="744.26,-583.93 737.81,-592.33 748.09,-589.79 744.26,-583.93"/>
</g>
<!-- Node36 -->
<g id="node36" class="node">
<title>Node36</title>
<g id="a_node36"><a xlink:href="a01995.html#a7b6c2d4c95d56751e233e285a5f1fea7" target="_top" xlink:title="determine the type and size for a container">
<polygon fill="white" stroke="#666666" points="1157.5,-498.77 1008.75,-498.77 1008.75,-466.77 1157.5,-466.77 1157.5,-498.77"/>
<text text-anchor="start" x="1016.75" y="-485.27" font-family="Helvetica,sans-Serif" font-size="10.00">nlohmann::detail::binary</text>
<text text-anchor="middle" x="1083.13" y="-473.27" font-family="Helvetica,sans-Serif" font-size="10.00">_reader::get_ubjson_size_type</text>
</a>
</g>
</g>
<!-- Node35&#45;&gt;Node36 -->
<g id="edge110" class="edge">
<title>Node35&#45;&gt;Node36</title>
<path fill="none" stroke="#63b8ff" d="M956.25,-504.02C969.62,-501.77 983.92,-499.35 997.9,-496.99"/>
<polygon fill="#63b8ff" stroke="#63b8ff" points="998.24,-500.32 1007.52,-495.2 997.07,-493.41 998.24,-500.32"/>
</g>
<!-- Node36&#45;&gt;Node5 -->
<g id="edge111" class="edge">
<title>Node36&#45;&gt;Node5</title>
<path fill="none" stroke="#63b8ff" d="M1117.19,-466.41C1138.42,-456.84 1166.9,-445.7 1193.5,-440.77 1244.93,-431.23 1626.05,-437.75 1663,-474.77 1717.14,-529.02 1685.69,-742.29 1699,-817.77 1715.53,-911.5 1746.05,-1020.36 1760.56,-1069.83"/>
<polygon fill="#63b8ff" stroke="#63b8ff" points="1757.46,-1070.68 1763.65,-1079.28 1764.17,-1068.69 1757.46,-1070.68"/>
</g>
<!-- Node36&#45;&gt;Node8 -->
<g id="edge112" class="edge">
<title>Node36&#45;&gt;Node8</title>
<path fill="none" stroke="#63b8ff" d="M1095.71,-466.39C1122.37,-428.82 1186.32,-339.38 1193.5,-335.77 1253.77,-305.49 1279.97,-318.81 1345.25,-335.77 1501.71,-376.41 1557.43,-390.35 1663,-512.77 1729.23,-589.56 1755.87,-712.02 1764.79,-765.87"/>
<polygon fill="#63b8ff" stroke="#63b8ff" points="1761.46,-766.24 1766.47,-775.57 1768.37,-765.15 1761.46,-766.24"/>
</g>
<!-- Node36&#45;&gt;Node9 -->
<g id="edge113" class="edge">
<title>Node36&#45;&gt;Node9</title>
<path fill="none" stroke="#63b8ff" d="M1131.82,-466.33C1185.34,-450.57 1273.97,-432.59 1345.25,-457.77 1432.64,-488.64 1462.24,-507.89 1507.5,-588.77 1577.3,-713.51 1597.4,-1176.73 1601.42,-1293.77"/>
<polygon fill="#63b8ff" stroke="#63b8ff" points="1597.94,-1293.7 1601.77,-1303.58 1604.94,-1293.47 1597.94,-1293.7"/>
</g>
<!-- Node36&#45;&gt;Node10 -->
<g id="edge114" class="edge">
<title>Node36&#45;&gt;Node10</title>
<path fill="none" stroke="#63b8ff" d="M1089.24,-466.48C1101.36,-430.57 1135.23,-344.09 1193.5,-297.77 1248.88,-253.75 1278,-271.71 1345.25,-249.77 1358.06,-245.59 1371.78,-241.03 1384.78,-236.67"/>
<polygon fill="#63b8ff" stroke="#63b8ff" points="1385.66,-239.73 1394.02,-233.22 1383.43,-233.09 1385.66,-239.73"/>
</g>
<!-- Node36&#45;&gt;Node11 -->
<g id="edge115" class="edge">
<title>Node36&#45;&gt;Node11</title>
<path fill="none" stroke="#63b8ff" d="M1090.85,-499.07C1105.49,-535.23 1140.26,-625.19 1157.5,-703.77 1172.93,-774.1 1146.11,-971.56 1193.5,-1025.77 1239.26,-1078.11 1286.16,-1027.14 1345.25,-1063.77 1381.81,-1086.43 1411.77,-1127.2 1428.6,-1153.61"/>
<polygon fill="#63b8ff" stroke="#63b8ff" points="1425.95,-1154.98 1434.2,-1161.63 1431.9,-1151.29 1425.95,-1154.98"/>
</g>
<!-- Node36&#45;&gt;Node15 -->
<g id="edge122" class="edge">
<title>Node36&#45;&gt;Node15</title>
<path fill="none" stroke="#63b8ff" d="M1118.42,-499.19C1202.52,-541.53 1418.55,-663.47 1507.5,-837.77 1558.94,-938.57 1512.15,-1237.03 1543.5,-1345.77 1552.44,-1376.8 1570.91,-1409.01 1584.77,-1430.5"/>
<polygon fill="#63b8ff" stroke="#63b8ff" points="1582.33,-1432.15 1590.76,-1438.57 1588.17,-1428.3 1582.33,-1432.15"/>
</g>
<!-- Node37 -->
<g id="node37" class="node">
<title>Node37</title>
<g id="a_node37"><a xlink:href="a01995.html#aba7ba9ec9a52ad2bee8baff70176aa20" target="_top" xlink:title=" ">
<polygon fill="white" stroke="#666666" points="1345.25,-498.77 1193.5,-498.77 1193.5,-466.77 1345.25,-466.77 1345.25,-498.77"/>
<text text-anchor="start" x="1201.5" y="-485.27" font-family="Helvetica,sans-Serif" font-size="10.00">nlohmann::detail::binary</text>
<text text-anchor="middle" x="1269.38" y="-473.27" font-family="Helvetica,sans-Serif" font-size="10.00">_reader::get_ubjson_size_value</text>
</a>
</g>
</g>
<!-- Node36&#45;&gt;Node37 -->
<g id="edge116" class="edge">
<title>Node36&#45;&gt;Node37</title>
<path fill="none" stroke="#63b8ff" d="M1157.74,-482.77C1165.82,-482.77 1174.11,-482.77 1182.33,-482.77"/>
<polygon fill="#63b8ff" stroke="#63b8ff" points="1182.07,-486.27 1192.07,-482.77 1182.07,-479.27 1182.07,-486.27"/>
</g>
<!-- Node37&#45;&gt;Node5 -->
<g id="edge117" class="edge">
<title>Node37&#45;&gt;Node5</title>
<path fill="none" stroke="#63b8ff" d="M1345.71,-477.67C1446.91,-472.59 1619.16,-470.7 1663,-512.77 1712.24,-560.02 1686.71,-750.64 1699,-817.77 1716.18,-911.62 1746.51,-1020.84 1760.78,-1070.17"/>
<polygon fill="#63b8ff" stroke="#63b8ff" points="1757.66,-1070.95 1763.81,-1079.57 1764.38,-1069 1757.66,-1070.95"/>
</g>
<!-- Node37&#45;&gt;Node8 -->
<g id="edge118" class="edge">
<title>Node37&#45;&gt;Node8</title>
<path fill="none" stroke="#63b8ff" d="M1314.38,-499.19C1324.63,-503.35 1335.42,-508 1345.25,-512.77 1491.87,-583.92 1531.58,-599.4 1663,-695.77 1693.49,-718.12 1724.97,-748.09 1745.54,-768.77"/>
<polygon fill="#63b8ff" stroke="#63b8ff" points="1742.62,-770.8 1752.13,-775.47 1747.6,-765.89 1742.62,-770.8"/>
</g>
<!-- Node37&#45;&gt;Node10 -->
<g id="edge119" class="edge">
<title>Node37&#45;&gt;Node10</title>
<path fill="none" stroke="#63b8ff" d="M1280.94,-466.53C1310.07,-421.73 1391.75,-296.15 1426.92,-242.07"/>
<polygon fill="#63b8ff" stroke="#63b8ff" points="1430.21,-244.43 1432.73,-234.13 1424.35,-240.61 1430.21,-244.43"/>
</g>
<!-- Node37&#45;&gt;Node11 -->
<g id="edge121" class="edge">
<title>Node37&#45;&gt;Node11</title>
<path fill="none" stroke="#63b8ff" d="M1275.96,-498.99C1289.15,-537.61 1322.77,-638.17 1345.25,-723.77 1387.54,-884.8 1425.32,-1081.34 1438.45,-1151.94"/>
<polygon fill="#63b8ff" stroke="#63b8ff" points="1435.15,-1152.33 1440.41,-1161.53 1442.03,-1151.06 1435.15,-1152.33"/>
</g>
<!-- Node37&#45;&gt;Node25 -->
<g id="edge120" class="edge">
<title>Node37&#45;&gt;Node25</title>
<path fill="none" stroke="#63b8ff" d="M1277.04,-499.06C1292.37,-537.44 1330,-636.81 1345.25,-723.77 1405.35,-1066.46 1314.93,-1164.22 1381.25,-1505.77 1392,-1561.16 1416.66,-1622.64 1431.47,-1656.61"/>
<polygon fill="#63b8ff" stroke="#63b8ff" points="1428.65,-1657.89 1435.9,-1665.62 1435.06,-1655.06 1428.65,-1657.89"/>
</g>
<!-- Node38&#45;&gt;Node3 -->
<g id="edge130" class="edge">
<title>Node38&#45;&gt;Node3</title>
<path fill="none" stroke="#63b8ff" d="M1091.54,-757C1105.29,-798.56 1135.37,-890.97 1157.5,-969.77 1175.34,-1033.28 1176.14,-1050.13 1193.5,-1113.77 1216.17,-1196.85 1245.92,-1294.35 1260.13,-1340.29"/>
<polygon fill="#63b8ff" stroke="#63b8ff" points="1257.01,-1341.04 1263.32,-1349.56 1263.7,-1338.97 1257.01,-1341.04"/>
</g>
<!-- Node38&#45;&gt;Node5 -->
<g id="edge126" class="edge">
<title>Node38&#45;&gt;Node5</title>
<path fill="none" stroke="#63b8ff" d="M1089.68,-712.32C1101.13,-671.46 1131.64,-585.96 1193.5,-550.77 1284.19,-499.18 1584.45,-482.1 1663,-550.77 1708.07,-590.17 1687.73,-758.97 1699,-817.77 1716.95,-911.47 1746.9,-1020.76 1760.93,-1070.14"/>
<polygon fill="#63b8ff" stroke="#63b8ff" points="1757.8,-1070.9 1763.91,-1079.56 1764.53,-1068.98 1757.8,-1070.9"/>
</g>
<!-- Node38&#45;&gt;Node8 -->
<g id="edge127" class="edge">
<title>Node38&#45;&gt;Node8</title>
<path fill="none" stroke="#63b8ff" d="M1089.53,-712.4C1104.62,-651.97 1149.04,-488.01 1193.5,-457.77 1249.26,-419.83 1279.2,-444.13 1345.25,-457.77 1498.75,-489.47 1550.21,-501.92 1663,-610.77 1710.46,-656.57 1743.51,-728.28 1758.87,-766.58"/>
<polygon fill="#63b8ff" stroke="#63b8ff" points="1755.83,-767.41 1762.73,-775.45 1762.35,-764.86 1755.83,-767.41"/>
</g>
<!-- Node38&#45;&gt;Node9 -->
<g id="edge128" class="edge">
<title>Node38&#45;&gt;Node9</title>
<path fill="none" stroke="#63b8ff" d="M1140.1,-757.21C1249.31,-801.46 1482.4,-898.31 1507.5,-928.77 1554.5,-985.81 1588.42,-1215.37 1598.87,-1294.11"/>
<polygon fill="#63b8ff" stroke="#63b8ff" points="1595.47,-1294.13 1600.24,-1303.59 1602.41,-1293.22 1595.47,-1294.13"/>
</g>
<!-- Node38&#45;&gt;Node15 -->
<g id="edge131" class="edge">
<title>Node38&#45;&gt;Node15</title>
<path fill="none" stroke="#63b8ff" d="M1106.98,-757.05C1128.15,-776.87 1161.17,-805.73 1193.5,-825.77 1256.16,-864.61 1283.75,-852.1 1345.25,-892.77 1427.67,-947.27 1462.88,-956.61 1507.5,-1044.77 1568.34,-1164.98 1503.07,-1217.25 1543.5,-1345.77 1553.19,-1376.57 1571.53,-1408.82 1585.16,-1430.38"/>
<polygon fill="#63b8ff" stroke="#63b8ff" points="1582.67,-1431.98 1591.03,-1438.49 1588.55,-1428.19 1582.67,-1431.98"/>
</g>
<!-- Node38&#45;&gt;Node37 -->
<g id="edge129" class="edge">
<title>Node38&#45;&gt;Node37</title>
<path fill="none" stroke="#63b8ff" d="M1089.41,-712.32C1100.9,-668.2 1132.19,-569.55 1193.5,-512.77 1196.79,-509.72 1200.44,-506.96 1204.29,-504.47"/>
<polygon fill="#63b8ff" stroke="#63b8ff" points="1205.66,-507.15 1212.6,-499.14 1202.18,-501.07 1205.66,-507.15"/>
</g>
<!-- Node39&#45;&gt;Node10 -->
<g id="edge133" class="edge">
<title>Node39&#45;&gt;Node10</title>
<path fill="none" stroke="#63b8ff" d="M958.61,-549.5C963.71,-546.77 968.51,-543.56 972.75,-539.77 1002.42,-513.23 987.27,-491.28 1008.75,-457.77 1075.47,-353.67 1084.28,-307.73 1193.5,-249.77 1223.32,-233.94 1307.99,-225.2 1370.55,-220.76"/>
<polygon fill="#63b8ff" stroke="#63b8ff" points="1370.43,-224.21 1380.17,-220.03 1369.95,-217.23 1370.43,-224.21"/>
</g>
<!-- Node39&#45;&gt;Node33 -->
<g id="edge144" class="edge">
<title>Node39&#45;&gt;Node33</title>
<path fill="none" stroke="#63b8ff" d="M824.66,-564.77C764.14,-564.77 674.17,-564.77 608.4,-564.77"/>
<polygon fill="#63b8ff" stroke="#63b8ff" points="608.65,-561.27 598.65,-564.77 608.65,-568.27 608.65,-561.27"/>
</g>
<!-- Node39&#45;&gt;Node34 -->
<g id="edge143" class="edge">
<title>Node39&#45;&gt;Node34</title>
<path fill="none" stroke="#63b8ff" d="M845.78,-581.26C825.79,-586.8 801.69,-592.76 779.12,-597.81"/>
<polygon fill="#63b8ff" stroke="#63b8ff" points="778.56,-594.57 769.54,-600.13 780.06,-601.41 778.56,-594.57"/>
</g>
<!-- Node39&#45;&gt;Node36 -->
<g id="edge134" class="edge">
<title>Node39&#45;&gt;Node36</title>
<path fill="none" stroke="#63b8ff" d="M949.54,-548.39C957.42,-545.72 965.34,-542.83 972.75,-539.77 997.36,-529.61 1023.86,-515.88 1044.61,-504.44"/>
<polygon fill="#63b8ff" stroke="#63b8ff" points="1045.98,-507.13 1053,-499.2 1042.57,-501.01 1045.98,-507.13"/>
</g>
<!-- Node39&#45;&gt;Node40 -->
<g id="edge135" class="edge">
<title>Node39&#45;&gt;Node40</title>
<path fill="none" stroke="#63b8ff" d="M943.75,-581.25C998.28,-599.74 1086.42,-632.23 1157.5,-670.77 1186.96,-686.74 1217.95,-709.08 1239.65,-725.75"/>
<polygon fill="#63b8ff" stroke="#63b8ff" points="1237.02,-728.92 1247.06,-732.29 1241.32,-723.39 1237.02,-728.92"/>
</g>
<!-- Node40&#45;&gt;Node5 -->
<g id="edge136" class="edge">
<title>Node40&#45;&gt;Node5</title>
<path fill="none" stroke="#63b8ff" d="M1335.18,-741.94C1385.19,-739.65 1454.55,-743.17 1507.5,-771.77 1524.37,-780.88 1692.2,-997.55 1749.54,-1071.96"/>
<polygon fill="#63b8ff" stroke="#63b8ff" points="1747.09,-1073.51 1755.97,-1079.3 1752.64,-1069.24 1747.09,-1073.51"/>
</g>
<!-- Node40&#45;&gt;Node8 -->
<g id="edge137" class="edge">
<title>Node40&#45;&gt;Node8</title>
<path fill="none" stroke="#63b8ff" d="M1300.88,-732.27C1322.59,-721.5 1352.84,-708.43 1381.25,-702.77 1505.17,-678.08 1544.24,-697.61 1663,-740.77 1686.01,-749.13 1710.61,-761.05 1730.27,-771.37"/>
<polygon fill="#63b8ff" stroke="#63b8ff" points="1728.31,-774.82 1738.78,-776.44 1731.6,-768.64 1728.31,-774.82"/>
</g>
<!-- Node40&#45;&gt;Node9 -->
<g id="edge138" class="edge">
<title>Node40&#45;&gt;Node9</title>
<path fill="none" stroke="#63b8ff" d="M1335,-760.37C1389.47,-773.63 1465.12,-800.9 1507.5,-854.77 1562.34,-924.47 1591.87,-1205.41 1599.94,-1293.93"/>
<polygon fill="#63b8ff" stroke="#63b8ff" points="1596.53,-1294 1600.9,-1303.65 1603.5,-1293.38 1596.53,-1294"/>
</g>
<!-- Node40&#45;&gt;Node11 -->
<g id="edge141" class="edge">
<title>Node40&#45;&gt;Node11</title>
<path fill="none" stroke="#63b8ff" d="M1277.35,-764.81C1290.79,-795.79 1321.06,-866.09 1345.25,-925.77 1378.59,-1008.03 1416,-1106.23 1433.44,-1152.37"/>
<polygon fill="#63b8ff" stroke="#63b8ff" points="1430.43,-1153.3 1437.23,-1161.42 1436.97,-1150.83 1430.43,-1153.3"/>
</g>
<!-- Node40&#45;&gt;Node15 -->
<g id="edge142" class="edge">
<title>Node40&#45;&gt;Node15</title>
<path fill="none" stroke="#63b8ff" d="M1292.99,-765.04C1342.01,-801.74 1457.63,-896.45 1507.5,-1006.77 1569.91,-1144.83 1498.99,-1200.94 1543.5,-1345.77 1552.99,-1376.64 1571.36,-1408.88 1585.05,-1430.41"/>
<polygon fill="#63b8ff" stroke="#63b8ff" points="1582.58,-1432.03 1590.96,-1438.51 1588.45,-1428.22 1582.58,-1432.03"/>
</g>
<!-- Node40&#45;&gt;Node20 -->
<g id="edge140" class="edge">
<title>Node40&#45;&gt;Node20</title>
<path fill="none" stroke="#63b8ff" d="M1279.5,-765.23C1295.96,-795.79 1330.25,-863.83 1345.25,-925.77 1370.42,-1029.73 1318.1,-1319.43 1381.25,-1405.77 1381.48,-1406.08 1381.7,-1406.38 1381.94,-1406.68"/>
<polygon fill="#63b8ff" stroke="#63b8ff" points="1379.2,-1408.88 1388.79,-1413.39 1384.1,-1403.88 1379.2,-1408.88"/>
</g>
<!-- Node40&#45;&gt;Node25 -->
<g id="edge139" class="edge">
<title>Node40&#45;&gt;Node25</title>
<path fill="none" stroke="#63b8ff" d="M1279.58,-765.21C1296.16,-795.74 1330.65,-863.74 1345.25,-925.77 1404.41,-1177.18 1330,-1252.63 1381.25,-1505.77 1392.45,-1561.07 1416.94,-1622.59 1431.61,-1656.58"/>
<polygon fill="#63b8ff" stroke="#63b8ff" points="1428.78,-1657.85 1435.99,-1665.6 1435.19,-1655.04 1428.78,-1657.85"/>
</g>
</g>
</svg>
