<?xml version="1.0" encoding="UTF-8" standalone="no"?>
<!DOCTYPE svg PUBLIC "-//W3C//DTD SVG 1.1//EN"
 "http://www.w3.org/Graphics/SVG/1.1/DTD/svg11.dtd">
<!-- Generated by graphviz version 2.43.0 (0)
 -->
<!-- Title: nlohmann::json_pointer::split Pages: 1 -->
<svg width="646pt" height="186pt"
 viewBox="0.00 0.00 646.00 186.00" xmlns="http://www.w3.org/2000/svg" xmlns:xlink="http://www.w3.org/1999/xlink">
<g id="graph0" class="graph" transform="scale(1 1) rotate(0) translate(4 182)">
<title>nlohmann::json_pointer::split</title>
<polygon fill="white" stroke="transparent" points="-4,4 -4,-182 642,-182 642,4 -4,4"/>
<!-- Node1 -->
<g id="node1" class="node">
<title>Node1</title>
<g id="a_node1"><a xlink:title="split the string input to reference tokens">
<polygon fill="#bfbfbf" stroke="black" points="0,-48.5 0,-78.5 131,-78.5 131,-48.5 0,-48.5"/>
<text text-anchor="start" x="8" y="-66.5" font-family="Helvetica,sans-Serif" font-size="10.00">nlohmann::json_pointer</text>
<text text-anchor="middle" x="65.5" y="-55.5" font-family="Helvetica,sans-Serif" font-size="10.00">::split</text>
</a>
</g>
</g>
<!-- Node2 -->
<g id="node2" class="node">
<title>Node2</title>
<g id="a_node2"><a xlink:href="a01509.html#a137ea4d27de45d8a844fd13451d40f3d" target="_top" xlink:title="create a parse error exception">
<polygon fill="white" stroke="black" points="167,-85.5 167,-115.5 299,-115.5 299,-85.5 167,-85.5"/>
<text text-anchor="start" x="175" y="-103.5" font-family="Helvetica,sans-Serif" font-size="10.00">nlohmann::detail::parse</text>
<text text-anchor="middle" x="233" y="-92.5" font-family="Helvetica,sans-Serif" font-size="10.00">_error::create</text>
</a>
</g>
</g>
<!-- Node1&#45;&gt;Node2 -->
<g id="edge1" class="edge">
<title>Node1&#45;&gt;Node2</title>
<path fill="none" stroke="midnightblue" d="M131.43,-78.02C139.83,-79.89 148.48,-81.83 157.03,-83.74"/>
<polygon fill="midnightblue" stroke="midnightblue" points="156.46,-87.2 166.98,-85.96 157.99,-80.37 156.46,-87.2"/>
</g>
<!-- Node7 -->
<g id="node7" class="node">
<title>Node7</title>
<g id="a_node7"><a xlink:href="a01609.html#ab85442d5fbcc289b79beeefc2175446f" target="_top" xlink:title="unescape &quot;~1&quot; to tilde and &quot;~0&quot; to slash (order is important!)">
<polygon fill="white" stroke="black" points="167.5,-24.5 167.5,-54.5 298.5,-54.5 298.5,-24.5 167.5,-24.5"/>
<text text-anchor="start" x="175.5" y="-42.5" font-family="Helvetica,sans-Serif" font-size="10.00">nlohmann::json_pointer</text>
<text text-anchor="middle" x="233" y="-31.5" font-family="Helvetica,sans-Serif" font-size="10.00">::unescape</text>
</a>
</g>
</g>
<!-- Node1&#45;&gt;Node7 -->
<g id="edge7" class="edge">
<title>Node1&#45;&gt;Node7</title>
<path fill="none" stroke="midnightblue" d="M131.43,-54.08C139.9,-52.86 148.62,-51.59 157.23,-50.34"/>
<polygon fill="midnightblue" stroke="midnightblue" points="157.86,-53.79 167.25,-48.89 156.85,-46.86 157.86,-53.79"/>
</g>
<!-- Node3 -->
<g id="node3" class="node">
<title>Node3</title>
<g id="a_node3"><a xlink:href="a01505.html#abf41a7e9178356314082284e6cfea278" target="_top" xlink:title=" ">
<polygon fill="white" stroke="black" points="335,-147.5 335,-177.5 488,-177.5 488,-147.5 335,-147.5"/>
<text text-anchor="start" x="343" y="-165.5" font-family="Helvetica,sans-Serif" font-size="10.00">nlohmann::detail::exception</text>
<text text-anchor="middle" x="411.5" y="-154.5" font-family="Helvetica,sans-Serif" font-size="10.00">::name</text>
</a>
</g>
</g>
<!-- Node2&#45;&gt;Node3 -->
<g id="edge2" class="edge">
<title>Node2&#45;&gt;Node3</title>
<path fill="none" stroke="midnightblue" d="M272.68,-115.59C291.41,-122.76 314.29,-131.32 335,-138.5 340.49,-140.41 346.23,-142.34 351.99,-144.23"/>
<polygon fill="midnightblue" stroke="midnightblue" points="351.05,-147.61 361.64,-147.38 353.22,-140.95 351.05,-147.61"/>
</g>
<!-- Node5 -->
<g id="node5" class="node">
<title>Node5</title>
<g id="a_node5"><a xlink:href="a01509.html#a0ea816ea3521d7109407948cb1b850f7" target="_top" xlink:title=" ">
<polygon fill="white" stroke="black" points="345.5,-98.5 345.5,-128.5 477.5,-128.5 477.5,-98.5 345.5,-98.5"/>
<text text-anchor="start" x="353.5" y="-116.5" font-family="Helvetica,sans-Serif" font-size="10.00">nlohmann::detail::parse</text>
<text text-anchor="middle" x="411.5" y="-105.5" font-family="Helvetica,sans-Serif" font-size="10.00">_error::parse_error</text>
</a>
</g>
</g>
<!-- Node2&#45;&gt;Node5 -->
<g id="edge4" class="edge">
<title>Node2&#45;&gt;Node5</title>
<path fill="none" stroke="midnightblue" d="M299.22,-105.3C310.96,-106.17 323.28,-107.08 335.28,-107.96"/>
<polygon fill="midnightblue" stroke="midnightblue" points="335.02,-111.45 345.25,-108.69 335.54,-104.47 335.02,-111.45"/>
</g>
<!-- Node6 -->
<g id="node6" class="node">
<title>Node6</title>
<g id="a_node6"><a xlink:href="a01509.html#aefe74adeaa48781464ba2fd2ec63d221" target="_top" xlink:title=" ">
<polygon fill="white" stroke="black" points="345.5,-49.5 345.5,-79.5 477.5,-79.5 477.5,-49.5 345.5,-49.5"/>
<text text-anchor="start" x="353.5" y="-67.5" font-family="Helvetica,sans-Serif" font-size="10.00">nlohmann::detail::parse</text>
<text text-anchor="middle" x="411.5" y="-56.5" font-family="Helvetica,sans-Serif" font-size="10.00">_error::position_string</text>
</a>
</g>
</g>
<!-- Node2&#45;&gt;Node6 -->
<g id="edge5" class="edge">
<title>Node2&#45;&gt;Node6</title>
<path fill="none" stroke="midnightblue" d="M299.22,-87.2C310.96,-84.8 323.28,-82.29 335.28,-79.84"/>
<polygon fill="midnightblue" stroke="midnightblue" points="336.15,-83.24 345.25,-77.81 334.76,-76.38 336.15,-83.24"/>
</g>
<!-- Node4 -->
<g id="node4" class="node">
<title>Node4</title>
<g id="a_node4"><a xlink:href="a00410.html#a6ce645a0b8717757e096a5b5773b7a16" target="_top" xlink:title="user&#45;defined to_string function for JSON values">
<polygon fill="white" stroke="black" points="524,-104 524,-123 638,-123 638,-104 524,-104"/>
<text text-anchor="middle" x="581" y="-111" font-family="Helvetica,sans-Serif" font-size="10.00">nlohmann::to_string</text>
</a>
</g>
</g>
<!-- Node3&#45;&gt;Node4 -->
<g id="edge3" class="edge">
<title>Node3&#45;&gt;Node4</title>
<path fill="none" stroke="midnightblue" d="M464.12,-147.4C487.71,-140.5 515.31,-132.42 537.66,-125.89"/>
<polygon fill="midnightblue" stroke="midnightblue" points="538.9,-129.17 547.52,-123 536.94,-122.45 538.9,-129.17"/>
</g>
<!-- Node6&#45;&gt;Node4 -->
<g id="edge6" class="edge">
<title>Node6&#45;&gt;Node4</title>
<path fill="none" stroke="midnightblue" d="M464.12,-79.6C487.71,-86.5 515.31,-94.58 537.66,-101.11"/>
<polygon fill="midnightblue" stroke="midnightblue" points="536.94,-104.55 547.52,-104 538.9,-97.83 536.94,-104.55"/>
</g>
<!-- Node8 -->
<g id="node8" class="node">
<title>Node8</title>
<g id="a_node8"><a xlink:href="a01609.html#aa7649d30da9fc10b0e20704a27aea2a9" target="_top" xlink:title="replace all occurrences of a substring by another string">
<polygon fill="white" stroke="black" points="346,-0.5 346,-30.5 477,-30.5 477,-0.5 346,-0.5"/>
<text text-anchor="start" x="354" y="-18.5" font-family="Helvetica,sans-Serif" font-size="10.00">nlohmann::json_pointer</text>
<text text-anchor="middle" x="411.5" y="-7.5" font-family="Helvetica,sans-Serif" font-size="10.00">::replace_substring</text>
</a>
</g>
</g>
<!-- Node7&#45;&gt;Node8 -->
<g id="edge8" class="edge">
<title>Node7&#45;&gt;Node8</title>
<path fill="none" stroke="midnightblue" d="M298.72,-30.7C310.71,-29.07 323.33,-27.35 335.59,-25.69"/>
<polygon fill="midnightblue" stroke="midnightblue" points="336.35,-29.11 345.79,-24.3 335.41,-22.18 336.35,-29.11"/>
</g>
</g>
</svg>
