<?xml version="1.0" encoding="UTF-8" standalone="no"?>
<!DOCTYPE svg PUBLIC "-//W3C//DTD SVG 1.1//EN"
 "http://www.w3.org/Graphics/SVG/1.1/DTD/svg11.dtd">
<!-- Generated by graphviz version 8.0.5 (20230430.1635)
 -->
<!-- Title: nlohmann::basic_json::merge_patch Pages: 1 -->
<svg width="769pt" height="522pt"
 viewBox="0.00 0.00 769.00 522.00" xmlns="http://www.w3.org/2000/svg" xmlns:xlink="http://www.w3.org/1999/xlink">
<g id="graph0" class="graph" transform="scale(1 1) rotate(0) translate(4 518)">
<title>nlohmann::basic_json::merge_patch</title>
<!-- Node1 -->
<g id="node1" class="node">
<title>Node1</title>
<g id="a_node1"><a xlink:title="applies a JSON Merge Patch">
<polygon fill="#999999" stroke="#666666" points="110.5,-232 0,-232 0,-200 110.5,-200 110.5,-232"/>
<text text-anchor="start" x="8" y="-218.5" font-family="Helvetica,sans-Serif" font-size="10.00">nlohmann::basic_json</text>
<text text-anchor="middle" x="55.25" y="-206.5" font-family="Helvetica,sans-Serif" font-size="10.00">::merge_patch</text>
</a>
</g>
</g>
<!-- Node1&#45;&gt;Node1 -->
<g id="edge19" class="edge">
<title>Node1&#45;&gt;Node1</title>
<path fill="none" stroke="#63b8ff" d="M29.1,-232.44C24.21,-241.58 32.93,-250 55.25,-250 68.15,-250 76.51,-247.19 80.32,-243.05"/>
<polygon fill="#63b8ff" stroke="#63b8ff" points="83.87,-243.75 81.4,-233.44 76.91,-243.04 83.87,-243.75"/>
</g>
<!-- Node2 -->
<g id="node2" class="node">
<title>Node2</title>
<g id="a_node2"><a xlink:href="a01659.html#a23b495b4c282e4afacf382f5b49af7c7" target="_top" xlink:title="returns an iterator to the first element">
<polygon fill="white" stroke="#666666" points="257,-441 146.5,-441 146.5,-409 257,-409 257,-441"/>
<text text-anchor="start" x="154.5" y="-427.5" font-family="Helvetica,sans-Serif" font-size="10.00">nlohmann::basic_json</text>
<text text-anchor="middle" x="201.75" y="-415.5" font-family="Helvetica,sans-Serif" font-size="10.00">::begin</text>
</a>
</g>
</g>
<!-- Node1&#45;&gt;Node2 -->
<g id="edge1" class="edge">
<title>Node1&#45;&gt;Node2</title>
<path fill="none" stroke="#63b8ff" d="M64.43,-232.14C79.14,-260.56 111.78,-320.89 146.5,-367 155.4,-378.82 166.37,-390.92 176.11,-400.99"/>
<polygon fill="#63b8ff" stroke="#63b8ff" points="173.09,-402.92 182.6,-407.59 178.07,-398.01 173.09,-402.92"/>
</g>
<!-- Node6 -->
<g id="node6" class="node">
<title>Node6</title>
<g id="a_node6"><a xlink:href="a01659.html#a931267ec3f09eb67e4382f321b2c52bc" target="_top" xlink:title="returns an iterator to one past the last element">
<polygon fill="white" stroke="#666666" points="425.25,-420 293,-420 293,-400 425.25,-400 425.25,-420"/>
<text text-anchor="middle" x="359.13" y="-406.5" font-family="Helvetica,sans-Serif" font-size="10.00">nlohmann::basic_json::end</text>
</a>
</g>
</g>
<!-- Node1&#45;&gt;Node6 -->
<g id="edge5" class="edge">
<title>Node1&#45;&gt;Node6</title>
<path fill="none" stroke="#63b8ff" d="M73.8,-232.48C111.22,-266.76 202.78,-346.28 293,-391 296.53,-392.75 300.25,-394.37 304.05,-395.86"/>
<polygon fill="#63b8ff" stroke="#63b8ff" points="302.63,-399.42 313.23,-399.5 304.99,-392.84 302.63,-399.42"/>
</g>
<!-- Node8 -->
<g id="node8" class="node">
<title>Node8</title>
<g id="a_node8"><a xlink:href="a01659.html#a494632b69bbe1d0153d3bedad0901b8e" target="_top" xlink:title="remove element given an iterator">
<polygon fill="white" stroke="#666666" points="257,-269 146.5,-269 146.5,-237 257,-237 257,-269"/>
<text text-anchor="start" x="154.5" y="-255.5" font-family="Helvetica,sans-Serif" font-size="10.00">nlohmann::basic_json</text>
<text text-anchor="middle" x="201.75" y="-243.5" font-family="Helvetica,sans-Serif" font-size="10.00">::erase</text>
</a>
</g>
</g>
<!-- Node1&#45;&gt;Node8 -->
<g id="edge8" class="edge">
<title>Node1&#45;&gt;Node8</title>
<path fill="none" stroke="#63b8ff" d="M110.88,-229.99C118.97,-232.06 127.38,-234.21 135.66,-236.33"/>
<polygon fill="#63b8ff" stroke="#63b8ff" points="134.49,-239.9 145.04,-238.99 136.22,-233.12 134.49,-239.9"/>
</g>
<!-- Node16 -->
<g id="node16" class="node">
<title>Node16</title>
<g id="a_node16"><a xlink:href="a01659.html#a57e8411a770a6263d6d8f2116c37f3aa" target="_top" xlink:title="return whether value is an object">
<polygon fill="white" stroke="#666666" points="257,-157 146.5,-157 146.5,-125 257,-125 257,-157"/>
<text text-anchor="start" x="154.5" y="-143.5" font-family="Helvetica,sans-Serif" font-size="10.00">nlohmann::basic_json</text>
<text text-anchor="middle" x="201.75" y="-131.5" font-family="Helvetica,sans-Serif" font-size="10.00">::is_object</text>
</a>
</g>
</g>
<!-- Node1&#45;&gt;Node16 -->
<g id="edge18" class="edge">
<title>Node1&#45;&gt;Node16</title>
<path fill="none" stroke="#63b8ff" d="M84.41,-199.69C102.07,-189.64 125.41,-176.68 146.5,-166 149.06,-164.7 151.69,-163.4 154.36,-162.1"/>
<polygon fill="#63b8ff" stroke="#63b8ff" points="155.58,-164.91 163.1,-157.44 152.56,-158.6 155.58,-164.91"/>
</g>
<!-- Node17 -->
<g id="node17" class="node">
<title>Node17</title>
<g id="a_node17"><a xlink:href="a01659.html#a9a4df356e05415438fadf8a15e583903" target="_top" xlink:title="explicitly create an object from an initializer list">
<polygon fill="white" stroke="#666666" points="257,-107 146.5,-107 146.5,-75 257,-75 257,-107"/>
<text text-anchor="start" x="154.5" y="-93.5" font-family="Helvetica,sans-Serif" font-size="10.00">nlohmann::basic_json</text>
<text text-anchor="middle" x="201.75" y="-81.5" font-family="Helvetica,sans-Serif" font-size="10.00">::object</text>
</a>
</g>
</g>
<!-- Node1&#45;&gt;Node17 -->
<g id="edge20" class="edge">
<title>Node1&#45;&gt;Node17</title>
<path fill="none" stroke="#63b8ff" d="M67.74,-199.58C83.46,-178.08 113.53,-140.25 146.5,-116 147.96,-114.92 149.48,-113.88 151.04,-112.86"/>
<polygon fill="#63b8ff" stroke="#63b8ff" points="152.47,-115.49 159.3,-107.39 148.91,-109.46 152.47,-115.49"/>
</g>
<!-- Node18 -->
<g id="node18" class="node">
<title>Node18</title>
<g id="a_node18"><a xlink:href="a01659.html#a9ea67fc1ef0ccc42e1d5388fe0416ae5" target="_top" xlink:title="access specified array element">
<polygon fill="white" stroke="#666666" points="257,-207 146.5,-207 146.5,-175 257,-175 257,-207"/>
<text text-anchor="start" x="154.5" y="-193.5" font-family="Helvetica,sans-Serif" font-size="10.00">nlohmann::basic_json</text>
<text text-anchor="middle" x="201.75" y="-181.5" font-family="Helvetica,sans-Serif" font-size="10.00">::operator[]</text>
</a>
</g>
</g>
<!-- Node1&#45;&gt;Node18 -->
<g id="edge21" class="edge">
<title>Node1&#45;&gt;Node18</title>
<path fill="none" stroke="#63b8ff" d="M110.88,-206.55C118.88,-205.16 127.19,-203.73 135.38,-202.31"/>
<polygon fill="#63b8ff" stroke="#63b8ff" points="135.79,-205.62 145.04,-200.46 134.59,-198.72 135.79,-205.62"/>
</g>
<!-- Node3 -->
<g id="node3" class="node">
<title>Node3</title>
<g id="a_node3"><a xlink:href="a02011.html#a5d5f92c7f6848814bc82cf7e4e541820" target="_top" xlink:title="set the iterator to the first value">
<polygon fill="white" stroke="#666666" points="412.5,-470 305.75,-470 305.75,-438 412.5,-438 412.5,-470"/>
<text text-anchor="start" x="313.75" y="-456.5" font-family="Helvetica,sans-Serif" font-size="10.00">nlohmann::detail::iter</text>
<text text-anchor="middle" x="359.13" y="-444.5" font-family="Helvetica,sans-Serif" font-size="10.00">_impl::set_begin</text>
</a>
</g>
</g>
<!-- Node2&#45;&gt;Node3 -->
<g id="edge2" class="edge">
<title>Node2&#45;&gt;Node3</title>
<path fill="none" stroke="#63b8ff" d="M257.09,-435.14C269.21,-437.4 282.16,-439.82 294.61,-442.14"/>
<polygon fill="#63b8ff" stroke="#63b8ff" points="293.91,-445.76 304.38,-444.16 295.2,-438.88 293.91,-445.76"/>
</g>
<!-- Node4 -->
<g id="node4" class="node">
<title>Node4</title>
<g id="a_node4"><a xlink:href="a02003.html#a9d9b005906106e12aed738f97d7fee42" target="_top" xlink:title="set iterator to a defined beginning">
<polygon fill="white" stroke="#666666" points="593.13,-514 464.63,-514 464.63,-482 593.13,-482 593.13,-514"/>
<text text-anchor="start" x="472.63" y="-500.5" font-family="Helvetica,sans-Serif" font-size="10.00">nlohmann::detail::primitive</text>
<text text-anchor="middle" x="528.88" y="-488.5" font-family="Helvetica,sans-Serif" font-size="10.00">_iterator_t::set_begin</text>
</a>
</g>
</g>
<!-- Node3&#45;&gt;Node4 -->
<g id="edge3" class="edge">
<title>Node3&#45;&gt;Node4</title>
<path fill="none" stroke="#63b8ff" d="M412.74,-467.8C426.12,-471.31 440.73,-475.14 454.92,-478.86"/>
<polygon fill="#63b8ff" stroke="#63b8ff" points="453.59,-482.4 464.15,-481.55 455.37,-475.63 453.59,-482.4"/>
</g>
<!-- Node5 -->
<g id="node5" class="node">
<title>Node5</title>
<g id="a_node5"><a xlink:href="a02003.html#ad26a823483846a12d890c3feed3097eb" target="_top" xlink:title="set iterator to a defined past the end">
<polygon fill="white" stroke="#666666" points="761,-448 632.5,-448 632.5,-416 761,-416 761,-448"/>
<text text-anchor="start" x="640.5" y="-434.5" font-family="Helvetica,sans-Serif" font-size="10.00">nlohmann::detail::primitive</text>
<text text-anchor="middle" x="696.75" y="-422.5" font-family="Helvetica,sans-Serif" font-size="10.00">_iterator_t::set_end</text>
</a>
</g>
</g>
<!-- Node3&#45;&gt;Node5 -->
<g id="edge4" class="edge">
<title>Node3&#45;&gt;Node5</title>
<path fill="none" stroke="#63b8ff" d="M412.94,-450.54C469.04,-446.86 558.19,-441.02 621.38,-436.87"/>
<polygon fill="#63b8ff" stroke="#63b8ff" points="621.33,-440.32 631.08,-436.17 620.87,-433.34 621.33,-440.32"/>
</g>
<!-- Node7 -->
<g id="node7" class="node">
<title>Node7</title>
<g id="a_node7"><a xlink:href="a02011.html#a23e50ad4c13aa62d9ac7f60a123823ee" target="_top" xlink:title="set the iterator past the last value">
<polygon fill="white" stroke="#666666" points="582.25,-426 475.5,-426 475.5,-394 582.25,-394 582.25,-426"/>
<text text-anchor="start" x="483.5" y="-412.5" font-family="Helvetica,sans-Serif" font-size="10.00">nlohmann::detail::iter</text>
<text text-anchor="middle" x="528.88" y="-400.5" font-family="Helvetica,sans-Serif" font-size="10.00">_impl::set_end</text>
</a>
</g>
</g>
<!-- Node6&#45;&gt;Node7 -->
<g id="edge6" class="edge">
<title>Node6&#45;&gt;Node7</title>
<path fill="none" stroke="#63b8ff" d="M425.46,-410C438.2,-410 451.53,-410 464.22,-410"/>
<polygon fill="#63b8ff" stroke="#63b8ff" points="464.16,-413.5 474.16,-410 464.16,-406.5 464.16,-413.5"/>
</g>
<!-- Node7&#45;&gt;Node5 -->
<g id="edge7" class="edge">
<title>Node7&#45;&gt;Node5</title>
<path fill="none" stroke="#63b8ff" d="M582.36,-416.96C594.87,-418.62 608.45,-420.42 621.72,-422.18"/>
<polygon fill="#63b8ff" stroke="#63b8ff" points="620.9,-425.74 631.27,-423.58 621.82,-418.8 620.9,-425.74"/>
</g>
<!-- Node8&#45;&gt;Node6 -->
<g id="edge14" class="edge">
<title>Node8&#45;&gt;Node6</title>
<path fill="none" stroke="#63b8ff" d="M212.99,-269.31C235.4,-304.91 287.25,-386.74 293,-391 294.88,-392.4 296.87,-393.69 298.93,-394.89"/>
<polygon fill="#63b8ff" stroke="#63b8ff" points="296.83,-398.25 307.34,-399.56 299.94,-391.98 296.83,-398.25"/>
</g>
<!-- Node9 -->
<g id="node9" class="node">
<title>Node9</title>
<g id="a_node9"><a xlink:href="a01659.html#aa7e7b1bdb6e9dbcfa5e284e8a2fb6464" target="_top" xlink:title="checks the class invariants">
<polygon fill="white" stroke="#666666" points="414.38,-232 303.88,-232 303.88,-200 414.38,-200 414.38,-232"/>
<text text-anchor="start" x="311.88" y="-218.5" font-family="Helvetica,sans-Serif" font-size="10.00">nlohmann::basic_json</text>
<text text-anchor="middle" x="359.13" y="-206.5" font-family="Helvetica,sans-Serif" font-size="10.00">::assert_invariant</text>
</a>
</g>
</g>
<!-- Node8&#45;&gt;Node9 -->
<g id="edge9" class="edge">
<title>Node8&#45;&gt;Node9</title>
<path fill="none" stroke="#63b8ff" d="M257.09,-240.06C268.73,-237.29 281.15,-234.33 293.14,-231.47"/>
<polygon fill="#63b8ff" stroke="#63b8ff" points="293.63,-234.72 302.55,-229 292.01,-227.91 293.63,-234.72"/>
</g>
<!-- Node10 -->
<g id="node10" class="node">
<title>Node10</title>
<g id="a_node10"><a xlink:href="a01567.html#a4e849260a3caa1b288c7e619130c6c09" target="_top" xlink:title=" ">
<polygon fill="white" stroke="#666666" points="418.88,-382 299.38,-382 299.38,-350 418.88,-350 418.88,-382"/>
<text text-anchor="start" x="307.38" y="-368.5" font-family="Helvetica,sans-Serif" font-size="10.00">nlohmann::detail::invalid</text>
<text text-anchor="middle" x="359.13" y="-356.5" font-family="Helvetica,sans-Serif" font-size="10.00">_iterator::create</text>
</a>
</g>
</g>
<!-- Node8&#45;&gt;Node10 -->
<g id="edge10" class="edge">
<title>Node8&#45;&gt;Node10</title>
<path fill="none" stroke="#63b8ff" d="M215.86,-269.33C232.15,-288.71 261.67,-320.94 293,-341 294.99,-342.27 297.05,-343.5 299.17,-344.67"/>
<polygon fill="#63b8ff" stroke="#63b8ff" points="297.2,-348.11 307.7,-349.52 300.37,-341.87 297.2,-348.11"/>
</g>
<!-- Node12 -->
<g id="node12" class="node">
<title>Node12</title>
<g id="a_node12"><a xlink:href="a01571.html#aecc083aea4b698c33d042670ba50c10f" target="_top" xlink:title=" ">
<polygon fill="white" stroke="#666666" points="415.13,-182 303.13,-182 303.13,-150 415.13,-150 415.13,-182"/>
<text text-anchor="start" x="311.13" y="-168.5" font-family="Helvetica,sans-Serif" font-size="10.00">nlohmann::detail::type</text>
<text text-anchor="middle" x="359.13" y="-156.5" font-family="Helvetica,sans-Serif" font-size="10.00">_error::create</text>
</a>
</g>
</g>
<!-- Node8&#45;&gt;Node12 -->
<g id="edge12" class="edge">
<title>Node8&#45;&gt;Node12</title>
<path fill="none" stroke="#63b8ff" d="M226.82,-236.65C236.24,-230.23 247.14,-222.79 257,-216 273.05,-204.96 275.78,-200.11 293,-191 295.71,-189.57 298.52,-188.17 301.38,-186.82"/>
<polygon fill="#63b8ff" stroke="#63b8ff" points="302.56,-189.69 310.27,-182.42 299.71,-183.29 302.56,-189.69"/>
</g>
<!-- Node13 -->
<g id="node13" class="node">
<title>Node13</title>
<g id="a_node13"><a xlink:href="a01659.html#a9576224f7b3ff812a308e7c1e784ea80" target="_top" xlink:title="return whether value is a binary array">
<polygon fill="white" stroke="#666666" points="414.38,-332 303.88,-332 303.88,-300 414.38,-300 414.38,-332"/>
<text text-anchor="start" x="311.88" y="-318.5" font-family="Helvetica,sans-Serif" font-size="10.00">nlohmann::basic_json</text>
<text text-anchor="middle" x="359.13" y="-306.5" font-family="Helvetica,sans-Serif" font-size="10.00">::is_binary</text>
</a>
</g>
</g>
<!-- Node8&#45;&gt;Node13 -->
<g id="edge15" class="edge">
<title>Node8&#45;&gt;Node13</title>
<path fill="none" stroke="#63b8ff" d="M240.84,-269.36C256.9,-276.17 275.81,-284.08 293,-291 296.7,-292.49 300.53,-294.01 304.39,-295.53"/>
<polygon fill="#63b8ff" stroke="#63b8ff" points="303.02,-299.14 313.61,-299.52 305.57,-292.62 303.02,-299.14"/>
</g>
<!-- Node14 -->
<g id="node14" class="node">
<title>Node14</title>
<g id="a_node14"><a xlink:href="a01659.html#ab303d17366c26fca12242c7f8def1bb7" target="_top" xlink:title="return whether value is a string">
<polygon fill="white" stroke="#666666" points="414.38,-282 303.88,-282 303.88,-250 414.38,-250 414.38,-282"/>
<text text-anchor="start" x="311.88" y="-268.5" font-family="Helvetica,sans-Serif" font-size="10.00">nlohmann::basic_json</text>
<text text-anchor="middle" x="359.13" y="-256.5" font-family="Helvetica,sans-Serif" font-size="10.00">::is_string</text>
</a>
</g>
</g>
<!-- Node8&#45;&gt;Node14 -->
<g id="edge16" class="edge">
<title>Node8&#45;&gt;Node14</title>
<path fill="none" stroke="#63b8ff" d="M257.09,-257.55C268.62,-258.51 280.9,-259.54 292.78,-260.53"/>
<polygon fill="#63b8ff" stroke="#63b8ff" points="292.29,-264.09 302.55,-261.43 292.88,-257.11 292.29,-264.09"/>
</g>
<!-- Node15 -->
<g id="node15" class="node">
<title>Node15</title>
<g id="a_node15"><a xlink:href="a01659.html#ab8811fc4eab6091b32b34b3ac3e90474" target="_top" xlink:title="return the type as string">
<polygon fill="white" stroke="#666666" points="414.38,-132 303.88,-132 303.88,-100 414.38,-100 414.38,-132"/>
<text text-anchor="start" x="311.88" y="-118.5" font-family="Helvetica,sans-Serif" font-size="10.00">nlohmann::basic_json</text>
<text text-anchor="middle" x="359.13" y="-106.5" font-family="Helvetica,sans-Serif" font-size="10.00">::type_name</text>
</a>
</g>
</g>
<!-- Node8&#45;&gt;Node15 -->
<g id="edge17" class="edge">
<title>Node8&#45;&gt;Node15</title>
<path fill="none" stroke="#63b8ff" d="M232.88,-236.51C241.43,-230.82 250.24,-223.87 257,-216 281.1,-187.96 265.82,-166.07 293,-141 294,-140.08 295.04,-139.19 296.11,-138.33"/>
<polygon fill="#63b8ff" stroke="#63b8ff" points="297.59,-140.87 303.88,-132.35 293.65,-135.09 297.59,-140.87"/>
</g>
<!-- Node11 -->
<g id="node11" class="node">
<title>Node11</title>
<g id="a_node11"><a xlink:href="a01559.html#abf41a7e9178356314082284e6cfea278" target="_top" xlink:title=" ">
<polygon fill="white" stroke="#666666" points="596.5,-279 461.25,-279 461.25,-247 596.5,-247 596.5,-279"/>
<text text-anchor="start" x="469.25" y="-265.5" font-family="Helvetica,sans-Serif" font-size="10.00">nlohmann::detail::exception</text>
<text text-anchor="middle" x="528.88" y="-253.5" font-family="Helvetica,sans-Serif" font-size="10.00">::name</text>
</a>
</g>
</g>
<!-- Node10&#45;&gt;Node11 -->
<g id="edge11" class="edge">
<title>Node10&#45;&gt;Node11</title>
<path fill="none" stroke="#63b8ff" d="M407.8,-349.51C413.79,-346.92 419.75,-344.06 425.25,-341 453.01,-325.54 481.55,-303.23 501.46,-286.43"/>
<polygon fill="#63b8ff" stroke="#63b8ff" points="503.38,-288.54 508.7,-279.37 498.83,-283.22 503.38,-288.54"/>
</g>
<!-- Node12&#45;&gt;Node11 -->
<g id="edge13" class="edge">
<title>Node12&#45;&gt;Node11</title>
<path fill="none" stroke="#63b8ff" d="M407,-182.39C413.24,-185.04 419.48,-187.93 425.25,-191 451.57,-205.01 479.12,-224.65 499.03,-239.88"/>
<polygon fill="#63b8ff" stroke="#63b8ff" points="496.57,-243.17 506.62,-246.53 500.86,-237.64 496.57,-243.17"/>
</g>
<!-- Node18&#45;&gt;Node9 -->
<g id="edge22" class="edge">
<title>Node18&#45;&gt;Node9</title>
<path fill="none" stroke="#63b8ff" d="M257.09,-199.74C268.62,-201.6 280.9,-203.57 292.78,-205.49"/>
<polygon fill="#63b8ff" stroke="#63b8ff" points="292.12,-209.09 302.55,-207.22 293.23,-202.17 292.12,-209.09"/>
</g>
<!-- Node18&#45;&gt;Node12 -->
<g id="edge23" class="edge">
<title>Node18&#45;&gt;Node12</title>
<path fill="none" stroke="#63b8ff" d="M257.09,-182.26C268.42,-180.43 280.47,-178.5 292.16,-176.61"/>
<polygon fill="#63b8ff" stroke="#63b8ff" points="292.44,-179.95 301.76,-174.91 291.33,-173.04 292.44,-179.95"/>
</g>
<!-- Node18&#45;&gt;Node15 -->
<g id="edge26" class="edge">
<title>Node18&#45;&gt;Node15</title>
<path fill="none" stroke="#63b8ff" d="M240.54,-174.63C246.14,-171.9 251.78,-168.99 257,-166 273.91,-156.33 275.78,-150.11 293,-141 295.71,-139.57 298.52,-138.17 301.38,-136.82"/>
<polygon fill="#63b8ff" stroke="#63b8ff" points="302.56,-139.69 310.27,-132.42 299.71,-133.29 302.56,-139.69"/>
</g>
<!-- Node19 -->
<g id="node19" class="node">
<title>Node19</title>
<g id="a_node19"><a xlink:href="a01659.html#ab5b70d60a636b9c5e10f6c8caac60b9e" target="_top" xlink:title="return whether value is an array">
<polygon fill="white" stroke="#666666" points="414.38,-82 303.88,-82 303.88,-50 414.38,-50 414.38,-82"/>
<text text-anchor="start" x="311.88" y="-68.5" font-family="Helvetica,sans-Serif" font-size="10.00">nlohmann::basic_json</text>
<text text-anchor="middle" x="359.13" y="-56.5" font-family="Helvetica,sans-Serif" font-size="10.00">::is_array</text>
</a>
</g>
</g>
<!-- Node18&#45;&gt;Node19 -->
<g id="edge24" class="edge">
<title>Node18&#45;&gt;Node19</title>
<path fill="none" stroke="#63b8ff" d="M246.05,-174.55C250.01,-172.04 253.75,-169.2 257,-166 283.35,-140.06 265.82,-116.07 293,-91 294,-90.08 295.04,-89.19 296.11,-88.33"/>
<polygon fill="#63b8ff" stroke="#63b8ff" points="297.59,-90.87 303.88,-82.35 293.65,-85.09 297.59,-90.87"/>
</g>
<!-- Node20 -->
<g id="node20" class="node">
<title>Node20</title>
<g id="a_node20"><a xlink:href="a01659.html#aedc7afad96292b5ab61a2e0ad3067f5f" target="_top" xlink:title="return whether value is null">
<polygon fill="white" stroke="#666666" points="414.38,-32 303.88,-32 303.88,0 414.38,0 414.38,-32"/>
<text text-anchor="start" x="311.88" y="-18.5" font-family="Helvetica,sans-Serif" font-size="10.00">nlohmann::basic_json</text>
<text text-anchor="middle" x="359.13" y="-6.5" font-family="Helvetica,sans-Serif" font-size="10.00">::is_null</text>
</a>
</g>
</g>
<!-- Node18&#45;&gt;Node20 -->
<g id="edge25" class="edge">
<title>Node18&#45;&gt;Node20</title>
<path fill="none" stroke="#63b8ff" d="M247.41,-174.54C250.95,-172.06 254.23,-169.23 257,-166 294.67,-122.14 253.92,-83.6 293,-41 293.68,-40.26 294.39,-39.54 295.11,-38.84"/>
<polygon fill="#63b8ff" stroke="#63b8ff" points="296.95,-41.06 302.65,-32.13 292.62,-35.56 296.95,-41.06"/>
</g>
</g>
</svg>
