<?xml version="1.0" encoding="UTF-8" standalone="no"?>
<!DOCTYPE svg PUBLIC "-//W3C//DTD SVG 1.1//EN"
 "http://www.w3.org/Graphics/SVG/1.1/DTD/svg11.dtd">
<!-- Generated by graphviz version 2.43.0 (0)
 -->
<!-- Title: nlohmann::basic_json::is_primitive Pages: 1 -->
<svg width="446pt" height="235pt"
 viewBox="0.00 0.00 446.00 235.00" xmlns="http://www.w3.org/2000/svg" xmlns:xlink="http://www.w3.org/1999/xlink">
<g id="graph0" class="graph" transform="scale(1 1) rotate(0) translate(4 231)">
<title>nlohmann::basic_json::is_primitive</title>
<polygon fill="white" stroke="transparent" points="-4,4 -4,-231 442,-231 442,4 -4,4"/>
<!-- Node1 -->
<g id="node1" class="node">
<title>Node1</title>
<g id="a_node1"><a xlink:title="return whether type is primitive">
<polygon fill="#bfbfbf" stroke="black" points="0,-98.5 0,-128.5 122,-128.5 122,-98.5 0,-98.5"/>
<text text-anchor="start" x="8" y="-116.5" font-family="Helvetica,sans-Serif" font-size="10.00">nlohmann::basic_json</text>
<text text-anchor="middle" x="61" y="-105.5" font-family="Helvetica,sans-Serif" font-size="10.00">::is_primitive</text>
</a>
</g>
</g>
<!-- Node2 -->
<g id="node2" class="node">
<title>Node2</title>
<g id="a_node2"><a xlink:href="a01605.html#af0623f174dc806b5c17b87a485febf68" target="_top" xlink:title="return whether value is a binary array">
<polygon fill="white" stroke="black" points="158,-196.5 158,-226.5 280,-226.5 280,-196.5 158,-196.5"/>
<text text-anchor="start" x="166" y="-214.5" font-family="Helvetica,sans-Serif" font-size="10.00">nlohmann::basic_json</text>
<text text-anchor="middle" x="219" y="-203.5" font-family="Helvetica,sans-Serif" font-size="10.00">::is_binary</text>
</a>
</g>
</g>
<!-- Node1&#45;&gt;Node2 -->
<g id="edge1" class="edge">
<title>Node1&#45;&gt;Node2</title>
<path fill="none" stroke="midnightblue" d="M78.67,-128.67C97.06,-144.84 128.03,-170.39 158,-187.5 160.83,-189.11 163.78,-190.67 166.8,-192.16"/>
<polygon fill="midnightblue" stroke="midnightblue" points="165.44,-195.39 175.99,-196.43 168.39,-189.04 165.44,-195.39"/>
</g>
<!-- Node3 -->
<g id="node3" class="node">
<title>Node3</title>
<g id="a_node3"><a xlink:href="a01605.html#a0bd23e6f679145905a78020c07547559" target="_top" xlink:title="return whether value is a boolean">
<polygon fill="white" stroke="black" points="158,-147.5 158,-177.5 280,-177.5 280,-147.5 158,-147.5"/>
<text text-anchor="start" x="166" y="-165.5" font-family="Helvetica,sans-Serif" font-size="10.00">nlohmann::basic_json</text>
<text text-anchor="middle" x="219" y="-154.5" font-family="Helvetica,sans-Serif" font-size="10.00">::is_boolean</text>
</a>
</g>
</g>
<!-- Node1&#45;&gt;Node3 -->
<g id="edge2" class="edge">
<title>Node1&#45;&gt;Node3</title>
<path fill="none" stroke="midnightblue" d="M110.08,-128.6C126.02,-133.61 143.92,-139.23 160.5,-144.44"/>
<polygon fill="midnightblue" stroke="midnightblue" points="159.49,-147.79 170.08,-147.45 161.59,-141.11 159.49,-147.79"/>
</g>
<!-- Node4 -->
<g id="node4" class="node">
<title>Node4</title>
<g id="a_node4"><a xlink:href="a01605.html#afe9a6fe72337a174cfb117a2081d2cfc" target="_top" xlink:title="return whether value is null">
<polygon fill="white" stroke="black" points="158,-98.5 158,-128.5 280,-128.5 280,-98.5 158,-98.5"/>
<text text-anchor="start" x="166" y="-116.5" font-family="Helvetica,sans-Serif" font-size="10.00">nlohmann::basic_json</text>
<text text-anchor="middle" x="219" y="-105.5" font-family="Helvetica,sans-Serif" font-size="10.00">::is_null</text>
</a>
</g>
</g>
<!-- Node1&#45;&gt;Node4 -->
<g id="edge3" class="edge">
<title>Node1&#45;&gt;Node4</title>
<path fill="none" stroke="midnightblue" d="M122.31,-113.5C130.6,-113.5 139.17,-113.5 147.63,-113.5"/>
<polygon fill="midnightblue" stroke="midnightblue" points="147.85,-117 157.85,-113.5 147.85,-110 147.85,-117"/>
</g>
<!-- Node5 -->
<g id="node5" class="node">
<title>Node5</title>
<g id="a_node5"><a xlink:href="a01605.html#a5d5f20be10c6f6d263557def2ac504a3" target="_top" xlink:title="return whether value is a number">
<polygon fill="white" stroke="black" points="158,-49.5 158,-79.5 280,-79.5 280,-49.5 158,-49.5"/>
<text text-anchor="start" x="166" y="-67.5" font-family="Helvetica,sans-Serif" font-size="10.00">nlohmann::basic_json</text>
<text text-anchor="middle" x="219" y="-56.5" font-family="Helvetica,sans-Serif" font-size="10.00">::is_number</text>
</a>
</g>
</g>
<!-- Node1&#45;&gt;Node5 -->
<g id="edge4" class="edge">
<title>Node1&#45;&gt;Node5</title>
<path fill="none" stroke="midnightblue" d="M110.08,-98.4C126.02,-93.39 143.92,-87.77 160.5,-82.56"/>
<polygon fill="midnightblue" stroke="midnightblue" points="161.59,-85.89 170.08,-79.55 159.49,-79.21 161.59,-85.89"/>
</g>
<!-- Node8 -->
<g id="node8" class="node">
<title>Node8</title>
<g id="a_node8"><a xlink:href="a01605.html#ae958b0bc067c82850145299711d8bcd5" target="_top" xlink:title="return whether value is a string">
<polygon fill="white" stroke="black" points="158,-0.5 158,-30.5 280,-30.5 280,-0.5 158,-0.5"/>
<text text-anchor="start" x="166" y="-18.5" font-family="Helvetica,sans-Serif" font-size="10.00">nlohmann::basic_json</text>
<text text-anchor="middle" x="219" y="-7.5" font-family="Helvetica,sans-Serif" font-size="10.00">::is_string</text>
</a>
</g>
</g>
<!-- Node1&#45;&gt;Node8 -->
<g id="edge7" class="edge">
<title>Node1&#45;&gt;Node8</title>
<path fill="none" stroke="midnightblue" d="M79.09,-98.34C97.59,-82.47 128.42,-57.53 158,-40.5 161.42,-38.53 165.03,-36.63 168.71,-34.82"/>
<polygon fill="midnightblue" stroke="midnightblue" points="170.36,-37.91 177.94,-30.51 167.39,-31.57 170.36,-37.91"/>
</g>
<!-- Node6 -->
<g id="node6" class="node">
<title>Node6</title>
<g id="a_node6"><a xlink:href="a01605.html#a926df0038ca14568f88a92d0caeba044" target="_top" xlink:title="return whether value is a floating&#45;point number">
<polygon fill="white" stroke="black" points="316,-73.5 316,-103.5 438,-103.5 438,-73.5 316,-73.5"/>
<text text-anchor="start" x="324" y="-91.5" font-family="Helvetica,sans-Serif" font-size="10.00">nlohmann::basic_json</text>
<text text-anchor="middle" x="377" y="-80.5" font-family="Helvetica,sans-Serif" font-size="10.00">::is_number_float</text>
</a>
</g>
</g>
<!-- Node5&#45;&gt;Node6 -->
<g id="edge5" class="edge">
<title>Node5&#45;&gt;Node6</title>
<path fill="none" stroke="midnightblue" d="M280.31,-73.78C288.69,-75.07 297.36,-76.4 305.9,-77.72"/>
<polygon fill="midnightblue" stroke="midnightblue" points="305.43,-81.18 315.85,-79.25 306.5,-74.27 305.43,-81.18"/>
</g>
<!-- Node7 -->
<g id="node7" class="node">
<title>Node7</title>
<g id="a_node7"><a xlink:href="a01605.html#a145005bad4fcab4f8620efec8de019ad" target="_top" xlink:title="return whether value is an integer number">
<polygon fill="white" stroke="black" points="316,-24.5 316,-54.5 438,-54.5 438,-24.5 316,-24.5"/>
<text text-anchor="start" x="324" y="-42.5" font-family="Helvetica,sans-Serif" font-size="10.00">nlohmann::basic_json</text>
<text text-anchor="middle" x="377" y="-31.5" font-family="Helvetica,sans-Serif" font-size="10.00">::is_number_integer</text>
</a>
</g>
</g>
<!-- Node5&#45;&gt;Node7 -->
<g id="edge6" class="edge">
<title>Node5&#45;&gt;Node7</title>
<path fill="none" stroke="midnightblue" d="M280.31,-54.83C288.69,-53.49 297.36,-52.1 305.9,-50.73"/>
<polygon fill="midnightblue" stroke="midnightblue" points="306.53,-54.18 315.85,-49.14 305.42,-47.27 306.53,-54.18"/>
</g>
</g>
</svg>
