<?xml version="1.0" encoding="UTF-8" standalone="no"?>
<!DOCTYPE svg PUBLIC "-//W3C//DTD SVG 1.1//EN"
 "http://www.w3.org/Graphics/SVG/1.1/DTD/svg11.dtd">
<!-- Generated by graphviz version 8.0.5 (20230430.1635)
 -->
<!-- Title: nlohmann::json_pointer::array_index Pages: 1 -->
<svg width="584pt" height="240pt"
 viewBox="0.00 0.00 584.25 240.00" xmlns="http://www.w3.org/2000/svg" xmlns:xlink="http://www.w3.org/1999/xlink">
<g id="graph0" class="graph" transform="scale(1 1) rotate(0) translate(4 236)">
<title>nlohmann::json_pointer::array_index</title>
<!-- Node1 -->
<g id="node1" class="node">
<title>Node1</title>
<g id="a_node1"><a xlink:title=" ">
<polygon fill="#999999" stroke="#666666" points="576.25,-132 459.75,-132 459.75,-100 576.25,-100 576.25,-132"/>
<text text-anchor="start" x="467.75" y="-118.5" font-family="Helvetica,sans-Serif" font-size="10.00">nlohmann::json_pointer</text>
<text text-anchor="middle" x="518" y="-106.5" font-family="Helvetica,sans-Serif" font-size="10.00">::array_index</text>
</a>
</g>
</g>
<!-- Node2 -->
<g id="node2" class="node">
<title>Node2</title>
<g id="a_node2"><a xlink:href="a01663.html#a90d38e45e2d3add52d824bc55da8f772" target="_top" xlink:title=" ">
<polygon fill="white" stroke="#666666" points="423.75,-232 307.25,-232 307.25,-200 423.75,-200 423.75,-232"/>
<text text-anchor="start" x="315.25" y="-218.5" font-family="Helvetica,sans-Serif" font-size="10.00">nlohmann::json_pointer</text>
<text text-anchor="middle" x="365.5" y="-206.5" font-family="Helvetica,sans-Serif" font-size="10.00">::contains</text>
</a>
</g>
</g>
<!-- Node1&#45;&gt;Node2 -->
<g id="edge1" class="edge">
<title>Node1&#45;&gt;Node2</title>
<path fill="none" stroke="#63b8ff" d="M491.75,-139.39C473.73,-155.29 448.41,-176.07 423.75,-191 418.74,-194.03 413.3,-196.9 407.83,-199.53"/>
<polygon fill="#63b8ff" stroke="#63b8ff" points="493.37,-142.74 498.49,-133.47 488.7,-137.53 493.37,-142.74"/>
</g>
<!-- Node4 -->
<g id="node4" class="node">
<title>Node4</title>
<g id="a_node4"><a xlink:href="a01663.html#aa2f86764d08ce1fb82327327e7f9a87d" target="_top" xlink:title="create and return a reference to the pointed to value">
<polygon fill="white" stroke="#666666" points="423.75,-182 307.25,-182 307.25,-150 423.75,-150 423.75,-182"/>
<text text-anchor="start" x="315.25" y="-168.5" font-family="Helvetica,sans-Serif" font-size="10.00">nlohmann::json_pointer</text>
<text text-anchor="middle" x="365.5" y="-156.5" font-family="Helvetica,sans-Serif" font-size="10.00">::get_and_create</text>
</a>
</g>
</g>
<!-- Node1&#45;&gt;Node4 -->
<g id="edge3" class="edge">
<title>Node1&#45;&gt;Node4</title>
<path fill="none" stroke="#63b8ff" d="M457.43,-135.79C443.76,-140.33 429.35,-145.12 416.15,-149.51"/>
<polygon fill="#63b8ff" stroke="#63b8ff" points="458.33,-138.85 466.72,-132.37 456.13,-132.2 458.33,-138.85"/>
</g>
<!-- Node7 -->
<g id="node7" class="node">
<title>Node7</title>
<g id="a_node7"><a xlink:href="a01663.html#ac97f74aff788336b07bc5ecf85598b14" target="_top" xlink:title=" ">
<polygon fill="white" stroke="#666666" points="423.75,-132 307.25,-132 307.25,-100 423.75,-100 423.75,-132"/>
<text text-anchor="start" x="315.25" y="-118.5" font-family="Helvetica,sans-Serif" font-size="10.00">nlohmann::json_pointer</text>
<text text-anchor="middle" x="365.5" y="-106.5" font-family="Helvetica,sans-Serif" font-size="10.00">::get_checked</text>
</a>
</g>
</g>
<!-- Node1&#45;&gt;Node7 -->
<g id="edge6" class="edge">
<title>Node1&#45;&gt;Node7</title>
<path fill="none" stroke="#63b8ff" d="M448.91,-116C440.64,-116 432.26,-116 424.17,-116"/>
<polygon fill="#63b8ff" stroke="#63b8ff" points="448.67,-119.5 458.67,-116 448.67,-112.5 448.67,-119.5"/>
</g>
<!-- Node10 -->
<g id="node10" class="node">
<title>Node10</title>
<g id="a_node10"><a xlink:href="a01663.html#aef65869da8f68d30b30021f3efdc54f8" target="_top" xlink:title="return a reference to the pointed to value">
<polygon fill="white" stroke="#666666" points="423.75,-82 307.25,-82 307.25,-50 423.75,-50 423.75,-82"/>
<text text-anchor="start" x="315.25" y="-68.5" font-family="Helvetica,sans-Serif" font-size="10.00">nlohmann::json_pointer</text>
<text text-anchor="middle" x="365.5" y="-56.5" font-family="Helvetica,sans-Serif" font-size="10.00">::get_unchecked</text>
</a>
</g>
</g>
<!-- Node1&#45;&gt;Node10 -->
<g id="edge9" class="edge">
<title>Node1&#45;&gt;Node10</title>
<path fill="none" stroke="#63b8ff" d="M457.43,-96.21C443.76,-91.67 429.35,-86.88 416.15,-82.49"/>
<polygon fill="#63b8ff" stroke="#63b8ff" points="456.13,-99.8 466.72,-99.63 458.33,-93.15 456.13,-99.8"/>
</g>
<!-- Node12 -->
<g id="node12" class="node">
<title>Node12</title>
<g id="a_node12"><a xlink:href="a01659.html#adcc786998f220a5b3083ee8a37c4553e" target="_top" xlink:title="applies a JSON patch">
<polygon fill="white" stroke="#666666" points="420.75,-32 310.25,-32 310.25,0 420.75,0 420.75,-32"/>
<text text-anchor="start" x="318.25" y="-18.5" font-family="Helvetica,sans-Serif" font-size="10.00">nlohmann::basic_json</text>
<text text-anchor="middle" x="365.5" y="-6.5" font-family="Helvetica,sans-Serif" font-size="10.00">::patch</text>
</a>
</g>
</g>
<!-- Node1&#45;&gt;Node12 -->
<g id="edge11" class="edge">
<title>Node1&#45;&gt;Node12</title>
<path fill="none" stroke="#63b8ff" d="M491.75,-92.61C473.73,-76.71 448.41,-55.93 423.75,-41 418.74,-37.97 413.3,-35.1 407.83,-32.47"/>
<polygon fill="#63b8ff" stroke="#63b8ff" points="488.7,-94.47 498.49,-98.53 493.37,-89.26 488.7,-94.47"/>
</g>
<!-- Node3 -->
<g id="node3" class="node">
<title>Node3</title>
<g id="a_node3"><a xlink:href="a01659.html#adb82c1f34c73486e013da71ae369e597" target="_top" xlink:title="check the existence of an element in a JSON object given a JSON pointer">
<polygon fill="white" stroke="#666666" points="264.13,-232 153.63,-232 153.63,-200 264.13,-200 264.13,-232"/>
<text text-anchor="start" x="161.63" y="-218.5" font-family="Helvetica,sans-Serif" font-size="10.00">nlohmann::basic_json</text>
<text text-anchor="middle" x="208.88" y="-206.5" font-family="Helvetica,sans-Serif" font-size="10.00">::contains</text>
</a>
</g>
</g>
<!-- Node2&#45;&gt;Node3 -->
<g id="edge2" class="edge">
<title>Node2&#45;&gt;Node3</title>
<path fill="none" stroke="#63b8ff" d="M296.02,-216C285.44,-216 274.64,-216 264.42,-216"/>
<polygon fill="#63b8ff" stroke="#63b8ff" points="295.92,-219.5 305.92,-216 295.92,-212.5 295.92,-219.5"/>
</g>
<!-- Node5 -->
<g id="node5" class="node">
<title>Node5</title>
<g id="a_node5"><a xlink:href="a01663.html#a920065221e3c81676c3211c100d024a7" target="_top" xlink:title=" ">
<polygon fill="white" stroke="#666666" points="267.13,-182 150.63,-182 150.63,-150 267.13,-150 267.13,-182"/>
<text text-anchor="start" x="158.63" y="-168.5" font-family="Helvetica,sans-Serif" font-size="10.00">nlohmann::json_pointer</text>
<text text-anchor="middle" x="208.88" y="-156.5" font-family="Helvetica,sans-Serif" font-size="10.00">::unflatten</text>
</a>
</g>
</g>
<!-- Node4&#45;&gt;Node5 -->
<g id="edge4" class="edge">
<title>Node4&#45;&gt;Node5</title>
<path fill="none" stroke="#63b8ff" d="M296.21,-166C286.63,-166 276.86,-166 267.5,-166"/>
<polygon fill="#63b8ff" stroke="#63b8ff" points="295.92,-169.5 305.92,-166 295.92,-162.5 295.92,-169.5"/>
</g>
<!-- Node6 -->
<g id="node6" class="node">
<title>Node6</title>
<g id="a_node6"><a xlink:href="a01659.html#adea158bff8642202420898f6322da479" target="_top" xlink:title="unflatten a previously flattened JSON value">
<polygon fill="white" stroke="#666666" points="110.5,-182 0,-182 0,-150 110.5,-150 110.5,-182"/>
<text text-anchor="start" x="8" y="-168.5" font-family="Helvetica,sans-Serif" font-size="10.00">nlohmann::basic_json</text>
<text text-anchor="middle" x="55.25" y="-156.5" font-family="Helvetica,sans-Serif" font-size="10.00">::unflatten</text>
</a>
</g>
</g>
<!-- Node5&#45;&gt;Node6 -->
<g id="edge5" class="edge">
<title>Node5&#45;&gt;Node6</title>
<path fill="none" stroke="#63b8ff" d="M139.68,-166C129.96,-166 120.06,-166 110.65,-166"/>
<polygon fill="#63b8ff" stroke="#63b8ff" points="139.55,-169.5 149.55,-166 139.55,-162.5 139.55,-169.5"/>
</g>
<!-- Node8 -->
<g id="node8" class="node">
<title>Node8</title>
<g id="a_node8"><a xlink:href="a01659.html#aa014a978f8b6c085db8825faa8dad320" target="_top" xlink:title="access specified element via JSON Pointer">
<polygon fill="white" stroke="#666666" points="271.25,-132 146.5,-132 146.5,-112 271.25,-112 271.25,-132"/>
<text text-anchor="middle" x="208.88" y="-118.5" font-family="Helvetica,sans-Serif" font-size="10.00">nlohmann::basic_json::at</text>
</a>
</g>
</g>
<!-- Node7&#45;&gt;Node8 -->
<g id="edge7" class="edge">
<title>Node7&#45;&gt;Node8</title>
<path fill="none" stroke="#63b8ff" d="M295.99,-118.66C287.88,-118.97 279.65,-119.29 271.65,-119.6"/>
<polygon fill="#63b8ff" stroke="#63b8ff" points="296.07,-122.12 305.92,-118.23 295.8,-115.12 296.07,-122.12"/>
</g>
<!-- Node9 -->
<g id="node9" class="node">
<title>Node9</title>
<g id="a_node9"><a xlink:href="a01659.html#a36bd6765ccd8aeeeb4e49a766ba639df" target="_top" xlink:title="access specified object element via JSON Pointer with default value">
<polygon fill="white" stroke="#666666" points="264.13,-94 153.63,-94 153.63,-62 264.13,-62 264.13,-94"/>
<text text-anchor="start" x="161.63" y="-80.5" font-family="Helvetica,sans-Serif" font-size="10.00">nlohmann::basic_json</text>
<text text-anchor="middle" x="208.88" y="-68.5" font-family="Helvetica,sans-Serif" font-size="10.00">::value</text>
</a>
</g>
</g>
<!-- Node7&#45;&gt;Node9 -->
<g id="edge8" class="edge">
<title>Node7&#45;&gt;Node9</title>
<path fill="none" stroke="#63b8ff" d="M296.35,-99.25C285.67,-96.63 274.75,-93.94 264.42,-91.41"/>
<polygon fill="#63b8ff" stroke="#63b8ff" points="295.38,-102.86 305.92,-101.85 297.05,-96.06 295.38,-102.86"/>
</g>
<!-- Node11 -->
<g id="node11" class="node">
<title>Node11</title>
<g id="a_node11"><a xlink:href="a01659.html#a0d3deaa73b3644b4da3f8ef3172cd8d2" target="_top" xlink:title="access specified element via JSON Pointer">
<polygon fill="white" stroke="#666666" points="264.13,-44 153.63,-44 153.63,-12 264.13,-12 264.13,-44"/>
<text text-anchor="start" x="161.63" y="-30.5" font-family="Helvetica,sans-Serif" font-size="10.00">nlohmann::basic_json</text>
<text text-anchor="middle" x="208.88" y="-18.5" font-family="Helvetica,sans-Serif" font-size="10.00">::operator[]</text>
</a>
</g>
</g>
<!-- Node10&#45;&gt;Node11 -->
<g id="edge10" class="edge">
<title>Node10&#45;&gt;Node11</title>
<path fill="none" stroke="#63b8ff" d="M296.35,-49.25C285.67,-46.63 274.75,-43.94 264.42,-41.41"/>
<polygon fill="#63b8ff" stroke="#63b8ff" points="295.38,-52.86 305.92,-51.85 297.05,-46.06 295.38,-52.86"/>
</g>
</g>
</svg>
