<?xml version="1.0" encoding="UTF-8" standalone="no"?>
<!DOCTYPE svg PUBLIC "-//W3C//DTD SVG 1.1//EN"
 "http://www.w3.org/Graphics/SVG/1.1/DTD/svg11.dtd">
<!-- Generated by graphviz version 8.0.5 (20230430.1635)
 -->
<!-- Title: nlohmann::basic_json::create Pages: 1 -->
<svg width="285pt" height="78pt"
 viewBox="0.00 0.00 284.50 78.00" xmlns="http://www.w3.org/2000/svg" xmlns:xlink="http://www.w3.org/1999/xlink">
<g id="graph0" class="graph" transform="scale(1 1) rotate(0) translate(4 74)">
<title>nlohmann::basic_json::create</title>
<!-- Node1 -->
<g id="node1" class="node">
<title>Node1</title>
<g id="a_node1"><a xlink:title="helper for exception&#45;safe object creation">
<polygon fill="#999999" stroke="#666666" points="110.5,-54 0,-54 0,-22 110.5,-22 110.5,-54"/>
<text text-anchor="start" x="8" y="-40.5" font-family="Helvetica,sans-Serif" font-size="10.00">nlohmann::basic_json</text>
<text text-anchor="middle" x="55.25" y="-28.5" font-family="Helvetica,sans-Serif" font-size="10.00">::create</text>
</a>
</g>
</g>
<!-- Node2 -->
<g id="node2" class="node">
<title>Node2</title>
<g id="a_node2"><a xlink:href="a01659.html#a0c42bdda2432e4027f4b63ef20ae74e6" target="_top" xlink:title="get special&#45;case overload">
<polygon fill="white" stroke="#666666" points="276.5,-70 146.5,-70 146.5,-50 276.5,-50 276.5,-70"/>
<text text-anchor="middle" x="211.5" y="-56.5" font-family="Helvetica,sans-Serif" font-size="10.00">nlohmann::basic_json::get</text>
</a>
</g>
</g>
<!-- Node1&#45;&gt;Node2 -->
<g id="edge1" class="edge">
<title>Node1&#45;&gt;Node2</title>
<path fill="none" stroke="#63b8ff" d="M110.63,-45.76C118.59,-46.89 126.91,-48.08 135.2,-49.26"/>
<polygon fill="#63b8ff" stroke="#63b8ff" points="134.65,-52.86 145.04,-50.81 135.64,-45.93 134.65,-52.86"/>
</g>
<!-- Node3 -->
<g id="node3" class="node">
<title>Node3</title>
<g id="a_node3"><a xlink:href="a01659.html#a9a4df356e05415438fadf8a15e583903" target="_top" xlink:title="explicitly create an object from an initializer list">
<polygon fill="white" stroke="#666666" points="266.75,-32 156.25,-32 156.25,0 266.75,0 266.75,-32"/>
<text text-anchor="start" x="164.25" y="-18.5" font-family="Helvetica,sans-Serif" font-size="10.00">nlohmann::basic_json</text>
<text text-anchor="middle" x="211.5" y="-6.5" font-family="Helvetica,sans-Serif" font-size="10.00">::object</text>
</a>
</g>
</g>
<!-- Node1&#45;&gt;Node3 -->
<g id="edge2" class="edge">
<title>Node1&#45;&gt;Node3</title>
<path fill="none" stroke="#63b8ff" d="M110.63,-30.24C121.74,-28.66 133.54,-26.98 144.99,-25.34"/>
<polygon fill="#63b8ff" stroke="#63b8ff" points="145.42,-28.67 154.83,-23.8 144.43,-21.74 145.42,-28.67"/>
</g>
</g>
</svg>
