<?xml version="1.0" encoding="UTF-8" standalone="no"?>
<!DOCTYPE svg PUBLIC "-//W3C//DTD SVG 1.1//EN"
 "http://www.w3.org/Graphics/SVG/1.1/DTD/svg11.dtd">
<!-- Generated by graphviz version 2.43.0 (0)
 -->
<!-- Title: nlohmann::json_pointer::empty Pages: 1 -->
<svg width="328pt" height="176pt"
 viewBox="0.00 0.00 328.00 175.50" xmlns="http://www.w3.org/2000/svg" xmlns:xlink="http://www.w3.org/1999/xlink">
<g id="graph0" class="graph" transform="scale(1 1) rotate(0) translate(4 171.5)">
<title>nlohmann::json_pointer::empty</title>
<polygon fill="white" stroke="transparent" points="-4,4 -4,-171.5 324,-171.5 324,4 -4,4"/>
<!-- Node1 -->
<g id="node1" class="node">
<title>Node1</title>
<g id="a_node1"><a xlink:title="return whether pointer points to the root document">
<polygon fill="#bfbfbf" stroke="black" points="189,-63 189,-93 320,-93 320,-63 189,-63"/>
<text text-anchor="start" x="197" y="-81" font-family="Helvetica,sans-Serif" font-size="10.00">nlohmann::json_pointer</text>
<text text-anchor="middle" x="254.5" y="-70" font-family="Helvetica,sans-Serif" font-size="10.00">::empty</text>
</a>
</g>
</g>
<!-- Node2 -->
<g id="node2" class="node">
<title>Node2</title>
<g id="a_node2"><a xlink:href="a01609.html#a213bc67c32a30c68ac6bf06f5195d482" target="_top" xlink:title="return last reference token">
<polygon fill="white" stroke="black" points="11,-137 11,-167 142,-167 142,-137 11,-137"/>
<text text-anchor="start" x="19" y="-155" font-family="Helvetica,sans-Serif" font-size="10.00">nlohmann::json_pointer</text>
<text text-anchor="middle" x="76.5" y="-144" font-family="Helvetica,sans-Serif" font-size="10.00">::back</text>
</a>
</g>
</g>
<!-- Node1&#45;&gt;Node2 -->
<g id="edge1" class="edge">
<title>Node1&#45;&gt;Node2</title>
<path fill="none" stroke="midnightblue" d="M216.79,-97.97C198.02,-107.73 174.63,-119.24 153,-128 145.22,-131.15 136.87,-134.16 128.65,-136.92"/>
<polygon fill="midnightblue" stroke="midnightblue" points="218.65,-100.94 225.87,-93.19 215.39,-94.75 218.65,-100.94"/>
</g>
<!-- Node3 -->
<g id="node3" class="node">
<title>Node3</title>
<g id="a_node3"><a xlink:href="a01609.html#afdaacce1edb7145e0434e014f0e8685a" target="_top" xlink:title="returns the parent of this JSON pointer">
<polygon fill="white" stroke="black" points="11,-88 11,-118 142,-118 142,-88 11,-88"/>
<text text-anchor="start" x="19" y="-106" font-family="Helvetica,sans-Serif" font-size="10.00">nlohmann::json_pointer</text>
<text text-anchor="middle" x="76.5" y="-95" font-family="Helvetica,sans-Serif" font-size="10.00">::parent_pointer</text>
</a>
</g>
</g>
<!-- Node1&#45;&gt;Node3 -->
<g id="edge2" class="edge">
<title>Node1&#45;&gt;Node3</title>
<path fill="none" stroke="midnightblue" d="M178.79,-88.61C166.57,-90.35 153.99,-92.14 142.03,-93.83"/>
<polygon fill="midnightblue" stroke="midnightblue" points="179.56,-92.04 188.96,-87.17 178.57,-85.11 179.56,-92.04"/>
</g>
<!-- Node4 -->
<g id="node4" class="node">
<title>Node4</title>
<g id="a_node4"><a xlink:href="a01609.html#a4b1ee4d511ca195bed896a3da47e264c" target="_top" xlink:title="remove last reference token">
<polygon fill="white" stroke="black" points="11,-39 11,-69 142,-69 142,-39 11,-39"/>
<text text-anchor="start" x="19" y="-57" font-family="Helvetica,sans-Serif" font-size="10.00">nlohmann::json_pointer</text>
<text text-anchor="middle" x="76.5" y="-46" font-family="Helvetica,sans-Serif" font-size="10.00">::pop_back</text>
</a>
</g>
</g>
<!-- Node1&#45;&gt;Node4 -->
<g id="edge3" class="edge">
<title>Node1&#45;&gt;Node4</title>
<path fill="none" stroke="midnightblue" d="M178.79,-67.81C166.57,-66.15 153.99,-64.43 142.03,-62.8"/>
<polygon fill="midnightblue" stroke="midnightblue" points="178.58,-71.32 188.96,-69.2 179.53,-64.38 178.58,-71.32"/>
</g>
<!-- Node5 -->
<g id="node5" class="node">
<title>Node5</title>
<g id="a_node5"><a xlink:href="a01609.html#a00eff109d9a0091e42ada9b16b90c8d9" target="_top" xlink:title=" ">
<polygon fill="white" stroke="black" points="0,-0.5 0,-19.5 153,-19.5 153,-0.5 0,-0.5"/>
<text text-anchor="middle" x="76.5" y="-7.5" font-family="Helvetica,sans-Serif" font-size="10.00">nlohmann::json_pointer::top</text>
</a>
</g>
</g>
<!-- Node1&#45;&gt;Node5 -->
<g id="edge4" class="edge">
<title>Node1&#45;&gt;Node5</title>
<path fill="none" stroke="midnightblue" d="M216.47,-58.27C197.8,-48.85 174.58,-37.93 153,-30 142.18,-26.02 130.22,-22.48 119.08,-19.53"/>
<polygon fill="midnightblue" stroke="midnightblue" points="215.02,-61.46 225.52,-62.9 218.21,-55.23 215.02,-61.46"/>
</g>
</g>
</svg>
