<?xml version="1.0" encoding="UTF-8" standalone="no"?>
<!DOCTYPE svg PUBLIC "-//W3C//DTD SVG 1.1//EN"
 "http://www.w3.org/Graphics/SVG/1.1/DTD/svg11.dtd">
<!-- Generated by graphviz version 2.43.0 (0)
 -->
<!-- Title: nlohmann::basic_json::accept Pages: 1 -->
<svg width="296pt" height="88pt"
 viewBox="0.00 0.00 296.00 88.00" xmlns="http://www.w3.org/2000/svg" xmlns:xlink="http://www.w3.org/1999/xlink">
<g id="graph0" class="graph" transform="scale(1 1) rotate(0) translate(4 84)">
<title>nlohmann::basic_json::accept</title>
<polygon fill="white" stroke="transparent" points="-4,4 -4,-84 292,-84 292,4 -4,4"/>
<!-- Node1 -->
<g id="node1" class="node">
<title>Node1</title>
<g id="a_node1"><a xlink:title="check if the input is valid JSON">
<polygon fill="#bfbfbf" stroke="black" points="0,-24.5 0,-54.5 122,-54.5 122,-24.5 0,-24.5"/>
<text text-anchor="start" x="8" y="-42.5" font-family="Helvetica,sans-Serif" font-size="10.00">nlohmann::basic_json</text>
<text text-anchor="middle" x="61" y="-31.5" font-family="Helvetica,sans-Serif" font-size="10.00">::accept</text>
</a>
</g>
</g>
<!-- Node2 -->
<g id="node2" class="node">
<title>Node2</title>
<g id="a_node2"><a xlink:href="a00411.html#ad11a087dbe66eade5af4056aef9600bf" target="_top" xlink:title=" ">
<polygon fill="white" stroke="black" points="158,-49.5 158,-79.5 288,-79.5 288,-49.5 158,-49.5"/>
<text text-anchor="start" x="166" y="-67.5" font-family="Helvetica,sans-Serif" font-size="10.00">nlohmann::detail::input</text>
<text text-anchor="middle" x="223" y="-56.5" font-family="Helvetica,sans-Serif" font-size="10.00">_adapter</text>
</a>
</g>
</g>
<!-- Node1&#45;&gt;Node2 -->
<g id="edge1" class="edge">
<title>Node1&#45;&gt;Node2</title>
<path fill="none" stroke="midnightblue" d="M122.03,-48.88C130.45,-50.19 139.17,-51.56 147.81,-52.91"/>
<polygon fill="midnightblue" stroke="midnightblue" points="147.46,-56.4 157.88,-54.48 148.54,-49.48 147.46,-56.4"/>
</g>
<!-- Node3 -->
<g id="node3" class="node">
<title>Node3</title>
<g id="a_node3"><a xlink:href="a01605.html#af545ce40c8058d7b65b76252034ef48e" target="_top" xlink:title=" ">
<polygon fill="white" stroke="black" points="162,-0.5 162,-30.5 284,-30.5 284,-0.5 162,-0.5"/>
<text text-anchor="start" x="170" y="-18.5" font-family="Helvetica,sans-Serif" font-size="10.00">nlohmann::basic_json</text>
<text text-anchor="middle" x="223" y="-7.5" font-family="Helvetica,sans-Serif" font-size="10.00">::parser</text>
</a>
</g>
</g>
<!-- Node1&#45;&gt;Node3 -->
<g id="edge2" class="edge">
<title>Node1&#45;&gt;Node3</title>
<path fill="none" stroke="midnightblue" d="M122.03,-30.5C131.81,-29.03 142.01,-27.5 152,-26"/>
<polygon fill="midnightblue" stroke="midnightblue" points="152.53,-29.46 161.9,-24.52 151.49,-22.54 152.53,-29.46"/>
</g>
</g>
</svg>
