<?xml version="1.0" encoding="UTF-8" standalone="no"?>
<!DOCTYPE svg PUBLIC "-//W3C//DTD SVG 1.1//EN"
 "http://www.w3.org/Graphics/SVG/1.1/DTD/svg11.dtd">
<!-- Generated by graphviz version 8.0.5 (20230430.1635)
 -->
<!-- Title: nlohmann::basic_json::is_null Pages: 1 -->
<svg width="412pt" height="340pt"
 viewBox="0.00 0.00 411.50 340.00" xmlns="http://www.w3.org/2000/svg" xmlns:xlink="http://www.w3.org/1999/xlink">
<g id="graph0" class="graph" transform="scale(1 1) rotate(0) translate(4 336)">
<title>nlohmann::basic_json::is_null</title>
<!-- Node1 -->
<g id="node1" class="node">
<title>Node1</title>
<g id="a_node1"><a xlink:title="return whether value is null">
<polygon fill="#999999" stroke="#666666" points="403.5,-207 293,-207 293,-175 403.5,-175 403.5,-207"/>
<text text-anchor="start" x="301" y="-193.5" font-family="Helvetica,sans-Serif" font-size="10.00">nlohmann::basic_json</text>
<text text-anchor="middle" x="348.25" y="-181.5" font-family="Helvetica,sans-Serif" font-size="10.00">::is_null</text>
</a>
</g>
</g>
<!-- Node2 -->
<g id="node2" class="node">
<title>Node2</title>
<g id="a_node2"><a xlink:href="a01659.html#af244c096197a233edba4c83200ae66ac" target="_top" xlink:title="add an object to an object if key does not exist">
<polygon fill="white" stroke="#666666" points="257,-332 146.5,-332 146.5,-300 257,-300 257,-332"/>
<text text-anchor="start" x="154.5" y="-318.5" font-family="Helvetica,sans-Serif" font-size="10.00">nlohmann::basic_json</text>
<text text-anchor="middle" x="201.75" y="-306.5" font-family="Helvetica,sans-Serif" font-size="10.00">::emplace</text>
</a>
</g>
</g>
<!-- Node1&#45;&gt;Node2 -->
<g id="edge1" class="edge">
<title>Node1&#45;&gt;Node2</title>
<path fill="none" stroke="#63b8ff" d="M329.22,-216.19C312.47,-238.17 285.85,-269.78 257,-291 252.74,-294.13 248.02,-297.01 243.2,-299.61"/>
<polygon fill="#63b8ff" stroke="#63b8ff" points="332.59,-218.52 335.76,-208.42 326.98,-214.34 332.59,-218.52"/>
</g>
<!-- Node3 -->
<g id="node3" class="node">
<title>Node3</title>
<g id="a_node3"><a xlink:href="a01659.html#a15c0a5db4fb12d49433801bbe6436bfb" target="_top" xlink:title="add an object to an array">
<polygon fill="white" stroke="#666666" points="257,-282 146.5,-282 146.5,-250 257,-250 257,-282"/>
<text text-anchor="start" x="154.5" y="-268.5" font-family="Helvetica,sans-Serif" font-size="10.00">nlohmann::basic_json</text>
<text text-anchor="middle" x="201.75" y="-256.5" font-family="Helvetica,sans-Serif" font-size="10.00">::emplace_back</text>
</a>
</g>
</g>
<!-- Node1&#45;&gt;Node3 -->
<g id="edge2" class="edge">
<title>Node1&#45;&gt;Node3</title>
<path fill="none" stroke="#63b8ff" d="M309.52,-212.72C293.47,-221.74 274.47,-232.15 257,-241 251.36,-243.86 245.32,-246.77 239.4,-249.56"/>
<polygon fill="#63b8ff" stroke="#63b8ff" points="311.11,-215.28 318.09,-207.31 307.66,-209.19 311.11,-215.28"/>
</g>
<!-- Node4 -->
<g id="node4" class="node">
<title>Node4</title>
<g id="a_node4"><a xlink:href="a01659.html#a548d2d4013da24e7d7510d90febc80c4" target="_top" xlink:title="return whether type is primitive">
<polygon fill="white" stroke="#666666" points="257,-232 146.5,-232 146.5,-200 257,-200 257,-232"/>
<text text-anchor="start" x="154.5" y="-218.5" font-family="Helvetica,sans-Serif" font-size="10.00">nlohmann::basic_json</text>
<text text-anchor="middle" x="201.75" y="-206.5" font-family="Helvetica,sans-Serif" font-size="10.00">::is_primitive</text>
</a>
</g>
</g>
<!-- Node1&#45;&gt;Node4 -->
<g id="edge3" class="edge">
<title>Node1&#45;&gt;Node4</title>
<path fill="none" stroke="#63b8ff" d="M281.96,-202.3C273.77,-203.71 265.46,-205.15 257.46,-206.54"/>
<polygon fill="#63b8ff" stroke="#63b8ff" points="282.36,-205.61 291.62,-200.45 281.17,-198.71 282.36,-205.61"/>
</g>
<!-- Node5 -->
<g id="node5" class="node">
<title>Node5</title>
<g id="a_node5"><a xlink:href="a01659.html#a9ea67fc1ef0ccc42e1d5388fe0416ae5" target="_top" xlink:title="access specified array element">
<polygon fill="white" stroke="#666666" points="257,-182 146.5,-182 146.5,-150 257,-150 257,-182"/>
<text text-anchor="start" x="154.5" y="-168.5" font-family="Helvetica,sans-Serif" font-size="10.00">nlohmann::basic_json</text>
<text text-anchor="middle" x="201.75" y="-156.5" font-family="Helvetica,sans-Serif" font-size="10.00">::operator[]</text>
</a>
</g>
</g>
<!-- Node1&#45;&gt;Node5 -->
<g id="edge4" class="edge">
<title>Node1&#45;&gt;Node5</title>
<path fill="none" stroke="#63b8ff" d="M281.96,-179.7C273.77,-178.29 265.46,-176.85 257.46,-175.46"/>
<polygon fill="#63b8ff" stroke="#63b8ff" points="281.17,-183.29 291.62,-181.55 282.36,-176.39 281.17,-183.29"/>
</g>
<!-- Node7 -->
<g id="node7" class="node">
<title>Node7</title>
<g id="a_node7"><a xlink:href="a01659.html#ab9e0253c92736db021840105d374c4c4" target="_top" xlink:title="add an object to an array">
<polygon fill="white" stroke="#666666" points="257,-132 146.5,-132 146.5,-100 257,-100 257,-132"/>
<text text-anchor="start" x="154.5" y="-118.5" font-family="Helvetica,sans-Serif" font-size="10.00">nlohmann::basic_json</text>
<text text-anchor="middle" x="201.75" y="-106.5" font-family="Helvetica,sans-Serif" font-size="10.00">::push_back</text>
</a>
</g>
</g>
<!-- Node1&#45;&gt;Node7 -->
<g id="edge7" class="edge">
<title>Node1&#45;&gt;Node7</title>
<path fill="none" stroke="#63b8ff" d="M309.52,-169.28C293.47,-160.26 274.47,-149.85 257,-141 251.36,-138.14 245.32,-135.23 239.4,-132.44"/>
<polygon fill="#63b8ff" stroke="#63b8ff" points="307.66,-172.81 318.09,-174.69 311.11,-166.72 307.66,-172.81"/>
</g>
<!-- Node12 -->
<g id="node12" class="node">
<title>Node12</title>
<g id="a_node12"><a xlink:href="a01659.html#a377819905d567f6f523dcbc592cb6356" target="_top" xlink:title="updates a JSON object from another object, overwriting existing keys">
<polygon fill="white" stroke="#666666" points="257,-82 146.5,-82 146.5,-50 257,-50 257,-82"/>
<text text-anchor="start" x="154.5" y="-68.5" font-family="Helvetica,sans-Serif" font-size="10.00">nlohmann::basic_json</text>
<text text-anchor="middle" x="201.75" y="-56.5" font-family="Helvetica,sans-Serif" font-size="10.00">::update</text>
</a>
</g>
</g>
<!-- Node1&#45;&gt;Node12 -->
<g id="edge13" class="edge">
<title>Node1&#45;&gt;Node12</title>
<path fill="none" stroke="#63b8ff" d="M329.22,-165.81C312.47,-143.83 285.85,-112.22 257,-91 252.74,-87.87 248.02,-84.99 243.2,-82.39"/>
<polygon fill="#63b8ff" stroke="#63b8ff" points="326.98,-167.66 335.76,-173.58 332.59,-163.48 326.98,-167.66"/>
</g>
<!-- Node6 -->
<g id="node6" class="node">
<title>Node6</title>
<g id="a_node6"><a xlink:href="a01659.html#a844a77cb154752d12118f10af26d54cb" target="_top" xlink:title="applies a JSON Merge Patch">
<polygon fill="white" stroke="#666666" points="110.5,-250 0,-250 0,-218 110.5,-218 110.5,-250"/>
<text text-anchor="start" x="8" y="-236.5" font-family="Helvetica,sans-Serif" font-size="10.00">nlohmann::basic_json</text>
<text text-anchor="middle" x="55.25" y="-224.5" font-family="Helvetica,sans-Serif" font-size="10.00">::merge_patch</text>
</a>
</g>
</g>
<!-- Node5&#45;&gt;Node6 -->
<g id="edge5" class="edge">
<title>Node5&#45;&gt;Node6</title>
<path fill="none" stroke="#63b8ff" d="M154.98,-186.97C152.11,-188.32 149.26,-189.67 146.5,-191 130.37,-198.74 126.63,-201.26 110.5,-209 104.61,-211.83 98.33,-214.78 92.22,-217.62"/>
<polygon fill="#63b8ff" stroke="#63b8ff" points="156.21,-189.79 163.78,-182.38 153.24,-183.45 156.21,-189.79"/>
</g>
<!-- Node6&#45;&gt;Node6 -->
<g id="edge6" class="edge">
<title>Node6&#45;&gt;Node6</title>
<path fill="none" stroke="#63b8ff" d="M80.32,-261.05C76.51,-265.19 68.15,-268 55.25,-268 32.93,-268 24.21,-259.58 29.1,-250.44"/>
<polygon fill="#63b8ff" stroke="#63b8ff" points="83.87,-261.75 81.4,-251.44 76.91,-261.04 83.87,-261.75"/>
</g>
<!-- Node8 -->
<g id="node8" class="node">
<title>Node8</title>
<g id="a_node8"><a xlink:href="a01659.html#a1c1f21327df91a4dd6c5f5a107240385" target="_top" xlink:title="creates a diff as a JSON patch">
<polygon fill="white" stroke="#666666" points="110.5,-182 0,-182 0,-150 110.5,-150 110.5,-182"/>
<text text-anchor="start" x="8" y="-168.5" font-family="Helvetica,sans-Serif" font-size="10.00">nlohmann::basic_json</text>
<text text-anchor="middle" x="55.25" y="-156.5" font-family="Helvetica,sans-Serif" font-size="10.00">::diff</text>
</a>
</g>
</g>
<!-- Node7&#45;&gt;Node8 -->
<g id="edge8" class="edge">
<title>Node7&#45;&gt;Node8</title>
<path fill="none" stroke="#63b8ff" d="M143.12,-135.94C130.03,-140.47 116.28,-145.23 103.67,-149.59"/>
<polygon fill="#63b8ff" stroke="#63b8ff" points="144.13,-138.95 152.44,-132.37 141.84,-132.33 144.13,-138.95"/>
</g>
<!-- Node9 -->
<g id="node9" class="node">
<title>Node9</title>
<g id="a_node9"><a xlink:href="a01659.html#a40226d9c84fcb9cb948ae0c27b842c57" target="_top" xlink:title="add an object to an array">
<polygon fill="white" stroke="#666666" points="110.5,-132 0,-132 0,-100 110.5,-100 110.5,-132"/>
<text text-anchor="start" x="8" y="-118.5" font-family="Helvetica,sans-Serif" font-size="10.00">nlohmann::basic_json</text>
<text text-anchor="middle" x="55.25" y="-106.5" font-family="Helvetica,sans-Serif" font-size="10.00">::operator+=</text>
</a>
</g>
</g>
<!-- Node7&#45;&gt;Node9 -->
<g id="edge10" class="edge">
<title>Node7&#45;&gt;Node9</title>
<path fill="none" stroke="#63b8ff" d="M135.18,-116C127.08,-116 118.87,-116 110.96,-116"/>
<polygon fill="#63b8ff" stroke="#63b8ff" points="135.12,-119.5 145.12,-116 135.12,-112.5 135.12,-119.5"/>
</g>
<!-- Node10 -->
<g id="node10" class="node">
<title>Node10</title>
<g id="a_node10"><a xlink:href="a01659.html#adcc786998f220a5b3083ee8a37c4553e" target="_top" xlink:title="applies a JSON patch">
<polygon fill="white" stroke="#666666" points="110.5,-82 0,-82 0,-50 110.5,-50 110.5,-82"/>
<text text-anchor="start" x="8" y="-68.5" font-family="Helvetica,sans-Serif" font-size="10.00">nlohmann::basic_json</text>
<text text-anchor="middle" x="55.25" y="-56.5" font-family="Helvetica,sans-Serif" font-size="10.00">::patch</text>
</a>
</g>
</g>
<!-- Node7&#45;&gt;Node10 -->
<g id="edge11" class="edge">
<title>Node7&#45;&gt;Node10</title>
<path fill="none" stroke="#63b8ff" d="M143.12,-96.06C130.03,-91.53 116.28,-86.77 103.67,-82.41"/>
<polygon fill="#63b8ff" stroke="#63b8ff" points="141.84,-99.67 152.44,-99.63 144.13,-93.05 141.84,-99.67"/>
</g>
<!-- Node11 -->
<g id="node11" class="node">
<title>Node11</title>
<g id="a_node11"><a xlink:href="a01659.html#a4567cf75f19b1efca090f75d7a8a350a" target="_top" xlink:title="add an object to an object">
<polygon fill="white" stroke="#666666" points="110.5,-32 0,-32 0,0 110.5,0 110.5,-32"/>
<text text-anchor="start" x="8" y="-18.5" font-family="Helvetica,sans-Serif" font-size="10.00">nlohmann::basic_json</text>
<text text-anchor="middle" x="55.25" y="-6.5" font-family="Helvetica,sans-Serif" font-size="10.00">::push_back</text>
</a>
</g>
</g>
<!-- Node7&#45;&gt;Node11 -->
<g id="edge12" class="edge">
<title>Node7&#45;&gt;Node11</title>
<path fill="none" stroke="#63b8ff" d="M150.23,-93.88C148.95,-92.95 147.7,-91.99 146.5,-91 125.37,-73.58 131.63,-58.42 110.5,-41 106.66,-37.83 102.35,-34.98 97.89,-32.42"/>
<polygon fill="#63b8ff" stroke="#63b8ff" points="147.81,-97.12 158.11,-99.58 151.59,-91.23 147.81,-97.12"/>
</g>
<!-- Node8&#45;&gt;Node8 -->
<g id="edge9" class="edge">
<title>Node8&#45;&gt;Node8</title>
<path fill="none" stroke="#63b8ff" d="M80.32,-193.05C76.51,-197.19 68.15,-200 55.25,-200 32.93,-200 24.21,-191.58 29.1,-182.44"/>
<polygon fill="#63b8ff" stroke="#63b8ff" points="83.87,-193.75 81.4,-183.44 76.91,-193.04 83.87,-193.75"/>
</g>
</g>
</svg>
