<?xml version="1.0" encoding="UTF-8" standalone="no"?>
<!DOCTYPE svg PUBLIC "-//W3C//DTD SVG 1.1//EN"
 "http://www.w3.org/Graphics/SVG/1.1/DTD/svg11.dtd">
<!-- Generated by graphviz version 4.0.0 (20220529.0937)
 -->
<!-- Title: nlohmann::detail::has_non_default_from_json&lt; BasicJsonType, T, enable_if_t&lt; !is_basic_json&lt; T &gt;::value &gt; &gt; Pages: 1 -->
<svg width="145pt" height="139pt"
 viewBox="0.00 0.00 145.00 139.00" xmlns="http://www.w3.org/2000/svg" xmlns:xlink="http://www.w3.org/1999/xlink">
<g id="graph0" class="graph" transform="scale(1 1) rotate(0) translate(4 135)">
<title>nlohmann::detail::has_non_default_from_json&lt; BasicJsonType, T, enable_if_t&lt; !is_basic_json&lt; T &gt;::value &gt; &gt;</title>
<polygon fill="white" stroke="transparent" points="-4,4 -4,-135 141,-135 141,4 -4,4"/>
<!-- Node1 -->
<g id="node1" class="node">
<title>Node1</title>
<g id="a_node1"><a xlink:title=" ">
<polygon fill="#bfbfbf" stroke="black" points="0,-0.5 0,-63.5 137,-63.5 137,-0.5 0,-0.5"/>
<text text-anchor="start" x="8" y="-51.5" font-family="Helvetica,sans-Serif" font-size="10.00">nlohmann::detail::has</text>
<text text-anchor="start" x="8" y="-40.5" font-family="Helvetica,sans-Serif" font-size="10.00">_non_default_from_json</text>
<text text-anchor="start" x="8" y="-29.5" font-family="Helvetica,sans-Serif" font-size="10.00">&lt; BasicJsonType, T, enable</text>
<text text-anchor="start" x="8" y="-18.5" font-family="Helvetica,sans-Serif" font-size="10.00">_if_t&lt; !is_basic_json&lt; T &gt;</text>
<text text-anchor="middle" x="68.5" y="-7.5" font-family="Helvetica,sans-Serif" font-size="10.00">::value &gt; &gt;</text>
</a>
</g>
</g>
<!-- Node2 -->
<g id="node2" class="node">
<title>Node2</title>
<g id="a_node2"><a xlink:title=" ">
<polygon fill="white" stroke="black" points="51,-111.5 51,-130.5 86,-130.5 86,-111.5 51,-111.5"/>
<text text-anchor="middle" x="68.5" y="-118.5" font-family="Helvetica,sans-Serif" font-size="10.00">bool</text>
</a>
</g>
</g>
<!-- Node2&#45;&gt;Node1 -->
<g id="edge1" class="edge">
<title>Node2&#45;&gt;Node1</title>
<path fill="none" stroke="#9a32cd" stroke-dasharray="5,2" d="M68.5,-101.22C68.5,-90.23 68.5,-76.08 68.5,-63.52"/>
<polygon fill="#9a32cd" stroke="#9a32cd" points="65,-101.34 68.5,-111.34 72,-101.34 65,-101.34"/>
<text text-anchor="middle" x="81" y="-85" font-family="Helvetica,sans-Serif" font-size="10.00"> value</text>
</g>
</g>
</svg>
