<?xml version="1.0" encoding="UTF-8" standalone="no"?>
<!DOCTYPE svg PUBLIC "-//W3C//DTD SVG 1.1//EN"
 "http://www.w3.org/Graphics/SVG/1.1/DTD/svg11.dtd">
<!-- Generated by graphviz version 4.0.0 (20220529.0937)
 -->
<!-- Title: nlohmann::detail::is_compatible_integer_type&lt; RealIntegerType, CompatibleNumberIntegerType &gt; Pages: 1 -->
<svg width="499pt" height="72pt"
 viewBox="0.00 0.00 499.00 72.00" xmlns="http://www.w3.org/2000/svg" xmlns:xlink="http://www.w3.org/1999/xlink">
<g id="graph0" class="graph" transform="scale(1 1) rotate(0) translate(4 68)">
<title>nlohmann::detail::is_compatible_integer_type&lt; RealIntegerType, CompatibleNumberIntegerType &gt;</title>
<polygon fill="white" stroke="transparent" points="-4,4 -4,-68 495,-68 495,4 -4,4"/>
<!-- Node1 -->
<g id="node1" class="node">
<title>Node1</title>
<g id="a_node1"><a xlink:title=" ">
<polygon fill="#bfbfbf" stroke="black" points="307,-6 307,-58 491,-58 491,-6 307,-6"/>
<text text-anchor="start" x="315" y="-46" font-family="Helvetica,sans-Serif" font-size="10.00">nlohmann::detail::is</text>
<text text-anchor="start" x="315" y="-35" font-family="Helvetica,sans-Serif" font-size="10.00">_compatible_integer_type</text>
<text text-anchor="start" x="315" y="-24" font-family="Helvetica,sans-Serif" font-size="10.00">&lt; RealIntegerType, CompatibleNumber</text>
<text text-anchor="middle" x="399" y="-13" font-family="Helvetica,sans-Serif" font-size="10.00">IntegerType &gt;</text>
</a>
</g>
</g>
<!-- Node2 -->
<g id="node2" class="node">
<title>Node2</title>
<g id="a_node2"><a xlink:href="a01745.html" target="_top" xlink:title=" ">
<polygon fill="white" stroke="black" points="116,-0.5 116,-63.5 271,-63.5 271,-0.5 116,-0.5"/>
<text text-anchor="start" x="124" y="-51.5" font-family="Helvetica,sans-Serif" font-size="10.00">nlohmann::detail::is</text>
<text text-anchor="start" x="124" y="-40.5" font-family="Helvetica,sans-Serif" font-size="10.00">_compatible_integer_type</text>
<text text-anchor="start" x="124" y="-29.5" font-family="Helvetica,sans-Serif" font-size="10.00">_impl&lt; RealIntegerType,</text>
<text text-anchor="start" x="124" y="-18.5" font-family="Helvetica,sans-Serif" font-size="10.00"> CompatibleNumberIntegerType,</text>
<text text-anchor="middle" x="193.5" y="-7.5" font-family="Helvetica,sans-Serif" font-size="10.00"> typename &gt;</text>
</a>
</g>
</g>
<!-- Node2&#45;&gt;Node1 -->
<g id="edge1" class="edge">
<title>Node2&#45;&gt;Node1</title>
<path fill="none" stroke="midnightblue" d="M281.31,-32C289.71,-32 298.25,-32 306.7,-32"/>
<polygon fill="midnightblue" stroke="midnightblue" points="281.14,-28.5 271.14,-32 281.14,-35.5 281.14,-28.5"/>
</g>
<!-- Node3 -->
<g id="node3" class="node">
<title>Node3</title>
<g id="a_node3"><a xlink:title=" ">
<polygon fill="white" stroke="black" points="0,-22.5 0,-41.5 80,-41.5 80,-22.5 0,-22.5"/>
<text text-anchor="middle" x="40" y="-29.5" font-family="Helvetica,sans-Serif" font-size="10.00">std::false_type</text>
</a>
</g>
</g>
<!-- Node3&#45;&gt;Node2 -->
<g id="edge2" class="edge">
<title>Node3&#45;&gt;Node2</title>
<path fill="none" stroke="midnightblue" d="M90.18,-32C98.44,-32 107.18,-32 115.94,-32"/>
<polygon fill="midnightblue" stroke="midnightblue" points="90.02,-28.5 80.02,-32 90.01,-35.5 90.02,-28.5"/>
</g>
</g>
</svg>
