<?xml version="1.0" encoding="UTF-8" standalone="no"?>
<!DOCTYPE svg PUBLIC "-//W3C//DTD SVG 1.1//EN"
 "http://www.w3.org/Graphics/SVG/1.1/DTD/svg11.dtd">
<!-- Generated by graphviz version 4.0.0 (20220529.0937)
 -->
<!-- Title: nlohmann::detail::from_json_fn::operator() Pages: 1 -->
<svg width="752pt" height="88pt"
 viewBox="0.00 0.00 752.00 88.00" xmlns="http://www.w3.org/2000/svg" xmlns:xlink="http://www.w3.org/1999/xlink">
<g id="graph0" class="graph" transform="scale(1 1) rotate(0) translate(4 84)">
<title>nlohmann::detail::from_json_fn::operator()</title>
<polygon fill="white" stroke="transparent" points="-4,4 -4,-84 748,-84 748,4 -4,4"/>
<!-- Node1 -->
<g id="node1" class="node">
<title>Node1</title>
<g id="a_node1"><a xlink:title=" ">
<polygon fill="#bfbfbf" stroke="black" points="0,-24.5 0,-54.5 113,-54.5 113,-24.5 0,-24.5"/>
<text text-anchor="start" x="8" y="-42.5" font-family="Helvetica,sans-Serif" font-size="10.00">nlohmann::detail::from</text>
<text text-anchor="middle" x="56.5" y="-31.5" font-family="Helvetica,sans-Serif" font-size="10.00">_json_fn::operator()</text>
</a>
</g>
</g>
<!-- Node2 -->
<g id="node2" class="node">
<title>Node2</title>
<g id="a_node2"><a xlink:href="a00411.html#a1f0395aad0fe853a4539288749d3a603" target="_top" xlink:title=" ">
<polygon fill="white" stroke="black" points="149,-30 149,-49 285,-49 285,-30 149,-30"/>
<text text-anchor="middle" x="217" y="-37" font-family="Helvetica,sans-Serif" font-size="10.00">nlohmann::detail::from_json</text>
</a>
</g>
</g>
<!-- Node1&#45;&gt;Node2 -->
<g id="edge1" class="edge">
<title>Node1&#45;&gt;Node2</title>
<path fill="none" stroke="midnightblue" d="M113.38,-39.5C121.64,-39.5 130.28,-39.5 138.88,-39.5"/>
<polygon fill="midnightblue" stroke="midnightblue" points="138.94,-43 148.94,-39.5 138.94,-36 138.94,-43"/>
</g>
<!-- Node3 -->
<g id="node3" class="node">
<title>Node3</title>
<g id="a_node3"><a xlink:href="a01505.html#aecc083aea4b698c33d042670ba50c10f" target="_top" xlink:title=" ">
<polygon fill="white" stroke="black" points="321,-24.5 321,-54.5 434,-54.5 434,-24.5 321,-24.5"/>
<text text-anchor="start" x="329" y="-42.5" font-family="Helvetica,sans-Serif" font-size="10.00">nlohmann::detail::type</text>
<text text-anchor="middle" x="377.5" y="-31.5" font-family="Helvetica,sans-Serif" font-size="10.00">_error::create</text>
</a>
</g>
</g>
<!-- Node2&#45;&gt;Node3 -->
<g id="edge2" class="edge">
<title>Node2&#45;&gt;Node3</title>
<path fill="none" stroke="midnightblue" d="M285.22,-39.5C293.62,-39.5 302.2,-39.5 310.58,-39.5"/>
<polygon fill="midnightblue" stroke="midnightblue" points="310.67,-43 320.67,-39.5 310.67,-36 310.67,-43"/>
</g>
<!-- Node4 -->
<g id="node4" class="node">
<title>Node4</title>
<g id="a_node4"><a xlink:href="a01505.html#aa01edaa0bf18b853368f0b900e485cd7" target="_top" xlink:title=" ">
<polygon fill="white" stroke="black" points="481.5,-49.5 481.5,-79.5 594.5,-79.5 594.5,-49.5 481.5,-49.5"/>
<text text-anchor="start" x="489.5" y="-67.5" font-family="Helvetica,sans-Serif" font-size="10.00">nlohmann::detail::type</text>
<text text-anchor="middle" x="538" y="-56.5" font-family="Helvetica,sans-Serif" font-size="10.00">_error::type_error</text>
</a>
</g>
</g>
<!-- Node3&#45;&gt;Node4 -->
<g id="edge3" class="edge">
<title>Node3&#45;&gt;Node4</title>
<path fill="none" stroke="midnightblue" d="M434.38,-48.31C446.29,-50.19 458.97,-52.19 471.21,-54.12"/>
<polygon fill="midnightblue" stroke="midnightblue" points="470.93,-57.62 481.36,-55.72 472.02,-50.71 470.93,-57.62"/>
</g>
<!-- Node5 -->
<g id="node5" class="node">
<title>Node5</title>
<g id="a_node5"><a xlink:href="a01493.html#abf41a7e9178356314082284e6cfea278" target="_top" xlink:title=" ">
<polygon fill="white" stroke="black" points="470,-0.5 470,-30.5 606,-30.5 606,-0.5 470,-0.5"/>
<text text-anchor="start" x="478" y="-18.5" font-family="Helvetica,sans-Serif" font-size="10.00">nlohmann::detail::exception</text>
<text text-anchor="middle" x="538" y="-7.5" font-family="Helvetica,sans-Serif" font-size="10.00">::name</text>
</a>
</g>
</g>
<!-- Node3&#45;&gt;Node5 -->
<g id="edge4" class="edge">
<title>Node3&#45;&gt;Node5</title>
<path fill="none" stroke="midnightblue" d="M434.38,-31.04C442.64,-29.79 451.28,-28.48 459.88,-27.18"/>
<polygon fill="midnightblue" stroke="midnightblue" points="460.58,-30.61 469.94,-25.65 459.53,-23.69 460.58,-30.61"/>
</g>
<!-- Node6 -->
<g id="node6" class="node">
<title>Node6</title>
<g id="a_node6"><a xlink:href="a00410.html#a6ce645a0b8717757e096a5b5773b7a16" target="_top" xlink:title="user&#45;defined to_string function for JSON values">
<polygon fill="white" stroke="black" points="642,-6 642,-25 744,-25 744,-6 642,-6"/>
<text text-anchor="middle" x="693" y="-13" font-family="Helvetica,sans-Serif" font-size="10.00">nlohmann::to_string</text>
</a>
</g>
</g>
<!-- Node5&#45;&gt;Node6 -->
<g id="edge5" class="edge">
<title>Node5&#45;&gt;Node6</title>
<path fill="none" stroke="midnightblue" d="M606.11,-15.5C614.67,-15.5 623.39,-15.5 631.84,-15.5"/>
<polygon fill="midnightblue" stroke="midnightblue" points="631.97,-19 641.97,-15.5 631.97,-12 631.97,-19"/>
</g>
</g>
</svg>
