<?xml version="1.0" encoding="UTF-8" standalone="no"?>
<!DOCTYPE svg PUBLIC "-//W3C//DTD SVG 1.1//EN"
 "http://www.w3.org/Graphics/SVG/1.1/DTD/svg11.dtd">
<!-- Generated by graphviz version 5.0.0 (20220707.1540)
 -->
<!-- Title: nlohmann::detail::iteration_proxy_value&lt; IteratorType &gt; Pages: 1 -->
<svg width="350pt" height="117pt"
 viewBox="0.00 0.00 350.00 117.00" xmlns="http://www.w3.org/2000/svg" xmlns:xlink="http://www.w3.org/1999/xlink">
<g id="graph0" class="graph" transform="scale(1 1) rotate(0) translate(4 113)">
<title>nlohmann::detail::iteration_proxy_value&lt; IteratorType &gt;</title>
<polygon fill="white" stroke="transparent" points="-4,4 -4,-113 346,-113 346,4 -4,4"/>
<!-- Node1 -->
<g id="node1" class="node">
<title>Node1</title>
<g id="a_node1"><a xlink:title=" ">
<polygon fill="#bfbfbf" stroke="black" points="84,-0.5 84,-30.5 226,-30.5 226,-0.5 84,-0.5"/>
<text text-anchor="start" x="92" y="-18.5" font-family="Helvetica,sans-Serif" font-size="10.00">nlohmann::detail::iteration</text>
<text text-anchor="middle" x="155" y="-7.5" font-family="Helvetica,sans-Serif" font-size="10.00">_proxy_value&lt; IteratorType &gt;</text>
</a>
</g>
</g>
<!-- Node2 -->
<g id="node2" class="node">
<title>Node2</title>
<g id="a_node2"><a xlink:title=" ">
<polygon fill="white" stroke="black" points="0,-89.5 0,-108.5 68,-108.5 68,-89.5 0,-89.5"/>
<text text-anchor="middle" x="34" y="-96.5" font-family="Helvetica,sans-Serif" font-size="10.00">IteratorType</text>
</a>
</g>
</g>
<!-- Node2&#45;&gt;Node1 -->
<g id="edge1" class="edge">
<title>Node2&#45;&gt;Node1</title>
<path fill="none" stroke="#9a32cd" stroke-dasharray="5,2" d="M42.45,-80.14C48.13,-69.81 56.49,-57.26 67,-49 76.86,-41.25 88.75,-35.23 100.56,-30.58"/>
<polygon fill="#9a32cd" stroke="#9a32cd" points="39.28,-78.66 37.85,-89.16 45.51,-81.84 39.28,-78.66"/>
<text text-anchor="middle" x="83.5" y="-57.5" font-family="Helvetica,sans-Serif" font-size="10.00"> anchor</text>
</g>
<!-- Node3 -->
<g id="node3" class="node">
<title>Node3</title>
<g id="a_node3"><a xlink:title=" ">
<polygon fill="white" stroke="black" points="86.5,-89.5 86.5,-108.5 129.5,-108.5 129.5,-89.5 86.5,-89.5"/>
<text text-anchor="middle" x="108" y="-96.5" font-family="Helvetica,sans-Serif" font-size="10.00">size_t</text>
</a>
</g>
</g>
<!-- Node3&#45;&gt;Node1 -->
<g id="edge2" class="edge">
<title>Node3&#45;&gt;Node1</title>
<path fill="none" stroke="#9a32cd" stroke-dasharray="5,2" d="M104.54,-79.36C103.68,-69.76 104.12,-58.18 109,-49 112.94,-41.57 119.43,-35.47 126.3,-30.63"/>
<polygon fill="#9a32cd" stroke="#9a32cd" points="101.1,-80.04 105.97,-89.45 108.03,-79.06 101.1,-80.04"/>
<text text-anchor="middle" x="145" y="-63" font-family="Helvetica,sans-Serif" font-size="10.00"> array_index</text>
<text text-anchor="middle" x="145" y="-52" font-family="Helvetica,sans-Serif" font-size="10.00">array_index_last</text>
</g>
<!-- Node4 -->
<g id="node4" class="node">
<title>Node4</title>
<g id="a_node4"><a xlink:title=" ">
<polygon fill="white" stroke="black" points="185.5,-89.5 185.5,-108.5 220.5,-108.5 220.5,-89.5 185.5,-89.5"/>
<text text-anchor="middle" x="203" y="-96.5" font-family="Helvetica,sans-Serif" font-size="10.00">type</text>
</a>
</g>
</g>
<!-- Node4&#45;&gt;Node1 -->
<g id="edge3" class="edge">
<title>Node4&#45;&gt;Node1</title>
<path fill="none" stroke="#9a32cd" stroke-dasharray="5,2" d="M196.11,-79.77C192.21,-70.3 186.93,-58.71 181,-49 177.16,-42.71 172.25,-36.27 167.74,-30.8"/>
<polygon fill="#9a32cd" stroke="#9a32cd" points="192.96,-81.33 199.88,-89.35 199.47,-78.76 192.96,-81.33"/>
<text text-anchor="middle" x="226" y="-57.5" font-family="Helvetica,sans-Serif" font-size="10.00"> array_index_str</text>
</g>
<!-- Node5 -->
<g id="node5" class="node">
<title>Node5</title>
<g id="a_node5"><a xlink:title=" ">
<polygon fill="white" stroke="black" points="250,-89.5 250,-108.5 342,-108.5 342,-89.5 250,-89.5"/>
<text text-anchor="middle" x="296" y="-96.5" font-family="Helvetica,sans-Serif" font-size="10.00">const string_type</text>
</a>
</g>
</g>
<!-- Node5&#45;&gt;Node1 -->
<g id="edge4" class="edge">
<title>Node5&#45;&gt;Node1</title>
<path fill="none" stroke="#9a32cd" stroke-dasharray="5,2" d="M288.67,-80.25C283.5,-69.76 275.59,-57 265,-49 253.56,-40.36 239.85,-34.01 226.06,-29.34"/>
<polygon fill="#9a32cd" stroke="#9a32cd" points="285.49,-81.71 292.8,-89.39 291.87,-78.83 285.49,-81.71"/>
<text text-anchor="middle" x="306.5" y="-57.5" font-family="Helvetica,sans-Serif" font-size="10.00"> empty_str</text>
</g>
</g>
</svg>
