<?xml version="1.0" encoding="UTF-8" standalone="no"?>
<!DOCTYPE svg PUBLIC "-//W3C//DTD SVG 1.1//EN"
 "http://www.w3.org/Graphics/SVG/1.1/DTD/svg11.dtd">
<!-- Generated by graphviz version 8.0.5 (20230430.1635)
 -->
<!-- Title: nlohmann::detail::is_constructible_tuple&lt; T1, std::tuple&lt; Args... &gt; &gt; Pages: 1 -->
<svg width="151pt" height="188pt"
 viewBox="0.00 0.00 150.75 188.00" xmlns="http://www.w3.org/2000/svg" xmlns:xlink="http://www.w3.org/1999/xlink">
<g id="graph0" class="graph" transform="scale(1 1) rotate(0) translate(4 184)">
<title>nlohmann::detail::is_constructible_tuple&lt; T1, std::tuple&lt; Args... &gt; &gt;</title>
<!-- Node1 -->
<g id="node1" class="node">
<title>Node1</title>
<g id="a_node1"><a xlink:title=" ">
<polygon fill="#999999" stroke="#666666" points="140.5,-44 2.25,-44 2.25,0 140.5,0 140.5,-44"/>
<text text-anchor="start" x="10.25" y="-30.5" font-family="Helvetica,sans-Serif" font-size="10.00">nlohmann::detail::is</text>
<text text-anchor="start" x="10.25" y="-18.5" font-family="Helvetica,sans-Serif" font-size="10.00">_constructible_tuple</text>
<text text-anchor="middle" x="71.38" y="-6.5" font-family="Helvetica,sans-Serif" font-size="10.00">&lt; T1, std::tuple&lt; Args... &gt; &gt;</text>
</a>
</g>
</g>
<!-- Node2 -->
<g id="node2" class="node">
<title>Node2</title>
<g id="a_node2"><a xlink:href="a01769.html" target="_top" xlink:title=" ">
<polygon fill="white" stroke="#666666" points="142.75,-124 0,-124 0,-80 142.75,-80 142.75,-124"/>
<text text-anchor="start" x="8" y="-110.5" font-family="Helvetica,sans-Serif" font-size="10.00">nlohmann::detail::conjunction</text>
<text text-anchor="start" x="8" y="-98.5" font-family="Helvetica,sans-Serif" font-size="10.00">&lt; std::is_constructible&lt;</text>
<text text-anchor="middle" x="71.38" y="-86.5" font-family="Helvetica,sans-Serif" font-size="10.00"> T1, Args &gt;... &gt;</text>
</a>
</g>
</g>
<!-- Node2&#45;&gt;Node1 -->
<g id="edge1" class="edge">
<title>Node2&#45;&gt;Node1</title>
<path fill="none" stroke="#63b8ff" d="M71.38,-68.82C71.38,-60.54 71.38,-51.85 71.38,-44.29"/>
<polygon fill="#63b8ff" stroke="#63b8ff" points="67.88,-68.69 71.38,-78.69 74.88,-68.69 67.88,-68.69"/>
</g>
<!-- Node3 -->
<g id="node3" class="node">
<title>Node3</title>
<g id="a_node3"><a xlink:title=" ">
<polygon fill="white" stroke="#666666" points="109.38,-180 33.38,-180 33.38,-160 109.38,-160 109.38,-180"/>
<text text-anchor="middle" x="71.38" y="-166.5" font-family="Helvetica,sans-Serif" font-size="10.00">std::true_type</text>
</a>
</g>
</g>
<!-- Node3&#45;&gt;Node2 -->
<g id="edge2" class="edge">
<title>Node3&#45;&gt;Node2</title>
<path fill="none" stroke="#63b8ff" d="M71.38,-148.65C71.38,-140.97 71.38,-132.21 71.38,-124.43"/>
<polygon fill="#63b8ff" stroke="#63b8ff" points="67.88,-148.54 71.38,-158.54 74.88,-148.54 67.88,-148.54"/>
</g>
</g>
</svg>
