<?xml version="1.0" encoding="UTF-8" standalone="no"?>
<!DOCTYPE svg PUBLIC "-//W3C//DTD SVG 1.1//EN"
 "http://www.w3.org/Graphics/SVG/1.1/DTD/svg11.dtd">
<!-- Generated by graphviz version 8.0.5 (20230430.1635)
 -->
<!-- Title: nlohmann::detail::is_compatible_string_type&lt; BasicJsonType, ConstructibleStringType &gt; Pages: 1 -->
<svg width="491pt" height="64pt"
 viewBox="0.00 0.00 491.00 64.00" xmlns="http://www.w3.org/2000/svg" xmlns:xlink="http://www.w3.org/1999/xlink">
<g id="graph0" class="graph" transform="scale(1 1) rotate(0) translate(4 60)">
<title>nlohmann::detail::is_compatible_string_type&lt; BasicJsonType, ConstructibleStringType &gt;</title>
<!-- Node1 -->
<g id="node1" class="node">
<title>Node1</title>
<g id="a_node1"><a xlink:title=" ">
<polygon fill="#999999" stroke="#666666" points="483,-56 329,-56 329,0 483,0 483,-56"/>
<text text-anchor="start" x="337" y="-42.5" font-family="Helvetica,sans-Serif" font-size="10.00">nlohmann::detail::is</text>
<text text-anchor="start" x="337" y="-30.5" font-family="Helvetica,sans-Serif" font-size="10.00">_compatible_string_type</text>
<text text-anchor="start" x="337" y="-18.5" font-family="Helvetica,sans-Serif" font-size="10.00">&lt; BasicJsonType, Constructible</text>
<text text-anchor="middle" x="406" y="-6.5" font-family="Helvetica,sans-Serif" font-size="10.00">StringType &gt;</text>
</a>
</g>
</g>
<!-- Node2 -->
<g id="node2" class="node">
<title>Node2</title>
<g id="a_node2"><a xlink:href="a01759.html" target="_top" xlink:title=" ">
<polygon fill="white" stroke="#666666" points="293,-56 115.75,-56 115.75,0 293,0 293,-56"/>
<text text-anchor="start" x="123.75" y="-42.5" font-family="Helvetica,sans-Serif" font-size="10.00">nlohmann::detail::is</text>
<text text-anchor="start" x="123.75" y="-30.5" font-family="Helvetica,sans-Serif" font-size="10.00">_compatible_string_type</text>
<text text-anchor="start" x="123.75" y="-18.5" font-family="Helvetica,sans-Serif" font-size="10.00">_impl&lt; BasicJsonType, Constructible</text>
<text text-anchor="middle" x="204.38" y="-6.5" font-family="Helvetica,sans-Serif" font-size="10.00">StringType &gt;</text>
</a>
</g>
</g>
<!-- Node2&#45;&gt;Node1 -->
<g id="edge1" class="edge">
<title>Node2&#45;&gt;Node1</title>
<path fill="none" stroke="#63b8ff" d="M304.07,-28C312.34,-28 320.63,-28 328.69,-28"/>
<polygon fill="#63b8ff" stroke="#63b8ff" points="304.22,-24.5 294.22,-28 304.22,-31.5 304.22,-24.5"/>
</g>
<!-- Node3 -->
<g id="node3" class="node">
<title>Node3</title>
<g id="a_node3"><a xlink:title=" ">
<polygon fill="white" stroke="#666666" points="79.75,-38 0,-38 0,-18 79.75,-18 79.75,-38"/>
<text text-anchor="middle" x="39.88" y="-24.5" font-family="Helvetica,sans-Serif" font-size="10.00">std::false_type</text>
</a>
</g>
</g>
<!-- Node3&#45;&gt;Node2 -->
<g id="edge2" class="edge">
<title>Node3&#45;&gt;Node2</title>
<path fill="none" stroke="#63b8ff" d="M90.97,-28C98.83,-28 107.14,-28 115.54,-28"/>
<polygon fill="#63b8ff" stroke="#63b8ff" points="91.21,-24.5 81.21,-28 91.21,-31.5 91.21,-24.5"/>
</g>
</g>
</svg>
