<?xml version="1.0" encoding="UTF-8" standalone="no"?>
<!DOCTYPE svg PUBLIC "-//W3C//DTD SVG 1.1//EN"
 "http://www.w3.org/Graphics/SVG/1.1/DTD/svg11.dtd">
<!-- Generated by graphviz version 8.0.5 (20230430.1635)
 -->
<!-- Title: nlohmann::detail::iteration_proxy_value&lt; IteratorType &gt; Pages: 1 -->
<svg width="347pt" height="120pt"
 viewBox="0.00 0.00 347.00 120.00" xmlns="http://www.w3.org/2000/svg" xmlns:xlink="http://www.w3.org/1999/xlink">
<g id="graph0" class="graph" transform="scale(1 1) rotate(0) translate(4 116)">
<title>nlohmann::detail::iteration_proxy_value&lt; IteratorType &gt;</title>
<!-- Node1 -->
<g id="node1" class="node">
<title>Node1</title>
<g id="a_node1"><a xlink:title=" ">
<polygon fill="#999999" stroke="#666666" points="224.13,-32 82.88,-32 82.88,0 224.13,0 224.13,-32"/>
<text text-anchor="start" x="90.88" y="-18.5" font-family="Helvetica,sans-Serif" font-size="10.00">nlohmann::detail::iteration</text>
<text text-anchor="middle" x="153.5" y="-6.5" font-family="Helvetica,sans-Serif" font-size="10.00">_proxy_value&lt; IteratorType &gt;</text>
</a>
</g>
</g>
<!-- Node2 -->
<g id="node2" class="node">
<title>Node2</title>
<g id="a_node2"><a xlink:title=" ">
<polygon fill="white" stroke="#666666" points="67,-112 0,-112 0,-92 67,-92 67,-112"/>
<text text-anchor="middle" x="33.5" y="-98.5" font-family="Helvetica,sans-Serif" font-size="10.00">IteratorType</text>
</a>
</g>
</g>
<!-- Node2&#45;&gt;Node1 -->
<g id="edge1" class="edge">
<title>Node2&#45;&gt;Node1</title>
<path fill="none" stroke="#9a32cd" stroke-dasharray="5,2" d="M41.5,-82.09C46.86,-71.41 54.84,-58.52 65.25,-50 74.11,-42.75 84.72,-36.99 95.47,-32.46"/>
<polygon fill="#9a32cd" stroke="#9a32cd" points="38.03,-80.25 37.03,-90.8 44.39,-83.18 38.03,-80.25"/>
<text text-anchor="middle" x="81.63" y="-58.5" font-family="Helvetica,sans-Serif" font-size="10.00"> anchor</text>
</g>
<!-- Node3 -->
<g id="node3" class="node">
<title>Node3</title>
<g id="a_node3"><a xlink:title=" ">
<polygon fill="white" stroke="#666666" points="127.63,-112 85.38,-112 85.38,-92 127.63,-92 127.63,-112"/>
<text text-anchor="middle" x="106.5" y="-98.5" font-family="Helvetica,sans-Serif" font-size="10.00">size_t</text>
</a>
</g>
</g>
<!-- Node3&#45;&gt;Node1 -->
<g id="edge2" class="edge">
<title>Node3&#45;&gt;Node1</title>
<path fill="none" stroke="#9a32cd" stroke-dasharray="5,2" d="M102.72,-80.94C101.85,-71.09 102.34,-59.37 107.25,-50 110.91,-43.01 116.8,-37.17 123.17,-32.44"/>
<polygon fill="#9a32cd" stroke="#9a32cd" points="99.38,-81.33 104.26,-90.73 106.31,-80.34 99.38,-81.33"/>
<text text-anchor="middle" x="142.13" y="-64.5" font-family="Helvetica,sans-Serif" font-size="10.00"> array_index</text>
<text text-anchor="middle" x="142.13" y="-52.5" font-family="Helvetica,sans-Serif" font-size="10.00">array_index_last</text>
</g>
<!-- Node4 -->
<g id="node4" class="node">
<title>Node4</title>
<g id="a_node4"><a xlink:title=" ">
<polygon fill="white" stroke="#666666" points="217.88,-112 183.13,-112 183.13,-92 217.88,-92 217.88,-112"/>
<text text-anchor="middle" x="200.5" y="-98.5" font-family="Helvetica,sans-Serif" font-size="10.00">type</text>
</a>
</g>
</g>
<!-- Node4&#45;&gt;Node1 -->
<g id="edge3" class="edge">
<title>Node4&#45;&gt;Node1</title>
<path fill="none" stroke="#9a32cd" stroke-dasharray="5,2" d="M193.34,-81.41C189.47,-71.69 184.29,-59.94 178.5,-50 174.95,-43.91 170.46,-37.65 166.26,-32.24"/>
<polygon fill="#9a32cd" stroke="#9a32cd" points="190.41,-82.55 197.24,-90.65 196.95,-80.06 190.41,-82.55"/>
<text text-anchor="middle" x="224.38" y="-58.5" font-family="Helvetica,sans-Serif" font-size="10.00"> array_index_str</text>
</g>
<!-- Node5 -->
<g id="node5" class="node">
<title>Node5</title>
<g id="a_node5"><a xlink:title=" ">
<polygon fill="white" stroke="#666666" points="339,-112 248,-112 248,-92 339,-92 339,-112"/>
<text text-anchor="middle" x="293.5" y="-98.5" font-family="Helvetica,sans-Serif" font-size="10.00">const string_type</text>
</a>
</g>
</g>
<!-- Node5&#45;&gt;Node1 -->
<g id="edge4" class="edge">
<title>Node5&#45;&gt;Node1</title>
<path fill="none" stroke="#9a32cd" stroke-dasharray="5,2" d="M286.22,-81.5C281.3,-70.8 273.82,-58.09 263.5,-50 252.13,-41.08 238.37,-34.56 224.5,-29.81"/>
<polygon fill="#9a32cd" stroke="#9a32cd" points="283.36,-82.75 290.42,-90.65 289.83,-80.07 283.36,-82.75"/>
<text text-anchor="middle" x="304.75" y="-58.5" font-family="Helvetica,sans-Serif" font-size="10.00"> empty_str</text>
</g>
</g>
</svg>
