<?xml version="1.0" encoding="UTF-8" standalone="no"?>
<!DOCTYPE svg PUBLIC "-//W3C//DTD SVG 1.1//EN"
 "http://www.w3.org/Graphics/SVG/1.1/DTD/svg11.dtd">
<!-- Generated by graphviz version 7.0.3 (20221126.0506)
 -->
<!-- Title: nlohmann::detail::input_stream_adapter Pages: 1 -->
<svg width="187pt" height="283pt"
 viewBox="0.00 0.00 186.50 283.00" xmlns="http://www.w3.org/2000/svg" xmlns:xlink="http://www.w3.org/1999/xlink">
<g id="graph0" class="graph" transform="scale(1 1) rotate(0) translate(4 279)">
<title>nlohmann::detail::input_stream_adapter</title>
<!-- Node1 -->
<g id="node1" class="node">
<title>Node1</title>
<g id="a_node1"><a xlink:title=" ">
<polygon fill="#999999" stroke="#666666" points="178.5,-30 63.5,-30 63.5,0 178.5,0 178.5,-30"/>
<text text-anchor="start" x="71.5" y="-18" font-family="Helvetica,sans-Serif" font-size="10.00">nlohmann::detail::input</text>
<text text-anchor="middle" x="121" y="-7" font-family="Helvetica,sans-Serif" font-size="10.00">_stream_adapter</text>
</a>
</g>
</g>
<!-- Node2 -->
<g id="node2" class="node">
<title>Node2</title>
<g id="a_node2"><a xlink:title=" ">
<polygon fill="white" stroke="#666666" points="92,-96 24,-96 24,-77 92,-77 92,-96"/>
<text text-anchor="middle" x="58" y="-84" font-family="Helvetica,sans-Serif" font-size="10.00">std::istream</text>
</a>
</g>
</g>
<!-- Node2&#45;&gt;Node1 -->
<g id="edge1" class="edge">
<title>Node2&#45;&gt;Node1</title>
<path fill="none" stroke="#9a32cd" stroke-dasharray="5,2" d="M73.65,-68.24C84.25,-56.54 98.08,-41.28 108.06,-30.27"/>
<polygon fill="#9a32cd" stroke="#9a32cd" points="71.12,-65.82 67,-75.58 76.3,-70.52 71.12,-65.82"/>
<text text-anchor="middle" x="97.5" y="-51" font-family="Helvetica,sans-Serif" font-size="10.00"> is</text>
</g>
<!-- Node3 -->
<g id="node3" class="node">
<title>Node3</title>
<g id="a_node3"><a xlink:title=" ">
<polygon fill="white" stroke="#666666" points="106.5,-163 9.5,-163 9.5,-133 106.5,-133 106.5,-163"/>
<text text-anchor="start" x="17.5" y="-151" font-family="Helvetica,sans-Serif" font-size="10.00">std::basic_istream</text>
<text text-anchor="middle" x="58" y="-140" font-family="Helvetica,sans-Serif" font-size="10.00">&lt; Char &gt;</text>
</a>
</g>
</g>
<!-- Node3&#45;&gt;Node2 -->
<g id="edge2" class="edge">
<title>Node3&#45;&gt;Node2</title>
<path fill="none" stroke="#63b8ff" d="M58,-121.13C58,-112.29 58,-102.99 58,-96.42"/>
<polygon fill="#63b8ff" stroke="#63b8ff" points="54.5,-121.08 58,-131.08 61.5,-121.08 54.5,-121.08"/>
</g>
<!-- Node4 -->
<g id="node4" class="node">
<title>Node4</title>
<g id="a_node4"><a xlink:title=" ">
<polygon fill="white" stroke="#666666" points="116,-219 0,-219 0,-200 116,-200 116,-219"/>
<text text-anchor="middle" x="58" y="-207" font-family="Helvetica,sans-Serif" font-size="10.00">std::basic_ios&lt; Char &gt;</text>
</a>
</g>
</g>
<!-- Node4&#45;&gt;Node3 -->
<g id="edge3" class="edge">
<title>Node4&#45;&gt;Node3</title>
<path fill="none" stroke="#63b8ff" d="M58,-188.46C58,-180.23 58,-170.89 58,-163.36"/>
<polygon fill="#63b8ff" stroke="#63b8ff" points="54.5,-188.21 58,-198.21 61.5,-188.21 54.5,-188.21"/>
</g>
<!-- Node5 -->
<g id="node5" class="node">
<title>Node5</title>
<g id="a_node5"><a xlink:title=" ">
<polygon fill="white" stroke="#666666" points="95.5,-275 20.5,-275 20.5,-256 95.5,-256 95.5,-275"/>
<text text-anchor="middle" x="58" y="-263" font-family="Helvetica,sans-Serif" font-size="10.00">std::ios_base</text>
</a>
</g>
</g>
<!-- Node5&#45;&gt;Node4 -->
<g id="edge4" class="edge">
<title>Node5&#45;&gt;Node4</title>
<path fill="none" stroke="#63b8ff" d="M58,-244.11C58,-235.52 58,-225.97 58,-219.25"/>
<polygon fill="#63b8ff" stroke="#63b8ff" points="54.5,-244.07 58,-254.07 61.5,-244.07 54.5,-244.07"/>
</g>
<!-- Node6 -->
<g id="node6" class="node">
<title>Node6</title>
<g id="a_node6"><a xlink:title=" ">
<polygon fill="white" stroke="#666666" points="176,-96 110,-96 110,-77 176,-77 176,-96"/>
<text text-anchor="middle" x="143" y="-84" font-family="Helvetica,sans-Serif" font-size="10.00">streambuf *</text>
</a>
</g>
</g>
<!-- Node6&#45;&gt;Node1 -->
<g id="edge5" class="edge">
<title>Node6&#45;&gt;Node1</title>
<path fill="none" stroke="#9a32cd" stroke-dasharray="5,2" d="M136.75,-65.76C133.17,-54.45 128.76,-40.52 125.52,-30.27"/>
<polygon fill="#9a32cd" stroke="#9a32cd" points="133.4,-66.78 139.76,-75.25 140.08,-64.66 133.4,-66.78"/>
<text text-anchor="middle" x="140" y="-51" font-family="Helvetica,sans-Serif" font-size="10.00"> sb</text>
</g>
</g>
</svg>
