<?xml version="1.0" encoding="UTF-8" standalone="no"?>
<!DOCTYPE svg PUBLIC "-//W3C//DTD SVG 1.1//EN"
 "http://www.w3.org/Graphics/SVG/1.1/DTD/svg11.dtd">
<!-- Generated by graphviz version 7.0.1 (20221109.1506)
 -->
<!-- Title: nlohmann::detail::wide_string_input_adapter&lt; BaseInputAdapter, WideCharType &gt; Pages: 1 -->
<svg width="317pt" height="214pt"
 viewBox="0.00 0.00 317.00 214.00" xmlns="http://www.w3.org/2000/svg" xmlns:xlink="http://www.w3.org/1999/xlink">
<g id="graph0" class="graph" transform="scale(1 1) rotate(0) translate(4 210)">
<title>nlohmann::detail::wide_string_input_adapter&lt; BaseInputAdapter, WideCharType &gt;</title>
<!-- Node1 -->
<g id="node1" class="node">
<title>Node1</title>
<g id="a_node1"><a xlink:title=" ">
<polygon fill="#999999" stroke="#666666" points="256,-41 74,-41 74,0 256,0 256,-41"/>
<text text-anchor="start" x="82" y="-29" font-family="Helvetica,sans-Serif" font-size="10.00">nlohmann::detail::wide</text>
<text text-anchor="start" x="82" y="-18" font-family="Helvetica,sans-Serif" font-size="10.00">_string_input_adapter</text>
<text text-anchor="middle" x="165" y="-7" font-family="Helvetica,sans-Serif" font-size="10.00">&lt; BaseInputAdapter, WideCharType &gt;</text>
</a>
</g>
</g>
<!-- Node2 -->
<g id="node2" class="node">
<title>Node2</title>
<g id="a_node2"><a xlink:title=" ">
<polygon fill="white" stroke="#666666" points="94,-129 0,-129 0,-110 94,-110 94,-129"/>
<text text-anchor="middle" x="47" y="-117" font-family="Helvetica,sans-Serif" font-size="10.00">BaseInputAdapter</text>
</a>
</g>
</g>
<!-- Node2&#45;&gt;Node1 -->
<g id="edge1" class="edge">
<title>Node2&#45;&gt;Node1</title>
<path fill="none" stroke="#9a32cd" stroke-dasharray="5,2" d="M60.1,-100.52C69.87,-87.91 84.07,-71.19 99,-59 106.86,-52.58 115.96,-46.63 124.85,-41.45"/>
<polygon fill="#9a32cd" stroke="#9a32cd" points="57.4,-98.29 54.18,-108.39 62.99,-102.5 57.4,-98.29"/>
<text text-anchor="middle" x="130" y="-67.5" font-family="Helvetica,sans-Serif" font-size="10.00"> base_adapter</text>
</g>
<!-- Node3 -->
<g id="node3" class="node">
<title>Node3</title>
<g id="a_node3"><a xlink:title=" ">
<polygon fill="white" stroke="#666666" points="217.5,-140 112.5,-140 112.5,-99 217.5,-99 217.5,-140"/>
<text text-anchor="start" x="120.5" y="-128" font-family="Helvetica,sans-Serif" font-size="10.00">std::array&lt; std::char</text>
<text text-anchor="start" x="120.5" y="-117" font-family="Helvetica,sans-Serif" font-size="10.00">_traits&lt; char &gt;::int</text>
<text text-anchor="middle" x="165" y="-106" font-family="Helvetica,sans-Serif" font-size="10.00">_type, 4 &gt;</text>
</a>
</g>
</g>
<!-- Node3&#45;&gt;Node1 -->
<g id="edge2" class="edge">
<title>Node3&#45;&gt;Node1</title>
<path fill="none" stroke="#9a32cd" stroke-dasharray="5,2" d="M165,-87.46C165,-72.38 165,-54.69 165,-41.43"/>
<polygon fill="#9a32cd" stroke="#9a32cd" points="161.5,-87.36 165,-97.36 168.5,-87.36 161.5,-87.36"/>
<text text-anchor="middle" x="189.5" y="-67.5" font-family="Helvetica,sans-Serif" font-size="10.00"> utf8_bytes</text>
</g>
<!-- Node4 -->
<g id="node4" class="node">
<title>Node4</title>
<g id="a_node4"><a xlink:title=" ">
<polygon fill="white" stroke="#666666" points="190.5,-206 139.5,-206 139.5,-187 190.5,-187 190.5,-206"/>
<text text-anchor="middle" x="165" y="-194" font-family="Helvetica,sans-Serif" font-size="10.00">int_type</text>
</a>
</g>
</g>
<!-- Node4&#45;&gt;Node3 -->
<g id="edge3" class="edge">
<title>Node4&#45;&gt;Node3</title>
<path fill="none" stroke="#9a32cd" stroke-dasharray="5,2" d="M165,-175.31C165,-164.46 165,-151.14 165,-140.35"/>
<polygon fill="#9a32cd" stroke="#9a32cd" points="161.5,-175.09 165,-185.09 168.5,-175.09 161.5,-175.09"/>
<text text-anchor="middle" x="186.5" y="-161" font-family="Helvetica,sans-Serif" font-size="10.00"> elements</text>
</g>
<!-- Node5 -->
<g id="node5" class="node">
<title>Node5</title>
<g id="a_node5"><a xlink:title=" ">
<polygon fill="white" stroke="#666666" points="278.5,-129 235.5,-129 235.5,-110 278.5,-110 278.5,-129"/>
<text text-anchor="middle" x="257" y="-117" font-family="Helvetica,sans-Serif" font-size="10.00">size_t</text>
</a>
</g>
</g>
<!-- Node5&#45;&gt;Node1 -->
<g id="edge4" class="edge">
<title>Node5&#45;&gt;Node1</title>
<path fill="none" stroke="#9a32cd" stroke-dasharray="5,2" d="M247.27,-99.96C240.19,-87.52 229.81,-71.24 218,-59 211.82,-52.59 204.4,-46.57 197.11,-41.3"/>
<polygon fill="#9a32cd" stroke="#9a32cd" points="244.01,-101.27 251.87,-108.37 250.15,-97.92 244.01,-101.27"/>
<text text-anchor="middle" x="272" y="-73" font-family="Helvetica,sans-Serif" font-size="10.00"> utf8_bytes_filled</text>
<text text-anchor="middle" x="272" y="-62" font-family="Helvetica,sans-Serif" font-size="10.00">utf8_bytes_index</text>
</g>
</g>
</svg>
