<?xml version="1.0" encoding="UTF-8" standalone="no"?>
<!DOCTYPE svg PUBLIC "-//W3C//DTD SVG 1.1//EN"
 "http://www.w3.org/Graphics/SVG/1.1/DTD/svg11.dtd">
<!-- Generated by graphviz version 5.0.0 (20220707.1540)
 -->
<!-- Title: nlohmann::detail::file_input_adapter Pages: 1 -->
<svg width="114pt" height="106pt"
 viewBox="0.00 0.00 114.00 106.00" xmlns="http://www.w3.org/2000/svg" xmlns:xlink="http://www.w3.org/1999/xlink">
<g id="graph0" class="graph" transform="scale(1 1) rotate(0) translate(4 102)">
<title>nlohmann::detail::file_input_adapter</title>
<polygon fill="white" stroke="transparent" points="-4,4 -4,-102 110,-102 110,4 -4,4"/>
<!-- Node1 -->
<g id="node1" class="node">
<title>Node1</title>
<g id="a_node1"><a xlink:title=" ">
<polygon fill="#bfbfbf" stroke="black" points="0,-0.5 0,-30.5 106,-30.5 106,-0.5 0,-0.5"/>
<text text-anchor="start" x="8" y="-18.5" font-family="Helvetica,sans-Serif" font-size="10.00">nlohmann::detail::file</text>
<text text-anchor="middle" x="53" y="-7.5" font-family="Helvetica,sans-Serif" font-size="10.00">_input_adapter</text>
</a>
</g>
</g>
<!-- Node2 -->
<g id="node2" class="node">
<title>Node2</title>
<g id="a_node2"><a xlink:title=" ">
<polygon fill="white" stroke="black" points="31,-78.5 31,-97.5 75,-97.5 75,-78.5 31,-78.5"/>
<text text-anchor="middle" x="53" y="-85.5" font-family="Helvetica,sans-Serif" font-size="10.00">FILE *</text>
</a>
</g>
</g>
<!-- Node2&#45;&gt;Node1 -->
<g id="edge1" class="edge">
<title>Node2&#45;&gt;Node1</title>
<path fill="none" stroke="#9a32cd" stroke-dasharray="5,2" d="M53,-68.24C53,-56.41 53,-41.38 53,-30.58"/>
<polygon fill="#9a32cd" stroke="#9a32cd" points="49.5,-68.36 53,-78.36 56.5,-68.36 49.5,-68.36"/>
<text text-anchor="middle" x="67.5" y="-52" font-family="Helvetica,sans-Serif" font-size="10.00"> m_file</text>
</g>
</g>
</svg>
