<?xml version="1.0" encoding="UTF-8" standalone="no"?>
<!DOCTYPE svg PUBLIC "-//W3C//DTD SVG 1.1//EN"
 "http://www.w3.org/Graphics/SVG/1.1/DTD/svg11.dtd">
<!-- Generated by graphviz version 4.0.0 (20220529.0937)
 -->
<!-- Title: nlohmann::detail::lexer::scan_number Pages: 1 -->
<svg width="296pt" height="214pt"
 viewBox="0.00 0.00 296.00 213.50" xmlns="http://www.w3.org/2000/svg" xmlns:xlink="http://www.w3.org/1999/xlink">
<g id="graph0" class="graph" transform="scale(1 1) rotate(0) translate(4 209.5)">
<title>nlohmann::detail::lexer::scan_number</title>
<polygon fill="white" stroke="transparent" points="-4,4 -4,-209.5 292,-209.5 292,4 -4,4"/>
<!-- Node1 -->
<g id="node1" class="node">
<title>Node1</title>
<g id="a_node1"><a xlink:title="scan a number literal">
<polygon fill="#bfbfbf" stroke="black" points="0,-98.5 0,-128.5 115,-128.5 115,-98.5 0,-98.5"/>
<text text-anchor="start" x="8" y="-116.5" font-family="Helvetica,sans-Serif" font-size="10.00">nlohmann::detail::lexer</text>
<text text-anchor="middle" x="57.5" y="-105.5" font-family="Helvetica,sans-Serif" font-size="10.00">::scan_number</text>
</a>
</g>
</g>
<!-- Node2 -->
<g id="node2" class="node">
<title>Node2</title>
<g id="a_node2"><a xlink:href="a01917.html#a36ffc3c33c3aea18291ead7a30fa7cc6" target="_top" xlink:title="add a character to token_buffer">
<polygon fill="white" stroke="black" points="151,-186 151,-205 288,-205 288,-186 151,-186"/>
<text text-anchor="middle" x="219.5" y="-193" font-family="Helvetica,sans-Serif" font-size="10.00">nlohmann::detail::lexer::add</text>
</a>
</g>
</g>
<!-- Node1&#45;&gt;Node2 -->
<g id="edge1" class="edge">
<title>Node1&#45;&gt;Node2</title>
<path fill="none" stroke="midnightblue" d="M76.9,-128.7C94.82,-142.84 123.35,-163.61 151,-176.5 155.97,-178.81 161.27,-180.9 166.64,-182.77"/>
<polygon fill="midnightblue" stroke="midnightblue" points="165.74,-186.16 176.33,-185.9 167.89,-179.5 165.74,-186.16"/>
</g>
<!-- Node3 -->
<g id="node3" class="node">
<title>Node3</title>
<g id="a_node3"><a xlink:href="a01917.html#a9cd3e4cf04d19be521beb8868c1a2fc9" target="_top" xlink:title=" ">
<polygon fill="white" stroke="black" points="152.5,-148 152.5,-167 286.5,-167 286.5,-148 152.5,-148"/>
<text text-anchor="middle" x="219.5" y="-155" font-family="Helvetica,sans-Serif" font-size="10.00">nlohmann::detail::lexer::get</text>
</a>
</g>
</g>
<!-- Node1&#45;&gt;Node3 -->
<g id="edge2" class="edge">
<title>Node1&#45;&gt;Node3</title>
<path fill="none" stroke="midnightblue" d="M113.12,-128.52C132.91,-133.96 155.03,-140.04 173.86,-145.22"/>
<polygon fill="midnightblue" stroke="midnightblue" points="173.1,-148.64 183.67,-147.92 174.96,-141.9 173.1,-148.64"/>
</g>
<!-- Node4 -->
<g id="node4" class="node">
<title>Node4</title>
<g id="a_node4"><a xlink:href="a01917.html#a3bda093837339813916d11fb6e396606" target="_top" xlink:title="reset token_buffer; current character is beginning of token">
<polygon fill="white" stroke="black" points="162,-98.5 162,-128.5 277,-128.5 277,-98.5 162,-98.5"/>
<text text-anchor="start" x="170" y="-116.5" font-family="Helvetica,sans-Serif" font-size="10.00">nlohmann::detail::lexer</text>
<text text-anchor="middle" x="219.5" y="-105.5" font-family="Helvetica,sans-Serif" font-size="10.00">::reset</text>
</a>
</g>
</g>
<!-- Node1&#45;&gt;Node4 -->
<g id="edge3" class="edge">
<title>Node1&#45;&gt;Node4</title>
<path fill="none" stroke="midnightblue" d="M115.36,-113.5C127.15,-113.5 139.67,-113.5 151.78,-113.5"/>
<polygon fill="midnightblue" stroke="midnightblue" points="151.82,-117 161.82,-113.5 151.82,-110 151.82,-117"/>
</g>
<!-- Node5 -->
<g id="node5" class="node">
<title>Node5</title>
<g id="a_node5"><a xlink:href="a01917.html#a6d3dffb7bb247a7fd7276d49d3a00dc8" target="_top" xlink:title=" ">
<polygon fill="white" stroke="black" points="162,-49.5 162,-79.5 277,-79.5 277,-49.5 162,-49.5"/>
<text text-anchor="start" x="170" y="-67.5" font-family="Helvetica,sans-Serif" font-size="10.00">nlohmann::detail::lexer</text>
<text text-anchor="middle" x="219.5" y="-56.5" font-family="Helvetica,sans-Serif" font-size="10.00">::strtof</text>
</a>
</g>
</g>
<!-- Node1&#45;&gt;Node5 -->
<g id="edge4" class="edge">
<title>Node1&#45;&gt;Node5</title>
<path fill="none" stroke="midnightblue" d="M107.81,-98.4C124.16,-93.39 142.52,-87.77 159.53,-82.56"/>
<polygon fill="midnightblue" stroke="midnightblue" points="160.82,-85.83 169.35,-79.55 158.77,-79.13 160.82,-85.83"/>
</g>
<!-- Node6 -->
<g id="node6" class="node">
<title>Node6</title>
<g id="a_node6"><a xlink:href="a01917.html#ab5811afe1c3efb0b769f7733b8373c6f" target="_top" xlink:title="unget current character (read it again on next get)">
<polygon fill="white" stroke="black" points="162,-0.5 162,-30.5 277,-30.5 277,-0.5 162,-0.5"/>
<text text-anchor="start" x="170" y="-18.5" font-family="Helvetica,sans-Serif" font-size="10.00">nlohmann::detail::lexer</text>
<text text-anchor="middle" x="219.5" y="-7.5" font-family="Helvetica,sans-Serif" font-size="10.00">::unget</text>
</a>
</g>
</g>
<!-- Node1&#45;&gt;Node6 -->
<g id="edge5" class="edge">
<title>Node1&#45;&gt;Node6</title>
<path fill="none" stroke="midnightblue" d="M74.42,-98.35C92.01,-82.26 121.74,-56.92 151,-40.5 154.68,-38.44 158.56,-36.48 162.53,-34.64"/>
<polygon fill="midnightblue" stroke="midnightblue" points="164.11,-37.77 171.88,-30.57 161.32,-31.35 164.11,-37.77"/>
</g>
</g>
</svg>
