<?xml version="1.0" encoding="UTF-8" standalone="no"?>
<!DOCTYPE svg PUBLIC "-//W3C//DTD SVG 1.1//EN"
 "http://www.w3.org/Graphics/SVG/1.1/DTD/svg11.dtd">
<!-- Generated by graphviz version 2.43.0 (0)
 -->
<!-- Title: nlohmann::detail::lexer::add Pages: 1 -->
<svg width="656pt" height="121pt"
 viewBox="0.00 0.00 656.00 121.00" xmlns="http://www.w3.org/2000/svg" xmlns:xlink="http://www.w3.org/1999/xlink">
<g id="graph0" class="graph" transform="scale(1 1) rotate(0) translate(4 117)">
<title>nlohmann::detail::lexer::add</title>
<polygon fill="white" stroke="transparent" points="-4,4 -4,-117 652,-117 652,4 -4,4"/>
<!-- Node1 -->
<g id="node1" class="node">
<title>Node1</title>
<g id="a_node1"><a xlink:title="add a character to token_buffer">
<polygon fill="#bfbfbf" stroke="black" points="495,-44 495,-63 648,-63 648,-44 495,-44"/>
<text text-anchor="middle" x="571.5" y="-51" font-family="Helvetica,sans-Serif" font-size="10.00">nlohmann::detail::lexer::add</text>
</a>
</g>
</g>
<!-- Node2 -->
<g id="node2" class="node">
<title>Node2</title>
<g id="a_node2"><a xlink:href="a01929.html#af6fe701b8b3ca5f4a1b58db4658bdf87" target="_top" xlink:title="check if the next byte(s) are inside a given range">
<polygon fill="white" stroke="black" points="330,-82.5 330,-112.5 459,-112.5 459,-82.5 330,-82.5"/>
<text text-anchor="start" x="338" y="-100.5" font-family="Helvetica,sans-Serif" font-size="10.00">nlohmann::detail::lexer</text>
<text text-anchor="middle" x="394.5" y="-89.5" font-family="Helvetica,sans-Serif" font-size="10.00">::next_byte_in_range</text>
</a>
</g>
</g>
<!-- Node1&#45;&gt;Node2 -->
<g id="edge1" class="edge">
<title>Node1&#45;&gt;Node2</title>
<path fill="none" stroke="midnightblue" d="M522.67,-65.53C501.91,-70.75 477.37,-76.91 455.42,-82.43"/>
<polygon fill="midnightblue" stroke="midnightblue" points="523.68,-68.88 532.53,-63.05 521.98,-62.09 523.68,-68.88"/>
</g>
<!-- Node3 -->
<g id="node3" class="node">
<title>Node3</title>
<g id="a_node3"><a xlink:href="a01929.html#ab6352978e03ebcbc3cd618cd17142f26" target="_top" xlink:title="scan a string literal">
<polygon fill="white" stroke="black" points="165,-49.5 165,-79.5 294,-79.5 294,-49.5 165,-49.5"/>
<text text-anchor="start" x="173" y="-67.5" font-family="Helvetica,sans-Serif" font-size="10.00">nlohmann::detail::lexer</text>
<text text-anchor="middle" x="229.5" y="-56.5" font-family="Helvetica,sans-Serif" font-size="10.00">::scan_string</text>
</a>
</g>
</g>
<!-- Node1&#45;&gt;Node3 -->
<g id="edge6" class="edge">
<title>Node1&#45;&gt;Node3</title>
<path fill="none" stroke="midnightblue" d="M484.53,-56.28C425.31,-58.2 347.9,-60.7 294.17,-62.44"/>
<polygon fill="midnightblue" stroke="midnightblue" points="484.74,-59.78 494.62,-55.95 484.51,-52.78 484.74,-59.78"/>
</g>
<!-- Node5 -->
<g id="node5" class="node">
<title>Node5</title>
<g id="a_node5"><a xlink:href="a01929.html#aab51a28e32c1957329141baff8eda1c4" target="_top" xlink:title="scan a number literal">
<polygon fill="white" stroke="black" points="165,-0.5 165,-30.5 294,-30.5 294,-0.5 165,-0.5"/>
<text text-anchor="start" x="173" y="-18.5" font-family="Helvetica,sans-Serif" font-size="10.00">nlohmann::detail::lexer</text>
<text text-anchor="middle" x="229.5" y="-7.5" font-family="Helvetica,sans-Serif" font-size="10.00">::scan_number</text>
</a>
</g>
</g>
<!-- Node1&#45;&gt;Node5 -->
<g id="edge4" class="edge">
<title>Node1&#45;&gt;Node5</title>
<path fill="none" stroke="midnightblue" d="M484.53,-43.89C425.31,-37.27 347.9,-28.62 294.17,-22.62"/>
<polygon fill="midnightblue" stroke="midnightblue" points="484.29,-47.39 494.62,-45.02 485.07,-40.43 484.29,-47.39"/>
</g>
<!-- Node2&#45;&gt;Node3 -->
<g id="edge2" class="edge">
<title>Node2&#45;&gt;Node3</title>
<path fill="none" stroke="midnightblue" d="M319.59,-82.54C311.05,-80.81 302.39,-79.05 294,-77.36"/>
<polygon fill="midnightblue" stroke="midnightblue" points="319.05,-86 329.55,-84.55 320.44,-79.14 319.05,-86"/>
</g>
<!-- Node4 -->
<g id="node4" class="node">
<title>Node4</title>
<g id="a_node4"><a xlink:href="a01929.html#a40320a8fef5f1f03b60c8b2f2f40af4d" target="_top" xlink:title=" ">
<polygon fill="white" stroke="black" points="0,-24.5 0,-54.5 129,-54.5 129,-24.5 0,-24.5"/>
<text text-anchor="start" x="8" y="-42.5" font-family="Helvetica,sans-Serif" font-size="10.00">nlohmann::detail::lexer</text>
<text text-anchor="middle" x="64.5" y="-31.5" font-family="Helvetica,sans-Serif" font-size="10.00">::scan</text>
</a>
</g>
</g>
<!-- Node3&#45;&gt;Node4 -->
<g id="edge3" class="edge">
<title>Node3&#45;&gt;Node4</title>
<path fill="none" stroke="midnightblue" d="M154.59,-53.16C146.05,-51.85 137.39,-50.53 129,-49.24"/>
<polygon fill="midnightblue" stroke="midnightblue" points="154.13,-56.63 164.55,-54.69 155.19,-49.72 154.13,-56.63"/>
</g>
<!-- Node5&#45;&gt;Node4 -->
<g id="edge5" class="edge">
<title>Node5&#45;&gt;Node4</title>
<path fill="none" stroke="midnightblue" d="M154.59,-26.38C146.05,-27.64 137.39,-28.91 129,-30.15"/>
<polygon fill="midnightblue" stroke="midnightblue" points="155.16,-29.84 164.55,-24.92 154.14,-22.91 155.16,-29.84"/>
</g>
</g>
</svg>
