<?xml version="1.0" encoding="UTF-8" standalone="no"?>
<!DOCTYPE svg PUBLIC "-//W3C//DTD SVG 1.1//EN"
 "http://www.w3.org/Graphics/SVG/1.1/DTD/svg11.dtd">
<!-- Generated by graphviz version 2.43.0 (0)
 -->
<!-- Title: nlohmann::detail::binary_reader::get_ubjson_object Pages: 1 -->
<svg width="1805pt" height="953pt"
 viewBox="0.00 0.00 1805.00 952.68" xmlns="http://www.w3.org/2000/svg" xmlns:xlink="http://www.w3.org/1999/xlink">
<g id="graph0" class="graph" transform="scale(1 1) rotate(0) translate(4 948.68)">
<title>nlohmann::detail::binary_reader::get_ubjson_object</title>
<polygon fill="white" stroke="transparent" points="-4,4 -4,-948.68 1801,-948.68 1801,4 -4,4"/>
<!-- Node1 -->
<g id="node1" class="node">
<title>Node1</title>
<g id="a_node1"><a xlink:title=" ">
<polygon fill="#bfbfbf" stroke="black" points="0,-320.68 0,-350.68 148,-350.68 148,-320.68 0,-320.68"/>
<text text-anchor="start" x="8" y="-338.68" font-family="Helvetica,sans-Serif" font-size="10.00">nlohmann::detail::binary</text>
<text text-anchor="middle" x="74" y="-327.68" font-family="Helvetica,sans-Serif" font-size="10.00">_reader::get_ubjson_object</text>
</a>
</g>
</g>
<!-- Node2 -->
<g id="node2" class="node">
<title>Node2</title>
<g id="a_node2"><a xlink:href="a01941.html#a252c1179651d22c5343bcf0b538ed26a" target="_top" xlink:title=" ">
<polygon fill="white" stroke="black" points="953,-241.68 953,-271.68 1093,-271.68 1093,-241.68 953,-241.68"/>
<text text-anchor="start" x="961" y="-259.68" font-family="Helvetica,sans-Serif" font-size="10.00">nlohmann::detail::binary</text>
<text text-anchor="middle" x="1023" y="-248.68" font-family="Helvetica,sans-Serif" font-size="10.00">_reader::get_ignore_noop</text>
</a>
</g>
</g>
<!-- Node1&#45;&gt;Node2 -->
<g id="edge1" class="edge">
<title>Node1&#45;&gt;Node2</title>
<path fill="none" stroke="midnightblue" d="M83,-320.6C116.74,-259.26 254.16,-31.68 435.5,-31.68 435.5,-31.68 435.5,-31.68 628.5,-31.68 790.47,-31.68 946.35,-177.11 1001.24,-234.13"/>
<polygon fill="midnightblue" stroke="midnightblue" points="998.88,-236.73 1008.3,-241.57 1003.95,-231.91 998.88,-236.73"/>
</g>
<!-- Node4 -->
<g id="node4" class="node">
<title>Node4</title>
<g id="a_node4"><a xlink:href="a01941.html#a7b6c2d4c95d56751e233e285a5f1fea7" target="_top" xlink:title="determine the type and size for a container">
<polygon fill="white" stroke="black" points="545.5,-192.68 545.5,-222.68 709.5,-222.68 709.5,-192.68 545.5,-192.68"/>
<text text-anchor="start" x="553.5" y="-210.68" font-family="Helvetica,sans-Serif" font-size="10.00">nlohmann::detail::binary</text>
<text text-anchor="middle" x="627.5" y="-199.68" font-family="Helvetica,sans-Serif" font-size="10.00">_reader::get_ubjson_size_type</text>
</a>
</g>
</g>
<!-- Node1&#45;&gt;Node4 -->
<g id="edge3" class="edge">
<title>Node1&#45;&gt;Node4</title>
<path fill="none" stroke="midnightblue" d="M95.12,-320.61C116.14,-305.67 150.66,-283.37 184,-271.68 300.85,-230.7 443.89,-215.94 535.11,-210.64"/>
<polygon fill="midnightblue" stroke="midnightblue" points="535.36,-214.13 545.15,-210.08 534.97,-207.14 535.36,-214.13"/>
</g>
<!-- Node15 -->
<g id="node15" class="node">
<title>Node15</title>
<g id="a_node15"><a xlink:href="a01941.html#a4ae90db51c102e912b7eac83c78733a6" target="_top" xlink:title="reads a UBJSON string">
<polygon fill="white" stroke="black" points="759,-730.68 759,-760.68 905,-760.68 905,-730.68 759,-730.68"/>
<text text-anchor="start" x="767" y="-748.68" font-family="Helvetica,sans-Serif" font-size="10.00">nlohmann::detail::binary</text>
<text text-anchor="middle" x="832" y="-737.68" font-family="Helvetica,sans-Serif" font-size="10.00">_reader::get_ubjson_string</text>
</a>
</g>
</g>
<!-- Node1&#45;&gt;Node15 -->
<g id="edge25" class="edge">
<title>Node1&#45;&gt;Node15</title>
<path fill="none" stroke="midnightblue" d="M85.7,-350.89C120.65,-399.59 236.55,-553.74 365,-643.68 435.94,-693.35 460.02,-699.54 544,-720.68 611.6,-737.69 690.67,-743.59 748.68,-745.43"/>
<polygon fill="midnightblue" stroke="midnightblue" points="748.79,-748.94 758.89,-745.72 748.99,-741.94 748.79,-748.94"/>
</g>
<!-- Node17 -->
<g id="node17" class="node">
<title>Node17</title>
<g id="a_node17"><a xlink:href="a01941.html#a7e5e0b71548d0649ce4f131280d06c33" target="_top" xlink:title=" ">
<polygon fill="white" stroke="black" points="184,-408.68 184,-438.68 329,-438.68 329,-408.68 184,-408.68"/>
<text text-anchor="start" x="192" y="-426.68" font-family="Helvetica,sans-Serif" font-size="10.00">nlohmann::detail::binary</text>
<text text-anchor="middle" x="256.5" y="-415.68" font-family="Helvetica,sans-Serif" font-size="10.00">_reader::get_ubjson_value</text>
</a>
</g>
</g>
<!-- Node1&#45;&gt;Node17 -->
<g id="edge35" class="edge">
<title>Node1&#45;&gt;Node17</title>
<path fill="none" stroke="midnightblue" d="M117.78,-350.69C150.7,-365.35 195.41,-387.35 224.84,-403.51"/>
<polygon fill="midnightblue" stroke="midnightblue" points="223.38,-406.71 233.82,-408.53 226.8,-400.6 223.38,-406.71"/>
</g>
<!-- Node19 -->
<g id="node19" class="node">
<title>Node19</title>
<g id="a_node19"><a xlink:href="a01941.html#a5a79480d661019b0f3fc615ae12f7de7" target="_top" xlink:title=" ">
<polygon fill="white" stroke="black" points="544,-241.68 544,-271.68 711,-271.68 711,-241.68 544,-241.68"/>
<text text-anchor="start" x="552" y="-259.68" font-family="Helvetica,sans-Serif" font-size="10.00">nlohmann::detail::binary</text>
<text text-anchor="middle" x="627.5" y="-248.68" font-family="Helvetica,sans-Serif" font-size="10.00">_reader::parse_ubjson_internal</text>
</a>
</g>
</g>
<!-- Node1&#45;&gt;Node19 -->
<g id="edge58" class="edge">
<title>Node1&#45;&gt;Node19</title>
<path fill="none" stroke="midnightblue" d="M128.2,-320.63C185.98,-304.99 281.24,-281.2 365,-269.68 420.61,-262.03 483.42,-258.73 533.54,-257.37"/>
<polygon fill="midnightblue" stroke="midnightblue" points="533.81,-260.87 543.72,-257.12 533.63,-253.87 533.81,-260.87"/>
</g>
<!-- Node3 -->
<g id="node3" class="node">
<title>Node3</title>
<g id="a_node3"><a xlink:href="a01941.html#ad222095c0b21a87824cb10629299629a" target="_top" xlink:title="get next character from the input">
<polygon fill="white" stroke="black" points="1129,-493.68 1129,-523.68 1265,-523.68 1265,-493.68 1129,-493.68"/>
<text text-anchor="start" x="1137" y="-511.68" font-family="Helvetica,sans-Serif" font-size="10.00">nlohmann::detail::binary</text>
<text text-anchor="middle" x="1197" y="-500.68" font-family="Helvetica,sans-Serif" font-size="10.00">_reader::get</text>
</a>
</g>
</g>
<!-- Node2&#45;&gt;Node3 -->
<g id="edge2" class="edge">
<title>Node2&#45;&gt;Node3</title>
<path fill="none" stroke="midnightblue" d="M1041.82,-271.68C1056.64,-284.72 1077.7,-304.62 1093,-324.68 1133.18,-377.36 1168.03,-447.52 1185,-484.11"/>
<polygon fill="midnightblue" stroke="midnightblue" points="1181.95,-485.87 1189.3,-493.5 1188.32,-482.95 1181.95,-485.87"/>
</g>
<!-- Node4&#45;&gt;Node2 -->
<g id="edge12" class="edge">
<title>Node4&#45;&gt;Node2</title>
<path fill="none" stroke="midnightblue" d="M709.56,-217.77C777.82,-226.27 874.91,-238.36 942.68,-246.8"/>
<polygon fill="midnightblue" stroke="midnightblue" points="942.52,-250.31 952.88,-248.07 943.39,-243.36 942.52,-250.31"/>
</g>
<!-- Node4&#45;&gt;Node3 -->
<g id="edge11" class="edge">
<title>Node4&#45;&gt;Node3</title>
<path fill="none" stroke="midnightblue" d="M683.76,-192.67C778.11,-170.61 971.81,-141.22 1093,-232.68 1174.52,-294.2 1191.53,-427.67 1195.07,-483.42"/>
<polygon fill="midnightblue" stroke="midnightblue" points="1191.58,-483.69 1195.62,-493.49 1198.57,-483.31 1191.58,-483.69"/>
</g>
<!-- Node5 -->
<g id="node5" class="node">
<title>Node5</title>
<g id="a_node5"><a xlink:href="a01509.html#a137ea4d27de45d8a844fd13451d40f3d" target="_top" xlink:title="create a parse error exception">
<polygon fill="white" stroke="black" points="1313.5,-711.68 1313.5,-741.68 1445.5,-741.68 1445.5,-711.68 1313.5,-711.68"/>
<text text-anchor="start" x="1321.5" y="-729.68" font-family="Helvetica,sans-Serif" font-size="10.00">nlohmann::detail::parse</text>
<text text-anchor="middle" x="1379.5" y="-718.68" font-family="Helvetica,sans-Serif" font-size="10.00">_error::create</text>
</a>
</g>
</g>
<!-- Node4&#45;&gt;Node5 -->
<g id="edge4" class="edge">
<title>Node4&#45;&gt;Node5</title>
<path fill="none" stroke="midnightblue" d="M664.88,-192.64C746.77,-161.28 949.64,-97.79 1093,-172.68 1206.14,-231.78 1204.98,-290.02 1265,-402.68 1294.06,-457.23 1350.53,-636.05 1370.92,-701.98"/>
<polygon fill="midnightblue" stroke="midnightblue" points="1367.59,-703.03 1373.88,-711.56 1374.28,-700.97 1367.59,-703.03"/>
</g>
<!-- Node10 -->
<g id="node10" class="node">
<title>Node10</title>
<g id="a_node10"><a xlink:href="a01941.html#a9c413c9a1bade1ce345740f4d69156f0" target="_top" xlink:title=" ">
<polygon fill="white" stroke="black" points="1301,-449.68 1301,-479.68 1458,-479.68 1458,-449.68 1301,-449.68"/>
<text text-anchor="start" x="1309" y="-467.68" font-family="Helvetica,sans-Serif" font-size="10.00">nlohmann::detail::binary</text>
<text text-anchor="middle" x="1379.5" y="-456.68" font-family="Helvetica,sans-Serif" font-size="10.00">_reader::exception_message</text>
</a>
</g>
</g>
<!-- Node4&#45;&gt;Node10 -->
<g id="edge10" class="edge">
<title>Node4&#45;&gt;Node10</title>
<path fill="none" stroke="midnightblue" d="M645,-192.64C666.57,-174.1 706.43,-143.57 747,-131.68 857.46,-99.3 1171.39,-64.69 1265,-131.68 1367.12,-204.76 1378.42,-375.25 1378.91,-439.54"/>
<polygon fill="midnightblue" stroke="midnightblue" points="1375.41,-439.59 1378.9,-449.59 1382.41,-439.6 1375.41,-439.59"/>
</g>
<!-- Node11 -->
<g id="node11" class="node">
<title>Node11</title>
<g id="a_node11"><a xlink:href="a01941.html#a7d323283c60a0b89ee5eeadf5cb9a5ad" target="_top" xlink:title=" ">
<polygon fill="white" stroke="black" points="953,-405.68 953,-435.68 1093,-435.68 1093,-405.68 953,-405.68"/>
<text text-anchor="start" x="961" y="-423.68" font-family="Helvetica,sans-Serif" font-size="10.00">nlohmann::detail::binary</text>
<text text-anchor="middle" x="1023" y="-412.68" font-family="Helvetica,sans-Serif" font-size="10.00">_reader::get_token_string</text>
</a>
</g>
</g>
<!-- Node4&#45;&gt;Node11 -->
<g id="edge13" class="edge">
<title>Node4&#45;&gt;Node11</title>
<path fill="none" stroke="midnightblue" d="M698.89,-222.77C703.35,-225.54 707.46,-228.81 711,-232.68 763.75,-290.28 687.84,-353.69 747,-404.68 803.45,-453.33 893.07,-448.68 954.56,-437.59"/>
<polygon fill="midnightblue" stroke="midnightblue" points="955.39,-441 964.56,-435.69 954.08,-434.12 955.39,-441"/>
</g>
<!-- Node12 -->
<g id="node12" class="node">
<title>Node12</title>
<g id="a_node12"><a xlink:href="a01941.html#aba7ba9ec9a52ad2bee8baff70176aa20" target="_top" xlink:title=" ">
<polygon fill="white" stroke="black" points="747,-364.68 747,-394.68 917,-394.68 917,-364.68 747,-364.68"/>
<text text-anchor="start" x="755" y="-382.68" font-family="Helvetica,sans-Serif" font-size="10.00">nlohmann::detail::binary</text>
<text text-anchor="middle" x="832" y="-371.68" font-family="Helvetica,sans-Serif" font-size="10.00">_reader::get_ubjson_size_value</text>
</a>
</g>
</g>
<!-- Node4&#45;&gt;Node12 -->
<g id="edge14" class="edge">
<title>Node4&#45;&gt;Node12</title>
<path fill="none" stroke="midnightblue" d="M697.71,-222.68C702.56,-225.47 707.08,-228.77 711,-232.68 749.55,-271.07 709.4,-310.36 747,-349.68 750.59,-353.43 754.68,-356.71 759.07,-359.58"/>
<polygon fill="midnightblue" stroke="midnightblue" points="757.44,-362.68 767.85,-364.62 760.92,-356.61 757.44,-362.68"/>
</g>
<!-- Node14 -->
<g id="node14" class="node">
<title>Node14</title>
<g id="a_node14"><a xlink:href="a01941.html#a61a0bd8bbe7b560bd429fa990ba3ba1a" target="_top" xlink:title=" ">
<polygon fill="white" stroke="black" points="1129,-733.68 1129,-763.68 1265,-763.68 1265,-733.68 1129,-733.68"/>
<text text-anchor="start" x="1137" y="-751.68" font-family="Helvetica,sans-Serif" font-size="10.00">nlohmann::detail::binary</text>
<text text-anchor="middle" x="1197" y="-740.68" font-family="Helvetica,sans-Serif" font-size="10.00">_reader::unexpect_eof</text>
</a>
</g>
</g>
<!-- Node4&#45;&gt;Node14 -->
<g id="edge24" class="edge">
<title>Node4&#45;&gt;Node14</title>
<path fill="none" stroke="midnightblue" d="M681.16,-222.68C691.14,-225.79 701.44,-229.19 711,-232.68 732.7,-240.59 1077.93,-379.18 1093,-396.68 1134.09,-444.38 1111.63,-473.17 1129,-533.68 1148.9,-603.02 1174.92,-684.09 1187.9,-723.96"/>
<polygon fill="midnightblue" stroke="midnightblue" points="1184.62,-725.21 1191.05,-733.63 1191.28,-723.04 1184.62,-725.21"/>
</g>
<!-- Node6 -->
<g id="node6" class="node">
<title>Node6</title>
<g id="a_node6"><a xlink:href="a01505.html#abf41a7e9178356314082284e6cfea278" target="_top" xlink:title=" ">
<polygon fill="white" stroke="black" points="1494,-662.68 1494,-692.68 1647,-692.68 1647,-662.68 1494,-662.68"/>
<text text-anchor="start" x="1502" y="-680.68" font-family="Helvetica,sans-Serif" font-size="10.00">nlohmann::detail::exception</text>
<text text-anchor="middle" x="1570.5" y="-669.68" font-family="Helvetica,sans-Serif" font-size="10.00">::name</text>
</a>
</g>
</g>
<!-- Node5&#45;&gt;Node6 -->
<g id="edge5" class="edge">
<title>Node5&#45;&gt;Node6</title>
<path fill="none" stroke="midnightblue" d="M1438.49,-711.64C1458.54,-706.45 1481.17,-700.58 1501.92,-695.2"/>
<polygon fill="midnightblue" stroke="midnightblue" points="1502.82,-698.58 1511.62,-692.68 1501.06,-691.81 1502.82,-698.58"/>
</g>
<!-- Node8 -->
<g id="node8" class="node">
<title>Node8</title>
<g id="a_node8"><a xlink:href="a01509.html#a0ea816ea3521d7109407948cb1b850f7" target="_top" xlink:title=" ">
<polygon fill="white" stroke="black" points="1504.5,-711.68 1504.5,-741.68 1636.5,-741.68 1636.5,-711.68 1504.5,-711.68"/>
<text text-anchor="start" x="1512.5" y="-729.68" font-family="Helvetica,sans-Serif" font-size="10.00">nlohmann::detail::parse</text>
<text text-anchor="middle" x="1570.5" y="-718.68" font-family="Helvetica,sans-Serif" font-size="10.00">_error::parse_error</text>
</a>
</g>
</g>
<!-- Node5&#45;&gt;Node8 -->
<g id="edge7" class="edge">
<title>Node5&#45;&gt;Node8</title>
<path fill="none" stroke="midnightblue" d="M1445.54,-726.68C1461.13,-726.68 1477.91,-726.68 1493.94,-726.68"/>
<polygon fill="midnightblue" stroke="midnightblue" points="1494.34,-730.18 1504.34,-726.68 1494.34,-723.18 1494.34,-730.18"/>
</g>
<!-- Node9 -->
<g id="node9" class="node">
<title>Node9</title>
<g id="a_node9"><a xlink:href="a01509.html#aefe74adeaa48781464ba2fd2ec63d221" target="_top" xlink:title=" ">
<polygon fill="white" stroke="black" points="1504.5,-760.68 1504.5,-790.68 1636.5,-790.68 1636.5,-760.68 1504.5,-760.68"/>
<text text-anchor="start" x="1512.5" y="-778.68" font-family="Helvetica,sans-Serif" font-size="10.00">nlohmann::detail::parse</text>
<text text-anchor="middle" x="1570.5" y="-767.68" font-family="Helvetica,sans-Serif" font-size="10.00">_error::position_string</text>
</a>
</g>
</g>
<!-- Node5&#45;&gt;Node9 -->
<g id="edge8" class="edge">
<title>Node5&#45;&gt;Node9</title>
<path fill="none" stroke="midnightblue" d="M1438.49,-741.71C1458.54,-746.91 1481.17,-752.78 1501.92,-758.16"/>
<polygon fill="midnightblue" stroke="midnightblue" points="1501.06,-761.55 1511.62,-760.67 1502.82,-754.77 1501.06,-761.55"/>
</g>
<!-- Node7 -->
<g id="node7" class="node">
<title>Node7</title>
<g id="a_node7"><a xlink:href="a00410.html#a6ce645a0b8717757e096a5b5773b7a16" target="_top" xlink:title="user&#45;defined to_string function for JSON values">
<polygon fill="white" stroke="black" points="1683,-717.18 1683,-736.18 1797,-736.18 1797,-717.18 1683,-717.18"/>
<text text-anchor="middle" x="1740" y="-724.18" font-family="Helvetica,sans-Serif" font-size="10.00">nlohmann::to_string</text>
</a>
</g>
</g>
<!-- Node6&#45;&gt;Node7 -->
<g id="edge6" class="edge">
<title>Node6&#45;&gt;Node7</title>
<path fill="none" stroke="midnightblue" d="M1623.12,-692.78C1646.71,-699.68 1674.31,-707.75 1696.66,-714.29"/>
<polygon fill="midnightblue" stroke="midnightblue" points="1695.94,-717.73 1706.52,-717.18 1697.9,-711.01 1695.94,-717.73"/>
</g>
<!-- Node9&#45;&gt;Node7 -->
<g id="edge9" class="edge">
<title>Node9&#45;&gt;Node7</title>
<path fill="none" stroke="midnightblue" d="M1623.12,-760.58C1646.71,-753.68 1674.31,-745.6 1696.66,-739.06"/>
<polygon fill="midnightblue" stroke="midnightblue" points="1697.9,-742.35 1706.52,-736.18 1695.94,-735.63 1697.9,-742.35"/>
</g>
<!-- Node12&#45;&gt;Node2 -->
<g id="edge17" class="edge">
<title>Node12&#45;&gt;Node2</title>
<path fill="none" stroke="midnightblue" d="M851.65,-364.3C879.85,-341.21 932.25,-298.97 953,-286.68 959.41,-282.88 966.4,-279.28 973.38,-275.99"/>
<polygon fill="midnightblue" stroke="midnightblue" points="975.18,-279.01 982.84,-271.69 972.28,-272.64 975.18,-279.01"/>
</g>
<!-- Node12&#45;&gt;Node5 -->
<g id="edge15" class="edge">
<title>Node12&#45;&gt;Node5</title>
<path fill="none" stroke="midnightblue" d="M917.36,-375.31C1015.13,-375.16 1174.36,-390.87 1265,-484.68 1327.35,-549.21 1360.27,-654.33 1372.64,-701.9"/>
<polygon fill="midnightblue" stroke="midnightblue" points="1369.26,-702.82 1375.1,-711.67 1376.05,-701.11 1369.26,-702.82"/>
</g>
<!-- Node12&#45;&gt;Node10 -->
<g id="edge16" class="edge">
<title>Node12&#45;&gt;Node10</title>
<path fill="none" stroke="midnightblue" d="M885.69,-364.67C969.29,-343.65 1136.04,-313.25 1265,-362.68 1305.94,-378.37 1341.38,-416.4 1361.32,-441.33"/>
<polygon fill="midnightblue" stroke="midnightblue" points="1358.81,-443.8 1367.71,-449.54 1364.33,-439.5 1358.81,-443.8"/>
</g>
<!-- Node12&#45;&gt;Node11 -->
<g id="edge23" class="edge">
<title>Node12&#45;&gt;Node11</title>
<path fill="none" stroke="midnightblue" d="M902.3,-394.71C915.4,-397.55 929.19,-400.54 942.57,-403.45"/>
<polygon fill="midnightblue" stroke="midnightblue" points="942.19,-406.95 952.7,-405.65 943.67,-400.1 942.19,-406.95"/>
</g>
<!-- Node13 -->
<g id="node13" class="node">
<title>Node13</title>
<g id="a_node13"><a xlink:href="a01941.html#ac356c6364fe0273d3303fb7a447f4ef6" target="_top" xlink:title=" ">
<polygon fill="white" stroke="black" points="955,-493.68 955,-523.68 1091,-523.68 1091,-493.68 955,-493.68"/>
<text text-anchor="start" x="963" y="-511.68" font-family="Helvetica,sans-Serif" font-size="10.00">nlohmann::detail::binary</text>
<text text-anchor="middle" x="1023" y="-500.68" font-family="Helvetica,sans-Serif" font-size="10.00">_reader::get_number</text>
</a>
</g>
</g>
<!-- Node12&#45;&gt;Node13 -->
<g id="edge18" class="edge">
<title>Node12&#45;&gt;Node13</title>
<path fill="none" stroke="midnightblue" d="M855.05,-394.73C888.68,-417.68 952.89,-461.5 991.13,-487.61"/>
<polygon fill="midnightblue" stroke="midnightblue" points="989.57,-490.78 999.8,-493.52 993.51,-485 989.57,-490.78"/>
</g>
<!-- Node13&#45;&gt;Node3 -->
<g id="edge19" class="edge">
<title>Node13&#45;&gt;Node3</title>
<path fill="none" stroke="midnightblue" d="M1091.49,-508.68C1100.44,-508.68 1109.68,-508.68 1118.79,-508.68"/>
<polygon fill="midnightblue" stroke="midnightblue" points="1118.99,-512.18 1128.99,-508.68 1118.99,-505.18 1118.99,-512.18"/>
</g>
<!-- Node13&#45;&gt;Node14 -->
<g id="edge20" class="edge">
<title>Node13&#45;&gt;Node14</title>
<path fill="none" stroke="midnightblue" d="M1034.76,-523.69C1063.84,-564.27 1144.16,-676.35 1179.24,-725.3"/>
<polygon fill="midnightblue" stroke="midnightblue" points="1176.57,-727.58 1185.24,-733.67 1182.26,-723.5 1176.57,-727.58"/>
</g>
<!-- Node14&#45;&gt;Node5 -->
<g id="edge21" class="edge">
<title>Node14&#45;&gt;Node5</title>
<path fill="none" stroke="midnightblue" d="M1265.21,-740.49C1277.63,-738.97 1290.67,-737.38 1303.3,-735.84"/>
<polygon fill="midnightblue" stroke="midnightblue" points="1303.83,-739.3 1313.33,-734.62 1302.98,-732.36 1303.83,-739.3"/>
</g>
<!-- Node14&#45;&gt;Node10 -->
<g id="edge22" class="edge">
<title>Node14&#45;&gt;Node10</title>
<path fill="none" stroke="midnightblue" d="M1215.7,-733.42C1230.13,-720.38 1250.43,-700.62 1265,-680.68 1311.86,-616.53 1350.98,-530.45 1368.54,-489"/>
<polygon fill="midnightblue" stroke="midnightblue" points="1371.81,-490.27 1372.44,-479.69 1365.35,-487.56 1371.81,-490.27"/>
</g>
<!-- Node15&#45;&gt;Node3 -->
<g id="edge28" class="edge">
<title>Node15&#45;&gt;Node3</title>
<path fill="none" stroke="midnightblue" d="M855.98,-730.67C918.61,-689.79 1092.35,-576.35 1164.24,-529.42"/>
<polygon fill="midnightblue" stroke="midnightblue" points="1166.42,-532.17 1172.88,-523.77 1162.6,-526.31 1166.42,-532.17"/>
</g>
<!-- Node15&#45;&gt;Node5 -->
<g id="edge26" class="edge">
<title>Node15&#45;&gt;Node5</title>
<path fill="none" stroke="midnightblue" d="M864.74,-760.81C888.45,-771.23 921.98,-784.17 953,-789.68 1089.71,-813.95 1130.22,-807.04 1265,-773.68 1290.79,-767.29 1318.35,-755.99 1339.86,-746.07"/>
<polygon fill="midnightblue" stroke="midnightblue" points="1341.43,-749.21 1348.98,-741.78 1338.45,-742.87 1341.43,-749.21"/>
</g>
<!-- Node15&#45;&gt;Node10 -->
<g id="edge27" class="edge">
<title>Node15&#45;&gt;Node10</title>
<path fill="none" stroke="midnightblue" d="M905.22,-731.54C1020.4,-708.54 1235.75,-663.5 1265,-642.68 1320.09,-603.46 1354.73,-528.31 1369.78,-489.39"/>
<polygon fill="midnightblue" stroke="midnightblue" points="1373.11,-490.47 1373.34,-479.88 1366.56,-488.02 1373.11,-490.47"/>
</g>
<!-- Node15&#45;&gt;Node11 -->
<g id="edge33" class="edge">
<title>Node15&#45;&gt;Node11</title>
<path fill="none" stroke="midnightblue" d="M863.3,-730.55C881.75,-719.74 904.16,-703.46 917,-682.68 964.02,-606.59 910.01,-563.11 953,-484.68 962.19,-467.91 977.4,-453.1 991.2,-441.96"/>
<polygon fill="midnightblue" stroke="midnightblue" points="993.34,-444.72 999.11,-435.84 989.06,-439.19 993.34,-444.72"/>
</g>
<!-- Node15&#45;&gt;Node13 -->
<g id="edge29" class="edge">
<title>Node15&#45;&gt;Node13</title>
<path fill="none" stroke="midnightblue" d="M861.07,-730.6C879.31,-719.52 902.34,-702.9 917,-682.68 946.21,-642.4 926.57,-618.83 953,-576.68 963.98,-559.17 980.32,-542.8 994.34,-530.51"/>
<polygon fill="midnightblue" stroke="midnightblue" points="996.92,-532.91 1002.27,-523.77 992.38,-527.58 996.92,-532.91"/>
</g>
<!-- Node15&#45;&gt;Node14 -->
<g id="edge34" class="edge">
<title>Node15&#45;&gt;Node14</title>
<path fill="none" stroke="midnightblue" d="M885.71,-760.73C906.49,-765.94 930.68,-771.11 953,-773.68 1014.81,-780.79 1031.22,-781.07 1093,-773.68 1106.67,-772.04 1121.15,-769.23 1134.8,-766.06"/>
<polygon fill="midnightblue" stroke="midnightblue" points="1135.67,-769.45 1144.57,-763.7 1134.03,-762.65 1135.67,-769.45"/>
</g>
<!-- Node16 -->
<g id="node16" class="node">
<title>Node16</title>
<g id="a_node16"><a xlink:href="a01941.html#a540919db22df36512f05a88945c13263" target="_top" xlink:title="create a string by reading characters from the input">
<polygon fill="white" stroke="black" points="955,-733.68 955,-763.68 1091,-763.68 1091,-733.68 955,-733.68"/>
<text text-anchor="start" x="963" y="-751.68" font-family="Helvetica,sans-Serif" font-size="10.00">nlohmann::detail::binary</text>
<text text-anchor="middle" x="1023" y="-740.68" font-family="Helvetica,sans-Serif" font-size="10.00">_reader::get_string</text>
</a>
</g>
</g>
<!-- Node15&#45;&gt;Node16 -->
<g id="edge30" class="edge">
<title>Node15&#45;&gt;Node16</title>
<path fill="none" stroke="midnightblue" d="M905.26,-746.82C918.09,-747.03 931.5,-747.24 944.46,-747.45"/>
<polygon fill="midnightblue" stroke="midnightblue" points="944.69,-750.95 954.75,-747.61 944.81,-743.95 944.69,-750.95"/>
</g>
<!-- Node16&#45;&gt;Node3 -->
<g id="edge31" class="edge">
<title>Node16&#45;&gt;Node3</title>
<path fill="none" stroke="midnightblue" d="M1034.76,-733.66C1063.84,-693.09 1144.16,-581.01 1179.24,-532.06"/>
<polygon fill="midnightblue" stroke="midnightblue" points="1182.26,-533.85 1185.24,-523.69 1176.57,-529.77 1182.26,-533.85"/>
</g>
<!-- Node16&#45;&gt;Node14 -->
<g id="edge32" class="edge">
<title>Node16&#45;&gt;Node14</title>
<path fill="none" stroke="midnightblue" d="M1091.49,-748.68C1100.44,-748.68 1109.68,-748.68 1118.79,-748.68"/>
<polygon fill="midnightblue" stroke="midnightblue" points="1118.99,-752.18 1128.99,-748.68 1118.99,-745.18 1118.99,-752.18"/>
</g>
<!-- Node17&#45;&gt;Node1 -->
<g id="edge55" class="edge">
<title>Node17&#45;&gt;Node1</title>
<path fill="none" stroke="midnightblue" d="M212.67,-408.64C179.78,-393.99 135.17,-372.04 105.75,-355.9"/>
<polygon fill="midnightblue" stroke="midnightblue" points="107.21,-352.7 96.77,-350.88 103.79,-358.81 107.21,-352.7"/>
</g>
<!-- Node17&#45;&gt;Node3 -->
<g id="edge38" class="edge">
<title>Node17&#45;&gt;Node3</title>
<path fill="none" stroke="midnightblue" d="M329.17,-425.15C474.18,-428.95 812.44,-442.02 1093,-484.68 1104.63,-486.45 1116.89,-488.83 1128.73,-491.42"/>
<polygon fill="midnightblue" stroke="midnightblue" points="1128.04,-494.85 1138.56,-493.62 1129.57,-488.02 1128.04,-494.85"/>
</g>
<!-- Node17&#45;&gt;Node5 -->
<g id="edge36" class="edge">
<title>Node17&#45;&gt;Node5</title>
<path fill="none" stroke="midnightblue" d="M292.68,-438.78C306.2,-446.38 320.43,-456.94 329,-470.68 396.33,-578.63 300.21,-645.18 365,-754.68 438.15,-878.32 482.84,-944.68 626.5,-944.68 626.5,-944.68 626.5,-944.68 1024,-944.68 1171.71,-944.68 1309.59,-805.64 1359.13,-749.64"/>
<polygon fill="midnightblue" stroke="midnightblue" points="1361.85,-751.84 1365.79,-742.01 1356.58,-747.24 1361.85,-751.84"/>
</g>
<!-- Node17&#45;&gt;Node10 -->
<g id="edge37" class="edge">
<title>Node17&#45;&gt;Node10</title>
<path fill="none" stroke="midnightblue" d="M264.65,-408.63C279.54,-378.66 316.56,-310.86 365,-269.68 432.24,-212.51 463.57,-220.01 544,-183.68 838.35,-50.71 1007.11,101.77 1265,-92.68 1322.17,-135.78 1362.51,-362.75 1374.67,-439.38"/>
<polygon fill="midnightblue" stroke="midnightblue" points="1371.26,-440.22 1376.26,-449.56 1378.17,-439.14 1371.26,-440.22"/>
</g>
<!-- Node17&#45;&gt;Node11 -->
<g id="edge40" class="edge">
<title>Node17&#45;&gt;Node11</title>
<path fill="none" stroke="midnightblue" d="M329.38,-430.36C450.75,-440.51 703.89,-456.81 917,-438.68 925.34,-437.97 934.02,-436.95 942.65,-435.74"/>
<polygon fill="midnightblue" stroke="midnightblue" points="943.36,-439.18 952.74,-434.26 942.34,-432.25 943.36,-439.18"/>
</g>
<!-- Node17&#45;&gt;Node13 -->
<g id="edge39" class="edge">
<title>Node17&#45;&gt;Node13</title>
<path fill="none" stroke="midnightblue" d="M311.13,-438.7C328.26,-443.22 347.36,-447.96 365,-451.68 533.3,-487.17 575.56,-499.86 747,-513.68 822.31,-519.75 841.47,-515.48 917,-513.68 925.98,-513.46 935.38,-513.15 944.72,-512.78"/>
<polygon fill="midnightblue" stroke="midnightblue" points="944.96,-516.27 954.8,-512.35 944.66,-509.28 944.96,-516.27"/>
</g>
<!-- Node17&#45;&gt;Node14 -->
<g id="edge57" class="edge">
<title>Node17&#45;&gt;Node14</title>
<path fill="none" stroke="midnightblue" d="M291.41,-438.71C305.05,-446.4 319.73,-457.04 329,-470.68 373.16,-535.62 325.11,-576.02 365,-643.68 442.87,-775.75 473.18,-868.68 626.5,-868.68 626.5,-868.68 626.5,-868.68 833,-868.68 950.84,-868.68 984.03,-861.53 1093,-816.68 1121.26,-805.05 1150,-785.27 1169.92,-770.03"/>
<polygon fill="midnightblue" stroke="midnightblue" points="1172.15,-772.73 1177.88,-763.82 1167.85,-767.21 1172.15,-772.73"/>
</g>
<!-- Node17&#45;&gt;Node15 -->
<g id="edge56" class="edge">
<title>Node17&#45;&gt;Node15</title>
<path fill="none" stroke="midnightblue" d="M263.25,-439.06C276.25,-471.81 311.07,-548.82 365,-590.68 480.1,-680 649.17,-719.14 748.88,-735.29"/>
<polygon fill="midnightblue" stroke="midnightblue" points="748.48,-738.77 758.9,-736.87 749.57,-731.86 748.48,-738.77"/>
</g>
<!-- Node18 -->
<g id="node18" class="node">
<title>Node18</title>
<g id="a_node18"><a xlink:href="a01941.html#afb36cb588b795efa513fc95e949493b7" target="_top" xlink:title=" ">
<polygon fill="white" stroke="black" points="365,-317.68 365,-347.68 508,-347.68 508,-317.68 365,-317.68"/>
<text text-anchor="start" x="373" y="-335.68" font-family="Helvetica,sans-Serif" font-size="10.00">nlohmann::detail::binary</text>
<text text-anchor="middle" x="436.5" y="-324.68" font-family="Helvetica,sans-Serif" font-size="10.00">_reader::get_ubjson_array</text>
</a>
</g>
</g>
<!-- Node17&#45;&gt;Node18 -->
<g id="edge41" class="edge">
<title>Node17&#45;&gt;Node18</title>
<path fill="none" stroke="midnightblue" d="M278.27,-408.54C304.36,-392.93 350.02,-369.05 385.44,-352.13"/>
<polygon fill="midnightblue" stroke="midnightblue" points="387.12,-355.21 394.66,-347.77 384.13,-348.88 387.12,-355.21"/>
</g>
<!-- Node20 -->
<g id="node20" class="node">
<title>Node20</title>
<g id="a_node20"><a xlink:href="a01941.html#a26c694413fb860057e1a839d5422b361" target="_top" xlink:title=" ">
<polygon fill="white" stroke="black" points="558,-593.18 558,-634.18 697,-634.18 697,-593.18 558,-593.18"/>
<text text-anchor="start" x="566" y="-622.18" font-family="Helvetica,sans-Serif" font-size="10.00">nlohmann::detail::binary</text>
<text text-anchor="start" x="566" y="-611.18" font-family="Helvetica,sans-Serif" font-size="10.00">_reader::get_ubjson_high</text>
<text text-anchor="middle" x="627.5" y="-600.18" font-family="Helvetica,sans-Serif" font-size="10.00">_precision_number</text>
</a>
</g>
</g>
<!-- Node17&#45;&gt;Node20 -->
<g id="edge48" class="edge">
<title>Node17&#45;&gt;Node20</title>
<path fill="none" stroke="midnightblue" d="M265.89,-439.04C281.58,-466.25 318.07,-522.74 365,-551.68 420.43,-585.85 493.14,-601.19 547.82,-608.08"/>
<polygon fill="midnightblue" stroke="midnightblue" points="547.47,-611.56 557.81,-609.27 548.29,-604.61 547.47,-611.56"/>
</g>
<!-- Node18&#45;&gt;Node2 -->
<g id="edge42" class="edge">
<title>Node18&#45;&gt;Node2</title>
<path fill="none" stroke="midnightblue" d="M508.19,-323.63C601.74,-311.63 771.77,-289.75 917,-270.68 925.32,-269.58 934.01,-268.44 942.68,-267.29"/>
<polygon fill="midnightblue" stroke="midnightblue" points="943.36,-270.73 952.82,-265.94 942.44,-263.79 943.36,-270.73"/>
</g>
<!-- Node18&#45;&gt;Node4 -->
<g id="edge43" class="edge">
<title>Node18&#45;&gt;Node4</title>
<path fill="none" stroke="midnightblue" d="M453.15,-317.62C481.46,-290.45 538.73,-235.72 544,-232.68 547.72,-230.53 551.64,-228.55 555.67,-226.72"/>
<polygon fill="midnightblue" stroke="midnightblue" points="557.34,-229.82 565.23,-222.75 554.65,-223.36 557.34,-229.82"/>
</g>
<!-- Node18&#45;&gt;Node17 -->
<g id="edge44" class="edge">
<title>Node18&#45;&gt;Node17</title>
<path fill="none" stroke="midnightblue" d="M414.76,-347.81C388.66,-363.41 342.99,-387.3 307.57,-404.22"/>
<polygon fill="midnightblue" stroke="midnightblue" points="305.88,-401.15 298.34,-408.58 308.87,-407.47 305.88,-401.15"/>
</g>
<!-- Node18&#45;&gt;Node19 -->
<g id="edge45" class="edge">
<title>Node18&#45;&gt;Node19</title>
<path fill="none" stroke="midnightblue" d="M473.41,-317.53C484.52,-312.81 496.78,-307.56 508,-302.68 524.06,-295.69 527.76,-293.23 544,-286.68 553.64,-282.79 564,-278.84 574.01,-275.15"/>
<polygon fill="midnightblue" stroke="midnightblue" points="575.28,-278.41 583.47,-271.69 572.87,-271.83 575.28,-278.41"/>
</g>
<!-- Node19&#45;&gt;Node2 -->
<g id="edge46" class="edge">
<title>Node19&#45;&gt;Node2</title>
<path fill="none" stroke="midnightblue" d="M711.47,-256.68C779.67,-256.68 875.67,-256.68 942.82,-256.68"/>
<polygon fill="midnightblue" stroke="midnightblue" points="942.92,-260.18 952.92,-256.68 942.92,-253.18 942.92,-260.18"/>
</g>
<!-- Node19&#45;&gt;Node17 -->
<g id="edge47" class="edge">
<title>Node19&#45;&gt;Node17</title>
<path fill="none" stroke="midnightblue" d="M543.76,-267.5C479.06,-277 395.19,-291.88 365,-308.68 324.88,-331 291.12,-373.55 272.65,-400.17"/>
<polygon fill="midnightblue" stroke="midnightblue" points="269.69,-398.29 266.99,-408.53 275.49,-402.22 269.69,-398.29"/>
</g>
<!-- Node20&#45;&gt;Node3 -->
<g id="edge51" class="edge">
<title>Node20&#45;&gt;Node3</title>
<path fill="none" stroke="midnightblue" d="M697.25,-603.33C788.15,-589.3 953.18,-562.65 1093,-533.68 1104.08,-531.38 1115.78,-528.75 1127.16,-526.07"/>
<polygon fill="midnightblue" stroke="midnightblue" points="1128.14,-529.43 1137.06,-523.71 1126.52,-522.62 1128.14,-529.43"/>
</g>
<!-- Node20&#45;&gt;Node5 -->
<g id="edge49" class="edge">
<title>Node20&#45;&gt;Node5</title>
<path fill="none" stroke="midnightblue" d="M655.53,-634.3C678.52,-650.59 713.1,-672.25 747,-682.68 798.89,-698.64 1146.87,-716.17 1302.97,-723.34"/>
<polygon fill="midnightblue" stroke="midnightblue" points="1303.27,-726.86 1313.42,-723.82 1303.59,-719.87 1303.27,-726.86"/>
</g>
<!-- Node20&#45;&gt;Node10 -->
<g id="edge50" class="edge">
<title>Node20&#45;&gt;Node10</title>
<path fill="none" stroke="midnightblue" d="M697.41,-615.35C816.95,-616.02 1068.77,-607.51 1265,-533.68 1296.25,-521.92 1328.45,-501.39 1350.54,-485.77"/>
<polygon fill="midnightblue" stroke="midnightblue" points="1352.7,-488.53 1358.77,-479.85 1348.61,-482.85 1352.7,-488.53"/>
</g>
<!-- Node20&#45;&gt;Node12 -->
<g id="edge52" class="edge">
<title>Node20&#45;&gt;Node12</title>
<path fill="none" stroke="midnightblue" d="M646.47,-592.91C684.29,-549.21 771.83,-448.05 811.2,-402.56"/>
<polygon fill="midnightblue" stroke="midnightblue" points="814.07,-404.59 817.97,-394.74 808.77,-400.01 814.07,-404.59"/>
</g>
<!-- Node20&#45;&gt;Node14 -->
<g id="edge54" class="edge">
<title>Node20&#45;&gt;Node14</title>
<path fill="none" stroke="midnightblue" d="M637.27,-634.41C653.29,-669.41 690.91,-739.44 747,-770.68 881.55,-845.61 941.75,-818.68 1093,-789.68 1115.15,-785.43 1138.61,-776.48 1157.53,-768.02"/>
<polygon fill="midnightblue" stroke="midnightblue" points="1159.09,-771.16 1166.71,-763.8 1156.16,-764.8 1159.09,-771.16"/>
</g>
<!-- Node21 -->
<g id="node21" class="node">
<title>Node21</title>
<g id="a_node21"><a xlink:href="a00411.html#ad11a087dbe66eade5af4056aef9600bf" target="_top" xlink:title=" ">
<polygon fill="white" stroke="black" points="767,-642.68 767,-672.68 897,-672.68 897,-642.68 767,-642.68"/>
<text text-anchor="start" x="775" y="-660.68" font-family="Helvetica,sans-Serif" font-size="10.00">nlohmann::detail::input</text>
<text text-anchor="middle" x="832" y="-649.68" font-family="Helvetica,sans-Serif" font-size="10.00">_adapter</text>
</a>
</g>
</g>
<!-- Node20&#45;&gt;Node21 -->
<g id="edge53" class="edge">
<title>Node20&#45;&gt;Node21</title>
<path fill="none" stroke="midnightblue" d="M697.06,-628.57C716.39,-632.78 737.51,-637.36 757.15,-641.63"/>
<polygon fill="midnightblue" stroke="midnightblue" points="756.44,-645.06 766.95,-643.76 757.93,-638.22 756.44,-645.06"/>
</g>
</g>
</svg>
