<?xml version="1.0" encoding="UTF-8" standalone="no"?>
<!DOCTYPE svg PUBLIC "-//W3C//DTD SVG 1.1//EN"
 "http://www.w3.org/Graphics/SVG/1.1/DTD/svg11.dtd">
<!-- Generated by graphviz version 2.43.0 (0)
 -->
<!-- Title: nlohmann::detail::binary_writer&lt; BasicJsonType, CharType &gt; Pages: 1 -->
<svg width="260pt" height="117pt"
 viewBox="0.00 0.00 260.00 117.00" xmlns="http://www.w3.org/2000/svg" xmlns:xlink="http://www.w3.org/1999/xlink">
<g id="graph0" class="graph" transform="scale(1 1) rotate(0) translate(4 113)">
<title>nlohmann::detail::binary_writer&lt; BasicJsonType, CharType &gt;</title>
<polygon fill="white" stroke="transparent" points="-4,4 -4,-113 256,-113 256,4 -4,4"/>
<!-- Node1 -->
<g id="node1" class="node">
<title>Node1</title>
<g id="a_node1"><a xlink:title="serialization to CBOR and MessagePack values">
<polygon fill="#bfbfbf" stroke="black" points="32.5,-0.5 32.5,-41.5 168.5,-41.5 168.5,-0.5 32.5,-0.5"/>
<text text-anchor="start" x="40.5" y="-29.5" font-family="Helvetica,sans-Serif" font-size="10.00">nlohmann::detail::binary</text>
<text text-anchor="start" x="40.5" y="-18.5" font-family="Helvetica,sans-Serif" font-size="10.00">_writer&lt; BasicJsonType,</text>
<text text-anchor="middle" x="100.5" y="-7.5" font-family="Helvetica,sans-Serif" font-size="10.00"> CharType &gt;</text>
</a>
</g>
</g>
<!-- Node2 -->
<g id="node2" class="node">
<title>Node2</title>
<g id="a_node2"><a xlink:title=" ">
<polygon fill="white" stroke="#bfbfbf" points="0,-89.5 0,-108.5 67,-108.5 67,-89.5 0,-89.5"/>
<text text-anchor="middle" x="33.5" y="-96.5" font-family="Helvetica,sans-Serif" font-size="10.00">const bool</text>
</a>
</g>
</g>
<!-- Node2&#45;&gt;Node1 -->
<g id="edge1" class="edge">
<title>Node2&#45;&gt;Node1</title>
<path fill="none" stroke="#9a32cd" stroke-dasharray="5,2" d="M47.97,-81.58C58.31,-69.86 72.25,-54.05 83.17,-41.66"/>
<polygon fill="#9a32cd" stroke="#9a32cd" points="45.17,-79.47 41.19,-89.28 50.42,-84.1 45.17,-79.47"/>
<text text-anchor="middle" x="106.5" y="-63" font-family="Helvetica,sans-Serif" font-size="10.00"> is_little_endian</text>
</g>
<!-- Node3 -->
<g id="node3" class="node">
<title>Node3</title>
<g id="a_node3"><a xlink:title=" ">
<polygon fill="white" stroke="#bfbfbf" points="85,-89.5 85,-108.5 252,-108.5 252,-89.5 85,-89.5"/>
<text text-anchor="middle" x="168.5" y="-96.5" font-family="Helvetica,sans-Serif" font-size="10.00">output_adapter_t&lt; CharType &gt;</text>
</a>
</g>
</g>
<!-- Node3&#45;&gt;Node1 -->
<g id="edge2" class="edge">
<title>Node3&#45;&gt;Node1</title>
<path fill="none" stroke="#9a32cd" stroke-dasharray="5,2" d="M159.95,-80.27C156.29,-73.57 151.66,-66.1 146.5,-60 141.01,-53.52 134.32,-47.29 127.76,-41.82"/>
<polygon fill="#9a32cd" stroke="#9a32cd" points="156.89,-81.99 164.57,-89.29 163.12,-78.79 156.89,-81.99"/>
<text text-anchor="middle" x="161.5" y="-63" font-family="Helvetica,sans-Serif" font-size="10.00"> oa</text>
</g>
</g>
</svg>
