<?xml version="1.0" encoding="UTF-8" standalone="no"?>
<!DOCTYPE svg PUBLIC "-//W3C//DTD SVG 1.1//EN"
 "http://www.w3.org/Graphics/SVG/1.1/DTD/svg11.dtd">
<!-- Generated by graphviz version 7.0.1 (20221109.1506)
 -->
<!-- Title: nlohmann::detail::binary_reader::sax_parse Pages: 1 -->
<svg width="1732pt" height="2405pt"
 viewBox="0.00 0.00 1732.00 2404.77" xmlns="http://www.w3.org/2000/svg" xmlns:xlink="http://www.w3.org/1999/xlink">
<g id="graph0" class="graph" transform="scale(1 1) rotate(0) translate(4 2400.77)">
<title>nlohmann::detail::binary_reader::sax_parse</title>
<!-- Node1 -->
<g id="node1" class="node">
<title>Node1</title>
<g id="a_node1"><a xlink:title=" ">
<polygon fill="#999999" stroke="#666666" points="120,-1086.82 0,-1086.82 0,-1056.82 120,-1056.82 120,-1086.82"/>
<text text-anchor="start" x="8" y="-1074.82" font-family="Helvetica,sans-Serif" font-size="10.00">nlohmann::detail::binary</text>
<text text-anchor="middle" x="60" y="-1063.82" font-family="Helvetica,sans-Serif" font-size="10.00">_reader::sax_parse</text>
</a>
</g>
</g>
<!-- Node2 -->
<g id="node2" class="node">
<title>Node2</title>
<g id="a_node2"><a xlink:href="a01497.html#a137ea4d27de45d8a844fd13451d40f3d" target="_top" xlink:title="create a parse error exception">
<polygon fill="white" stroke="#666666" points="1540,-1947.82 1422,-1947.82 1422,-1917.82 1540,-1917.82 1540,-1947.82"/>
<text text-anchor="start" x="1430" y="-1935.82" font-family="Helvetica,sans-Serif" font-size="10.00">nlohmann::detail::parse</text>
<text text-anchor="middle" x="1481" y="-1924.82" font-family="Helvetica,sans-Serif" font-size="10.00">_error::create</text>
</a>
</g>
</g>
<!-- Node1&#45;&gt;Node2 -->
<g id="edge1" class="edge">
<title>Node1&#45;&gt;Node2</title>
<path fill="none" stroke="#63b8ff" d="M61.62,-1087.07C68.02,-1233.71 127.4,-2388.82 411,-2388.82 411,-2388.82 411,-2388.82 1155.5,-2388.82 1253.78,-2388.82 1301.39,-2421.06 1374,-2354.82 1433.51,-2300.53 1467.44,-2043.79 1477.1,-1959.62"/>
<polygon fill="#63b8ff" stroke="#63b8ff" points="1480.57,-1960.12 1478.21,-1949.79 1473.61,-1959.33 1480.57,-1960.12"/>
</g>
<!-- Node5 -->
<g id="node5" class="node">
<title>Node5</title>
<g id="a_node5"><a xlink:href="a01929.html#a9c413c9a1bade1ce345740f4d69156f0" target="_top" xlink:title=" ">
<polygon fill="white" stroke="#666666" points="1552,-814.82 1410,-814.82 1410,-784.82 1552,-784.82 1552,-814.82"/>
<text text-anchor="start" x="1418" y="-802.82" font-family="Helvetica,sans-Serif" font-size="10.00">nlohmann::detail::binary</text>
<text text-anchor="middle" x="1481" y="-791.82" font-family="Helvetica,sans-Serif" font-size="10.00">_reader::exception_message</text>
</a>
</g>
</g>
<!-- Node1&#45;&gt;Node5 -->
<g id="edge4" class="edge">
<title>Node1&#45;&gt;Node5</title>
<path fill="none" stroke="#63b8ff" d="M61.28,-1056.59C63.66,-934.88 82.28,-122.68 156,-46.82 235.57,35.05 296.83,-15.82 411,-15.82 411,-15.82 411,-15.82 1155.5,-15.82 1180.75,-15.82 1289.62,-105.23 1374,-282.82 1456.86,-457.22 1475.13,-694.81 1479,-773.4"/>
<polygon fill="#63b8ff" stroke="#63b8ff" points="1475.49,-773.27 1479.44,-783.1 1482.48,-772.95 1475.49,-773.27"/>
</g>
<!-- Node6 -->
<g id="node6" class="node">
<title>Node6</title>
<g id="a_node6"><a xlink:href="a01929.html#ad222095c0b21a87824cb10629299629a" target="_top" xlink:title="get next character from the input">
<polygon fill="white" stroke="#666666" points="1374,-1261.82 1254,-1261.82 1254,-1231.82 1374,-1231.82 1374,-1261.82"/>
<text text-anchor="start" x="1262" y="-1249.82" font-family="Helvetica,sans-Serif" font-size="10.00">nlohmann::detail::binary</text>
<text text-anchor="middle" x="1314" y="-1238.82" font-family="Helvetica,sans-Serif" font-size="10.00">_reader::get</text>
</a>
</g>
</g>
<!-- Node1&#45;&gt;Node6 -->
<g id="edge5" class="edge">
<title>Node1&#45;&gt;Node6</title>
<path fill="none" stroke="#63b8ff" d="M61.46,-1056.57C65.14,-939.73 91.23,-189.05 156,-114.82 232.62,-27.02 294.47,-53.82 411,-53.82 411,-53.82 411,-53.82 980,-53.82 1045.18,-53.82 1202.84,-157.73 1218,-181.82 1275.02,-272.47 1306.43,-1064.98 1312.07,-1220.43"/>
<polygon fill="#63b8ff" stroke="#63b8ff" points="1308.57,-1220.25 1312.42,-1230.12 1315.56,-1220 1308.57,-1220.25"/>
</g>
<!-- Node7 -->
<g id="node7" class="node">
<title>Node7</title>
<g id="a_node7"><a xlink:href="a01929.html#a252c1179651d22c5343bcf0b538ed26a" target="_top" xlink:title=" ">
<polygon fill="white" stroke="#666666" points="1217.5,-220.82 1091.5,-220.82 1091.5,-190.82 1217.5,-190.82 1217.5,-220.82"/>
<text text-anchor="start" x="1099.5" y="-208.82" font-family="Helvetica,sans-Serif" font-size="10.00">nlohmann::detail::binary</text>
<text text-anchor="middle" x="1154.5" y="-197.82" font-family="Helvetica,sans-Serif" font-size="10.00">_reader::get_ignore_noop</text>
</a>
</g>
</g>
<!-- Node1&#45;&gt;Node7 -->
<g id="edge6" class="edge">
<title>Node1&#45;&gt;Node7</title>
<path fill="none" stroke="#63b8ff" d="M61.57,-1056.54C64.51,-988.44 80.85,-706.54 156,-490.82 225.24,-292.08 200.54,-91.82 411,-91.82 411,-91.82 411,-91.82 793.5,-91.82 910.43,-91.82 947.81,-74.08 1055,-120.82 1086.42,-134.53 1115.2,-161.85 1133.43,-181.84"/>
<polygon fill="#63b8ff" stroke="#63b8ff" points="1130.79,-184.12 1140.04,-189.29 1136.03,-179.48 1130.79,-184.12"/>
</g>
<!-- Node8 -->
<g id="node8" class="node">
<title>Node8</title>
<g id="a_node8"><a xlink:href="a01929.html#a7d323283c60a0b89ee5eeadf5cb9a5ad" target="_top" xlink:title=" ">
<polygon fill="white" stroke="#666666" points="1218,-1294.82 1091,-1294.82 1091,-1264.82 1218,-1264.82 1218,-1294.82"/>
<text text-anchor="start" x="1099" y="-1282.82" font-family="Helvetica,sans-Serif" font-size="10.00">nlohmann::detail::binary</text>
<text text-anchor="middle" x="1154.5" y="-1271.82" font-family="Helvetica,sans-Serif" font-size="10.00">_reader::get_token_string</text>
</a>
</g>
</g>
<!-- Node1&#45;&gt;Node8 -->
<g id="edge8" class="edge">
<title>Node1&#45;&gt;Node8</title>
<path fill="none" stroke="#63b8ff" d="M120.45,-1071.82C190.09,-1071.82 308.92,-1071.82 411,-1071.82 411,-1071.82 411,-1071.82 793.5,-1071.82 918.74,-1071.82 951.27,-1106.65 1055,-1176.82 1087.28,-1198.66 1117.12,-1232.61 1135.31,-1255.51"/>
<polygon fill="#63b8ff" stroke="#63b8ff" points="1132.53,-1257.64 1141.43,-1263.38 1138.06,-1253.34 1132.53,-1257.64"/>
</g>
<!-- Node9 -->
<g id="node9" class="node">
<title>Node9</title>
<g id="a_node9"><a xlink:href="a01929.html#abf2051ba57d9ea9b378a2e7c14e22b34" target="_top" xlink:title="Reads in a BSON&#45;object and passes it to the SAX&#45;parser.">
<polygon fill="white" stroke="#666666" points="483,-2027.82 341,-2027.82 341,-1997.82 483,-1997.82 483,-2027.82"/>
<text text-anchor="start" x="349" y="-2015.82" font-family="Helvetica,sans-Serif" font-size="10.00">nlohmann::detail::binary</text>
<text text-anchor="middle" x="412" y="-2004.82" font-family="Helvetica,sans-Serif" font-size="10.00">_reader::parse_bson_internal</text>
</a>
</g>
</g>
<!-- Node1&#45;&gt;Node9 -->
<g id="edge9" class="edge">
<title>Node1&#45;&gt;Node9</title>
<path fill="none" stroke="#63b8ff" d="M64.19,-1086.99C74.81,-1136.65 110.88,-1298.58 156,-1427.82 233.61,-1650.1 358.08,-1906.46 398.14,-1987.15"/>
<polygon fill="#63b8ff" stroke="#63b8ff" points="394.95,-1988.6 402.54,-1995.99 401.22,-1985.48 394.95,-1988.6"/>
</g>
<!-- Node19 -->
<g id="node19" class="node">
<title>Node19</title>
<g id="a_node19"><a xlink:href="a01929.html#a4e4accd5a2a41bfb2f18a8a0fcc9421c" target="_top" xlink:title=" ">
<polygon fill="white" stroke="#666666" points="670.5,-1215.82 530.5,-1215.82 530.5,-1185.82 670.5,-1185.82 670.5,-1215.82"/>
<text text-anchor="start" x="538.5" y="-1203.82" font-family="Helvetica,sans-Serif" font-size="10.00">nlohmann::detail::binary</text>
<text text-anchor="middle" x="600.5" y="-1192.82" font-family="Helvetica,sans-Serif" font-size="10.00">_reader::parse_cbor_internal</text>
</a>
</g>
</g>
<!-- Node1&#45;&gt;Node19 -->
<g id="edge39" class="edge">
<title>Node1&#45;&gt;Node19</title>
<path fill="none" stroke="#63b8ff" d="M120.43,-1086.06C218.83,-1109.63 415.49,-1156.74 523.73,-1182.67"/>
<polygon fill="#63b8ff" stroke="#63b8ff" points="522.87,-1186.06 533.41,-1184.99 524.5,-1179.26 522.87,-1186.06"/>
</g>
<!-- Node25 -->
<g id="node25" class="node">
<title>Node25</title>
<g id="a_node25"><a xlink:href="a01929.html#ae020385ce9424271d61f85d3842c02cb" target="_top" xlink:title=" ">
<polygon fill="white" stroke="#666666" points="662.5,-1658.32 538.5,-1658.32 538.5,-1617.32 662.5,-1617.32 662.5,-1658.32"/>
<text text-anchor="start" x="546.5" y="-1646.32" font-family="Helvetica,sans-Serif" font-size="10.00">nlohmann::detail::binary</text>
<text text-anchor="start" x="546.5" y="-1635.32" font-family="Helvetica,sans-Serif" font-size="10.00">_reader::parse_msgpack</text>
<text text-anchor="middle" x="600.5" y="-1624.32" font-family="Helvetica,sans-Serif" font-size="10.00">_internal</text>
</a>
</g>
</g>
<!-- Node1&#45;&gt;Node25 -->
<g id="edge74" class="edge">
<title>Node1&#45;&gt;Node25</title>
<path fill="none" stroke="#63b8ff" d="M75.68,-1087.26C148.89,-1164.2 474.78,-1506.74 572.02,-1608.94"/>
<polygon fill="#63b8ff" stroke="#63b8ff" points="569.2,-1611.05 578.63,-1615.88 574.27,-1606.23 569.2,-1611.05"/>
</g>
<!-- Node30 -->
<g id="node30" class="node">
<title>Node30</title>
<g id="a_node30"><a xlink:href="a01929.html#a5a79480d661019b0f3fc615ae12f7de7" target="_top" xlink:title=" ">
<polygon fill="white" stroke="#666666" points="305,-529.82 156,-529.82 156,-499.82 305,-499.82 305,-529.82"/>
<text text-anchor="start" x="164" y="-517.82" font-family="Helvetica,sans-Serif" font-size="10.00">nlohmann::detail::binary</text>
<text text-anchor="middle" x="230.5" y="-506.82" font-family="Helvetica,sans-Serif" font-size="10.00">_reader::parse_ubjson_internal</text>
</a>
</g>
</g>
<!-- Node1&#45;&gt;Node30 -->
<g id="edge97" class="edge">
<title>Node1&#45;&gt;Node30</title>
<path fill="none" stroke="#63b8ff" d="M65.68,-1056.34C88.92,-979.52 191.95,-638.95 221.53,-541.16"/>
<polygon fill="#63b8ff" stroke="#63b8ff" points="224.86,-542.26 224.4,-531.68 218.16,-540.23 224.86,-542.26"/>
</g>
<!-- Node3 -->
<g id="node3" class="node">
<title>Node3</title>
<g id="a_node3"><a xlink:href="a01493.html#abf41a7e9178356314082284e6cfea278" target="_top" xlink:title=" ">
<polygon fill="white" stroke="#666666" points="1724,-1971.82 1588,-1971.82 1588,-1941.82 1724,-1941.82 1724,-1971.82"/>
<text text-anchor="start" x="1596" y="-1959.82" font-family="Helvetica,sans-Serif" font-size="10.00">nlohmann::detail::exception</text>
<text text-anchor="middle" x="1656" y="-1948.82" font-family="Helvetica,sans-Serif" font-size="10.00">::name</text>
</a>
</g>
</g>
<!-- Node2&#45;&gt;Node3 -->
<g id="edge2" class="edge">
<title>Node2&#45;&gt;Node3</title>
<path fill="none" stroke="#63b8ff" d="M1540.09,-1940.88C1551.81,-1942.51 1564.32,-1944.24 1576.61,-1945.95"/>
<polygon fill="#63b8ff" stroke="#63b8ff" points="1575.91,-1949.39 1586.3,-1947.29 1576.88,-1942.45 1575.91,-1949.39"/>
</g>
<!-- Node4 -->
<g id="node4" class="node">
<title>Node4</title>
<g id="a_node4"><a xlink:href="a01497.html#aefe74adeaa48781464ba2fd2ec63d221" target="_top" xlink:title=" ">
<polygon fill="white" stroke="#666666" points="1715,-1923.82 1597,-1923.82 1597,-1893.82 1715,-1893.82 1715,-1923.82"/>
<text text-anchor="start" x="1605" y="-1911.82" font-family="Helvetica,sans-Serif" font-size="10.00">nlohmann::detail::parse</text>
<text text-anchor="middle" x="1656" y="-1900.82" font-family="Helvetica,sans-Serif" font-size="10.00">_error::position_string</text>
</a>
</g>
</g>
<!-- Node2&#45;&gt;Node4 -->
<g id="edge3" class="edge">
<title>Node2&#45;&gt;Node4</title>
<path fill="none" stroke="#63b8ff" d="M1540.09,-1924.77C1554.64,-1922.75 1570.39,-1920.56 1585.44,-1918.47"/>
<polygon fill="#63b8ff" stroke="#63b8ff" points="1585.85,-1921.95 1595.27,-1917.11 1584.89,-1915.02 1585.85,-1921.95"/>
</g>
<!-- Node7&#45;&gt;Node6 -->
<g id="edge7" class="edge">
<title>Node7&#45;&gt;Node6</title>
<path fill="none" stroke="#63b8ff" d="M1159.2,-221.09C1169.64,-264.59 1199.73,-392.94 1218,-500.82 1265.4,-780.76 1300.82,-1123.43 1310.41,-1220.24"/>
<polygon fill="#63b8ff" stroke="#63b8ff" points="1306.91,-1220.41 1311.38,-1230.02 1313.88,-1219.72 1306.91,-1220.41"/>
</g>
<!-- Node10 -->
<g id="node10" class="node">
<title>Node10</title>
<g id="a_node10"><a xlink:href="a01929.html#a4e07b75ccb2579d0e738b894f0fd8cf8" target="_top" xlink:title="Read a BSON element list (as specified in the BSON&#45;spec)">
<polygon fill="white" stroke="#666666" points="682,-2095.82 519,-2095.82 519,-2065.82 682,-2065.82 682,-2095.82"/>
<text text-anchor="start" x="527" y="-2083.82" font-family="Helvetica,sans-Serif" font-size="10.00">nlohmann::detail::binary</text>
<text text-anchor="middle" x="600.5" y="-2072.82" font-family="Helvetica,sans-Serif" font-size="10.00">_reader::parse_bson_element_list</text>
</a>
</g>
</g>
<!-- Node9&#45;&gt;Node10 -->
<g id="edge10" class="edge">
<title>Node9&#45;&gt;Node10</title>
<path fill="none" stroke="#63b8ff" d="M455.32,-2028.25C482.29,-2038.09 517.46,-2050.91 546.31,-2061.43"/>
<polygon fill="#63b8ff" stroke="#63b8ff" points="545.01,-2064.68 555.6,-2064.82 547.41,-2058.1 545.01,-2064.68"/>
</g>
<!-- Node10&#45;&gt;Node6 -->
<g id="edge11" class="edge">
<title>Node10&#45;&gt;Node6</title>
<path fill="none" stroke="#63b8ff" d="M682.45,-2092.84C797.63,-2107.99 1000.89,-2126.88 1055,-2080.82 1128.78,-2018.03 1048.59,-1952.93 1091,-1865.82 1127.63,-1790.59 1180.26,-1801.51 1218,-1726.82 1228.46,-1706.12 1290.22,-1371.36 1308.13,-1273.49"/>
<polygon fill="#63b8ff" stroke="#63b8ff" points="1311.56,-1274.24 1309.91,-1263.77 1304.67,-1272.98 1311.56,-1274.24"/>
</g>
<!-- Node11 -->
<g id="node11" class="node">
<title>Node11</title>
<g id="a_node11"><a xlink:href="a01929.html#a354cbbaaea672c024ac949e1801c4302" target="_top" xlink:title="Parses a C&#45;style string from the BSON input.">
<polygon fill="white" stroke="#666666" points="1214.5,-1904.82 1094.5,-1904.82 1094.5,-1874.82 1214.5,-1874.82 1214.5,-1904.82"/>
<text text-anchor="start" x="1102.5" y="-1892.82" font-family="Helvetica,sans-Serif" font-size="10.00">nlohmann::detail::binary</text>
<text text-anchor="middle" x="1154.5" y="-1881.82" font-family="Helvetica,sans-Serif" font-size="10.00">_reader::get_bson_cstr</text>
</a>
</g>
</g>
<!-- Node10&#45;&gt;Node11 -->
<g id="edge12" class="edge">
<title>Node10&#45;&gt;Node11</title>
<path fill="none" stroke="#63b8ff" d="M635.7,-2096.24C716.31,-2130.05 921.47,-2200.98 1055,-2113.82 1123.38,-2069.19 1144.61,-1965.3 1150.94,-1916.3"/>
<polygon fill="#63b8ff" stroke="#63b8ff" points="1154.39,-1916.94 1152.07,-1906.6 1147.43,-1916.13 1154.39,-1916.94"/>
</g>
<!-- Node12 -->
<g id="node12" class="node">
<title>Node12</title>
<g id="a_node12"><a xlink:href="a01929.html#a61a0bd8bbe7b560bd429fa990ba3ba1a" target="_top" xlink:title=" ">
<polygon fill="white" stroke="#666666" points="1374,-1606.82 1254,-1606.82 1254,-1576.82 1374,-1576.82 1374,-1606.82"/>
<text text-anchor="start" x="1262" y="-1594.82" font-family="Helvetica,sans-Serif" font-size="10.00">nlohmann::detail::binary</text>
<text text-anchor="middle" x="1314" y="-1583.82" font-family="Helvetica,sans-Serif" font-size="10.00">_reader::unexpect_eof</text>
</a>
</g>
</g>
<!-- Node10&#45;&gt;Node12 -->
<g id="edge38" class="edge">
<title>Node10&#45;&gt;Node12</title>
<path fill="none" stroke="#63b8ff" d="M618.91,-2096.21C640.42,-2114.1 679,-2142.61 718,-2153.82 748.09,-2162.47 1053.51,-2148.63 1055,-2147.82 1258.2,-2037.57 1302.32,-1714.04 1311.02,-1618.61"/>
<polygon fill="#63b8ff" stroke="#63b8ff" points="1314.51,-1618.94 1311.86,-1608.68 1307.53,-1618.35 1314.51,-1618.94"/>
</g>
<!-- Node13 -->
<g id="node13" class="node">
<title>Node13</title>
<g id="a_node13"><a xlink:href="a01929.html#a23bde2450d7a5772bf5051e36ff560a4" target="_top" xlink:title="Read a BSON document element of the given element_type.">
<polygon fill="white" stroke="#666666" points="865,-2033.32 720,-2033.32 720,-1992.32 865,-1992.32 865,-2033.32"/>
<text text-anchor="start" x="728" y="-2021.32" font-family="Helvetica,sans-Serif" font-size="10.00">nlohmann::detail::binary</text>
<text text-anchor="start" x="728" y="-2010.32" font-family="Helvetica,sans-Serif" font-size="10.00">_reader::parse_bson_element</text>
<text text-anchor="middle" x="792.5" y="-1999.32" font-family="Helvetica,sans-Serif" font-size="10.00">_internal</text>
</a>
</g>
</g>
<!-- Node10&#45;&gt;Node13 -->
<g id="edge17" class="edge">
<title>Node10&#45;&gt;Node13</title>
<path fill="none" stroke="#63b8ff" d="M644.61,-2065.39C667.61,-2057.16 696.46,-2046.84 722.49,-2037.52"/>
<polygon fill="#63b8ff" stroke="#63b8ff" points="723.41,-2040.91 731.65,-2034.24 721.05,-2034.32 723.41,-2040.91"/>
</g>
<!-- Node11&#45;&gt;Node6 -->
<g id="edge13" class="edge">
<title>Node11&#45;&gt;Node6</title>
<path fill="none" stroke="#63b8ff" d="M1175.25,-1874.44C1189.59,-1862.11 1208.13,-1843.49 1218,-1822.82 1267.32,-1719.54 1235.65,-1680.8 1254,-1567.82 1271.82,-1458.11 1296.97,-1328.06 1307.76,-1273.25"/>
<polygon fill="#63b8ff" stroke="#63b8ff" points="1311.15,-1274.13 1309.66,-1263.64 1304.29,-1272.77 1311.15,-1274.13"/>
</g>
<!-- Node11&#45;&gt;Node12 -->
<g id="edge14" class="edge">
<title>Node11&#45;&gt;Node12</title>
<path fill="none" stroke="#63b8ff" d="M1200.5,-1874.38C1206.97,-1870.69 1213.09,-1866.22 1218,-1860.82 1282.78,-1789.58 1303.96,-1671.4 1310.4,-1618.67"/>
<polygon fill="#63b8ff" stroke="#63b8ff" points="1313.87,-1619.14 1311.51,-1608.81 1306.91,-1618.35 1313.87,-1619.14"/>
</g>
<!-- Node12&#45;&gt;Node2 -->
<g id="edge15" class="edge">
<title>Node12&#45;&gt;Node2</title>
<path fill="none" stroke="#63b8ff" d="M1322.3,-1606.92C1348.12,-1660.27 1435.27,-1840.39 1467.71,-1907.42"/>
<polygon fill="#63b8ff" stroke="#63b8ff" points="1464.43,-1908.68 1471.94,-1916.16 1470.73,-1905.63 1464.43,-1908.68"/>
</g>
<!-- Node12&#45;&gt;Node5 -->
<g id="edge16" class="edge">
<title>Node12&#45;&gt;Node5</title>
<path fill="none" stroke="#63b8ff" d="M1344,-1576.33C1355.15,-1568.89 1366.9,-1558.94 1374,-1546.82 1448.04,-1420.48 1473.61,-944.95 1478.89,-826.62"/>
<polygon fill="#63b8ff" stroke="#63b8ff" points="1482.39,-826.79 1479.33,-816.65 1475.4,-826.49 1482.39,-826.79"/>
</g>
<!-- Node13&#45;&gt;Node2 -->
<g id="edge18" class="edge">
<title>Node13&#45;&gt;Node2</title>
<path fill="none" stroke="#63b8ff" d="M865.47,-1996C924.33,-1986.88 1005.62,-1985.64 1055,-2032.82 1150.18,-2123.77 992.42,-2239.58 1091,-2326.82 1138.09,-2368.5 1324.09,-2365.08 1374,-2326.82 1433.76,-2281.02 1467.36,-2039.59 1477.04,-1959.02"/>
<polygon fill="#63b8ff" stroke="#63b8ff" points="1480.48,-1959.78 1478.17,-1949.44 1473.53,-1958.96 1480.48,-1959.78"/>
</g>
<!-- Node13&#45;&gt;Node6 -->
<g id="edge19" class="edge">
<title>Node13&#45;&gt;Node6</title>
<path fill="none" stroke="#63b8ff" d="M795.77,-1991.86C802.38,-1941.53 826.29,-1813.11 903,-1746.82 955.69,-1701.29 1001.69,-1753.62 1055,-1708.82 1085.16,-1683.48 1067.83,-1659.68 1091,-1627.82 1135.61,-1566.48 1175.77,-1576.83 1218,-1513.82 1270.77,-1435.1 1297.91,-1323.69 1308.12,-1273.34"/>
<polygon fill="#63b8ff" stroke="#63b8ff" points="1311.52,-1274.16 1310.01,-1263.67 1304.65,-1272.81 1311.52,-1274.16"/>
</g>
<!-- Node13&#45;&gt;Node9 -->
<g id="edge37" class="edge">
<title>Node13&#45;&gt;Node9</title>
<path fill="none" stroke="#63b8ff" d="M719.64,-2012.82C655.5,-2012.82 561.61,-2012.82 494.65,-2012.82"/>
<polygon fill="#63b8ff" stroke="#63b8ff" points="494.82,-2009.32 484.82,-2012.82 494.82,-2016.32 494.82,-2009.32"/>
</g>
<!-- Node14 -->
<g id="node14" class="node">
<title>Node14</title>
<g id="a_node14"><a xlink:href="a01929.html#a9940f56290b9278c58772eda2931e599" target="_top" xlink:title="Parses a byte array input of length len from the BSON input.">
<polygon fill="white" stroke="#666666" points="1042,-1909.82 916,-1909.82 916,-1879.82 1042,-1879.82 1042,-1909.82"/>
<text text-anchor="start" x="924" y="-1897.82" font-family="Helvetica,sans-Serif" font-size="10.00">nlohmann::detail::binary</text>
<text text-anchor="middle" x="979" y="-1886.82" font-family="Helvetica,sans-Serif" font-size="10.00">_reader::get_bson_binary</text>
</a>
</g>
</g>
<!-- Node13&#45;&gt;Node14 -->
<g id="edge20" class="edge">
<title>Node13&#45;&gt;Node14</title>
<path fill="none" stroke="#63b8ff" d="M826.06,-1992C859.39,-1970.68 910.94,-1937.71 944.58,-1916.2"/>
<polygon fill="#63b8ff" stroke="#63b8ff" points="946.17,-1919.33 952.71,-1911 942.4,-1913.44 946.17,-1919.33"/>
</g>
<!-- Node16 -->
<g id="node16" class="node">
<title>Node16</title>
<g id="a_node16"><a xlink:href="a01929.html#a23921422802aa472360dd05023e20565" target="_top" xlink:title="Parses a zero&#45;terminated string of length len from the BSON input.">
<polygon fill="white" stroke="#666666" points="1041,-1785.82 917,-1785.82 917,-1755.82 1041,-1755.82 1041,-1785.82"/>
<text text-anchor="start" x="925" y="-1773.82" font-family="Helvetica,sans-Serif" font-size="10.00">nlohmann::detail::binary</text>
<text text-anchor="middle" x="979" y="-1762.82" font-family="Helvetica,sans-Serif" font-size="10.00">_reader::get_bson_string</text>
</a>
</g>
</g>
<!-- Node13&#45;&gt;Node16 -->
<g id="edge27" class="edge">
<title>Node13&#45;&gt;Node16</title>
<path fill="none" stroke="#63b8ff" d="M809.23,-1992.19C843.15,-1947.71 923.02,-1842.94 959.38,-1795.24"/>
<polygon fill="#63b8ff" stroke="#63b8ff" points="962.05,-1797.52 965.33,-1787.44 956.48,-1793.27 962.05,-1797.52"/>
</g>
<!-- Node18 -->
<g id="node18" class="node">
<title>Node18</title>
<g id="a_node18"><a xlink:href="a01929.html#a23eb89a222e22533e9fd43e76722f44f" target="_top" xlink:title="Reads an array from the BSON input and passes it to the SAX&#45;parser.">
<polygon fill="white" stroke="#666666" points="1045,-2071.82 913,-2071.82 913,-2041.82 1045,-2041.82 1045,-2071.82"/>
<text text-anchor="start" x="921" y="-2059.82" font-family="Helvetica,sans-Serif" font-size="10.00">nlohmann::detail::binary</text>
<text text-anchor="middle" x="979" y="-2048.82" font-family="Helvetica,sans-Serif" font-size="10.00">_reader::parse_bson_array</text>
</a>
</g>
</g>
<!-- Node13&#45;&gt;Node18 -->
<g id="edge35" class="edge">
<title>Node13&#45;&gt;Node18</title>
<path fill="none" stroke="#63b8ff" d="M865.36,-2029.96C877.45,-2032.84 890.02,-2035.84 902.2,-2038.75"/>
<polygon fill="#63b8ff" stroke="#63b8ff" points="901.24,-2042.12 911.78,-2041.03 902.86,-2035.31 901.24,-2042.12"/>
</g>
<!-- Node14&#45;&gt;Node2 -->
<g id="edge21" class="edge">
<title>Node14&#45;&gt;Node2</title>
<path fill="none" stroke="#63b8ff" d="M1039.19,-1910.25C1045.23,-1913.86 1050.7,-1918.32 1055,-1923.82 1134.65,-2025.85 993.98,-2127.14 1091,-2212.82 1188.62,-2299.03 1280.73,-2227.71 1374,-2136.82 1427.04,-2085.14 1458.88,-2001.2 1472.39,-1958.92"/>
<polygon fill="#63b8ff" stroke="#63b8ff" points="1475.66,-1960.2 1475.27,-1949.61 1468.97,-1958.13 1475.66,-1960.2"/>
</g>
<!-- Node14&#45;&gt;Node5 -->
<g id="edge22" class="edge">
<title>Node14&#45;&gt;Node5</title>
<path fill="none" stroke="#63b8ff" d="M1037.39,-1910.2C1043.97,-1913.83 1050.07,-1918.31 1055,-1923.82 1096.96,-1970.76 1041.15,-2022.38 1091,-2060.82 1191.49,-2138.32 1291.36,-2119.13 1374,-2022.82 1414.43,-1975.71 1469.09,-1000.93 1478.57,-826.44"/>
<polygon fill="#63b8ff" stroke="#63b8ff" points="1482.06,-826.76 1479.1,-816.59 1475.07,-826.38 1482.06,-826.76"/>
</g>
<!-- Node14&#45;&gt;Node8 -->
<g id="edge26" class="edge">
<title>Node14&#45;&gt;Node8</title>
<path fill="none" stroke="#63b8ff" d="M995.96,-1879.6C1013.91,-1861.36 1042.21,-1828.97 1055,-1794.82 1093.37,-1692.37 1025.78,-1391.66 1091,-1303.82 1091.15,-1303.62 1091.31,-1303.42 1091.46,-1303.22"/>
<polygon fill="#63b8ff" stroke="#63b8ff" points="1093.79,-1305.83 1098.52,-1296.35 1088.91,-1300.81 1093.79,-1305.83"/>
</g>
<!-- Node15 -->
<g id="node15" class="node">
<title>Node15</title>
<g id="a_node15"><a xlink:href="a01929.html#a55e13d567a53234573ab3833c0ca32e9" target="_top" xlink:title="create a byte array by reading bytes from the input">
<polygon fill="white" stroke="#666666" points="1214.5,-1666.82 1094.5,-1666.82 1094.5,-1636.82 1214.5,-1636.82 1214.5,-1666.82"/>
<text text-anchor="start" x="1102.5" y="-1654.82" font-family="Helvetica,sans-Serif" font-size="10.00">nlohmann::detail::binary</text>
<text text-anchor="middle" x="1154.5" y="-1643.82" font-family="Helvetica,sans-Serif" font-size="10.00">_reader::get_binary</text>
</a>
</g>
</g>
<!-- Node14&#45;&gt;Node15 -->
<g id="edge23" class="edge">
<title>Node14&#45;&gt;Node15</title>
<path fill="none" stroke="#63b8ff" d="M991.89,-1879.38C1006.84,-1859.85 1033.21,-1825.13 1055,-1794.82 1084.59,-1753.66 1117.81,-1704.87 1137.12,-1676.23"/>
<polygon fill="#63b8ff" stroke="#63b8ff" points="1139.82,-1678.5 1142.5,-1668.25 1134.01,-1674.59 1139.82,-1678.5"/>
</g>
<!-- Node15&#45;&gt;Node6 -->
<g id="edge24" class="edge">
<title>Node15&#45;&gt;Node6</title>
<path fill="none" stroke="#63b8ff" d="M1173.9,-1636.56C1187.89,-1624.01 1206.62,-1605.07 1218,-1584.82 1277.56,-1478.93 1301.96,-1333.03 1309.85,-1273.62"/>
<polygon fill="#63b8ff" stroke="#63b8ff" points="1313.31,-1274.16 1311.1,-1263.8 1306.37,-1273.28 1313.31,-1274.16"/>
</g>
<!-- Node15&#45;&gt;Node12 -->
<g id="edge25" class="edge">
<title>Node15&#45;&gt;Node12</title>
<path fill="none" stroke="#63b8ff" d="M1196.06,-1636.37C1216.18,-1628.71 1240.68,-1619.37 1262.05,-1611.23"/>
<polygon fill="#63b8ff" stroke="#63b8ff" points="1263.06,-1614.59 1271.16,-1607.76 1260.57,-1608.05 1263.06,-1614.59"/>
</g>
<!-- Node16&#45;&gt;Node2 -->
<g id="edge28" class="edge">
<title>Node16&#45;&gt;Node2</title>
<path fill="none" stroke="#63b8ff" d="M995.46,-1786.25C1012.94,-1804.67 1040.8,-1837.24 1055,-1870.82 1094.95,-1965.31 1013.01,-2032.18 1091,-2098.82 1138.81,-2139.68 1318.85,-2129.04 1374,-2098.82 1428.49,-2068.97 1459.03,-1997.87 1472.17,-1959.11"/>
<polygon fill="#63b8ff" stroke="#63b8ff" points="1475.48,-1960.23 1475.23,-1949.64 1468.82,-1958.08 1475.48,-1960.23"/>
</g>
<!-- Node16&#45;&gt;Node5 -->
<g id="edge29" class="edge">
<title>Node16&#45;&gt;Node5</title>
<path fill="none" stroke="#63b8ff" d="M1002.49,-1786.07C1019.05,-1798.33 1041.03,-1816.92 1055,-1837.82 1081.94,-1878.15 1051.46,-1912.75 1091,-1940.82 1211.59,-2026.42 1313.88,-1900.93 1374,-1765.82 1451.99,-1590.56 1475.06,-964.44 1479.25,-826.74"/>
<polygon fill="#63b8ff" stroke="#63b8ff" points="1482.74,-826.91 1479.54,-816.81 1475.75,-826.7 1482.74,-826.91"/>
</g>
<!-- Node16&#45;&gt;Node6 -->
<g id="edge30" class="edge">
<title>Node16&#45;&gt;Node6</title>
<path fill="none" stroke="#63b8ff" d="M1041.38,-1762.67C1095.87,-1752.12 1173.54,-1728.39 1218,-1675.82 1244.52,-1644.46 1293.66,-1362.24 1308.58,-1273.44"/>
<polygon fill="#63b8ff" stroke="#63b8ff" points="1312.01,-1274.18 1310.21,-1263.74 1305.11,-1273.02 1312.01,-1274.18"/>
</g>
<!-- Node16&#45;&gt;Node8 -->
<g id="edge34" class="edge">
<title>Node16&#45;&gt;Node8</title>
<path fill="none" stroke="#63b8ff" d="M1008.06,-1755.41C1024.7,-1744.67 1044.54,-1728.71 1055,-1708.82 1097.07,-1628.86 1036.58,-1375.95 1091,-1303.82 1091.24,-1303.51 1091.48,-1303.2 1091.72,-1302.9"/>
<polygon fill="#63b8ff" stroke="#63b8ff" points="1093.98,-1305.58 1098.84,-1296.17 1089.17,-1300.49 1093.98,-1305.58"/>
</g>
<!-- Node17 -->
<g id="node17" class="node">
<title>Node17</title>
<g id="a_node17"><a xlink:href="a01929.html#a540919db22df36512f05a88945c13263" target="_top" xlink:title="create a string by reading characters from the input">
<polygon fill="white" stroke="#666666" points="1214.5,-1504.82 1094.5,-1504.82 1094.5,-1474.82 1214.5,-1474.82 1214.5,-1504.82"/>
<text text-anchor="start" x="1102.5" y="-1492.82" font-family="Helvetica,sans-Serif" font-size="10.00">nlohmann::detail::binary</text>
<text text-anchor="middle" x="1154.5" y="-1481.82" font-family="Helvetica,sans-Serif" font-size="10.00">_reader::get_string</text>
</a>
</g>
</g>
<!-- Node16&#45;&gt;Node17 -->
<g id="edge31" class="edge">
<title>Node16&#45;&gt;Node17</title>
<path fill="none" stroke="#63b8ff" d="M1003.78,-1755.53C1019.91,-1744.2 1040.81,-1727.53 1055,-1708.82 1078.81,-1677.44 1074.87,-1663.77 1091,-1627.82 1108.6,-1588.6 1129.21,-1543.19 1141.81,-1515.5"/>
<polygon fill="#63b8ff" stroke="#63b8ff" points="1144.94,-1517.05 1145.9,-1506.5 1138.57,-1514.15 1144.94,-1517.05"/>
</g>
<!-- Node17&#45;&gt;Node6 -->
<g id="edge32" class="edge">
<title>Node17&#45;&gt;Node6</title>
<path fill="none" stroke="#63b8ff" d="M1199.5,-1474.39C1206.25,-1470.68 1212.72,-1466.2 1218,-1460.82 1271.28,-1406.65 1297.4,-1317.49 1307.62,-1273.32"/>
<polygon fill="#63b8ff" stroke="#63b8ff" points="1311.03,-1274.12 1309.76,-1263.6 1304.19,-1272.61 1311.03,-1274.12"/>
</g>
<!-- Node17&#45;&gt;Node12 -->
<g id="edge33" class="edge">
<title>Node17&#45;&gt;Node12</title>
<path fill="none" stroke="#63b8ff" d="M1179.42,-1505.32C1206.09,-1522.59 1249.43,-1550.65 1279.48,-1570.11"/>
<polygon fill="#63b8ff" stroke="#63b8ff" points="1277.55,-1573.03 1287.84,-1575.53 1281.35,-1567.16 1277.55,-1573.03"/>
</g>
<!-- Node18&#45;&gt;Node10 -->
<g id="edge36" class="edge">
<title>Node18&#45;&gt;Node10</title>
<path fill="none" stroke="#63b8ff" d="M912.7,-2060.99C852.1,-2064.85 761.29,-2070.64 693.39,-2074.97"/>
<polygon fill="#63b8ff" stroke="#63b8ff" points="693.54,-2071.45 683.78,-2075.58 693.98,-2078.44 693.54,-2071.45"/>
</g>
<!-- Node19&#45;&gt;Node2 -->
<g id="edge40" class="edge">
<title>Node19&#45;&gt;Node2</title>
<path fill="none" stroke="#63b8ff" d="M607.44,-1216.28C622.16,-1253.23 663.1,-1348.47 718,-1413.82 772.51,-1478.72 826.75,-1458.24 867,-1532.82 907.92,-1608.64 845.87,-1854.34 903,-1918.82 948.84,-1970.57 1008.42,-1900.75 1055,-1951.82 1143.71,-2049.09 992.42,-2158.58 1091,-2245.82 1138.77,-2288.1 1327.08,-2241.04 1374,-2197.82 1445.17,-2132.26 1469.44,-2012.51 1476.95,-1959.41"/>
<polygon fill="#63b8ff" stroke="#63b8ff" points="1480.39,-1960.14 1478.22,-1949.76 1473.44,-1959.22 1480.39,-1960.14"/>
</g>
<!-- Node19&#45;&gt;Node5 -->
<g id="edge41" class="edge">
<title>Node19&#45;&gt;Node5</title>
<path fill="none" stroke="#63b8ff" d="M611.24,-1185.67C645.49,-1133.34 765.84,-957.7 903,-852.82 1040.54,-747.66 1085.2,-722.34 1254,-683.82 1306,-671.96 1325.2,-662.31 1374,-683.82 1416.02,-702.35 1448.61,-746.66 1466,-774.84"/>
<polygon fill="#63b8ff" stroke="#63b8ff" points="1462.81,-776.32 1470.94,-783.12 1468.82,-772.74 1462.81,-776.32"/>
</g>
<!-- Node19&#45;&gt;Node6 -->
<g id="edge42" class="edge">
<title>Node19&#45;&gt;Node6</title>
<path fill="none" stroke="#63b8ff" d="M619.33,-1185.33C640.96,-1167.66 679.35,-1139.8 718,-1128.82 931.8,-1068.09 1017.42,-1042.08 1218,-1137.82 1255.2,-1155.58 1283.76,-1195.4 1299.46,-1221.68"/>
<polygon fill="#63b8ff" stroke="#63b8ff" points="1296.25,-1223.11 1304.27,-1230.03 1302.32,-1219.62 1296.25,-1223.11"/>
</g>
<!-- Node19&#45;&gt;Node8 -->
<g id="edge71" class="edge">
<title>Node19&#45;&gt;Node8</title>
<path fill="none" stroke="#63b8ff" d="M637.81,-1216.26C660.45,-1225.22 690.44,-1235.87 718,-1241.82 842.95,-1268.81 992.01,-1276.74 1079.36,-1279"/>
<polygon fill="#63b8ff" stroke="#63b8ff" points="1079.15,-1282.5 1089.23,-1279.24 1079.32,-1275.5 1079.15,-1282.5"/>
</g>
<!-- Node19&#45;&gt;Node12 -->
<g id="edge73" class="edge">
<title>Node19&#45;&gt;Node12</title>
<path fill="none" stroke="#63b8ff" d="M607.53,-1216.21C621.61,-1250.16 659.93,-1331.9 718,-1375.82 773.49,-1417.79 821.17,-1371.47 867,-1423.82 926.2,-1491.45 841.58,-1557.21 903,-1622.82 950.59,-1673.66 988.9,-1638.93 1055,-1660.82 1071.45,-1666.27 1074,-1672.42 1091,-1675.82 1146.35,-1686.89 1169.28,-1704.32 1218,-1675.82 1243.31,-1661.02 1231.93,-1637.98 1252.19,-1615.02"/>
<polygon fill="#63b8ff" stroke="#63b8ff" points="1254.44,-1617.71 1259.28,-1608.29 1249.62,-1612.63 1254.44,-1617.71"/>
</g>
<!-- Node19&#45;&gt;Node19 -->
<g id="edge72" class="edge">
<title>Node19&#45;&gt;Node19</title>
<path fill="none" stroke="#63b8ff" d="M567.37,-1216.1C560,-1225.23 571.05,-1233.82 600.5,-1233.82 616.61,-1233.82 627.21,-1231.25 632.31,-1227.43"/>
<polygon fill="#63b8ff" stroke="#63b8ff" points="635.77,-1227.94 633.46,-1217.6 628.82,-1227.13 635.77,-1227.94"/>
</g>
<!-- Node20 -->
<g id="node20" class="node">
<title>Node20</title>
<g id="a_node20"><a xlink:href="a01929.html#a3750658328bf3ec3cf23f1626f9ec3af" target="_top" xlink:title=" ">
<polygon fill="white" stroke="#666666" points="852.5,-1167.82 732.5,-1167.82 732.5,-1137.82 852.5,-1137.82 852.5,-1167.82"/>
<text text-anchor="start" x="740.5" y="-1155.82" font-family="Helvetica,sans-Serif" font-size="10.00">nlohmann::detail::binary</text>
<text text-anchor="middle" x="792.5" y="-1144.82" font-family="Helvetica,sans-Serif" font-size="10.00">_reader::get_cbor_array</text>
</a>
</g>
</g>
<!-- Node19&#45;&gt;Node20 -->
<g id="edge43" class="edge">
<title>Node19&#45;&gt;Node20</title>
<path fill="none" stroke="#63b8ff" d="M640.41,-1185.42C663.6,-1178.45 693.73,-1170.52 720.98,-1164.09"/>
<polygon fill="#63b8ff" stroke="#63b8ff" points="721.62,-1167.54 730.58,-1161.87 720.05,-1160.72 721.62,-1167.54"/>
</g>
<!-- Node21 -->
<g id="node21" class="node">
<title>Node21</title>
<g id="a_node21"><a xlink:href="a01929.html#acb001d18095dc5bcf7336ae5122b8340" target="_top" xlink:title="reads a CBOR byte array">
<polygon fill="white" stroke="#666666" points="1041,-1547.82 917,-1547.82 917,-1517.82 1041,-1517.82 1041,-1547.82"/>
<text text-anchor="start" x="925" y="-1535.82" font-family="Helvetica,sans-Serif" font-size="10.00">nlohmann::detail::binary</text>
<text text-anchor="middle" x="979" y="-1524.82" font-family="Helvetica,sans-Serif" font-size="10.00">_reader::get_cbor_binary</text>
</a>
</g>
</g>
<!-- Node19&#45;&gt;Node21 -->
<g id="edge46" class="edge">
<title>Node19&#45;&gt;Node21</title>
<path fill="none" stroke="#63b8ff" d="M610.36,-1215.99C627.54,-1244.11 668.15,-1304.53 718,-1337.82 775.86,-1376.47 810.29,-1345.52 867,-1385.82 912.43,-1418.11 947.46,-1474.58 965.18,-1507.33"/>
<polygon fill="#63b8ff" stroke="#63b8ff" points="962.06,-1508.9 969.81,-1516.12 968.25,-1505.64 962.06,-1508.9"/>
</g>
<!-- Node22 -->
<g id="node22" class="node">
<title>Node22</title>
<g id="a_node22"><a xlink:href="a01929.html#ac356c6364fe0273d3303fb7a447f4ef6" target="_top" xlink:title=" ">
<polygon fill="white" stroke="#666666" points="1214.5,-1342.82 1094.5,-1342.82 1094.5,-1312.82 1214.5,-1312.82 1214.5,-1342.82"/>
<text text-anchor="start" x="1102.5" y="-1330.82" font-family="Helvetica,sans-Serif" font-size="10.00">nlohmann::detail::binary</text>
<text text-anchor="middle" x="1154.5" y="-1319.82" font-family="Helvetica,sans-Serif" font-size="10.00">_reader::get_number</text>
</a>
</g>
</g>
<!-- Node19&#45;&gt;Node22 -->
<g id="edge70" class="edge">
<title>Node19&#45;&gt;Node22</title>
<path fill="none" stroke="#63b8ff" d="M623.75,-1216.14C646.52,-1231.19 683.37,-1253.88 718,-1267.82 839.62,-1316.8 994.12,-1327.06 1082.61,-1328.52"/>
<polygon fill="#63b8ff" stroke="#63b8ff" points="1082.56,-1332.02 1092.61,-1328.64 1082.65,-1325.02 1082.56,-1332.02"/>
</g>
<!-- Node23 -->
<g id="node23" class="node">
<title>Node23</title>
<g id="a_node23"><a xlink:href="a01929.html#a47092a2195bf9cd3cdb4dda67cc404ed" target="_top" xlink:title=" ">
<polygon fill="white" stroke="#666666" points="854.5,-1215.82 730.5,-1215.82 730.5,-1185.82 854.5,-1185.82 854.5,-1215.82"/>
<text text-anchor="start" x="738.5" y="-1203.82" font-family="Helvetica,sans-Serif" font-size="10.00">nlohmann::detail::binary</text>
<text text-anchor="middle" x="792.5" y="-1192.82" font-family="Helvetica,sans-Serif" font-size="10.00">_reader::get_cbor_object</text>
</a>
</g>
</g>
<!-- Node19&#45;&gt;Node23 -->
<g id="edge57" class="edge">
<title>Node19&#45;&gt;Node23</title>
<path fill="none" stroke="#63b8ff" d="M670.9,-1194.3C686.51,-1194.02 703.12,-1194 718.86,-1194.24"/>
<polygon fill="#63b8ff" stroke="#63b8ff" points="718.56,-1197.74 728.62,-1194.43 718.7,-1190.74 718.56,-1197.74"/>
</g>
<!-- Node24 -->
<g id="node24" class="node">
<title>Node24</title>
<g id="a_node24"><a xlink:href="a01929.html#a545a44ae4b3fa2b7a61d9e8517fb7154" target="_top" xlink:title="reads a CBOR string">
<polygon fill="white" stroke="#666666" points="1040,-1215.82 918,-1215.82 918,-1185.82 1040,-1185.82 1040,-1215.82"/>
<text text-anchor="start" x="926" y="-1203.82" font-family="Helvetica,sans-Serif" font-size="10.00">nlohmann::detail::binary</text>
<text text-anchor="middle" x="979" y="-1192.82" font-family="Helvetica,sans-Serif" font-size="10.00">_reader::get_cbor_string</text>
</a>
</g>
</g>
<!-- Node19&#45;&gt;Node24 -->
<g id="edge69" class="edge">
<title>Node19&#45;&gt;Node24</title>
<path fill="none" stroke="#63b8ff" d="M664.93,-1216.32C682.05,-1219.84 700.64,-1223.05 718,-1224.82 783.88,-1231.54 801.15,-1231.86 867,-1224.82 879.81,-1223.45 893.32,-1221.22 906.33,-1218.65"/>
<polygon fill="#63b8ff" stroke="#63b8ff" points="907.03,-1222.08 916.12,-1216.63 905.62,-1215.22 907.03,-1222.08"/>
</g>
<!-- Node20&#45;&gt;Node6 -->
<g id="edge44" class="edge">
<title>Node20&#45;&gt;Node6</title>
<path fill="none" stroke="#63b8ff" d="M852.79,-1143.78C937.03,-1133.43 1094.81,-1123.37 1218,-1169.82 1247.63,-1181 1274.98,-1205.29 1292.65,-1223.62"/>
<polygon fill="#63b8ff" stroke="#63b8ff" points="1289.65,-1225.53 1299.03,-1230.45 1294.76,-1220.75 1289.65,-1225.53"/>
</g>
<!-- Node20&#45;&gt;Node19 -->
<g id="edge45" class="edge">
<title>Node20&#45;&gt;Node19</title>
<path fill="none" stroke="#63b8ff" d="M752.37,-1168.29C732.01,-1174.4 706.34,-1181.25 681.98,-1187.17"/>
<polygon fill="#63b8ff" stroke="#63b8ff" points="681.29,-1183.74 672.37,-1189.47 682.91,-1190.55 681.29,-1183.74"/>
</g>
<!-- Node21&#45;&gt;Node2 -->
<g id="edge47" class="edge">
<title>Node21&#45;&gt;Node2</title>
<path fill="none" stroke="#63b8ff" d="M1023.2,-1548.13C1035.37,-1554.53 1047.36,-1563.24 1055,-1574.82 1096.71,-1638.06 1035.93,-1861.8 1091,-1913.82 1179.09,-1997.03 1334.47,-1973.05 1419.76,-1951.18"/>
<polygon fill="#63b8ff" stroke="#63b8ff" points="1420.58,-1954.59 1429.35,-1948.65 1418.79,-1947.82 1420.58,-1954.59"/>
</g>
<!-- Node21&#45;&gt;Node5 -->
<g id="edge48" class="edge">
<title>Node21&#45;&gt;Node5</title>
<path fill="none" stroke="#63b8ff" d="M1041.45,-1542.21C1092.36,-1546.81 1164.76,-1545.73 1218,-1513.82 1469.11,-1363.35 1481.78,-937.99 1480.67,-826.73"/>
<polygon fill="#63b8ff" stroke="#63b8ff" points="1484.17,-826.76 1480.52,-816.81 1477.17,-826.86 1484.17,-826.76"/>
</g>
<!-- Node21&#45;&gt;Node6 -->
<g id="edge49" class="edge">
<title>Node21&#45;&gt;Node6</title>
<path fill="none" stroke="#63b8ff" d="M1029.18,-1517.43C1038.13,-1513.63 1047.12,-1509.11 1055,-1503.82 1074.32,-1490.87 1071.41,-1478.37 1091,-1465.82 1141.19,-1433.69 1172.47,-1461.27 1218,-1422.82 1265.86,-1382.41 1293.45,-1311.55 1305.56,-1273.23"/>
<polygon fill="#63b8ff" stroke="#63b8ff" points="1308.91,-1274.26 1308.46,-1263.68 1302.21,-1272.23 1308.91,-1274.26"/>
</g>
<!-- Node21&#45;&gt;Node8 -->
<g id="edge55" class="edge">
<title>Node21&#45;&gt;Node8</title>
<path fill="none" stroke="#63b8ff" d="M985.78,-1517.34C1003.27,-1471.12 1056.59,-1335.43 1091,-1303.82 1091.9,-1303 1092.83,-1302.2 1093.79,-1301.43"/>
<polygon fill="#63b8ff" stroke="#63b8ff" points="1095.46,-1304.52 1101.78,-1296.02 1091.53,-1298.73 1095.46,-1304.52"/>
</g>
<!-- Node21&#45;&gt;Node12 -->
<g id="edge56" class="edge">
<title>Node21&#45;&gt;Node12</title>
<path fill="none" stroke="#63b8ff" d="M1041.47,-1543.71C1098.31,-1553.79 1182.77,-1568.75 1242.37,-1579.31"/>
<polygon fill="#63b8ff" stroke="#63b8ff" points="1241.63,-1582.73 1252.08,-1581.03 1242.85,-1575.84 1241.63,-1582.73"/>
</g>
<!-- Node21&#45;&gt;Node15 -->
<g id="edge50" class="edge">
<title>Node21&#45;&gt;Node15</title>
<path fill="none" stroke="#63b8ff" d="M1014.43,-1548.26C1027.91,-1555.25 1042.98,-1564.31 1055,-1574.82 1075.07,-1592.38 1070.28,-1606.04 1091,-1622.82 1094.61,-1625.75 1098.56,-1628.45 1102.66,-1630.93"/>
<polygon fill="#63b8ff" stroke="#63b8ff" points="1100.67,-1633.83 1111.11,-1635.59 1104.05,-1627.7 1100.67,-1633.83"/>
</g>
<!-- Node21&#45;&gt;Node21 -->
<g id="edge51" class="edge">
<title>Node21&#45;&gt;Node21</title>
<path fill="none" stroke="#63b8ff" d="M948.15,-1548.1C941.29,-1557.23 951.58,-1565.82 979,-1565.82 994,-1565.82 1003.87,-1563.25 1008.61,-1559.43"/>
<polygon fill="#63b8ff" stroke="#63b8ff" points="1012.08,-1559.92 1009.69,-1549.6 1005.12,-1559.16 1012.08,-1559.92"/>
</g>
<!-- Node21&#45;&gt;Node22 -->
<g id="edge52" class="edge">
<title>Node21&#45;&gt;Node22</title>
<path fill="none" stroke="#63b8ff" d="M993.04,-1517.42C1023.07,-1481.93 1097.27,-1394.26 1133.27,-1351.73"/>
<polygon fill="#63b8ff" stroke="#63b8ff" points="1135.78,-1354.18 1139.57,-1344.29 1130.43,-1349.66 1135.78,-1354.18"/>
</g>
<!-- Node22&#45;&gt;Node6 -->
<g id="edge53" class="edge">
<title>Node22&#45;&gt;Node6</title>
<path fill="none" stroke="#63b8ff" d="M1198.62,-1312.4C1205.19,-1309.72 1211.84,-1306.83 1218,-1303.82 1239.35,-1293.42 1262.2,-1279.79 1280.14,-1268.47"/>
<polygon fill="#63b8ff" stroke="#63b8ff" points="1282,-1271.44 1288.55,-1263.1 1278.23,-1265.54 1282,-1271.44"/>
</g>
<!-- Node22&#45;&gt;Node12 -->
<g id="edge54" class="edge">
<title>Node22&#45;&gt;Node12</title>
<path fill="none" stroke="#63b8ff" d="M1164.65,-1343.16C1190.75,-1386.9 1265.74,-1512.61 1297.98,-1566.64"/>
<polygon fill="#63b8ff" stroke="#63b8ff" points="1294.92,-1568.35 1303.05,-1575.15 1300.93,-1564.77 1294.92,-1568.35"/>
</g>
<!-- Node23&#45;&gt;Node6 -->
<g id="edge58" class="edge">
<title>Node23&#45;&gt;Node6</title>
<path fill="none" stroke="#63b8ff" d="M853.07,-1185.33C869.16,-1181.81 886.65,-1178.59 903,-1176.82 1042.73,-1161.69 1083.45,-1164.2 1218,-1204.82 1236.73,-1210.48 1256.64,-1218.88 1273.38,-1226.69"/>
<polygon fill="#63b8ff" stroke="#63b8ff" points="1271.45,-1229.65 1281.98,-1230.79 1274.46,-1223.33 1271.45,-1229.65"/>
</g>
<!-- Node23&#45;&gt;Node19 -->
<g id="edge68" class="edge">
<title>Node23&#45;&gt;Node19</title>
<path fill="none" stroke="#63b8ff" d="M730.14,-1207.18C714.78,-1207.55 698.08,-1207.66 681.95,-1207.5"/>
<polygon fill="#63b8ff" stroke="#63b8ff" points="682.46,-1204.01 672.41,-1207.37 682.37,-1211.01 682.46,-1204.01"/>
</g>
<!-- Node23&#45;&gt;Node24 -->
<g id="edge59" class="edge">
<title>Node23&#45;&gt;Node24</title>
<path fill="none" stroke="#63b8ff" d="M854.94,-1200.82C871.53,-1200.82 889.63,-1200.82 906.72,-1200.82"/>
<polygon fill="#63b8ff" stroke="#63b8ff" points="906.26,-1204.32 916.26,-1200.82 906.26,-1197.32 906.26,-1204.32"/>
</g>
<!-- Node24&#45;&gt;Node2 -->
<g id="edge60" class="edge">
<title>Node24&#45;&gt;Node2</title>
<path fill="none" stroke="#63b8ff" d="M1030.37,-1185.35C1114.13,-1163.07 1281.91,-1133.76 1374,-1222.82 1474.15,-1319.7 1480.22,-1789.01 1480.15,-1906.24"/>
<polygon fill="#63b8ff" stroke="#63b8ff" points="1476.65,-1906.1 1480.12,-1916.11 1483.65,-1906.12 1476.65,-1906.1"/>
</g>
<!-- Node24&#45;&gt;Node5 -->
<g id="edge61" class="edge">
<title>Node24&#45;&gt;Node5</title>
<path fill="none" stroke="#63b8ff" d="M998.37,-1185.4C1020.3,-1167.03 1058.15,-1135.48 1091,-1108.82 1225.05,-1000.05 1387.28,-872.47 1451.68,-821.99"/>
<polygon fill="#63b8ff" stroke="#63b8ff" points="1453.55,-824.97 1459.27,-816.05 1449.24,-819.46 1453.55,-824.97"/>
</g>
<!-- Node24&#45;&gt;Node6 -->
<g id="edge62" class="edge">
<title>Node24&#45;&gt;Node6</title>
<path fill="none" stroke="#63b8ff" d="M1040.49,-1203.82C1088.8,-1206.83 1158.08,-1212.55 1218,-1222.82 1227.34,-1224.42 1237.11,-1226.47 1246.69,-1228.68"/>
<polygon fill="#63b8ff" stroke="#63b8ff" points="1245.79,-1232.06 1256.33,-1230.99 1247.42,-1225.25 1245.79,-1232.06"/>
</g>
<!-- Node24&#45;&gt;Node8 -->
<g id="edge66" class="edge">
<title>Node24&#45;&gt;Node8</title>
<path fill="none" stroke="#63b8ff" d="M1013.86,-1216.24C1041.21,-1228.69 1079.9,-1246.31 1109.62,-1259.84"/>
<polygon fill="#63b8ff" stroke="#63b8ff" points="1107.79,-1262.86 1118.34,-1263.82 1110.69,-1256.49 1107.79,-1262.86"/>
</g>
<!-- Node24&#45;&gt;Node12 -->
<g id="edge67" class="edge">
<title>Node24&#45;&gt;Node12</title>
<path fill="none" stroke="#63b8ff" d="M1040.37,-1207.73C1102.23,-1216.01 1192.82,-1231.84 1218,-1255.82 1306.88,-1340.5 1314.59,-1501.45 1313.93,-1565.03"/>
<polygon fill="#63b8ff" stroke="#63b8ff" points="1310.44,-1564.81 1313.74,-1574.88 1317.43,-1564.95 1310.44,-1564.81"/>
</g>
<!-- Node24&#45;&gt;Node17 -->
<g id="edge65" class="edge">
<title>Node24&#45;&gt;Node17</title>
<path fill="none" stroke="#63b8ff" d="M989.08,-1215.95C1017.3,-1262.96 1103.64,-1406.76 1138.58,-1464.97"/>
<polygon fill="#63b8ff" stroke="#63b8ff" points="1135.37,-1466.42 1143.52,-1473.2 1141.37,-1462.82 1135.37,-1466.42"/>
</g>
<!-- Node24&#45;&gt;Node22 -->
<g id="edge64" class="edge">
<title>Node24&#45;&gt;Node22</title>
<path fill="none" stroke="#63b8ff" d="M992.92,-1216.05C1012.28,-1238.04 1050.84,-1278.79 1091,-1303.82 1092.89,-1305 1094.84,-1306.13 1096.84,-1307.23"/>
<polygon fill="#63b8ff" stroke="#63b8ff" points="1095.26,-1310.35 1105.78,-1311.66 1098.37,-1304.08 1095.26,-1310.35"/>
</g>
<!-- Node24&#45;&gt;Node24 -->
<g id="edge63" class="edge">
<title>Node24&#45;&gt;Node24</title>
<path fill="none" stroke="#63b8ff" d="M948.15,-1216.1C941.29,-1225.23 951.58,-1233.82 979,-1233.82 994,-1233.82 1003.87,-1231.25 1008.61,-1227.43"/>
<polygon fill="#63b8ff" stroke="#63b8ff" points="1012.08,-1227.92 1009.69,-1217.6 1005.12,-1227.16 1012.08,-1227.92"/>
</g>
<!-- Node25&#45;&gt;Node2 -->
<g id="edge75" class="edge">
<title>Node25&#45;&gt;Node2</title>
<path fill="none" stroke="#63b8ff" d="M615.08,-1658.74C635.58,-1689.61 676.46,-1748.48 718,-1792.82 792.11,-1871.95 806.71,-1902 903,-1951.82 964.85,-1983.82 1008.94,-1937.6 1055,-1989.82 1143.54,-2090.2 990.86,-2200.02 1091,-2288.82 1138.05,-2330.55 1323.58,-2326.42 1374,-2288.82 1428.24,-2248.38 1464.77,-2035.09 1476.19,-1959.45"/>
<polygon fill="#63b8ff" stroke="#63b8ff" points="1479.64,-1960.05 1477.64,-1949.65 1472.72,-1959.03 1479.64,-1960.05"/>
</g>
<!-- Node25&#45;&gt;Node5 -->
<g id="edge76" class="edge">
<title>Node25&#45;&gt;Node5</title>
<path fill="none" stroke="#63b8ff" d="M616.43,-1617.2C636.28,-1591.73 674.03,-1549.72 718,-1532.82 779.82,-1509.08 817.09,-1489.3 867,-1532.82 955.59,-1610.07 834.53,-1699.29 903,-1794.82 947,-1856.21 1004.75,-1814.44 1055,-1870.82 1086.15,-1905.78 1052.65,-1942.96 1091,-1969.82 1200.76,-2046.7 1305,-1980.69 1374,-1865.82 1483.69,-1683.22 1481.95,-973.86 1480.37,-826.66"/>
<polygon fill="#63b8ff" stroke="#63b8ff" points="1483.87,-826.72 1480.25,-816.76 1476.87,-826.8 1483.87,-826.72"/>
</g>
<!-- Node25&#45;&gt;Node6 -->
<g id="edge77" class="edge">
<title>Node25&#45;&gt;Node6</title>
<path fill="none" stroke="#63b8ff" d="M613.45,-1617.29C632.03,-1587.15 670.67,-1531.13 718,-1499.82 862.69,-1404.12 924.12,-1432.21 1091,-1384.82 1147.1,-1368.9 1168.12,-1382.05 1218,-1351.82 1251.63,-1331.44 1280.32,-1295.54 1297.12,-1271.46"/>
<polygon fill="#63b8ff" stroke="#63b8ff" points="1299.8,-1273.75 1302.52,-1263.51 1294.01,-1269.82 1299.8,-1273.75"/>
</g>
<!-- Node25&#45;&gt;Node8 -->
<g id="edge95" class="edge">
<title>Node25&#45;&gt;Node8</title>
<path fill="none" stroke="#63b8ff" d="M662.89,-1625.08C740.75,-1608.86 865.21,-1582.7 867,-1580.82 935.04,-1509.4 838.8,-1436.71 903,-1361.82 926.26,-1334.69 1014.41,-1310.14 1079.59,-1295.12"/>
<polygon fill="#63b8ff" stroke="#63b8ff" points="1080.2,-1298.57 1089.18,-1292.94 1078.66,-1291.74 1080.2,-1298.57"/>
</g>
<!-- Node25&#45;&gt;Node12 -->
<g id="edge96" class="edge">
<title>Node25&#45;&gt;Node12</title>
<path fill="none" stroke="#63b8ff" d="M617.65,-1658.8C638.22,-1684.02 676.13,-1725.82 718,-1748.82 850.48,-1821.62 906.78,-1824.5 1055,-1794.82 1131.97,-1779.41 1156.79,-1775.96 1218,-1726.82 1255.82,-1696.46 1285.15,-1647.25 1300.69,-1617.38"/>
<polygon fill="#63b8ff" stroke="#63b8ff" points="1303.7,-1619.17 1305.1,-1608.67 1297.46,-1616.01 1303.7,-1619.17"/>
</g>
<!-- Node25&#45;&gt;Node22 -->
<g id="edge94" class="edge">
<title>Node25&#45;&gt;Node22</title>
<path fill="none" stroke="#63b8ff" d="M662.78,-1650.59C722.03,-1659.13 810.85,-1661.39 867,-1613.82 915.36,-1572.85 864.83,-1526.43 903,-1475.82 951.72,-1411.23 1037.54,-1369.52 1094.96,-1347.36"/>
<polygon fill="#63b8ff" stroke="#63b8ff" points="1096.15,-1350.65 1104.28,-1343.85 1093.68,-1344.1 1096.15,-1350.65"/>
</g>
<!-- Node26 -->
<g id="node26" class="node">
<title>Node26</title>
<g id="a_node26"><a xlink:href="a01929.html#a0ce1d7066597952efb008aaf578b2bd6" target="_top" xlink:title=" ">
<polygon fill="white" stroke="#666666" points="862.5,-1571.82 722.5,-1571.82 722.5,-1541.82 862.5,-1541.82 862.5,-1571.82"/>
<text text-anchor="start" x="730.5" y="-1559.82" font-family="Helvetica,sans-Serif" font-size="10.00">nlohmann::detail::binary</text>
<text text-anchor="middle" x="792.5" y="-1548.82" font-family="Helvetica,sans-Serif" font-size="10.00">_reader::get_msgpack_array</text>
</a>
</g>
</g>
<!-- Node25&#45;&gt;Node26 -->
<g id="edge78" class="edge">
<title>Node25&#45;&gt;Node26</title>
<path fill="none" stroke="#63b8ff" d="M631.03,-1616.88C654.49,-1604.5 688.19,-1589.35 718,-1576.82 718.23,-1576.73 718.46,-1576.63 718.69,-1576.53"/>
<polygon fill="#63b8ff" stroke="#63b8ff" points="719.96,-1579.8 727.87,-1572.75 717.29,-1573.33 719.96,-1579.8"/>
</g>
<!-- Node27 -->
<g id="node27" class="node">
<title>Node27</title>
<g id="a_node27"><a xlink:href="a01929.html#a389e550fd397a48121cb82d92bb7475a" target="_top" xlink:title="reads a MessagePack byte array">
<polygon fill="white" stroke="#666666" points="1051.5,-1613.82 906.5,-1613.82 906.5,-1583.82 1051.5,-1583.82 1051.5,-1613.82"/>
<text text-anchor="start" x="914.5" y="-1601.82" font-family="Helvetica,sans-Serif" font-size="10.00">nlohmann::detail::binary</text>
<text text-anchor="middle" x="979" y="-1590.82" font-family="Helvetica,sans-Serif" font-size="10.00">_reader::get_msgpack_binary</text>
</a>
</g>
</g>
<!-- Node25&#45;&gt;Node27 -->
<g id="edge80" class="edge">
<title>Node25&#45;&gt;Node27</title>
<path fill="none" stroke="#63b8ff" d="M628.4,-1658.78C650.91,-1674.91 684.64,-1695.91 718,-1704.82 781.98,-1721.91 807.16,-1733.18 867,-1704.82 889.83,-1694 885.18,-1678.74 903,-1660.82 917.08,-1646.68 934.13,-1632.38 948.42,-1621.09"/>
<polygon fill="#63b8ff" stroke="#63b8ff" points="950.41,-1623.97 956.15,-1615.07 946.11,-1618.45 950.41,-1623.97"/>
</g>
<!-- Node28 -->
<g id="node28" class="node">
<title>Node28</title>
<g id="a_node28"><a xlink:href="a01929.html#a8bebd21ceef09b6b2562e87861832700" target="_top" xlink:title=" ">
<polygon fill="white" stroke="#666666" points="865,-1695.82 720,-1695.82 720,-1665.82 865,-1665.82 865,-1695.82"/>
<text text-anchor="start" x="728" y="-1683.82" font-family="Helvetica,sans-Serif" font-size="10.00">nlohmann::detail::binary</text>
<text text-anchor="middle" x="792.5" y="-1672.82" font-family="Helvetica,sans-Serif" font-size="10.00">_reader::get_msgpack_object</text>
</a>
</g>
</g>
<!-- Node25&#45;&gt;Node28 -->
<g id="edge83" class="edge">
<title>Node25&#45;&gt;Node28</title>
<path fill="none" stroke="#63b8ff" d="M662.93,-1645.36C686.96,-1650.22 714.29,-1656.48 737.56,-1662.46"/>
<polygon fill="#63b8ff" stroke="#63b8ff" points="736.59,-1665.83 747.15,-1664.98 738.37,-1659.06 736.59,-1665.83"/>
</g>
<!-- Node29 -->
<g id="node29" class="node">
<title>Node29</title>
<g id="a_node29"><a xlink:href="a01929.html#ad8cba5585327caa550dd5b6dd25a64f8" target="_top" xlink:title="reads a MessagePack string">
<polygon fill="white" stroke="#666666" points="1050.5,-1699.82 907.5,-1699.82 907.5,-1669.82 1050.5,-1669.82 1050.5,-1699.82"/>
<text text-anchor="start" x="915.5" y="-1687.82" font-family="Helvetica,sans-Serif" font-size="10.00">nlohmann::detail::binary</text>
<text text-anchor="middle" x="979" y="-1676.82" font-family="Helvetica,sans-Serif" font-size="10.00">_reader::get_msgpack_string</text>
</a>
</g>
</g>
<!-- Node25&#45;&gt;Node29 -->
<g id="edge93" class="edge">
<title>Node25&#45;&gt;Node29</title>
<path fill="none" stroke="#63b8ff" d="M620.07,-1658.69C641.23,-1680.75 678.09,-1714.2 718,-1727.82 780.67,-1749.21 801.91,-1740.03 867,-1727.82 883.87,-1724.66 886.99,-1720.03 903,-1713.82 910.87,-1710.77 919.21,-1707.54 927.36,-1704.39"/>
<polygon fill="#63b8ff" stroke="#63b8ff" points="928.43,-1707.73 936.49,-1700.86 925.9,-1701.2 928.43,-1707.73"/>
</g>
<!-- Node26&#45;&gt;Node25 -->
<g id="edge79" class="edge">
<title>Node26&#45;&gt;Node25</title>
<path fill="none" stroke="#63b8ff" d="M770.81,-1572.24C756.03,-1579.41 735.71,-1587.38 718,-1594.82 703.54,-1600.9 688.17,-1607.59 673.49,-1613.91"/>
<polygon fill="#63b8ff" stroke="#63b8ff" points="672.15,-1610.67 664.34,-1617.83 674.91,-1617.11 672.15,-1610.67"/>
</g>
<!-- Node27&#45;&gt;Node15 -->
<g id="edge81" class="edge">
<title>Node27&#45;&gt;Node15</title>
<path fill="none" stroke="#63b8ff" d="M1030.65,-1614.3C1049.81,-1620.15 1071.82,-1626.87 1091.88,-1633"/>
<polygon fill="#63b8ff" stroke="#63b8ff" points="1090.75,-1636.32 1101.34,-1635.89 1092.8,-1629.62 1090.75,-1636.32"/>
</g>
<!-- Node27&#45;&gt;Node22 -->
<g id="edge82" class="edge">
<title>Node27&#45;&gt;Node22</title>
<path fill="none" stroke="#63b8ff" d="M1043.93,-1583.36C1047.95,-1580.92 1051.7,-1578.09 1055,-1574.82 1091.24,-1538.92 1072.45,-1513.35 1091,-1465.82 1106.55,-1425.99 1127.56,-1381.08 1140.82,-1353.62"/>
<polygon fill="#63b8ff" stroke="#63b8ff" points="1143.94,-1355.21 1145.17,-1344.68 1137.65,-1352.15 1143.94,-1355.21"/>
</g>
<!-- Node28&#45;&gt;Node6 -->
<g id="edge84" class="edge">
<title>Node28&#45;&gt;Node6</title>
<path fill="none" stroke="#63b8ff" d="M845.39,-1665.46C853.5,-1661.16 861.13,-1655.71 867,-1648.82 908.68,-1599.93 858.12,-1554.79 903,-1508.82 952.04,-1458.59 996.07,-1503.99 1055,-1465.82 1075.92,-1452.27 1070.18,-1436.53 1091,-1422.82 1140.21,-1390.42 1170.37,-1419.5 1218,-1384.82 1258.21,-1355.55 1287.09,-1303.81 1301.83,-1272.68"/>
<polygon fill="#63b8ff" stroke="#63b8ff" points="1305.01,-1274.15 1305.99,-1263.6 1298.65,-1271.23 1305.01,-1274.15"/>
</g>
<!-- Node28&#45;&gt;Node25 -->
<g id="edge92" class="edge">
<title>Node28&#45;&gt;Node25</title>
<path fill="none" stroke="#63b8ff" d="M719.7,-1671.14C704.66,-1667.98 688.78,-1664.39 673.72,-1660.74"/>
<polygon fill="#63b8ff" stroke="#63b8ff" points="674.94,-1657.44 664.39,-1658.45 673.27,-1664.24 674.94,-1657.44"/>
</g>
<!-- Node28&#45;&gt;Node29 -->
<g id="edge85" class="edge">
<title>Node28&#45;&gt;Node29</title>
<path fill="none" stroke="#63b8ff" d="M865.36,-1682.38C875.36,-1682.6 885.69,-1682.82 895.86,-1683.04"/>
<polygon fill="#63b8ff" stroke="#63b8ff" points="895.66,-1686.54 905.73,-1683.26 895.81,-1679.54 895.66,-1686.54"/>
</g>
<!-- Node29&#45;&gt;Node2 -->
<g id="edge86" class="edge">
<title>Node29&#45;&gt;Node2</title>
<path fill="none" stroke="#63b8ff" d="M1007.27,-1700.22C1023.82,-1711.06 1043.85,-1727.12 1055,-1746.82 1107.7,-1839.92 1009.89,-1915.06 1091,-1984.82 1192.88,-2072.45 1368.66,-1994.2 1444.01,-1953.65"/>
<polygon fill="#63b8ff" stroke="#63b8ff" points="1445.54,-1956.8 1452.63,-1948.92 1442.18,-1950.66 1445.54,-1956.8"/>
</g>
<!-- Node29&#45;&gt;Node5 -->
<g id="edge87" class="edge">
<title>Node29&#45;&gt;Node5</title>
<path fill="none" stroke="#63b8ff" d="M1006.49,-1700.22C1022.94,-1711.16 1043.15,-1727.33 1055,-1746.82 1094.44,-1811.71 1031.92,-1866.13 1091,-1913.82 1134.92,-1949.28 1169.71,-1943.05 1218,-1913.82 1345.89,-1836.42 1329.01,-1758.39 1374,-1615.82 1468.41,-1316.69 1478.85,-930.39 1479.91,-826.52"/>
<polygon fill="#63b8ff" stroke="#63b8ff" points="1483.4,-826.81 1479.98,-816.79 1476.4,-826.76 1483.4,-826.81"/>
</g>
<!-- Node29&#45;&gt;Node8 -->
<g id="edge90" class="edge">
<title>Node29&#45;&gt;Node8</title>
<path fill="none" stroke="#63b8ff" d="M1007.52,-1669.57C1024.18,-1658.79 1044.22,-1642.73 1055,-1622.82 1122.93,-1497.35 1003.72,-1416.69 1091,-1303.82 1091.24,-1303.51 1091.48,-1303.21 1091.73,-1302.9"/>
<polygon fill="#63b8ff" stroke="#63b8ff" points="1093.98,-1305.6 1098.92,-1296.23 1089.21,-1300.47 1093.98,-1305.6"/>
</g>
<!-- Node29&#45;&gt;Node12 -->
<g id="edge91" class="edge">
<title>Node29&#45;&gt;Node12</title>
<path fill="none" stroke="#63b8ff" d="M1017.53,-1700.2C1066.25,-1717.64 1152.76,-1739.89 1218,-1708.82 1257.59,-1689.97 1286.06,-1645.66 1301,-1617.3"/>
<polygon fill="#63b8ff" stroke="#63b8ff" points="1303.99,-1619.16 1305.38,-1608.65 1297.74,-1616 1303.99,-1619.16"/>
</g>
<!-- Node29&#45;&gt;Node17 -->
<g id="edge89" class="edge">
<title>Node29&#45;&gt;Node17</title>
<path fill="none" stroke="#63b8ff" d="M1002.97,-1669.41C1018.93,-1657.9 1039.95,-1641.07 1055,-1622.82 1076.26,-1597.05 1071.45,-1583.92 1091,-1556.82 1102.27,-1541.21 1116.86,-1525.38 1129.1,-1513.03"/>
<polygon fill="#63b8ff" stroke="#63b8ff" points="1131.41,-1515.66 1136.06,-1506.14 1126.49,-1510.69 1131.41,-1515.66"/>
</g>
<!-- Node29&#45;&gt;Node22 -->
<g id="edge88" class="edge">
<title>Node29&#45;&gt;Node22</title>
<path fill="none" stroke="#63b8ff" d="M1006.4,-1669.37C1022.82,-1658.41 1043.03,-1642.23 1055,-1622.82 1092.58,-1561.89 1068.12,-1533.66 1091,-1465.82 1104.67,-1425.3 1126.19,-1380.58 1140.07,-1353.35"/>
<polygon fill="#63b8ff" stroke="#63b8ff" points="1143.17,-1354.98 1144.64,-1344.49 1136.95,-1351.77 1143.17,-1354.98"/>
</g>
<!-- Node30&#45;&gt;Node7 -->
<g id="edge98" class="edge">
<title>Node30&#45;&gt;Node7</title>
<path fill="none" stroke="#63b8ff" d="M237.05,-499.73C264.28,-428.55 391,-129.82 599.5,-129.82 599.5,-129.82 599.5,-129.82 793.5,-129.82 909.91,-129.82 943.99,-109.77 1055,-144.82 1080.97,-153.02 1107.02,-169.61 1125.81,-183.43"/>
<polygon fill="#63b8ff" stroke="#63b8ff" points="1123.64,-186.17 1133.72,-189.42 1127.86,-180.59 1123.64,-186.17"/>
</g>
<!-- Node31 -->
<g id="node31" class="node">
<title>Node31</title>
<g id="a_node31"><a xlink:href="a01929.html#a7e5e0b71548d0649ce4f131280d06c33" target="_top" xlink:title=" ">
<polygon fill="white" stroke="#666666" points="476.5,-634.82 347.5,-634.82 347.5,-604.82 476.5,-604.82 476.5,-634.82"/>
<text text-anchor="start" x="355.5" y="-622.82" font-family="Helvetica,sans-Serif" font-size="10.00">nlohmann::detail::binary</text>
<text text-anchor="middle" x="412" y="-611.82" font-family="Helvetica,sans-Serif" font-size="10.00">_reader::get_ubjson_value</text>
</a>
</g>
</g>
<!-- Node30&#45;&gt;Node31 -->
<g id="edge99" class="edge">
<title>Node30&#45;&gt;Node31</title>
<path fill="none" stroke="#63b8ff" d="M257.99,-530.32C288.96,-548.44 340.4,-578.52 374.98,-598.76"/>
<polygon fill="#63b8ff" stroke="#63b8ff" points="372.99,-601.65 383.39,-603.67 376.53,-595.6 372.99,-601.65"/>
</g>
<!-- Node31&#45;&gt;Node2 -->
<g id="edge100" class="edge">
<title>Node31&#45;&gt;Node2</title>
<path fill="none" stroke="#63b8ff" d="M446.87,-635.17C467.43,-644.08 494.38,-655.05 519,-662.82 892.03,-780.62 1126.22,-569.11 1374,-871.82 1441.64,-954.46 1473.46,-1750.15 1479.08,-1906.31"/>
<polygon fill="#63b8ff" stroke="#63b8ff" points="1475.58,-1906.18 1479.43,-1916.05 1482.57,-1905.93 1475.58,-1906.18"/>
</g>
<!-- Node31&#45;&gt;Node5 -->
<g id="edge101" class="edge">
<title>Node31&#45;&gt;Node5</title>
<path fill="none" stroke="#63b8ff" d="M476.98,-629.4C631.5,-652.73 1037.17,-715.21 1374,-777.82 1381.94,-779.3 1390.2,-780.9 1398.45,-782.54"/>
<polygon fill="#63b8ff" stroke="#63b8ff" points="1397.69,-785.96 1408.18,-784.5 1399.07,-779.09 1397.69,-785.96"/>
</g>
<!-- Node31&#45;&gt;Node6 -->
<g id="edge102" class="edge">
<title>Node31&#45;&gt;Node6</title>
<path fill="none" stroke="#63b8ff" d="M476.93,-610.03C650.3,-585.15 1122.73,-528.89 1218,-638.82 1295.07,-727.75 1309.85,-1113.86 1312.47,-1219.83"/>
<polygon fill="#63b8ff" stroke="#63b8ff" points="1308.97,-1219.9 1312.7,-1229.81 1315.97,-1219.74 1308.97,-1219.9"/>
</g>
<!-- Node31&#45;&gt;Node8 -->
<g id="edge104" class="edge">
<title>Node31&#45;&gt;Node8</title>
<path fill="none" stroke="#63b8ff" d="M412.31,-635.19C410.76,-690.6 413.52,-881.59 519,-971.82 610.67,-1050.24 968.48,-973.76 1055,-1057.82 1105.72,-1107.11 1057.75,-1150.4 1091,-1212.82 1099.81,-1229.36 1113.75,-1244.87 1126.23,-1256.79"/>
<polygon fill="#63b8ff" stroke="#63b8ff" points="1123.71,-1259.23 1133.44,-1263.42 1128.44,-1254.07 1123.71,-1259.23"/>
</g>
<!-- Node31&#45;&gt;Node12 -->
<g id="edge143" class="edge">
<title>Node31&#45;&gt;Node12</title>
<path fill="none" stroke="#63b8ff" d="M415.35,-635.13C422.61,-677.01 448.57,-794.45 519,-855.82 706.15,-1018.9 879.68,-837.09 1055,-1012.82 1095.53,-1053.45 1055.95,-1091.38 1091,-1136.82 1131.18,-1188.91 1178.79,-1160.01 1218,-1212.82 1300.43,-1323.86 1311.82,-1498.39 1313.04,-1564.88"/>
<polygon fill="#63b8ff" stroke="#63b8ff" points="1309.54,-1564.87 1313.15,-1574.83 1316.54,-1564.79 1309.54,-1564.87"/>
</g>
<!-- Node31&#45;&gt;Node22 -->
<g id="edge103" class="edge">
<title>Node31&#45;&gt;Node22</title>
<path fill="none" stroke="#63b8ff" d="M412.5,-635.09C411.47,-692.06 415.55,-894.67 519,-1005.82 630.76,-1125.9 752.98,-1010.88 867,-1128.82 903.93,-1167.02 865.83,-1204.86 903,-1242.82 928.43,-1268.8 1018.24,-1295.16 1083.05,-1311.49"/>
<polygon fill="#63b8ff" stroke="#63b8ff" points="1082.02,-1314.84 1092.56,-1313.86 1083.71,-1308.05 1082.02,-1314.84"/>
</g>
<!-- Node32 -->
<g id="node32" class="node">
<title>Node32</title>
<g id="a_node32"><a xlink:href="a01929.html#afb36cb588b795efa513fc95e949493b7" target="_top" xlink:title=" ">
<polygon fill="white" stroke="#666666" points="665,-481.82 536,-481.82 536,-451.82 665,-451.82 665,-481.82"/>
<text text-anchor="start" x="544" y="-469.82" font-family="Helvetica,sans-Serif" font-size="10.00">nlohmann::detail::binary</text>
<text text-anchor="middle" x="600.5" y="-458.82" font-family="Helvetica,sans-Serif" font-size="10.00">_reader::get_ubjson_array</text>
</a>
</g>
</g>
<!-- Node31&#45;&gt;Node32 -->
<g id="edge105" class="edge">
<title>Node31&#45;&gt;Node32</title>
<path fill="none" stroke="#63b8ff" d="M418.86,-604.34C432.8,-575.2 470.47,-514.06 519,-481.82 521.12,-480.41 523.33,-479.08 525.6,-477.83"/>
<polygon fill="#63b8ff" stroke="#63b8ff" points="527.06,-481.02 534.54,-473.51 524.01,-474.72 527.06,-481.02"/>
</g>
<!-- Node35 -->
<g id="node35" class="node">
<title>Node35</title>
<g id="a_node35"><a xlink:href="a01929.html#a26c694413fb860057e1a839d5422b361" target="_top" xlink:title=" ">
<polygon fill="white" stroke="#666666" points="855,-640.32 730,-640.32 730,-599.32 855,-599.32 855,-640.32"/>
<text text-anchor="start" x="738" y="-628.32" font-family="Helvetica,sans-Serif" font-size="10.00">nlohmann::detail::binary</text>
<text text-anchor="start" x="738" y="-617.32" font-family="Helvetica,sans-Serif" font-size="10.00">_reader::get_ubjson_high</text>
<text text-anchor="middle" x="792.5" y="-606.32" font-family="Helvetica,sans-Serif" font-size="10.00">_precision_number</text>
</a>
</g>
</g>
<!-- Node31&#45;&gt;Node35 -->
<g id="edge122" class="edge">
<title>Node31&#45;&gt;Node35</title>
<path fill="none" stroke="#63b8ff" d="M476.78,-619.82C543.54,-619.82 648.2,-619.82 718.29,-619.82"/>
<polygon fill="#63b8ff" stroke="#63b8ff" points="718.15,-623.32 728.15,-619.82 718.15,-616.32 718.15,-623.32"/>
</g>
<!-- Node37 -->
<g id="node37" class="node">
<title>Node37</title>
<g id="a_node37"><a xlink:href="a01929.html#adcf64ad3207f4bf37a5a31c920a385c3" target="_top" xlink:title=" ">
<polygon fill="white" stroke="#666666" points="667.5,-529.82 533.5,-529.82 533.5,-499.82 667.5,-499.82 667.5,-529.82"/>
<text text-anchor="start" x="541.5" y="-517.82" font-family="Helvetica,sans-Serif" font-size="10.00">nlohmann::detail::binary</text>
<text text-anchor="middle" x="600.5" y="-506.82" font-family="Helvetica,sans-Serif" font-size="10.00">_reader::get_ubjson_object</text>
</a>
</g>
</g>
<!-- Node31&#45;&gt;Node37 -->
<g id="edge129" class="edge">
<title>Node31&#45;&gt;Node37</title>
<path fill="none" stroke="#63b8ff" d="M424.38,-604.42C443.07,-585.32 481.92,-554.31 519,-534.82 520.44,-534.07 521.9,-533.32 523.38,-532.59"/>
<polygon fill="#63b8ff" stroke="#63b8ff" points="524.41,-535.97 532.02,-528.6 521.47,-529.62 524.41,-535.97"/>
</g>
<!-- Node38 -->
<g id="node38" class="node">
<title>Node38</title>
<g id="a_node38"><a xlink:href="a01929.html#a4ae90db51c102e912b7eac83c78733a6" target="_top" xlink:title="reads a UBJSON string">
<polygon fill="white" stroke="#666666" points="1044.5,-891.82 913.5,-891.82 913.5,-861.82 1044.5,-861.82 1044.5,-891.82"/>
<text text-anchor="start" x="921.5" y="-879.82" font-family="Helvetica,sans-Serif" font-size="10.00">nlohmann::detail::binary</text>
<text text-anchor="middle" x="979" y="-868.82" font-family="Helvetica,sans-Serif" font-size="10.00">_reader::get_ubjson_string</text>
</a>
</g>
</g>
<!-- Node31&#45;&gt;Node38 -->
<g id="edge142" class="edge">
<title>Node31&#45;&gt;Node38</title>
<path fill="none" stroke="#63b8ff" d="M416.63,-635.29C426.2,-672.33 455.86,-766.31 519,-809.82 634.13,-889.17 804.23,-891.71 901.77,-885.12"/>
<polygon fill="#63b8ff" stroke="#63b8ff" points="901.78,-888.63 911.5,-884.41 901.27,-881.65 901.78,-888.63"/>
</g>
<!-- Node32&#45;&gt;Node7 -->
<g id="edge106" class="edge">
<title>Node32&#45;&gt;Node7</title>
<path fill="none" stroke="#63b8ff" d="M602.44,-451.66C606.33,-403.39 625.71,-252.96 718,-191.82 836.54,-113.3 1015.78,-157.63 1102.68,-186.74"/>
<polygon fill="#63b8ff" stroke="#63b8ff" points="1101.29,-189.96 1111.88,-189.89 1103.56,-183.34 1101.29,-189.96"/>
</g>
<!-- Node32&#45;&gt;Node30 -->
<g id="edge121" class="edge">
<title>Node32&#45;&gt;Node30</title>
<path fill="none" stroke="#63b8ff" d="M535.56,-475.16C474.86,-483.08 383.23,-495.03 316.42,-503.75"/>
<polygon fill="#63b8ff" stroke="#63b8ff" points="316.05,-500.27 306.59,-505.03 316.96,-507.21 316.05,-500.27"/>
</g>
<!-- Node32&#45;&gt;Node31 -->
<g id="edge120" class="edge">
<title>Node32&#45;&gt;Node31</title>
<path fill="none" stroke="#63b8ff" d="M559.37,-482.3C545.79,-486.44 531.03,-491.83 519,-499.82 480.94,-525.11 449.56,-568.17 431.06,-595.42"/>
<polygon fill="#63b8ff" stroke="#63b8ff" points="428.36,-593.18 425.69,-603.43 434.17,-597.08 428.36,-593.18"/>
</g>
<!-- Node33 -->
<g id="node33" class="node">
<title>Node33</title>
<g id="a_node33"><a xlink:href="a01929.html#a7b6c2d4c95d56751e233e285a5f1fea7" target="_top" xlink:title="determine the type and size for a container">
<polygon fill="white" stroke="#666666" points="867,-453.82 718,-453.82 718,-423.82 867,-423.82 867,-453.82"/>
<text text-anchor="start" x="726" y="-441.82" font-family="Helvetica,sans-Serif" font-size="10.00">nlohmann::detail::binary</text>
<text text-anchor="middle" x="792.5" y="-430.82" font-family="Helvetica,sans-Serif" font-size="10.00">_reader::get_ubjson_size_type</text>
</a>
</g>
</g>
<!-- Node32&#45;&gt;Node33 -->
<g id="edge107" class="edge">
<title>Node32&#45;&gt;Node33</title>
<path fill="none" stroke="#63b8ff" d="M665.3,-457.42C678.57,-455.47 692.75,-453.38 706.64,-451.33"/>
<polygon fill="#63b8ff" stroke="#63b8ff" points="706.82,-454.84 716.2,-449.92 705.8,-447.92 706.82,-454.84"/>
</g>
<!-- Node33&#45;&gt;Node2 -->
<g id="edge108" class="edge">
<title>Node33&#45;&gt;Node2</title>
<path fill="none" stroke="#63b8ff" d="M826.21,-423.45C847.54,-414.29 876.29,-403.55 903,-398.82 969.52,-387.05 988.86,-385.04 1055,-398.82 1211.27,-431.38 1290.18,-427.98 1374,-563.82 1410.67,-623.26 1469.04,-1721.25 1478.64,-1906.42"/>
<polygon fill="#63b8ff" stroke="#63b8ff" points="1475.14,-1906.39 1479.15,-1916.2 1482.13,-1906.03 1475.14,-1906.39"/>
</g>
<!-- Node33&#45;&gt;Node5 -->
<g id="edge109" class="edge">
<title>Node33&#45;&gt;Node5</title>
<path fill="none" stroke="#63b8ff" d="M804.99,-423.43C830.25,-389.79 889.48,-312.21 903,-305.82 997.81,-261.07 1297.97,-260.64 1374,-332.82 1439.07,-394.6 1469.77,-684.2 1477.8,-773.52"/>
<polygon fill="#63b8ff" stroke="#63b8ff" points="1474.29,-773.59 1478.65,-783.24 1481.26,-772.98 1474.29,-773.59"/>
</g>
<!-- Node33&#45;&gt;Node6 -->
<g id="edge110" class="edge">
<title>Node33&#45;&gt;Node6</title>
<path fill="none" stroke="#63b8ff" d="M839.7,-423.46C893.02,-408.23 982.64,-390.43 1055,-414.82 1141.25,-443.9 1172.23,-460.15 1218,-538.82 1287.43,-658.16 1307.95,-1105.48 1312.12,-1219.99"/>
<polygon fill="#63b8ff" stroke="#63b8ff" points="1308.62,-1220.04 1312.47,-1229.92 1315.61,-1219.8 1308.62,-1220.04"/>
</g>
<!-- Node33&#45;&gt;Node7 -->
<g id="edge111" class="edge">
<title>Node33&#45;&gt;Node7</title>
<path fill="none" stroke="#63b8ff" d="M798.79,-423.5C811.27,-389.76 845.84,-308.8 903,-267.82 931.17,-247.63 1016.78,-229.2 1080.12,-217.78"/>
<polygon fill="#63b8ff" stroke="#63b8ff" points="1080.54,-221.26 1089.78,-216.06 1079.32,-214.37 1080.54,-221.26"/>
</g>
<!-- Node33&#45;&gt;Node8 -->
<g id="edge112" class="edge">
<title>Node33&#45;&gt;Node8</title>
<path fill="none" stroke="#63b8ff" d="M822.3,-454.26C884.05,-487.96 1025.95,-568.77 1055,-614.82 1089.81,-670.01 1138.96,-1136.13 1150.84,-1253.22"/>
<polygon fill="#63b8ff" stroke="#63b8ff" points="1147.35,-1253.49 1151.83,-1263.09 1154.31,-1252.79 1147.35,-1253.49"/>
</g>
<!-- Node33&#45;&gt;Node12 -->
<g id="edge119" class="edge">
<title>Node33&#45;&gt;Node12</title>
<path fill="none" stroke="#63b8ff" d="M861.93,-454.26C938.14,-471.57 1051.22,-497.65 1055,-500.82 1325.42,-728.44 1205.72,-920.67 1254,-1270.82 1269.18,-1380.93 1295.74,-1510.78 1307.33,-1565.46"/>
<polygon fill="#63b8ff" stroke="#63b8ff" points="1303.86,-1566 1309.37,-1575.05 1310.71,-1564.54 1303.86,-1566"/>
</g>
<!-- Node34 -->
<g id="node34" class="node">
<title>Node34</title>
<g id="a_node34"><a xlink:href="a01929.html#aba7ba9ec9a52ad2bee8baff70176aa20" target="_top" xlink:title=" ">
<polygon fill="white" stroke="#666666" points="1055,-453.82 903,-453.82 903,-423.82 1055,-423.82 1055,-453.82"/>
<text text-anchor="start" x="911" y="-441.82" font-family="Helvetica,sans-Serif" font-size="10.00">nlohmann::detail::binary</text>
<text text-anchor="middle" x="979" y="-430.82" font-family="Helvetica,sans-Serif" font-size="10.00">_reader::get_ubjson_size_value</text>
</a>
</g>
</g>
<!-- Node33&#45;&gt;Node34 -->
<g id="edge113" class="edge">
<title>Node33&#45;&gt;Node34</title>
<path fill="none" stroke="#63b8ff" d="M867.48,-438.82C875.38,-438.82 883.48,-438.82 891.51,-438.82"/>
<polygon fill="#63b8ff" stroke="#63b8ff" points="891.29,-442.32 901.29,-438.82 891.29,-435.32 891.29,-442.32"/>
</g>
<!-- Node34&#45;&gt;Node2 -->
<g id="edge114" class="edge">
<title>Node34&#45;&gt;Node2</title>
<path fill="none" stroke="#63b8ff" d="M1039.88,-454.27C1091.02,-469.6 1164.56,-496.93 1218,-538.82 1303.99,-606.23 1332.7,-627.67 1374,-728.82 1465.42,-952.72 1478.15,-1749.57 1479.78,-1906.04"/>
<polygon fill="#63b8ff" stroke="#63b8ff" points="1476.27,-1905.85 1479.87,-1915.81 1483.27,-1905.78 1476.27,-1905.85"/>
</g>
<!-- Node34&#45;&gt;Node5 -->
<g id="edge115" class="edge">
<title>Node34&#45;&gt;Node5</title>
<path fill="none" stroke="#63b8ff" d="M1032.75,-423.34C1116.91,-402.23 1281.45,-376.17 1374,-462.82 1464.66,-547.71 1478.22,-709.17 1479.93,-772.94"/>
<polygon fill="#63b8ff" stroke="#63b8ff" points="1476.42,-772.89 1480.1,-782.83 1483.42,-772.77 1476.42,-772.89"/>
</g>
<!-- Node34&#45;&gt;Node7 -->
<g id="edge116" class="edge">
<title>Node34&#45;&gt;Node7</title>
<path fill="none" stroke="#63b8ff" d="M991.38,-423.54C1020.79,-384.04 1099.51,-278.33 1135.31,-230.25"/>
<polygon fill="#63b8ff" stroke="#63b8ff" points="1138.01,-232.49 1141.17,-222.38 1132.39,-228.31 1138.01,-232.49"/>
</g>
<!-- Node34&#45;&gt;Node8 -->
<g id="edge118" class="edge">
<title>Node34&#45;&gt;Node8</title>
<path fill="none" stroke="#63b8ff" d="M1005.23,-454.3C1022.26,-466.18 1043.62,-484.19 1055,-505.82 1125.64,-640.14 1148.08,-1132.3 1152.58,-1252.97"/>
<polygon fill="#63b8ff" stroke="#63b8ff" points="1149.08,-1252.98 1152.94,-1262.85 1156.08,-1252.73 1149.08,-1252.98"/>
</g>
<!-- Node34&#45;&gt;Node22 -->
<g id="edge117" class="edge">
<title>Node34&#45;&gt;Node22</title>
<path fill="none" stroke="#63b8ff" d="M988.76,-454.21C1005.26,-484.05 1040.54,-552.37 1055,-614.82 1072.29,-689.51 1045.95,-1241.8 1091,-1303.82 1091.15,-1304.03 1091.3,-1304.23 1091.45,-1304.44"/>
<polygon fill="#63b8ff" stroke="#63b8ff" points="1088.88,-1306.81 1098.45,-1311.34 1093.79,-1301.83 1088.88,-1306.81"/>
</g>
<!-- Node35&#45;&gt;Node2 -->
<g id="edge123" class="edge">
<title>Node35&#45;&gt;Node2</title>
<path fill="none" stroke="#63b8ff" d="M841.98,-640.75C860.8,-648.38 882.68,-656.63 903,-662.82 1108.07,-725.31 1232.31,-605.95 1374,-766.82 1451.91,-855.28 1475.66,-1740.71 1479.43,-1906.24"/>
<polygon fill="#63b8ff" stroke="#63b8ff" points="1475.93,-1906.25 1479.65,-1916.17 1482.93,-1906.1 1475.93,-1906.25"/>
</g>
<!-- Node35&#45;&gt;Node5 -->
<g id="edge124" class="edge">
<title>Node35&#45;&gt;Node5</title>
<path fill="none" stroke="#63b8ff" d="M803.26,-598.92C826.78,-549 885.86,-426.12 903,-414.82 1077.85,-299.63 1210.34,-274.22 1374,-404.82 1432.99,-451.9 1467.1,-693.18 1476.98,-773.66"/>
<polygon fill="#63b8ff" stroke="#63b8ff" points="1473.46,-773.72 1478.13,-783.23 1480.41,-772.89 1473.46,-773.72"/>
</g>
<!-- Node35&#45;&gt;Node6 -->
<g id="edge125" class="edge">
<title>Node35&#45;&gt;Node6</title>
<path fill="none" stroke="#63b8ff" d="M855.41,-602.72C910.92,-590.94 992.95,-582.58 1055,-614.82 1286.42,-735.06 1310.62,-1115.57 1312.86,-1220.05"/>
<polygon fill="#63b8ff" stroke="#63b8ff" points="1309.35,-1219.93 1313.01,-1229.88 1316.35,-1219.82 1309.35,-1219.93"/>
</g>
<!-- Node35&#45;&gt;Node12 -->
<g id="edge128" class="edge">
<title>Node35&#45;&gt;Node12</title>
<path fill="none" stroke="#63b8ff" d="M833.91,-640.74C845.89,-648.54 858.15,-658.33 867,-669.82 896.34,-707.91 871.66,-735.37 903,-771.82 952.91,-829.86 996.35,-803.63 1055,-852.82 1144.99,-928.29 1170.41,-953.45 1218,-1060.82 1256.37,-1147.39 1237.44,-1177.59 1254,-1270.82 1273.44,-1380.26 1297.73,-1510.46 1308.02,-1565.35"/>
<polygon fill="#63b8ff" stroke="#63b8ff" points="1304.55,-1565.8 1309.83,-1574.98 1311.43,-1564.5 1304.55,-1565.8"/>
</g>
<!-- Node35&#45;&gt;Node34 -->
<g id="edge126" class="edge">
<title>Node35&#45;&gt;Node34</title>
<path fill="none" stroke="#63b8ff" d="M814.66,-599.06C849.37,-565.02 918.11,-497.57 954.36,-462.01"/>
<polygon fill="#63b8ff" stroke="#63b8ff" points="956.65,-464.67 961.34,-455.17 951.75,-459.67 956.65,-464.67"/>
</g>
<!-- Node36 -->
<g id="node36" class="node">
<title>Node36</title>
<g id="a_node36"><a xlink:href="a00411.html#a616a53cc3114fdc113fc44e6af4c3c7f" target="_top" xlink:title=" ">
<polygon fill="white" stroke="#666666" points="1036.5,-653.82 921.5,-653.82 921.5,-623.82 1036.5,-623.82 1036.5,-653.82"/>
<text text-anchor="start" x="929.5" y="-641.82" font-family="Helvetica,sans-Serif" font-size="10.00">nlohmann::detail::input</text>
<text text-anchor="middle" x="979" y="-630.82" font-family="Helvetica,sans-Serif" font-size="10.00">_adapter</text>
</a>
</g>
</g>
<!-- Node35&#45;&gt;Node36 -->
<g id="edge127" class="edge">
<title>Node35&#45;&gt;Node36</title>
<path fill="none" stroke="#63b8ff" d="M855.45,-626.2C872.96,-628.01 892.12,-629.98 909.97,-631.82"/>
<polygon fill="#63b8ff" stroke="#63b8ff" points="909.38,-635.28 919.68,-632.82 910.09,-628.31 909.38,-635.28"/>
</g>
<!-- Node37&#45;&gt;Node7 -->
<g id="edge130" class="edge">
<title>Node37&#45;&gt;Node7</title>
<path fill="none" stroke="#63b8ff" d="M667.66,-500.31C672.81,-497.66 677.68,-494.53 682,-490.82 710.37,-466.49 696.87,-445.66 718,-414.82 785.53,-316.28 794.6,-270.03 903,-219.82 958.3,-194.21 1027.98,-192.41 1079.8,-196.05"/>
<polygon fill="#63b8ff" stroke="#63b8ff" points="1079.49,-199.53 1089.73,-196.84 1080.04,-192.56 1079.49,-199.53"/>
</g>
<!-- Node37&#45;&gt;Node30 -->
<g id="edge141" class="edge">
<title>Node37&#45;&gt;Node30</title>
<path fill="none" stroke="#63b8ff" d="M533.15,-514.82C472.41,-514.82 382.22,-514.82 316.28,-514.82"/>
<polygon fill="#63b8ff" stroke="#63b8ff" points="316.6,-511.32 306.6,-514.82 316.6,-518.32 316.6,-511.32"/>
</g>
<!-- Node37&#45;&gt;Node31 -->
<g id="edge140" class="edge">
<title>Node37&#45;&gt;Node31</title>
<path fill="none" stroke="#63b8ff" d="M572.62,-530.28C556.59,-536.5 536.09,-543.84 519,-552.82 494.54,-565.68 469.31,-583.55 449.61,-597.75"/>
<polygon fill="#63b8ff" stroke="#63b8ff" points="447.69,-594.82 441.63,-603.51 451.79,-600.5 447.69,-594.82"/>
</g>
<!-- Node37&#45;&gt;Node33 -->
<g id="edge131" class="edge">
<title>Node37&#45;&gt;Node33</title>
<path fill="none" stroke="#63b8ff" d="M657.3,-499.4C665.65,-496.74 674.1,-493.85 682,-490.82 705.76,-481.7 731.5,-469.6 752.06,-459.36"/>
<polygon fill="#63b8ff" stroke="#63b8ff" points="753.59,-462.51 760.94,-454.88 750.44,-456.26 753.59,-462.51"/>
</g>
<!-- Node37&#45;&gt;Node38 -->
<g id="edge132" class="edge">
<title>Node37&#45;&gt;Node38</title>
<path fill="none" stroke="#63b8ff" d="M611.3,-530.11C645.32,-582.03 763.86,-753.57 903,-847.82 907.79,-851.07 912.99,-854.02 918.35,-856.69"/>
<polygon fill="#63b8ff" stroke="#63b8ff" points="916.86,-859.86 927.4,-860.86 919.78,-853.5 916.86,-859.86"/>
</g>
<!-- Node38&#45;&gt;Node2 -->
<g id="edge133" class="edge">
<title>Node38&#45;&gt;Node2</title>
<path fill="none" stroke="#63b8ff" d="M1010.45,-861.43C1058.45,-839.54 1152.94,-806.33 1218,-846.82 1351.31,-929.8 1328.02,-1013.68 1374,-1163.82 1460.18,-1445.27 1476.47,-1806.22 1479.39,-1906.15"/>
<polygon fill="#63b8ff" stroke="#63b8ff" points="1475.89,-1906.1 1479.65,-1916.01 1482.88,-1905.91 1475.89,-1906.1"/>
</g>
<!-- Node38&#45;&gt;Node5 -->
<g id="edge134" class="edge">
<title>Node38&#45;&gt;Node5</title>
<path fill="none" stroke="#63b8ff" d="M996.87,-861.43C1017.37,-843.85 1053.85,-816.08 1091,-804.82 1193.64,-773.73 1318.6,-779.29 1398.71,-787.99"/>
<polygon fill="#63b8ff" stroke="#63b8ff" points="1397.88,-791.42 1408.21,-789.06 1398.67,-784.46 1397.88,-791.42"/>
</g>
<!-- Node38&#45;&gt;Node6 -->
<g id="edge135" class="edge">
<title>Node38&#45;&gt;Node6</title>
<path fill="none" stroke="#63b8ff" d="M1030.94,-861.41C1083.56,-848.87 1165.23,-839.29 1218,-880.82 1272.35,-923.6 1301.59,-1143.95 1310.24,-1220.55"/>
<polygon fill="#63b8ff" stroke="#63b8ff" points="1306.71,-1220.49 1311.28,-1230.05 1313.67,-1219.73 1306.71,-1220.49"/>
</g>
<!-- Node38&#45;&gt;Node8 -->
<g id="edge138" class="edge">
<title>Node38&#45;&gt;Node8</title>
<path fill="none" stroke="#63b8ff" d="M993.41,-892.16C1009.93,-911.76 1037.92,-947.29 1055,-981.82 1079.12,-1030.59 1074.12,-1047.1 1091,-1098.82 1109.07,-1154.19 1131.68,-1218.55 1144.15,-1253.66"/>
<polygon fill="#63b8ff" stroke="#63b8ff" points="1140.81,-1254.71 1147.46,-1262.96 1147.41,-1252.37 1140.81,-1254.71"/>
</g>
<!-- Node38&#45;&gt;Node12 -->
<g id="edge139" class="edge">
<title>Node38&#45;&gt;Node12</title>
<path fill="none" stroke="#63b8ff" d="M1003.06,-892.18C1019.7,-904.36 1041.52,-922.8 1055,-943.82 1084.36,-989.63 1062.66,-1014.38 1091,-1060.82 1132.09,-1128.16 1179.26,-1116.1 1218,-1184.82 1255.71,-1251.71 1295.99,-1486.16 1308.83,-1565.42"/>
<polygon fill="#63b8ff" stroke="#63b8ff" points="1305.3,-1565.54 1310.34,-1574.86 1312.21,-1564.43 1305.3,-1565.54"/>
</g>
<!-- Node38&#45;&gt;Node17 -->
<g id="edge137" class="edge">
<title>Node38&#45;&gt;Node17</title>
<path fill="none" stroke="#63b8ff" d="M984.05,-892.07C995.7,-936.07 1030.02,-1067.16 1055,-1176.82 1072.63,-1254.25 1066.47,-1276.3 1091,-1351.82 1104.21,-1392.5 1125.85,-1437.17 1139.89,-1464.36"/>
<polygon fill="#63b8ff" stroke="#63b8ff" points="1136.78,-1465.96 1144.51,-1473.2 1142.98,-1462.72 1136.78,-1465.96"/>
</g>
<!-- Node38&#45;&gt;Node22 -->
<g id="edge136" class="edge">
<title>Node38&#45;&gt;Node22</title>
<path fill="none" stroke="#63b8ff" d="M983.79,-892.2C1002.44,-967.7 1083.78,-1295.74 1091,-1303.82 1091.46,-1304.34 1091.93,-1304.84 1092.42,-1305.33"/>
<polygon fill="#63b8ff" stroke="#63b8ff" points="1089.98,-1307.87 1099.95,-1311.46 1094.4,-1302.44 1089.98,-1307.87"/>
</g>
</g>
</svg>
