<?xml version="1.0" encoding="UTF-8" standalone="no"?>
<!DOCTYPE svg PUBLIC "-//W3C//DTD SVG 1.1//EN"
 "http://www.w3.org/Graphics/SVG/1.1/DTD/svg11.dtd">
<!-- Generated by graphviz version 7.0.1 (20221109.1506)
 -->
<!-- Title: nlohmann::detail::binary_reader::get_ubjson_object Pages: 1 -->
<svg width="1514pt" height="935pt"
 viewBox="0.00 0.00 1514.00 934.69" xmlns="http://www.w3.org/2000/svg" xmlns:xlink="http://www.w3.org/1999/xlink">
<g id="graph0" class="graph" transform="scale(1 1) rotate(0) translate(4 930.69)">
<title>nlohmann::detail::binary_reader::get_ubjson_object</title>
<!-- Node1 -->
<g id="node1" class="node">
<title>Node1</title>
<g id="a_node1"><a xlink:title=" ">
<polygon fill="#999999" stroke="#666666" points="134,-338.69 0,-338.69 0,-308.69 134,-308.69 134,-338.69"/>
<text text-anchor="start" x="8" y="-326.69" font-family="Helvetica,sans-Serif" font-size="10.00">nlohmann::detail::binary</text>
<text text-anchor="middle" x="67" y="-315.69" font-family="Helvetica,sans-Serif" font-size="10.00">_reader::get_ubjson_object</text>
</a>
</g>
</g>
<!-- Node2 -->
<g id="node2" class="node">
<title>Node2</title>
<g id="a_node2"><a xlink:href="a01929.html#a252c1179651d22c5343bcf0b538ed26a" target="_top" xlink:title=" ">
<polygon fill="white" stroke="#666666" points="999.5,-260.69 873.5,-260.69 873.5,-230.69 999.5,-230.69 999.5,-260.69"/>
<text text-anchor="start" x="881.5" y="-248.69" font-family="Helvetica,sans-Serif" font-size="10.00">nlohmann::detail::binary</text>
<text text-anchor="middle" x="936.5" y="-237.69" font-family="Helvetica,sans-Serif" font-size="10.00">_reader::get_ignore_noop</text>
</a>
</g>
</g>
<!-- Node1&#45;&gt;Node2 -->
<g id="edge1" class="edge">
<title>Node1&#45;&gt;Node2</title>
<path fill="none" stroke="#63b8ff" d="M75.2,-308.25C105.15,-246.5 226.47,-20.69 398.5,-20.69 398.5,-20.69 398.5,-20.69 575.5,-20.69 725.91,-20.69 865.3,-163.68 915.65,-221.68"/>
<polygon fill="#63b8ff" stroke="#63b8ff" points="912.81,-223.75 921.97,-229.07 918.13,-219.2 912.81,-223.75"/>
</g>
<!-- Node4 -->
<g id="node4" class="node">
<title>Node4</title>
<g id="a_node4"><a xlink:href="a01929.html#a7b6c2d4c95d56751e233e285a5f1fea7" target="_top" xlink:title="determine the type and size for a container">
<polygon fill="white" stroke="#666666" points="649,-212.69 500,-212.69 500,-182.69 649,-182.69 649,-212.69"/>
<text text-anchor="start" x="508" y="-200.69" font-family="Helvetica,sans-Serif" font-size="10.00">nlohmann::detail::binary</text>
<text text-anchor="middle" x="574.5" y="-189.69" font-family="Helvetica,sans-Serif" font-size="10.00">_reader::get_ubjson_size_type</text>
</a>
</g>
</g>
<!-- Node1&#45;&gt;Node4 -->
<g id="edge3" class="edge">
<title>Node1&#45;&gt;Node4</title>
<path fill="none" stroke="#63b8ff" d="M84.58,-308.36C103.65,-291.69 136.63,-265.7 170,-252.69 274.59,-211.91 404.66,-200.56 488.37,-197.82"/>
<polygon fill="#63b8ff" stroke="#63b8ff" points="488.46,-201.32 498.36,-197.53 488.26,-194.32 488.46,-201.32"/>
</g>
<!-- Node13 -->
<g id="node13" class="node">
<title>Node13</title>
<g id="a_node13"><a xlink:href="a01929.html#a4ae90db51c102e912b7eac83c78733a6" target="_top" xlink:title="reads a UBJSON string">
<polygon fill="white" stroke="#666666" points="826.5,-744.69 695.5,-744.69 695.5,-714.69 826.5,-714.69 826.5,-744.69"/>
<text text-anchor="start" x="703.5" y="-732.69" font-family="Helvetica,sans-Serif" font-size="10.00">nlohmann::detail::binary</text>
<text text-anchor="middle" x="761" y="-721.69" font-family="Helvetica,sans-Serif" font-size="10.00">_reader::get_ubjson_string</text>
</a>
</g>
</g>
<!-- Node1&#45;&gt;Node13 -->
<g id="edge22" class="edge">
<title>Node1&#45;&gt;Node13</title>
<path fill="none" stroke="#63b8ff" d="M77.9,-338.99C109.8,-387.29 214.85,-538.53 335,-627.69 399.69,-675.69 422.26,-681.59 500,-702.69 560.49,-719.11 631.39,-725.67 683.86,-728.23"/>
<polygon fill="#63b8ff" stroke="#63b8ff" points="683.44,-731.72 693.59,-728.67 683.75,-724.72 683.44,-731.72"/>
</g>
<!-- Node15 -->
<g id="node15" class="node">
<title>Node15</title>
<g id="a_node15"><a xlink:href="a01929.html#a7e5e0b71548d0649ce4f131280d06c33" target="_top" xlink:title=" ">
<polygon fill="white" stroke="#666666" points="299,-425.69 170,-425.69 170,-395.69 299,-395.69 299,-425.69"/>
<text text-anchor="start" x="178" y="-413.69" font-family="Helvetica,sans-Serif" font-size="10.00">nlohmann::detail::binary</text>
<text text-anchor="middle" x="234.5" y="-402.69" font-family="Helvetica,sans-Serif" font-size="10.00">_reader::get_ubjson_value</text>
</a>
</g>
</g>
<!-- Node1&#45;&gt;Node15 -->
<g id="edge32" class="edge">
<title>Node1&#45;&gt;Node15</title>
<path fill="none" stroke="#63b8ff" d="M108.49,-339.08C137.85,-353.21 176.91,-373.93 203.5,-389.58"/>
<polygon fill="#63b8ff" stroke="#63b8ff" points="201.37,-392.38 211.74,-394.53 204.97,-386.38 201.37,-392.38"/>
</g>
<!-- Node17 -->
<g id="node17" class="node">
<title>Node17</title>
<g id="a_node17"><a xlink:href="a01929.html#a5a79480d661019b0f3fc615ae12f7de7" target="_top" xlink:title=" ">
<polygon fill="white" stroke="#666666" points="649,-260.69 500,-260.69 500,-230.69 649,-230.69 649,-260.69"/>
<text text-anchor="start" x="508" y="-248.69" font-family="Helvetica,sans-Serif" font-size="10.00">nlohmann::detail::binary</text>
<text text-anchor="middle" x="574.5" y="-237.69" font-family="Helvetica,sans-Serif" font-size="10.00">_reader::parse_ubjson_internal</text>
</a>
</g>
</g>
<!-- Node1&#45;&gt;Node17 -->
<g id="edge55" class="edge">
<title>Node1&#45;&gt;Node17</title>
<path fill="none" stroke="#63b8ff" d="M111.24,-308.32C163.47,-290.59 254.39,-262.37 335,-250.69 385.44,-243.38 442.51,-241.94 488.17,-242.42"/>
<polygon fill="#63b8ff" stroke="#63b8ff" points="487.96,-245.92 498.01,-242.56 488.06,-238.92 487.96,-245.92"/>
</g>
<!-- Node3 -->
<g id="node3" class="node">
<title>Node3</title>
<g id="a_node3"><a xlink:href="a01929.html#ad222095c0b21a87824cb10629299629a" target="_top" xlink:title="get next character from the input">
<polygon fill="white" stroke="#666666" points="1156,-508.69 1036,-508.69 1036,-478.69 1156,-478.69 1156,-508.69"/>
<text text-anchor="start" x="1044" y="-496.69" font-family="Helvetica,sans-Serif" font-size="10.00">nlohmann::detail::binary</text>
<text text-anchor="middle" x="1096" y="-485.69" font-family="Helvetica,sans-Serif" font-size="10.00">_reader::get</text>
</a>
</g>
</g>
<!-- Node2&#45;&gt;Node3 -->
<g id="edge2" class="edge">
<title>Node2&#45;&gt;Node3</title>
<path fill="none" stroke="#63b8ff" d="M954.21,-261.15C967.62,-274.09 986.38,-293.49 1000,-312.69 1036.66,-364.37 1068.39,-432 1084.24,-468.19"/>
<polygon fill="#63b8ff" stroke="#63b8ff" points="1080.85,-469.19 1088.03,-476.98 1087.28,-466.41 1080.85,-469.19"/>
</g>
<!-- Node4&#45;&gt;Node2 -->
<g id="edge9" class="edge">
<title>Node4&#45;&gt;Node2</title>
<path fill="none" stroke="#63b8ff" d="M649.22,-207.52C711.38,-215.81 799.89,-227.61 862,-235.89"/>
<polygon fill="#63b8ff" stroke="#63b8ff" points="861.4,-239.34 871.77,-237.19 862.32,-232.4 861.4,-239.34"/>
</g>
<!-- Node4&#45;&gt;Node3 -->
<g id="edge8" class="edge">
<title>Node4&#45;&gt;Node3</title>
<path fill="none" stroke="#63b8ff" d="M633.64,-182.22C722.55,-162.3 893.2,-139.28 1000,-221.69 1078.24,-282.06 1092.3,-411.24 1094.64,-467.07"/>
<polygon fill="#63b8ff" stroke="#63b8ff" points="1091.14,-467.02 1094.95,-476.91 1098.13,-466.81 1091.14,-467.02"/>
</g>
<!-- Node5 -->
<g id="node5" class="node">
<title>Node5</title>
<g id="a_node5"><a xlink:href="a01497.html#a137ea4d27de45d8a844fd13451d40f3d" target="_top" xlink:title="create a parse error exception">
<polygon fill="white" stroke="#666666" points="1322,-724.69 1204,-724.69 1204,-694.69 1322,-694.69 1322,-724.69"/>
<text text-anchor="start" x="1212" y="-712.69" font-family="Helvetica,sans-Serif" font-size="10.00">nlohmann::detail::parse</text>
<text text-anchor="middle" x="1263" y="-701.69" font-family="Helvetica,sans-Serif" font-size="10.00">_error::create</text>
</a>
</g>
</g>
<!-- Node4&#45;&gt;Node5 -->
<g id="edge4" class="edge">
<title>Node4&#45;&gt;Node5</title>
<path fill="none" stroke="#63b8ff" d="M612.4,-182.24C689.75,-152.43 872.27,-95.8 1000,-165.69 1106.75,-224.1 1101.59,-281.85 1156,-390.69 1182.83,-444.37 1234.96,-617.67 1254.43,-683.76"/>
<polygon fill="#63b8ff" stroke="#63b8ff" points="1250.96,-684.39 1257.14,-693 1257.68,-682.42 1250.96,-684.39"/>
</g>
<!-- Node8 -->
<g id="node8" class="node">
<title>Node8</title>
<g id="a_node8"><a xlink:href="a01929.html#a9c413c9a1bade1ce345740f4d69156f0" target="_top" xlink:title=" ">
<polygon fill="white" stroke="#666666" points="1334,-465.69 1192,-465.69 1192,-435.69 1334,-435.69 1334,-465.69"/>
<text text-anchor="start" x="1200" y="-453.69" font-family="Helvetica,sans-Serif" font-size="10.00">nlohmann::detail::binary</text>
<text text-anchor="middle" x="1263" y="-442.69" font-family="Helvetica,sans-Serif" font-size="10.00">_reader::exception_message</text>
</a>
</g>
</g>
<!-- Node4&#45;&gt;Node8 -->
<g id="edge7" class="edge">
<title>Node4&#45;&gt;Node8</title>
<path fill="none" stroke="#63b8ff" d="M590.48,-182.48C610.14,-163.72 646.67,-132.82 685,-120.69 784.79,-89.12 1071.43,-59.03 1156,-120.69 1255.12,-192.96 1263.6,-359.4 1262.94,-424.19"/>
<polygon fill="#63b8ff" stroke="#63b8ff" points="1259.44,-423.82 1262.75,-433.89 1266.44,-423.96 1259.44,-423.82"/>
</g>
<!-- Node9 -->
<g id="node9" class="node">
<title>Node9</title>
<g id="a_node9"><a xlink:href="a01929.html#a7d323283c60a0b89ee5eeadf5cb9a5ad" target="_top" xlink:title=" ">
<polygon fill="white" stroke="#666666" points="1000,-422.69 873,-422.69 873,-392.69 1000,-392.69 1000,-422.69"/>
<text text-anchor="start" x="881" y="-410.69" font-family="Helvetica,sans-Serif" font-size="10.00">nlohmann::detail::binary</text>
<text text-anchor="middle" x="936.5" y="-399.69" font-family="Helvetica,sans-Serif" font-size="10.00">_reader::get_token_string</text>
</a>
</g>
</g>
<!-- Node4&#45;&gt;Node9 -->
<g id="edge10" class="edge">
<title>Node4&#45;&gt;Node9</title>
<path fill="none" stroke="#63b8ff" d="M638.91,-213.09C642.62,-215.55 646.04,-218.39 649,-221.69 700.61,-279.14 626.58,-341.18 685,-391.69 732.65,-432.89 806.35,-432.67 861.49,-424.66"/>
<polygon fill="#63b8ff" stroke="#63b8ff" points="861.78,-428.16 871.11,-423.14 860.69,-421.24 861.78,-428.16"/>
</g>
<!-- Node10 -->
<g id="node10" class="node">
<title>Node10</title>
<g id="a_node10"><a xlink:href="a01929.html#aba7ba9ec9a52ad2bee8baff70176aa20" target="_top" xlink:title=" ">
<polygon fill="white" stroke="#666666" points="837,-382.69 685,-382.69 685,-352.69 837,-352.69 837,-382.69"/>
<text text-anchor="start" x="693" y="-370.69" font-family="Helvetica,sans-Serif" font-size="10.00">nlohmann::detail::binary</text>
<text text-anchor="middle" x="761" y="-359.69" font-family="Helvetica,sans-Serif" font-size="10.00">_reader::get_ubjson_size_value</text>
</a>
</g>
</g>
<!-- Node4&#45;&gt;Node10 -->
<g id="edge11" class="edge">
<title>Node4&#45;&gt;Node10</title>
<path fill="none" stroke="#63b8ff" d="M638.24,-213.19C642.15,-215.62 645.8,-218.44 649,-221.69 687.14,-260.49 647.91,-298.89 685,-338.69 687.57,-341.45 690.43,-343.95 693.5,-346.21"/>
<polygon fill="#63b8ff" stroke="#63b8ff" points="691.59,-349.15 701.92,-351.51 695.32,-343.22 691.59,-349.15"/>
</g>
<!-- Node12 -->
<g id="node12" class="node">
<title>Node12</title>
<g id="a_node12"><a xlink:href="a01929.html#a61a0bd8bbe7b560bd429fa990ba3ba1a" target="_top" xlink:title=" ">
<polygon fill="white" stroke="#666666" points="1156,-746.69 1036,-746.69 1036,-716.69 1156,-716.69 1156,-746.69"/>
<text text-anchor="start" x="1044" y="-734.69" font-family="Helvetica,sans-Serif" font-size="10.00">nlohmann::detail::binary</text>
<text text-anchor="middle" x="1096" y="-723.69" font-family="Helvetica,sans-Serif" font-size="10.00">_reader::unexpect_eof</text>
</a>
</g>
</g>
<!-- Node4&#45;&gt;Node12 -->
<g id="edge21" class="edge">
<title>Node4&#45;&gt;Node12</title>
<path fill="none" stroke="#63b8ff" d="M625.6,-213.18C633.48,-215.87 641.5,-218.75 649,-221.69 688.98,-237.38 972.31,-350.85 1000,-383.69 1039.75,-430.84 1019.8,-458.19 1036,-517.69 1054.43,-585.4 1076.49,-665.06 1087.7,-705.41"/>
<polygon fill="#63b8ff" stroke="#63b8ff" points="1084.29,-706.23 1090.34,-714.93 1091.04,-704.36 1084.29,-706.23"/>
</g>
<!-- Node6 -->
<g id="node6" class="node">
<title>Node6</title>
<g id="a_node6"><a xlink:href="a01493.html#abf41a7e9178356314082284e6cfea278" target="_top" xlink:title=" ">
<polygon fill="white" stroke="#666666" points="1506,-748.69 1370,-748.69 1370,-718.69 1506,-718.69 1506,-748.69"/>
<text text-anchor="start" x="1378" y="-736.69" font-family="Helvetica,sans-Serif" font-size="10.00">nlohmann::detail::exception</text>
<text text-anchor="middle" x="1438" y="-725.69" font-family="Helvetica,sans-Serif" font-size="10.00">::name</text>
</a>
</g>
</g>
<!-- Node5&#45;&gt;Node6 -->
<g id="edge5" class="edge">
<title>Node5&#45;&gt;Node6</title>
<path fill="none" stroke="#63b8ff" d="M1322.09,-717.75C1333.81,-719.37 1346.32,-721.11 1358.61,-722.81"/>
<polygon fill="#63b8ff" stroke="#63b8ff" points="1357.91,-726.25 1368.3,-724.16 1358.88,-719.32 1357.91,-726.25"/>
</g>
<!-- Node7 -->
<g id="node7" class="node">
<title>Node7</title>
<g id="a_node7"><a xlink:href="a01497.html#aefe74adeaa48781464ba2fd2ec63d221" target="_top" xlink:title=" ">
<polygon fill="white" stroke="#666666" points="1497,-700.69 1379,-700.69 1379,-670.69 1497,-670.69 1497,-700.69"/>
<text text-anchor="start" x="1387" y="-688.69" font-family="Helvetica,sans-Serif" font-size="10.00">nlohmann::detail::parse</text>
<text text-anchor="middle" x="1438" y="-677.69" font-family="Helvetica,sans-Serif" font-size="10.00">_error::position_string</text>
</a>
</g>
</g>
<!-- Node5&#45;&gt;Node7 -->
<g id="edge6" class="edge">
<title>Node5&#45;&gt;Node7</title>
<path fill="none" stroke="#63b8ff" d="M1322.09,-701.63C1336.64,-699.61 1352.39,-697.43 1367.44,-695.34"/>
<polygon fill="#63b8ff" stroke="#63b8ff" points="1367.85,-698.82 1377.27,-693.98 1366.89,-691.88 1367.85,-698.82"/>
</g>
<!-- Node10&#45;&gt;Node2 -->
<g id="edge14" class="edge">
<title>Node10&#45;&gt;Node2</title>
<path fill="none" stroke="#63b8ff" d="M779.19,-352.32C805.2,-329.25 853.58,-287.02 873,-274.69 877.74,-271.68 882.84,-268.8 888.01,-266.1"/>
<polygon fill="#63b8ff" stroke="#63b8ff" points="889.21,-269.41 896.61,-261.83 886.1,-263.14 889.21,-269.41"/>
</g>
<!-- Node10&#45;&gt;Node5 -->
<g id="edge12" class="edge">
<title>Node10&#45;&gt;Node5</title>
<path fill="none" stroke="#63b8ff" d="M837.43,-364.48C884.98,-364.47 947.15,-368.18 1000,-383.69 1075.97,-405.99 1102.53,-411.3 1156,-469.69 1214.58,-533.66 1244.66,-635.25 1256.23,-683.11"/>
<polygon fill="#63b8ff" stroke="#63b8ff" points="1252.82,-683.9 1258.49,-692.85 1259.64,-682.31 1252.82,-683.9"/>
</g>
<!-- Node10&#45;&gt;Node8 -->
<g id="edge13" class="edge">
<title>Node10&#45;&gt;Node8</title>
<path fill="none" stroke="#63b8ff" d="M814.63,-352.22C892.38,-332.23 1041.15,-305.06 1156,-350.69 1194.19,-365.86 1226.59,-402.04 1245.18,-426.46"/>
<polygon fill="#63b8ff" stroke="#63b8ff" points="1242.18,-428.29 1250.93,-434.27 1247.82,-424.14 1242.18,-428.29"/>
</g>
<!-- Node10&#45;&gt;Node9 -->
<g id="edge20" class="edge">
<title>Node10&#45;&gt;Node9</title>
<path fill="none" stroke="#63b8ff" d="M829.08,-383.15C839.7,-385.6 850.73,-388.15 861.49,-390.63"/>
<polygon fill="#63b8ff" stroke="#63b8ff" points="860.58,-394.01 871.11,-392.84 862.15,-387.19 860.58,-394.01"/>
</g>
<!-- Node11 -->
<g id="node11" class="node">
<title>Node11</title>
<g id="a_node11"><a xlink:href="a01929.html#ac356c6364fe0273d3303fb7a447f4ef6" target="_top" xlink:title=" ">
<polygon fill="white" stroke="#666666" points="996.5,-508.69 876.5,-508.69 876.5,-478.69 996.5,-478.69 996.5,-508.69"/>
<text text-anchor="start" x="884.5" y="-496.69" font-family="Helvetica,sans-Serif" font-size="10.00">nlohmann::detail::binary</text>
<text text-anchor="middle" x="936.5" y="-485.69" font-family="Helvetica,sans-Serif" font-size="10.00">_reader::get_number</text>
</a>
</g>
</g>
<!-- Node10&#45;&gt;Node11 -->
<g id="edge15" class="edge">
<title>Node10&#45;&gt;Node11</title>
<path fill="none" stroke="#63b8ff" d="M783.27,-383.14C813.79,-405.3 870.17,-446.24 905.08,-471.6"/>
<polygon fill="#63b8ff" stroke="#63b8ff" points="902.95,-474.38 913.1,-477.42 907.06,-468.71 902.95,-474.38"/>
</g>
<!-- Node11&#45;&gt;Node3 -->
<g id="edge16" class="edge">
<title>Node11&#45;&gt;Node3</title>
<path fill="none" stroke="#63b8ff" d="M996.6,-493.69C1005.66,-493.69 1015.09,-493.69 1024.37,-493.69"/>
<polygon fill="#63b8ff" stroke="#63b8ff" points="1024.06,-497.19 1034.06,-493.69 1024.06,-490.19 1024.06,-497.19"/>
</g>
<!-- Node11&#45;&gt;Node12 -->
<g id="edge17" class="edge">
<title>Node11&#45;&gt;Node12</title>
<path fill="none" stroke="#63b8ff" d="M947.59,-508.94C974.09,-548.98 1045.83,-657.39 1078.45,-706.68"/>
<polygon fill="#63b8ff" stroke="#63b8ff" points="1075.52,-708.59 1083.95,-715 1081.35,-704.73 1075.52,-708.59"/>
</g>
<!-- Node12&#45;&gt;Node5 -->
<g id="edge18" class="edge">
<title>Node12&#45;&gt;Node5</title>
<path fill="none" stroke="#63b8ff" d="M1156.1,-723.81C1167.81,-722.25 1180.19,-720.6 1192.21,-719"/>
<polygon fill="#63b8ff" stroke="#63b8ff" points="1192.64,-722.47 1202.09,-717.68 1191.71,-715.53 1192.64,-722.47"/>
</g>
<!-- Node12&#45;&gt;Node8 -->
<g id="edge19" class="edge">
<title>Node12&#45;&gt;Node8</title>
<path fill="none" stroke="#63b8ff" d="M1112.56,-716.41C1125.26,-703.42 1143.13,-683.87 1156,-664.69 1198.65,-601.12 1234.92,-517.93 1251.83,-476.49"/>
<polygon fill="#63b8ff" stroke="#63b8ff" points="1255.01,-477.94 1255.5,-467.36 1248.52,-475.33 1255.01,-477.94"/>
</g>
<!-- Node13&#45;&gt;Node3 -->
<g id="edge25" class="edge">
<title>Node13&#45;&gt;Node3</title>
<path fill="none" stroke="#63b8ff" d="M783.85,-714.21C841.5,-673.35 997.83,-562.56 1064.36,-515.4"/>
<polygon fill="#63b8ff" stroke="#63b8ff" points="1066.13,-518.44 1072.27,-509.8 1062.09,-512.73 1066.13,-518.44"/>
</g>
<!-- Node13&#45;&gt;Node5 -->
<g id="edge23" class="edge">
<title>Node13&#45;&gt;Node5</title>
<path fill="none" stroke="#63b8ff" d="M793.66,-745.19C815.4,-754.94 845.23,-766.61 873,-771.69 996.92,-794.35 1034.12,-787.57 1156,-755.69 1178.93,-749.69 1203.26,-739.44 1222.83,-730.13"/>
<polygon fill="#63b8ff" stroke="#63b8ff" points="1224.35,-733.28 1231.81,-725.75 1221.28,-726.99 1224.35,-733.28"/>
</g>
<!-- Node13&#45;&gt;Node8 -->
<g id="edge24" class="edge">
<title>Node13&#45;&gt;Node8</title>
<path fill="none" stroke="#63b8ff" d="M826.67,-715.59C931.5,-692.32 1129.53,-646.49 1156,-626.69 1207.99,-587.8 1239.64,-515.23 1253.59,-476.54"/>
<polygon fill="#63b8ff" stroke="#63b8ff" points="1256.73,-478.16 1256.71,-467.57 1250.12,-475.86 1256.73,-478.16"/>
</g>
<!-- Node13&#45;&gt;Node9 -->
<g id="edge30" class="edge">
<title>Node13&#45;&gt;Node9</title>
<path fill="none" stroke="#63b8ff" d="M788.7,-714.42C805.25,-703.53 825.47,-687.37 837,-667.69 882.21,-590.51 831.33,-548.83 873,-469.69 880.91,-454.67 893.71,-441.02 905.68,-430.37"/>
<polygon fill="#63b8ff" stroke="#63b8ff" points="907.65,-433.29 913.01,-424.15 903.12,-427.95 907.65,-433.29"/>
</g>
<!-- Node13&#45;&gt;Node11 -->
<g id="edge26" class="edge">
<title>Node13&#45;&gt;Node11</title>
<path fill="none" stroke="#63b8ff" d="M787.05,-714.32C803.33,-703.18 823.89,-686.76 837,-667.69 865.43,-626.34 847.31,-603.79 873,-560.69 882.66,-544.48 896.79,-528.91 909.17,-516.86"/>
<polygon fill="#63b8ff" stroke="#63b8ff" points="911.41,-519.56 916.28,-510.16 906.61,-514.47 911.41,-519.56"/>
</g>
<!-- Node13&#45;&gt;Node12 -->
<g id="edge31" class="edge">
<title>Node13&#45;&gt;Node12</title>
<path fill="none" stroke="#63b8ff" d="M816.89,-745.18C834.64,-749.48 854.52,-753.55 873,-755.69 929.07,-762.17 943.99,-762.66 1000,-755.69 1010.65,-754.37 1021.82,-752.24 1032.61,-749.78"/>
<polygon fill="#63b8ff" stroke="#63b8ff" points="1033.29,-753.21 1042.2,-747.47 1031.66,-746.41 1033.29,-753.21"/>
</g>
<!-- Node14 -->
<g id="node14" class="node">
<title>Node14</title>
<g id="a_node14"><a xlink:href="a01929.html#a540919db22df36512f05a88945c13263" target="_top" xlink:title="create a string by reading characters from the input">
<polygon fill="white" stroke="#666666" points="996.5,-746.69 876.5,-746.69 876.5,-716.69 996.5,-716.69 996.5,-746.69"/>
<text text-anchor="start" x="884.5" y="-734.69" font-family="Helvetica,sans-Serif" font-size="10.00">nlohmann::detail::binary</text>
<text text-anchor="middle" x="936.5" y="-723.69" font-family="Helvetica,sans-Serif" font-size="10.00">_reader::get_string</text>
</a>
</g>
</g>
<!-- Node13&#45;&gt;Node14 -->
<g id="edge27" class="edge">
<title>Node13&#45;&gt;Node14</title>
<path fill="none" stroke="#63b8ff" d="M826.6,-730.43C839,-730.58 852.04,-730.73 864.61,-730.87"/>
<polygon fill="#63b8ff" stroke="#63b8ff" points="864.45,-734.37 874.49,-730.99 864.53,-727.37 864.45,-734.37"/>
</g>
<!-- Node14&#45;&gt;Node3 -->
<g id="edge28" class="edge">
<title>Node14&#45;&gt;Node3</title>
<path fill="none" stroke="#63b8ff" d="M947.59,-716.44C974.09,-676.4 1045.83,-567.99 1078.45,-518.7"/>
<polygon fill="#63b8ff" stroke="#63b8ff" points="1081.35,-520.65 1083.95,-510.38 1075.52,-516.79 1081.35,-520.65"/>
</g>
<!-- Node14&#45;&gt;Node12 -->
<g id="edge29" class="edge">
<title>Node14&#45;&gt;Node12</title>
<path fill="none" stroke="#63b8ff" d="M996.6,-731.69C1005.66,-731.69 1015.09,-731.69 1024.37,-731.69"/>
<polygon fill="#63b8ff" stroke="#63b8ff" points="1024.06,-735.19 1034.06,-731.69 1024.06,-728.19 1024.06,-735.19"/>
</g>
<!-- Node15&#45;&gt;Node1 -->
<g id="edge52" class="edge">
<title>Node15&#45;&gt;Node1</title>
<path fill="none" stroke="#63b8ff" d="M192.92,-395.26C163.63,-381.16 124.72,-360.52 98.16,-344.89"/>
<polygon fill="#63b8ff" stroke="#63b8ff" points="100.3,-342.1 89.92,-339.96 96.7,-348.1 100.3,-342.1"/>
</g>
<!-- Node15&#45;&gt;Node3 -->
<g id="edge35" class="edge">
<title>Node15&#45;&gt;Node3</title>
<path fill="none" stroke="#63b8ff" d="M299.37,-411.95C431.17,-415.35 742.51,-427.54 1000,-469.69 1009.64,-471.27 1019.73,-473.34 1029.58,-475.62"/>
<polygon fill="#63b8ff" stroke="#63b8ff" points="1028.56,-478.97 1039.11,-477.9 1030.2,-472.16 1028.56,-478.97"/>
</g>
<!-- Node15&#45;&gt;Node5 -->
<g id="edge33" class="edge">
<title>Node15&#45;&gt;Node5</title>
<path fill="none" stroke="#63b8ff" d="M263.83,-426.06C276.69,-434.54 290.82,-446.29 299,-460.69 360.31,-568.64 273.86,-629.64 335,-737.69 401.61,-855.4 438.25,-926.69 573.5,-926.69 573.5,-926.69 573.5,-926.69 937.5,-926.69 1074.92,-926.69 1198.23,-790.55 1243.57,-733.93"/>
<polygon fill="#63b8ff" stroke="#63b8ff" points="1246.27,-736.16 1249.71,-726.14 1240.77,-731.83 1246.27,-736.16"/>
</g>
<!-- Node15&#45;&gt;Node8 -->
<g id="edge34" class="edge">
<title>Node15&#45;&gt;Node8</title>
<path fill="none" stroke="#63b8ff" d="M241.8,-395.45C255.02,-365.1 288.31,-296.45 335,-254.69 395.89,-200.23 426.13,-208.58 500,-173.69 766.04,-48.03 922.5,94.32 1156,-84.69 1211.32,-127.1 1247.39,-347.68 1258.42,-424.38"/>
<polygon fill="#63b8ff" stroke="#63b8ff" points="1254.9,-424.49 1259.76,-433.9 1261.83,-423.51 1254.9,-424.49"/>
</g>
<!-- Node15&#45;&gt;Node9 -->
<g id="edge37" class="edge">
<title>Node15&#45;&gt;Node9</title>
<path fill="none" stroke="#63b8ff" d="M299.28,-416.33C409.24,-425.11 641.53,-439.46 837,-423.69 844.95,-423.05 853.24,-422.12 861.47,-421.03"/>
<polygon fill="#63b8ff" stroke="#63b8ff" points="861.72,-424.53 871.13,-419.66 860.74,-417.6 861.72,-424.53"/>
</g>
<!-- Node15&#45;&gt;Node11 -->
<g id="edge36" class="edge">
<title>Node15&#45;&gt;Node11</title>
<path fill="none" stroke="#63b8ff" d="M291.63,-426.14C305.74,-429.81 320.88,-433.56 335,-436.69 489.38,-470.93 527.51,-486.41 685,-500.69 752.28,-506.79 769.49,-503.09 837,-500.69 846.01,-500.37 855.48,-499.89 864.84,-499.32"/>
<polygon fill="#63b8ff" stroke="#63b8ff" points="864.89,-502.82 874.65,-498.69 864.44,-495.84 864.89,-502.82"/>
</g>
<!-- Node15&#45;&gt;Node12 -->
<g id="edge54" class="edge">
<title>Node15&#45;&gt;Node12</title>
<path fill="none" stroke="#63b8ff" d="M263,-426.15C275.82,-434.73 290.16,-446.53 299,-460.69 339.21,-525.1 297.56,-561.64 335,-627.69 406.56,-753.94 428.38,-850.69 573.5,-850.69 573.5,-850.69 573.5,-850.69 762,-850.69 870.37,-850.69 900.75,-841.2 1000,-797.69 1025.06,-786.7 1050.36,-768.72 1068.54,-754.29"/>
<polygon fill="#63b8ff" stroke="#63b8ff" points="1070.63,-757.1 1076.18,-748.08 1066.21,-751.67 1070.63,-757.1"/>
</g>
<!-- Node15&#45;&gt;Node13 -->
<g id="edge53" class="edge">
<title>Node15&#45;&gt;Node13</title>
<path fill="none" stroke="#63b8ff" d="M240.63,-425.78C252.29,-457.93 283.83,-533.64 335,-575.69 438.46,-660.71 592.81,-700.81 684.25,-718.1"/>
<polygon fill="#63b8ff" stroke="#63b8ff" points="683.4,-721.5 693.87,-719.87 684.67,-714.62 683.4,-721.5"/>
</g>
<!-- Node16 -->
<g id="node16" class="node">
<title>Node16</title>
<g id="a_node16"><a xlink:href="a01929.html#afb36cb588b795efa513fc95e949493b7" target="_top" xlink:title=" ">
<polygon fill="white" stroke="#666666" points="464,-336.69 335,-336.69 335,-306.69 464,-306.69 464,-336.69"/>
<text text-anchor="start" x="343" y="-324.69" font-family="Helvetica,sans-Serif" font-size="10.00">nlohmann::detail::binary</text>
<text text-anchor="middle" x="399.5" y="-313.69" font-family="Helvetica,sans-Serif" font-size="10.00">_reader::get_ubjson_array</text>
</a>
</g>
</g>
<!-- Node15&#45;&gt;Node16 -->
<g id="edge38" class="edge">
<title>Node15&#45;&gt;Node16</title>
<path fill="none" stroke="#63b8ff" d="M255.16,-395.37C278.39,-380.55 317.87,-358.44 349.52,-342.18"/>
<polygon fill="#63b8ff" stroke="#63b8ff" points="350.81,-345.46 358.15,-337.81 347.64,-339.21 350.81,-345.46"/>
</g>
<!-- Node18 -->
<g id="node18" class="node">
<title>Node18</title>
<g id="a_node18"><a xlink:href="a01929.html#a26c694413fb860057e1a839d5422b361" target="_top" xlink:title=" ">
<polygon fill="white" stroke="#666666" points="637,-621.19 512,-621.19 512,-580.19 637,-580.19 637,-621.19"/>
<text text-anchor="start" x="520" y="-609.19" font-family="Helvetica,sans-Serif" font-size="10.00">nlohmann::detail::binary</text>
<text text-anchor="start" x="520" y="-598.19" font-family="Helvetica,sans-Serif" font-size="10.00">_reader::get_ubjson_high</text>
<text text-anchor="middle" x="574.5" y="-587.19" font-family="Helvetica,sans-Serif" font-size="10.00">_precision_number</text>
</a>
</g>
</g>
<!-- Node15&#45;&gt;Node18 -->
<g id="edge45" class="edge">
<title>Node15&#45;&gt;Node18</title>
<path fill="none" stroke="#63b8ff" d="M243.02,-425.96C257.16,-453.02 290.33,-509.29 335,-538.69 384.56,-571.32 450.43,-586.79 500.38,-594.12"/>
<polygon fill="#63b8ff" stroke="#63b8ff" points="499.87,-597.58 510.25,-595.48 500.82,-590.65 499.87,-597.58"/>
</g>
<!-- Node16&#45;&gt;Node2 -->
<g id="edge39" class="edge">
<title>Node16&#45;&gt;Node2</title>
<path fill="none" stroke="#63b8ff" d="M464.48,-312.6C549.55,-300.52 704.57,-278.51 837,-259.69 845.05,-258.55 853.48,-257.35 861.86,-256.16"/>
<polygon fill="#63b8ff" stroke="#63b8ff" points="862.33,-259.63 871.74,-254.75 861.34,-252.7 862.33,-259.63"/>
</g>
<!-- Node16&#45;&gt;Node4 -->
<g id="edge40" class="edge">
<title>Node16&#45;&gt;Node4</title>
<path fill="none" stroke="#63b8ff" d="M414.95,-306.39C440.08,-279.92 490.09,-227.79 500,-221.69 502.14,-220.37 504.35,-219.12 506.63,-217.93"/>
<polygon fill="#63b8ff" stroke="#63b8ff" points="507.95,-221.18 515.51,-213.75 504.97,-214.84 507.95,-221.18"/>
</g>
<!-- Node16&#45;&gt;Node15 -->
<g id="edge41" class="edge">
<title>Node16&#45;&gt;Node15</title>
<path fill="none" stroke="#63b8ff" d="M378.58,-337.17C355.32,-351.99 316.01,-374 284.48,-390.19"/>
<polygon fill="#63b8ff" stroke="#63b8ff" points="283.23,-386.9 275.89,-394.55 286.39,-393.15 283.23,-386.9"/>
</g>
<!-- Node16&#45;&gt;Node17 -->
<g id="edge42" class="edge">
<title>Node16&#45;&gt;Node17</title>
<path fill="none" stroke="#63b8ff" d="M434.88,-306.26C444.35,-301.93 454.6,-297.19 464,-292.69 480.14,-284.97 483.66,-281.98 500,-274.69 506.99,-271.57 514.42,-268.44 521.77,-265.44"/>
<polygon fill="#63b8ff" stroke="#63b8ff" points="523.03,-268.7 531.01,-261.73 520.42,-262.21 523.03,-268.7"/>
</g>
<!-- Node17&#45;&gt;Node2 -->
<g id="edge43" class="edge">
<title>Node17&#45;&gt;Node2</title>
<path fill="none" stroke="#63b8ff" d="M649.22,-245.69C711.38,-245.69 799.89,-245.69 862,-245.69"/>
<polygon fill="#63b8ff" stroke="#63b8ff" points="861.76,-249.19 871.76,-245.69 861.76,-242.19 861.76,-249.19"/>
</g>
<!-- Node17&#45;&gt;Node15 -->
<g id="edge44" class="edge">
<title>Node17&#45;&gt;Node15</title>
<path fill="none" stroke="#63b8ff" d="M499.52,-249.84C450.06,-255.38 385.13,-268.2 335,-297.69 298,-319.45 267.53,-359.79 250.44,-385.92"/>
<polygon fill="#63b8ff" stroke="#63b8ff" points="247.57,-383.9 245.16,-394.22 253.48,-387.65 247.57,-383.9"/>
</g>
<!-- Node18&#45;&gt;Node3 -->
<g id="edge48" class="edge">
<title>Node18&#45;&gt;Node3</title>
<path fill="none" stroke="#63b8ff" d="M637.23,-589.71C720.05,-574.73 871.58,-546.44 1000,-517.69 1008.08,-515.88 1016.52,-513.89 1024.89,-511.86"/>
<polygon fill="#63b8ff" stroke="#63b8ff" points="1025.48,-515.32 1034.36,-509.53 1023.81,-508.52 1025.48,-515.32"/>
</g>
<!-- Node18&#45;&gt;Node5 -->
<g id="edge46" class="edge">
<title>Node18&#45;&gt;Node5</title>
<path fill="none" stroke="#63b8ff" d="M601.62,-621.66C622.76,-637.34 654.02,-657.74 685,-667.69 732.16,-682.84 1049.3,-699.58 1192.3,-706.47"/>
<polygon fill="#63b8ff" stroke="#63b8ff" points="1191.86,-709.95 1202.02,-706.93 1192.2,-702.96 1191.86,-709.95"/>
</g>
<!-- Node18&#45;&gt;Node8 -->
<g id="edge47" class="edge">
<title>Node18&#45;&gt;Node8</title>
<path fill="none" stroke="#63b8ff" d="M637.22,-601.2C745.98,-600.08 977.16,-588.67 1156,-517.69 1184.12,-506.53 1212.96,-487.74 1233.44,-472.89"/>
<polygon fill="#63b8ff" stroke="#63b8ff" points="1235.33,-475.84 1241.28,-467.08 1231.16,-470.22 1235.33,-475.84"/>
</g>
<!-- Node18&#45;&gt;Node10 -->
<g id="edge49" class="edge">
<title>Node18&#45;&gt;Node10</title>
<path fill="none" stroke="#63b8ff" d="M591.87,-580.01C625.96,-536.97 704.39,-437.91 740.79,-391.94"/>
<polygon fill="#63b8ff" stroke="#63b8ff" points="743.49,-394.18 746.95,-384.17 738,-389.83 743.49,-394.18"/>
</g>
<!-- Node18&#45;&gt;Node12 -->
<g id="edge51" class="edge">
<title>Node18&#45;&gt;Node12</title>
<path fill="none" stroke="#63b8ff" d="M583.66,-621.67C598.22,-655.98 632.21,-723.29 685,-753.69 806.52,-823.68 862.55,-799.45 1000,-771.69 1019.47,-767.76 1039.91,-759.72 1056.82,-751.87"/>
<polygon fill="#63b8ff" stroke="#63b8ff" points="1057.99,-755.19 1065.49,-747.71 1054.96,-748.88 1057.99,-755.19"/>
</g>
<!-- Node19 -->
<g id="node19" class="node">
<title>Node19</title>
<g id="a_node19"><a xlink:href="a00411.html#a616a53cc3114fdc113fc44e6af4c3c7f" target="_top" xlink:title=" ">
<polygon fill="white" stroke="#666666" points="818.5,-658.69 703.5,-658.69 703.5,-628.69 818.5,-628.69 818.5,-658.69"/>
<text text-anchor="start" x="711.5" y="-646.69" font-family="Helvetica,sans-Serif" font-size="10.00">nlohmann::detail::input</text>
<text text-anchor="middle" x="761" y="-635.69" font-family="Helvetica,sans-Serif" font-size="10.00">_adapter</text>
</a>
</g>
</g>
<!-- Node18&#45;&gt;Node19 -->
<g id="edge50" class="edge">
<title>Node18&#45;&gt;Node19</title>
<path fill="none" stroke="#63b8ff" d="M637.45,-615.13C655.05,-619.23 674.3,-623.72 692.23,-627.89"/>
<polygon fill="#63b8ff" stroke="#63b8ff" points="691.18,-631.24 701.71,-630.11 692.77,-624.43 691.18,-631.24"/>
</g>
</g>
</svg>
