<?xml version="1.0" encoding="UTF-8" standalone="no"?>
<!DOCTYPE svg PUBLIC "-//W3C//DTD SVG 1.1//EN"
 "http://www.w3.org/Graphics/SVG/1.1/DTD/svg11.dtd">
<!-- Generated by graphviz version 8.0.5 (20230430.1635)
 -->
<!-- Title: nlohmann::detail::iter_impl::set_begin Pages: 1 -->
<svg width="554pt" height="526pt"
 viewBox="0.00 0.00 554.25 526.00" xmlns="http://www.w3.org/2000/svg" xmlns:xlink="http://www.w3.org/1999/xlink">
<g id="graph0" class="graph" transform="scale(1 1) rotate(0) translate(4 522)">
<title>nlohmann::detail::iter_impl::set_begin</title>
<!-- Node1 -->
<g id="node1" class="node">
<title>Node1</title>
<g id="a_node1"><a xlink:title="set the iterator to the first value">
<polygon fill="#999999" stroke="#666666" points="546.25,-241 439.5,-241 439.5,-209 546.25,-209 546.25,-241"/>
<text text-anchor="start" x="447.5" y="-227.5" font-family="Helvetica,sans-Serif" font-size="10.00">nlohmann::detail::iter</text>
<text text-anchor="middle" x="492.88" y="-215.5" font-family="Helvetica,sans-Serif" font-size="10.00">_impl::set_begin</text>
</a>
</g>
</g>
<!-- Node2 -->
<g id="node2" class="node">
<title>Node2</title>
<g id="a_node2"><a xlink:href="a01593.html#a23b495b4c282e4afacf382f5b49af7c7" target="_top" xlink:title="returns an iterator to the first element">
<polygon fill="white" stroke="#666666" points="403.5,-350 293,-350 293,-318 403.5,-318 403.5,-350"/>
<text text-anchor="start" x="301" y="-336.5" font-family="Helvetica,sans-Serif" font-size="10.00">nlohmann::basic_json</text>
<text text-anchor="middle" x="348.25" y="-324.5" font-family="Helvetica,sans-Serif" font-size="10.00">::begin</text>
</a>
</g>
</g>
<!-- Node1&#45;&gt;Node2 -->
<g id="edge1" class="edge">
<title>Node1&#45;&gt;Node2</title>
<path fill="none" stroke="#63b8ff" d="M462.14,-247.73C434.85,-268.58 395.07,-298.98 370.75,-317.57"/>
<polygon fill="#63b8ff" stroke="#63b8ff" points="463.7,-250.17 469.52,-241.32 459.45,-244.61 463.7,-250.17"/>
</g>
<!-- Node9 -->
<g id="node9" class="node">
<title>Node9</title>
<g id="a_node9"><a xlink:href="a01593.html#ae508c13e3ad6ce445bcaf24a2bc7d039" target="_top" xlink:title="returns a const iterator to the first element">
<polygon fill="white" stroke="#666666" points="403.5,-157 293,-157 293,-125 403.5,-125 403.5,-157"/>
<text text-anchor="start" x="301" y="-143.5" font-family="Helvetica,sans-Serif" font-size="10.00">nlohmann::basic_json</text>
<text text-anchor="middle" x="348.25" y="-131.5" font-family="Helvetica,sans-Serif" font-size="10.00">::cbegin</text>
</a>
</g>
</g>
<!-- Node1&#45;&gt;Node9 -->
<g id="edge10" class="edge">
<title>Node1&#45;&gt;Node9</title>
<path fill="none" stroke="#63b8ff" d="M454.76,-203.14C430.45,-188.82 399.18,-170.41 377.02,-157.35"/>
<polygon fill="#63b8ff" stroke="#63b8ff" points="452.64,-206.55 463.04,-208.6 456.2,-200.51 452.64,-206.55"/>
</g>
<!-- Node3 -->
<g id="node3" class="node">
<title>Node3</title>
<g id="a_node3"><a xlink:href="a01593.html#a1c1f21327df91a4dd6c5f5a107240385" target="_top" xlink:title="creates a diff as a JSON patch">
<polygon fill="white" stroke="#666666" points="257,-232 146.5,-232 146.5,-200 257,-200 257,-232"/>
<text text-anchor="start" x="154.5" y="-218.5" font-family="Helvetica,sans-Serif" font-size="10.00">nlohmann::basic_json</text>
<text text-anchor="middle" x="201.75" y="-206.5" font-family="Helvetica,sans-Serif" font-size="10.00">::diff</text>
</a>
</g>
</g>
<!-- Node2&#45;&gt;Node3 -->
<g id="edge2" class="edge">
<title>Node2&#45;&gt;Node3</title>
<path fill="none" stroke="#63b8ff" d="M319.76,-310.88C301.95,-295.96 278.21,-276.21 257,-259 246.08,-250.14 233.81,-240.4 223.71,-232.43"/>
<polygon fill="#63b8ff" stroke="#63b8ff" points="317.08,-314.03 326.99,-317.78 321.58,-308.67 317.08,-314.03"/>
</g>
<!-- Node4 -->
<g id="node4" class="node">
<title>Node4</title>
<g id="a_node4"><a xlink:href="a01593.html#af244c096197a233edba4c83200ae66ac" target="_top" xlink:title="add an object to an object if key does not exist">
<polygon fill="white" stroke="#666666" points="257,-518 146.5,-518 146.5,-486 257,-486 257,-518"/>
<text text-anchor="start" x="154.5" y="-504.5" font-family="Helvetica,sans-Serif" font-size="10.00">nlohmann::basic_json</text>
<text text-anchor="middle" x="201.75" y="-492.5" font-family="Helvetica,sans-Serif" font-size="10.00">::emplace</text>
</a>
</g>
</g>
<!-- Node2&#45;&gt;Node4 -->
<g id="edge4" class="edge">
<title>Node2&#45;&gt;Node4</title>
<path fill="none" stroke="#63b8ff" d="M336.42,-360.04C322.24,-391.4 294.68,-443.96 257,-477 253.34,-480.21 249.19,-483.09 244.86,-485.64"/>
<polygon fill="#63b8ff" stroke="#63b8ff" points="339.89,-361.84 340.71,-351.28 333.48,-359.03 339.89,-361.84"/>
</g>
<!-- Node5 -->
<g id="node5" class="node">
<title>Node5</title>
<g id="a_node5"><a xlink:href="a01593.html#a5417ca43ae5e7a3a2f82eee2d915c6ed" target="_top" xlink:title="access the first element">
<polygon fill="white" stroke="#666666" points="257,-468 146.5,-468 146.5,-436 257,-436 257,-468"/>
<text text-anchor="start" x="154.5" y="-454.5" font-family="Helvetica,sans-Serif" font-size="10.00">nlohmann::basic_json</text>
<text text-anchor="middle" x="201.75" y="-442.5" font-family="Helvetica,sans-Serif" font-size="10.00">::front</text>
</a>
</g>
</g>
<!-- Node2&#45;&gt;Node5 -->
<g id="edge5" class="edge">
<title>Node2&#45;&gt;Node5</title>
<path fill="none" stroke="#63b8ff" d="M327.75,-358.67C310.73,-378.99 284.51,-407.52 257,-427 252.6,-430.12 247.75,-433 242.81,-435.61"/>
<polygon fill="#63b8ff" stroke="#63b8ff" points="331.03,-361.19 334.68,-351.24 325.62,-356.75 331.03,-361.19"/>
</g>
<!-- Node6 -->
<g id="node6" class="node">
<title>Node6</title>
<g id="a_node6"><a xlink:href="a01593.html#a844a77cb154752d12118f10af26d54cb" target="_top" xlink:title="applies a JSON Merge Patch">
<polygon fill="white" stroke="#666666" points="257,-400 146.5,-400 146.5,-368 257,-368 257,-400"/>
<text text-anchor="start" x="154.5" y="-386.5" font-family="Helvetica,sans-Serif" font-size="10.00">nlohmann::basic_json</text>
<text text-anchor="middle" x="201.75" y="-374.5" font-family="Helvetica,sans-Serif" font-size="10.00">::merge_patch</text>
</a>
</g>
</g>
<!-- Node2&#45;&gt;Node6 -->
<g id="edge6" class="edge">
<title>Node2&#45;&gt;Node6</title>
<path fill="none" stroke="#63b8ff" d="M289.62,-353.94C276.53,-358.47 262.78,-363.23 250.17,-367.59"/>
<polygon fill="#63b8ff" stroke="#63b8ff" points="290.63,-356.95 298.94,-350.37 288.34,-350.33 290.63,-356.95"/>
</g>
<!-- Node7 -->
<g id="node7" class="node">
<title>Node7</title>
<g id="a_node7"><a xlink:href="a01593.html#adcc786998f220a5b3083ee8a37c4553e" target="_top" xlink:title="applies a JSON patch">
<polygon fill="white" stroke="#666666" points="257,-350 146.5,-350 146.5,-318 257,-318 257,-350"/>
<text text-anchor="start" x="154.5" y="-336.5" font-family="Helvetica,sans-Serif" font-size="10.00">nlohmann::basic_json</text>
<text text-anchor="middle" x="201.75" y="-324.5" font-family="Helvetica,sans-Serif" font-size="10.00">::patch</text>
</a>
</g>
</g>
<!-- Node2&#45;&gt;Node7 -->
<g id="edge8" class="edge">
<title>Node2&#45;&gt;Node7</title>
<path fill="none" stroke="#63b8ff" d="M281.68,-334C273.58,-334 265.37,-334 257.46,-334"/>
<polygon fill="#63b8ff" stroke="#63b8ff" points="281.62,-337.5 291.62,-334 281.62,-330.5 281.62,-337.5"/>
</g>
<!-- Node8 -->
<g id="node8" class="node">
<title>Node8</title>
<g id="a_node8"><a xlink:href="a01593.html#a7a328b29b290cc300345376c54f618cb" target="_top" xlink:title="returns an iterator to the reverse&#45;end">
<polygon fill="white" stroke="#666666" points="257,-300 146.5,-300 146.5,-268 257,-268 257,-300"/>
<text text-anchor="start" x="154.5" y="-286.5" font-family="Helvetica,sans-Serif" font-size="10.00">nlohmann::basic_json</text>
<text text-anchor="middle" x="201.75" y="-274.5" font-family="Helvetica,sans-Serif" font-size="10.00">::rend</text>
</a>
</g>
</g>
<!-- Node2&#45;&gt;Node8 -->
<g id="edge9" class="edge">
<title>Node2&#45;&gt;Node8</title>
<path fill="none" stroke="#63b8ff" d="M289.62,-314.06C276.53,-309.53 262.78,-304.77 250.17,-300.41"/>
<polygon fill="#63b8ff" stroke="#63b8ff" points="288.34,-317.67 298.94,-317.63 290.63,-311.05 288.34,-317.67"/>
</g>
<!-- Node3&#45;&gt;Node3 -->
<g id="edge3" class="edge">
<title>Node3&#45;&gt;Node3</title>
<path fill="none" stroke="#63b8ff" d="M226.82,-243.05C223.01,-247.19 214.65,-250 201.75,-250 179.43,-250 170.71,-241.58 175.6,-232.44"/>
<polygon fill="#63b8ff" stroke="#63b8ff" points="230.37,-243.75 227.9,-233.44 223.41,-243.04 230.37,-243.75"/>
</g>
<!-- Node6&#45;&gt;Node6 -->
<g id="edge7" class="edge">
<title>Node6&#45;&gt;Node6</title>
<path fill="none" stroke="#63b8ff" d="M226.82,-411.05C223.01,-415.19 214.65,-418 201.75,-418 179.43,-418 170.71,-409.58 175.6,-400.44"/>
<polygon fill="#63b8ff" stroke="#63b8ff" points="230.37,-411.75 227.9,-401.44 223.41,-411.04 230.37,-411.75"/>
</g>
<!-- Node9&#45;&gt;Node3 -->
<g id="edge14" class="edge">
<title>Node9&#45;&gt;Node3</title>
<path fill="none" stroke="#63b8ff" d="M309.52,-162.72C293.47,-171.74 274.47,-182.15 257,-191 251.36,-193.86 245.32,-196.77 239.4,-199.56"/>
<polygon fill="#63b8ff" stroke="#63b8ff" points="311.11,-165.28 318.09,-157.31 307.66,-159.19 311.11,-165.28"/>
</g>
<!-- Node10 -->
<g id="node10" class="node">
<title>Node10</title>
<g id="a_node10"><a xlink:href="a01593.html#a4f147be16fcde9f510c4aac89ab511c9" target="_top" xlink:title="returns a const iterator to the first element">
<polygon fill="white" stroke="#666666" points="257,-182 146.5,-182 146.5,-150 257,-150 257,-182"/>
<text text-anchor="start" x="154.5" y="-168.5" font-family="Helvetica,sans-Serif" font-size="10.00">nlohmann::basic_json</text>
<text text-anchor="middle" x="201.75" y="-156.5" font-family="Helvetica,sans-Serif" font-size="10.00">::begin</text>
</a>
</g>
</g>
<!-- Node9&#45;&gt;Node10 -->
<g id="edge11" class="edge">
<title>Node9&#45;&gt;Node10</title>
<path fill="none" stroke="#63b8ff" d="M281.96,-152.3C273.77,-153.71 265.46,-155.15 257.46,-156.54"/>
<polygon fill="#63b8ff" stroke="#63b8ff" points="282.36,-155.61 291.62,-150.45 281.17,-148.71 282.36,-155.61"/>
</g>
<!-- Node11 -->
<g id="node11" class="node">
<title>Node11</title>
<g id="a_node11"><a xlink:href="a01593.html#a223480466a0922267d680ec8f0722d58" target="_top" xlink:title="returns a const reverse iterator to one before the first">
<polygon fill="white" stroke="#666666" points="257,-132 146.5,-132 146.5,-100 257,-100 257,-132"/>
<text text-anchor="start" x="154.5" y="-118.5" font-family="Helvetica,sans-Serif" font-size="10.00">nlohmann::basic_json</text>
<text text-anchor="middle" x="201.75" y="-106.5" font-family="Helvetica,sans-Serif" font-size="10.00">::crend</text>
</a>
</g>
</g>
<!-- Node9&#45;&gt;Node11 -->
<g id="edge12" class="edge">
<title>Node9&#45;&gt;Node11</title>
<path fill="none" stroke="#63b8ff" d="M281.96,-129.7C273.77,-128.29 265.46,-126.85 257.46,-125.46"/>
<polygon fill="#63b8ff" stroke="#63b8ff" points="281.17,-133.29 291.62,-131.55 282.36,-126.39 281.17,-133.29"/>
</g>
<!-- Node13 -->
<g id="node13" class="node">
<title>Node13</title>
<g id="a_node13"><a xlink:href="a01593.html#a5ac8f974c178cf9326b6765e22f50eb6" target="_top" xlink:title="access the first element">
<polygon fill="white" stroke="#666666" points="257,-82 146.5,-82 146.5,-50 257,-50 257,-82"/>
<text text-anchor="start" x="154.5" y="-68.5" font-family="Helvetica,sans-Serif" font-size="10.00">nlohmann::basic_json</text>
<text text-anchor="middle" x="201.75" y="-56.5" font-family="Helvetica,sans-Serif" font-size="10.00">::front</text>
</a>
</g>
</g>
<!-- Node9&#45;&gt;Node13 -->
<g id="edge15" class="edge">
<title>Node9&#45;&gt;Node13</title>
<path fill="none" stroke="#63b8ff" d="M309.52,-119.28C293.47,-110.26 274.47,-99.85 257,-91 251.36,-88.14 245.32,-85.23 239.4,-82.44"/>
<polygon fill="#63b8ff" stroke="#63b8ff" points="307.66,-122.81 318.09,-124.69 311.11,-116.72 307.66,-122.81"/>
</g>
<!-- Node14 -->
<g id="node14" class="node">
<title>Node14</title>
<g id="a_node14"><a xlink:href="a01593.html#a377819905d567f6f523dcbc592cb6356" target="_top" xlink:title="updates a JSON object from another object, overwriting existing keys">
<polygon fill="white" stroke="#666666" points="257,-32 146.5,-32 146.5,0 257,0 257,-32"/>
<text text-anchor="start" x="154.5" y="-18.5" font-family="Helvetica,sans-Serif" font-size="10.00">nlohmann::basic_json</text>
<text text-anchor="middle" x="201.75" y="-6.5" font-family="Helvetica,sans-Serif" font-size="10.00">::update</text>
</a>
</g>
</g>
<!-- Node9&#45;&gt;Node14 -->
<g id="edge16" class="edge">
<title>Node9&#45;&gt;Node14</title>
<path fill="none" stroke="#63b8ff" d="M329.22,-115.81C312.47,-93.83 285.85,-62.22 257,-41 252.74,-37.87 248.02,-34.99 243.2,-32.39"/>
<polygon fill="#63b8ff" stroke="#63b8ff" points="326.98,-117.66 335.76,-123.58 332.59,-113.48 326.98,-117.66"/>
</g>
<!-- Node12 -->
<g id="node12" class="node">
<title>Node12</title>
<g id="a_node12"><a xlink:href="a01593.html#a2e4cbf41d593d41847b90aea55e5e84d" target="_top" xlink:title="returns a const reverse iterator to one before the first">
<polygon fill="white" stroke="#666666" points="110.5,-132 0,-132 0,-100 110.5,-100 110.5,-132"/>
<text text-anchor="start" x="8" y="-118.5" font-family="Helvetica,sans-Serif" font-size="10.00">nlohmann::basic_json</text>
<text text-anchor="middle" x="55.25" y="-106.5" font-family="Helvetica,sans-Serif" font-size="10.00">::rend</text>
</a>
</g>
</g>
<!-- Node11&#45;&gt;Node12 -->
<g id="edge13" class="edge">
<title>Node11&#45;&gt;Node12</title>
<path fill="none" stroke="#63b8ff" d="M135.18,-116C127.08,-116 118.87,-116 110.96,-116"/>
<polygon fill="#63b8ff" stroke="#63b8ff" points="135.12,-119.5 145.12,-116 135.12,-112.5 135.12,-119.5"/>
</g>
</g>
</svg>
