<?xml version="1.0" encoding="UTF-8" standalone="no"?>
<!DOCTYPE svg PUBLIC "-//W3C//DTD SVG 1.1//EN"
 "http://www.w3.org/Graphics/SVG/1.1/DTD/svg11.dtd">
<!-- Generated by graphviz version 2.43.0 (0)
 -->
<!-- Title: nlohmann::detail::binary_writer::write_bson_object_entry Pages: 1 -->
<svg width="1888pt" height="648pt"
 viewBox="0.00 0.00 1888.00 648.00" xmlns="http://www.w3.org/2000/svg" xmlns:xlink="http://www.w3.org/1999/xlink">
<g id="graph0" class="graph" transform="scale(1 1) rotate(0) translate(4 644)">
<title>nlohmann::detail::binary_writer::write_bson_object_entry</title>
<polygon fill="white" stroke="transparent" points="-4,4 -4,-644 1884,-644 1884,4 -4,4"/>
<!-- Node1 -->
<g id="node1" class="node">
<title>Node1</title>
<g id="a_node1"><a xlink:title="Writes a BSON element with key name and object value.">
<polygon fill="#bfbfbf" stroke="black" points="0,-349.5 0,-379.5 176,-379.5 176,-349.5 0,-349.5"/>
<text text-anchor="start" x="8" y="-367.5" font-family="Helvetica,sans-Serif" font-size="10.00">nlohmann::detail::binary</text>
<text text-anchor="middle" x="88" y="-356.5" font-family="Helvetica,sans-Serif" font-size="10.00">_writer::write_bson_object_entry</text>
</a>
</g>
</g>
<!-- Node2 -->
<g id="node2" class="node">
<title>Node2</title>
<g id="a_node2"><a xlink:href="a01985.html#a1b5b7f5c03b1f8b1f59ea61db9634108" target="_top" xlink:title="Writes the given element_type and name to the output adapter.">
<polygon fill="white" stroke="black" points="779,-380.5 779,-410.5 958,-410.5 958,-380.5 779,-380.5"/>
<text text-anchor="start" x="787" y="-398.5" font-family="Helvetica,sans-Serif" font-size="10.00">nlohmann::detail::binary</text>
<text text-anchor="middle" x="868.5" y="-387.5" font-family="Helvetica,sans-Serif" font-size="10.00">_writer::write_bson_entry_header</text>
</a>
</g>
</g>
<!-- Node1&#45;&gt;Node2 -->
<g id="edge1" class="edge">
<title>Node1&#45;&gt;Node2</title>
<path fill="none" stroke="midnightblue" d="M125.73,-379.52C206.75,-411.75 407.61,-486.69 584,-512.5 653.92,-522.73 684.25,-551.77 743,-512.5 777.79,-489.25 748.46,-454.1 779,-425.5 783.07,-421.69 787.64,-418.36 792.51,-415.45"/>
<polygon fill="midnightblue" stroke="midnightblue" points="794.35,-418.44 801.54,-410.66 791.07,-412.25 794.35,-418.44"/>
</g>
<!-- Node4 -->
<g id="node4" class="node">
<title>Node4</title>
<g id="a_node4"><a xlink:href="a01985.html#a29b3e0f83a8e5f2307804023109ba2c9" target="_top" xlink:title=" ">
<polygon fill="white" stroke="black" points="212,-256.5 212,-286.5 357,-286.5 357,-256.5 212,-256.5"/>
<text text-anchor="start" x="220" y="-274.5" font-family="Helvetica,sans-Serif" font-size="10.00">nlohmann::detail::binary</text>
<text text-anchor="middle" x="284.5" y="-263.5" font-family="Helvetica,sans-Serif" font-size="10.00">_writer::write_bson_object</text>
</a>
</g>
</g>
<!-- Node1&#45;&gt;Node4 -->
<g id="edge3" class="edge">
<title>Node1&#45;&gt;Node4</title>
<path fill="none" stroke="midnightblue" d="M120.68,-349.35C153.88,-333.48 206.17,-308.47 242.5,-291.1"/>
<polygon fill="midnightblue" stroke="midnightblue" points="244.32,-294.11 251.83,-286.64 241.3,-287.8 244.32,-294.11"/>
</g>
<!-- Node3 -->
<g id="node3" class="node">
<title>Node3</title>
<g id="a_node3"><a xlink:href="a01985.html#ab77aa48692bd4e64e4f051ce6aeb6d2d" target="_top" xlink:title=" ">
<polygon fill="white" stroke="black" points="1013.5,-380.5 1013.5,-410.5 1149.5,-410.5 1149.5,-380.5 1013.5,-380.5"/>
<text text-anchor="start" x="1021.5" y="-398.5" font-family="Helvetica,sans-Serif" font-size="10.00">nlohmann::detail::binary</text>
<text text-anchor="middle" x="1081.5" y="-387.5" font-family="Helvetica,sans-Serif" font-size="10.00">_writer::to_char_type</text>
</a>
</g>
</g>
<!-- Node2&#45;&gt;Node3 -->
<g id="edge2" class="edge">
<title>Node2&#45;&gt;Node3</title>
<path fill="none" stroke="midnightblue" d="M958.07,-395.5C973.09,-395.5 988.59,-395.5 1003.3,-395.5"/>
<polygon fill="midnightblue" stroke="midnightblue" points="1003.34,-399 1013.34,-395.5 1003.34,-392 1003.34,-399"/>
</g>
<!-- Node4&#45;&gt;Node3 -->
<g id="edge5" class="edge">
<title>Node4&#45;&gt;Node3</title>
<path fill="none" stroke="midnightblue" d="M336.48,-256.48C421.19,-233.56 596.16,-194.88 743,-218.5 842.35,-234.48 873.05,-235.56 958,-289.5 977.64,-301.97 976.81,-311.82 994,-327.5 1012.32,-344.2 1034.29,-361.44 1051.51,-374.39"/>
<polygon fill="midnightblue" stroke="midnightblue" points="1049.43,-377.2 1059.54,-380.37 1053.61,-371.59 1049.43,-377.2"/>
</g>
<!-- Node5 -->
<g id="node5" class="node">
<title>Node5</title>
<g id="a_node5"><a xlink:href="a01985.html#acc6f1cc1fd370ee84ebc8cf7b8712840" target="_top" xlink:title="Calculates the size of the BSON serialization of the given JSON&#45;object j.">
<polygon fill="white" stroke="black" points="1212.5,-0.5 1212.5,-30.5 1376.5,-30.5 1376.5,-0.5 1212.5,-0.5"/>
<text text-anchor="start" x="1220.5" y="-18.5" font-family="Helvetica,sans-Serif" font-size="10.00">nlohmann::detail::binary</text>
<text text-anchor="middle" x="1294.5" y="-7.5" font-family="Helvetica,sans-Serif" font-size="10.00">_writer::calc_bson_object_size</text>
</a>
</g>
</g>
<!-- Node4&#45;&gt;Node5 -->
<g id="edge4" class="edge">
<title>Node4&#45;&gt;Node5</title>
<path fill="none" stroke="midnightblue" d="M301.27,-256.36C350.37,-210.86 506.62,-78.5 662.5,-78.5 662.5,-78.5 662.5,-78.5 869.5,-78.5 994.47,-78.5 1137.93,-51.39 1221.85,-32.74"/>
<polygon fill="midnightblue" stroke="midnightblue" points="1222.79,-36.12 1231.78,-30.51 1221.26,-29.29 1222.79,-36.12"/>
</g>
<!-- Node6 -->
<g id="node6" class="node">
<title>Node6</title>
<g id="a_node6"><a xlink:href="a01985.html#a7ff58bf1a80018148bed860667ffca07" target="_top" xlink:title="Serializes the JSON value j to BSON and associates it with the key name.">
<polygon fill="white" stroke="black" points="393,-349.5 393,-379.5 548,-379.5 548,-349.5 393,-349.5"/>
<text text-anchor="start" x="401" y="-367.5" font-family="Helvetica,sans-Serif" font-size="10.00">nlohmann::detail::binary</text>
<text text-anchor="middle" x="470.5" y="-356.5" font-family="Helvetica,sans-Serif" font-size="10.00">_writer::write_bson_element</text>
</a>
</g>
</g>
<!-- Node4&#45;&gt;Node6 -->
<g id="edge6" class="edge">
<title>Node4&#45;&gt;Node6</title>
<path fill="none" stroke="midnightblue" d="M315.47,-286.65C346.75,-302.46 395.92,-327.31 430.27,-344.67"/>
<polygon fill="midnightblue" stroke="midnightblue" points="429.04,-347.97 439.54,-349.36 432.19,-341.72 429.04,-347.97"/>
</g>
<!-- Node6&#45;&gt;Node1 -->
<g id="edge39" class="edge">
<title>Node6&#45;&gt;Node1</title>
<path fill="none" stroke="midnightblue" d="M392.92,-364.5C333.46,-364.5 250.61,-364.5 186.43,-364.5"/>
<polygon fill="midnightblue" stroke="midnightblue" points="186.29,-361 176.29,-364.5 186.29,-368 186.29,-361"/>
</g>
<!-- Node7 -->
<g id="node7" class="node">
<title>Node7</title>
<g id="a_node7"><a xlink:href="a01985.html#a025212bd170253638b9f05b3b6aa5bf9" target="_top" xlink:title="Writes a BSON element with key name and array value.">
<polygon fill="white" stroke="black" points="593.5,-227.5 593.5,-257.5 733.5,-257.5 733.5,-227.5 593.5,-227.5"/>
<text text-anchor="start" x="601.5" y="-245.5" font-family="Helvetica,sans-Serif" font-size="10.00">nlohmann::detail::binary</text>
<text text-anchor="middle" x="663.5" y="-234.5" font-family="Helvetica,sans-Serif" font-size="10.00">_writer::write_bson_array</text>
</a>
</g>
</g>
<!-- Node6&#45;&gt;Node7 -->
<g id="edge7" class="edge">
<title>Node6&#45;&gt;Node7</title>
<path fill="none" stroke="midnightblue" d="M480.42,-349.4C498.24,-326.03 540.33,-282.92 584,-258.5 584.09,-258.45 584.19,-258.4 584.28,-258.34"/>
<polygon fill="midnightblue" stroke="midnightblue" points="585.98,-261.4 593.32,-253.76 582.82,-255.16 585.98,-261.4"/>
</g>
<!-- Node19 -->
<g id="node19" class="node">
<title>Node19</title>
<g id="a_node19"><a xlink:href="a01985.html#a97d34d9a70ddc06ae782c55454df42bc" target="_top" xlink:title="Writes a BSON element with key name and binary value value.">
<polygon fill="white" stroke="black" points="590.5,-609.5 590.5,-639.5 736.5,-639.5 736.5,-609.5 590.5,-609.5"/>
<text text-anchor="start" x="598.5" y="-627.5" font-family="Helvetica,sans-Serif" font-size="10.00">nlohmann::detail::binary</text>
<text text-anchor="middle" x="663.5" y="-616.5" font-family="Helvetica,sans-Serif" font-size="10.00">_writer::write_bson_binary</text>
</a>
</g>
</g>
<!-- Node6&#45;&gt;Node19 -->
<g id="edge27" class="edge">
<title>Node6&#45;&gt;Node19</title>
<path fill="none" stroke="midnightblue" d="M474.34,-379.78C482.91,-421.59 512.49,-538.86 584,-600.5 585.5,-601.79 587.06,-603.01 588.69,-604.17"/>
<polygon fill="midnightblue" stroke="midnightblue" points="586.86,-607.16 597.21,-609.42 590.53,-601.19 586.86,-607.16"/>
</g>
<!-- Node21 -->
<g id="node21" class="node">
<title>Node21</title>
<g id="a_node21"><a xlink:href="a01985.html#ae099435e1df3096e0fc78333282f8f67" target="_top" xlink:title="Writes a BSON element with key name and boolean value value.">
<polygon fill="white" stroke="black" points="586.5,-276.5 586.5,-306.5 740.5,-306.5 740.5,-276.5 586.5,-276.5"/>
<text text-anchor="start" x="594.5" y="-294.5" font-family="Helvetica,sans-Serif" font-size="10.00">nlohmann::detail::binary</text>
<text text-anchor="middle" x="663.5" y="-283.5" font-family="Helvetica,sans-Serif" font-size="10.00">_writer::write_bson_boolean</text>
</a>
</g>
</g>
<!-- Node6&#45;&gt;Node21 -->
<g id="edge30" class="edge">
<title>Node6&#45;&gt;Node21</title>
<path fill="none" stroke="midnightblue" d="M504.64,-349.38C526.87,-339.48 556.93,-326.56 584,-316.5 590.22,-314.19 596.75,-311.9 603.3,-309.69"/>
<polygon fill="midnightblue" stroke="midnightblue" points="604.45,-312.99 612.84,-306.53 602.25,-306.35 604.45,-312.99"/>
</g>
<!-- Node22 -->
<g id="node22" class="node">
<title>Node22</title>
<g id="a_node22"><a xlink:href="a01985.html#a263ec18815467bb9919021ef126919ca" target="_top" xlink:title="Writes a BSON element with key name and double value value.">
<polygon fill="white" stroke="black" points="589.5,-472.5 589.5,-502.5 737.5,-502.5 737.5,-472.5 589.5,-472.5"/>
<text text-anchor="start" x="597.5" y="-490.5" font-family="Helvetica,sans-Serif" font-size="10.00">nlohmann::detail::binary</text>
<text text-anchor="middle" x="663.5" y="-479.5" font-family="Helvetica,sans-Serif" font-size="10.00">_writer::write_bson_double</text>
</a>
</g>
</g>
<!-- Node6&#45;&gt;Node22 -->
<g id="edge33" class="edge">
<title>Node6&#45;&gt;Node22</title>
<path fill="none" stroke="midnightblue" d="M484.87,-379.82C504.54,-401.44 543.34,-440.8 584,-463.5 587.24,-465.31 590.63,-467 594.11,-468.57"/>
<polygon fill="midnightblue" stroke="midnightblue" points="592.91,-471.86 603.49,-472.48 595.6,-465.4 592.91,-471.86"/>
</g>
<!-- Node23 -->
<g id="node23" class="node">
<title>Node23</title>
<g id="a_node23"><a xlink:href="a01985.html#a553ad4dbdf27238eef90867e4bf2f3e5" target="_top" xlink:title="Writes a BSON element with key name and integer value.">
<polygon fill="white" stroke="black" points="589,-423.5 589,-453.5 738,-453.5 738,-423.5 589,-423.5"/>
<text text-anchor="start" x="597" y="-441.5" font-family="Helvetica,sans-Serif" font-size="10.00">nlohmann::detail::binary</text>
<text text-anchor="middle" x="663.5" y="-430.5" font-family="Helvetica,sans-Serif" font-size="10.00">_writer::write_bson_integer</text>
</a>
</g>
</g>
<!-- Node6&#45;&gt;Node23 -->
<g id="edge35" class="edge">
<title>Node6&#45;&gt;Node23</title>
<path fill="none" stroke="midnightblue" d="M502.6,-379.55C524.95,-390.06 555.97,-404.03 584,-414.5 589.17,-416.43 594.58,-418.33 600.03,-420.16"/>
<polygon fill="midnightblue" stroke="midnightblue" points="599.25,-423.59 609.84,-423.37 601.43,-416.93 599.25,-423.59"/>
</g>
<!-- Node24 -->
<g id="node24" class="node">
<title>Node24</title>
<g id="a_node24"><a xlink:href="a01985.html#a9927c1110b18661e0224a76156e5a7a9" target="_top" xlink:title="Writes a BSON element with key name and null value.">
<polygon fill="white" stroke="black" points="595.5,-374.5 595.5,-404.5 731.5,-404.5 731.5,-374.5 595.5,-374.5"/>
<text text-anchor="start" x="603.5" y="-392.5" font-family="Helvetica,sans-Serif" font-size="10.00">nlohmann::detail::binary</text>
<text text-anchor="middle" x="663.5" y="-381.5" font-family="Helvetica,sans-Serif" font-size="10.00">_writer::write_bson_null</text>
</a>
</g>
</g>
<!-- Node6&#45;&gt;Node24 -->
<g id="edge37" class="edge">
<title>Node6&#45;&gt;Node24</title>
<path fill="none" stroke="midnightblue" d="M548.09,-374.52C560.33,-376.13 573.01,-377.79 585.26,-379.39"/>
<polygon fill="midnightblue" stroke="midnightblue" points="585.07,-382.9 595.44,-380.72 585.98,-375.95 585.07,-382.9"/>
</g>
<!-- Node25 -->
<g id="node25" class="node">
<title>Node25</title>
<g id="a_node25"><a xlink:href="a01985.html#a5e6574416915208fc035b57338ae3252" target="_top" xlink:title="Writes a BSON element with key name and string value value.">
<polygon fill="white" stroke="black" points="592,-325.5 592,-355.5 735,-355.5 735,-325.5 592,-325.5"/>
<text text-anchor="start" x="600" y="-343.5" font-family="Helvetica,sans-Serif" font-size="10.00">nlohmann::detail::binary</text>
<text text-anchor="middle" x="663.5" y="-332.5" font-family="Helvetica,sans-Serif" font-size="10.00">_writer::write_bson_string</text>
</a>
</g>
</g>
<!-- Node6&#45;&gt;Node25 -->
<g id="edge40" class="edge">
<title>Node6&#45;&gt;Node25</title>
<path fill="none" stroke="midnightblue" d="M548.09,-354.88C559.13,-353.49 570.53,-352.06 581.65,-350.66"/>
<polygon fill="midnightblue" stroke="midnightblue" points="582.29,-354.11 591.78,-349.39 581.42,-347.16 582.29,-354.11"/>
</g>
<!-- Node26 -->
<g id="node26" class="node">
<title>Node26</title>
<g id="a_node26"><a xlink:href="a01985.html#a5e295ed1be6af6260d2a65f7397c3742" target="_top" xlink:title="Writes a BSON element with key name and unsigned value.">
<polygon fill="white" stroke="black" points="584,-560.5 584,-590.5 743,-590.5 743,-560.5 584,-560.5"/>
<text text-anchor="start" x="592" y="-578.5" font-family="Helvetica,sans-Serif" font-size="10.00">nlohmann::detail::binary</text>
<text text-anchor="middle" x="663.5" y="-567.5" font-family="Helvetica,sans-Serif" font-size="10.00">_writer::write_bson_unsigned</text>
</a>
</g>
</g>
<!-- Node6&#45;&gt;Node26 -->
<g id="edge42" class="edge">
<title>Node6&#45;&gt;Node26</title>
<path fill="none" stroke="midnightblue" d="M481.26,-379.74C499.53,-407.69 540.99,-468.34 584,-512.5 598.92,-527.82 617.51,-542.88 632.85,-554.44"/>
<polygon fill="midnightblue" stroke="midnightblue" points="630.88,-557.33 640.99,-560.48 635.05,-551.71 630.88,-557.33"/>
</g>
<!-- Node7&#45;&gt;Node2 -->
<g id="edge26" class="edge">
<title>Node7&#45;&gt;Node2</title>
<path fill="none" stroke="midnightblue" d="M726.69,-257.5C732.51,-260.29 738.06,-263.6 743,-267.5 767.39,-286.8 758.31,-304.29 779,-327.5 795.18,-345.65 816.76,-362.34 834.55,-374.65"/>
<polygon fill="midnightblue" stroke="midnightblue" points="832.7,-377.62 842.95,-380.32 836.62,-371.82 832.7,-377.62"/>
</g>
<!-- Node7&#45;&gt;Node3 -->
<g id="edge23" class="edge">
<title>Node7&#45;&gt;Node3</title>
<path fill="none" stroke="midnightblue" d="M717.94,-257.61C726.45,-260.56 735.06,-263.88 743,-267.5 760.06,-275.29 761.58,-282.56 779,-289.5 854.56,-319.58 887.05,-287.74 958,-327.5 978.29,-338.87 974.45,-352.88 994,-365.5 1000.48,-369.68 1007.61,-373.36 1014.91,-376.56"/>
<polygon fill="midnightblue" stroke="midnightblue" points="1013.64,-379.82 1024.22,-380.38 1016.29,-373.35 1013.64,-379.82"/>
</g>
<!-- Node7&#45;&gt;Node6 -->
<g id="edge25" class="edge">
<title>Node7&#45;&gt;Node6</title>
<path fill="none" stroke="midnightblue" d="M631.12,-257.52C616.26,-262.41 598.61,-268.33 584,-276.5 551.73,-294.55 520.31,-322.81 498.92,-342.6"/>
<polygon fill="midnightblue" stroke="midnightblue" points="496.46,-340.11 491.51,-349.47 501.22,-345.24 496.46,-340.11"/>
</g>
<!-- Node8 -->
<g id="node8" class="node">
<title>Node8</title>
<g id="a_node8"><a xlink:href="a01985.html#af08f9302a02516ff8cf358a99aaa1ddf" target="_top" xlink:title=" ">
<polygon fill="white" stroke="black" points="788.5,-167.5 788.5,-197.5 948.5,-197.5 948.5,-167.5 788.5,-167.5"/>
<text text-anchor="start" x="796.5" y="-185.5" font-family="Helvetica,sans-Serif" font-size="10.00">nlohmann::detail::binary</text>
<text text-anchor="middle" x="868.5" y="-174.5" font-family="Helvetica,sans-Serif" font-size="10.00">_writer::calc_bson_array_size</text>
</a>
</g>
</g>
<!-- Node7&#45;&gt;Node8 -->
<g id="edge8" class="edge">
<title>Node7&#45;&gt;Node8</title>
<path fill="none" stroke="midnightblue" d="M715.46,-227.44C743.21,-219.23 777.73,-209.03 806.86,-200.42"/>
<polygon fill="midnightblue" stroke="midnightblue" points="807.92,-203.76 816.52,-197.57 805.93,-197.05 807.92,-203.76"/>
</g>
<!-- Node14 -->
<g id="node14" class="node">
<title>Node14</title>
<g id="a_node14"><a xlink:href="a00410.html#a6ce645a0b8717757e096a5b5773b7a16" target="_top" xlink:title="user&#45;defined to_string function for JSON values">
<polygon fill="white" stroke="black" points="1766,-307 1766,-326 1880,-326 1880,-307 1766,-307"/>
<text text-anchor="middle" x="1823" y="-314" font-family="Helvetica,sans-Serif" font-size="10.00">nlohmann::to_string</text>
</a>
</g>
</g>
<!-- Node7&#45;&gt;Node14 -->
<g id="edge24" class="edge">
<title>Node7&#45;&gt;Node14</title>
<path fill="none" stroke="midnightblue" d="M733.61,-252.62C878.72,-273.86 1202.08,-321.18 1205,-321.5 1300.24,-331.99 1324.25,-333.94 1420,-337.5 1557.68,-342.62 1593.09,-352.93 1730,-337.5 1746.16,-335.68 1763.62,-332.11 1778.94,-328.43"/>
<polygon fill="midnightblue" stroke="midnightblue" points="1779.81,-331.82 1788.66,-326.01 1778.12,-325.03 1779.81,-331.82"/>
</g>
<!-- Node9 -->
<g id="node9" class="node">
<title>Node9</title>
<g id="a_node9"><a xlink:href="a01985.html#a1e4372c5984184eb5bcc09af1fcc2ee0" target="_top" xlink:title="Calculates the size necessary to serialize the JSON value j with its name.">
<polygon fill="white" stroke="black" points="994,-164.5 994,-194.5 1169,-194.5 1169,-164.5 994,-164.5"/>
<text text-anchor="start" x="1002" y="-182.5" font-family="Helvetica,sans-Serif" font-size="10.00">nlohmann::detail::binary</text>
<text text-anchor="middle" x="1081.5" y="-171.5" font-family="Helvetica,sans-Serif" font-size="10.00">_writer::calc_bson_element_size</text>
</a>
</g>
</g>
<!-- Node8&#45;&gt;Node9 -->
<g id="edge9" class="edge">
<title>Node8&#45;&gt;Node9</title>
<path fill="none" stroke="midnightblue" d="M948.67,-174.81C960.06,-174.48 971.9,-174.26 983.59,-174.15"/>
<polygon fill="midnightblue" stroke="midnightblue" points="983.84,-177.65 993.81,-174.08 983.79,-170.65 983.84,-177.65"/>
</g>
<!-- Node8&#45;&gt;Node14 -->
<g id="edge22" class="edge">
<title>Node8&#45;&gt;Node14</title>
<path fill="none" stroke="midnightblue" d="M902.42,-197.51C961.53,-223.6 1090.21,-276.55 1205,-297.5 1402.57,-333.55 1641.52,-327 1755.39,-320.91"/>
<polygon fill="midnightblue" stroke="midnightblue" points="1755.89,-324.38 1765.68,-320.34 1755.51,-317.39 1755.89,-324.38"/>
</g>
<!-- Node9&#45;&gt;Node5 -->
<g id="edge19" class="edge">
<title>Node9&#45;&gt;Node5</title>
<path fill="none" stroke="midnightblue" d="M1099.33,-164.27C1117.44,-147.5 1146.66,-119.35 1169,-92.5 1186.98,-70.89 1182.13,-56.84 1205,-40.5 1207.73,-38.55 1210.6,-36.75 1213.59,-35.1"/>
<polygon fill="midnightblue" stroke="midnightblue" points="1215.4,-38.11 1222.8,-30.53 1212.29,-31.83 1215.4,-38.11"/>
</g>
<!-- Node9&#45;&gt;Node8 -->
<g id="edge10" class="edge">
<title>Node9&#45;&gt;Node8</title>
<path fill="none" stroke="midnightblue" d="M993.81,-187.39C982.26,-187.67 970.38,-187.85 958.78,-187.91"/>
<polygon fill="midnightblue" stroke="midnightblue" points="958.66,-184.41 948.67,-187.93 958.68,-191.41 958.66,-184.41"/>
</g>
<!-- Node10 -->
<g id="node10" class="node">
<title>Node10</title>
<g id="a_node10"><a xlink:href="a01985.html#a9dd6062fd249a695e0f93d558dba4685" target="_top" xlink:title=" ">
<polygon fill="white" stroke="black" points="1212,-159.5 1212,-189.5 1377,-189.5 1377,-159.5 1212,-159.5"/>
<text text-anchor="start" x="1220" y="-177.5" font-family="Helvetica,sans-Serif" font-size="10.00">nlohmann::detail::binary</text>
<text text-anchor="middle" x="1294.5" y="-166.5" font-family="Helvetica,sans-Serif" font-size="10.00">_writer::calc_bson_binary_size</text>
</a>
</g>
</g>
<!-- Node9&#45;&gt;Node10 -->
<g id="edge11" class="edge">
<title>Node9&#45;&gt;Node10</title>
<path fill="none" stroke="midnightblue" d="M1169.24,-177.44C1179.92,-177.19 1190.86,-176.93 1201.62,-176.68"/>
<polygon fill="midnightblue" stroke="midnightblue" points="1201.94,-180.17 1211.85,-176.43 1201.77,-173.17 1201.94,-180.17"/>
</g>
<!-- Node11 -->
<g id="node11" class="node">
<title>Node11</title>
<g id="a_node11"><a xlink:href="a01985.html#a5bae2f1db2c511b869dffaddf15a1653" target="_top" xlink:title=" ">
<polygon fill="white" stroke="black" points="1226.5,-50 1226.5,-91 1362.5,-91 1362.5,-50 1226.5,-50"/>
<text text-anchor="start" x="1234.5" y="-79" font-family="Helvetica,sans-Serif" font-size="10.00">nlohmann::detail::binary</text>
<text text-anchor="start" x="1234.5" y="-68" font-family="Helvetica,sans-Serif" font-size="10.00">_writer::calc_bson_entry</text>
<text text-anchor="middle" x="1294.5" y="-57" font-family="Helvetica,sans-Serif" font-size="10.00">_header_size</text>
</a>
</g>
</g>
<!-- Node9&#45;&gt;Node11 -->
<g id="edge12" class="edge">
<title>Node9&#45;&gt;Node11</title>
<path fill="none" stroke="midnightblue" d="M1102.4,-164.47C1125.92,-147.23 1166.71,-118.98 1205,-100.5 1209.05,-98.54 1213.27,-96.66 1217.56,-94.85"/>
<polygon fill="midnightblue" stroke="midnightblue" points="1219.09,-98.01 1227.06,-91.03 1216.47,-91.52 1219.09,-98.01"/>
</g>
<!-- Node16 -->
<g id="node16" class="node">
<title>Node16</title>
<g id="a_node16"><a xlink:href="a01985.html#aeab70c895931b96ea598306b37eca271" target="_top" xlink:title=" ">
<polygon fill="white" stroke="black" points="1210,-110.5 1210,-140.5 1379,-140.5 1379,-110.5 1210,-110.5"/>
<text text-anchor="start" x="1218" y="-128.5" font-family="Helvetica,sans-Serif" font-size="10.00">nlohmann::detail::binary</text>
<text text-anchor="middle" x="1294.5" y="-117.5" font-family="Helvetica,sans-Serif" font-size="10.00">_writer::calc_bson_integer_size</text>
</a>
</g>
</g>
<!-- Node9&#45;&gt;Node16 -->
<g id="edge18" class="edge">
<title>Node9&#45;&gt;Node16</title>
<path fill="none" stroke="midnightblue" d="M1141.28,-164.46C1167.23,-157.82 1197.92,-149.96 1224.91,-143.05"/>
<polygon fill="midnightblue" stroke="midnightblue" points="1225.85,-146.43 1234.67,-140.55 1224.12,-139.64 1225.85,-146.43"/>
</g>
<!-- Node17 -->
<g id="node17" class="node">
<title>Node17</title>
<g id="a_node17"><a xlink:href="a01985.html#aea44fd97a5cb9b4f175e66e3e4fdf158" target="_top" xlink:title=" ">
<polygon fill="white" stroke="black" points="1213.5,-257.5 1213.5,-287.5 1375.5,-287.5 1375.5,-257.5 1213.5,-257.5"/>
<text text-anchor="start" x="1221.5" y="-275.5" font-family="Helvetica,sans-Serif" font-size="10.00">nlohmann::detail::binary</text>
<text text-anchor="middle" x="1294.5" y="-264.5" font-family="Helvetica,sans-Serif" font-size="10.00">_writer::calc_bson_string_size</text>
</a>
</g>
</g>
<!-- Node9&#45;&gt;Node17 -->
<g id="edge20" class="edge">
<title>Node9&#45;&gt;Node17</title>
<path fill="none" stroke="midnightblue" d="M1105.12,-194.51C1129.07,-209.86 1168.41,-233.51 1205,-248.5 1210.06,-250.57 1215.36,-252.53 1220.74,-254.35"/>
<polygon fill="midnightblue" stroke="midnightblue" points="1219.89,-257.75 1230.48,-257.49 1222.04,-251.09 1219.89,-257.75"/>
</g>
<!-- Node18 -->
<g id="node18" class="node">
<title>Node18</title>
<g id="a_node18"><a xlink:href="a01985.html#aa1d6bb9f3af16f07ce2440c354b5787b" target="_top" xlink:title=" ">
<polygon fill="white" stroke="black" points="1205,-208.5 1205,-238.5 1384,-238.5 1384,-208.5 1205,-208.5"/>
<text text-anchor="start" x="1213" y="-226.5" font-family="Helvetica,sans-Serif" font-size="10.00">nlohmann::detail::binary</text>
<text text-anchor="middle" x="1294.5" y="-215.5" font-family="Helvetica,sans-Serif" font-size="10.00">_writer::calc_bson_unsigned_size</text>
</a>
</g>
</g>
<!-- Node9&#45;&gt;Node18 -->
<g id="edge21" class="edge">
<title>Node9&#45;&gt;Node18</title>
<path fill="none" stroke="midnightblue" d="M1154.52,-194.52C1172.84,-198.34 1192.66,-202.47 1211.44,-206.39"/>
<polygon fill="midnightblue" stroke="midnightblue" points="1210.94,-209.86 1221.44,-208.47 1212.37,-203.01 1210.94,-209.86"/>
</g>
<!-- Node12 -->
<g id="node12" class="node">
<title>Node12</title>
<g id="a_node12"><a xlink:href="a01521.html#a3f6d82a6f967c4728a1ec735a7867073" target="_top" xlink:title=" ">
<polygon fill="white" stroke="black" points="1420,-220.5 1420,-250.5 1541,-250.5 1541,-220.5 1420,-220.5"/>
<text text-anchor="start" x="1428" y="-238.5" font-family="Helvetica,sans-Serif" font-size="10.00">nlohmann::detail::out</text>
<text text-anchor="middle" x="1480.5" y="-227.5" font-family="Helvetica,sans-Serif" font-size="10.00">_of_range::create</text>
</a>
</g>
</g>
<!-- Node11&#45;&gt;Node12 -->
<g id="edge13" class="edge">
<title>Node11&#45;&gt;Node12</title>
<path fill="none" stroke="midnightblue" d="M1362.66,-86.46C1370.42,-90.2 1377.77,-94.81 1384,-100.5 1413.1,-127.06 1396.92,-149.58 1420,-181.5 1428.66,-193.48 1440.35,-204.8 1451.07,-213.95"/>
<polygon fill="midnightblue" stroke="midnightblue" points="1449.08,-216.84 1459.02,-220.49 1453.53,-211.43 1449.08,-216.84"/>
</g>
<!-- Node11&#45;&gt;Node14 -->
<g id="edge17" class="edge">
<title>Node11&#45;&gt;Node14</title>
<path fill="none" stroke="midnightblue" d="M1362.71,-77.63C1453.02,-89.9 1615.43,-121.7 1730,-199.5 1768.12,-225.39 1797.78,-271.98 1812.26,-297.87"/>
<polygon fill="midnightblue" stroke="midnightblue" points="1809.36,-299.87 1817.21,-306.99 1815.52,-296.53 1809.36,-299.87"/>
</g>
<!-- Node13 -->
<g id="node13" class="node">
<title>Node13</title>
<g id="a_node13"><a xlink:href="a01505.html#abf41a7e9178356314082284e6cfea278" target="_top" xlink:title=" ">
<polygon fill="white" stroke="black" points="1577,-208.5 1577,-238.5 1730,-238.5 1730,-208.5 1577,-208.5"/>
<text text-anchor="start" x="1585" y="-226.5" font-family="Helvetica,sans-Serif" font-size="10.00">nlohmann::detail::exception</text>
<text text-anchor="middle" x="1653.5" y="-215.5" font-family="Helvetica,sans-Serif" font-size="10.00">::name</text>
</a>
</g>
</g>
<!-- Node12&#45;&gt;Node13 -->
<g id="edge14" class="edge">
<title>Node12&#45;&gt;Node13</title>
<path fill="none" stroke="midnightblue" d="M1541.31,-231.3C1549.55,-230.72 1558.13,-230.12 1566.73,-229.52"/>
<polygon fill="midnightblue" stroke="midnightblue" points="1567.06,-233 1576.79,-228.81 1566.57,-226.02 1567.06,-233"/>
</g>
<!-- Node15 -->
<g id="node15" class="node">
<title>Node15</title>
<g id="a_node15"><a xlink:href="a01521.html#ab5fe402019dba957558499502f0fd731" target="_top" xlink:title=" ">
<polygon fill="white" stroke="black" points="1586.5,-257.5 1586.5,-287.5 1720.5,-287.5 1720.5,-257.5 1586.5,-257.5"/>
<text text-anchor="start" x="1594.5" y="-275.5" font-family="Helvetica,sans-Serif" font-size="10.00">nlohmann::detail::out</text>
<text text-anchor="middle" x="1653.5" y="-264.5" font-family="Helvetica,sans-Serif" font-size="10.00">_of_range::out_of_range</text>
</a>
</g>
</g>
<!-- Node12&#45;&gt;Node15 -->
<g id="edge16" class="edge">
<title>Node12&#45;&gt;Node15</title>
<path fill="none" stroke="midnightblue" d="M1541.31,-248.44C1552.67,-250.9 1564.7,-253.5 1576.48,-256.05"/>
<polygon fill="midnightblue" stroke="midnightblue" points="1575.79,-259.48 1586.31,-258.18 1577.27,-252.64 1575.79,-259.48"/>
</g>
<!-- Node13&#45;&gt;Node14 -->
<g id="edge15" class="edge">
<title>Node13&#45;&gt;Node14</title>
<path fill="none" stroke="midnightblue" d="M1707.37,-238.62C1715.13,-241.52 1722.89,-244.82 1730,-248.5 1757.58,-262.79 1785.8,-285 1803.58,-300.12"/>
<polygon fill="midnightblue" stroke="midnightblue" points="1801.58,-303.01 1811.43,-306.91 1806.16,-297.72 1801.58,-303.01"/>
</g>
<!-- Node19&#45;&gt;Node2 -->
<g id="edge28" class="edge">
<title>Node19&#45;&gt;Node2</title>
<path fill="none" stroke="midnightblue" d="M728.63,-609.35C733.74,-606.84 738.61,-603.91 743,-600.5 805.1,-552.21 843.35,-463.55 859.13,-420.4"/>
<polygon fill="midnightblue" stroke="midnightblue" points="862.52,-421.3 862.57,-410.71 855.93,-418.96 862.52,-421.3"/>
</g>
<!-- Node20 -->
<g id="node20" class="node">
<title>Node20</title>
<g id="a_node20"><a xlink:href="a01985.html#a6e11b7227fcecc25a548ed45507b7d1c" target="_top" xlink:title=" ">
<polygon fill="white" stroke="black" points="800.5,-609.5 800.5,-639.5 936.5,-639.5 936.5,-609.5 800.5,-609.5"/>
<text text-anchor="start" x="808.5" y="-627.5" font-family="Helvetica,sans-Serif" font-size="10.00">nlohmann::detail::binary</text>
<text text-anchor="middle" x="868.5" y="-616.5" font-family="Helvetica,sans-Serif" font-size="10.00">_writer::write_number</text>
</a>
</g>
</g>
<!-- Node19&#45;&gt;Node20 -->
<g id="edge29" class="edge">
<title>Node19&#45;&gt;Node20</title>
<path fill="none" stroke="midnightblue" d="M736.64,-624.5C753.98,-624.5 772.57,-624.5 790.13,-624.5"/>
<polygon fill="midnightblue" stroke="midnightblue" points="790.34,-628 800.34,-624.5 790.34,-621 790.34,-628"/>
</g>
<!-- Node21&#45;&gt;Node2 -->
<g id="edge32" class="edge">
<title>Node21&#45;&gt;Node2</title>
<path fill="none" stroke="midnightblue" d="M725.52,-306.62C731.7,-309.4 737.66,-312.66 743,-316.5 764.95,-332.26 757.2,-349.54 779,-365.5 784.54,-369.56 790.67,-373.09 797.04,-376.17"/>
<polygon fill="midnightblue" stroke="midnightblue" points="795.94,-379.51 806.5,-380.35 798.77,-373.11 795.94,-379.51"/>
</g>
<!-- Node21&#45;&gt;Node3 -->
<g id="edge31" class="edge">
<title>Node21&#45;&gt;Node3</title>
<path fill="none" stroke="midnightblue" d="M711.57,-306.5C740.04,-315.54 772.13,-325.65 779,-327.5 854.7,-347.9 942.21,-367.17 1003.38,-379.95"/>
<polygon fill="midnightblue" stroke="midnightblue" points="1002.84,-383.41 1013.35,-382.02 1004.27,-376.56 1002.84,-383.41"/>
</g>
<!-- Node22&#45;&gt;Node2 -->
<g id="edge34" class="edge">
<title>Node22&#45;&gt;Node2</title>
<path fill="none" stroke="midnightblue" d="M725.46,-472.35C731.59,-469.81 737.55,-466.88 743,-463.5 762.78,-451.25 759.41,-438.05 779,-425.5 785.53,-421.32 792.71,-417.65 800.07,-414.45"/>
<polygon fill="midnightblue" stroke="midnightblue" points="801.49,-417.65 809.45,-410.65 798.86,-411.16 801.49,-417.65"/>
</g>
<!-- Node23&#45;&gt;Node2 -->
<g id="edge36" class="edge">
<title>Node23&#45;&gt;Node2</title>
<path fill="none" stroke="midnightblue" d="M735.5,-423.46C752.03,-419.96 769.76,-416.2 786.68,-412.62"/>
<polygon fill="midnightblue" stroke="midnightblue" points="787.48,-416.03 796.54,-410.53 786.03,-409.18 787.48,-416.03"/>
</g>
<!-- Node24&#45;&gt;Node2 -->
<g id="edge38" class="edge">
<title>Node24&#45;&gt;Node2</title>
<path fill="none" stroke="midnightblue" d="M731.53,-391.48C743.47,-391.83 756.13,-392.21 768.73,-392.58"/>
<polygon fill="midnightblue" stroke="midnightblue" points="768.71,-396.08 778.81,-392.88 768.92,-389.08 768.71,-396.08"/>
</g>
<!-- Node25&#45;&gt;Node2 -->
<g id="edge41" class="edge">
<title>Node25&#45;&gt;Node2</title>
<path fill="none" stroke="midnightblue" d="M719.97,-355.53C745.37,-362.41 775.65,-370.61 802.14,-377.79"/>
<polygon fill="midnightblue" stroke="midnightblue" points="801.53,-381.25 812.1,-380.49 803.36,-374.5 801.53,-381.25"/>
</g>
<!-- Node26&#45;&gt;Node2 -->
<g id="edge45" class="edge">
<title>Node26&#45;&gt;Node2</title>
<path fill="none" stroke="midnightblue" d="M722.8,-560.34C730.31,-556.46 737.34,-551.59 743,-545.5 780.9,-504.71 740.33,-465.56 779,-425.5 782.64,-421.73 786.77,-418.43 791.21,-415.55"/>
<polygon fill="midnightblue" stroke="midnightblue" points="793.11,-418.49 800.07,-410.5 789.65,-412.41 793.11,-418.49"/>
</g>
<!-- Node26&#45;&gt;Node12 -->
<g id="edge43" class="edge">
<title>Node26&#45;&gt;Node12</title>
<path fill="none" stroke="midnightblue" d="M696.81,-560.43C711.23,-553.36 728.25,-544.51 743,-535.5 759.84,-525.21 761.02,-517.64 779,-509.5 940.98,-436.21 1003.37,-485.12 1169,-420.5 1271.56,-380.48 1290.02,-354.83 1384,-297.5 1405.85,-284.17 1430.03,-268.46 1448.59,-256.19"/>
<polygon fill="midnightblue" stroke="midnightblue" points="1450.56,-259.09 1456.96,-250.64 1446.69,-253.25 1450.56,-259.09"/>
</g>
<!-- Node26&#45;&gt;Node14 -->
<g id="edge44" class="edge">
<title>Node26&#45;&gt;Node14</title>
<path fill="none" stroke="midnightblue" d="M739.3,-560.46C822.31,-545.1 960.41,-523.5 1080.5,-523.5 1080.5,-523.5 1080.5,-523.5 1481.5,-523.5 1627.01,-523.5 1763.27,-383.77 1807.25,-333.91"/>
<polygon fill="midnightblue" stroke="midnightblue" points="1810.03,-336.05 1813.94,-326.21 1804.74,-331.46 1810.03,-336.05"/>
</g>
</g>
</svg>
