<?xml version="1.0" encoding="UTF-8" standalone="no"?>
<!DOCTYPE svg PUBLIC "-//W3C//DTD SVG 1.1//EN"
 "http://www.w3.org/Graphics/SVG/1.1/DTD/svg11.dtd">
<!-- Generated by graphviz version 5.0.0 (20220707.1540)
 -->
<!-- Title: nlohmann::detail::binary_reader::parse_bson_internal Pages: 1 -->
<svg width="698pt" height="323pt"
 viewBox="0.00 0.00 698.00 323.00" xmlns="http://www.w3.org/2000/svg" xmlns:xlink="http://www.w3.org/1999/xlink">
<g id="graph0" class="graph" transform="scale(1 1) rotate(0) translate(4 319)">
<title>nlohmann::detail::binary_reader::parse_bson_internal</title>
<polygon fill="white" stroke="transparent" points="-4,4 -4,-319 694,-319 694,4 -4,4"/>
<!-- Node1 -->
<g id="node1" class="node">
<title>Node1</title>
<g id="a_node1"><a xlink:title="Reads in a BSON&#45;object and passes it to the SAX&#45;parser.">
<polygon fill="#bfbfbf" stroke="black" points="548,-237.5 548,-267.5 690,-267.5 690,-237.5 548,-237.5"/>
<text text-anchor="start" x="556" y="-255.5" font-family="Helvetica,sans-Serif" font-size="10.00">nlohmann::detail::binary</text>
<text text-anchor="middle" x="619" y="-244.5" font-family="Helvetica,sans-Serif" font-size="10.00">_reader::parse_bson_internal</text>
</a>
</g>
</g>
<!-- Node2 -->
<g id="node2" class="node">
<title>Node2</title>
<g id="a_node2"><a xlink:href="a01929.html#a23bde2450d7a5772bf5051e36ff560a4" target="_top" xlink:title="Read a BSON document element of the given element_type.">
<polygon fill="white" stroke="black" points="367,-232 367,-273 512,-273 512,-232 367,-232"/>
<text text-anchor="start" x="375" y="-261" font-family="Helvetica,sans-Serif" font-size="10.00">nlohmann::detail::binary</text>
<text text-anchor="start" x="375" y="-250" font-family="Helvetica,sans-Serif" font-size="10.00">_reader::parse_bson_element</text>
<text text-anchor="middle" x="439.5" y="-239" font-family="Helvetica,sans-Serif" font-size="10.00">_internal</text>
</a>
</g>
</g>
<!-- Node1&#45;&gt;Node2 -->
<g id="edge1" class="edge">
<title>Node1&#45;&gt;Node2</title>
<path fill="none" stroke="midnightblue" d="M537.59,-252.5C529.12,-252.5 520.54,-252.5 512.18,-252.5"/>
<polygon fill="midnightblue" stroke="midnightblue" points="537.85,-256 547.85,-252.5 537.85,-249 537.85,-256"/>
</g>
<!-- Node5 -->
<g id="node5" class="node">
<title>Node5</title>
<g id="a_node5"><a xlink:href="a01929.html#ab4afd9ee276bbb15a0f898061aad94dd" target="_top" xlink:title=" ">
<polygon fill="white" stroke="black" points="379.5,-123.5 379.5,-153.5 499.5,-153.5 499.5,-123.5 379.5,-123.5"/>
<text text-anchor="start" x="387.5" y="-141.5" font-family="Helvetica,sans-Serif" font-size="10.00">nlohmann::detail::binary</text>
<text text-anchor="middle" x="439.5" y="-130.5" font-family="Helvetica,sans-Serif" font-size="10.00">_reader::sax_parse</text>
</a>
</g>
</g>
<!-- Node1&#45;&gt;Node5 -->
<g id="edge6" class="edge">
<title>Node1&#45;&gt;Node5</title>
<path fill="none" stroke="midnightblue" d="M585.96,-231.92C550.79,-209.33 495.17,-173.61 463.89,-153.52"/>
<polygon fill="midnightblue" stroke="midnightblue" points="584.12,-234.9 594.43,-237.36 587.91,-229.01 584.12,-234.9"/>
</g>
<!-- Node3 -->
<g id="node3" class="node">
<title>Node3</title>
<g id="a_node3"><a xlink:href="a01929.html#a4e07b75ccb2579d0e738b894f0fd8cf8" target="_top" xlink:title="Read a BSON element list (as specified in the BSON&#45;spec)">
<polygon fill="white" stroke="black" points="168,-284.5 168,-314.5 331,-314.5 331,-284.5 168,-284.5"/>
<text text-anchor="start" x="176" y="-302.5" font-family="Helvetica,sans-Serif" font-size="10.00">nlohmann::detail::binary</text>
<text text-anchor="middle" x="249.5" y="-291.5" font-family="Helvetica,sans-Serif" font-size="10.00">_reader::parse_bson_element_list</text>
</a>
</g>
</g>
<!-- Node2&#45;&gt;Node3 -->
<g id="edge2" class="edge">
<title>Node2&#45;&gt;Node3</title>
<path fill="none" stroke="midnightblue" d="M356.77,-272.93C341.26,-276.81 325.28,-280.8 310.59,-284.48"/>
<polygon fill="midnightblue" stroke="midnightblue" points="358.04,-276.22 366.89,-270.4 356.34,-269.43 358.04,-276.22"/>
</g>
<!-- Node3&#45;&gt;Node1 -->
<g id="edge5" class="edge">
<title>Node3&#45;&gt;Node1</title>
<path fill="none" stroke="midnightblue" d="M341.38,-298.29C391.92,-296.45 455.79,-292.17 512,-282.5 532.26,-279.01 554.2,-273.17 572.83,-267.55"/>
<polygon fill="midnightblue" stroke="midnightblue" points="341,-294.8 331.13,-298.64 341.24,-301.8 341,-294.8"/>
</g>
<!-- Node4 -->
<g id="node4" class="node">
<title>Node4</title>
<g id="a_node4"><a xlink:href="a01929.html#a23eb89a222e22533e9fd43e76722f44f" target="_top" xlink:title="Reads an array from the BSON input and passes it to the SAX&#45;parser.">
<polygon fill="white" stroke="black" points="0,-264.5 0,-294.5 132,-294.5 132,-264.5 0,-264.5"/>
<text text-anchor="start" x="8" y="-282.5" font-family="Helvetica,sans-Serif" font-size="10.00">nlohmann::detail::binary</text>
<text text-anchor="middle" x="66" y="-271.5" font-family="Helvetica,sans-Serif" font-size="10.00">_reader::parse_bson_array</text>
</a>
</g>
</g>
<!-- Node3&#45;&gt;Node4 -->
<g id="edge3" class="edge">
<title>Node3&#45;&gt;Node4</title>
<path fill="none" stroke="midnightblue" d="M157.73,-289.5C149.11,-288.55 140.49,-287.6 132.18,-286.68"/>
<polygon fill="midnightblue" stroke="midnightblue" points="157.51,-292.99 167.83,-290.61 158.28,-286.04 157.51,-292.99"/>
</g>
<!-- Node4&#45;&gt;Node2 -->
<g id="edge4" class="edge">
<title>Node4&#45;&gt;Node2</title>
<path fill="none" stroke="midnightblue" d="M142.46,-274.02C208.06,-269.25 302.43,-262.39 366.87,-257.71"/>
<polygon fill="midnightblue" stroke="midnightblue" points="141.91,-270.55 132.19,-274.76 142.42,-277.53 141.91,-270.55"/>
</g>
<!-- Node6 -->
<g id="node6" class="node">
<title>Node6</title>
<g id="a_node6"><a xlink:href="a01593.html#a4e02793f2691aa29ab7cb69fddafbf5c" target="_top" xlink:title="Create a JSON value from an input in BSON format.">
<polygon fill="white" stroke="black" points="194,-196.5 194,-226.5 305,-226.5 305,-196.5 194,-196.5"/>
<text text-anchor="start" x="202" y="-214.5" font-family="Helvetica,sans-Serif" font-size="10.00">nlohmann::basic_json</text>
<text text-anchor="middle" x="249.5" y="-203.5" font-family="Helvetica,sans-Serif" font-size="10.00">::from_bson</text>
</a>
</g>
</g>
<!-- Node5&#45;&gt;Node6 -->
<g id="edge7" class="edge">
<title>Node5&#45;&gt;Node6</title>
<path fill="none" stroke="midnightblue" d="M399.23,-157.98C379.11,-167.55 354.05,-178.86 331,-187.5 322.67,-190.62 313.74,-193.62 304.97,-196.37"/>
<polygon fill="midnightblue" stroke="midnightblue" points="400.89,-161.06 408.39,-153.58 397.86,-154.75 400.89,-161.06"/>
</g>
<!-- Node8 -->
<g id="node8" class="node">
<title>Node8</title>
<g id="a_node8"><a xlink:href="a01593.html#a44dd5635fb2da4710f6cd6e42b72773f" target="_top" xlink:title="create a JSON value from an input in CBOR format">
<polygon fill="white" stroke="black" points="194,-147.5 194,-177.5 305,-177.5 305,-147.5 194,-147.5"/>
<text text-anchor="start" x="202" y="-165.5" font-family="Helvetica,sans-Serif" font-size="10.00">nlohmann::basic_json</text>
<text text-anchor="middle" x="249.5" y="-154.5" font-family="Helvetica,sans-Serif" font-size="10.00">::from_cbor</text>
</a>
</g>
</g>
<!-- Node5&#45;&gt;Node8 -->
<g id="edge9" class="edge">
<title>Node5&#45;&gt;Node8</title>
<path fill="none" stroke="midnightblue" d="M369.1,-147.36C348.05,-150.05 325.22,-152.96 305.27,-155.51"/>
<polygon fill="midnightblue" stroke="midnightblue" points="369.8,-150.8 379.27,-146.06 368.91,-143.86 369.8,-150.8"/>
</g>
<!-- Node10 -->
<g id="node10" class="node">
<title>Node10</title>
<g id="a_node10"><a xlink:href="a01593.html#adbcab52fca1e25b3311ef14e71a57590" target="_top" xlink:title="create a JSON value from an input in MessagePack format">
<polygon fill="white" stroke="black" points="194,-98.5 194,-128.5 305,-128.5 305,-98.5 194,-98.5"/>
<text text-anchor="start" x="202" y="-116.5" font-family="Helvetica,sans-Serif" font-size="10.00">nlohmann::basic_json</text>
<text text-anchor="middle" x="249.5" y="-105.5" font-family="Helvetica,sans-Serif" font-size="10.00">::from_msgpack</text>
</a>
</g>
</g>
<!-- Node5&#45;&gt;Node10 -->
<g id="edge11" class="edge">
<title>Node5&#45;&gt;Node10</title>
<path fill="none" stroke="midnightblue" d="M369.1,-129.27C348.05,-126.47 325.22,-123.44 305.27,-120.78"/>
<polygon fill="midnightblue" stroke="midnightblue" points="368.9,-132.78 379.27,-130.62 369.82,-125.84 368.9,-132.78"/>
</g>
<!-- Node12 -->
<g id="node12" class="node">
<title>Node12</title>
<g id="a_node12"><a xlink:href="a01593.html#aa81f62db69978b90ff701f05c72e03a7" target="_top" xlink:title="create a JSON value from an input in UBJSON format">
<polygon fill="white" stroke="black" points="194,-49.5 194,-79.5 305,-79.5 305,-49.5 194,-49.5"/>
<text text-anchor="start" x="202" y="-67.5" font-family="Helvetica,sans-Serif" font-size="10.00">nlohmann::basic_json</text>
<text text-anchor="middle" x="249.5" y="-56.5" font-family="Helvetica,sans-Serif" font-size="10.00">::from_ubjson</text>
</a>
</g>
</g>
<!-- Node5&#45;&gt;Node12 -->
<g id="edge13" class="edge">
<title>Node5&#45;&gt;Node12</title>
<path fill="none" stroke="midnightblue" d="M399.7,-118.79C379.52,-108.96 354.26,-97.32 331,-88.5 322.68,-85.34 313.76,-82.33 304.99,-79.57"/>
<polygon fill="midnightblue" stroke="midnightblue" points="398.36,-122.03 408.88,-123.3 401.45,-115.75 398.36,-122.03"/>
</g>
<!-- Node14 -->
<g id="node14" class="node">
<title>Node14</title>
<g id="a_node14"><a xlink:href="a01593.html#a12b382c6407da5543827ce4b24bb5008" target="_top" xlink:title="generate SAX events">
<polygon fill="white" stroke="black" points="194,-0.5 194,-30.5 305,-30.5 305,-0.5 194,-0.5"/>
<text text-anchor="start" x="202" y="-18.5" font-family="Helvetica,sans-Serif" font-size="10.00">nlohmann::basic_json</text>
<text text-anchor="middle" x="249.5" y="-7.5" font-family="Helvetica,sans-Serif" font-size="10.00">::sax_parse</text>
</a>
</g>
</g>
<!-- Node5&#45;&gt;Node14 -->
<g id="edge15" class="edge">
<title>Node5&#45;&gt;Node14</title>
<path fill="none" stroke="midnightblue" d="M419.49,-115.77C399.59,-93.35 366.36,-59.6 331,-39.5 323.01,-34.96 314.08,-31.2 305.16,-28.11"/>
<polygon fill="midnightblue" stroke="midnightblue" points="416.99,-118.23 426.2,-123.47 422.27,-113.63 416.99,-118.23"/>
</g>
<!-- Node7 -->
<g id="node7" class="node">
<title>Node7</title>
<g id="a_node7"><a xlink:href="a01593.html#ae2612581e4788ddffc2f45d5e4cc04fc" target="_top" xlink:title=" ">
<polygon fill="white" stroke="black" points="10.5,-196.5 10.5,-226.5 121.5,-226.5 121.5,-196.5 10.5,-196.5"/>
<text text-anchor="start" x="18.5" y="-214.5" font-family="Helvetica,sans-Serif" font-size="10.00">nlohmann::basic_json</text>
<text text-anchor="middle" x="66" y="-203.5" font-family="Helvetica,sans-Serif" font-size="10.00">::from_bson</text>
</a>
</g>
</g>
<!-- Node6&#45;&gt;Node7 -->
<g id="edge8" class="edge">
<title>Node6&#45;&gt;Node7</title>
<path fill="none" stroke="midnightblue" d="M183.49,-211.5C163.27,-211.5 141.2,-211.5 121.76,-211.5"/>
<polygon fill="midnightblue" stroke="midnightblue" points="183.55,-215 193.55,-211.5 183.55,-208 183.55,-215"/>
</g>
<!-- Node9 -->
<g id="node9" class="node">
<title>Node9</title>
<g id="a_node9"><a xlink:href="a01593.html#a188755c8cda27e2afb03c016c14125d8" target="_top" xlink:title=" ">
<polygon fill="white" stroke="black" points="10.5,-147.5 10.5,-177.5 121.5,-177.5 121.5,-147.5 10.5,-147.5"/>
<text text-anchor="start" x="18.5" y="-165.5" font-family="Helvetica,sans-Serif" font-size="10.00">nlohmann::basic_json</text>
<text text-anchor="middle" x="66" y="-154.5" font-family="Helvetica,sans-Serif" font-size="10.00">::from_cbor</text>
</a>
</g>
</g>
<!-- Node8&#45;&gt;Node9 -->
<g id="edge10" class="edge">
<title>Node8&#45;&gt;Node9</title>
<path fill="none" stroke="midnightblue" d="M183.49,-162.5C163.27,-162.5 141.2,-162.5 121.76,-162.5"/>
<polygon fill="midnightblue" stroke="midnightblue" points="183.55,-166 193.55,-162.5 183.55,-159 183.55,-166"/>
</g>
<!-- Node11 -->
<g id="node11" class="node">
<title>Node11</title>
<g id="a_node11"><a xlink:href="a01593.html#a0d69d3102639759d5202a6f764760d23" target="_top" xlink:title=" ">
<polygon fill="white" stroke="black" points="10.5,-98.5 10.5,-128.5 121.5,-128.5 121.5,-98.5 10.5,-98.5"/>
<text text-anchor="start" x="18.5" y="-116.5" font-family="Helvetica,sans-Serif" font-size="10.00">nlohmann::basic_json</text>
<text text-anchor="middle" x="66" y="-105.5" font-family="Helvetica,sans-Serif" font-size="10.00">::from_msgpack</text>
</a>
</g>
</g>
<!-- Node10&#45;&gt;Node11 -->
<g id="edge12" class="edge">
<title>Node10&#45;&gt;Node11</title>
<path fill="none" stroke="midnightblue" d="M183.49,-113.5C163.27,-113.5 141.2,-113.5 121.76,-113.5"/>
<polygon fill="midnightblue" stroke="midnightblue" points="183.55,-117 193.55,-113.5 183.55,-110 183.55,-117"/>
</g>
<!-- Node13 -->
<g id="node13" class="node">
<title>Node13</title>
<g id="a_node13"><a xlink:href="a01593.html#ab6eeda23c34cee79d8d72f1a8691a8de" target="_top" xlink:title=" ">
<polygon fill="white" stroke="black" points="10.5,-49.5 10.5,-79.5 121.5,-79.5 121.5,-49.5 10.5,-49.5"/>
<text text-anchor="start" x="18.5" y="-67.5" font-family="Helvetica,sans-Serif" font-size="10.00">nlohmann::basic_json</text>
<text text-anchor="middle" x="66" y="-56.5" font-family="Helvetica,sans-Serif" font-size="10.00">::from_ubjson</text>
</a>
</g>
</g>
<!-- Node12&#45;&gt;Node13 -->
<g id="edge14" class="edge">
<title>Node12&#45;&gt;Node13</title>
<path fill="none" stroke="midnightblue" d="M183.49,-64.5C163.27,-64.5 141.2,-64.5 121.76,-64.5"/>
<polygon fill="midnightblue" stroke="midnightblue" points="183.55,-68 193.55,-64.5 183.55,-61 183.55,-68"/>
</g>
</g>
</svg>
