<?xml version="1.0" encoding="UTF-8" standalone="no"?>
<!DOCTYPE svg PUBLIC "-//W3C//DTD SVG 1.1//EN"
 "http://www.w3.org/Graphics/SVG/1.1/DTD/svg11.dtd">
<!-- Generated by graphviz version 5.0.0 (20220707.1540)
 -->
<!-- Title: nlohmann::detail::dtoa_impl::boundaries Pages: 1 -->
<svg width="125pt" height="217pt"
 viewBox="0.00 0.00 125.00 217.00" xmlns="http://www.w3.org/2000/svg" xmlns:xlink="http://www.w3.org/1999/xlink">
<g id="graph0" class="graph" transform="scale(1 1) rotate(0) translate(4 213)">
<title>nlohmann::detail::dtoa_impl::boundaries</title>
<polygon fill="white" stroke="transparent" points="-4,4 -4,-213 121,-213 121,4 -4,4"/>
<!-- Node1 -->
<g id="node1" class="node">
<title>Node1</title>
<g id="a_node1"><a xlink:title=" ">
<polygon fill="#bfbfbf" stroke="black" points="0,-0.5 0,-30.5 113,-30.5 113,-0.5 0,-0.5"/>
<text text-anchor="start" x="8" y="-18.5" font-family="Helvetica,sans-Serif" font-size="10.00">nlohmann::detail::dtoa</text>
<text text-anchor="middle" x="56.5" y="-7.5" font-family="Helvetica,sans-Serif" font-size="10.00">_impl::boundaries</text>
</a>
</g>
</g>
<!-- Node2 -->
<g id="node2" class="node">
<title>Node2</title>
<g id="a_node2"><a xlink:href="a01977.html" target="_top" xlink:title=" ">
<polygon fill="white" stroke="black" points="0,-100.5 0,-130.5 113,-130.5 113,-100.5 0,-100.5"/>
<text text-anchor="start" x="8" y="-118.5" font-family="Helvetica,sans-Serif" font-size="10.00">nlohmann::detail::dtoa</text>
<text text-anchor="middle" x="56.5" y="-107.5" font-family="Helvetica,sans-Serif" font-size="10.00">_impl::diyfp</text>
</a>
</g>
</g>
<!-- Node2&#45;&gt;Node1 -->
<g id="edge1" class="edge">
<title>Node2&#45;&gt;Node1</title>
<path fill="none" stroke="#9a32cd" stroke-dasharray="5,2" d="M56.5,-90.28C56.5,-71.48 56.5,-46.08 56.5,-30.51"/>
<polygon fill="#9a32cd" stroke="#9a32cd" points="53,-90.46 56.5,-100.46 60,-90.46 53,-90.46"/>
<text text-anchor="middle" x="71.5" y="-74" font-family="Helvetica,sans-Serif" font-size="10.00"> minus</text>
<text text-anchor="middle" x="71.5" y="-63" font-family="Helvetica,sans-Serif" font-size="10.00">plus</text>
<text text-anchor="middle" x="71.5" y="-52" font-family="Helvetica,sans-Serif" font-size="10.00">w</text>
</g>
<!-- Node3 -->
<g id="node3" class="node">
<title>Node3</title>
<g id="a_node3"><a xlink:title=" ">
<polygon fill="white" stroke="black" points="8,-189.5 8,-208.5 37,-208.5 37,-189.5 8,-189.5"/>
<text text-anchor="middle" x="22.5" y="-196.5" font-family="Helvetica,sans-Serif" font-size="10.00">int</text>
</a>
</g>
</g>
<!-- Node3&#45;&gt;Node2 -->
<g id="edge2" class="edge">
<title>Node3&#45;&gt;Node2</title>
<path fill="none" stroke="#9a32cd" stroke-dasharray="5,2" d="M19.64,-179.32C18.98,-169.87 19.44,-158.44 23.5,-149 26.49,-142.06 31.73,-135.83 37.17,-130.73"/>
<polygon fill="#9a32cd" stroke="#9a32cd" points="16.16,-179.72 20.77,-189.26 23.12,-178.93 16.16,-179.72"/>
<text text-anchor="middle" x="46.5" y="-163" font-family="Helvetica,sans-Serif" font-size="10.00"> e</text>
<text text-anchor="middle" x="46.5" y="-152" font-family="Helvetica,sans-Serif" font-size="10.00">kPrecision</text>
</g>
<!-- Node4 -->
<g id="node4" class="node">
<title>Node4</title>
<g id="a_node4"><a xlink:title=" ">
<polygon fill="white" stroke="black" points="66,-189.5 66,-208.5 117,-208.5 117,-189.5 66,-189.5"/>
<text text-anchor="middle" x="91.5" y="-196.5" font-family="Helvetica,sans-Serif" font-size="10.00">uint64_t</text>
</a>
</g>
</g>
<!-- Node4&#45;&gt;Node2 -->
<g id="edge3" class="edge">
<title>Node4&#45;&gt;Node2</title>
<path fill="none" stroke="#9a32cd" stroke-dasharray="5,2" d="M83.63,-179.66C77.25,-164.81 68.39,-144.18 62.55,-130.6"/>
<polygon fill="#9a32cd" stroke="#9a32cd" points="80.59,-181.47 87.75,-189.28 87.02,-178.71 80.59,-181.47"/>
<text text-anchor="middle" x="81.5" y="-157.5" font-family="Helvetica,sans-Serif" font-size="10.00"> f</text>
</g>
</g>
</svg>
