<?xml version="1.0" encoding="UTF-8" standalone="no"?>
<!DOCTYPE svg PUBLIC "-//W3C//DTD SVG 1.1//EN"
 "http://www.w3.org/Graphics/SVG/1.1/DTD/svg11.dtd">
<!-- Generated by graphviz version 8.0.5 (20230430.1635)
 -->
<!-- Title: nlohmann::detail::lexer&lt; BasicJsonType, InputAdapterType &gt; Pages: 1 -->
<svg width="599pt" height="458pt"
 viewBox="0.00 0.00 599.00 458.00" xmlns="http://www.w3.org/2000/svg" xmlns:xlink="http://www.w3.org/1999/xlink">
<g id="graph0" class="graph" transform="scale(1 1) rotate(0) translate(4 454)">
<title>nlohmann::detail::lexer&lt; BasicJsonType, InputAdapterType &gt;</title>
<!-- Node1 -->
<g id="node1" class="node">
<title>Node1</title>
<g id="a_node1"><a xlink:title="lexical analysis">
<polygon fill="#999999" stroke="#666666" points="591,-241 439.25,-241 439.25,-197 591,-197 591,-241"/>
<text text-anchor="start" x="447.25" y="-227.5" font-family="Helvetica,sans-Serif" font-size="10.00">nlohmann::detail::lexer</text>
<text text-anchor="start" x="447.25" y="-215.5" font-family="Helvetica,sans-Serif" font-size="10.00">&lt; BasicJsonType, InputAdapter</text>
<text text-anchor="middle" x="515.13" y="-203.5" font-family="Helvetica,sans-Serif" font-size="10.00">Type &gt;</text>
</a>
</g>
</g>
<!-- Node2 -->
<g id="node2" class="node">
<title>Node2</title>
<g id="a_node2"><a xlink:href="a01913.html" target="_top" xlink:title=" ">
<polygon fill="white" stroke="#666666" points="311.75,-450 185.5,-450 185.5,-418 311.75,-418 311.75,-450"/>
<text text-anchor="start" x="193.5" y="-436.5" font-family="Helvetica,sans-Serif" font-size="10.00">nlohmann::detail::lexer</text>
<text text-anchor="middle" x="248.63" y="-424.5" font-family="Helvetica,sans-Serif" font-size="10.00">_base&lt; BasicJsonType &gt;</text>
</a>
</g>
</g>
<!-- Node2&#45;&gt;Node1 -->
<g id="edge1" class="edge">
<title>Node2&#45;&gt;Node1</title>
<path fill="none" stroke="#63b8ff" d="M323.01,-438.18C355.8,-436.53 393.28,-429.41 421.25,-409 478.05,-367.55 501.84,-281.8 510.23,-241.21"/>
<polygon fill="#63b8ff" stroke="#63b8ff" points="322.97,-434.71 313.09,-438.54 323.2,-441.71 322.97,-434.71"/>
</g>
<!-- Node3 -->
<g id="node3" class="node">
<title>Node3</title>
<g id="a_node3"><a xlink:title=" ">
<polygon fill="white" stroke="#666666" points="294.5,-400 202.75,-400 202.75,-380 294.5,-380 294.5,-400"/>
<text text-anchor="middle" x="248.63" y="-386.5" font-family="Helvetica,sans-Serif" font-size="10.00">InputAdapterType</text>
</a>
</g>
</g>
<!-- Node3&#45;&gt;Node1 -->
<g id="edge2" class="edge">
<title>Node3&#45;&gt;Node1</title>
<path fill="none" stroke="#9a32cd" stroke-dasharray="5,2" d="M305.5,-394.58C341.24,-394.82 387.11,-389.9 421.25,-368 468.07,-337.96 495.34,-275.03 507.13,-241.37"/>
<polygon fill="#9a32cd" stroke="#9a32cd" points="305.84,-391.06 295.77,-394.35 305.69,-398.06 305.84,-391.06"/>
<text text-anchor="middle" x="377.75" y="-395.5" font-family="Helvetica,sans-Serif" font-size="10.00"> ia</text>
</g>
<!-- Node4 -->
<g id="node4" class="node">
<title>Node4</title>
<g id="a_node4"><a xlink:title=" ">
<polygon fill="white" stroke="#666666" points="265.63,-362 231.63,-362 231.63,-342 265.63,-342 265.63,-362"/>
<text text-anchor="middle" x="248.63" y="-348.5" font-family="Helvetica,sans-Serif" font-size="10.00">bool</text>
</a>
</g>
</g>
<!-- Node4&#45;&gt;Node1 -->
<g id="edge3" class="edge">
<title>Node4&#45;&gt;Node1</title>
<path fill="none" stroke="#9a32cd" stroke-dasharray="5,2" d="M276.8,-348.86C318.7,-343.68 396.81,-332.55 421.25,-319 455.24,-300.16 483.79,-264.42 499.93,-241.16"/>
<polygon fill="#9a32cd" stroke="#9a32cd" points="276.52,-345.49 267.01,-350.16 277.36,-352.44 276.52,-345.49"/>
<text text-anchor="middle" x="377.75" y="-354.5" font-family="Helvetica,sans-Serif" font-size="10.00"> ignore_comments</text>
<text text-anchor="middle" x="377.75" y="-342.5" font-family="Helvetica,sans-Serif" font-size="10.00">next_unget</text>
</g>
<!-- Node5 -->
<g id="node5" class="node">
<title>Node5</title>
<g id="a_node5"><a xlink:title=" ">
<polygon fill="white" stroke="#666666" points="273.88,-324 223.38,-324 223.38,-304 273.88,-304 273.88,-324"/>
<text text-anchor="middle" x="248.63" y="-310.5" font-family="Helvetica,sans-Serif" font-size="10.00">int_type</text>
</a>
</g>
</g>
<!-- Node5&#45;&gt;Node1 -->
<g id="edge4" class="edge">
<title>Node5&#45;&gt;Node1</title>
<path fill="none" stroke="#9a32cd" stroke-dasharray="5,2" d="M285.14,-310.99C320.67,-307.05 376.35,-298.37 421.25,-280 444.82,-270.36 468.77,-254.44 486.45,-241.28"/>
<polygon fill="#9a32cd" stroke="#9a32cd" points="284.94,-307.59 275.35,-312.1 285.66,-314.55 284.94,-307.59"/>
<text text-anchor="middle" x="377.75" y="-305.5" font-family="Helvetica,sans-Serif" font-size="10.00"> current</text>
</g>
<!-- Node6 -->
<g id="node6" class="node">
<title>Node6</title>
<g id="a_node6"><a xlink:href="a01489.html" target="_top" xlink:title="struct to capture the start position of the current token">
<polygon fill="white" stroke="#666666" points="316.25,-286 181,-286 181,-266 316.25,-266 316.25,-286"/>
<text text-anchor="middle" x="248.63" y="-272.5" font-family="Helvetica,sans-Serif" font-size="10.00">nlohmann::detail::position_t</text>
</a>
</g>
</g>
<!-- Node6&#45;&gt;Node1 -->
<g id="edge5" class="edge">
<title>Node6&#45;&gt;Node1</title>
<path fill="none" stroke="#9a32cd" stroke-dasharray="5,2" d="M327.18,-265.72C356.8,-261.17 390.77,-255.21 421.25,-248 429.3,-246.1 437.68,-243.86 445.95,-241.48"/>
<polygon fill="#9a32cd" stroke="#9a32cd" points="326.85,-262.38 317.48,-267.33 327.89,-269.3 326.85,-262.38"/>
<text text-anchor="middle" x="377.75" y="-266.5" font-family="Helvetica,sans-Serif" font-size="10.00"> position</text>
</g>
<!-- Node7 -->
<g id="node7" class="node">
<title>Node7</title>
<g id="a_node7"><a xlink:title=" ">
<polygon fill="white" stroke="#666666" points="50.5,-286 8.25,-286 8.25,-266 50.5,-266 50.5,-286"/>
<text text-anchor="middle" x="29.38" y="-272.5" font-family="Helvetica,sans-Serif" font-size="10.00">size_t</text>
</a>
</g>
</g>
<!-- Node7&#45;&gt;Node6 -->
<g id="edge6" class="edge">
<title>Node7&#45;&gt;Node6</title>
<path fill="none" stroke="#9a32cd" stroke-dasharray="5,2" d="M61.79,-276C92.78,-276 141.14,-276 180.75,-276"/>
<polygon fill="#9a32cd" stroke="#9a32cd" points="61.81,-272.5 51.81,-276 61.81,-279.5 61.81,-272.5"/>
<text text-anchor="start" x="76.75" y="-314.5" font-family="Helvetica,sans-Serif" font-size="10.00"> chars_read_current</text>
<text text-anchor="middle" x="119.88" y="-302.5" font-family="Helvetica,sans-Serif" font-size="10.00">_line</text>
<text text-anchor="middle" x="119.88" y="-290.5" font-family="Helvetica,sans-Serif" font-size="10.00">chars_read_total</text>
<text text-anchor="middle" x="119.88" y="-278.5" font-family="Helvetica,sans-Serif" font-size="10.00">lines_read</text>
</g>
<!-- Node8 -->
<g id="node8" class="node">
<title>Node8</title>
<g id="a_node8"><a xlink:title=" ">
<polygon fill="white" stroke="#666666" points="309.5,-248 187.75,-248 187.75,-228 309.5,-228 309.5,-248"/>
<text text-anchor="middle" x="248.63" y="-234.5" font-family="Helvetica,sans-Serif" font-size="10.00">std::vector&lt; char_type &gt;</text>
</a>
</g>
</g>
<!-- Node8&#45;&gt;Node1 -->
<g id="edge7" class="edge">
<title>Node8&#45;&gt;Node1</title>
<path fill="none" stroke="#9a32cd" stroke-dasharray="5,2" d="M320.55,-232.9C357.12,-230.28 401.72,-227.07 438.89,-224.4"/>
<polygon fill="#9a32cd" stroke="#9a32cd" points="320.7,-229.46 310.98,-233.66 321.2,-236.44 320.7,-229.46"/>
<text text-anchor="middle" x="377.75" y="-234.5" font-family="Helvetica,sans-Serif" font-size="10.00"> token_string</text>
</g>
<!-- Node9 -->
<g id="node9" class="node">
<title>Node9</title>
<g id="a_node9"><a xlink:title=" ">
<polygon fill="white" stroke="#666666" points="58.75,-248 0,-248 0,-228 58.75,-228 58.75,-248"/>
<text text-anchor="middle" x="29.38" y="-234.5" font-family="Helvetica,sans-Serif" font-size="10.00">char_type</text>
</a>
</g>
</g>
<!-- Node9&#45;&gt;Node8 -->
<g id="edge8" class="edge">
<title>Node9&#45;&gt;Node8</title>
<path fill="none" stroke="#9a32cd" stroke-dasharray="5,2" d="M70.19,-238C103,-238 150.03,-238 187.43,-238"/>
<polygon fill="#9a32cd" stroke="#9a32cd" points="70.22,-234.5 60.22,-238 70.22,-241.5 70.22,-234.5"/>
<text text-anchor="middle" x="119.88" y="-240.5" font-family="Helvetica,sans-Serif" font-size="10.00"> elements</text>
</g>
<!-- Node10 -->
<g id="node10" class="node">
<title>Node10</title>
<g id="a_node10"><a xlink:title=" ">
<polygon fill="white" stroke="#666666" points="272.75,-210 224.5,-210 224.5,-190 272.75,-190 272.75,-210"/>
<text text-anchor="middle" x="248.63" y="-196.5" font-family="Helvetica,sans-Serif" font-size="10.00">string_t</text>
</a>
</g>
</g>
<!-- Node10&#45;&gt;Node1 -->
<g id="edge9" class="edge">
<title>Node10&#45;&gt;Node1</title>
<path fill="none" stroke="#9a32cd" stroke-dasharray="5,2" d="M284.19,-201.62C318.86,-203.34 373.8,-206.32 421.25,-210 426.98,-210.44 432.91,-210.94 438.87,-211.46"/>
<polygon fill="#9a32cd" stroke="#9a32cd" points="284.4,-198.08 274.24,-201.09 284.06,-205.07 284.4,-198.08"/>
<text text-anchor="middle" x="377.75" y="-212.5" font-family="Helvetica,sans-Serif" font-size="10.00"> token_buffer</text>
</g>
<!-- Node11 -->
<g id="node11" class="node">
<title>Node11</title>
<g id="a_node11"><a xlink:title=" ">
<polygon fill="white" stroke="#666666" points="266,-172 231.25,-172 231.25,-152 266,-152 266,-172"/>
<text text-anchor="middle" x="248.63" y="-158.5" font-family="Helvetica,sans-Serif" font-size="10.00">char</text>
</a>
</g>
</g>
<!-- Node11&#45;&gt;Node1 -->
<g id="edge10" class="edge">
<title>Node11&#45;&gt;Node1</title>
<path fill="none" stroke="#9a32cd" stroke-dasharray="5,2" d="M276.87,-164.95C310.94,-168.95 370.9,-176.99 421.25,-189 430.31,-191.16 439.77,-193.78 449.03,-196.56"/>
<polygon fill="#9a32cd" stroke="#9a32cd" points="277.69,-161.41 267.36,-163.75 276.9,-168.36 277.69,-161.41"/>
<text text-anchor="middle" x="377.75" y="-191.5" font-family="Helvetica,sans-Serif" font-size="10.00"> error_message</text>
</g>
<!-- Node12 -->
<g id="node12" class="node">
<title>Node12</title>
<g id="a_node12"><a xlink:title=" ">
<polygon fill="white" stroke="#666666" points="294.13,-134 203.13,-134 203.13,-114 294.13,-114 294.13,-134"/>
<text text-anchor="middle" x="248.63" y="-120.5" font-family="Helvetica,sans-Serif" font-size="10.00">number_integer_t</text>
</a>
</g>
</g>
<!-- Node12&#45;&gt;Node1 -->
<g id="edge11" class="edge">
<title>Node12&#45;&gt;Node1</title>
<path fill="none" stroke="#9a32cd" stroke-dasharray="5,2" d="M305.15,-129.5C339.54,-134.23 384.09,-142.8 421.25,-158 444.82,-167.64 468.77,-183.56 486.45,-196.72"/>
<polygon fill="#9a32cd" stroke="#9a32cd" points="305.73,-125.91 295.36,-128.09 304.82,-132.85 305.73,-125.91"/>
<text text-anchor="middle" x="377.75" y="-160.5" font-family="Helvetica,sans-Serif" font-size="10.00"> value_integer</text>
</g>
<!-- Node13 -->
<g id="node13" class="node">
<title>Node13</title>
<g id="a_node13"><a xlink:title=" ">
<polygon fill="white" stroke="#666666" points="299,-96 198.25,-96 198.25,-76 299,-76 299,-96"/>
<text text-anchor="middle" x="248.63" y="-82.5" font-family="Helvetica,sans-Serif" font-size="10.00">number_unsigned_t</text>
</a>
</g>
</g>
<!-- Node13&#45;&gt;Node1 -->
<g id="edge12" class="edge">
<title>Node13&#45;&gt;Node1</title>
<path fill="none" stroke="#9a32cd" stroke-dasharray="5,2" d="M310.22,-88.41C344.59,-91.96 387.37,-100.22 421.25,-119 455.24,-137.84 483.79,-173.58 499.93,-196.84"/>
<polygon fill="#9a32cd" stroke="#9a32cd" points="310.65,-84.84 300.38,-87.41 310.01,-91.81 310.65,-84.84"/>
<text text-anchor="middle" x="377.75" y="-121.5" font-family="Helvetica,sans-Serif" font-size="10.00"> value_unsigned</text>
</g>
<!-- Node14 -->
<g id="node14" class="node">
<title>Node14</title>
<g id="a_node14"><a xlink:title=" ">
<polygon fill="white" stroke="#666666" points="288.5,-58 208.75,-58 208.75,-38 288.5,-38 288.5,-58"/>
<text text-anchor="middle" x="248.63" y="-44.5" font-family="Helvetica,sans-Serif" font-size="10.00">number_float_t</text>
</a>
</g>
</g>
<!-- Node14&#45;&gt;Node1 -->
<g id="edge13" class="edge">
<title>Node14&#45;&gt;Node1</title>
<path fill="none" stroke="#9a32cd" stroke-dasharray="5,2" d="M299.84,-45.77C336.28,-46.49 385.28,-52.52 421.25,-76 466,-105.2 493.81,-164.32 506.33,-196.64"/>
<polygon fill="#9a32cd" stroke="#9a32cd" points="299.99,-42.26 289.97,-45.7 299.94,-49.26 299.99,-42.26"/>
<text text-anchor="middle" x="377.75" y="-78.5" font-family="Helvetica,sans-Serif" font-size="10.00"> value_float</text>
</g>
<!-- Node15 -->
<g id="node15" class="node">
<title>Node15</title>
<g id="a_node15"><a xlink:title=" ">
<polygon fill="white" stroke="#666666" points="299.38,-20 197.88,-20 197.88,0 299.38,0 299.38,-20"/>
<text text-anchor="middle" x="248.63" y="-6.5" font-family="Helvetica,sans-Serif" font-size="10.00">const char_int_type</text>
</a>
</g>
</g>
<!-- Node15&#45;&gt;Node1 -->
<g id="edge14" class="edge">
<title>Node15&#45;&gt;Node1</title>
<path fill="none" stroke="#9a32cd" stroke-dasharray="5,2" d="M310.28,-4.72C345.66,-4.7 389.44,-10.27 421.25,-33 477.19,-72.98 501.31,-156.45 509.98,-196.55"/>
<polygon fill="#9a32cd" stroke="#9a32cd" points="310.53,-1.23 300.59,-4.89 310.65,-8.23 310.53,-1.23"/>
<text text-anchor="middle" x="377.75" y="-35.5" font-family="Helvetica,sans-Serif" font-size="10.00"> decimal_point_char</text>
</g>
</g>
</svg>
