<?xml version="1.0" encoding="UTF-8" standalone="no"?>
<!DOCTYPE svg PUBLIC "-//W3C//DTD SVG 1.1//EN"
 "http://www.w3.org/Graphics/SVG/1.1/DTD/svg11.dtd">
<!-- Generated by graphviz version 7.0.4 (20221203.1631)
 -->
<!-- Title: nlohmann::detail::binary_writer::write_bson_boolean Pages: 1 -->
<svg width="496pt" height="59pt"
 viewBox="0.00 0.00 496.00 59.00" xmlns="http://www.w3.org/2000/svg" xmlns:xlink="http://www.w3.org/1999/xlink">
<g id="graph0" class="graph" transform="scale(1 1) rotate(0) translate(4 55)">
<title>nlohmann::detail::binary_writer::write_bson_boolean</title>
<!-- Node1 -->
<g id="node1" class="node">
<title>Node1</title>
<g id="a_node1"><a xlink:title="Writes a BSON element with key name and boolean value value.">
<polygon fill="#999999" stroke="#666666" points="137,-51 0,-51 0,-21 137,-21 137,-51"/>
<text text-anchor="start" x="8" y="-39" font-family="Helvetica,sans-Serif" font-size="10.00">nlohmann::detail::binary</text>
<text text-anchor="middle" x="68.5" y="-28" font-family="Helvetica,sans-Serif" font-size="10.00">_writer::write_bson_boolean</text>
</a>
</g>
</g>
<!-- Node2 -->
<g id="node2" class="node">
<title>Node2</title>
<g id="a_node2"><a xlink:href="a01973.html#ab77aa48692bd4e64e4f051ce6aeb6d2d" target="_top" xlink:title=" ">
<polygon fill="white" stroke="#666666" points="488,-51 368,-51 368,-21 488,-21 488,-51"/>
<text text-anchor="start" x="376" y="-39" font-family="Helvetica,sans-Serif" font-size="10.00">nlohmann::detail::binary</text>
<text text-anchor="middle" x="428" y="-28" font-family="Helvetica,sans-Serif" font-size="10.00">_writer::to_char_type</text>
</a>
</g>
</g>
<!-- Node1&#45;&gt;Node2 -->
<g id="edge1" class="edge">
<title>Node1&#45;&gt;Node2</title>
<path fill="none" stroke="#63b8ff" d="M137.42,-38.25C149.28,-38.56 161.5,-38.83 173,-39 243.66,-40.02 261.34,-40.12 332,-39 339.85,-38.88 348.06,-38.69 356.23,-38.48"/>
<polygon fill="#63b8ff" stroke="#63b8ff" points="356.3,-41.98 366.2,-38.2 356.11,-34.98 356.3,-41.98"/>
</g>
<!-- Node3 -->
<g id="node3" class="node">
<title>Node3</title>
<g id="a_node3"><a xlink:href="a01973.html#a1b5b7f5c03b1f8b1f59ea61db9634108" target="_top" xlink:title="Writes the given element_type and name to the output adapter.">
<polygon fill="white" stroke="#666666" points="332,-30 173,-30 173,0 332,0 332,-30"/>
<text text-anchor="start" x="181" y="-18" font-family="Helvetica,sans-Serif" font-size="10.00">nlohmann::detail::binary</text>
<text text-anchor="middle" x="252.5" y="-7" font-family="Helvetica,sans-Serif" font-size="10.00">_writer::write_bson_entry_header</text>
</a>
</g>
</g>
<!-- Node1&#45;&gt;Node3 -->
<g id="edge2" class="edge">
<title>Node1&#45;&gt;Node3</title>
<path fill="none" stroke="#63b8ff" d="M137.27,-28.18C145.1,-27.28 153.18,-26.34 161.25,-25.41"/>
<polygon fill="#63b8ff" stroke="#63b8ff" points="161.59,-28.9 171.12,-24.27 160.78,-21.94 161.59,-28.9"/>
</g>
<!-- Node3&#45;&gt;Node2 -->
<g id="edge3" class="edge">
<title>Node3&#45;&gt;Node2</title>
<path fill="none" stroke="#63b8ff" d="M332.38,-24.55C340.32,-25.51 348.35,-26.48 356.19,-27.43"/>
<polygon fill="#63b8ff" stroke="#63b8ff" points="355.68,-30.89 366.03,-28.62 356.52,-23.94 355.68,-30.89"/>
</g>
</g>
</svg>
