<?xml version="1.0" encoding="UTF-8" standalone="no"?>
<!DOCTYPE svg PUBLIC "-//W3C//DTD SVG 1.1//EN"
 "http://www.w3.org/Graphics/SVG/1.1/DTD/svg11.dtd">
<!-- Generated by graphviz version 8.0.5 (20230430.1635)
 -->
<!-- Title: nlohmann::detail::lexer::scan_comment Pages: 1 -->
<svg width="292pt" height="78pt"
 viewBox="0.00 0.00 292.00 78.00" xmlns="http://www.w3.org/2000/svg" xmlns:xlink="http://www.w3.org/1999/xlink">
<g id="graph0" class="graph" transform="scale(1 1) rotate(0) translate(4 74)">
<title>nlohmann::detail::lexer::scan_comment</title>
<!-- Node1 -->
<g id="node1" class="node">
<title>Node1</title>
<g id="a_node1"><a xlink:title="scan a comment">
<polygon fill="#999999" stroke="#666666" points="114.25,-54 0,-54 0,-22 114.25,-22 114.25,-54"/>
<text text-anchor="start" x="8" y="-40.5" font-family="Helvetica,sans-Serif" font-size="10.00">nlohmann::detail::lexer</text>
<text text-anchor="middle" x="57.13" y="-28.5" font-family="Helvetica,sans-Serif" font-size="10.00">::scan_comment</text>
</a>
</g>
</g>
<!-- Node2 -->
<g id="node2" class="node">
<title>Node2</title>
<g id="a_node2"><a xlink:href="a01917.html#a9cd3e4cf04d19be521beb8868c1a2fc9" target="_top" xlink:title=" ">
<polygon fill="white" stroke="#666666" points="284,-70 150.25,-70 150.25,-50 284,-50 284,-70"/>
<text text-anchor="middle" x="217.13" y="-56.5" font-family="Helvetica,sans-Serif" font-size="10.00">nlohmann::detail::lexer::get</text>
</a>
</g>
</g>
<!-- Node1&#45;&gt;Node2 -->
<g id="edge1" class="edge">
<title>Node1&#45;&gt;Node2</title>
<path fill="none" stroke="#63b8ff" d="M114.72,-45.88C122.66,-46.99 130.93,-48.14 139.18,-49.29"/>
<polygon fill="#63b8ff" stroke="#63b8ff" points="138.58,-52.88 148.96,-50.79 139.54,-45.94 138.58,-52.88"/>
</g>
<!-- Node3 -->
<g id="node3" class="node">
<title>Node3</title>
<g id="a_node3"><a xlink:href="a01917.html#ab5811afe1c3efb0b769f7733b8373c6f" target="_top" xlink:title="unget current character (read it again on next get)">
<polygon fill="white" stroke="#666666" points="274.25,-32 160,-32 160,0 274.25,0 274.25,-32"/>
<text text-anchor="start" x="168" y="-18.5" font-family="Helvetica,sans-Serif" font-size="10.00">nlohmann::detail::lexer</text>
<text text-anchor="middle" x="217.13" y="-6.5" font-family="Helvetica,sans-Serif" font-size="10.00">::unget</text>
</a>
</g>
</g>
<!-- Node1&#45;&gt;Node3 -->
<g id="edge2" class="edge">
<title>Node1&#45;&gt;Node3</title>
<path fill="none" stroke="#63b8ff" d="M114.72,-30.12C125.79,-28.58 137.5,-26.95 148.88,-25.36"/>
<polygon fill="#63b8ff" stroke="#63b8ff" points="149.24,-28.71 158.66,-23.86 148.27,-21.77 149.24,-28.71"/>
</g>
</g>
</svg>
