<?xml version="1.0" encoding="UTF-8" standalone="no"?>
<!DOCTYPE svg PUBLIC "-//W3C//DTD SVG 1.1//EN"
 "http://www.w3.org/Graphics/SVG/1.1/DTD/svg11.dtd">
<!-- Generated by graphviz version 2.43.0 (0)
 -->
<!-- Title: nlohmann::detail::binary_reader::parse_bson_array Pages: 1 -->
<svg width="1642pt" height="544pt"
 viewBox="0.00 0.00 1642.00 544.32" xmlns="http://www.w3.org/2000/svg" xmlns:xlink="http://www.w3.org/1999/xlink">
<g id="graph0" class="graph" transform="scale(1 1) rotate(0) translate(4 540.32)">
<title>nlohmann::detail::binary_reader::parse_bson_array</title>
<polygon fill="white" stroke="transparent" points="-4,4 -4,-540.32 1638,-540.32 1638,4 -4,4"/>
<!-- Node1 -->
<g id="node1" class="node">
<title>Node1</title>
<g id="a_node1"><a xlink:title="Reads an array from the BSON input and passes it to the SAX&#45;parser.">
<polygon fill="#bfbfbf" stroke="black" points="0,-358.58 0,-388.58 146,-388.58 146,-358.58 0,-358.58"/>
<text text-anchor="start" x="8" y="-376.58" font-family="Helvetica,sans-Serif" font-size="10.00">nlohmann::detail::binary</text>
<text text-anchor="middle" x="73" y="-365.58" font-family="Helvetica,sans-Serif" font-size="10.00">_reader::parse_bson_array</text>
</a>
</g>
</g>
<!-- Node2 -->
<g id="node2" class="node">
<title>Node2</title>
<g id="a_node2"><a xlink:href="a01941.html#a4e07b75ccb2579d0e738b894f0fd8cf8" target="_top" xlink:title="Read a BSON element list (as specified in the BSON&#45;spec)">
<polygon fill="white" stroke="black" points="182,-382.58 182,-412.58 363,-412.58 363,-382.58 182,-382.58"/>
<text text-anchor="start" x="190" y="-400.58" font-family="Helvetica,sans-Serif" font-size="10.00">nlohmann::detail::binary</text>
<text text-anchor="middle" x="272.5" y="-389.58" font-family="Helvetica,sans-Serif" font-size="10.00">_reader::parse_bson_element_list</text>
</a>
</g>
</g>
<!-- Node1&#45;&gt;Node2 -->
<g id="edge1" class="edge">
<title>Node1&#45;&gt;Node2</title>
<path fill="none" stroke="midnightblue" d="M146.14,-382.35C154.46,-383.36 163.04,-384.4 171.64,-385.45"/>
<polygon fill="midnightblue" stroke="midnightblue" points="171.38,-388.94 181.73,-386.67 172.22,-381.99 171.38,-388.94"/>
</g>
<!-- Node3 -->
<g id="node3" class="node">
<title>Node3</title>
<g id="a_node3"><a xlink:href="a01941.html#ad222095c0b21a87824cb10629299629a" target="_top" xlink:title="get next character from the input">
<polygon fill="white" stroke="black" points="966,-363.58 966,-393.58 1102,-393.58 1102,-363.58 966,-363.58"/>
<text text-anchor="start" x="974" y="-381.58" font-family="Helvetica,sans-Serif" font-size="10.00">nlohmann::detail::binary</text>
<text text-anchor="middle" x="1034" y="-370.58" font-family="Helvetica,sans-Serif" font-size="10.00">_reader::get</text>
</a>
</g>
</g>
<!-- Node2&#45;&gt;Node3 -->
<g id="edge2" class="edge">
<title>Node2&#45;&gt;Node3</title>
<path fill="none" stroke="midnightblue" d="M363.3,-399.19C375.31,-399.35 387.45,-399.49 399,-399.58 556.78,-400.84 596.34,-403.76 754,-397.58 822.28,-394.91 899.81,-389.43 955.78,-385.04"/>
<polygon fill="midnightblue" stroke="midnightblue" points="956.28,-388.51 965.97,-384.24 955.73,-381.54 956.28,-388.51"/>
</g>
<!-- Node4 -->
<g id="node4" class="node">
<title>Node4</title>
<g id="a_node4"><a xlink:href="a01941.html#a354cbbaaea672c024ac949e1801c4302" target="_top" xlink:title="Parses a C&#45;style string from the BSON input.">
<polygon fill="white" stroke="black" points="792,-486.58 792,-516.58 928,-516.58 928,-486.58 792,-486.58"/>
<text text-anchor="start" x="800" y="-504.58" font-family="Helvetica,sans-Serif" font-size="10.00">nlohmann::detail::binary</text>
<text text-anchor="middle" x="860" y="-493.58" font-family="Helvetica,sans-Serif" font-size="10.00">_reader::get_bson_cstr</text>
</a>
</g>
</g>
<!-- Node2&#45;&gt;Node4 -->
<g id="edge3" class="edge">
<title>Node2&#45;&gt;Node4</title>
<path fill="none" stroke="midnightblue" d="M323.87,-412.63C346.66,-419.08 374.04,-426.32 399,-431.58 532.52,-459.73 690.11,-481.21 781.88,-492.57"/>
<polygon fill="midnightblue" stroke="midnightblue" points="781.56,-496.05 791.92,-493.8 782.42,-489.11 781.56,-496.05"/>
</g>
<!-- Node5 -->
<g id="node5" class="node">
<title>Node5</title>
<g id="a_node5"><a xlink:href="a01941.html#a61a0bd8bbe7b560bd429fa990ba3ba1a" target="_top" xlink:title=" ">
<polygon fill="white" stroke="black" points="966,-428.58 966,-458.58 1102,-458.58 1102,-428.58 966,-428.58"/>
<text text-anchor="start" x="974" y="-446.58" font-family="Helvetica,sans-Serif" font-size="10.00">nlohmann::detail::binary</text>
<text text-anchor="middle" x="1034" y="-435.58" font-family="Helvetica,sans-Serif" font-size="10.00">_reader::unexpect_eof</text>
</a>
</g>
</g>
<!-- Node2&#45;&gt;Node5 -->
<g id="edge36" class="edge">
<title>Node2&#45;&gt;Node5</title>
<path fill="none" stroke="midnightblue" d="M298.03,-412.69C322.66,-427.18 362.14,-448.57 399,-460.58 566.5,-515.16 614.43,-511.09 790,-525.58 852.01,-530.7 871.26,-546.11 930,-525.58 963.53,-513.87 994.3,-486.17 1013.31,-466.2"/>
<polygon fill="midnightblue" stroke="midnightblue" points="1016.01,-468.43 1020.24,-458.71 1010.88,-463.68 1016.01,-468.43"/>
</g>
<!-- Node12 -->
<g id="node12" class="node">
<title>Node12</title>
<g id="a_node12"><a xlink:href="a01941.html#a23bde2450d7a5772bf5051e36ff560a4" target="_top" xlink:title="Read a BSON document element of the given element_type.">
<polygon fill="white" stroke="black" points="399,-309.08 399,-350.08 560,-350.08 560,-309.08 399,-309.08"/>
<text text-anchor="start" x="407" y="-338.08" font-family="Helvetica,sans-Serif" font-size="10.00">nlohmann::detail::binary</text>
<text text-anchor="start" x="407" y="-327.08" font-family="Helvetica,sans-Serif" font-size="10.00">_reader::parse_bson_element</text>
<text text-anchor="middle" x="479.5" y="-316.08" font-family="Helvetica,sans-Serif" font-size="10.00">_internal</text>
</a>
</g>
</g>
<!-- Node2&#45;&gt;Node12 -->
<g id="edge13" class="edge">
<title>Node2&#45;&gt;Node12</title>
<path fill="none" stroke="midnightblue" d="M318.74,-382.58C344.59,-374 377.59,-363.06 406.88,-353.34"/>
<polygon fill="midnightblue" stroke="midnightblue" points="408.27,-356.57 416.66,-350.1 406.06,-349.92 408.27,-356.57"/>
</g>
<!-- Node4&#45;&gt;Node3 -->
<g id="edge4" class="edge">
<title>Node4&#45;&gt;Node3</title>
<path fill="none" stroke="midnightblue" d="M914.23,-486.52C919.86,-483.72 925.25,-480.44 930,-476.58 953.56,-457.47 944.36,-439.85 966,-418.58 973.61,-411.1 982.89,-404.43 992.08,-398.79"/>
<polygon fill="midnightblue" stroke="midnightblue" points="993.94,-401.76 1000.82,-393.7 990.41,-395.71 993.94,-401.76"/>
</g>
<!-- Node4&#45;&gt;Node5 -->
<g id="edge5" class="edge">
<title>Node4&#45;&gt;Node5</title>
<path fill="none" stroke="midnightblue" d="M905.74,-486.5C928.14,-478.94 955.43,-469.74 978.98,-461.8"/>
<polygon fill="midnightblue" stroke="midnightblue" points="980.12,-465.11 988.48,-458.59 977.89,-458.47 980.12,-465.11"/>
</g>
<!-- Node6 -->
<g id="node6" class="node">
<title>Node6</title>
<g id="a_node6"><a xlink:href="a01509.html#a137ea4d27de45d8a844fd13451d40f3d" target="_top" xlink:title="create a parse error exception">
<polygon fill="white" stroke="black" points="1150.5,-103.58 1150.5,-133.58 1282.5,-133.58 1282.5,-103.58 1150.5,-103.58"/>
<text text-anchor="start" x="1158.5" y="-121.58" font-family="Helvetica,sans-Serif" font-size="10.00">nlohmann::detail::parse</text>
<text text-anchor="middle" x="1216.5" y="-110.58" font-family="Helvetica,sans-Serif" font-size="10.00">_error::create</text>
</a>
</g>
</g>
<!-- Node5&#45;&gt;Node6 -->
<g id="edge6" class="edge">
<title>Node5&#45;&gt;Node6</title>
<path fill="none" stroke="midnightblue" d="M1071.3,-428.52C1082.72,-422.1 1094.33,-413.53 1102,-402.58 1148.06,-336.84 1105.72,-299.09 1138,-225.58 1152,-193.69 1176.66,-161.99 1194.41,-141.47"/>
<polygon fill="midnightblue" stroke="midnightblue" points="1197.08,-143.73 1201.07,-133.92 1191.83,-139.1 1197.08,-143.73"/>
</g>
<!-- Node11 -->
<g id="node11" class="node">
<title>Node11</title>
<g id="a_node11"><a xlink:href="a01941.html#a9c413c9a1bade1ce345740f4d69156f0" target="_top" xlink:title=" ">
<polygon fill="white" stroke="black" points="1138,-235.58 1138,-265.58 1295,-265.58 1295,-235.58 1138,-235.58"/>
<text text-anchor="start" x="1146" y="-253.58" font-family="Helvetica,sans-Serif" font-size="10.00">nlohmann::detail::binary</text>
<text text-anchor="middle" x="1216.5" y="-242.58" font-family="Helvetica,sans-Serif" font-size="10.00">_reader::exception_message</text>
</a>
</g>
</g>
<!-- Node5&#45;&gt;Node11 -->
<g id="edge12" class="edge">
<title>Node5&#45;&gt;Node11</title>
<path fill="none" stroke="midnightblue" d="M1065.04,-428.46C1077.24,-421.52 1091.02,-412.6 1102,-402.58 1144.75,-363.6 1182.27,-306.55 1201.61,-274.58"/>
<polygon fill="midnightblue" stroke="midnightblue" points="1204.68,-276.27 1206.8,-265.89 1198.67,-272.68 1204.68,-276.27"/>
</g>
<!-- Node7 -->
<g id="node7" class="node">
<title>Node7</title>
<g id="a_node7"><a xlink:href="a01505.html#abf41a7e9178356314082284e6cfea278" target="_top" xlink:title=" ">
<polygon fill="white" stroke="black" points="1331,-152.58 1331,-182.58 1484,-182.58 1484,-152.58 1331,-152.58"/>
<text text-anchor="start" x="1339" y="-170.58" font-family="Helvetica,sans-Serif" font-size="10.00">nlohmann::detail::exception</text>
<text text-anchor="middle" x="1407.5" y="-159.58" font-family="Helvetica,sans-Serif" font-size="10.00">::name</text>
</a>
</g>
</g>
<!-- Node6&#45;&gt;Node7 -->
<g id="edge7" class="edge">
<title>Node6&#45;&gt;Node7</title>
<path fill="none" stroke="midnightblue" d="M1275.49,-133.62C1295.54,-138.81 1318.17,-144.68 1338.92,-150.06"/>
<polygon fill="midnightblue" stroke="midnightblue" points="1338.06,-153.46 1348.62,-152.58 1339.82,-146.68 1338.06,-153.46"/>
</g>
<!-- Node9 -->
<g id="node9" class="node">
<title>Node9</title>
<g id="a_node9"><a xlink:href="a01509.html#a0ea816ea3521d7109407948cb1b850f7" target="_top" xlink:title=" ">
<polygon fill="white" stroke="black" points="1341.5,-103.58 1341.5,-133.58 1473.5,-133.58 1473.5,-103.58 1341.5,-103.58"/>
<text text-anchor="start" x="1349.5" y="-121.58" font-family="Helvetica,sans-Serif" font-size="10.00">nlohmann::detail::parse</text>
<text text-anchor="middle" x="1407.5" y="-110.58" font-family="Helvetica,sans-Serif" font-size="10.00">_error::parse_error</text>
</a>
</g>
</g>
<!-- Node6&#45;&gt;Node9 -->
<g id="edge9" class="edge">
<title>Node6&#45;&gt;Node9</title>
<path fill="none" stroke="midnightblue" d="M1282.54,-118.58C1298.13,-118.58 1314.91,-118.58 1330.94,-118.58"/>
<polygon fill="midnightblue" stroke="midnightblue" points="1331.34,-122.08 1341.34,-118.58 1331.34,-115.08 1331.34,-122.08"/>
</g>
<!-- Node10 -->
<g id="node10" class="node">
<title>Node10</title>
<g id="a_node10"><a xlink:href="a01509.html#aefe74adeaa48781464ba2fd2ec63d221" target="_top" xlink:title=" ">
<polygon fill="white" stroke="black" points="1341.5,-54.58 1341.5,-84.58 1473.5,-84.58 1473.5,-54.58 1341.5,-54.58"/>
<text text-anchor="start" x="1349.5" y="-72.58" font-family="Helvetica,sans-Serif" font-size="10.00">nlohmann::detail::parse</text>
<text text-anchor="middle" x="1407.5" y="-61.58" font-family="Helvetica,sans-Serif" font-size="10.00">_error::position_string</text>
</a>
</g>
</g>
<!-- Node6&#45;&gt;Node10 -->
<g id="edge10" class="edge">
<title>Node6&#45;&gt;Node10</title>
<path fill="none" stroke="midnightblue" d="M1275.49,-103.55C1295.54,-98.35 1318.17,-92.48 1338.92,-87.1"/>
<polygon fill="midnightblue" stroke="midnightblue" points="1339.82,-90.49 1348.62,-84.59 1338.06,-83.71 1339.82,-90.49"/>
</g>
<!-- Node8 -->
<g id="node8" class="node">
<title>Node8</title>
<g id="a_node8"><a xlink:href="a00410.html#a6ce645a0b8717757e096a5b5773b7a16" target="_top" xlink:title="user&#45;defined to_string function for JSON values">
<polygon fill="white" stroke="black" points="1520,-109.08 1520,-128.08 1634,-128.08 1634,-109.08 1520,-109.08"/>
<text text-anchor="middle" x="1577" y="-116.08" font-family="Helvetica,sans-Serif" font-size="10.00">nlohmann::to_string</text>
</a>
</g>
</g>
<!-- Node7&#45;&gt;Node8 -->
<g id="edge8" class="edge">
<title>Node7&#45;&gt;Node8</title>
<path fill="none" stroke="midnightblue" d="M1460.12,-152.48C1483.71,-145.58 1511.31,-137.51 1533.66,-130.97"/>
<polygon fill="midnightblue" stroke="midnightblue" points="1534.9,-134.25 1543.52,-128.09 1532.94,-127.53 1534.9,-134.25"/>
</g>
<!-- Node10&#45;&gt;Node8 -->
<g id="edge11" class="edge">
<title>Node10&#45;&gt;Node8</title>
<path fill="none" stroke="midnightblue" d="M1460.12,-84.68C1483.71,-91.59 1511.31,-99.66 1533.66,-106.2"/>
<polygon fill="midnightblue" stroke="midnightblue" points="1532.94,-109.63 1543.52,-109.08 1534.9,-102.91 1532.94,-109.63"/>
</g>
<!-- Node12&#45;&gt;Node1 -->
<g id="edge33" class="edge">
<title>Node12&#45;&gt;Node1</title>
<path fill="none" stroke="midnightblue" d="M398.85,-338.25C328.85,-345.86 227.39,-356.9 156.54,-364.6"/>
<polygon fill="midnightblue" stroke="midnightblue" points="155.88,-361.16 146.32,-365.72 156.64,-368.11 155.88,-361.16"/>
</g>
<!-- Node12&#45;&gt;Node3 -->
<g id="edge15" class="edge">
<title>Node12&#45;&gt;Node3</title>
<path fill="none" stroke="midnightblue" d="M560.15,-334.32C614.75,-337.76 688.81,-342.82 754,-348.58 822.3,-354.63 899.83,-363.09 955.79,-369.49"/>
<polygon fill="midnightblue" stroke="midnightblue" points="955.65,-373 965.98,-370.66 956.45,-366.04 955.65,-373"/>
</g>
<!-- Node12&#45;&gt;Node6 -->
<g id="edge14" class="edge">
<title>Node12&#45;&gt;Node6</title>
<path fill="none" stroke="midnightblue" d="M483.14,-309.08C490.64,-259.96 516.96,-135.45 596,-78.58 778.63,52.82 883.63,-9.44 1102,-63.58 1130.82,-70.73 1160.96,-85.74 1182.93,-98.28"/>
<polygon fill="midnightblue" stroke="midnightblue" points="1181.42,-101.45 1191.82,-103.47 1184.95,-95.4 1181.42,-101.45"/>
</g>
<!-- Node13 -->
<g id="node13" class="node">
<title>Node13</title>
<g id="a_node13"><a xlink:href="a01941.html#a9940f56290b9278c58772eda2931e599" target="_top" xlink:title="Parses a byte array input of length len from the BSON input.">
<polygon fill="white" stroke="black" points="605,-88.58 605,-118.58 745,-118.58 745,-88.58 605,-88.58"/>
<text text-anchor="start" x="613" y="-106.58" font-family="Helvetica,sans-Serif" font-size="10.00">nlohmann::detail::binary</text>
<text text-anchor="middle" x="675" y="-95.58" font-family="Helvetica,sans-Serif" font-size="10.00">_reader::get_bson_binary</text>
</a>
</g>
</g>
<!-- Node12&#45;&gt;Node13 -->
<g id="edge16" class="edge">
<title>Node12&#45;&gt;Node13</title>
<path fill="none" stroke="midnightblue" d="M498.36,-308.73C534.57,-266.43 616.41,-170.85 654.19,-126.71"/>
<polygon fill="midnightblue" stroke="midnightblue" points="657.08,-128.72 660.93,-118.85 651.77,-124.17 657.08,-128.72"/>
</g>
<!-- Node16 -->
<g id="node16" class="node">
<title>Node16</title>
<g id="a_node16"><a xlink:href="a01941.html#a23921422802aa472360dd05023e20565" target="_top" xlink:title="Parses a zero&#45;terminated string of length len from the BSON input.">
<polygon fill="white" stroke="black" points="606.5,-270.58 606.5,-300.58 743.5,-300.58 743.5,-270.58 606.5,-270.58"/>
<text text-anchor="start" x="614.5" y="-288.58" font-family="Helvetica,sans-Serif" font-size="10.00">nlohmann::detail::binary</text>
<text text-anchor="middle" x="675" y="-277.58" font-family="Helvetica,sans-Serif" font-size="10.00">_reader::get_bson_string</text>
</a>
</g>
</g>
<!-- Node12&#45;&gt;Node16 -->
<g id="edge24" class="edge">
<title>Node12&#45;&gt;Node16</title>
<path fill="none" stroke="midnightblue" d="M560.04,-311.5C572.63,-308.63 585.61,-305.68 598.11,-302.84"/>
<polygon fill="midnightblue" stroke="midnightblue" points="599.04,-306.22 608.01,-300.59 597.48,-299.39 599.04,-306.22"/>
</g>
<!-- Node18 -->
<g id="node18" class="node">
<title>Node18</title>
<g id="a_node18"><a xlink:href="a01941.html#abf2051ba57d9ea9b378a2e7c14e22b34" target="_top" xlink:title="Reads in a BSON&#45;object and passes it to the SAX&#45;parser.">
<polygon fill="white" stroke="black" points="596,-358.58 596,-388.58 754,-388.58 754,-358.58 596,-358.58"/>
<text text-anchor="start" x="604" y="-376.58" font-family="Helvetica,sans-Serif" font-size="10.00">nlohmann::detail::binary</text>
<text text-anchor="middle" x="675" y="-365.58" font-family="Helvetica,sans-Serif" font-size="10.00">_reader::parse_bson_internal</text>
</a>
</g>
</g>
<!-- Node12&#45;&gt;Node18 -->
<g id="edge34" class="edge">
<title>Node12&#45;&gt;Node18</title>
<path fill="none" stroke="midnightblue" d="M560.04,-347.67C572.63,-350.53 585.61,-353.48 598.11,-356.33"/>
<polygon fill="midnightblue" stroke="midnightblue" points="597.48,-359.77 608.01,-358.58 599.04,-352.95 597.48,-359.77"/>
</g>
<!-- Node13&#45;&gt;Node6 -->
<g id="edge17" class="edge">
<title>Node13&#45;&gt;Node6</title>
<path fill="none" stroke="midnightblue" d="M713.57,-88.52C735.47,-80.56 763.85,-71.61 790,-67.58 919.48,-47.62 1072.16,-79.25 1154.86,-100.94"/>
<polygon fill="midnightblue" stroke="midnightblue" points="1154.02,-104.34 1164.59,-103.54 1155.83,-97.58 1154.02,-104.34"/>
</g>
<!-- Node13&#45;&gt;Node8 -->
<g id="edge23" class="edge">
<title>Node13&#45;&gt;Node8</title>
<path fill="none" stroke="midnightblue" d="M708.16,-88.49C769.76,-61 909.28,-5.58 1033,-5.58 1033,-5.58 1033,-5.58 1217.5,-5.58 1337.21,-5.58 1374.28,3.28 1484,-44.58 1514.63,-57.95 1543.56,-84.3 1560.53,-101.68"/>
<polygon fill="midnightblue" stroke="midnightblue" points="1558.02,-104.12 1567.45,-108.95 1563.1,-99.3 1558.02,-104.12"/>
</g>
<!-- Node13&#45;&gt;Node11 -->
<g id="edge18" class="edge">
<title>Node13&#45;&gt;Node11</title>
<path fill="none" stroke="midnightblue" d="M745.26,-93.49C796.94,-88.17 868.88,-85.5 930,-100.58 1032.05,-125.76 1137.96,-194.67 1187.19,-229.64"/>
<polygon fill="midnightblue" stroke="midnightblue" points="1185.27,-232.57 1195.43,-235.55 1189.35,-226.88 1185.27,-232.57"/>
</g>
<!-- Node14 -->
<g id="node14" class="node">
<title>Node14</title>
<g id="a_node14"><a xlink:href="a01941.html#a55e13d567a53234573ab3833c0ca32e9" target="_top" xlink:title="create a byte array by reading bytes from the input">
<polygon fill="white" stroke="black" points="792,-110.58 792,-140.58 928,-140.58 928,-110.58 792,-110.58"/>
<text text-anchor="start" x="800" y="-128.58" font-family="Helvetica,sans-Serif" font-size="10.00">nlohmann::detail::binary</text>
<text text-anchor="middle" x="860" y="-117.58" font-family="Helvetica,sans-Serif" font-size="10.00">_reader::get_binary</text>
</a>
</g>
</g>
<!-- Node13&#45;&gt;Node14 -->
<g id="edge19" class="edge">
<title>Node13&#45;&gt;Node14</title>
<path fill="none" stroke="midnightblue" d="M745.18,-111.9C757.12,-113.34 769.6,-114.84 781.74,-116.3"/>
<polygon fill="midnightblue" stroke="midnightblue" points="781.49,-119.79 791.84,-117.51 782.33,-112.84 781.49,-119.79"/>
</g>
<!-- Node15 -->
<g id="node15" class="node">
<title>Node15</title>
<g id="a_node15"><a xlink:href="a01941.html#a7d323283c60a0b89ee5eeadf5cb9a5ad" target="_top" xlink:title=" ">
<polygon fill="white" stroke="black" points="790,-159.58 790,-189.58 930,-189.58 930,-159.58 790,-159.58"/>
<text text-anchor="start" x="798" y="-177.58" font-family="Helvetica,sans-Serif" font-size="10.00">nlohmann::detail::binary</text>
<text text-anchor="middle" x="860" y="-166.58" font-family="Helvetica,sans-Serif" font-size="10.00">_reader::get_token_string</text>
</a>
</g>
</g>
<!-- Node13&#45;&gt;Node15 -->
<g id="edge22" class="edge">
<title>Node13&#45;&gt;Node15</title>
<path fill="none" stroke="midnightblue" d="M712.32,-118.63C734.65,-127.78 763.89,-139.59 790,-149.58 795.49,-151.68 801.24,-153.84 806.98,-155.96"/>
<polygon fill="midnightblue" stroke="midnightblue" points="805.99,-159.33 816.58,-159.49 808.4,-152.75 805.99,-159.33"/>
</g>
<!-- Node14&#45;&gt;Node3 -->
<g id="edge20" class="edge">
<title>Node14&#45;&gt;Node3</title>
<path fill="none" stroke="midnightblue" d="M917.48,-140.69C922,-143.22 926.26,-146.16 930,-149.58 991.74,-206.12 1018.81,-306.7 1028.49,-353.43"/>
<polygon fill="midnightblue" stroke="midnightblue" points="1025.07,-354.19 1030.44,-363.32 1031.94,-352.84 1025.07,-354.19"/>
</g>
<!-- Node14&#45;&gt;Node5 -->
<g id="edge21" class="edge">
<title>Node14&#45;&gt;Node5</title>
<path fill="none" stroke="midnightblue" d="M920.18,-140.7C923.84,-143.22 927.18,-146.16 930,-149.58 1002.18,-237.27 903.62,-307.67 966,-402.58 971.39,-410.79 979.05,-417.62 987.27,-423.2"/>
<polygon fill="midnightblue" stroke="midnightblue" points="985.63,-426.3 995.98,-428.57 989.31,-420.34 985.63,-426.3"/>
</g>
<!-- Node16&#45;&gt;Node3 -->
<g id="edge27" class="edge">
<title>Node16&#45;&gt;Node3</title>
<path fill="none" stroke="midnightblue" d="M733.75,-300.63C797.01,-317.11 898.35,-343.51 965.3,-360.95"/>
<polygon fill="midnightblue" stroke="midnightblue" points="964.77,-364.43 975.33,-363.56 966.53,-357.65 964.77,-364.43"/>
</g>
<!-- Node16&#45;&gt;Node6 -->
<g id="edge25" class="edge">
<title>Node16&#45;&gt;Node6</title>
<path fill="none" stroke="midnightblue" d="M724.83,-270.47C824.31,-239.67 1050.08,-169.79 1157.11,-136.66"/>
<polygon fill="midnightblue" stroke="midnightblue" points="1158.26,-139.96 1166.78,-133.66 1156.19,-133.28 1158.26,-139.96"/>
</g>
<!-- Node16&#45;&gt;Node8 -->
<g id="edge32" class="edge">
<title>Node16&#45;&gt;Node8</title>
<path fill="none" stroke="midnightblue" d="M743.76,-288.31C815.56,-290.96 932.25,-294.58 1033,-294.58 1033,-294.58 1033,-294.58 1217.5,-294.58 1361.37,-294.58 1507.54,-178.96 1557.76,-135.14"/>
<polygon fill="midnightblue" stroke="midnightblue" points="1560.33,-137.55 1565.5,-128.3 1555.69,-132.3 1560.33,-137.55"/>
</g>
<!-- Node16&#45;&gt;Node11 -->
<g id="edge26" class="edge">
<title>Node16&#45;&gt;Node11</title>
<path fill="none" stroke="midnightblue" d="M743.51,-281.2C840.74,-274.9 1020.3,-263.25 1127.72,-256.28"/>
<polygon fill="midnightblue" stroke="midnightblue" points="1128.14,-259.76 1137.89,-255.62 1127.68,-252.77 1128.14,-259.76"/>
</g>
<!-- Node16&#45;&gt;Node15 -->
<g id="edge31" class="edge">
<title>Node16&#45;&gt;Node15</title>
<path fill="none" stroke="midnightblue" d="M694.56,-270.56C716.48,-253.25 754.48,-224.64 790,-204.58 796.57,-200.87 803.69,-197.31 810.77,-194.02"/>
<polygon fill="midnightblue" stroke="midnightblue" points="812.67,-197 820.35,-189.71 809.8,-190.62 812.67,-197"/>
</g>
<!-- Node17 -->
<g id="node17" class="node">
<title>Node17</title>
<g id="a_node17"><a xlink:href="a01941.html#a540919db22df36512f05a88945c13263" target="_top" xlink:title="create a string by reading characters from the input">
<polygon fill="white" stroke="black" points="792,-437.58 792,-467.58 928,-467.58 928,-437.58 792,-437.58"/>
<text text-anchor="start" x="800" y="-455.58" font-family="Helvetica,sans-Serif" font-size="10.00">nlohmann::detail::binary</text>
<text text-anchor="middle" x="860" y="-444.58" font-family="Helvetica,sans-Serif" font-size="10.00">_reader::get_string</text>
</a>
</g>
</g>
<!-- Node16&#45;&gt;Node17 -->
<g id="edge28" class="edge">
<title>Node16&#45;&gt;Node17</title>
<path fill="none" stroke="midnightblue" d="M695.68,-300.59C711.73,-313.03 734.8,-331.4 754,-348.58 783.97,-375.4 816.6,-408.37 837.4,-429.9"/>
<polygon fill="midnightblue" stroke="midnightblue" points="835.05,-432.5 844.51,-437.28 840.1,-427.65 835.05,-432.5"/>
</g>
<!-- Node17&#45;&gt;Node3 -->
<g id="edge29" class="edge">
<title>Node17&#45;&gt;Node3</title>
<path fill="none" stroke="midnightblue" d="M896.22,-437.43C922.98,-425.92 959.95,-410.01 988.71,-397.64"/>
<polygon fill="midnightblue" stroke="midnightblue" points="990.32,-400.76 998.12,-393.59 987.55,-394.33 990.32,-400.76"/>
</g>
<!-- Node17&#45;&gt;Node5 -->
<g id="edge30" class="edge">
<title>Node17&#45;&gt;Node5</title>
<path fill="none" stroke="midnightblue" d="M928.49,-449.05C937.44,-448.58 946.68,-448.1 955.79,-447.62"/>
<polygon fill="midnightblue" stroke="midnightblue" points="956.19,-451.11 965.99,-447.09 955.82,-444.12 956.19,-451.11"/>
</g>
<!-- Node18&#45;&gt;Node2 -->
<g id="edge35" class="edge">
<title>Node18&#45;&gt;Node2</title>
<path fill="none" stroke="midnightblue" d="M595.91,-378.26C532.34,-382.07 442.19,-387.47 373.37,-391.6"/>
<polygon fill="midnightblue" stroke="midnightblue" points="373.15,-388.11 363.38,-392.2 373.57,-395.09 373.15,-388.11"/>
</g>
</g>
</svg>
