<?xml version="1.0" encoding="UTF-8" standalone="no"?>
<!DOCTYPE svg PUBLIC "-//W3C//DTD SVG 1.1//EN"
 "http://www.w3.org/Graphics/SVG/1.1/DTD/svg11.dtd">
<!-- Generated by graphviz version 4.0.0 (20220529.0937)
 -->
<!-- Title: nlohmann::detail::parser::get_token Pages: 1 -->
<svg width="600pt" height="152pt"
 viewBox="0.00 0.00 600.00 152.00" xmlns="http://www.w3.org/2000/svg" xmlns:xlink="http://www.w3.org/1999/xlink">
<g id="graph0" class="graph" transform="scale(1 1) rotate(0) translate(4 148)">
<title>nlohmann::detail::parser::get_token</title>
<polygon fill="white" stroke="transparent" points="-4,4 -4,-148 596,-148 596,4 -4,4"/>
<!-- Node1 -->
<g id="node1" class="node">
<title>Node1</title>
<g id="a_node1"><a xlink:title="get next token from lexer">
<polygon fill="#bfbfbf" stroke="black" points="471,-47.5 471,-77.5 592,-77.5 592,-47.5 471,-47.5"/>
<text text-anchor="start" x="479" y="-65.5" font-family="Helvetica,sans-Serif" font-size="10.00">nlohmann::detail::parser</text>
<text text-anchor="middle" x="531.5" y="-54.5" font-family="Helvetica,sans-Serif" font-size="10.00">::get_token</text>
</a>
</g>
</g>
<!-- Node2 -->
<g id="node2" class="node">
<title>Node2</title>
<g id="a_node2"><a xlink:href="a01933.html#a33b852bf63cba58310d9c0d1242cfb12" target="_top" xlink:title="a parser reading from an input adapter">
<polygon fill="white" stroke="black" points="314,-113.5 314,-143.5 435,-143.5 435,-113.5 314,-113.5"/>
<text text-anchor="start" x="322" y="-131.5" font-family="Helvetica,sans-Serif" font-size="10.00">nlohmann::detail::parser</text>
<text text-anchor="middle" x="374.5" y="-120.5" font-family="Helvetica,sans-Serif" font-size="10.00">::parser</text>
</a>
</g>
</g>
<!-- Node1&#45;&gt;Node2 -->
<g id="edge1" class="edge">
<title>Node1&#45;&gt;Node2</title>
<path fill="none" stroke="midnightblue" d="M485.44,-81.69C461.7,-91.79 433.01,-104.01 410.89,-113.43"/>
<polygon fill="midnightblue" stroke="midnightblue" points="487.11,-84.78 494.94,-77.64 484.37,-78.34 487.11,-84.78"/>
</g>
<!-- Node3 -->
<g id="node3" class="node">
<title>Node3</title>
<g id="a_node3"><a xlink:href="a01933.html#a75fb9145ea85f1ad9cc14f61981e1111" target="_top" xlink:title="public parser interface">
<polygon fill="white" stroke="black" points="157,-59.5 157,-89.5 278,-89.5 278,-59.5 157,-59.5"/>
<text text-anchor="start" x="165" y="-77.5" font-family="Helvetica,sans-Serif" font-size="10.00">nlohmann::detail::parser</text>
<text text-anchor="middle" x="217.5" y="-66.5" font-family="Helvetica,sans-Serif" font-size="10.00">::parse</text>
</a>
</g>
</g>
<!-- Node1&#45;&gt;Node3 -->
<g id="edge2" class="edge">
<title>Node1&#45;&gt;Node3</title>
<path fill="none" stroke="midnightblue" d="M460.71,-65.18C405.82,-67.3 330.16,-70.21 278.09,-72.21"/>
<polygon fill="midnightblue" stroke="midnightblue" points="460.85,-68.68 470.71,-64.8 460.59,-61.69 460.85,-68.68"/>
</g>
<!-- Node4 -->
<g id="node4" class="node">
<title>Node4</title>
<g id="a_node4"><a xlink:href="a01933.html#a073b8313a5194aac3a7d5da0d935788c" target="_top" xlink:title=" ">
<polygon fill="white" stroke="black" points="157,-0.5 157,-30.5 278,-30.5 278,-0.5 157,-0.5"/>
<text text-anchor="start" x="165" y="-18.5" font-family="Helvetica,sans-Serif" font-size="10.00">nlohmann::detail::parser</text>
<text text-anchor="middle" x="217.5" y="-7.5" font-family="Helvetica,sans-Serif" font-size="10.00">::sax_parse</text>
</a>
</g>
</g>
<!-- Node1&#45;&gt;Node4 -->
<g id="edge3" class="edge">
<title>Node1&#45;&gt;Node4</title>
<path fill="none" stroke="midnightblue" d="M498.45,-42.12C480.54,-31.94 457.38,-20.71 435,-15.5 383.02,-3.4 322.09,-4.72 278.14,-8.3"/>
<polygon fill="midnightblue" stroke="midnightblue" points="496.91,-45.28 507.31,-47.31 500.45,-39.24 496.91,-45.28"/>
</g>
<!-- Node6 -->
<g id="node6" class="node">
<title>Node6</title>
<g id="a_node6"><a xlink:href="a01933.html#a678fdebccc8ddd3242c67b6bce2f8f1a" target="_top" xlink:title=" ">
<polygon fill="white" stroke="black" points="314,-25.5 314,-55.5 435,-55.5 435,-25.5 314,-25.5"/>
<text text-anchor="start" x="322" y="-43.5" font-family="Helvetica,sans-Serif" font-size="10.00">nlohmann::detail::parser</text>
<text text-anchor="middle" x="374.5" y="-32.5" font-family="Helvetica,sans-Serif" font-size="10.00">::sax_parse_internal</text>
</a>
</g>
</g>
<!-- Node1&#45;&gt;Node6 -->
<g id="edge5" class="edge">
<title>Node1&#45;&gt;Node6</title>
<path fill="none" stroke="midnightblue" d="M460.62,-52.58C452.07,-51.37 443.39,-50.14 435.01,-48.95"/>
<polygon fill="midnightblue" stroke="midnightblue" points="460.18,-56.05 470.57,-53.99 461.16,-49.12 460.18,-56.05"/>
</g>
<!-- Node5 -->
<g id="node5" class="node">
<title>Node5</title>
<g id="a_node5"><a xlink:href="a01933.html#a39784a586867c05388cb0adca0fd72b5" target="_top" xlink:title="public accept interface">
<polygon fill="white" stroke="black" points="0,-0.5 0,-30.5 121,-30.5 121,-0.5 0,-0.5"/>
<text text-anchor="start" x="8" y="-18.5" font-family="Helvetica,sans-Serif" font-size="10.00">nlohmann::detail::parser</text>
<text text-anchor="middle" x="60.5" y="-7.5" font-family="Helvetica,sans-Serif" font-size="10.00">::accept</text>
</a>
</g>
</g>
<!-- Node4&#45;&gt;Node5 -->
<g id="edge4" class="edge">
<title>Node4&#45;&gt;Node5</title>
<path fill="none" stroke="midnightblue" d="M146.34,-15.5C137.88,-15.5 129.3,-15.5 121.01,-15.5"/>
<polygon fill="midnightblue" stroke="midnightblue" points="146.57,-19 156.57,-15.5 146.57,-12 146.57,-19"/>
</g>
<!-- Node6&#45;&gt;Node3 -->
<g id="edge6" class="edge">
<title>Node6&#45;&gt;Node3</title>
<path fill="none" stroke="midnightblue" d="M303.62,-55.83C295.07,-57.7 286.39,-59.61 278.01,-61.45"/>
<polygon fill="midnightblue" stroke="midnightblue" points="304.56,-59.21 313.57,-53.65 303.06,-52.37 304.56,-59.21"/>
</g>
<!-- Node6&#45;&gt;Node4 -->
<g id="edge7" class="edge">
<title>Node6&#45;&gt;Node4</title>
<path fill="none" stroke="midnightblue" d="M303.62,-29.23C295.07,-27.85 286.39,-26.45 278.01,-25.1"/>
<polygon fill="midnightblue" stroke="midnightblue" points="303.14,-32.7 313.57,-30.83 304.26,-25.79 303.14,-32.7"/>
</g>
</g>
</svg>
