<?xml version="1.0" encoding="UTF-8" standalone="no"?>
<!DOCTYPE svg PUBLIC "-//W3C//DTD SVG 1.1//EN"
 "http://www.w3.org/Graphics/SVG/1.1/DTD/svg11.dtd">
<!-- Generated by graphviz version 5.0.0 (20220707.1540)
 -->
<!-- Title: nlohmann::basic_json::json_value::json_value Pages: 1 -->
<svg width="903pt" height="258pt"
 viewBox="0.00 0.00 903.00 258.00" xmlns="http://www.w3.org/2000/svg" xmlns:xlink="http://www.w3.org/1999/xlink">
<g id="graph0" class="graph" transform="scale(1 1) rotate(0) translate(4 254)">
<title>nlohmann::basic_json::json_value::json_value</title>
<polygon fill="white" stroke="transparent" points="-4,4 -4,-254 899,-254 899,4 -4,4"/>
<!-- Node1 -->
<g id="node1" class="node">
<title>Node1</title>
<g id="a_node1"><a xlink:title="constructor for objects">
<polygon fill="#bfbfbf" stroke="black" points="0,-88.5 0,-118.5 119,-118.5 119,-88.5 0,-88.5"/>
<text text-anchor="start" x="8" y="-106.5" font-family="Helvetica,sans-Serif" font-size="10.00">nlohmann::basic_json</text>
<text text-anchor="middle" x="59.5" y="-95.5" font-family="Helvetica,sans-Serif" font-size="10.00">::json_value::json_value</text>
</a>
</g>
</g>
<!-- Node2 -->
<g id="node2" class="node">
<title>Node2</title>
<g id="a_node2"><a xlink:href="a01593.html#a11641b35219676b225d9bd15c7677659" target="_top" xlink:title="access specified object element with default value">
<polygon fill="white" stroke="black" points="155,-88.5 155,-118.5 266,-118.5 266,-88.5 155,-88.5"/>
<text text-anchor="start" x="163" y="-106.5" font-family="Helvetica,sans-Serif" font-size="10.00">nlohmann::basic_json</text>
<text text-anchor="middle" x="210.5" y="-95.5" font-family="Helvetica,sans-Serif" font-size="10.00">::value</text>
</a>
</g>
</g>
<!-- Node1&#45;&gt;Node2 -->
<g id="edge1" class="edge">
<title>Node1&#45;&gt;Node2</title>
<path fill="none" stroke="midnightblue" d="M119.39,-103.5C127.72,-103.5 136.32,-103.5 144.75,-103.5"/>
<polygon fill="midnightblue" stroke="midnightblue" points="144.92,-107 154.92,-103.5 144.92,-100 144.92,-107"/>
</g>
<!-- Node3 -->
<g id="node3" class="node">
<title>Node3</title>
<g id="a_node3"><a xlink:href="a01505.html#aecc083aea4b698c33d042670ba50c10f" target="_top" xlink:title=" ">
<polygon fill="white" stroke="black" points="302,-176.5 302,-206.5 415,-206.5 415,-176.5 302,-176.5"/>
<text text-anchor="start" x="310" y="-194.5" font-family="Helvetica,sans-Serif" font-size="10.00">nlohmann::detail::type</text>
<text text-anchor="middle" x="358.5" y="-183.5" font-family="Helvetica,sans-Serif" font-size="10.00">_error::create</text>
</a>
</g>
</g>
<!-- Node2&#45;&gt;Node3 -->
<g id="edge2" class="edge">
<title>Node2&#45;&gt;Node3</title>
<path fill="none" stroke="midnightblue" d="M233.9,-118.51C252.04,-130.51 278.37,-147.57 302,-161.5 307.63,-164.82 313.66,-168.23 319.59,-171.49"/>
<polygon fill="midnightblue" stroke="midnightblue" points="318.3,-174.78 328.75,-176.49 321.65,-168.63 318.3,-174.78"/>
</g>
<!-- Node7 -->
<g id="node7" class="node">
<title>Node7</title>
<g id="a_node7"><a xlink:href="a01593.html#a931267ec3f09eb67e4382f321b2c52bc" target="_top" xlink:title="returns an iterator to one past the last element">
<polygon fill="white" stroke="black" points="452.5,-127 452.5,-146 585.5,-146 585.5,-127 452.5,-127"/>
<text text-anchor="middle" x="519" y="-134" font-family="Helvetica,sans-Serif" font-size="10.00">nlohmann::basic_json::end</text>
</a>
</g>
</g>
<!-- Node2&#45;&gt;Node7 -->
<g id="edge6" class="edge">
<title>Node2&#45;&gt;Node7</title>
<path fill="none" stroke="midnightblue" d="M258.02,-118.58C272.01,-122.51 287.5,-126.26 302,-128.5 348.25,-135.65 400.7,-137.73 442.34,-137.98"/>
<polygon fill="midnightblue" stroke="midnightblue" points="442.4,-141.48 452.41,-138.01 442.42,-134.48 442.4,-141.48"/>
</g>
<!-- Node10 -->
<g id="node10" class="node">
<title>Node10</title>
<g id="a_node10"><a xlink:href="a01593.html#acdf9b3aab82dcf443dd91ca5ec06b80c" target="_top" xlink:title="find an element in a JSON object">
<polygon fill="white" stroke="black" points="303,-88.5 303,-118.5 414,-118.5 414,-88.5 303,-88.5"/>
<text text-anchor="start" x="311" y="-106.5" font-family="Helvetica,sans-Serif" font-size="10.00">nlohmann::basic_json</text>
<text text-anchor="middle" x="358.5" y="-95.5" font-family="Helvetica,sans-Serif" font-size="10.00">::find</text>
</a>
</g>
</g>
<!-- Node2&#45;&gt;Node10 -->
<g id="edge9" class="edge">
<title>Node2&#45;&gt;Node10</title>
<path fill="none" stroke="midnightblue" d="M266.28,-103.5C274.89,-103.5 283.86,-103.5 292.66,-103.5"/>
<polygon fill="midnightblue" stroke="midnightblue" points="292.9,-107 302.9,-103.5 292.9,-100 292.9,-107"/>
</g>
<!-- Node11 -->
<g id="node11" class="node">
<title>Node11</title>
<g id="a_node11"><a xlink:href="a01593.html#a57e8411a770a6263d6d8f2116c37f3aa" target="_top" xlink:title="return whether value is an object">
<polygon fill="white" stroke="black" points="463.5,-66.5 463.5,-96.5 574.5,-96.5 574.5,-66.5 463.5,-66.5"/>
<text text-anchor="start" x="471.5" y="-84.5" font-family="Helvetica,sans-Serif" font-size="10.00">nlohmann::basic_json</text>
<text text-anchor="middle" x="519" y="-73.5" font-family="Helvetica,sans-Serif" font-size="10.00">::is_object</text>
</a>
</g>
</g>
<!-- Node2&#45;&gt;Node11 -->
<g id="edge12" class="edge">
<title>Node2&#45;&gt;Node11</title>
<path fill="none" stroke="midnightblue" d="M256.58,-88.48C270.93,-84.39 286.98,-80.54 302,-78.5 352.4,-71.67 410.03,-72.92 453.07,-75.6"/>
<polygon fill="midnightblue" stroke="midnightblue" points="452.92,-79.1 463.13,-76.27 453.39,-72.11 452.92,-79.1"/>
</g>
<!-- Node12 -->
<g id="node12" class="node">
<title>Node12</title>
<g id="a_node12"><a xlink:href="a01593.html#ab8811fc4eab6091b32b34b3ac3e90474" target="_top" xlink:title="return the type as string">
<polygon fill="white" stroke="black" points="303,-0.5 303,-30.5 414,-30.5 414,-0.5 303,-0.5"/>
<text text-anchor="start" x="311" y="-18.5" font-family="Helvetica,sans-Serif" font-size="10.00">nlohmann::basic_json</text>
<text text-anchor="middle" x="358.5" y="-7.5" font-family="Helvetica,sans-Serif" font-size="10.00">::type_name</text>
</a>
</g>
</g>
<!-- Node2&#45;&gt;Node12 -->
<g id="edge13" class="edge">
<title>Node2&#45;&gt;Node12</title>
<path fill="none" stroke="midnightblue" d="M233.9,-88.49C252.04,-76.49 278.37,-59.43 302,-45.5 307.63,-42.18 313.66,-38.77 319.59,-35.51"/>
<polygon fill="midnightblue" stroke="midnightblue" points="321.65,-38.37 328.75,-30.51 318.3,-32.22 321.65,-38.37"/>
</g>
<!-- Node4 -->
<g id="node4" class="node">
<title>Node4</title>
<g id="a_node4"><a xlink:href="a01505.html#aa01edaa0bf18b853368f0b900e485cd7" target="_top" xlink:title=" ">
<polygon fill="white" stroke="black" points="462.5,-219.5 462.5,-249.5 575.5,-249.5 575.5,-219.5 462.5,-219.5"/>
<text text-anchor="start" x="470.5" y="-237.5" font-family="Helvetica,sans-Serif" font-size="10.00">nlohmann::detail::type</text>
<text text-anchor="middle" x="519" y="-226.5" font-family="Helvetica,sans-Serif" font-size="10.00">_error::type_error</text>
</a>
</g>
</g>
<!-- Node3&#45;&gt;Node4 -->
<g id="edge3" class="edge">
<title>Node3&#45;&gt;Node4</title>
<path fill="none" stroke="midnightblue" d="M414.94,-206.54C427.12,-209.85 440.14,-213.38 452.67,-216.78"/>
<polygon fill="midnightblue" stroke="midnightblue" points="452.03,-220.23 462.6,-219.47 453.86,-213.47 452.03,-220.23"/>
</g>
<!-- Node5 -->
<g id="node5" class="node">
<title>Node5</title>
<g id="a_node5"><a xlink:href="a01493.html#abf41a7e9178356314082284e6cfea278" target="_top" xlink:title=" ">
<polygon fill="white" stroke="black" points="451,-170.5 451,-200.5 587,-200.5 587,-170.5 451,-170.5"/>
<text text-anchor="start" x="459" y="-188.5" font-family="Helvetica,sans-Serif" font-size="10.00">nlohmann::detail::exception</text>
<text text-anchor="middle" x="519" y="-177.5" font-family="Helvetica,sans-Serif" font-size="10.00">::name</text>
</a>
</g>
</g>
<!-- Node3&#45;&gt;Node5 -->
<g id="edge4" class="edge">
<title>Node3&#45;&gt;Node5</title>
<path fill="none" stroke="midnightblue" d="M415.38,-189.38C423.64,-189.07 432.28,-188.74 440.88,-188.42"/>
<polygon fill="midnightblue" stroke="midnightblue" points="441.08,-191.91 450.94,-188.04 440.82,-184.92 441.08,-191.91"/>
</g>
<!-- Node6 -->
<g id="node6" class="node">
<title>Node6</title>
<g id="a_node6"><a xlink:href="a00410.html#a6ce645a0b8717757e096a5b5773b7a16" target="_top" xlink:title="user&#45;defined to_string function for JSON values">
<polygon fill="white" stroke="black" points="625.5,-176 625.5,-195 727.5,-195 727.5,-176 625.5,-176"/>
<text text-anchor="middle" x="676.5" y="-183" font-family="Helvetica,sans-Serif" font-size="10.00">nlohmann::to_string</text>
</a>
</g>
</g>
<!-- Node5&#45;&gt;Node6 -->
<g id="edge5" class="edge">
<title>Node5&#45;&gt;Node6</title>
<path fill="none" stroke="midnightblue" d="M587.3,-185.5C596.6,-185.5 606.11,-185.5 615.27,-185.5"/>
<polygon fill="midnightblue" stroke="midnightblue" points="615.45,-189 625.45,-185.5 615.45,-182 615.45,-189"/>
</g>
<!-- Node8 -->
<g id="node8" class="node">
<title>Node8</title>
<g id="a_node8"><a xlink:href="a01945.html#a23e50ad4c13aa62d9ac7f60a123823ee" target="_top" xlink:title="set the iterator past the last value">
<polygon fill="white" stroke="black" points="623,-121.5 623,-151.5 730,-151.5 730,-121.5 623,-121.5"/>
<text text-anchor="start" x="631" y="-139.5" font-family="Helvetica,sans-Serif" font-size="10.00">nlohmann::detail::iter</text>
<text text-anchor="middle" x="676.5" y="-128.5" font-family="Helvetica,sans-Serif" font-size="10.00">_impl::set_end</text>
</a>
</g>
</g>
<!-- Node7&#45;&gt;Node8 -->
<g id="edge7" class="edge">
<title>Node7&#45;&gt;Node8</title>
<path fill="none" stroke="midnightblue" d="M585.95,-136.5C594.75,-136.5 603.76,-136.5 612.52,-136.5"/>
<polygon fill="midnightblue" stroke="midnightblue" points="612.64,-140 622.64,-136.5 612.64,-133 612.64,-140"/>
</g>
<!-- Node9 -->
<g id="node9" class="node">
<title>Node9</title>
<g id="a_node9"><a xlink:href="a01937.html#ad26a823483846a12d890c3feed3097eb" target="_top" xlink:title="set iterator to a defined past the end">
<polygon fill="white" stroke="black" points="766,-121.5 766,-151.5 895,-151.5 895,-121.5 766,-121.5"/>
<text text-anchor="start" x="774" y="-139.5" font-family="Helvetica,sans-Serif" font-size="10.00">nlohmann::detail::primitive</text>
<text text-anchor="middle" x="830.5" y="-128.5" font-family="Helvetica,sans-Serif" font-size="10.00">_iterator_t::set_end</text>
</a>
</g>
</g>
<!-- Node8&#45;&gt;Node9 -->
<g id="edge8" class="edge">
<title>Node8&#45;&gt;Node9</title>
<path fill="none" stroke="midnightblue" d="M730.24,-136.5C738.49,-136.5 747.16,-136.5 755.78,-136.5"/>
<polygon fill="midnightblue" stroke="midnightblue" points="755.86,-140 765.86,-136.5 755.86,-133 755.86,-140"/>
</g>
<!-- Node10&#45;&gt;Node7 -->
<g id="edge10" class="edge">
<title>Node10&#45;&gt;Node7</title>
<path fill="none" stroke="midnightblue" d="M414.05,-114.86C429.62,-118.1 446.61,-121.64 462.25,-124.89"/>
<polygon fill="midnightblue" stroke="midnightblue" points="461.8,-128.37 472.31,-126.99 463.23,-121.52 461.8,-128.37"/>
</g>
<!-- Node10&#45;&gt;Node11 -->
<g id="edge11" class="edge">
<title>Node10&#45;&gt;Node11</title>
<path fill="none" stroke="midnightblue" d="M414.05,-95.93C426.62,-94.18 440.12,-92.31 453.09,-90.51"/>
<polygon fill="midnightblue" stroke="midnightblue" points="453.93,-93.93 463.35,-89.09 452.97,-86.99 453.93,-93.93"/>
</g>
</g>
</svg>
