<?xml version="1.0" encoding="UTF-8" standalone="no"?>
<!DOCTYPE svg PUBLIC "-//W3C//DTD SVG 1.1//EN"
 "http://www.w3.org/Graphics/SVG/1.1/DTD/svg11.dtd">
<!-- Generated by graphviz version 7.0.3 (20221126.0506)
 -->
<!-- Title: nlohmann::detail::binary_reader::get_msgpack_object Pages: 1 -->
<svg width="1163pt" height="439pt"
 viewBox="0.00 0.00 1163.00 439.29" xmlns="http://www.w3.org/2000/svg" xmlns:xlink="http://www.w3.org/1999/xlink">
<g id="graph0" class="graph" transform="scale(1 1) rotate(0) translate(4 435.29)">
<title>nlohmann::detail::binary_reader::get_msgpack_object</title>
<!-- Node1 -->
<g id="node1" class="node">
<title>Node1</title>
<g id="a_node1"><a xlink:title=" ">
<polygon fill="#999999" stroke="#666666" points="145,-299 0,-299 0,-269 145,-269 145,-299"/>
<text text-anchor="start" x="8" y="-287" font-family="Helvetica,sans-Serif" font-size="10.00">nlohmann::detail::binary</text>
<text text-anchor="middle" x="72.5" y="-276" font-family="Helvetica,sans-Serif" font-size="10.00">_reader::get_msgpack_object</text>
</a>
</g>
</g>
<!-- Node2 -->
<g id="node2" class="node">
<title>Node2</title>
<g id="a_node2"><a xlink:href="a01929.html#ad222095c0b21a87824cb10629299629a" target="_top" xlink:title="get next character from the input">
<polygon fill="white" stroke="#666666" points="805,-331 685,-331 685,-301 805,-301 805,-331"/>
<text text-anchor="start" x="693" y="-319" font-family="Helvetica,sans-Serif" font-size="10.00">nlohmann::detail::binary</text>
<text text-anchor="middle" x="745" y="-308" font-family="Helvetica,sans-Serif" font-size="10.00">_reader::get</text>
</a>
</g>
</g>
<!-- Node1&#45;&gt;Node2 -->
<g id="edge1" class="edge">
<title>Node1&#45;&gt;Node2</title>
<path fill="none" stroke="#63b8ff" d="M95.75,-299.46C139.99,-329.14 243.16,-393.17 341,-416 476.83,-447.69 637.55,-374.35 707.94,-336.65"/>
<polygon fill="#63b8ff" stroke="#63b8ff" points="709.22,-339.94 716.33,-332.08 705.87,-333.79 709.22,-339.94"/>
</g>
<!-- Node3 -->
<g id="node3" class="node">
<title>Node3</title>
<g id="a_node3"><a xlink:href="a01929.html#ad8cba5585327caa550dd5b6dd25a64f8" target="_top" xlink:title="reads a MessagePack string">
<polygon fill="white" stroke="#666666" points="485,-151 342,-151 342,-121 485,-121 485,-151"/>
<text text-anchor="start" x="350" y="-139" font-family="Helvetica,sans-Serif" font-size="10.00">nlohmann::detail::binary</text>
<text text-anchor="middle" x="413.5" y="-128" font-family="Helvetica,sans-Serif" font-size="10.00">_reader::get_msgpack_string</text>
</a>
</g>
</g>
<!-- Node1&#45;&gt;Node3 -->
<g id="edge2" class="edge">
<title>Node1&#45;&gt;Node3</title>
<path fill="none" stroke="#63b8ff" d="M108.82,-268.58C170.55,-241.63 298.01,-185.98 366.53,-156.07"/>
<polygon fill="#63b8ff" stroke="#63b8ff" points="367.85,-159.31 375.62,-152.1 365.05,-152.9 367.85,-159.31"/>
</g>
<!-- Node12 -->
<g id="node12" class="node">
<title>Node12</title>
<g id="a_node12"><a xlink:href="a01929.html#ae020385ce9424271d61f85d3842c02cb" target="_top" xlink:title=" ">
<polygon fill="white" stroke="#666666" points="305,-304.5 181,-304.5 181,-263.5 305,-263.5 305,-304.5"/>
<text text-anchor="start" x="189" y="-292.5" font-family="Helvetica,sans-Serif" font-size="10.00">nlohmann::detail::binary</text>
<text text-anchor="start" x="189" y="-281.5" font-family="Helvetica,sans-Serif" font-size="10.00">_reader::parse_msgpack</text>
<text text-anchor="middle" x="243" y="-270.5" font-family="Helvetica,sans-Serif" font-size="10.00">_internal</text>
</a>
</g>
</g>
<!-- Node1&#45;&gt;Node12 -->
<g id="edge17" class="edge">
<title>Node1&#45;&gt;Node12</title>
<path fill="none" stroke="#63b8ff" d="M145.45,-277.31C153.32,-277.23 161.34,-277.23 169.22,-277.31"/>
<polygon fill="#63b8ff" stroke="#63b8ff" points="169.08,-280.8 179.13,-277.45 169.18,-273.8 169.08,-280.8"/>
</g>
<!-- Node4 -->
<g id="node4" class="node">
<title>Node4</title>
<g id="a_node4"><a xlink:href="a01497.html#a137ea4d27de45d8a844fd13451d40f3d" target="_top" xlink:title="create a parse error exception">
<polygon fill="white" stroke="#666666" points="971,-194 853,-194 853,-164 971,-164 971,-194"/>
<text text-anchor="start" x="861" y="-182" font-family="Helvetica,sans-Serif" font-size="10.00">nlohmann::detail::parse</text>
<text text-anchor="middle" x="912" y="-171" font-family="Helvetica,sans-Serif" font-size="10.00">_error::create</text>
</a>
</g>
</g>
<!-- Node3&#45;&gt;Node4 -->
<g id="edge3" class="edge">
<title>Node3&#45;&gt;Node4</title>
<path fill="none" stroke="#63b8ff" d="M447.56,-120.61C468.41,-111.76 496.19,-101.54 522,-97 648.41,-74.78 796.42,-128.11 867.96,-158.95"/>
<polygon fill="#63b8ff" stroke="#63b8ff" points="866.41,-162.09 876.97,-162.9 869.22,-155.68 866.41,-162.09"/>
</g>
<!-- Node7 -->
<g id="node7" class="node">
<title>Node7</title>
<g id="a_node7"><a xlink:href="a01929.html#a9c413c9a1bade1ce345740f4d69156f0" target="_top" xlink:title=" ">
<polygon fill="white" stroke="#666666" points="983,-30 841,-30 841,0 983,0 983,-30"/>
<text text-anchor="start" x="849" y="-18" font-family="Helvetica,sans-Serif" font-size="10.00">nlohmann::detail::binary</text>
<text text-anchor="middle" x="912" y="-7" font-family="Helvetica,sans-Serif" font-size="10.00">_reader::exception_message</text>
</a>
</g>
</g>
<!-- Node3&#45;&gt;Node7 -->
<g id="edge6" class="edge">
<title>Node3&#45;&gt;Node7</title>
<path fill="none" stroke="#63b8ff" d="M443.89,-120.62C465.1,-110.09 494.69,-96.53 522,-88 625.83,-55.57 750,-35.33 829.65,-24.61"/>
<polygon fill="#63b8ff" stroke="#63b8ff" points="829.63,-28.14 839.08,-23.36 828.71,-21.21 829.63,-28.14"/>
</g>
<!-- Node8 -->
<g id="node8" class="node">
<title>Node8</title>
<g id="a_node8"><a xlink:href="a01929.html#ac356c6364fe0273d3303fb7a447f4ef6" target="_top" xlink:title=" ">
<polygon fill="white" stroke="#666666" points="645.5,-283 525.5,-283 525.5,-253 645.5,-253 645.5,-283"/>
<text text-anchor="start" x="533.5" y="-271" font-family="Helvetica,sans-Serif" font-size="10.00">nlohmann::detail::binary</text>
<text text-anchor="middle" x="585.5" y="-260" font-family="Helvetica,sans-Serif" font-size="10.00">_reader::get_number</text>
</a>
</g>
</g>
<!-- Node3&#45;&gt;Node8 -->
<g id="edge7" class="edge">
<title>Node3&#45;&gt;Node8</title>
<path fill="none" stroke="#63b8ff" d="M434.33,-151.4C464.4,-174.75 521.67,-219.21 556.13,-245.97"/>
<polygon fill="#63b8ff" stroke="#63b8ff" points="553.55,-248.4 563.6,-251.77 557.84,-242.87 553.55,-248.4"/>
</g>
<!-- Node9 -->
<g id="node9" class="node">
<title>Node9</title>
<g id="a_node9"><a xlink:href="a01929.html#a61a0bd8bbe7b560bd429fa990ba3ba1a" target="_top" xlink:title=" ">
<polygon fill="white" stroke="#666666" points="805,-194 685,-194 685,-164 805,-164 805,-194"/>
<text text-anchor="start" x="693" y="-182" font-family="Helvetica,sans-Serif" font-size="10.00">nlohmann::detail::binary</text>
<text text-anchor="middle" x="745" y="-171" font-family="Helvetica,sans-Serif" font-size="10.00">_reader::unexpect_eof</text>
</a>
</g>
</g>
<!-- Node3&#45;&gt;Node9 -->
<g id="edge16" class="edge">
<title>Node3&#45;&gt;Node9</title>
<path fill="none" stroke="#63b8ff" d="M457.96,-120.56C505.88,-105.96 584.72,-89.12 649,-110 676.82,-119.04 703.31,-139.63 721.21,-155.98"/>
<polygon fill="#63b8ff" stroke="#63b8ff" points="718.5,-158.23 728.18,-162.55 723.31,-153.14 718.5,-158.23"/>
</g>
<!-- Node10 -->
<g id="node10" class="node">
<title>Node10</title>
<g id="a_node10"><a xlink:href="a01929.html#a540919db22df36512f05a88945c13263" target="_top" xlink:title="create a string by reading characters from the input">
<polygon fill="white" stroke="#666666" points="645.5,-149 525.5,-149 525.5,-119 645.5,-119 645.5,-149"/>
<text text-anchor="start" x="533.5" y="-137" font-family="Helvetica,sans-Serif" font-size="10.00">nlohmann::detail::binary</text>
<text text-anchor="middle" x="585.5" y="-126" font-family="Helvetica,sans-Serif" font-size="10.00">_reader::get_string</text>
</a>
</g>
</g>
<!-- Node3&#45;&gt;Node10 -->
<g id="edge12" class="edge">
<title>Node3&#45;&gt;Node10</title>
<path fill="none" stroke="#63b8ff" d="M485.12,-135.17C494.59,-135.06 504.3,-134.94 513.77,-134.83"/>
<polygon fill="#63b8ff" stroke="#63b8ff" points="513.7,-138.33 523.66,-134.72 513.62,-131.33 513.7,-138.33"/>
</g>
<!-- Node11 -->
<g id="node11" class="node">
<title>Node11</title>
<g id="a_node11"><a xlink:href="a01929.html#a7d323283c60a0b89ee5eeadf5cb9a5ad" target="_top" xlink:title=" ">
<polygon fill="white" stroke="#666666" points="649,-197 522,-197 522,-167 649,-167 649,-197"/>
<text text-anchor="start" x="530" y="-185" font-family="Helvetica,sans-Serif" font-size="10.00">nlohmann::detail::binary</text>
<text text-anchor="middle" x="585.5" y="-174" font-family="Helvetica,sans-Serif" font-size="10.00">_reader::get_token_string</text>
</a>
</g>
</g>
<!-- Node3&#45;&gt;Node11 -->
<g id="edge15" class="edge">
<title>Node3&#45;&gt;Node11</title>
<path fill="none" stroke="#63b8ff" d="M471.58,-151.45C486.02,-155.35 501.66,-159.59 516.58,-163.62"/>
<polygon fill="#63b8ff" stroke="#63b8ff" points="515.25,-166.89 525.82,-166.12 517.08,-160.13 515.25,-166.89"/>
</g>
<!-- Node5 -->
<g id="node5" class="node">
<title>Node5</title>
<g id="a_node5"><a xlink:href="a01493.html#abf41a7e9178356314082284e6cfea278" target="_top" xlink:title=" ">
<polygon fill="white" stroke="#666666" points="1155,-218 1019,-218 1019,-188 1155,-188 1155,-218"/>
<text text-anchor="start" x="1027" y="-206" font-family="Helvetica,sans-Serif" font-size="10.00">nlohmann::detail::exception</text>
<text text-anchor="middle" x="1087" y="-195" font-family="Helvetica,sans-Serif" font-size="10.00">::name</text>
</a>
</g>
</g>
<!-- Node4&#45;&gt;Node5 -->
<g id="edge4" class="edge">
<title>Node4&#45;&gt;Node5</title>
<path fill="none" stroke="#63b8ff" d="M971.09,-187.06C982.81,-188.68 995.32,-190.42 1007.61,-192.12"/>
<polygon fill="#63b8ff" stroke="#63b8ff" points="1006.91,-195.56 1017.3,-193.47 1007.88,-188.63 1006.91,-195.56"/>
</g>
<!-- Node6 -->
<g id="node6" class="node">
<title>Node6</title>
<g id="a_node6"><a xlink:href="a01497.html#aefe74adeaa48781464ba2fd2ec63d221" target="_top" xlink:title=" ">
<polygon fill="white" stroke="#666666" points="1146,-170 1028,-170 1028,-140 1146,-140 1146,-170"/>
<text text-anchor="start" x="1036" y="-158" font-family="Helvetica,sans-Serif" font-size="10.00">nlohmann::detail::parse</text>
<text text-anchor="middle" x="1087" y="-147" font-family="Helvetica,sans-Serif" font-size="10.00">_error::position_string</text>
</a>
</g>
</g>
<!-- Node4&#45;&gt;Node6 -->
<g id="edge5" class="edge">
<title>Node4&#45;&gt;Node6</title>
<path fill="none" stroke="#63b8ff" d="M971.09,-170.94C985.64,-168.92 1001.39,-166.74 1016.44,-164.65"/>
<polygon fill="#63b8ff" stroke="#63b8ff" points="1016.85,-168.13 1026.27,-163.29 1015.89,-161.19 1016.85,-168.13"/>
</g>
<!-- Node8&#45;&gt;Node2 -->
<g id="edge8" class="edge">
<title>Node8&#45;&gt;Node2</title>
<path fill="none" stroke="#63b8ff" d="M637.2,-283.45C651.67,-287.86 667.6,-292.72 682.64,-297.3"/>
<polygon fill="#63b8ff" stroke="#63b8ff" points="681.36,-300.57 691.95,-300.14 683.4,-293.87 681.36,-300.57"/>
</g>
<!-- Node8&#45;&gt;Node9 -->
<g id="edge9" class="edge">
<title>Node8&#45;&gt;Node9</title>
<path fill="none" stroke="#63b8ff" d="M621.93,-252.52C630.88,-248.35 640.39,-243.69 649,-239 670.54,-227.27 693.83,-212.59 711.96,-200.69"/>
<polygon fill="#63b8ff" stroke="#63b8ff" points="713.79,-203.67 720.2,-195.23 709.93,-197.83 713.79,-203.67"/>
</g>
<!-- Node9&#45;&gt;Node4 -->
<g id="edge10" class="edge">
<title>Node9&#45;&gt;Node4</title>
<path fill="none" stroke="#63b8ff" d="M805.1,-179C816.81,-179 829.19,-179 841.21,-179"/>
<polygon fill="#63b8ff" stroke="#63b8ff" points="841.07,-182.5 851.07,-179 841.07,-175.5 841.07,-182.5"/>
</g>
<!-- Node9&#45;&gt;Node7 -->
<g id="edge11" class="edge">
<title>Node9&#45;&gt;Node7</title>
<path fill="none" stroke="#63b8ff" d="M761.52,-163.57C790.66,-134.61 853.68,-71.97 887.85,-38.01"/>
<polygon fill="#63b8ff" stroke="#63b8ff" points="890.18,-40.63 894.8,-31.1 885.24,-35.66 890.18,-40.63"/>
</g>
<!-- Node10&#45;&gt;Node2 -->
<g id="edge13" class="edge">
<title>Node10&#45;&gt;Node2</title>
<path fill="none" stroke="#63b8ff" d="M636.03,-149.35C640.66,-151.85 645.08,-154.71 649,-158 671.64,-176.99 711.04,-250.78 731.25,-290.44"/>
<polygon fill="#63b8ff" stroke="#63b8ff" points="728.09,-291.95 735.73,-299.3 734.34,-288.79 728.09,-291.95"/>
</g>
<!-- Node10&#45;&gt;Node9 -->
<g id="edge14" class="edge">
<title>Node10&#45;&gt;Node9</title>
<path fill="none" stroke="#63b8ff" d="M640.7,-149.49C653.02,-153.01 666.23,-156.78 678.95,-160.41"/>
<polygon fill="#63b8ff" stroke="#63b8ff" points="677.93,-163.76 688.51,-163.15 679.86,-157.03 677.93,-163.76"/>
</g>
<!-- Node12&#45;&gt;Node1 -->
<g id="edge28" class="edge">
<title>Node12&#45;&gt;Node1</title>
<path fill="none" stroke="#63b8ff" d="M180.64,-290.52C172.87,-290.68 164.82,-290.76 156.78,-290.75"/>
<polygon fill="#63b8ff" stroke="#63b8ff" points="156.98,-287.25 146.96,-290.69 156.94,-294.25 156.98,-287.25"/>
</g>
<!-- Node12&#45;&gt;Node2 -->
<g id="edge20" class="edge">
<title>Node12&#45;&gt;Node2</title>
<path fill="none" stroke="#63b8ff" d="M279.59,-304.96C297.41,-314.38 319.69,-324.58 341,-330 473.74,-363.75 513.09,-356.9 649,-340 659.65,-338.68 670.82,-336.55 681.61,-334.09"/>
<polygon fill="#63b8ff" stroke="#63b8ff" points="682.29,-337.52 691.2,-331.78 680.66,-330.72 682.29,-337.52"/>
</g>
<!-- Node12&#45;&gt;Node3 -->
<g id="edge29" class="edge">
<title>Node12&#45;&gt;Node3</title>
<path fill="none" stroke="#63b8ff" d="M260.86,-263.24C286.05,-232.38 331.57,-177.24 341,-170 347.52,-164.99 354.9,-160.47 362.37,-156.48"/>
<polygon fill="#63b8ff" stroke="#63b8ff" points="363.84,-159.66 371.21,-152.05 360.7,-153.4 363.84,-159.66"/>
</g>
<!-- Node12&#45;&gt;Node4 -->
<g id="edge18" class="edge">
<title>Node12&#45;&gt;Node4</title>
<path fill="none" stroke="#63b8ff" d="M252.05,-304.85C265.27,-335.77 294.82,-392.63 341,-416 398.5,-445.1 422,-423.52 486,-416 630.75,-398.99 685.64,-423.64 805,-340 853.97,-305.69 886.21,-240.85 901.23,-204.81"/>
<polygon fill="#63b8ff" stroke="#63b8ff" points="904.45,-206.18 904.93,-195.6 897.96,-203.57 904.45,-206.18"/>
</g>
<!-- Node12&#45;&gt;Node7 -->
<g id="edge19" class="edge">
<title>Node12&#45;&gt;Node7</title>
<path fill="none" stroke="#63b8ff" d="M250.15,-263.26C261.89,-227.24 290.87,-153.05 341,-112 481.69,3.22 708.69,3.94 829.4,-5.48"/>
<polygon fill="#63b8ff" stroke="#63b8ff" points="828.98,-8.96 839.24,-6.3 829.56,-1.98 828.98,-8.96"/>
</g>
<!-- Node12&#45;&gt;Node8 -->
<g id="edge30" class="edge">
<title>Node12&#45;&gt;Node8</title>
<path fill="none" stroke="#63b8ff" d="M305.27,-281.12C363.94,-278.36 452.4,-274.21 513.98,-271.31"/>
<polygon fill="#63b8ff" stroke="#63b8ff" points="513.81,-274.83 523.64,-270.86 513.49,-267.83 513.81,-274.83"/>
</g>
<!-- Node12&#45;&gt;Node9 -->
<g id="edge32" class="edge">
<title>Node12&#45;&gt;Node9</title>
<path fill="none" stroke="#63b8ff" d="M305.42,-273.88C385.08,-260.36 528.14,-234.76 649,-206 659.76,-203.44 671.13,-200.46 682.11,-197.42"/>
<polygon fill="#63b8ff" stroke="#63b8ff" points="682.8,-200.87 691.48,-194.8 680.91,-194.13 682.8,-200.87"/>
</g>
<!-- Node12&#45;&gt;Node11 -->
<g id="edge31" class="edge">
<title>Node12&#45;&gt;Node11</title>
<path fill="none" stroke="#63b8ff" d="M264.66,-263.22C283.03,-246.13 311.47,-222.86 341,-211 394.97,-189.33 460.68,-182.53 510.23,-180.9"/>
<polygon fill="#63b8ff" stroke="#63b8ff" points="510.08,-184.4 519.99,-180.65 509.9,-177.41 510.08,-184.4"/>
</g>
<!-- Node13 -->
<g id="node13" class="node">
<title>Node13</title>
<g id="a_node13"><a xlink:href="a01929.html#a0ce1d7066597952efb008aaf578b2bd6" target="_top" xlink:title=" ">
<polygon fill="white" stroke="#666666" points="483.5,-407 343.5,-407 343.5,-377 483.5,-377 483.5,-407"/>
<text text-anchor="start" x="351.5" y="-395" font-family="Helvetica,sans-Serif" font-size="10.00">nlohmann::detail::binary</text>
<text text-anchor="middle" x="413.5" y="-384" font-family="Helvetica,sans-Serif" font-size="10.00">_reader::get_msgpack_array</text>
</a>
</g>
</g>
<!-- Node12&#45;&gt;Node13 -->
<g id="edge21" class="edge">
<title>Node12&#45;&gt;Node13</title>
<path fill="none" stroke="#63b8ff" d="M274.13,-304.65C292.45,-319.78 316.89,-339.73 341,-354 352.68,-360.91 366.31,-366.9 378.53,-372.16"/>
<polygon fill="#63b8ff" stroke="#63b8ff" points="376.85,-375.25 387.42,-376.01 379.63,-368.82 376.85,-375.25"/>
</g>
<!-- Node14 -->
<g id="node14" class="node">
<title>Node14</title>
<g id="a_node14"><a xlink:href="a01929.html#a389e550fd397a48121cb82d92bb7475a" target="_top" xlink:title="reads a MessagePack byte array">
<polygon fill="white" stroke="#666666" points="486,-321 341,-321 341,-291 486,-291 486,-321"/>
<text text-anchor="start" x="349" y="-309" font-family="Helvetica,sans-Serif" font-size="10.00">nlohmann::detail::binary</text>
<text text-anchor="middle" x="413.5" y="-298" font-family="Helvetica,sans-Serif" font-size="10.00">_reader::get_msgpack_binary</text>
</a>
</g>
</g>
<!-- Node12&#45;&gt;Node14 -->
<g id="edge23" class="edge">
<title>Node12&#45;&gt;Node14</title>
<path fill="none" stroke="#63b8ff" d="M305.31,-292C313.11,-293.02 321.2,-294.08 329.27,-295.13"/>
<polygon fill="#63b8ff" stroke="#63b8ff" points="328.78,-298.6 339.15,-296.42 329.69,-291.66 328.78,-298.6"/>
</g>
<!-- Node13&#45;&gt;Node12 -->
<g id="edge22" class="edge">
<title>Node13&#45;&gt;Node12</title>
<path fill="none" stroke="#63b8ff" d="M349.22,-376.55C346.4,-375.09 343.65,-373.57 341,-372 313.45,-355.69 285.46,-331.97 266.68,-313.06"/>
<polygon fill="#63b8ff" stroke="#63b8ff" points="269.22,-310.65 259.77,-305.85 264.16,-315.49 269.22,-310.65"/>
</g>
<!-- Node14&#45;&gt;Node8 -->
<g id="edge27" class="edge">
<title>Node14&#45;&gt;Node8</title>
<path fill="none" stroke="#63b8ff" d="M483.65,-290.54C493.66,-288.3 503.99,-286 514.03,-283.75"/>
<polygon fill="#63b8ff" stroke="#63b8ff" points="514.75,-287.18 523.74,-281.58 513.22,-280.35 514.75,-287.18"/>
</g>
<!-- Node15 -->
<g id="node15" class="node">
<title>Node15</title>
<g id="a_node15"><a xlink:href="a01929.html#a55e13d567a53234573ab3833c0ca32e9" target="_top" xlink:title="create a byte array by reading bytes from the input">
<polygon fill="white" stroke="#666666" points="645.5,-331 525.5,-331 525.5,-301 645.5,-301 645.5,-331"/>
<text text-anchor="start" x="533.5" y="-319" font-family="Helvetica,sans-Serif" font-size="10.00">nlohmann::detail::binary</text>
<text text-anchor="middle" x="585.5" y="-308" font-family="Helvetica,sans-Serif" font-size="10.00">_reader::get_binary</text>
</a>
</g>
</g>
<!-- Node14&#45;&gt;Node15 -->
<g id="edge24" class="edge">
<title>Node14&#45;&gt;Node15</title>
<path fill="none" stroke="#63b8ff" d="M486.1,-310.21C495.23,-310.75 504.56,-311.3 513.67,-311.83"/>
<polygon fill="#63b8ff" stroke="#63b8ff" points="513.36,-315.32 523.55,-312.41 513.77,-308.33 513.36,-315.32"/>
</g>
<!-- Node15&#45;&gt;Node2 -->
<g id="edge25" class="edge">
<title>Node15&#45;&gt;Node2</title>
<path fill="none" stroke="#63b8ff" d="M645.6,-316C654.66,-316 664.09,-316 673.37,-316"/>
<polygon fill="#63b8ff" stroke="#63b8ff" points="673.06,-319.5 683.06,-316 673.06,-312.5 673.06,-319.5"/>
</g>
<!-- Node15&#45;&gt;Node9 -->
<g id="edge26" class="edge">
<title>Node15&#45;&gt;Node9</title>
<path fill="none" stroke="#63b8ff" d="M634.23,-300.63C639.42,-298.11 644.46,-295.24 649,-292 682.75,-267.94 711.77,-229.19 728.57,-203.9"/>
<polygon fill="#63b8ff" stroke="#63b8ff" points="731.47,-205.86 733.97,-195.56 725.6,-202.05 731.47,-205.86"/>
</g>
</g>
</svg>
