<?xml version="1.0" encoding="UTF-8" standalone="no"?>
<!DOCTYPE svg PUBLIC "-//W3C//DTD SVG 1.1//EN"
 "http://www.w3.org/Graphics/SVG/1.1/DTD/svg11.dtd">
<!-- Generated by graphviz version 4.0.0 (20220529.0937)
 -->
<!-- Title: nlohmann::detail::binary_reader::get_msgpack_binary Pages: 1 -->
<svg width="788pt" height="235pt"
 viewBox="0.00 0.00 788.00 235.00" xmlns="http://www.w3.org/2000/svg" xmlns:xlink="http://www.w3.org/1999/xlink">
<g id="graph0" class="graph" transform="scale(1 1) rotate(0) translate(4 231)">
<title>nlohmann::detail::binary_reader::get_msgpack_binary</title>
<polygon fill="white" stroke="transparent" points="-4,4 -4,-231 784,-231 784,4 -4,4"/>
<!-- Node1 -->
<g id="node1" class="node">
<title>Node1</title>
<g id="a_node1"><a xlink:title="reads a MessagePack byte array">
<polygon fill="#bfbfbf" stroke="black" points="635,-147.5 635,-177.5 780,-177.5 780,-147.5 635,-147.5"/>
<text text-anchor="start" x="643" y="-165.5" font-family="Helvetica,sans-Serif" font-size="10.00">nlohmann::detail::binary</text>
<text text-anchor="middle" x="707.5" y="-154.5" font-family="Helvetica,sans-Serif" font-size="10.00">_reader::get_msgpack_binary</text>
</a>
</g>
</g>
<!-- Node2 -->
<g id="node2" class="node">
<title>Node2</title>
<g id="a_node2"><a xlink:href="a01929.html#ae020385ce9424271d61f85d3842c02cb" target="_top" xlink:title=" ">
<polygon fill="white" stroke="black" points="475,-142 475,-183 599,-183 599,-142 475,-142"/>
<text text-anchor="start" x="483" y="-171" font-family="Helvetica,sans-Serif" font-size="10.00">nlohmann::detail::binary</text>
<text text-anchor="start" x="483" y="-160" font-family="Helvetica,sans-Serif" font-size="10.00">_reader::parse_msgpack</text>
<text text-anchor="middle" x="537" y="-149" font-family="Helvetica,sans-Serif" font-size="10.00">_internal</text>
</a>
</g>
</g>
<!-- Node1&#45;&gt;Node2 -->
<g id="edge1" class="edge">
<title>Node1&#45;&gt;Node2</title>
<path fill="none" stroke="midnightblue" d="M624.53,-162.5C615.97,-162.5 607.37,-162.5 599.1,-162.5"/>
<polygon fill="midnightblue" stroke="midnightblue" points="624.55,-166 634.55,-162.5 624.55,-159 624.55,-166"/>
</g>
<!-- Node3 -->
<g id="node3" class="node">
<title>Node3</title>
<g id="a_node3"><a xlink:href="a01929.html#a0ce1d7066597952efb008aaf578b2bd6" target="_top" xlink:title=" ">
<polygon fill="white" stroke="black" points="296.5,-196.5 296.5,-226.5 436.5,-226.5 436.5,-196.5 296.5,-196.5"/>
<text text-anchor="start" x="304.5" y="-214.5" font-family="Helvetica,sans-Serif" font-size="10.00">nlohmann::detail::binary</text>
<text text-anchor="middle" x="366.5" y="-203.5" font-family="Helvetica,sans-Serif" font-size="10.00">_reader::get_msgpack_array</text>
</a>
</g>
</g>
<!-- Node2&#45;&gt;Node3 -->
<g id="edge2" class="edge">
<title>Node2&#45;&gt;Node3</title>
<path fill="none" stroke="midnightblue" d="M464.89,-176.5C442.57,-182.74 418.99,-189.99 400.62,-196.37"/>
<polygon fill="midnightblue" stroke="midnightblue" points="465.98,-179.83 474.69,-173.81 464.12,-173.08 465.98,-179.83"/>
</g>
<!-- Node4 -->
<g id="node4" class="node">
<title>Node4</title>
<g id="a_node4"><a xlink:href="a01929.html#a8bebd21ceef09b6b2562e87861832700" target="_top" xlink:title=" ">
<polygon fill="white" stroke="black" points="294,-147.5 294,-177.5 439,-177.5 439,-147.5 294,-147.5"/>
<text text-anchor="start" x="302" y="-165.5" font-family="Helvetica,sans-Serif" font-size="10.00">nlohmann::detail::binary</text>
<text text-anchor="middle" x="366.5" y="-154.5" font-family="Helvetica,sans-Serif" font-size="10.00">_reader::get_msgpack_object</text>
</a>
</g>
</g>
<!-- Node2&#45;&gt;Node4 -->
<g id="edge4" class="edge">
<title>Node2&#45;&gt;Node4</title>
<path fill="none" stroke="midnightblue" d="M464.52,-155.82C456.09,-155.73 447.49,-155.73 439.06,-155.82"/>
<polygon fill="midnightblue" stroke="midnightblue" points="464.64,-159.32 474.69,-155.98 464.75,-152.32 464.64,-159.32"/>
</g>
<!-- Node5 -->
<g id="node5" class="node">
<title>Node5</title>
<g id="a_node5"><a xlink:href="a01929.html#ab4afd9ee276bbb15a0f898061aad94dd" target="_top" xlink:title=" ">
<polygon fill="white" stroke="black" points="306.5,-98.5 306.5,-128.5 426.5,-128.5 426.5,-98.5 306.5,-98.5"/>
<text text-anchor="start" x="314.5" y="-116.5" font-family="Helvetica,sans-Serif" font-size="10.00">nlohmann::detail::binary</text>
<text text-anchor="middle" x="366.5" y="-105.5" font-family="Helvetica,sans-Serif" font-size="10.00">_reader::sax_parse</text>
</a>
</g>
</g>
<!-- Node2&#45;&gt;Node5 -->
<g id="edge6" class="edge">
<title>Node2&#45;&gt;Node5</title>
<path fill="none" stroke="midnightblue" d="M464.77,-141.79C449.52,-137.35 433.69,-132.75 419.33,-128.57"/>
<polygon fill="midnightblue" stroke="midnightblue" points="464.11,-145.24 474.69,-144.67 466.07,-138.52 464.11,-145.24"/>
</g>
<!-- Node3&#45;&gt;Node2 -->
<g id="edge3" class="edge">
<title>Node3&#45;&gt;Node2</title>
<path fill="none" stroke="midnightblue" d="M446.69,-195.21C460.37,-191.29 474.23,-187.08 486.81,-183.01"/>
<polygon fill="midnightblue" stroke="midnightblue" points="445.46,-191.92 436.79,-198.01 447.36,-198.66 445.46,-191.92"/>
</g>
<!-- Node4&#45;&gt;Node2 -->
<g id="edge5" class="edge">
<title>Node4&#45;&gt;Node2</title>
<path fill="none" stroke="midnightblue" d="M449.12,-169.25C457.73,-169.27 466.37,-169.19 474.69,-169.02"/>
<polygon fill="midnightblue" stroke="midnightblue" points="449.08,-165.75 439.06,-169.18 449.04,-172.75 449.08,-165.75"/>
</g>
<!-- Node6 -->
<g id="node6" class="node">
<title>Node6</title>
<g id="a_node6"><a xlink:href="a01593.html#a4e02793f2691aa29ab7cb69fddafbf5c" target="_top" xlink:title="Create a JSON value from an input in BSON format.">
<polygon fill="white" stroke="black" points="147,-196.5 147,-226.5 258,-226.5 258,-196.5 147,-196.5"/>
<text text-anchor="start" x="155" y="-214.5" font-family="Helvetica,sans-Serif" font-size="10.00">nlohmann::basic_json</text>
<text text-anchor="middle" x="202.5" y="-203.5" font-family="Helvetica,sans-Serif" font-size="10.00">::from_bson</text>
</a>
</g>
</g>
<!-- Node5&#45;&gt;Node6 -->
<g id="edge7" class="edge">
<title>Node5&#45;&gt;Node6</title>
<path fill="none" stroke="midnightblue" d="M301.93,-133.31C299.17,-134.92 296.51,-136.64 294,-138.5 272.27,-154.57 279.08,-170.59 258,-187.5 253.81,-190.86 249.07,-193.85 244.18,-196.48"/>
<polygon fill="midnightblue" stroke="midnightblue" points="303.76,-136.3 311.02,-128.59 300.53,-130.09 303.76,-136.3"/>
</g>
<!-- Node8 -->
<g id="node8" class="node">
<title>Node8</title>
<g id="a_node8"><a xlink:href="a01593.html#a44dd5635fb2da4710f6cd6e42b72773f" target="_top" xlink:title="create a JSON value from an input in CBOR format">
<polygon fill="white" stroke="black" points="147,-147.5 147,-177.5 258,-177.5 258,-147.5 147,-147.5"/>
<text text-anchor="start" x="155" y="-165.5" font-family="Helvetica,sans-Serif" font-size="10.00">nlohmann::basic_json</text>
<text text-anchor="middle" x="202.5" y="-154.5" font-family="Helvetica,sans-Serif" font-size="10.00">::from_cbor</text>
</a>
</g>
</g>
<!-- Node5&#45;&gt;Node8 -->
<g id="edge9" class="edge">
<title>Node5&#45;&gt;Node8</title>
<path fill="none" stroke="midnightblue" d="M305.62,-131.61C288.39,-136.82 269.8,-142.45 253.26,-147.45"/>
<polygon fill="midnightblue" stroke="midnightblue" points="307.01,-134.85 315.57,-128.6 304.99,-128.15 307.01,-134.85"/>
</g>
<!-- Node10 -->
<g id="node10" class="node">
<title>Node10</title>
<g id="a_node10"><a xlink:href="a01593.html#adbcab52fca1e25b3311ef14e71a57590" target="_top" xlink:title="create a JSON value from an input in MessagePack format">
<polygon fill="white" stroke="black" points="147,-98.5 147,-128.5 258,-128.5 258,-98.5 147,-98.5"/>
<text text-anchor="start" x="155" y="-116.5" font-family="Helvetica,sans-Serif" font-size="10.00">nlohmann::basic_json</text>
<text text-anchor="middle" x="202.5" y="-105.5" font-family="Helvetica,sans-Serif" font-size="10.00">::from_msgpack</text>
</a>
</g>
</g>
<!-- Node5&#45;&gt;Node10 -->
<g id="edge11" class="edge">
<title>Node5&#45;&gt;Node10</title>
<path fill="none" stroke="midnightblue" d="M296.02,-113.5C283.33,-113.5 270.24,-113.5 258.06,-113.5"/>
<polygon fill="midnightblue" stroke="midnightblue" points="296.1,-117 306.1,-113.5 296.1,-110 296.1,-117"/>
</g>
<!-- Node12 -->
<g id="node12" class="node">
<title>Node12</title>
<g id="a_node12"><a xlink:href="a01593.html#aa81f62db69978b90ff701f05c72e03a7" target="_top" xlink:title="create a JSON value from an input in UBJSON format">
<polygon fill="white" stroke="black" points="147,-49.5 147,-79.5 258,-79.5 258,-49.5 147,-49.5"/>
<text text-anchor="start" x="155" y="-67.5" font-family="Helvetica,sans-Serif" font-size="10.00">nlohmann::basic_json</text>
<text text-anchor="middle" x="202.5" y="-56.5" font-family="Helvetica,sans-Serif" font-size="10.00">::from_ubjson</text>
</a>
</g>
</g>
<!-- Node5&#45;&gt;Node12 -->
<g id="edge13" class="edge">
<title>Node5&#45;&gt;Node12</title>
<path fill="none" stroke="midnightblue" d="M305.62,-95.39C288.39,-90.18 269.8,-84.55 253.26,-79.55"/>
<polygon fill="midnightblue" stroke="midnightblue" points="304.99,-98.85 315.57,-98.4 307.01,-92.15 304.99,-98.85"/>
</g>
<!-- Node14 -->
<g id="node14" class="node">
<title>Node14</title>
<g id="a_node14"><a xlink:href="a01593.html#a12b382c6407da5543827ce4b24bb5008" target="_top" xlink:title="generate SAX events">
<polygon fill="white" stroke="black" points="147,-0.5 147,-30.5 258,-30.5 258,-0.5 147,-0.5"/>
<text text-anchor="start" x="155" y="-18.5" font-family="Helvetica,sans-Serif" font-size="10.00">nlohmann::basic_json</text>
<text text-anchor="middle" x="202.5" y="-7.5" font-family="Helvetica,sans-Serif" font-size="10.00">::sax_parse</text>
</a>
</g>
</g>
<!-- Node5&#45;&gt;Node14 -->
<g id="edge15" class="edge">
<title>Node5&#45;&gt;Node14</title>
<path fill="none" stroke="midnightblue" d="M337.31,-92.45C316.09,-77.08 285.98,-56.27 258,-40.5 251.83,-37.02 245.1,-33.63 238.53,-30.52"/>
<polygon fill="midnightblue" stroke="midnightblue" points="335.4,-95.39 345.54,-98.46 339.53,-89.74 335.4,-95.39"/>
</g>
<!-- Node7 -->
<g id="node7" class="node">
<title>Node7</title>
<g id="a_node7"><a xlink:href="a01593.html#ae2612581e4788ddffc2f45d5e4cc04fc" target="_top" xlink:title=" ">
<polygon fill="white" stroke="black" points="0,-196.5 0,-226.5 111,-226.5 111,-196.5 0,-196.5"/>
<text text-anchor="start" x="8" y="-214.5" font-family="Helvetica,sans-Serif" font-size="10.00">nlohmann::basic_json</text>
<text text-anchor="middle" x="55.5" y="-203.5" font-family="Helvetica,sans-Serif" font-size="10.00">::from_bson</text>
</a>
</g>
</g>
<!-- Node6&#45;&gt;Node7 -->
<g id="edge8" class="edge">
<title>Node6&#45;&gt;Node7</title>
<path fill="none" stroke="midnightblue" d="M136.54,-211.5C128.14,-211.5 119.61,-211.5 111.4,-211.5"/>
<polygon fill="midnightblue" stroke="midnightblue" points="136.68,-215 146.68,-211.5 136.68,-208 136.68,-215"/>
</g>
<!-- Node9 -->
<g id="node9" class="node">
<title>Node9</title>
<g id="a_node9"><a xlink:href="a01593.html#a188755c8cda27e2afb03c016c14125d8" target="_top" xlink:title=" ">
<polygon fill="white" stroke="black" points="0,-147.5 0,-177.5 111,-177.5 111,-147.5 0,-147.5"/>
<text text-anchor="start" x="8" y="-165.5" font-family="Helvetica,sans-Serif" font-size="10.00">nlohmann::basic_json</text>
<text text-anchor="middle" x="55.5" y="-154.5" font-family="Helvetica,sans-Serif" font-size="10.00">::from_cbor</text>
</a>
</g>
</g>
<!-- Node8&#45;&gt;Node9 -->
<g id="edge10" class="edge">
<title>Node8&#45;&gt;Node9</title>
<path fill="none" stroke="midnightblue" d="M136.54,-162.5C128.14,-162.5 119.61,-162.5 111.4,-162.5"/>
<polygon fill="midnightblue" stroke="midnightblue" points="136.68,-166 146.68,-162.5 136.68,-159 136.68,-166"/>
</g>
<!-- Node11 -->
<g id="node11" class="node">
<title>Node11</title>
<g id="a_node11"><a xlink:href="a01593.html#a0d69d3102639759d5202a6f764760d23" target="_top" xlink:title=" ">
<polygon fill="white" stroke="black" points="0,-98.5 0,-128.5 111,-128.5 111,-98.5 0,-98.5"/>
<text text-anchor="start" x="8" y="-116.5" font-family="Helvetica,sans-Serif" font-size="10.00">nlohmann::basic_json</text>
<text text-anchor="middle" x="55.5" y="-105.5" font-family="Helvetica,sans-Serif" font-size="10.00">::from_msgpack</text>
</a>
</g>
</g>
<!-- Node10&#45;&gt;Node11 -->
<g id="edge12" class="edge">
<title>Node10&#45;&gt;Node11</title>
<path fill="none" stroke="midnightblue" d="M136.54,-113.5C128.14,-113.5 119.61,-113.5 111.4,-113.5"/>
<polygon fill="midnightblue" stroke="midnightblue" points="136.68,-117 146.68,-113.5 136.68,-110 136.68,-117"/>
</g>
<!-- Node13 -->
<g id="node13" class="node">
<title>Node13</title>
<g id="a_node13"><a xlink:href="a01593.html#ab6eeda23c34cee79d8d72f1a8691a8de" target="_top" xlink:title=" ">
<polygon fill="white" stroke="black" points="0,-49.5 0,-79.5 111,-79.5 111,-49.5 0,-49.5"/>
<text text-anchor="start" x="8" y="-67.5" font-family="Helvetica,sans-Serif" font-size="10.00">nlohmann::basic_json</text>
<text text-anchor="middle" x="55.5" y="-56.5" font-family="Helvetica,sans-Serif" font-size="10.00">::from_ubjson</text>
</a>
</g>
</g>
<!-- Node12&#45;&gt;Node13 -->
<g id="edge14" class="edge">
<title>Node12&#45;&gt;Node13</title>
<path fill="none" stroke="midnightblue" d="M136.54,-64.5C128.14,-64.5 119.61,-64.5 111.4,-64.5"/>
<polygon fill="midnightblue" stroke="midnightblue" points="136.68,-68 146.68,-64.5 136.68,-61 136.68,-68"/>
</g>
</g>
</svg>
