<?xml version="1.0" encoding="UTF-8" standalone="no"?>
<!DOCTYPE svg PUBLIC "-//W3C//DTD SVG 1.1//EN"
 "http://www.w3.org/Graphics/SVG/1.1/DTD/svg11.dtd">
<!-- Generated by graphviz version 5.0.0 (20220707.1540)
 -->
<!-- Title: nlohmann::detail::binary_reader::get_bson_string Pages: 1 -->
<svg width="939pt" height="255pt"
 viewBox="0.00 0.00 939.00 254.66" xmlns="http://www.w3.org/2000/svg" xmlns:xlink="http://www.w3.org/1999/xlink">
<g id="graph0" class="graph" transform="scale(1 1) rotate(0) translate(4 250.66)">
<title>nlohmann::detail::binary_reader::get_bson_string</title>
<polygon fill="white" stroke="transparent" points="-4,4 -4,-250.66 935,-250.66 935,4 -4,4"/>
<!-- Node1 -->
<g id="node1" class="node">
<title>Node1</title>
<g id="a_node1"><a xlink:title="Parses a zero&#45;terminated string of length len from the BSON input.">
<polygon fill="#bfbfbf" stroke="black" points="0,-110.5 0,-140.5 124,-140.5 124,-110.5 0,-110.5"/>
<text text-anchor="start" x="8" y="-128.5" font-family="Helvetica,sans-Serif" font-size="10.00">nlohmann::detail::binary</text>
<text text-anchor="middle" x="62" y="-117.5" font-family="Helvetica,sans-Serif" font-size="10.00">_reader::get_bson_string</text>
</a>
</g>
</g>
<!-- Node2 -->
<g id="node2" class="node">
<title>Node2</title>
<g id="a_node2"><a xlink:href="a01497.html#a137ea4d27de45d8a844fd13451d40f3d" target="_top" xlink:title="create a parse error exception">
<polygon fill="white" stroke="black" points="491,-137.5 491,-167.5 609,-167.5 609,-137.5 491,-137.5"/>
<text text-anchor="start" x="499" y="-155.5" font-family="Helvetica,sans-Serif" font-size="10.00">nlohmann::detail::parse</text>
<text text-anchor="middle" x="550" y="-144.5" font-family="Helvetica,sans-Serif" font-size="10.00">_error::create</text>
</a>
</g>
</g>
<!-- Node1&#45;&gt;Node2 -->
<g id="edge1" class="edge">
<title>Node1&#45;&gt;Node2</title>
<path fill="none" stroke="midnightblue" d="M87.03,-140.69C106.03,-151.81 133.65,-166.03 160,-172.5 282.16,-202.52 318.05,-192.04 443,-177.5 457.05,-175.87 471.95,-173.05 486,-169.88"/>
<polygon fill="midnightblue" stroke="midnightblue" points="487.11,-173.22 496.05,-167.53 485.51,-166.4 487.11,-173.22"/>
</g>
<!-- Node5 -->
<g id="node5" class="node">
<title>Node5</title>
<g id="a_node5"><a xlink:href="a00410.html#a6ce645a0b8717757e096a5b5773b7a16" target="_top" xlink:title="user&#45;defined to_string function for JSON values">
<polygon fill="white" stroke="black" points="829,-138 829,-157 931,-157 931,-138 829,-138"/>
<text text-anchor="middle" x="880" y="-145" font-family="Helvetica,sans-Serif" font-size="10.00">nlohmann::to_string</text>
</a>
</g>
</g>
<!-- Node1&#45;&gt;Node5 -->
<g id="edge15" class="edge">
<title>Node1&#45;&gt;Node5</title>
<path fill="none" stroke="midnightblue" d="M79.16,-140.54C97.39,-156.65 128.61,-181.76 160,-195.5 252.23,-235.86 281.33,-240.5 382,-240.5 382,-240.5 382,-240.5 551,-240.5 658.89,-240.5 693.4,-262.96 793,-221.5 822.54,-209.21 849.21,-182.72 864.77,-165.01"/>
<polygon fill="midnightblue" stroke="midnightblue" points="867.67,-167 871.47,-157.11 862.33,-162.47 867.67,-167"/>
</g>
<!-- Node7 -->
<g id="node7" class="node">
<title>Node7</title>
<g id="a_node7"><a xlink:href="a01929.html#a9c413c9a1bade1ce345740f4d69156f0" target="_top" xlink:title=" ">
<polygon fill="white" stroke="black" points="479,-66.5 479,-96.5 621,-96.5 621,-66.5 479,-66.5"/>
<text text-anchor="start" x="487" y="-84.5" font-family="Helvetica,sans-Serif" font-size="10.00">nlohmann::detail::binary</text>
<text text-anchor="middle" x="550" y="-73.5" font-family="Helvetica,sans-Serif" font-size="10.00">_reader::exception_message</text>
</a>
</g>
</g>
<!-- Node1&#45;&gt;Node7 -->
<g id="edge7" class="edge">
<title>Node1&#45;&gt;Node7</title>
<path fill="none" stroke="midnightblue" d="M124.05,-114.1C135.97,-111.89 148.37,-109.61 160,-107.5 232.4,-94.34 249.7,-84.97 323,-78.5 376.13,-73.81 389.67,-77.75 443,-78.5 451.34,-78.62 460.04,-78.79 468.72,-78.99"/>
<polygon fill="midnightblue" stroke="midnightblue" points="468.79,-82.49 478.87,-79.24 468.96,-75.49 468.79,-82.49"/>
</g>
<!-- Node8 -->
<g id="node8" class="node">
<title>Node8</title>
<g id="a_node8"><a xlink:href="a01929.html#ad222095c0b21a87824cb10629299629a" target="_top" xlink:title="get next character from the input">
<polygon fill="white" stroke="black" points="323,-88.5 323,-118.5 443,-118.5 443,-88.5 323,-88.5"/>
<text text-anchor="start" x="331" y="-106.5" font-family="Helvetica,sans-Serif" font-size="10.00">nlohmann::detail::binary</text>
<text text-anchor="middle" x="383" y="-95.5" font-family="Helvetica,sans-Serif" font-size="10.00">_reader::get</text>
</a>
</g>
</g>
<!-- Node1&#45;&gt;Node8 -->
<g id="edge8" class="edge">
<title>Node1&#45;&gt;Node8</title>
<path fill="none" stroke="midnightblue" d="M124.13,-121.28C178.03,-117.57 256.53,-112.15 312.74,-108.28"/>
<polygon fill="midnightblue" stroke="midnightblue" points="313.23,-111.75 322.96,-107.57 312.75,-104.77 313.23,-111.75"/>
</g>
<!-- Node9 -->
<g id="node9" class="node">
<title>Node9</title>
<g id="a_node9"><a xlink:href="a01929.html#a540919db22df36512f05a88945c13263" target="_top" xlink:title="create a string by reading characters from the input">
<polygon fill="white" stroke="black" points="163.5,-132.5 163.5,-162.5 283.5,-162.5 283.5,-132.5 163.5,-132.5"/>
<text text-anchor="start" x="171.5" y="-150.5" font-family="Helvetica,sans-Serif" font-size="10.00">nlohmann::detail::binary</text>
<text text-anchor="middle" x="223.5" y="-139.5" font-family="Helvetica,sans-Serif" font-size="10.00">_reader::get_string</text>
</a>
</g>
</g>
<!-- Node1&#45;&gt;Node9 -->
<g id="edge9" class="edge">
<title>Node1&#45;&gt;Node9</title>
<path fill="none" stroke="midnightblue" d="M124.21,-133.94C133.73,-135.26 143.62,-136.62 153.3,-137.96"/>
<polygon fill="midnightblue" stroke="midnightblue" points="152.91,-141.43 163.29,-139.33 153.86,-134.5 152.91,-141.43"/>
</g>
<!-- Node11 -->
<g id="node11" class="node">
<title>Node11</title>
<g id="a_node11"><a xlink:href="a01929.html#a7d323283c60a0b89ee5eeadf5cb9a5ad" target="_top" xlink:title=" ">
<polygon fill="white" stroke="black" points="160,-0.5 160,-30.5 287,-30.5 287,-0.5 160,-0.5"/>
<text text-anchor="start" x="168" y="-18.5" font-family="Helvetica,sans-Serif" font-size="10.00">nlohmann::detail::binary</text>
<text text-anchor="middle" x="223.5" y="-7.5" font-family="Helvetica,sans-Serif" font-size="10.00">_reader::get_token_string</text>
</a>
</g>
</g>
<!-- Node1&#45;&gt;Node11 -->
<g id="edge14" class="edge">
<title>Node1&#45;&gt;Node11</title>
<path fill="none" stroke="midnightblue" d="M78.88,-110.33C97.36,-93.19 129.28,-65.13 160,-45.5 165.72,-41.84 171.96,-38.34 178.21,-35.1"/>
<polygon fill="midnightblue" stroke="midnightblue" points="179.93,-38.16 187.31,-30.56 176.8,-31.89 179.93,-38.16"/>
</g>
<!-- Node3 -->
<g id="node3" class="node">
<title>Node3</title>
<g id="a_node3"><a xlink:href="a01497.html#a0ea816ea3521d7109407948cb1b850f7" target="_top" xlink:title=" ">
<polygon fill="white" stroke="black" points="666,-181.5 666,-211.5 784,-211.5 784,-181.5 666,-181.5"/>
<text text-anchor="start" x="674" y="-199.5" font-family="Helvetica,sans-Serif" font-size="10.00">nlohmann::detail::parse</text>
<text text-anchor="middle" x="725" y="-188.5" font-family="Helvetica,sans-Serif" font-size="10.00">_error::parse_error</text>
</a>
</g>
</g>
<!-- Node2&#45;&gt;Node3 -->
<g id="edge2" class="edge">
<title>Node2&#45;&gt;Node3</title>
<path fill="none" stroke="midnightblue" d="M609.09,-167.27C624.06,-171.08 640.32,-175.22 655.76,-179.14"/>
<polygon fill="midnightblue" stroke="midnightblue" points="655.22,-182.62 665.77,-181.69 656.94,-175.83 655.22,-182.62"/>
</g>
<!-- Node4 -->
<g id="node4" class="node">
<title>Node4</title>
<g id="a_node4"><a xlink:href="a01493.html#abf41a7e9178356314082284e6cfea278" target="_top" xlink:title=" ">
<polygon fill="white" stroke="black" points="657,-83.5 657,-113.5 793,-113.5 793,-83.5 657,-83.5"/>
<text text-anchor="start" x="665" y="-101.5" font-family="Helvetica,sans-Serif" font-size="10.00">nlohmann::detail::exception</text>
<text text-anchor="middle" x="725" y="-90.5" font-family="Helvetica,sans-Serif" font-size="10.00">::name</text>
</a>
</g>
</g>
<!-- Node2&#45;&gt;Node4 -->
<g id="edge3" class="edge">
<title>Node2&#45;&gt;Node4</title>
<path fill="none" stroke="midnightblue" d="M599.19,-137.46C619.91,-130.99 644.31,-123.37 666.01,-116.6"/>
<polygon fill="midnightblue" stroke="midnightblue" points="667.27,-119.88 675.77,-113.55 665.18,-113.19 667.27,-119.88"/>
</g>
<!-- Node6 -->
<g id="node6" class="node">
<title>Node6</title>
<g id="a_node6"><a xlink:href="a01497.html#aefe74adeaa48781464ba2fd2ec63d221" target="_top" xlink:title=" ">
<polygon fill="white" stroke="black" points="666,-132.5 666,-162.5 784,-162.5 784,-132.5 666,-132.5"/>
<text text-anchor="start" x="674" y="-150.5" font-family="Helvetica,sans-Serif" font-size="10.00">nlohmann::detail::parse</text>
<text text-anchor="middle" x="725" y="-139.5" font-family="Helvetica,sans-Serif" font-size="10.00">_error::position_string</text>
</a>
</g>
</g>
<!-- Node2&#45;&gt;Node6 -->
<g id="edge5" class="edge">
<title>Node2&#45;&gt;Node6</title>
<path fill="none" stroke="midnightblue" d="M609.09,-150.82C624.06,-150.39 640.32,-149.92 655.76,-149.47"/>
<polygon fill="midnightblue" stroke="midnightblue" points="655.88,-152.97 665.77,-149.18 655.67,-145.97 655.88,-152.97"/>
</g>
<!-- Node4&#45;&gt;Node5 -->
<g id="edge4" class="edge">
<title>Node4&#45;&gt;Node5</title>
<path fill="none" stroke="midnightblue" d="M773.15,-113.6C794.43,-120.42 819.28,-128.37 839.55,-134.87"/>
<polygon fill="midnightblue" stroke="midnightblue" points="838.51,-138.21 849.1,-137.92 840.65,-131.54 838.51,-138.21"/>
</g>
<!-- Node6&#45;&gt;Node5 -->
<g id="edge6" class="edge">
<title>Node6&#45;&gt;Node5</title>
<path fill="none" stroke="midnightblue" d="M784.28,-147.5C795.53,-147.5 807.34,-147.5 818.65,-147.5"/>
<polygon fill="midnightblue" stroke="midnightblue" points="818.87,-151 828.87,-147.5 818.87,-144 818.87,-151"/>
</g>
<!-- Node9&#45;&gt;Node8 -->
<g id="edge10" class="edge">
<title>Node9&#45;&gt;Node8</title>
<path fill="none" stroke="midnightblue" d="M278.26,-132.48C291.12,-128.89 304.96,-125.02 318.22,-121.32"/>
<polygon fill="midnightblue" stroke="midnightblue" points="319.52,-124.59 328.21,-118.53 317.64,-117.85 319.52,-124.59"/>
</g>
<!-- Node10 -->
<g id="node10" class="node">
<title>Node10</title>
<g id="a_node10"><a xlink:href="a01929.html#a61a0bd8bbe7b560bd429fa990ba3ba1a" target="_top" xlink:title=" ">
<polygon fill="white" stroke="black" points="323,-137.5 323,-167.5 443,-167.5 443,-137.5 323,-137.5"/>
<text text-anchor="start" x="331" y="-155.5" font-family="Helvetica,sans-Serif" font-size="10.00">nlohmann::detail::binary</text>
<text text-anchor="middle" x="383" y="-144.5" font-family="Helvetica,sans-Serif" font-size="10.00">_reader::unexpect_eof</text>
</a>
</g>
</g>
<!-- Node9&#45;&gt;Node10 -->
<g id="edge11" class="edge">
<title>Node9&#45;&gt;Node10</title>
<path fill="none" stroke="midnightblue" d="M283.6,-149.38C293.12,-149.68 303.05,-149.99 312.79,-150.3"/>
<polygon fill="midnightblue" stroke="midnightblue" points="312.73,-153.8 322.84,-150.62 312.95,-146.81 312.73,-153.8"/>
</g>
<!-- Node10&#45;&gt;Node2 -->
<g id="edge12" class="edge">
<title>Node10&#45;&gt;Node2</title>
<path fill="none" stroke="midnightblue" d="M443.1,-152.5C455.24,-152.5 468.11,-152.5 480.55,-152.5"/>
<polygon fill="midnightblue" stroke="midnightblue" points="480.86,-156 490.86,-152.5 480.86,-149 480.86,-156"/>
</g>
<!-- Node10&#45;&gt;Node7 -->
<g id="edge13" class="edge">
<title>Node10&#45;&gt;Node7</title>
<path fill="none" stroke="midnightblue" d="M419.59,-137.48C427.31,-134.2 435.43,-130.74 443,-127.5 463.35,-118.77 485.85,-109.02 504.87,-100.75"/>
<polygon fill="midnightblue" stroke="midnightblue" points="506.41,-103.9 514.18,-96.7 503.62,-97.48 506.41,-103.9"/>
</g>
</g>
</svg>
