<?xml version="1.0" encoding="UTF-8" standalone="no"?>
<!DOCTYPE svg PUBLIC "-//W3C//DTD SVG 1.1//EN"
 "http://www.w3.org/Graphics/SVG/1.1/DTD/svg11.dtd">
<!-- Generated by graphviz version 8.0.5 (20230430.1635)
 -->
<!-- Title: nlohmann::detail::serializer::dump_float Pages: 1 -->
<svg width="455pt" height="58pt"
 viewBox="0.00 0.00 455.00 58.00" xmlns="http://www.w3.org/2000/svg" xmlns:xlink="http://www.w3.org/1999/xlink">
<g id="graph0" class="graph" transform="scale(1 1) rotate(0) translate(4 54)">
<title>nlohmann::detail::serializer::dump_float</title>
<!-- Node1 -->
<g id="node1" class="node">
<title>Node1</title>
<g id="a_node1"><a xlink:title="dump a floating&#45;point number">
<polygon fill="#999999" stroke="#666666" points="447,-32 314.75,-32 314.75,0 447,0 447,-32"/>
<text text-anchor="start" x="322.75" y="-18.5" font-family="Helvetica,sans-Serif" font-size="10.00">nlohmann::detail::serializer</text>
<text text-anchor="middle" x="380.88" y="-6.5" font-family="Helvetica,sans-Serif" font-size="10.00">::dump_float</text>
</a>
</g>
</g>
<!-- Node1&#45;&gt;Node1 -->
<g id="edge4" class="edge">
<title>Node1&#45;&gt;Node1</title>
<path fill="none" stroke="#63b8ff" d="M409.67,-43.05C405.29,-47.19 395.69,-50 380.88,-50 355.24,-50 345.23,-41.58 350.84,-32.44"/>
<polygon fill="#63b8ff" stroke="#63b8ff" points="413.22,-43.78 410.91,-33.44 406.27,-42.97 413.22,-43.78"/>
</g>
<!-- Node2 -->
<g id="node2" class="node">
<title>Node2</title>
<g id="a_node2"><a xlink:href="a01989.html#a95460ebd1a535a543e5a0ec52e00f48b" target="_top" xlink:title="internal implementation of the serialization function">
<polygon fill="white" stroke="#666666" points="278.75,-32 146.5,-32 146.5,0 278.75,0 278.75,-32"/>
<text text-anchor="start" x="154.5" y="-18.5" font-family="Helvetica,sans-Serif" font-size="10.00">nlohmann::detail::serializer</text>
<text text-anchor="middle" x="212.63" y="-6.5" font-family="Helvetica,sans-Serif" font-size="10.00">::dump</text>
</a>
</g>
</g>
<!-- Node1&#45;&gt;Node2 -->
<g id="edge1" class="edge">
<title>Node1&#45;&gt;Node2</title>
<path fill="none" stroke="#63b8ff" d="M303.89,-16C295.65,-16 287.32,-16 279.21,-16"/>
<polygon fill="#63b8ff" stroke="#63b8ff" points="303.65,-19.5 313.65,-16 303.65,-12.5 303.65,-19.5"/>
</g>
<!-- Node2&#45;&gt;Node2 -->
<g id="edge2" class="edge">
<title>Node2&#45;&gt;Node2</title>
<path fill="none" stroke="#63b8ff" d="M239.56,-43.05C235.46,-47.19 226.49,-50 212.63,-50 188.65,-50 179.28,-41.58 184.53,-32.44"/>
<polygon fill="#63b8ff" stroke="#63b8ff" points="243.11,-43.76 240.72,-33.44 236.15,-43 243.11,-43.76"/>
</g>
<!-- Node3 -->
<g id="node3" class="node">
<title>Node3</title>
<g id="a_node3"><a xlink:href="a01593.html#a476756fb08e7f2416aad116d137977f4" target="_top" xlink:title="serialization">
<polygon fill="white" stroke="#666666" points="110.5,-32 0,-32 0,0 110.5,0 110.5,-32"/>
<text text-anchor="start" x="8" y="-18.5" font-family="Helvetica,sans-Serif" font-size="10.00">nlohmann::basic_json</text>
<text text-anchor="middle" x="55.25" y="-6.5" font-family="Helvetica,sans-Serif" font-size="10.00">::dump</text>
</a>
</g>
</g>
<!-- Node2&#45;&gt;Node3 -->
<g id="edge3" class="edge">
<title>Node2&#45;&gt;Node3</title>
<path fill="none" stroke="#63b8ff" d="M135.34,-16C127.06,-16 118.76,-16 110.82,-16"/>
<polygon fill="#63b8ff" stroke="#63b8ff" points="135.18,-19.5 145.18,-16 135.18,-12.5 135.18,-19.5"/>
</g>
</g>
</svg>
