<?xml version="1.0" encoding="UTF-8" standalone="no"?>
<!DOCTYPE svg PUBLIC "-//W3C//DTD SVG 1.1//EN"
 "http://www.w3.org/Graphics/SVG/1.1/DTD/svg11.dtd">
<!-- Generated by graphviz version 7.0.2 (20221119.0110)
 -->
<!-- Title: nlohmann::detail::serializer&lt; BasicJsonType &gt; Pages: 1 -->
<svg width="488pt" height="320pt"
 viewBox="0.00 0.00 488.00 319.50" xmlns="http://www.w3.org/2000/svg" xmlns:xlink="http://www.w3.org/1999/xlink">
<g id="graph0" class="graph" transform="scale(1 1) rotate(0) translate(4 315.5)">
<title>nlohmann::detail::serializer&lt; BasicJsonType &gt;</title>
<!-- Node1 -->
<g id="node1" class="node">
<title>Node1</title>
<g id="a_node1"><a xlink:title=" ">
<polygon fill="#999999" stroke="#666666" points="480,-154.5 347,-154.5 347,-124.5 480,-124.5 480,-154.5"/>
<text text-anchor="start" x="355" y="-142.5" font-family="Helvetica,sans-Serif" font-size="10.00">nlohmann::detail::serializer</text>
<text text-anchor="middle" x="413.5" y="-131.5" font-family="Helvetica,sans-Serif" font-size="10.00">&lt; BasicJsonType &gt;</text>
</a>
</g>
</g>
<!-- Node2 -->
<g id="node2" class="node">
<title>Node2</title>
<g id="a_node2"><a xlink:title=" ">
<polygon fill="white" stroke="#666666" points="200,-311 154,-311 154,-292 200,-292 200,-311"/>
<text text-anchor="middle" x="177" y="-299" font-family="Helvetica,sans-Serif" font-size="10.00">uint8_t</text>
</a>
</g>
</g>
<!-- Node2&#45;&gt;Node1 -->
<g id="edge1" class="edge">
<title>Node2&#45;&gt;Node1</title>
<path fill="none" stroke="#9a32cd" stroke-dasharray="5,2" d="M211.44,-299.05C244.05,-295.22 293.75,-285.45 329,-260.5 368.17,-232.78 394.84,-180.52 406.25,-154.71"/>
<polygon fill="#9a32cd" stroke="#9a32cd" points="211.35,-295.54 201.76,-300.05 212.07,-302.5 211.35,-295.54"/>
<text text-anchor="middle" x="293.5" y="-303.5" font-family="Helvetica,sans-Serif" font-size="10.00"> UTF8_ACCEPT</text>
<text text-anchor="middle" x="293.5" y="-292.5" font-family="Helvetica,sans-Serif" font-size="10.00">UTF8_REJECT</text>
</g>
<!-- Node3 -->
<g id="node3" class="node">
<title>Node3</title>
<g id="a_node3"><a xlink:title=" ">
<polygon fill="white" stroke="#666666" points="240,-274 114,-274 114,-255 240,-255 240,-274"/>
<text text-anchor="middle" x="177" y="-262" font-family="Helvetica,sans-Serif" font-size="10.00">output_adapter_t&lt; char &gt;</text>
</a>
</g>
</g>
<!-- Node3&#45;&gt;Node1 -->
<g id="edge2" class="edge">
<title>Node3&#45;&gt;Node1</title>
<path fill="none" stroke="#9a32cd" stroke-dasharray="5,2" d="M240.62,-251.74C268.85,-244.33 301.86,-233.27 329,-217.5 357.81,-200.75 384.77,-172.39 399.9,-154.88"/>
<polygon fill="#9a32cd" stroke="#9a32cd" points="239.97,-248.3 231.12,-254.13 241.68,-255.09 239.97,-248.3"/>
<text text-anchor="middle" x="293.5" y="-248.5" font-family="Helvetica,sans-Serif" font-size="10.00"> o</text>
</g>
<!-- Node4 -->
<g id="node4" class="node">
<title>Node4</title>
<g id="a_node4"><a xlink:title=" ">
<polygon fill="white" stroke="#666666" points="232.5,-167 121.5,-167 121.5,-148 232.5,-148 232.5,-167"/>
<text text-anchor="middle" x="177" y="-155" font-family="Helvetica,sans-Serif" font-size="10.00">std::array&lt; char, 64 &gt;</text>
</a>
</g>
</g>
<!-- Node4&#45;&gt;Node1 -->
<g id="edge3" class="edge">
<title>Node4&#45;&gt;Node1</title>
<path fill="none" stroke="#9a32cd" stroke-dasharray="5,2" d="M244.46,-152.4C276.45,-149.94 314.69,-147.01 346.6,-144.56"/>
<polygon fill="#9a32cd" stroke="#9a32cd" points="244.19,-148.91 234.49,-153.16 244.73,-155.89 244.19,-148.91"/>
<text text-anchor="middle" x="293.5" y="-153.5" font-family="Helvetica,sans-Serif" font-size="10.00"> number_buffer</text>
</g>
<!-- Node5 -->
<g id="node5" class="node">
<title>Node5</title>
<g id="a_node5"><a xlink:title=" ">
<polygon fill="white" stroke="#666666" points="35,-167 0,-167 0,-148 35,-148 35,-167"/>
<text text-anchor="middle" x="17.5" y="-155" font-family="Helvetica,sans-Serif" font-size="10.00">char</text>
</a>
</g>
</g>
<!-- Node5&#45;&gt;Node1 -->
<g id="edge6" class="edge">
<title>Node5&#45;&gt;Node1</title>
<path fill="none" stroke="#9a32cd" stroke-dasharray="5,2" d="M45.94,-170.42C48.3,-171.22 50.67,-171.94 53,-172.5 79.4,-178.9 86.85,-175.61 114,-176.5 209.63,-179.63 235.47,-185.67 329,-165.5 341.91,-162.72 355.69,-158.82 368.26,-154.89"/>
<polygon fill="#9a32cd" stroke="#9a32cd" points="47.29,-167.19 36.7,-166.74 44.7,-173.69 47.29,-167.19"/>
<text text-anchor="middle" x="177" y="-204.5" font-family="Helvetica,sans-Serif" font-size="10.00"> decimal_point</text>
<text text-anchor="middle" x="177" y="-193.5" font-family="Helvetica,sans-Serif" font-size="10.00">indent_char</text>
<text text-anchor="middle" x="177" y="-182.5" font-family="Helvetica,sans-Serif" font-size="10.00">thousands_sep</text>
</g>
<!-- Node5&#45;&gt;Node4 -->
<g id="edge4" class="edge">
<title>Node5&#45;&gt;Node4</title>
<path fill="none" stroke="#9a32cd" stroke-dasharray="5,2" d="M46.8,-157.5C67.48,-157.5 96.17,-157.5 121.27,-157.5"/>
<polygon fill="#9a32cd" stroke="#9a32cd" points="46.87,-154 36.87,-157.5 46.87,-161 46.87,-154"/>
<text text-anchor="middle" x="74.5" y="-160.5" font-family="Helvetica,sans-Serif" font-size="10.00"> elements</text>
</g>
<!-- Node7 -->
<g id="node7" class="node">
<title>Node7</title>
<g id="a_node7"><a xlink:title=" ">
<polygon fill="white" stroke="#666666" points="235,-130 119,-130 119,-111 235,-111 235,-130"/>
<text text-anchor="middle" x="177" y="-118" font-family="Helvetica,sans-Serif" font-size="10.00">std::array&lt; char, 512 &gt;</text>
</a>
</g>
</g>
<!-- Node5&#45;&gt;Node7 -->
<g id="edge8" class="edge">
<title>Node5&#45;&gt;Node7</title>
<path fill="none" stroke="#9a32cd" stroke-dasharray="5,2" d="M46.02,-144.86C48.36,-144 50.7,-143.19 53,-142.5 74.08,-136.13 97.78,-131.35 118.7,-127.91"/>
<polygon fill="#9a32cd" stroke="#9a32cd" points="44.73,-141.61 36.8,-148.64 47.38,-148.09 44.73,-141.61"/>
<text text-anchor="middle" x="74.5" y="-145.5" font-family="Helvetica,sans-Serif" font-size="10.00"> elements</text>
</g>
<!-- Node6 -->
<g id="node6" class="node">
<title>Node6</title>
<g id="a_node6"><a xlink:title=" ">
<polygon fill="white" stroke="#666666" points="199.5,-93 154.5,-93 154.5,-74 199.5,-74 199.5,-93"/>
<text text-anchor="middle" x="177" y="-81" font-family="Helvetica,sans-Serif" font-size="10.00">lconv *</text>
</a>
</g>
</g>
<!-- Node6&#45;&gt;Node1 -->
<g id="edge5" class="edge">
<title>Node6&#45;&gt;Node1</title>
<path fill="none" stroke="#9a32cd" stroke-dasharray="5,2" d="M211.12,-87.51C241.96,-91.64 289.03,-98.97 329,-109.5 343.9,-113.43 359.89,-118.86 373.86,-124.03"/>
<polygon fill="#9a32cd" stroke="#9a32cd" points="211.63,-84.05 201.26,-86.23 210.73,-90.99 211.63,-84.05"/>
<text text-anchor="middle" x="293.5" y="-112.5" font-family="Helvetica,sans-Serif" font-size="10.00"> loc</text>
</g>
<!-- Node7&#45;&gt;Node1 -->
<g id="edge7" class="edge">
<title>Node7&#45;&gt;Node1</title>
<path fill="none" stroke="#9a32cd" stroke-dasharray="5,2" d="M246.61,-124.44C272.45,-126.09 302.1,-128.16 329,-130.5 334.81,-131.01 340.84,-131.57 346.89,-132.17"/>
<polygon fill="#9a32cd" stroke="#9a32cd" points="247.11,-120.97 236.92,-123.84 246.68,-127.96 247.11,-120.97"/>
<text text-anchor="middle" x="293.5" y="-133.5" font-family="Helvetica,sans-Serif" font-size="10.00"> string_buffer</text>
</g>
<!-- Node8 -->
<g id="node8" class="node">
<title>Node8</title>
<g id="a_node8"><a xlink:title=" ">
<polygon fill="white" stroke="#666666" points="201.5,-56 152.5,-56 152.5,-37 201.5,-37 201.5,-56"/>
<text text-anchor="middle" x="177" y="-44" font-family="Helvetica,sans-Serif" font-size="10.00">string_t</text>
</a>
</g>
</g>
<!-- Node8&#45;&gt;Node1 -->
<g id="edge9" class="edge">
<title>Node8&#45;&gt;Node1</title>
<path fill="none" stroke="#9a32cd" stroke-dasharray="5,2" d="M213.2,-50.08C244.64,-54.22 291.4,-62.75 329,-79.5 354.27,-90.76 379.55,-110.38 395.57,-124.11"/>
<polygon fill="#9a32cd" stroke="#9a32cd" points="213.81,-46.63 203.46,-48.88 212.95,-53.58 213.81,-46.63"/>
<text text-anchor="middle" x="293.5" y="-82.5" font-family="Helvetica,sans-Serif" font-size="10.00"> indent_string</text>
</g>
<!-- Node9 -->
<g id="node9" class="node">
<title>Node9</title>
<g id="a_node9"><a xlink:title=" ">
<polygon fill="white" stroke="#666666" points="231,-19 123,-19 123,0 231,0 231,-19"/>
<text text-anchor="middle" x="177" y="-7" font-family="Helvetica,sans-Serif" font-size="10.00">const error_handler_t</text>
</a>
</g>
</g>
<!-- Node9&#45;&gt;Node1 -->
<g id="edge10" class="edge">
<title>Node9&#45;&gt;Node1</title>
<path fill="none" stroke="#9a32cd" stroke-dasharray="5,2" d="M242.7,-14.41C270.77,-18.8 303.07,-27.04 329,-42.5 363.35,-62.98 390.68,-102.62 403.88,-124.34"/>
<polygon fill="#9a32cd" stroke="#9a32cd" points="243.26,-10.95 232.87,-13.02 242.28,-17.89 243.26,-10.95"/>
<text text-anchor="middle" x="293.5" y="-45.5" font-family="Helvetica,sans-Serif" font-size="10.00"> error_handler</text>
</g>
</g>
</svg>
