<?xml version="1.0" encoding="UTF-8" standalone="no"?>
<!DOCTYPE svg PUBLIC "-//W3C//DTD SVG 1.1//EN"
 "http://www.w3.org/Graphics/SVG/1.1/DTD/svg11.dtd">
<!-- Generated by graphviz version 7.0.1 (20221109.1506)
 -->
<!-- Title: nlohmann::detail::serializer::dump_float Pages: 1 -->
<svg width="755pt" height="194pt"
 viewBox="0.00 0.00 755.00 194.00" xmlns="http://www.w3.org/2000/svg" xmlns:xlink="http://www.w3.org/1999/xlink">
<g id="graph0" class="graph" transform="scale(1 1) rotate(0) translate(4 190)">
<title>nlohmann::detail::serializer::dump_float</title>
<!-- Node1 -->
<g id="node1" class="node">
<title>Node1</title>
<g id="a_node1"><a xlink:title=" ">
<polygon fill="#999999" stroke="#666666" points="133,-129 0,-129 0,-99 133,-99 133,-129"/>
<text text-anchor="start" x="8" y="-117" font-family="Helvetica,sans-Serif" font-size="10.00">nlohmann::detail::serializer</text>
<text text-anchor="middle" x="66.5" y="-106" font-family="Helvetica,sans-Serif" font-size="10.00">::dump_float</text>
</a>
</g>
</g>
<!-- Node2 -->
<g id="node2" class="node">
<title>Node2</title>
<g id="a_node2"><a xlink:href="a00411.html#a4ceeb4ec7f2cd493dd9cf328044c1e3c" target="_top" xlink:title="generates a decimal representation of the floating&#45;point number value in [first, last).">
<polygon fill="white" stroke="#666666" points="271,-129 169,-129 169,-99 271,-99 271,-129"/>
<text text-anchor="start" x="177" y="-117" font-family="Helvetica,sans-Serif" font-size="10.00">nlohmann::detail::to</text>
<text text-anchor="middle" x="220" y="-106" font-family="Helvetica,sans-Serif" font-size="10.00">_chars</text>
</a>
</g>
</g>
<!-- Node1&#45;&gt;Node2 -->
<g id="edge1" class="edge">
<title>Node1&#45;&gt;Node2</title>
<path fill="none" stroke="#63b8ff" d="M133.07,-114C141.22,-114 149.54,-114 157.62,-114"/>
<polygon fill="#63b8ff" stroke="#63b8ff" points="157.35,-117.5 167.35,-114 157.35,-110.5 157.35,-117.5"/>
</g>
<!-- Node3 -->
<g id="node3" class="node">
<title>Node3</title>
<g id="a_node3"><a xlink:href="a00413.html#a0986c3e015db045df89506436f19e07c" target="_top" xlink:title="prettify v = buf * 10^decimal_exponent">
<polygon fill="white" stroke="#666666" points="420,-169 307,-169 307,-139 420,-139 420,-169"/>
<text text-anchor="start" x="315" y="-157" font-family="Helvetica,sans-Serif" font-size="10.00">nlohmann::detail::dtoa</text>
<text text-anchor="middle" x="363.5" y="-146" font-family="Helvetica,sans-Serif" font-size="10.00">_impl::format_buffer</text>
</a>
</g>
</g>
<!-- Node2&#45;&gt;Node3 -->
<g id="edge2" class="edge">
<title>Node2&#45;&gt;Node3</title>
<path fill="none" stroke="#63b8ff" d="M271.29,-128.22C279.66,-130.58 288.46,-133.07 297.15,-135.53"/>
<polygon fill="#63b8ff" stroke="#63b8ff" points="296.02,-138.85 306.6,-138.2 297.93,-132.11 296.02,-138.85"/>
</g>
<!-- Node5 -->
<g id="node5" class="node">
<title>Node5</title>
<g id="a_node5"><a xlink:href="a00413.html#a05b681dcb8569b9784c6dccfadb01633" target="_top" xlink:title=" ">
<polygon fill="white" stroke="#666666" points="420,-105 307,-105 307,-75 420,-75 420,-105"/>
<text text-anchor="start" x="315" y="-93" font-family="Helvetica,sans-Serif" font-size="10.00">nlohmann::detail::dtoa</text>
<text text-anchor="middle" x="363.5" y="-82" font-family="Helvetica,sans-Serif" font-size="10.00">_impl::grisu2</text>
</a>
</g>
</g>
<!-- Node2&#45;&gt;Node5 -->
<g id="edge4" class="edge">
<title>Node2&#45;&gt;Node5</title>
<path fill="none" stroke="#63b8ff" d="M271.29,-105.47C279.06,-104.15 287.2,-102.77 295.27,-101.4"/>
<polygon fill="#63b8ff" stroke="#63b8ff" points="295.83,-104.86 305.11,-99.73 294.66,-97.96 295.83,-104.86"/>
</g>
<!-- Node4 -->
<g id="node4" class="node">
<title>Node4</title>
<g id="a_node4"><a xlink:href="a00413.html#a78ad745d14b79fc65714c9938981faf6" target="_top" xlink:title="appends a decimal representation of e to buf">
<polygon fill="white" stroke="#666666" points="580.5,-186 458.5,-186 458.5,-156 580.5,-156 580.5,-186"/>
<text text-anchor="start" x="466.5" y="-174" font-family="Helvetica,sans-Serif" font-size="10.00">nlohmann::detail::dtoa</text>
<text text-anchor="middle" x="519.5" y="-163" font-family="Helvetica,sans-Serif" font-size="10.00">_impl::append_exponent</text>
</a>
</g>
</g>
<!-- Node3&#45;&gt;Node4 -->
<g id="edge3" class="edge">
<title>Node3&#45;&gt;Node4</title>
<path fill="none" stroke="#63b8ff" d="M420.1,-160.14C428.76,-161.09 437.82,-162.09 446.77,-163.08"/>
<polygon fill="#63b8ff" stroke="#63b8ff" points="446.21,-166.54 456.53,-164.16 446.98,-159.58 446.21,-166.54"/>
</g>
<!-- Node6 -->
<g id="node6" class="node">
<title>Node6</title>
<g id="a_node6"><a xlink:href="a00413.html#adbf329a18c5cf854a3477327afd2200b" target="_top" xlink:title=" ">
<polygon fill="white" stroke="#666666" points="583,-137.5 456,-137.5 456,-96.5 583,-96.5 583,-137.5"/>
<text text-anchor="start" x="464" y="-125.5" font-family="Helvetica,sans-Serif" font-size="10.00">nlohmann::detail::dtoa</text>
<text text-anchor="start" x="464" y="-114.5" font-family="Helvetica,sans-Serif" font-size="10.00">_impl::get_cached_power</text>
<text text-anchor="middle" x="519.5" y="-103.5" font-family="Helvetica,sans-Serif" font-size="10.00">_for_binary_exponent</text>
</a>
</g>
</g>
<!-- Node5&#45;&gt;Node6 -->
<g id="edge5" class="edge">
<title>Node5&#45;&gt;Node6</title>
<path fill="none" stroke="#63b8ff" d="M420.1,-99.75C428.03,-101.14 436.3,-102.59 444.52,-104.03"/>
<polygon fill="#63b8ff" stroke="#63b8ff" points="443.72,-107.44 454.18,-105.72 444.93,-100.55 443.72,-107.44"/>
</g>
<!-- Node7 -->
<g id="node7" class="node">
<title>Node7</title>
<g id="a_node7"><a xlink:href="a00413.html#a9b899c72b0e1e3dd46d75c2b4e6bcdfb" target="_top" xlink:title=" ">
<polygon fill="white" stroke="#666666" points="577.5,-78 461.5,-78 461.5,-48 577.5,-48 577.5,-78"/>
<text text-anchor="start" x="469.5" y="-66" font-family="Helvetica,sans-Serif" font-size="10.00">nlohmann::detail::dtoa</text>
<text text-anchor="middle" x="519.5" y="-55" font-family="Helvetica,sans-Serif" font-size="10.00">_impl::grisu2_digit_gen</text>
</a>
</g>
</g>
<!-- Node5&#45;&gt;Node7 -->
<g id="edge6" class="edge">
<title>Node5&#45;&gt;Node7</title>
<path fill="none" stroke="#63b8ff" d="M420.1,-80.25C429.8,-78.55 440,-76.76 450,-75.01"/>
<polygon fill="#63b8ff" stroke="#63b8ff" points="450.43,-78.49 459.68,-73.31 449.22,-71.59 450.43,-78.49"/>
</g>
<!-- Node11 -->
<g id="node11" class="node">
<title>Node11</title>
<g id="a_node11"><a xlink:href="a01977.html#aa5f250d12ce89c81fdb08900c6a823e8" target="_top" xlink:title="returns x * y">
<polygon fill="white" stroke="#666666" points="576,-30 463,-30 463,0 576,0 576,-30"/>
<text text-anchor="start" x="471" y="-18" font-family="Helvetica,sans-Serif" font-size="10.00">nlohmann::detail::dtoa</text>
<text text-anchor="middle" x="519.5" y="-7" font-family="Helvetica,sans-Serif" font-size="10.00">_impl::diyfp::mul</text>
</a>
</g>
</g>
<!-- Node5&#45;&gt;Node11 -->
<g id="edge10" class="edge">
<title>Node5&#45;&gt;Node11</title>
<path fill="none" stroke="#63b8ff" d="M389.63,-74.72C407.73,-64.03 432.94,-49.79 456,-39 459.06,-37.57 462.23,-36.15 465.45,-34.77"/>
<polygon fill="#63b8ff" stroke="#63b8ff" points="466.51,-38.12 474.4,-31.05 463.82,-31.65 466.51,-38.12"/>
</g>
<!-- Node8 -->
<g id="node8" class="node">
<title>Node8</title>
<g id="a_node8"><a xlink:href="a00413.html#a36ded358763b5dbcea9867660fbe4e28" target="_top" xlink:title=" ">
<polygon fill="white" stroke="#666666" points="747,-126 619,-126 619,-96 747,-96 747,-126"/>
<text text-anchor="start" x="627" y="-114" font-family="Helvetica,sans-Serif" font-size="10.00">nlohmann::detail::dtoa</text>
<text text-anchor="middle" x="683" y="-103" font-family="Helvetica,sans-Serif" font-size="10.00">_impl::find_largest_pow10</text>
</a>
</g>
</g>
<!-- Node7&#45;&gt;Node8 -->
<g id="edge7" class="edge">
<title>Node7&#45;&gt;Node8</title>
<path fill="none" stroke="#63b8ff" d="M572.49,-78.45C587.33,-82.86 603.66,-87.72 619.08,-92.3"/>
<polygon fill="#63b8ff" stroke="#63b8ff" points="618.08,-95.65 628.66,-95.15 620.07,-88.94 618.08,-95.65"/>
</g>
<!-- Node9 -->
<g id="node9" class="node">
<title>Node9</title>
<g id="a_node9"><a xlink:href="a00413.html#a5bc841e0bee12fd6489d49cf7bd07bb4" target="_top" xlink:title=" ">
<polygon fill="white" stroke="#666666" points="739.5,-78 626.5,-78 626.5,-48 739.5,-48 739.5,-78"/>
<text text-anchor="start" x="634.5" y="-66" font-family="Helvetica,sans-Serif" font-size="10.00">nlohmann::detail::dtoa</text>
<text text-anchor="middle" x="683" y="-55" font-family="Helvetica,sans-Serif" font-size="10.00">_impl::grisu2_round</text>
</a>
</g>
</g>
<!-- Node7&#45;&gt;Node9 -->
<g id="edge8" class="edge">
<title>Node7&#45;&gt;Node9</title>
<path fill="none" stroke="#63b8ff" d="M577.89,-63C589.9,-63 602.66,-63 614.99,-63"/>
<polygon fill="#63b8ff" stroke="#63b8ff" points="614.63,-66.5 624.63,-63 614.63,-59.5 614.63,-66.5"/>
</g>
<!-- Node10 -->
<g id="node10" class="node">
<title>Node10</title>
<g id="a_node10"><a xlink:href="a01977.html#aeb26771af54ad73598c1a0430d65d884" target="_top" xlink:title="returns x &#45; y">
<polygon fill="white" stroke="#666666" points="739.5,-30 626.5,-30 626.5,0 739.5,0 739.5,-30"/>
<text text-anchor="start" x="634.5" y="-18" font-family="Helvetica,sans-Serif" font-size="10.00">nlohmann::detail::dtoa</text>
<text text-anchor="middle" x="683" y="-7" font-family="Helvetica,sans-Serif" font-size="10.00">_impl::diyfp::sub</text>
</a>
</g>
</g>
<!-- Node7&#45;&gt;Node10 -->
<g id="edge9" class="edge">
<title>Node7&#45;&gt;Node10</title>
<path fill="none" stroke="#63b8ff" d="M572.49,-47.55C587.33,-43.14 603.66,-38.28 619.08,-33.7"/>
<polygon fill="#63b8ff" stroke="#63b8ff" points="620.07,-37.06 628.66,-30.85 618.08,-30.35 620.07,-37.06"/>
</g>
</g>
</svg>
