<?xml version="1.0" encoding="UTF-8" standalone="no"?>
<!DOCTYPE svg PUBLIC "-//W3C//DTD SVG 1.1//EN"
 "http://www.w3.org/Graphics/SVG/1.1/DTD/svg11.dtd">
<!-- Generated by graphviz version 8.0.5 (20230430.1635)
 -->
<!-- Title: nlohmann::detail::binary_reader::get_msgpack_object Pages: 1 -->
<svg width="1158pt" height="448pt"
 viewBox="0.00 0.00 1158.00 448.38" xmlns="http://www.w3.org/2000/svg" xmlns:xlink="http://www.w3.org/1999/xlink">
<g id="graph0" class="graph" transform="scale(1 1) rotate(0) translate(4 444.38)">
<title>nlohmann::detail::binary_reader::get_msgpack_object</title>
<!-- Node1 -->
<g id="node1" class="node">
<title>Node1</title>
<g id="a_node1"><a xlink:title=" ">
<polygon fill="#999999" stroke="#666666" points="144.25,-306 0,-306 0,-274 144.25,-274 144.25,-306"/>
<text text-anchor="start" x="8" y="-292.5" font-family="Helvetica,sans-Serif" font-size="10.00">nlohmann::detail::binary</text>
<text text-anchor="middle" x="72.13" y="-280.5" font-family="Helvetica,sans-Serif" font-size="10.00">_reader::get_msgpack_object</text>
</a>
</g>
</g>
<!-- Node2 -->
<g id="node2" class="node">
<title>Node2</title>
<g id="a_node2"><a xlink:href="a01929.html#ad222095c0b21a87824cb10629299629a" target="_top" xlink:title="get next character from the input">
<polygon fill="white" stroke="#666666" points="801.5,-340 682,-340 682,-308 801.5,-308 801.5,-340"/>
<text text-anchor="start" x="690" y="-326.5" font-family="Helvetica,sans-Serif" font-size="10.00">nlohmann::detail::binary</text>
<text text-anchor="middle" x="741.75" y="-314.5" font-family="Helvetica,sans-Serif" font-size="10.00">_reader::get</text>
</a>
</g>
</g>
<!-- Node1&#45;&gt;Node2 -->
<g id="edge1" class="edge">
<title>Node1&#45;&gt;Node2</title>
<path fill="none" stroke="#63b8ff" d="M95.9,-306.28C140.2,-336.82 242.18,-401.75 339.5,-425 473.96,-457.13 633.02,-383.87 703.7,-345.52"/>
<polygon fill="#63b8ff" stroke="#63b8ff" points="705.01,-348.25 712.08,-340.36 701.63,-342.12 705.01,-348.25"/>
</g>
<!-- Node3 -->
<g id="node3" class="node">
<title>Node3</title>
<g id="a_node3"><a xlink:href="a01929.html#ad8cba5585327caa550dd5b6dd25a64f8" target="_top" xlink:title="reads a MessagePack string">
<polygon fill="white" stroke="#666666" points="482.63,-155 340.63,-155 340.63,-123 482.63,-123 482.63,-155"/>
<text text-anchor="start" x="348.63" y="-141.5" font-family="Helvetica,sans-Serif" font-size="10.00">nlohmann::detail::binary</text>
<text text-anchor="middle" x="411.63" y="-129.5" font-family="Helvetica,sans-Serif" font-size="10.00">_reader::get_msgpack_string</text>
</a>
</g>
</g>
<!-- Node1&#45;&gt;Node3 -->
<g id="edge2" class="edge">
<title>Node1&#45;&gt;Node3</title>
<path fill="none" stroke="#63b8ff" d="M109.89,-273.55C171.64,-245.93 296.08,-190.25 363.92,-159.89"/>
<polygon fill="#63b8ff" stroke="#63b8ff" points="365.21,-162.71 372.91,-155.43 362.35,-156.32 365.21,-162.71"/>
</g>
<!-- Node12 -->
<g id="node12" class="node">
<title>Node12</title>
<g id="a_node12"><a xlink:href="a01929.html#ae020385ce9424271d61f85d3842c02cb" target="_top" xlink:title=" ">
<polygon fill="white" stroke="#666666" points="303.5,-312 180.25,-312 180.25,-268 303.5,-268 303.5,-312"/>
<text text-anchor="start" x="188.25" y="-298.5" font-family="Helvetica,sans-Serif" font-size="10.00">nlohmann::detail::binary</text>
<text text-anchor="start" x="188.25" y="-286.5" font-family="Helvetica,sans-Serif" font-size="10.00">_reader::parse_msgpack</text>
<text text-anchor="middle" x="241.88" y="-274.5" font-family="Helvetica,sans-Serif" font-size="10.00">_internal</text>
</a>
</g>
</g>
<!-- Node1&#45;&gt;Node12 -->
<g id="edge17" class="edge">
<title>Node1&#45;&gt;Node12</title>
<path fill="none" stroke="#63b8ff" d="M144.27,-283.32C152.52,-283.23 160.95,-283.23 169.22,-283.31"/>
<polygon fill="#63b8ff" stroke="#63b8ff" points="168.91,-286.83 178.96,-283.48 169.01,-279.83 168.91,-286.83"/>
</g>
<!-- Node4 -->
<g id="node4" class="node">
<title>Node4</title>
<g id="a_node4"><a xlink:href="a01497.html#a137ea4d27de45d8a844fd13451d40f3d" target="_top" xlink:title="create a parse error exception">
<polygon fill="white" stroke="#666666" points="966.75,-199 849.5,-199 849.5,-167 966.75,-167 966.75,-199"/>
<text text-anchor="start" x="857.5" y="-185.5" font-family="Helvetica,sans-Serif" font-size="10.00">nlohmann::detail::parse</text>
<text text-anchor="middle" x="908.13" y="-173.5" font-family="Helvetica,sans-Serif" font-size="10.00">_error::create</text>
</a>
</g>
</g>
<!-- Node3&#45;&gt;Node4 -->
<g id="edge3" class="edge">
<title>Node3&#45;&gt;Node4</title>
<path fill="none" stroke="#63b8ff" d="M445.96,-122.61C466.65,-113.37 494.1,-102.74 519.75,-98 645.43,-74.77 792.51,-129.92 863.89,-161.99"/>
<polygon fill="#63b8ff" stroke="#63b8ff" points="862.3,-165.58 872.86,-166.55 865.21,-159.21 862.3,-165.58"/>
</g>
<!-- Node7 -->
<g id="node7" class="node">
<title>Node7</title>
<g id="a_node7"><a xlink:href="a01929.html#a9c413c9a1bade1ce345740f4d69156f0" target="_top" xlink:title=" ">
<polygon fill="white" stroke="#666666" points="978.75,-32 837.5,-32 837.5,0 978.75,0 978.75,-32"/>
<text text-anchor="start" x="845.5" y="-18.5" font-family="Helvetica,sans-Serif" font-size="10.00">nlohmann::detail::binary</text>
<text text-anchor="middle" x="908.13" y="-6.5" font-family="Helvetica,sans-Serif" font-size="10.00">_reader::exception_message</text>
</a>
</g>
</g>
<!-- Node3&#45;&gt;Node7 -->
<g id="edge6" class="edge">
<title>Node3&#45;&gt;Node7</title>
<path fill="none" stroke="#63b8ff" d="M442.28,-122.69C463.35,-111.73 492.59,-97.74 519.75,-89 623.03,-55.75 746.96,-35.68 826.35,-25.23"/>
<polygon fill="#63b8ff" stroke="#63b8ff" points="826.78,-28.57 836.25,-23.81 825.88,-21.63 826.78,-28.57"/>
</g>
<!-- Node8 -->
<g id="node8" class="node">
<title>Node8</title>
<g id="a_node8"><a xlink:href="a01929.html#ac356c6364fe0273d3303fb7a447f4ef6" target="_top" xlink:title=" ">
<polygon fill="white" stroke="#666666" points="642.63,-290 523.13,-290 523.13,-258 642.63,-258 642.63,-290"/>
<text text-anchor="start" x="531.13" y="-276.5" font-family="Helvetica,sans-Serif" font-size="10.00">nlohmann::detail::binary</text>
<text text-anchor="middle" x="582.88" y="-264.5" font-family="Helvetica,sans-Serif" font-size="10.00">_reader::get_number</text>
</a>
</g>
</g>
<!-- Node3&#45;&gt;Node8 -->
<g id="edge7" class="edge">
<title>Node3&#45;&gt;Node8</title>
<path fill="none" stroke="#63b8ff" d="M433.04,-155.28C463.03,-179.2 519.12,-223.94 553.22,-251.14"/>
<polygon fill="#63b8ff" stroke="#63b8ff" points="550.39,-254.16 560.39,-257.66 554.75,-248.69 550.39,-254.16"/>
</g>
<!-- Node9 -->
<g id="node9" class="node">
<title>Node9</title>
<g id="a_node9"><a xlink:href="a01929.html#a61a0bd8bbe7b560bd429fa990ba3ba1a" target="_top" xlink:title=" ">
<polygon fill="white" stroke="#666666" points="801.5,-199 682,-199 682,-167 801.5,-167 801.5,-199"/>
<text text-anchor="start" x="690" y="-185.5" font-family="Helvetica,sans-Serif" font-size="10.00">nlohmann::detail::binary</text>
<text text-anchor="middle" x="741.75" y="-173.5" font-family="Helvetica,sans-Serif" font-size="10.00">_reader::unexpect_eof</text>
</a>
</g>
</g>
<!-- Node3&#45;&gt;Node9 -->
<g id="edge16" class="edge">
<title>Node3&#45;&gt;Node9</title>
<path fill="none" stroke="#63b8ff" d="M456.37,-122.61C504.16,-107.24 582.38,-89.57 646,-111 674.18,-120.49 700.63,-142.08 718.38,-159.15"/>
<polygon fill="#63b8ff" stroke="#63b8ff" points="715.34,-161.06 724.9,-165.62 720.27,-156.09 715.34,-161.06"/>
</g>
<!-- Node10 -->
<g id="node10" class="node">
<title>Node10</title>
<g id="a_node10"><a xlink:href="a01929.html#a540919db22df36512f05a88945c13263" target="_top" xlink:title="create a string by reading characters from the input">
<polygon fill="white" stroke="#666666" points="642.63,-152 523.13,-152 523.13,-120 642.63,-120 642.63,-152"/>
<text text-anchor="start" x="531.13" y="-138.5" font-family="Helvetica,sans-Serif" font-size="10.00">nlohmann::detail::binary</text>
<text text-anchor="middle" x="582.88" y="-126.5" font-family="Helvetica,sans-Serif" font-size="10.00">_reader::get_string</text>
</a>
</g>
</g>
<!-- Node3&#45;&gt;Node10 -->
<g id="edge12" class="edge">
<title>Node3&#45;&gt;Node10</title>
<path fill="none" stroke="#63b8ff" d="M482.93,-137.75C492.57,-137.58 502.46,-137.41 512.08,-137.24"/>
<polygon fill="#63b8ff" stroke="#63b8ff" points="511.87,-140.72 521.81,-137.05 511.75,-133.72 511.87,-140.72"/>
</g>
<!-- Node11 -->
<g id="node11" class="node">
<title>Node11</title>
<g id="a_node11"><a xlink:href="a01929.html#a7d323283c60a0b89ee5eeadf5cb9a5ad" target="_top" xlink:title=" ">
<polygon fill="white" stroke="#666666" points="646,-202 519.75,-202 519.75,-170 646,-170 646,-202"/>
<text text-anchor="start" x="527.75" y="-188.5" font-family="Helvetica,sans-Serif" font-size="10.00">nlohmann::detail::binary</text>
<text text-anchor="middle" x="582.88" y="-176.5" font-family="Helvetica,sans-Serif" font-size="10.00">_reader::get_token_string</text>
</a>
</g>
</g>
<!-- Node3&#45;&gt;Node11 -->
<g id="edge15" class="edge">
<title>Node3&#45;&gt;Node11</title>
<path fill="none" stroke="#63b8ff" d="M471.82,-155.44C484.83,-159.05 498.73,-162.91 512.12,-166.63"/>
<polygon fill="#63b8ff" stroke="#63b8ff" points="511.14,-170.27 521.71,-169.57 513.01,-163.52 511.14,-170.27"/>
</g>
<!-- Node5 -->
<g id="node5" class="node">
<title>Node5</title>
<g id="a_node5"><a xlink:href="a01493.html#abf41a7e9178356314082284e6cfea278" target="_top" xlink:title=" ">
<polygon fill="white" stroke="#666666" points="1150,-224 1014.75,-224 1014.75,-192 1150,-192 1150,-224"/>
<text text-anchor="start" x="1022.75" y="-210.5" font-family="Helvetica,sans-Serif" font-size="10.00">nlohmann::detail::exception</text>
<text text-anchor="middle" x="1082.38" y="-198.5" font-family="Helvetica,sans-Serif" font-size="10.00">::name</text>
</a>
</g>
</g>
<!-- Node4&#45;&gt;Node5 -->
<g id="edge4" class="edge">
<title>Node4&#45;&gt;Node5</title>
<path fill="none" stroke="#63b8ff" d="M966.96,-191.39C978.75,-193.11 991.34,-194.93 1003.7,-196.73"/>
<polygon fill="#63b8ff" stroke="#63b8ff" points="1003.07,-200.32 1013.47,-198.29 1004.07,-193.39 1003.07,-200.32"/>
</g>
<!-- Node6 -->
<g id="node6" class="node">
<title>Node6</title>
<g id="a_node6"><a xlink:href="a01497.html#aefe74adeaa48781464ba2fd2ec63d221" target="_top" xlink:title=" ">
<polygon fill="white" stroke="#666666" points="1141,-174 1023.75,-174 1023.75,-142 1141,-142 1141,-174"/>
<text text-anchor="start" x="1031.75" y="-160.5" font-family="Helvetica,sans-Serif" font-size="10.00">nlohmann::detail::parse</text>
<text text-anchor="middle" x="1082.38" y="-148.5" font-family="Helvetica,sans-Serif" font-size="10.00">_error::position_string</text>
</a>
</g>
</g>
<!-- Node4&#45;&gt;Node6 -->
<g id="edge5" class="edge">
<title>Node4&#45;&gt;Node6</title>
<path fill="none" stroke="#63b8ff" d="M966.96,-174.61C981.59,-172.48 997.44,-170.18 1012.55,-167.99"/>
<polygon fill="#63b8ff" stroke="#63b8ff" points="1013,-171.31 1022.4,-166.41 1012,-164.39 1013,-171.31"/>
</g>
<!-- Node8&#45;&gt;Node2 -->
<g id="edge8" class="edge">
<title>Node8&#45;&gt;Node2</title>
<path fill="none" stroke="#63b8ff" d="M635.24,-290.37C649.12,-294.8 664.29,-299.63 678.68,-304.22"/>
<polygon fill="#63b8ff" stroke="#63b8ff" points="677.41,-307.8 688,-307.51 679.53,-301.13 677.41,-307.8"/>
</g>
<!-- Node8&#45;&gt;Node9 -->
<g id="edge9" class="edge">
<title>Node8&#45;&gt;Node9</title>
<path fill="none" stroke="#63b8ff" d="M619.74,-257.6C628.44,-253.37 637.64,-248.69 646,-244 667.22,-232.11 690.17,-217.38 708.18,-205.37"/>
<polygon fill="#63b8ff" stroke="#63b8ff" points="709.76,-207.86 716.1,-199.37 705.85,-202.05 709.76,-207.86"/>
</g>
<!-- Node9&#45;&gt;Node4 -->
<g id="edge10" class="edge">
<title>Node9&#45;&gt;Node4</title>
<path fill="none" stroke="#63b8ff" d="M801.63,-183C813.6,-183 826.29,-183 838.56,-183"/>
<polygon fill="#63b8ff" stroke="#63b8ff" points="838.21,-186.5 848.21,-183 838.21,-179.5 838.21,-186.5"/>
</g>
<!-- Node9&#45;&gt;Node7 -->
<g id="edge11" class="edge">
<title>Node9&#45;&gt;Node7</title>
<path fill="none" stroke="#63b8ff" d="M758.81,-166.68C787.98,-137.05 849.76,-74.28 883.66,-39.84"/>
<polygon fill="#63b8ff" stroke="#63b8ff" points="885.72,-42.72 890.24,-33.14 880.73,-37.81 885.72,-42.72"/>
</g>
<!-- Node10&#45;&gt;Node2 -->
<g id="edge13" class="edge">
<title>Node10&#45;&gt;Node2</title>
<path fill="none" stroke="#63b8ff" d="M633.48,-152.33C637.96,-154.85 642.22,-157.73 646,-161 668.88,-180.8 708.14,-257.04 728.18,-297.85"/>
<polygon fill="#63b8ff" stroke="#63b8ff" points="725.43,-299.19 732.95,-306.64 731.72,-296.12 725.43,-299.19"/>
</g>
<!-- Node10&#45;&gt;Node9 -->
<g id="edge14" class="edge">
<title>Node10&#45;&gt;Node9</title>
<path fill="none" stroke="#63b8ff" d="M638.74,-152.44C650.68,-156.02 663.43,-159.83 675.72,-163.52"/>
<polygon fill="#63b8ff" stroke="#63b8ff" points="674.33,-167.05 684.91,-166.57 676.34,-160.35 674.33,-167.05"/>
</g>
<!-- Node12&#45;&gt;Node1 -->
<g id="edge28" class="edge">
<title>Node12&#45;&gt;Node1</title>
<path fill="none" stroke="#63b8ff" d="M179.96,-296.52C171.9,-296.69 163.53,-296.76 155.19,-296.75"/>
<polygon fill="#63b8ff" stroke="#63b8ff" points="155.29,-293.24 145.27,-296.68 155.24,-300.24 155.29,-293.24"/>
</g>
<!-- Node12&#45;&gt;Node2 -->
<g id="edge20" class="edge">
<title>Node12&#45;&gt;Node2</title>
<path fill="none" stroke="#63b8ff" d="M280.11,-312.3C297.54,-321.62 318.95,-331.54 339.5,-337 471.26,-371.99 510.81,-366.54 646,-349 656.38,-347.65 667.23,-345.51 677.75,-343.03"/>
<polygon fill="#63b8ff" stroke="#63b8ff" points="678.25,-346.27 687.11,-340.46 676.56,-339.47 678.25,-346.27"/>
</g>
<!-- Node12&#45;&gt;Node3 -->
<g id="edge29" class="edge">
<title>Node12&#45;&gt;Node3</title>
<path fill="none" stroke="#63b8ff" d="M257.42,-267.78C274.65,-242.75 305.37,-202.05 339.5,-175 346.29,-169.62 354,-164.72 361.79,-160.39"/>
<polygon fill="#63b8ff" stroke="#63b8ff" points="363.05,-163.15 370.27,-155.39 359.79,-156.96 363.05,-163.15"/>
</g>
<!-- Node12&#45;&gt;Node4 -->
<g id="edge18" class="edge">
<title>Node12&#45;&gt;Node4</title>
<path fill="none" stroke="#63b8ff" d="M251.17,-312.36C264.33,-344.18 293.36,-401.28 339.5,-425 396.52,-454.31 420.08,-432.51 483.75,-425 627.96,-407.99 683.27,-433.3 801.5,-349 851.24,-313.53 883.03,-246.6 897.68,-209.48"/>
<polygon fill="#63b8ff" stroke="#63b8ff" points="901.22,-211.01 901.52,-200.42 894.68,-208.51 901.22,-211.01"/>
</g>
<!-- Node12&#45;&gt;Node7 -->
<g id="edge19" class="edge">
<title>Node12&#45;&gt;Node7</title>
<path fill="none" stroke="#63b8ff" d="M249.24,-267.63C260.96,-230.41 289.44,-155.74 339.5,-114 478.97,2.29 706.16,2.92 826.47,-6.55"/>
<polygon fill="#63b8ff" stroke="#63b8ff" points="826.16,-10.12 836.42,-7.46 826.74,-3.14 826.16,-10.12"/>
</g>
<!-- Node12&#45;&gt;Node8 -->
<g id="edge30" class="edge">
<title>Node12&#45;&gt;Node8</title>
<path fill="none" stroke="#63b8ff" d="M303.87,-287.12C362.41,-284.36 450.72,-280.19 512.05,-277.3"/>
<polygon fill="#63b8ff" stroke="#63b8ff" points="511.96,-280.76 521.79,-276.79 511.63,-273.76 511.96,-280.76"/>
</g>
<!-- Node12&#45;&gt;Node9 -->
<g id="edge32" class="edge">
<title>Node12&#45;&gt;Node9</title>
<path fill="none" stroke="#63b8ff" d="M303.7,-279.91C382.97,-266.35 525.65,-240.51 646,-211 656.37,-208.46 667.3,-205.5 677.9,-202.47"/>
<polygon fill="#63b8ff" stroke="#63b8ff" points="678.74,-205.58 687.37,-199.43 676.79,-198.86 678.74,-205.58"/>
</g>
<!-- Node12&#45;&gt;Node11 -->
<g id="edge31" class="edge">
<title>Node12&#45;&gt;Node11</title>
<path fill="none" stroke="#63b8ff" d="M264.87,-267.57C283.16,-250.42 310.75,-227.76 339.5,-216 393.31,-193.98 459.02,-186.95 508.44,-185.16"/>
<polygon fill="#63b8ff" stroke="#63b8ff" points="508.47,-188.63 518.36,-184.84 508.26,-181.63 508.47,-188.63"/>
</g>
<!-- Node13 -->
<g id="node13" class="node">
<title>Node13</title>
<g id="a_node13"><a xlink:href="a01929.html#a0ce1d7066597952efb008aaf578b2bd6" target="_top" xlink:title=" ">
<polygon fill="white" stroke="#666666" points="481.5,-416 341.75,-416 341.75,-384 481.5,-384 481.5,-416"/>
<text text-anchor="start" x="349.75" y="-402.5" font-family="Helvetica,sans-Serif" font-size="10.00">nlohmann::detail::binary</text>
<text text-anchor="middle" x="411.63" y="-390.5" font-family="Helvetica,sans-Serif" font-size="10.00">_reader::get_msgpack_array</text>
</a>
</g>
</g>
<!-- Node12&#45;&gt;Node13 -->
<g id="edge21" class="edge">
<title>Node12&#45;&gt;Node13</title>
<path fill="none" stroke="#63b8ff" d="M274.6,-312.36C292.64,-327.47 316.23,-346.88 339.5,-361 350.75,-367.83 363.84,-373.83 375.7,-379.15"/>
<polygon fill="#63b8ff" stroke="#63b8ff" points="374.17,-382.75 384.73,-383.65 377.04,-376.36 374.17,-382.75"/>
</g>
<!-- Node14 -->
<g id="node14" class="node">
<title>Node14</title>
<g id="a_node14"><a xlink:href="a01929.html#a389e550fd397a48121cb82d92bb7475a" target="_top" xlink:title="reads a MessagePack byte array">
<polygon fill="white" stroke="#666666" points="483.75,-328 339.5,-328 339.5,-296 483.75,-296 483.75,-328"/>
<text text-anchor="start" x="347.5" y="-314.5" font-family="Helvetica,sans-Serif" font-size="10.00">nlohmann::detail::binary</text>
<text text-anchor="middle" x="411.63" y="-302.5" font-family="Helvetica,sans-Serif" font-size="10.00">_reader::get_msgpack_binary</text>
</a>
</g>
</g>
<!-- Node12&#45;&gt;Node14 -->
<g id="edge23" class="edge">
<title>Node12&#45;&gt;Node14</title>
<path fill="none" stroke="#63b8ff" d="M303.91,-298C311.86,-299.05 320.1,-300.13 328.32,-301.21"/>
<polygon fill="#63b8ff" stroke="#63b8ff" points="327.72,-304.79 338.09,-302.62 328.63,-297.85 327.72,-304.79"/>
</g>
<!-- Node13&#45;&gt;Node12 -->
<g id="edge22" class="edge">
<title>Node13&#45;&gt;Node12</title>
<path fill="none" stroke="#63b8ff" d="M347.67,-383.65C344.87,-382.15 342.14,-380.6 339.5,-379 312.46,-362.59 284.99,-339.05 266.3,-320.11"/>
<polygon fill="#63b8ff" stroke="#63b8ff" points="269.28,-318.12 259.84,-313.3 264.22,-322.95 269.28,-318.12"/>
</g>
<!-- Node14&#45;&gt;Node8 -->
<g id="edge27" class="edge">
<title>Node14&#45;&gt;Node8</title>
<path fill="none" stroke="#63b8ff" d="M483.91,-295.99C493.3,-293.89 502.91,-291.73 512.27,-289.63"/>
<polygon fill="#63b8ff" stroke="#63b8ff" points="512.71,-292.89 521.7,-287.29 511.18,-286.06 512.71,-292.89"/>
</g>
<!-- Node15 -->
<g id="node15" class="node">
<title>Node15</title>
<g id="a_node15"><a xlink:href="a01929.html#a55e13d567a53234573ab3833c0ca32e9" target="_top" xlink:title="create a byte array by reading bytes from the input">
<polygon fill="white" stroke="#666666" points="642.63,-340 523.13,-340 523.13,-308 642.63,-308 642.63,-340"/>
<text text-anchor="start" x="531.13" y="-326.5" font-family="Helvetica,sans-Serif" font-size="10.00">nlohmann::detail::binary</text>
<text text-anchor="middle" x="582.88" y="-314.5" font-family="Helvetica,sans-Serif" font-size="10.00">_reader::get_binary</text>
</a>
</g>
</g>
<!-- Node14&#45;&gt;Node15 -->
<g id="edge24" class="edge">
<title>Node14&#45;&gt;Node15</title>
<path fill="none" stroke="#63b8ff" d="M483.91,-317.05C493.2,-317.71 502.7,-318.39 511.96,-319.04"/>
<polygon fill="#63b8ff" stroke="#63b8ff" points="511.48,-322.59 521.7,-319.8 511.97,-315.61 511.48,-322.59"/>
</g>
<!-- Node15&#45;&gt;Node2 -->
<g id="edge25" class="edge">
<title>Node15&#45;&gt;Node2</title>
<path fill="none" stroke="#63b8ff" d="M642.74,-324C651.86,-324 661.36,-324 670.7,-324"/>
<polygon fill="#63b8ff" stroke="#63b8ff" points="670.56,-327.5 680.56,-324 670.56,-320.5 670.56,-327.5"/>
</g>
<!-- Node15&#45;&gt;Node9 -->
<g id="edge26" class="edge">
<title>Node15&#45;&gt;Node9</title>
<path fill="none" stroke="#63b8ff" d="M632.01,-307.53C636.93,-305.01 641.69,-302.17 646,-299 679.8,-274.13 708.64,-234.52 725.34,-208.63"/>
<polygon fill="#63b8ff" stroke="#63b8ff" points="728.76,-210.77 731.13,-200.44 722.84,-207.04 728.76,-210.77"/>
</g>
</g>
</svg>
