<?xml version="1.0" encoding="UTF-8" standalone="no"?>
<!DOCTYPE svg PUBLIC "-//W3C//DTD SVG 1.1//EN"
 "http://www.w3.org/Graphics/SVG/1.1/DTD/svg11.dtd">
<!-- Generated by graphviz version 5.0.0 (20220707.1540)
 -->
<!-- Title: nlohmann::detail::binary_reader::get_string Pages: 1 -->
<svg width="1331pt" height="366pt"
 viewBox="0.00 0.00 1331.00 366.00" xmlns="http://www.w3.org/2000/svg" xmlns:xlink="http://www.w3.org/1999/xlink">
<g id="graph0" class="graph" transform="scale(1 1) rotate(0) translate(4 362)">
<title>nlohmann::detail::binary_reader::get_string</title>
<polygon fill="white" stroke="transparent" points="-4,4 -4,-362 1327,-362 1327,4 -4,4"/>
<!-- Node1 -->
<g id="node1" class="node">
<title>Node1</title>
<g id="a_node1"><a xlink:title="create a string by reading characters from the input">
<polygon fill="#bfbfbf" stroke="black" points="1203,-167.5 1203,-197.5 1323,-197.5 1323,-167.5 1203,-167.5"/>
<text text-anchor="start" x="1211" y="-185.5" font-family="Helvetica,sans-Serif" font-size="10.00">nlohmann::detail::binary</text>
<text text-anchor="middle" x="1263" y="-174.5" font-family="Helvetica,sans-Serif" font-size="10.00">_reader::get_string</text>
</a>
</g>
</g>
<!-- Node2 -->
<g id="node2" class="node">
<title>Node2</title>
<g id="a_node2"><a xlink:href="a01929.html#a23921422802aa472360dd05023e20565" target="_top" xlink:title="Parses a zero&#45;terminated string of length len from the BSON input.">
<polygon fill="white" stroke="black" points="1033.5,-278.5 1033.5,-308.5 1157.5,-308.5 1157.5,-278.5 1033.5,-278.5"/>
<text text-anchor="start" x="1041.5" y="-296.5" font-family="Helvetica,sans-Serif" font-size="10.00">nlohmann::detail::binary</text>
<text text-anchor="middle" x="1095.5" y="-285.5" font-family="Helvetica,sans-Serif" font-size="10.00">_reader::get_bson_string</text>
</a>
</g>
</g>
<!-- Node1&#45;&gt;Node2 -->
<g id="edge1" class="edge">
<title>Node1&#45;&gt;Node2</title>
<path fill="none" stroke="midnightblue" d="M1233.81,-203.5C1215.11,-217.23 1189.88,-235.36 1167,-250.5 1152.41,-260.15 1135.72,-270.37 1122.24,-278.42"/>
<polygon fill="midnightblue" stroke="midnightblue" points="1235.94,-206.28 1241.92,-197.53 1231.79,-200.65 1235.94,-206.28"/>
</g>
<!-- Node17 -->
<g id="node17" class="node">
<title>Node17</title>
<g id="a_node17"><a xlink:href="a01929.html#a545a44ae4b3fa2b7a61d9e8517fb7154" target="_top" xlink:title="reads a CBOR string">
<polygon fill="white" stroke="black" points="1034.5,-192.5 1034.5,-222.5 1156.5,-222.5 1156.5,-192.5 1034.5,-192.5"/>
<text text-anchor="start" x="1042.5" y="-210.5" font-family="Helvetica,sans-Serif" font-size="10.00">nlohmann::detail::binary</text>
<text text-anchor="middle" x="1095.5" y="-199.5" font-family="Helvetica,sans-Serif" font-size="10.00">_reader::get_cbor_string</text>
</a>
</g>
</g>
<!-- Node1&#45;&gt;Node17 -->
<g id="edge18" class="edge">
<title>Node1&#45;&gt;Node17</title>
<path fill="none" stroke="midnightblue" d="M1192.78,-192.96C1180.82,-194.76 1168.46,-196.63 1156.76,-198.4"/>
<polygon fill="midnightblue" stroke="midnightblue" points="1193.35,-196.41 1202.72,-191.45 1192.31,-189.49 1193.35,-196.41"/>
</g>
<!-- Node21 -->
<g id="node21" class="node">
<title>Node21</title>
<g id="a_node21"><a xlink:href="a01929.html#ad8cba5585327caa550dd5b6dd25a64f8" target="_top" xlink:title="reads a MessagePack string">
<polygon fill="white" stroke="black" points="1024,-143.5 1024,-173.5 1167,-173.5 1167,-143.5 1024,-143.5"/>
<text text-anchor="start" x="1032" y="-161.5" font-family="Helvetica,sans-Serif" font-size="10.00">nlohmann::detail::binary</text>
<text text-anchor="middle" x="1095.5" y="-150.5" font-family="Helvetica,sans-Serif" font-size="10.00">_reader::get_msgpack_string</text>
</a>
</g>
</g>
<!-- Node1&#45;&gt;Node21 -->
<g id="edge28" class="edge">
<title>Node1&#45;&gt;Node21</title>
<path fill="none" stroke="midnightblue" d="M1192.6,-172.44C1184.21,-171.22 1175.64,-169.98 1167.23,-168.76"/>
<polygon fill="midnightblue" stroke="midnightblue" points="1192.32,-175.93 1202.72,-173.9 1193.32,-169 1192.32,-175.93"/>
</g>
<!-- Node25 -->
<g id="node25" class="node">
<title>Node25</title>
<g id="a_node25"><a xlink:href="a01929.html#a4ae90db51c102e912b7eac83c78733a6" target="_top" xlink:title="reads a UBJSON string">
<polygon fill="white" stroke="black" points="1030,-53.5 1030,-83.5 1161,-83.5 1161,-53.5 1030,-53.5"/>
<text text-anchor="start" x="1038" y="-71.5" font-family="Helvetica,sans-Serif" font-size="10.00">nlohmann::detail::binary</text>
<text text-anchor="middle" x="1095.5" y="-60.5" font-family="Helvetica,sans-Serif" font-size="10.00">_reader::get_ubjson_string</text>
</a>
</g>
</g>
<!-- Node1&#45;&gt;Node25 -->
<g id="edge36" class="edge">
<title>Node1&#45;&gt;Node25</title>
<path fill="none" stroke="midnightblue" d="M1231.7,-161.63C1198.89,-139.03 1147.35,-103.53 1118.3,-83.52"/>
<polygon fill="midnightblue" stroke="midnightblue" points="1229.8,-164.57 1240.02,-167.36 1233.77,-158.81 1229.8,-164.57"/>
</g>
<!-- Node3 -->
<g id="node3" class="node">
<title>Node3</title>
<g id="a_node3"><a xlink:href="a01929.html#a23bde2450d7a5772bf5051e36ff560a4" target="_top" xlink:title="Read a BSON document element of the given element_type.">
<polygon fill="white" stroke="black" points="843,-285 843,-326 988,-326 988,-285 843,-285"/>
<text text-anchor="start" x="851" y="-314" font-family="Helvetica,sans-Serif" font-size="10.00">nlohmann::detail::binary</text>
<text text-anchor="start" x="851" y="-303" font-family="Helvetica,sans-Serif" font-size="10.00">_reader::parse_bson_element</text>
<text text-anchor="middle" x="915.5" y="-292" font-family="Helvetica,sans-Serif" font-size="10.00">_internal</text>
</a>
</g>
</g>
<!-- Node2&#45;&gt;Node3 -->
<g id="edge2" class="edge">
<title>Node2&#45;&gt;Node3</title>
<path fill="none" stroke="midnightblue" d="M1023.25,-298.3C1011.74,-299.08 999.82,-299.88 988.29,-300.66"/>
<polygon fill="midnightblue" stroke="midnightblue" points="1023.5,-301.79 1033.24,-297.63 1023.03,-294.81 1023.5,-301.79"/>
</g>
<!-- Node4 -->
<g id="node4" class="node">
<title>Node4</title>
<g id="a_node4"><a xlink:href="a01929.html#a4e07b75ccb2579d0e738b894f0fd8cf8" target="_top" xlink:title="Read a BSON element list (as specified in the BSON&#45;spec)">
<polygon fill="white" stroke="black" points="644,-296.5 644,-326.5 807,-326.5 807,-296.5 644,-296.5"/>
<text text-anchor="start" x="652" y="-314.5" font-family="Helvetica,sans-Serif" font-size="10.00">nlohmann::detail::binary</text>
<text text-anchor="middle" x="725.5" y="-303.5" font-family="Helvetica,sans-Serif" font-size="10.00">_reader::parse_bson_element_list</text>
</a>
</g>
</g>
<!-- Node3&#45;&gt;Node4 -->
<g id="edge3" class="edge">
<title>Node3&#45;&gt;Node4</title>
<path fill="none" stroke="midnightblue" d="M832.62,-308.11C824.12,-308.38 815.5,-308.66 807.02,-308.93"/>
<polygon fill="midnightblue" stroke="midnightblue" points="833.01,-311.6 842.89,-307.79 832.78,-304.61 833.01,-311.6"/>
</g>
<!-- Node5 -->
<g id="node5" class="node">
<title>Node5</title>
<g id="a_node5"><a xlink:href="a01929.html#a23eb89a222e22533e9fd43e76722f44f" target="_top" xlink:title="Reads an array from the BSON input and passes it to the SAX&#45;parser.">
<polygon fill="white" stroke="black" points="467.5,-278.5 467.5,-308.5 599.5,-308.5 599.5,-278.5 467.5,-278.5"/>
<text text-anchor="start" x="475.5" y="-296.5" font-family="Helvetica,sans-Serif" font-size="10.00">nlohmann::detail::binary</text>
<text text-anchor="middle" x="533.5" y="-285.5" font-family="Helvetica,sans-Serif" font-size="10.00">_reader::parse_bson_array</text>
</a>
</g>
</g>
<!-- Node4&#45;&gt;Node5 -->
<g id="edge4" class="edge">
<title>Node4&#45;&gt;Node5</title>
<path fill="none" stroke="midnightblue" d="M633.83,-302.91C622.3,-301.82 610.69,-300.72 599.67,-299.67"/>
<polygon fill="midnightblue" stroke="midnightblue" points="633.64,-306.41 643.92,-303.87 634.3,-299.44 633.64,-306.41"/>
</g>
<!-- Node6 -->
<g id="node6" class="node">
<title>Node6</title>
<g id="a_node6"><a xlink:href="a01929.html#abf2051ba57d9ea9b378a2e7c14e22b34" target="_top" xlink:title="Reads in a BSON&#45;object and passes it to the SAX&#45;parser.">
<polygon fill="white" stroke="black" points="462.5,-327.5 462.5,-357.5 604.5,-357.5 604.5,-327.5 462.5,-327.5"/>
<text text-anchor="start" x="470.5" y="-345.5" font-family="Helvetica,sans-Serif" font-size="10.00">nlohmann::detail::binary</text>
<text text-anchor="middle" x="533.5" y="-334.5" font-family="Helvetica,sans-Serif" font-size="10.00">_reader::parse_bson_internal</text>
</a>
</g>
</g>
<!-- Node4&#45;&gt;Node6 -->
<g id="edge6" class="edge">
<title>Node4&#45;&gt;Node6</title>
<path fill="none" stroke="midnightblue" d="M633.77,-326.3C624,-327.9 614.16,-329.5 604.68,-331.05"/>
<polygon fill="midnightblue" stroke="midnightblue" points="634.62,-329.71 643.92,-324.65 633.49,-322.8 634.62,-329.71"/>
</g>
<!-- Node5&#45;&gt;Node3 -->
<g id="edge5" class="edge">
<title>Node5&#45;&gt;Node3</title>
<path fill="none" stroke="midnightblue" d="M609.91,-287.6C664.68,-284.35 740.55,-281.97 807,-287.5 818.6,-288.46 830.83,-290 842.72,-291.79"/>
<polygon fill="midnightblue" stroke="midnightblue" points="609.35,-284.13 599.59,-288.24 609.78,-291.12 609.35,-284.13"/>
</g>
<!-- Node6&#45;&gt;Node3 -->
<g id="edge7" class="edge">
<title>Node6&#45;&gt;Node3</title>
<path fill="none" stroke="midnightblue" d="M614.95,-346.16C669.46,-347.31 742.95,-346.27 807,-336.5 822.27,-334.17 838.42,-330.3 853.43,-326.07"/>
<polygon fill="midnightblue" stroke="midnightblue" points="614.74,-342.65 604.65,-345.91 614.57,-349.65 614.74,-342.65"/>
</g>
<!-- Node7 -->
<g id="node7" class="node">
<title>Node7</title>
<g id="a_node7"><a xlink:href="a01929.html#ab4afd9ee276bbb15a0f898061aad94dd" target="_top" xlink:title=" ">
<polygon fill="white" stroke="black" points="298.5,-190.5 298.5,-220.5 418.5,-220.5 418.5,-190.5 298.5,-190.5"/>
<text text-anchor="start" x="306.5" y="-208.5" font-family="Helvetica,sans-Serif" font-size="10.00">nlohmann::detail::binary</text>
<text text-anchor="middle" x="358.5" y="-197.5" font-family="Helvetica,sans-Serif" font-size="10.00">_reader::sax_parse</text>
</a>
</g>
</g>
<!-- Node6&#45;&gt;Node7 -->
<g id="edge8" class="edge">
<title>Node6&#45;&gt;Node7</title>
<path fill="none" stroke="midnightblue" d="M466.56,-322.99C463.95,-321.59 461.42,-320.09 459,-318.5 418.61,-291.91 384.63,-244.74 368.89,-220.62"/>
<polygon fill="midnightblue" stroke="midnightblue" points="465.15,-326.19 475.68,-327.4 468.2,-319.89 465.15,-326.19"/>
</g>
<!-- Node8 -->
<g id="node8" class="node">
<title>Node8</title>
<g id="a_node8"><a xlink:href="a01593.html#a4e02793f2691aa29ab7cb69fddafbf5c" target="_top" xlink:title="Create a JSON value from an input in BSON format.">
<polygon fill="white" stroke="black" points="147,-288.5 147,-318.5 258,-318.5 258,-288.5 147,-288.5"/>
<text text-anchor="start" x="155" y="-306.5" font-family="Helvetica,sans-Serif" font-size="10.00">nlohmann::basic_json</text>
<text text-anchor="middle" x="202.5" y="-295.5" font-family="Helvetica,sans-Serif" font-size="10.00">::from_bson</text>
</a>
</g>
</g>
<!-- Node7&#45;&gt;Node8 -->
<g id="edge9" class="edge">
<title>Node7&#45;&gt;Node8</title>
<path fill="none" stroke="midnightblue" d="M331.85,-227.1C312.39,-242.85 284.54,-264.05 258,-279.5 252.55,-282.67 246.6,-285.7 240.7,-288.46"/>
<polygon fill="midnightblue" stroke="midnightblue" points="334.13,-229.76 339.65,-220.71 329.7,-224.34 334.13,-229.76"/>
</g>
<!-- Node10 -->
<g id="node10" class="node">
<title>Node10</title>
<g id="a_node10"><a xlink:href="a01593.html#a44dd5635fb2da4710f6cd6e42b72773f" target="_top" xlink:title="create a JSON value from an input in CBOR format">
<polygon fill="white" stroke="black" points="147,-239.5 147,-269.5 258,-269.5 258,-239.5 147,-239.5"/>
<text text-anchor="start" x="155" y="-257.5" font-family="Helvetica,sans-Serif" font-size="10.00">nlohmann::basic_json</text>
<text text-anchor="middle" x="202.5" y="-246.5" font-family="Helvetica,sans-Serif" font-size="10.00">::from_cbor</text>
</a>
</g>
</g>
<!-- Node7&#45;&gt;Node10 -->
<g id="edge11" class="edge">
<title>Node7&#45;&gt;Node10</title>
<path fill="none" stroke="midnightblue" d="M300.11,-223.76C283.87,-228.93 266.38,-234.49 250.8,-239.45"/>
<polygon fill="midnightblue" stroke="midnightblue" points="301.57,-226.97 310.04,-220.6 299.45,-220.3 301.57,-226.97"/>
</g>
<!-- Node12 -->
<g id="node12" class="node">
<title>Node12</title>
<g id="a_node12"><a xlink:href="a01593.html#adbcab52fca1e25b3311ef14e71a57590" target="_top" xlink:title="create a JSON value from an input in MessagePack format">
<polygon fill="white" stroke="black" points="147,-190.5 147,-220.5 258,-220.5 258,-190.5 147,-190.5"/>
<text text-anchor="start" x="155" y="-208.5" font-family="Helvetica,sans-Serif" font-size="10.00">nlohmann::basic_json</text>
<text text-anchor="middle" x="202.5" y="-197.5" font-family="Helvetica,sans-Serif" font-size="10.00">::from_msgpack</text>
</a>
</g>
</g>
<!-- Node7&#45;&gt;Node12 -->
<g id="edge13" class="edge">
<title>Node7&#45;&gt;Node12</title>
<path fill="none" stroke="midnightblue" d="M288.36,-205.5C278.24,-205.5 267.93,-205.5 258.15,-205.5"/>
<polygon fill="midnightblue" stroke="midnightblue" points="288.4,-209 298.4,-205.5 288.4,-202 288.4,-209"/>
</g>
<!-- Node14 -->
<g id="node14" class="node">
<title>Node14</title>
<g id="a_node14"><a xlink:href="a01593.html#aa81f62db69978b90ff701f05c72e03a7" target="_top" xlink:title="create a JSON value from an input in UBJSON format">
<polygon fill="white" stroke="black" points="147,-141.5 147,-171.5 258,-171.5 258,-141.5 147,-141.5"/>
<text text-anchor="start" x="155" y="-159.5" font-family="Helvetica,sans-Serif" font-size="10.00">nlohmann::basic_json</text>
<text text-anchor="middle" x="202.5" y="-148.5" font-family="Helvetica,sans-Serif" font-size="10.00">::from_ubjson</text>
</a>
</g>
</g>
<!-- Node7&#45;&gt;Node14 -->
<g id="edge15" class="edge">
<title>Node7&#45;&gt;Node14</title>
<path fill="none" stroke="midnightblue" d="M300.11,-187.24C283.87,-182.07 266.38,-176.51 250.8,-171.55"/>
<polygon fill="midnightblue" stroke="midnightblue" points="299.45,-190.7 310.04,-190.4 301.57,-184.03 299.45,-190.7"/>
</g>
<!-- Node16 -->
<g id="node16" class="node">
<title>Node16</title>
<g id="a_node16"><a xlink:href="a01593.html#a12b382c6407da5543827ce4b24bb5008" target="_top" xlink:title="generate SAX events">
<polygon fill="white" stroke="black" points="147,-92.5 147,-122.5 258,-122.5 258,-92.5 147,-92.5"/>
<text text-anchor="start" x="155" y="-110.5" font-family="Helvetica,sans-Serif" font-size="10.00">nlohmann::basic_json</text>
<text text-anchor="middle" x="202.5" y="-99.5" font-family="Helvetica,sans-Serif" font-size="10.00">::sax_parse</text>
</a>
</g>
</g>
<!-- Node7&#45;&gt;Node16 -->
<g id="edge17" class="edge">
<title>Node7&#45;&gt;Node16</title>
<path fill="none" stroke="midnightblue" d="M331.38,-184.06C311.87,-168.62 284.18,-147.89 258,-132.5 252.08,-129.02 245.59,-125.67 239.21,-122.62"/>
<polygon fill="midnightblue" stroke="midnightblue" points="329.21,-186.81 339.21,-190.32 333.58,-181.34 329.21,-186.81"/>
</g>
<!-- Node9 -->
<g id="node9" class="node">
<title>Node9</title>
<g id="a_node9"><a xlink:href="a01593.html#ae2612581e4788ddffc2f45d5e4cc04fc" target="_top" xlink:title=" ">
<polygon fill="white" stroke="black" points="0,-288.5 0,-318.5 111,-318.5 111,-288.5 0,-288.5"/>
<text text-anchor="start" x="8" y="-306.5" font-family="Helvetica,sans-Serif" font-size="10.00">nlohmann::basic_json</text>
<text text-anchor="middle" x="55.5" y="-295.5" font-family="Helvetica,sans-Serif" font-size="10.00">::from_bson</text>
</a>
</g>
</g>
<!-- Node8&#45;&gt;Node9 -->
<g id="edge10" class="edge">
<title>Node8&#45;&gt;Node9</title>
<path fill="none" stroke="midnightblue" d="M136.54,-303.5C128.14,-303.5 119.61,-303.5 111.4,-303.5"/>
<polygon fill="midnightblue" stroke="midnightblue" points="136.68,-307 146.68,-303.5 136.68,-300 136.68,-307"/>
</g>
<!-- Node11 -->
<g id="node11" class="node">
<title>Node11</title>
<g id="a_node11"><a xlink:href="a01593.html#a188755c8cda27e2afb03c016c14125d8" target="_top" xlink:title=" ">
<polygon fill="white" stroke="black" points="0,-239.5 0,-269.5 111,-269.5 111,-239.5 0,-239.5"/>
<text text-anchor="start" x="8" y="-257.5" font-family="Helvetica,sans-Serif" font-size="10.00">nlohmann::basic_json</text>
<text text-anchor="middle" x="55.5" y="-246.5" font-family="Helvetica,sans-Serif" font-size="10.00">::from_cbor</text>
</a>
</g>
</g>
<!-- Node10&#45;&gt;Node11 -->
<g id="edge12" class="edge">
<title>Node10&#45;&gt;Node11</title>
<path fill="none" stroke="midnightblue" d="M136.54,-254.5C128.14,-254.5 119.61,-254.5 111.4,-254.5"/>
<polygon fill="midnightblue" stroke="midnightblue" points="136.68,-258 146.68,-254.5 136.68,-251 136.68,-258"/>
</g>
<!-- Node13 -->
<g id="node13" class="node">
<title>Node13</title>
<g id="a_node13"><a xlink:href="a01593.html#a0d69d3102639759d5202a6f764760d23" target="_top" xlink:title=" ">
<polygon fill="white" stroke="black" points="0,-190.5 0,-220.5 111,-220.5 111,-190.5 0,-190.5"/>
<text text-anchor="start" x="8" y="-208.5" font-family="Helvetica,sans-Serif" font-size="10.00">nlohmann::basic_json</text>
<text text-anchor="middle" x="55.5" y="-197.5" font-family="Helvetica,sans-Serif" font-size="10.00">::from_msgpack</text>
</a>
</g>
</g>
<!-- Node12&#45;&gt;Node13 -->
<g id="edge14" class="edge">
<title>Node12&#45;&gt;Node13</title>
<path fill="none" stroke="midnightblue" d="M136.54,-205.5C128.14,-205.5 119.61,-205.5 111.4,-205.5"/>
<polygon fill="midnightblue" stroke="midnightblue" points="136.68,-209 146.68,-205.5 136.68,-202 136.68,-209"/>
</g>
<!-- Node15 -->
<g id="node15" class="node">
<title>Node15</title>
<g id="a_node15"><a xlink:href="a01593.html#ab6eeda23c34cee79d8d72f1a8691a8de" target="_top" xlink:title=" ">
<polygon fill="white" stroke="black" points="0,-141.5 0,-171.5 111,-171.5 111,-141.5 0,-141.5"/>
<text text-anchor="start" x="8" y="-159.5" font-family="Helvetica,sans-Serif" font-size="10.00">nlohmann::basic_json</text>
<text text-anchor="middle" x="55.5" y="-148.5" font-family="Helvetica,sans-Serif" font-size="10.00">::from_ubjson</text>
</a>
</g>
</g>
<!-- Node14&#45;&gt;Node15 -->
<g id="edge16" class="edge">
<title>Node14&#45;&gt;Node15</title>
<path fill="none" stroke="midnightblue" d="M136.54,-156.5C128.14,-156.5 119.61,-156.5 111.4,-156.5"/>
<polygon fill="midnightblue" stroke="midnightblue" points="136.68,-160 146.68,-156.5 136.68,-153 136.68,-160"/>
</g>
<!-- Node17&#45;&gt;Node17 -->
<g id="edge26" class="edge">
<title>Node17&#45;&gt;Node17</title>
<path fill="none" stroke="midnightblue" d="M1125,-232.96C1121.34,-237.68 1111.5,-241 1095.5,-241 1069.24,-241 1059.6,-232.06 1066.57,-222.66"/>
<polygon fill="midnightblue" stroke="midnightblue" points="1128.47,-232.45 1124.43,-222.66 1121.48,-232.84 1128.47,-232.45"/>
</g>
<!-- Node18 -->
<g id="node18" class="node">
<title>Node18</title>
<g id="a_node18"><a xlink:href="a01929.html#a47092a2195bf9cd3cdb4dda67cc404ed" target="_top" xlink:title=" ">
<polygon fill="white" stroke="black" points="853.5,-190.5 853.5,-220.5 977.5,-220.5 977.5,-190.5 853.5,-190.5"/>
<text text-anchor="start" x="861.5" y="-208.5" font-family="Helvetica,sans-Serif" font-size="10.00">nlohmann::detail::binary</text>
<text text-anchor="middle" x="915.5" y="-197.5" font-family="Helvetica,sans-Serif" font-size="10.00">_reader::get_cbor_object</text>
</a>
</g>
</g>
<!-- Node17&#45;&gt;Node18 -->
<g id="edge19" class="edge">
<title>Node17&#45;&gt;Node18</title>
<path fill="none" stroke="midnightblue" d="M1023.8,-206.71C1008.52,-206.53 992.49,-206.35 977.61,-206.19"/>
<polygon fill="midnightblue" stroke="midnightblue" points="1024.2,-210.21 1034.24,-206.82 1024.28,-203.21 1024.2,-210.21"/>
</g>
<!-- Node19 -->
<g id="node19" class="node">
<title>Node19</title>
<g id="a_node19"><a xlink:href="a01929.html#a4e4accd5a2a41bfb2f18a8a0fcc9421c" target="_top" xlink:title=" ">
<polygon fill="white" stroke="black" points="655.5,-190.5 655.5,-220.5 795.5,-220.5 795.5,-190.5 655.5,-190.5"/>
<text text-anchor="start" x="663.5" y="-208.5" font-family="Helvetica,sans-Serif" font-size="10.00">nlohmann::detail::binary</text>
<text text-anchor="middle" x="725.5" y="-197.5" font-family="Helvetica,sans-Serif" font-size="10.00">_reader::parse_cbor_internal</text>
</a>
</g>
</g>
<!-- Node17&#45;&gt;Node19 -->
<g id="edge27" class="edge">
<title>Node17&#45;&gt;Node19</title>
<path fill="none" stroke="midnightblue" d="M1025.81,-224.57C1013.3,-227.04 1000.32,-229.19 988,-230.5 923.92,-237.34 907.08,-237.3 843,-230.5 823.87,-228.47 803.26,-224.62 784.78,-220.53"/>
<polygon fill="midnightblue" stroke="midnightblue" points="1026.62,-227.98 1035.71,-222.53 1025.21,-221.12 1026.62,-227.98"/>
</g>
<!-- Node18&#45;&gt;Node19 -->
<g id="edge20" class="edge">
<title>Node18&#45;&gt;Node19</title>
<path fill="none" stroke="midnightblue" d="M843.35,-198.93C827.74,-198.68 811.24,-198.69 795.71,-198.96"/>
<polygon fill="midnightblue" stroke="midnightblue" points="843.39,-202.43 853.46,-199.13 843.53,-195.43 843.39,-202.43"/>
</g>
<!-- Node19&#45;&gt;Node7 -->
<g id="edge25" class="edge">
<title>Node19&#45;&gt;Node7</title>
<path fill="none" stroke="midnightblue" d="M656.07,-222.7C640.38,-225.94 623.69,-228.84 608,-230.5 542.15,-237.49 524.72,-238.63 459,-230.5 442.56,-228.47 424.93,-224.61 409.15,-220.53"/>
<polygon fill="midnightblue" stroke="midnightblue" points="657.17,-226.04 666.22,-220.53 655.71,-219.2 657.17,-226.04"/>
</g>
<!-- Node19&#45;&gt;Node18 -->
<g id="edge23" class="edge">
<title>Node19&#45;&gt;Node18</title>
<path fill="none" stroke="midnightblue" d="M806.03,-212.18C821.9,-212.34 838.33,-212.23 853.46,-211.87"/>
<polygon fill="midnightblue" stroke="midnightblue" points="805.75,-208.67 795.71,-212.04 805.66,-215.67 805.75,-208.67"/>
</g>
<!-- Node19&#45;&gt;Node19 -->
<g id="edge24" class="edge">
<title>Node19&#45;&gt;Node19</title>
<path fill="none" stroke="midnightblue" d="M759.26,-230.96C755.07,-235.68 743.82,-239 725.5,-239 695.44,-239 684.4,-230.06 692.39,-220.66"/>
<polygon fill="midnightblue" stroke="midnightblue" points="762.73,-230.42 758.61,-220.66 755.75,-230.86 762.73,-230.42"/>
</g>
<!-- Node20 -->
<g id="node20" class="node">
<title>Node20</title>
<g id="a_node20"><a xlink:href="a01929.html#a3750658328bf3ec3cf23f1626f9ec3af" target="_top" xlink:title=" ">
<polygon fill="white" stroke="black" points="473.5,-190.5 473.5,-220.5 593.5,-220.5 593.5,-190.5 473.5,-190.5"/>
<text text-anchor="start" x="481.5" y="-208.5" font-family="Helvetica,sans-Serif" font-size="10.00">nlohmann::detail::binary</text>
<text text-anchor="middle" x="533.5" y="-197.5" font-family="Helvetica,sans-Serif" font-size="10.00">_reader::get_cbor_array</text>
</a>
</g>
</g>
<!-- Node19&#45;&gt;Node20 -->
<g id="edge21" class="edge">
<title>Node19&#45;&gt;Node20</title>
<path fill="none" stroke="midnightblue" d="M645.27,-198.83C627.96,-198.65 609.92,-198.77 593.56,-199.2"/>
<polygon fill="midnightblue" stroke="midnightblue" points="645.32,-202.33 655.37,-198.98 645.42,-195.34 645.32,-202.33"/>
</g>
<!-- Node20&#45;&gt;Node19 -->
<g id="edge22" class="edge">
<title>Node20&#45;&gt;Node19</title>
<path fill="none" stroke="midnightblue" d="M603.84,-212.03C620.64,-212.33 638.59,-212.32 655.37,-212.02"/>
<polygon fill="midnightblue" stroke="midnightblue" points="603.63,-208.52 593.56,-211.8 603.48,-215.52 603.63,-208.52"/>
</g>
<!-- Node22 -->
<g id="node22" class="node">
<title>Node22</title>
<g id="a_node22"><a xlink:href="a01929.html#a8bebd21ceef09b6b2562e87861832700" target="_top" xlink:title=" ">
<polygon fill="white" stroke="black" points="843,-102.5 843,-132.5 988,-132.5 988,-102.5 843,-102.5"/>
<text text-anchor="start" x="851" y="-120.5" font-family="Helvetica,sans-Serif" font-size="10.00">nlohmann::detail::binary</text>
<text text-anchor="middle" x="915.5" y="-109.5" font-family="Helvetica,sans-Serif" font-size="10.00">_reader::get_msgpack_object</text>
</a>
</g>
</g>
<!-- Node21&#45;&gt;Node22 -->
<g id="edge29" class="edge">
<title>Node21&#45;&gt;Node22</title>
<path fill="none" stroke="midnightblue" d="M1019.32,-141.18C1006.83,-138.31 993.98,-135.35 981.76,-132.53"/>
<polygon fill="midnightblue" stroke="midnightblue" points="1018.7,-144.63 1029.23,-143.47 1020.27,-137.81 1018.7,-144.63"/>
</g>
<!-- Node23 -->
<g id="node23" class="node">
<title>Node23</title>
<g id="a_node23"><a xlink:href="a01929.html#ae020385ce9424271d61f85d3842c02cb" target="_top" xlink:title=" ">
<polygon fill="white" stroke="black" points="663.5,-97 663.5,-138 787.5,-138 787.5,-97 663.5,-97"/>
<text text-anchor="start" x="671.5" y="-126" font-family="Helvetica,sans-Serif" font-size="10.00">nlohmann::detail::binary</text>
<text text-anchor="start" x="671.5" y="-115" font-family="Helvetica,sans-Serif" font-size="10.00">_reader::parse_msgpack</text>
<text text-anchor="middle" x="725.5" y="-104" font-family="Helvetica,sans-Serif" font-size="10.00">_internal</text>
</a>
</g>
</g>
<!-- Node21&#45;&gt;Node23 -->
<g id="edge35" class="edge">
<title>Node21&#45;&gt;Node23</title>
<path fill="none" stroke="midnightblue" d="M1013.75,-156.4C964.28,-154.36 899.76,-150.35 843,-142.5 824.87,-139.99 805.35,-136.23 787.57,-132.38"/>
<polygon fill="midnightblue" stroke="midnightblue" points="1013.63,-159.9 1023.76,-156.79 1013.9,-152.9 1013.63,-159.9"/>
</g>
<!-- Node22&#45;&gt;Node23 -->
<g id="edge30" class="edge">
<title>Node22&#45;&gt;Node23</title>
<path fill="none" stroke="midnightblue" d="M832.57,-110.8C817.54,-110.68 802.09,-110.78 787.79,-111.13"/>
<polygon fill="midnightblue" stroke="midnightblue" points="832.85,-114.3 842.89,-110.92 832.93,-107.3 832.85,-114.3"/>
</g>
<!-- Node23&#45;&gt;Node7 -->
<g id="edge34" class="edge">
<title>Node23&#45;&gt;Node7</title>
<path fill="none" stroke="midnightblue" d="M653.61,-134.59C600.13,-147.48 524.96,-165.6 459,-181.5 445.96,-184.64 431.95,-188.02 418.69,-191.22"/>
<polygon fill="midnightblue" stroke="midnightblue" points="654.44,-137.99 663.34,-132.24 652.8,-131.18 654.44,-137.99"/>
</g>
<!-- Node23&#45;&gt;Node22 -->
<g id="edge33" class="edge">
<title>Node23&#45;&gt;Node22</title>
<path fill="none" stroke="midnightblue" d="M797.85,-124.07C812.6,-124.31 828.13,-124.31 842.89,-124.08"/>
<polygon fill="midnightblue" stroke="midnightblue" points="797.86,-120.57 787.79,-123.87 797.72,-127.57 797.86,-120.57"/>
</g>
<!-- Node24 -->
<g id="node24" class="node">
<title>Node24</title>
<g id="a_node24"><a xlink:href="a01929.html#a0ce1d7066597952efb008aaf578b2bd6" target="_top" xlink:title=" ">
<polygon fill="white" stroke="black" points="463.5,-102.5 463.5,-132.5 603.5,-132.5 603.5,-102.5 463.5,-102.5"/>
<text text-anchor="start" x="471.5" y="-120.5" font-family="Helvetica,sans-Serif" font-size="10.00">nlohmann::detail::binary</text>
<text text-anchor="middle" x="533.5" y="-109.5" font-family="Helvetica,sans-Serif" font-size="10.00">_reader::get_msgpack_array</text>
</a>
</g>
</g>
<!-- Node23&#45;&gt;Node24 -->
<g id="edge31" class="edge">
<title>Node23&#45;&gt;Node24</title>
<path fill="none" stroke="midnightblue" d="M652.92,-110.94C636.84,-110.68 619.79,-110.69 603.8,-110.97"/>
<polygon fill="midnightblue" stroke="midnightblue" points="653.27,-114.44 663.34,-111.15 653.41,-107.44 653.27,-114.44"/>
</g>
<!-- Node24&#45;&gt;Node23 -->
<g id="edge32" class="edge">
<title>Node24&#45;&gt;Node23</title>
<path fill="none" stroke="midnightblue" d="M613.97,-124.17C630.47,-124.34 647.62,-124.24 663.34,-123.85"/>
<polygon fill="midnightblue" stroke="midnightblue" points="613.85,-120.67 603.8,-124.03 613.75,-127.67 613.85,-120.67"/>
</g>
<!-- Node26 -->
<g id="node26" class="node">
<title>Node26</title>
<g id="a_node26"><a xlink:href="a01929.html#adcf64ad3207f4bf37a5a31c920a385c3" target="_top" xlink:title=" ">
<polygon fill="white" stroke="black" points="848.5,-53.5 848.5,-83.5 982.5,-83.5 982.5,-53.5 848.5,-53.5"/>
<text text-anchor="start" x="856.5" y="-71.5" font-family="Helvetica,sans-Serif" font-size="10.00">nlohmann::detail::binary</text>
<text text-anchor="middle" x="915.5" y="-60.5" font-family="Helvetica,sans-Serif" font-size="10.00">_reader::get_ubjson_object</text>
</a>
</g>
</g>
<!-- Node25&#45;&gt;Node26 -->
<g id="edge37" class="edge">
<title>Node25&#45;&gt;Node26</title>
<path fill="none" stroke="midnightblue" d="M1019.73,-68.5C1007.4,-68.5 994.69,-68.5 982.59,-68.5"/>
<polygon fill="midnightblue" stroke="midnightblue" points="1019.99,-72 1029.99,-68.5 1019.99,-65 1019.99,-72"/>
</g>
<!-- Node27 -->
<g id="node27" class="node">
<title>Node27</title>
<g id="a_node27"><a xlink:href="a01929.html#a7e5e0b71548d0649ce4f131280d06c33" target="_top" xlink:title=" ">
<polygon fill="white" stroke="black" points="661,-9.5 661,-39.5 790,-39.5 790,-9.5 661,-9.5"/>
<text text-anchor="start" x="669" y="-27.5" font-family="Helvetica,sans-Serif" font-size="10.00">nlohmann::detail::binary</text>
<text text-anchor="middle" x="725.5" y="-16.5" font-family="Helvetica,sans-Serif" font-size="10.00">_reader::get_ubjson_value</text>
</a>
</g>
</g>
<!-- Node25&#45;&gt;Node27 -->
<g id="edge46" class="edge">
<title>Node25&#45;&gt;Node27</title>
<path fill="none" stroke="midnightblue" d="M1027.96,-51.18C1014.79,-48.23 1001.02,-45.49 988,-43.5 920.95,-33.26 843.37,-28.5 790.22,-26.32"/>
<polygon fill="midnightblue" stroke="midnightblue" points="1027.37,-54.63 1037.9,-53.46 1028.93,-47.81 1027.37,-54.63"/>
</g>
<!-- Node26&#45;&gt;Node27 -->
<g id="edge38" class="edge">
<title>Node26&#45;&gt;Node27</title>
<path fill="none" stroke="midnightblue" d="M864.36,-50.72C841.55,-44.59 814.29,-38.09 790.06,-32.95"/>
<polygon fill="midnightblue" stroke="midnightblue" points="863.6,-54.14 874.17,-53.4 865.45,-47.39 863.6,-54.14"/>
</g>
<!-- Node27&#45;&gt;Node26 -->
<g id="edge41" class="edge">
<title>Node27&#45;&gt;Node26</title>
<path fill="none" stroke="midnightblue" d="M776.45,-42.23C798.53,-48.17 824.81,-54.46 848.48,-59.53"/>
<polygon fill="midnightblue" stroke="midnightblue" points="777.19,-38.81 766.62,-39.54 775.34,-45.56 777.19,-38.81"/>
</g>
<!-- Node28 -->
<g id="node28" class="node">
<title>Node28</title>
<g id="a_node28"><a xlink:href="a01929.html#afb36cb588b795efa513fc95e949493b7" target="_top" xlink:title=" ">
<polygon fill="white" stroke="black" points="294,-0.5 294,-30.5 423,-30.5 423,-0.5 294,-0.5"/>
<text text-anchor="start" x="302" y="-18.5" font-family="Helvetica,sans-Serif" font-size="10.00">nlohmann::detail::binary</text>
<text text-anchor="middle" x="358.5" y="-7.5" font-family="Helvetica,sans-Serif" font-size="10.00">_reader::get_ubjson_array</text>
</a>
</g>
</g>
<!-- Node27&#45;&gt;Node28 -->
<g id="edge39" class="edge">
<title>Node27&#45;&gt;Node28</title>
<path fill="none" stroke="midnightblue" d="M650.89,-17.14C584.15,-13.8 486.77,-11.49 423.27,-11.8"/>
<polygon fill="midnightblue" stroke="midnightblue" points="650.75,-20.64 660.92,-17.67 651.12,-13.65 650.75,-20.64"/>
</g>
<!-- Node29 -->
<g id="node29" class="node">
<title>Node29</title>
<g id="a_node29"><a xlink:href="a01929.html#a5a79480d661019b0f3fc615ae12f7de7" target="_top" xlink:title=" ">
<polygon fill="white" stroke="black" points="459,-53.5 459,-83.5 608,-83.5 608,-53.5 459,-53.5"/>
<text text-anchor="start" x="467" y="-71.5" font-family="Helvetica,sans-Serif" font-size="10.00">nlohmann::detail::binary</text>
<text text-anchor="middle" x="533.5" y="-60.5" font-family="Helvetica,sans-Serif" font-size="10.00">_reader::parse_ubjson_internal</text>
</a>
</g>
</g>
<!-- Node27&#45;&gt;Node29 -->
<g id="edge42" class="edge">
<title>Node27&#45;&gt;Node29</title>
<path fill="none" stroke="midnightblue" d="M651.1,-41.5C634.13,-45.43 616.18,-49.58 599.59,-53.43"/>
<polygon fill="midnightblue" stroke="midnightblue" points="652.02,-44.88 660.97,-39.21 650.44,-38.06 652.02,-44.88"/>
</g>
<!-- Node28&#45;&gt;Node27 -->
<g id="edge40" class="edge">
<title>Node28&#45;&gt;Node27</title>
<path fill="none" stroke="midnightblue" d="M433.31,-22.87C500.11,-26.21 597.49,-28.51 660.92,-28.2"/>
<polygon fill="midnightblue" stroke="midnightblue" points="433.44,-19.37 423.27,-22.34 433.07,-26.36 433.44,-19.37"/>
</g>
<!-- Node29&#45;&gt;Node7 -->
<g id="edge45" class="edge">
<title>Node29&#45;&gt;Node7</title>
<path fill="none" stroke="midnightblue" d="M468.3,-88.03C465.07,-89.72 461.95,-91.54 459,-93.5 419.13,-119.97 385.17,-166.25 369.22,-190.19"/>
<polygon fill="midnightblue" stroke="midnightblue" points="470.08,-91.06 477.61,-83.6 467.07,-84.74 470.08,-91.06"/>
</g>
<!-- Node29&#45;&gt;Node26 -->
<g id="edge44" class="edge">
<title>Node29&#45;&gt;Node26</title>
<path fill="none" stroke="midnightblue" d="M618.05,-68.5C687.28,-68.5 784.37,-68.5 848.31,-68.5"/>
<polygon fill="midnightblue" stroke="midnightblue" points="618.04,-65 608.04,-68.5 618.04,-72 618.04,-65"/>
</g>
<!-- Node29&#45;&gt;Node28 -->
<g id="edge43" class="edge">
<title>Node29&#45;&gt;Node28</title>
<path fill="none" stroke="midnightblue" d="M473.57,-50.45C452.47,-43.98 428.93,-36.77 408.73,-30.58"/>
<polygon fill="midnightblue" stroke="midnightblue" points="472.8,-53.87 483.39,-53.45 474.85,-47.18 472.8,-53.87"/>
</g>
</g>
</svg>
