<?xml version="1.0" encoding="UTF-8" standalone="no"?>
<!DOCTYPE svg PUBLIC "-//W3C//DTD SVG 1.1//EN"
 "http://www.w3.org/Graphics/SVG/1.1/DTD/svg11.dtd">
<!-- Generated by graphviz version 7.0.2 (20221119.0110)
 -->
<!-- Title: nlohmann::detail::binary_writer::write_bson_object Pages: 1 -->
<svg width="663pt" height="107pt"
 viewBox="0.00 0.00 663.00 107.00" xmlns="http://www.w3.org/2000/svg" xmlns:xlink="http://www.w3.org/1999/xlink">
<g id="graph0" class="graph" transform="scale(1 1) rotate(0) translate(4 103)">
<title>nlohmann::detail::binary_writer::write_bson_object</title>
<!-- Node1 -->
<g id="node1" class="node">
<title>Node1</title>
<g id="a_node1"><a xlink:title=" ">
<polygon fill="#999999" stroke="#666666" points="655,-51 526,-51 526,-21 655,-21 655,-51"/>
<text text-anchor="start" x="534" y="-39" font-family="Helvetica,sans-Serif" font-size="10.00">nlohmann::detail::binary</text>
<text text-anchor="middle" x="590.5" y="-28" font-family="Helvetica,sans-Serif" font-size="10.00">_writer::write_bson_object</text>
</a>
</g>
</g>
<!-- Node2 -->
<g id="node2" class="node">
<title>Node2</title>
<g id="a_node2"><a xlink:href="a01973.html#a9ffc566db5219b473762462234b47db9" target="_top" xlink:title=" ">
<polygon fill="white" stroke="#666666" points="472,-99 352,-99 352,-69 472,-69 472,-99"/>
<text text-anchor="start" x="360" y="-87" font-family="Helvetica,sans-Serif" font-size="10.00">nlohmann::detail::binary</text>
<text text-anchor="middle" x="412" y="-76" font-family="Helvetica,sans-Serif" font-size="10.00">_writer::write_bson</text>
</a>
</g>
</g>
<!-- Node1&#45;&gt;Node2 -->
<g id="edge1" class="edge">
<title>Node1&#45;&gt;Node2</title>
<path fill="none" stroke="#63b8ff" d="M521.6,-54.46C504.46,-59.13 486.24,-64.08 469.71,-68.58"/>
<polygon fill="#63b8ff" stroke="#63b8ff" points="522.49,-57.85 531.22,-51.85 520.65,-51.1 522.49,-57.85"/>
</g>
<!-- Node4 -->
<g id="node4" class="node">
<title>Node4</title>
<g id="a_node4"><a xlink:href="a01973.html#a6231302930265eccb3f56c378f7b0661" target="_top" xlink:title="Writes a BSON element with key name and object value.">
<polygon fill="white" stroke="#666666" points="490,-51 334,-51 334,-21 490,-21 490,-51"/>
<text text-anchor="start" x="342" y="-39" font-family="Helvetica,sans-Serif" font-size="10.00">nlohmann::detail::binary</text>
<text text-anchor="middle" x="412" y="-28" font-family="Helvetica,sans-Serif" font-size="10.00">_writer::write_bson_object_entry</text>
</a>
</g>
</g>
<!-- Node1&#45;&gt;Node4 -->
<g id="edge3" class="edge">
<title>Node1&#45;&gt;Node4</title>
<path fill="none" stroke="#63b8ff" d="M514.1,-36C506.22,-36 498.19,-36 490.28,-36"/>
<polygon fill="#63b8ff" stroke="#63b8ff" points="514.02,-39.5 524.02,-36 514.02,-32.5 514.02,-39.5"/>
</g>
<!-- Node3 -->
<g id="node3" class="node">
<title>Node3</title>
<g id="a_node3"><a xlink:href="a01593.html#a668e4c2ad9808218a25879700f4aef2b" target="_top" xlink:title="Serializes the given JSON object j to BSON and forwards the corresponding BSON&#45;representation to the ...">
<polygon fill="white" stroke="#666666" points="285,-99 174,-99 174,-69 285,-69 285,-99"/>
<text text-anchor="start" x="182" y="-87" font-family="Helvetica,sans-Serif" font-size="10.00">nlohmann::basic_json</text>
<text text-anchor="middle" x="229.5" y="-76" font-family="Helvetica,sans-Serif" font-size="10.00">::to_bson</text>
</a>
</g>
</g>
<!-- Node2&#45;&gt;Node3 -->
<g id="edge2" class="edge">
<title>Node2&#45;&gt;Node3</title>
<path fill="none" stroke="#63b8ff" d="M340.16,-84C321.93,-84 302.59,-84 285.31,-84"/>
<polygon fill="#63b8ff" stroke="#63b8ff" points="340.13,-87.5 350.13,-84 340.13,-80.5 340.13,-87.5"/>
</g>
<!-- Node5 -->
<g id="node5" class="node">
<title>Node5</title>
<g id="a_node5"><a xlink:href="a01973.html#a7ff58bf1a80018148bed860667ffca07" target="_top" xlink:title="Serializes the JSON value j to BSON and associates it with the key name.">
<polygon fill="white" stroke="#666666" points="298,-30 161,-30 161,0 298,0 298,-30"/>
<text text-anchor="start" x="169" y="-18" font-family="Helvetica,sans-Serif" font-size="10.00">nlohmann::detail::binary</text>
<text text-anchor="middle" x="229.5" y="-7" font-family="Helvetica,sans-Serif" font-size="10.00">_writer::write_bson_element</text>
</a>
</g>
</g>
<!-- Node4&#45;&gt;Node5 -->
<g id="edge4" class="edge">
<title>Node4&#45;&gt;Node5</title>
<path fill="none" stroke="#63b8ff" d="M322.29,-25.68C314.22,-24.74 306.13,-23.8 298.28,-22.89"/>
<polygon fill="#63b8ff" stroke="#63b8ff" points="321.83,-29.15 332.16,-26.83 322.63,-22.2 321.83,-29.15"/>
</g>
<!-- Node5&#45;&gt;Node1 -->
<g id="edge7" class="edge">
<title>Node5&#45;&gt;Node1</title>
<path fill="none" stroke="#63b8ff" d="M309.63,-8.78C361.18,-6.04 429.79,-4.84 490,-12 504.91,-13.77 520.82,-16.99 535.44,-20.51"/>
<polygon fill="#63b8ff" stroke="#63b8ff" points="309.53,-5.28 299.75,-9.34 309.93,-12.27 309.53,-5.28"/>
</g>
<!-- Node6 -->
<g id="node6" class="node">
<title>Node6</title>
<g id="a_node6"><a xlink:href="a01973.html#a025212bd170253638b9f05b3b6aa5bf9" target="_top" xlink:title="Writes a BSON element with key name and array value.">
<polygon fill="white" stroke="#666666" points="125,-30 0,-30 0,0 125,0 125,-30"/>
<text text-anchor="start" x="8" y="-18" font-family="Helvetica,sans-Serif" font-size="10.00">nlohmann::detail::binary</text>
<text text-anchor="middle" x="62.5" y="-7" font-family="Helvetica,sans-Serif" font-size="10.00">_writer::write_bson_array</text>
</a>
</g>
</g>
<!-- Node5&#45;&gt;Node6 -->
<g id="edge5" class="edge">
<title>Node5&#45;&gt;Node6</title>
<path fill="none" stroke="#63b8ff" d="M149.53,-8.26C141.43,-8.23 133.29,-8.29 125.41,-8.44"/>
<polygon fill="#63b8ff" stroke="#63b8ff" points="149.37,-11.75 159.4,-8.34 149.43,-4.75 149.37,-11.75"/>
</g>
<!-- Node6&#45;&gt;Node5 -->
<g id="edge6" class="edge">
<title>Node6&#45;&gt;Node5</title>
<path fill="none" stroke="#63b8ff" d="M136.69,-21.71C144.75,-21.78 152.93,-21.76 160.91,-21.65"/>
<polygon fill="#63b8ff" stroke="#63b8ff" points="136.97,-18.22 126.93,-21.58 136.88,-25.21 136.97,-18.22"/>
</g>
</g>
</svg>
