<?xml version="1.0" encoding="UTF-8" standalone="no"?>
<!DOCTYPE svg PUBLIC "-//W3C//DTD SVG 1.1//EN"
 "http://www.w3.org/Graphics/SVG/1.1/DTD/svg11.dtd">
<!-- Generated by graphviz version 2.43.0 (0)
 -->
<!-- Title: nlohmann::detail::binary_reader::get_token_string Pages: 1 -->
<svg width="1668pt" height="589pt"
 viewBox="0.00 0.00 1668.00 589.40" xmlns="http://www.w3.org/2000/svg" xmlns:xlink="http://www.w3.org/1999/xlink">
<g id="graph0" class="graph" transform="scale(1 1) rotate(0) translate(4 585.4)">
<title>nlohmann::detail::binary_reader::get_token_string</title>
<polygon fill="white" stroke="transparent" points="-4,4 -4,-585.4 1664,-585.4 1664,4 -4,4"/>
<!-- Node1 -->
<g id="node1" class="node">
<title>Node1</title>
<g id="a_node1"><a xlink:title=" ">
<polygon fill="#bfbfbf" stroke="black" points="1520,-281.9 1520,-311.9 1660,-311.9 1660,-281.9 1520,-281.9"/>
<text text-anchor="start" x="1528" y="-299.9" font-family="Helvetica,sans-Serif" font-size="10.00">nlohmann::detail::binary</text>
<text text-anchor="middle" x="1590" y="-288.9" font-family="Helvetica,sans-Serif" font-size="10.00">_reader::get_token_string</text>
</a>
</g>
</g>
<!-- Node2 -->
<g id="node2" class="node">
<title>Node2</title>
<g id="a_node2"><a xlink:href="a01941.html#a9940f56290b9278c58772eda2931e599" target="_top" xlink:title="Parses a byte array input of length len from the BSON input.">
<polygon fill="white" stroke="black" points="1329,-534.9 1329,-564.9 1469,-564.9 1469,-534.9 1329,-534.9"/>
<text text-anchor="start" x="1337" y="-552.9" font-family="Helvetica,sans-Serif" font-size="10.00">nlohmann::detail::binary</text>
<text text-anchor="middle" x="1399" y="-541.9" font-family="Helvetica,sans-Serif" font-size="10.00">_reader::get_bson_binary</text>
</a>
</g>
</g>
<!-- Node1&#45;&gt;Node2 -->
<g id="edge1" class="edge">
<title>Node1&#45;&gt;Node2</title>
<path fill="none" stroke="midnightblue" d="M1584.61,-322.05C1575.06,-369.2 1547.87,-471.05 1484,-525.9 1479.51,-529.76 1474.44,-532.99 1469.07,-535.71"/>
<polygon fill="midnightblue" stroke="midnightblue" points="1588.08,-322.56 1586.54,-312.08 1581.21,-321.24 1588.08,-322.56"/>
</g>
<!-- Node7 -->
<g id="node7" class="node">
<title>Node7</title>
<g id="a_node7"><a xlink:href="a01941.html#ab4afd9ee276bbb15a0f898061aad94dd" target="_top" xlink:title=" ">
<polygon fill="white" stroke="black" points="322,-403.9 322,-433.9 458,-433.9 458,-403.9 322,-403.9"/>
<text text-anchor="start" x="330" y="-421.9" font-family="Helvetica,sans-Serif" font-size="10.00">nlohmann::detail::binary</text>
<text text-anchor="middle" x="390" y="-410.9" font-family="Helvetica,sans-Serif" font-size="10.00">_reader::sax_parse</text>
</a>
</g>
</g>
<!-- Node1&#45;&gt;Node7 -->
<g id="edge59" class="edge">
<title>Node1&#45;&gt;Node7</title>
<path fill="none" stroke="midnightblue" d="M1578.23,-321.59C1562.65,-353.96 1530.49,-409.6 1484,-434.9 1371.64,-496.06 1324.93,-456.9 1197,-456.9 1197,-456.9 1197,-456.9 781,-456.9 667.22,-456.9 535.65,-440.68 458.09,-429.44"/>
<polygon fill="midnightblue" stroke="midnightblue" points="1581.49,-322.89 1582.53,-312.35 1575.14,-319.94 1581.49,-322.89"/>
</g>
<!-- Node17 -->
<g id="node17" class="node">
<title>Node17</title>
<g id="a_node17"><a xlink:href="a01941.html#a23921422802aa472360dd05023e20565" target="_top" xlink:title="Parses a zero&#45;terminated string of length len from the BSON input.">
<polygon fill="white" stroke="black" points="1330.5,-485.9 1330.5,-515.9 1467.5,-515.9 1467.5,-485.9 1330.5,-485.9"/>
<text text-anchor="start" x="1338.5" y="-503.9" font-family="Helvetica,sans-Serif" font-size="10.00">nlohmann::detail::binary</text>
<text text-anchor="middle" x="1399" y="-492.9" font-family="Helvetica,sans-Serif" font-size="10.00">_reader::get_bson_string</text>
</a>
</g>
</g>
<!-- Node1&#45;&gt;Node17 -->
<g id="edge18" class="edge">
<title>Node1&#45;&gt;Node17</title>
<path fill="none" stroke="midnightblue" d="M1580.3,-321.7C1565.93,-359.18 1533.81,-430.17 1484,-470.9 1476.57,-476.98 1467.81,-481.87 1458.8,-485.8"/>
<polygon fill="midnightblue" stroke="midnightblue" points="1583.67,-322.67 1583.88,-312.08 1577.11,-320.23 1583.67,-322.67"/>
</g>
<!-- Node18 -->
<g id="node18" class="node">
<title>Node18</title>
<g id="a_node18"><a xlink:href="a01941.html#acb001d18095dc5bcf7336ae5122b8340" target="_top" xlink:title="reads a CBOR byte array">
<polygon fill="white" stroke="black" points="1330.5,-394.9 1330.5,-424.9 1467.5,-424.9 1467.5,-394.9 1330.5,-394.9"/>
<text text-anchor="start" x="1338.5" y="-412.9" font-family="Helvetica,sans-Serif" font-size="10.00">nlohmann::detail::binary</text>
<text text-anchor="middle" x="1399" y="-401.9" font-family="Helvetica,sans-Serif" font-size="10.00">_reader::get_cbor_binary</text>
</a>
</g>
</g>
<!-- Node1&#45;&gt;Node18 -->
<g id="edge20" class="edge">
<title>Node1&#45;&gt;Node18</title>
<path fill="none" stroke="midnightblue" d="M1565.97,-318.77C1545.69,-337.09 1514.68,-362.9 1484,-379.9 1473.57,-385.68 1461.82,-390.7 1450.48,-394.89"/>
<polygon fill="midnightblue" stroke="midnightblue" points="1568.45,-321.24 1573.45,-311.91 1563.72,-316.09 1568.45,-321.24"/>
</g>
<!-- Node19 -->
<g id="node19" class="node">
<title>Node19</title>
<g id="a_node19"><a xlink:href="a01941.html#a4e4accd5a2a41bfb2f18a8a0fcc9421c" target="_top" xlink:title=" ">
<polygon fill="white" stroke="black" points="1118.5,-381.9 1118.5,-411.9 1273.5,-411.9 1273.5,-381.9 1118.5,-381.9"/>
<text text-anchor="start" x="1126.5" y="-399.9" font-family="Helvetica,sans-Serif" font-size="10.00">nlohmann::detail::binary</text>
<text text-anchor="middle" x="1196" y="-388.9" font-family="Helvetica,sans-Serif" font-size="10.00">_reader::parse_cbor_internal</text>
</a>
</g>
</g>
<!-- Node1&#45;&gt;Node19 -->
<g id="edge57" class="edge">
<title>Node1&#45;&gt;Node19</title>
<path fill="none" stroke="midnightblue" d="M1552.75,-316.69C1532.94,-326.75 1507.68,-338.41 1484,-345.9 1414.4,-367.91 1332.11,-381.31 1273.53,-388.81"/>
<polygon fill="midnightblue" stroke="midnightblue" points="1554.44,-319.75 1561.72,-312.05 1551.23,-313.53 1554.44,-319.75"/>
</g>
<!-- Node22 -->
<g id="node22" class="node">
<title>Node22</title>
<g id="a_node22"><a xlink:href="a01941.html#a545a44ae4b3fa2b7a61d9e8517fb7154" target="_top" xlink:title="reads a CBOR string">
<polygon fill="white" stroke="black" points="1331,-306.9 1331,-336.9 1467,-336.9 1467,-306.9 1331,-306.9"/>
<text text-anchor="start" x="1339" y="-324.9" font-family="Helvetica,sans-Serif" font-size="10.00">nlohmann::detail::binary</text>
<text text-anchor="middle" x="1399" y="-313.9" font-family="Helvetica,sans-Serif" font-size="10.00">_reader::get_cbor_string</text>
</a>
</g>
</g>
<!-- Node1&#45;&gt;Node22 -->
<g id="edge27" class="edge">
<title>Node1&#45;&gt;Node22</title>
<path fill="none" stroke="midnightblue" d="M1509.77,-307.38C1495.64,-309.25 1481.03,-311.18 1467.27,-313"/>
<polygon fill="midnightblue" stroke="midnightblue" points="1510.51,-310.81 1519.96,-306.03 1509.59,-303.87 1510.51,-310.81"/>
</g>
<!-- Node23 -->
<g id="node23" class="node">
<title>Node23</title>
<g id="a_node23"><a xlink:href="a01941.html#ad8cba5585327caa550dd5b6dd25a64f8" target="_top" xlink:title="reads a MessagePack string">
<polygon fill="white" stroke="black" points="1320,-257.9 1320,-287.9 1478,-287.9 1478,-257.9 1320,-257.9"/>
<text text-anchor="start" x="1328" y="-275.9" font-family="Helvetica,sans-Serif" font-size="10.00">nlohmann::detail::binary</text>
<text text-anchor="middle" x="1399" y="-264.9" font-family="Helvetica,sans-Serif" font-size="10.00">_reader::get_msgpack_string</text>
</a>
</g>
</g>
<!-- Node1&#45;&gt;Node23 -->
<g id="edge30" class="edge">
<title>Node1&#45;&gt;Node23</title>
<path fill="none" stroke="midnightblue" d="M1509.96,-286.87C1499.43,-285.53 1488.64,-284.16 1478.12,-282.82"/>
<polygon fill="midnightblue" stroke="midnightblue" points="1509.6,-290.35 1519.96,-288.13 1510.48,-283.4 1509.6,-290.35"/>
</g>
<!-- Node25 -->
<g id="node25" class="node">
<title>Node25</title>
<g id="a_node25"><a xlink:href="a01941.html#ae020385ce9424271d61f85d3842c02cb" target="_top" xlink:title=" ">
<polygon fill="white" stroke="black" points="919.5,-250.4 919.5,-291.4 1055.5,-291.4 1055.5,-250.4 919.5,-250.4"/>
<text text-anchor="start" x="927.5" y="-279.4" font-family="Helvetica,sans-Serif" font-size="10.00">nlohmann::detail::binary</text>
<text text-anchor="start" x="927.5" y="-268.4" font-family="Helvetica,sans-Serif" font-size="10.00">_reader::parse_msgpack</text>
<text text-anchor="middle" x="987.5" y="-257.4" font-family="Helvetica,sans-Serif" font-size="10.00">_internal</text>
</a>
</g>
</g>
<!-- Node1&#45;&gt;Node25 -->
<g id="edge58" class="edge">
<title>Node1&#45;&gt;Node25</title>
<path fill="none" stroke="midnightblue" d="M1555.63,-276.83C1535.62,-265.97 1509.23,-253.63 1484,-247.9 1323.63,-211.51 1277.65,-229.76 1114,-245.9 1094.88,-247.79 1074.35,-251.25 1055.55,-255.02"/>
<polygon fill="midnightblue" stroke="midnightblue" points="1554.19,-280.04 1564.62,-281.85 1557.6,-273.93 1554.19,-280.04"/>
</g>
<!-- Node27 -->
<g id="node27" class="node">
<title>Node27</title>
<g id="a_node27"><a xlink:href="a01941.html#a7b6c2d4c95d56751e233e285a5f1fea7" target="_top" xlink:title="determine the type and size for a container">
<polygon fill="white" stroke="black" points="1114,-167.9 1114,-197.9 1278,-197.9 1278,-167.9 1114,-167.9"/>
<text text-anchor="start" x="1122" y="-185.9" font-family="Helvetica,sans-Serif" font-size="10.00">nlohmann::detail::binary</text>
<text text-anchor="middle" x="1196" y="-174.9" font-family="Helvetica,sans-Serif" font-size="10.00">_reader::get_ubjson_size_type</text>
</a>
</g>
</g>
<!-- Node1&#45;&gt;Node27 -->
<g id="edge38" class="edge">
<title>Node1&#45;&gt;Node27</title>
<path fill="none" stroke="midnightblue" d="M1568.3,-274.21C1548.7,-254.35 1517.37,-226.59 1484,-212.9 1418.3,-185.94 1337.37,-179.64 1278.21,-179.38"/>
<polygon fill="midnightblue" stroke="midnightblue" points="1566.01,-276.88 1575.47,-281.65 1571.05,-272.02 1566.01,-276.88"/>
</g>
<!-- Node29 -->
<g id="node29" class="node">
<title>Node29</title>
<g id="a_node29"><a xlink:href="a01941.html#a7e5e0b71548d0649ce4f131280d06c33" target="_top" xlink:title=" ">
<polygon fill="white" stroke="black" points="709.5,-96.9 709.5,-126.9 854.5,-126.9 854.5,-96.9 709.5,-96.9"/>
<text text-anchor="start" x="717.5" y="-114.9" font-family="Helvetica,sans-Serif" font-size="10.00">nlohmann::detail::binary</text>
<text text-anchor="middle" x="782" y="-103.9" font-family="Helvetica,sans-Serif" font-size="10.00">_reader::get_ubjson_value</text>
</a>
</g>
</g>
<!-- Node1&#45;&gt;Node29 -->
<g id="edge56" class="edge">
<title>Node1&#45;&gt;Node29</title>
<path fill="none" stroke="midnightblue" d="M1582.17,-272.13C1569.82,-232.5 1539.75,-155.7 1484,-119.9 1381.65,-54.17 1011.8,-86.2 854.55,-103.41"/>
<polygon fill="midnightblue" stroke="midnightblue" points="1578.85,-273.22 1585.06,-281.8 1585.55,-271.22 1578.85,-273.22"/>
</g>
<!-- Node32 -->
<g id="node32" class="node">
<title>Node32</title>
<g id="a_node32"><a xlink:href="a01941.html#aba7ba9ec9a52ad2bee8baff70176aa20" target="_top" xlink:title=" ">
<polygon fill="white" stroke="black" points="1314,-129.9 1314,-159.9 1484,-159.9 1484,-129.9 1314,-129.9"/>
<text text-anchor="start" x="1322" y="-147.9" font-family="Helvetica,sans-Serif" font-size="10.00">nlohmann::detail::binary</text>
<text text-anchor="middle" x="1399" y="-136.9" font-family="Helvetica,sans-Serif" font-size="10.00">_reader::get_ubjson_size_value</text>
</a>
</g>
</g>
<!-- Node1&#45;&gt;Node32 -->
<g id="edge49" class="edge">
<title>Node1&#45;&gt;Node32</title>
<path fill="none" stroke="midnightblue" d="M1574.03,-272.99C1555.83,-245.71 1522.71,-201.47 1484,-174.9 1475.32,-168.94 1465.32,-164.03 1455.32,-160.03"/>
<polygon fill="midnightblue" stroke="midnightblue" points="1571.22,-275.08 1579.62,-281.54 1577.08,-271.25 1571.22,-275.08"/>
</g>
<!-- Node34 -->
<g id="node34" class="node">
<title>Node34</title>
<g id="a_node34"><a xlink:href="a01941.html#a4ae90db51c102e912b7eac83c78733a6" target="_top" xlink:title="reads a UBJSON string">
<polygon fill="white" stroke="black" points="914.5,-19.9 914.5,-49.9 1060.5,-49.9 1060.5,-19.9 914.5,-19.9"/>
<text text-anchor="start" x="922.5" y="-37.9" font-family="Helvetica,sans-Serif" font-size="10.00">nlohmann::detail::binary</text>
<text text-anchor="middle" x="987.5" y="-26.9" font-family="Helvetica,sans-Serif" font-size="10.00">_reader::get_ubjson_string</text>
</a>
</g>
</g>
<!-- Node1&#45;&gt;Node34 -->
<g id="edge53" class="edge">
<title>Node1&#45;&gt;Node34</title>
<path fill="none" stroke="midnightblue" d="M1585.97,-271.46C1578.59,-222.04 1554.75,-113.63 1484,-64.9 1352.34,25.78 1151.32,0.8 1050.58,-19.84"/>
<polygon fill="midnightblue" stroke="midnightblue" points="1582.54,-272.19 1587.38,-281.61 1589.47,-271.23 1582.54,-272.19"/>
</g>
<!-- Node3 -->
<g id="node3" class="node">
<title>Node3</title>
<g id="a_node3"><a xlink:href="a01941.html#a23bde2450d7a5772bf5051e36ff560a4" target="_top" xlink:title="Read a BSON document element of the given element_type.">
<polygon fill="white" stroke="black" points="1115.5,-521.4 1115.5,-562.4 1276.5,-562.4 1276.5,-521.4 1115.5,-521.4"/>
<text text-anchor="start" x="1123.5" y="-550.4" font-family="Helvetica,sans-Serif" font-size="10.00">nlohmann::detail::binary</text>
<text text-anchor="start" x="1123.5" y="-539.4" font-family="Helvetica,sans-Serif" font-size="10.00">_reader::parse_bson_element</text>
<text text-anchor="middle" x="1196" y="-528.4" font-family="Helvetica,sans-Serif" font-size="10.00">_internal</text>
</a>
</g>
</g>
<!-- Node2&#45;&gt;Node3 -->
<g id="edge2" class="edge">
<title>Node2&#45;&gt;Node3</title>
<path fill="none" stroke="midnightblue" d="M1318.44,-546.73C1304.7,-546.19 1290.41,-545.62 1276.67,-545.07"/>
<polygon fill="midnightblue" stroke="midnightblue" points="1318.7,-550.25 1328.83,-547.15 1318.97,-543.25 1318.7,-550.25"/>
</g>
<!-- Node4 -->
<g id="node4" class="node">
<title>Node4</title>
<g id="a_node4"><a xlink:href="a01941.html#a4e07b75ccb2579d0e738b894f0fd8cf8" target="_top" xlink:title="Read a BSON element list (as specified in the BSON&#45;spec)">
<polygon fill="white" stroke="black" points="897,-526.9 897,-556.9 1078,-556.9 1078,-526.9 897,-526.9"/>
<text text-anchor="start" x="905" y="-544.9" font-family="Helvetica,sans-Serif" font-size="10.00">nlohmann::detail::binary</text>
<text text-anchor="middle" x="987.5" y="-533.9" font-family="Helvetica,sans-Serif" font-size="10.00">_reader::parse_bson_element_list</text>
</a>
</g>
</g>
<!-- Node3&#45;&gt;Node4 -->
<g id="edge3" class="edge">
<title>Node3&#45;&gt;Node4</title>
<path fill="none" stroke="midnightblue" d="M1105.4,-541.9C1096.42,-541.9 1087.3,-541.9 1078.32,-541.9"/>
<polygon fill="midnightblue" stroke="midnightblue" points="1105.46,-545.4 1115.46,-541.9 1105.46,-538.4 1105.46,-545.4"/>
</g>
<!-- Node5 -->
<g id="node5" class="node">
<title>Node5</title>
<g id="a_node5"><a xlink:href="a01941.html#a23eb89a222e22533e9fd43e76722f44f" target="_top" xlink:title="Reads an array from the BSON input and passes it to the SAX&#45;parser.">
<polygon fill="white" stroke="black" points="709,-550.9 709,-580.9 855,-580.9 855,-550.9 709,-550.9"/>
<text text-anchor="start" x="717" y="-568.9" font-family="Helvetica,sans-Serif" font-size="10.00">nlohmann::detail::binary</text>
<text text-anchor="middle" x="782" y="-557.9" font-family="Helvetica,sans-Serif" font-size="10.00">_reader::parse_bson_array</text>
</a>
</g>
</g>
<!-- Node4&#45;&gt;Node5 -->
<g id="edge4" class="edge">
<title>Node4&#45;&gt;Node5</title>
<path fill="none" stroke="midnightblue" d="M886.76,-553.66C876.1,-554.92 865.42,-556.18 855.18,-557.39"/>
<polygon fill="midnightblue" stroke="midnightblue" points="887.42,-557.11 896.95,-552.46 886.6,-550.16 887.42,-557.11"/>
</g>
<!-- Node6 -->
<g id="node6" class="node">
<title>Node6</title>
<g id="a_node6"><a xlink:href="a01941.html#abf2051ba57d9ea9b378a2e7c14e22b34" target="_top" xlink:title="Reads in a BSON&#45;object and passes it to the SAX&#45;parser.">
<polygon fill="white" stroke="black" points="703,-485.9 703,-515.9 861,-515.9 861,-485.9 703,-485.9"/>
<text text-anchor="start" x="711" y="-503.9" font-family="Helvetica,sans-Serif" font-size="10.00">nlohmann::detail::binary</text>
<text text-anchor="middle" x="782" y="-492.9" font-family="Helvetica,sans-Serif" font-size="10.00">_reader::parse_bson_internal</text>
</a>
</g>
</g>
<!-- Node4&#45;&gt;Node6 -->
<g id="edge6" class="edge">
<title>Node4&#45;&gt;Node6</title>
<path fill="none" stroke="midnightblue" d="M901.82,-524.84C887.15,-521.88 871.99,-518.83 857.61,-515.93"/>
<polygon fill="midnightblue" stroke="midnightblue" points="901.39,-528.32 911.88,-526.87 902.77,-521.46 901.39,-528.32"/>
</g>
<!-- Node5&#45;&gt;Node3 -->
<g id="edge5" class="edge">
<title>Node5&#45;&gt;Node3</title>
<path fill="none" stroke="midnightblue" d="M865.12,-570.94C924.44,-573.42 1006.38,-574.47 1078,-566.9 1090.19,-565.61 1102.97,-563.59 1115.43,-561.24"/>
<polygon fill="midnightblue" stroke="midnightblue" points="865.2,-567.44 855.06,-570.5 864.89,-574.43 865.2,-567.44"/>
</g>
<!-- Node6&#45;&gt;Node3 -->
<g id="edge7" class="edge">
<title>Node6&#45;&gt;Node3</title>
<path fill="none" stroke="midnightblue" d="M871.6,-502.66C930.34,-504.65 1009.02,-508.89 1078,-517.9 1090.13,-519.49 1102.88,-521.62 1115.33,-523.95"/>
<polygon fill="midnightblue" stroke="midnightblue" points="871.35,-499.15 861.24,-502.33 871.12,-506.15 871.35,-499.15"/>
</g>
<!-- Node6&#45;&gt;Node7 -->
<g id="edge8" class="edge">
<title>Node6&#45;&gt;Node7</title>
<path fill="none" stroke="midnightblue" d="M692.48,-499.1C636.41,-496.09 562.89,-488.7 500,-470.9 469.94,-462.4 437.95,-446.18 416.45,-434.1"/>
<polygon fill="midnightblue" stroke="midnightblue" points="692.57,-502.61 702.73,-499.61 692.92,-495.62 692.57,-502.61"/>
</g>
<!-- Node8 -->
<g id="node8" class="node">
<title>Node8</title>
<g id="a_node8"><a xlink:href="a01605.html#a7f92545f5bd388d529df7eb27c09b5e8" target="_top" xlink:title="Create a JSON value from an input in BSON format.">
<polygon fill="white" stroke="black" points="158,-501.9 158,-531.9 280,-531.9 280,-501.9 158,-501.9"/>
<text text-anchor="start" x="166" y="-519.9" font-family="Helvetica,sans-Serif" font-size="10.00">nlohmann::basic_json</text>
<text text-anchor="middle" x="219" y="-508.9" font-family="Helvetica,sans-Serif" font-size="10.00">::from_bson</text>
</a>
</g>
</g>
<!-- Node7&#45;&gt;Node8 -->
<g id="edge9" class="edge">
<title>Node7&#45;&gt;Node8</title>
<path fill="none" stroke="midnightblue" d="M361.04,-440.37C339.62,-456.18 308.94,-477.52 280,-492.9 274.06,-496.06 267.6,-499.06 261.2,-501.79"/>
<polygon fill="midnightblue" stroke="midnightblue" points="363.41,-442.96 369.33,-434.18 359.22,-437.35 363.41,-442.96"/>
</g>
<!-- Node10 -->
<g id="node10" class="node">
<title>Node10</title>
<g id="a_node10"><a xlink:href="a01605.html#ac771f2c2d0b16f59bc066db900963ba1" target="_top" xlink:title="create a JSON value from an input in CBOR format">
<polygon fill="white" stroke="black" points="158,-452.9 158,-482.9 280,-482.9 280,-452.9 158,-452.9"/>
<text text-anchor="start" x="166" y="-470.9" font-family="Helvetica,sans-Serif" font-size="10.00">nlohmann::basic_json</text>
<text text-anchor="middle" x="219" y="-459.9" font-family="Helvetica,sans-Serif" font-size="10.00">::from_cbor</text>
</a>
</g>
</g>
<!-- Node7&#45;&gt;Node10 -->
<g id="edge11" class="edge">
<title>Node7&#45;&gt;Node10</title>
<path fill="none" stroke="midnightblue" d="M327.28,-436.8C309.11,-442.07 289.41,-447.78 271.91,-452.85"/>
<polygon fill="midnightblue" stroke="midnightblue" points="328.29,-440.15 336.92,-434 326.34,-433.43 328.29,-440.15"/>
</g>
<!-- Node12 -->
<g id="node12" class="node">
<title>Node12</title>
<g id="a_node12"><a xlink:href="a01605.html#a5d4c61976353f72d2baf8a382936abe4" target="_top" xlink:title="create a JSON value from an input in MessagePack format">
<polygon fill="white" stroke="black" points="158,-403.9 158,-433.9 280,-433.9 280,-403.9 158,-403.9"/>
<text text-anchor="start" x="166" y="-421.9" font-family="Helvetica,sans-Serif" font-size="10.00">nlohmann::basic_json</text>
<text text-anchor="middle" x="219" y="-410.9" font-family="Helvetica,sans-Serif" font-size="10.00">::from_msgpack</text>
</a>
</g>
</g>
<!-- Node7&#45;&gt;Node12 -->
<g id="edge13" class="edge">
<title>Node7&#45;&gt;Node12</title>
<path fill="none" stroke="midnightblue" d="M311.67,-418.9C301.11,-418.9 290.4,-418.9 280.21,-418.9"/>
<polygon fill="midnightblue" stroke="midnightblue" points="311.72,-422.4 321.72,-418.9 311.72,-415.4 311.72,-422.4"/>
</g>
<!-- Node14 -->
<g id="node14" class="node">
<title>Node14</title>
<g id="a_node14"><a xlink:href="a01605.html#a423ea903bcbe9c52bbdb8084f212293c" target="_top" xlink:title="create a JSON value from an input in UBJSON format">
<polygon fill="white" stroke="black" points="158,-354.9 158,-384.9 280,-384.9 280,-354.9 158,-354.9"/>
<text text-anchor="start" x="166" y="-372.9" font-family="Helvetica,sans-Serif" font-size="10.00">nlohmann::basic_json</text>
<text text-anchor="middle" x="219" y="-361.9" font-family="Helvetica,sans-Serif" font-size="10.00">::from_ubjson</text>
</a>
</g>
</g>
<!-- Node7&#45;&gt;Node14 -->
<g id="edge15" class="edge">
<title>Node7&#45;&gt;Node14</title>
<path fill="none" stroke="midnightblue" d="M327.28,-401.01C309.11,-395.74 289.41,-390.03 271.91,-384.95"/>
<polygon fill="midnightblue" stroke="midnightblue" points="326.34,-404.38 336.92,-403.8 328.29,-397.65 326.34,-404.38"/>
</g>
<!-- Node16 -->
<g id="node16" class="node">
<title>Node16</title>
<g id="a_node16"><a xlink:href="a01605.html#a21dc71dda1df5d840625c360329e69fe" target="_top" xlink:title="generate SAX events">
<polygon fill="white" stroke="black" points="158,-305.9 158,-335.9 280,-335.9 280,-305.9 158,-305.9"/>
<text text-anchor="start" x="166" y="-323.9" font-family="Helvetica,sans-Serif" font-size="10.00">nlohmann::basic_json</text>
<text text-anchor="middle" x="219" y="-312.9" font-family="Helvetica,sans-Serif" font-size="10.00">::sax_parse</text>
</a>
</g>
</g>
<!-- Node7&#45;&gt;Node16 -->
<g id="edge17" class="edge">
<title>Node7&#45;&gt;Node16</title>
<path fill="none" stroke="midnightblue" d="M361.04,-397.43C339.62,-381.62 308.94,-360.28 280,-344.9 274.06,-341.74 267.6,-338.75 261.2,-336.01"/>
<polygon fill="midnightblue" stroke="midnightblue" points="359.22,-400.45 369.33,-403.63 363.41,-394.84 359.22,-400.45"/>
</g>
<!-- Node9 -->
<g id="node9" class="node">
<title>Node9</title>
<g id="a_node9"><a xlink:href="a01605.html#a6357719d94fd44c069bece3fb7b002ea" target="_top" xlink:title=" ">
<polygon fill="white" stroke="black" points="0,-501.9 0,-531.9 122,-531.9 122,-501.9 0,-501.9"/>
<text text-anchor="start" x="8" y="-519.9" font-family="Helvetica,sans-Serif" font-size="10.00">nlohmann::basic_json</text>
<text text-anchor="middle" x="61" y="-508.9" font-family="Helvetica,sans-Serif" font-size="10.00">::from_bson</text>
</a>
</g>
</g>
<!-- Node8&#45;&gt;Node9 -->
<g id="edge10" class="edge">
<title>Node8&#45;&gt;Node9</title>
<path fill="none" stroke="midnightblue" d="M147.46,-516.9C139.01,-516.9 130.44,-516.9 122.15,-516.9"/>
<polygon fill="midnightblue" stroke="midnightblue" points="147.69,-520.4 157.69,-516.9 147.69,-513.4 147.69,-520.4"/>
</g>
<!-- Node11 -->
<g id="node11" class="node">
<title>Node11</title>
<g id="a_node11"><a xlink:href="a01605.html#a0de100b38bceef049a83e37535bb1481" target="_top" xlink:title=" ">
<polygon fill="white" stroke="black" points="0,-452.9 0,-482.9 122,-482.9 122,-452.9 0,-452.9"/>
<text text-anchor="start" x="8" y="-470.9" font-family="Helvetica,sans-Serif" font-size="10.00">nlohmann::basic_json</text>
<text text-anchor="middle" x="61" y="-459.9" font-family="Helvetica,sans-Serif" font-size="10.00">::from_cbor</text>
</a>
</g>
</g>
<!-- Node10&#45;&gt;Node11 -->
<g id="edge12" class="edge">
<title>Node10&#45;&gt;Node11</title>
<path fill="none" stroke="midnightblue" d="M147.46,-467.9C139.01,-467.9 130.44,-467.9 122.15,-467.9"/>
<polygon fill="midnightblue" stroke="midnightblue" points="147.69,-471.4 157.69,-467.9 147.69,-464.4 147.69,-471.4"/>
</g>
<!-- Node13 -->
<g id="node13" class="node">
<title>Node13</title>
<g id="a_node13"><a xlink:href="a01605.html#a293d6186055b8c5ac1427a6ad67cb921" target="_top" xlink:title=" ">
<polygon fill="white" stroke="black" points="0,-403.9 0,-433.9 122,-433.9 122,-403.9 0,-403.9"/>
<text text-anchor="start" x="8" y="-421.9" font-family="Helvetica,sans-Serif" font-size="10.00">nlohmann::basic_json</text>
<text text-anchor="middle" x="61" y="-410.9" font-family="Helvetica,sans-Serif" font-size="10.00">::from_msgpack</text>
</a>
</g>
</g>
<!-- Node12&#45;&gt;Node13 -->
<g id="edge14" class="edge">
<title>Node12&#45;&gt;Node13</title>
<path fill="none" stroke="midnightblue" d="M147.46,-418.9C139.01,-418.9 130.44,-418.9 122.15,-418.9"/>
<polygon fill="midnightblue" stroke="midnightblue" points="147.69,-422.4 157.69,-418.9 147.69,-415.4 147.69,-422.4"/>
</g>
<!-- Node15 -->
<g id="node15" class="node">
<title>Node15</title>
<g id="a_node15"><a xlink:href="a01605.html#a51b0ac5e00bc9b5086d8bce75ad9a7f6" target="_top" xlink:title=" ">
<polygon fill="white" stroke="black" points="0,-354.9 0,-384.9 122,-384.9 122,-354.9 0,-354.9"/>
<text text-anchor="start" x="8" y="-372.9" font-family="Helvetica,sans-Serif" font-size="10.00">nlohmann::basic_json</text>
<text text-anchor="middle" x="61" y="-361.9" font-family="Helvetica,sans-Serif" font-size="10.00">::from_ubjson</text>
</a>
</g>
</g>
<!-- Node14&#45;&gt;Node15 -->
<g id="edge16" class="edge">
<title>Node14&#45;&gt;Node15</title>
<path fill="none" stroke="midnightblue" d="M147.46,-369.9C139.01,-369.9 130.44,-369.9 122.15,-369.9"/>
<polygon fill="midnightblue" stroke="midnightblue" points="147.69,-373.4 157.69,-369.9 147.69,-366.4 147.69,-373.4"/>
</g>
<!-- Node17&#45;&gt;Node3 -->
<g id="edge19" class="edge">
<title>Node17&#45;&gt;Node3</title>
<path fill="none" stroke="midnightblue" d="M1320.41,-516.73C1306.06,-519.66 1291.05,-522.72 1276.64,-525.66"/>
<polygon fill="midnightblue" stroke="midnightblue" points="1321.13,-520.15 1330.23,-514.72 1319.73,-513.29 1321.13,-520.15"/>
</g>
<!-- Node18&#45;&gt;Node19 -->
<g id="edge21" class="edge">
<title>Node18&#45;&gt;Node19</title>
<path fill="none" stroke="midnightblue" d="M1319.89,-404.85C1304.76,-403.87 1288.91,-402.85 1273.82,-401.87"/>
<polygon fill="midnightblue" stroke="midnightblue" points="1320.03,-408.37 1330.23,-405.52 1320.48,-401.38 1320.03,-408.37"/>
</g>
<!-- Node19&#45;&gt;Node7 -->
<g id="edge26" class="edge">
<title>Node19&#45;&gt;Node7</title>
<path fill="none" stroke="midnightblue" d="M1107.9,-399.28C946.31,-403.71 603.39,-413.09 458.2,-417.06"/>
<polygon fill="midnightblue" stroke="midnightblue" points="1108.37,-402.77 1118.27,-399 1108.18,-395.78 1108.37,-402.77"/>
</g>
<!-- Node20 -->
<g id="node20" class="node">
<title>Node20</title>
<g id="a_node20"><a xlink:href="a01941.html#a3750658328bf3ec3cf23f1626f9ec3af" target="_top" xlink:title=" ">
<polygon fill="white" stroke="black" points="919.5,-359.9 919.5,-389.9 1055.5,-389.9 1055.5,-359.9 919.5,-359.9"/>
<text text-anchor="start" x="927.5" y="-377.9" font-family="Helvetica,sans-Serif" font-size="10.00">nlohmann::detail::binary</text>
<text text-anchor="middle" x="987.5" y="-366.9" font-family="Helvetica,sans-Serif" font-size="10.00">_reader::get_cbor_array</text>
</a>
</g>
</g>
<!-- Node19&#45;&gt;Node20 -->
<g id="edge22" class="edge">
<title>Node19&#45;&gt;Node20</title>
<path fill="none" stroke="midnightblue" d="M1108.18,-380.98C1090.67,-378.95 1072.52,-377.11 1055.8,-375.7"/>
<polygon fill="midnightblue" stroke="midnightblue" points="1108.06,-384.49 1118.4,-382.19 1108.88,-377.54 1108.06,-384.49"/>
</g>
<!-- Node21 -->
<g id="node21" class="node">
<title>Node21</title>
<g id="a_node21"><a xlink:href="a01941.html#a47092a2195bf9cd3cdb4dda67cc404ed" target="_top" xlink:title=" ">
<polygon fill="white" stroke="black" points="919,-310.9 919,-340.9 1056,-340.9 1056,-310.9 919,-310.9"/>
<text text-anchor="start" x="927" y="-328.9" font-family="Helvetica,sans-Serif" font-size="10.00">nlohmann::detail::binary</text>
<text text-anchor="middle" x="987.5" y="-317.9" font-family="Helvetica,sans-Serif" font-size="10.00">_reader::get_cbor_object</text>
</a>
</g>
</g>
<!-- Node19&#45;&gt;Node21 -->
<g id="edge24" class="edge">
<title>Node19&#45;&gt;Node21</title>
<path fill="none" stroke="midnightblue" d="M1163.4,-377.76C1148.32,-371.49 1130.1,-364.67 1114,-357.9 1097.69,-351.04 1094.61,-347 1078,-340.9 1071.05,-338.35 1063.71,-335.95 1056.34,-333.76"/>
<polygon fill="midnightblue" stroke="midnightblue" points="1162.23,-381.07 1172.8,-381.8 1164.99,-374.64 1162.23,-381.07"/>
</g>
<!-- Node20&#45;&gt;Node19 -->
<g id="edge23" class="edge">
<title>Node20&#45;&gt;Node19</title>
<path fill="none" stroke="midnightblue" d="M1065.79,-389.69C1082.99,-391.79 1101.23,-393.73 1118.4,-395.29"/>
<polygon fill="midnightblue" stroke="midnightblue" points="1066.15,-386.21 1055.8,-388.44 1065.29,-393.16 1066.15,-386.21"/>
</g>
<!-- Node21&#45;&gt;Node19 -->
<g id="edge25" class="edge">
<title>Node21&#45;&gt;Node19</title>
<path fill="none" stroke="midnightblue" d="M1030.1,-343.84C1045.35,-348.32 1062.64,-353.27 1078,-358.9 1094.61,-365 1097.69,-369.04 1114,-375.9 1118.7,-377.88 1123.58,-379.86 1128.51,-381.78"/>
<polygon fill="midnightblue" stroke="midnightblue" points="1030.99,-340.45 1020.41,-340.96 1029,-347.16 1030.99,-340.45"/>
</g>
<!-- Node22&#45;&gt;Node19 -->
<g id="edge29" class="edge">
<title>Node22&#45;&gt;Node19</title>
<path fill="none" stroke="midnightblue" d="M1344.61,-340.5C1334.42,-344.18 1323.85,-348.09 1314,-351.9 1297.83,-358.15 1294.13,-360.56 1278,-366.9 1265.3,-371.9 1251.39,-377.13 1238.74,-381.8"/>
<polygon fill="midnightblue" stroke="midnightblue" points="1346.01,-343.72 1354.24,-337.05 1343.65,-337.13 1346.01,-343.72"/>
</g>
<!-- Node22&#45;&gt;Node21 -->
<g id="edge28" class="edge">
<title>Node22&#45;&gt;Node21</title>
<path fill="none" stroke="midnightblue" d="M1320.8,-322.66C1244.47,-323.4 1128.83,-324.53 1056.04,-325.24"/>
<polygon fill="midnightblue" stroke="midnightblue" points="1320.87,-326.16 1330.84,-322.56 1320.8,-319.16 1320.87,-326.16"/>
</g>
<!-- Node24 -->
<g id="node24" class="node">
<title>Node24</title>
<g id="a_node24"><a xlink:href="a01941.html#a8bebd21ceef09b6b2562e87861832700" target="_top" xlink:title=" ">
<polygon fill="white" stroke="black" points="1116,-255.9 1116,-285.9 1276,-285.9 1276,-255.9 1116,-255.9"/>
<text text-anchor="start" x="1124" y="-273.9" font-family="Helvetica,sans-Serif" font-size="10.00">nlohmann::detail::binary</text>
<text text-anchor="middle" x="1196" y="-262.9" font-family="Helvetica,sans-Serif" font-size="10.00">_reader::get_msgpack_object</text>
</a>
</g>
</g>
<!-- Node23&#45;&gt;Node24 -->
<g id="edge31" class="edge">
<title>Node23&#45;&gt;Node24</title>
<path fill="none" stroke="midnightblue" d="M1309.55,-272.02C1298.4,-271.91 1287.05,-271.8 1276.07,-271.69"/>
<polygon fill="midnightblue" stroke="midnightblue" points="1309.68,-275.52 1319.71,-272.12 1309.75,-268.52 1309.68,-275.52"/>
</g>
<!-- Node23&#45;&gt;Node25 -->
<g id="edge37" class="edge">
<title>Node23&#45;&gt;Node25</title>
<path fill="none" stroke="midnightblue" d="M1318.08,-289.63C1304.75,-291.82 1291.03,-293.72 1278,-294.9 1205.41,-301.5 1186.56,-301.78 1114,-294.9 1094.9,-293.09 1074.38,-289.76 1055.57,-286.15"/>
<polygon fill="midnightblue" stroke="midnightblue" points="1318.91,-293.04 1328.18,-287.91 1317.73,-286.14 1318.91,-293.04"/>
</g>
<!-- Node24&#45;&gt;Node25 -->
<g id="edge32" class="edge">
<title>Node24&#45;&gt;Node25</title>
<path fill="none" stroke="midnightblue" d="M1105.45,-264.2C1088.79,-264.07 1071.63,-264.18 1055.78,-264.53"/>
<polygon fill="midnightblue" stroke="midnightblue" points="1105.71,-267.71 1115.75,-264.32 1105.79,-260.71 1105.71,-267.71"/>
</g>
<!-- Node25&#45;&gt;Node7 -->
<g id="edge36" class="edge">
<title>Node25&#45;&gt;Node7</title>
<path fill="none" stroke="midnightblue" d="M909.5,-290.04C789.58,-319.84 560.68,-376.73 451.65,-403.83"/>
<polygon fill="midnightblue" stroke="midnightblue" points="910.49,-293.4 919.35,-287.59 908.8,-286.61 910.49,-293.4"/>
</g>
<!-- Node25&#45;&gt;Node24 -->
<g id="edge35" class="edge">
<title>Node25&#45;&gt;Node24</title>
<path fill="none" stroke="midnightblue" d="M1065.8,-277.46C1082.12,-277.71 1099.36,-277.72 1115.75,-277.49"/>
<polygon fill="midnightblue" stroke="midnightblue" points="1065.84,-273.96 1055.78,-277.27 1065.71,-280.96 1065.84,-273.96"/>
</g>
<!-- Node26 -->
<g id="node26" class="node">
<title>Node26</title>
<g id="a_node26"><a xlink:href="a01941.html#a0ce1d7066597952efb008aaf578b2bd6" target="_top" xlink:title=" ">
<polygon fill="white" stroke="black" points="704.5,-255.9 704.5,-285.9 859.5,-285.9 859.5,-255.9 704.5,-255.9"/>
<text text-anchor="start" x="712.5" y="-273.9" font-family="Helvetica,sans-Serif" font-size="10.00">nlohmann::detail::binary</text>
<text text-anchor="middle" x="782" y="-262.9" font-family="Helvetica,sans-Serif" font-size="10.00">_reader::get_msgpack_array</text>
</a>
</g>
</g>
<!-- Node25&#45;&gt;Node26 -->
<g id="edge33" class="edge">
<title>Node25&#45;&gt;Node26</title>
<path fill="none" stroke="midnightblue" d="M908.84,-264.32C892.72,-264.09 875.73,-264.09 859.64,-264.34"/>
<polygon fill="midnightblue" stroke="midnightblue" points="909.24,-267.83 919.3,-264.51 909.37,-260.83 909.24,-267.83"/>
</g>
<!-- Node26&#45;&gt;Node25 -->
<g id="edge34" class="edge">
<title>Node26&#45;&gt;Node25</title>
<path fill="none" stroke="midnightblue" d="M869.85,-277.59C886.4,-277.73 903.48,-277.63 919.3,-277.29"/>
<polygon fill="midnightblue" stroke="midnightblue" points="869.68,-274.08 859.64,-277.47 869.59,-281.08 869.68,-274.08"/>
</g>
<!-- Node28 -->
<g id="node28" class="node">
<title>Node28</title>
<g id="a_node28"><a xlink:href="a01941.html#afb36cb588b795efa513fc95e949493b7" target="_top" xlink:title=" ">
<polygon fill="white" stroke="black" points="916,-145.9 916,-175.9 1059,-175.9 1059,-145.9 916,-145.9"/>
<text text-anchor="start" x="924" y="-163.9" font-family="Helvetica,sans-Serif" font-size="10.00">nlohmann::detail::binary</text>
<text text-anchor="middle" x="987.5" y="-152.9" font-family="Helvetica,sans-Serif" font-size="10.00">_reader::get_ubjson_array</text>
</a>
</g>
</g>
<!-- Node27&#45;&gt;Node28 -->
<g id="edge39" class="edge">
<title>Node27&#45;&gt;Node28</title>
<path fill="none" stroke="midnightblue" d="M1103.72,-173.18C1088.81,-171.59 1073.56,-169.96 1059.24,-168.44"/>
<polygon fill="midnightblue" stroke="midnightblue" points="1103.66,-176.69 1113.98,-174.27 1104.41,-169.73 1103.66,-176.69"/>
</g>
<!-- Node30 -->
<g id="node30" class="node">
<title>Node30</title>
<g id="a_node30"><a xlink:href="a01941.html#adcf64ad3207f4bf37a5a31c920a385c3" target="_top" xlink:title=" ">
<polygon fill="white" stroke="black" points="316,-92.9 316,-122.9 464,-122.9 464,-92.9 316,-92.9"/>
<text text-anchor="start" x="324" y="-110.9" font-family="Helvetica,sans-Serif" font-size="10.00">nlohmann::detail::binary</text>
<text text-anchor="middle" x="390" y="-99.9" font-family="Helvetica,sans-Serif" font-size="10.00">_reader::get_ubjson_object</text>
</a>
</g>
</g>
<!-- Node27&#45;&gt;Node30 -->
<g id="edge48" class="edge">
<title>Node27&#45;&gt;Node30</title>
<path fill="none" stroke="midnightblue" d="M1108.72,-199.65C974.77,-222.04 710.29,-251.69 500,-184.9 461.8,-172.77 425.45,-141.87 405.9,-123.11"/>
<polygon fill="midnightblue" stroke="midnightblue" points="1109.65,-203.04 1118.92,-197.92 1108.48,-196.14 1109.65,-203.04"/>
</g>
<!-- Node28&#45;&gt;Node29 -->
<g id="edge40" class="edge">
<title>Node28&#45;&gt;Node29</title>
<path fill="none" stroke="midnightblue" d="M936.92,-143.07C912.23,-136.23 881.92,-128.74 854.75,-122.7"/>
<polygon fill="midnightblue" stroke="midnightblue" points="936.21,-146.51 946.78,-145.86 938.11,-139.77 936.21,-146.51"/>
</g>
<!-- Node29&#45;&gt;Node28 -->
<g id="edge41" class="edge">
<title>Node29&#45;&gt;Node28</title>
<path fill="none" stroke="midnightblue" d="M832.3,-129.65C857.39,-136.61 888.33,-144.25 915.9,-150.36"/>
<polygon fill="midnightblue" stroke="midnightblue" points="833.22,-126.27 822.64,-126.92 831.32,-133.01 833.22,-126.27"/>
</g>
<!-- Node29&#45;&gt;Node30 -->
<g id="edge42" class="edge">
<title>Node29&#45;&gt;Node30</title>
<path fill="none" stroke="midnightblue" d="M699.44,-105.45C629.95,-103.16 531,-102.21 464.06,-103.25"/>
<polygon fill="midnightblue" stroke="midnightblue" points="699.35,-108.95 709.47,-105.8 699.6,-101.96 699.35,-108.95"/>
</g>
<!-- Node31 -->
<g id="node31" class="node">
<title>Node31</title>
<g id="a_node31"><a xlink:href="a01941.html#a5a79480d661019b0f3fc615ae12f7de7" target="_top" xlink:title=" ">
<polygon fill="white" stroke="black" points="500,-145.9 500,-175.9 667,-175.9 667,-145.9 500,-145.9"/>
<text text-anchor="start" x="508" y="-163.9" font-family="Helvetica,sans-Serif" font-size="10.00">nlohmann::detail::binary</text>
<text text-anchor="middle" x="583.5" y="-152.9" font-family="Helvetica,sans-Serif" font-size="10.00">_reader::parse_ubjson_internal</text>
</a>
</g>
</g>
<!-- Node29&#45;&gt;Node31 -->
<g id="edge44" class="edge">
<title>Node29&#45;&gt;Node31</title>
<path fill="none" stroke="midnightblue" d="M710.91,-129.38C689.26,-134.78 665.6,-140.68 644.68,-145.9"/>
<polygon fill="midnightblue" stroke="midnightblue" points="711.85,-132.75 720.71,-126.94 710.16,-125.96 711.85,-132.75"/>
</g>
<!-- Node30&#45;&gt;Node29 -->
<g id="edge43" class="edge">
<title>Node30&#45;&gt;Node29</title>
<path fill="none" stroke="midnightblue" d="M474.16,-114.4C544.1,-116.68 643.03,-117.6 709.47,-116.53"/>
<polygon fill="midnightblue" stroke="midnightblue" points="474.18,-110.9 464.06,-114.05 473.94,-117.89 474.18,-110.9"/>
</g>
<!-- Node31&#45;&gt;Node7 -->
<g id="edge47" class="edge">
<title>Node31&#45;&gt;Node7</title>
<path fill="none" stroke="midnightblue" d="M564.93,-184.57C526.22,-236.73 434.47,-360.34 402.35,-403.62"/>
<polygon fill="midnightblue" stroke="midnightblue" points="567.94,-186.38 571.09,-176.27 562.32,-182.21 567.94,-186.38"/>
</g>
<!-- Node31&#45;&gt;Node28 -->
<g id="edge45" class="edge">
<title>Node31&#45;&gt;Node28</title>
<path fill="none" stroke="midnightblue" d="M677.28,-160.9C749.86,-160.9 849.25,-160.9 915.56,-160.9"/>
<polygon fill="midnightblue" stroke="midnightblue" points="677.22,-157.4 667.22,-160.9 677.22,-164.4 677.22,-157.4"/>
</g>
<!-- Node31&#45;&gt;Node30 -->
<g id="edge46" class="edge">
<title>Node31&#45;&gt;Node30</title>
<path fill="none" stroke="midnightblue" d="M518.22,-143.11C494.62,-136.58 468.16,-129.26 445.5,-122.98"/>
<polygon fill="midnightblue" stroke="midnightblue" points="517.56,-146.56 528.14,-145.86 519.43,-139.81 517.56,-146.56"/>
</g>
<!-- Node32&#45;&gt;Node27 -->
<g id="edge52" class="edge">
<title>Node32&#45;&gt;Node27</title>
<path fill="none" stroke="midnightblue" d="M1308.43,-161.83C1297.8,-163.84 1287,-165.89 1276.52,-167.87"/>
<polygon fill="midnightblue" stroke="midnightblue" points="1309.38,-165.22 1318.56,-159.92 1308.08,-158.34 1309.38,-165.22"/>
</g>
<!-- Node33 -->
<g id="node33" class="node">
<title>Node33</title>
<g id="a_node33"><a xlink:href="a01941.html#a26c694413fb860057e1a839d5422b361" target="_top" xlink:title=" ">
<polygon fill="white" stroke="black" points="1126.5,-107.4 1126.5,-148.4 1265.5,-148.4 1265.5,-107.4 1126.5,-107.4"/>
<text text-anchor="start" x="1134.5" y="-136.4" font-family="Helvetica,sans-Serif" font-size="10.00">nlohmann::detail::binary</text>
<text text-anchor="start" x="1134.5" y="-125.4" font-family="Helvetica,sans-Serif" font-size="10.00">_reader::get_ubjson_high</text>
<text text-anchor="middle" x="1196" y="-114.4" font-family="Helvetica,sans-Serif" font-size="10.00">_precision_number</text>
</a>
</g>
</g>
<!-- Node32&#45;&gt;Node33 -->
<g id="edge50" class="edge">
<title>Node32&#45;&gt;Node33</title>
<path fill="none" stroke="midnightblue" d="M1303.72,-136.93C1290.94,-135.85 1278.03,-134.75 1265.81,-133.72"/>
<polygon fill="midnightblue" stroke="midnightblue" points="1303.66,-140.44 1313.92,-137.79 1304.25,-133.46 1303.66,-140.44"/>
</g>
<!-- Node33&#45;&gt;Node29 -->
<g id="edge51" class="edge">
<title>Node33&#45;&gt;Node29</title>
<path fill="none" stroke="midnightblue" d="M1115.64,-124.82C1040.1,-121.89 927.46,-117.51 854.61,-114.68"/>
<polygon fill="midnightblue" stroke="midnightblue" points="1115.91,-128.33 1126.04,-125.22 1116.18,-121.34 1115.91,-128.33"/>
</g>
<!-- Node34&#45;&gt;Node29 -->
<g id="edge55" class="edge">
<title>Node34&#45;&gt;Node29</title>
<path fill="none" stroke="midnightblue" d="M929.88,-53.24C918.92,-56.96 907.57,-60.96 897,-64.9 870.12,-74.93 840.15,-87.34 817.68,-96.89"/>
<polygon fill="midnightblue" stroke="midnightblue" points="931.02,-56.55 939.38,-50.03 928.78,-49.91 931.02,-56.55"/>
</g>
<!-- Node34&#45;&gt;Node30 -->
<g id="edge54" class="edge">
<title>Node34&#45;&gt;Node30</title>
<path fill="none" stroke="midnightblue" d="M904.43,-44.96C787.83,-59.26 576.05,-85.22 464.4,-98.9"/>
<polygon fill="midnightblue" stroke="midnightblue" points="904.87,-48.43 914.37,-43.74 904.02,-41.49 904.87,-48.43"/>
</g>
</g>
</svg>
