<?xml version="1.0" encoding="UTF-8" standalone="no"?>
<!DOCTYPE svg PUBLIC "-//W3C//DTD SVG 1.1//EN"
 "http://www.w3.org/Graphics/SVG/1.1/DTD/svg11.dtd">
<!-- Generated by graphviz version 7.0.3 (20221126.0506)
 -->
<!-- Title: nlohmann::detail::parser::exception_message Pages: 1 -->
<svg width="600pt" height="95pt"
 viewBox="0.00 0.00 600.00 95.00" xmlns="http://www.w3.org/2000/svg" xmlns:xlink="http://www.w3.org/1999/xlink">
<g id="graph0" class="graph" transform="scale(1 1) rotate(0) translate(4 91)">
<title>nlohmann::detail::parser::exception_message</title>
<!-- Node1 -->
<g id="node1" class="node">
<title>Node1</title>
<g id="a_node1"><a xlink:title=" ">
<polygon fill="#999999" stroke="#666666" points="592,-54 471,-54 471,-24 592,-24 592,-54"/>
<text text-anchor="start" x="479" y="-42" font-family="Helvetica,sans-Serif" font-size="10.00">nlohmann::detail::parser</text>
<text text-anchor="middle" x="531.5" y="-31" font-family="Helvetica,sans-Serif" font-size="10.00">::exception_message</text>
</a>
</g>
</g>
<!-- Node2 -->
<g id="node2" class="node">
<title>Node2</title>
<g id="a_node2"><a xlink:href="a01933.html#a75fb9145ea85f1ad9cc14f61981e1111" target="_top" xlink:title="public parser interface">
<polygon fill="white" stroke="#666666" points="278,-87 157,-87 157,-57 278,-57 278,-87"/>
<text text-anchor="start" x="165" y="-75" font-family="Helvetica,sans-Serif" font-size="10.00">nlohmann::detail::parser</text>
<text text-anchor="middle" x="217.5" y="-64" font-family="Helvetica,sans-Serif" font-size="10.00">::parse</text>
</a>
</g>
</g>
<!-- Node1&#45;&gt;Node2 -->
<g id="edge1" class="edge">
<title>Node1&#45;&gt;Node2</title>
<path fill="none" stroke="#63b8ff" d="M466.05,-57.09C455.74,-59.44 445.13,-61.53 435,-63 382.32,-70.63 321.73,-72.58 278.07,-72.79"/>
<polygon fill="#63b8ff" stroke="#63b8ff" points="466.7,-60.54 475.62,-54.82 465.08,-53.73 466.7,-60.54"/>
</g>
<!-- Node3 -->
<g id="node3" class="node">
<title>Node3</title>
<g id="a_node3"><a xlink:href="a01933.html#a073b8313a5194aac3a7d5da0d935788c" target="_top" xlink:title=" ">
<polygon fill="white" stroke="#666666" points="278,-30 157,-30 157,0 278,0 278,-30"/>
<text text-anchor="start" x="165" y="-18" font-family="Helvetica,sans-Serif" font-size="10.00">nlohmann::detail::parser</text>
<text text-anchor="middle" x="217.5" y="-7" font-family="Helvetica,sans-Serif" font-size="10.00">::sax_parse</text>
</a>
</g>
</g>
<!-- Node1&#45;&gt;Node3 -->
<g id="edge2" class="edge">
<title>Node1&#45;&gt;Node3</title>
<path fill="none" stroke="#63b8ff" d="M467.77,-20.91C456.93,-18.45 445.7,-16.32 435,-15 382.4,-8.49 322.07,-9.15 278.47,-11.06"/>
<polygon fill="#63b8ff" stroke="#63b8ff" points="466.89,-24.3 477.42,-23.22 468.51,-17.49 466.89,-24.3"/>
</g>
<!-- Node5 -->
<g id="node5" class="node">
<title>Node5</title>
<g id="a_node5"><a xlink:href="a01933.html#a678fdebccc8ddd3242c67b6bce2f8f1a" target="_top" xlink:title=" ">
<polygon fill="white" stroke="#666666" points="435,-54 314,-54 314,-24 435,-24 435,-54"/>
<text text-anchor="start" x="322" y="-42" font-family="Helvetica,sans-Serif" font-size="10.00">nlohmann::detail::parser</text>
<text text-anchor="middle" x="374.5" y="-31" font-family="Helvetica,sans-Serif" font-size="10.00">::sax_parse_internal</text>
</a>
</g>
</g>
<!-- Node1&#45;&gt;Node5 -->
<g id="edge4" class="edge">
<title>Node1&#45;&gt;Node5</title>
<path fill="none" stroke="#63b8ff" d="M459.31,-39C451.27,-39 443.14,-39 435.27,-39"/>
<polygon fill="#63b8ff" stroke="#63b8ff" points="459.06,-42.5 469.06,-39 459.06,-35.5 459.06,-42.5"/>
</g>
<!-- Node4 -->
<g id="node4" class="node">
<title>Node4</title>
<g id="a_node4"><a xlink:href="a01933.html#a39784a586867c05388cb0adca0fd72b5" target="_top" xlink:title="public accept interface">
<polygon fill="white" stroke="#666666" points="121,-30 0,-30 0,0 121,0 121,-30"/>
<text text-anchor="start" x="8" y="-18" font-family="Helvetica,sans-Serif" font-size="10.00">nlohmann::detail::parser</text>
<text text-anchor="middle" x="60.5" y="-7" font-family="Helvetica,sans-Serif" font-size="10.00">::accept</text>
</a>
</g>
</g>
<!-- Node3&#45;&gt;Node4 -->
<g id="edge3" class="edge">
<title>Node3&#45;&gt;Node4</title>
<path fill="none" stroke="#63b8ff" d="M145.31,-15C137.27,-15 129.14,-15 121.27,-15"/>
<polygon fill="#63b8ff" stroke="#63b8ff" points="145.06,-18.5 155.06,-15 145.06,-11.5 145.06,-18.5"/>
</g>
<!-- Node5&#45;&gt;Node2 -->
<g id="edge5" class="edge">
<title>Node5&#45;&gt;Node2</title>
<path fill="none" stroke="#63b8ff" d="M302.58,-54.1C294.45,-55.83 286.23,-57.58 278.27,-59.28"/>
<polygon fill="#63b8ff" stroke="#63b8ff" points="303.04,-57.58 312.09,-52.07 301.58,-50.73 303.04,-57.58"/>
</g>
<!-- Node5&#45;&gt;Node3 -->
<g id="edge6" class="edge">
<title>Node5&#45;&gt;Node3</title>
<path fill="none" stroke="#63b8ff" d="M302.31,-27.98C294.27,-26.73 286.14,-25.47 278.27,-24.25"/>
<polygon fill="#63b8ff" stroke="#63b8ff" points="301.66,-31.42 312.08,-29.49 302.73,-24.5 301.66,-31.42"/>
</g>
</g>
</svg>
