<?xml version="1.0" encoding="UTF-8" standalone="no"?>
<!DOCTYPE svg PUBLIC "-//W3C//DTD SVG 1.1//EN"
 "http://www.w3.org/Graphics/SVG/1.1/DTD/svg11.dtd">
<!-- Generated by graphviz version 8.0.5 (20230430.1635)
 -->
<!-- Title: nlohmann::detail::dtoa_impl::diyfp Pages: 1 -->
<svg width="124pt" height="120pt"
 viewBox="0.00 0.00 124.25 120.00" xmlns="http://www.w3.org/2000/svg" xmlns:xlink="http://www.w3.org/1999/xlink">
<g id="graph0" class="graph" transform="scale(1 1) rotate(0) translate(4 116)">
<title>nlohmann::detail::dtoa_impl::diyfp</title>
<!-- Node1 -->
<g id="node1" class="node">
<title>Node1</title>
<g id="a_node1"><a xlink:title=" ">
<polygon fill="#999999" stroke="#666666" points="112,-32 0,-32 0,0 112,0 112,-32"/>
<text text-anchor="start" x="8" y="-18.5" font-family="Helvetica,sans-Serif" font-size="10.00">nlohmann::detail::dtoa</text>
<text text-anchor="middle" x="56" y="-6.5" font-family="Helvetica,sans-Serif" font-size="10.00">_impl::diyfp</text>
</a>
</g>
</g>
<!-- Node2 -->
<g id="node2" class="node">
<title>Node2</title>
<g id="a_node2"><a xlink:title=" ">
<polygon fill="white" stroke="#666666" points="36.4,-112 7.6,-112 7.6,-92 36.4,-92 36.4,-112"/>
<text text-anchor="middle" x="22" y="-98.5" font-family="Helvetica,sans-Serif" font-size="10.00">int</text>
</a>
</g>
</g>
<!-- Node2&#45;&gt;Node1 -->
<g id="edge1" class="edge">
<title>Node2&#45;&gt;Node1</title>
<path fill="none" stroke="#9a32cd" stroke-dasharray="5,2" d="M19.12,-80.9C18.56,-71.2 19.15,-59.61 23.25,-50 26.1,-43.32 30.99,-37.26 36.14,-32.2"/>
<polygon fill="#9a32cd" stroke="#9a32cd" points="15.71,-80.95 20.22,-90.54 22.68,-80.23 15.71,-80.95"/>
<text text-anchor="middle" x="46.88" y="-64.5" font-family="Helvetica,sans-Serif" font-size="10.00"> e</text>
<text text-anchor="middle" x="46.88" y="-52.5" font-family="Helvetica,sans-Serif" font-size="10.00">kPrecision</text>
</g>
<!-- Node3 -->
<g id="node3" class="node">
<title>Node3</title>
<g id="a_node3"><a xlink:title=" ">
<polygon fill="white" stroke="#666666" points="116.25,-112 65.75,-112 65.75,-92 116.25,-92 116.25,-112"/>
<text text-anchor="middle" x="91" y="-98.5" font-family="Helvetica,sans-Serif" font-size="10.00">uint64_t</text>
</a>
</g>
</g>
<!-- Node3&#45;&gt;Node1 -->
<g id="edge2" class="edge">
<title>Node3&#45;&gt;Node1</title>
<path fill="none" stroke="#9a32cd" stroke-dasharray="5,2" d="M83.05,-81.93C76.8,-66.92 68.2,-46.27 62.38,-32.32"/>
<polygon fill="#9a32cd" stroke="#9a32cd" points="80.04,-82.8 87.12,-90.69 86.51,-80.11 80.04,-82.8"/>
<text text-anchor="middle" x="81.63" y="-58.5" font-family="Helvetica,sans-Serif" font-size="10.00"> f</text>
</g>
</g>
</svg>
