<?xml version="1.0" encoding="UTF-8" standalone="no"?>
<!DOCTYPE svg PUBLIC "-//W3C//DTD SVG 1.1//EN"
 "http://www.w3.org/Graphics/SVG/1.1/DTD/svg11.dtd">
<!-- Generated by graphviz version 8.0.5 (20230430.1635)
 -->
<!-- Title: nlohmann::detail::lexer::scan_string Pages: 1 -->
<svg width="445pt" height="200pt"
 viewBox="0.00 0.00 444.50 200.04" xmlns="http://www.w3.org/2000/svg" xmlns:xlink="http://www.w3.org/1999/xlink">
<g id="graph0" class="graph" transform="scale(1 1) rotate(0) translate(4 196.04)">
<title>nlohmann::detail::lexer::scan_string</title>
<!-- Node1 -->
<g id="node1" class="node">
<title>Node1</title>
<g id="a_node1"><a xlink:title="scan a string literal">
<polygon fill="#999999" stroke="#666666" points="114.25,-126 0,-126 0,-94 114.25,-94 114.25,-126"/>
<text text-anchor="start" x="8" y="-112.5" font-family="Helvetica,sans-Serif" font-size="10.00">nlohmann::detail::lexer</text>
<text text-anchor="middle" x="57.13" y="-100.5" font-family="Helvetica,sans-Serif" font-size="10.00">::scan_string</text>
</a>
</g>
</g>
<!-- Node2 -->
<g id="node2" class="node">
<title>Node2</title>
<g id="a_node2"><a xlink:href="a01983.html#a36ffc3c33c3aea18291ead7a30fa7cc6" target="_top" xlink:title="add a character to token_buffer">
<polygon fill="white" stroke="#666666" points="436.5,-186 300.5,-186 300.5,-166 436.5,-166 436.5,-186"/>
<text text-anchor="middle" x="368.5" y="-172.5" font-family="Helvetica,sans-Serif" font-size="10.00">nlohmann::detail::lexer::add</text>
</a>
</g>
</g>
<!-- Node1&#45;&gt;Node2 -->
<g id="edge1" class="edge">
<title>Node1&#45;&gt;Node2</title>
<path fill="none" stroke="#63b8ff" d="M73.22,-126.32C90.09,-143.24 119.16,-168.65 150.25,-179 199.41,-195.37 258.36,-193.31 302.44,-187.88"/>
<polygon fill="#63b8ff" stroke="#63b8ff" points="302.86,-191.22 312.31,-186.44 301.94,-184.29 302.86,-191.22"/>
</g>
<!-- Node3 -->
<g id="node3" class="node">
<title>Node3</title>
<g id="a_node3"><a xlink:href="a01983.html#a9cd3e4cf04d19be521beb8868c1a2fc9" target="_top" xlink:title=" ">
<polygon fill="white" stroke="#666666" points="435.38,-120 301.63,-120 301.63,-100 435.38,-100 435.38,-120"/>
<text text-anchor="middle" x="368.5" y="-106.5" font-family="Helvetica,sans-Serif" font-size="10.00">nlohmann::detail::lexer::get</text>
</a>
</g>
</g>
<!-- Node1&#45;&gt;Node3 -->
<g id="edge2" class="edge">
<title>Node1&#45;&gt;Node3</title>
<path fill="none" stroke="#63b8ff" d="M114.51,-110C163.85,-110 235.99,-110 290.62,-110"/>
<polygon fill="#63b8ff" stroke="#63b8ff" points="290.3,-113.5 300.3,-110 290.3,-106.5 290.3,-113.5"/>
</g>
<!-- Node4 -->
<g id="node4" class="node">
<title>Node4</title>
<g id="a_node4"><a xlink:href="a01983.html#adcf663a9878f58544790f1b6faad2e42" target="_top" xlink:title="get codepoint from 4 hex characters following \u">
<polygon fill="white" stroke="#666666" points="264.5,-82 150.25,-82 150.25,-50 264.5,-50 264.5,-82"/>
<text text-anchor="start" x="158.25" y="-68.5" font-family="Helvetica,sans-Serif" font-size="10.00">nlohmann::detail::lexer</text>
<text text-anchor="middle" x="207.38" y="-56.5" font-family="Helvetica,sans-Serif" font-size="10.00">::get_codepoint</text>
</a>
</g>
</g>
<!-- Node1&#45;&gt;Node4 -->
<g id="edge3" class="edge">
<title>Node1&#45;&gt;Node4</title>
<path fill="none" stroke="#63b8ff" d="M113.33,-93.62C122.3,-90.95 131.67,-88.17 140.86,-85.45"/>
<polygon fill="#63b8ff" stroke="#63b8ff" points="141.54,-88.6 150.13,-82.4 139.54,-81.89 141.54,-88.6"/>
</g>
<!-- Node5 -->
<g id="node5" class="node">
<title>Node5</title>
<g id="a_node5"><a xlink:href="a01983.html#af6fe701b8b3ca5f4a1b58db4658bdf87" target="_top" xlink:title="check if the next byte(s) are inside a given range">
<polygon fill="white" stroke="#666666" points="264.5,-170 150.25,-170 150.25,-138 264.5,-138 264.5,-170"/>
<text text-anchor="start" x="158.25" y="-156.5" font-family="Helvetica,sans-Serif" font-size="10.00">nlohmann::detail::lexer</text>
<text text-anchor="middle" x="207.38" y="-144.5" font-family="Helvetica,sans-Serif" font-size="10.00">::next_byte_in_range</text>
</a>
</g>
</g>
<!-- Node1&#45;&gt;Node5 -->
<g id="edge5" class="edge">
<title>Node1&#45;&gt;Node5</title>
<path fill="none" stroke="#63b8ff" d="M113.33,-126.38C122.3,-129.05 131.67,-131.83 140.86,-134.55"/>
<polygon fill="#63b8ff" stroke="#63b8ff" points="139.54,-138.11 150.13,-137.6 141.54,-131.4 139.54,-138.11"/>
</g>
<!-- Node6 -->
<g id="node6" class="node">
<title>Node6</title>
<g id="a_node6"><a xlink:href="a01983.html#a3bda093837339813916d11fb6e396606" target="_top" xlink:title="reset token_buffer; current character is beginning of token">
<polygon fill="white" stroke="#666666" points="264.5,-32 150.25,-32 150.25,0 264.5,0 264.5,-32"/>
<text text-anchor="start" x="158.25" y="-18.5" font-family="Helvetica,sans-Serif" font-size="10.00">nlohmann::detail::lexer</text>
<text text-anchor="middle" x="207.38" y="-6.5" font-family="Helvetica,sans-Serif" font-size="10.00">::reset</text>
</a>
</g>
</g>
<!-- Node1&#45;&gt;Node6 -->
<g id="edge8" class="edge">
<title>Node1&#45;&gt;Node6</title>
<path fill="none" stroke="#63b8ff" d="M77.36,-93.58C95.4,-78.67 123.54,-56.68 150.25,-41 152.42,-39.72 154.67,-38.47 156.97,-37.25"/>
<polygon fill="#63b8ff" stroke="#63b8ff" points="158.22,-40.03 165.56,-32.4 155.06,-33.78 158.22,-40.03"/>
</g>
<!-- Node4&#45;&gt;Node3 -->
<g id="edge4" class="edge">
<title>Node4&#45;&gt;Node3</title>
<path fill="none" stroke="#63b8ff" d="M264.92,-81.64C282.68,-86.55 302.11,-91.92 319.23,-96.65"/>
<polygon fill="#63b8ff" stroke="#63b8ff" points="317.99,-100.22 328.56,-99.51 319.86,-93.47 317.99,-100.22"/>
</g>
<!-- Node5&#45;&gt;Node2 -->
<g id="edge6" class="edge">
<title>Node5&#45;&gt;Node2</title>
<path fill="none" stroke="#63b8ff" d="M264.92,-161.82C272.87,-162.92 281.16,-164.06 289.43,-165.21"/>
<polygon fill="#63b8ff" stroke="#63b8ff" points="288.86,-168.8 299.25,-166.7 289.82,-161.87 288.86,-168.8"/>
</g>
<!-- Node5&#45;&gt;Node3 -->
<g id="edge7" class="edge">
<title>Node5&#45;&gt;Node3</title>
<path fill="none" stroke="#63b8ff" d="M264.92,-138.36C282.68,-133.45 302.11,-128.08 319.23,-123.35"/>
<polygon fill="#63b8ff" stroke="#63b8ff" points="319.86,-126.53 328.56,-120.49 317.99,-119.78 319.86,-126.53"/>
</g>
</g>
</svg>
