<?xml version="1.0" encoding="UTF-8" standalone="no"?>
<!DOCTYPE svg PUBLIC "-//W3C//DTD SVG 1.1//EN"
 "http://www.w3.org/Graphics/SVG/1.1/DTD/svg11.dtd">
<!-- Generated by graphviz version 4.0.0 (20220529.0937)
 -->
<!-- Title: nlohmann::detail::internal_iterator&lt; BasicJsonType &gt; Pages: 1 -->
<svg width="310pt" height="195pt"
 viewBox="0.00 0.00 309.50 195.00" xmlns="http://www.w3.org/2000/svg" xmlns:xlink="http://www.w3.org/1999/xlink">
<g id="graph0" class="graph" transform="scale(1 1) rotate(0) translate(4 191)">
<title>nlohmann::detail::internal_iterator&lt; BasicJsonType &gt;</title>
<polygon fill="white" stroke="transparent" points="-4,4 -4,-191 305.5,-191 305.5,4 -4,4"/>
<!-- Node1 -->
<g id="node1" class="node">
<title>Node1</title>
<g id="a_node1"><a xlink:title="an iterator value">
<polygon fill="#bfbfbf" stroke="black" points="43.5,-0.5 43.5,-30.5 179.5,-30.5 179.5,-0.5 43.5,-0.5"/>
<text text-anchor="start" x="51.5" y="-18.5" font-family="Helvetica,sans-Serif" font-size="10.00">nlohmann::detail::internal</text>
<text text-anchor="middle" x="111.5" y="-7.5" font-family="Helvetica,sans-Serif" font-size="10.00">_iterator&lt; BasicJsonType &gt;</text>
</a>
</g>
</g>
<!-- Node2 -->
<g id="node2" class="node">
<title>Node2</title>
<g id="a_node2"><a xlink:title=" ">
<polygon fill="white" stroke="black" points="0,-84 0,-103 47,-103 47,-84 0,-84"/>
<text text-anchor="middle" x="23.5" y="-91" font-family="Helvetica,sans-Serif" font-size="10.00">iterator</text>
</a>
</g>
</g>
<!-- Node2&#45;&gt;Node1 -->
<g id="edge1" class="edge">
<title>Node2&#45;&gt;Node1</title>
<path fill="none" stroke="#9a32cd" stroke-dasharray="5,2" d="M28.3,-74.01C31.26,-65.55 35.8,-55.9 42.5,-49 49.98,-41.31 59.63,-35.23 69.33,-30.52"/>
<polygon fill="#9a32cd" stroke="#9a32cd" points="24.89,-73.2 25.36,-83.79 31.59,-75.22 24.89,-73.2"/>
<text text-anchor="middle" x="75" y="-52" font-family="Helvetica,sans-Serif" font-size="10.00"> object_iterator</text>
</g>
<!-- Node3 -->
<g id="node3" class="node">
<title>Node3</title>
<g id="a_node3"><a xlink:title=" ">
<polygon fill="white" stroke="black" points="88,-84 88,-103 135,-103 135,-84 88,-84"/>
<text text-anchor="middle" x="111.5" y="-91" font-family="Helvetica,sans-Serif" font-size="10.00">iterator</text>
</a>
</g>
</g>
<!-- Node3&#45;&gt;Node1 -->
<g id="edge2" class="edge">
<title>Node3&#45;&gt;Node1</title>
<path fill="none" stroke="#9a32cd" stroke-dasharray="5,2" d="M111.5,-73.78C111.5,-60.4 111.5,-42.69 111.5,-30.52"/>
<polygon fill="#9a32cd" stroke="#9a32cd" points="108,-73.78 111.5,-83.78 115,-73.78 108,-73.78"/>
<text text-anchor="middle" x="142" y="-52" font-family="Helvetica,sans-Serif" font-size="10.00"> array_iterator</text>
</g>
<!-- Node4 -->
<g id="node4" class="node">
<title>Node4</title>
<g id="a_node4"><a xlink:href="a01937.html" target="_top" xlink:title=" ">
<polygon fill="white" stroke="black" points="153,-78.5 153,-108.5 282,-108.5 282,-78.5 153,-78.5"/>
<text text-anchor="start" x="161" y="-96.5" font-family="Helvetica,sans-Serif" font-size="10.00">nlohmann::detail::primitive</text>
<text text-anchor="middle" x="217.5" y="-85.5" font-family="Helvetica,sans-Serif" font-size="10.00">_iterator_t</text>
</a>
</g>
</g>
<!-- Node4&#45;&gt;Node1 -->
<g id="edge3" class="edge">
<title>Node4&#45;&gt;Node1</title>
<path fill="none" stroke="#9a32cd" stroke-dasharray="5,2" d="M199.63,-70.6C192.89,-63.16 184.82,-55.18 176.5,-49 166.98,-41.92 155.69,-35.66 145.21,-30.57"/>
<polygon fill="#9a32cd" stroke="#9a32cd" points="197.17,-73.1 206.39,-78.34 202.45,-68.5 197.17,-73.1"/>
<text text-anchor="middle" x="226.5" y="-52" font-family="Helvetica,sans-Serif" font-size="10.00"> primitive_iterator</text>
</g>
<!-- Node5 -->
<g id="node5" class="node">
<title>Node5</title>
<g id="a_node5"><a xlink:title=" ">
<polygon fill="white" stroke="black" points="80,-167.5 80,-186.5 235,-186.5 235,-167.5 80,-167.5"/>
<text text-anchor="middle" x="157.5" y="-174.5" font-family="Helvetica,sans-Serif" font-size="10.00">static constexpr difference_type</text>
</a>
</g>
</g>
<!-- Node5&#45;&gt;Node4 -->
<g id="edge4" class="edge">
<title>Node5&#45;&gt;Node4</title>
<path fill="none" stroke="#9a32cd" stroke-dasharray="5,2" d="M170.05,-158.95C181.05,-144.01 196.83,-122.58 207.12,-108.6"/>
<polygon fill="#9a32cd" stroke="#9a32cd" points="167.03,-157.15 163.92,-167.28 172.67,-161.3 167.03,-157.15"/>
<text text-anchor="middle" x="220.5" y="-141" font-family="Helvetica,sans-Serif" font-size="10.00"> begin_value</text>
<text text-anchor="middle" x="220.5" y="-130" font-family="Helvetica,sans-Serif" font-size="10.00">end_value</text>
</g>
<!-- Node6 -->
<g id="node6" class="node">
<title>Node6</title>
<g id="a_node6"><a xlink:title=" ">
<polygon fill="white" stroke="black" points="253.5,-167.5 253.5,-186.5 301.5,-186.5 301.5,-167.5 253.5,-167.5"/>
<text text-anchor="middle" x="277.5" y="-174.5" font-family="Helvetica,sans-Serif" font-size="10.00">ptrdiff_t</text>
</a>
</g>
</g>
<!-- Node6&#45;&gt;Node4 -->
<g id="edge5" class="edge">
<title>Node6&#45;&gt;Node4</title>
<path fill="none" stroke="#9a32cd" stroke-dasharray="5,2" d="M269.57,-157.8C264.97,-148.2 258.67,-136.47 251.5,-127 246.57,-120.49 240.31,-114.11 234.5,-108.74"/>
<polygon fill="#9a32cd" stroke="#9a32cd" points="266.52,-159.54 273.86,-167.18 272.88,-156.63 266.52,-159.54"/>
<text text-anchor="middle" x="275.5" y="-135.5" font-family="Helvetica,sans-Serif" font-size="10.00"> m_it</text>
</g>
</g>
</svg>
