<?xml version="1.0" encoding="UTF-8" standalone="no"?>
<!DOCTYPE svg PUBLIC "-//W3C//DTD SVG 1.1//EN"
 "http://www.w3.org/Graphics/SVG/1.1/DTD/svg11.dtd">
<!-- Generated by graphviz version 5.0.0 (20220707.1540)
 -->
<!-- Title: nlohmann::detail::dtoa_impl::diyfp Pages: 1 -->
<svg width="125pt" height="117pt"
 viewBox="0.00 0.00 125.00 117.00" xmlns="http://www.w3.org/2000/svg" xmlns:xlink="http://www.w3.org/1999/xlink">
<g id="graph0" class="graph" transform="scale(1 1) rotate(0) translate(4 113)">
<title>nlohmann::detail::dtoa_impl::diyfp</title>
<polygon fill="white" stroke="transparent" points="-4,4 -4,-113 121,-113 121,4 -4,4"/>
<!-- Node1 -->
<g id="node1" class="node">
<title>Node1</title>
<g id="a_node1"><a xlink:title=" ">
<polygon fill="#bfbfbf" stroke="black" points="0,-0.5 0,-30.5 113,-30.5 113,-0.5 0,-0.5"/>
<text text-anchor="start" x="8" y="-18.5" font-family="Helvetica,sans-Serif" font-size="10.00">nlohmann::detail::dtoa</text>
<text text-anchor="middle" x="56.5" y="-7.5" font-family="Helvetica,sans-Serif" font-size="10.00">_impl::diyfp</text>
</a>
</g>
</g>
<!-- Node2 -->
<g id="node2" class="node">
<title>Node2</title>
<g id="a_node2"><a xlink:title=" ">
<polygon fill="white" stroke="black" points="8,-89.5 8,-108.5 37,-108.5 37,-89.5 8,-89.5"/>
<text text-anchor="middle" x="22.5" y="-96.5" font-family="Helvetica,sans-Serif" font-size="10.00">int</text>
</a>
</g>
</g>
<!-- Node2&#45;&gt;Node1 -->
<g id="edge1" class="edge">
<title>Node2&#45;&gt;Node1</title>
<path fill="none" stroke="#9a32cd" stroke-dasharray="5,2" d="M19.64,-79.32C18.98,-69.87 19.44,-58.44 23.5,-49 26.49,-42.06 31.73,-35.83 37.17,-30.73"/>
<polygon fill="#9a32cd" stroke="#9a32cd" points="16.16,-79.72 20.77,-89.26 23.12,-78.93 16.16,-79.72"/>
<text text-anchor="middle" x="46.5" y="-63" font-family="Helvetica,sans-Serif" font-size="10.00"> e</text>
<text text-anchor="middle" x="46.5" y="-52" font-family="Helvetica,sans-Serif" font-size="10.00">kPrecision</text>
</g>
<!-- Node3 -->
<g id="node3" class="node">
<title>Node3</title>
<g id="a_node3"><a xlink:title=" ">
<polygon fill="white" stroke="black" points="66,-89.5 66,-108.5 117,-108.5 117,-89.5 66,-89.5"/>
<text text-anchor="middle" x="91.5" y="-96.5" font-family="Helvetica,sans-Serif" font-size="10.00">uint64_t</text>
</a>
</g>
</g>
<!-- Node3&#45;&gt;Node1 -->
<g id="edge2" class="edge">
<title>Node3&#45;&gt;Node1</title>
<path fill="none" stroke="#9a32cd" stroke-dasharray="5,2" d="M83.63,-79.66C77.25,-64.81 68.39,-44.18 62.55,-30.6"/>
<polygon fill="#9a32cd" stroke="#9a32cd" points="80.59,-81.47 87.75,-89.28 87.02,-78.71 80.59,-81.47"/>
<text text-anchor="middle" x="81.5" y="-57.5" font-family="Helvetica,sans-Serif" font-size="10.00"> f</text>
</g>
</g>
</svg>
