<?xml version="1.0" encoding="UTF-8" standalone="no"?>
<!DOCTYPE svg PUBLIC "-//W3C//DTD SVG 1.1//EN"
 "http://www.w3.org/Graphics/SVG/1.1/DTD/svg11.dtd">
<!-- Generated by graphviz version 2.43.0 (0)
 -->
<!-- Title: nlohmann::detail::primitive_iterator_t::set_end Pages: 1 -->
<svg width="1007pt" height="754pt"
 viewBox="0.00 0.00 1007.00 754.00" xmlns="http://www.w3.org/2000/svg" xmlns:xlink="http://www.w3.org/1999/xlink">
<g id="graph0" class="graph" transform="scale(1 1) rotate(0) translate(4 750)">
<title>nlohmann::detail::primitive_iterator_t::set_end</title>
<polygon fill="white" stroke="transparent" points="-4,4 -4,-750 1003,-750 1003,4 -4,4"/>
<!-- Node1 -->
<g id="node1" class="node">
<title>Node1</title>
<g id="a_node1"><a xlink:title="set iterator to a defined past the end">
<polygon fill="#bfbfbf" stroke="black" points="850,-396.5 850,-426.5 999,-426.5 999,-396.5 850,-396.5"/>
<text text-anchor="start" x="858" y="-414.5" font-family="Helvetica,sans-Serif" font-size="10.00">nlohmann::detail::primitive</text>
<text text-anchor="middle" x="924.5" y="-403.5" font-family="Helvetica,sans-Serif" font-size="10.00">_iterator_t::set_end</text>
</a>
</g>
</g>
<!-- Node2 -->
<g id="node2" class="node">
<title>Node2</title>
<g id="a_node2"><a xlink:href="a01957.html#a5d5f92c7f6848814bc82cf7e4e541820" target="_top" xlink:title="set the iterator to the first value">
<polygon fill="white" stroke="black" points="692,-494.5 692,-524.5 814,-524.5 814,-494.5 692,-494.5"/>
<text text-anchor="start" x="700" y="-512.5" font-family="Helvetica,sans-Serif" font-size="10.00">nlohmann::detail::iter</text>
<text text-anchor="middle" x="753" y="-501.5" font-family="Helvetica,sans-Serif" font-size="10.00">_impl::set_begin</text>
</a>
</g>
</g>
<!-- Node1&#45;&gt;Node2 -->
<g id="edge1" class="edge">
<title>Node1&#45;&gt;Node2</title>
<path fill="none" stroke="midnightblue" d="M888.72,-431.61C856.49,-450.24 809.27,-477.54 780.14,-494.39"/>
<polygon fill="midnightblue" stroke="midnightblue" points="890.48,-434.63 897.39,-426.6 886.98,-428.57 890.48,-434.63"/>
</g>
<!-- Node13 -->
<g id="node13" class="node">
<title>Node13</title>
<g id="a_node13"><a xlink:href="a01957.html#a23e50ad4c13aa62d9ac7f60a123823ee" target="_top" xlink:title="set the iterator past the last value">
<polygon fill="white" stroke="black" points="692,-323.5 692,-353.5 814,-353.5 814,-323.5 692,-323.5"/>
<text text-anchor="start" x="700" y="-341.5" font-family="Helvetica,sans-Serif" font-size="10.00">nlohmann::detail::iter</text>
<text text-anchor="middle" x="753" y="-330.5" font-family="Helvetica,sans-Serif" font-size="10.00">_impl::set_end</text>
</a>
</g>
</g>
<!-- Node1&#45;&gt;Node13 -->
<g id="edge12" class="edge">
<title>Node1&#45;&gt;Node13</title>
<path fill="none" stroke="midnightblue" d="M879.17,-392.41C851.06,-380.3 815.2,-364.86 789.08,-353.61"/>
<polygon fill="midnightblue" stroke="midnightblue" points="877.81,-395.63 888.38,-396.37 880.58,-389.2 877.81,-395.63"/>
</g>
<!-- Node3 -->
<g id="node3" class="node">
<title>Node3</title>
<g id="a_node3"><a xlink:href="a01605.html#a7eae0427fb22e147d9c2ed1d532ed2aa" target="_top" xlink:title="returns an iterator to the first element">
<polygon fill="white" stroke="black" points="522,-641.5 522,-671.5 644,-671.5 644,-641.5 522,-641.5"/>
<text text-anchor="start" x="530" y="-659.5" font-family="Helvetica,sans-Serif" font-size="10.00">nlohmann::basic_json</text>
<text text-anchor="middle" x="583" y="-648.5" font-family="Helvetica,sans-Serif" font-size="10.00">::begin</text>
</a>
</g>
</g>
<!-- Node2&#45;&gt;Node3 -->
<g id="edge2" class="edge">
<title>Node2&#45;&gt;Node3</title>
<path fill="none" stroke="midnightblue" d="M726.91,-531.45C692.47,-561.59 631.42,-615.01 601.5,-641.18"/>
<polygon fill="midnightblue" stroke="midnightblue" points="729.43,-533.9 734.65,-524.68 724.82,-528.63 729.43,-533.9"/>
</g>
<!-- Node7 -->
<g id="node7" class="node">
<title>Node7</title>
<g id="a_node7"><a xlink:href="a01605.html#ae1e7bbc736b7e9d1155f9ee6c95b2090" target="_top" xlink:title="returns a const iterator to the first element">
<polygon fill="white" stroke="black" points="522,-494.5 522,-524.5 644,-524.5 644,-494.5 522,-494.5"/>
<text text-anchor="start" x="530" y="-512.5" font-family="Helvetica,sans-Serif" font-size="10.00">nlohmann::basic_json</text>
<text text-anchor="middle" x="583" y="-501.5" font-family="Helvetica,sans-Serif" font-size="10.00">::cbegin</text>
</a>
</g>
</g>
<!-- Node2&#45;&gt;Node7 -->
<g id="edge6" class="edge">
<title>Node2&#45;&gt;Node7</title>
<path fill="none" stroke="midnightblue" d="M681.48,-509.5C669.03,-509.5 656.17,-509.5 644.04,-509.5"/>
<polygon fill="midnightblue" stroke="midnightblue" points="681.82,-513 691.82,-509.5 681.82,-506 681.82,-513"/>
</g>
<!-- Node4 -->
<g id="node4" class="node">
<title>Node4</title>
<g id="a_node4"><a xlink:href="a01605.html#ae3866ccade11e7b73902169714363f21" target="_top" xlink:title="add an object to an object if key does not exist">
<polygon fill="white" stroke="black" points="340,-715.5 340,-745.5 462,-745.5 462,-715.5 340,-715.5"/>
<text text-anchor="start" x="348" y="-733.5" font-family="Helvetica,sans-Serif" font-size="10.00">nlohmann::basic_json</text>
<text text-anchor="middle" x="401" y="-722.5" font-family="Helvetica,sans-Serif" font-size="10.00">::emplace</text>
</a>
</g>
</g>
<!-- Node3&#45;&gt;Node4 -->
<g id="edge3" class="edge">
<title>Node3&#45;&gt;Node4</title>
<path fill="none" stroke="midnightblue" d="M542.46,-676.1C522.22,-685.8 497.05,-697.36 474,-706.5 466.16,-709.61 457.74,-712.66 449.52,-715.5"/>
<polygon fill="midnightblue" stroke="midnightblue" points="544.19,-679.15 551.67,-671.65 541.15,-672.85 544.19,-679.15"/>
</g>
<!-- Node5 -->
<g id="node5" class="node">
<title>Node5</title>
<g id="a_node5"><a xlink:href="a01605.html#ad1702349b3aeca0e518921336faa570c" target="_top" xlink:title="access the first element">
<polygon fill="white" stroke="black" points="340,-666.5 340,-696.5 462,-696.5 462,-666.5 340,-666.5"/>
<text text-anchor="start" x="348" y="-684.5" font-family="Helvetica,sans-Serif" font-size="10.00">nlohmann::basic_json</text>
<text text-anchor="middle" x="401" y="-673.5" font-family="Helvetica,sans-Serif" font-size="10.00">::front</text>
</a>
</g>
</g>
<!-- Node3&#45;&gt;Node5 -->
<g id="edge4" class="edge">
<title>Node3&#45;&gt;Node5</title>
<path fill="none" stroke="midnightblue" d="M511.74,-666.26C495.35,-668.53 478.04,-670.94 462.13,-673.15"/>
<polygon fill="midnightblue" stroke="midnightblue" points="512.39,-669.7 521.81,-664.86 511.43,-662.77 512.39,-669.7"/>
</g>
<!-- Node6 -->
<g id="node6" class="node">
<title>Node6</title>
<g id="a_node6"><a xlink:href="a01605.html#a27d668c5b974f4b3bded760f5553b5c6" target="_top" xlink:title="returns an iterator to the reverse&#45;end">
<polygon fill="white" stroke="black" points="340,-617.5 340,-647.5 462,-647.5 462,-617.5 340,-617.5"/>
<text text-anchor="start" x="348" y="-635.5" font-family="Helvetica,sans-Serif" font-size="10.00">nlohmann::basic_json</text>
<text text-anchor="middle" x="401" y="-624.5" font-family="Helvetica,sans-Serif" font-size="10.00">::rend</text>
</a>
</g>
</g>
<!-- Node3&#45;&gt;Node6 -->
<g id="edge5" class="edge">
<title>Node3&#45;&gt;Node6</title>
<path fill="none" stroke="midnightblue" d="M511.74,-647.13C495.35,-644.95 478.04,-642.64 462.13,-640.52"/>
<polygon fill="midnightblue" stroke="midnightblue" points="511.44,-650.62 521.81,-648.47 512.36,-643.68 511.44,-650.62"/>
</g>
<!-- Node8 -->
<g id="node8" class="node">
<title>Node8</title>
<g id="a_node8"><a xlink:href="a01605.html#aeb76c192095f808283822c8401d2a3a1" target="_top" xlink:title="returns a const iterator to the first element">
<polygon fill="white" stroke="black" points="340,-568.5 340,-598.5 462,-598.5 462,-568.5 340,-568.5"/>
<text text-anchor="start" x="348" y="-586.5" font-family="Helvetica,sans-Serif" font-size="10.00">nlohmann::basic_json</text>
<text text-anchor="middle" x="401" y="-575.5" font-family="Helvetica,sans-Serif" font-size="10.00">::begin</text>
</a>
</g>
</g>
<!-- Node7&#45;&gt;Node8 -->
<g id="edge7" class="edge">
<title>Node7&#45;&gt;Node8</title>
<path fill="none" stroke="midnightblue" d="M542.46,-529.1C522.22,-538.8 497.05,-550.36 474,-559.5 466.16,-562.61 457.74,-565.66 449.52,-568.5"/>
<polygon fill="midnightblue" stroke="midnightblue" points="544.19,-532.15 551.67,-524.65 541.15,-525.85 544.19,-532.15"/>
</g>
<!-- Node9 -->
<g id="node9" class="node">
<title>Node9</title>
<g id="a_node9"><a xlink:href="a01605.html#ae54982c31d6c21e140980ce502425cf6" target="_top" xlink:title="returns a const reverse iterator to one before the first">
<polygon fill="white" stroke="black" points="340,-519.5 340,-549.5 462,-549.5 462,-519.5 340,-519.5"/>
<text text-anchor="start" x="348" y="-537.5" font-family="Helvetica,sans-Serif" font-size="10.00">nlohmann::basic_json</text>
<text text-anchor="middle" x="401" y="-526.5" font-family="Helvetica,sans-Serif" font-size="10.00">::crend</text>
</a>
</g>
</g>
<!-- Node7&#45;&gt;Node9 -->
<g id="edge8" class="edge">
<title>Node7&#45;&gt;Node9</title>
<path fill="none" stroke="midnightblue" d="M511.74,-519.26C495.35,-521.53 478.04,-523.94 462.13,-526.15"/>
<polygon fill="midnightblue" stroke="midnightblue" points="512.39,-522.7 521.81,-517.86 511.43,-515.77 512.39,-522.7"/>
</g>
<!-- Node11 -->
<g id="node11" class="node">
<title>Node11</title>
<g id="a_node11"><a xlink:href="a01605.html#a135d1239f3189866baaede36ec0701c8" target="_top" xlink:title="access the first element">
<polygon fill="white" stroke="black" points="340,-470.5 340,-500.5 462,-500.5 462,-470.5 340,-470.5"/>
<text text-anchor="start" x="348" y="-488.5" font-family="Helvetica,sans-Serif" font-size="10.00">nlohmann::basic_json</text>
<text text-anchor="middle" x="401" y="-477.5" font-family="Helvetica,sans-Serif" font-size="10.00">::front</text>
</a>
</g>
</g>
<!-- Node7&#45;&gt;Node11 -->
<g id="edge10" class="edge">
<title>Node7&#45;&gt;Node11</title>
<path fill="none" stroke="midnightblue" d="M511.74,-500.13C495.35,-497.95 478.04,-495.64 462.13,-493.52"/>
<polygon fill="midnightblue" stroke="midnightblue" points="511.44,-503.62 521.81,-501.47 512.36,-496.68 511.44,-503.62"/>
</g>
<!-- Node12 -->
<g id="node12" class="node">
<title>Node12</title>
<g id="a_node12"><a xlink:href="a01605.html#a6c02637be3d8bd730a14082cc05f7a85" target="_top" xlink:title="updates a JSON object from another object, overwriting existing keys">
<polygon fill="white" stroke="black" points="340,-421.5 340,-451.5 462,-451.5 462,-421.5 340,-421.5"/>
<text text-anchor="start" x="348" y="-439.5" font-family="Helvetica,sans-Serif" font-size="10.00">nlohmann::basic_json</text>
<text text-anchor="middle" x="401" y="-428.5" font-family="Helvetica,sans-Serif" font-size="10.00">::update</text>
</a>
</g>
</g>
<!-- Node7&#45;&gt;Node12 -->
<g id="edge11" class="edge">
<title>Node7&#45;&gt;Node12</title>
<path fill="none" stroke="midnightblue" d="M540.57,-490.11C520.61,-481.02 496.24,-470.29 474,-461.5 465.39,-458.1 456.1,-454.69 447.15,-451.53"/>
<polygon fill="midnightblue" stroke="midnightblue" points="539.14,-493.3 549.69,-494.29 542.06,-486.94 539.14,-493.3"/>
</g>
<!-- Node10 -->
<g id="node10" class="node">
<title>Node10</title>
<g id="a_node10"><a xlink:href="a01605.html#a6adf45af5f550ae31fe3bf0759b9af14" target="_top" xlink:title="returns a const reverse iterator to one before the first">
<polygon fill="white" stroke="black" points="170,-519.5 170,-549.5 292,-549.5 292,-519.5 170,-519.5"/>
<text text-anchor="start" x="178" y="-537.5" font-family="Helvetica,sans-Serif" font-size="10.00">nlohmann::basic_json</text>
<text text-anchor="middle" x="231" y="-526.5" font-family="Helvetica,sans-Serif" font-size="10.00">::rend</text>
</a>
</g>
</g>
<!-- Node9&#45;&gt;Node10 -->
<g id="edge9" class="edge">
<title>Node9&#45;&gt;Node10</title>
<path fill="none" stroke="midnightblue" d="M329.48,-534.5C317.03,-534.5 304.17,-534.5 292.04,-534.5"/>
<polygon fill="midnightblue" stroke="midnightblue" points="329.82,-538 339.82,-534.5 329.82,-531 329.82,-538"/>
</g>
<!-- Node14 -->
<g id="node14" class="node">
<title>Node14</title>
<g id="a_node14"><a xlink:href="a01605.html#aab2588e4f8767b792656e5ebcf922a9f" target="_top" xlink:title="returns a const iterator to one past the last element">
<polygon fill="white" stroke="black" points="522,-323.5 522,-353.5 644,-353.5 644,-323.5 522,-323.5"/>
<text text-anchor="start" x="530" y="-341.5" font-family="Helvetica,sans-Serif" font-size="10.00">nlohmann::basic_json</text>
<text text-anchor="middle" x="583" y="-330.5" font-family="Helvetica,sans-Serif" font-size="10.00">::cend</text>
</a>
</g>
</g>
<!-- Node13&#45;&gt;Node14 -->
<g id="edge13" class="edge">
<title>Node13&#45;&gt;Node14</title>
<path fill="none" stroke="midnightblue" d="M681.48,-338.5C669.03,-338.5 656.17,-338.5 644.04,-338.5"/>
<polygon fill="midnightblue" stroke="midnightblue" points="681.82,-342 691.82,-338.5 681.82,-335 681.82,-342"/>
</g>
<!-- Node20 -->
<g id="node20" class="node">
<title>Node20</title>
<g id="a_node20"><a xlink:href="a01605.html#a4db895fabb72f717b2c641a5c338d5a8" target="_top" xlink:title="returns an iterator to one past the last element">
<polygon fill="white" stroke="black" points="510,-119 510,-138 656,-138 656,-119 510,-119"/>
<text text-anchor="middle" x="583" y="-126" font-family="Helvetica,sans-Serif" font-size="10.00">nlohmann::basic_json::end</text>
</a>
</g>
</g>
<!-- Node13&#45;&gt;Node20 -->
<g id="edge20" class="edge">
<title>Node13&#45;&gt;Node20</title>
<path fill="none" stroke="midnightblue" d="M733.65,-315.56C697.24,-270.05 617.18,-169.98 591.85,-138.31"/>
<polygon fill="midnightblue" stroke="midnightblue" points="730.94,-317.78 739.92,-323.4 736.4,-313.4 730.94,-317.78"/>
</g>
<!-- Node14&#45;&gt;Node12 -->
<g id="edge19" class="edge">
<title>Node14&#45;&gt;Node12</title>
<path fill="none" stroke="midnightblue" d="M555.35,-359.89C534.25,-376.03 503.52,-397.83 474,-412.5 467.39,-415.78 460.23,-418.78 453.07,-421.46"/>
<polygon fill="midnightblue" stroke="midnightblue" points="557.74,-362.47 563.49,-353.58 553.45,-356.94 557.74,-362.47"/>
</g>
<!-- Node15 -->
<g id="node15" class="node">
<title>Node15</title>
<g id="a_node15"><a xlink:href="a01605.html#a3b1077520ab6c8682a9039fcc2a50b5d" target="_top" xlink:title="access the last element">
<polygon fill="white" stroke="black" points="340,-372.5 340,-402.5 462,-402.5 462,-372.5 340,-372.5"/>
<text text-anchor="start" x="348" y="-390.5" font-family="Helvetica,sans-Serif" font-size="10.00">nlohmann::basic_json</text>
<text text-anchor="middle" x="401" y="-379.5" font-family="Helvetica,sans-Serif" font-size="10.00">::back</text>
</a>
</g>
</g>
<!-- Node14&#45;&gt;Node15 -->
<g id="edge14" class="edge">
<title>Node14&#45;&gt;Node15</title>
<path fill="none" stroke="midnightblue" d="M516.8,-356.25C497.29,-361.56 476.1,-367.33 457.29,-372.45"/>
<polygon fill="midnightblue" stroke="midnightblue" points="517.8,-359.61 526.53,-353.6 515.96,-352.85 517.8,-359.61"/>
</g>
<!-- Node16 -->
<g id="node16" class="node">
<title>Node16</title>
<g id="a_node16"><a xlink:href="a01605.html#abe4ea2bbb97eba3baad6c4286366e7c5" target="_top" xlink:title="returns a const reverse iterator to the last element">
<polygon fill="white" stroke="black" points="340,-323.5 340,-353.5 462,-353.5 462,-323.5 340,-323.5"/>
<text text-anchor="start" x="348" y="-341.5" font-family="Helvetica,sans-Serif" font-size="10.00">nlohmann::basic_json</text>
<text text-anchor="middle" x="401" y="-330.5" font-family="Helvetica,sans-Serif" font-size="10.00">::crbegin</text>
</a>
</g>
</g>
<!-- Node14&#45;&gt;Node16 -->
<g id="edge15" class="edge">
<title>Node14&#45;&gt;Node16</title>
<path fill="none" stroke="midnightblue" d="M511.74,-338.5C495.35,-338.5 478.04,-338.5 462.13,-338.5"/>
<polygon fill="midnightblue" stroke="midnightblue" points="511.81,-342 521.81,-338.5 511.81,-335 511.81,-342"/>
</g>
<!-- Node18 -->
<g id="node18" class="node">
<title>Node18</title>
<g id="a_node18"><a xlink:href="a01605.html#a94522e3b348ef50d9c212121b3478ee1" target="_top" xlink:title="returns a const iterator to one past the last element">
<polygon fill="white" stroke="black" points="328,-285 328,-304 474,-304 474,-285 328,-285"/>
<text text-anchor="middle" x="401" y="-292" font-family="Helvetica,sans-Serif" font-size="10.00">nlohmann::basic_json::end</text>
</a>
</g>
</g>
<!-- Node14&#45;&gt;Node18 -->
<g id="edge17" class="edge">
<title>Node14&#45;&gt;Node18</title>
<path fill="none" stroke="midnightblue" d="M511.97,-321.38C487.83,-315.48 461.67,-309.08 440.92,-304.01"/>
<polygon fill="midnightblue" stroke="midnightblue" points="511.27,-324.81 521.81,-323.79 512.93,-318.01 511.27,-324.81"/>
</g>
<!-- Node19 -->
<g id="node19" class="node">
<title>Node19</title>
<g id="a_node19"><a xlink:href="a01605.html#a581684a08bf3fa341f9fcec34d3885a3" target="_top" xlink:title="find an element in a JSON object">
<polygon fill="white" stroke="black" points="340,-235.5 340,-265.5 462,-265.5 462,-235.5 340,-235.5"/>
<text text-anchor="start" x="348" y="-253.5" font-family="Helvetica,sans-Serif" font-size="10.00">nlohmann::basic_json</text>
<text text-anchor="middle" x="401" y="-242.5" font-family="Helvetica,sans-Serif" font-size="10.00">::find</text>
</a>
</g>
</g>
<!-- Node14&#45;&gt;Node19 -->
<g id="edge18" class="edge">
<title>Node14&#45;&gt;Node19</title>
<path fill="none" stroke="midnightblue" d="M550.56,-317.97C529.47,-304.75 500.75,-287.8 474,-275.5 466.31,-271.96 457.96,-268.63 449.77,-265.62"/>
<polygon fill="midnightblue" stroke="midnightblue" points="548.79,-320.99 559.11,-323.38 552.53,-315.08 548.79,-320.99"/>
</g>
<!-- Node17 -->
<g id="node17" class="node">
<title>Node17</title>
<g id="a_node17"><a xlink:href="a01605.html#a8d792070799098e6172e82a3865875ee" target="_top" xlink:title="returns a const reverse iterator to the last element">
<polygon fill="white" stroke="black" points="170,-323.5 170,-353.5 292,-353.5 292,-323.5 170,-323.5"/>
<text text-anchor="start" x="178" y="-341.5" font-family="Helvetica,sans-Serif" font-size="10.00">nlohmann::basic_json</text>
<text text-anchor="middle" x="231" y="-330.5" font-family="Helvetica,sans-Serif" font-size="10.00">::rbegin</text>
</a>
</g>
</g>
<!-- Node16&#45;&gt;Node17 -->
<g id="edge16" class="edge">
<title>Node16&#45;&gt;Node17</title>
<path fill="none" stroke="midnightblue" d="M329.48,-338.5C317.03,-338.5 304.17,-338.5 292.04,-338.5"/>
<polygon fill="midnightblue" stroke="midnightblue" points="329.82,-342 339.82,-338.5 329.82,-335 329.82,-342"/>
</g>
<!-- Node21 -->
<g id="node21" class="node">
<title>Node21</title>
<g id="a_node21"><a xlink:href="a01605.html#ab87589ef6b14a6e6881109e04d414830" target="_top" xlink:title="access the last element">
<polygon fill="white" stroke="black" points="340,-186.5 340,-216.5 462,-216.5 462,-186.5 340,-186.5"/>
<text text-anchor="start" x="348" y="-204.5" font-family="Helvetica,sans-Serif" font-size="10.00">nlohmann::basic_json</text>
<text text-anchor="middle" x="401" y="-193.5" font-family="Helvetica,sans-Serif" font-size="10.00">::back</text>
</a>
</g>
</g>
<!-- Node20&#45;&gt;Node21 -->
<g id="edge21" class="edge">
<title>Node20&#45;&gt;Node21</title>
<path fill="none" stroke="midnightblue" d="M553.12,-142.6C531.56,-152.87 501.26,-166.81 474,-177.5 466.15,-180.58 457.72,-183.62 449.5,-186.45"/>
<polygon fill="midnightblue" stroke="midnightblue" points="554.86,-145.64 562.36,-138.16 551.83,-139.33 554.86,-145.64"/>
</g>
<!-- Node22 -->
<g id="node22" class="node">
<title>Node22</title>
<g id="a_node22"><a xlink:href="a01605.html#a0d0f5fb6f22126f7e3803dd7cdf7030f" target="_top" xlink:title="remove element given an iterator">
<polygon fill="white" stroke="black" points="340,-137.5 340,-167.5 462,-167.5 462,-137.5 340,-137.5"/>
<text text-anchor="start" x="348" y="-155.5" font-family="Helvetica,sans-Serif" font-size="10.00">nlohmann::basic_json</text>
<text text-anchor="middle" x="401" y="-144.5" font-family="Helvetica,sans-Serif" font-size="10.00">::erase</text>
</a>
</g>
</g>
<!-- Node20&#45;&gt;Node22 -->
<g id="edge22" class="edge">
<title>Node20&#45;&gt;Node22</title>
<path fill="none" stroke="midnightblue" d="M500.32,-139.39C487.42,-141.11 474.29,-142.86 462,-144.5"/>
<polygon fill="midnightblue" stroke="midnightblue" points="501.15,-142.81 510.6,-138.02 500.23,-135.87 501.15,-142.81"/>
</g>
<!-- Node24 -->
<g id="node24" class="node">
<title>Node24</title>
<g id="a_node24"><a xlink:href="a01605.html#af4167275baa0b2da76cdc89b1117c300" target="_top" xlink:title="find an element in a JSON object">
<polygon fill="white" stroke="black" points="340,-88.5 340,-118.5 462,-118.5 462,-88.5 340,-88.5"/>
<text text-anchor="start" x="348" y="-106.5" font-family="Helvetica,sans-Serif" font-size="10.00">nlohmann::basic_json</text>
<text text-anchor="middle" x="401" y="-95.5" font-family="Helvetica,sans-Serif" font-size="10.00">::find</text>
</a>
</g>
</g>
<!-- Node20&#45;&gt;Node24 -->
<g id="edge25" class="edge">
<title>Node20&#45;&gt;Node24</title>
<path fill="none" stroke="midnightblue" d="M503.44,-117.59C489.59,-115.67 475.37,-113.69 462.13,-111.85"/>
<polygon fill="midnightblue" stroke="midnightblue" points="503.05,-121.07 513.44,-118.98 504.01,-114.13 503.05,-121.07"/>
</g>
<!-- Node25 -->
<g id="node25" class="node">
<title>Node25</title>
<g id="a_node25"><a xlink:href="a01605.html#ab29a59d20767180d6d2fe4f5054dd245" target="_top" xlink:title="access specified object element with default value">
<polygon fill="white" stroke="black" points="170,-66.5 170,-96.5 292,-96.5 292,-66.5 170,-66.5"/>
<text text-anchor="start" x="178" y="-84.5" font-family="Helvetica,sans-Serif" font-size="10.00">nlohmann::basic_json</text>
<text text-anchor="middle" x="231" y="-73.5" font-family="Helvetica,sans-Serif" font-size="10.00">::value</text>
</a>
</g>
</g>
<!-- Node20&#45;&gt;Node25 -->
<g id="edge30" class="edge">
<title>Node20&#45;&gt;Node25</title>
<path fill="none" stroke="midnightblue" d="M558.38,-113.9C537.18,-101.71 504.76,-85.27 474,-78.5 413.27,-65.12 341.88,-68.22 292.45,-73.21"/>
<polygon fill="midnightblue" stroke="midnightblue" points="556.62,-116.92 567.01,-118.99 560.17,-110.89 556.62,-116.92"/>
</g>
<!-- Node28 -->
<g id="node28" class="node">
<title>Node28</title>
<g id="a_node28"><a xlink:href="a01605.html#a32674498f617591fff4002ad0934a4f6" target="_top" xlink:title="returns an iterator to the reverse&#45;beginning">
<polygon fill="white" stroke="black" points="340,-0.5 340,-30.5 462,-30.5 462,-0.5 340,-0.5"/>
<text text-anchor="start" x="348" y="-18.5" font-family="Helvetica,sans-Serif" font-size="10.00">nlohmann::basic_json</text>
<text text-anchor="middle" x="401" y="-7.5" font-family="Helvetica,sans-Serif" font-size="10.00">::rbegin</text>
</a>
</g>
</g>
<!-- Node20&#45;&gt;Node28 -->
<g id="edge29" class="edge">
<title>Node20&#45;&gt;Node28</title>
<path fill="none" stroke="midnightblue" d="M563.65,-111.98C542.97,-93.97 507.81,-65.08 474,-45.5 464.39,-39.93 453.55,-34.86 443.25,-30.52"/>
<polygon fill="midnightblue" stroke="midnightblue" points="561.52,-114.77 571.33,-118.76 566.15,-109.52 561.52,-114.77"/>
</g>
<!-- Node23 -->
<g id="node23" class="node">
<title>Node23</title>
<g id="a_node23"><a xlink:href="a01605.html#ab68414151f2f3347a71c7a9984f1d72d" target="_top" xlink:title="applies a JSON Merge Patch">
<polygon fill="white" stroke="black" points="170,-137.5 170,-167.5 292,-167.5 292,-137.5 170,-137.5"/>
<text text-anchor="start" x="178" y="-155.5" font-family="Helvetica,sans-Serif" font-size="10.00">nlohmann::basic_json</text>
<text text-anchor="middle" x="231" y="-144.5" font-family="Helvetica,sans-Serif" font-size="10.00">::merge_patch</text>
</a>
</g>
</g>
<!-- Node22&#45;&gt;Node23 -->
<g id="edge23" class="edge">
<title>Node22&#45;&gt;Node23</title>
<path fill="none" stroke="midnightblue" d="M329.48,-152.5C317.03,-152.5 304.17,-152.5 292.04,-152.5"/>
<polygon fill="midnightblue" stroke="midnightblue" points="329.82,-156 339.82,-152.5 329.82,-149 329.82,-156"/>
</g>
<!-- Node23&#45;&gt;Node23 -->
<g id="edge24" class="edge">
<title>Node23&#45;&gt;Node23</title>
<path fill="none" stroke="midnightblue" d="M260.14,-177.96C256.52,-182.68 246.81,-186 231,-186 205.05,-186 195.53,-177.06 202.42,-167.66"/>
<polygon fill="midnightblue" stroke="midnightblue" points="263.62,-177.45 259.58,-167.66 256.63,-177.83 263.62,-177.45"/>
</g>
<!-- Node24&#45;&gt;Node25 -->
<g id="edge26" class="edge">
<title>Node24&#45;&gt;Node25</title>
<path fill="none" stroke="midnightblue" d="M329.86,-94.31C317.29,-92.67 304.29,-90.97 292.04,-89.36"/>
<polygon fill="midnightblue" stroke="midnightblue" points="329.45,-97.79 339.82,-95.62 330.36,-90.85 329.45,-97.79"/>
</g>
<!-- Node26 -->
<g id="node26" class="node">
<title>Node26</title>
<g id="a_node26"><a xlink:href="a02005.html#a7d36046b1d3a41021459229963aa906d" target="_top" xlink:title="constructor for strings">
<polygon fill="white" stroke="black" points="0,-91.5 0,-121.5 134,-121.5 134,-91.5 0,-91.5"/>
<text text-anchor="start" x="8" y="-109.5" font-family="Helvetica,sans-Serif" font-size="10.00">nlohmann::basic_json</text>
<text text-anchor="middle" x="67" y="-98.5" font-family="Helvetica,sans-Serif" font-size="10.00">::json_value::json_value</text>
</a>
</g>
</g>
<!-- Node25&#45;&gt;Node26 -->
<g id="edge27" class="edge">
<title>Node25&#45;&gt;Node26</title>
<path fill="none" stroke="midnightblue" d="M159.76,-92.34C151.24,-93.65 142.55,-95 134.09,-96.3"/>
<polygon fill="midnightblue" stroke="midnightblue" points="160.33,-95.79 169.68,-90.81 159.26,-88.88 160.33,-95.79"/>
</g>
<!-- Node27 -->
<g id="node27" class="node">
<title>Node27</title>
<g id="a_node27"><a xlink:href="a01605.html#a7a378b9282dd1f7eb9bfffea6d177bbe" target="_top" xlink:title="overload for a default value of type const char*">
<polygon fill="white" stroke="black" points="6,-42.5 6,-72.5 128,-72.5 128,-42.5 6,-42.5"/>
<text text-anchor="start" x="14" y="-60.5" font-family="Helvetica,sans-Serif" font-size="10.00">nlohmann::basic_json</text>
<text text-anchor="middle" x="67" y="-49.5" font-family="Helvetica,sans-Serif" font-size="10.00">::value</text>
</a>
</g>
</g>
<!-- Node25&#45;&gt;Node27 -->
<g id="edge28" class="edge">
<title>Node25&#45;&gt;Node27</title>
<path fill="none" stroke="midnightblue" d="M159.69,-71.08C149.16,-69.52 138.39,-67.93 128.1,-66.4"/>
<polygon fill="midnightblue" stroke="midnightblue" points="159.27,-74.56 169.68,-72.56 160.3,-67.64 159.27,-74.56"/>
</g>
</g>
</svg>
