<?xml version="1.0" encoding="UTF-8" standalone="no"?>
<!DOCTYPE svg PUBLIC "-//W3C//DTD SVG 1.1//EN"
 "http://www.w3.org/Graphics/SVG/1.1/DTD/svg11.dtd">
<!-- Generated by graphviz version 8.0.5 (20230430.1635)
 -->
<!-- Title: nlohmann::detail::parser::parse Pages: 1 -->
<svg width="640pt" height="396pt"
 viewBox="0.00 0.00 639.75 396.00" xmlns="http://www.w3.org/2000/svg" xmlns:xlink="http://www.w3.org/1999/xlink">
<g id="graph0" class="graph" transform="scale(1 1) rotate(0) translate(4 392)">
<title>nlohmann::detail::parser::parse</title>
<!-- Node1 -->
<g id="node1" class="node">
<title>Node1</title>
<g id="a_node1"><a xlink:title="public parser interface">
<polygon fill="#999999" stroke="#666666" points="120.25,-228 0,-228 0,-196 120.25,-196 120.25,-228"/>
<text text-anchor="start" x="8" y="-214.5" font-family="Helvetica,sans-Serif" font-size="10.00">nlohmann::detail::parser</text>
<text text-anchor="middle" x="60.13" y="-202.5" font-family="Helvetica,sans-Serif" font-size="10.00">::parse</text>
</a>
</g>
</g>
<!-- Node2 -->
<g id="node2" class="node">
<title>Node2</title>
<g id="a_node2"><a xlink:href="a01497.html#a137ea4d27de45d8a844fd13451d40f3d" target="_top" xlink:title="create a parse error exception">
<polygon fill="white" stroke="#666666" points="459,-388 341.75,-388 341.75,-356 459,-356 459,-388"/>
<text text-anchor="start" x="349.75" y="-374.5" font-family="Helvetica,sans-Serif" font-size="10.00">nlohmann::detail::parse</text>
<text text-anchor="middle" x="400.38" y="-362.5" font-family="Helvetica,sans-Serif" font-size="10.00">_error::create</text>
</a>
</g>
</g>
<!-- Node1&#45;&gt;Node2 -->
<g id="edge1" class="edge">
<title>Node1&#45;&gt;Node2</title>
<path fill="none" stroke="#63b8ff" d="M67.94,-228.41C80.66,-256.74 110.9,-314.36 156.25,-341 208.89,-371.92 278.89,-377.92 330.26,-377.22"/>
<polygon fill="#63b8ff" stroke="#63b8ff" points="330.33,-380.7 340.25,-376.96 330.17,-373.7 330.33,-380.7"/>
</g>
<!-- Node5 -->
<g id="node5" class="node">
<title>Node5</title>
<g id="a_node5"><a xlink:href="a01933.html#a94e7f8a0f880c20c8a48f591f56cbd85" target="_top" xlink:title=" ">
<polygon fill="white" stroke="#666666" points="460.5,-288 340.25,-288 340.25,-256 460.5,-256 460.5,-288"/>
<text text-anchor="start" x="348.25" y="-274.5" font-family="Helvetica,sans-Serif" font-size="10.00">nlohmann::detail::parser</text>
<text text-anchor="middle" x="400.38" y="-262.5" font-family="Helvetica,sans-Serif" font-size="10.00">::exception_message</text>
</a>
</g>
</g>
<!-- Node1&#45;&gt;Node5 -->
<g id="edge4" class="edge">
<title>Node1&#45;&gt;Node5</title>
<path fill="none" stroke="#63b8ff" d="M120.67,-224.94C132.44,-227.38 144.72,-229.84 156.25,-232 214.3,-242.87 280.45,-253.65 329.07,-261.28"/>
<polygon fill="#63b8ff" stroke="#63b8ff" points="328.38,-264.86 338.8,-262.95 329.46,-257.95 328.38,-264.86"/>
</g>
<!-- Node6 -->
<g id="node6" class="node">
<title>Node6</title>
<g id="a_node6"><a xlink:href="a01933.html#a1212088ee1e23633a76b2ed80514de79" target="_top" xlink:title="get next token from lexer">
<polygon fill="white" stroke="#666666" points="460.5,-238 340.25,-238 340.25,-206 460.5,-206 460.5,-238"/>
<text text-anchor="start" x="348.25" y="-224.5" font-family="Helvetica,sans-Serif" font-size="10.00">nlohmann::detail::parser</text>
<text text-anchor="middle" x="400.38" y="-212.5" font-family="Helvetica,sans-Serif" font-size="10.00">::get_token</text>
</a>
</g>
</g>
<!-- Node1&#45;&gt;Node6 -->
<g id="edge5" class="edge">
<title>Node1&#45;&gt;Node6</title>
<path fill="none" stroke="#63b8ff" d="M120.75,-213.91C132.51,-214.27 144.77,-214.65 156.25,-215 214.52,-216.76 280.65,-218.66 329.22,-220.03"/>
<polygon fill="#63b8ff" stroke="#63b8ff" points="328.83,-223.55 338.92,-220.33 329.03,-216.55 328.83,-223.55"/>
</g>
<!-- Node7 -->
<g id="node7" class="node">
<title>Node7</title>
<g id="a_node7"><a xlink:href="a01901.html#ad1b9f3681fadbbb2e0127f5c8a99c662" target="_top" xlink:title=" ">
<polygon fill="white" stroke="#666666" points="301.25,-206 159.25,-206 159.25,-174 301.25,-174 301.25,-206"/>
<text text-anchor="start" x="167.25" y="-192.5" font-family="Helvetica,sans-Serif" font-size="10.00">nlohmann::detail::json</text>
<text text-anchor="middle" x="230.25" y="-180.5" font-family="Helvetica,sans-Serif" font-size="10.00">_sax_dom_parser::is_errored</text>
</a>
</g>
</g>
<!-- Node1&#45;&gt;Node7 -->
<g id="edge6" class="edge">
<title>Node1&#45;&gt;Node7</title>
<path fill="none" stroke="#63b8ff" d="M120.4,-204.24C129.47,-203.06 138.96,-201.82 148.39,-200.58"/>
<polygon fill="#63b8ff" stroke="#63b8ff" points="148.53,-203.96 158,-199.19 147.63,-197.02 148.53,-203.96"/>
</g>
<!-- Node8 -->
<g id="node8" class="node">
<title>Node8</title>
<g id="a_node8"><a xlink:href="a01905.html#a167fd9bf385d3d08bcbbba8a927c0eff" target="_top" xlink:title=" ">
<polygon fill="white" stroke="#666666" points="297.5,-156 163,-156 163,-112 297.5,-112 297.5,-156"/>
<text text-anchor="start" x="171" y="-142.5" font-family="Helvetica,sans-Serif" font-size="10.00">nlohmann::detail::json</text>
<text text-anchor="start" x="171" y="-130.5" font-family="Helvetica,sans-Serif" font-size="10.00">_sax_dom_callback_parser</text>
<text text-anchor="middle" x="230.25" y="-118.5" font-family="Helvetica,sans-Serif" font-size="10.00">::is_errored</text>
</a>
</g>
</g>
<!-- Node1&#45;&gt;Node8 -->
<g id="edge7" class="edge">
<title>Node1&#45;&gt;Node8</title>
<path fill="none" stroke="#63b8ff" d="M93.05,-195.66C111.41,-186.4 134.99,-174.76 156.25,-165 159.38,-163.56 162.59,-162.11 165.84,-160.66"/>
<polygon fill="#63b8ff" stroke="#63b8ff" points="166.93,-163.57 174.67,-156.34 164.11,-157.16 166.93,-163.57"/>
</g>
<!-- Node9 -->
<g id="node9" class="node">
<title>Node9</title>
<g id="a_node9"><a xlink:href="a01901.html#a7bc7d26e6a6f30185310de42cb2e820d" target="_top" xlink:title=" ">
<polygon fill="white" stroke="#666666" points="304.25,-94 156.25,-94 156.25,-62 304.25,-62 304.25,-94"/>
<text text-anchor="start" x="164.25" y="-80.5" font-family="Helvetica,sans-Serif" font-size="10.00">nlohmann::detail::json</text>
<text text-anchor="middle" x="230.25" y="-68.5" font-family="Helvetica,sans-Serif" font-size="10.00">_sax_dom_parser::parse_error</text>
</a>
</g>
</g>
<!-- Node1&#45;&gt;Node9 -->
<g id="edge8" class="edge">
<title>Node1&#45;&gt;Node9</title>
<path fill="none" stroke="#63b8ff" d="M71.38,-195.55C86.94,-171.86 118.72,-128.21 156.25,-103 158.19,-101.69 160.21,-100.45 162.28,-99.27"/>
<polygon fill="#63b8ff" stroke="#63b8ff" points="163.37,-102.13 170.67,-94.45 160.17,-95.9 163.37,-102.13"/>
</g>
<!-- Node10 -->
<g id="node10" class="node">
<title>Node10</title>
<g id="a_node10"><a xlink:href="a01905.html#afb54d6937ee5d5a40e1db94422998aec" target="_top" xlink:title=" ">
<polygon fill="white" stroke="#666666" points="297.5,-44 163,-44 163,0 297.5,0 297.5,-44"/>
<text text-anchor="start" x="171" y="-30.5" font-family="Helvetica,sans-Serif" font-size="10.00">nlohmann::detail::json</text>
<text text-anchor="start" x="171" y="-18.5" font-family="Helvetica,sans-Serif" font-size="10.00">_sax_dom_callback_parser</text>
<text text-anchor="middle" x="230.25" y="-6.5" font-family="Helvetica,sans-Serif" font-size="10.00">::parse_error</text>
</a>
</g>
</g>
<!-- Node1&#45;&gt;Node10 -->
<g id="edge9" class="edge">
<title>Node1&#45;&gt;Node10</title>
<path fill="none" stroke="#63b8ff" d="M66.88,-195.75C78.83,-164.16 109.2,-93.99 156.25,-53 157.27,-52.11 158.32,-51.24 159.4,-50.4"/>
<polygon fill="#63b8ff" stroke="#63b8ff" points="160.89,-52.93 167.09,-44.34 156.89,-47.18 160.89,-52.93"/>
</g>
<!-- Node11 -->
<g id="node11" class="node">
<title>Node11</title>
<g id="a_node11"><a xlink:href="a01933.html#a678fdebccc8ddd3242c67b6bce2f8f1a" target="_top" xlink:title=" ">
<polygon fill="white" stroke="#666666" points="290.38,-332 170.13,-332 170.13,-300 290.38,-300 290.38,-332"/>
<text text-anchor="start" x="178.13" y="-318.5" font-family="Helvetica,sans-Serif" font-size="10.00">nlohmann::detail::parser</text>
<text text-anchor="middle" x="230.25" y="-306.5" font-family="Helvetica,sans-Serif" font-size="10.00">::sax_parse_internal</text>
</a>
</g>
</g>
<!-- Node1&#45;&gt;Node11 -->
<g id="edge10" class="edge">
<title>Node1&#45;&gt;Node11</title>
<path fill="none" stroke="#63b8ff" d="M79.01,-228.33C97.37,-244.5 127.29,-269.21 156.25,-286 161.93,-289.29 168.04,-292.4 174.22,-295.29"/>
<polygon fill="#63b8ff" stroke="#63b8ff" points="172.38,-298.74 182.94,-299.62 175.23,-292.35 172.38,-298.74"/>
</g>
<!-- Node3 -->
<g id="node3" class="node">
<title>Node3</title>
<g id="a_node3"><a xlink:href="a01493.html#abf41a7e9178356314082284e6cfea278" target="_top" xlink:title=" ">
<polygon fill="white" stroke="#666666" points="631.75,-338 496.5,-338 496.5,-306 631.75,-306 631.75,-338"/>
<text text-anchor="start" x="504.5" y="-324.5" font-family="Helvetica,sans-Serif" font-size="10.00">nlohmann::detail::exception</text>
<text text-anchor="middle" x="564.13" y="-312.5" font-family="Helvetica,sans-Serif" font-size="10.00">::name</text>
</a>
</g>
</g>
<!-- Node2&#45;&gt;Node3 -->
<g id="edge2" class="edge">
<title>Node2&#45;&gt;Node3</title>
<path fill="none" stroke="#63b8ff" d="M454.34,-355.63C468.79,-351.16 484.59,-346.28 499.56,-341.65"/>
<polygon fill="#63b8ff" stroke="#63b8ff" points="500.25,-344.79 508.77,-338.49 498.18,-338.1 500.25,-344.79"/>
</g>
<!-- Node4 -->
<g id="node4" class="node">
<title>Node4</title>
<g id="a_node4"><a xlink:href="a01497.html#aefe74adeaa48781464ba2fd2ec63d221" target="_top" xlink:title=" ">
<polygon fill="white" stroke="#666666" points="622.75,-388 505.5,-388 505.5,-356 622.75,-356 622.75,-388"/>
<text text-anchor="start" x="513.5" y="-374.5" font-family="Helvetica,sans-Serif" font-size="10.00">nlohmann::detail::parse</text>
<text text-anchor="middle" x="564.13" y="-362.5" font-family="Helvetica,sans-Serif" font-size="10.00">_error::position_string</text>
</a>
</g>
</g>
<!-- Node2&#45;&gt;Node4 -->
<g id="edge3" class="edge">
<title>Node2&#45;&gt;Node4</title>
<path fill="none" stroke="#63b8ff" d="M459.31,-372C470.58,-372 482.49,-372 494.08,-372"/>
<polygon fill="#63b8ff" stroke="#63b8ff" points="494.05,-375.5 504.05,-372 494.05,-368.5 494.05,-375.5"/>
</g>
<!-- Node11&#45;&gt;Node2 -->
<g id="edge11" class="edge">
<title>Node11&#45;&gt;Node2</title>
<path fill="none" stroke="#63b8ff" d="M280.78,-332.5C299.26,-338.65 320.42,-345.7 339.71,-352.13"/>
<polygon fill="#63b8ff" stroke="#63b8ff" points="338.31,-355.68 348.91,-355.52 340.52,-349.04 338.31,-355.68"/>
</g>
<!-- Node11&#45;&gt;Node5 -->
<g id="edge14" class="edge">
<title>Node11&#45;&gt;Node5</title>
<path fill="none" stroke="#63b8ff" d="M290.52,-300.49C303.13,-297.19 316.56,-293.67 329.52,-290.28"/>
<polygon fill="#63b8ff" stroke="#63b8ff" points="330,-293.51 338.79,-287.6 328.22,-286.74 330,-293.51"/>
</g>
<!-- Node11&#45;&gt;Node6 -->
<g id="edge15" class="edge">
<title>Node11&#45;&gt;Node6</title>
<path fill="none" stroke="#63b8ff" d="M254.4,-299.77C276.02,-285 309.49,-263.1 340.25,-247 342.8,-245.67 345.44,-244.35 348.12,-243.05"/>
<polygon fill="#63b8ff" stroke="#63b8ff" points="349.34,-245.88 356.94,-238.49 346.4,-239.53 349.34,-245.88"/>
</g>
<!-- Node12 -->
<g id="node12" class="node">
<title>Node12</title>
<g id="a_node12"><a xlink:href="a01509.html#a3f6d82a6f967c4728a1ec735a7867073" target="_top" xlink:title=" ">
<polygon fill="white" stroke="#666666" points="453.75,-338 347,-338 347,-306 453.75,-306 453.75,-338"/>
<text text-anchor="start" x="355" y="-324.5" font-family="Helvetica,sans-Serif" font-size="10.00">nlohmann::detail::out</text>
<text text-anchor="middle" x="400.38" y="-312.5" font-family="Helvetica,sans-Serif" font-size="10.00">_of_range::create</text>
</a>
</g>
</g>
<!-- Node11&#45;&gt;Node12 -->
<g id="edge12" class="edge">
<title>Node11&#45;&gt;Node12</title>
<path fill="none" stroke="#63b8ff" d="M290.52,-318.12C305.21,-318.64 321,-319.2 335.87,-319.73"/>
<polygon fill="#63b8ff" stroke="#63b8ff" points="335.4,-323.25 345.51,-320.11 335.64,-316.26 335.4,-323.25"/>
</g>
<!-- Node12&#45;&gt;Node3 -->
<g id="edge13" class="edge">
<title>Node12&#45;&gt;Node3</title>
<path fill="none" stroke="#63b8ff" d="M453.89,-322C463.89,-322 474.54,-322 485.14,-322"/>
<polygon fill="#63b8ff" stroke="#63b8ff" points="485.12,-325.5 495.12,-322 485.12,-318.5 485.12,-325.5"/>
</g>
</g>
</svg>
