<?xml version="1.0" encoding="UTF-8" standalone="no"?>
<!DOCTYPE svg PUBLIC "-//W3C//DTD SVG 1.1//EN"
 "http://www.w3.org/Graphics/SVG/1.1/DTD/svg11.dtd">
<!-- Generated by graphviz version 7.0.1 (20221109.1506)
 -->
<!-- Title: nlohmann::detail::output_stream_adapter&lt; CharType &gt; Pages: 1 -->
<svg width="645pt" height="86pt"
 viewBox="0.00 0.00 645.00 86.00" xmlns="http://www.w3.org/2000/svg" xmlns:xlink="http://www.w3.org/1999/xlink">
<g id="graph0" class="graph" transform="scale(1 1) rotate(0) translate(4 82)">
<title>nlohmann::detail::output_stream_adapter&lt; CharType &gt;</title>
<!-- Node1 -->
<g id="node1" class="node">
<title>Node1</title>
<g id="a_node1"><a xlink:title="output adapter for output streams">
<polygon fill="#999999" stroke="#666666" points="637,-54 488,-54 488,-24 637,-24 637,-54"/>
<text text-anchor="start" x="496" y="-42" font-family="Helvetica,sans-Serif" font-size="10.00">nlohmann::detail::output</text>
<text text-anchor="middle" x="562.5" y="-31" font-family="Helvetica,sans-Serif" font-size="10.00">_stream_adapter&lt; CharType &gt;</text>
</a>
</g>
</g>
<!-- Node2 -->
<g id="node2" class="node">
<title>Node2</title>
<g id="a_node2"><a xlink:href="a01953.html" target="_top" xlink:title="abstract output adapter interface">
<polygon fill="white" stroke="#666666" points="418,-78 265,-78 265,-48 418,-48 418,-78"/>
<text text-anchor="start" x="273" y="-66" font-family="Helvetica,sans-Serif" font-size="10.00">nlohmann::detail::output</text>
<text text-anchor="middle" x="341.5" y="-55" font-family="Helvetica,sans-Serif" font-size="10.00">_adapter_protocol&lt; CharType &gt;</text>
</a>
</g>
</g>
<!-- Node2&#45;&gt;Node1 -->
<g id="edge1" class="edge">
<title>Node2&#45;&gt;Node1</title>
<path fill="none" stroke="#63b8ff" d="M429.9,-53.42C448.99,-51.33 469,-49.14 487.5,-47.11"/>
<polygon fill="#63b8ff" stroke="#63b8ff" points="429.54,-49.94 419.99,-54.51 430.31,-56.9 429.54,-49.94"/>
</g>
<!-- Node3 -->
<g id="node3" class="node">
<title>Node3</title>
<g id="a_node3"><a xlink:title=" ">
<polygon fill="white" stroke="#666666" points="391.5,-30 291.5,-30 291.5,0 391.5,0 391.5,-30"/>
<text text-anchor="start" x="299.5" y="-18" font-family="Helvetica,sans-Serif" font-size="10.00">std::basic_ostream</text>
<text text-anchor="middle" x="341.5" y="-7" font-family="Helvetica,sans-Serif" font-size="10.00">&lt; CharType &gt;</text>
</a>
</g>
</g>
<!-- Node3&#45;&gt;Node1 -->
<g id="edge2" class="edge">
<title>Node3&#45;&gt;Node1</title>
<path fill="none" stroke="#9a32cd" stroke-dasharray="5,2" d="M403.21,-21.65C429.38,-24.52 460.24,-27.9 487.72,-30.91"/>
<polygon fill="#9a32cd" stroke="#9a32cd" points="403.75,-18.19 393.43,-20.58 402.98,-25.15 403.75,-18.19"/>
<text text-anchor="middle" x="453" y="-31" font-family="Helvetica,sans-Serif" font-size="10.00"> stream</text>
</g>
<!-- Node4 -->
<g id="node4" class="node">
<title>Node4</title>
<g id="a_node4"><a xlink:title=" ">
<polygon fill="white" stroke="#666666" points="228,-24.5 112,-24.5 112,-5.5 228,-5.5 228,-24.5"/>
<text text-anchor="middle" x="170" y="-12.5" font-family="Helvetica,sans-Serif" font-size="10.00">std::basic_ios&lt; Char &gt;</text>
</a>
</g>
</g>
<!-- Node4&#45;&gt;Node3 -->
<g id="edge3" class="edge">
<title>Node4&#45;&gt;Node3</title>
<path fill="none" stroke="#63b8ff" d="M239.56,-15C256.81,-15 275,-15 291.1,-15"/>
<polygon fill="#63b8ff" stroke="#63b8ff" points="239.9,-11.5 229.9,-15 239.9,-18.5 239.9,-11.5"/>
</g>
<!-- Node5 -->
<g id="node5" class="node">
<title>Node5</title>
<g id="a_node5"><a xlink:title=" ">
<polygon fill="white" stroke="#666666" points="75,-24.5 0,-24.5 0,-5.5 75,-5.5 75,-24.5"/>
<text text-anchor="middle" x="37.5" y="-12.5" font-family="Helvetica,sans-Serif" font-size="10.00">std::ios_base</text>
</a>
</g>
</g>
<!-- Node5&#45;&gt;Node4 -->
<g id="edge4" class="edge">
<title>Node5&#45;&gt;Node4</title>
<path fill="none" stroke="#63b8ff" d="M86.44,-15C94.63,-15 103.2,-15 111.59,-15"/>
<polygon fill="#63b8ff" stroke="#63b8ff" points="86.71,-11.5 76.71,-15 86.71,-18.5 86.71,-11.5"/>
</g>
</g>
</svg>
