<?xml version="1.0" encoding="UTF-8" standalone="no"?>
<!DOCTYPE svg PUBLIC "-//W3C//DTD SVG 1.1//EN"
 "http://www.w3.org/Graphics/SVG/1.1/DTD/svg11.dtd">
<!-- Generated by graphviz version 5.0.0 (20220707.1540)
 -->
<!-- Title: nlohmann::detail::serializer::dump_float Pages: 1 -->
<svg width="755pt" height="198pt"
 viewBox="0.00 0.00 755.00 198.00" xmlns="http://www.w3.org/2000/svg" xmlns:xlink="http://www.w3.org/1999/xlink">
<g id="graph0" class="graph" transform="scale(1 1) rotate(0) translate(4 194)">
<title>nlohmann::detail::serializer::dump_float</title>
<polygon fill="white" stroke="transparent" points="-4,4 -4,-194 751,-194 751,4 -4,4"/>
<!-- Node1 -->
<g id="node1" class="node">
<title>Node1</title>
<g id="a_node1"><a xlink:title=" ">
<polygon fill="#bfbfbf" stroke="black" points="0,-100.5 0,-130.5 133,-130.5 133,-100.5 0,-100.5"/>
<text text-anchor="start" x="8" y="-118.5" font-family="Helvetica,sans-Serif" font-size="10.00">nlohmann::detail::serializer</text>
<text text-anchor="middle" x="66.5" y="-107.5" font-family="Helvetica,sans-Serif" font-size="10.00">::dump_float</text>
</a>
</g>
</g>
<!-- Node2 -->
<g id="node2" class="node">
<title>Node2</title>
<g id="a_node2"><a xlink:href="a00411.html#a4ceeb4ec7f2cd493dd9cf328044c1e3c" target="_top" xlink:title="generates a decimal representation of the floating&#45;point number value in [first, last).">
<polygon fill="white" stroke="black" points="169,-100.5 169,-130.5 271,-130.5 271,-100.5 169,-100.5"/>
<text text-anchor="start" x="177" y="-118.5" font-family="Helvetica,sans-Serif" font-size="10.00">nlohmann::detail::to</text>
<text text-anchor="middle" x="220" y="-107.5" font-family="Helvetica,sans-Serif" font-size="10.00">_chars</text>
</a>
</g>
</g>
<!-- Node1&#45;&gt;Node2 -->
<g id="edge1" class="edge">
<title>Node1&#45;&gt;Node2</title>
<path fill="none" stroke="midnightblue" d="M133.07,-115.5C141.6,-115.5 150.3,-115.5 158.74,-115.5"/>
<polygon fill="midnightblue" stroke="midnightblue" points="158.86,-119 168.86,-115.5 158.86,-112 158.86,-119"/>
</g>
<!-- Node3 -->
<g id="node3" class="node">
<title>Node3</title>
<g id="a_node3"><a xlink:href="a00413.html#a0986c3e015db045df89506436f19e07c" target="_top" xlink:title="prettify v = buf * 10^decimal_exponent">
<polygon fill="white" stroke="black" points="307,-142.5 307,-172.5 420,-172.5 420,-142.5 307,-142.5"/>
<text text-anchor="start" x="315" y="-160.5" font-family="Helvetica,sans-Serif" font-size="10.00">nlohmann::detail::dtoa</text>
<text text-anchor="middle" x="363.5" y="-149.5" font-family="Helvetica,sans-Serif" font-size="10.00">_impl::format_buffer</text>
</a>
</g>
</g>
<!-- Node2&#45;&gt;Node3 -->
<g id="edge2" class="edge">
<title>Node2&#45;&gt;Node3</title>
<path fill="none" stroke="midnightblue" d="M271.29,-130.43C281.28,-133.39 291.87,-136.53 302.16,-139.59"/>
<polygon fill="midnightblue" stroke="midnightblue" points="301.32,-142.99 311.9,-142.48 303.31,-136.28 301.32,-142.99"/>
</g>
<!-- Node5 -->
<g id="node5" class="node">
<title>Node5</title>
<g id="a_node5"><a xlink:href="a00413.html#a05b681dcb8569b9784c6dccfadb01633" target="_top" xlink:title=" ">
<polygon fill="white" stroke="black" points="307,-76.5 307,-106.5 420,-106.5 420,-76.5 307,-76.5"/>
<text text-anchor="start" x="315" y="-94.5" font-family="Helvetica,sans-Serif" font-size="10.00">nlohmann::detail::dtoa</text>
<text text-anchor="middle" x="363.5" y="-83.5" font-family="Helvetica,sans-Serif" font-size="10.00">_impl::grisu2</text>
</a>
</g>
</g>
<!-- Node2&#45;&gt;Node5 -->
<g id="edge4" class="edge">
<title>Node2&#45;&gt;Node5</title>
<path fill="none" stroke="midnightblue" d="M271.29,-106.97C279.51,-105.58 288.13,-104.11 296.66,-102.67"/>
<polygon fill="midnightblue" stroke="midnightblue" points="297.33,-106.1 306.6,-100.98 296.16,-99.2 297.33,-106.1"/>
</g>
<!-- Node4 -->
<g id="node4" class="node">
<title>Node4</title>
<g id="a_node4"><a xlink:href="a00413.html#a78ad745d14b79fc65714c9938981faf6" target="_top" xlink:title="appends a decimal representation of e to buf">
<polygon fill="white" stroke="black" points="458.5,-159.5 458.5,-189.5 580.5,-189.5 580.5,-159.5 458.5,-159.5"/>
<text text-anchor="start" x="466.5" y="-177.5" font-family="Helvetica,sans-Serif" font-size="10.00">nlohmann::detail::dtoa</text>
<text text-anchor="middle" x="519.5" y="-166.5" font-family="Helvetica,sans-Serif" font-size="10.00">_impl::append_exponent</text>
</a>
</g>
</g>
<!-- Node3&#45;&gt;Node4 -->
<g id="edge3" class="edge">
<title>Node3&#45;&gt;Node4</title>
<path fill="none" stroke="midnightblue" d="M420.1,-163.64C429.21,-164.64 438.75,-165.7 448.16,-166.74"/>
<polygon fill="midnightblue" stroke="midnightblue" points="447.97,-170.24 458.3,-167.85 448.74,-163.28 447.97,-170.24"/>
</g>
<!-- Node6 -->
<g id="node6" class="node">
<title>Node6</title>
<g id="a_node6"><a xlink:href="a00413.html#adbf329a18c5cf854a3477327afd2200b" target="_top" xlink:title=" ">
<polygon fill="white" stroke="black" points="456,-99 456,-140 583,-140 583,-99 456,-99"/>
<text text-anchor="start" x="464" y="-128" font-family="Helvetica,sans-Serif" font-size="10.00">nlohmann::detail::dtoa</text>
<text text-anchor="start" x="464" y="-117" font-family="Helvetica,sans-Serif" font-size="10.00">_impl::get_cached_power</text>
<text text-anchor="middle" x="519.5" y="-106" font-family="Helvetica,sans-Serif" font-size="10.00">_for_binary_exponent</text>
</a>
</g>
</g>
<!-- Node5&#45;&gt;Node6 -->
<g id="edge5" class="edge">
<title>Node5&#45;&gt;Node6</title>
<path fill="none" stroke="midnightblue" d="M420.1,-101.61C428.46,-103.13 437.18,-104.72 445.83,-106.29"/>
<polygon fill="midnightblue" stroke="midnightblue" points="445.47,-109.78 455.93,-108.12 446.72,-102.89 445.47,-109.78"/>
</g>
<!-- Node7 -->
<g id="node7" class="node">
<title>Node7</title>
<g id="a_node7"><a xlink:href="a00413.html#a9b899c72b0e1e3dd46d75c2b4e6bcdfb" target="_top" xlink:title=" ">
<polygon fill="white" stroke="black" points="461.5,-49.5 461.5,-79.5 577.5,-79.5 577.5,-49.5 461.5,-49.5"/>
<text text-anchor="start" x="469.5" y="-67.5" font-family="Helvetica,sans-Serif" font-size="10.00">nlohmann::detail::dtoa</text>
<text text-anchor="middle" x="519.5" y="-56.5" font-family="Helvetica,sans-Serif" font-size="10.00">_impl::grisu2_digit_gen</text>
</a>
</g>
</g>
<!-- Node5&#45;&gt;Node7 -->
<g id="edge6" class="edge">
<title>Node5&#45;&gt;Node7</title>
<path fill="none" stroke="midnightblue" d="M420.1,-81.75C430.28,-79.97 441.01,-78.09 451.49,-76.25"/>
<polygon fill="midnightblue" stroke="midnightblue" points="452.18,-79.68 461.43,-74.51 450.98,-72.79 452.18,-79.68"/>
</g>
<!-- Node11 -->
<g id="node11" class="node">
<title>Node11</title>
<g id="a_node11"><a xlink:href="a01977.html#aa5f250d12ce89c81fdb08900c6a823e8" target="_top" xlink:title="returns x * y">
<polygon fill="white" stroke="black" points="463,-0.5 463,-30.5 576,-30.5 576,-0.5 463,-0.5"/>
<text text-anchor="start" x="471" y="-18.5" font-family="Helvetica,sans-Serif" font-size="10.00">nlohmann::detail::dtoa</text>
<text text-anchor="middle" x="519.5" y="-7.5" font-family="Helvetica,sans-Serif" font-size="10.00">_impl::diyfp::mul</text>
</a>
</g>
</g>
<!-- Node5&#45;&gt;Node11 -->
<g id="edge10" class="edge">
<title>Node5&#45;&gt;Node11</title>
<path fill="none" stroke="midnightblue" d="M389.68,-76.32C407.8,-65.67 433.01,-51.45 456,-40.5 460.26,-38.47 464.73,-36.46 469.24,-34.51"/>
<polygon fill="midnightblue" stroke="midnightblue" points="470.64,-37.72 478.49,-30.62 467.92,-31.27 470.64,-37.72"/>
</g>
<!-- Node8 -->
<g id="node8" class="node">
<title>Node8</title>
<g id="a_node8"><a xlink:href="a00413.html#a36ded358763b5dbcea9867660fbe4e28" target="_top" xlink:title=" ">
<polygon fill="white" stroke="black" points="619,-98.5 619,-128.5 747,-128.5 747,-98.5 619,-98.5"/>
<text text-anchor="start" x="627" y="-116.5" font-family="Helvetica,sans-Serif" font-size="10.00">nlohmann::detail::dtoa</text>
<text text-anchor="middle" x="683" y="-105.5" font-family="Helvetica,sans-Serif" font-size="10.00">_impl::find_largest_pow10</text>
</a>
</g>
</g>
<!-- Node7&#45;&gt;Node8 -->
<g id="edge7" class="edge">
<title>Node7&#45;&gt;Node8</title>
<path fill="none" stroke="midnightblue" d="M570.27,-79.6C586.78,-84.61 605.31,-90.23 622.47,-95.44"/>
<polygon fill="midnightblue" stroke="midnightblue" points="621.81,-98.89 632.39,-98.45 623.84,-92.2 621.81,-98.89"/>
</g>
<!-- Node9 -->
<g id="node9" class="node">
<title>Node9</title>
<g id="a_node9"><a xlink:href="a00413.html#a5bc841e0bee12fd6489d49cf7bd07bb4" target="_top" xlink:title=" ">
<polygon fill="white" stroke="black" points="626.5,-49.5 626.5,-79.5 739.5,-79.5 739.5,-49.5 626.5,-49.5"/>
<text text-anchor="start" x="634.5" y="-67.5" font-family="Helvetica,sans-Serif" font-size="10.00">nlohmann::detail::dtoa</text>
<text text-anchor="middle" x="683" y="-56.5" font-family="Helvetica,sans-Serif" font-size="10.00">_impl::grisu2_round</text>
</a>
</g>
</g>
<!-- Node7&#45;&gt;Node9 -->
<g id="edge8" class="edge">
<title>Node7&#45;&gt;Node9</title>
<path fill="none" stroke="midnightblue" d="M577.89,-64.5C590.34,-64.5 603.6,-64.5 616.34,-64.5"/>
<polygon fill="midnightblue" stroke="midnightblue" points="616.42,-68 626.42,-64.5 616.42,-61 616.42,-68"/>
</g>
<!-- Node10 -->
<g id="node10" class="node">
<title>Node10</title>
<g id="a_node10"><a xlink:href="a01977.html#aeb26771af54ad73598c1a0430d65d884" target="_top" xlink:title="returns x &#45; y">
<polygon fill="white" stroke="black" points="626.5,-0.5 626.5,-30.5 739.5,-30.5 739.5,-0.5 626.5,-0.5"/>
<text text-anchor="start" x="634.5" y="-18.5" font-family="Helvetica,sans-Serif" font-size="10.00">nlohmann::detail::dtoa</text>
<text text-anchor="middle" x="683" y="-7.5" font-family="Helvetica,sans-Serif" font-size="10.00">_impl::diyfp::sub</text>
</a>
</g>
</g>
<!-- Node7&#45;&gt;Node10 -->
<g id="edge9" class="edge">
<title>Node7&#45;&gt;Node10</title>
<path fill="none" stroke="midnightblue" d="M570.27,-49.4C586.78,-44.39 605.31,-38.77 622.47,-33.56"/>
<polygon fill="midnightblue" stroke="midnightblue" points="623.84,-36.8 632.39,-30.55 621.81,-30.11 623.84,-36.8"/>
</g>
</g>
</svg>
