<?xml version="1.0" encoding="UTF-8" standalone="no"?>
<!DOCTYPE svg PUBLIC "-//W3C//DTD SVG 1.1//EN"
 "http://www.w3.org/Graphics/SVG/1.1/DTD/svg11.dtd">
<!-- Generated by graphviz version 2.43.0 (0)
 -->
<!-- Title: nlohmann::detail::output_adapter_protocol&lt; CharType &gt; Pages: 1 -->
<svg width="383pt" height="137pt"
 viewBox="0.00 0.00 383.00 137.00" xmlns="http://www.w3.org/2000/svg" xmlns:xlink="http://www.w3.org/1999/xlink">
<g id="graph0" class="graph" transform="scale(1 1) rotate(0) translate(4 133)">
<title>nlohmann::detail::output_adapter_protocol&lt; CharType &gt;</title>
<polygon fill="white" stroke="transparent" points="-4,4 -4,-133 379,-133 379,4 -4,4"/>
<!-- Node1 -->
<g id="node1" class="node">
<title>Node1</title>
<g id="a_node1"><a xlink:title="abstract output adapter interface">
<polygon fill="#bfbfbf" stroke="black" points="0,-49.5 0,-79.5 172,-79.5 172,-49.5 0,-49.5"/>
<text text-anchor="start" x="8" y="-67.5" font-family="Helvetica,sans-Serif" font-size="10.00">nlohmann::detail::output</text>
<text text-anchor="middle" x="86" y="-56.5" font-family="Helvetica,sans-Serif" font-size="10.00">_adapter_protocol&lt; CharType &gt;</text>
</a>
</g>
</g>
<!-- Node2 -->
<g id="node2" class="node">
<title>Node2</title>
<g id="a_node2"><a xlink:href="a01973.html" target="_top" xlink:title="output adapter for output streams">
<polygon fill="white" stroke="black" points="208,-98.5 208,-128.5 375,-128.5 375,-98.5 208,-98.5"/>
<text text-anchor="start" x="216" y="-116.5" font-family="Helvetica,sans-Serif" font-size="10.00">nlohmann::detail::output</text>
<text text-anchor="middle" x="291.5" y="-105.5" font-family="Helvetica,sans-Serif" font-size="10.00">_stream_adapter&lt; CharType &gt;</text>
</a>
</g>
</g>
<!-- Node1&#45;&gt;Node2 -->
<g id="edge1" class="edge">
<title>Node1&#45;&gt;Node2</title>
<path fill="none" stroke="midnightblue" d="M159.28,-81.9C181.79,-87.32 206.41,-93.25 228.18,-98.49"/>
<polygon fill="midnightblue" stroke="midnightblue" points="159.98,-78.47 149.44,-79.53 158.34,-85.28 159.98,-78.47"/>
</g>
<!-- Node3 -->
<g id="node3" class="node">
<title>Node3</title>
<g id="a_node3"><a xlink:href="a01977.html" target="_top" xlink:title="output adapter for basic_string">
<polygon fill="white" stroke="black" points="211.5,-49.5 211.5,-79.5 371.5,-79.5 371.5,-49.5 211.5,-49.5"/>
<text text-anchor="start" x="219.5" y="-67.5" font-family="Helvetica,sans-Serif" font-size="10.00">nlohmann::detail::output</text>
<text text-anchor="middle" x="291.5" y="-56.5" font-family="Helvetica,sans-Serif" font-size="10.00">_string_adapter&lt; CharType &gt;</text>
</a>
</g>
</g>
<!-- Node1&#45;&gt;Node3 -->
<g id="edge2" class="edge">
<title>Node1&#45;&gt;Node3</title>
<path fill="none" stroke="midnightblue" d="M182.21,-64.5C191.92,-64.5 201.72,-64.5 211.24,-64.5"/>
<polygon fill="midnightblue" stroke="midnightblue" points="182.12,-61 172.12,-64.5 182.12,-68 182.12,-61"/>
</g>
<!-- Node4 -->
<g id="node4" class="node">
<title>Node4</title>
<g id="a_node4"><a xlink:href="a01969.html" target="_top" xlink:title="output adapter for byte vectors">
<polygon fill="white" stroke="black" points="210,-0.5 210,-30.5 373,-30.5 373,-0.5 210,-0.5"/>
<text text-anchor="start" x="218" y="-18.5" font-family="Helvetica,sans-Serif" font-size="10.00">nlohmann::detail::output</text>
<text text-anchor="middle" x="291.5" y="-7.5" font-family="Helvetica,sans-Serif" font-size="10.00">_vector_adapter&lt; CharType &gt;</text>
</a>
</g>
</g>
<!-- Node1&#45;&gt;Node4 -->
<g id="edge3" class="edge">
<title>Node1&#45;&gt;Node4</title>
<path fill="none" stroke="midnightblue" d="M159.28,-47.1C181.79,-41.68 206.41,-35.75 228.18,-30.51"/>
<polygon fill="midnightblue" stroke="midnightblue" points="158.34,-43.72 149.44,-49.47 159.98,-50.53 158.34,-43.72"/>
</g>
</g>
</svg>
