<?xml version="1.0" encoding="UTF-8" standalone="no"?>
<!DOCTYPE svg PUBLIC "-//W3C//DTD SVG 1.1//EN"
 "http://www.w3.org/Graphics/SVG/1.1/DTD/svg11.dtd">
<!-- Generated by graphviz version 2.43.0 (0)
 -->
<!-- Title: nlohmann::detail::binary_writer::write_bson Pages: 1 -->
<svg width="1865pt" height="571pt"
 viewBox="0.00 0.00 1865.00 570.66" xmlns="http://www.w3.org/2000/svg" xmlns:xlink="http://www.w3.org/1999/xlink">
<g id="graph0" class="graph" transform="scale(1 1) rotate(0) translate(4 566.66)">
<title>nlohmann::detail::binary_writer::write_bson</title>
<polygon fill="white" stroke="transparent" points="-4,4 -4,-566.66 1861,-566.66 1861,4 -4,4"/>
<!-- Node1 -->
<g id="node1" class="node">
<title>Node1</title>
<g id="a_node1"><a xlink:title=" ">
<polygon fill="#bfbfbf" stroke="black" points="0,-189.11 0,-219.11 136,-219.11 136,-189.11 0,-189.11"/>
<text text-anchor="start" x="8" y="-207.11" font-family="Helvetica,sans-Serif" font-size="10.00">nlohmann::detail::binary</text>
<text text-anchor="middle" x="68" y="-196.11" font-family="Helvetica,sans-Serif" font-size="10.00">_writer::write_bson</text>
</a>
</g>
</g>
<!-- Node2 -->
<g id="node2" class="node">
<title>Node2</title>
<g id="a_node2"><a xlink:href="a01517.html#aecc083aea4b698c33d042670ba50c10f" target="_top" xlink:title=" ">
<polygon fill="white" stroke="black" points="181,-396.11 181,-426.11 308,-426.11 308,-396.11 181,-396.11"/>
<text text-anchor="start" x="189" y="-414.11" font-family="Helvetica,sans-Serif" font-size="10.00">nlohmann::detail::type</text>
<text text-anchor="middle" x="244.5" y="-403.11" font-family="Helvetica,sans-Serif" font-size="10.00">_error::create</text>
</a>
</g>
</g>
<!-- Node1&#45;&gt;Node2 -->
<g id="edge1" class="edge">
<title>Node1&#45;&gt;Node2</title>
<path fill="none" stroke="midnightblue" d="M81.83,-219.33C112.08,-255.22 188.03,-345.31 224.01,-387.99"/>
<polygon fill="midnightblue" stroke="midnightblue" points="221.53,-390.48 230.65,-395.87 226.88,-385.97 221.53,-390.48"/>
</g>
<!-- Node6 -->
<g id="node6" class="node">
<title>Node6</title>
<g id="a_node6"><a xlink:href="a01985.html#a29b3e0f83a8e5f2307804023109ba2c9" target="_top" xlink:title=" ">
<polygon fill="white" stroke="black" points="172,-67.11 172,-97.11 317,-97.11 317,-67.11 172,-67.11"/>
<text text-anchor="start" x="180" y="-85.11" font-family="Helvetica,sans-Serif" font-size="10.00">nlohmann::detail::binary</text>
<text text-anchor="middle" x="244.5" y="-74.11" font-family="Helvetica,sans-Serif" font-size="10.00">_writer::write_bson_object</text>
</a>
</g>
</g>
<!-- Node1&#45;&gt;Node6 -->
<g id="edge5" class="edge">
<title>Node1&#45;&gt;Node6</title>
<path fill="none" stroke="midnightblue" d="M90.75,-188.91C121.74,-167.24 178.73,-127.4 213.65,-102.98"/>
<polygon fill="midnightblue" stroke="midnightblue" points="215.84,-105.72 222.03,-97.12 211.83,-99.99 215.84,-105.72"/>
</g>
<!-- Node3 -->
<g id="node3" class="node">
<title>Node3</title>
<g id="a_node3"><a xlink:href="a01505.html#abf41a7e9178356314082284e6cfea278" target="_top" xlink:title=" ">
<polygon fill="white" stroke="black" points="1554,-508.11 1554,-538.11 1707,-538.11 1707,-508.11 1554,-508.11"/>
<text text-anchor="start" x="1562" y="-526.11" font-family="Helvetica,sans-Serif" font-size="10.00">nlohmann::detail::exception</text>
<text text-anchor="middle" x="1630.5" y="-515.11" font-family="Helvetica,sans-Serif" font-size="10.00">::name</text>
</a>
</g>
</g>
<!-- Node2&#45;&gt;Node3 -->
<g id="edge2" class="edge">
<title>Node2&#45;&gt;Node3</title>
<path fill="none" stroke="midnightblue" d="M269.7,-426.18C328.94,-461.59 486.93,-547.11 631,-547.11 631,-547.11 631,-547.11 1059.5,-547.11 1231.43,-547.11 1432.26,-536.08 1543.76,-528.97"/>
<polygon fill="midnightblue" stroke="midnightblue" points="1544.18,-532.45 1553.94,-528.32 1543.73,-525.47 1544.18,-532.45"/>
</g>
<!-- Node5 -->
<g id="node5" class="node">
<title>Node5</title>
<g id="a_node5"><a xlink:href="a01517.html#aa01edaa0bf18b853368f0b900e485cd7" target="_top" xlink:title=" ">
<polygon fill="white" stroke="black" points="367,-396.11 367,-426.11 494,-426.11 494,-396.11 367,-396.11"/>
<text text-anchor="start" x="375" y="-414.11" font-family="Helvetica,sans-Serif" font-size="10.00">nlohmann::detail::type</text>
<text text-anchor="middle" x="430.5" y="-403.11" font-family="Helvetica,sans-Serif" font-size="10.00">_error::type_error</text>
</a>
</g>
</g>
<!-- Node2&#45;&gt;Node5 -->
<g id="edge4" class="edge">
<title>Node2&#45;&gt;Node5</title>
<path fill="none" stroke="midnightblue" d="M308.05,-411.11C323.61,-411.11 340.41,-411.11 356.43,-411.11"/>
<polygon fill="midnightblue" stroke="midnightblue" points="356.81,-414.61 366.81,-411.11 356.81,-407.61 356.81,-414.61"/>
</g>
<!-- Node4 -->
<g id="node4" class="node">
<title>Node4</title>
<g id="a_node4"><a xlink:href="a00410.html#a6ce645a0b8717757e096a5b5773b7a16" target="_top" xlink:title="user&#45;defined to_string function for JSON values">
<polygon fill="white" stroke="black" points="1743,-420.61 1743,-439.61 1857,-439.61 1857,-420.61 1743,-420.61"/>
<text text-anchor="middle" x="1800" y="-427.61" font-family="Helvetica,sans-Serif" font-size="10.00">nlohmann::to_string</text>
</a>
</g>
</g>
<!-- Node3&#45;&gt;Node4 -->
<g id="edge3" class="edge">
<title>Node3&#45;&gt;Node4</title>
<path fill="none" stroke="midnightblue" d="M1686.41,-508.07C1693.49,-505.43 1700.52,-502.45 1707,-499.11 1734.91,-484.73 1763.25,-461.98 1780.96,-446.57"/>
<polygon fill="midnightblue" stroke="midnightblue" points="1783.59,-448.91 1788.75,-439.66 1778.94,-443.68 1783.59,-448.91"/>
</g>
<!-- Node7 -->
<g id="node7" class="node">
<title>Node7</title>
<g id="a_node7"><a xlink:href="a01985.html#acc6f1cc1fd370ee84ebc8cf7b8712840" target="_top" xlink:title="Calculates the size of the BSON serialization of the given JSON&#45;object j.">
<polygon fill="white" stroke="black" points="1189.5,-34.11 1189.5,-64.11 1353.5,-64.11 1353.5,-34.11 1189.5,-34.11"/>
<text text-anchor="start" x="1197.5" y="-52.11" font-family="Helvetica,sans-Serif" font-size="10.00">nlohmann::detail::binary</text>
<text text-anchor="middle" x="1271.5" y="-41.11" font-family="Helvetica,sans-Serif" font-size="10.00">_writer::calc_bson_object_size</text>
</a>
</g>
</g>
<!-- Node6&#45;&gt;Node7 -->
<g id="edge6" class="edge">
<title>Node6&#45;&gt;Node7</title>
<path fill="none" stroke="midnightblue" d="M271.53,-67.1C292.76,-55.59 323.88,-40.33 353,-32.11 472.7,1.66 506.63,-0.11 631,-0.11 631,-0.11 631,-0.11 846.5,-0.11 961.79,-0.11 1093.56,-18.21 1179.19,-32.41"/>
<polygon fill="midnightblue" stroke="midnightblue" points="1178.7,-35.88 1189.14,-34.08 1179.86,-28.97 1178.7,-35.88"/>
</g>
<!-- Node8 -->
<g id="node8" class="node">
<title>Node8</title>
<g id="a_node8"><a xlink:href="a01985.html#ab77aa48692bd4e64e4f051ce6aeb6d2d" target="_top" xlink:title=" ">
<polygon fill="white" stroke="black" points="990.5,-225.11 990.5,-255.11 1126.5,-255.11 1126.5,-225.11 990.5,-225.11"/>
<text text-anchor="start" x="998.5" y="-243.11" font-family="Helvetica,sans-Serif" font-size="10.00">nlohmann::detail::binary</text>
<text text-anchor="middle" x="1058.5" y="-232.11" font-family="Helvetica,sans-Serif" font-size="10.00">_writer::to_char_type</text>
</a>
</g>
</g>
<!-- Node6&#45;&gt;Node8 -->
<g id="edge7" class="edge">
<title>Node6&#45;&gt;Node8</title>
<path fill="none" stroke="midnightblue" d="M303.13,-67.1C428.15,-37.95 729.52,13.5 935,-106.11 982.4,-133.7 1021.96,-185.69 1042.44,-216.17"/>
<polygon fill="midnightblue" stroke="midnightblue" points="1039.75,-218.45 1048.17,-224.88 1045.6,-214.6 1039.75,-218.45"/>
</g>
<!-- Node9 -->
<g id="node9" class="node">
<title>Node9</title>
<g id="a_node9"><a xlink:href="a01985.html#a7ff58bf1a80018148bed860667ffca07" target="_top" xlink:title="Serializes the JSON value j to BSON and associates it with the key name.">
<polygon fill="white" stroke="black" points="353,-263.11 353,-293.11 508,-293.11 508,-263.11 353,-263.11"/>
<text text-anchor="start" x="361" y="-281.11" font-family="Helvetica,sans-Serif" font-size="10.00">nlohmann::detail::binary</text>
<text text-anchor="middle" x="430.5" y="-270.11" font-family="Helvetica,sans-Serif" font-size="10.00">_writer::write_bson_element</text>
</a>
</g>
</g>
<!-- Node6&#45;&gt;Node9 -->
<g id="edge8" class="edge">
<title>Node6&#45;&gt;Node9</title>
<path fill="none" stroke="midnightblue" d="M259.63,-97.16C291.74,-131.37 370.33,-215.09 408.29,-255.52"/>
<polygon fill="midnightblue" stroke="midnightblue" points="405.92,-258.11 415.32,-263 411.03,-253.32 405.92,-258.11"/>
</g>
<!-- Node10 -->
<g id="node10" class="node">
<title>Node10</title>
<g id="a_node10"><a xlink:href="a01985.html#a025212bd170253638b9f05b3b6aa5bf9" target="_top" xlink:title="Writes a BSON element with key name and array value.">
<polygon fill="white" stroke="black" points="562,-410.11 562,-440.11 702,-440.11 702,-410.11 562,-410.11"/>
<text text-anchor="start" x="570" y="-428.11" font-family="Helvetica,sans-Serif" font-size="10.00">nlohmann::detail::binary</text>
<text text-anchor="middle" x="632" y="-417.11" font-family="Helvetica,sans-Serif" font-size="10.00">_writer::write_bson_array</text>
</a>
</g>
</g>
<!-- Node9&#45;&gt;Node10 -->
<g id="edge9" class="edge">
<title>Node9&#45;&gt;Node10</title>
<path fill="none" stroke="midnightblue" d="M445.6,-293.37C464.7,-317.89 501.34,-364.79 544,-391.11 555.3,-398.08 568.61,-403.17 581.38,-407.19"/>
<polygon fill="midnightblue" stroke="midnightblue" points="580.41,-410.56 591,-410.07 582.42,-403.85 580.41,-410.56"/>
</g>
<!-- Node21 -->
<g id="node21" class="node">
<title>Node21</title>
<g id="a_node21"><a xlink:href="a01985.html#a97d34d9a70ddc06ae782c55454df42bc" target="_top" xlink:title="Writes a BSON element with key name and binary value value.">
<polygon fill="white" stroke="black" points="559,-116.11 559,-146.11 705,-146.11 705,-116.11 559,-116.11"/>
<text text-anchor="start" x="567" y="-134.11" font-family="Helvetica,sans-Serif" font-size="10.00">nlohmann::detail::binary</text>
<text text-anchor="middle" x="632" y="-123.11" font-family="Helvetica,sans-Serif" font-size="10.00">_writer::write_bson_binary</text>
</a>
</g>
</g>
<!-- Node9&#45;&gt;Node21 -->
<g id="edge29" class="edge">
<title>Node9&#45;&gt;Node21</title>
<path fill="none" stroke="midnightblue" d="M441.28,-262.7C458.68,-236.54 497.61,-183.53 544,-155.11 546.81,-153.39 549.74,-151.79 552.75,-150.31"/>
<polygon fill="midnightblue" stroke="midnightblue" points="554.31,-153.45 562.02,-146.18 551.46,-147.05 554.31,-153.45"/>
</g>
<!-- Node23 -->
<g id="node23" class="node">
<title>Node23</title>
<g id="a_node23"><a xlink:href="a01985.html#ae099435e1df3096e0fc78333282f8f67" target="_top" xlink:title="Writes a BSON element with key name and boolean value value.">
<polygon fill="white" stroke="black" points="555,-361.11 555,-391.11 709,-391.11 709,-361.11 555,-361.11"/>
<text text-anchor="start" x="563" y="-379.11" font-family="Helvetica,sans-Serif" font-size="10.00">nlohmann::detail::binary</text>
<text text-anchor="middle" x="632" y="-368.11" font-family="Helvetica,sans-Serif" font-size="10.00">_writer::write_bson_boolean</text>
</a>
</g>
</g>
<!-- Node9&#45;&gt;Node23 -->
<g id="edge32" class="edge">
<title>Node9&#45;&gt;Node23</title>
<path fill="none" stroke="midnightblue" d="M450.79,-293.18C472.41,-309.46 509.04,-335.18 544,-351.11 549.22,-353.49 554.72,-355.7 560.32,-357.74"/>
<polygon fill="midnightblue" stroke="midnightblue" points="559.2,-361.06 569.79,-361.01 561.48,-354.44 559.2,-361.06"/>
</g>
<!-- Node24 -->
<g id="node24" class="node">
<title>Node24</title>
<g id="a_node24"><a xlink:href="a01985.html#a263ec18815467bb9919021ef126919ca" target="_top" xlink:title="Writes a BSON element with key name and double value value.">
<polygon fill="white" stroke="black" points="558,-165.11 558,-195.11 706,-195.11 706,-165.11 558,-165.11"/>
<text text-anchor="start" x="566" y="-183.11" font-family="Helvetica,sans-Serif" font-size="10.00">nlohmann::detail::binary</text>
<text text-anchor="middle" x="632" y="-172.11" font-family="Helvetica,sans-Serif" font-size="10.00">_writer::write_bson_double</text>
</a>
</g>
</g>
<!-- Node9&#45;&gt;Node24 -->
<g id="edge35" class="edge">
<title>Node9&#45;&gt;Node24</title>
<path fill="none" stroke="midnightblue" d="M450.33,-263.04C471.84,-246.49 508.65,-220.13 544,-204.11 548.41,-202.11 553.02,-200.25 557.71,-198.51"/>
<polygon fill="midnightblue" stroke="midnightblue" points="559.15,-201.72 567.45,-195.14 556.85,-195.11 559.15,-201.72"/>
</g>
<!-- Node25 -->
<g id="node25" class="node">
<title>Node25</title>
<g id="a_node25"><a xlink:href="a01985.html#a553ad4dbdf27238eef90867e4bf2f3e5" target="_top" xlink:title="Writes a BSON element with key name and integer value.">
<polygon fill="white" stroke="black" points="557.5,-312.11 557.5,-342.11 706.5,-342.11 706.5,-312.11 557.5,-312.11"/>
<text text-anchor="start" x="565.5" y="-330.11" font-family="Helvetica,sans-Serif" font-size="10.00">nlohmann::detail::binary</text>
<text text-anchor="middle" x="632" y="-319.11" font-family="Helvetica,sans-Serif" font-size="10.00">_writer::write_bson_integer</text>
</a>
</g>
</g>
<!-- Node9&#45;&gt;Node25 -->
<g id="edge37" class="edge">
<title>Node9&#45;&gt;Node25</title>
<path fill="none" stroke="midnightblue" d="M492.71,-293.15C513.97,-298.37 537.98,-304.26 559.96,-309.66"/>
<polygon fill="midnightblue" stroke="midnightblue" points="559.36,-313.12 569.9,-312.1 561.03,-306.32 559.36,-313.12"/>
</g>
<!-- Node26 -->
<g id="node26" class="node">
<title>Node26</title>
<g id="a_node26"><a xlink:href="a01985.html#a9927c1110b18661e0224a76156e5a7a9" target="_top" xlink:title="Writes a BSON element with key name and null value.">
<polygon fill="white" stroke="black" points="564,-263.11 564,-293.11 700,-293.11 700,-263.11 564,-263.11"/>
<text text-anchor="start" x="572" y="-281.11" font-family="Helvetica,sans-Serif" font-size="10.00">nlohmann::detail::binary</text>
<text text-anchor="middle" x="632" y="-270.11" font-family="Helvetica,sans-Serif" font-size="10.00">_writer::write_bson_null</text>
</a>
</g>
</g>
<!-- Node9&#45;&gt;Node26 -->
<g id="edge39" class="edge">
<title>Node9&#45;&gt;Node26</title>
<path fill="none" stroke="midnightblue" d="M508.06,-278.11C522.97,-278.11 538.61,-278.11 553.55,-278.11"/>
<polygon fill="midnightblue" stroke="midnightblue" points="553.76,-281.61 563.76,-278.11 553.76,-274.61 553.76,-281.61"/>
</g>
<!-- Node27 -->
<g id="node27" class="node">
<title>Node27</title>
<g id="a_node27"><a xlink:href="a01985.html#a6231302930265eccb3f56c378f7b0661" target="_top" xlink:title="Writes a BSON element with key name and object value.">
<polygon fill="white" stroke="black" points="544,-67.11 544,-97.11 720,-97.11 720,-67.11 544,-67.11"/>
<text text-anchor="start" x="552" y="-85.11" font-family="Helvetica,sans-Serif" font-size="10.00">nlohmann::detail::binary</text>
<text text-anchor="middle" x="632" y="-74.11" font-family="Helvetica,sans-Serif" font-size="10.00">_writer::write_bson_object_entry</text>
</a>
</g>
</g>
<!-- Node9&#45;&gt;Node27 -->
<g id="edge41" class="edge">
<title>Node9&#45;&gt;Node27</title>
<path fill="none" stroke="midnightblue" d="M437.02,-263.06C450.11,-229.49 486.35,-148.17 544,-106.11 545.9,-104.72 547.88,-103.41 549.92,-102.18"/>
<polygon fill="midnightblue" stroke="midnightblue" points="552.02,-105.03 559.21,-97.25 548.74,-98.85 552.02,-105.03"/>
</g>
<!-- Node28 -->
<g id="node28" class="node">
<title>Node28</title>
<g id="a_node28"><a xlink:href="a01985.html#a5e6574416915208fc035b57338ae3252" target="_top" xlink:title="Writes a BSON element with key name and string value value.">
<polygon fill="white" stroke="black" points="560.5,-214.11 560.5,-244.11 703.5,-244.11 703.5,-214.11 560.5,-214.11"/>
<text text-anchor="start" x="568.5" y="-232.11" font-family="Helvetica,sans-Serif" font-size="10.00">nlohmann::detail::binary</text>
<text text-anchor="middle" x="632" y="-221.11" font-family="Helvetica,sans-Serif" font-size="10.00">_writer::write_bson_string</text>
</a>
</g>
</g>
<!-- Node9&#45;&gt;Node28 -->
<g id="edge44" class="edge">
<title>Node9&#45;&gt;Node28</title>
<path fill="none" stroke="midnightblue" d="M492.71,-263.08C513.97,-257.86 537.98,-251.96 559.96,-246.56"/>
<polygon fill="midnightblue" stroke="midnightblue" points="561.03,-249.9 569.9,-244.12 559.36,-243.1 561.03,-249.9"/>
</g>
<!-- Node29 -->
<g id="node29" class="node">
<title>Node29</title>
<g id="a_node29"><a xlink:href="a01985.html#a5e295ed1be6af6260d2a65f7397c3742" target="_top" xlink:title="Writes a BSON element with key name and unsigned value.">
<polygon fill="white" stroke="black" points="552.5,-459.11 552.5,-489.11 711.5,-489.11 711.5,-459.11 552.5,-459.11"/>
<text text-anchor="start" x="560.5" y="-477.11" font-family="Helvetica,sans-Serif" font-size="10.00">nlohmann::detail::binary</text>
<text text-anchor="middle" x="632" y="-466.11" font-family="Helvetica,sans-Serif" font-size="10.00">_writer::write_bson_unsigned</text>
</a>
</g>
</g>
<!-- Node9&#45;&gt;Node29 -->
<g id="edge46" class="edge">
<title>Node9&#45;&gt;Node29</title>
<path fill="none" stroke="midnightblue" d="M442.91,-293.15C458.32,-313.71 486.37,-351.94 508,-386.11 525.46,-413.69 518.29,-430 544,-450.11 545.8,-451.52 547.69,-452.85 549.63,-454.1"/>
<polygon fill="midnightblue" stroke="midnightblue" points="548.09,-457.25 558.52,-459.1 551.52,-451.15 548.09,-457.25"/>
</g>
<!-- Node10&#45;&gt;Node4 -->
<g id="edge25" class="edge">
<title>Node10&#45;&gt;Node4</title>
<path fill="none" stroke="midnightblue" d="M702.11,-426.42C786.12,-427.91 932.2,-430.11 1057.5,-430.11 1057.5,-430.11 1057.5,-430.11 1458.5,-430.11 1553.81,-430.11 1664.12,-430.11 1732.74,-430.11"/>
<polygon fill="midnightblue" stroke="midnightblue" points="1732.97,-433.61 1742.97,-430.11 1732.97,-426.61 1732.97,-433.61"/>
</g>
<!-- Node10&#45;&gt;Node8 -->
<g id="edge24" class="edge">
<title>Node10&#45;&gt;Node8</title>
<path fill="none" stroke="midnightblue" d="M700.21,-409.98C707.14,-407.21 713.87,-403.94 720,-400.11 740.28,-387.43 735.58,-372.56 756,-360.11 826.23,-317.3 866.97,-359.35 935,-313.11 957.35,-297.92 948.76,-279.46 971,-264.11 974.13,-261.95 977.46,-259.98 980.91,-258.19"/>
<polygon fill="midnightblue" stroke="midnightblue" points="982.68,-261.22 990.29,-253.85 979.74,-254.87 982.68,-261.22"/>
</g>
<!-- Node10&#45;&gt;Node9 -->
<g id="edge26" class="edge">
<title>Node10&#45;&gt;Node9</title>
<path fill="none" stroke="midnightblue" d="M561.58,-417.95C555.44,-415.44 549.48,-412.49 544,-409.11 499.75,-381.81 461.98,-332.37 443.54,-302.42"/>
<polygon fill="midnightblue" stroke="midnightblue" points="446.34,-300.28 438.26,-293.43 440.31,-303.83 446.34,-300.28"/>
</g>
<!-- Node11 -->
<g id="node11" class="node">
<title>Node11</title>
<g id="a_node11"><a xlink:href="a01985.html#af08f9302a02516ff8cf358a99aaa1ddf" target="_top" xlink:title=" ">
<polygon fill="white" stroke="black" points="765.5,-370.11 765.5,-400.11 925.5,-400.11 925.5,-370.11 765.5,-370.11"/>
<text text-anchor="start" x="773.5" y="-388.11" font-family="Helvetica,sans-Serif" font-size="10.00">nlohmann::detail::binary</text>
<text text-anchor="middle" x="845.5" y="-377.11" font-family="Helvetica,sans-Serif" font-size="10.00">_writer::calc_bson_array_size</text>
</a>
</g>
</g>
<!-- Node10&#45;&gt;Node11 -->
<g id="edge10" class="edge">
<title>Node10&#45;&gt;Node11</title>
<path fill="none" stroke="midnightblue" d="M702.25,-412.01C719.07,-408.83 737.29,-405.39 754.9,-402.06"/>
<polygon fill="midnightblue" stroke="midnightblue" points="756.01,-405.41 765.19,-400.11 754.71,-398.53 756.01,-405.41"/>
</g>
<!-- Node20 -->
<g id="node20" class="node">
<title>Node20</title>
<g id="a_node20"><a xlink:href="a01985.html#a1b5b7f5c03b1f8b1f59ea61db9634108" target="_top" xlink:title="Writes the given element_type and name to the output adapter.">
<polygon fill="white" stroke="black" points="756,-226.11 756,-256.11 935,-256.11 935,-226.11 756,-226.11"/>
<text text-anchor="start" x="764" y="-244.11" font-family="Helvetica,sans-Serif" font-size="10.00">nlohmann::detail::binary</text>
<text text-anchor="middle" x="845.5" y="-233.11" font-family="Helvetica,sans-Serif" font-size="10.00">_writer::write_bson_entry_header</text>
</a>
</g>
</g>
<!-- Node10&#45;&gt;Node20 -->
<g id="edge27" class="edge">
<title>Node10&#45;&gt;Node20</title>
<path fill="none" stroke="midnightblue" d="M702.33,-411.28C708.7,-408.26 714.73,-404.59 720,-400.11 748.49,-375.92 733.98,-354.31 756,-324.11 773.19,-300.53 797.68,-278.17 816.55,-262.61"/>
<polygon fill="midnightblue" stroke="midnightblue" points="818.94,-265.18 824.51,-256.17 814.53,-259.74 818.94,-265.18"/>
</g>
<!-- Node11&#45;&gt;Node4 -->
<g id="edge23" class="edge">
<title>Node11&#45;&gt;Node4</title>
<path fill="none" stroke="midnightblue" d="M925.81,-387.2C1010.99,-389.26 1150.31,-392.11 1270.5,-392.11 1270.5,-392.11 1270.5,-392.11 1458.5,-392.11 1555.95,-392.11 1668.14,-407.68 1736.28,-418.88"/>
<polygon fill="midnightblue" stroke="midnightblue" points="1735.97,-422.38 1746.41,-420.57 1737.12,-415.48 1735.97,-422.38"/>
</g>
<!-- Node12 -->
<g id="node12" class="node">
<title>Node12</title>
<g id="a_node12"><a xlink:href="a01985.html#a1e4372c5984184eb5bcc09af1fcc2ee0" target="_top" xlink:title="Calculates the size necessary to serialize the JSON value j with its name.">
<polygon fill="white" stroke="black" points="971,-274.11 971,-304.11 1146,-304.11 1146,-274.11 971,-274.11"/>
<text text-anchor="start" x="979" y="-292.11" font-family="Helvetica,sans-Serif" font-size="10.00">nlohmann::detail::binary</text>
<text text-anchor="middle" x="1058.5" y="-281.11" font-family="Helvetica,sans-Serif" font-size="10.00">_writer::calc_bson_element_size</text>
</a>
</g>
</g>
<!-- Node11&#45;&gt;Node12 -->
<g id="edge11" class="edge">
<title>Node11&#45;&gt;Node12</title>
<path fill="none" stroke="midnightblue" d="M869.35,-370.1C887.39,-362.16 913.1,-352.78 935,-343.11 959.02,-332.5 984.98,-319.4 1006.78,-308.61"/>
<polygon fill="midnightblue" stroke="midnightblue" points="1008.43,-311.7 1015.86,-304.14 1005.34,-305.42 1008.43,-311.7"/>
</g>
<!-- Node12&#45;&gt;Node7 -->
<g id="edge20" class="edge">
<title>Node12&#45;&gt;Node7</title>
<path fill="none" stroke="midnightblue" d="M1133.53,-273.97C1138.1,-271.21 1142.32,-267.95 1146,-264.11 1192.83,-215.23 1144.86,-172.71 1182,-116.11 1194.63,-96.86 1214.74,-80.99 1232.6,-69.53"/>
<polygon fill="midnightblue" stroke="midnightblue" points="1234.47,-72.49 1241.15,-64.27 1230.8,-66.53 1234.47,-72.49"/>
</g>
<!-- Node12&#45;&gt;Node11 -->
<g id="edge12" class="edge">
<title>Node12&#45;&gt;Node11</title>
<path fill="none" stroke="midnightblue" d="M1041.16,-304.28C1017.95,-320.17 973.94,-343.91 935,-361.11 931.12,-362.83 927.12,-364.53 923.06,-366.2"/>
<polygon fill="midnightblue" stroke="midnightblue" points="921.5,-363.05 913.53,-370.02 924.11,-369.55 921.5,-363.05"/>
</g>
<!-- Node13 -->
<g id="node13" class="node">
<title>Node13</title>
<g id="a_node13"><a xlink:href="a01985.html#a9dd6062fd249a695e0f93d558dba4685" target="_top" xlink:title=" ">
<polygon fill="white" stroke="black" points="1189,-126.11 1189,-156.11 1354,-156.11 1354,-126.11 1189,-126.11"/>
<text text-anchor="start" x="1197" y="-144.11" font-family="Helvetica,sans-Serif" font-size="10.00">nlohmann::detail::binary</text>
<text text-anchor="middle" x="1271.5" y="-133.11" font-family="Helvetica,sans-Serif" font-size="10.00">_writer::calc_bson_binary_size</text>
</a>
</g>
</g>
<!-- Node12&#45;&gt;Node13 -->
<g id="edge13" class="edge">
<title>Node12&#45;&gt;Node13</title>
<path fill="none" stroke="midnightblue" d="M1132.24,-273.97C1137.22,-271.21 1141.89,-267.95 1146,-264.11 1180.2,-232.14 1147.53,-196.8 1182,-165.11 1183.29,-163.93 1184.63,-162.8 1186.02,-161.72"/>
<polygon fill="midnightblue" stroke="midnightblue" points="1188.01,-164.6 1194.42,-156.16 1184.15,-158.77 1188.01,-164.6"/>
</g>
<!-- Node14 -->
<g id="node14" class="node">
<title>Node14</title>
<g id="a_node14"><a xlink:href="a01985.html#a5bae2f1db2c511b869dffaddf15a1653" target="_top" xlink:title=" ">
<polygon fill="white" stroke="black" points="1203.5,-322.61 1203.5,-363.61 1339.5,-363.61 1339.5,-322.61 1203.5,-322.61"/>
<text text-anchor="start" x="1211.5" y="-351.61" font-family="Helvetica,sans-Serif" font-size="10.00">nlohmann::detail::binary</text>
<text text-anchor="start" x="1211.5" y="-340.61" font-family="Helvetica,sans-Serif" font-size="10.00">_writer::calc_bson_entry</text>
<text text-anchor="middle" x="1271.5" y="-329.61" font-family="Helvetica,sans-Serif" font-size="10.00">_header_size</text>
</a>
</g>
</g>
<!-- Node12&#45;&gt;Node14 -->
<g id="edge14" class="edge">
<title>Node12&#45;&gt;Node14</title>
<path fill="none" stroke="midnightblue" d="M1118.28,-304.15C1141.64,-310.13 1168.83,-317.09 1193.71,-323.46"/>
<polygon fill="midnightblue" stroke="midnightblue" points="1192.93,-326.87 1203.48,-325.96 1194.66,-320.09 1192.93,-326.87"/>
</g>
<!-- Node17 -->
<g id="node17" class="node">
<title>Node17</title>
<g id="a_node17"><a xlink:href="a01985.html#aeab70c895931b96ea598306b37eca271" target="_top" xlink:title=" ">
<polygon fill="white" stroke="black" points="1187,-273.11 1187,-303.11 1356,-303.11 1356,-273.11 1187,-273.11"/>
<text text-anchor="start" x="1195" y="-291.11" font-family="Helvetica,sans-Serif" font-size="10.00">nlohmann::detail::binary</text>
<text text-anchor="middle" x="1271.5" y="-280.11" font-family="Helvetica,sans-Serif" font-size="10.00">_writer::calc_bson_integer_size</text>
</a>
</g>
</g>
<!-- Node12&#45;&gt;Node17 -->
<g id="edge19" class="edge">
<title>Node12&#45;&gt;Node17</title>
<path fill="none" stroke="midnightblue" d="M1146.24,-288.7C1156.29,-288.65 1166.59,-288.6 1176.74,-288.56"/>
<polygon fill="midnightblue" stroke="midnightblue" points="1176.84,-292.05 1186.82,-288.51 1176.81,-285.05 1176.84,-292.05"/>
</g>
<!-- Node18 -->
<g id="node18" class="node">
<title>Node18</title>
<g id="a_node18"><a xlink:href="a01985.html#aea44fd97a5cb9b4f175e66e3e4fdf158" target="_top" xlink:title=" ">
<polygon fill="white" stroke="black" points="1190.5,-224.11 1190.5,-254.11 1352.5,-254.11 1352.5,-224.11 1190.5,-224.11"/>
<text text-anchor="start" x="1198.5" y="-242.11" font-family="Helvetica,sans-Serif" font-size="10.00">nlohmann::detail::binary</text>
<text text-anchor="middle" x="1271.5" y="-231.11" font-family="Helvetica,sans-Serif" font-size="10.00">_writer::calc_bson_string_size</text>
</a>
</g>
</g>
<!-- Node12&#45;&gt;Node18 -->
<g id="edge21" class="edge">
<title>Node12&#45;&gt;Node18</title>
<path fill="none" stroke="midnightblue" d="M1122.81,-274.11C1146.17,-268.57 1172.84,-262.25 1197.03,-256.52"/>
<polygon fill="midnightblue" stroke="midnightblue" points="1197.95,-259.9 1206.87,-254.19 1196.34,-253.09 1197.95,-259.9"/>
</g>
<!-- Node19 -->
<g id="node19" class="node">
<title>Node19</title>
<g id="a_node19"><a xlink:href="a01985.html#aa1d6bb9f3af16f07ce2440c354b5787b" target="_top" xlink:title=" ">
<polygon fill="white" stroke="black" points="1182,-175.11 1182,-205.11 1361,-205.11 1361,-175.11 1182,-175.11"/>
<text text-anchor="start" x="1190" y="-193.11" font-family="Helvetica,sans-Serif" font-size="10.00">nlohmann::detail::binary</text>
<text text-anchor="middle" x="1271.5" y="-182.11" font-family="Helvetica,sans-Serif" font-size="10.00">_writer::calc_bson_unsigned_size</text>
</a>
</g>
</g>
<!-- Node12&#45;&gt;Node19 -->
<g id="edge22" class="edge">
<title>Node12&#45;&gt;Node19</title>
<path fill="none" stroke="midnightblue" d="M1128.09,-274.03C1134.42,-271.26 1140.51,-267.98 1146,-264.11 1168.38,-248.33 1159.49,-229.7 1182,-214.11 1184.25,-212.55 1186.6,-211.09 1189.03,-209.73"/>
<polygon fill="midnightblue" stroke="midnightblue" points="1190.72,-212.8 1198.09,-205.19 1187.58,-206.54 1190.72,-212.8"/>
</g>
<!-- Node14&#45;&gt;Node4 -->
<g id="edge18" class="edge">
<title>Node14&#45;&gt;Node4</title>
<path fill="none" stroke="midnightblue" d="M1339.68,-339.68C1426.51,-337.23 1581.46,-339.63 1707,-378.11 1732.99,-386.08 1759.72,-402.24 1777.62,-414.45"/>
<polygon fill="midnightblue" stroke="midnightblue" points="1775.93,-417.53 1786.12,-420.4 1779.94,-411.8 1775.93,-417.53"/>
</g>
<!-- Node15 -->
<g id="node15" class="node">
<title>Node15</title>
<g id="a_node15"><a xlink:href="a01521.html#a3f6d82a6f967c4728a1ec735a7867073" target="_top" xlink:title=" ">
<polygon fill="white" stroke="black" points="1397,-459.11 1397,-489.11 1518,-489.11 1518,-459.11 1397,-459.11"/>
<text text-anchor="start" x="1405" y="-477.11" font-family="Helvetica,sans-Serif" font-size="10.00">nlohmann::detail::out</text>
<text text-anchor="middle" x="1457.5" y="-466.11" font-family="Helvetica,sans-Serif" font-size="10.00">_of_range::create</text>
</a>
</g>
</g>
<!-- Node14&#45;&gt;Node15 -->
<g id="edge15" class="edge">
<title>Node14&#45;&gt;Node15</title>
<path fill="none" stroke="midnightblue" d="M1301.66,-363.87C1335.94,-388.28 1392.53,-428.56 1426.97,-453.09"/>
<polygon fill="midnightblue" stroke="midnightblue" points="1425.05,-456.02 1435.23,-458.96 1429.11,-450.31 1425.05,-456.02"/>
</g>
<!-- Node15&#45;&gt;Node3 -->
<g id="edge16" class="edge">
<title>Node15&#45;&gt;Node3</title>
<path fill="none" stroke="midnightblue" d="M1511.2,-489.21C1528.92,-494.29 1548.85,-500 1567.23,-505.27"/>
<polygon fill="midnightblue" stroke="midnightblue" points="1566.4,-508.67 1576.97,-508.06 1568.32,-501.94 1566.4,-508.67"/>
</g>
<!-- Node16 -->
<g id="node16" class="node">
<title>Node16</title>
<g id="a_node16"><a xlink:href="a01521.html#ab5fe402019dba957558499502f0fd731" target="_top" xlink:title=" ">
<polygon fill="white" stroke="black" points="1563.5,-459.11 1563.5,-489.11 1697.5,-489.11 1697.5,-459.11 1563.5,-459.11"/>
<text text-anchor="start" x="1571.5" y="-477.11" font-family="Helvetica,sans-Serif" font-size="10.00">nlohmann::detail::out</text>
<text text-anchor="middle" x="1630.5" y="-466.11" font-family="Helvetica,sans-Serif" font-size="10.00">_of_range::out_of_range</text>
</a>
</g>
</g>
<!-- Node15&#45;&gt;Node16 -->
<g id="edge17" class="edge">
<title>Node15&#45;&gt;Node16</title>
<path fill="none" stroke="midnightblue" d="M1518.31,-474.11C1529.56,-474.11 1541.46,-474.11 1553.13,-474.11"/>
<polygon fill="midnightblue" stroke="midnightblue" points="1553.31,-477.61 1563.31,-474.11 1553.31,-470.61 1553.31,-477.61"/>
</g>
<!-- Node20&#45;&gt;Node8 -->
<g id="edge28" class="edge">
<title>Node20&#45;&gt;Node8</title>
<path fill="none" stroke="midnightblue" d="M935.07,-240.69C950.09,-240.62 965.59,-240.55 980.3,-240.48"/>
<polygon fill="midnightblue" stroke="midnightblue" points="980.35,-243.98 990.34,-240.43 980.32,-236.98 980.35,-243.98"/>
</g>
<!-- Node21&#45;&gt;Node20 -->
<g id="edge30" class="edge">
<title>Node21&#45;&gt;Node20</title>
<path fill="none" stroke="midnightblue" d="M697.09,-146.13C704.95,-148.74 712.76,-151.73 720,-155.11 756.84,-172.31 794.63,-200.14 818.77,-219.47"/>
<polygon fill="midnightblue" stroke="midnightblue" points="816.74,-222.33 826.71,-225.92 821.15,-216.9 816.74,-222.33"/>
</g>
<!-- Node22 -->
<g id="node22" class="node">
<title>Node22</title>
<g id="a_node22"><a xlink:href="a01985.html#a6e11b7227fcecc25a548ed45507b7d1c" target="_top" xlink:title=" ">
<polygon fill="white" stroke="black" points="777.5,-116.11 777.5,-146.11 913.5,-146.11 913.5,-116.11 777.5,-116.11"/>
<text text-anchor="start" x="785.5" y="-134.11" font-family="Helvetica,sans-Serif" font-size="10.00">nlohmann::detail::binary</text>
<text text-anchor="middle" x="845.5" y="-123.11" font-family="Helvetica,sans-Serif" font-size="10.00">_writer::write_number</text>
</a>
</g>
</g>
<!-- Node21&#45;&gt;Node22 -->
<g id="edge31" class="edge">
<title>Node21&#45;&gt;Node22</title>
<path fill="none" stroke="midnightblue" d="M705.19,-131.11C725.16,-131.11 746.9,-131.11 767.14,-131.11"/>
<polygon fill="midnightblue" stroke="midnightblue" points="767.26,-134.61 777.26,-131.11 767.26,-127.61 767.26,-134.61"/>
</g>
<!-- Node23&#45;&gt;Node8 -->
<g id="edge33" class="edge">
<title>Node23&#45;&gt;Node8</title>
<path fill="none" stroke="midnightblue" d="M695.83,-361.04C704.14,-358.19 712.4,-354.89 720,-351.11 737.91,-342.2 738.06,-332.95 756,-324.11 844.99,-280.26 875.42,-290.71 971,-264.11 978.2,-262.11 985.74,-260.01 993.24,-257.93"/>
<polygon fill="midnightblue" stroke="midnightblue" points="994.35,-261.25 1003.05,-255.21 992.48,-254.51 994.35,-261.25"/>
</g>
<!-- Node23&#45;&gt;Node20 -->
<g id="edge34" class="edge">
<title>Node23&#45;&gt;Node20</title>
<path fill="none" stroke="midnightblue" d="M704.35,-361.06C709.95,-358.29 715.26,-355 720,-351.11 747.03,-328.9 730.65,-305.22 756,-281.11 764.78,-272.76 775.61,-265.95 786.64,-260.46"/>
<polygon fill="midnightblue" stroke="midnightblue" points="788.31,-263.55 795.92,-256.17 785.37,-257.19 788.31,-263.55"/>
</g>
<!-- Node24&#45;&gt;Node20 -->
<g id="edge36" class="edge">
<title>Node24&#45;&gt;Node20</title>
<path fill="none" stroke="midnightblue" d="M688.27,-195.18C698.82,-198.11 709.76,-201.18 720,-204.11 741.14,-210.17 764.25,-216.98 784.75,-223.09"/>
<polygon fill="midnightblue" stroke="midnightblue" points="784,-226.52 794.59,-226.03 786.01,-219.82 784,-226.52"/>
</g>
<!-- Node25&#45;&gt;Node20 -->
<g id="edge38" class="edge">
<title>Node25&#45;&gt;Node20</title>
<path fill="none" stroke="midnightblue" d="M692.66,-312.1C701.94,-309.16 711.33,-305.82 720,-302.11 737.03,-294.83 739.54,-289.6 756,-281.11 769.88,-273.95 785.3,-266.73 799.33,-260.44"/>
<polygon fill="midnightblue" stroke="midnightblue" points="801.07,-263.5 808.79,-256.24 798.23,-257.1 801.07,-263.5"/>
</g>
<!-- Node26&#45;&gt;Node20 -->
<g id="edge40" class="edge">
<title>Node26&#45;&gt;Node20</title>
<path fill="none" stroke="midnightblue" d="M700.21,-266.35C715.54,-263.67 732.11,-260.77 748.38,-257.93"/>
<polygon fill="midnightblue" stroke="midnightblue" points="749.21,-261.33 758.46,-256.16 748.01,-254.44 749.21,-261.33"/>
</g>
<!-- Node27&#45;&gt;Node6 -->
<g id="edge43" class="edge">
<title>Node27&#45;&gt;Node6</title>
<path fill="none" stroke="midnightblue" d="M543.91,-82.11C479.05,-82.11 391.1,-82.11 327.49,-82.11"/>
<polygon fill="midnightblue" stroke="midnightblue" points="327.11,-78.61 317.11,-82.11 327.11,-85.61 327.11,-78.61"/>
</g>
<!-- Node27&#45;&gt;Node20 -->
<g id="edge42" class="edge">
<title>Node27&#45;&gt;Node20</title>
<path fill="none" stroke="midnightblue" d="M703.71,-97.14C709.45,-99.68 714.97,-102.64 720,-106.11 742.26,-121.44 738.25,-134.74 756,-155.11 776.19,-178.29 801.56,-202.51 819.95,-219.31"/>
<polygon fill="midnightblue" stroke="midnightblue" points="817.61,-221.92 827.37,-226.04 822.31,-216.73 817.61,-221.92"/>
</g>
<!-- Node28&#45;&gt;Node20 -->
<g id="edge45" class="edge">
<title>Node28&#45;&gt;Node20</title>
<path fill="none" stroke="midnightblue" d="M703.72,-233.12C717.15,-233.89 731.43,-234.7 745.55,-235.5"/>
<polygon fill="midnightblue" stroke="midnightblue" points="745.61,-239.01 755.79,-236.08 746.01,-232.02 745.61,-239.01"/>
</g>
<!-- Node29&#45;&gt;Node4 -->
<g id="edge48" class="edge">
<title>Node29&#45;&gt;Node4</title>
<path fill="none" stroke="midnightblue" d="M711.69,-483.52C726.41,-485.15 741.66,-486.76 756,-488.11 1110.09,-521.56 1198.58,-534.77 1554,-548.11 1621.95,-550.66 1645.9,-577.95 1707,-548.11 1749.22,-527.49 1777.71,-477.09 1790.79,-449.3"/>
<polygon fill="midnightblue" stroke="midnightblue" points="1794.13,-450.42 1795.05,-439.86 1787.75,-447.54 1794.13,-450.42"/>
</g>
<!-- Node29&#45;&gt;Node15 -->
<g id="edge47" class="edge">
<title>Node29&#45;&gt;Node15</title>
<path fill="none" stroke="midnightblue" d="M711.59,-474.11C871.83,-474.11 1234.04,-474.11 1386.63,-474.11"/>
<polygon fill="midnightblue" stroke="midnightblue" points="1386.82,-477.61 1396.82,-474.11 1386.82,-470.61 1386.82,-477.61"/>
</g>
<!-- Node29&#45;&gt;Node20 -->
<g id="edge49" class="edge">
<title>Node29&#45;&gt;Node20</title>
<path fill="none" stroke="midnightblue" d="M707.26,-459.05C711.84,-456.51 716.15,-453.56 720,-450.11 752.11,-421.39 734.97,-397.71 756,-360.11 775.93,-324.49 805.11,-287.35 824.45,-264.23"/>
<polygon fill="midnightblue" stroke="midnightblue" points="827.3,-266.28 831.09,-256.38 821.96,-261.76 827.3,-266.28"/>
</g>
</g>
</svg>
