<?xml version="1.0" encoding="UTF-8" standalone="no"?>
<!DOCTYPE svg PUBLIC "-//W3C//DTD SVG 1.1//EN"
 "http://www.w3.org/Graphics/SVG/1.1/DTD/svg11.dtd">
<!-- Generated by graphviz version 8.0.5 (20230430.1635)
 -->
<!-- Title: nlohmann::detail::binary_writer::get_msgpack_float_prefix Pages: 1 -->
<svg width="644pt" height="126pt"
 viewBox="0.00 0.00 643.50 126.00" xmlns="http://www.w3.org/2000/svg" xmlns:xlink="http://www.w3.org/1999/xlink">
<g id="graph0" class="graph" transform="scale(1 1) rotate(0) translate(4 122)">
<title>nlohmann::detail::binary_writer::get_msgpack_float_prefix</title>
<!-- Node1 -->
<g id="node1" class="node">
<title>Node1</title>
<g id="a_node1"><a xlink:title=" ">
<polygon fill="#999999" stroke="#666666" points="635.5,-66 474.75,-66 474.75,-34 635.5,-34 635.5,-66"/>
<text text-anchor="start" x="482.75" y="-52.5" font-family="Helvetica,sans-Serif" font-size="10.00">nlohmann::detail::binary</text>
<text text-anchor="middle" x="555.13" y="-40.5" font-family="Helvetica,sans-Serif" font-size="10.00">_writer::get_msgpack_float_prefix</text>
</a>
</g>
</g>
<!-- Node2 -->
<g id="node2" class="node">
<title>Node2</title>
<g id="a_node2"><a xlink:href="a01973.html#ae69dc3c5b2e8c1c8e461779cddb87436" target="_top" xlink:title=" ">
<polygon fill="white" stroke="#666666" points="438.75,-66 302,-66 302,-34 438.75,-34 438.75,-66"/>
<text text-anchor="start" x="310" y="-52.5" font-family="Helvetica,sans-Serif" font-size="10.00">nlohmann::detail::binary</text>
<text text-anchor="middle" x="370.38" y="-40.5" font-family="Helvetica,sans-Serif" font-size="10.00">_writer::write_compact_float</text>
</a>
</g>
</g>
<!-- Node1&#45;&gt;Node2 -->
<g id="edge1" class="edge">
<title>Node1&#45;&gt;Node2</title>
<path fill="none" stroke="#63b8ff" d="M463.63,-50C455.35,-50 447.05,-50 439.02,-50"/>
<polygon fill="#63b8ff" stroke="#63b8ff" points="463.5,-53.5 473.5,-50 463.5,-46.5 463.5,-53.5"/>
</g>
<!-- Node3 -->
<g id="node3" class="node">
<title>Node3</title>
<g id="a_node3"><a xlink:href="a01973.html#aa0ab8d27fd88a33a2f801413ac4c7fbc" target="_top" xlink:title=" ">
<polygon fill="white" stroke="#666666" points="266,-100 146.5,-100 146.5,-68 266,-68 266,-100"/>
<text text-anchor="start" x="154.5" y="-86.5" font-family="Helvetica,sans-Serif" font-size="10.00">nlohmann::detail::binary</text>
<text text-anchor="middle" x="206.25" y="-74.5" font-family="Helvetica,sans-Serif" font-size="10.00">_writer::write_cbor</text>
</a>
</g>
</g>
<!-- Node2&#45;&gt;Node3 -->
<g id="edge2" class="edge">
<title>Node2&#45;&gt;Node3</title>
<path fill="none" stroke="#63b8ff" d="M291.05,-66.43C282.72,-68.17 274.35,-69.93 266.29,-71.62"/>
<polygon fill="#63b8ff" stroke="#63b8ff" points="291.49,-69.7 300.56,-64.22 290.05,-62.85 291.49,-69.7"/>
</g>
<!-- Node5 -->
<g id="node5" class="node">
<title>Node5</title>
<g id="a_node5"><a xlink:href="a01973.html#ae4e0852b64102ce4b07d99f08f828b7c" target="_top" xlink:title=" ">
<polygon fill="white" stroke="#666666" points="266,-32 146.5,-32 146.5,0 266,0 266,-32"/>
<text text-anchor="start" x="154.5" y="-18.5" font-family="Helvetica,sans-Serif" font-size="10.00">nlohmann::detail::binary</text>
<text text-anchor="middle" x="206.25" y="-6.5" font-family="Helvetica,sans-Serif" font-size="10.00">_writer::write_msgpack</text>
</a>
</g>
</g>
<!-- Node2&#45;&gt;Node5 -->
<g id="edge5" class="edge">
<title>Node2&#45;&gt;Node5</title>
<path fill="none" stroke="#63b8ff" d="M291.05,-33.57C282.72,-31.83 274.35,-30.07 266.29,-28.38"/>
<polygon fill="#63b8ff" stroke="#63b8ff" points="290.05,-37.15 300.56,-35.78 291.49,-30.3 290.05,-37.15"/>
</g>
<!-- Node3&#45;&gt;Node3 -->
<g id="edge4" class="edge">
<title>Node3&#45;&gt;Node3</title>
<path fill="none" stroke="#63b8ff" d="M232.09,-111.05C228.16,-115.19 219.55,-118 206.25,-118 183.25,-118 174.26,-109.58 179.29,-100.44"/>
<polygon fill="#63b8ff" stroke="#63b8ff" points="235.64,-111.75 233.21,-101.44 228.68,-111.02 235.64,-111.75"/>
</g>
<!-- Node4 -->
<g id="node4" class="node">
<title>Node4</title>
<g id="a_node4"><a xlink:href="a01593.html#a2becf604016783e5644eaa7782a08683" target="_top" xlink:title=" ">
<polygon fill="white" stroke="#666666" points="110.5,-100 0,-100 0,-68 110.5,-68 110.5,-100"/>
<text text-anchor="start" x="8" y="-86.5" font-family="Helvetica,sans-Serif" font-size="10.00">nlohmann::basic_json</text>
<text text-anchor="middle" x="55.25" y="-74.5" font-family="Helvetica,sans-Serif" font-size="10.00">::to_cbor</text>
</a>
</g>
</g>
<!-- Node3&#45;&gt;Node4 -->
<g id="edge3" class="edge">
<title>Node3&#45;&gt;Node4</title>
<path fill="none" stroke="#63b8ff" d="M135.54,-84C127.25,-84 118.87,-84 110.83,-84"/>
<polygon fill="#63b8ff" stroke="#63b8ff" points="135.36,-87.5 145.36,-84 135.36,-80.5 135.36,-87.5"/>
</g>
<!-- Node5&#45;&gt;Node5 -->
<g id="edge7" class="edge">
<title>Node5&#45;&gt;Node5</title>
<path fill="none" stroke="#63b8ff" d="M232.09,-43.05C228.16,-47.19 219.55,-50 206.25,-50 183.25,-50 174.26,-41.58 179.29,-32.44"/>
<polygon fill="#63b8ff" stroke="#63b8ff" points="235.64,-43.75 233.21,-33.44 228.68,-43.02 235.64,-43.75"/>
</g>
<!-- Node6 -->
<g id="node6" class="node">
<title>Node6</title>
<g id="a_node6"><a xlink:href="a01593.html#aa8fe46eda86f6f92c5599c20b6c81819" target="_top" xlink:title=" ">
<polygon fill="white" stroke="#666666" points="110.5,-32 0,-32 0,0 110.5,0 110.5,-32"/>
<text text-anchor="start" x="8" y="-18.5" font-family="Helvetica,sans-Serif" font-size="10.00">nlohmann::basic_json</text>
<text text-anchor="middle" x="55.25" y="-6.5" font-family="Helvetica,sans-Serif" font-size="10.00">::to_msgpack</text>
</a>
</g>
</g>
<!-- Node5&#45;&gt;Node6 -->
<g id="edge6" class="edge">
<title>Node5&#45;&gt;Node6</title>
<path fill="none" stroke="#63b8ff" d="M135.54,-16C127.25,-16 118.87,-16 110.83,-16"/>
<polygon fill="#63b8ff" stroke="#63b8ff" points="135.36,-19.5 145.36,-16 135.36,-12.5 135.36,-19.5"/>
</g>
</g>
</svg>
