<?xml version="1.0" encoding="UTF-8" standalone="no"?>
<!DOCTYPE svg PUBLIC "-//W3C//DTD SVG 1.1//EN"
 "http://www.w3.org/Graphics/SVG/1.1/DTD/svg11.dtd">
<!-- Generated by graphviz version 7.0.2 (20221119.0110)
 -->
<!-- Title: nlohmann::detail::parser::accept Pages: 1 -->
<svg width="772pt" height="182pt"
 viewBox="0.00 0.00 772.00 182.00" xmlns="http://www.w3.org/2000/svg" xmlns:xlink="http://www.w3.org/1999/xlink">
<g id="graph0" class="graph" transform="scale(1 1) rotate(0) translate(4 178)">
<title>nlohmann::detail::parser::accept</title>
<!-- Node1 -->
<g id="node1" class="node">
<title>Node1</title>
<g id="a_node1"><a xlink:title="public accept interface">
<polygon fill="#999999" stroke="#666666" points="121,-99 0,-99 0,-69 121,-69 121,-99"/>
<text text-anchor="start" x="8" y="-87" font-family="Helvetica,sans-Serif" font-size="10.00">nlohmann::detail::parser</text>
<text text-anchor="middle" x="60.5" y="-76" font-family="Helvetica,sans-Serif" font-size="10.00">::accept</text>
</a>
</g>
</g>
<!-- Node2 -->
<g id="node2" class="node">
<title>Node2</title>
<g id="a_node2"><a xlink:href="a01933.html#a073b8313a5194aac3a7d5da0d935788c" target="_top" xlink:title=" ">
<polygon fill="white" stroke="#666666" points="278,-99 157,-99 157,-69 278,-69 278,-99"/>
<text text-anchor="start" x="165" y="-87" font-family="Helvetica,sans-Serif" font-size="10.00">nlohmann::detail::parser</text>
<text text-anchor="middle" x="217.5" y="-76" font-family="Helvetica,sans-Serif" font-size="10.00">::sax_parse</text>
</a>
</g>
</g>
<!-- Node1&#45;&gt;Node2 -->
<g id="edge1" class="edge">
<title>Node1&#45;&gt;Node2</title>
<path fill="none" stroke="#63b8ff" d="M121.43,-84C129.3,-84 137.43,-84 145.47,-84"/>
<polygon fill="#63b8ff" stroke="#63b8ff" points="145.22,-87.5 155.22,-84 145.22,-80.5 145.22,-87.5"/>
</g>
<!-- Node3 -->
<g id="node3" class="node">
<title>Node3</title>
<g id="a_node3"><a xlink:href="a01497.html#a137ea4d27de45d8a844fd13451d40f3d" target="_top" xlink:title="create a parse error exception">
<polygon fill="white" stroke="#666666" points="590.5,-174 472.5,-174 472.5,-144 590.5,-144 590.5,-174"/>
<text text-anchor="start" x="480.5" y="-162" font-family="Helvetica,sans-Serif" font-size="10.00">nlohmann::detail::parse</text>
<text text-anchor="middle" x="531.5" y="-151" font-family="Helvetica,sans-Serif" font-size="10.00">_error::create</text>
</a>
</g>
</g>
<!-- Node2&#45;&gt;Node3 -->
<g id="edge2" class="edge">
<title>Node2&#45;&gt;Node3</title>
<path fill="none" stroke="#63b8ff" d="M244.75,-99.44C263.45,-109.73 289.5,-122.66 314,-130 361.85,-144.33 417.78,-151.59 460.81,-155.27"/>
<polygon fill="#63b8ff" stroke="#63b8ff" points="460.26,-158.73 470.51,-156.05 460.82,-151.76 460.26,-158.73"/>
</g>
<!-- Node6 -->
<g id="node6" class="node">
<title>Node6</title>
<g id="a_node6"><a xlink:href="a01933.html#a94e7f8a0f880c20c8a48f591f56cbd85" target="_top" xlink:title=" ">
<polygon fill="white" stroke="#666666" points="592,-78 471,-78 471,-48 592,-48 592,-78"/>
<text text-anchor="start" x="479" y="-66" font-family="Helvetica,sans-Serif" font-size="10.00">nlohmann::detail::parser</text>
<text text-anchor="middle" x="531.5" y="-55" font-family="Helvetica,sans-Serif" font-size="10.00">::exception_message</text>
</a>
</g>
</g>
<!-- Node2&#45;&gt;Node6 -->
<g id="edge5" class="edge">
<title>Node2&#45;&gt;Node6</title>
<path fill="none" stroke="#63b8ff" d="M278.29,-79.98C329.91,-76.5 404.59,-71.47 459.3,-67.79"/>
<polygon fill="#63b8ff" stroke="#63b8ff" points="459.4,-71.29 469.14,-67.13 458.93,-64.31 459.4,-71.29"/>
</g>
<!-- Node7 -->
<g id="node7" class="node">
<title>Node7</title>
<g id="a_node7"><a xlink:href="a01933.html#a1212088ee1e23633a76b2ed80514de79" target="_top" xlink:title="get next token from lexer">
<polygon fill="white" stroke="#666666" points="592,-30 471,-30 471,0 592,0 592,-30"/>
<text text-anchor="start" x="479" y="-18" font-family="Helvetica,sans-Serif" font-size="10.00">nlohmann::detail::parser</text>
<text text-anchor="middle" x="531.5" y="-7" font-family="Helvetica,sans-Serif" font-size="10.00">::get_token</text>
</a>
</g>
</g>
<!-- Node2&#45;&gt;Node7 -->
<g id="edge6" class="edge">
<title>Node2&#45;&gt;Node7</title>
<path fill="none" stroke="#63b8ff" d="M278.29,-70.78C330.02,-59.34 404.91,-42.78 459.64,-30.67"/>
<polygon fill="#63b8ff" stroke="#63b8ff" points="460.16,-34.14 469.17,-28.56 458.65,-27.31 460.16,-34.14"/>
</g>
<!-- Node8 -->
<g id="node8" class="node">
<title>Node8</title>
<g id="a_node8"><a xlink:href="a01933.html#a678fdebccc8ddd3242c67b6bce2f8f1a" target="_top" xlink:title=" ">
<polygon fill="white" stroke="#666666" points="435,-121 314,-121 314,-91 435,-91 435,-121"/>
<text text-anchor="start" x="322" y="-109" font-family="Helvetica,sans-Serif" font-size="10.00">nlohmann::detail::parser</text>
<text text-anchor="middle" x="374.5" y="-98" font-family="Helvetica,sans-Serif" font-size="10.00">::sax_parse_internal</text>
</a>
</g>
</g>
<!-- Node2&#45;&gt;Node8 -->
<g id="edge7" class="edge">
<title>Node2&#45;&gt;Node8</title>
<path fill="none" stroke="#63b8ff" d="M278.43,-92.51C286.3,-93.62 294.43,-94.78 302.47,-95.92"/>
<polygon fill="#63b8ff" stroke="#63b8ff" points="301.84,-99.36 312.23,-97.3 302.82,-92.43 301.84,-99.36"/>
</g>
<!-- Node4 -->
<g id="node4" class="node">
<title>Node4</title>
<g id="a_node4"><a xlink:href="a01493.html#abf41a7e9178356314082284e6cfea278" target="_top" xlink:title=" ">
<polygon fill="white" stroke="#666666" points="764,-126 628,-126 628,-96 764,-96 764,-126"/>
<text text-anchor="start" x="636" y="-114" font-family="Helvetica,sans-Serif" font-size="10.00">nlohmann::detail::exception</text>
<text text-anchor="middle" x="696" y="-103" font-family="Helvetica,sans-Serif" font-size="10.00">::name</text>
</a>
</g>
</g>
<!-- Node3&#45;&gt;Node4 -->
<g id="edge3" class="edge">
<title>Node3&#45;&gt;Node4</title>
<path fill="none" stroke="#63b8ff" d="M584.81,-143.55C599.89,-139.09 616.49,-134.19 632.14,-129.57"/>
<polygon fill="#63b8ff" stroke="#63b8ff" points="632.74,-133.04 641.34,-126.85 630.75,-126.33 632.74,-133.04"/>
</g>
<!-- Node5 -->
<g id="node5" class="node">
<title>Node5</title>
<g id="a_node5"><a xlink:href="a01497.html#aefe74adeaa48781464ba2fd2ec63d221" target="_top" xlink:title=" ">
<polygon fill="white" stroke="#666666" points="755,-174 637,-174 637,-144 755,-144 755,-174"/>
<text text-anchor="start" x="645" y="-162" font-family="Helvetica,sans-Serif" font-size="10.00">nlohmann::detail::parse</text>
<text text-anchor="middle" x="696" y="-151" font-family="Helvetica,sans-Serif" font-size="10.00">_error::position_string</text>
</a>
</g>
</g>
<!-- Node3&#45;&gt;Node5 -->
<g id="edge4" class="edge">
<title>Node3&#45;&gt;Node5</title>
<path fill="none" stroke="#63b8ff" d="M590.71,-159C601.91,-159 613.75,-159 625.27,-159"/>
<polygon fill="#63b8ff" stroke="#63b8ff" points="625.14,-162.5 635.14,-159 625.14,-155.5 625.14,-162.5"/>
</g>
<!-- Node8&#45;&gt;Node3 -->
<g id="edge8" class="edge">
<title>Node8&#45;&gt;Node3</title>
<path fill="none" stroke="#63b8ff" d="M420.75,-121.47C437.55,-127.22 456.8,-133.8 474.45,-139.84"/>
<polygon fill="#63b8ff" stroke="#63b8ff" points="473.17,-143.1 483.76,-143.02 475.43,-136.47 473.17,-143.1"/>
</g>
<!-- Node8&#45;&gt;Node6 -->
<g id="edge11" class="edge">
<title>Node8&#45;&gt;Node6</title>
<path fill="none" stroke="#63b8ff" d="M431.02,-90.6C441.71,-87.63 453,-84.5 463.99,-81.45"/>
<polygon fill="#63b8ff" stroke="#63b8ff" points="464.69,-84.89 473.39,-78.84 462.82,-78.14 464.69,-84.89"/>
</g>
<!-- Node8&#45;&gt;Node7 -->
<g id="edge12" class="edge">
<title>Node8&#45;&gt;Node7</title>
<path fill="none" stroke="#63b8ff" d="M394.41,-90.78C413.09,-76.22 442.88,-54.27 471,-39 473.35,-37.72 475.79,-36.47 478.27,-35.26"/>
<polygon fill="#63b8ff" stroke="#63b8ff" points="479.66,-38.47 487.28,-31.1 476.73,-32.11 479.66,-38.47"/>
</g>
<!-- Node9 -->
<g id="node9" class="node">
<title>Node9</title>
<g id="a_node9"><a xlink:href="a01509.html#a3f6d82a6f967c4728a1ec735a7867073" target="_top" xlink:title=" ">
<polygon fill="white" stroke="#666666" points="585,-126 478,-126 478,-96 585,-96 585,-126"/>
<text text-anchor="start" x="486" y="-114" font-family="Helvetica,sans-Serif" font-size="10.00">nlohmann::detail::out</text>
<text text-anchor="middle" x="531.5" y="-103" font-family="Helvetica,sans-Serif" font-size="10.00">_of_range::create</text>
</a>
</g>
</g>
<!-- Node8&#45;&gt;Node9 -->
<g id="edge9" class="edge">
<title>Node8&#45;&gt;Node9</title>
<path fill="none" stroke="#63b8ff" d="M435.43,-107.93C445.58,-108.26 456.15,-108.6 466.41,-108.93"/>
<polygon fill="#63b8ff" stroke="#63b8ff" points="466.18,-112.43 476.29,-109.25 466.41,-105.43 466.18,-112.43"/>
</g>
<!-- Node9&#45;&gt;Node4 -->
<g id="edge10" class="edge">
<title>Node9&#45;&gt;Node4</title>
<path fill="none" stroke="#63b8ff" d="M585.26,-111C595.2,-111 605.78,-111 616.31,-111"/>
<polygon fill="#63b8ff" stroke="#63b8ff" points="616.17,-114.5 626.17,-111 616.17,-107.5 616.17,-114.5"/>
</g>
</g>
</svg>
