<?xml version="1.0" encoding="UTF-8" standalone="no"?>
<!DOCTYPE svg PUBLIC "-//W3C//DTD SVG 1.1//EN"
 "http://www.w3.org/Graphics/SVG/1.1/DTD/svg11.dtd">
<!-- Generated by graphviz version 5.0.0 (20220707.1540)
 -->
<!-- Title: nlohmann::detail::binary_writer::get_ubjson_float_prefix Pages: 1 -->
<svg width="628pt" height="118pt"
 viewBox="0.00 0.00 628.00 117.50" xmlns="http://www.w3.org/2000/svg" xmlns:xlink="http://www.w3.org/1999/xlink">
<g id="graph0" class="graph" transform="scale(1 1) rotate(0) translate(4 113.5)">
<title>nlohmann::detail::binary_writer::get_ubjson_float_prefix</title>
<polygon fill="white" stroke="transparent" points="-4,4 -4,-113.5 624,-113.5 624,4 -4,4"/>
<!-- Node1 -->
<g id="node1" class="node">
<title>Node1</title>
<g id="a_node1"><a xlink:title=" ">
<polygon fill="#bfbfbf" stroke="black" points="470,-42 470,-72 620,-72 620,-42 470,-42"/>
<text text-anchor="start" x="478" y="-60" font-family="Helvetica,sans-Serif" font-size="10.00">nlohmann::detail::binary</text>
<text text-anchor="middle" x="545" y="-49" font-family="Helvetica,sans-Serif" font-size="10.00">_writer::get_ubjson_float_prefix</text>
</a>
</g>
</g>
<!-- Node2 -->
<g id="node2" class="node">
<title>Node2</title>
<g id="a_node2"><a xlink:href="a01973.html#a4c129249a5aee8e4ec8add6c6184e4f7" target="_top" xlink:title="determine the type prefix of container values">
<polygon fill="white" stroke="black" points="308.5,-79 308.5,-109 428.5,-109 428.5,-79 308.5,-79"/>
<text text-anchor="start" x="316.5" y="-97" font-family="Helvetica,sans-Serif" font-size="10.00">nlohmann::detail::binary</text>
<text text-anchor="middle" x="368.5" y="-86" font-family="Helvetica,sans-Serif" font-size="10.00">_writer::ubjson_prefix</text>
</a>
</g>
</g>
<!-- Node1&#45;&gt;Node2 -->
<g id="edge1" class="edge">
<title>Node1&#45;&gt;Node2</title>
<path fill="none" stroke="midnightblue" d="M462.94,-74.19C451.4,-76.63 439.72,-79.11 428.7,-81.45"/>
<polygon fill="midnightblue" stroke="midnightblue" points="463.97,-77.55 473.02,-72.05 462.52,-70.7 463.97,-77.55"/>
</g>
<!-- Node5 -->
<g id="node5" class="node">
<title>Node5</title>
<g id="a_node5"><a xlink:href="a01973.html#a0ea6745f944c0c61672146886b4ee90f" target="_top" xlink:title=" ">
<polygon fill="white" stroke="black" points="303,-0.5 303,-41.5 434,-41.5 434,-0.5 303,-0.5"/>
<text text-anchor="start" x="311" y="-29.5" font-family="Helvetica,sans-Serif" font-size="10.00">nlohmann::detail::binary</text>
<text text-anchor="start" x="311" y="-18.5" font-family="Helvetica,sans-Serif" font-size="10.00">_writer::write_number_with</text>
<text text-anchor="middle" x="368.5" y="-7.5" font-family="Helvetica,sans-Serif" font-size="10.00">_ubjson_prefix</text>
</a>
</g>
</g>
<!-- Node1&#45;&gt;Node5 -->
<g id="edge5" class="edge">
<title>Node1&#45;&gt;Node5</title>
<path fill="none" stroke="midnightblue" d="M461.36,-39.95C452.19,-38.06 442.95,-36.15 434.06,-34.32"/>
<polygon fill="midnightblue" stroke="midnightblue" points="460.76,-43.4 471.26,-41.99 462.17,-36.55 460.76,-43.4"/>
</g>
<!-- Node3 -->
<g id="node3" class="node">
<title>Node3</title>
<g id="a_node3"><a xlink:href="a01973.html#a0f6c65053d859269f88eb4ebb0cd7060" target="_top" xlink:title=" ">
<polygon fill="white" stroke="black" points="147,-42 147,-72 267,-72 267,-42 147,-42"/>
<text text-anchor="start" x="155" y="-60" font-family="Helvetica,sans-Serif" font-size="10.00">nlohmann::detail::binary</text>
<text text-anchor="middle" x="207" y="-49" font-family="Helvetica,sans-Serif" font-size="10.00">_writer::write_ubjson</text>
</a>
</g>
</g>
<!-- Node2&#45;&gt;Node3 -->
<g id="edge2" class="edge">
<title>Node2&#45;&gt;Node3</title>
<path fill="none" stroke="midnightblue" d="M298.27,-77.94C287.91,-75.54 277.3,-73.08 267.18,-70.73"/>
<polygon fill="midnightblue" stroke="midnightblue" points="297.58,-81.37 308.11,-80.22 299.16,-74.55 297.58,-81.37"/>
</g>
<!-- Node3&#45;&gt;Node3 -->
<g id="edge4" class="edge">
<title>Node3&#45;&gt;Node3</title>
<path fill="none" stroke="midnightblue" d="M233.65,-82.46C230.35,-87.18 221.46,-90.5 207,-90.5 183.27,-90.5 174.56,-81.56 180.86,-72.16"/>
<polygon fill="midnightblue" stroke="midnightblue" points="237.13,-81.97 233.14,-72.16 230.14,-82.32 237.13,-81.97"/>
</g>
<!-- Node4 -->
<g id="node4" class="node">
<title>Node4</title>
<g id="a_node4"><a xlink:href="a01593.html#a19dad92c4fe9e6a289a93195e1230e97" target="_top" xlink:title=" ">
<polygon fill="white" stroke="black" points="0,-42 0,-72 111,-72 111,-42 0,-42"/>
<text text-anchor="start" x="8" y="-60" font-family="Helvetica,sans-Serif" font-size="10.00">nlohmann::basic_json</text>
<text text-anchor="middle" x="55.5" y="-49" font-family="Helvetica,sans-Serif" font-size="10.00">::to_ubjson</text>
</a>
</g>
</g>
<!-- Node3&#45;&gt;Node4 -->
<g id="edge3" class="edge">
<title>Node3&#45;&gt;Node4</title>
<path fill="none" stroke="midnightblue" d="M136.9,-57C128.3,-57 119.6,-57 111.27,-57"/>
<polygon fill="midnightblue" stroke="midnightblue" points="136.91,-60.5 146.91,-57 136.91,-53.5 136.91,-60.5"/>
</g>
<!-- Node5&#45;&gt;Node3 -->
<g id="edge7" class="edge">
<title>Node5&#45;&gt;Node3</title>
<path fill="none" stroke="midnightblue" d="M292.65,-37.89C284.1,-39.82 275.47,-41.77 267.17,-43.65"/>
<polygon fill="midnightblue" stroke="midnightblue" points="293.64,-41.26 302.63,-35.64 292.1,-34.43 293.64,-41.26"/>
</g>
<!-- Node5&#45;&gt;Node5 -->
<g id="edge6" class="edge">
<title>Node5&#45;&gt;Node5</title>
<path fill="none" stroke="midnightblue" d="M396.03,-51.86C391.93,-56.7 382.76,-60 368.5,-60 345.69,-60 335.89,-51.54 339.09,-41.86"/>
<polygon fill="midnightblue" stroke="midnightblue" points="399.5,-52.34 397.91,-41.86 392.62,-51.04 399.5,-52.34"/>
</g>
</g>
</svg>
