<?xml version="1.0" encoding="UTF-8" standalone="no"?>
<!DOCTYPE svg PUBLIC "-//W3C//DTD SVG 1.1//EN"
 "http://www.w3.org/Graphics/SVG/1.1/DTD/svg11.dtd">
<!-- Generated by graphviz version 7.0.1 (20221109.1506)
 -->
<!-- Title: nlohmann::detail::binary_reader::get_ubjson_high_precision_number Pages: 1 -->
<svg width="990pt" height="372pt"
 viewBox="0.00 0.00 990.00 371.99" xmlns="http://www.w3.org/2000/svg" xmlns:xlink="http://www.w3.org/1999/xlink">
<g id="graph0" class="graph" transform="scale(1 1) rotate(0) translate(4 367.99)">
<title>nlohmann::detail::binary_reader::get_ubjson_high_precision_number</title>
<!-- Node1 -->
<g id="node1" class="node">
<title>Node1</title>
<g id="a_node1"><a xlink:title=" ">
<polygon fill="#999999" stroke="#666666" points="125,-156.5 0,-156.5 0,-115.5 125,-115.5 125,-156.5"/>
<text text-anchor="start" x="8" y="-144.5" font-family="Helvetica,sans-Serif" font-size="10.00">nlohmann::detail::binary</text>
<text text-anchor="start" x="8" y="-133.5" font-family="Helvetica,sans-Serif" font-size="10.00">_reader::get_ubjson_high</text>
<text text-anchor="middle" x="62.5" y="-122.5" font-family="Helvetica,sans-Serif" font-size="10.00">_precision_number</text>
</a>
</g>
</g>
<!-- Node2 -->
<g id="node2" class="node">
<title>Node2</title>
<g id="a_node2"><a xlink:href="a01497.html#a137ea4d27de45d8a844fd13451d40f3d" target="_top" xlink:title="create a parse error exception">
<polygon fill="white" stroke="#666666" points="798,-331 680,-331 680,-301 798,-301 798,-331"/>
<text text-anchor="start" x="688" y="-319" font-family="Helvetica,sans-Serif" font-size="10.00">nlohmann::detail::parse</text>
<text text-anchor="middle" x="739" y="-308" font-family="Helvetica,sans-Serif" font-size="10.00">_error::create</text>
</a>
</g>
</g>
<!-- Node1&#45;&gt;Node2 -->
<g id="edge1" class="edge">
<title>Node1&#45;&gt;Node2</title>
<path fill="none" stroke="#63b8ff" d="M72.47,-156.53C86.7,-186.58 117.38,-242.1 161,-271 337.6,-387.99 421.93,-371.28 632,-344 647.49,-341.99 663.95,-338.39 679.15,-334.43"/>
<polygon fill="#63b8ff" stroke="#63b8ff" points="679.78,-337.88 688.51,-331.89 677.95,-331.13 679.78,-337.88"/>
</g>
<!-- Node5 -->
<g id="node5" class="node">
<title>Node5</title>
<g id="a_node5"><a xlink:href="a01929.html#a9c413c9a1bade1ce345740f4d69156f0" target="_top" xlink:title=" ">
<polygon fill="white" stroke="#666666" points="810,-149 668,-149 668,-119 810,-119 810,-149"/>
<text text-anchor="start" x="676" y="-137" font-family="Helvetica,sans-Serif" font-size="10.00">nlohmann::detail::binary</text>
<text text-anchor="middle" x="739" y="-126" font-family="Helvetica,sans-Serif" font-size="10.00">_reader::exception_message</text>
</a>
</g>
</g>
<!-- Node1&#45;&gt;Node5 -->
<g id="edge4" class="edge">
<title>Node1&#45;&gt;Node5</title>
<path fill="none" stroke="#63b8ff" d="M125.37,-131.94C229.84,-125.7 447.84,-115.33 632,-124 639.93,-124.37 648.19,-124.9 656.44,-125.53"/>
<polygon fill="#63b8ff" stroke="#63b8ff" points="655.89,-128.99 666.14,-126.31 656.45,-122.02 655.89,-128.99"/>
</g>
<!-- Node6 -->
<g id="node6" class="node">
<title>Node6</title>
<g id="a_node6"><a xlink:href="a01929.html#ad222095c0b21a87824cb10629299629a" target="_top" xlink:title="get next character from the input">
<polygon fill="white" stroke="#666666" points="632,-192 512,-192 512,-162 632,-162 632,-192"/>
<text text-anchor="start" x="520" y="-180" font-family="Helvetica,sans-Serif" font-size="10.00">nlohmann::detail::binary</text>
<text text-anchor="middle" x="572" y="-169" font-family="Helvetica,sans-Serif" font-size="10.00">_reader::get</text>
</a>
</g>
</g>
<!-- Node1&#45;&gt;Node6 -->
<g id="edge5" class="edge">
<title>Node1&#45;&gt;Node6</title>
<path fill="none" stroke="#63b8ff" d="M125.37,-134.59C206.37,-133.66 352.58,-135.06 476,-153 486.14,-154.47 496.76,-156.58 507.08,-158.94"/>
<polygon fill="#63b8ff" stroke="#63b8ff" points="506.12,-162.31 516.66,-161.24 507.75,-155.5 506.12,-162.31"/>
</g>
<!-- Node7 -->
<g id="node7" class="node">
<title>Node7</title>
<g id="a_node7"><a xlink:href="a01929.html#aba7ba9ec9a52ad2bee8baff70176aa20" target="_top" xlink:title=" ">
<polygon fill="white" stroke="#666666" points="313,-216 161,-216 161,-186 313,-186 313,-216"/>
<text text-anchor="start" x="169" y="-204" font-family="Helvetica,sans-Serif" font-size="10.00">nlohmann::detail::binary</text>
<text text-anchor="middle" x="237" y="-193" font-family="Helvetica,sans-Serif" font-size="10.00">_reader::get_ubjson_size_value</text>
</a>
</g>
</g>
<!-- Node1&#45;&gt;Node7 -->
<g id="edge6" class="edge">
<title>Node1&#45;&gt;Node7</title>
<path fill="none" stroke="#63b8ff" d="M119.03,-156.92C139.98,-164.82 163.72,-173.77 184.31,-181.52"/>
<polygon fill="#63b8ff" stroke="#63b8ff" points="183.07,-184.79 193.66,-185.04 185.53,-178.24 183.07,-184.79"/>
</g>
<!-- Node10 -->
<g id="node10" class="node">
<title>Node10</title>
<g id="a_node10"><a xlink:href="a01929.html#a61a0bd8bbe7b560bd429fa990ba3ba1a" target="_top" xlink:title=" ">
<polygon fill="white" stroke="#666666" points="632,-288 512,-288 512,-258 632,-258 632,-288"/>
<text text-anchor="start" x="520" y="-276" font-family="Helvetica,sans-Serif" font-size="10.00">nlohmann::detail::binary</text>
<text text-anchor="middle" x="572" y="-265" font-family="Helvetica,sans-Serif" font-size="10.00">_reader::unexpect_eof</text>
</a>
</g>
</g>
<!-- Node1&#45;&gt;Node10 -->
<g id="edge18" class="edge">
<title>Node1&#45;&gt;Node10</title>
<path fill="none" stroke="#63b8ff" d="M81.88,-156.78C100.27,-176.54 130.18,-205.99 161,-225 237.15,-271.98 261.02,-280.73 349,-297 404.5,-307.26 419.99,-303.97 476,-297 486.65,-295.68 497.82,-293.55 508.61,-291.09"/>
<polygon fill="#63b8ff" stroke="#63b8ff" points="509.29,-294.52 518.2,-288.78 507.66,-287.72 509.29,-294.52"/>
</g>
<!-- Node12 -->
<g id="node12" class="node">
<title>Node12</title>
<g id="a_node12"><a xlink:href="a00411.html#a616a53cc3114fdc113fc44e6af4c3c7f" target="_top" xlink:title=" ">
<polygon fill="white" stroke="#666666" points="294.5,-30 179.5,-30 179.5,0 294.5,0 294.5,-30"/>
<text text-anchor="start" x="187.5" y="-18" font-family="Helvetica,sans-Serif" font-size="10.00">nlohmann::detail::input</text>
<text text-anchor="middle" x="237" y="-7" font-family="Helvetica,sans-Serif" font-size="10.00">_adapter</text>
</a>
</g>
</g>
<!-- Node1&#45;&gt;Node12 -->
<g id="edge17" class="edge">
<title>Node1&#45;&gt;Node12</title>
<path fill="none" stroke="#63b8ff" d="M81.06,-115.27C99.29,-94.84 129.5,-63.86 161,-44 166.17,-40.74 171.76,-37.75 177.48,-35.03"/>
<polygon fill="#63b8ff" stroke="#63b8ff" points="178.74,-38.3 186.46,-31.04 175.9,-31.9 178.74,-38.3"/>
</g>
<!-- Node3 -->
<g id="node3" class="node">
<title>Node3</title>
<g id="a_node3"><a xlink:href="a01493.html#abf41a7e9178356314082284e6cfea278" target="_top" xlink:title=" ">
<polygon fill="white" stroke="#666666" points="982,-355 846,-355 846,-325 982,-325 982,-355"/>
<text text-anchor="start" x="854" y="-343" font-family="Helvetica,sans-Serif" font-size="10.00">nlohmann::detail::exception</text>
<text text-anchor="middle" x="914" y="-332" font-family="Helvetica,sans-Serif" font-size="10.00">::name</text>
</a>
</g>
</g>
<!-- Node2&#45;&gt;Node3 -->
<g id="edge2" class="edge">
<title>Node2&#45;&gt;Node3</title>
<path fill="none" stroke="#63b8ff" d="M798.09,-324.06C809.81,-325.68 822.32,-327.42 834.61,-329.12"/>
<polygon fill="#63b8ff" stroke="#63b8ff" points="833.91,-332.56 844.3,-330.47 834.88,-325.63 833.91,-332.56"/>
</g>
<!-- Node4 -->
<g id="node4" class="node">
<title>Node4</title>
<g id="a_node4"><a xlink:href="a01497.html#aefe74adeaa48781464ba2fd2ec63d221" target="_top" xlink:title=" ">
<polygon fill="white" stroke="#666666" points="973,-307 855,-307 855,-277 973,-277 973,-307"/>
<text text-anchor="start" x="863" y="-295" font-family="Helvetica,sans-Serif" font-size="10.00">nlohmann::detail::parse</text>
<text text-anchor="middle" x="914" y="-284" font-family="Helvetica,sans-Serif" font-size="10.00">_error::position_string</text>
</a>
</g>
</g>
<!-- Node2&#45;&gt;Node4 -->
<g id="edge3" class="edge">
<title>Node2&#45;&gt;Node4</title>
<path fill="none" stroke="#63b8ff" d="M798.09,-307.94C812.64,-305.92 828.39,-303.74 843.44,-301.65"/>
<polygon fill="#63b8ff" stroke="#63b8ff" points="843.85,-305.13 853.27,-300.29 842.89,-298.19 843.85,-305.13"/>
</g>
<!-- Node7&#45;&gt;Node2 -->
<g id="edge7" class="edge">
<title>Node7&#45;&gt;Node2</title>
<path fill="none" stroke="#63b8ff" d="M249.98,-216.48C268.43,-238.96 306.19,-279.85 349,-297 454.14,-339.11 588.24,-334.25 668.39,-325.85"/>
<polygon fill="#63b8ff" stroke="#63b8ff" points="668.75,-329.33 678.3,-324.76 667.98,-322.38 668.75,-329.33"/>
</g>
<!-- Node7&#45;&gt;Node5 -->
<g id="edge8" class="edge">
<title>Node7&#45;&gt;Node5</title>
<path fill="none" stroke="#63b8ff" d="M265.78,-185.64C287.68,-174.38 319.35,-159.9 349,-153 453.04,-128.81 576.82,-127.24 656.34,-129.58"/>
<polygon fill="#63b8ff" stroke="#63b8ff" points="656.13,-133.08 666.24,-129.91 656.36,-126.08 656.13,-133.08"/>
</g>
<!-- Node8 -->
<g id="node8" class="node">
<title>Node8</title>
<g id="a_node8"><a xlink:href="a01929.html#a252c1179651d22c5343bcf0b538ed26a" target="_top" xlink:title=" ">
<polygon fill="white" stroke="#666666" points="475.5,-192 349.5,-192 349.5,-162 475.5,-162 475.5,-192"/>
<text text-anchor="start" x="357.5" y="-180" font-family="Helvetica,sans-Serif" font-size="10.00">nlohmann::detail::binary</text>
<text text-anchor="middle" x="412.5" y="-169" font-family="Helvetica,sans-Serif" font-size="10.00">_reader::get_ignore_noop</text>
</a>
</g>
</g>
<!-- Node7&#45;&gt;Node8 -->
<g id="edge9" class="edge">
<title>Node7&#45;&gt;Node8</title>
<path fill="none" stroke="#63b8ff" d="M313.34,-190.58C321.49,-189.45 329.76,-188.31 337.89,-187.18"/>
<polygon fill="#63b8ff" stroke="#63b8ff" points="338.31,-190.66 347.73,-185.82 337.35,-183.72 338.31,-190.66"/>
</g>
<!-- Node9 -->
<g id="node9" class="node">
<title>Node9</title>
<g id="a_node9"><a xlink:href="a01929.html#ac356c6364fe0273d3303fb7a447f4ef6" target="_top" xlink:title=" ">
<polygon fill="white" stroke="#666666" points="472.5,-288 352.5,-288 352.5,-258 472.5,-258 472.5,-288"/>
<text text-anchor="start" x="360.5" y="-276" font-family="Helvetica,sans-Serif" font-size="10.00">nlohmann::detail::binary</text>
<text text-anchor="middle" x="412.5" y="-265" font-family="Helvetica,sans-Serif" font-size="10.00">_reader::get_number</text>
</a>
</g>
</g>
<!-- Node7&#45;&gt;Node9 -->
<g id="edge11" class="edge">
<title>Node7&#45;&gt;Node9</title>
<path fill="none" stroke="#63b8ff" d="M272.34,-216.29C294.19,-225.91 323.15,-238.45 349,-249 352.61,-250.47 356.34,-251.97 360.11,-253.46"/>
<polygon fill="#63b8ff" stroke="#63b8ff" points="358.73,-256.68 369.31,-257.07 361.28,-250.16 358.73,-256.68"/>
</g>
<!-- Node11 -->
<g id="node11" class="node">
<title>Node11</title>
<g id="a_node11"><a xlink:href="a01929.html#a7d323283c60a0b89ee5eeadf5cb9a5ad" target="_top" xlink:title=" ">
<polygon fill="white" stroke="#666666" points="476,-240 349,-240 349,-210 476,-210 476,-240"/>
<text text-anchor="start" x="357" y="-228" font-family="Helvetica,sans-Serif" font-size="10.00">nlohmann::detail::binary</text>
<text text-anchor="middle" x="412.5" y="-217" font-family="Helvetica,sans-Serif" font-size="10.00">_reader::get_token_string</text>
</a>
</g>
</g>
<!-- Node7&#45;&gt;Node11 -->
<g id="edge16" class="edge">
<title>Node7&#45;&gt;Node11</title>
<path fill="none" stroke="#63b8ff" d="M313.34,-211.42C321.36,-212.53 329.51,-213.66 337.51,-214.77"/>
<polygon fill="#63b8ff" stroke="#63b8ff" points="336.82,-218.2 347.2,-216.11 337.77,-211.27 336.82,-218.2"/>
</g>
<!-- Node8&#45;&gt;Node6 -->
<g id="edge10" class="edge">
<title>Node8&#45;&gt;Node6</title>
<path fill="none" stroke="#63b8ff" d="M475.75,-177C483.75,-177 492,-177 500.13,-177"/>
<polygon fill="#63b8ff" stroke="#63b8ff" points="500,-180.5 510,-177 500,-173.5 500,-180.5"/>
</g>
<!-- Node9&#45;&gt;Node6 -->
<g id="edge12" class="edge">
<title>Node9&#45;&gt;Node6</title>
<path fill="none" stroke="#63b8ff" d="M458.25,-257.59C464.34,-254.99 470.41,-252.11 476,-249 501.06,-235.06 526.83,-215.11 545.2,-199.75"/>
<polygon fill="#63b8ff" stroke="#63b8ff" points="547.33,-202.53 552.68,-193.38 542.79,-197.2 547.33,-202.53"/>
</g>
<!-- Node9&#45;&gt;Node10 -->
<g id="edge13" class="edge">
<title>Node9&#45;&gt;Node10</title>
<path fill="none" stroke="#63b8ff" d="M472.6,-273C481.66,-273 491.09,-273 500.37,-273"/>
<polygon fill="#63b8ff" stroke="#63b8ff" points="500.06,-276.5 510.06,-273 500.06,-269.5 500.06,-276.5"/>
</g>
<!-- Node10&#45;&gt;Node2 -->
<g id="edge14" class="edge">
<title>Node10&#45;&gt;Node2</title>
<path fill="none" stroke="#63b8ff" d="M632.1,-288.4C643.93,-291.48 656.45,-294.75 668.58,-297.91"/>
<polygon fill="#63b8ff" stroke="#63b8ff" points="667.56,-301.26 678.12,-300.4 669.33,-294.49 667.56,-301.26"/>
</g>
<!-- Node10&#45;&gt;Node5 -->
<g id="edge15" class="edge">
<title>Node10&#45;&gt;Node5</title>
<path fill="none" stroke="#63b8ff" d="M591.29,-257.59C620.4,-233.07 677.44,-185.02 711.18,-156.59"/>
<polygon fill="#63b8ff" stroke="#63b8ff" points="713.08,-159.57 718.47,-150.45 708.57,-154.22 713.08,-159.57"/>
</g>
</g>
</svg>
