<?xml version="1.0" encoding="UTF-8" standalone="no"?>
<!DOCTYPE svg PUBLIC "-//W3C//DTD SVG 1.1//EN"
 "http://www.w3.org/Graphics/SVG/1.1/DTD/svg11.dtd">
<!-- Generated by graphviz version 2.43.0 (0)
 -->
<!-- Title: nlohmann::detail::binary_writer::to_char_type Pages: 1 -->
<svg width="1299pt" height="733pt"
 viewBox="0.00 0.00 1299.00 733.00" xmlns="http://www.w3.org/2000/svg" xmlns:xlink="http://www.w3.org/1999/xlink">
<g id="graph0" class="graph" transform="scale(1 1) rotate(0) translate(4 729)">
<title>nlohmann::detail::binary_writer::to_char_type</title>
<polygon fill="white" stroke="transparent" points="-4,4 -4,-729 1295,-729 1295,4 -4,4"/>
<!-- Node1 -->
<g id="node1" class="node">
<title>Node1</title>
<g id="a_node1"><a xlink:title=" ">
<polygon fill="#bfbfbf" stroke="black" points="1155,-475.5 1155,-505.5 1291,-505.5 1291,-475.5 1155,-475.5"/>
<text text-anchor="start" x="1163" y="-493.5" font-family="Helvetica,sans-Serif" font-size="10.00">nlohmann::detail::binary</text>
<text text-anchor="middle" x="1223" y="-482.5" font-family="Helvetica,sans-Serif" font-size="10.00">_writer::to_char_type</text>
</a>
</g>
</g>
<!-- Node2 -->
<g id="node2" class="node">
<title>Node2</title>
<g id="a_node2"><a xlink:href="a02001.html#ac1f8d1165b44149bd8be397dce68ea05" target="_top" xlink:title="dump escaped string">
<polygon fill="white" stroke="black" points="953,-694.5 953,-724.5 1103,-724.5 1103,-694.5 953,-694.5"/>
<text text-anchor="start" x="961" y="-712.5" font-family="Helvetica,sans-Serif" font-size="10.00">nlohmann::detail::serializer</text>
<text text-anchor="middle" x="1028" y="-701.5" font-family="Helvetica,sans-Serif" font-size="10.00">::dump_escaped</text>
</a>
</g>
</g>
<!-- Node1&#45;&gt;Node2 -->
<g id="edge1" class="edge">
<title>Node1&#45;&gt;Node2</title>
<path fill="none" stroke="midnightblue" d="M1214.95,-515.53C1202.34,-555.82 1172.14,-635.03 1119,-679.5 1111.67,-685.63 1103.05,-690.52 1094.09,-694.42"/>
<polygon fill="midnightblue" stroke="midnightblue" points="1218.37,-516.3 1217.91,-505.71 1211.67,-514.28 1218.37,-516.3"/>
</g>
<!-- Node5 -->
<g id="node5" class="node">
<title>Node5</title>
<g id="a_node5"><a xlink:href="a01985.html#a2b5cb010077da6241a18bb334736464c" target="_top" xlink:title=" ">
<polygon fill="white" stroke="black" points="949,-557.5 949,-587.5 1107,-587.5 1107,-557.5 949,-557.5"/>
<text text-anchor="start" x="957" y="-575.5" font-family="Helvetica,sans-Serif" font-size="10.00">nlohmann::detail::binary</text>
<text text-anchor="middle" x="1028" y="-564.5" font-family="Helvetica,sans-Serif" font-size="10.00">_writer::get_cbor_float_prefix</text>
</a>
</g>
</g>
<!-- Node1&#45;&gt;Node5 -->
<g id="edge4" class="edge">
<title>Node1&#45;&gt;Node5</title>
<path fill="none" stroke="midnightblue" d="M1186.11,-510.24C1166.59,-520.56 1141.83,-532.99 1119,-542.5 1106.08,-547.88 1091.81,-553 1078.52,-557.43"/>
<polygon fill="midnightblue" stroke="midnightblue" points="1187.79,-513.31 1194.97,-505.51 1184.5,-507.13 1187.79,-513.31"/>
</g>
<!-- Node7 -->
<g id="node7" class="node">
<title>Node7</title>
<g id="a_node7"><a xlink:href="a01985.html#aa0ab8d27fd88a33a2f801413ac4c7fbc" target="_top" xlink:title=" ">
<polygon fill="white" stroke="black" points="560.5,-616.5 560.5,-646.5 696.5,-646.5 696.5,-616.5 560.5,-616.5"/>
<text text-anchor="start" x="568.5" y="-634.5" font-family="Helvetica,sans-Serif" font-size="10.00">nlohmann::detail::binary</text>
<text text-anchor="middle" x="628.5" y="-623.5" font-family="Helvetica,sans-Serif" font-size="10.00">_writer::write_cbor</text>
</a>
</g>
</g>
<!-- Node1&#45;&gt;Node7 -->
<g id="edge39" class="edge">
<title>Node1&#45;&gt;Node7</title>
<path fill="none" stroke="midnightblue" d="M1214,-515.58C1200.84,-552.12 1170.76,-618.65 1119,-646.5 1047.96,-684.72 813.31,-658.04 696.61,-641.67"/>
<polygon fill="midnightblue" stroke="midnightblue" points="1217.46,-516.3 1217.41,-505.71 1210.84,-514.02 1217.46,-516.3"/>
</g>
<!-- Node9 -->
<g id="node9" class="node">
<title>Node9</title>
<g id="a_node9"><a xlink:href="a01985.html#ae4e0852b64102ce4b07d99f08f828b7c" target="_top" xlink:title=" ">
<polygon fill="white" stroke="black" points="560.5,-528.5 560.5,-558.5 696.5,-558.5 696.5,-528.5 560.5,-528.5"/>
<text text-anchor="start" x="568.5" y="-546.5" font-family="Helvetica,sans-Serif" font-size="10.00">nlohmann::detail::binary</text>
<text text-anchor="middle" x="628.5" y="-535.5" font-family="Helvetica,sans-Serif" font-size="10.00">_writer::write_msgpack</text>
</a>
</g>
</g>
<!-- Node1&#45;&gt;Node9 -->
<g id="edge40" class="edge">
<title>Node1&#45;&gt;Node9</title>
<path fill="none" stroke="midnightblue" d="M1144.64,-501.49C1136,-502.57 1127.32,-503.6 1119,-504.5 968.34,-520.73 790.91,-533.22 696.51,-539.34"/>
<polygon fill="midnightblue" stroke="midnightblue" points="1145.28,-504.93 1154.75,-500.19 1144.38,-497.99 1145.28,-504.93"/>
</g>
<!-- Node11 -->
<g id="node11" class="node">
<title>Node11</title>
<g id="a_node11"><a xlink:href="a01985.html#ad452d114696407b98abc69b6001c270e" target="_top" xlink:title=" ">
<polygon fill="white" stroke="black" points="937,-606.5 937,-636.5 1119,-636.5 1119,-606.5 937,-606.5"/>
<text text-anchor="start" x="945" y="-624.5" font-family="Helvetica,sans-Serif" font-size="10.00">nlohmann::detail::binary</text>
<text text-anchor="middle" x="1028" y="-613.5" font-family="Helvetica,sans-Serif" font-size="10.00">_writer::get_msgpack_float_prefix</text>
</a>
</g>
</g>
<!-- Node1&#45;&gt;Node11 -->
<g id="edge10" class="edge">
<title>Node1&#45;&gt;Node11</title>
<path fill="none" stroke="midnightblue" d="M1205.43,-514.16C1187.06,-538.62 1155.21,-576.16 1119,-597.5 1113.15,-600.95 1106.79,-603.91 1100.26,-606.45"/>
<polygon fill="midnightblue" stroke="midnightblue" points="1208.47,-515.93 1211.57,-505.8 1202.83,-511.79 1208.47,-515.93"/>
</g>
<!-- Node12 -->
<g id="node12" class="node">
<title>Node12</title>
<g id="a_node12"><a xlink:href="a01985.html#a025212bd170253638b9f05b3b6aa5bf9" target="_top" xlink:title="Writes a BSON element with key name and array value.">
<polygon fill="white" stroke="black" points="751.5,-88.5 751.5,-118.5 891.5,-118.5 891.5,-88.5 751.5,-88.5"/>
<text text-anchor="start" x="759.5" y="-106.5" font-family="Helvetica,sans-Serif" font-size="10.00">nlohmann::detail::binary</text>
<text text-anchor="middle" x="821.5" y="-95.5" font-family="Helvetica,sans-Serif" font-size="10.00">_writer::write_bson_array</text>
</a>
</g>
</g>
<!-- Node1&#45;&gt;Node12 -->
<g id="edge12" class="edge">
<title>Node1&#45;&gt;Node12</title>
<path fill="none" stroke="midnightblue" d="M1217.48,-465.55C1207.91,-420.21 1181.14,-324.48 1119,-275.5 1054.03,-224.29 998.56,-291.76 937,-236.5 899.03,-202.42 937.48,-163.17 901,-127.5 897.54,-124.11 893.61,-121.2 889.4,-118.7"/>
<polygon fill="midnightblue" stroke="midnightblue" points="1214.07,-466.31 1219.46,-475.43 1220.93,-464.94 1214.07,-466.31"/>
</g>
<!-- Node14 -->
<g id="node14" class="node">
<title>Node14</title>
<g id="a_node14"><a xlink:href="a01985.html#a29b3e0f83a8e5f2307804023109ba2c9" target="_top" xlink:title=" ">
<polygon fill="white" stroke="black" points="370,-258.5 370,-288.5 515,-288.5 515,-258.5 370,-258.5"/>
<text text-anchor="start" x="378" y="-276.5" font-family="Helvetica,sans-Serif" font-size="10.00">nlohmann::detail::binary</text>
<text text-anchor="middle" x="442.5" y="-265.5" font-family="Helvetica,sans-Serif" font-size="10.00">_writer::write_bson_object</text>
</a>
</g>
</g>
<!-- Node1&#45;&gt;Node14 -->
<g id="edge38" class="edge">
<title>Node1&#45;&gt;Node14</title>
<path fill="none" stroke="midnightblue" d="M1144.37,-492.48C1028.07,-494.59 814.51,-494.94 742,-471.5 620.1,-432.1 501.1,-327.9 459.26,-288.7"/>
<polygon fill="midnightblue" stroke="midnightblue" points="1144.7,-495.98 1154.63,-492.28 1144.57,-488.98 1144.7,-495.98"/>
</g>
<!-- Node18 -->
<g id="node18" class="node">
<title>Node18</title>
<g id="a_node18"><a xlink:href="a01985.html#ae099435e1df3096e0fc78333282f8f67" target="_top" xlink:title="Writes a BSON element with key name and boolean value value.">
<polygon fill="white" stroke="black" points="744.5,-431.5 744.5,-461.5 898.5,-461.5 898.5,-431.5 744.5,-431.5"/>
<text text-anchor="start" x="752.5" y="-449.5" font-family="Helvetica,sans-Serif" font-size="10.00">nlohmann::detail::binary</text>
<text text-anchor="middle" x="821.5" y="-438.5" font-family="Helvetica,sans-Serif" font-size="10.00">_writer::write_bson_boolean</text>
</a>
</g>
</g>
<!-- Node1&#45;&gt;Node18 -->
<g id="edge20" class="edge">
<title>Node1&#45;&gt;Node18</title>
<path fill="none" stroke="midnightblue" d="M1144.62,-479.69C1135.98,-478.57 1127.31,-477.48 1119,-476.5 1044.24,-467.64 958.69,-459.16 898.75,-453.49"/>
<polygon fill="midnightblue" stroke="midnightblue" points="1144.35,-483.19 1154.73,-481.02 1145.27,-476.25 1144.35,-483.19"/>
</g>
<!-- Node19 -->
<g id="node19" class="node">
<title>Node19</title>
<g id="a_node19"><a xlink:href="a01985.html#a1b5b7f5c03b1f8b1f59ea61db9634108" target="_top" xlink:title="Writes the given element_type and name to the output adapter.">
<polygon fill="white" stroke="black" points="938.5,-284.5 938.5,-314.5 1117.5,-314.5 1117.5,-284.5 938.5,-284.5"/>
<text text-anchor="start" x="946.5" y="-302.5" font-family="Helvetica,sans-Serif" font-size="10.00">nlohmann::detail::binary</text>
<text text-anchor="middle" x="1028" y="-291.5" font-family="Helvetica,sans-Serif" font-size="10.00">_writer::write_bson_entry_header</text>
</a>
</g>
</g>
<!-- Node1&#45;&gt;Node19 -->
<g id="edge22" class="edge">
<title>Node1&#45;&gt;Node19</title>
<path fill="none" stroke="midnightblue" d="M1199.14,-467.87C1159.27,-428.42 1078.06,-348.05 1044.27,-314.62"/>
<polygon fill="midnightblue" stroke="midnightblue" points="1196.96,-470.65 1206.53,-475.19 1201.89,-465.67 1196.96,-470.65"/>
</g>
<!-- Node26 -->
<g id="node26" class="node">
<title>Node26</title>
<g id="a_node26"><a xlink:href="a01985.html#a0ea6745f944c0c61672146886b4ee90f" target="_top" xlink:title=" ">
<polygon fill="white" stroke="black" points="953,-186 953,-227 1103,-227 1103,-186 953,-186"/>
<text text-anchor="start" x="961" y="-215" font-family="Helvetica,sans-Serif" font-size="10.00">nlohmann::detail::binary</text>
<text text-anchor="start" x="961" y="-204" font-family="Helvetica,sans-Serif" font-size="10.00">_writer::write_number_with</text>
<text text-anchor="middle" x="1028" y="-193" font-family="Helvetica,sans-Serif" font-size="10.00">_ubjson_prefix</text>
</a>
</g>
</g>
<!-- Node1&#45;&gt;Node26 -->
<g id="edge41" class="edge">
<title>Node1&#45;&gt;Node26</title>
<path fill="none" stroke="midnightblue" d="M1218.25,-465.16C1209.65,-415.59 1183.96,-305.09 1119,-241.5 1113.25,-235.87 1106.49,-231.12 1099.31,-227.12"/>
<polygon fill="midnightblue" stroke="midnightblue" points="1214.85,-466.02 1219.92,-475.32 1221.76,-464.88 1214.85,-466.02"/>
</g>
<!-- Node27 -->
<g id="node27" class="node">
<title>Node27</title>
<g id="a_node27"><a xlink:href="a01985.html#a0f6c65053d859269f88eb4ebb0cd7060" target="_top" xlink:title=" ">
<polygon fill="white" stroke="black" points="960,-68.5 960,-98.5 1096,-98.5 1096,-68.5 960,-68.5"/>
<text text-anchor="start" x="968" y="-86.5" font-family="Helvetica,sans-Serif" font-size="10.00">nlohmann::detail::binary</text>
<text text-anchor="middle" x="1028" y="-75.5" font-family="Helvetica,sans-Serif" font-size="10.00">_writer::write_ubjson</text>
</a>
</g>
</g>
<!-- Node1&#45;&gt;Node27 -->
<g id="edge42" class="edge">
<title>Node1&#45;&gt;Node27</title>
<path fill="none" stroke="midnightblue" d="M1217.76,-465.45C1207.57,-410.07 1178.06,-274.36 1119,-176.5 1099.96,-144.95 1068.38,-115.66 1048.14,-98.68"/>
<polygon fill="midnightblue" stroke="midnightblue" points="1214.34,-466.2 1219.55,-475.42 1221.23,-464.96 1214.34,-466.2"/>
</g>
<!-- Node3 -->
<g id="node3" class="node">
<title>Node3</title>
<g id="a_node3"><a xlink:href="a02001.html#a95460ebd1a535a543e5a0ec52e00f48b" target="_top" xlink:title="internal implementation of the serialization function">
<polygon fill="white" stroke="black" points="746.5,-694.5 746.5,-724.5 896.5,-724.5 896.5,-694.5 746.5,-694.5"/>
<text text-anchor="start" x="754.5" y="-712.5" font-family="Helvetica,sans-Serif" font-size="10.00">nlohmann::detail::serializer</text>
<text text-anchor="middle" x="821.5" y="-701.5" font-family="Helvetica,sans-Serif" font-size="10.00">::dump</text>
</a>
</g>
</g>
<!-- Node2&#45;&gt;Node3 -->
<g id="edge2" class="edge">
<title>Node2&#45;&gt;Node3</title>
<path fill="none" stroke="midnightblue" d="M942.47,-709.5C927.29,-709.5 911.57,-709.5 896.71,-709.5"/>
<polygon fill="midnightblue" stroke="midnightblue" points="942.88,-713 952.88,-709.5 942.88,-706 942.88,-713"/>
</g>
<!-- Node4 -->
<g id="node4" class="node">
<title>Node4</title>
<g id="a_node4"><a xlink:href="a01605.html#acfc564f36da667b7d9109879d34dc36c" target="_top" xlink:title="serialization">
<polygon fill="white" stroke="black" points="567.5,-694.5 567.5,-724.5 689.5,-724.5 689.5,-694.5 567.5,-694.5"/>
<text text-anchor="start" x="575.5" y="-712.5" font-family="Helvetica,sans-Serif" font-size="10.00">nlohmann::basic_json</text>
<text text-anchor="middle" x="628.5" y="-701.5" font-family="Helvetica,sans-Serif" font-size="10.00">::dump</text>
</a>
</g>
</g>
<!-- Node3&#45;&gt;Node4 -->
<g id="edge3" class="edge">
<title>Node3&#45;&gt;Node4</title>
<path fill="none" stroke="midnightblue" d="M736.17,-709.5C720.51,-709.5 704.45,-709.5 689.69,-709.5"/>
<polygon fill="midnightblue" stroke="midnightblue" points="736.38,-713 746.38,-709.5 736.38,-706 736.38,-713"/>
</g>
<!-- Node6 -->
<g id="node6" class="node">
<title>Node6</title>
<g id="a_node6"><a xlink:href="a01985.html#ae69dc3c5b2e8c1c8e461779cddb87436" target="_top" xlink:title=" ">
<polygon fill="white" stroke="black" points="744,-587.5 744,-617.5 899,-617.5 899,-587.5 744,-587.5"/>
<text text-anchor="start" x="752" y="-605.5" font-family="Helvetica,sans-Serif" font-size="10.00">nlohmann::detail::binary</text>
<text text-anchor="middle" x="821.5" y="-594.5" font-family="Helvetica,sans-Serif" font-size="10.00">_writer::write_compact_float</text>
</a>
</g>
</g>
<!-- Node5&#45;&gt;Node6 -->
<g id="edge5" class="edge">
<title>Node5&#45;&gt;Node6</title>
<path fill="none" stroke="midnightblue" d="M938.83,-585.44C925.67,-587.37 912.19,-589.34 899.29,-591.23"/>
<polygon fill="midnightblue" stroke="midnightblue" points="939.43,-588.88 948.81,-583.97 938.41,-581.96 939.43,-588.88"/>
</g>
<!-- Node6&#45;&gt;Node7 -->
<g id="edge6" class="edge">
<title>Node6&#45;&gt;Node7</title>
<path fill="none" stroke="midnightblue" d="M733.92,-615.65C721.38,-617.55 708.63,-619.48 696.56,-621.32"/>
<polygon fill="midnightblue" stroke="midnightblue" points="734.55,-619.09 743.91,-614.13 733.5,-612.17 734.55,-619.09"/>
</g>
<!-- Node6&#45;&gt;Node9 -->
<g id="edge8" class="edge">
<title>Node6&#45;&gt;Node9</title>
<path fill="none" stroke="midnightblue" d="M762.13,-584.47C735.23,-576.16 703.68,-566.41 678.1,-558.51"/>
<polygon fill="midnightblue" stroke="midnightblue" points="761.22,-587.85 771.81,-587.46 763.29,-581.16 761.22,-587.85"/>
</g>
<!-- Node8 -->
<g id="node8" class="node">
<title>Node8</title>
<g id="a_node8"><a xlink:href="a01605.html#af803f43acdb465ead25e65aa53acbcb8" target="_top" xlink:title=" ">
<polygon fill="white" stroke="black" points="381.5,-616.5 381.5,-646.5 503.5,-646.5 503.5,-616.5 381.5,-616.5"/>
<text text-anchor="start" x="389.5" y="-634.5" font-family="Helvetica,sans-Serif" font-size="10.00">nlohmann::basic_json</text>
<text text-anchor="middle" x="442.5" y="-623.5" font-family="Helvetica,sans-Serif" font-size="10.00">::to_cbor</text>
</a>
</g>
</g>
<!-- Node7&#45;&gt;Node8 -->
<g id="edge7" class="edge">
<title>Node7&#45;&gt;Node8</title>
<path fill="none" stroke="midnightblue" d="M550.15,-631.5C534.57,-631.5 518.41,-631.5 503.53,-631.5"/>
<polygon fill="midnightblue" stroke="midnightblue" points="550.29,-635 560.29,-631.5 550.29,-628 550.29,-635"/>
</g>
<!-- Node10 -->
<g id="node10" class="node">
<title>Node10</title>
<g id="a_node10"><a xlink:href="a01605.html#ac258abcc5ccb6f5d46c12d5e66fadf98" target="_top" xlink:title=" ">
<polygon fill="white" stroke="black" points="381.5,-528.5 381.5,-558.5 503.5,-558.5 503.5,-528.5 381.5,-528.5"/>
<text text-anchor="start" x="389.5" y="-546.5" font-family="Helvetica,sans-Serif" font-size="10.00">nlohmann::basic_json</text>
<text text-anchor="middle" x="442.5" y="-535.5" font-family="Helvetica,sans-Serif" font-size="10.00">::to_msgpack</text>
</a>
</g>
</g>
<!-- Node9&#45;&gt;Node10 -->
<g id="edge9" class="edge">
<title>Node9&#45;&gt;Node10</title>
<path fill="none" stroke="midnightblue" d="M550.15,-543.5C534.57,-543.5 518.41,-543.5 503.53,-543.5"/>
<polygon fill="midnightblue" stroke="midnightblue" points="550.29,-547 560.29,-543.5 550.29,-540 550.29,-547"/>
</g>
<!-- Node11&#45;&gt;Node6 -->
<g id="edge11" class="edge">
<title>Node11&#45;&gt;Node6</title>
<path fill="none" stroke="midnightblue" d="M926.7,-612.18C917.45,-611.32 908.18,-610.46 899.19,-609.63"/>
<polygon fill="midnightblue" stroke="midnightblue" points="926.43,-615.67 936.71,-613.11 927.07,-608.7 926.43,-615.67"/>
</g>
<!-- Node13 -->
<g id="node13" class="node">
<title>Node13</title>
<g id="a_node13"><a xlink:href="a01985.html#a7ff58bf1a80018148bed860667ffca07" target="_top" xlink:title="Serializes the JSON value j to BSON and associates it with the key name.">
<polygon fill="white" stroke="black" points="551,-235.5 551,-265.5 706,-265.5 706,-235.5 551,-235.5"/>
<text text-anchor="start" x="559" y="-253.5" font-family="Helvetica,sans-Serif" font-size="10.00">nlohmann::detail::binary</text>
<text text-anchor="middle" x="628.5" y="-242.5" font-family="Helvetica,sans-Serif" font-size="10.00">_writer::write_bson_element</text>
</a>
</g>
</g>
<!-- Node12&#45;&gt;Node13 -->
<g id="edge13" class="edge">
<title>Node12&#45;&gt;Node13</title>
<path fill="none" stroke="midnightblue" d="M742.57,-118.14C742.38,-118.26 742.19,-118.38 742,-118.5 693.07,-149.41 651.93,-207.1 636.27,-235.15"/>
<polygon fill="midnightblue" stroke="midnightblue" points="744.41,-121.13 751.46,-113.22 741.01,-115 744.41,-121.13"/>
</g>
<!-- Node13&#45;&gt;Node12 -->
<g id="edge14" class="edge">
<title>Node13&#45;&gt;Node12</title>
<path fill="none" stroke="midnightblue" d="M649.99,-227.02C670.26,-201.18 703.75,-160.66 742,-136.5 754.77,-128.43 770.43,-122.93 784.39,-118.62"/>
<polygon fill="midnightblue" stroke="midnightblue" points="647.02,-225.14 643.63,-235.18 652.54,-229.44 647.02,-225.14"/>
</g>
<!-- Node13&#45;&gt;Node14 -->
<g id="edge15" class="edge">
<title>Node13&#45;&gt;Node14</title>
<path fill="none" stroke="midnightblue" d="M540.75,-261.34C532.15,-262.42 523.49,-263.5 515.07,-264.55"/>
<polygon fill="midnightblue" stroke="midnightblue" points="541.31,-264.8 550.8,-260.09 540.44,-257.85 541.31,-264.8"/>
</g>
<!-- Node15 -->
<g id="node15" class="node">
<title>Node15</title>
<g id="a_node15"><a xlink:href="a01985.html#a9ffc566db5219b473762462234b47db9" target="_top" xlink:title=" ">
<polygon fill="white" stroke="black" points="178,-259.5 178,-289.5 314,-289.5 314,-259.5 178,-259.5"/>
<text text-anchor="start" x="186" y="-277.5" font-family="Helvetica,sans-Serif" font-size="10.00">nlohmann::detail::binary</text>
<text text-anchor="middle" x="246" y="-266.5" font-family="Helvetica,sans-Serif" font-size="10.00">_writer::write_bson</text>
</a>
</g>
</g>
<!-- Node14&#45;&gt;Node15 -->
<g id="edge16" class="edge">
<title>Node14&#45;&gt;Node15</title>
<path fill="none" stroke="midnightblue" d="M359.55,-273.92C344.45,-274 328.85,-274.08 314.25,-274.15"/>
<polygon fill="midnightblue" stroke="midnightblue" points="359.92,-277.42 369.9,-273.87 359.89,-270.42 359.92,-277.42"/>
</g>
<!-- Node17 -->
<g id="node17" class="node">
<title>Node17</title>
<g id="a_node17"><a xlink:href="a01985.html#a6231302930265eccb3f56c378f7b0661" target="_top" xlink:title="Writes a BSON element with key name and object value.">
<polygon fill="white" stroke="black" points="158,-210.5 158,-240.5 334,-240.5 334,-210.5 158,-210.5"/>
<text text-anchor="start" x="166" y="-228.5" font-family="Helvetica,sans-Serif" font-size="10.00">nlohmann::detail::binary</text>
<text text-anchor="middle" x="246" y="-217.5" font-family="Helvetica,sans-Serif" font-size="10.00">_writer::write_bson_object_entry</text>
</a>
</g>
</g>
<!-- Node14&#45;&gt;Node17 -->
<g id="edge18" class="edge">
<title>Node14&#45;&gt;Node17</title>
<path fill="none" stroke="midnightblue" d="M370.54,-255.99C349.97,-250.91 327.69,-245.41 307.79,-240.5"/>
<polygon fill="midnightblue" stroke="midnightblue" points="369.95,-259.45 380.49,-258.44 371.62,-252.65 369.95,-259.45"/>
</g>
<!-- Node16 -->
<g id="node16" class="node">
<title>Node16</title>
<g id="a_node16"><a xlink:href="a01605.html#a0e352827765f76b007725d2b2b890d45" target="_top" xlink:title="Serializes the given JSON object j to BSON and forwards the corresponding BSON&#45;representation to the ...">
<polygon fill="white" stroke="black" points="0,-259.5 0,-289.5 122,-289.5 122,-259.5 0,-259.5"/>
<text text-anchor="start" x="8" y="-277.5" font-family="Helvetica,sans-Serif" font-size="10.00">nlohmann::basic_json</text>
<text text-anchor="middle" x="61" y="-266.5" font-family="Helvetica,sans-Serif" font-size="10.00">::to_bson</text>
</a>
</g>
</g>
<!-- Node15&#45;&gt;Node16 -->
<g id="edge17" class="edge">
<title>Node15&#45;&gt;Node16</title>
<path fill="none" stroke="midnightblue" d="M167.5,-274.5C152.33,-274.5 136.63,-274.5 122.13,-274.5"/>
<polygon fill="midnightblue" stroke="midnightblue" points="167.9,-278 177.9,-274.5 167.9,-271 167.9,-278"/>
</g>
<!-- Node17&#45;&gt;Node13 -->
<g id="edge19" class="edge">
<title>Node17&#45;&gt;Node13</title>
<path fill="none" stroke="midnightblue" d="M344.2,-231.89C408.43,-236.11 491.43,-241.56 550.96,-245.47"/>
<polygon fill="midnightblue" stroke="midnightblue" points="344.27,-228.38 334.06,-231.22 343.81,-235.37 344.27,-228.38"/>
</g>
<!-- Node18&#45;&gt;Node13 -->
<g id="edge21" class="edge">
<title>Node18&#45;&gt;Node13</title>
<path fill="none" stroke="midnightblue" d="M747.78,-426.44C745.78,-425.2 743.85,-423.89 742,-422.5 685.08,-379.75 648.55,-299.18 635.2,-265.69"/>
<polygon fill="midnightblue" stroke="midnightblue" points="746.43,-429.69 756.89,-431.39 749.77,-423.54 746.43,-429.69"/>
</g>
<!-- Node19&#45;&gt;Node12 -->
<g id="edge23" class="edge">
<title>Node19&#45;&gt;Node12</title>
<path fill="none" stroke="midnightblue" d="M948.4,-279.18C944.25,-276.36 940.39,-273.15 937,-269.5 892.68,-221.8 945.91,-174.64 901,-127.5 897.76,-124.1 894.04,-121.17 890.04,-118.66"/>
<polygon fill="midnightblue" stroke="midnightblue" points="946.9,-282.36 957.29,-284.44 950.46,-276.34 946.9,-282.36"/>
</g>
<!-- Node19&#45;&gt;Node17 -->
<g id="edge33" class="edge">
<title>Node19&#45;&gt;Node17</title>
<path fill="none" stroke="midnightblue" d="M985.5,-279.3C968.06,-268.82 949.05,-254.42 937,-236.5 896.81,-176.74 957.3,-123.42 901,-78.5 802.52,0.06 402.86,-159.39 281.87,-210.47"/>
<polygon fill="midnightblue" stroke="midnightblue" points="984.02,-282.49 994.44,-284.42 987.5,-276.41 984.02,-282.49"/>
</g>
<!-- Node19&#45;&gt;Node18 -->
<g id="edge26" class="edge">
<title>Node19&#45;&gt;Node18</title>
<path fill="none" stroke="midnightblue" d="M1009.18,-322.66C986.78,-350.26 945.8,-395.94 901,-422.5 895.24,-425.92 888.95,-428.89 882.51,-431.46"/>
<polygon fill="midnightblue" stroke="midnightblue" points="1012.01,-324.72 1015.52,-314.72 1006.54,-320.35 1012.01,-324.72"/>
</g>
<!-- Node20 -->
<g id="node20" class="node">
<title>Node20</title>
<g id="a_node20"><a xlink:href="a01985.html#a97d34d9a70ddc06ae782c55454df42bc" target="_top" xlink:title="Writes a BSON element with key name and binary value value.">
<polygon fill="white" stroke="black" points="748.5,-382.5 748.5,-412.5 894.5,-412.5 894.5,-382.5 748.5,-382.5"/>
<text text-anchor="start" x="756.5" y="-400.5" font-family="Helvetica,sans-Serif" font-size="10.00">nlohmann::detail::binary</text>
<text text-anchor="middle" x="821.5" y="-389.5" font-family="Helvetica,sans-Serif" font-size="10.00">_writer::write_bson_binary</text>
</a>
</g>
</g>
<!-- Node19&#45;&gt;Node20 -->
<g id="edge24" class="edge">
<title>Node19&#45;&gt;Node20</title>
<path fill="none" stroke="midnightblue" d="M996.47,-320.18C971.6,-336.34 935.13,-358.51 901,-373.5 893.56,-376.77 885.55,-379.77 877.58,-382.46"/>
<polygon fill="midnightblue" stroke="midnightblue" points="998.65,-322.94 1005.08,-314.52 994.8,-317.09 998.65,-322.94"/>
</g>
<!-- Node21 -->
<g id="node21" class="node">
<title>Node21</title>
<g id="a_node21"><a xlink:href="a01985.html#a263ec18815467bb9919021ef126919ca" target="_top" xlink:title="Writes a BSON element with key name and double value value.">
<polygon fill="white" stroke="black" points="747.5,-333.5 747.5,-363.5 895.5,-363.5 895.5,-333.5 747.5,-333.5"/>
<text text-anchor="start" x="755.5" y="-351.5" font-family="Helvetica,sans-Serif" font-size="10.00">nlohmann::detail::binary</text>
<text text-anchor="middle" x="821.5" y="-340.5" font-family="Helvetica,sans-Serif" font-size="10.00">_writer::write_bson_double</text>
</a>
</g>
</g>
<!-- Node19&#45;&gt;Node21 -->
<g id="edge27" class="edge">
<title>Node19&#45;&gt;Node21</title>
<path fill="none" stroke="midnightblue" d="M954.37,-316.9C931.74,-322.32 907,-328.25 885.13,-333.49"/>
<polygon fill="midnightblue" stroke="midnightblue" points="955.34,-320.27 964.25,-314.53 953.71,-313.46 955.34,-320.27"/>
</g>
<!-- Node22 -->
<g id="node22" class="node">
<title>Node22</title>
<g id="a_node22"><a xlink:href="a01985.html#a553ad4dbdf27238eef90867e4bf2f3e5" target="_top" xlink:title="Writes a BSON element with key name and integer value.">
<polygon fill="white" stroke="black" points="747,-284.5 747,-314.5 896,-314.5 896,-284.5 747,-284.5"/>
<text text-anchor="start" x="755" y="-302.5" font-family="Helvetica,sans-Serif" font-size="10.00">nlohmann::detail::binary</text>
<text text-anchor="middle" x="821.5" y="-291.5" font-family="Helvetica,sans-Serif" font-size="10.00">_writer::write_bson_integer</text>
</a>
</g>
</g>
<!-- Node19&#45;&gt;Node22 -->
<g id="edge29" class="edge">
<title>Node19&#45;&gt;Node22</title>
<path fill="none" stroke="midnightblue" d="M928.17,-299.5C917.37,-299.5 906.52,-299.5 896.11,-299.5"/>
<polygon fill="midnightblue" stroke="midnightblue" points="928.49,-303 938.49,-299.5 928.49,-296 928.49,-303"/>
</g>
<!-- Node23 -->
<g id="node23" class="node">
<title>Node23</title>
<g id="a_node23"><a xlink:href="a01985.html#a9927c1110b18661e0224a76156e5a7a9" target="_top" xlink:title="Writes a BSON element with key name and null value.">
<polygon fill="white" stroke="black" points="753.5,-235.5 753.5,-265.5 889.5,-265.5 889.5,-235.5 753.5,-235.5"/>
<text text-anchor="start" x="761.5" y="-253.5" font-family="Helvetica,sans-Serif" font-size="10.00">nlohmann::detail::binary</text>
<text text-anchor="middle" x="821.5" y="-242.5" font-family="Helvetica,sans-Serif" font-size="10.00">_writer::write_bson_null</text>
</a>
</g>
</g>
<!-- Node19&#45;&gt;Node23 -->
<g id="edge31" class="edge">
<title>Node19&#45;&gt;Node23</title>
<path fill="none" stroke="midnightblue" d="M954.37,-282.1C931.74,-276.68 907,-270.75 885.13,-265.51"/>
<polygon fill="midnightblue" stroke="midnightblue" points="953.71,-285.54 964.25,-284.47 955.34,-278.73 953.71,-285.54"/>
</g>
<!-- Node24 -->
<g id="node24" class="node">
<title>Node24</title>
<g id="a_node24"><a xlink:href="a01985.html#a5e6574416915208fc035b57338ae3252" target="_top" xlink:title="Writes a BSON element with key name and string value value.">
<polygon fill="white" stroke="black" points="750,-186.5 750,-216.5 893,-216.5 893,-186.5 750,-186.5"/>
<text text-anchor="start" x="758" y="-204.5" font-family="Helvetica,sans-Serif" font-size="10.00">nlohmann::detail::binary</text>
<text text-anchor="middle" x="821.5" y="-193.5" font-family="Helvetica,sans-Serif" font-size="10.00">_writer::write_bson_string</text>
</a>
</g>
</g>
<!-- Node19&#45;&gt;Node24 -->
<g id="edge34" class="edge">
<title>Node19&#45;&gt;Node24</title>
<path fill="none" stroke="midnightblue" d="M956.66,-280.46C949.75,-277.31 943.06,-273.68 937,-269.5 916.2,-255.16 921.98,-239.58 901,-225.5 895.91,-222.09 890.32,-219.14 884.53,-216.61"/>
<polygon fill="midnightblue" stroke="midnightblue" points="955.61,-283.81 966.18,-284.46 958.32,-277.36 955.61,-283.81"/>
</g>
<!-- Node25 -->
<g id="node25" class="node">
<title>Node25</title>
<g id="a_node25"><a xlink:href="a01985.html#a5e295ed1be6af6260d2a65f7397c3742" target="_top" xlink:title="Writes a BSON element with key name and unsigned value.">
<polygon fill="white" stroke="black" points="742,-137.5 742,-167.5 901,-167.5 901,-137.5 742,-137.5"/>
<text text-anchor="start" x="750" y="-155.5" font-family="Helvetica,sans-Serif" font-size="10.00">nlohmann::detail::binary</text>
<text text-anchor="middle" x="821.5" y="-144.5" font-family="Helvetica,sans-Serif" font-size="10.00">_writer::write_bson_unsigned</text>
</a>
</g>
</g>
<!-- Node19&#45;&gt;Node25 -->
<g id="edge36" class="edge">
<title>Node19&#45;&gt;Node25</title>
<path fill="none" stroke="midnightblue" d="M950.38,-279.6C945.55,-276.68 941.02,-273.34 937,-269.5 904.92,-238.91 933.46,-206.68 901,-176.5 897.35,-173.1 893.23,-170.19 888.83,-167.68"/>
<polygon fill="midnightblue" stroke="midnightblue" points="948.88,-282.77 959.35,-284.41 952.18,-276.6 948.88,-282.77"/>
</g>
<!-- Node20&#45;&gt;Node13 -->
<g id="edge25" class="edge">
<title>Node20&#45;&gt;Node13</title>
<path fill="none" stroke="midnightblue" d="M750.2,-378.16C747.37,-376.71 744.63,-375.16 742,-373.5 696,-344.45 656.89,-291.73 639.36,-265.78"/>
<polygon fill="midnightblue" stroke="midnightblue" points="748.93,-381.42 759.47,-382.44 751.87,-375.07 748.93,-381.42"/>
</g>
<!-- Node21&#45;&gt;Node13 -->
<g id="edge28" class="edge">
<title>Node21&#45;&gt;Node13</title>
<path fill="none" stroke="midnightblue" d="M754.53,-329.86C750.24,-328.18 746.03,-326.39 742,-324.5 707.09,-308.1 670.45,-282.1 648.81,-265.69"/>
<polygon fill="midnightblue" stroke="midnightblue" points="753.42,-333.18 764.01,-333.37 755.85,-326.62 753.42,-333.18"/>
</g>
<!-- Node22&#45;&gt;Node13 -->
<g id="edge30" class="edge">
<title>Node22&#45;&gt;Node13</title>
<path fill="none" stroke="midnightblue" d="M752.09,-281.95C731.12,-276.57 708.24,-270.7 687.99,-265.51"/>
<polygon fill="midnightblue" stroke="midnightblue" points="751.34,-285.37 761.9,-284.47 753.08,-278.59 751.34,-285.37"/>
</g>
<!-- Node23&#45;&gt;Node13 -->
<g id="edge32" class="edge">
<title>Node23&#45;&gt;Node13</title>
<path fill="none" stroke="midnightblue" d="M743.28,-250.5C731.05,-250.5 718.42,-250.5 706.21,-250.5"/>
<polygon fill="midnightblue" stroke="midnightblue" points="743.43,-254 753.43,-250.5 743.43,-247 743.43,-254"/>
</g>
<!-- Node24&#45;&gt;Node13 -->
<g id="edge35" class="edge">
<title>Node24&#45;&gt;Node13</title>
<path fill="none" stroke="midnightblue" d="M752.09,-219.05C731.12,-224.43 708.24,-230.3 687.99,-235.49"/>
<polygon fill="midnightblue" stroke="midnightblue" points="753.08,-222.41 761.9,-216.53 751.34,-215.63 753.08,-222.41"/>
</g>
<!-- Node25&#45;&gt;Node13 -->
<g id="edge37" class="edge">
<title>Node25&#45;&gt;Node13</title>
<path fill="none" stroke="midnightblue" d="M754.53,-171.14C750.24,-172.82 746.03,-174.61 742,-176.5 707.09,-192.9 670.45,-218.9 648.81,-235.31"/>
<polygon fill="midnightblue" stroke="midnightblue" points="755.85,-174.38 764.01,-167.63 753.42,-167.82 755.85,-174.38"/>
</g>
<!-- Node28 -->
<g id="node28" class="node">
<title>Node28</title>
<g id="a_node28"><a xlink:href="a01605.html#a52df3c307adc4224c4be2723d6a73e4e" target="_top" xlink:title=" ">
<polygon fill="white" stroke="black" points="760.5,-0.5 760.5,-30.5 882.5,-30.5 882.5,-0.5 760.5,-0.5"/>
<text text-anchor="start" x="768.5" y="-18.5" font-family="Helvetica,sans-Serif" font-size="10.00">nlohmann::basic_json</text>
<text text-anchor="middle" x="821.5" y="-7.5" font-family="Helvetica,sans-Serif" font-size="10.00">::to_ubjson</text>
</a>
</g>
</g>
<!-- Node27&#45;&gt;Node28 -->
<g id="edge43" class="edge">
<title>Node27&#45;&gt;Node28</title>
<path fill="none" stroke="midnightblue" d="M972.04,-65.22C939.44,-54.38 898.62,-40.81 867.87,-30.59"/>
<polygon fill="midnightblue" stroke="midnightblue" points="971.27,-68.66 981.87,-68.49 973.48,-62.02 971.27,-68.66"/>
</g>
</g>
</svg>
