<?xml version="1.0" encoding="UTF-8" standalone="no"?>
<!DOCTYPE svg PUBLIC "-//W3C//DTD SVG 1.1//EN"
 "http://www.w3.org/Graphics/SVG/1.1/DTD/svg11.dtd">
<!-- Generated by graphviz version 4.0.0 (20220529.0937)
 -->
<!-- Title: nlohmann::detail::binary_reader::parse_ubjson_internal Pages: 1 -->
<svg width="1672pt" height="933pt"
 viewBox="0.00 0.00 1672.00 933.43" xmlns="http://www.w3.org/2000/svg" xmlns:xlink="http://www.w3.org/1999/xlink">
<g id="graph0" class="graph" transform="scale(1 1) rotate(0) translate(4 929.43)">
<title>nlohmann::detail::binary_reader::parse_ubjson_internal</title>
<polygon fill="white" stroke="transparent" points="-4,4 -4,-929.43 1668,-929.43 1668,4 -4,4"/>
<!-- Node1 -->
<g id="node1" class="node">
<title>Node1</title>
<g id="a_node1"><a xlink:title=" ">
<polygon fill="#bfbfbf" stroke="black" points="0,-210.43 0,-240.43 149,-240.43 149,-210.43 0,-210.43"/>
<text text-anchor="start" x="8" y="-228.43" font-family="Helvetica,sans-Serif" font-size="10.00">nlohmann::detail::binary</text>
<text text-anchor="middle" x="74.5" y="-217.43" font-family="Helvetica,sans-Serif" font-size="10.00">_reader::parse_ubjson_internal</text>
</a>
</g>
</g>
<!-- Node2 -->
<g id="node2" class="node">
<title>Node2</title>
<g id="a_node2"><a xlink:href="a01929.html#a252c1179651d22c5343bcf0b538ed26a" target="_top" xlink:title=" ">
<polygon fill="white" stroke="black" points="893.5,-109.43 893.5,-139.43 1019.5,-139.43 1019.5,-109.43 893.5,-109.43"/>
<text text-anchor="start" x="901.5" y="-127.43" font-family="Helvetica,sans-Serif" font-size="10.00">nlohmann::detail::binary</text>
<text text-anchor="middle" x="956.5" y="-116.43" font-family="Helvetica,sans-Serif" font-size="10.00">_reader::get_ignore_noop</text>
</a>
</g>
</g>
<!-- Node1&#45;&gt;Node2 -->
<g id="edge1" class="edge">
<title>Node1&#45;&gt;Node2</title>
<path fill="none" stroke="midnightblue" d="M88,-210.4C129.36,-162.48 267.56,-16.43 416,-16.43 416,-16.43 416,-16.43 595.5,-16.43 717.15,-16.43 852.54,-73.71 917.14,-104.84"/>
<polygon fill="midnightblue" stroke="midnightblue" points="916,-108.18 926.52,-109.42 919.07,-101.89 916,-108.18"/>
</g>
<!-- Node4 -->
<g id="node4" class="node">
<title>Node4</title>
<g id="a_node4"><a xlink:href="a01929.html#a7e5e0b71548d0649ce4f131280d06c33" target="_top" xlink:title=" ">
<polygon fill="white" stroke="black" points="185,-343.43 185,-373.43 314,-373.43 314,-343.43 185,-343.43"/>
<text text-anchor="start" x="193" y="-361.43" font-family="Helvetica,sans-Serif" font-size="10.00">nlohmann::detail::binary</text>
<text text-anchor="middle" x="249.5" y="-350.43" font-family="Helvetica,sans-Serif" font-size="10.00">_reader::get_ubjson_value</text>
</a>
</g>
</g>
<!-- Node1&#45;&gt;Node4 -->
<g id="edge3" class="edge">
<title>Node1&#45;&gt;Node4</title>
<path fill="none" stroke="midnightblue" d="M95.35,-240.69C126.11,-264.34 185.41,-309.94 220.52,-336.92"/>
<polygon fill="midnightblue" stroke="midnightblue" points="218.82,-340.04 228.89,-343.36 223.09,-334.49 218.82,-340.04"/>
</g>
<!-- Node3 -->
<g id="node3" class="node">
<title>Node3</title>
<g id="a_node3"><a xlink:href="a01929.html#ad222095c0b21a87824cb10629299629a" target="_top" xlink:title="get next character from the input">
<polygon fill="white" stroke="black" points="1056,-475.43 1056,-505.43 1176,-505.43 1176,-475.43 1056,-475.43"/>
<text text-anchor="start" x="1064" y="-493.43" font-family="Helvetica,sans-Serif" font-size="10.00">nlohmann::detail::binary</text>
<text text-anchor="middle" x="1116" y="-482.43" font-family="Helvetica,sans-Serif" font-size="10.00">_reader::get</text>
</a>
</g>
</g>
<!-- Node2&#45;&gt;Node3 -->
<g id="edge2" class="edge">
<title>Node2&#45;&gt;Node3</title>
<path fill="none" stroke="midnightblue" d="M1001.23,-139.44C1008.25,-143.42 1014.89,-148.36 1020,-154.43 1030.35,-166.73 1088.74,-389.23 1108.48,-465.23"/>
<polygon fill="midnightblue" stroke="midnightblue" points="1105.2,-466.54 1111.1,-475.34 1111.98,-464.78 1105.2,-466.54"/>
</g>
<!-- Node4&#45;&gt;Node3 -->
<g id="edge11" class="edge">
<title>Node4&#45;&gt;Node3</title>
<path fill="none" stroke="midnightblue" d="M259.87,-373.71C295.59,-429.84 429.54,-621.43 593.5,-621.43 593.5,-621.43 593.5,-621.43 782,-621.43 890.87,-621.43 921.83,-610.51 1020,-563.43 1021.91,-562.52 1059.96,-533.13 1087.32,-511.93"/>
<polygon fill="midnightblue" stroke="midnightblue" points="1089.65,-514.54 1095.41,-505.65 1085.36,-509.01 1089.65,-514.54"/>
</g>
<!-- Node5 -->
<g id="node5" class="node">
<title>Node5</title>
<g id="a_node5"><a xlink:href="a01497.html#a137ea4d27de45d8a844fd13451d40f3d" target="_top" xlink:title="create a parse error exception">
<polygon fill="white" stroke="black" points="1224,-614.43 1224,-644.43 1342,-644.43 1342,-614.43 1224,-614.43"/>
<text text-anchor="start" x="1232" y="-632.43" font-family="Helvetica,sans-Serif" font-size="10.00">nlohmann::detail::parse</text>
<text text-anchor="middle" x="1283" y="-621.43" font-family="Helvetica,sans-Serif" font-size="10.00">_error::create</text>
</a>
</g>
</g>
<!-- Node4&#45;&gt;Node5 -->
<g id="edge4" class="edge">
<title>Node4&#45;&gt;Node5</title>
<path fill="none" stroke="midnightblue" d="M250.79,-373.71C252.52,-429.09 264.68,-622.66 350,-748.43 425.11,-859.16 459.71,-925.43 593.5,-925.43 593.5,-925.43 593.5,-925.43 957.5,-925.43 1059.61,-925.43 1099.39,-921.94 1176,-854.43 1238.08,-799.72 1266.62,-700.84 1277.04,-654.58"/>
<polygon fill="midnightblue" stroke="midnightblue" points="1280.52,-655.03 1279.21,-644.51 1273.68,-653.55 1280.52,-655.03"/>
</g>
<!-- Node10 -->
<g id="node10" class="node">
<title>Node10</title>
<g id="a_node10"><a xlink:href="a01929.html#a9c413c9a1bade1ce345740f4d69156f0" target="_top" xlink:title=" ">
<polygon fill="white" stroke="black" points="1212,-336.43 1212,-366.43 1354,-366.43 1354,-336.43 1212,-336.43"/>
<text text-anchor="start" x="1220" y="-354.43" font-family="Helvetica,sans-Serif" font-size="10.00">nlohmann::detail::binary</text>
<text text-anchor="middle" x="1283" y="-343.43" font-family="Helvetica,sans-Serif" font-size="10.00">_reader::exception_message</text>
</a>
</g>
</g>
<!-- Node4&#45;&gt;Node10 -->
<g id="edge10" class="edge">
<title>Node4&#45;&gt;Node10</title>
<path fill="none" stroke="midnightblue" d="M297.53,-343.33C418.05,-306.62 747.67,-218.92 1020,-263.43 1099.86,-276.49 1188.19,-310.53 1239.18,-332.24"/>
<polygon fill="midnightblue" stroke="midnightblue" points="1238,-335.54 1248.57,-336.28 1240.76,-329.11 1238,-335.54"/>
</g>
<!-- Node11 -->
<g id="node11" class="node">
<title>Node11</title>
<g id="a_node11"><a xlink:href="a01929.html#ac356c6364fe0273d3303fb7a447f4ef6" target="_top" xlink:title=" ">
<polygon fill="white" stroke="black" points="896.5,-524.43 896.5,-554.43 1016.5,-554.43 1016.5,-524.43 896.5,-524.43"/>
<text text-anchor="start" x="904.5" y="-542.43" font-family="Helvetica,sans-Serif" font-size="10.00">nlohmann::detail::binary</text>
<text text-anchor="middle" x="956.5" y="-531.43" font-family="Helvetica,sans-Serif" font-size="10.00">_reader::get_number</text>
</a>
</g>
</g>
<!-- Node4&#45;&gt;Node11 -->
<g id="edge12" class="edge">
<title>Node4&#45;&gt;Node11</title>
<path fill="none" stroke="midnightblue" d="M280.38,-373.47C299.84,-382.8 325.97,-394.49 350,-402.43 539.97,-465.27 772.84,-509.02 886.49,-528.32"/>
<polygon fill="midnightblue" stroke="midnightblue" points="886,-531.79 896.45,-530 887.17,-524.88 886,-531.79"/>
</g>
<!-- Node12 -->
<g id="node12" class="node">
<title>Node12</title>
<g id="a_node12"><a xlink:href="a01929.html#a61a0bd8bbe7b560bd429fa990ba3ba1a" target="_top" xlink:title=" ">
<polygon fill="white" stroke="black" points="1056,-546.43 1056,-576.43 1176,-576.43 1176,-546.43 1056,-546.43"/>
<text text-anchor="start" x="1064" y="-564.43" font-family="Helvetica,sans-Serif" font-size="10.00">nlohmann::detail::binary</text>
<text text-anchor="middle" x="1116" y="-553.43" font-family="Helvetica,sans-Serif" font-size="10.00">_reader::unexpect_eof</text>
</a>
</g>
</g>
<!-- Node4&#45;&gt;Node12 -->
<g id="edge58" class="edge">
<title>Node4&#45;&gt;Node12</title>
<path fill="none" stroke="midnightblue" d="M250.74,-373.61C252.35,-424.39 264.25,-590.45 350,-684.43 464.87,-810.34 537.76,-796.6 705,-829.43 771.29,-842.45 792.82,-850.51 857,-829.43 942.47,-801.37 958.46,-775.05 1020,-709.43 1056.19,-670.85 1086.91,-616.71 1102.98,-585.74"/>
<polygon fill="midnightblue" stroke="midnightblue" points="1106.25,-587.04 1107.68,-576.54 1100.01,-583.86 1106.25,-587.04"/>
</g>
<!-- Node13 -->
<g id="node13" class="node">
<title>Node13</title>
<g id="a_node13"><a xlink:href="a01929.html#a7d323283c60a0b89ee5eeadf5cb9a5ad" target="_top" xlink:title=" ">
<polygon fill="white" stroke="black" points="893,-273.43 893,-303.43 1020,-303.43 1020,-273.43 893,-273.43"/>
<text text-anchor="start" x="901" y="-291.43" font-family="Helvetica,sans-Serif" font-size="10.00">nlohmann::detail::binary</text>
<text text-anchor="middle" x="956.5" y="-280.43" font-family="Helvetica,sans-Serif" font-size="10.00">_reader::get_token_string</text>
</a>
</g>
</g>
<!-- Node4&#45;&gt;Node13 -->
<g id="edge17" class="edge">
<title>Node4&#45;&gt;Node13</title>
<path fill="none" stroke="midnightblue" d="M314.31,-352.1C445.42,-339.08 744.41,-309.39 882.77,-295.66"/>
<polygon fill="midnightblue" stroke="midnightblue" points="883.24,-299.13 892.85,-294.66 882.55,-292.16 883.24,-299.13"/>
</g>
<!-- Node14 -->
<g id="node14" class="node">
<title>Node14</title>
<g id="a_node14"><a xlink:href="a01929.html#afb36cb588b795efa513fc95e949493b7" target="_top" xlink:title=" ">
<polygon fill="white" stroke="black" points="352.5,-183.43 352.5,-213.43 481.5,-213.43 481.5,-183.43 352.5,-183.43"/>
<text text-anchor="start" x="360.5" y="-201.43" font-family="Helvetica,sans-Serif" font-size="10.00">nlohmann::detail::binary</text>
<text text-anchor="middle" x="417" y="-190.43" font-family="Helvetica,sans-Serif" font-size="10.00">_reader::get_ubjson_array</text>
</a>
</g>
</g>
<!-- Node4&#45;&gt;Node14 -->
<g id="edge18" class="edge">
<title>Node4&#45;&gt;Node14</title>
<path fill="none" stroke="midnightblue" d="M255.42,-343.43C267.09,-315.34 298.77,-256.05 344.34,-218.08"/>
<polygon fill="midnightblue" stroke="midnightblue" points="346.71,-220.67 352.39,-211.72 342.37,-215.18 346.71,-220.67"/>
</g>
<!-- Node17 -->
<g id="node17" class="node">
<title>Node17</title>
<g id="a_node17"><a xlink:href="a01929.html#a26c694413fb860057e1a839d5422b361" target="_top" xlink:title=" ">
<polygon fill="white" stroke="black" points="532,-702.93 532,-743.93 657,-743.93 657,-702.93 532,-702.93"/>
<text text-anchor="start" x="540" y="-731.93" font-family="Helvetica,sans-Serif" font-size="10.00">nlohmann::detail::binary</text>
<text text-anchor="start" x="540" y="-720.93" font-family="Helvetica,sans-Serif" font-size="10.00">_reader::get_ubjson_high</text>
<text text-anchor="middle" x="594.5" y="-709.93" font-family="Helvetica,sans-Serif" font-size="10.00">_precision_number</text>
</a>
</g>
</g>
<!-- Node4&#45;&gt;Node17 -->
<g id="edge35" class="edge">
<title>Node4&#45;&gt;Node17</title>
<path fill="none" stroke="midnightblue" d="M251.55,-373.7C255.54,-419.77 273.65,-558.94 350,-635.43 396.01,-681.54 467.96,-703.64 521.73,-714.15"/>
<polygon fill="midnightblue" stroke="midnightblue" points="521.42,-717.65 531.89,-716.04 522.7,-710.77 521.42,-717.65"/>
</g>
<!-- Node19 -->
<g id="node19" class="node">
<title>Node19</title>
<g id="a_node19"><a xlink:href="a01929.html#adcf64ad3207f4bf37a5a31c920a385c3" target="_top" xlink:title=" ">
<polygon fill="white" stroke="black" points="350,-232.43 350,-262.43 484,-262.43 484,-232.43 350,-232.43"/>
<text text-anchor="start" x="358" y="-250.43" font-family="Helvetica,sans-Serif" font-size="10.00">nlohmann::detail::binary</text>
<text text-anchor="middle" x="417" y="-239.43" font-family="Helvetica,sans-Serif" font-size="10.00">_reader::get_ubjson_object</text>
</a>
</g>
</g>
<!-- Node4&#45;&gt;Node19 -->
<g id="edge42" class="edge">
<title>Node4&#45;&gt;Node19</title>
<path fill="none" stroke="midnightblue" d="M260.57,-343.24C277.82,-323.49 314.6,-290.38 350,-268.43 350.52,-268.11 351.04,-267.79 351.57,-267.48"/>
<polygon fill="midnightblue" stroke="midnightblue" points="353.39,-270.46 360.35,-262.47 349.93,-264.38 353.39,-270.46"/>
</g>
<!-- Node20 -->
<g id="node20" class="node">
<title>Node20</title>
<g id="a_node20"><a xlink:href="a01929.html#a4ae90db51c102e912b7eac83c78733a6" target="_top" xlink:title="reads a UBJSON string">
<polygon fill="white" stroke="black" points="715.5,-436.43 715.5,-466.43 846.5,-466.43 846.5,-436.43 715.5,-436.43"/>
<text text-anchor="start" x="723.5" y="-454.43" font-family="Helvetica,sans-Serif" font-size="10.00">nlohmann::detail::binary</text>
<text text-anchor="middle" x="781" y="-443.43" font-family="Helvetica,sans-Serif" font-size="10.00">_reader::get_ubjson_string</text>
</a>
</g>
</g>
<!-- Node4&#45;&gt;Node20 -->
<g id="edge57" class="edge">
<title>Node4&#45;&gt;Node20</title>
<path fill="none" stroke="midnightblue" d="M314.11,-369.61C412.47,-386.88 601.01,-420 705.57,-438.36"/>
<polygon fill="midnightblue" stroke="midnightblue" points="704.96,-441.81 715.42,-440.09 706.17,-434.91 704.96,-441.81"/>
</g>
<!-- Node6 -->
<g id="node6" class="node">
<title>Node6</title>
<g id="a_node6"><a xlink:href="a01497.html#a0ea816ea3521d7109407948cb1b850f7" target="_top" xlink:title=" ">
<polygon fill="white" stroke="black" points="1399,-663.43 1399,-693.43 1517,-693.43 1517,-663.43 1399,-663.43"/>
<text text-anchor="start" x="1407" y="-681.43" font-family="Helvetica,sans-Serif" font-size="10.00">nlohmann::detail::parse</text>
<text text-anchor="middle" x="1458" y="-670.43" font-family="Helvetica,sans-Serif" font-size="10.00">_error::parse_error</text>
</a>
</g>
</g>
<!-- Node5&#45;&gt;Node6 -->
<g id="edge5" class="edge">
<title>Node5&#45;&gt;Node6</title>
<path fill="none" stroke="midnightblue" d="M1337.32,-644.54C1355.24,-649.61 1375.41,-655.33 1394.01,-660.59"/>
<polygon fill="midnightblue" stroke="midnightblue" points="1393.28,-664.03 1403.86,-663.38 1395.19,-657.29 1393.28,-664.03"/>
</g>
<!-- Node7 -->
<g id="node7" class="node">
<title>Node7</title>
<g id="a_node7"><a xlink:href="a01493.html#abf41a7e9178356314082284e6cfea278" target="_top" xlink:title=" ">
<polygon fill="white" stroke="black" points="1390,-614.43 1390,-644.43 1526,-644.43 1526,-614.43 1390,-614.43"/>
<text text-anchor="start" x="1398" y="-632.43" font-family="Helvetica,sans-Serif" font-size="10.00">nlohmann::detail::exception</text>
<text text-anchor="middle" x="1458" y="-621.43" font-family="Helvetica,sans-Serif" font-size="10.00">::name</text>
</a>
</g>
</g>
<!-- Node5&#45;&gt;Node7 -->
<g id="edge6" class="edge">
<title>Node5&#45;&gt;Node7</title>
<path fill="none" stroke="midnightblue" d="M1342.09,-629.43C1354.17,-629.43 1367.09,-629.43 1379.73,-629.43"/>
<polygon fill="midnightblue" stroke="midnightblue" points="1379.8,-632.93 1389.8,-629.43 1379.8,-625.93 1379.8,-632.93"/>
</g>
<!-- Node9 -->
<g id="node9" class="node">
<title>Node9</title>
<g id="a_node9"><a xlink:href="a01497.html#aefe74adeaa48781464ba2fd2ec63d221" target="_top" xlink:title=" ">
<polygon fill="white" stroke="black" points="1399,-565.43 1399,-595.43 1517,-595.43 1517,-565.43 1399,-565.43"/>
<text text-anchor="start" x="1407" y="-583.43" font-family="Helvetica,sans-Serif" font-size="10.00">nlohmann::detail::parse</text>
<text text-anchor="middle" x="1458" y="-572.43" font-family="Helvetica,sans-Serif" font-size="10.00">_error::position_string</text>
</a>
</g>
</g>
<!-- Node5&#45;&gt;Node9 -->
<g id="edge8" class="edge">
<title>Node5&#45;&gt;Node9</title>
<path fill="none" stroke="midnightblue" d="M1337.32,-614.33C1355.24,-609.26 1375.41,-603.54 1394.01,-598.28"/>
<polygon fill="midnightblue" stroke="midnightblue" points="1395.19,-601.58 1403.86,-595.49 1393.28,-594.84 1395.19,-601.58"/>
</g>
<!-- Node8 -->
<g id="node8" class="node">
<title>Node8</title>
<g id="a_node8"><a xlink:href="a00410.html#a6ce645a0b8717757e096a5b5773b7a16" target="_top" xlink:title="user&#45;defined to_string function for JSON values">
<polygon fill="white" stroke="black" points="1562,-594.93 1562,-613.93 1664,-613.93 1664,-594.93 1562,-594.93"/>
<text text-anchor="middle" x="1613" y="-601.93" font-family="Helvetica,sans-Serif" font-size="10.00">nlohmann::to_string</text>
</a>
</g>
</g>
<!-- Node7&#45;&gt;Node8 -->
<g id="edge7" class="edge">
<title>Node7&#45;&gt;Node8</title>
<path fill="none" stroke="midnightblue" d="M1526.11,-618.47C1534.67,-617.07 1543.39,-615.65 1551.84,-614.27"/>
<polygon fill="midnightblue" stroke="midnightblue" points="1552.66,-617.68 1561.97,-612.61 1551.53,-610.77 1552.66,-617.68"/>
</g>
<!-- Node9&#45;&gt;Node8 -->
<g id="edge9" class="edge">
<title>Node9&#45;&gt;Node8</title>
<path fill="none" stroke="midnightblue" d="M1517.28,-589.58C1528.53,-591.34 1540.34,-593.19 1551.65,-594.97"/>
<polygon fill="midnightblue" stroke="midnightblue" points="1551.45,-598.48 1561.87,-596.57 1552.54,-591.56 1551.45,-598.48"/>
</g>
<!-- Node11&#45;&gt;Node3 -->
<g id="edge13" class="edge">
<title>Node11&#45;&gt;Node3</title>
<path fill="none" stroke="midnightblue" d="M1006.04,-524.33C1022.13,-519.33 1040.21,-513.7 1056.95,-508.5"/>
<polygon fill="midnightblue" stroke="midnightblue" points="1058.11,-511.8 1066.62,-505.49 1056.03,-505.12 1058.11,-511.8"/>
</g>
<!-- Node11&#45;&gt;Node12 -->
<g id="edge14" class="edge">
<title>Node11&#45;&gt;Node12</title>
<path fill="none" stroke="midnightblue" d="M1016.6,-547.69C1026.12,-549.02 1036.05,-550.41 1045.79,-551.77"/>
<polygon fill="midnightblue" stroke="midnightblue" points="1045.45,-555.25 1055.84,-553.17 1046.42,-548.32 1045.45,-555.25"/>
</g>
<!-- Node12&#45;&gt;Node5 -->
<g id="edge15" class="edge">
<title>Node12&#45;&gt;Node5</title>
<path fill="none" stroke="midnightblue" d="M1153.62,-576.53C1177.97,-586.56 1210.14,-599.82 1236.19,-610.56"/>
<polygon fill="midnightblue" stroke="midnightblue" points="1234.9,-613.81 1245.48,-614.39 1237.57,-607.34 1234.9,-613.81"/>
</g>
<!-- Node12&#45;&gt;Node10 -->
<g id="edge16" class="edge">
<title>Node12&#45;&gt;Node10</title>
<path fill="none" stroke="midnightblue" d="M1139.17,-546.42C1150.9,-537.86 1165.08,-526.46 1176,-514.43 1216.28,-470.09 1251.66,-408.89 1269.57,-375.51"/>
<polygon fill="midnightblue" stroke="midnightblue" points="1272.76,-376.96 1274.35,-366.49 1266.58,-373.69 1272.76,-376.96"/>
</g>
<!-- Node14&#45;&gt;Node1 -->
<g id="edge34" class="edge">
<title>Node14&#45;&gt;Node1</title>
<path fill="none" stroke="midnightblue" d="M352.28,-203.49C297.84,-207.8 219.11,-214.05 159.52,-218.77"/>
<polygon fill="midnightblue" stroke="midnightblue" points="159.08,-215.3 149.38,-219.58 159.63,-222.27 159.08,-215.3"/>
</g>
<!-- Node14&#45;&gt;Node2 -->
<g id="edge19" class="edge">
<title>Node14&#45;&gt;Node2</title>
<path fill="none" stroke="midnightblue" d="M430.61,-183.31C448.21,-163.49 482.28,-129.72 520,-116.43 641.91,-73.51 795.15,-91.47 883.55,-108.14"/>
<polygon fill="midnightblue" stroke="midnightblue" points="883,-111.6 893.48,-110.06 884.33,-104.73 883,-111.6"/>
</g>
<!-- Node14&#45;&gt;Node4 -->
<g id="edge33" class="edge">
<title>Node14&#45;&gt;Node4</title>
<path fill="none" stroke="midnightblue" d="M386.22,-213.5C374.17,-217.92 360.63,-223.46 350,-231.43 312.37,-259.68 282.75,-306.11 265.93,-334.5"/>
<polygon fill="midnightblue" stroke="midnightblue" points="262.76,-332.98 260.72,-343.38 268.8,-336.52 262.76,-332.98"/>
</g>
<!-- Node15 -->
<g id="node15" class="node">
<title>Node15</title>
<g id="a_node15"><a xlink:href="a01929.html#a7b6c2d4c95d56751e233e285a5f1fea7" target="_top" xlink:title="determine the type and size for a container">
<polygon fill="white" stroke="black" points="520,-191.43 520,-221.43 669,-221.43 669,-191.43 520,-191.43"/>
<text text-anchor="start" x="528" y="-209.43" font-family="Helvetica,sans-Serif" font-size="10.00">nlohmann::detail::binary</text>
<text text-anchor="middle" x="594.5" y="-198.43" font-family="Helvetica,sans-Serif" font-size="10.00">_reader::get_ubjson_size_type</text>
</a>
</g>
</g>
<!-- Node14&#45;&gt;Node15 -->
<g id="edge20" class="edge">
<title>Node14&#45;&gt;Node15</title>
<path fill="none" stroke="midnightblue" d="M481.86,-201.35C490.92,-201.76 500.36,-202.19 509.74,-202.62"/>
<polygon fill="midnightblue" stroke="midnightblue" points="509.72,-206.12 519.87,-203.08 510.04,-199.13 509.72,-206.12"/>
</g>
<!-- Node15&#45;&gt;Node2 -->
<g id="edge24" class="edge">
<title>Node15&#45;&gt;Node2</title>
<path fill="none" stroke="midnightblue" d="M661.53,-191.39C724.34,-177.09 818.61,-155.62 883.37,-140.86"/>
<polygon fill="midnightblue" stroke="midnightblue" points="884.53,-144.19 893.5,-138.56 882.97,-137.37 884.53,-144.19"/>
</g>
<!-- Node15&#45;&gt;Node3 -->
<g id="edge23" class="edge">
<title>Node15&#45;&gt;Node3</title>
<path fill="none" stroke="midnightblue" d="M669.2,-201.18C775.84,-195.12 966.28,-190.57 1020,-230.43 1096.38,-287.12 1111.44,-411.57 1114.34,-465.11"/>
<polygon fill="midnightblue" stroke="midnightblue" points="1110.86,-465.58 1114.8,-475.41 1117.85,-465.27 1110.86,-465.58"/>
</g>
<!-- Node15&#45;&gt;Node5 -->
<g id="edge21" class="edge">
<title>Node15&#45;&gt;Node5</title>
<path fill="none" stroke="midnightblue" d="M615.76,-191.17C679.92,-144.83 882.45,-14.06 1020,-99.43 1068.32,-129.43 1229.36,-504.76 1271.72,-604.97"/>
<polygon fill="midnightblue" stroke="midnightblue" points="1268.54,-606.45 1275.65,-614.3 1274.99,-603.73 1268.54,-606.45"/>
</g>
<!-- Node15&#45;&gt;Node10 -->
<g id="edge22" class="edge">
<title>Node15&#45;&gt;Node10</title>
<path fill="none" stroke="midnightblue" d="M600.03,-191.3C611.24,-156.9 643.9,-73.33 705,-40.43 828.38,25.98 891.15,1.61 1020,-53.43 1149.62,-108.81 1239.41,-266.03 1270.24,-326.92"/>
<polygon fill="midnightblue" stroke="midnightblue" points="1267.24,-328.77 1274.83,-336.16 1273.51,-325.65 1267.24,-328.77"/>
</g>
<!-- Node15&#45;&gt;Node12 -->
<g id="edge32" class="edge">
<title>Node15&#45;&gt;Node12</title>
<path fill="none" stroke="midnightblue" d="M669.24,-211.53C784.19,-220.19 995.54,-239.19 1020,-263.43 1100.05,-342.77 999.97,-416.65 1056,-514.43 1061.73,-524.44 1070.5,-533.12 1079.54,-540.21"/>
<polygon fill="midnightblue" stroke="midnightblue" points="1077.69,-543.19 1087.84,-546.26 1081.82,-537.54 1077.69,-543.19"/>
</g>
<!-- Node15&#45;&gt;Node13 -->
<g id="edge25" class="edge">
<title>Node15&#45;&gt;Node13</title>
<path fill="none" stroke="midnightblue" d="M621.11,-221.53C642.72,-233.54 674.88,-249.73 705,-258.43 763.36,-275.3 832.01,-282.69 882.67,-285.93"/>
<polygon fill="midnightblue" stroke="midnightblue" points="882.69,-289.44 892.88,-286.54 883.11,-282.45 882.69,-289.44"/>
</g>
<!-- Node16 -->
<g id="node16" class="node">
<title>Node16</title>
<g id="a_node16"><a xlink:href="a01929.html#aba7ba9ec9a52ad2bee8baff70176aa20" target="_top" xlink:title=" ">
<polygon fill="white" stroke="black" points="705,-387.43 705,-417.43 857,-417.43 857,-387.43 705,-387.43"/>
<text text-anchor="start" x="713" y="-405.43" font-family="Helvetica,sans-Serif" font-size="10.00">nlohmann::detail::binary</text>
<text text-anchor="middle" x="781" y="-394.43" font-family="Helvetica,sans-Serif" font-size="10.00">_reader::get_ubjson_size_value</text>
</a>
</g>
</g>
<!-- Node15&#45;&gt;Node16 -->
<g id="edge26" class="edge">
<title>Node15&#45;&gt;Node16</title>
<path fill="none" stroke="midnightblue" d="M607.4,-221.56C626.9,-246.07 667.3,-295.63 705,-334.43 720.71,-350.6 739.5,-367.64 754.34,-380.61"/>
<polygon fill="midnightblue" stroke="midnightblue" points="752.29,-383.47 762.14,-387.37 756.88,-378.18 752.29,-383.47"/>
</g>
<!-- Node16&#45;&gt;Node2 -->
<g id="edge29" class="edge">
<title>Node16&#45;&gt;Node2</title>
<path fill="none" stroke="midnightblue" d="M791.58,-387.09C820.31,-341.05 905.95,-203.83 940.65,-148.23"/>
<polygon fill="midnightblue" stroke="midnightblue" points="943.63,-150.07 945.95,-139.73 937.69,-146.36 943.63,-150.07"/>
</g>
<!-- Node16&#45;&gt;Node5 -->
<g id="edge27" class="edge">
<title>Node16&#45;&gt;Node5</title>
<path fill="none" stroke="midnightblue" d="M857.37,-397.05C941.78,-394.74 1079.38,-402.44 1176,-465.43 1227.79,-499.2 1259.58,-568.08 1273.59,-604.91"/>
<polygon fill="midnightblue" stroke="midnightblue" points="1270.34,-606.21 1277.07,-614.39 1276.91,-603.8 1270.34,-606.21"/>
</g>
<!-- Node16&#45;&gt;Node10 -->
<g id="edge28" class="edge">
<title>Node16&#45;&gt;Node10</title>
<path fill="none" stroke="midnightblue" d="M820.65,-387.3C832.37,-382.62 845.24,-377.4 857,-372.43 873.13,-365.63 875.9,-360.18 893,-356.43 997.66,-333.52 1121.97,-337.08 1201.4,-343.11"/>
<polygon fill="midnightblue" stroke="midnightblue" points="1201.58,-346.63 1211.82,-343.93 1202.13,-339.66 1201.58,-346.63"/>
</g>
<!-- Node16&#45;&gt;Node11 -->
<g id="edge30" class="edge">
<title>Node16&#45;&gt;Node11</title>
<path fill="none" stroke="midnightblue" d="M844.6,-417.54C849.08,-420.06 853.29,-423 857,-426.43 888.03,-455.12 863,-484.67 893,-514.43 894.46,-515.89 896.02,-517.26 897.65,-518.55"/>
<polygon fill="midnightblue" stroke="midnightblue" points="896.09,-521.72 906.34,-524.39 900,-515.91 896.09,-521.72"/>
</g>
<!-- Node16&#45;&gt;Node13 -->
<g id="edge31" class="edge">
<title>Node16&#45;&gt;Node13</title>
<path fill="none" stroke="midnightblue" d="M831.95,-387.38C840.83,-383.38 849.59,-378.44 857,-372.43 879.4,-354.26 871.22,-337.35 893,-318.43 897.2,-314.78 901.93,-311.47 906.85,-308.5"/>
<polygon fill="midnightblue" stroke="midnightblue" points="908.8,-311.42 915.84,-303.51 905.4,-305.3 908.8,-311.42"/>
</g>
<!-- Node17&#45;&gt;Node3 -->
<g id="edge38" class="edge">
<title>Node17&#45;&gt;Node3</title>
<path fill="none" stroke="midnightblue" d="M657.14,-714.05C768.14,-696.66 992.71,-659.04 1020,-635.43 1055.41,-604.8 1028.47,-574.3 1056,-536.43 1062.84,-527.02 1072.12,-518.57 1081.29,-511.55"/>
<polygon fill="midnightblue" stroke="midnightblue" points="1083.57,-514.22 1089.61,-505.52 1079.46,-508.55 1083.57,-514.22"/>
</g>
<!-- Node17&#45;&gt;Node5 -->
<g id="edge36" class="edge">
<title>Node17&#45;&gt;Node5</title>
<path fill="none" stroke="midnightblue" d="M609.19,-744.22C627.48,-769.89 662.57,-812.26 705,-829.43 773.58,-857.19 1089.86,-877.51 1176,-825.43 1238.85,-787.44 1266.78,-698.01 1277.01,-654.32"/>
<polygon fill="midnightblue" stroke="midnightblue" points="1280.44,-655.03 1279.19,-644.51 1273.61,-653.51 1280.44,-655.03"/>
</g>
<!-- Node17&#45;&gt;Node10 -->
<g id="edge37" class="edge">
<title>Node17&#45;&gt;Node10</title>
<path fill="none" stroke="midnightblue" d="M657.29,-735.87C743.15,-750.04 901.34,-764.67 1020,-709.43 1100.29,-672.06 1121.54,-655.28 1176,-585.43 1228.3,-518.36 1261.5,-421.36 1275.04,-376.24"/>
<polygon fill="midnightblue" stroke="midnightblue" points="1278.46,-377.02 1277.91,-366.44 1271.74,-375.05 1278.46,-377.02"/>
</g>
<!-- Node17&#45;&gt;Node12 -->
<g id="edge41" class="edge">
<title>Node17&#45;&gt;Node12</title>
<path fill="none" stroke="midnightblue" d="M657.29,-729.73C743.84,-735.65 903.6,-735.87 1020,-673.43 1057.42,-653.36 1086.36,-612 1102.02,-585.55"/>
<polygon fill="midnightblue" stroke="midnightblue" points="1105.24,-586.96 1107.17,-576.55 1099.17,-583.48 1105.24,-586.96"/>
</g>
<!-- Node17&#45;&gt;Node16 -->
<g id="edge39" class="edge">
<title>Node17&#45;&gt;Node16</title>
<path fill="none" stroke="midnightblue" d="M597.04,-702.83C602.15,-649.33 623.23,-504.72 705,-426.43 706.11,-425.37 707.27,-424.35 708.47,-423.38"/>
<polygon fill="midnightblue" stroke="midnightblue" points="710.64,-426.14 716.91,-417.6 706.68,-420.37 710.64,-426.14"/>
</g>
<!-- Node18 -->
<g id="node18" class="node">
<title>Node18</title>
<g id="a_node18"><a xlink:href="a00411.html#a616a53cc3114fdc113fc44e6af4c3c7f" target="_top" xlink:title=" ">
<polygon fill="white" stroke="black" points="723.5,-790.43 723.5,-820.43 838.5,-820.43 838.5,-790.43 723.5,-790.43"/>
<text text-anchor="start" x="731.5" y="-808.43" font-family="Helvetica,sans-Serif" font-size="10.00">nlohmann::detail::input</text>
<text text-anchor="middle" x="781" y="-797.43" font-family="Helvetica,sans-Serif" font-size="10.00">_adapter</text>
</a>
</g>
</g>
<!-- Node17&#45;&gt;Node18 -->
<g id="edge40" class="edge">
<title>Node17&#45;&gt;Node18</title>
<path fill="none" stroke="midnightblue" d="M637.33,-744.06C657.63,-753.87 682.44,-765.58 705,-775.43 713.49,-779.15 722.6,-782.94 731.44,-786.53"/>
<polygon fill="midnightblue" stroke="midnightblue" points="730.3,-789.84 740.88,-790.33 732.91,-783.35 730.3,-789.84"/>
</g>
<!-- Node19&#45;&gt;Node1 -->
<g id="edge56" class="edge">
<title>Node19&#45;&gt;Node1</title>
<path fill="none" stroke="midnightblue" d="M349.75,-243.15C295.38,-239.64 218.06,-234.65 159.37,-230.85"/>
<polygon fill="midnightblue" stroke="midnightblue" points="159.59,-227.36 149.38,-230.21 159.14,-234.35 159.59,-227.36"/>
</g>
<!-- Node19&#45;&gt;Node2 -->
<g id="edge43" class="edge">
<title>Node19&#45;&gt;Node2</title>
<path fill="none" stroke="midnightblue" d="M466.27,-232.34C472.48,-229.5 478.56,-226.2 484,-222.43 503.93,-208.62 498.97,-193.51 520,-181.43 633.98,-115.99 791.89,-112.83 882.91,-117.76"/>
<polygon fill="midnightblue" stroke="midnightblue" points="882.94,-121.26 893.13,-118.36 883.35,-114.27 882.94,-121.26"/>
</g>
<!-- Node19&#45;&gt;Node4 -->
<g id="edge55" class="edge">
<title>Node19&#45;&gt;Node4</title>
<path fill="none" stroke="midnightblue" d="M396.27,-262.44C382.79,-269.28 364.76,-277.28 350,-286.43 325.92,-301.36 301.21,-321.45 282.44,-336.78"/>
<polygon fill="midnightblue" stroke="midnightblue" points="280.05,-334.21 274.52,-343.24 284.48,-339.63 280.05,-334.21"/>
</g>
<!-- Node19&#45;&gt;Node15 -->
<g id="edge44" class="edge">
<title>Node19&#45;&gt;Node15</title>
<path fill="none" stroke="midnightblue" d="M482.35,-232.4C494.4,-229.59 507.07,-226.63 519.38,-223.75"/>
<polygon fill="midnightblue" stroke="midnightblue" points="520.21,-227.15 529.15,-221.47 518.62,-220.33 520.21,-227.15"/>
</g>
<!-- Node19&#45;&gt;Node20 -->
<g id="edge45" class="edge">
<title>Node19&#45;&gt;Node20</title>
<path fill="none" stroke="midnightblue" d="M438.28,-262.46C483.91,-295.72 598.99,-376.57 705,-426.43 709.69,-428.64 714.63,-430.74 719.65,-432.72"/>
<polygon fill="midnightblue" stroke="midnightblue" points="718.74,-436.12 729.33,-436.36 721.21,-429.57 718.74,-436.12"/>
</g>
<!-- Node20&#45;&gt;Node3 -->
<g id="edge48" class="edge">
<title>Node20&#45;&gt;Node3</title>
<path fill="none" stroke="midnightblue" d="M846.52,-451.78C894.61,-452.87 961.75,-456.15 1020,-465.43 1031.46,-467.26 1043.55,-469.88 1055.11,-472.75"/>
<polygon fill="midnightblue" stroke="midnightblue" points="1054.55,-476.22 1065.11,-475.32 1056.29,-469.44 1054.55,-476.22"/>
</g>
<!-- Node20&#45;&gt;Node5 -->
<g id="edge46" class="edge">
<title>Node20&#45;&gt;Node5</title>
<path fill="none" stroke="midnightblue" d="M789.5,-466.87C804.57,-495.98 841.51,-558.55 893,-586.43 994.41,-641.36 1132.36,-642.35 1213.81,-636.79"/>
<polygon fill="midnightblue" stroke="midnightblue" points="1214.23,-640.27 1223.94,-636.04 1213.71,-633.28 1214.23,-640.27"/>
</g>
<!-- Node20&#45;&gt;Node10 -->
<g id="edge47" class="edge">
<title>Node20&#45;&gt;Node10</title>
<path fill="none" stroke="midnightblue" d="M846.6,-438.52C937.59,-420.32 1103.38,-387.16 1202.03,-367.43"/>
<polygon fill="midnightblue" stroke="midnightblue" points="1202.83,-370.84 1211.95,-365.44 1201.46,-363.97 1202.83,-370.84"/>
</g>
<!-- Node20&#45;&gt;Node11 -->
<g id="edge49" class="edge">
<title>Node20&#45;&gt;Node11</title>
<path fill="none" stroke="midnightblue" d="M806.61,-466.69C828.77,-480.11 862.45,-499.74 893,-514.43 897.25,-516.48 901.72,-518.5 906.22,-520.46"/>
<polygon fill="midnightblue" stroke="midnightblue" points="904.9,-523.7 915.47,-524.36 907.62,-517.25 904.9,-523.7"/>
</g>
<!-- Node20&#45;&gt;Node12 -->
<g id="edge54" class="edge">
<title>Node20&#45;&gt;Node12</title>
<path fill="none" stroke="midnightblue" d="M791.28,-466.75C807.9,-492.51 845.49,-543.63 893,-563.43 941.12,-583.49 1000.37,-581.8 1045.56,-575.73"/>
<polygon fill="midnightblue" stroke="midnightblue" points="1046.16,-579.18 1055.55,-574.29 1045.16,-572.26 1046.16,-579.18"/>
</g>
<!-- Node20&#45;&gt;Node13 -->
<g id="edge53" class="edge">
<title>Node20&#45;&gt;Node13</title>
<path fill="none" stroke="midnightblue" d="M842.06,-436.29C847.43,-433.53 852.52,-430.28 857,-426.43 883.56,-403.66 872.98,-385.13 893,-356.43 904.4,-340.1 919.45,-323.61 931.93,-310.95"/>
<polygon fill="midnightblue" stroke="midnightblue" points="934.69,-313.14 939.31,-303.61 929.75,-308.18 934.69,-313.14"/>
</g>
<!-- Node21 -->
<g id="node21" class="node">
<title>Node21</title>
<g id="a_node21"><a xlink:href="a01929.html#a540919db22df36512f05a88945c13263" target="_top" xlink:title="create a string by reading characters from the input">
<polygon fill="white" stroke="black" points="896.5,-475.43 896.5,-505.43 1016.5,-505.43 1016.5,-475.43 896.5,-475.43"/>
<text text-anchor="start" x="904.5" y="-493.43" font-family="Helvetica,sans-Serif" font-size="10.00">nlohmann::detail::binary</text>
<text text-anchor="middle" x="956.5" y="-482.43" font-family="Helvetica,sans-Serif" font-size="10.00">_reader::get_string</text>
</a>
</g>
</g>
<!-- Node20&#45;&gt;Node21 -->
<g id="edge50" class="edge">
<title>Node20&#45;&gt;Node21</title>
<path fill="none" stroke="midnightblue" d="M846.6,-465.96C859.58,-468.87 873.26,-471.95 886.38,-474.9"/>
<polygon fill="midnightblue" stroke="midnightblue" points="885.76,-478.35 896.29,-477.12 887.3,-471.52 885.76,-478.35"/>
</g>
<!-- Node21&#45;&gt;Node3 -->
<g id="edge51" class="edge">
<title>Node21&#45;&gt;Node3</title>
<path fill="none" stroke="midnightblue" d="M1016.6,-490.43C1026.12,-490.43 1036.05,-490.43 1045.79,-490.43"/>
<polygon fill="midnightblue" stroke="midnightblue" points="1045.84,-493.93 1055.84,-490.43 1045.84,-486.93 1045.84,-493.93"/>
</g>
<!-- Node21&#45;&gt;Node12 -->
<g id="edge52" class="edge">
<title>Node21&#45;&gt;Node12</title>
<path fill="none" stroke="midnightblue" d="M998.4,-505.51C1005.65,-508.36 1013.08,-511.4 1020,-514.43 1039.06,-522.79 1059.81,-532.93 1077.04,-541.65"/>
<polygon fill="midnightblue" stroke="midnightblue" points="1075.73,-544.91 1086.22,-546.33 1078.9,-538.67 1075.73,-544.91"/>
</g>
</g>
</svg>
