<?xml version="1.0" encoding="UTF-8" standalone="no"?>
<!DOCTYPE svg PUBLIC "-//W3C//DTD SVG 1.1//EN"
 "http://www.w3.org/Graphics/SVG/1.1/DTD/svg11.dtd">
<!-- Generated by graphviz version 8.0.5 (20230430.1635)
 -->
<!-- Title: nlohmann::detail::parser&lt; BasicJsonType, InputAdapterType &gt; Pages: 1 -->
<svg width="418pt" height="166pt"
 viewBox="0.00 0.00 418.00 166.00" xmlns="http://www.w3.org/2000/svg" xmlns:xlink="http://www.w3.org/1999/xlink">
<g id="graph0" class="graph" transform="scale(1 1) rotate(0) translate(4 162)">
<title>nlohmann::detail::parser&lt; BasicJsonType, InputAdapterType &gt;</title>
<!-- Node1 -->
<g id="node1" class="node">
<title>Node1</title>
<g id="a_node1"><a xlink:title="syntax analysis">
<polygon fill="#999999" stroke="#666666" points="410,-92 228.25,-92 228.25,-60 410,-60 410,-92"/>
<text text-anchor="start" x="236.25" y="-78.5" font-family="Helvetica,sans-Serif" font-size="10.00">nlohmann::detail::parser</text>
<text text-anchor="middle" x="319.13" y="-66.5" font-family="Helvetica,sans-Serif" font-size="10.00">&lt; BasicJsonType, InputAdapterType &gt;</text>
</a>
</g>
</g>
<!-- Node2 -->
<g id="node2" class="node">
<title>Node2</title>
<g id="a_node2"><a xlink:title=" ">
<polygon fill="white" stroke="#666666" points="113.13,-158 1.88,-158 1.88,-126 113.13,-126 113.13,-158"/>
<text text-anchor="start" x="9.88" y="-144.5" font-family="Helvetica,sans-Serif" font-size="10.00">const parser_callback</text>
<text text-anchor="middle" x="57.5" y="-132.5" font-family="Helvetica,sans-Serif" font-size="10.00">_t&lt; BasicJsonType &gt;</text>
</a>
</g>
</g>
<!-- Node2&#45;&gt;Node1 -->
<g id="edge1" class="edge">
<title>Node2&#45;&gt;Node1</title>
<path fill="none" stroke="#9a32cd" stroke-dasharray="5,2" d="M123.89,-127.72C150.73,-121.65 182.06,-114.3 210.25,-107 227.42,-102.56 246.01,-97.36 262.85,-92.5"/>
<polygon fill="#9a32cd" stroke="#9a32cd" points="123.45,-124.45 114.46,-130.06 124.98,-131.28 123.45,-124.45"/>
<text text-anchor="middle" x="171.63" y="-127.5" font-family="Helvetica,sans-Serif" font-size="10.00"> callback</text>
</g>
<!-- Node3 -->
<g id="node3" class="node">
<title>Node3</title>
<g id="a_node3"><a xlink:title=" ">
<polygon fill="white" stroke="#666666" points="89.5,-108 25.5,-108 25.5,-88 89.5,-88 89.5,-108"/>
<text text-anchor="middle" x="57.5" y="-94.5" font-family="Helvetica,sans-Serif" font-size="10.00">token_type</text>
</a>
</g>
</g>
<!-- Node3&#45;&gt;Node1 -->
<g id="edge2" class="edge">
<title>Node3&#45;&gt;Node1</title>
<path fill="none" stroke="#9a32cd" stroke-dasharray="5,2" d="M100.39,-94.45C134.73,-91.54 184.55,-87.32 227.87,-83.65"/>
<polygon fill="#9a32cd" stroke="#9a32cd" points="100.49,-91.01 90.82,-95.35 101.08,-97.99 100.49,-91.01"/>
<text text-anchor="middle" x="171.63" y="-93.5" font-family="Helvetica,sans-Serif" font-size="10.00"> last_token</text>
</g>
<!-- Node4 -->
<g id="node4" class="node">
<title>Node4</title>
<g id="a_node4"><a xlink:title=" ">
<polygon fill="white" stroke="#666666" points="115,-70 0,-70 0,-38 115,-38 115,-70"/>
<text text-anchor="start" x="8" y="-56.5" font-family="Helvetica,sans-Serif" font-size="10.00">lexer&lt; BasicJsonType,</text>
<text text-anchor="middle" x="57.5" y="-44.5" font-family="Helvetica,sans-Serif" font-size="10.00"> InputAdapterType &gt;</text>
</a>
</g>
</g>
<!-- Node4&#45;&gt;Node1 -->
<g id="edge3" class="edge">
<title>Node4&#45;&gt;Node1</title>
<path fill="none" stroke="#9a32cd" stroke-dasharray="5,2" d="M126.18,-59.74C157.23,-62.37 194.48,-65.52 227.87,-68.35"/>
<polygon fill="#9a32cd" stroke="#9a32cd" points="126.74,-56.18 116.48,-58.83 126.14,-63.16 126.74,-56.18"/>
<text text-anchor="middle" x="171.63" y="-68.5" font-family="Helvetica,sans-Serif" font-size="10.00"> m_lexer</text>
</g>
<!-- Node5 -->
<g id="node5" class="node">
<title>Node5</title>
<g id="a_node5"><a xlink:title=" ">
<polygon fill="white" stroke="#666666" points="74.5,-20 40.5,-20 40.5,0 74.5,0 74.5,-20"/>
<text text-anchor="middle" x="57.5" y="-6.5" font-family="Helvetica,sans-Serif" font-size="10.00">bool</text>
</a>
</g>
</g>
<!-- Node5&#45;&gt;Node1 -->
<g id="edge4" class="edge">
<title>Node5&#45;&gt;Node1</title>
<path fill="none" stroke="#9a32cd" stroke-dasharray="5,2" d="M85.6,-15.49C116.06,-21.8 166.92,-32.73 210.25,-44 228.31,-48.69 247.9,-54.34 265.38,-59.57"/>
<polygon fill="#9a32cd" stroke="#9a32cd" points="86.48,-11.89 75.98,-13.31 85.07,-18.75 86.48,-11.89"/>
<text text-anchor="middle" x="171.63" y="-46.5" font-family="Helvetica,sans-Serif" font-size="10.00"> allow_exceptions</text>
</g>
</g>
</svg>
