<?xml version="1.0" encoding="UTF-8" standalone="no"?>
<!DOCTYPE svg PUBLIC "-//W3C//DTD SVG 1.1//EN"
 "http://www.w3.org/Graphics/SVG/1.1/DTD/svg11.dtd">
<!-- Generated by graphviz version 8.0.5 (20230430.1635)
 -->
<!-- Title: nlohmann::detail::binary_reader::get_string Pages: 1 -->
<svg width="632pt" height="115pt"
 viewBox="0.00 0.00 631.50 115.00" xmlns="http://www.w3.org/2000/svg" xmlns:xlink="http://www.w3.org/1999/xlink">
<g id="graph0" class="graph" transform="scale(1 1) rotate(0) translate(4 111)">
<title>nlohmann::detail::binary_reader::get_string</title>
<!-- Node1 -->
<g id="node1" class="node">
<title>Node1</title>
<g id="a_node1"><a xlink:title="create a string by reading characters from the input">
<polygon fill="#999999" stroke="#666666" points="119.5,-82 0,-82 0,-50 119.5,-50 119.5,-82"/>
<text text-anchor="start" x="8" y="-68.5" font-family="Helvetica,sans-Serif" font-size="10.00">nlohmann::detail::binary</text>
<text text-anchor="middle" x="59.75" y="-56.5" font-family="Helvetica,sans-Serif" font-size="10.00">_reader::get_string</text>
</a>
</g>
</g>
<!-- Node2 -->
<g id="node2" class="node">
<title>Node2</title>
<g id="a_node2"><a xlink:href="a01929.html#ad222095c0b21a87824cb10629299629a" target="_top" xlink:title="get next character from the input">
<polygon fill="white" stroke="#666666" points="275,-107 155.5,-107 155.5,-75 275,-75 275,-107"/>
<text text-anchor="start" x="163.5" y="-93.5" font-family="Helvetica,sans-Serif" font-size="10.00">nlohmann::detail::binary</text>
<text text-anchor="middle" x="215.25" y="-81.5" font-family="Helvetica,sans-Serif" font-size="10.00">_reader::get</text>
</a>
</g>
</g>
<!-- Node1&#45;&gt;Node2 -->
<g id="edge1" class="edge">
<title>Node1&#45;&gt;Node2</title>
<path fill="none" stroke="#63b8ff" d="M119.66,-75.59C127.77,-76.92 136.16,-78.28 144.45,-79.63"/>
<polygon fill="#63b8ff" stroke="#63b8ff" points="143.81,-83.24 154.25,-81.39 144.94,-76.33 143.81,-83.24"/>
</g>
<!-- Node3 -->
<g id="node3" class="node">
<title>Node3</title>
<g id="a_node3"><a xlink:href="a01929.html#a61a0bd8bbe7b560bd429fa990ba3ba1a" target="_top" xlink:title=" ">
<polygon fill="white" stroke="#666666" points="275,-57 155.5,-57 155.5,-25 275,-25 275,-57"/>
<text text-anchor="start" x="163.5" y="-43.5" font-family="Helvetica,sans-Serif" font-size="10.00">nlohmann::detail::binary</text>
<text text-anchor="middle" x="215.25" y="-31.5" font-family="Helvetica,sans-Serif" font-size="10.00">_reader::unexpect_eof</text>
</a>
</g>
</g>
<!-- Node1&#45;&gt;Node3 -->
<g id="edge2" class="edge">
<title>Node1&#45;&gt;Node3</title>
<path fill="none" stroke="#63b8ff" d="M119.66,-56.41C127.77,-55.08 136.16,-53.72 144.45,-52.37"/>
<polygon fill="#63b8ff" stroke="#63b8ff" points="144.94,-55.67 154.25,-50.61 143.81,-48.76 144.94,-55.67"/>
</g>
<!-- Node4 -->
<g id="node4" class="node">
<title>Node4</title>
<g id="a_node4"><a xlink:href="a01497.html#a137ea4d27de45d8a844fd13451d40f3d" target="_top" xlink:title="create a parse error exception">
<polygon fill="white" stroke="#666666" points="440.25,-82 323,-82 323,-50 440.25,-50 440.25,-82"/>
<text text-anchor="start" x="331" y="-68.5" font-family="Helvetica,sans-Serif" font-size="10.00">nlohmann::detail::parse</text>
<text text-anchor="middle" x="381.63" y="-56.5" font-family="Helvetica,sans-Serif" font-size="10.00">_error::create</text>
</a>
</g>
</g>
<!-- Node3&#45;&gt;Node4 -->
<g id="edge3" class="edge">
<title>Node3&#45;&gt;Node4</title>
<path fill="none" stroke="#63b8ff" d="M275.13,-49.95C287.1,-51.78 299.79,-53.71 312.06,-55.57"/>
<polygon fill="#63b8ff" stroke="#63b8ff" points="311.3,-59.15 321.71,-57.19 312.35,-52.23 311.3,-59.15"/>
</g>
<!-- Node7 -->
<g id="node7" class="node">
<title>Node7</title>
<g id="a_node7"><a xlink:href="a01929.html#a9c413c9a1bade1ce345740f4d69156f0" target="_top" xlink:title=" ">
<polygon fill="white" stroke="#666666" points="452.25,-32 311,-32 311,0 452.25,0 452.25,-32"/>
<text text-anchor="start" x="319" y="-18.5" font-family="Helvetica,sans-Serif" font-size="10.00">nlohmann::detail::binary</text>
<text text-anchor="middle" x="381.63" y="-6.5" font-family="Helvetica,sans-Serif" font-size="10.00">_reader::exception_message</text>
</a>
</g>
</g>
<!-- Node3&#45;&gt;Node7 -->
<g id="edge6" class="edge">
<title>Node3&#45;&gt;Node7</title>
<path fill="none" stroke="#63b8ff" d="M275.13,-32.05C283.23,-30.81 291.65,-29.53 300.05,-28.25"/>
<polygon fill="#63b8ff" stroke="#63b8ff" points="300.3,-31.61 309.66,-26.64 299.25,-24.68 300.3,-31.61"/>
</g>
<!-- Node5 -->
<g id="node5" class="node">
<title>Node5</title>
<g id="a_node5"><a xlink:href="a01493.html#abf41a7e9178356314082284e6cfea278" target="_top" xlink:title=" ">
<polygon fill="white" stroke="#666666" points="623.5,-107 488.25,-107 488.25,-75 623.5,-75 623.5,-107"/>
<text text-anchor="start" x="496.25" y="-93.5" font-family="Helvetica,sans-Serif" font-size="10.00">nlohmann::detail::exception</text>
<text text-anchor="middle" x="555.88" y="-81.5" font-family="Helvetica,sans-Serif" font-size="10.00">::name</text>
</a>
</g>
</g>
<!-- Node4&#45;&gt;Node5 -->
<g id="edge4" class="edge">
<title>Node4&#45;&gt;Node5</title>
<path fill="none" stroke="#63b8ff" d="M440.46,-74.39C452.25,-76.11 464.84,-77.93 477.2,-79.73"/>
<polygon fill="#63b8ff" stroke="#63b8ff" points="476.57,-83.32 486.97,-81.29 477.57,-76.39 476.57,-83.32"/>
</g>
<!-- Node6 -->
<g id="node6" class="node">
<title>Node6</title>
<g id="a_node6"><a xlink:href="a01497.html#aefe74adeaa48781464ba2fd2ec63d221" target="_top" xlink:title=" ">
<polygon fill="white" stroke="#666666" points="614.5,-57 497.25,-57 497.25,-25 614.5,-25 614.5,-57"/>
<text text-anchor="start" x="505.25" y="-43.5" font-family="Helvetica,sans-Serif" font-size="10.00">nlohmann::detail::parse</text>
<text text-anchor="middle" x="555.88" y="-31.5" font-family="Helvetica,sans-Serif" font-size="10.00">_error::position_string</text>
</a>
</g>
</g>
<!-- Node4&#45;&gt;Node6 -->
<g id="edge5" class="edge">
<title>Node4&#45;&gt;Node6</title>
<path fill="none" stroke="#63b8ff" d="M440.46,-57.61C455.09,-55.48 470.94,-53.18 486.05,-50.99"/>
<polygon fill="#63b8ff" stroke="#63b8ff" points="486.5,-54.31 495.9,-49.41 485.5,-47.39 486.5,-54.31"/>
</g>
</g>
</svg>
