<?xml version="1.0" encoding="UTF-8" standalone="no"?>
<!DOCTYPE svg PUBLIC "-//W3C//DTD SVG 1.1//EN"
 "http://www.w3.org/Graphics/SVG/1.1/DTD/svg11.dtd">
<!-- Generated by graphviz version 2.43.0 (0)
 -->
<!-- Title: nlohmann::detail::output_vector_adapter&lt; CharType &gt; Pages: 1 -->
<svg width="334pt" height="184pt"
 viewBox="0.00 0.00 334.00 184.00" xmlns="http://www.w3.org/2000/svg" xmlns:xlink="http://www.w3.org/1999/xlink">
<g id="graph0" class="graph" transform="scale(1 1) rotate(0) translate(4 180)">
<title>nlohmann::detail::output_vector_adapter&lt; CharType &gt;</title>
<polygon fill="white" stroke="transparent" points="-4,4 -4,-180 330,-180 330,4 -4,4"/>
<!-- Node1 -->
<g id="node1" class="node">
<title>Node1</title>
<g id="a_node1"><a xlink:title="output adapter for byte vectors">
<polygon fill="#bfbfbf" stroke="black" points="55.5,-0.5 55.5,-30.5 218.5,-30.5 218.5,-0.5 55.5,-0.5"/>
<text text-anchor="start" x="63.5" y="-18.5" font-family="Helvetica,sans-Serif" font-size="10.00">nlohmann::detail::output</text>
<text text-anchor="middle" x="137" y="-7.5" font-family="Helvetica,sans-Serif" font-size="10.00">_vector_adapter&lt; CharType &gt;</text>
</a>
</g>
</g>
<!-- Node2 -->
<g id="node2" class="node">
<title>Node2</title>
<g id="a_node2"><a xlink:href="a01965.html" target="_top" xlink:title="abstract output adapter interface">
<polygon fill="white" stroke="black" points="0,-78.5 0,-108.5 172,-108.5 172,-78.5 0,-78.5"/>
<text text-anchor="start" x="8" y="-96.5" font-family="Helvetica,sans-Serif" font-size="10.00">nlohmann::detail::output</text>
<text text-anchor="middle" x="86" y="-85.5" font-family="Helvetica,sans-Serif" font-size="10.00">_adapter_protocol&lt; CharType &gt;</text>
</a>
</g>
</g>
<!-- Node2&#45;&gt;Node1 -->
<g id="edge1" class="edge">
<title>Node2&#45;&gt;Node1</title>
<path fill="none" stroke="midnightblue" d="M101.38,-69.57C109.86,-56.94 120.12,-41.65 127.45,-30.73"/>
<polygon fill="midnightblue" stroke="midnightblue" points="98.26,-67.95 95.59,-78.2 104.07,-71.85 98.26,-67.95"/>
</g>
<!-- Node3 -->
<g id="node3" class="node">
<title>Node3</title>
<g id="a_node3"><a xlink:title=" ">
<polygon fill="white" stroke="#bfbfbf" points="190,-84 190,-103 326,-103 326,-84 190,-84"/>
<text text-anchor="middle" x="258" y="-91" font-family="Helvetica,sans-Serif" font-size="10.00">std::vector&lt; CharType &gt;</text>
</a>
</g>
</g>
<!-- Node3&#45;&gt;Node1 -->
<g id="edge2" class="edge">
<title>Node3&#45;&gt;Node1</title>
<path fill="none" stroke="#9a32cd" stroke-dasharray="5,2" d="M235.54,-78.39C213.8,-64.74 181.02,-44.15 159.32,-30.52"/>
<polygon fill="#9a32cd" stroke="#9a32cd" points="233.79,-81.43 244.12,-83.78 237.51,-75.5 233.79,-81.43"/>
<text text-anchor="middle" x="209" y="-52" font-family="Helvetica,sans-Serif" font-size="10.00"> v</text>
</g>
<!-- Node4 -->
<g id="node4" class="node">
<title>Node4</title>
<g id="a_node4"><a xlink:title=" ">
<polygon fill="white" stroke="#bfbfbf" points="227,-156.5 227,-175.5 289,-175.5 289,-156.5 227,-156.5"/>
<text text-anchor="middle" x="258" y="-163.5" font-family="Helvetica,sans-Serif" font-size="10.00">CharType</text>
</a>
</g>
</g>
<!-- Node4&#45;&gt;Node3 -->
<g id="edge3" class="edge">
<title>Node4&#45;&gt;Node3</title>
<path fill="none" stroke="#9a32cd" stroke-dasharray="5,2" d="M258,-145.94C258,-132.03 258,-113.82 258,-103.22"/>
<polygon fill="#9a32cd" stroke="#9a32cd" points="254.5,-146.36 258,-156.36 261.5,-146.36 254.5,-146.36"/>
<text text-anchor="middle" x="282.5" y="-130" font-family="Helvetica,sans-Serif" font-size="10.00"> elements</text>
</g>
</g>
</svg>
