<?xml version="1.0" encoding="UTF-8" standalone="no"?>
<!DOCTYPE svg PUBLIC "-//W3C//DTD SVG 1.1//EN"
 "http://www.w3.org/Graphics/SVG/1.1/DTD/svg11.dtd">
<!-- Generated by graphviz version 7.0.2 (20221119.0110)
 -->
<!-- Title: nlohmann::detail::serializer::dump_float Pages: 1 -->
<svg width="457pt" height="56pt"
 viewBox="0.00 0.00 457.00 56.00" xmlns="http://www.w3.org/2000/svg" xmlns:xlink="http://www.w3.org/1999/xlink">
<g id="graph0" class="graph" transform="scale(1 1) rotate(0) translate(4 52)">
<title>nlohmann::detail::serializer::dump_float</title>
<!-- Node1 -->
<g id="node1" class="node">
<title>Node1</title>
<g id="a_node1"><a xlink:title="dump a floating&#45;point number">
<polygon fill="#999999" stroke="#666666" points="449,-30 316,-30 316,0 449,0 449,-30"/>
<text text-anchor="start" x="324" y="-18" font-family="Helvetica,sans-Serif" font-size="10.00">nlohmann::detail::serializer</text>
<text text-anchor="middle" x="382.5" y="-7" font-family="Helvetica,sans-Serif" font-size="10.00">::dump_float</text>
</a>
</g>
</g>
<!-- Node1&#45;&gt;Node1 -->
<g id="edge4" class="edge">
<title>Node1&#45;&gt;Node1</title>
<path fill="none" stroke="#63b8ff" d="M411.02,-41.61C406.45,-45.43 396.94,-48 382.5,-48 356.09,-48 346.19,-39.41 352.79,-30.28"/>
<polygon fill="#63b8ff" stroke="#63b8ff" points="414.48,-42.09 412.05,-31.78 407.52,-41.36 414.48,-42.09"/>
</g>
<!-- Node2 -->
<g id="node2" class="node">
<title>Node2</title>
<g id="a_node2"><a xlink:href="a01989.html#a95460ebd1a535a543e5a0ec52e00f48b" target="_top" xlink:title="internal implementation of the serialization function">
<polygon fill="white" stroke="#666666" points="280,-30 147,-30 147,0 280,0 280,-30"/>
<text text-anchor="start" x="155" y="-18" font-family="Helvetica,sans-Serif" font-size="10.00">nlohmann::detail::serializer</text>
<text text-anchor="middle" x="213.5" y="-7" font-family="Helvetica,sans-Serif" font-size="10.00">::dump</text>
</a>
</g>
</g>
<!-- Node1&#45;&gt;Node2 -->
<g id="edge1" class="edge">
<title>Node1&#45;&gt;Node2</title>
<path fill="none" stroke="#63b8ff" d="M304.62,-15C296.52,-15 288.34,-15 280.38,-15"/>
<polygon fill="#63b8ff" stroke="#63b8ff" points="304.46,-18.5 314.46,-15 304.46,-11.5 304.46,-18.5"/>
</g>
<!-- Node2&#45;&gt;Node2 -->
<g id="edge2" class="edge">
<title>Node2&#45;&gt;Node2</title>
<path fill="none" stroke="#63b8ff" d="M240.16,-41.61C235.89,-45.43 227,-48 213.5,-48 188.81,-48 179.55,-39.41 185.73,-30.28"/>
<polygon fill="#63b8ff" stroke="#63b8ff" points="243.63,-42.08 241.13,-31.78 236.66,-41.39 243.63,-42.08"/>
</g>
<!-- Node3 -->
<g id="node3" class="node">
<title>Node3</title>
<g id="a_node3"><a xlink:href="a01593.html#a476756fb08e7f2416aad116d137977f4" target="_top" xlink:title="serialization">
<polygon fill="white" stroke="#666666" points="111,-30 0,-30 0,0 111,0 111,-30"/>
<text text-anchor="start" x="8" y="-18" font-family="Helvetica,sans-Serif" font-size="10.00">nlohmann::basic_json</text>
<text text-anchor="middle" x="55.5" y="-7" font-family="Helvetica,sans-Serif" font-size="10.00">::dump</text>
</a>
</g>
</g>
<!-- Node2&#45;&gt;Node3 -->
<g id="edge3" class="edge">
<title>Node2&#45;&gt;Node3</title>
<path fill="none" stroke="#63b8ff" d="M135.35,-15C127.22,-15 119.08,-15 111.29,-15"/>
<polygon fill="#63b8ff" stroke="#63b8ff" points="135.28,-18.5 145.28,-15 135.28,-11.5 135.28,-18.5"/>
</g>
</g>
</svg>
