<?xml version="1.0" encoding="UTF-8" standalone="no"?>
<!DOCTYPE svg PUBLIC "-//W3C//DTD SVG 1.1//EN"
 "http://www.w3.org/Graphics/SVG/1.1/DTD/svg11.dtd">
<!-- Generated by graphviz version 8.0.5 (20230430.1635)
 -->
<!-- Title: nlohmann::detail::lexer::get Pages: 1 -->
<svg width="593pt" height="348pt"
 viewBox="0.00 0.00 592.50 348.00" xmlns="http://www.w3.org/2000/svg" xmlns:xlink="http://www.w3.org/1999/xlink">
<g id="graph0" class="graph" transform="scale(1 1) rotate(0) translate(4 344)">
<title>nlohmann::detail::lexer::get</title>
<!-- Node1 -->
<g id="node1" class="node">
<title>Node1</title>
<g id="a_node1"><a xlink:title=" ">
<polygon fill="#999999" stroke="#666666" points="584.5,-180 450.75,-180 450.75,-160 584.5,-160 584.5,-180"/>
<text text-anchor="middle" x="517.63" y="-166.5" font-family="Helvetica,sans-Serif" font-size="10.00">nlohmann::detail::lexer::get</text>
</a>
</g>
</g>
<!-- Node2 -->
<g id="node2" class="node">
<title>Node2</title>
<g id="a_node2"><a xlink:href="a01983.html#adcf663a9878f58544790f1b6faad2e42" target="_top" xlink:title="get codepoint from 4 hex characters following \u">
<polygon fill="white" stroke="#666666" points="414.75,-340 300.5,-340 300.5,-308 414.75,-308 414.75,-340"/>
<text text-anchor="start" x="308.5" y="-326.5" font-family="Helvetica,sans-Serif" font-size="10.00">nlohmann::detail::lexer</text>
<text text-anchor="middle" x="357.63" y="-314.5" font-family="Helvetica,sans-Serif" font-size="10.00">::get_codepoint</text>
</a>
</g>
</g>
<!-- Node1&#45;&gt;Node2 -->
<g id="edge1" class="edge">
<title>Node1&#45;&gt;Node2</title>
<path fill="none" stroke="#63b8ff" d="M504.24,-189.44C486.77,-215.71 452.76,-262.82 414.75,-294 408.6,-299.04 401.47,-303.63 394.4,-307.6"/>
<polygon fill="#63b8ff" stroke="#63b8ff" points="507.56,-191.76 510.1,-181.48 501.7,-187.93 507.56,-191.76"/>
</g>
<!-- Node3 -->
<g id="node3" class="node">
<title>Node3</title>
<g id="a_node3"><a xlink:href="a01983.html#ab6352978e03ebcbc3cd618cd17142f26" target="_top" xlink:title="scan a string literal">
<polygon fill="white" stroke="#666666" points="264.5,-277 150.25,-277 150.25,-245 264.5,-245 264.5,-277"/>
<text text-anchor="start" x="158.25" y="-263.5" font-family="Helvetica,sans-Serif" font-size="10.00">nlohmann::detail::lexer</text>
<text text-anchor="middle" x="207.38" y="-251.5" font-family="Helvetica,sans-Serif" font-size="10.00">::scan_string</text>
</a>
</g>
</g>
<!-- Node1&#45;&gt;Node3 -->
<g id="edge12" class="edge">
<title>Node1&#45;&gt;Node3</title>
<path fill="none" stroke="#63b8ff" d="M502.8,-188.8C485.22,-210.95 452.56,-246.57 414.75,-261 366.55,-279.39 307.27,-277.09 264.64,-271.56"/>
<polygon fill="#63b8ff" stroke="#63b8ff" points="506.07,-191.29 509.39,-181.23 500.52,-187.03 506.07,-191.29"/>
</g>
<!-- Node5 -->
<g id="node5" class="node">
<title>Node5</title>
<g id="a_node5"><a xlink:href="a01983.html#af6fe701b8b3ca5f4a1b58db4658bdf87" target="_top" xlink:title="check if the next byte(s) are inside a given range">
<polygon fill="white" stroke="#666666" points="414.75,-252 300.5,-252 300.5,-220 414.75,-220 414.75,-252"/>
<text text-anchor="start" x="308.5" y="-238.5" font-family="Helvetica,sans-Serif" font-size="10.00">nlohmann::detail::lexer</text>
<text text-anchor="middle" x="357.63" y="-226.5" font-family="Helvetica,sans-Serif" font-size="10.00">::next_byte_in_range</text>
</a>
</g>
</g>
<!-- Node1&#45;&gt;Node5 -->
<g id="edge4" class="edge">
<title>Node1&#45;&gt;Node5</title>
<path fill="none" stroke="#63b8ff" d="M481.55,-184.65C456.81,-194.98 423.66,-208.83 398.01,-219.55"/>
<polygon fill="#63b8ff" stroke="#63b8ff" points="482.71,-187.54 490.59,-180.46 480.01,-181.08 482.71,-187.54"/>
</g>
<!-- Node6 -->
<g id="node6" class="node">
<title>Node6</title>
<g id="a_node6"><a xlink:href="a01983.html#afdc68706ad20be93977cd0f97043ea7f" target="_top" xlink:title="scan a comment">
<polygon fill="white" stroke="#666666" points="264.5,-208 150.25,-208 150.25,-176 264.5,-176 264.5,-208"/>
<text text-anchor="start" x="158.25" y="-194.5" font-family="Helvetica,sans-Serif" font-size="10.00">nlohmann::detail::lexer</text>
<text text-anchor="middle" x="207.38" y="-182.5" font-family="Helvetica,sans-Serif" font-size="10.00">::scan_comment</text>
</a>
</g>
</g>
<!-- Node1&#45;&gt;Node6 -->
<g id="edge6" class="edge">
<title>Node1&#45;&gt;Node6</title>
<path fill="none" stroke="#63b8ff" d="M439.54,-175.5C385.27,-179.38 313.84,-184.47 264.83,-187.97"/>
<polygon fill="#63b8ff" stroke="#63b8ff" points="439.77,-178.92 449.5,-174.72 439.27,-171.94 439.77,-178.92"/>
</g>
<!-- Node7 -->
<g id="node7" class="node">
<title>Node7</title>
<g id="a_node7"><a xlink:href="a01983.html#ad89dec0ac0f4e851925a0499e043b18b" target="_top" xlink:title=" ">
<polygon fill="white" stroke="#666666" points="414.75,-164 300.5,-164 300.5,-132 414.75,-132 414.75,-164"/>
<text text-anchor="start" x="308.5" y="-150.5" font-family="Helvetica,sans-Serif" font-size="10.00">nlohmann::detail::lexer</text>
<text text-anchor="middle" x="357.63" y="-138.5" font-family="Helvetica,sans-Serif" font-size="10.00">::scan_literal</text>
</a>
</g>
</g>
<!-- Node1&#45;&gt;Node7 -->
<g id="edge8" class="edge">
<title>Node1&#45;&gt;Node7</title>
<path fill="none" stroke="#63b8ff" d="M439.91,-159.32C431.49,-158.15 423.04,-156.97 414.93,-155.84"/>
<polygon fill="#63b8ff" stroke="#63b8ff" points="439.15,-162.88 449.53,-160.8 440.11,-155.95 439.15,-162.88"/>
</g>
<!-- Node8 -->
<g id="node8" class="node">
<title>Node8</title>
<g id="a_node8"><a xlink:href="a01983.html#aab51a28e32c1957329141baff8eda1c4" target="_top" xlink:title="scan a number literal">
<polygon fill="white" stroke="#666666" points="414.75,-114 300.5,-114 300.5,-82 414.75,-82 414.75,-114"/>
<text text-anchor="start" x="308.5" y="-100.5" font-family="Helvetica,sans-Serif" font-size="10.00">nlohmann::detail::lexer</text>
<text text-anchor="middle" x="357.63" y="-88.5" font-family="Helvetica,sans-Serif" font-size="10.00">::scan_number</text>
</a>
</g>
</g>
<!-- Node1&#45;&gt;Node8 -->
<g id="edge10" class="edge">
<title>Node1&#45;&gt;Node8</title>
<path fill="none" stroke="#63b8ff" d="M484.55,-155.07C464.52,-145.78 438.17,-133.62 414.75,-123 408.63,-120.23 402.12,-117.3 395.79,-114.47"/>
<polygon fill="#63b8ff" stroke="#63b8ff" points="482.86,-158.61 493.41,-159.65 485.81,-152.26 482.86,-158.61"/>
</g>
<!-- Node9 -->
<g id="node9" class="node">
<title>Node9</title>
<g id="a_node9"><a xlink:href="a01983.html#a7cd7d55de2cd398660bc243c7229caf9" target="_top" xlink:title="skip the UTF&#45;8 byte order mark">
<polygon fill="white" stroke="#666666" points="264.5,-82 150.25,-82 150.25,-50 264.5,-50 264.5,-82"/>
<text text-anchor="start" x="158.25" y="-68.5" font-family="Helvetica,sans-Serif" font-size="10.00">nlohmann::detail::lexer</text>
<text text-anchor="middle" x="207.38" y="-56.5" font-family="Helvetica,sans-Serif" font-size="10.00">::skip_bom</text>
</a>
</g>
</g>
<!-- Node1&#45;&gt;Node9 -->
<g id="edge13" class="edge">
<title>Node1&#45;&gt;Node9</title>
<path fill="none" stroke="#63b8ff" d="M503.51,-150.88C486.26,-127.57 453.54,-89.28 414.75,-73 367.15,-53.02 307.8,-53.3 264.98,-57.37"/>
<polygon fill="#63b8ff" stroke="#63b8ff" points="501.06,-152.48 509.73,-158.57 506.75,-148.4 501.06,-152.48"/>
</g>
<!-- Node10 -->
<g id="node10" class="node">
<title>Node10</title>
<g id="a_node10"><a xlink:href="a01983.html#a449f3f3703dfbf8b757e12f002668604" target="_top" xlink:title=" ">
<polygon fill="white" stroke="#666666" points="264.5,-32 150.25,-32 150.25,0 264.5,0 264.5,-32"/>
<text text-anchor="start" x="158.25" y="-18.5" font-family="Helvetica,sans-Serif" font-size="10.00">nlohmann::detail::lexer</text>
<text text-anchor="middle" x="207.38" y="-6.5" font-family="Helvetica,sans-Serif" font-size="10.00">::skip_whitespace</text>
</a>
</g>
</g>
<!-- Node1&#45;&gt;Node10 -->
<g id="edge15" class="edge">
<title>Node1&#45;&gt;Node10</title>
<path fill="none" stroke="#63b8ff" d="M505.81,-150.34C489.75,-123.2 456.93,-74.89 414.75,-51 368.74,-24.94 308.37,-17.2 264.82,-15.37"/>
<polygon fill="#63b8ff" stroke="#63b8ff" points="503.11,-151.68 511.12,-158.61 509.19,-148.2 503.11,-151.68"/>
</g>
<!-- Node2&#45;&gt;Node3 -->
<g id="edge2" class="edge">
<title>Node2&#45;&gt;Node3</title>
<path fill="none" stroke="#63b8ff" d="M308,-303.33C288.2,-294.92 265.64,-285.34 247,-277.42"/>
<polygon fill="#63b8ff" stroke="#63b8ff" points="306.49,-306.92 317.06,-307.61 309.23,-300.48 306.49,-306.92"/>
</g>
<!-- Node4 -->
<g id="node4" class="node">
<title>Node4</title>
<g id="a_node4"><a xlink:href="a01983.html#a40320a8fef5f1f03b60c8b2f2f40af4d" target="_top" xlink:title=" ">
<polygon fill="white" stroke="#666666" points="114.25,-145 0,-145 0,-113 114.25,-113 114.25,-145"/>
<text text-anchor="start" x="8" y="-131.5" font-family="Helvetica,sans-Serif" font-size="10.00">nlohmann::detail::lexer</text>
<text text-anchor="middle" x="57.13" y="-119.5" font-family="Helvetica,sans-Serif" font-size="10.00">::scan</text>
</a>
</g>
</g>
<!-- Node3&#45;&gt;Node4 -->
<g id="edge3" class="edge">
<title>Node3&#45;&gt;Node4</title>
<path fill="none" stroke="#63b8ff" d="M175.89,-237.97C167.45,-231.36 158.38,-224.04 150.25,-217 122.66,-193.11 92.37,-163.46 74.31,-145.4"/>
<polygon fill="#63b8ff" stroke="#63b8ff" points="173.34,-241.2 183.39,-244.56 177.63,-235.67 173.34,-241.2"/>
</g>
<!-- Node5&#45;&gt;Node3 -->
<g id="edge5" class="edge">
<title>Node5&#45;&gt;Node3</title>
<path fill="none" stroke="#63b8ff" d="M289.4,-247.34C281.14,-248.73 272.76,-250.14 264.69,-251.5"/>
<polygon fill="#63b8ff" stroke="#63b8ff" points="289.88,-250.64 299.16,-245.52 288.71,-243.73 289.88,-250.64"/>
</g>
<!-- Node6&#45;&gt;Node4 -->
<g id="edge7" class="edge">
<title>Node6&#45;&gt;Node4</title>
<path fill="none" stroke="#63b8ff" d="M157.75,-171.33C137.95,-162.92 115.39,-153.34 96.75,-145.42"/>
<polygon fill="#63b8ff" stroke="#63b8ff" points="156.24,-174.92 166.81,-175.61 158.98,-168.48 156.24,-174.92"/>
</g>
<!-- Node7&#45;&gt;Node4 -->
<g id="edge9" class="edge">
<title>Node7&#45;&gt;Node4</title>
<path fill="none" stroke="#63b8ff" d="M289.21,-143.71C236.57,-140.36 164.28,-135.76 114.64,-132.6"/>
<polygon fill="#63b8ff" stroke="#63b8ff" points="288.93,-147.26 299.13,-144.4 289.37,-140.28 288.93,-147.26"/>
</g>
<!-- Node8&#45;&gt;Node4 -->
<g id="edge11" class="edge">
<title>Node8&#45;&gt;Node4</title>
<path fill="none" stroke="#63b8ff" d="M289.21,-105C236.57,-110.47 164.28,-117.98 114.64,-123.13"/>
<polygon fill="#63b8ff" stroke="#63b8ff" points="289.54,-108.38 299.13,-103.87 288.82,-101.42 289.54,-108.38"/>
</g>
<!-- Node9&#45;&gt;Node4 -->
<g id="edge14" class="edge">
<title>Node9&#45;&gt;Node4</title>
<path fill="none" stroke="#63b8ff" d="M157.75,-86.67C137.95,-95.08 115.39,-104.66 96.75,-112.58"/>
<polygon fill="#63b8ff" stroke="#63b8ff" points="158.98,-89.52 166.81,-82.39 156.24,-83.08 158.98,-89.52"/>
</g>
<!-- Node10&#45;&gt;Node4 -->
<g id="edge16" class="edge">
<title>Node10&#45;&gt;Node4</title>
<path fill="none" stroke="#63b8ff" d="M155.6,-37.62C153.77,-38.71 151.98,-39.84 150.25,-41 119.21,-61.82 89,-93.5 72.06,-112.63"/>
<polygon fill="#63b8ff" stroke="#63b8ff" points="156.95,-40.32 164.03,-32.44 153.58,-34.19 156.95,-40.32"/>
</g>
</g>
</svg>
