<?xml version="1.0" encoding="UTF-8" standalone="no"?>
<!DOCTYPE svg PUBLIC "-//W3C//DTD SVG 1.1//EN"
 "http://www.w3.org/Graphics/SVG/1.1/DTD/svg11.dtd">
<!-- Generated by graphviz version 5.0.0 (20220707.1540)
 -->
<!-- Title: nlohmann::detail::binary_reader::get_binary Pages: 1 -->
<svg width="1317pt" height="378pt"
 viewBox="0.00 0.00 1317.00 378.00" xmlns="http://www.w3.org/2000/svg" xmlns:xlink="http://www.w3.org/1999/xlink">
<g id="graph0" class="graph" transform="scale(1 1) rotate(0) translate(4 374)">
<title>nlohmann::detail::binary_reader::get_binary</title>
<polygon fill="white" stroke="transparent" points="-4,4 -4,-374 1313,-374 1313,4 -4,4"/>
<!-- Node1 -->
<g id="node1" class="node">
<title>Node1</title>
<g id="a_node1"><a xlink:title="create a byte array by reading bytes from the input">
<polygon fill="#bfbfbf" stroke="black" points="1189,-186.5 1189,-216.5 1309,-216.5 1309,-186.5 1189,-186.5"/>
<text text-anchor="start" x="1197" y="-204.5" font-family="Helvetica,sans-Serif" font-size="10.00">nlohmann::detail::binary</text>
<text text-anchor="middle" x="1249" y="-193.5" font-family="Helvetica,sans-Serif" font-size="10.00">_reader::get_binary</text>
</a>
</g>
</g>
<!-- Node2 -->
<g id="node2" class="node">
<title>Node2</title>
<g id="a_node2"><a xlink:href="a01929.html#a9940f56290b9278c58772eda2931e599" target="_top" xlink:title="Parses a byte array input of length len from the BSON input.">
<polygon fill="white" stroke="black" points="1017.5,-260.5 1017.5,-290.5 1143.5,-290.5 1143.5,-260.5 1017.5,-260.5"/>
<text text-anchor="start" x="1025.5" y="-278.5" font-family="Helvetica,sans-Serif" font-size="10.00">nlohmann::detail::binary</text>
<text text-anchor="middle" x="1080.5" y="-267.5" font-family="Helvetica,sans-Serif" font-size="10.00">_reader::get_bson_binary</text>
</a>
</g>
</g>
<!-- Node1&#45;&gt;Node2 -->
<g id="edge1" class="edge">
<title>Node1&#45;&gt;Node2</title>
<path fill="none" stroke="midnightblue" d="M1205.74,-220.8C1189.3,-228.27 1170.3,-236.84 1153,-244.5 1141.12,-249.76 1128.1,-255.44 1116.46,-260.47"/>
<polygon fill="midnightblue" stroke="midnightblue" points="1207.43,-223.88 1215.08,-216.55 1204.53,-217.51 1207.43,-223.88"/>
</g>
<!-- Node17 -->
<g id="node17" class="node">
<title>Node17</title>
<g id="a_node17"><a xlink:href="a01929.html#acb001d18095dc5bcf7336ae5122b8340" target="_top" xlink:title="reads a CBOR byte array">
<polygon fill="white" stroke="black" points="1018.5,-186.5 1018.5,-216.5 1142.5,-216.5 1142.5,-186.5 1018.5,-186.5"/>
<text text-anchor="start" x="1026.5" y="-204.5" font-family="Helvetica,sans-Serif" font-size="10.00">nlohmann::detail::binary</text>
<text text-anchor="middle" x="1080.5" y="-193.5" font-family="Helvetica,sans-Serif" font-size="10.00">_reader::get_cbor_binary</text>
</a>
</g>
</g>
<!-- Node1&#45;&gt;Node17 -->
<g id="edge18" class="edge">
<title>Node1&#45;&gt;Node17</title>
<path fill="none" stroke="midnightblue" d="M1178.52,-201.5C1166.64,-201.5 1154.37,-201.5 1142.73,-201.5"/>
<polygon fill="midnightblue" stroke="midnightblue" points="1178.83,-205 1188.83,-201.5 1178.83,-198 1178.83,-205"/>
</g>
<!-- Node21 -->
<g id="node21" class="node">
<title>Node21</title>
<g id="a_node21"><a xlink:href="a01929.html#a389e550fd397a48121cb82d92bb7475a" target="_top" xlink:title="reads a MessagePack byte array">
<polygon fill="white" stroke="black" points="1008,-93.5 1008,-123.5 1153,-123.5 1153,-93.5 1008,-93.5"/>
<text text-anchor="start" x="1016" y="-111.5" font-family="Helvetica,sans-Serif" font-size="10.00">nlohmann::detail::binary</text>
<text text-anchor="middle" x="1080.5" y="-100.5" font-family="Helvetica,sans-Serif" font-size="10.00">_reader::get_msgpack_binary</text>
</a>
</g>
</g>
<!-- Node1&#45;&gt;Node21 -->
<g id="edge27" class="edge">
<title>Node1&#45;&gt;Node21</title>
<path fill="none" stroke="midnightblue" d="M1212.09,-181.44C1181.03,-164.09 1136.79,-139.38 1108.61,-123.64"/>
<polygon fill="midnightblue" stroke="midnightblue" points="1210.44,-184.53 1220.88,-186.35 1213.85,-178.42 1210.44,-184.53"/>
</g>
<!-- Node3 -->
<g id="node3" class="node">
<title>Node3</title>
<g id="a_node3"><a xlink:href="a01929.html#a23bde2450d7a5772bf5051e36ff560a4" target="_top" xlink:title="Read a BSON document element of the given element_type.">
<polygon fill="white" stroke="black" points="827,-285 827,-326 972,-326 972,-285 827,-285"/>
<text text-anchor="start" x="835" y="-314" font-family="Helvetica,sans-Serif" font-size="10.00">nlohmann::detail::binary</text>
<text text-anchor="start" x="835" y="-303" font-family="Helvetica,sans-Serif" font-size="10.00">_reader::parse_bson_element</text>
<text text-anchor="middle" x="899.5" y="-292" font-family="Helvetica,sans-Serif" font-size="10.00">_internal</text>
</a>
</g>
</g>
<!-- Node2&#45;&gt;Node3 -->
<g id="edge2" class="edge">
<title>Node2&#45;&gt;Node3</title>
<path fill="none" stroke="midnightblue" d="M1007.3,-287.6C995.67,-289.55 983.63,-291.57 972.01,-293.51"/>
<polygon fill="midnightblue" stroke="midnightblue" points="1008.11,-291.01 1017.4,-285.91 1006.96,-284.11 1008.11,-291.01"/>
</g>
<!-- Node4 -->
<g id="node4" class="node">
<title>Node4</title>
<g id="a_node4"><a xlink:href="a01929.html#a4e07b75ccb2579d0e738b894f0fd8cf8" target="_top" xlink:title="Read a BSON element list (as specified in the BSON&#45;spec)">
<polygon fill="white" stroke="black" points="628,-312.5 628,-342.5 791,-342.5 791,-312.5 628,-312.5"/>
<text text-anchor="start" x="636" y="-330.5" font-family="Helvetica,sans-Serif" font-size="10.00">nlohmann::detail::binary</text>
<text text-anchor="middle" x="709.5" y="-319.5" font-family="Helvetica,sans-Serif" font-size="10.00">_reader::parse_bson_element_list</text>
</a>
</g>
</g>
<!-- Node3&#45;&gt;Node4 -->
<g id="edge3" class="edge">
<title>Node3&#45;&gt;Node4</title>
<path fill="none" stroke="midnightblue" d="M816.9,-315.05C808.31,-316.05 799.59,-317.07 791.02,-318.08"/>
<polygon fill="midnightblue" stroke="midnightblue" points="817.36,-318.52 826.89,-313.88 816.55,-311.57 817.36,-318.52"/>
</g>
<!-- Node5 -->
<g id="node5" class="node">
<title>Node5</title>
<g id="a_node5"><a xlink:href="a01929.html#a23eb89a222e22533e9fd43e76722f44f" target="_top" xlink:title="Reads an array from the BSON input and passes it to the SAX&#45;parser.">
<polygon fill="white" stroke="black" points="455,-339.5 455,-369.5 587,-369.5 587,-339.5 455,-339.5"/>
<text text-anchor="start" x="463" y="-357.5" font-family="Helvetica,sans-Serif" font-size="10.00">nlohmann::detail::binary</text>
<text text-anchor="middle" x="521" y="-346.5" font-family="Helvetica,sans-Serif" font-size="10.00">_reader::parse_bson_array</text>
</a>
</g>
</g>
<!-- Node4&#45;&gt;Node5 -->
<g id="edge4" class="edge">
<title>Node4&#45;&gt;Node5</title>
<path fill="none" stroke="midnightblue" d="M617.87,-340.62C607.49,-342.12 597.07,-343.63 587.12,-345.07"/>
<polygon fill="midnightblue" stroke="midnightblue" points="618.39,-344.08 627.78,-339.19 617.38,-337.15 618.39,-344.08"/>
</g>
<!-- Node6 -->
<g id="node6" class="node">
<title>Node6</title>
<g id="a_node6"><a xlink:href="a01929.html#abf2051ba57d9ea9b378a2e7c14e22b34" target="_top" xlink:title="Reads in a BSON&#45;object and passes it to the SAX&#45;parser.">
<polygon fill="white" stroke="black" points="450,-274.5 450,-304.5 592,-304.5 592,-274.5 450,-274.5"/>
<text text-anchor="start" x="458" y="-292.5" font-family="Helvetica,sans-Serif" font-size="10.00">nlohmann::detail::binary</text>
<text text-anchor="middle" x="521" y="-281.5" font-family="Helvetica,sans-Serif" font-size="10.00">_reader::parse_bson_internal</text>
</a>
</g>
</g>
<!-- Node4&#45;&gt;Node6 -->
<g id="edge6" class="edge">
<title>Node4&#45;&gt;Node6</title>
<path fill="none" stroke="midnightblue" d="M624.83,-310.45C613.9,-308.23 602.8,-305.96 592.13,-303.79"/>
<polygon fill="midnightblue" stroke="midnightblue" points="624.29,-313.91 634.79,-312.48 625.69,-307.06 624.29,-313.91"/>
</g>
<!-- Node5&#45;&gt;Node3 -->
<g id="edge5" class="edge">
<title>Node5&#45;&gt;Node3</title>
<path fill="none" stroke="midnightblue" d="M597.46,-361.98C651.87,-365.43 726.74,-366.18 791,-352.5 815.5,-347.28 841.28,-336.23 861.44,-326.15"/>
<polygon fill="midnightblue" stroke="midnightblue" points="597.41,-358.47 587.2,-361.28 596.94,-365.45 597.41,-358.47"/>
</g>
<!-- Node6&#45;&gt;Node3 -->
<g id="edge7" class="edge">
<title>Node6&#45;&gt;Node3</title>
<path fill="none" stroke="midnightblue" d="M602.19,-292.91C668.79,-295.74 762.67,-299.73 826.8,-302.45"/>
<polygon fill="midnightblue" stroke="midnightblue" points="602.3,-289.41 592.16,-292.48 602,-296.4 602.3,-289.41"/>
</g>
<!-- Node7 -->
<g id="node7" class="node">
<title>Node7</title>
<g id="a_node7"><a xlink:href="a01929.html#ab4afd9ee276bbb15a0f898061aad94dd" target="_top" xlink:title=" ">
<polygon fill="white" stroke="black" points="294,-230.5 294,-260.5 414,-260.5 414,-230.5 294,-230.5"/>
<text text-anchor="start" x="302" y="-248.5" font-family="Helvetica,sans-Serif" font-size="10.00">nlohmann::detail::binary</text>
<text text-anchor="middle" x="354" y="-237.5" font-family="Helvetica,sans-Serif" font-size="10.00">_reader::sax_parse</text>
</a>
</g>
</g>
<!-- Node6&#45;&gt;Node7 -->
<g id="edge8" class="edge">
<title>Node6&#45;&gt;Node7</title>
<path fill="none" stroke="midnightblue" d="M453.61,-271.8C439.6,-268.06 424.95,-264.15 411.35,-260.53"/>
<polygon fill="midnightblue" stroke="midnightblue" points="453.11,-275.29 463.68,-274.48 454.92,-268.52 453.11,-275.29"/>
</g>
<!-- Node8 -->
<g id="node8" class="node">
<title>Node8</title>
<g id="a_node8"><a xlink:href="a01593.html#a4e02793f2691aa29ab7cb69fddafbf5c" target="_top" xlink:title="Create a JSON value from an input in BSON format.">
<polygon fill="white" stroke="black" points="147,-328.5 147,-358.5 258,-358.5 258,-328.5 147,-328.5"/>
<text text-anchor="start" x="155" y="-346.5" font-family="Helvetica,sans-Serif" font-size="10.00">nlohmann::basic_json</text>
<text text-anchor="middle" x="202.5" y="-335.5" font-family="Helvetica,sans-Serif" font-size="10.00">::from_bson</text>
</a>
</g>
</g>
<!-- Node7&#45;&gt;Node8 -->
<g id="edge9" class="edge">
<title>Node7&#45;&gt;Node8</title>
<path fill="none" stroke="midnightblue" d="M328.42,-267.4C309.93,-283.18 283.49,-304.28 258,-319.5 252.67,-322.68 246.85,-325.69 241.06,-328.43"/>
<polygon fill="midnightblue" stroke="midnightblue" points="330.8,-269.97 336.08,-260.79 326.23,-264.67 330.8,-269.97"/>
</g>
<!-- Node10 -->
<g id="node10" class="node">
<title>Node10</title>
<g id="a_node10"><a xlink:href="a01593.html#a44dd5635fb2da4710f6cd6e42b72773f" target="_top" xlink:title="create a JSON value from an input in CBOR format">
<polygon fill="white" stroke="black" points="147,-279.5 147,-309.5 258,-309.5 258,-279.5 147,-279.5"/>
<text text-anchor="start" x="155" y="-297.5" font-family="Helvetica,sans-Serif" font-size="10.00">nlohmann::basic_json</text>
<text text-anchor="middle" x="202.5" y="-286.5" font-family="Helvetica,sans-Serif" font-size="10.00">::from_cbor</text>
</a>
</g>
</g>
<!-- Node7&#45;&gt;Node10 -->
<g id="edge11" class="edge">
<title>Node7&#45;&gt;Node10</title>
<path fill="none" stroke="midnightblue" d="M297.29,-263.76C281.52,-268.93 264.54,-274.49 249.42,-279.45"/>
<polygon fill="midnightblue" stroke="midnightblue" points="298.51,-267.04 306.93,-260.6 296.33,-260.39 298.51,-267.04"/>
</g>
<!-- Node12 -->
<g id="node12" class="node">
<title>Node12</title>
<g id="a_node12"><a xlink:href="a01593.html#adbcab52fca1e25b3311ef14e71a57590" target="_top" xlink:title="create a JSON value from an input in MessagePack format">
<polygon fill="white" stroke="black" points="147,-230.5 147,-260.5 258,-260.5 258,-230.5 147,-230.5"/>
<text text-anchor="start" x="155" y="-248.5" font-family="Helvetica,sans-Serif" font-size="10.00">nlohmann::basic_json</text>
<text text-anchor="middle" x="202.5" y="-237.5" font-family="Helvetica,sans-Serif" font-size="10.00">::from_msgpack</text>
</a>
</g>
</g>
<!-- Node7&#45;&gt;Node12 -->
<g id="edge13" class="edge">
<title>Node7&#45;&gt;Node12</title>
<path fill="none" stroke="midnightblue" d="M283.9,-245.5C275.3,-245.5 266.6,-245.5 258.27,-245.5"/>
<polygon fill="midnightblue" stroke="midnightblue" points="283.91,-249 293.91,-245.5 283.91,-242 283.91,-249"/>
</g>
<!-- Node14 -->
<g id="node14" class="node">
<title>Node14</title>
<g id="a_node14"><a xlink:href="a01593.html#aa81f62db69978b90ff701f05c72e03a7" target="_top" xlink:title="create a JSON value from an input in UBJSON format">
<polygon fill="white" stroke="black" points="147,-181.5 147,-211.5 258,-211.5 258,-181.5 147,-181.5"/>
<text text-anchor="start" x="155" y="-199.5" font-family="Helvetica,sans-Serif" font-size="10.00">nlohmann::basic_json</text>
<text text-anchor="middle" x="202.5" y="-188.5" font-family="Helvetica,sans-Serif" font-size="10.00">::from_ubjson</text>
</a>
</g>
</g>
<!-- Node7&#45;&gt;Node14 -->
<g id="edge15" class="edge">
<title>Node7&#45;&gt;Node14</title>
<path fill="none" stroke="midnightblue" d="M297.29,-227.24C281.52,-222.07 264.54,-216.51 249.42,-211.55"/>
<polygon fill="midnightblue" stroke="midnightblue" points="296.33,-230.61 306.93,-230.4 298.51,-223.96 296.33,-230.61"/>
</g>
<!-- Node16 -->
<g id="node16" class="node">
<title>Node16</title>
<g id="a_node16"><a xlink:href="a01593.html#a12b382c6407da5543827ce4b24bb5008" target="_top" xlink:title="generate SAX events">
<polygon fill="white" stroke="black" points="147,-132.5 147,-162.5 258,-162.5 258,-132.5 147,-132.5"/>
<text text-anchor="start" x="155" y="-150.5" font-family="Helvetica,sans-Serif" font-size="10.00">nlohmann::basic_json</text>
<text text-anchor="middle" x="202.5" y="-139.5" font-family="Helvetica,sans-Serif" font-size="10.00">::sax_parse</text>
</a>
</g>
</g>
<!-- Node7&#45;&gt;Node16 -->
<g id="edge17" class="edge">
<title>Node7&#45;&gt;Node16</title>
<path fill="none" stroke="midnightblue" d="M327.96,-223.75C309.43,-208.29 283.14,-187.66 258,-172.5 252.12,-168.95 245.64,-165.57 239.28,-162.51"/>
<polygon fill="midnightblue" stroke="midnightblue" points="325.75,-226.46 335.65,-230.24 330.27,-221.11 325.75,-226.46"/>
</g>
<!-- Node9 -->
<g id="node9" class="node">
<title>Node9</title>
<g id="a_node9"><a xlink:href="a01593.html#ae2612581e4788ddffc2f45d5e4cc04fc" target="_top" xlink:title=" ">
<polygon fill="white" stroke="black" points="0,-328.5 0,-358.5 111,-358.5 111,-328.5 0,-328.5"/>
<text text-anchor="start" x="8" y="-346.5" font-family="Helvetica,sans-Serif" font-size="10.00">nlohmann::basic_json</text>
<text text-anchor="middle" x="55.5" y="-335.5" font-family="Helvetica,sans-Serif" font-size="10.00">::from_bson</text>
</a>
</g>
</g>
<!-- Node8&#45;&gt;Node9 -->
<g id="edge10" class="edge">
<title>Node8&#45;&gt;Node9</title>
<path fill="none" stroke="midnightblue" d="M136.54,-343.5C128.14,-343.5 119.61,-343.5 111.4,-343.5"/>
<polygon fill="midnightblue" stroke="midnightblue" points="136.68,-347 146.68,-343.5 136.68,-340 136.68,-347"/>
</g>
<!-- Node11 -->
<g id="node11" class="node">
<title>Node11</title>
<g id="a_node11"><a xlink:href="a01593.html#a188755c8cda27e2afb03c016c14125d8" target="_top" xlink:title=" ">
<polygon fill="white" stroke="black" points="0,-279.5 0,-309.5 111,-309.5 111,-279.5 0,-279.5"/>
<text text-anchor="start" x="8" y="-297.5" font-family="Helvetica,sans-Serif" font-size="10.00">nlohmann::basic_json</text>
<text text-anchor="middle" x="55.5" y="-286.5" font-family="Helvetica,sans-Serif" font-size="10.00">::from_cbor</text>
</a>
</g>
</g>
<!-- Node10&#45;&gt;Node11 -->
<g id="edge12" class="edge">
<title>Node10&#45;&gt;Node11</title>
<path fill="none" stroke="midnightblue" d="M136.54,-294.5C128.14,-294.5 119.61,-294.5 111.4,-294.5"/>
<polygon fill="midnightblue" stroke="midnightblue" points="136.68,-298 146.68,-294.5 136.68,-291 136.68,-298"/>
</g>
<!-- Node13 -->
<g id="node13" class="node">
<title>Node13</title>
<g id="a_node13"><a xlink:href="a01593.html#a0d69d3102639759d5202a6f764760d23" target="_top" xlink:title=" ">
<polygon fill="white" stroke="black" points="0,-230.5 0,-260.5 111,-260.5 111,-230.5 0,-230.5"/>
<text text-anchor="start" x="8" y="-248.5" font-family="Helvetica,sans-Serif" font-size="10.00">nlohmann::basic_json</text>
<text text-anchor="middle" x="55.5" y="-237.5" font-family="Helvetica,sans-Serif" font-size="10.00">::from_msgpack</text>
</a>
</g>
</g>
<!-- Node12&#45;&gt;Node13 -->
<g id="edge14" class="edge">
<title>Node12&#45;&gt;Node13</title>
<path fill="none" stroke="midnightblue" d="M136.54,-245.5C128.14,-245.5 119.61,-245.5 111.4,-245.5"/>
<polygon fill="midnightblue" stroke="midnightblue" points="136.68,-249 146.68,-245.5 136.68,-242 136.68,-249"/>
</g>
<!-- Node15 -->
<g id="node15" class="node">
<title>Node15</title>
<g id="a_node15"><a xlink:href="a01593.html#ab6eeda23c34cee79d8d72f1a8691a8de" target="_top" xlink:title=" ">
<polygon fill="white" stroke="black" points="0,-181.5 0,-211.5 111,-211.5 111,-181.5 0,-181.5"/>
<text text-anchor="start" x="8" y="-199.5" font-family="Helvetica,sans-Serif" font-size="10.00">nlohmann::basic_json</text>
<text text-anchor="middle" x="55.5" y="-188.5" font-family="Helvetica,sans-Serif" font-size="10.00">::from_ubjson</text>
</a>
</g>
</g>
<!-- Node14&#45;&gt;Node15 -->
<g id="edge16" class="edge">
<title>Node14&#45;&gt;Node15</title>
<path fill="none" stroke="midnightblue" d="M136.54,-196.5C128.14,-196.5 119.61,-196.5 111.4,-196.5"/>
<polygon fill="midnightblue" stroke="midnightblue" points="136.68,-200 146.68,-196.5 136.68,-193 136.68,-200"/>
</g>
<!-- Node17&#45;&gt;Node17 -->
<g id="edge19" class="edge">
<title>Node17&#45;&gt;Node17</title>
<path fill="none" stroke="midnightblue" d="M1110.35,-226.96C1106.65,-231.68 1096.7,-235 1080.5,-235 1053.92,-235 1044.16,-226.06 1051.22,-216.66"/>
<polygon fill="midnightblue" stroke="midnightblue" points="1113.83,-226.45 1109.78,-216.66 1106.84,-226.84 1113.83,-226.45"/>
</g>
<!-- Node18 -->
<g id="node18" class="node">
<title>Node18</title>
<g id="a_node18"><a xlink:href="a01929.html#a4e4accd5a2a41bfb2f18a8a0fcc9421c" target="_top" xlink:title=" ">
<polygon fill="white" stroke="black" points="829.5,-186.5 829.5,-216.5 969.5,-216.5 969.5,-186.5 829.5,-186.5"/>
<text text-anchor="start" x="837.5" y="-204.5" font-family="Helvetica,sans-Serif" font-size="10.00">nlohmann::detail::binary</text>
<text text-anchor="middle" x="899.5" y="-193.5" font-family="Helvetica,sans-Serif" font-size="10.00">_reader::parse_cbor_internal</text>
</a>
</g>
</g>
<!-- Node17&#45;&gt;Node18 -->
<g id="edge20" class="edge">
<title>Node17&#45;&gt;Node18</title>
<path fill="none" stroke="midnightblue" d="M1008.31,-201.5C995.57,-201.5 982.31,-201.5 969.63,-201.5"/>
<polygon fill="midnightblue" stroke="midnightblue" points="1008.4,-205 1018.4,-201.5 1008.4,-198 1008.4,-205"/>
</g>
<!-- Node18&#45;&gt;Node7 -->
<g id="edge26" class="edge">
<title>Node18&#45;&gt;Node7</title>
<path fill="none" stroke="midnightblue" d="M832.92,-218.78C819.16,-221.83 804.67,-224.63 791,-226.5 657.19,-244.81 498.34,-246.84 414.19,-246.37"/>
<polygon fill="midnightblue" stroke="midnightblue" points="833.83,-222.16 842.79,-216.52 832.26,-215.34 833.83,-222.16"/>
</g>
<!-- Node18&#45;&gt;Node18 -->
<g id="edge25" class="edge">
<title>Node18&#45;&gt;Node18</title>
<path fill="none" stroke="midnightblue" d="M931.48,-226.96C927.51,-231.68 916.85,-235 899.5,-235 871.02,-235 860.57,-226.06 868.13,-216.66"/>
<polygon fill="midnightblue" stroke="midnightblue" points="934.96,-226.43 930.87,-216.66 927.97,-226.85 934.96,-226.43"/>
</g>
<!-- Node19 -->
<g id="node19" class="node">
<title>Node19</title>
<g id="a_node19"><a xlink:href="a01929.html#a3750658328bf3ec3cf23f1626f9ec3af" target="_top" xlink:title=" ">
<polygon fill="white" stroke="black" points="649.5,-186.5 649.5,-216.5 769.5,-216.5 769.5,-186.5 649.5,-186.5"/>
<text text-anchor="start" x="657.5" y="-204.5" font-family="Helvetica,sans-Serif" font-size="10.00">nlohmann::detail::binary</text>
<text text-anchor="middle" x="709.5" y="-193.5" font-family="Helvetica,sans-Serif" font-size="10.00">_reader::get_cbor_array</text>
</a>
</g>
</g>
<!-- Node18&#45;&gt;Node19 -->
<g id="edge21" class="edge">
<title>Node18&#45;&gt;Node19</title>
<path fill="none" stroke="midnightblue" d="M819.08,-194.82C802.52,-194.66 785.34,-194.78 769.67,-195.18"/>
<polygon fill="midnightblue" stroke="midnightblue" points="819.25,-198.33 829.3,-194.96 819.35,-191.33 819.25,-198.33"/>
</g>
<!-- Node20 -->
<g id="node20" class="node">
<title>Node20</title>
<g id="a_node20"><a xlink:href="a01929.html#a47092a2195bf9cd3cdb4dda67cc404ed" target="_top" xlink:title=" ">
<polygon fill="white" stroke="black" points="647.5,-137.5 647.5,-167.5 771.5,-167.5 771.5,-137.5 647.5,-137.5"/>
<text text-anchor="start" x="655.5" y="-155.5" font-family="Helvetica,sans-Serif" font-size="10.00">nlohmann::detail::binary</text>
<text text-anchor="middle" x="709.5" y="-144.5" font-family="Helvetica,sans-Serif" font-size="10.00">_reader::get_cbor_object</text>
</a>
</g>
</g>
<!-- Node18&#45;&gt;Node20 -->
<g id="edge23" class="edge">
<title>Node18&#45;&gt;Node20</title>
<path fill="none" stroke="midnightblue" d="M852.11,-183.5C827.79,-176.22 797.7,-168.23 771.52,-162.04"/>
<polygon fill="midnightblue" stroke="midnightblue" points="851.22,-186.88 861.81,-186.46 853.26,-180.19 851.22,-186.88"/>
</g>
<!-- Node19&#45;&gt;Node18 -->
<g id="edge22" class="edge">
<title>Node19&#45;&gt;Node18</title>
<path fill="none" stroke="midnightblue" d="M780.06,-208.04C796.14,-208.32 813.24,-208.32 829.3,-208.04"/>
<polygon fill="midnightblue" stroke="midnightblue" points="779.74,-204.54 769.67,-207.82 779.59,-211.53 779.74,-204.54"/>
</g>
<!-- Node20&#45;&gt;Node18 -->
<g id="edge24" class="edge">
<title>Node20&#45;&gt;Node18</title>
<path fill="none" stroke="midnightblue" d="M756.81,-170.48C778.64,-177.01 805.15,-184.13 829.3,-190"/>
<polygon fill="midnightblue" stroke="midnightblue" points="757.72,-167.1 747.13,-167.53 755.68,-173.79 757.72,-167.1"/>
</g>
<!-- Node22 -->
<g id="node22" class="node">
<title>Node22</title>
<g id="a_node22"><a xlink:href="a01929.html#ae020385ce9424271d61f85d3842c02cb" target="_top" xlink:title=" ">
<polygon fill="white" stroke="black" points="837.5,-44 837.5,-85 961.5,-85 961.5,-44 837.5,-44"/>
<text text-anchor="start" x="845.5" y="-73" font-family="Helvetica,sans-Serif" font-size="10.00">nlohmann::detail::binary</text>
<text text-anchor="start" x="845.5" y="-62" font-family="Helvetica,sans-Serif" font-size="10.00">_reader::parse_msgpack</text>
<text text-anchor="middle" x="899.5" y="-51" font-family="Helvetica,sans-Serif" font-size="10.00">_internal</text>
</a>
</g>
</g>
<!-- Node21&#45;&gt;Node22 -->
<g id="edge28" class="edge">
<title>Node21&#45;&gt;Node22</title>
<path fill="none" stroke="midnightblue" d="M1008.37,-91.01C992.9,-87.21 976.67,-83.22 961.63,-79.53"/>
<polygon fill="midnightblue" stroke="midnightblue" points="1007.85,-94.49 1018.4,-93.48 1009.52,-87.69 1007.85,-94.49"/>
</g>
<!-- Node22&#45;&gt;Node7 -->
<g id="edge33" class="edge">
<title>Node22&#45;&gt;Node7</title>
<path fill="none" stroke="midnightblue" d="M827.09,-80.72C753.49,-97.55 646.88,-122.27 628,-128.5 537.41,-158.38 435.18,-206.18 385.44,-230.39"/>
<polygon fill="midnightblue" stroke="midnightblue" points="828.28,-84.04 837.25,-78.4 826.72,-77.22 828.28,-84.04"/>
</g>
<!-- Node23 -->
<g id="node23" class="node">
<title>Node23</title>
<g id="a_node23"><a xlink:href="a01929.html#a0ce1d7066597952efb008aaf578b2bd6" target="_top" xlink:title=" ">
<polygon fill="white" stroke="black" points="639.5,-49.5 639.5,-79.5 779.5,-79.5 779.5,-49.5 639.5,-49.5"/>
<text text-anchor="start" x="647.5" y="-67.5" font-family="Helvetica,sans-Serif" font-size="10.00">nlohmann::detail::binary</text>
<text text-anchor="middle" x="709.5" y="-56.5" font-family="Helvetica,sans-Serif" font-size="10.00">_reader::get_msgpack_array</text>
</a>
</g>
</g>
<!-- Node22&#45;&gt;Node23 -->
<g id="edge29" class="edge">
<title>Node22&#45;&gt;Node23</title>
<path fill="none" stroke="midnightblue" d="M827.35,-57.93C811.74,-57.68 795.24,-57.69 779.71,-57.96"/>
<polygon fill="midnightblue" stroke="midnightblue" points="827.39,-61.43 837.46,-58.13 827.53,-54.43 827.39,-61.43"/>
</g>
<!-- Node24 -->
<g id="node24" class="node">
<title>Node24</title>
<g id="a_node24"><a xlink:href="a01929.html#a8bebd21ceef09b6b2562e87861832700" target="_top" xlink:title=" ">
<polygon fill="white" stroke="black" points="637,-0.5 637,-30.5 782,-30.5 782,-0.5 637,-0.5"/>
<text text-anchor="start" x="645" y="-18.5" font-family="Helvetica,sans-Serif" font-size="10.00">nlohmann::detail::binary</text>
<text text-anchor="middle" x="709.5" y="-7.5" font-family="Helvetica,sans-Serif" font-size="10.00">_reader::get_msgpack_object</text>
</a>
</g>
</g>
<!-- Node22&#45;&gt;Node24 -->
<g id="edge31" class="edge">
<title>Node22&#45;&gt;Node24</title>
<path fill="none" stroke="midnightblue" d="M833.98,-41.24C817.31,-36.54 799.27,-31.79 782.25,-27.62"/>
<polygon fill="midnightblue" stroke="midnightblue" points="833.04,-44.61 843.62,-43.99 834.97,-37.88 833.04,-44.61"/>
</g>
<!-- Node23&#45;&gt;Node22 -->
<g id="edge30" class="edge">
<title>Node23&#45;&gt;Node22</title>
<path fill="none" stroke="midnightblue" d="M790.03,-71.18C805.9,-71.34 822.33,-71.23 837.46,-70.87"/>
<polygon fill="midnightblue" stroke="midnightblue" points="789.75,-67.67 779.71,-71.04 789.66,-74.67 789.75,-67.67"/>
</g>
<!-- Node24&#45;&gt;Node22 -->
<g id="edge32" class="edge">
<title>Node24&#45;&gt;Node22</title>
<path fill="none" stroke="midnightblue" d="M756.84,-33.49C781.16,-40.76 811.26,-48.76 837.46,-54.96"/>
<polygon fill="midnightblue" stroke="midnightblue" points="757.73,-30.1 747.14,-30.53 755.68,-36.8 757.73,-30.1"/>
</g>
</g>
</svg>
