<?xml version="1.0" encoding="UTF-8" standalone="no"?>
<!DOCTYPE svg PUBLIC "-//W3C//DTD SVG 1.1//EN"
 "http://www.w3.org/Graphics/SVG/1.1/DTD/svg11.dtd">
<!-- Generated by graphviz version 8.0.5 (20230430.1635)
 -->
<!-- Title: nlohmann::detail::binary_reader::parse_cbor_internal Pages: 1 -->
<svg width="1132pt" height="694pt"
 viewBox="0.00 0.00 1131.75 694.00" xmlns="http://www.w3.org/2000/svg" xmlns:xlink="http://www.w3.org/1999/xlink">
<g id="graph0" class="graph" transform="scale(1 1) rotate(0) translate(4 690)">
<title>nlohmann::detail::binary_reader::parse_cbor_internal</title>
<!-- Node1 -->
<g id="node1" class="node">
<title>Node1</title>
<g id="a_node1"><a xlink:title=" ">
<polygon fill="#999999" stroke="#666666" points="139,-317 0,-317 0,-285 139,-285 139,-317"/>
<text text-anchor="start" x="8" y="-303.5" font-family="Helvetica,sans-Serif" font-size="10.00">nlohmann::detail::binary</text>
<text text-anchor="middle" x="69.5" y="-291.5" font-family="Helvetica,sans-Serif" font-size="10.00">_reader::parse_cbor_internal</text>
</a>
</g>
</g>
<!-- Node1&#45;&gt;Node1 -->
<g id="edge41" class="edge">
<title>Node1&#45;&gt;Node1</title>
<path fill="none" stroke="#63b8ff" d="M39.66,-317.45C34.09,-326.59 44.04,-335 69.5,-335 84.22,-335 93.75,-332.19 98.1,-328.05"/>
<polygon fill="#63b8ff" stroke="#63b8ff" points="101.66,-328.78 99.34,-318.45 94.7,-327.97 101.66,-328.78"/>
</g>
<!-- Node2 -->
<g id="node2" class="node">
<title>Node2</title>
<g id="a_node2"><a xlink:href="a01563.html#a137ea4d27de45d8a844fd13451d40f3d" target="_top" xlink:title="create a parse error exception">
<polygon fill="white" stroke="#666666" points="940.5,-612 823.25,-612 823.25,-580 940.5,-580 940.5,-612"/>
<text text-anchor="start" x="831.25" y="-598.5" font-family="Helvetica,sans-Serif" font-size="10.00">nlohmann::detail::parse</text>
<text text-anchor="middle" x="881.88" y="-586.5" font-family="Helvetica,sans-Serif" font-size="10.00">_error::create</text>
</a>
</g>
</g>
<!-- Node1&#45;&gt;Node2 -->
<g id="edge1" class="edge">
<title>Node1&#45;&gt;Node2</title>
<path fill="none" stroke="#63b8ff" d="M72.33,-317.43C78.35,-364.36 101.6,-500.82 175,-581 248.12,-660.88 286.58,-686 394.88,-686 394.88,-686 394.88,-686 557.63,-686 660.54,-686 775.36,-643.14 836.63,-616.58"/>
<polygon fill="#63b8ff" stroke="#63b8ff" points="837.61,-619.53 845.36,-612.3 834.8,-613.12 837.61,-619.53"/>
</g>
<!-- Node5 -->
<g id="node5" class="node">
<title>Node5</title>
<g id="a_node5"><a xlink:href="a01995.html#a9c413c9a1bade1ce345740f4d69156f0" target="_top" xlink:title=" ">
<polygon fill="white" stroke="#666666" points="952.5,-535 811.25,-535 811.25,-503 952.5,-503 952.5,-535"/>
<text text-anchor="start" x="819.25" y="-521.5" font-family="Helvetica,sans-Serif" font-size="10.00">nlohmann::detail::binary</text>
<text text-anchor="middle" x="881.88" y="-509.5" font-family="Helvetica,sans-Serif" font-size="10.00">_reader::exception_message</text>
</a>
</g>
</g>
<!-- Node1&#45;&gt;Node5 -->
<g id="edge4" class="edge">
<title>Node1&#45;&gt;Node5</title>
<path fill="none" stroke="#63b8ff" d="M76.28,-317.27C101.82,-385.88 211.39,-648 394.88,-648 394.88,-648 394.88,-648 557.63,-648 671.29,-648 792.45,-578.35 848.72,-541.4"/>
<polygon fill="#63b8ff" stroke="#63b8ff" points="850.44,-543.8 856.82,-535.34 846.56,-537.97 850.44,-543.8"/>
</g>
<!-- Node6 -->
<g id="node6" class="node">
<title>Node6</title>
<g id="a_node6"><a xlink:href="a01995.html#ad222095c0b21a87824cb10629299629a" target="_top" xlink:title="get next character from the input">
<polygon fill="white" stroke="#666666" points="775.25,-220 655.75,-220 655.75,-188 775.25,-188 775.25,-220"/>
<text text-anchor="start" x="663.75" y="-206.5" font-family="Helvetica,sans-Serif" font-size="10.00">nlohmann::detail::binary</text>
<text text-anchor="middle" x="715.5" y="-194.5" font-family="Helvetica,sans-Serif" font-size="10.00">_reader::get</text>
</a>
</g>
</g>
<!-- Node1&#45;&gt;Node6 -->
<g id="edge5" class="edge">
<title>Node1&#45;&gt;Node6</title>
<path fill="none" stroke="#63b8ff" d="M78.93,-284.65C94.37,-256.21 129.77,-197.36 175,-163 235.61,-116.96 259.57,-114.72 334.25,-100 458.75,-75.46 503.92,-46.18 619.75,-98 656.31,-114.36 684.59,-152.57 700.4,-178.36"/>
<polygon fill="#63b8ff" stroke="#63b8ff" points="697.74,-179.73 705.84,-186.56 703.76,-176.17 697.74,-179.73"/>
</g>
<!-- Node7 -->
<g id="node7" class="node">
<title>Node7</title>
<g id="a_node7"><a xlink:href="a01995.html#a3750658328bf3ec3cf23f1626f9ec3af" target="_top" xlink:title=" ">
<polygon fill="white" stroke="#666666" points="296.38,-204 176.88,-204 176.88,-172 296.38,-172 296.38,-204"/>
<text text-anchor="start" x="184.88" y="-190.5" font-family="Helvetica,sans-Serif" font-size="10.00">nlohmann::detail::binary</text>
<text text-anchor="middle" x="236.63" y="-178.5" font-family="Helvetica,sans-Serif" font-size="10.00">_reader::get_cbor_array</text>
</a>
</g>
</g>
<!-- Node1&#45;&gt;Node7 -->
<g id="edge6" class="edge">
<title>Node1&#45;&gt;Node7</title>
<path fill="none" stroke="#63b8ff" d="M80.92,-284.79C97.4,-265.04 131.23,-232.6 167.27,-208.94"/>
<polygon fill="#63b8ff" stroke="#63b8ff" points="168.89,-211.42 175.47,-203.12 165.15,-205.51 168.89,-211.42"/>
</g>
<!-- Node8 -->
<g id="node8" class="node">
<title>Node8</title>
<g id="a_node8"><a xlink:href="a01995.html#acb001d18095dc5bcf7336ae5122b8340" target="_top" xlink:title="reads a CBOR byte array">
<polygon fill="white" stroke="#666666" points="457.5,-454 334.25,-454 334.25,-422 457.5,-422 457.5,-454"/>
<text text-anchor="start" x="342.25" y="-440.5" font-family="Helvetica,sans-Serif" font-size="10.00">nlohmann::detail::binary</text>
<text text-anchor="middle" x="395.88" y="-428.5" font-family="Helvetica,sans-Serif" font-size="10.00">_reader::get_cbor_binary</text>
</a>
</g>
</g>
<!-- Node1&#45;&gt;Node8 -->
<g id="edge9" class="edge">
<title>Node1&#45;&gt;Node8</title>
<path fill="none" stroke="#63b8ff" d="M89.29,-317.3C109.31,-333.92 142.53,-359.42 175,-375 222.29,-397.71 279.33,-413.76 323.46,-423.97"/>
<polygon fill="#63b8ff" stroke="#63b8ff" points="322.57,-427.59 333.1,-426.38 324.11,-420.76 322.57,-427.59"/>
</g>
<!-- Node10 -->
<g id="node10" class="node">
<title>Node10</title>
<g id="a_node10"><a xlink:href="a01995.html#a61a0bd8bbe7b560bd429fa990ba3ba1a" target="_top" xlink:title=" ">
<polygon fill="white" stroke="#666666" points="775.25,-481 655.75,-481 655.75,-449 775.25,-449 775.25,-481"/>
<text text-anchor="start" x="663.75" y="-467.5" font-family="Helvetica,sans-Serif" font-size="10.00">nlohmann::detail::binary</text>
<text text-anchor="middle" x="715.5" y="-455.5" font-family="Helvetica,sans-Serif" font-size="10.00">_reader::unexpect_eof</text>
</a>
</g>
</g>
<!-- Node1&#45;&gt;Node10 -->
<g id="edge42" class="edge">
<title>Node1&#45;&gt;Node10</title>
<path fill="none" stroke="#63b8ff" d="M82.76,-317.33C100.82,-340.47 136.62,-383.01 175,-410 238.39,-454.58 259.17,-461.8 334.25,-481 457.31,-512.48 494.13,-512.8 619.75,-494 633.17,-491.99 647.33,-488.47 660.48,-484.55"/>
<polygon fill="#63b8ff" stroke="#63b8ff" points="661.27,-487.66 669.78,-481.35 659.19,-480.98 661.27,-487.66"/>
</g>
<!-- Node11 -->
<g id="node11" class="node">
<title>Node11</title>
<g id="a_node11"><a xlink:href="a01995.html#ac356c6364fe0273d3303fb7a447f4ef6" target="_top" xlink:title=" ">
<polygon fill="white" stroke="#666666" points="616.38,-380 496.88,-380 496.88,-348 616.38,-348 616.38,-380"/>
<text text-anchor="start" x="504.88" y="-366.5" font-family="Helvetica,sans-Serif" font-size="10.00">nlohmann::detail::binary</text>
<text text-anchor="middle" x="556.63" y="-354.5" font-family="Helvetica,sans-Serif" font-size="10.00">_reader::get_number</text>
</a>
</g>
</g>
<!-- Node1&#45;&gt;Node11 -->
<g id="edge39" class="edge">
<title>Node1&#45;&gt;Node11</title>
<path fill="none" stroke="#63b8ff" d="M139.28,-313.38C151.17,-315.37 163.43,-317.32 175,-319 283.11,-334.69 409.1,-348.77 485.57,-356.84"/>
<polygon fill="#63b8ff" stroke="#63b8ff" points="485.18,-360.43 495.49,-357.99 485.91,-353.46 485.18,-360.43"/>
</g>
<!-- Node12 -->
<g id="node12" class="node">
<title>Node12</title>
<g id="a_node12"><a xlink:href="a01995.html#a7d323283c60a0b89ee5eeadf5cb9a5ad" target="_top" xlink:title=" ">
<polygon fill="white" stroke="#666666" points="619.75,-330 493.5,-330 493.5,-298 619.75,-298 619.75,-330"/>
<text text-anchor="start" x="501.5" y="-316.5" font-family="Helvetica,sans-Serif" font-size="10.00">nlohmann::detail::binary</text>
<text text-anchor="middle" x="556.63" y="-304.5" font-family="Helvetica,sans-Serif" font-size="10.00">_reader::get_token_string</text>
</a>
</g>
</g>
<!-- Node1&#45;&gt;Node12 -->
<g id="edge40" class="edge">
<title>Node1&#45;&gt;Node12</title>
<path fill="none" stroke="#63b8ff" d="M139.49,-302.85C230.33,-305.29 389.37,-309.55 482.31,-312.04"/>
<polygon fill="#63b8ff" stroke="#63b8ff" points="481.94,-315.56 492.03,-312.33 482.13,-308.56 481.94,-315.56"/>
</g>
<!-- Node13 -->
<g id="node13" class="node">
<title>Node13</title>
<g id="a_node13"><a xlink:href="a01995.html#a47092a2195bf9cd3cdb4dda67cc404ed" target="_top" xlink:title=" ">
<polygon fill="white" stroke="#666666" points="298.25,-254 175,-254 175,-222 298.25,-222 298.25,-254"/>
<text text-anchor="start" x="183" y="-240.5" font-family="Helvetica,sans-Serif" font-size="10.00">nlohmann::detail::binary</text>
<text text-anchor="middle" x="236.63" y="-228.5" font-family="Helvetica,sans-Serif" font-size="10.00">_reader::get_cbor_object</text>
</a>
</g>
</g>
<!-- Node1&#45;&gt;Node13 -->
<g id="edge24" class="edge">
<title>Node1&#45;&gt;Node13</title>
<path fill="none" stroke="#63b8ff" d="M99.64,-284.59C117.87,-276.46 142.18,-266.72 165.21,-258.18"/>
<polygon fill="#63b8ff" stroke="#63b8ff" points="166.13,-261.21 174.32,-254.48 163.73,-254.63 166.13,-261.21"/>
</g>
<!-- Node14 -->
<g id="node14" class="node">
<title>Node14</title>
<g id="a_node14"><a xlink:href="a01995.html#a545a44ae4b3fa2b7a61d9e8517fb7154" target="_top" xlink:title="reads a CBOR string">
<polygon fill="white" stroke="#666666" points="456.38,-254 335.38,-254 335.38,-222 456.38,-222 456.38,-254"/>
<text text-anchor="start" x="343.38" y="-240.5" font-family="Helvetica,sans-Serif" font-size="10.00">nlohmann::detail::binary</text>
<text text-anchor="middle" x="395.88" y="-228.5" font-family="Helvetica,sans-Serif" font-size="10.00">_reader::get_cbor_string</text>
</a>
</g>
</g>
<!-- Node1&#45;&gt;Node14 -->
<g id="edge38" class="edge">
<title>Node1&#45;&gt;Node14</title>
<path fill="none" stroke="#63b8ff" d="M139.31,-291.13C184.65,-284.23 245.22,-274.27 298.25,-263 306.75,-261.2 315.62,-259.14 324.39,-257"/>
<polygon fill="#63b8ff" stroke="#63b8ff" points="325.16,-260.17 334.02,-254.36 323.47,-253.38 325.16,-260.17"/>
</g>
<!-- Node3 -->
<g id="node3" class="node">
<title>Node3</title>
<g id="a_node3"><a xlink:href="a01559.html#abf41a7e9178356314082284e6cfea278" target="_top" xlink:title=" ">
<polygon fill="white" stroke="#666666" points="1123.75,-637 988.5,-637 988.5,-605 1123.75,-605 1123.75,-637"/>
<text text-anchor="start" x="996.5" y="-623.5" font-family="Helvetica,sans-Serif" font-size="10.00">nlohmann::detail::exception</text>
<text text-anchor="middle" x="1056.13" y="-611.5" font-family="Helvetica,sans-Serif" font-size="10.00">::name</text>
</a>
</g>
</g>
<!-- Node2&#45;&gt;Node3 -->
<g id="edge2" class="edge">
<title>Node2&#45;&gt;Node3</title>
<path fill="none" stroke="#63b8ff" d="M940.71,-604.4C952.5,-606.11 965.09,-607.94 977.45,-609.73"/>
<polygon fill="#63b8ff" stroke="#63b8ff" points="976.82,-613.32 987.22,-611.29 977.82,-606.39 976.82,-613.32"/>
</g>
<!-- Node4 -->
<g id="node4" class="node">
<title>Node4</title>
<g id="a_node4"><a xlink:href="a01563.html#aefe74adeaa48781464ba2fd2ec63d221" target="_top" xlink:title=" ">
<polygon fill="white" stroke="#666666" points="1114.75,-587 997.5,-587 997.5,-555 1114.75,-555 1114.75,-587"/>
<text text-anchor="start" x="1005.5" y="-573.5" font-family="Helvetica,sans-Serif" font-size="10.00">nlohmann::detail::parse</text>
<text text-anchor="middle" x="1056.13" y="-561.5" font-family="Helvetica,sans-Serif" font-size="10.00">_error::position_string</text>
</a>
</g>
</g>
<!-- Node2&#45;&gt;Node4 -->
<g id="edge3" class="edge">
<title>Node2&#45;&gt;Node4</title>
<path fill="none" stroke="#63b8ff" d="M940.71,-587.61C955.34,-585.49 971.19,-583.18 986.3,-580.99"/>
<polygon fill="#63b8ff" stroke="#63b8ff" points="986.75,-584.32 996.15,-579.42 985.75,-577.39 986.75,-584.32"/>
</g>
<!-- Node7&#45;&gt;Node1 -->
<g id="edge8" class="edge">
<title>Node7&#45;&gt;Node1</title>
<path fill="none" stroke="#63b8ff" d="M210.9,-204.4C199.56,-209.48 186.19,-215.21 175,-222 148.68,-237.98 122.19,-260.37 102.46,-277.4"/>
<polygon fill="#63b8ff" stroke="#63b8ff" points="100.45,-275.38 95.17,-284.57 105.03,-280.68 100.45,-275.38"/>
</g>
<!-- Node7&#45;&gt;Node6 -->
<g id="edge7" class="edge">
<title>Node7&#45;&gt;Node6</title>
<path fill="none" stroke="#63b8ff" d="M257.59,-171.55C276.15,-157.4 305.21,-138.05 334.25,-130 456.53,-96.12 499.77,-88.7 619.75,-130 648.33,-139.84 674.9,-162.23 692.58,-179.82"/>
<polygon fill="#63b8ff" stroke="#63b8ff" points="689.57,-181.78 699.06,-186.5 694.59,-176.9 689.57,-181.78"/>
</g>
<!-- Node8&#45;&gt;Node2 -->
<g id="edge10" class="edge">
<title>Node8&#45;&gt;Node2</title>
<path fill="none" stroke="#63b8ff" d="M411.52,-454.5C429.09,-473.19 460.34,-503.11 493.5,-519 597.44,-568.82 731.9,-586.41 811.98,-592.62"/>
<polygon fill="#63b8ff" stroke="#63b8ff" points="811.68,-596.18 821.91,-593.43 812.2,-589.2 811.68,-596.18"/>
</g>
<!-- Node8&#45;&gt;Node5 -->
<g id="edge11" class="edge">
<title>Node8&#45;&gt;Node5</title>
<path fill="none" stroke="#63b8ff" d="M418.17,-454.24C436.9,-467.54 465.49,-485.5 493.5,-494 595.89,-525.1 720.29,-527.24 800.01,-524.38"/>
<polygon fill="#63b8ff" stroke="#63b8ff" points="800.1,-527.84 809.95,-523.94 799.82,-520.84 800.1,-527.84"/>
</g>
<!-- Node8&#45;&gt;Node6 -->
<g id="edge12" class="edge">
<title>Node8&#45;&gt;Node6</title>
<path fill="none" stroke="#63b8ff" d="M457.88,-430.51C514.87,-422.48 594.81,-408.24 619.75,-389 671.99,-348.72 697.94,-271.63 708.5,-230.84"/>
<polygon fill="#63b8ff" stroke="#63b8ff" points="712.09,-231.91 711.09,-221.36 705.3,-230.23 712.09,-231.91"/>
</g>
<!-- Node8&#45;&gt;Node8 -->
<g id="edge18" class="edge">
<title>Node8&#45;&gt;Node8</title>
<path fill="none" stroke="#63b8ff" d="M367.44,-454.45C362.14,-463.59 371.61,-472 395.88,-472 409.9,-472 418.99,-469.19 423.13,-465.05"/>
<polygon fill="#63b8ff" stroke="#63b8ff" points="426.68,-465.77 424.31,-455.45 419.72,-465 426.68,-465.77"/>
</g>
<!-- Node9 -->
<g id="node9" class="node">
<title>Node9</title>
<g id="a_node9"><a xlink:href="a01995.html#a55e13d567a53234573ab3833c0ca32e9" target="_top" xlink:title="create a byte array by reading bytes from the input">
<polygon fill="white" stroke="#666666" points="616.38,-468 496.88,-468 496.88,-436 616.38,-436 616.38,-468"/>
<text text-anchor="start" x="504.88" y="-454.5" font-family="Helvetica,sans-Serif" font-size="10.00">nlohmann::detail::binary</text>
<text text-anchor="middle" x="556.63" y="-442.5" font-family="Helvetica,sans-Serif" font-size="10.00">_reader::get_binary</text>
</a>
</g>
</g>
<!-- Node8&#45;&gt;Node9 -->
<g id="edge13" class="edge">
<title>Node8&#45;&gt;Node9</title>
<path fill="none" stroke="#63b8ff" d="M457.8,-443.38C466.91,-444.18 476.37,-445.01 485.65,-445.83"/>
<polygon fill="#63b8ff" stroke="#63b8ff" points="485.17,-449.39 495.43,-446.78 485.78,-442.42 485.17,-449.39"/>
</g>
<!-- Node8&#45;&gt;Node10 -->
<g id="edge23" class="edge">
<title>Node8&#45;&gt;Node10</title>
<path fill="none" stroke="#63b8ff" d="M428.57,-454.4C446.99,-462.99 470.95,-472.62 493.5,-477 543.4,-486.69 600.74,-483.16 644.51,-477.49"/>
<polygon fill="#63b8ff" stroke="#63b8ff" points="644.9,-480.83 654.33,-476.01 643.95,-473.9 644.9,-480.83"/>
</g>
<!-- Node8&#45;&gt;Node11 -->
<g id="edge19" class="edge">
<title>Node8&#45;&gt;Node11</title>
<path fill="none" stroke="#63b8ff" d="M432.11,-421.58C455.23,-410.8 485.68,-396.61 510.56,-385.01"/>
<polygon fill="#63b8ff" stroke="#63b8ff" points="511.91,-387.78 519.49,-380.38 508.95,-381.43 511.91,-387.78"/>
</g>
<!-- Node8&#45;&gt;Node12 -->
<g id="edge22" class="edge">
<title>Node8&#45;&gt;Node12</title>
<path fill="none" stroke="#63b8ff" d="M409.29,-421.57C426.25,-400.06 458.58,-362.39 493.5,-339 495.42,-337.72 497.42,-336.48 499.48,-335.29"/>
<polygon fill="#63b8ff" stroke="#63b8ff" points="500.54,-338.16 507.74,-330.39 497.27,-331.97 500.54,-338.16"/>
</g>
<!-- Node9&#45;&gt;Node6 -->
<g id="edge14" class="edge">
<title>Node9&#45;&gt;Node6</title>
<path fill="none" stroke="#63b8ff" d="M601.72,-435.65C608.31,-431.88 614.6,-427.36 619.75,-422 673.15,-366.43 699.06,-275.93 709.17,-231.03"/>
<polygon fill="#63b8ff" stroke="#63b8ff" points="712.78,-231.91 711.46,-221.4 705.94,-230.44 712.78,-231.91"/>
</g>
<!-- Node9&#45;&gt;Node10 -->
<g id="edge15" class="edge">
<title>Node9&#45;&gt;Node10</title>
<path fill="none" stroke="#63b8ff" d="M616.49,-456.88C625.61,-457.64 635.11,-458.42 644.45,-459.2"/>
<polygon fill="#63b8ff" stroke="#63b8ff" points="644.05,-462.76 654.31,-460.1 644.63,-455.78 644.05,-462.76"/>
</g>
<!-- Node10&#45;&gt;Node2 -->
<g id="edge16" class="edge">
<title>Node10&#45;&gt;Node2</title>
<path fill="none" stroke="#63b8ff" d="M735.49,-481.35C754.44,-497.54 784.52,-522.9 811.25,-544 823.61,-553.76 837.47,-564.21 849.55,-573.16"/>
<polygon fill="#63b8ff" stroke="#63b8ff" points="847.26,-576.56 857.38,-579.68 851.41,-570.92 847.26,-576.56"/>
</g>
<!-- Node10&#45;&gt;Node5 -->
<g id="edge17" class="edge">
<title>Node10&#45;&gt;Node5</title>
<path fill="none" stroke="#63b8ff" d="M766.71,-481.5C783.68,-487.07 802.8,-493.36 820.48,-499.16"/>
<polygon fill="#63b8ff" stroke="#63b8ff" points="819.1,-502.72 829.69,-502.52 821.28,-496.07 819.1,-502.72"/>
</g>
<!-- Node11&#45;&gt;Node6 -->
<g id="edge20" class="edge">
<title>Node11&#45;&gt;Node6</title>
<path fill="none" stroke="#63b8ff" d="M606.63,-347.51C611.28,-345.01 615.74,-342.18 619.75,-339 657.47,-309.07 686.52,-260.21 702.02,-230.2"/>
<polygon fill="#63b8ff" stroke="#63b8ff" points="705.56,-231.94 706.92,-221.44 699.31,-228.8 705.56,-231.94"/>
</g>
<!-- Node11&#45;&gt;Node10 -->
<g id="edge21" class="edge">
<title>Node11&#45;&gt;Node10</title>
<path fill="none" stroke="#63b8ff" d="M583.18,-380.46C609.5,-397.4 650.7,-423.93 679.92,-442.74"/>
<polygon fill="#63b8ff" stroke="#63b8ff" points="677.65,-446.09 687.96,-448.56 681.44,-440.2 677.65,-446.09"/>
</g>
<!-- Node13&#45;&gt;Node1 -->
<g id="edge37" class="edge">
<title>Node13&#45;&gt;Node1</title>
<path fill="none" stroke="#63b8ff" d="M206.37,-254.46C188.1,-262.61 163.74,-272.36 140.7,-280.9"/>
<polygon fill="#63b8ff" stroke="#63b8ff" points="139.77,-277.88 131.58,-284.6 142.17,-284.46 139.77,-277.88"/>
</g>
<!-- Node13&#45;&gt;Node6 -->
<g id="edge25" class="edge">
<title>Node13&#45;&gt;Node6</title>
<path fill="none" stroke="#63b8ff" d="M297.19,-221.56C309.4,-218.48 322.2,-215.46 334.25,-213 459.01,-187.53 492.81,-179.02 619.75,-189 627.77,-189.63 636.14,-190.56 644.44,-191.65"/>
<polygon fill="#63b8ff" stroke="#63b8ff" points="643.89,-195.25 654.28,-193.16 644.86,-188.31 643.89,-195.25"/>
</g>
<!-- Node13&#45;&gt;Node14 -->
<g id="edge26" class="edge">
<title>Node13&#45;&gt;Node14</title>
<path fill="none" stroke="#63b8ff" d="M298.42,-238C306.87,-238 315.61,-238 324.21,-238"/>
<polygon fill="#63b8ff" stroke="#63b8ff" points="324.02,-241.5 334.02,-238 324.02,-234.5 324.02,-241.5"/>
</g>
<!-- Node14&#45;&gt;Node2 -->
<g id="edge27" class="edge">
<title>Node14&#45;&gt;Node2</title>
<path fill="none" stroke="#63b8ff" d="M422.92,-221.61C490.6,-181.28 673.77,-87.04 775.25,-179 835.64,-233.73 771.19,-473.02 811.25,-544 817.85,-555.7 828.29,-565.56 839.09,-573.43"/>
<polygon fill="#63b8ff" stroke="#63b8ff" points="836.93,-576.87 847.18,-579.58 840.86,-571.08 836.93,-576.87"/>
</g>
<!-- Node14&#45;&gt;Node5 -->
<g id="edge28" class="edge">
<title>Node14&#45;&gt;Node5</title>
<path fill="none" stroke="#63b8ff" d="M399.69,-221.65C407.14,-184.01 431.28,-91.61 493.5,-54 600.67,10.77 677.39,24.12 775.25,-54 844.98,-109.67 872.17,-401.26 879.02,-492.02"/>
<polygon fill="#63b8ff" stroke="#63b8ff" points="875.59,-492.04 879.81,-501.75 882.57,-491.53 875.59,-492.04"/>
</g>
<!-- Node14&#45;&gt;Node6 -->
<g id="edge29" class="edge">
<title>Node14&#45;&gt;Node6</title>
<path fill="none" stroke="#63b8ff" d="M430.42,-221.67C448.62,-213.72 471.77,-205.02 493.5,-201 543.42,-191.77 600.76,-192.88 644.52,-196.11"/>
<polygon fill="#63b8ff" stroke="#63b8ff" points="644.1,-199.67 654.34,-196.97 644.65,-192.69 644.1,-199.67"/>
</g>
<!-- Node14&#45;&gt;Node10 -->
<g id="edge36" class="edge">
<title>Node14&#45;&gt;Node10</title>
<path fill="none" stroke="#63b8ff" d="M456.74,-246.02C513.74,-254.65 594.49,-269.76 619.75,-289 669.62,-326.99 696.29,-399.02 707.67,-438.12"/>
<polygon fill="#63b8ff" stroke="#63b8ff" points="704.55,-438.97 710.6,-447.67 711.3,-437.1 704.55,-438.97"/>
</g>
<!-- Node14&#45;&gt;Node11 -->
<g id="edge31" class="edge">
<title>Node14&#45;&gt;Node11</title>
<path fill="none" stroke="#63b8ff" d="M408.92,-254.41C425.72,-276.3 458.13,-315.06 493.5,-339 495.23,-340.18 497.03,-341.31 498.87,-342.4"/>
<polygon fill="#63b8ff" stroke="#63b8ff" points="496.92,-345.86 507.39,-347.51 500.23,-339.69 496.92,-345.86"/>
</g>
<!-- Node14&#45;&gt;Node12 -->
<g id="edge35" class="edge">
<title>Node14&#45;&gt;Node12</title>
<path fill="none" stroke="#63b8ff" d="M431.32,-254.49C454.83,-265.75 486.17,-280.75 511.51,-292.88"/>
<polygon fill="#63b8ff" stroke="#63b8ff" points="509.71,-296.38 520.25,-297.54 512.74,-290.07 509.71,-296.38"/>
</g>
<!-- Node14&#45;&gt;Node14 -->
<g id="edge30" class="edge">
<title>Node14&#45;&gt;Node14</title>
<path fill="none" stroke="#63b8ff" d="M367.44,-254.45C362.14,-263.59 371.61,-272 395.88,-272 409.9,-272 418.99,-269.19 423.13,-265.05"/>
<polygon fill="#63b8ff" stroke="#63b8ff" points="426.68,-265.77 424.31,-255.45 419.72,-265 426.68,-265.77"/>
</g>
<!-- Node15 -->
<g id="node15" class="node">
<title>Node15</title>
<g id="a_node15"><a xlink:href="a01995.html#a540919db22df36512f05a88945c13263" target="_top" xlink:title="create a string by reading characters from the input">
<polygon fill="white" stroke="#666666" points="616.38,-242 496.88,-242 496.88,-210 616.38,-210 616.38,-242"/>
<text text-anchor="start" x="504.88" y="-228.5" font-family="Helvetica,sans-Serif" font-size="10.00">nlohmann::detail::binary</text>
<text text-anchor="middle" x="556.63" y="-216.5" font-family="Helvetica,sans-Serif" font-size="10.00">_reader::get_string</text>
</a>
</g>
</g>
<!-- Node14&#45;&gt;Node15 -->
<g id="edge32" class="edge">
<title>Node14&#45;&gt;Node15</title>
<path fill="none" stroke="#63b8ff" d="M456.44,-233.5C465.96,-232.78 475.89,-232.03 485.63,-231.29"/>
<polygon fill="#63b8ff" stroke="#63b8ff" points="485.81,-234.71 495.52,-230.47 485.28,-227.73 485.81,-234.71"/>
</g>
<!-- Node15&#45;&gt;Node6 -->
<g id="edge33" class="edge">
<title>Node15&#45;&gt;Node6</title>
<path fill="none" stroke="#63b8ff" d="M616.49,-217.75C625.61,-216.47 635.11,-215.14 644.45,-213.83"/>
<polygon fill="#63b8ff" stroke="#63b8ff" points="644.89,-217.16 654.31,-212.3 643.92,-210.23 644.89,-217.16"/>
</g>
<!-- Node15&#45;&gt;Node10 -->
<g id="edge34" class="edge">
<title>Node15&#45;&gt;Node10</title>
<path fill="none" stroke="#63b8ff" d="M601.65,-242.42C608.24,-246.19 614.56,-250.69 619.75,-256 671.35,-308.87 697.91,-394.8 708.63,-438.16"/>
<polygon fill="#63b8ff" stroke="#63b8ff" points="705.42,-438.79 711.13,-447.72 712.23,-437.18 705.42,-438.79"/>
</g>
</g>
</svg>
