<?xml version="1.0" encoding="UTF-8" standalone="no"?>
<!DOCTYPE svg PUBLIC "-//W3C//DTD SVG 1.1//EN"
 "http://www.w3.org/Graphics/SVG/1.1/DTD/svg11.dtd">
<!-- Generated by graphviz version 7.0.4 (20221203.1631)
 -->
<!-- Title: std::hash&lt; nlohmann::json &gt;::operator() Pages: 1 -->
<svg width="434pt" height="51pt"
 viewBox="0.00 0.00 434.00 50.50" xmlns="http://www.w3.org/2000/svg" xmlns:xlink="http://www.w3.org/1999/xlink">
<g id="graph0" class="graph" transform="scale(1 1) rotate(0) translate(4 46.5)">
<title>std::hash&lt; nlohmann::json &gt;::operator()</title>
<!-- Node1 -->
<g id="node1" class="node">
<title>Node1</title>
<g id="a_node1"><a xlink:title="return a hash value for a JSON object">
<polygon fill="#999999" stroke="#666666" points="108,-30 0,-30 0,0 108,0 108,-30"/>
<text text-anchor="start" x="8" y="-18" font-family="Helvetica,sans-Serif" font-size="10.00">std::hash&lt; nlohmann</text>
<text text-anchor="middle" x="54" y="-7" font-family="Helvetica,sans-Serif" font-size="10.00">::json &gt;::operator()</text>
</a>
</g>
</g>
<!-- Node2 -->
<g id="node2" class="node">
<title>Node2</title>
<g id="a_node2"><a xlink:href="a00411.html#a679e5e522ac6afa5d5923292fab450b8" target="_top" xlink:title="hash a JSON value">
<polygon fill="white" stroke="#666666" points="259,-24.5 144,-24.5 144,-5.5 259,-5.5 259,-24.5"/>
<text text-anchor="middle" x="201.5" y="-12.5" font-family="Helvetica,sans-Serif" font-size="10.00">nlohmann::detail::hash</text>
</a>
</g>
</g>
<!-- Node1&#45;&gt;Node2 -->
<g id="edge1" class="edge">
<title>Node1&#45;&gt;Node2</title>
<path fill="none" stroke="#63b8ff" d="M108.35,-15C116.18,-15 124.33,-15 132.41,-15"/>
<polygon fill="#63b8ff" stroke="#63b8ff" points="132.21,-18.5 142.21,-15 132.21,-11.5 132.21,-18.5"/>
</g>
<!-- Node2&#45;&gt;Node2 -->
<g id="edge3" class="edge">
<title>Node2&#45;&gt;Node2</title>
<path fill="none" stroke="#63b8ff" d="M178.41,-24.87C167.87,-33.44 175.57,-42.5 201.5,-42.5 215.68,-42.5 224.41,-39.79 227.68,-35.93"/>
<polygon fill="#63b8ff" stroke="#63b8ff" points="231.06,-35.02 225,-26.33 224.32,-36.9 231.06,-35.02"/>
</g>
<!-- Node3 -->
<g id="node3" class="node">
<title>Node3</title>
<g id="a_node3"><a xlink:href="a00411.html#a66eb4d912b6f872d6983f7d0826f32c6" target="_top" xlink:title=" ">
<polygon fill="white" stroke="#666666" points="426,-24.5 295,-24.5 295,-5.5 426,-5.5 426,-24.5"/>
<text text-anchor="middle" x="360.5" y="-12.5" font-family="Helvetica,sans-Serif" font-size="10.00">nlohmann::detail::combine</text>
</a>
</g>
</g>
<!-- Node2&#45;&gt;Node3 -->
<g id="edge2" class="edge">
<title>Node2&#45;&gt;Node3</title>
<path fill="none" stroke="#63b8ff" d="M259.18,-15C267,-15 275.14,-15 283.24,-15"/>
<polygon fill="#63b8ff" stroke="#63b8ff" points="283.12,-18.5 293.12,-15 283.12,-11.5 283.12,-18.5"/>
</g>
</g>
</svg>
