<?xml version="1.0" encoding="UTF-8" standalone="no"?>
<!DOCTYPE svg PUBLIC "-//W3C//DTD SVG 1.1//EN"
 "http://www.w3.org/Graphics/SVG/1.1/DTD/svg11.dtd">
<!-- Generated by graphviz version 2.43.0 (0)
 -->
<!-- Title: nlohmann::detail::json_sax_dom_parser::start_object Pages: 1 -->
<svg width="687pt" height="176pt"
 viewBox="0.00 0.00 687.00 176.00" xmlns="http://www.w3.org/2000/svg" xmlns:xlink="http://www.w3.org/1999/xlink">
<g id="graph0" class="graph" transform="scale(1 1) rotate(0) translate(4 172)">
<title>nlohmann::detail::json_sax_dom_parser::start_object</title>
<polygon fill="white" stroke="transparent" points="-4,4 -4,-172 683,-172 683,4 -4,4"/>
<!-- Node1 -->
<g id="node1" class="node">
<title>Node1</title>
<g id="a_node1"><a xlink:title=" ">
<polygon fill="#bfbfbf" stroke="black" points="0,-39 0,-80 131,-80 131,-39 0,-39"/>
<text text-anchor="start" x="8" y="-68" font-family="Helvetica,sans-Serif" font-size="10.00">nlohmann::detail::json</text>
<text text-anchor="start" x="8" y="-57" font-family="Helvetica,sans-Serif" font-size="10.00">_sax_dom_parser::start</text>
<text text-anchor="middle" x="65.5" y="-46" font-family="Helvetica,sans-Serif" font-size="10.00">_object</text>
</a>
</g>
</g>
<!-- Node2 -->
<g id="node2" class="node">
<title>Node2</title>
<g id="a_node2"><a xlink:href="a01521.html#a3f6d82a6f967c4728a1ec735a7867073" target="_top" xlink:title=" ">
<polygon fill="white" stroke="black" points="193,-88.5 193,-118.5 314,-118.5 314,-88.5 193,-88.5"/>
<text text-anchor="start" x="201" y="-106.5" font-family="Helvetica,sans-Serif" font-size="10.00">nlohmann::detail::out</text>
<text text-anchor="middle" x="253.5" y="-95.5" font-family="Helvetica,sans-Serif" font-size="10.00">_of_range::create</text>
</a>
</g>
</g>
<!-- Node1&#45;&gt;Node2 -->
<g id="edge1" class="edge">
<title>Node1&#45;&gt;Node2</title>
<path fill="none" stroke="midnightblue" d="M131.03,-74.77C147.78,-78.73 165.9,-83.01 182.9,-87.04"/>
<polygon fill="midnightblue" stroke="midnightblue" points="182.23,-90.47 192.76,-89.37 183.84,-83.66 182.23,-90.47"/>
</g>
<!-- Node4 -->
<g id="node4" class="node">
<title>Node4</title>
<g id="a_node4"><a xlink:href="a00410.html#a6ce645a0b8717757e096a5b5773b7a16" target="_top" xlink:title="user&#45;defined to_string function for JSON values">
<polygon fill="white" stroke="black" points="565,-96 565,-115 679,-115 679,-96 565,-96"/>
<text text-anchor="middle" x="622" y="-103" font-family="Helvetica,sans-Serif" font-size="10.00">nlohmann::to_string</text>
</a>
</g>
</g>
<!-- Node1&#45;&gt;Node4 -->
<g id="edge6" class="edge">
<title>Node1&#45;&gt;Node4</title>
<path fill="none" stroke="midnightblue" d="M131.35,-57.21C221.28,-55.15 388.65,-55.38 529,-78.5 547.77,-81.59 568.12,-87.3 584.89,-92.68"/>
<polygon fill="midnightblue" stroke="midnightblue" points="584.23,-96.15 594.83,-95.96 586.43,-89.5 584.23,-96.15"/>
</g>
<!-- Node6 -->
<g id="node6" class="node">
<title>Node6</title>
<g id="a_node6"><a xlink:href="a01913.html#aa1a5e21be350727cf61a101aa5c6796e" target="_top" xlink:title=" ">
<polygon fill="white" stroke="black" points="167,-0.5 167,-30.5 340,-30.5 340,-0.5 167,-0.5"/>
<text text-anchor="start" x="175" y="-18.5" font-family="Helvetica,sans-Serif" font-size="10.00">nlohmann::detail::json</text>
<text text-anchor="middle" x="253.5" y="-7.5" font-family="Helvetica,sans-Serif" font-size="10.00">_sax_dom_parser::handle_value</text>
</a>
</g>
</g>
<!-- Node1&#45;&gt;Node6 -->
<g id="edge5" class="edge">
<title>Node1&#45;&gt;Node6</title>
<path fill="none" stroke="midnightblue" d="M131.03,-44.23C146.59,-40.56 163.31,-36.6 179.23,-32.83"/>
<polygon fill="midnightblue" stroke="midnightblue" points="180.1,-36.22 189.02,-30.52 178.49,-29.41 180.1,-36.22"/>
</g>
<!-- Node3 -->
<g id="node3" class="node">
<title>Node3</title>
<g id="a_node3"><a xlink:href="a01505.html#abf41a7e9178356314082284e6cfea278" target="_top" xlink:title=" ">
<polygon fill="white" stroke="black" points="376,-137.5 376,-167.5 529,-167.5 529,-137.5 376,-137.5"/>
<text text-anchor="start" x="384" y="-155.5" font-family="Helvetica,sans-Serif" font-size="10.00">nlohmann::detail::exception</text>
<text text-anchor="middle" x="452.5" y="-144.5" font-family="Helvetica,sans-Serif" font-size="10.00">::name</text>
</a>
</g>
</g>
<!-- Node2&#45;&gt;Node3 -->
<g id="edge2" class="edge">
<title>Node2&#45;&gt;Node3</title>
<path fill="none" stroke="midnightblue" d="M314.14,-118.33C335.26,-123.59 359.21,-129.54 381.13,-135"/>
<polygon fill="midnightblue" stroke="midnightblue" points="380.49,-138.44 391.04,-137.46 382.18,-131.65 380.49,-138.44"/>
</g>
<!-- Node5 -->
<g id="node5" class="node">
<title>Node5</title>
<g id="a_node5"><a xlink:href="a01521.html#ab5fe402019dba957558499502f0fd731" target="_top" xlink:title=" ">
<polygon fill="white" stroke="black" points="385.5,-88.5 385.5,-118.5 519.5,-118.5 519.5,-88.5 385.5,-88.5"/>
<text text-anchor="start" x="393.5" y="-106.5" font-family="Helvetica,sans-Serif" font-size="10.00">nlohmann::detail::out</text>
<text text-anchor="middle" x="452.5" y="-95.5" font-family="Helvetica,sans-Serif" font-size="10.00">_of_range::out_of_range</text>
</a>
</g>
</g>
<!-- Node2&#45;&gt;Node5 -->
<g id="edge4" class="edge">
<title>Node2&#45;&gt;Node5</title>
<path fill="none" stroke="midnightblue" d="M314.14,-103.5C333.32,-103.5 354.85,-103.5 375.06,-103.5"/>
<polygon fill="midnightblue" stroke="midnightblue" points="375.18,-107 385.18,-103.5 375.18,-100 375.18,-107"/>
</g>
<!-- Node3&#45;&gt;Node4 -->
<g id="edge3" class="edge">
<title>Node3&#45;&gt;Node4</title>
<path fill="none" stroke="midnightblue" d="M506.96,-137.5C529.61,-131.15 555.67,-123.83 577.16,-117.8"/>
<polygon fill="midnightblue" stroke="midnightblue" points="578.31,-121.11 586.99,-115.04 576.42,-114.38 578.31,-121.11"/>
</g>
</g>
</svg>
