<?xml version="1.0" encoding="UTF-8" standalone="no"?>
<!DOCTYPE svg PUBLIC "-//W3C//DTD SVG 1.1//EN"
 "http://www.w3.org/Graphics/SVG/1.1/DTD/svg11.dtd">
<!-- Generated by graphviz version 4.0.0 (20220529.0937)
 -->
<!-- Title: nlohmann::detail::binary_reader::get_ubjson_high_precision_number Pages: 1 -->
<svg width="947pt" height="235pt"
 viewBox="0.00 0.00 947.00 235.00" xmlns="http://www.w3.org/2000/svg" xmlns:xlink="http://www.w3.org/1999/xlink">
<g id="graph0" class="graph" transform="scale(1 1) rotate(0) translate(4 231)">
<title>nlohmann::detail::binary_reader::get_ubjson_high_precision_number</title>
<polygon fill="white" stroke="transparent" points="-4,4 -4,-231 943,-231 943,4 -4,4"/>
<!-- Node1 -->
<g id="node1" class="node">
<title>Node1</title>
<g id="a_node1"><a xlink:title=" ">
<polygon fill="#bfbfbf" stroke="black" points="814,-93 814,-134 939,-134 939,-93 814,-93"/>
<text text-anchor="start" x="822" y="-122" font-family="Helvetica,sans-Serif" font-size="10.00">nlohmann::detail::binary</text>
<text text-anchor="start" x="822" y="-111" font-family="Helvetica,sans-Serif" font-size="10.00">_reader::get_ubjson_high</text>
<text text-anchor="middle" x="876.5" y="-100" font-family="Helvetica,sans-Serif" font-size="10.00">_precision_number</text>
</a>
</g>
</g>
<!-- Node2 -->
<g id="node2" class="node">
<title>Node2</title>
<g id="a_node2"><a xlink:href="a01929.html#a7e5e0b71548d0649ce4f131280d06c33" target="_top" xlink:title=" ">
<polygon fill="white" stroke="black" points="649,-98.5 649,-128.5 778,-128.5 778,-98.5 649,-98.5"/>
<text text-anchor="start" x="657" y="-116.5" font-family="Helvetica,sans-Serif" font-size="10.00">nlohmann::detail::binary</text>
<text text-anchor="middle" x="713.5" y="-105.5" font-family="Helvetica,sans-Serif" font-size="10.00">_reader::get_ubjson_value</text>
</a>
</g>
</g>
<!-- Node1&#45;&gt;Node2 -->
<g id="edge1" class="edge">
<title>Node1&#45;&gt;Node2</title>
<path fill="none" stroke="midnightblue" d="M803.53,-113.5C795.1,-113.5 786.55,-113.5 778.25,-113.5"/>
<polygon fill="midnightblue" stroke="midnightblue" points="803.71,-117 813.71,-113.5 803.71,-110 803.71,-117"/>
</g>
<!-- Node3 -->
<g id="node3" class="node">
<title>Node3</title>
<g id="a_node3"><a xlink:href="a01929.html#afb36cb588b795efa513fc95e949493b7" target="_top" xlink:title=" ">
<polygon fill="white" stroke="black" points="296.5,-151.5 296.5,-181.5 425.5,-181.5 425.5,-151.5 296.5,-151.5"/>
<text text-anchor="start" x="304.5" y="-169.5" font-family="Helvetica,sans-Serif" font-size="10.00">nlohmann::detail::binary</text>
<text text-anchor="middle" x="361" y="-158.5" font-family="Helvetica,sans-Serif" font-size="10.00">_reader::get_ubjson_array</text>
</a>
</g>
</g>
<!-- Node2&#45;&gt;Node3 -->
<g id="edge2" class="edge">
<title>Node2&#45;&gt;Node3</title>
<path fill="none" stroke="midnightblue" d="M639.02,-124.21C630.29,-126.13 621.47,-127.97 613,-129.5 549.68,-140.93 476.47,-148.46 425.52,-154.5"/>
<polygon fill="midnightblue" stroke="midnightblue" points="639.82,-127.61 648.81,-122.01 638.29,-120.78 639.82,-127.61"/>
</g>
<!-- Node4 -->
<g id="node4" class="node">
<title>Node4</title>
<g id="a_node4"><a xlink:href="a01929.html#adcf64ad3207f4bf37a5a31c920a385c3" target="_top" xlink:title=" ">
<polygon fill="white" stroke="black" points="294,-45.5 294,-75.5 428,-75.5 428,-45.5 294,-45.5"/>
<text text-anchor="start" x="302" y="-63.5" font-family="Helvetica,sans-Serif" font-size="10.00">nlohmann::detail::binary</text>
<text text-anchor="middle" x="361" y="-52.5" font-family="Helvetica,sans-Serif" font-size="10.00">_reader::get_ubjson_object</text>
</a>
</g>
</g>
<!-- Node2&#45;&gt;Node4 -->
<g id="edge4" class="edge">
<title>Node2&#45;&gt;Node4</title>
<path fill="none" stroke="midnightblue" d="M676.47,-95.15C657.68,-89.14 634.25,-83.34 613,-79.5 550.76,-68.26 478.97,-60.8 428.15,-58.03"/>
<polygon fill="midnightblue" stroke="midnightblue" points="675.51,-98.52 686.11,-98.4 677.75,-91.89 675.51,-98.52"/>
</g>
<!-- Node5 -->
<g id="node5" class="node">
<title>Node5</title>
<g id="a_node5"><a xlink:href="a01929.html#a5a79480d661019b0f3fc615ae12f7de7" target="_top" xlink:title=" ">
<polygon fill="white" stroke="black" points="464,-98.5 464,-128.5 613,-128.5 613,-98.5 464,-98.5"/>
<text text-anchor="start" x="472" y="-116.5" font-family="Helvetica,sans-Serif" font-size="10.00">nlohmann::detail::binary</text>
<text text-anchor="middle" x="538.5" y="-105.5" font-family="Helvetica,sans-Serif" font-size="10.00">_reader::parse_ubjson_internal</text>
</a>
</g>
</g>
<!-- Node2&#45;&gt;Node5 -->
<g id="edge6" class="edge">
<title>Node2&#45;&gt;Node5</title>
<path fill="none" stroke="midnightblue" d="M638.43,-113.5C630.04,-113.5 621.48,-113.5 613.09,-113.5"/>
<polygon fill="midnightblue" stroke="midnightblue" points="638.57,-117 648.57,-113.5 638.57,-110 638.57,-117"/>
</g>
<!-- Node3&#45;&gt;Node2 -->
<g id="edge3" class="edge">
<title>Node3&#45;&gt;Node2</title>
<path fill="none" stroke="midnightblue" d="M435.65,-168.53C485.87,-165.47 553.76,-158.2 613,-147.5 638.06,-142.97 666.17,-135.7 686.11,-128.6"/>
<polygon fill="midnightblue" stroke="midnightblue" points="435.31,-165.05 425.52,-169.11 435.71,-172.04 435.31,-165.05"/>
</g>
<!-- Node4&#45;&gt;Node2 -->
<g id="edge5" class="edge">
<title>Node4&#45;&gt;Node2</title>
<path fill="none" stroke="midnightblue" d="M438.23,-73.99C488.18,-79.78 554.77,-86.99 613,-97.5 624.66,-99.6 636.97,-102.3 648.81,-104.99"/>
<polygon fill="midnightblue" stroke="midnightblue" points="438.49,-70.5 428.15,-72.81 437.67,-77.45 438.49,-70.5"/>
</g>
<!-- Node5&#45;&gt;Node3 -->
<g id="edge7" class="edge">
<title>Node5&#45;&gt;Node3</title>
<path fill="none" stroke="midnightblue" d="M478.01,-131.47C456.53,-137.95 432.52,-145.2 411.95,-151.42"/>
<polygon fill="midnightblue" stroke="midnightblue" points="479.12,-134.79 487.68,-128.55 477.09,-128.09 479.12,-134.79"/>
</g>
<!-- Node5&#45;&gt;Node4 -->
<g id="edge8" class="edge">
<title>Node5&#45;&gt;Node4</title>
<path fill="none" stroke="midnightblue" d="M478.01,-95.53C456.53,-89.05 432.52,-81.8 411.95,-75.58"/>
<polygon fill="midnightblue" stroke="midnightblue" points="477.09,-98.91 487.68,-98.45 479.12,-92.21 477.09,-98.91"/>
</g>
<!-- Node6 -->
<g id="node6" class="node">
<title>Node6</title>
<g id="a_node6"><a xlink:href="a01929.html#ab4afd9ee276bbb15a0f898061aad94dd" target="_top" xlink:title=" ">
<polygon fill="white" stroke="black" points="301,-98.5 301,-128.5 421,-128.5 421,-98.5 301,-98.5"/>
<text text-anchor="start" x="309" y="-116.5" font-family="Helvetica,sans-Serif" font-size="10.00">nlohmann::detail::binary</text>
<text text-anchor="middle" x="361" y="-105.5" font-family="Helvetica,sans-Serif" font-size="10.00">_reader::sax_parse</text>
</a>
</g>
</g>
<!-- Node5&#45;&gt;Node6 -->
<g id="edge9" class="edge">
<title>Node5&#45;&gt;Node6</title>
<path fill="none" stroke="midnightblue" d="M453.75,-113.5C442.71,-113.5 431.59,-113.5 421.09,-113.5"/>
<polygon fill="midnightblue" stroke="midnightblue" points="453.84,-117 463.84,-113.5 453.83,-110 453.84,-117"/>
</g>
<!-- Node7 -->
<g id="node7" class="node">
<title>Node7</title>
<g id="a_node7"><a xlink:href="a01593.html#a4e02793f2691aa29ab7cb69fddafbf5c" target="_top" xlink:title="Create a JSON value from an input in BSON format.">
<polygon fill="white" stroke="black" points="147,-196.5 147,-226.5 258,-226.5 258,-196.5 147,-196.5"/>
<text text-anchor="start" x="155" y="-214.5" font-family="Helvetica,sans-Serif" font-size="10.00">nlohmann::basic_json</text>
<text text-anchor="middle" x="202.5" y="-203.5" font-family="Helvetica,sans-Serif" font-size="10.00">::from_bson</text>
</a>
</g>
</g>
<!-- Node6&#45;&gt;Node7 -->
<g id="edge10" class="edge">
<title>Node6&#45;&gt;Node7</title>
<path fill="none" stroke="midnightblue" d="M308.29,-133.25C303.26,-136.03 298.4,-139.12 294,-142.5 273.69,-158.1 278.31,-171.89 258,-187.5 253.66,-190.84 248.77,-193.83 243.76,-196.46"/>
<polygon fill="midnightblue" stroke="midnightblue" points="310.15,-136.23 317.45,-128.56 306.96,-130 310.15,-136.23"/>
</g>
<!-- Node9 -->
<g id="node9" class="node">
<title>Node9</title>
<g id="a_node9"><a xlink:href="a01593.html#a44dd5635fb2da4710f6cd6e42b72773f" target="_top" xlink:title="create a JSON value from an input in CBOR format">
<polygon fill="white" stroke="black" points="147,-147.5 147,-177.5 258,-177.5 258,-147.5 147,-147.5"/>
<text text-anchor="start" x="155" y="-165.5" font-family="Helvetica,sans-Serif" font-size="10.00">nlohmann::basic_json</text>
<text text-anchor="middle" x="202.5" y="-154.5" font-family="Helvetica,sans-Serif" font-size="10.00">::from_cbor</text>
</a>
</g>
</g>
<!-- Node6&#45;&gt;Node9 -->
<g id="edge12" class="edge">
<title>Node6&#45;&gt;Node9</title>
<path fill="none" stroke="midnightblue" d="M302.15,-131.61C285.51,-136.82 267.55,-142.45 251.57,-147.45"/>
<polygon fill="midnightblue" stroke="midnightblue" points="303.27,-134.93 311.77,-128.6 301.18,-128.25 303.27,-134.93"/>
</g>
<!-- Node11 -->
<g id="node11" class="node">
<title>Node11</title>
<g id="a_node11"><a xlink:href="a01593.html#adbcab52fca1e25b3311ef14e71a57590" target="_top" xlink:title="create a JSON value from an input in MessagePack format">
<polygon fill="white" stroke="black" points="147,-98.5 147,-128.5 258,-128.5 258,-98.5 147,-98.5"/>
<text text-anchor="start" x="155" y="-116.5" font-family="Helvetica,sans-Serif" font-size="10.00">nlohmann::basic_json</text>
<text text-anchor="middle" x="202.5" y="-105.5" font-family="Helvetica,sans-Serif" font-size="10.00">::from_msgpack</text>
</a>
</g>
</g>
<!-- Node6&#45;&gt;Node11 -->
<g id="edge14" class="edge">
<title>Node6&#45;&gt;Node11</title>
<path fill="none" stroke="midnightblue" d="M290.52,-113.5C279.66,-113.5 268.57,-113.5 258.11,-113.5"/>
<polygon fill="midnightblue" stroke="midnightblue" points="290.83,-117 300.83,-113.5 290.83,-110 290.83,-117"/>
</g>
<!-- Node13 -->
<g id="node13" class="node">
<title>Node13</title>
<g id="a_node13"><a xlink:href="a01593.html#aa81f62db69978b90ff701f05c72e03a7" target="_top" xlink:title="create a JSON value from an input in UBJSON format">
<polygon fill="white" stroke="black" points="147,-49.5 147,-79.5 258,-79.5 258,-49.5 147,-49.5"/>
<text text-anchor="start" x="155" y="-67.5" font-family="Helvetica,sans-Serif" font-size="10.00">nlohmann::basic_json</text>
<text text-anchor="middle" x="202.5" y="-56.5" font-family="Helvetica,sans-Serif" font-size="10.00">::from_ubjson</text>
</a>
</g>
</g>
<!-- Node6&#45;&gt;Node13 -->
<g id="edge16" class="edge">
<title>Node6&#45;&gt;Node13</title>
<path fill="none" stroke="midnightblue" d="M302.15,-95.39C285.51,-90.18 267.55,-84.55 251.57,-79.55"/>
<polygon fill="midnightblue" stroke="midnightblue" points="301.18,-98.75 311.77,-98.4 303.27,-92.07 301.18,-98.75"/>
</g>
<!-- Node15 -->
<g id="node15" class="node">
<title>Node15</title>
<g id="a_node15"><a xlink:href="a01593.html#a12b382c6407da5543827ce4b24bb5008" target="_top" xlink:title="generate SAX events">
<polygon fill="white" stroke="black" points="147,-0.5 147,-30.5 258,-30.5 258,-0.5 147,-0.5"/>
<text text-anchor="start" x="155" y="-18.5" font-family="Helvetica,sans-Serif" font-size="10.00">nlohmann::basic_json</text>
<text text-anchor="middle" x="202.5" y="-7.5" font-family="Helvetica,sans-Serif" font-size="10.00">::sax_parse</text>
</a>
</g>
</g>
<!-- Node6&#45;&gt;Node15 -->
<g id="edge18" class="edge">
<title>Node6&#45;&gt;Node15</title>
<path fill="none" stroke="midnightblue" d="M308.29,-93.75C303.26,-90.97 298.4,-87.88 294,-84.5 273.69,-68.9 278.31,-55.11 258,-39.5 253.66,-36.16 248.77,-33.17 243.76,-30.54"/>
<polygon fill="midnightblue" stroke="midnightblue" points="306.96,-97 317.45,-98.44 310.15,-90.77 306.96,-97"/>
</g>
<!-- Node8 -->
<g id="node8" class="node">
<title>Node8</title>
<g id="a_node8"><a xlink:href="a01593.html#ae2612581e4788ddffc2f45d5e4cc04fc" target="_top" xlink:title=" ">
<polygon fill="white" stroke="black" points="0,-196.5 0,-226.5 111,-226.5 111,-196.5 0,-196.5"/>
<text text-anchor="start" x="8" y="-214.5" font-family="Helvetica,sans-Serif" font-size="10.00">nlohmann::basic_json</text>
<text text-anchor="middle" x="55.5" y="-203.5" font-family="Helvetica,sans-Serif" font-size="10.00">::from_bson</text>
</a>
</g>
</g>
<!-- Node7&#45;&gt;Node8 -->
<g id="edge11" class="edge">
<title>Node7&#45;&gt;Node8</title>
<path fill="none" stroke="midnightblue" d="M136.54,-211.5C128.14,-211.5 119.61,-211.5 111.4,-211.5"/>
<polygon fill="midnightblue" stroke="midnightblue" points="136.68,-215 146.68,-211.5 136.68,-208 136.68,-215"/>
</g>
<!-- Node10 -->
<g id="node10" class="node">
<title>Node10</title>
<g id="a_node10"><a xlink:href="a01593.html#a188755c8cda27e2afb03c016c14125d8" target="_top" xlink:title=" ">
<polygon fill="white" stroke="black" points="0,-147.5 0,-177.5 111,-177.5 111,-147.5 0,-147.5"/>
<text text-anchor="start" x="8" y="-165.5" font-family="Helvetica,sans-Serif" font-size="10.00">nlohmann::basic_json</text>
<text text-anchor="middle" x="55.5" y="-154.5" font-family="Helvetica,sans-Serif" font-size="10.00">::from_cbor</text>
</a>
</g>
</g>
<!-- Node9&#45;&gt;Node10 -->
<g id="edge13" class="edge">
<title>Node9&#45;&gt;Node10</title>
<path fill="none" stroke="midnightblue" d="M136.54,-162.5C128.14,-162.5 119.61,-162.5 111.4,-162.5"/>
<polygon fill="midnightblue" stroke="midnightblue" points="136.68,-166 146.68,-162.5 136.68,-159 136.68,-166"/>
</g>
<!-- Node12 -->
<g id="node12" class="node">
<title>Node12</title>
<g id="a_node12"><a xlink:href="a01593.html#a0d69d3102639759d5202a6f764760d23" target="_top" xlink:title=" ">
<polygon fill="white" stroke="black" points="0,-98.5 0,-128.5 111,-128.5 111,-98.5 0,-98.5"/>
<text text-anchor="start" x="8" y="-116.5" font-family="Helvetica,sans-Serif" font-size="10.00">nlohmann::basic_json</text>
<text text-anchor="middle" x="55.5" y="-105.5" font-family="Helvetica,sans-Serif" font-size="10.00">::from_msgpack</text>
</a>
</g>
</g>
<!-- Node11&#45;&gt;Node12 -->
<g id="edge15" class="edge">
<title>Node11&#45;&gt;Node12</title>
<path fill="none" stroke="midnightblue" d="M136.54,-113.5C128.14,-113.5 119.61,-113.5 111.4,-113.5"/>
<polygon fill="midnightblue" stroke="midnightblue" points="136.68,-117 146.68,-113.5 136.68,-110 136.68,-117"/>
</g>
<!-- Node14 -->
<g id="node14" class="node">
<title>Node14</title>
<g id="a_node14"><a xlink:href="a01593.html#ab6eeda23c34cee79d8d72f1a8691a8de" target="_top" xlink:title=" ">
<polygon fill="white" stroke="black" points="0,-49.5 0,-79.5 111,-79.5 111,-49.5 0,-49.5"/>
<text text-anchor="start" x="8" y="-67.5" font-family="Helvetica,sans-Serif" font-size="10.00">nlohmann::basic_json</text>
<text text-anchor="middle" x="55.5" y="-56.5" font-family="Helvetica,sans-Serif" font-size="10.00">::from_ubjson</text>
</a>
</g>
</g>
<!-- Node13&#45;&gt;Node14 -->
<g id="edge17" class="edge">
<title>Node13&#45;&gt;Node14</title>
<path fill="none" stroke="midnightblue" d="M136.54,-64.5C128.14,-64.5 119.61,-64.5 111.4,-64.5"/>
<polygon fill="midnightblue" stroke="midnightblue" points="136.68,-68 146.68,-64.5 136.68,-61 136.68,-68"/>
</g>
</g>
</svg>
