<?xml version="1.0" encoding="UTF-8" standalone="no"?>
<!DOCTYPE svg PUBLIC "-//W3C//DTD SVG 1.1//EN"
 "http://www.w3.org/Graphics/SVG/1.1/DTD/svg11.dtd">
<!-- Generated by graphviz version 8.0.5 (20230430.1635)
 -->
<!-- Title: nlohmann::detail::binary_writer::write_number Pages: 1 -->
<svg width="976pt" height="311pt"
 viewBox="0.00 0.00 975.50 311.00" xmlns="http://www.w3.org/2000/svg" xmlns:xlink="http://www.w3.org/1999/xlink">
<g id="graph0" class="graph" transform="scale(1 1) rotate(0) translate(4 307)">
<title>nlohmann::detail::binary_writer::write_number</title>
<!-- Node1 -->
<g id="node1" class="node">
<title>Node1</title>
<g id="a_node1"><a xlink:title=" ">
<polygon fill="#999999" stroke="#666666" points="967.5,-150 848,-150 848,-118 967.5,-118 967.5,-150"/>
<text text-anchor="start" x="856" y="-136.5" font-family="Helvetica,sans-Serif" font-size="10.00">nlohmann::detail::binary</text>
<text text-anchor="middle" x="907.75" y="-124.5" font-family="Helvetica,sans-Serif" font-size="10.00">_writer::write_number</text>
</a>
</g>
</g>
<!-- Node2 -->
<g id="node2" class="node">
<title>Node2</title>
<g id="a_node2"><a xlink:href="a01973.html#a97d34d9a70ddc06ae782c55454df42bc" target="_top" xlink:title="Writes a BSON element with key name and binary value value.">
<polygon fill="white" stroke="#666666" points="807.88,-241 679.38,-241 679.38,-209 807.88,-209 807.88,-241"/>
<text text-anchor="start" x="687.38" y="-227.5" font-family="Helvetica,sans-Serif" font-size="10.00">nlohmann::detail::binary</text>
<text text-anchor="middle" x="743.63" y="-215.5" font-family="Helvetica,sans-Serif" font-size="10.00">_writer::write_bson_binary</text>
</a>
</g>
</g>
<!-- Node1&#45;&gt;Node2 -->
<g id="edge1" class="edge">
<title>Node1&#45;&gt;Node2</title>
<path fill="none" stroke="#63b8ff" d="M872.52,-156.02C854.71,-167.21 832.44,-180.77 812,-192 801.61,-197.71 790.1,-203.53 779.57,-208.66"/>
<polygon fill="#63b8ff" stroke="#63b8ff" points="873.81,-158.72 880.4,-150.42 870.07,-152.8 873.81,-158.72"/>
</g>
<!-- Node9 -->
<g id="node9" class="node">
<title>Node9</title>
<g id="a_node9"><a xlink:href="a01973.html#aa0ab8d27fd88a33a2f801413ac4c7fbc" target="_top" xlink:title=" ">
<polygon fill="white" stroke="#666666" points="630.63,-174 511.13,-174 511.13,-142 630.63,-142 630.63,-174"/>
<text text-anchor="start" x="519.13" y="-160.5" font-family="Helvetica,sans-Serif" font-size="10.00">nlohmann::detail::binary</text>
<text text-anchor="middle" x="570.88" y="-148.5" font-family="Helvetica,sans-Serif" font-size="10.00">_writer::write_cbor</text>
</a>
</g>
</g>
<!-- Node1&#45;&gt;Node9 -->
<g id="edge10" class="edge">
<title>Node1&#45;&gt;Node9</title>
<path fill="none" stroke="#63b8ff" d="M843.75,-153.03C833.23,-155.51 822.38,-157.65 812,-159 750.61,-166.96 679.64,-165.35 630.86,-162.59"/>
<polygon fill="#63b8ff" stroke="#63b8ff" points="844.25,-156.27 853.11,-150.46 842.56,-149.47 844.25,-156.27"/>
</g>
<!-- Node11 -->
<g id="node11" class="node">
<title>Node11</title>
<g id="a_node11"><a xlink:href="a01973.html#ae69dc3c5b2e8c1c8e461779cddb87436" target="_top" xlink:title=" ">
<polygon fill="white" stroke="#666666" points="812,-150 675.25,-150 675.25,-118 812,-118 812,-150"/>
<text text-anchor="start" x="683.25" y="-136.5" font-family="Helvetica,sans-Serif" font-size="10.00">nlohmann::detail::binary</text>
<text text-anchor="middle" x="743.63" y="-124.5" font-family="Helvetica,sans-Serif" font-size="10.00">_writer::write_compact_float</text>
</a>
</g>
</g>
<!-- Node1&#45;&gt;Node11 -->
<g id="edge13" class="edge">
<title>Node1&#45;&gt;Node11</title>
<path fill="none" stroke="#63b8ff" d="M836.82,-134C828.71,-134 820.45,-134 812.37,-134"/>
<polygon fill="#63b8ff" stroke="#63b8ff" points="836.76,-137.5 846.76,-134 836.76,-130.5 836.76,-137.5"/>
</g>
<!-- Node12 -->
<g id="node12" class="node">
<title>Node12</title>
<g id="a_node12"><a xlink:href="a01973.html#ae4e0852b64102ce4b07d99f08f828b7c" target="_top" xlink:title=" ">
<polygon fill="white" stroke="#666666" points="630.63,-106 511.13,-106 511.13,-74 630.63,-74 630.63,-106"/>
<text text-anchor="start" x="519.13" y="-92.5" font-family="Helvetica,sans-Serif" font-size="10.00">nlohmann::detail::binary</text>
<text text-anchor="middle" x="570.88" y="-80.5" font-family="Helvetica,sans-Serif" font-size="10.00">_writer::write_msgpack</text>
</a>
</g>
</g>
<!-- Node1&#45;&gt;Node12 -->
<g id="edge18" class="edge">
<title>Node1&#45;&gt;Node12</title>
<path fill="none" stroke="#63b8ff" d="M840.41,-114.89C830.94,-112.63 821.26,-110.58 812,-109 750.78,-98.59 679.78,-93.86 630.95,-91.73"/>
<polygon fill="#63b8ff" stroke="#63b8ff" points="839.45,-118.51 850,-117.52 841.13,-111.71 839.45,-118.51"/>
</g>
<!-- Node14 -->
<g id="node14" class="node">
<title>Node14</title>
<g id="a_node14"><a xlink:href="a01973.html#a0ea6745f944c0c61672146886b4ee90f" target="_top" xlink:title=" ">
<polygon fill="white" stroke="#666666" points="809,-44 678.25,-44 678.25,0 809,0 809,-44"/>
<text text-anchor="start" x="686.25" y="-30.5" font-family="Helvetica,sans-Serif" font-size="10.00">nlohmann::detail::binary</text>
<text text-anchor="start" x="686.25" y="-18.5" font-family="Helvetica,sans-Serif" font-size="10.00">_writer::write_number_with</text>
<text text-anchor="middle" x="743.63" y="-6.5" font-family="Helvetica,sans-Serif" font-size="10.00">_ubjson_prefix</text>
</a>
</g>
</g>
<!-- Node1&#45;&gt;Node14 -->
<g id="edge19" class="edge">
<title>Node1&#45;&gt;Node14</title>
<path fill="none" stroke="#63b8ff" d="M874.46,-111.69C846.15,-92.14 805.21,-63.85 776.9,-44.3"/>
<polygon fill="#63b8ff" stroke="#63b8ff" points="871.96,-114.91 882.18,-117.71 875.94,-109.15 871.96,-114.91"/>
</g>
<!-- Node3 -->
<g id="node3" class="node">
<title>Node3</title>
<g id="a_node3"><a xlink:href="a01973.html#a7ff58bf1a80018148bed860667ffca07" target="_top" xlink:title="Serializes the JSON value j to BSON and associates it with the key name.">
<polygon fill="white" stroke="#666666" points="639.25,-253 502.5,-253 502.5,-221 639.25,-221 639.25,-253"/>
<text text-anchor="start" x="510.5" y="-239.5" font-family="Helvetica,sans-Serif" font-size="10.00">nlohmann::detail::binary</text>
<text text-anchor="middle" x="570.88" y="-227.5" font-family="Helvetica,sans-Serif" font-size="10.00">_writer::write_bson_element</text>
</a>
</g>
</g>
<!-- Node2&#45;&gt;Node3 -->
<g id="edge2" class="edge">
<title>Node2&#45;&gt;Node3</title>
<path fill="none" stroke="#63b8ff" d="M668.33,-230.22C658.75,-230.89 648.98,-231.58 639.51,-232.25"/>
<polygon fill="#63b8ff" stroke="#63b8ff" points="668.31,-233.66 678.04,-229.47 667.82,-226.68 668.31,-233.66"/>
</g>
<!-- Node4 -->
<g id="node4" class="node">
<title>Node4</title>
<g id="a_node4"><a xlink:href="a01973.html#a025212bd170253638b9f05b3b6aa5bf9" target="_top" xlink:title="Writes a BSON element with key name and array value.">
<polygon fill="white" stroke="#666666" points="464.25,-303 340.25,-303 340.25,-271 464.25,-271 464.25,-303"/>
<text text-anchor="start" x="348.25" y="-289.5" font-family="Helvetica,sans-Serif" font-size="10.00">nlohmann::detail::binary</text>
<text text-anchor="middle" x="402.25" y="-277.5" font-family="Helvetica,sans-Serif" font-size="10.00">_writer::write_bson_array</text>
</a>
</g>
</g>
<!-- Node3&#45;&gt;Node4 -->
<g id="edge3" class="edge">
<title>Node3&#45;&gt;Node4</title>
<path fill="none" stroke="#63b8ff" d="M491.63,-253.74C473.21,-259.19 454.46,-265.17 439,-270.62"/>
<polygon fill="#63b8ff" stroke="#63b8ff" points="492.48,-256.85 501.1,-250.69 490.52,-250.13 492.48,-256.85"/>
</g>
<!-- Node5 -->
<g id="node5" class="node">
<title>Node5</title>
<g id="a_node5"><a xlink:href="a01973.html#a29b3e0f83a8e5f2307804023109ba2c9" target="_top" xlink:title=" ">
<polygon fill="white" stroke="#666666" points="466.5,-253 338,-253 338,-221 466.5,-221 466.5,-253"/>
<text text-anchor="start" x="346" y="-239.5" font-family="Helvetica,sans-Serif" font-size="10.00">nlohmann::detail::binary</text>
<text text-anchor="middle" x="402.25" y="-227.5" font-family="Helvetica,sans-Serif" font-size="10.00">_writer::write_bson_object</text>
</a>
</g>
</g>
<!-- Node3&#45;&gt;Node5 -->
<g id="edge5" class="edge">
<title>Node3&#45;&gt;Node5</title>
<path fill="none" stroke="#63b8ff" d="M491.11,-237C483.01,-237 474.84,-237 466.93,-237"/>
<polygon fill="#63b8ff" stroke="#63b8ff" points="491.1,-240.5 501.1,-237 491.1,-233.5 491.1,-240.5"/>
</g>
<!-- Node4&#45;&gt;Node3 -->
<g id="edge4" class="edge">
<title>Node4&#45;&gt;Node3</title>
<path fill="none" stroke="#63b8ff" d="M475.08,-272.14C495.51,-266.21 516.87,-259.46 534.13,-253.38"/>
<polygon fill="#63b8ff" stroke="#63b8ff" points="474.17,-269.04 465.51,-275.15 476.09,-275.77 474.17,-269.04"/>
</g>
<!-- Node6 -->
<g id="node6" class="node">
<title>Node6</title>
<g id="a_node6"><a xlink:href="a01973.html#a9ffc566db5219b473762462234b47db9" target="_top" xlink:title=" ">
<polygon fill="white" stroke="#666666" points="284,-259 164.5,-259 164.5,-227 284,-227 284,-259"/>
<text text-anchor="start" x="172.5" y="-245.5" font-family="Helvetica,sans-Serif" font-size="10.00">nlohmann::detail::binary</text>
<text text-anchor="middle" x="224.25" y="-233.5" font-family="Helvetica,sans-Serif" font-size="10.00">_writer::write_bson</text>
</a>
</g>
</g>
<!-- Node5&#45;&gt;Node6 -->
<g id="edge6" class="edge">
<title>Node5&#45;&gt;Node6</title>
<path fill="none" stroke="#63b8ff" d="M326.94,-239.53C312.71,-240.02 297.98,-240.52 284.3,-240.99"/>
<polygon fill="#63b8ff" stroke="#63b8ff" points="326.84,-243 336.71,-239.17 326.6,-236.01 326.84,-243"/>
</g>
<!-- Node8 -->
<g id="node8" class="node">
<title>Node8</title>
<g id="a_node8"><a xlink:href="a01973.html#a6231302930265eccb3f56c378f7b0661" target="_top" xlink:title="Writes a BSON element with key name and object value.">
<polygon fill="white" stroke="#666666" points="302,-209 146.5,-209 146.5,-177 302,-177 302,-209"/>
<text text-anchor="start" x="154.5" y="-195.5" font-family="Helvetica,sans-Serif" font-size="10.00">nlohmann::detail::binary</text>
<text text-anchor="middle" x="224.25" y="-183.5" font-family="Helvetica,sans-Serif" font-size="10.00">_writer::write_bson_object_entry</text>
</a>
</g>
</g>
<!-- Node5&#45;&gt;Node8 -->
<g id="edge8" class="edge">
<title>Node5&#45;&gt;Node8</title>
<path fill="none" stroke="#63b8ff" d="M327.26,-218.5C315.25,-215.5 302.87,-212.41 291.07,-209.45"/>
<polygon fill="#63b8ff" stroke="#63b8ff" points="326.16,-222.09 336.71,-221.11 327.86,-215.29 326.16,-222.09"/>
</g>
<!-- Node7 -->
<g id="node7" class="node">
<title>Node7</title>
<g id="a_node7"><a xlink:href="a01593.html#a668e4c2ad9808218a25879700f4aef2b" target="_top" xlink:title="Serializes the given JSON object j to BSON and forwards the corresponding BSON&#45;representation to the ...">
<polygon fill="white" stroke="#666666" points="110.5,-259 0,-259 0,-227 110.5,-227 110.5,-259"/>
<text text-anchor="start" x="8" y="-245.5" font-family="Helvetica,sans-Serif" font-size="10.00">nlohmann::basic_json</text>
<text text-anchor="middle" x="55.25" y="-233.5" font-family="Helvetica,sans-Serif" font-size="10.00">::to_bson</text>
</a>
</g>
</g>
<!-- Node6&#45;&gt;Node7 -->
<g id="edge7" class="edge">
<title>Node6&#45;&gt;Node7</title>
<path fill="none" stroke="#63b8ff" d="M153.62,-243C139.38,-243 124.59,-243 110.97,-243"/>
<polygon fill="#63b8ff" stroke="#63b8ff" points="153.37,-246.5 163.37,-243 153.37,-239.5 153.37,-246.5"/>
</g>
<!-- Node8&#45;&gt;Node3 -->
<g id="edge9" class="edge">
<title>Node8&#45;&gt;Node3</title>
<path fill="none" stroke="#63b8ff" d="M313.3,-196.57C359.18,-199.28 416.09,-203.97 466.5,-212 480.27,-214.19 494.91,-217.27 508.7,-220.51"/>
<polygon fill="#63b8ff" stroke="#63b8ff" points="313.67,-193.03 303.49,-195.96 313.27,-200.02 313.67,-193.03"/>
</g>
<!-- Node9&#45;&gt;Node9 -->
<g id="edge12" class="edge">
<title>Node9&#45;&gt;Node9</title>
<path fill="none" stroke="#63b8ff" d="M599.73,-185.05C595.35,-189.19 585.73,-192 570.88,-192 545.19,-192 535.15,-183.58 540.77,-174.44"/>
<polygon fill="#63b8ff" stroke="#63b8ff" points="603.29,-185.78 600.98,-175.44 596.34,-184.97 603.29,-185.78"/>
</g>
<!-- Node10 -->
<g id="node10" class="node">
<title>Node10</title>
<g id="a_node10"><a xlink:href="a01593.html#a2becf604016783e5644eaa7782a08683" target="_top" xlink:title=" ">
<polygon fill="white" stroke="#666666" points="457.5,-165 347,-165 347,-133 457.5,-133 457.5,-165"/>
<text text-anchor="start" x="355" y="-151.5" font-family="Helvetica,sans-Serif" font-size="10.00">nlohmann::basic_json</text>
<text text-anchor="middle" x="402.25" y="-139.5" font-family="Helvetica,sans-Serif" font-size="10.00">::to_cbor</text>
</a>
</g>
</g>
<!-- Node9&#45;&gt;Node10 -->
<g id="edge11" class="edge">
<title>Node9&#45;&gt;Node10</title>
<path fill="none" stroke="#63b8ff" d="M500.01,-154.23C485.92,-153.47 471.3,-152.68 457.82,-151.95"/>
<polygon fill="#63b8ff" stroke="#63b8ff" points="499.49,-157.76 509.66,-154.8 499.86,-150.77 499.49,-157.76"/>
</g>
<!-- Node11&#45;&gt;Node9 -->
<g id="edge14" class="edge">
<title>Node11&#45;&gt;Node9</title>
<path fill="none" stroke="#63b8ff" d="M664.4,-144.99C653.12,-146.58 641.68,-148.19 630.86,-149.71"/>
<polygon fill="#63b8ff" stroke="#63b8ff" points="664.72,-148.34 674.14,-143.49 663.75,-141.41 664.72,-148.34"/>
</g>
<!-- Node11&#45;&gt;Node12 -->
<g id="edge15" class="edge">
<title>Node11&#45;&gt;Node12</title>
<path fill="none" stroke="#63b8ff" d="M668.59,-114.92C656.02,-111.68 643.11,-108.36 630.99,-105.23"/>
<polygon fill="#63b8ff" stroke="#63b8ff" points="667.49,-118.51 678.04,-117.62 669.23,-111.73 667.49,-118.51"/>
</g>
<!-- Node12&#45;&gt;Node12 -->
<g id="edge17" class="edge">
<title>Node12&#45;&gt;Node12</title>
<path fill="none" stroke="#63b8ff" d="M599.73,-117.05C595.35,-121.19 585.73,-124 570.88,-124 545.19,-124 535.15,-115.58 540.77,-106.44"/>
<polygon fill="#63b8ff" stroke="#63b8ff" points="603.29,-117.78 600.98,-107.44 596.34,-116.97 603.29,-117.78"/>
</g>
<!-- Node13 -->
<g id="node13" class="node">
<title>Node13</title>
<g id="a_node13"><a xlink:href="a01593.html#aa8fe46eda86f6f92c5599c20b6c81819" target="_top" xlink:title=" ">
<polygon fill="white" stroke="#666666" points="457.5,-106 347,-106 347,-74 457.5,-74 457.5,-106"/>
<text text-anchor="start" x="355" y="-92.5" font-family="Helvetica,sans-Serif" font-size="10.00">nlohmann::basic_json</text>
<text text-anchor="middle" x="402.25" y="-80.5" font-family="Helvetica,sans-Serif" font-size="10.00">::to_msgpack</text>
</a>
</g>
</g>
<!-- Node12&#45;&gt;Node13 -->
<g id="edge16" class="edge">
<title>Node12&#45;&gt;Node13</title>
<path fill="none" stroke="#63b8ff" d="M500.01,-90C485.92,-90 471.3,-90 457.82,-90"/>
<polygon fill="#63b8ff" stroke="#63b8ff" points="499.66,-93.5 509.66,-90 499.66,-86.5 499.66,-93.5"/>
</g>
<!-- Node14&#45;&gt;Node14 -->
<g id="edge20" class="edge">
<title>Node14&#45;&gt;Node14</title>
<path fill="none" stroke="#63b8ff" d="M771.17,-54.4C766.68,-58.95 757.49,-62 743.63,-62 720.87,-62 710.73,-53.8 713.22,-44.21"/>
<polygon fill="#63b8ff" stroke="#63b8ff" points="774.7,-55.79 774.03,-45.21 767.96,-53.89 774.7,-55.79"/>
</g>
<!-- Node15 -->
<g id="node15" class="node">
<title>Node15</title>
<g id="a_node15"><a xlink:href="a01973.html#a0f6c65053d859269f88eb4ebb0cd7060" target="_top" xlink:title=" ">
<polygon fill="white" stroke="#666666" points="630.63,-38 511.13,-38 511.13,-6 630.63,-6 630.63,-38"/>
<text text-anchor="start" x="519.13" y="-24.5" font-family="Helvetica,sans-Serif" font-size="10.00">nlohmann::detail::binary</text>
<text text-anchor="middle" x="570.88" y="-12.5" font-family="Helvetica,sans-Serif" font-size="10.00">_writer::write_ubjson</text>
</a>
</g>
</g>
<!-- Node14&#45;&gt;Node15 -->
<g id="edge21" class="edge">
<title>Node14&#45;&gt;Node15</title>
<path fill="none" stroke="#63b8ff" d="M667.42,-22C655.19,-22 642.67,-22 630.9,-22"/>
<polygon fill="#63b8ff" stroke="#63b8ff" points="667.07,-25.5 677.07,-22 667.07,-18.5 667.07,-25.5"/>
</g>
<!-- Node15&#45;&gt;Node15 -->
<g id="edge23" class="edge">
<title>Node15&#45;&gt;Node15</title>
<path fill="none" stroke="#63b8ff" d="M599.73,-49.05C595.35,-53.19 585.73,-56 570.88,-56 545.19,-56 535.15,-47.58 540.77,-38.44"/>
<polygon fill="#63b8ff" stroke="#63b8ff" points="603.29,-49.78 600.98,-39.44 596.34,-48.97 603.29,-49.78"/>
</g>
<!-- Node16 -->
<g id="node16" class="node">
<title>Node16</title>
<g id="a_node16"><a xlink:href="a01593.html#a19dad92c4fe9e6a289a93195e1230e97" target="_top" xlink:title=" ">
<polygon fill="white" stroke="#666666" points="457.5,-38 347,-38 347,-6 457.5,-6 457.5,-38"/>
<text text-anchor="start" x="355" y="-24.5" font-family="Helvetica,sans-Serif" font-size="10.00">nlohmann::basic_json</text>
<text text-anchor="middle" x="402.25" y="-12.5" font-family="Helvetica,sans-Serif" font-size="10.00">::to_ubjson</text>
</a>
</g>
</g>
<!-- Node15&#45;&gt;Node16 -->
<g id="edge22" class="edge">
<title>Node15&#45;&gt;Node16</title>
<path fill="none" stroke="#63b8ff" d="M500.01,-22C485.92,-22 471.3,-22 457.82,-22"/>
<polygon fill="#63b8ff" stroke="#63b8ff" points="499.66,-25.5 509.66,-22 499.66,-18.5 499.66,-25.5"/>
</g>
</g>
</svg>
