<?xml version="1.0" encoding="UTF-8" standalone="no"?>
<!DOCTYPE svg PUBLIC "-//W3C//DTD SVG 1.1//EN"
 "http://www.w3.org/Graphics/SVG/1.1/DTD/svg11.dtd">
<!-- Generated by graphviz version 4.0.0 (20220529.0937)
 -->
<!-- Title: nlohmann::detail::lexer&lt; BasicJsonType, InputAdapterType &gt; Pages: 1 -->
<svg width="160pt" height="117pt"
 viewBox="0.00 0.00 160.00 117.00" xmlns="http://www.w3.org/2000/svg" xmlns:xlink="http://www.w3.org/1999/xlink">
<g id="graph0" class="graph" transform="scale(1 1) rotate(0) translate(4 113)">
<title>nlohmann::detail::lexer&lt; BasicJsonType, InputAdapterType &gt;</title>
<polygon fill="white" stroke="transparent" points="-4,4 -4,-113 156,-113 156,4 -4,4"/>
<!-- Node1 -->
<g id="node1" class="node">
<title>Node1</title>
<g id="a_node1"><a xlink:title="lexical analysis">
<polygon fill="#bfbfbf" stroke="black" points="0,-0.5 0,-41.5 152,-41.5 152,-0.5 0,-0.5"/>
<text text-anchor="start" x="8" y="-29.5" font-family="Helvetica,sans-Serif" font-size="10.00">nlohmann::detail::lexer</text>
<text text-anchor="start" x="8" y="-18.5" font-family="Helvetica,sans-Serif" font-size="10.00">&lt; BasicJsonType, InputAdapter</text>
<text text-anchor="middle" x="76" y="-7.5" font-family="Helvetica,sans-Serif" font-size="10.00">Type &gt;</text>
</a>
</g>
</g>
<!-- Node2 -->
<g id="node2" class="node">
<title>Node2</title>
<g id="a_node2"><a xlink:href="a01913.html" target="_top" xlink:title=" ">
<polygon fill="white" stroke="black" points="12.5,-78.5 12.5,-108.5 139.5,-108.5 139.5,-78.5 12.5,-78.5"/>
<text text-anchor="start" x="20.5" y="-96.5" font-family="Helvetica,sans-Serif" font-size="10.00">nlohmann::detail::lexer</text>
<text text-anchor="middle" x="76" y="-85.5" font-family="Helvetica,sans-Serif" font-size="10.00">_base&lt; BasicJsonType &gt;</text>
</a>
</g>
</g>
<!-- Node2&#45;&gt;Node1 -->
<g id="edge1" class="edge">
<title>Node2&#45;&gt;Node1</title>
<path fill="none" stroke="midnightblue" d="M76,-67.98C76,-59.35 76,-49.76 76,-41.59"/>
<polygon fill="midnightblue" stroke="midnightblue" points="72.5,-68.23 76,-78.23 79.5,-68.23 72.5,-68.23"/>
</g>
</g>
</svg>
