<?xml version="1.0" encoding="UTF-8" standalone="no"?>
<!DOCTYPE svg PUBLIC "-//W3C//DTD SVG 1.1//EN"
 "http://www.w3.org/Graphics/SVG/1.1/DTD/svg11.dtd">
<!-- Generated by graphviz version 7.0.4 (20221203.1631)
 -->
<!-- Title: nlohmann::detail::parser::sax_parse_internal Pages: 1 -->
<svg width="458pt" height="182pt"
 viewBox="0.00 0.00 458.00 182.00" xmlns="http://www.w3.org/2000/svg" xmlns:xlink="http://www.w3.org/1999/xlink">
<g id="graph0" class="graph" transform="scale(1 1) rotate(0) translate(4 178)">
<title>nlohmann::detail::parser::sax_parse_internal</title>
<!-- Node1 -->
<g id="node1" class="node">
<title>Node1</title>
<g id="a_node1"><a xlink:title=" ">
<polygon fill="#999999" stroke="#666666" points="121,-102 0,-102 0,-72 121,-72 121,-102"/>
<text text-anchor="start" x="8" y="-90" font-family="Helvetica,sans-Serif" font-size="10.00">nlohmann::detail::parser</text>
<text text-anchor="middle" x="60.5" y="-79" font-family="Helvetica,sans-Serif" font-size="10.00">::sax_parse_internal</text>
</a>
</g>
</g>
<!-- Node2 -->
<g id="node2" class="node">
<title>Node2</title>
<g id="a_node2"><a xlink:href="a01497.html#a137ea4d27de45d8a844fd13451d40f3d" target="_top" xlink:title="create a parse error exception">
<polygon fill="white" stroke="#666666" points="276.5,-126 158.5,-126 158.5,-96 276.5,-96 276.5,-126"/>
<text text-anchor="start" x="166.5" y="-114" font-family="Helvetica,sans-Serif" font-size="10.00">nlohmann::detail::parse</text>
<text text-anchor="middle" x="217.5" y="-103" font-family="Helvetica,sans-Serif" font-size="10.00">_error::create</text>
</a>
</g>
</g>
<!-- Node1&#45;&gt;Node2 -->
<g id="edge1" class="edge">
<title>Node1&#45;&gt;Node2</title>
<path fill="none" stroke="#63b8ff" d="M121.43,-96.28C129.69,-97.56 138.22,-98.88 146.64,-100.18"/>
<polygon fill="#63b8ff" stroke="#63b8ff" points="146.09,-103.64 156.51,-101.71 147.16,-96.72 146.09,-103.64"/>
</g>
<!-- Node5 -->
<g id="node5" class="node">
<title>Node5</title>
<g id="a_node5"><a xlink:href="a01509.html#a3f6d82a6f967c4728a1ec735a7867073" target="_top" xlink:title=" ">
<polygon fill="white" stroke="#666666" points="271,-174 164,-174 164,-144 271,-144 271,-174"/>
<text text-anchor="start" x="172" y="-162" font-family="Helvetica,sans-Serif" font-size="10.00">nlohmann::detail::out</text>
<text text-anchor="middle" x="217.5" y="-151" font-family="Helvetica,sans-Serif" font-size="10.00">_of_range::create</text>
</a>
</g>
</g>
<!-- Node1&#45;&gt;Node5 -->
<g id="edge4" class="edge">
<title>Node1&#45;&gt;Node5</title>
<path fill="none" stroke="#63b8ff" d="M90.46,-102.33C109.24,-112.09 134.34,-124.76 157,-135 160.1,-136.4 163.3,-137.81 166.54,-139.2"/>
<polygon fill="#63b8ff" stroke="#63b8ff" points="164.97,-142.34 175.54,-142.99 167.68,-135.88 164.97,-142.34"/>
</g>
<!-- Node6 -->
<g id="node6" class="node">
<title>Node6</title>
<g id="a_node6"><a xlink:href="a01933.html#a94e7f8a0f880c20c8a48f591f56cbd85" target="_top" xlink:title=" ">
<polygon fill="white" stroke="#666666" points="278,-78 157,-78 157,-48 278,-48 278,-78"/>
<text text-anchor="start" x="165" y="-66" font-family="Helvetica,sans-Serif" font-size="10.00">nlohmann::detail::parser</text>
<text text-anchor="middle" x="217.5" y="-55" font-family="Helvetica,sans-Serif" font-size="10.00">::exception_message</text>
</a>
</g>
</g>
<!-- Node1&#45;&gt;Node6 -->
<g id="edge6" class="edge">
<title>Node1&#45;&gt;Node6</title>
<path fill="none" stroke="#63b8ff" d="M121.43,-77.72C129.3,-76.5 137.43,-75.24 145.47,-74"/>
<polygon fill="#63b8ff" stroke="#63b8ff" points="145.89,-77.47 155.24,-72.49 144.82,-70.56 145.89,-77.47"/>
</g>
<!-- Node7 -->
<g id="node7" class="node">
<title>Node7</title>
<g id="a_node7"><a xlink:href="a01933.html#a1212088ee1e23633a76b2ed80514de79" target="_top" xlink:title="get next token from lexer">
<polygon fill="white" stroke="#666666" points="278,-30 157,-30 157,0 278,0 278,-30"/>
<text text-anchor="start" x="165" y="-18" font-family="Helvetica,sans-Serif" font-size="10.00">nlohmann::detail::parser</text>
<text text-anchor="middle" x="217.5" y="-7" font-family="Helvetica,sans-Serif" font-size="10.00">::get_token</text>
</a>
</g>
</g>
<!-- Node1&#45;&gt;Node7 -->
<g id="edge7" class="edge">
<title>Node1&#45;&gt;Node7</title>
<path fill="none" stroke="#63b8ff" d="M90.46,-71.67C109.24,-61.91 134.34,-49.24 157,-39 160.1,-37.6 163.3,-36.19 166.54,-34.8"/>
<polygon fill="#63b8ff" stroke="#63b8ff" points="167.68,-38.12 175.54,-31.01 164.97,-31.66 167.68,-38.12"/>
</g>
<!-- Node3 -->
<g id="node3" class="node">
<title>Node3</title>
<g id="a_node3"><a xlink:href="a01493.html#abf41a7e9178356314082284e6cfea278" target="_top" xlink:title=" ">
<polygon fill="white" stroke="#666666" points="450,-174 314,-174 314,-144 450,-144 450,-174"/>
<text text-anchor="start" x="322" y="-162" font-family="Helvetica,sans-Serif" font-size="10.00">nlohmann::detail::exception</text>
<text text-anchor="middle" x="382" y="-151" font-family="Helvetica,sans-Serif" font-size="10.00">::name</text>
</a>
</g>
</g>
<!-- Node2&#45;&gt;Node3 -->
<g id="edge2" class="edge">
<title>Node2&#45;&gt;Node3</title>
<path fill="none" stroke="#63b8ff" d="M270.81,-126.45C285.89,-130.91 302.49,-135.81 318.14,-140.43"/>
<polygon fill="#63b8ff" stroke="#63b8ff" points="316.75,-143.67 327.34,-143.15 318.74,-136.96 316.75,-143.67"/>
</g>
<!-- Node4 -->
<g id="node4" class="node">
<title>Node4</title>
<g id="a_node4"><a xlink:href="a01497.html#aefe74adeaa48781464ba2fd2ec63d221" target="_top" xlink:title=" ">
<polygon fill="white" stroke="#666666" points="441,-126 323,-126 323,-96 441,-96 441,-126"/>
<text text-anchor="start" x="331" y="-114" font-family="Helvetica,sans-Serif" font-size="10.00">nlohmann::detail::parse</text>
<text text-anchor="middle" x="382" y="-103" font-family="Helvetica,sans-Serif" font-size="10.00">_error::position_string</text>
</a>
</g>
</g>
<!-- Node2&#45;&gt;Node4 -->
<g id="edge3" class="edge">
<title>Node2&#45;&gt;Node4</title>
<path fill="none" stroke="#63b8ff" d="M276.71,-111C287.91,-111 299.75,-111 311.27,-111"/>
<polygon fill="#63b8ff" stroke="#63b8ff" points="311.14,-114.5 321.14,-111 311.14,-107.5 311.14,-114.5"/>
</g>
<!-- Node5&#45;&gt;Node3 -->
<g id="edge5" class="edge">
<title>Node5&#45;&gt;Node3</title>
<path fill="none" stroke="#63b8ff" d="M271.26,-159C281.2,-159 291.78,-159 302.31,-159"/>
<polygon fill="#63b8ff" stroke="#63b8ff" points="302.17,-162.5 312.17,-159 302.17,-155.5 302.17,-162.5"/>
</g>
</g>
</svg>
