<?xml version="1.0" encoding="UTF-8" standalone="no"?>
<!DOCTYPE svg PUBLIC "-//W3C//DTD SVG 1.1//EN"
 "http://www.w3.org/Graphics/SVG/1.1/DTD/svg11.dtd">
<!-- Generated by graphviz version 7.0.1 (20221109.1506)
 -->
<!-- Title: nlohmann::detail::lexer::scan_number Pages: 1 -->
<svg width="296pt" height="209pt"
 viewBox="0.00 0.00 296.00 208.50" xmlns="http://www.w3.org/2000/svg" xmlns:xlink="http://www.w3.org/1999/xlink">
<g id="graph0" class="graph" transform="scale(1 1) rotate(0) translate(4 204.5)">
<title>nlohmann::detail::lexer::scan_number</title>
<!-- Node1 -->
<g id="node1" class="node">
<title>Node1</title>
<g id="a_node1"><a xlink:title="scan a number literal">
<polygon fill="#999999" stroke="#666666" points="115,-126 0,-126 0,-96 115,-96 115,-126"/>
<text text-anchor="start" x="8" y="-114" font-family="Helvetica,sans-Serif" font-size="10.00">nlohmann::detail::lexer</text>
<text text-anchor="middle" x="57.5" y="-103" font-family="Helvetica,sans-Serif" font-size="10.00">::scan_number</text>
</a>
</g>
</g>
<!-- Node2 -->
<g id="node2" class="node">
<title>Node2</title>
<g id="a_node2"><a xlink:href="a01917.html#a36ffc3c33c3aea18291ead7a30fa7cc6" target="_top" xlink:title="add a character to token_buffer">
<polygon fill="white" stroke="#666666" points="288,-200.5 151,-200.5 151,-181.5 288,-181.5 288,-200.5"/>
<text text-anchor="middle" x="219.5" y="-188.5" font-family="Helvetica,sans-Serif" font-size="10.00">nlohmann::detail::lexer::add</text>
</a>
</g>
</g>
<!-- Node1&#45;&gt;Node2 -->
<g id="edge1" class="edge">
<title>Node1&#45;&gt;Node2</title>
<path fill="none" stroke="#63b8ff" d="M77.24,-126.29C95.19,-140.25 123.53,-160.55 151,-173 154.53,-174.6 158.23,-176.08 162.01,-177.45"/>
<polygon fill="#63b8ff" stroke="#63b8ff" points="160.73,-180.71 171.32,-180.53 162.93,-174.07 160.73,-180.71"/>
</g>
<!-- Node3 -->
<g id="node3" class="node">
<title>Node3</title>
<g id="a_node3"><a xlink:href="a01917.html#a9cd3e4cf04d19be521beb8868c1a2fc9" target="_top" xlink:title=" ">
<polygon fill="white" stroke="#666666" points="286.5,-163.5 152.5,-163.5 152.5,-144.5 286.5,-144.5 286.5,-163.5"/>
<text text-anchor="middle" x="219.5" y="-151.5" font-family="Helvetica,sans-Serif" font-size="10.00">nlohmann::detail::lexer::get</text>
</a>
</g>
</g>
<!-- Node1&#45;&gt;Node3 -->
<g id="edge2" class="edge">
<title>Node1&#45;&gt;Node3</title>
<path fill="none" stroke="#63b8ff" d="M115.36,-126.28C133.34,-131.11 153.02,-136.4 170.33,-141.05"/>
<polygon fill="#63b8ff" stroke="#63b8ff" points="169.29,-144.4 179.86,-143.62 171.11,-137.64 169.29,-144.4"/>
</g>
<!-- Node4 -->
<g id="node4" class="node">
<title>Node4</title>
<g id="a_node4"><a xlink:href="a01917.html#a3bda093837339813916d11fb6e396606" target="_top" xlink:title="reset token_buffer; current character is beginning of token">
<polygon fill="white" stroke="#666666" points="277,-126 162,-126 162,-96 277,-96 277,-126"/>
<text text-anchor="start" x="170" y="-114" font-family="Helvetica,sans-Serif" font-size="10.00">nlohmann::detail::lexer</text>
<text text-anchor="middle" x="219.5" y="-103" font-family="Helvetica,sans-Serif" font-size="10.00">::reset</text>
</a>
</g>
</g>
<!-- Node1&#45;&gt;Node4 -->
<g id="edge3" class="edge">
<title>Node1&#45;&gt;Node4</title>
<path fill="none" stroke="#63b8ff" d="M115.36,-111C126.61,-111 138.53,-111 150.11,-111"/>
<polygon fill="#63b8ff" stroke="#63b8ff" points="150.04,-114.5 160.04,-111 150.04,-107.5 150.04,-114.5"/>
</g>
<!-- Node5 -->
<g id="node5" class="node">
<title>Node5</title>
<g id="a_node5"><a xlink:href="a01917.html#a6d3dffb7bb247a7fd7276d49d3a00dc8" target="_top" xlink:title=" ">
<polygon fill="white" stroke="#666666" points="277,-78 162,-78 162,-48 277,-48 277,-78"/>
<text text-anchor="start" x="170" y="-66" font-family="Helvetica,sans-Serif" font-size="10.00">nlohmann::detail::lexer</text>
<text text-anchor="middle" x="219.5" y="-55" font-family="Helvetica,sans-Serif" font-size="10.00">::strtof</text>
</a>
</g>
</g>
<!-- Node1&#45;&gt;Node5 -->
<g id="edge4" class="edge">
<title>Node1&#45;&gt;Node5</title>
<path fill="none" stroke="#63b8ff" d="M110.01,-95.55C124.71,-91.14 140.89,-86.28 156.16,-81.7"/>
<polygon fill="#63b8ff" stroke="#63b8ff" points="157.07,-85.08 165.64,-78.86 155.06,-78.38 157.07,-85.08"/>
</g>
<!-- Node6 -->
<g id="node6" class="node">
<title>Node6</title>
<g id="a_node6"><a xlink:href="a01917.html#ab5811afe1c3efb0b769f7733b8373c6f" target="_top" xlink:title="unget current character (read it again on next get)">
<polygon fill="white" stroke="#666666" points="277,-30 162,-30 162,0 277,0 277,-30"/>
<text text-anchor="start" x="170" y="-18" font-family="Helvetica,sans-Serif" font-size="10.00">nlohmann::detail::lexer</text>
<text text-anchor="middle" x="219.5" y="-7" font-family="Helvetica,sans-Serif" font-size="10.00">::unget</text>
</a>
</g>
</g>
<!-- Node1&#45;&gt;Node6 -->
<g id="edge5" class="edge">
<title>Node1&#45;&gt;Node6</title>
<path fill="none" stroke="#63b8ff" d="M74.74,-95.71C92.37,-79.78 121.91,-54.95 151,-39 153.62,-37.56 156.34,-36.19 159.12,-34.87"/>
<polygon fill="#63b8ff" stroke="#63b8ff" points="160.25,-38.2 168,-30.97 157.44,-31.79 160.25,-38.2"/>
</g>
</g>
</svg>
