<?xml version="1.0" encoding="UTF-8" standalone="no"?>
<!DOCTYPE svg PUBLIC "-//W3C//DTD SVG 1.1//EN"
 "http://www.w3.org/Graphics/SVG/1.1/DTD/svg11.dtd">
<!-- Generated by graphviz version 2.43.0 (0)
 -->
<!-- Title: nlohmann::detail::binary_reader::get_bson_cstr Pages: 1 -->
<svg width="848pt" height="137pt"
 viewBox="0.00 0.00 848.00 137.00" xmlns="http://www.w3.org/2000/svg" xmlns:xlink="http://www.w3.org/1999/xlink">
<g id="graph0" class="graph" transform="scale(1 1) rotate(0) translate(4 133)">
<title>nlohmann::detail::binary_reader::get_bson_cstr</title>
<polygon fill="white" stroke="transparent" points="-4,4 -4,-133 844,-133 844,4 -4,4"/>
<!-- Node1 -->
<g id="node1" class="node">
<title>Node1</title>
<g id="a_node1"><a xlink:title="Parses a C&#45;style string from the BSON input.">
<polygon fill="#bfbfbf" stroke="black" points="0,-48.5 0,-78.5 136,-78.5 136,-48.5 0,-48.5"/>
<text text-anchor="start" x="8" y="-66.5" font-family="Helvetica,sans-Serif" font-size="10.00">nlohmann::detail::binary</text>
<text text-anchor="middle" x="68" y="-55.5" font-family="Helvetica,sans-Serif" font-size="10.00">_reader::get_bson_cstr</text>
</a>
</g>
</g>
<!-- Node2 -->
<g id="node2" class="node">
<title>Node2</title>
<g id="a_node2"><a xlink:href="a01941.html#ad222095c0b21a87824cb10629299629a" target="_top" xlink:title="get next character from the input">
<polygon fill="white" stroke="black" points="172,-73.5 172,-103.5 308,-103.5 308,-73.5 172,-73.5"/>
<text text-anchor="start" x="180" y="-91.5" font-family="Helvetica,sans-Serif" font-size="10.00">nlohmann::detail::binary</text>
<text text-anchor="middle" x="240" y="-80.5" font-family="Helvetica,sans-Serif" font-size="10.00">_reader::get</text>
</a>
</g>
</g>
<!-- Node1&#45;&gt;Node2 -->
<g id="edge1" class="edge">
<title>Node1&#45;&gt;Node2</title>
<path fill="none" stroke="midnightblue" d="M136.19,-73.38C144.59,-74.62 153.24,-75.89 161.78,-77.14"/>
<polygon fill="midnightblue" stroke="midnightblue" points="161.34,-80.62 171.74,-78.61 162.36,-73.69 161.34,-80.62"/>
</g>
<!-- Node3 -->
<g id="node3" class="node">
<title>Node3</title>
<g id="a_node3"><a xlink:href="a01941.html#a61a0bd8bbe7b560bd429fa990ba3ba1a" target="_top" xlink:title=" ">
<polygon fill="white" stroke="black" points="172,-24.5 172,-54.5 308,-54.5 308,-24.5 172,-24.5"/>
<text text-anchor="start" x="180" y="-42.5" font-family="Helvetica,sans-Serif" font-size="10.00">nlohmann::detail::binary</text>
<text text-anchor="middle" x="240" y="-31.5" font-family="Helvetica,sans-Serif" font-size="10.00">_reader::unexpect_eof</text>
</a>
</g>
</g>
<!-- Node1&#45;&gt;Node3 -->
<g id="edge2" class="edge">
<title>Node1&#45;&gt;Node3</title>
<path fill="none" stroke="midnightblue" d="M136.19,-54.01C144.59,-52.83 153.24,-51.61 161.78,-50.4"/>
<polygon fill="midnightblue" stroke="midnightblue" points="162.33,-53.86 171.74,-49 161.35,-46.93 162.33,-53.86"/>
</g>
<!-- Node4 -->
<g id="node4" class="node">
<title>Node4</title>
<g id="a_node4"><a xlink:href="a01509.html#a137ea4d27de45d8a844fd13451d40f3d" target="_top" xlink:title="create a parse error exception">
<polygon fill="white" stroke="black" points="356.5,-49.5 356.5,-79.5 488.5,-79.5 488.5,-49.5 356.5,-49.5"/>
<text text-anchor="start" x="364.5" y="-67.5" font-family="Helvetica,sans-Serif" font-size="10.00">nlohmann::detail::parse</text>
<text text-anchor="middle" x="422.5" y="-56.5" font-family="Helvetica,sans-Serif" font-size="10.00">_error::create</text>
</a>
</g>
</g>
<!-- Node3&#45;&gt;Node4 -->
<g id="edge3" class="edge">
<title>Node3&#45;&gt;Node4</title>
<path fill="none" stroke="midnightblue" d="M308.21,-48.81C320.63,-50.53 333.67,-52.34 346.3,-54.09"/>
<polygon fill="midnightblue" stroke="midnightblue" points="345.95,-57.57 356.33,-55.47 346.91,-50.63 345.95,-57.57"/>
</g>
<!-- Node9 -->
<g id="node9" class="node">
<title>Node9</title>
<g id="a_node9"><a xlink:href="a01941.html#a9c413c9a1bade1ce345740f4d69156f0" target="_top" xlink:title=" ">
<polygon fill="white" stroke="black" points="344,-0.5 344,-30.5 501,-30.5 501,-0.5 344,-0.5"/>
<text text-anchor="start" x="352" y="-18.5" font-family="Helvetica,sans-Serif" font-size="10.00">nlohmann::detail::binary</text>
<text text-anchor="middle" x="422.5" y="-7.5" font-family="Helvetica,sans-Serif" font-size="10.00">_reader::exception_message</text>
</a>
</g>
</g>
<!-- Node3&#45;&gt;Node9 -->
<g id="edge9" class="edge">
<title>Node3&#45;&gt;Node9</title>
<path fill="none" stroke="midnightblue" d="M308.21,-30.56C316.57,-29.45 325.21,-28.3 333.82,-27.16"/>
<polygon fill="midnightblue" stroke="midnightblue" points="334.44,-30.61 343.89,-25.82 333.51,-23.67 334.44,-30.61"/>
</g>
<!-- Node5 -->
<g id="node5" class="node">
<title>Node5</title>
<g id="a_node5"><a xlink:href="a01505.html#abf41a7e9178356314082284e6cfea278" target="_top" xlink:title=" ">
<polygon fill="white" stroke="black" points="537,-98.5 537,-128.5 690,-128.5 690,-98.5 537,-98.5"/>
<text text-anchor="start" x="545" y="-116.5" font-family="Helvetica,sans-Serif" font-size="10.00">nlohmann::detail::exception</text>
<text text-anchor="middle" x="613.5" y="-105.5" font-family="Helvetica,sans-Serif" font-size="10.00">::name</text>
</a>
</g>
</g>
<!-- Node4&#45;&gt;Node5 -->
<g id="edge4" class="edge">
<title>Node4&#45;&gt;Node5</title>
<path fill="none" stroke="midnightblue" d="M481.49,-79.53C501.54,-84.73 524.17,-90.6 544.92,-95.98"/>
<polygon fill="midnightblue" stroke="midnightblue" points="544.06,-99.37 554.62,-98.49 545.82,-92.6 544.06,-99.37"/>
</g>
<!-- Node7 -->
<g id="node7" class="node">
<title>Node7</title>
<g id="a_node7"><a xlink:href="a01509.html#a0ea816ea3521d7109407948cb1b850f7" target="_top" xlink:title=" ">
<polygon fill="white" stroke="black" points="547.5,-49.5 547.5,-79.5 679.5,-79.5 679.5,-49.5 547.5,-49.5"/>
<text text-anchor="start" x="555.5" y="-67.5" font-family="Helvetica,sans-Serif" font-size="10.00">nlohmann::detail::parse</text>
<text text-anchor="middle" x="613.5" y="-56.5" font-family="Helvetica,sans-Serif" font-size="10.00">_error::parse_error</text>
</a>
</g>
</g>
<!-- Node4&#45;&gt;Node7 -->
<g id="edge6" class="edge">
<title>Node4&#45;&gt;Node7</title>
<path fill="none" stroke="midnightblue" d="M488.54,-64.5C504.13,-64.5 520.91,-64.5 536.94,-64.5"/>
<polygon fill="midnightblue" stroke="midnightblue" points="537.34,-68 547.34,-64.5 537.34,-61 537.34,-68"/>
</g>
<!-- Node8 -->
<g id="node8" class="node">
<title>Node8</title>
<g id="a_node8"><a xlink:href="a01509.html#aefe74adeaa48781464ba2fd2ec63d221" target="_top" xlink:title=" ">
<polygon fill="white" stroke="black" points="547.5,-0.5 547.5,-30.5 679.5,-30.5 679.5,-0.5 547.5,-0.5"/>
<text text-anchor="start" x="555.5" y="-18.5" font-family="Helvetica,sans-Serif" font-size="10.00">nlohmann::detail::parse</text>
<text text-anchor="middle" x="613.5" y="-7.5" font-family="Helvetica,sans-Serif" font-size="10.00">_error::position_string</text>
</a>
</g>
</g>
<!-- Node4&#45;&gt;Node8 -->
<g id="edge7" class="edge">
<title>Node4&#45;&gt;Node8</title>
<path fill="none" stroke="midnightblue" d="M481.49,-49.47C501.54,-44.27 524.17,-38.4 544.92,-33.02"/>
<polygon fill="midnightblue" stroke="midnightblue" points="545.82,-36.4 554.62,-30.51 544.06,-29.63 545.82,-36.4"/>
</g>
<!-- Node6 -->
<g id="node6" class="node">
<title>Node6</title>
<g id="a_node6"><a xlink:href="a00410.html#a6ce645a0b8717757e096a5b5773b7a16" target="_top" xlink:title="user&#45;defined to_string function for JSON values">
<polygon fill="white" stroke="black" points="726,-55 726,-74 840,-74 840,-55 726,-55"/>
<text text-anchor="middle" x="783" y="-62" font-family="Helvetica,sans-Serif" font-size="10.00">nlohmann::to_string</text>
</a>
</g>
</g>
<!-- Node5&#45;&gt;Node6 -->
<g id="edge5" class="edge">
<title>Node5&#45;&gt;Node6</title>
<path fill="none" stroke="midnightblue" d="M666.12,-98.4C689.71,-91.5 717.31,-83.42 739.66,-76.89"/>
<polygon fill="midnightblue" stroke="midnightblue" points="740.9,-80.17 749.52,-74 738.94,-73.45 740.9,-80.17"/>
</g>
<!-- Node8&#45;&gt;Node6 -->
<g id="edge8" class="edge">
<title>Node8&#45;&gt;Node6</title>
<path fill="none" stroke="midnightblue" d="M666.12,-30.6C689.71,-37.5 717.31,-45.58 739.66,-52.11"/>
<polygon fill="midnightblue" stroke="midnightblue" points="738.94,-55.55 749.52,-55 740.9,-48.83 738.94,-55.55"/>
</g>
</g>
</svg>
