<?xml version="1.0" encoding="UTF-8" standalone="no"?>
<!DOCTYPE svg PUBLIC "-//W3C//DTD SVG 1.1//EN"
 "http://www.w3.org/Graphics/SVG/1.1/DTD/svg11.dtd">
<!-- Generated by graphviz version 2.43.0 (0)
 -->
<!-- Title: nlohmann::detail::binary_reader::parse_msgpack_internal Pages: 1 -->
<svg width="1417pt" height="532pt"
 viewBox="0.00 0.00 1417.00 531.50" xmlns="http://www.w3.org/2000/svg" xmlns:xlink="http://www.w3.org/1999/xlink">
<g id="graph0" class="graph" transform="scale(1 1) rotate(0) translate(4 527.5)">
<title>nlohmann::detail::binary_reader::parse_msgpack_internal</title>
<polygon fill="white" stroke="transparent" points="-4,4 -4,-527.5 1413,-527.5 1413,4 -4,4"/>
<!-- Node1 -->
<g id="node1" class="node">
<title>Node1</title>
<g id="a_node1"><a xlink:title=" ">
<polygon fill="#bfbfbf" stroke="black" points="0,-247 0,-288 136,-288 136,-247 0,-247"/>
<text text-anchor="start" x="8" y="-276" font-family="Helvetica,sans-Serif" font-size="10.00">nlohmann::detail::binary</text>
<text text-anchor="start" x="8" y="-265" font-family="Helvetica,sans-Serif" font-size="10.00">_reader::parse_msgpack</text>
<text text-anchor="middle" x="68" y="-254" font-family="Helvetica,sans-Serif" font-size="10.00">_internal</text>
</a>
</g>
</g>
<!-- Node2 -->
<g id="node2" class="node">
<title>Node2</title>
<g id="a_node2"><a xlink:href="a01509.html#a137ea4d27de45d8a844fd13451d40f3d" target="_top" xlink:title="create a parse error exception">
<polygon fill="white" stroke="black" points="925.5,-271.5 925.5,-301.5 1057.5,-301.5 1057.5,-271.5 925.5,-271.5"/>
<text text-anchor="start" x="933.5" y="-289.5" font-family="Helvetica,sans-Serif" font-size="10.00">nlohmann::detail::parse</text>
<text text-anchor="middle" x="991.5" y="-278.5" font-family="Helvetica,sans-Serif" font-size="10.00">_error::create</text>
</a>
</g>
</g>
<!-- Node1&#45;&gt;Node2 -->
<g id="edge1" class="edge">
<title>Node1&#45;&gt;Node2</title>
<path fill="none" stroke="midnightblue" d="M75.48,-288.18C88.03,-324.86 119.18,-401.31 172,-442.5 272.64,-520.99 319.87,-523.5 447.5,-523.5 447.5,-523.5 447.5,-523.5 636,-523.5 751.13,-523.5 784.38,-496.89 877,-428.5 921.18,-395.88 957.74,-342 976.62,-310.83"/>
<polygon fill="midnightblue" stroke="midnightblue" points="979.81,-312.32 981.91,-301.94 973.79,-308.75 979.81,-312.32"/>
</g>
<!-- Node7 -->
<g id="node7" class="node">
<title>Node7</title>
<g id="a_node7"><a xlink:href="a01941.html#a9c413c9a1bade1ce345740f4d69156f0" target="_top" xlink:title=" ">
<polygon fill="white" stroke="black" points="913,-170.5 913,-200.5 1070,-200.5 1070,-170.5 913,-170.5"/>
<text text-anchor="start" x="921" y="-188.5" font-family="Helvetica,sans-Serif" font-size="10.00">nlohmann::detail::binary</text>
<text text-anchor="middle" x="991.5" y="-177.5" font-family="Helvetica,sans-Serif" font-size="10.00">_reader::exception_message</text>
</a>
</g>
</g>
<!-- Node1&#45;&gt;Node7 -->
<g id="edge7" class="edge">
<title>Node1&#45;&gt;Node7</title>
<path fill="none" stroke="midnightblue" d="M77.57,-246.76C92.04,-214.46 124.44,-152.53 172,-120.5 276.02,-50.45 322.09,-59.5 447.5,-59.5 447.5,-59.5 447.5,-59.5 636,-59.5 760.57,-59.5 896.27,-129.43 957.39,-165.09"/>
<polygon fill="midnightblue" stroke="midnightblue" points="955.82,-168.23 966.2,-170.3 959.38,-162.2 955.82,-168.23"/>
</g>
<!-- Node8 -->
<g id="node8" class="node">
<title>Node8</title>
<g id="a_node8"><a xlink:href="a01941.html#ad222095c0b21a87824cb10629299629a" target="_top" xlink:title="get next character from the input">
<polygon fill="white" stroke="black" points="741,-388.5 741,-418.5 877,-418.5 877,-388.5 741,-388.5"/>
<text text-anchor="start" x="749" y="-406.5" font-family="Helvetica,sans-Serif" font-size="10.00">nlohmann::detail::binary</text>
<text text-anchor="middle" x="809" y="-395.5" font-family="Helvetica,sans-Serif" font-size="10.00">_reader::get</text>
</a>
</g>
</g>
<!-- Node1&#45;&gt;Node8 -->
<g id="edge8" class="edge">
<title>Node1&#45;&gt;Node8</title>
<path fill="none" stroke="midnightblue" d="M79.76,-288.4C95.74,-317.13 128.57,-368.14 172,-393.5 377.49,-513.52 471.29,-489.31 705,-444.5 727.15,-440.25 750.61,-431.3 769.53,-422.84"/>
<polygon fill="midnightblue" stroke="midnightblue" points="771.09,-425.98 778.71,-418.62 768.16,-419.62 771.09,-425.98"/>
</g>
<!-- Node9 -->
<g id="node9" class="node">
<title>Node9</title>
<g id="a_node9"><a xlink:href="a01941.html#a0ce1d7066597952efb008aaf578b2bd6" target="_top" xlink:title=" ">
<polygon fill="white" stroke="black" points="174.5,-0.5 174.5,-30.5 329.5,-30.5 329.5,-0.5 174.5,-0.5"/>
<text text-anchor="start" x="182.5" y="-18.5" font-family="Helvetica,sans-Serif" font-size="10.00">nlohmann::detail::binary</text>
<text text-anchor="middle" x="252" y="-7.5" font-family="Helvetica,sans-Serif" font-size="10.00">_reader::get_msgpack_array</text>
</a>
</g>
</g>
<!-- Node1&#45;&gt;Node9 -->
<g id="edge9" class="edge">
<title>Node1&#45;&gt;Node9</title>
<path fill="none" stroke="midnightblue" d="M72.11,-246.94C80.38,-203.56 106.48,-103.1 171.9,-37.64"/>
<polygon fill="midnightblue" stroke="midnightblue" points="174.42,-40.07 179.21,-30.63 169.57,-35.02 174.42,-40.07"/>
</g>
<!-- Node10 -->
<g id="node10" class="node">
<title>Node10</title>
<g id="a_node10"><a xlink:href="a01941.html#a389e550fd397a48121cb82d92bb7475a" target="_top" xlink:title="reads a MessagePack byte array">
<polygon fill="white" stroke="black" points="368,-339.5 368,-369.5 529,-369.5 529,-339.5 368,-339.5"/>
<text text-anchor="start" x="376" y="-357.5" font-family="Helvetica,sans-Serif" font-size="10.00">nlohmann::detail::binary</text>
<text text-anchor="middle" x="448.5" y="-346.5" font-family="Helvetica,sans-Serif" font-size="10.00">_reader::get_msgpack_binary</text>
</a>
</g>
</g>
<!-- Node1&#45;&gt;Node10 -->
<g id="edge11" class="edge">
<title>Node1&#45;&gt;Node10</title>
<path fill="none" stroke="midnightblue" d="M129.11,-288.06C143.1,-292.48 158,-296.9 172,-300.5 233.55,-316.33 303.86,-330.05 358.05,-339.69"/>
<polygon fill="midnightblue" stroke="midnightblue" points="357.52,-343.15 367.98,-341.44 358.74,-336.26 357.52,-343.15"/>
</g>
<!-- Node12 -->
<g id="node12" class="node">
<title>Node12</title>
<g id="a_node12"><a xlink:href="a01941.html#a61a0bd8bbe7b560bd429fa990ba3ba1a" target="_top" xlink:title=" ">
<polygon fill="white" stroke="black" points="741,-271.5 741,-301.5 877,-301.5 877,-271.5 741,-271.5"/>
<text text-anchor="start" x="749" y="-289.5" font-family="Helvetica,sans-Serif" font-size="10.00">nlohmann::detail::binary</text>
<text text-anchor="middle" x="809" y="-278.5" font-family="Helvetica,sans-Serif" font-size="10.00">_reader::unexpect_eof</text>
</a>
</g>
</g>
<!-- Node1&#45;&gt;Node12 -->
<g id="edge35" class="edge">
<title>Node1&#45;&gt;Node12</title>
<path fill="none" stroke="midnightblue" d="M97.98,-246.89C191.82,-182.88 493.57,1.24 705,-117.5 760.18,-148.49 789.28,-222.37 801.26,-261.38"/>
<polygon fill="midnightblue" stroke="midnightblue" points="798.02,-262.78 804.19,-271.39 804.74,-260.81 798.02,-262.78"/>
</g>
<!-- Node13 -->
<g id="node13" class="node">
<title>Node13</title>
<g id="a_node13"><a xlink:href="a01941.html#ac356c6364fe0273d3303fb7a447f4ef6" target="_top" xlink:title=" ">
<polygon fill="white" stroke="black" points="567,-339.5 567,-369.5 703,-369.5 703,-339.5 567,-339.5"/>
<text text-anchor="start" x="575" y="-357.5" font-family="Helvetica,sans-Serif" font-size="10.00">nlohmann::detail::binary</text>
<text text-anchor="middle" x="635" y="-346.5" font-family="Helvetica,sans-Serif" font-size="10.00">_reader::get_number</text>
</a>
</g>
</g>
<!-- Node1&#45;&gt;Node13 -->
<g id="edge33" class="edge">
<title>Node1&#45;&gt;Node13</title>
<path fill="none" stroke="midnightblue" d="M136.01,-274.47C225.88,-284.33 390.22,-304.11 529,-330.5 539.62,-332.52 550.8,-334.85 561.74,-337.25"/>
<polygon fill="midnightblue" stroke="midnightblue" points="561.17,-340.71 571.7,-339.46 562.69,-333.88 561.17,-340.71"/>
</g>
<!-- Node14 -->
<g id="node14" class="node">
<title>Node14</title>
<g id="a_node14"><a xlink:href="a01941.html#a8bebd21ceef09b6b2562e87861832700" target="_top" xlink:title=" ">
<polygon fill="white" stroke="black" points="172,-353.5 172,-383.5 332,-383.5 332,-353.5 172,-353.5"/>
<text text-anchor="start" x="180" y="-371.5" font-family="Helvetica,sans-Serif" font-size="10.00">nlohmann::detail::binary</text>
<text text-anchor="middle" x="252" y="-360.5" font-family="Helvetica,sans-Serif" font-size="10.00">_reader::get_msgpack_object</text>
</a>
</g>
</g>
<!-- Node1&#45;&gt;Node14 -->
<g id="edge20" class="edge">
<title>Node1&#45;&gt;Node14</title>
<path fill="none" stroke="midnightblue" d="M106.26,-288.32C125.25,-301.31 149.11,-317.49 172,-329.5 186.36,-337.03 203.04,-343.65 217.36,-349.47"/>
<polygon fill="midnightblue" stroke="midnightblue" points="216.26,-352.8 226.84,-353.36 218.93,-346.33 216.26,-352.8"/>
</g>
<!-- Node15 -->
<g id="node15" class="node">
<title>Node15</title>
<g id="a_node15"><a xlink:href="a01941.html#ad8cba5585327caa550dd5b6dd25a64f8" target="_top" xlink:title="reads a MessagePack string">
<polygon fill="white" stroke="black" points="369.5,-227.5 369.5,-257.5 527.5,-257.5 527.5,-227.5 369.5,-227.5"/>
<text text-anchor="start" x="377.5" y="-245.5" font-family="Helvetica,sans-Serif" font-size="10.00">nlohmann::detail::binary</text>
<text text-anchor="middle" x="448.5" y="-234.5" font-family="Helvetica,sans-Serif" font-size="10.00">_reader::get_msgpack_string</text>
</a>
</g>
</g>
<!-- Node1&#45;&gt;Node15 -->
<g id="edge32" class="edge">
<title>Node1&#45;&gt;Node15</title>
<path fill="none" stroke="midnightblue" d="M136.23,-263.06C198.37,-258.96 291.09,-252.83 359.18,-248.33"/>
<polygon fill="midnightblue" stroke="midnightblue" points="359.71,-251.81 369.46,-247.65 359.25,-244.82 359.71,-251.81"/>
</g>
<!-- Node17 -->
<g id="node17" class="node">
<title>Node17</title>
<g id="a_node17"><a xlink:href="a01941.html#a7d323283c60a0b89ee5eeadf5cb9a5ad" target="_top" xlink:title=" ">
<polygon fill="white" stroke="black" points="565,-126.5 565,-156.5 705,-156.5 705,-126.5 565,-126.5"/>
<text text-anchor="start" x="573" y="-144.5" font-family="Helvetica,sans-Serif" font-size="10.00">nlohmann::detail::binary</text>
<text text-anchor="middle" x="635" y="-133.5" font-family="Helvetica,sans-Serif" font-size="10.00">_reader::get_token_string</text>
</a>
</g>
</g>
<!-- Node1&#45;&gt;Node17 -->
<g id="edge34" class="edge">
<title>Node1&#45;&gt;Node17</title>
<path fill="none" stroke="midnightblue" d="M136.03,-252.55C241.44,-229.04 445.4,-183.56 556.79,-158.72"/>
<polygon fill="midnightblue" stroke="midnightblue" points="557.62,-162.12 566.62,-156.53 556.09,-155.29 557.62,-162.12"/>
</g>
<!-- Node3 -->
<g id="node3" class="node">
<title>Node3</title>
<g id="a_node3"><a xlink:href="a01505.html#abf41a7e9178356314082284e6cfea278" target="_top" xlink:title=" ">
<polygon fill="white" stroke="black" points="1106,-271.5 1106,-301.5 1259,-301.5 1259,-271.5 1106,-271.5"/>
<text text-anchor="start" x="1114" y="-289.5" font-family="Helvetica,sans-Serif" font-size="10.00">nlohmann::detail::exception</text>
<text text-anchor="middle" x="1182.5" y="-278.5" font-family="Helvetica,sans-Serif" font-size="10.00">::name</text>
</a>
</g>
</g>
<!-- Node2&#45;&gt;Node3 -->
<g id="edge2" class="edge">
<title>Node2&#45;&gt;Node3</title>
<path fill="none" stroke="midnightblue" d="M1057.54,-286.5C1069.84,-286.5 1082.89,-286.5 1095.71,-286.5"/>
<polygon fill="midnightblue" stroke="midnightblue" points="1095.93,-290 1105.93,-286.5 1095.93,-283 1095.93,-290"/>
</g>
<!-- Node5 -->
<g id="node5" class="node">
<title>Node5</title>
<g id="a_node5"><a xlink:href="a01509.html#a0ea816ea3521d7109407948cb1b850f7" target="_top" xlink:title=" ">
<polygon fill="white" stroke="black" points="1116.5,-222.5 1116.5,-252.5 1248.5,-252.5 1248.5,-222.5 1116.5,-222.5"/>
<text text-anchor="start" x="1124.5" y="-240.5" font-family="Helvetica,sans-Serif" font-size="10.00">nlohmann::detail::parse</text>
<text text-anchor="middle" x="1182.5" y="-229.5" font-family="Helvetica,sans-Serif" font-size="10.00">_error::parse_error</text>
</a>
</g>
</g>
<!-- Node2&#45;&gt;Node5 -->
<g id="edge4" class="edge">
<title>Node2&#45;&gt;Node5</title>
<path fill="none" stroke="midnightblue" d="M1050.49,-271.47C1070.54,-266.27 1093.17,-260.4 1113.92,-255.02"/>
<polygon fill="midnightblue" stroke="midnightblue" points="1114.82,-258.4 1123.62,-252.51 1113.06,-251.63 1114.82,-258.4"/>
</g>
<!-- Node6 -->
<g id="node6" class="node">
<title>Node6</title>
<g id="a_node6"><a xlink:href="a01509.html#aefe74adeaa48781464ba2fd2ec63d221" target="_top" xlink:title=" ">
<polygon fill="white" stroke="black" points="1116.5,-320.5 1116.5,-350.5 1248.5,-350.5 1248.5,-320.5 1116.5,-320.5"/>
<text text-anchor="start" x="1124.5" y="-338.5" font-family="Helvetica,sans-Serif" font-size="10.00">nlohmann::detail::parse</text>
<text text-anchor="middle" x="1182.5" y="-327.5" font-family="Helvetica,sans-Serif" font-size="10.00">_error::position_string</text>
</a>
</g>
</g>
<!-- Node2&#45;&gt;Node6 -->
<g id="edge5" class="edge">
<title>Node2&#45;&gt;Node6</title>
<path fill="none" stroke="midnightblue" d="M1050.49,-301.53C1070.54,-306.73 1093.17,-312.6 1113.92,-317.98"/>
<polygon fill="midnightblue" stroke="midnightblue" points="1113.06,-321.37 1123.62,-320.49 1114.82,-314.6 1113.06,-321.37"/>
</g>
<!-- Node4 -->
<g id="node4" class="node">
<title>Node4</title>
<g id="a_node4"><a xlink:href="a00410.html#a6ce645a0b8717757e096a5b5773b7a16" target="_top" xlink:title="user&#45;defined to_string function for JSON values">
<polygon fill="white" stroke="black" points="1295,-301 1295,-320 1409,-320 1409,-301 1295,-301"/>
<text text-anchor="middle" x="1352" y="-308" font-family="Helvetica,sans-Serif" font-size="10.00">nlohmann::to_string</text>
</a>
</g>
</g>
<!-- Node3&#45;&gt;Node4 -->
<g id="edge3" class="edge">
<title>Node3&#45;&gt;Node4</title>
<path fill="none" stroke="midnightblue" d="M1259.41,-297.38C1267.9,-298.59 1276.5,-299.83 1284.86,-301.02"/>
<polygon fill="midnightblue" stroke="midnightblue" points="1284.51,-304.51 1294.9,-302.46 1285.5,-297.58 1284.51,-304.51"/>
</g>
<!-- Node6&#45;&gt;Node4 -->
<g id="edge6" class="edge">
<title>Node6&#45;&gt;Node4</title>
<path fill="none" stroke="midnightblue" d="M1248.74,-325.76C1260.53,-324 1272.84,-322.17 1284.67,-320.4"/>
<polygon fill="midnightblue" stroke="midnightblue" points="1285.53,-323.81 1294.91,-318.87 1284.5,-316.89 1285.53,-323.81"/>
</g>
<!-- Node9&#45;&gt;Node1 -->
<g id="edge10" class="edge">
<title>Node9&#45;&gt;Node1</title>
<path fill="none" stroke="midnightblue" d="M216.34,-30.64C201.25,-35.91 184.24,-43.1 172,-54.5 117.33,-105.4 89.17,-191.09 76.89,-236.86"/>
<polygon fill="midnightblue" stroke="midnightblue" points="73.44,-236.24 74.31,-246.8 80.22,-238 73.44,-236.24"/>
</g>
<!-- Node11 -->
<g id="node11" class="node">
<title>Node11</title>
<g id="a_node11"><a xlink:href="a01941.html#a55e13d567a53234573ab3833c0ca32e9" target="_top" xlink:title="create a byte array by reading bytes from the input">
<polygon fill="white" stroke="black" points="567,-388.5 567,-418.5 703,-418.5 703,-388.5 567,-388.5"/>
<text text-anchor="start" x="575" y="-406.5" font-family="Helvetica,sans-Serif" font-size="10.00">nlohmann::detail::binary</text>
<text text-anchor="middle" x="635" y="-395.5" font-family="Helvetica,sans-Serif" font-size="10.00">_reader::get_binary</text>
</a>
</g>
</g>
<!-- Node10&#45;&gt;Node11 -->
<g id="edge12" class="edge">
<title>Node10&#45;&gt;Node11</title>
<path fill="none" stroke="midnightblue" d="M506.11,-369.53C525.59,-374.71 547.58,-380.55 567.76,-385.91"/>
<polygon fill="midnightblue" stroke="midnightblue" points="566.93,-389.31 577.5,-388.49 568.73,-382.54 566.93,-389.31"/>
</g>
<!-- Node10&#45;&gt;Node13 -->
<g id="edge17" class="edge">
<title>Node10&#45;&gt;Node13</title>
<path fill="none" stroke="midnightblue" d="M529.08,-354.5C538.22,-354.5 547.53,-354.5 556.65,-354.5"/>
<polygon fill="midnightblue" stroke="midnightblue" points="556.83,-358 566.83,-354.5 556.83,-351 556.83,-358"/>
</g>
<!-- Node11&#45;&gt;Node8 -->
<g id="edge13" class="edge">
<title>Node11&#45;&gt;Node8</title>
<path fill="none" stroke="midnightblue" d="M703.49,-403.5C712.44,-403.5 721.68,-403.5 730.79,-403.5"/>
<polygon fill="midnightblue" stroke="midnightblue" points="730.99,-407 740.99,-403.5 730.99,-400 730.99,-407"/>
</g>
<!-- Node11&#45;&gt;Node12 -->
<g id="edge14" class="edge">
<title>Node11&#45;&gt;Node12</title>
<path fill="none" stroke="midnightblue" d="M686.8,-388.47C693.11,-385.85 699.32,-382.86 705,-379.5 737.35,-360.34 768.54,-329.98 787.96,-309.2"/>
<polygon fill="midnightblue" stroke="midnightblue" points="790.62,-311.47 794.8,-301.74 785.46,-306.74 790.62,-311.47"/>
</g>
<!-- Node12&#45;&gt;Node2 -->
<g id="edge15" class="edge">
<title>Node12&#45;&gt;Node2</title>
<path fill="none" stroke="midnightblue" d="M877.21,-286.5C889.63,-286.5 902.67,-286.5 915.3,-286.5"/>
<polygon fill="midnightblue" stroke="midnightblue" points="915.33,-290 925.33,-286.5 915.33,-283 915.33,-290"/>
</g>
<!-- Node12&#45;&gt;Node7 -->
<g id="edge16" class="edge">
<title>Node12&#45;&gt;Node7</title>
<path fill="none" stroke="midnightblue" d="M837.02,-271.38C868.35,-253.85 920.1,-224.89 954.74,-205.51"/>
<polygon fill="midnightblue" stroke="midnightblue" points="956.57,-208.5 963.59,-200.56 953.15,-202.39 956.57,-208.5"/>
</g>
<!-- Node13&#45;&gt;Node8 -->
<g id="edge18" class="edge">
<title>Node13&#45;&gt;Node8</title>
<path fill="none" stroke="midnightblue" d="M689.01,-369.6C706.83,-374.68 726.88,-380.39 745.37,-385.66"/>
<polygon fill="midnightblue" stroke="midnightblue" points="744.59,-389.07 755.17,-388.45 746.51,-382.34 744.59,-389.07"/>
</g>
<!-- Node13&#45;&gt;Node12 -->
<g id="edge19" class="edge">
<title>Node13&#45;&gt;Node12</title>
<path fill="none" stroke="midnightblue" d="M680.71,-339.46C688.83,-336.58 697.19,-333.52 705,-330.5 724.92,-322.79 746.71,-313.6 765.1,-305.61"/>
<polygon fill="midnightblue" stroke="midnightblue" points="766.61,-308.77 774.38,-301.56 763.81,-302.35 766.61,-308.77"/>
</g>
<!-- Node14&#45;&gt;Node1 -->
<g id="edge31" class="edge">
<title>Node14&#45;&gt;Node1</title>
<path fill="none" stroke="midnightblue" d="M184.11,-353.41C179.97,-351.52 175.9,-349.54 172,-347.5 144.11,-332.87 114.77,-312.03 94.56,-295.07"/>
<polygon fill="midnightblue" stroke="midnightblue" points="96.61,-292.22 86.76,-288.31 92.03,-297.51 96.61,-292.22"/>
</g>
<!-- Node14&#45;&gt;Node8 -->
<g id="edge21" class="edge">
<title>Node14&#45;&gt;Node8</title>
<path fill="none" stroke="midnightblue" d="M303.45,-383.52C386.9,-406.5 559,-445.96 705,-428.5 718.67,-426.86 733.15,-424.05 746.8,-420.88"/>
<polygon fill="midnightblue" stroke="midnightblue" points="747.67,-424.27 756.57,-418.53 746.03,-417.47 747.67,-424.27"/>
</g>
<!-- Node14&#45;&gt;Node15 -->
<g id="edge22" class="edge">
<title>Node14&#45;&gt;Node15</title>
<path fill="none" stroke="midnightblue" d="M276.46,-353.3C311.16,-330.82 376.28,-288.64 415.38,-263.31"/>
<polygon fill="midnightblue" stroke="midnightblue" points="417.77,-265.93 424.26,-257.56 413.96,-260.06 417.77,-265.93"/>
</g>
<!-- Node15&#45;&gt;Node2 -->
<g id="edge23" class="edge">
<title>Node15&#45;&gt;Node2</title>
<path fill="none" stroke="midnightblue" d="M527.87,-242.12C613.89,-242.64 755.86,-246.26 877,-262.5 890.2,-264.27 904.16,-266.73 917.6,-269.4"/>
<polygon fill="midnightblue" stroke="midnightblue" points="917.26,-272.9 927.76,-271.47 918.66,-266.04 917.26,-272.9"/>
</g>
<!-- Node15&#45;&gt;Node7 -->
<g id="edge24" class="edge">
<title>Node15&#45;&gt;Node7</title>
<path fill="none" stroke="midnightblue" d="M527.59,-234.27C627.13,-223.79 798.74,-205.7 902.72,-194.75"/>
<polygon fill="midnightblue" stroke="midnightblue" points="903.3,-198.21 912.87,-193.68 902.56,-191.25 903.3,-198.21"/>
</g>
<!-- Node15&#45;&gt;Node12 -->
<g id="edge30" class="edge">
<title>Node15&#45;&gt;Node12</title>
<path fill="none" stroke="midnightblue" d="M527.73,-252.1C587.91,-259.49 670.65,-269.64 730.61,-277"/>
<polygon fill="midnightblue" stroke="midnightblue" points="730.43,-280.51 740.79,-278.25 731.29,-273.56 730.43,-280.51"/>
</g>
<!-- Node15&#45;&gt;Node13 -->
<g id="edge25" class="edge">
<title>Node15&#45;&gt;Node13</title>
<path fill="none" stroke="midnightblue" d="M503.86,-257.51C512.82,-261.48 521.59,-266.41 529,-272.5 552.44,-291.77 541.31,-311.54 565,-330.5 566.6,-331.78 568.27,-332.99 569.99,-334.14"/>
<polygon fill="midnightblue" stroke="midnightblue" points="568.62,-337.39 579.03,-339.38 572.13,-331.34 568.62,-337.39"/>
</g>
<!-- Node16 -->
<g id="node16" class="node">
<title>Node16</title>
<g id="a_node16"><a xlink:href="a01941.html#a540919db22df36512f05a88945c13263" target="_top" xlink:title="create a string by reading characters from the input">
<polygon fill="white" stroke="black" points="567,-290.5 567,-320.5 703,-320.5 703,-290.5 567,-290.5"/>
<text text-anchor="start" x="575" y="-308.5" font-family="Helvetica,sans-Serif" font-size="10.00">nlohmann::detail::binary</text>
<text text-anchor="middle" x="635" y="-297.5" font-family="Helvetica,sans-Serif" font-size="10.00">_reader::get_string</text>
</a>
</g>
</g>
<!-- Node15&#45;&gt;Node16 -->
<g id="edge26" class="edge">
<title>Node15&#45;&gt;Node16</title>
<path fill="none" stroke="midnightblue" d="M493.69,-257.59C519.73,-266.48 552.85,-277.79 580.37,-287.19"/>
<polygon fill="midnightblue" stroke="midnightblue" points="579.25,-290.5 589.85,-290.42 581.52,-283.88 579.25,-290.5"/>
</g>
<!-- Node15&#45;&gt;Node17 -->
<g id="edge29" class="edge">
<title>Node15&#45;&gt;Node17</title>
<path fill="none" stroke="midnightblue" d="M473.93,-227.42C507.13,-206.94 562.67,-172.72 565,-171.5 572.16,-167.76 579.89,-164.08 587.5,-160.65"/>
<polygon fill="midnightblue" stroke="midnightblue" points="588.94,-163.84 596.67,-156.59 586.1,-157.44 588.94,-163.84"/>
</g>
<!-- Node16&#45;&gt;Node8 -->
<g id="edge27" class="edge">
<title>Node16&#45;&gt;Node8</title>
<path fill="none" stroke="midnightblue" d="M682.76,-320.5C690.34,-323.48 698,-326.84 705,-330.5 732.87,-345.08 761.86,-366.25 781.95,-382.05"/>
<polygon fill="midnightblue" stroke="midnightblue" points="779.99,-384.96 789.99,-388.45 784.35,-379.48 779.99,-384.96"/>
</g>
<!-- Node16&#45;&gt;Node12 -->
<g id="edge28" class="edge">
<title>Node16&#45;&gt;Node12</title>
<path fill="none" stroke="midnightblue" d="M703.49,-298.05C712.44,-297.06 721.68,-296.04 730.79,-295.03"/>
<polygon fill="midnightblue" stroke="midnightblue" points="731.44,-298.48 740.99,-293.9 730.67,-291.52 731.44,-298.48"/>
</g>
</g>
</svg>
