<?xml version="1.0" encoding="UTF-8" standalone="no"?>
<!DOCTYPE svg PUBLIC "-//W3C//DTD SVG 1.1//EN"
 "http://www.w3.org/Graphics/SVG/1.1/DTD/svg11.dtd">
<!-- Generated by graphviz version 2.43.0 (0)
 -->
<!-- Title: nlohmann::detail::binary_writer::calc_bson_entry_header_size Pages: 1 -->
<svg width="640pt" height="116pt"
 viewBox="0.00 0.00 640.00 115.50" xmlns="http://www.w3.org/2000/svg" xmlns:xlink="http://www.w3.org/1999/xlink">
<g id="graph0" class="graph" transform="scale(1 1) rotate(0) translate(4 111.5)">
<title>nlohmann::detail::binary_writer::calc_bson_entry_header_size</title>
<polygon fill="white" stroke="transparent" points="-4,4 -4,-111.5 636,-111.5 636,4 -4,4"/>
<!-- Node1 -->
<g id="node1" class="node">
<title>Node1</title>
<g id="a_node1"><a xlink:title=" ">
<polygon fill="#bfbfbf" stroke="black" points="0,-0.5 0,-41.5 136,-41.5 136,-0.5 0,-0.5"/>
<text text-anchor="start" x="8" y="-29.5" font-family="Helvetica,sans-Serif" font-size="10.00">nlohmann::detail::binary</text>
<text text-anchor="start" x="8" y="-18.5" font-family="Helvetica,sans-Serif" font-size="10.00">_writer::calc_bson_entry</text>
<text text-anchor="middle" x="68" y="-7.5" font-family="Helvetica,sans-Serif" font-size="10.00">_header_size</text>
</a>
</g>
</g>
<!-- Node2 -->
<g id="node2" class="node">
<title>Node2</title>
<g id="a_node2"><a xlink:href="a01521.html#a3f6d82a6f967c4728a1ec735a7867073" target="_top" xlink:title=" ">
<polygon fill="white" stroke="black" points="172,-28 172,-58 293,-58 293,-28 172,-28"/>
<text text-anchor="start" x="180" y="-46" font-family="Helvetica,sans-Serif" font-size="10.00">nlohmann::detail::out</text>
<text text-anchor="middle" x="232.5" y="-35" font-family="Helvetica,sans-Serif" font-size="10.00">_of_range::create</text>
</a>
</g>
</g>
<!-- Node1&#45;&gt;Node2 -->
<g id="edge1" class="edge">
<title>Node1&#45;&gt;Node2</title>
<path fill="none" stroke="midnightblue" d="M136.03,-30.08C144.58,-31.23 153.34,-32.42 161.93,-33.58"/>
<polygon fill="midnightblue" stroke="midnightblue" points="161.52,-37.06 171.9,-34.93 162.46,-30.12 161.52,-37.06"/>
</g>
<!-- Node4 -->
<g id="node4" class="node">
<title>Node4</title>
<g id="a_node4"><a xlink:href="a00410.html#a6ce645a0b8717757e096a5b5773b7a16" target="_top" xlink:title="user&#45;defined to_string function for JSON values">
<polygon fill="white" stroke="black" points="518,-35.5 518,-54.5 632,-54.5 632,-35.5 518,-35.5"/>
<text text-anchor="middle" x="575" y="-42.5" font-family="Helvetica,sans-Serif" font-size="10.00">nlohmann::to_string</text>
</a>
</g>
</g>
<!-- Node1&#45;&gt;Node4 -->
<g id="edge5" class="edge">
<title>Node1&#45;&gt;Node4</title>
<path fill="none" stroke="midnightblue" d="M136.3,-14.37C218.39,-7.69 361.17,-0.64 482,-18 501.28,-20.77 522.16,-26.65 539.15,-32.22"/>
<polygon fill="midnightblue" stroke="midnightblue" points="538.06,-35.55 548.66,-35.43 540.31,-28.92 538.06,-35.55"/>
</g>
<!-- Node3 -->
<g id="node3" class="node">
<title>Node3</title>
<g id="a_node3"><a xlink:href="a01505.html#abf41a7e9178356314082284e6cfea278" target="_top" xlink:title=" ">
<polygon fill="white" stroke="black" points="329,-77 329,-107 482,-107 482,-77 329,-77"/>
<text text-anchor="start" x="337" y="-95" font-family="Helvetica,sans-Serif" font-size="10.00">nlohmann::detail::exception</text>
<text text-anchor="middle" x="405.5" y="-84" font-family="Helvetica,sans-Serif" font-size="10.00">::name</text>
</a>
</g>
</g>
<!-- Node2&#45;&gt;Node3 -->
<g id="edge2" class="edge">
<title>Node2&#45;&gt;Node3</title>
<path fill="none" stroke="midnightblue" d="M286.2,-58.1C303.92,-63.18 323.85,-68.89 342.23,-74.16"/>
<polygon fill="midnightblue" stroke="midnightblue" points="341.4,-77.56 351.97,-76.95 343.32,-70.83 341.4,-77.56"/>
</g>
<!-- Node5 -->
<g id="node5" class="node">
<title>Node5</title>
<g id="a_node5"><a xlink:href="a01521.html#ab5fe402019dba957558499502f0fd731" target="_top" xlink:title=" ">
<polygon fill="white" stroke="black" points="338.5,-28 338.5,-58 472.5,-58 472.5,-28 338.5,-28"/>
<text text-anchor="start" x="346.5" y="-46" font-family="Helvetica,sans-Serif" font-size="10.00">nlohmann::detail::out</text>
<text text-anchor="middle" x="405.5" y="-35" font-family="Helvetica,sans-Serif" font-size="10.00">_of_range::out_of_range</text>
</a>
</g>
</g>
<!-- Node2&#45;&gt;Node5 -->
<g id="edge4" class="edge">
<title>Node2&#45;&gt;Node5</title>
<path fill="none" stroke="midnightblue" d="M293.31,-43C304.56,-43 316.46,-43 328.13,-43"/>
<polygon fill="midnightblue" stroke="midnightblue" points="328.31,-46.5 338.31,-43 328.31,-39.5 328.31,-46.5"/>
</g>
<!-- Node3&#45;&gt;Node4 -->
<g id="edge3" class="edge">
<title>Node3&#45;&gt;Node4</title>
<path fill="none" stroke="midnightblue" d="M459.96,-77C482.61,-70.65 508.67,-63.33 530.16,-57.3"/>
<polygon fill="midnightblue" stroke="midnightblue" points="531.31,-60.61 539.99,-54.54 529.42,-53.88 531.31,-60.61"/>
</g>
</g>
</svg>
