<?xml version="1.0" encoding="UTF-8" standalone="no"?>
<!DOCTYPE svg PUBLIC "-//W3C//DTD SVG 1.1//EN"
 "http://www.w3.org/Graphics/SVG/1.1/DTD/svg11.dtd">
<!-- Generated by graphviz version 2.43.0 (0)
 -->
<!-- Title: nlohmann::detail::binary_writer::write_bson_array Pages: 1 -->
<svg width="1310pt" height="835pt"
 viewBox="0.00 0.00 1310.00 834.99" xmlns="http://www.w3.org/2000/svg" xmlns:xlink="http://www.w3.org/1999/xlink">
<g id="graph0" class="graph" transform="scale(1 1) rotate(0) translate(4 830.99)">
<title>nlohmann::detail::binary_writer::write_bson_array</title>
<polygon fill="white" stroke="transparent" points="-4,4 -4,-830.99 1306,-830.99 1306,4 -4,4"/>
<!-- Node1 -->
<g id="node1" class="node">
<title>Node1</title>
<g id="a_node1"><a xlink:title="Writes a BSON element with key name and array value.">
<polygon fill="#bfbfbf" stroke="black" points="0,-374.99 0,-404.99 140,-404.99 140,-374.99 0,-374.99"/>
<text text-anchor="start" x="8" y="-392.99" font-family="Helvetica,sans-Serif" font-size="10.00">nlohmann::detail::binary</text>
<text text-anchor="middle" x="70" y="-381.99" font-family="Helvetica,sans-Serif" font-size="10.00">_writer::write_bson_array</text>
</a>
</g>
</g>
<!-- Node2 -->
<g id="node2" class="node">
<title>Node2</title>
<g id="a_node2"><a xlink:href="a01985.html#af08f9302a02516ff8cf358a99aaa1ddf" target="_top" xlink:title=" ">
<polygon fill="white" stroke="black" points="176,-607.99 176,-637.99 336,-637.99 336,-607.99 176,-607.99"/>
<text text-anchor="start" x="184" y="-625.99" font-family="Helvetica,sans-Serif" font-size="10.00">nlohmann::detail::binary</text>
<text text-anchor="middle" x="256" y="-614.99" font-family="Helvetica,sans-Serif" font-size="10.00">_writer::calc_bson_array_size</text>
</a>
</g>
</g>
<!-- Node1&#45;&gt;Node2 -->
<g id="edge1" class="edge">
<title>Node1&#45;&gt;Node2</title>
<path fill="none" stroke="midnightblue" d="M83.07,-405.27C114.53,-445.11 199.19,-552.32 236.69,-599.8"/>
<polygon fill="midnightblue" stroke="midnightblue" points="234.18,-602.27 243.12,-607.95 239.67,-597.93 234.18,-602.27"/>
</g>
<!-- Node8 -->
<g id="node8" class="node">
<title>Node8</title>
<g id="a_node8"><a xlink:href="a00410.html#a6ce645a0b8717757e096a5b5773b7a16" target="_top" xlink:title="user&#45;defined to_string function for JSON values">
<polygon fill="white" stroke="black" points="1188,-593.49 1188,-612.49 1302,-612.49 1302,-593.49 1188,-593.49"/>
<text text-anchor="middle" x="1245" y="-600.49" font-family="Helvetica,sans-Serif" font-size="10.00">nlohmann::to_string</text>
</a>
</g>
</g>
<!-- Node1&#45;&gt;Node8 -->
<g id="edge17" class="edge">
<title>Node1&#45;&gt;Node8</title>
<path fill="none" stroke="midnightblue" d="M73.76,-405.04C82.2,-447.56 111.15,-570.47 176,-647.99 271.5,-762.13 310.17,-826.99 459,-826.99 459,-826.99 459,-826.99 882,-826.99 932.33,-826.99 1102.52,-776.7 1152,-738.99 1193.39,-707.44 1222.54,-651.71 1235.85,-622.34"/>
<polygon fill="midnightblue" stroke="midnightblue" points="1239.22,-623.37 1240.03,-612.81 1232.81,-620.56 1239.22,-623.37"/>
</g>
<!-- Node14 -->
<g id="node14" class="node">
<title>Node14</title>
<g id="a_node14"><a xlink:href="a01985.html#ab77aa48692bd4e64e4f051ce6aeb6d2d" target="_top" xlink:title=" ">
<polygon fill="white" stroke="black" points="813,-186.99 813,-216.99 949,-216.99 949,-186.99 813,-186.99"/>
<text text-anchor="start" x="821" y="-204.99" font-family="Helvetica,sans-Serif" font-size="10.00">nlohmann::detail::binary</text>
<text text-anchor="middle" x="881" y="-193.99" font-family="Helvetica,sans-Serif" font-size="10.00">_writer::to_char_type</text>
</a>
</g>
</g>
<!-- Node1&#45;&gt;Node14 -->
<g id="edge16" class="edge">
<title>Node1&#45;&gt;Node14</title>
<path fill="none" stroke="midnightblue" d="M78.64,-374.62C107.51,-318.52 216.32,-124.4 372,-54.99 530.72,15.78 606.47,20.49 763,-54.99 815.68,-80.39 851.96,-142.32 868.97,-177.15"/>
<polygon fill="midnightblue" stroke="midnightblue" points="866.01,-179.06 873.44,-186.61 872.34,-176.07 866.01,-179.06"/>
</g>
<!-- Node15 -->
<g id="node15" class="node">
<title>Node15</title>
<g id="a_node15"><a xlink:href="a01985.html#a7ff58bf1a80018148bed860667ffca07" target="_top" xlink:title="Serializes the JSON value j to BSON and associates it with the key name.">
<polygon fill="white" stroke="black" points="178.5,-309.99 178.5,-339.99 333.5,-339.99 333.5,-309.99 178.5,-309.99"/>
<text text-anchor="start" x="186.5" y="-327.99" font-family="Helvetica,sans-Serif" font-size="10.00">nlohmann::detail::binary</text>
<text text-anchor="middle" x="256" y="-316.99" font-family="Helvetica,sans-Serif" font-size="10.00">_writer::write_bson_element</text>
</a>
</g>
</g>
<!-- Node1&#45;&gt;Node15 -->
<g id="edge18" class="edge">
<title>Node1&#45;&gt;Node15</title>
<path fill="none" stroke="midnightblue" d="M99.35,-374.94C122.09,-365.4 155.01,-353.26 184.72,-343.23"/>
<polygon fill="midnightblue" stroke="midnightblue" points="185.86,-346.54 194.24,-340.06 183.64,-339.9 185.86,-346.54"/>
</g>
<!-- Node17 -->
<g id="node17" class="node">
<title>Node17</title>
<g id="a_node17"><a xlink:href="a01985.html#a1b5b7f5c03b1f8b1f59ea61db9634108" target="_top" xlink:title="Writes the given element_type and name to the output adapter.">
<polygon fill="white" stroke="black" points="584,-235.99 584,-265.99 763,-265.99 763,-235.99 584,-235.99"/>
<text text-anchor="start" x="592" y="-253.99" font-family="Helvetica,sans-Serif" font-size="10.00">nlohmann::detail::binary</text>
<text text-anchor="middle" x="673.5" y="-242.99" font-family="Helvetica,sans-Serif" font-size="10.00">_writer::write_bson_entry_header</text>
</a>
</g>
</g>
<!-- Node1&#45;&gt;Node17 -->
<g id="edge45" class="edge">
<title>Node1&#45;&gt;Node17</title>
<path fill="none" stroke="midnightblue" d="M119.99,-404.99C210.29,-429.71 406.67,-469.52 548,-397.99 572.11,-385.78 566.92,-369.93 584,-348.99 605.77,-322.28 632.48,-293.16 650.83,-273.66"/>
<polygon fill="midnightblue" stroke="midnightblue" points="653.58,-275.85 657.9,-266.18 648.49,-271.04 653.58,-275.85"/>
</g>
<!-- Node3 -->
<g id="node3" class="node">
<title>Node3</title>
<g id="a_node3"><a xlink:href="a01985.html#a1e4372c5984184eb5bcc09af1fcc2ee0" target="_top" xlink:title="Calculates the size necessary to serialize the JSON value j with its name.">
<polygon fill="white" stroke="black" points="372.5,-607.99 372.5,-637.99 547.5,-637.99 547.5,-607.99 372.5,-607.99"/>
<text text-anchor="start" x="380.5" y="-625.99" font-family="Helvetica,sans-Serif" font-size="10.00">nlohmann::detail::binary</text>
<text text-anchor="middle" x="460" y="-614.99" font-family="Helvetica,sans-Serif" font-size="10.00">_writer::calc_bson_element_size</text>
</a>
</g>
</g>
<!-- Node2&#45;&gt;Node3 -->
<g id="edge2" class="edge">
<title>Node2&#45;&gt;Node3</title>
<path fill="none" stroke="midnightblue" d="M336.26,-616.38C344.76,-616.27 353.47,-616.22 362.15,-616.24"/>
<polygon fill="midnightblue" stroke="midnightblue" points="362.28,-619.74 372.3,-616.3 362.32,-612.74 362.28,-619.74"/>
</g>
<!-- Node2&#45;&gt;Node8 -->
<g id="edge15" class="edge">
<title>Node2&#45;&gt;Node8</title>
<path fill="none" stroke="midnightblue" d="M277.88,-638.01C336.78,-678.87 510.54,-788.99 672.5,-788.99 672.5,-788.99 672.5,-788.99 882,-788.99 1029.58,-788.99 1177.32,-665.17 1226.72,-619.58"/>
<polygon fill="midnightblue" stroke="midnightblue" points="1229.13,-622.11 1234.04,-612.72 1224.34,-617 1229.13,-622.11"/>
</g>
<!-- Node3&#45;&gt;Node2 -->
<g id="edge3" class="edge">
<title>Node3&#45;&gt;Node2</title>
<path fill="none" stroke="midnightblue" d="M372.3,-629.68C363.69,-629.75 354.95,-629.76 346.32,-629.7"/>
<polygon fill="midnightblue" stroke="midnightblue" points="346.29,-626.2 336.26,-629.6 346.22,-633.2 346.29,-626.2"/>
</g>
<!-- Node4 -->
<g id="node4" class="node">
<title>Node4</title>
<g id="a_node4"><a xlink:href="a01985.html#a9dd6062fd249a695e0f93d558dba4685" target="_top" xlink:title=" ">
<polygon fill="white" stroke="black" points="591,-631.99 591,-661.99 756,-661.99 756,-631.99 591,-631.99"/>
<text text-anchor="start" x="599" y="-649.99" font-family="Helvetica,sans-Serif" font-size="10.00">nlohmann::detail::binary</text>
<text text-anchor="middle" x="673.5" y="-638.99" font-family="Helvetica,sans-Serif" font-size="10.00">_writer::calc_bson_binary_size</text>
</a>
</g>
</g>
<!-- Node3&#45;&gt;Node4 -->
<g id="edge4" class="edge">
<title>Node3&#45;&gt;Node4</title>
<path fill="none" stroke="midnightblue" d="M547.64,-632.82C558.55,-634.06 569.75,-635.33 580.75,-636.57"/>
<polygon fill="midnightblue" stroke="midnightblue" points="580.44,-640.06 590.77,-637.71 581.23,-633.11 580.44,-640.06"/>
</g>
<!-- Node5 -->
<g id="node5" class="node">
<title>Node5</title>
<g id="a_node5"><a xlink:href="a01985.html#a5bae2f1db2c511b869dffaddf15a1653" target="_top" xlink:title=" ">
<polygon fill="white" stroke="black" points="605.5,-522.49 605.5,-563.49 741.5,-563.49 741.5,-522.49 605.5,-522.49"/>
<text text-anchor="start" x="613.5" y="-551.49" font-family="Helvetica,sans-Serif" font-size="10.00">nlohmann::detail::binary</text>
<text text-anchor="start" x="613.5" y="-540.49" font-family="Helvetica,sans-Serif" font-size="10.00">_writer::calc_bson_entry</text>
<text text-anchor="middle" x="673.5" y="-529.49" font-family="Helvetica,sans-Serif" font-size="10.00">_header_size</text>
</a>
</g>
</g>
<!-- Node3&#45;&gt;Node5 -->
<g id="edge5" class="edge">
<title>Node3&#45;&gt;Node5</title>
<path fill="none" stroke="midnightblue" d="M497.71,-607.89C522.08,-597.99 554.83,-584.9 584,-573.99 590.25,-571.65 596.77,-569.26 603.3,-566.91"/>
<polygon fill="midnightblue" stroke="midnightblue" points="604.63,-570.15 612.87,-563.49 602.28,-563.56 604.63,-570.15"/>
</g>
<!-- Node10 -->
<g id="node10" class="node">
<title>Node10</title>
<g id="a_node10"><a xlink:href="a01985.html#aeab70c895931b96ea598306b37eca271" target="_top" xlink:title=" ">
<polygon fill="white" stroke="black" points="589,-582.99 589,-612.99 758,-612.99 758,-582.99 589,-582.99"/>
<text text-anchor="start" x="597" y="-600.99" font-family="Helvetica,sans-Serif" font-size="10.00">nlohmann::detail::binary</text>
<text text-anchor="middle" x="673.5" y="-589.99" font-family="Helvetica,sans-Serif" font-size="10.00">_writer::calc_bson_integer_size</text>
</a>
</g>
</g>
<!-- Node3&#45;&gt;Node10 -->
<g id="edge11" class="edge">
<title>Node3&#45;&gt;Node10</title>
<path fill="none" stroke="midnightblue" d="M547.64,-612.75C557.82,-611.54 568.24,-610.31 578.52,-609.1"/>
<polygon fill="midnightblue" stroke="midnightblue" points="579.21,-612.54 588.73,-607.89 578.39,-605.59 579.21,-612.54"/>
</g>
<!-- Node11 -->
<g id="node11" class="node">
<title>Node11</title>
<g id="a_node11"><a xlink:href="a01985.html#acc6f1cc1fd370ee84ebc8cf7b8712840" target="_top" xlink:title="Calculates the size of the BSON serialization of the given JSON&#45;object j.">
<polygon fill="white" stroke="black" points="799,-462.99 799,-492.99 963,-492.99 963,-462.99 799,-462.99"/>
<text text-anchor="start" x="807" y="-480.99" font-family="Helvetica,sans-Serif" font-size="10.00">nlohmann::detail::binary</text>
<text text-anchor="middle" x="881" y="-469.99" font-family="Helvetica,sans-Serif" font-size="10.00">_writer::calc_bson_object_size</text>
</a>
</g>
</g>
<!-- Node3&#45;&gt;Node11 -->
<g id="edge12" class="edge">
<title>Node3&#45;&gt;Node11</title>
<path fill="none" stroke="midnightblue" d="M472.66,-607.72C492.51,-583.04 535.43,-534.89 584,-512.99 648.32,-483.98 728.11,-475.94 788.63,-474.77"/>
<polygon fill="midnightblue" stroke="midnightblue" points="788.98,-478.26 798.93,-474.63 788.88,-471.26 788.98,-478.26"/>
</g>
<!-- Node12 -->
<g id="node12" class="node">
<title>Node12</title>
<g id="a_node12"><a xlink:href="a01985.html#aea44fd97a5cb9b4f175e66e3e4fdf158" target="_top" xlink:title=" ">
<polygon fill="white" stroke="black" points="592.5,-729.99 592.5,-759.99 754.5,-759.99 754.5,-729.99 592.5,-729.99"/>
<text text-anchor="start" x="600.5" y="-747.99" font-family="Helvetica,sans-Serif" font-size="10.00">nlohmann::detail::binary</text>
<text text-anchor="middle" x="673.5" y="-736.99" font-family="Helvetica,sans-Serif" font-size="10.00">_writer::calc_bson_string_size</text>
</a>
</g>
</g>
<!-- Node3&#45;&gt;Node12 -->
<g id="edge13" class="edge">
<title>Node3&#45;&gt;Node12</title>
<path fill="none" stroke="midnightblue" d="M475.86,-638.26C497.64,-659.79 540.4,-698.91 584,-720.99 587.75,-722.89 591.68,-724.65 595.69,-726.29"/>
<polygon fill="midnightblue" stroke="midnightblue" points="594.61,-729.62 605.2,-729.88 597.08,-723.07 594.61,-729.62"/>
</g>
<!-- Node13 -->
<g id="node13" class="node">
<title>Node13</title>
<g id="a_node13"><a xlink:href="a01985.html#aa1d6bb9f3af16f07ce2440c354b5787b" target="_top" xlink:title=" ">
<polygon fill="white" stroke="black" points="584,-680.99 584,-710.99 763,-710.99 763,-680.99 584,-680.99"/>
<text text-anchor="start" x="592" y="-698.99" font-family="Helvetica,sans-Serif" font-size="10.00">nlohmann::detail::binary</text>
<text text-anchor="middle" x="673.5" y="-687.99" font-family="Helvetica,sans-Serif" font-size="10.00">_writer::calc_bson_unsigned_size</text>
</a>
</g>
</g>
<!-- Node3&#45;&gt;Node13 -->
<g id="edge14" class="edge">
<title>Node3&#45;&gt;Node13</title>
<path fill="none" stroke="midnightblue" d="M495.6,-638C520.03,-648.3 553.69,-661.88 584,-671.99 590.29,-674.09 596.88,-676.14 603.5,-678.1"/>
<polygon fill="midnightblue" stroke="midnightblue" points="602.61,-681.49 613.19,-680.91 604.56,-674.76 602.61,-681.49"/>
</g>
<!-- Node6 -->
<g id="node6" class="node">
<title>Node6</title>
<g id="a_node6"><a xlink:href="a01521.html#a3f6d82a6f967c4728a1ec735a7867073" target="_top" xlink:title=" ">
<polygon fill="white" stroke="black" points="820.5,-519.99 820.5,-549.99 941.5,-549.99 941.5,-519.99 820.5,-519.99"/>
<text text-anchor="start" x="828.5" y="-537.99" font-family="Helvetica,sans-Serif" font-size="10.00">nlohmann::detail::out</text>
<text text-anchor="middle" x="881" y="-526.99" font-family="Helvetica,sans-Serif" font-size="10.00">_of_range::create</text>
</a>
</g>
</g>
<!-- Node5&#45;&gt;Node6 -->
<g id="edge6" class="edge">
<title>Node5&#45;&gt;Node6</title>
<path fill="none" stroke="midnightblue" d="M741.5,-540.38C763.54,-539.52 788.09,-538.56 810.33,-537.7"/>
<polygon fill="midnightblue" stroke="midnightblue" points="810.51,-541.19 820.36,-537.31 810.23,-534.2 810.51,-541.19"/>
</g>
<!-- Node5&#45;&gt;Node8 -->
<g id="edge10" class="edge">
<title>Node5&#45;&gt;Node8</title>
<path fill="none" stroke="midnightblue" d="M741.67,-552.36C760.24,-554.9 780.39,-557.6 799,-559.99 887.8,-571.38 909.91,-575.19 999,-583.99 1059.45,-589.95 1128.44,-595.16 1177.77,-598.61"/>
<polygon fill="midnightblue" stroke="midnightblue" points="1177.77,-602.12 1187.99,-599.32 1178.26,-595.13 1177.77,-602.12"/>
</g>
<!-- Node7 -->
<g id="node7" class="node">
<title>Node7</title>
<g id="a_node7"><a xlink:href="a01505.html#abf41a7e9178356314082284e6cfea278" target="_top" xlink:title=" ">
<polygon fill="white" stroke="black" points="999,-494.99 999,-524.99 1152,-524.99 1152,-494.99 999,-494.99"/>
<text text-anchor="start" x="1007" y="-512.99" font-family="Helvetica,sans-Serif" font-size="10.00">nlohmann::detail::exception</text>
<text text-anchor="middle" x="1075.5" y="-501.99" font-family="Helvetica,sans-Serif" font-size="10.00">::name</text>
</a>
</g>
</g>
<!-- Node6&#45;&gt;Node7 -->
<g id="edge7" class="edge">
<title>Node6&#45;&gt;Node7</title>
<path fill="none" stroke="midnightblue" d="M941.59,-527.25C956.44,-525.32 972.67,-523.21 988.52,-521.15"/>
<polygon fill="midnightblue" stroke="midnightblue" points="989.4,-524.57 998.86,-519.81 988.49,-517.63 989.4,-524.57"/>
</g>
<!-- Node9 -->
<g id="node9" class="node">
<title>Node9</title>
<g id="a_node9"><a xlink:href="a01521.html#ab5fe402019dba957558499502f0fd731" target="_top" xlink:title=" ">
<polygon fill="white" stroke="black" points="1008.5,-543.99 1008.5,-573.99 1142.5,-573.99 1142.5,-543.99 1008.5,-543.99"/>
<text text-anchor="start" x="1016.5" y="-561.99" font-family="Helvetica,sans-Serif" font-size="10.00">nlohmann::detail::out</text>
<text text-anchor="middle" x="1075.5" y="-550.99" font-family="Helvetica,sans-Serif" font-size="10.00">_of_range::out_of_range</text>
</a>
</g>
</g>
<!-- Node6&#45;&gt;Node9 -->
<g id="edge9" class="edge">
<title>Node6&#45;&gt;Node9</title>
<path fill="none" stroke="midnightblue" d="M941.59,-542.42C959.56,-544.66 979.54,-547.15 998.43,-549.5"/>
<polygon fill="midnightblue" stroke="midnightblue" points="998.13,-552.99 1008.49,-550.76 999,-546.05 998.13,-552.99"/>
</g>
<!-- Node7&#45;&gt;Node8 -->
<g id="edge8" class="edge">
<title>Node7&#45;&gt;Node8</title>
<path fill="none" stroke="midnightblue" d="M1129.37,-525.11C1137.13,-528 1144.89,-531.3 1152,-534.99 1179.58,-549.28 1207.8,-571.49 1225.58,-586.61"/>
<polygon fill="midnightblue" stroke="midnightblue" points="1223.58,-589.5 1233.43,-593.4 1228.16,-584.21 1223.58,-589.5"/>
</g>
<!-- Node15&#45;&gt;Node1 -->
<g id="edge19" class="edge">
<title>Node15&#45;&gt;Node1</title>
<path fill="none" stroke="midnightblue" d="M226.76,-339.99C204.02,-349.53 171.05,-361.7 141.29,-371.74"/>
<polygon fill="midnightblue" stroke="midnightblue" points="140.14,-368.43 131.76,-374.91 142.35,-375.07 140.14,-368.43"/>
</g>
<!-- Node16 -->
<g id="node16" class="node">
<title>Node16</title>
<g id="a_node16"><a xlink:href="a01985.html#a97d34d9a70ddc06ae782c55454df42bc" target="_top" xlink:title="Writes a BSON element with key name and binary value value.">
<polygon fill="white" stroke="black" points="387,-64.99 387,-94.99 533,-94.99 533,-64.99 387,-64.99"/>
<text text-anchor="start" x="395" y="-82.99" font-family="Helvetica,sans-Serif" font-size="10.00">nlohmann::detail::binary</text>
<text text-anchor="middle" x="460" y="-71.99" font-family="Helvetica,sans-Serif" font-size="10.00">_writer::write_bson_binary</text>
</a>
</g>
</g>
<!-- Node15&#45;&gt;Node16 -->
<g id="edge20" class="edge">
<title>Node15&#45;&gt;Node16</title>
<path fill="none" stroke="midnightblue" d="M260.38,-309.98C270.16,-270.03 302.39,-160.29 372,-103.99 373.83,-102.51 375.75,-101.12 377.73,-99.81"/>
<polygon fill="midnightblue" stroke="midnightblue" points="379.87,-102.62 386.82,-94.62 376.4,-96.54 379.87,-102.62"/>
</g>
<!-- Node19 -->
<g id="node19" class="node">
<title>Node19</title>
<g id="a_node19"><a xlink:href="a01985.html#ae099435e1df3096e0fc78333282f8f67" target="_top" xlink:title="Writes a BSON element with key name and boolean value value.">
<polygon fill="white" stroke="black" points="383,-113.99 383,-143.99 537,-143.99 537,-113.99 383,-113.99"/>
<text text-anchor="start" x="391" y="-131.99" font-family="Helvetica,sans-Serif" font-size="10.00">nlohmann::detail::binary</text>
<text text-anchor="middle" x="460" y="-120.99" font-family="Helvetica,sans-Serif" font-size="10.00">_writer::write_bson_boolean</text>
</a>
</g>
</g>
<!-- Node15&#45;&gt;Node19 -->
<g id="edge24" class="edge">
<title>Node15&#45;&gt;Node19</title>
<path fill="none" stroke="midnightblue" d="M262.74,-309.93C276.33,-276.37 313.75,-195.04 372,-152.99 373.91,-151.61 375.89,-150.31 377.94,-149.08"/>
<polygon fill="midnightblue" stroke="midnightblue" points="380.03,-151.94 387.25,-144.18 376.77,-145.75 380.03,-151.94"/>
</g>
<!-- Node20 -->
<g id="node20" class="node">
<title>Node20</title>
<g id="a_node20"><a xlink:href="a01985.html#a263ec18815467bb9919021ef126919ca" target="_top" xlink:title="Writes a BSON element with key name and double value value.">
<polygon fill="white" stroke="black" points="386,-309.99 386,-339.99 534,-339.99 534,-309.99 386,-309.99"/>
<text text-anchor="start" x="394" y="-327.99" font-family="Helvetica,sans-Serif" font-size="10.00">nlohmann::detail::binary</text>
<text text-anchor="middle" x="460" y="-316.99" font-family="Helvetica,sans-Serif" font-size="10.00">_writer::write_bson_double</text>
</a>
</g>
</g>
<!-- Node15&#45;&gt;Node20 -->
<g id="edge27" class="edge">
<title>Node15&#45;&gt;Node20</title>
<path fill="none" stroke="midnightblue" d="M333.66,-324.99C347.4,-324.99 361.78,-324.99 375.69,-324.99"/>
<polygon fill="midnightblue" stroke="midnightblue" points="375.73,-328.49 385.73,-324.99 375.73,-321.49 375.73,-328.49"/>
</g>
<!-- Node21 -->
<g id="node21" class="node">
<title>Node21</title>
<g id="a_node21"><a xlink:href="a01985.html#a553ad4dbdf27238eef90867e4bf2f3e5" target="_top" xlink:title="Writes a BSON element with key name and integer value.">
<polygon fill="white" stroke="black" points="385.5,-260.99 385.5,-290.99 534.5,-290.99 534.5,-260.99 385.5,-260.99"/>
<text text-anchor="start" x="393.5" y="-278.99" font-family="Helvetica,sans-Serif" font-size="10.00">nlohmann::detail::binary</text>
<text text-anchor="middle" x="460" y="-267.99" font-family="Helvetica,sans-Serif" font-size="10.00">_writer::write_bson_integer</text>
</a>
</g>
</g>
<!-- Node15&#45;&gt;Node21 -->
<g id="edge29" class="edge">
<title>Node15&#45;&gt;Node21</title>
<path fill="none" stroke="midnightblue" d="M318.98,-309.95C340.6,-304.71 365.04,-298.78 387.37,-293.36"/>
<polygon fill="midnightblue" stroke="midnightblue" points="388.24,-296.75 397.14,-290.99 386.59,-289.95 388.24,-296.75"/>
</g>
<!-- Node22 -->
<g id="node22" class="node">
<title>Node22</title>
<g id="a_node22"><a xlink:href="a01985.html#a9927c1110b18661e0224a76156e5a7a9" target="_top" xlink:title="Writes a BSON element with key name and null value.">
<polygon fill="white" stroke="black" points="392,-211.99 392,-241.99 528,-241.99 528,-211.99 392,-211.99"/>
<text text-anchor="start" x="400" y="-229.99" font-family="Helvetica,sans-Serif" font-size="10.00">nlohmann::detail::binary</text>
<text text-anchor="middle" x="460" y="-218.99" font-family="Helvetica,sans-Serif" font-size="10.00">_writer::write_bson_null</text>
</a>
</g>
</g>
<!-- Node15&#45;&gt;Node22 -->
<g id="edge31" class="edge">
<title>Node15&#45;&gt;Node22</title>
<path fill="none" stroke="midnightblue" d="M276.31,-309.94C298.35,-293.41 336.02,-267.07 372,-250.99 376.42,-249.01 381.03,-247.16 385.74,-245.44"/>
<polygon fill="midnightblue" stroke="midnightblue" points="387.17,-248.65 395.48,-242.08 384.89,-242.03 387.17,-248.65"/>
</g>
<!-- Node23 -->
<g id="node23" class="node">
<title>Node23</title>
<g id="a_node23"><a xlink:href="a01985.html#a6231302930265eccb3f56c378f7b0661" target="_top" xlink:title="Writes a BSON element with key name and object value.">
<polygon fill="white" stroke="black" points="372,-358.99 372,-388.99 548,-388.99 548,-358.99 372,-358.99"/>
<text text-anchor="start" x="380" y="-376.99" font-family="Helvetica,sans-Serif" font-size="10.00">nlohmann::detail::binary</text>
<text text-anchor="middle" x="460" y="-365.99" font-family="Helvetica,sans-Serif" font-size="10.00">_writer::write_bson_object_entry</text>
</a>
</g>
</g>
<!-- Node15&#45;&gt;Node23 -->
<g id="edge33" class="edge">
<title>Node15&#45;&gt;Node23</title>
<path fill="none" stroke="midnightblue" d="M318.98,-340.02C340.6,-345.27 365.04,-351.19 387.37,-356.61"/>
<polygon fill="midnightblue" stroke="midnightblue" points="386.59,-360.02 397.14,-358.98 388.24,-353.22 386.59,-360.02"/>
</g>
<!-- Node25 -->
<g id="node25" class="node">
<title>Node25</title>
<g id="a_node25"><a xlink:href="a01985.html#a5e6574416915208fc035b57338ae3252" target="_top" xlink:title="Writes a BSON element with key name and string value value.">
<polygon fill="white" stroke="black" points="388.5,-162.99 388.5,-192.99 531.5,-192.99 531.5,-162.99 388.5,-162.99"/>
<text text-anchor="start" x="396.5" y="-180.99" font-family="Helvetica,sans-Serif" font-size="10.00">nlohmann::detail::binary</text>
<text text-anchor="middle" x="460" y="-169.99" font-family="Helvetica,sans-Serif" font-size="10.00">_writer::write_bson_string</text>
</a>
</g>
</g>
<!-- Node15&#45;&gt;Node25 -->
<g id="edge39" class="edge">
<title>Node15&#45;&gt;Node25</title>
<path fill="none" stroke="midnightblue" d="M267.08,-309.58C285,-283.43 324.98,-230.44 372,-201.99 374.82,-200.28 377.75,-198.7 380.78,-197.22"/>
<polygon fill="midnightblue" stroke="midnightblue" points="382.33,-200.36 390.06,-193.12 379.5,-193.96 382.33,-200.36"/>
</g>
<!-- Node26 -->
<g id="node26" class="node">
<title>Node26</title>
<g id="a_node26"><a xlink:href="a01985.html#a5e295ed1be6af6260d2a65f7397c3742" target="_top" xlink:title="Writes a BSON element with key name and unsigned value.">
<polygon fill="white" stroke="black" points="380.5,-484.99 380.5,-514.99 539.5,-514.99 539.5,-484.99 380.5,-484.99"/>
<text text-anchor="start" x="388.5" y="-502.99" font-family="Helvetica,sans-Serif" font-size="10.00">nlohmann::detail::binary</text>
<text text-anchor="middle" x="460" y="-491.99" font-family="Helvetica,sans-Serif" font-size="10.00">_writer::write_bson_unsigned</text>
</a>
</g>
</g>
<!-- Node15&#45;&gt;Node26 -->
<g id="edge41" class="edge">
<title>Node15&#45;&gt;Node26</title>
<path fill="none" stroke="midnightblue" d="M272.61,-340.32C294.36,-361.5 335.28,-400.66 372,-431.99 391.05,-448.24 413.31,-465.61 430.54,-478.73"/>
<polygon fill="midnightblue" stroke="midnightblue" points="428.48,-481.56 438.57,-484.8 432.71,-475.97 428.48,-481.56"/>
</g>
<!-- Node16&#45;&gt;Node17 -->
<g id="edge21" class="edge">
<title>Node16&#45;&gt;Node17</title>
<path fill="none" stroke="midnightblue" d="M530.57,-95.02C536.68,-97.56 542.59,-100.53 548,-103.99 598.02,-135.95 638.52,-194.25 658.66,-227"/>
<polygon fill="midnightblue" stroke="midnightblue" points="655.87,-229.14 664.02,-235.91 661.86,-225.53 655.87,-229.14"/>
</g>
<!-- Node18 -->
<g id="node18" class="node">
<title>Node18</title>
<g id="a_node18"><a xlink:href="a01985.html#a6e11b7227fcecc25a548ed45507b7d1c" target="_top" xlink:title=" ">
<polygon fill="white" stroke="black" points="605.5,-64.99 605.5,-94.99 741.5,-94.99 741.5,-64.99 605.5,-64.99"/>
<text text-anchor="start" x="613.5" y="-82.99" font-family="Helvetica,sans-Serif" font-size="10.00">nlohmann::detail::binary</text>
<text text-anchor="middle" x="673.5" y="-71.99" font-family="Helvetica,sans-Serif" font-size="10.00">_writer::write_number</text>
</a>
</g>
</g>
<!-- Node16&#45;&gt;Node18 -->
<g id="edge23" class="edge">
<title>Node16&#45;&gt;Node18</title>
<path fill="none" stroke="midnightblue" d="M533.19,-79.99C553.16,-79.99 574.9,-79.99 595.14,-79.99"/>
<polygon fill="midnightblue" stroke="midnightblue" points="595.26,-83.49 605.26,-79.99 595.26,-76.49 595.26,-83.49"/>
</g>
<!-- Node17&#45;&gt;Node14 -->
<g id="edge22" class="edge">
<title>Node17&#45;&gt;Node14</title>
<path fill="none" stroke="midnightblue" d="M737.55,-235.95C759.55,-230.71 784.41,-224.78 807.13,-219.36"/>
<polygon fill="midnightblue" stroke="midnightblue" points="808.15,-222.72 817.07,-216.99 806.53,-215.91 808.15,-222.72"/>
</g>
<!-- Node19&#45;&gt;Node14 -->
<g id="edge25" class="edge">
<title>Node19&#45;&gt;Node14</title>
<path fill="none" stroke="midnightblue" d="M537.36,-142.29C612.7,-155.42 727.26,-175.38 802.86,-188.55"/>
<polygon fill="midnightblue" stroke="midnightblue" points="802.35,-192.01 812.81,-190.28 803.55,-185.12 802.35,-192.01"/>
</g>
<!-- Node19&#45;&gt;Node17 -->
<g id="edge26" class="edge">
<title>Node19&#45;&gt;Node17</title>
<path fill="none" stroke="midnightblue" d="M526.68,-144.05C534.03,-146.63 541.29,-149.59 548,-152.99 587.48,-172.94 626.49,-206.5 650.04,-228.7"/>
<polygon fill="midnightblue" stroke="midnightblue" points="647.77,-231.37 657.41,-235.75 652.61,-226.31 647.77,-231.37"/>
</g>
<!-- Node20&#45;&gt;Node17 -->
<g id="edge28" class="edge">
<title>Node20&#45;&gt;Node17</title>
<path fill="none" stroke="midnightblue" d="M516.47,-309.9C527,-306.8 537.88,-303.42 548,-299.99 574.68,-290.93 604.02,-279.45 627.52,-269.89"/>
<polygon fill="midnightblue" stroke="midnightblue" points="628.95,-273.08 636.88,-266.05 626.3,-266.6 628.95,-273.08"/>
</g>
<!-- Node21&#45;&gt;Node17 -->
<g id="edge30" class="edge">
<title>Node21&#45;&gt;Node17</title>
<path fill="none" stroke="midnightblue" d="M534.68,-267.28C547.31,-265.78 560.62,-264.21 573.78,-262.66"/>
<polygon fill="midnightblue" stroke="midnightblue" points="574.29,-266.12 583.81,-261.47 573.47,-259.17 574.29,-266.12"/>
</g>
<!-- Node22&#45;&gt;Node17 -->
<g id="edge32" class="edge">
<title>Node22&#45;&gt;Node17</title>
<path fill="none" stroke="midnightblue" d="M528.21,-234.61C542.7,-236.26 558.3,-238.03 573.71,-239.78"/>
<polygon fill="midnightblue" stroke="midnightblue" points="573.46,-243.27 583.79,-240.92 574.25,-236.32 573.46,-243.27"/>
</g>
<!-- Node23&#45;&gt;Node17 -->
<g id="edge34" class="edge">
<title>Node23&#45;&gt;Node17</title>
<path fill="none" stroke="midnightblue" d="M524.37,-358.92C532.51,-356.08 540.59,-352.78 548,-348.99 587.37,-328.82 626.41,-295.32 650,-273.19"/>
<polygon fill="midnightblue" stroke="midnightblue" points="652.55,-275.59 657.38,-266.16 647.72,-270.52 652.55,-275.59"/>
</g>
<!-- Node24 -->
<g id="node24" class="node">
<title>Node24</title>
<g id="a_node24"><a xlink:href="a01985.html#a29b3e0f83a8e5f2307804023109ba2c9" target="_top" xlink:title=" ">
<polygon fill="white" stroke="black" points="601,-358.99 601,-388.99 746,-388.99 746,-358.99 601,-358.99"/>
<text text-anchor="start" x="609" y="-376.99" font-family="Helvetica,sans-Serif" font-size="10.00">nlohmann::detail::binary</text>
<text text-anchor="middle" x="673.5" y="-365.99" font-family="Helvetica,sans-Serif" font-size="10.00">_writer::write_bson_object</text>
</a>
</g>
</g>
<!-- Node23&#45;&gt;Node24 -->
<g id="edge35" class="edge">
<title>Node23&#45;&gt;Node24</title>
<path fill="none" stroke="midnightblue" d="M548.25,-373.99C562.35,-373.99 576.9,-373.99 590.86,-373.99"/>
<polygon fill="midnightblue" stroke="midnightblue" points="590.91,-377.49 600.91,-373.99 590.91,-370.49 590.91,-377.49"/>
</g>
<!-- Node24&#45;&gt;Node11 -->
<g id="edge36" class="edge">
<title>Node24&#45;&gt;Node11</title>
<path fill="none" stroke="midnightblue" d="M704.38,-389.11C740.45,-407.36 801.2,-438.11 840.95,-458.22"/>
<polygon fill="midnightblue" stroke="midnightblue" points="839.58,-461.45 850.08,-462.85 842.74,-455.21 839.58,-461.45"/>
</g>
<!-- Node24&#45;&gt;Node14 -->
<g id="edge37" class="edge">
<title>Node24&#45;&gt;Node14</title>
<path fill="none" stroke="midnightblue" d="M692.74,-358.72C729.3,-328.12 811.66,-259.19 853.91,-223.82"/>
<polygon fill="midnightblue" stroke="midnightblue" points="856.38,-226.32 861.8,-217.22 851.89,-220.95 856.38,-226.32"/>
</g>
<!-- Node24&#45;&gt;Node15 -->
<g id="edge38" class="edge">
<title>Node24&#45;&gt;Node15</title>
<path fill="none" stroke="midnightblue" d="M621.13,-389.04C560.38,-404.36 456.81,-422.63 372,-397.99 337.57,-387.98 303.58,-364.22 281.59,-346.51"/>
<polygon fill="midnightblue" stroke="midnightblue" points="283.71,-343.72 273.77,-340.05 279.26,-349.12 283.71,-343.72"/>
</g>
<!-- Node25&#45;&gt;Node17 -->
<g id="edge40" class="edge">
<title>Node25&#45;&gt;Node17</title>
<path fill="none" stroke="midnightblue" d="M518.82,-193.01C528.61,-195.82 538.64,-198.86 548,-201.99 574.82,-210.94 604.29,-222.45 627.81,-232.07"/>
<polygon fill="midnightblue" stroke="midnightblue" points="626.6,-235.36 637.18,-235.93 629.27,-228.89 626.6,-235.36"/>
</g>
<!-- Node26&#45;&gt;Node6 -->
<g id="edge42" class="edge">
<title>Node26&#45;&gt;Node6</title>
<path fill="none" stroke="midnightblue" d="M539.77,-500.3C600.86,-501.29 687.53,-504.31 763,-512.99 778.41,-514.76 794.84,-517.38 810.37,-520.21"/>
<polygon fill="midnightblue" stroke="midnightblue" points="809.96,-523.69 820.43,-522.08 811.24,-516.81 809.96,-523.69"/>
</g>
<!-- Node26&#45;&gt;Node8 -->
<g id="edge43" class="edge">
<title>Node26&#45;&gt;Node8</title>
<path fill="none" stroke="midnightblue" d="M533.71,-484.96C631.33,-466.66 810.17,-439.74 963,-452.99 1047.95,-460.35 1078.8,-442.24 1152,-485.99 1191.93,-509.85 1221.19,-558 1235.05,-584.48"/>
<polygon fill="midnightblue" stroke="midnightblue" points="1231.96,-586.13 1239.59,-593.48 1238.21,-582.98 1231.96,-586.13"/>
</g>
<!-- Node26&#45;&gt;Node17 -->
<g id="edge44" class="edge">
<title>Node26&#45;&gt;Node17</title>
<path fill="none" stroke="midnightblue" d="M527.31,-484.85C534.98,-480.97 542.14,-476.1 548,-469.99 586.81,-429.47 556.52,-397.9 584,-348.99 600.55,-319.52 627.39,-291.49 647.18,-273.02"/>
<polygon fill="midnightblue" stroke="midnightblue" points="649.63,-275.52 654.65,-266.18 644.91,-270.35 649.63,-275.52"/>
</g>
</g>
</svg>
