<?xml version="1.0" encoding="UTF-8" standalone="no"?>
<!DOCTYPE svg PUBLIC "-//W3C//DTD SVG 1.1//EN"
 "http://www.w3.org/Graphics/SVG/1.1/DTD/svg11.dtd">
<!-- Generated by graphviz version 5.0.0 (20220707.1540)
 -->
<!-- Title: nlohmann::detail::binary_writer::calc_bson_integer_size Pages: 1 -->
<svg width="1375pt" height="88pt"
 viewBox="0.00 0.00 1375.00 88.00" xmlns="http://www.w3.org/2000/svg" xmlns:xlink="http://www.w3.org/1999/xlink">
<g id="graph0" class="graph" transform="scale(1 1) rotate(0) translate(4 84)">
<title>nlohmann::detail::binary_writer::calc_bson_integer_size</title>
<polygon fill="white" stroke="transparent" points="-4,4 -4,-84 1371,-84 1371,4 -4,4"/>
<!-- Node1 -->
<g id="node1" class="node">
<title>Node1</title>
<g id="a_node1"><a xlink:title=" ">
<polygon fill="#bfbfbf" stroke="black" points="1214,-22.5 1214,-52.5 1367,-52.5 1367,-22.5 1214,-22.5"/>
<text text-anchor="start" x="1222" y="-40.5" font-family="Helvetica,sans-Serif" font-size="10.00">nlohmann::detail::binary</text>
<text text-anchor="middle" x="1290.5" y="-29.5" font-family="Helvetica,sans-Serif" font-size="10.00">_writer::calc_bson_integer_size</text>
</a>
</g>
</g>
<!-- Node2 -->
<g id="node2" class="node">
<title>Node2</title>
<g id="a_node2"><a xlink:href="a01973.html#a1e4372c5984184eb5bcc09af1fcc2ee0" target="_top" xlink:title="Calculates the size necessary to serialize the JSON value j with its name.">
<polygon fill="white" stroke="black" points="1020,-22.5 1020,-52.5 1178,-52.5 1178,-22.5 1020,-22.5"/>
<text text-anchor="start" x="1028" y="-40.5" font-family="Helvetica,sans-Serif" font-size="10.00">nlohmann::detail::binary</text>
<text text-anchor="middle" x="1099" y="-29.5" font-family="Helvetica,sans-Serif" font-size="10.00">_writer::calc_bson_element_size</text>
</a>
</g>
</g>
<!-- Node1&#45;&gt;Node2 -->
<g id="edge1" class="edge">
<title>Node1&#45;&gt;Node2</title>
<path fill="none" stroke="midnightblue" d="M1203.51,-37.5C1195.03,-37.5 1186.46,-37.5 1178.07,-37.5"/>
<polygon fill="midnightblue" stroke="midnightblue" points="1203.79,-41 1213.79,-37.5 1203.79,-34 1203.79,-41"/>
</g>
<!-- Node3 -->
<g id="node3" class="node">
<title>Node3</title>
<g id="a_node3"><a xlink:href="a01973.html#af08f9302a02516ff8cf358a99aaa1ddf" target="_top" xlink:title=" ">
<polygon fill="white" stroke="black" points="838,-22.5 838,-52.5 984,-52.5 984,-22.5 838,-22.5"/>
<text text-anchor="start" x="846" y="-40.5" font-family="Helvetica,sans-Serif" font-size="10.00">nlohmann::detail::binary</text>
<text text-anchor="middle" x="911" y="-29.5" font-family="Helvetica,sans-Serif" font-size="10.00">_writer::calc_bson_array_size</text>
</a>
</g>
</g>
<!-- Node2&#45;&gt;Node3 -->
<g id="edge2" class="edge">
<title>Node2&#45;&gt;Node3</title>
<path fill="none" stroke="midnightblue" d="M1009.88,-30.76C1001.29,-30.73 992.65,-30.78 984.24,-30.9"/>
<polygon fill="midnightblue" stroke="midnightblue" points="1009.9,-34.26 1019.93,-30.83 1009.95,-27.26 1009.9,-34.26"/>
</g>
<!-- Node3&#45;&gt;Node2 -->
<g id="edge3" class="edge">
<title>Node3&#45;&gt;Node2</title>
<path fill="none" stroke="midnightblue" d="M994.48,-44.21C1002.94,-44.27 1011.52,-44.26 1019.93,-44.17"/>
<polygon fill="midnightblue" stroke="midnightblue" points="994.27,-40.71 984.24,-44.1 994.2,-47.71 994.27,-40.71"/>
</g>
<!-- Node4 -->
<g id="node4" class="node">
<title>Node4</title>
<g id="a_node4"><a xlink:href="a01973.html#a025212bd170253638b9f05b3b6aa5bf9" target="_top" xlink:title="Writes a BSON element with key name and array value.">
<polygon fill="white" stroke="black" points="677,-22.5 677,-52.5 802,-52.5 802,-22.5 677,-22.5"/>
<text text-anchor="start" x="685" y="-40.5" font-family="Helvetica,sans-Serif" font-size="10.00">nlohmann::detail::binary</text>
<text text-anchor="middle" x="739.5" y="-29.5" font-family="Helvetica,sans-Serif" font-size="10.00">_writer::write_bson_array</text>
</a>
</g>
</g>
<!-- Node3&#45;&gt;Node4 -->
<g id="edge4" class="edge">
<title>Node3&#45;&gt;Node4</title>
<path fill="none" stroke="midnightblue" d="M827.62,-37.5C819.07,-37.5 810.49,-37.5 802.22,-37.5"/>
<polygon fill="midnightblue" stroke="midnightblue" points="827.63,-41 837.63,-37.5 827.63,-34 827.63,-41"/>
</g>
<!-- Node5 -->
<g id="node5" class="node">
<title>Node5</title>
<g id="a_node5"><a xlink:href="a01973.html#a7ff58bf1a80018148bed860667ffca07" target="_top" xlink:title="Serializes the JSON value j to BSON and associates it with the key name.">
<polygon fill="white" stroke="black" points="504,-22.5 504,-52.5 641,-52.5 641,-22.5 504,-22.5"/>
<text text-anchor="start" x="512" y="-40.5" font-family="Helvetica,sans-Serif" font-size="10.00">nlohmann::detail::binary</text>
<text text-anchor="middle" x="572.5" y="-29.5" font-family="Helvetica,sans-Serif" font-size="10.00">_writer::write_bson_element</text>
</a>
</g>
</g>
<!-- Node4&#45;&gt;Node5 -->
<g id="edge5" class="edge">
<title>Node4&#45;&gt;Node5</title>
<path fill="none" stroke="midnightblue" d="M666.4,-30.8C657.96,-30.72 649.38,-30.74 641.01,-30.85"/>
<polygon fill="midnightblue" stroke="midnightblue" points="666.54,-34.3 676.59,-30.94 666.64,-27.3 666.54,-34.3"/>
</g>
<!-- Node5&#45;&gt;Node4 -->
<g id="edge6" class="edge">
<title>Node5&#45;&gt;Node4</title>
<path fill="none" stroke="midnightblue" d="M651.02,-44.24C659.6,-44.28 668.24,-44.22 676.59,-44.06"/>
<polygon fill="midnightblue" stroke="midnightblue" points="651.04,-40.74 641.01,-44.15 650.98,-47.74 651.04,-40.74"/>
</g>
<!-- Node6 -->
<g id="node6" class="node">
<title>Node6</title>
<g id="a_node6"><a xlink:href="a01973.html#a29b3e0f83a8e5f2307804023109ba2c9" target="_top" xlink:title=" ">
<polygon fill="white" stroke="black" points="339,-44.5 339,-74.5 468,-74.5 468,-44.5 339,-44.5"/>
<text text-anchor="start" x="347" y="-62.5" font-family="Helvetica,sans-Serif" font-size="10.00">nlohmann::detail::binary</text>
<text text-anchor="middle" x="403.5" y="-51.5" font-family="Helvetica,sans-Serif" font-size="10.00">_writer::write_bson_object</text>
</a>
</g>
</g>
<!-- Node5&#45;&gt;Node6 -->
<g id="edge7" class="edge">
<title>Node5&#45;&gt;Node6</title>
<path fill="none" stroke="midnightblue" d="M493.59,-47.76C485.04,-48.89 476.4,-50.03 468.05,-51.13"/>
<polygon fill="midnightblue" stroke="midnightblue" points="494.12,-51.22 503.57,-46.45 493.2,-44.28 494.12,-51.22"/>
</g>
<!-- Node7 -->
<g id="node7" class="node">
<title>Node7</title>
<g id="a_node7"><a xlink:href="a01973.html#a9ffc566db5219b473762462234b47db9" target="_top" xlink:title=" ">
<polygon fill="white" stroke="black" points="165,-49.5 165,-79.5 285,-79.5 285,-49.5 165,-49.5"/>
<text text-anchor="start" x="173" y="-67.5" font-family="Helvetica,sans-Serif" font-size="10.00">nlohmann::detail::binary</text>
<text text-anchor="middle" x="225" y="-56.5" font-family="Helvetica,sans-Serif" font-size="10.00">_writer::write_bson</text>
</a>
</g>
</g>
<!-- Node6&#45;&gt;Node7 -->
<g id="edge8" class="edge">
<title>Node6&#45;&gt;Node7</title>
<path fill="none" stroke="midnightblue" d="M328.4,-61.6C313.99,-62.01 299.07,-62.43 285.22,-62.82"/>
<polygon fill="midnightblue" stroke="midnightblue" points="328.88,-65.09 338.78,-61.31 328.68,-58.09 328.88,-65.09"/>
</g>
<!-- Node9 -->
<g id="node9" class="node">
<title>Node9</title>
<g id="a_node9"><a xlink:href="a01973.html#a6231302930265eccb3f56c378f7b0661" target="_top" xlink:title="Writes a BSON element with key name and object value.">
<polygon fill="white" stroke="black" points="147,-0.5 147,-30.5 303,-30.5 303,-0.5 147,-0.5"/>
<text text-anchor="start" x="155" y="-18.5" font-family="Helvetica,sans-Serif" font-size="10.00">nlohmann::detail::binary</text>
<text text-anchor="middle" x="225" y="-7.5" font-family="Helvetica,sans-Serif" font-size="10.00">_writer::write_bson_object_entry</text>
</a>
</g>
</g>
<!-- Node6&#45;&gt;Node9 -->
<g id="edge10" class="edge">
<title>Node6&#45;&gt;Node9</title>
<path fill="none" stroke="midnightblue" d="M332.36,-42.01C317.11,-38.21 301.1,-34.22 286.28,-30.53"/>
<polygon fill="midnightblue" stroke="midnightblue" points="331.7,-45.46 342.25,-44.48 333.4,-38.67 331.7,-45.46"/>
</g>
<!-- Node8 -->
<g id="node8" class="node">
<title>Node8</title>
<g id="a_node8"><a xlink:href="a01593.html#a668e4c2ad9808218a25879700f4aef2b" target="_top" xlink:title="Serializes the given JSON object j to BSON and forwards the corresponding BSON&#45;representation to the ...">
<polygon fill="white" stroke="black" points="0,-49.5 0,-79.5 111,-79.5 111,-49.5 0,-49.5"/>
<text text-anchor="start" x="8" y="-67.5" font-family="Helvetica,sans-Serif" font-size="10.00">nlohmann::basic_json</text>
<text text-anchor="middle" x="55.5" y="-56.5" font-family="Helvetica,sans-Serif" font-size="10.00">::to_bson</text>
</a>
</g>
</g>
<!-- Node7&#45;&gt;Node8 -->
<g id="edge9" class="edge">
<title>Node7&#45;&gt;Node8</title>
<path fill="none" stroke="midnightblue" d="M154.53,-64.5C140.04,-64.5 124.96,-64.5 111.1,-64.5"/>
<polygon fill="midnightblue" stroke="midnightblue" points="154.95,-68 164.95,-64.5 154.95,-61 154.95,-68"/>
</g>
<!-- Node9&#45;&gt;Node5 -->
<g id="edge11" class="edge">
<title>Node9&#45;&gt;Node5</title>
<path fill="none" stroke="midnightblue" d="M313.09,-21.05C372.16,-24.81 449.13,-29.71 503.65,-33.18"/>
<polygon fill="midnightblue" stroke="midnightblue" points="313.23,-17.55 303.03,-20.4 312.78,-24.53 313.23,-17.55"/>
</g>
</g>
</svg>
