<?xml version="1.0" encoding="UTF-8" standalone="no"?>
<!DOCTYPE svg PUBLIC "-//W3C//DTD SVG 1.1//EN"
 "http://www.w3.org/Graphics/SVG/1.1/DTD/svg11.dtd">
<!-- Generated by graphviz version 7.0.1 (20221109.1506)
 -->
<!-- Title: nlohmann::detail::lexer::scan_comment Pages: 1 -->
<svg width="293pt" height="76pt"
 viewBox="0.00 0.00 293.00 75.50" xmlns="http://www.w3.org/2000/svg" xmlns:xlink="http://www.w3.org/1999/xlink">
<g id="graph0" class="graph" transform="scale(1 1) rotate(0) translate(4 71.5)">
<title>nlohmann::detail::lexer::scan_comment</title>
<!-- Node1 -->
<g id="node1" class="node">
<title>Node1</title>
<g id="a_node1"><a xlink:title="scan a comment">
<polygon fill="#999999" stroke="#666666" points="115,-51 0,-51 0,-21 115,-21 115,-51"/>
<text text-anchor="start" x="8" y="-39" font-family="Helvetica,sans-Serif" font-size="10.00">nlohmann::detail::lexer</text>
<text text-anchor="middle" x="57.5" y="-28" font-family="Helvetica,sans-Serif" font-size="10.00">::scan_comment</text>
</a>
</g>
</g>
<!-- Node2 -->
<g id="node2" class="node">
<title>Node2</title>
<g id="a_node2"><a xlink:href="a01917.html#a9cd3e4cf04d19be521beb8868c1a2fc9" target="_top" xlink:title=" ">
<polygon fill="white" stroke="#666666" points="285,-67.5 151,-67.5 151,-48.5 285,-48.5 285,-67.5"/>
<text text-anchor="middle" x="218" y="-55.5" font-family="Helvetica,sans-Serif" font-size="10.00">nlohmann::detail::lexer::get</text>
</a>
</g>
</g>
<!-- Node1&#45;&gt;Node2 -->
<g id="edge1" class="edge">
<title>Node1&#45;&gt;Node2</title>
<path fill="none" stroke="#63b8ff" d="M115.27,-43.88C123.06,-44.96 131.17,-46.09 139.25,-47.21"/>
<polygon fill="#63b8ff" stroke="#63b8ff" points="138.74,-50.67 149.13,-48.58 139.71,-43.74 138.74,-50.67"/>
</g>
<!-- Node3 -->
<g id="node3" class="node">
<title>Node3</title>
<g id="a_node3"><a xlink:href="a01917.html#ab5811afe1c3efb0b769f7733b8373c6f" target="_top" xlink:title="unget current character (read it again on next get)">
<polygon fill="white" stroke="#666666" points="275.5,-30 160.5,-30 160.5,0 275.5,0 275.5,-30"/>
<text text-anchor="start" x="168.5" y="-18" font-family="Helvetica,sans-Serif" font-size="10.00">nlohmann::detail::lexer</text>
<text text-anchor="middle" x="218" y="-7" font-family="Helvetica,sans-Serif" font-size="10.00">::unget</text>
</a>
</g>
</g>
<!-- Node1&#45;&gt;Node3 -->
<g id="edge2" class="edge">
<title>Node1&#45;&gt;Node3</title>
<path fill="none" stroke="#63b8ff" d="M115.27,-28.48C126.2,-27.03 137.75,-25.5 148.99,-24.01"/>
<polygon fill="#63b8ff" stroke="#63b8ff" points="149.14,-27.52 158.59,-22.74 148.22,-20.58 149.14,-27.52"/>
</g>
</g>
</svg>
