<?xml version="1.0" encoding="UTF-8" standalone="no"?>
<!DOCTYPE svg PUBLIC "-//W3C//DTD SVG 1.1//EN"
 "http://www.w3.org/Graphics/SVG/1.1/DTD/svg11.dtd">
<!-- Generated by graphviz version 8.0.5 (20230430.1635)
 -->
<!-- Title: nlohmann::detail::binary_reader::get_cbor_string Pages: 1 -->
<svg width="795pt" height="282pt"
 viewBox="0.00 0.00 795.25 282.00" xmlns="http://www.w3.org/2000/svg" xmlns:xlink="http://www.w3.org/1999/xlink">
<g id="graph0" class="graph" transform="scale(1 1) rotate(0) translate(4 278)">
<title>nlohmann::detail::binary_reader::get_cbor_string</title>
<!-- Node1 -->
<g id="node1" class="node">
<title>Node1</title>
<g id="a_node1"><a xlink:title="reads a CBOR string">
<polygon fill="#999999" stroke="#666666" points="121,-158 0,-158 0,-126 121,-126 121,-158"/>
<text text-anchor="start" x="8" y="-144.5" font-family="Helvetica,sans-Serif" font-size="10.00">nlohmann::detail::binary</text>
<text text-anchor="middle" x="60.5" y="-132.5" font-family="Helvetica,sans-Serif" font-size="10.00">_reader::get_cbor_string</text>
</a>
</g>
</g>
<!-- Node1&#45;&gt;Node1 -->
<g id="edge6" class="edge">
<title>Node1&#45;&gt;Node1</title>
<path fill="none" stroke="#63b8ff" d="M32,-158.44C26.68,-167.58 36.18,-176 60.5,-176 74.56,-176 83.66,-173.19 87.82,-169.05"/>
<polygon fill="#63b8ff" stroke="#63b8ff" points="91.37,-169.77 89,-159.44 84.41,-168.99 91.37,-169.77"/>
</g>
<!-- Node2 -->
<g id="node2" class="node">
<title>Node2</title>
<g id="a_node2"><a xlink:href="a01563.html#a137ea4d27de45d8a844fd13451d40f3d" target="_top" xlink:title="create a parse error exception">
<polygon fill="white" stroke="#666666" points="604,-249 486.75,-249 486.75,-217 604,-217 604,-249"/>
<text text-anchor="start" x="494.75" y="-235.5" font-family="Helvetica,sans-Serif" font-size="10.00">nlohmann::detail::parse</text>
<text text-anchor="middle" x="545.38" y="-223.5" font-family="Helvetica,sans-Serif" font-size="10.00">_error::create</text>
</a>
</g>
</g>
<!-- Node1&#45;&gt;Node2 -->
<g id="edge1" class="edge">
<title>Node1&#45;&gt;Node2</title>
<path fill="none" stroke="#63b8ff" d="M72.07,-158.32C87.57,-180.59 118.84,-219.49 157,-235 261.79,-277.59 396.11,-263.35 475.91,-248.58"/>
<polygon fill="#63b8ff" stroke="#63b8ff" points="476.16,-251.9 485.32,-246.59 474.84,-245.03 476.16,-251.9"/>
</g>
<!-- Node5 -->
<g id="node5" class="node">
<title>Node5</title>
<g id="a_node5"><a xlink:href="a01995.html#a9c413c9a1bade1ce345740f4d69156f0" target="_top" xlink:title=" ">
<polygon fill="white" stroke="#666666" points="616,-158 474.75,-158 474.75,-126 616,-126 616,-158"/>
<text text-anchor="start" x="482.75" y="-144.5" font-family="Helvetica,sans-Serif" font-size="10.00">nlohmann::detail::binary</text>
<text text-anchor="middle" x="545.38" y="-132.5" font-family="Helvetica,sans-Serif" font-size="10.00">_reader::exception_message</text>
</a>
</g>
</g>
<!-- Node1&#45;&gt;Node5 -->
<g id="edge4" class="edge">
<title>Node1&#45;&gt;Node5</title>
<path fill="none" stroke="#63b8ff" d="M96.95,-125.63C114.59,-118.36 136.48,-110.64 157,-107 280.37,-85.1 314.82,-98.48 438.75,-117 449.55,-118.61 460.88,-120.78 471.94,-123.16"/>
<polygon fill="#63b8ff" stroke="#63b8ff" points="470.92,-126.74 481.44,-125.51 472.44,-119.91 470.92,-126.74"/>
</g>
<!-- Node6 -->
<g id="node6" class="node">
<title>Node6</title>
<g id="a_node6"><a xlink:href="a01995.html#ad222095c0b21a87824cb10629299629a" target="_top" xlink:title="get next character from the input">
<polygon fill="white" stroke="#666666" points="438.75,-158 319.25,-158 319.25,-126 438.75,-126 438.75,-158"/>
<text text-anchor="start" x="327.25" y="-144.5" font-family="Helvetica,sans-Serif" font-size="10.00">nlohmann::detail::binary</text>
<text text-anchor="middle" x="379" y="-132.5" font-family="Helvetica,sans-Serif" font-size="10.00">_reader::get</text>
</a>
</g>
</g>
<!-- Node1&#45;&gt;Node6 -->
<g id="edge5" class="edge">
<title>Node1&#45;&gt;Node6</title>
<path fill="none" stroke="#63b8ff" d="M114.56,-125.54C128.25,-122 143.06,-118.79 157,-117 212.65,-109.84 227.61,-109.78 283.25,-117 293.63,-118.35 304.48,-120.49 315,-122.97"/>
<polygon fill="#63b8ff" stroke="#63b8ff" points="313.81,-126.53 324.36,-125.54 315.5,-119.73 313.81,-126.53"/>
</g>
<!-- Node7 -->
<g id="node7" class="node">
<title>Node7</title>
<g id="a_node7"><a xlink:href="a01995.html#ac356c6364fe0273d3303fb7a447f4ef6" target="_top" xlink:title=" ">
<polygon fill="white" stroke="#666666" points="279.88,-158 160.38,-158 160.38,-126 279.88,-126 279.88,-158"/>
<text text-anchor="start" x="168.38" y="-144.5" font-family="Helvetica,sans-Serif" font-size="10.00">nlohmann::detail::binary</text>
<text text-anchor="middle" x="220.13" y="-132.5" font-family="Helvetica,sans-Serif" font-size="10.00">_reader::get_number</text>
</a>
</g>
</g>
<!-- Node1&#45;&gt;Node7 -->
<g id="edge7" class="edge">
<title>Node1&#45;&gt;Node7</title>
<path fill="none" stroke="#63b8ff" d="M121.09,-142C130.24,-142 139.76,-142 149.11,-142"/>
<polygon fill="#63b8ff" stroke="#63b8ff" points="148.97,-145.5 158.97,-142 148.97,-138.5 148.97,-145.5"/>
</g>
<!-- Node8 -->
<g id="node8" class="node">
<title>Node8</title>
<g id="a_node8"><a xlink:href="a01995.html#a61a0bd8bbe7b560bd429fa990ba3ba1a" target="_top" xlink:title=" ">
<polygon fill="white" stroke="#666666" points="438.75,-208 319.25,-208 319.25,-176 438.75,-176 438.75,-208"/>
<text text-anchor="start" x="327.25" y="-194.5" font-family="Helvetica,sans-Serif" font-size="10.00">nlohmann::detail::binary</text>
<text text-anchor="middle" x="379" y="-182.5" font-family="Helvetica,sans-Serif" font-size="10.00">_reader::unexpect_eof</text>
</a>
</g>
</g>
<!-- Node1&#45;&gt;Node8 -->
<g id="edge16" class="edge">
<title>Node1&#45;&gt;Node8</title>
<path fill="none" stroke="#63b8ff" d="M75.73,-158.39C92.86,-176.74 123.53,-205.43 157,-217 211.17,-235.73 276.82,-224.33 322.43,-211.45"/>
<polygon fill="#63b8ff" stroke="#63b8ff" points="323.1,-214.61 331.71,-208.43 321.13,-207.89 323.1,-214.61"/>
</g>
<!-- Node9 -->
<g id="node9" class="node">
<title>Node9</title>
<g id="a_node9"><a xlink:href="a01995.html#a540919db22df36512f05a88945c13263" target="_top" xlink:title="create a string by reading characters from the input">
<polygon fill="white" stroke="#666666" points="279.88,-208 160.38,-208 160.38,-176 279.88,-176 279.88,-208"/>
<text text-anchor="start" x="168.38" y="-194.5" font-family="Helvetica,sans-Serif" font-size="10.00">nlohmann::detail::binary</text>
<text text-anchor="middle" x="220.13" y="-182.5" font-family="Helvetica,sans-Serif" font-size="10.00">_reader::get_string</text>
</a>
</g>
</g>
<!-- Node1&#45;&gt;Node9 -->
<g id="edge12" class="edge">
<title>Node1&#45;&gt;Node9</title>
<path fill="none" stroke="#63b8ff" d="M113.11,-158.37C127.06,-162.8 142.3,-167.63 156.76,-172.22"/>
<polygon fill="#63b8ff" stroke="#63b8ff" points="155.54,-175.82 166.13,-175.51 157.65,-169.15 155.54,-175.82"/>
</g>
<!-- Node10 -->
<g id="node10" class="node">
<title>Node10</title>
<g id="a_node10"><a xlink:href="a01995.html#a7d323283c60a0b89ee5eeadf5cb9a5ad" target="_top" xlink:title=" ">
<polygon fill="white" stroke="#666666" points="283.25,-32 157,-32 157,0 283.25,0 283.25,-32"/>
<text text-anchor="start" x="165" y="-18.5" font-family="Helvetica,sans-Serif" font-size="10.00">nlohmann::detail::binary</text>
<text text-anchor="middle" x="220.13" y="-6.5" font-family="Helvetica,sans-Serif" font-size="10.00">_reader::get_token_string</text>
</a>
</g>
</g>
<!-- Node1&#45;&gt;Node10 -->
<g id="edge15" class="edge">
<title>Node1&#45;&gt;Node10</title>
<path fill="none" stroke="#63b8ff" d="M74.66,-125.71C91.91,-105.14 123.87,-69.6 157,-46 161.17,-43.03 165.68,-40.21 170.3,-37.59"/>
<polygon fill="#63b8ff" stroke="#63b8ff" points="171.7,-40.27 178.86,-32.46 168.4,-34.1 171.7,-40.27"/>
</g>
<!-- Node3 -->
<g id="node3" class="node">
<title>Node3</title>
<g id="a_node3"><a xlink:href="a01559.html#abf41a7e9178356314082284e6cfea278" target="_top" xlink:title=" ">
<polygon fill="white" stroke="#666666" points="787.25,-274 652,-274 652,-242 787.25,-242 787.25,-274"/>
<text text-anchor="start" x="660" y="-260.5" font-family="Helvetica,sans-Serif" font-size="10.00">nlohmann::detail::exception</text>
<text text-anchor="middle" x="719.63" y="-248.5" font-family="Helvetica,sans-Serif" font-size="10.00">::name</text>
</a>
</g>
</g>
<!-- Node2&#45;&gt;Node3 -->
<g id="edge2" class="edge">
<title>Node2&#45;&gt;Node3</title>
<path fill="none" stroke="#63b8ff" d="M604.21,-241.39C616,-243.11 628.59,-244.93 640.95,-246.73"/>
<polygon fill="#63b8ff" stroke="#63b8ff" points="640.32,-250.32 650.72,-248.29 641.32,-243.39 640.32,-250.32"/>
</g>
<!-- Node4 -->
<g id="node4" class="node">
<title>Node4</title>
<g id="a_node4"><a xlink:href="a01563.html#aefe74adeaa48781464ba2fd2ec63d221" target="_top" xlink:title=" ">
<polygon fill="white" stroke="#666666" points="778.25,-224 661,-224 661,-192 778.25,-192 778.25,-224"/>
<text text-anchor="start" x="669" y="-210.5" font-family="Helvetica,sans-Serif" font-size="10.00">nlohmann::detail::parse</text>
<text text-anchor="middle" x="719.63" y="-198.5" font-family="Helvetica,sans-Serif" font-size="10.00">_error::position_string</text>
</a>
</g>
</g>
<!-- Node2&#45;&gt;Node4 -->
<g id="edge3" class="edge">
<title>Node2&#45;&gt;Node4</title>
<path fill="none" stroke="#63b8ff" d="M604.21,-224.61C618.84,-222.48 634.69,-220.18 649.8,-217.99"/>
<polygon fill="#63b8ff" stroke="#63b8ff" points="650.25,-221.31 659.65,-216.41 649.25,-214.39 650.25,-221.31"/>
</g>
<!-- Node7&#45;&gt;Node6 -->
<g id="edge8" class="edge">
<title>Node7&#45;&gt;Node6</title>
<path fill="none" stroke="#63b8ff" d="M279.99,-142C289.11,-142 298.61,-142 307.95,-142"/>
<polygon fill="#63b8ff" stroke="#63b8ff" points="307.81,-145.5 317.81,-142 307.81,-138.5 307.81,-145.5"/>
</g>
<!-- Node7&#45;&gt;Node8 -->
<g id="edge9" class="edge">
<title>Node7&#45;&gt;Node8</title>
<path fill="none" stroke="#63b8ff" d="M272.49,-158.37C286.37,-162.8 301.54,-167.63 315.93,-172.22"/>
<polygon fill="#63b8ff" stroke="#63b8ff" points="314.66,-175.8 325.25,-175.51 316.78,-169.13 314.66,-175.8"/>
</g>
<!-- Node8&#45;&gt;Node2 -->
<g id="edge10" class="edge">
<title>Node8&#45;&gt;Node2</title>
<path fill="none" stroke="#63b8ff" d="M438.88,-206.69C450.85,-209.67 463.54,-212.84 475.81,-215.9"/>
<polygon fill="#63b8ff" stroke="#63b8ff" points="474.91,-219.53 485.46,-218.55 476.6,-212.74 474.91,-219.53"/>
</g>
<!-- Node8&#45;&gt;Node5 -->
<g id="edge11" class="edge">
<title>Node8&#45;&gt;Node5</title>
<path fill="none" stroke="#63b8ff" d="M433.82,-175.63C448.5,-171.16 464.56,-166.28 479.78,-161.65"/>
<polygon fill="#63b8ff" stroke="#63b8ff" points="480.6,-164.75 489.15,-158.49 478.56,-158.06 480.6,-164.75"/>
</g>
<!-- Node9&#45;&gt;Node6 -->
<g id="edge13" class="edge">
<title>Node9&#45;&gt;Node6</title>
<path fill="none" stroke="#63b8ff" d="M272.49,-175.63C286.37,-171.2 301.54,-166.37 315.93,-161.78"/>
<polygon fill="#63b8ff" stroke="#63b8ff" points="316.78,-164.87 325.25,-158.49 314.66,-158.2 316.78,-164.87"/>
</g>
<!-- Node9&#45;&gt;Node8 -->
<g id="edge14" class="edge">
<title>Node9&#45;&gt;Node8</title>
<path fill="none" stroke="#63b8ff" d="M279.99,-192C289.11,-192 298.61,-192 307.95,-192"/>
<polygon fill="#63b8ff" stroke="#63b8ff" points="307.81,-195.5 317.81,-192 307.81,-188.5 307.81,-195.5"/>
</g>
</g>
</svg>
