<?xml version="1.0" encoding="UTF-8" standalone="no"?>
<!DOCTYPE svg PUBLIC "-//W3C//DTD SVG 1.1//EN"
 "http://www.w3.org/Graphics/SVG/1.1/DTD/svg11.dtd">
<!-- Generated by graphviz version 7.0.2 (20221119.0110)
 -->
<!-- Title: nlohmann::detail::binary_reader::get_ubjson_high_precision_number Pages: 1 -->
<svg width="947pt" height="230pt"
 viewBox="0.00 0.00 947.00 230.00" xmlns="http://www.w3.org/2000/svg" xmlns:xlink="http://www.w3.org/1999/xlink">
<g id="graph0" class="graph" transform="scale(1 1) rotate(0) translate(4 226)">
<title>nlohmann::detail::binary_reader::get_ubjson_high_precision_number</title>
<!-- Node1 -->
<g id="node1" class="node">
<title>Node1</title>
<g id="a_node1"><a xlink:title=" ">
<polygon fill="#999999" stroke="#666666" points="939,-131.5 814,-131.5 814,-90.5 939,-90.5 939,-131.5"/>
<text text-anchor="start" x="822" y="-119.5" font-family="Helvetica,sans-Serif" font-size="10.00">nlohmann::detail::binary</text>
<text text-anchor="start" x="822" y="-108.5" font-family="Helvetica,sans-Serif" font-size="10.00">_reader::get_ubjson_high</text>
<text text-anchor="middle" x="876.5" y="-97.5" font-family="Helvetica,sans-Serif" font-size="10.00">_precision_number</text>
</a>
</g>
</g>
<!-- Node2 -->
<g id="node2" class="node">
<title>Node2</title>
<g id="a_node2"><a xlink:href="a01929.html#a7e5e0b71548d0649ce4f131280d06c33" target="_top" xlink:title=" ">
<polygon fill="white" stroke="#666666" points="778,-126 649,-126 649,-96 778,-96 778,-126"/>
<text text-anchor="start" x="657" y="-114" font-family="Helvetica,sans-Serif" font-size="10.00">nlohmann::detail::binary</text>
<text text-anchor="middle" x="713.5" y="-103" font-family="Helvetica,sans-Serif" font-size="10.00">_reader::get_ubjson_value</text>
</a>
</g>
</g>
<!-- Node1&#45;&gt;Node2 -->
<g id="edge1" class="edge">
<title>Node1&#45;&gt;Node2</title>
<path fill="none" stroke="#63b8ff" d="M802.42,-111C794.35,-111 786.19,-111 778.25,-111"/>
<polygon fill="#63b8ff" stroke="#63b8ff" points="802.2,-114.5 812.2,-111 802.2,-107.5 802.2,-114.5"/>
</g>
<!-- Node3 -->
<g id="node3" class="node">
<title>Node3</title>
<g id="a_node3"><a xlink:href="a01929.html#afb36cb588b795efa513fc95e949493b7" target="_top" xlink:title=" ">
<polygon fill="white" stroke="#666666" points="425.5,-178 296.5,-178 296.5,-148 425.5,-148 425.5,-178"/>
<text text-anchor="start" x="304.5" y="-166" font-family="Helvetica,sans-Serif" font-size="10.00">nlohmann::detail::binary</text>
<text text-anchor="middle" x="361" y="-155" font-family="Helvetica,sans-Serif" font-size="10.00">_reader::get_ubjson_array</text>
</a>
</g>
</g>
<!-- Node2&#45;&gt;Node3 -->
<g id="edge2" class="edge">
<title>Node2&#45;&gt;Node3</title>
<path fill="none" stroke="#63b8ff" d="M637.4,-121.22C629.19,-122.95 620.94,-124.6 613,-126 549.73,-137.11 476.68,-144.68 425.76,-150.8"/>
<polygon fill="#63b8ff" stroke="#63b8ff" points="637.99,-124.67 647.04,-119.16 636.53,-117.83 637.99,-124.67"/>
</g>
<!-- Node4 -->
<g id="node4" class="node">
<title>Node4</title>
<g id="a_node4"><a xlink:href="a01929.html#adcf64ad3207f4bf37a5a31c920a385c3" target="_top" xlink:title=" ">
<polygon fill="white" stroke="#666666" points="428,-74 294,-74 294,-44 428,-44 428,-74"/>
<text text-anchor="start" x="302" y="-62" font-family="Helvetica,sans-Serif" font-size="10.00">nlohmann::detail::binary</text>
<text text-anchor="middle" x="361" y="-51" font-family="Helvetica,sans-Serif" font-size="10.00">_reader::get_ubjson_object</text>
</a>
</g>
</g>
<!-- Node2&#45;&gt;Node4 -->
<g id="edge4" class="edge">
<title>Node2&#45;&gt;Node4</title>
<path fill="none" stroke="#63b8ff" d="M673.17,-92.11C654.97,-86.67 633,-81.51 613,-78 550.81,-67.08 479.17,-59.58 428.38,-56.72"/>
<polygon fill="#63b8ff" stroke="#63b8ff" points="671.93,-95.39 682.52,-95.06 674.04,-88.71 671.93,-95.39"/>
</g>
<!-- Node5 -->
<g id="node5" class="node">
<title>Node5</title>
<g id="a_node5"><a xlink:href="a01929.html#a5a79480d661019b0f3fc615ae12f7de7" target="_top" xlink:title=" ">
<polygon fill="white" stroke="#666666" points="613,-126 464,-126 464,-96 613,-96 613,-126"/>
<text text-anchor="start" x="472" y="-114" font-family="Helvetica,sans-Serif" font-size="10.00">nlohmann::detail::binary</text>
<text text-anchor="middle" x="538.5" y="-103" font-family="Helvetica,sans-Serif" font-size="10.00">_reader::parse_ubjson_internal</text>
</a>
</g>
</g>
<!-- Node2&#45;&gt;Node5 -->
<g id="edge6" class="edge">
<title>Node2&#45;&gt;Node5</title>
<path fill="none" stroke="#63b8ff" d="M637.15,-111C629.26,-111 621.26,-111 613.39,-111"/>
<polygon fill="#63b8ff" stroke="#63b8ff" points="637.06,-114.5 647.06,-111 637.06,-107.5 637.06,-114.5"/>
</g>
<!-- Node3&#45;&gt;Node2 -->
<g id="edge3" class="edge">
<title>Node3&#45;&gt;Node2</title>
<path fill="none" stroke="#63b8ff" d="M437.13,-164.76C487.19,-161.57 554.31,-154.31 613,-144 637.15,-139.76 664.18,-133.11 683.96,-126.48"/>
<polygon fill="#63b8ff" stroke="#63b8ff" points="437.04,-161.26 427.27,-165.34 437.46,-168.24 437.04,-161.26"/>
</g>
<!-- Node4&#45;&gt;Node2 -->
<g id="edge5" class="edge">
<title>Node4&#45;&gt;Node2</title>
<path fill="none" stroke="#63b8ff" d="M439.71,-72.85C489.47,-78.68 555.31,-85.87 613,-96 624.55,-98.03 636.76,-100.61 648.52,-103.16"/>
<polygon fill="#63b8ff" stroke="#63b8ff" points="440.23,-69.39 429.89,-71.69 439.41,-76.34 440.23,-69.39"/>
</g>
<!-- Node5&#45;&gt;Node3 -->
<g id="edge7" class="edge">
<title>Node5&#45;&gt;Node3</title>
<path fill="none" stroke="#63b8ff" d="M474.29,-129.73C454.6,-135.56 433.13,-141.92 414.28,-147.51"/>
<polygon fill="#63b8ff" stroke="#63b8ff" points="475.27,-133.09 483.87,-126.89 473.29,-126.38 475.27,-133.09"/>
</g>
<!-- Node5&#45;&gt;Node4 -->
<g id="edge8" class="edge">
<title>Node5&#45;&gt;Node4</title>
<path fill="none" stroke="#63b8ff" d="M474.29,-92.27C454.6,-86.44 433.13,-80.08 414.28,-74.49"/>
<polygon fill="#63b8ff" stroke="#63b8ff" points="473.29,-95.62 483.87,-95.11 475.27,-88.91 473.29,-95.62"/>
</g>
<!-- Node6 -->
<g id="node6" class="node">
<title>Node6</title>
<g id="a_node6"><a xlink:href="a01929.html#ab4afd9ee276bbb15a0f898061aad94dd" target="_top" xlink:title=" ">
<polygon fill="white" stroke="#666666" points="421,-126 301,-126 301,-96 421,-96 421,-126"/>
<text text-anchor="start" x="309" y="-114" font-family="Helvetica,sans-Serif" font-size="10.00">nlohmann::detail::binary</text>
<text text-anchor="middle" x="361" y="-103" font-family="Helvetica,sans-Serif" font-size="10.00">_reader::sax_parse</text>
</a>
</g>
</g>
<!-- Node5&#45;&gt;Node6 -->
<g id="edge9" class="edge">
<title>Node5&#45;&gt;Node6</title>
<path fill="none" stroke="#63b8ff" d="M452.31,-111C441.88,-111 431.4,-111 421.46,-111"/>
<polygon fill="#63b8ff" stroke="#63b8ff" points="452.07,-114.5 462.07,-111 452.07,-107.5 452.07,-114.5"/>
</g>
<!-- Node7 -->
<g id="node7" class="node">
<title>Node7</title>
<g id="a_node7"><a xlink:href="a01593.html#a4e02793f2691aa29ab7cb69fddafbf5c" target="_top" xlink:title="Create a JSON value from an input in BSON format.">
<polygon fill="white" stroke="#666666" points="258,-222 147,-222 147,-192 258,-192 258,-222"/>
<text text-anchor="start" x="155" y="-210" font-family="Helvetica,sans-Serif" font-size="10.00">nlohmann::basic_json</text>
<text text-anchor="middle" x="202.5" y="-199" font-family="Helvetica,sans-Serif" font-size="10.00">::from_bson</text>
</a>
</g>
</g>
<!-- Node6&#45;&gt;Node7 -->
<g id="edge10" class="edge">
<title>Node6&#45;&gt;Node7</title>
<path fill="none" stroke="#63b8ff" d="M305.34,-131.63C301.37,-133.89 297.54,-136.35 294,-139 273.78,-154.15 278.12,-167.71 258,-183 253.8,-186.19 249.11,-189.06 244.3,-191.62"/>
<polygon fill="#63b8ff" stroke="#63b8ff" points="306.81,-134.81 314.07,-127.1 303.58,-128.6 306.81,-134.81"/>
</g>
<!-- Node9 -->
<g id="node9" class="node">
<title>Node9</title>
<g id="a_node9"><a xlink:href="a01593.html#a44dd5635fb2da4710f6cd6e42b72773f" target="_top" xlink:title="create a JSON value from an input in CBOR format">
<polygon fill="white" stroke="#666666" points="258,-174 147,-174 147,-144 258,-144 258,-174"/>
<text text-anchor="start" x="155" y="-162" font-family="Helvetica,sans-Serif" font-size="10.00">nlohmann::basic_json</text>
<text text-anchor="middle" x="202.5" y="-151" font-family="Helvetica,sans-Serif" font-size="10.00">::from_cbor</text>
</a>
</g>
</g>
<!-- Node6&#45;&gt;Node9 -->
<g id="edge12" class="edge">
<title>Node6&#45;&gt;Node9</title>
<path fill="none" stroke="#63b8ff" d="M298.93,-129.73C283.98,-134.32 268.16,-139.17 253.78,-143.58"/>
<polygon fill="#63b8ff" stroke="#63b8ff" points="299.64,-133.17 308.17,-126.9 297.59,-126.48 299.64,-133.17"/>
</g>
<!-- Node11 -->
<g id="node11" class="node">
<title>Node11</title>
<g id="a_node11"><a xlink:href="a01593.html#adbcab52fca1e25b3311ef14e71a57590" target="_top" xlink:title="create a JSON value from an input in MessagePack format">
<polygon fill="white" stroke="#666666" points="258,-126 147,-126 147,-96 258,-96 258,-126"/>
<text text-anchor="start" x="155" y="-114" font-family="Helvetica,sans-Serif" font-size="10.00">nlohmann::basic_json</text>
<text text-anchor="middle" x="202.5" y="-103" font-family="Helvetica,sans-Serif" font-size="10.00">::from_msgpack</text>
</a>
</g>
</g>
<!-- Node6&#45;&gt;Node11 -->
<g id="edge14" class="edge">
<title>Node6&#45;&gt;Node11</title>
<path fill="none" stroke="#63b8ff" d="M289.58,-111C279.11,-111 268.45,-111 258.36,-111"/>
<polygon fill="#63b8ff" stroke="#63b8ff" points="289.32,-114.5 299.32,-111 289.32,-107.5 289.32,-114.5"/>
</g>
<!-- Node13 -->
<g id="node13" class="node">
<title>Node13</title>
<g id="a_node13"><a xlink:href="a01593.html#aa81f62db69978b90ff701f05c72e03a7" target="_top" xlink:title="create a JSON value from an input in UBJSON format">
<polygon fill="white" stroke="#666666" points="258,-78 147,-78 147,-48 258,-48 258,-78"/>
<text text-anchor="start" x="155" y="-66" font-family="Helvetica,sans-Serif" font-size="10.00">nlohmann::basic_json</text>
<text text-anchor="middle" x="202.5" y="-55" font-family="Helvetica,sans-Serif" font-size="10.00">::from_ubjson</text>
</a>
</g>
</g>
<!-- Node6&#45;&gt;Node13 -->
<g id="edge16" class="edge">
<title>Node6&#45;&gt;Node13</title>
<path fill="none" stroke="#63b8ff" d="M298.93,-92.27C283.98,-87.68 268.16,-82.83 253.78,-78.42"/>
<polygon fill="#63b8ff" stroke="#63b8ff" points="297.59,-95.52 308.17,-95.1 299.64,-88.83 297.59,-95.52"/>
</g>
<!-- Node15 -->
<g id="node15" class="node">
<title>Node15</title>
<g id="a_node15"><a xlink:href="a01593.html#a12b382c6407da5543827ce4b24bb5008" target="_top" xlink:title="generate SAX events">
<polygon fill="white" stroke="#666666" points="258,-30 147,-30 147,0 258,0 258,-30"/>
<text text-anchor="start" x="155" y="-18" font-family="Helvetica,sans-Serif" font-size="10.00">nlohmann::basic_json</text>
<text text-anchor="middle" x="202.5" y="-7" font-family="Helvetica,sans-Serif" font-size="10.00">::sax_parse</text>
</a>
</g>
</g>
<!-- Node6&#45;&gt;Node15 -->
<g id="edge18" class="edge">
<title>Node6&#45;&gt;Node15</title>
<path fill="none" stroke="#63b8ff" d="M305.34,-90.37C301.37,-88.11 297.54,-85.65 294,-83 273.78,-67.85 278.12,-54.29 258,-39 253.8,-35.81 249.11,-32.94 244.3,-30.38"/>
<polygon fill="#63b8ff" stroke="#63b8ff" points="303.58,-93.4 314.07,-94.9 306.81,-87.19 303.58,-93.4"/>
</g>
<!-- Node8 -->
<g id="node8" class="node">
<title>Node8</title>
<g id="a_node8"><a xlink:href="a01593.html#ae2612581e4788ddffc2f45d5e4cc04fc" target="_top" xlink:title=" ">
<polygon fill="white" stroke="#666666" points="111,-222 0,-222 0,-192 111,-192 111,-222"/>
<text text-anchor="start" x="8" y="-210" font-family="Helvetica,sans-Serif" font-size="10.00">nlohmann::basic_json</text>
<text text-anchor="middle" x="55.5" y="-199" font-family="Helvetica,sans-Serif" font-size="10.00">::from_bson</text>
</a>
</g>
</g>
<!-- Node7&#45;&gt;Node8 -->
<g id="edge11" class="edge">
<title>Node7&#45;&gt;Node8</title>
<path fill="none" stroke="#63b8ff" d="M135.43,-207C127.39,-207 119.25,-207 111.4,-207"/>
<polygon fill="#63b8ff" stroke="#63b8ff" points="135.17,-210.5 145.17,-207 135.17,-203.5 135.17,-210.5"/>
</g>
<!-- Node10 -->
<g id="node10" class="node">
<title>Node10</title>
<g id="a_node10"><a xlink:href="a01593.html#a188755c8cda27e2afb03c016c14125d8" target="_top" xlink:title=" ">
<polygon fill="white" stroke="#666666" points="111,-174 0,-174 0,-144 111,-144 111,-174"/>
<text text-anchor="start" x="8" y="-162" font-family="Helvetica,sans-Serif" font-size="10.00">nlohmann::basic_json</text>
<text text-anchor="middle" x="55.5" y="-151" font-family="Helvetica,sans-Serif" font-size="10.00">::from_cbor</text>
</a>
</g>
</g>
<!-- Node9&#45;&gt;Node10 -->
<g id="edge13" class="edge">
<title>Node9&#45;&gt;Node10</title>
<path fill="none" stroke="#63b8ff" d="M135.43,-159C127.39,-159 119.25,-159 111.4,-159"/>
<polygon fill="#63b8ff" stroke="#63b8ff" points="135.17,-162.5 145.17,-159 135.17,-155.5 135.17,-162.5"/>
</g>
<!-- Node12 -->
<g id="node12" class="node">
<title>Node12</title>
<g id="a_node12"><a xlink:href="a01593.html#a0d69d3102639759d5202a6f764760d23" target="_top" xlink:title=" ">
<polygon fill="white" stroke="#666666" points="111,-126 0,-126 0,-96 111,-96 111,-126"/>
<text text-anchor="start" x="8" y="-114" font-family="Helvetica,sans-Serif" font-size="10.00">nlohmann::basic_json</text>
<text text-anchor="middle" x="55.5" y="-103" font-family="Helvetica,sans-Serif" font-size="10.00">::from_msgpack</text>
</a>
</g>
</g>
<!-- Node11&#45;&gt;Node12 -->
<g id="edge15" class="edge">
<title>Node11&#45;&gt;Node12</title>
<path fill="none" stroke="#63b8ff" d="M135.43,-111C127.39,-111 119.25,-111 111.4,-111"/>
<polygon fill="#63b8ff" stroke="#63b8ff" points="135.17,-114.5 145.17,-111 135.17,-107.5 135.17,-114.5"/>
</g>
<!-- Node14 -->
<g id="node14" class="node">
<title>Node14</title>
<g id="a_node14"><a xlink:href="a01593.html#ab6eeda23c34cee79d8d72f1a8691a8de" target="_top" xlink:title=" ">
<polygon fill="white" stroke="#666666" points="111,-78 0,-78 0,-48 111,-48 111,-78"/>
<text text-anchor="start" x="8" y="-66" font-family="Helvetica,sans-Serif" font-size="10.00">nlohmann::basic_json</text>
<text text-anchor="middle" x="55.5" y="-55" font-family="Helvetica,sans-Serif" font-size="10.00">::from_ubjson</text>
</a>
</g>
</g>
<!-- Node13&#45;&gt;Node14 -->
<g id="edge17" class="edge">
<title>Node13&#45;&gt;Node14</title>
<path fill="none" stroke="#63b8ff" d="M135.43,-63C127.39,-63 119.25,-63 111.4,-63"/>
<polygon fill="#63b8ff" stroke="#63b8ff" points="135.17,-66.5 145.17,-63 135.17,-59.5 135.17,-66.5"/>
</g>
</g>
</svg>
