<?xml version="1.0" encoding="UTF-8" standalone="no"?>
<!DOCTYPE svg PUBLIC "-//W3C//DTD SVG 1.1//EN"
 "http://www.w3.org/Graphics/SVG/1.1/DTD/svg11.dtd">
<!-- Generated by graphviz version 8.0.5 (20230430.1635)
 -->
<!-- Title: nlohmann::detail::iter_impl::value Pages: 1 -->
<svg width="593pt" height="90pt"
 viewBox="0.00 0.00 593.25 90.00" xmlns="http://www.w3.org/2000/svg" xmlns:xlink="http://www.w3.org/1999/xlink">
<g id="graph0" class="graph" transform="scale(1 1) rotate(0) translate(4 86)">
<title>nlohmann::detail::iter_impl::value</title>
<!-- Node1 -->
<g id="node1" class="node">
<title>Node1</title>
<g id="a_node1"><a xlink:title="return the value of an iterator">
<polygon fill="#999999" stroke="#666666" points="106.75,-57 0,-57 0,-25 106.75,-25 106.75,-57"/>
<text text-anchor="start" x="8" y="-43.5" font-family="Helvetica,sans-Serif" font-size="10.00">nlohmann::detail::iter</text>
<text text-anchor="middle" x="53.38" y="-31.5" font-family="Helvetica,sans-Serif" font-size="10.00">_impl::value</text>
</a>
</g>
</g>
<!-- Node2 -->
<g id="node2" class="node">
<title>Node2</title>
<g id="a_node2"><a xlink:href="a01945.html#a5ca57856d9bba54a5fc51cee891de827" target="_top" xlink:title="return a reference to the value pointed to by the iterator">
<polygon fill="white" stroke="#666666" points="249.5,-57 142.75,-57 142.75,-25 249.5,-25 249.5,-57"/>
<text text-anchor="start" x="150.75" y="-43.5" font-family="Helvetica,sans-Serif" font-size="10.00">nlohmann::detail::iter</text>
<text text-anchor="middle" x="196.13" y="-31.5" font-family="Helvetica,sans-Serif" font-size="10.00">_impl::operator*</text>
</a>
</g>
</g>
<!-- Node1&#45;&gt;Node2 -->
<g id="edge1" class="edge">
<title>Node1&#45;&gt;Node2</title>
<path fill="none" stroke="#63b8ff" d="M107.19,-41C115.12,-41 123.38,-41 131.51,-41"/>
<polygon fill="#63b8ff" stroke="#63b8ff" points="131.49,-44.5 141.49,-41 131.49,-37.5 131.49,-44.5"/>
</g>
<!-- Node3 -->
<g id="node3" class="node">
<title>Node3</title>
<g id="a_node3"><a xlink:href="a01501.html#a4e849260a3caa1b288c7e619130c6c09" target="_top" xlink:title=" ">
<polygon fill="white" stroke="#666666" points="409.5,-82 290,-82 290,-50 409.5,-50 409.5,-82"/>
<text text-anchor="start" x="298" y="-68.5" font-family="Helvetica,sans-Serif" font-size="10.00">nlohmann::detail::invalid</text>
<text text-anchor="middle" x="349.75" y="-56.5" font-family="Helvetica,sans-Serif" font-size="10.00">_iterator::create</text>
</a>
</g>
</g>
<!-- Node2&#45;&gt;Node3 -->
<g id="edge2" class="edge">
<title>Node2&#45;&gt;Node3</title>
<path fill="none" stroke="#63b8ff" d="M249.73,-49.67C259.22,-51.24 269.24,-52.89 279.12,-54.52"/>
<polygon fill="#63b8ff" stroke="#63b8ff" points="278.31,-58.1 288.75,-56.27 279.45,-51.19 278.31,-58.1"/>
</g>
<!-- Node5 -->
<g id="node5" class="node">
<title>Node5</title>
<g id="a_node5"><a xlink:href="a01937.html#a8d1a7d46b3fcd06edd034f04ededb5e4" target="_top" xlink:title="return whether the iterator can be dereferenced">
<polygon fill="white" stroke="#666666" points="414,-32 285.5,-32 285.5,0 414,0 414,-32"/>
<text text-anchor="start" x="293.5" y="-18.5" font-family="Helvetica,sans-Serif" font-size="10.00">nlohmann::detail::primitive</text>
<text text-anchor="middle" x="349.75" y="-6.5" font-family="Helvetica,sans-Serif" font-size="10.00">_iterator_t::is_begin</text>
</a>
</g>
</g>
<!-- Node2&#45;&gt;Node5 -->
<g id="edge4" class="edge">
<title>Node2&#45;&gt;Node5</title>
<path fill="none" stroke="#63b8ff" d="M249.73,-32.33C257.64,-31.02 265.92,-29.66 274.19,-28.29"/>
<polygon fill="#63b8ff" stroke="#63b8ff" points="274.71,-31.59 284,-26.51 273.57,-24.68 274.71,-31.59"/>
</g>
<!-- Node4 -->
<g id="node4" class="node">
<title>Node4</title>
<g id="a_node4"><a xlink:href="a01493.html#abf41a7e9178356314082284e6cfea278" target="_top" xlink:title=" ">
<polygon fill="white" stroke="#666666" points="585.25,-82 450,-82 450,-50 585.25,-50 585.25,-82"/>
<text text-anchor="start" x="458" y="-68.5" font-family="Helvetica,sans-Serif" font-size="10.00">nlohmann::detail::exception</text>
<text text-anchor="middle" x="517.63" y="-56.5" font-family="Helvetica,sans-Serif" font-size="10.00">::name</text>
</a>
</g>
</g>
<!-- Node3&#45;&gt;Node4 -->
<g id="edge3" class="edge">
<title>Node3&#45;&gt;Node4</title>
<path fill="none" stroke="#63b8ff" d="M409.7,-66C419.1,-66 428.96,-66 438.72,-66"/>
<polygon fill="#63b8ff" stroke="#63b8ff" points="438.67,-69.5 448.67,-66 438.67,-62.5 438.67,-69.5"/>
</g>
</g>
</svg>
