<?xml version="1.0" encoding="UTF-8" standalone="no"?>
<!DOCTYPE svg PUBLIC "-//W3C//DTD SVG 1.1//EN"
 "http://www.w3.org/Graphics/SVG/1.1/DTD/svg11.dtd">
<!-- Generated by graphviz version 7.0.1 (20221109.1506)
 -->
<!-- Title: nlohmann::detail::binary_reader::get_cbor_binary Pages: 1 -->
<svg width="801pt" height="274pt"
 viewBox="0.00 0.00 801.00 274.00" xmlns="http://www.w3.org/2000/svg" xmlns:xlink="http://www.w3.org/1999/xlink">
<g id="graph0" class="graph" transform="scale(1 1) rotate(0) translate(4 270)">
<title>nlohmann::detail::binary_reader::get_cbor_binary</title>
<!-- Node1 -->
<g id="node1" class="node">
<title>Node1</title>
<g id="a_node1"><a xlink:title="reads a CBOR byte array">
<polygon fill="#999999" stroke="#666666" points="124,-154 0,-154 0,-124 124,-124 124,-154"/>
<text text-anchor="start" x="8" y="-142" font-family="Helvetica,sans-Serif" font-size="10.00">nlohmann::detail::binary</text>
<text text-anchor="middle" x="62" y="-131" font-family="Helvetica,sans-Serif" font-size="10.00">_reader::get_cbor_binary</text>
</a>
</g>
</g>
<!-- Node1&#45;&gt;Node1 -->
<g id="edge11" class="edge">
<title>Node1&#45;&gt;Node1</title>
<path fill="none" stroke="#63b8ff" d="M33.61,-154.28C27.3,-163.41 36.77,-172 62,-172 75.8,-172 84.88,-169.43 89.25,-165.61"/>
<polygon fill="#63b8ff" stroke="#63b8ff" points="92.72,-166.08 90.24,-155.78 85.75,-165.38 92.72,-166.08"/>
</g>
<!-- Node2 -->
<g id="node2" class="node">
<title>Node2</title>
<g id="a_node2"><a xlink:href="a01497.html#a137ea4d27de45d8a844fd13451d40f3d" target="_top" xlink:title="create a parse error exception">
<polygon fill="white" stroke="#666666" points="609,-242 491,-242 491,-212 609,-212 609,-242"/>
<text text-anchor="start" x="499" y="-230" font-family="Helvetica,sans-Serif" font-size="10.00">nlohmann::detail::parse</text>
<text text-anchor="middle" x="550" y="-219" font-family="Helvetica,sans-Serif" font-size="10.00">_error::create</text>
</a>
</g>
</g>
<!-- Node1&#45;&gt;Node2 -->
<g id="edge1" class="edge">
<title>Node1&#45;&gt;Node2</title>
<path fill="none" stroke="#63b8ff" d="M73.66,-154.45C89.55,-175.96 121.72,-213.98 160,-229 265.38,-270.36 399.53,-256.7 479.6,-242.34"/>
<polygon fill="#63b8ff" stroke="#63b8ff" points="479.84,-245.85 489.04,-240.59 478.57,-238.97 479.84,-245.85"/>
</g>
<!-- Node5 -->
<g id="node5" class="node">
<title>Node5</title>
<g id="a_node5"><a xlink:href="a01929.html#a9c413c9a1bade1ce345740f4d69156f0" target="_top" xlink:title=" ">
<polygon fill="white" stroke="#666666" points="621,-154 479,-154 479,-124 621,-124 621,-154"/>
<text text-anchor="start" x="487" y="-142" font-family="Helvetica,sans-Serif" font-size="10.00">nlohmann::detail::binary</text>
<text text-anchor="middle" x="550" y="-131" font-family="Helvetica,sans-Serif" font-size="10.00">_reader::exception_message</text>
</a>
</g>
</g>
<!-- Node1&#45;&gt;Node5 -->
<g id="edge4" class="edge">
<title>Node1&#45;&gt;Node5</title>
<path fill="none" stroke="#63b8ff" d="M97.72,-123.63C115.88,-116.42 138.71,-108.62 160,-105 284.07,-83.89 318.43,-97.02 443,-115 454.25,-116.62 466.08,-118.81 477.58,-121.21"/>
<polygon fill="#63b8ff" stroke="#63b8ff" points="476.5,-124.56 487.01,-123.24 477.97,-117.71 476.5,-124.56"/>
</g>
<!-- Node6 -->
<g id="node6" class="node">
<title>Node6</title>
<g id="a_node6"><a xlink:href="a01929.html#ad222095c0b21a87824cb10629299629a" target="_top" xlink:title="get next character from the input">
<polygon fill="white" stroke="#666666" points="443,-154 323,-154 323,-124 443,-124 443,-154"/>
<text text-anchor="start" x="331" y="-142" font-family="Helvetica,sans-Serif" font-size="10.00">nlohmann::detail::binary</text>
<text text-anchor="middle" x="383" y="-131" font-family="Helvetica,sans-Serif" font-size="10.00">_reader::get</text>
</a>
</g>
</g>
<!-- Node1&#45;&gt;Node6 -->
<g id="edge5" class="edge">
<title>Node1&#45;&gt;Node6</title>
<path fill="none" stroke="#63b8ff" d="M115.68,-123.51C129.94,-119.99 145.45,-116.77 160,-115 216.03,-108.17 230.99,-108.03 287,-115 297.65,-116.32 308.82,-118.45 319.61,-120.91"/>
<polygon fill="#63b8ff" stroke="#63b8ff" points="318.66,-124.28 329.2,-123.22 320.29,-117.48 318.66,-124.28"/>
</g>
<!-- Node7 -->
<g id="node7" class="node">
<title>Node7</title>
<g id="a_node7"><a xlink:href="a01929.html#a55e13d567a53234573ab3833c0ca32e9" target="_top" xlink:title="create a byte array by reading bytes from the input">
<polygon fill="white" stroke="#666666" points="283.5,-154 163.5,-154 163.5,-124 283.5,-124 283.5,-154"/>
<text text-anchor="start" x="171.5" y="-142" font-family="Helvetica,sans-Serif" font-size="10.00">nlohmann::detail::binary</text>
<text text-anchor="middle" x="223.5" y="-131" font-family="Helvetica,sans-Serif" font-size="10.00">_reader::get_binary</text>
</a>
</g>
</g>
<!-- Node1&#45;&gt;Node7 -->
<g id="edge6" class="edge">
<title>Node1&#45;&gt;Node7</title>
<path fill="none" stroke="#63b8ff" d="M124.21,-139C133.17,-139 142.45,-139 151.58,-139"/>
<polygon fill="#63b8ff" stroke="#63b8ff" points="151.52,-142.5 161.52,-139 151.52,-135.5 151.52,-142.5"/>
</g>
<!-- Node8 -->
<g id="node8" class="node">
<title>Node8</title>
<g id="a_node8"><a xlink:href="a01929.html#a61a0bd8bbe7b560bd429fa990ba3ba1a" target="_top" xlink:title=" ">
<polygon fill="white" stroke="#666666" points="443,-202 323,-202 323,-172 443,-172 443,-202"/>
<text text-anchor="start" x="331" y="-190" font-family="Helvetica,sans-Serif" font-size="10.00">nlohmann::detail::binary</text>
<text text-anchor="middle" x="383" y="-179" font-family="Helvetica,sans-Serif" font-size="10.00">_reader::unexpect_eof</text>
</a>
</g>
</g>
<!-- Node1&#45;&gt;Node8 -->
<g id="edge16" class="edge">
<title>Node1&#45;&gt;Node8</title>
<path fill="none" stroke="#63b8ff" d="M77.33,-154.44C94.85,-172.06 126.35,-199.88 160,-211 214.92,-229.15 281.23,-218 327,-205.53"/>
<polygon fill="#63b8ff" stroke="#63b8ff" points="327.76,-208.95 336.43,-202.84 325.85,-202.21 327.76,-208.95"/>
</g>
<!-- Node9 -->
<g id="node9" class="node">
<title>Node9</title>
<g id="a_node9"><a xlink:href="a01929.html#ac356c6364fe0273d3303fb7a447f4ef6" target="_top" xlink:title=" ">
<polygon fill="white" stroke="#666666" points="283.5,-202 163.5,-202 163.5,-172 283.5,-172 283.5,-202"/>
<text text-anchor="start" x="171.5" y="-190" font-family="Helvetica,sans-Serif" font-size="10.00">nlohmann::detail::binary</text>
<text text-anchor="middle" x="223.5" y="-179" font-family="Helvetica,sans-Serif" font-size="10.00">_reader::get_number</text>
</a>
</g>
</g>
<!-- Node1&#45;&gt;Node9 -->
<g id="edge12" class="edge">
<title>Node1&#45;&gt;Node9</title>
<path fill="none" stroke="#63b8ff" d="M114.34,-154.45C129,-158.86 145.13,-163.72 160.36,-168.3"/>
<polygon fill="#63b8ff" stroke="#63b8ff" points="159.22,-171.61 169.8,-171.14 161.23,-164.91 159.22,-171.61"/>
</g>
<!-- Node10 -->
<g id="node10" class="node">
<title>Node10</title>
<g id="a_node10"><a xlink:href="a01929.html#a7d323283c60a0b89ee5eeadf5cb9a5ad" target="_top" xlink:title=" ">
<polygon fill="white" stroke="#666666" points="287,-30 160,-30 160,0 287,0 287,-30"/>
<text text-anchor="start" x="168" y="-18" font-family="Helvetica,sans-Serif" font-size="10.00">nlohmann::detail::binary</text>
<text text-anchor="middle" x="223.5" y="-7" font-family="Helvetica,sans-Serif" font-size="10.00">_reader::get_token_string</text>
</a>
</g>
</g>
<!-- Node1&#45;&gt;Node10 -->
<g id="edge15" class="edge">
<title>Node1&#45;&gt;Node10</title>
<path fill="none" stroke="#63b8ff" d="M75.8,-123.53C93.2,-103.23 126.06,-67.45 160,-44 164.38,-40.97 169.13,-38.12 173.99,-35.47"/>
<polygon fill="#63b8ff" stroke="#63b8ff" points="175.36,-38.7 182.67,-31.03 172.17,-32.47 175.36,-38.7"/>
</g>
<!-- Node3 -->
<g id="node3" class="node">
<title>Node3</title>
<g id="a_node3"><a xlink:href="a01493.html#abf41a7e9178356314082284e6cfea278" target="_top" xlink:title=" ">
<polygon fill="white" stroke="#666666" points="793,-266 657,-266 657,-236 793,-236 793,-266"/>
<text text-anchor="start" x="665" y="-254" font-family="Helvetica,sans-Serif" font-size="10.00">nlohmann::detail::exception</text>
<text text-anchor="middle" x="725" y="-243" font-family="Helvetica,sans-Serif" font-size="10.00">::name</text>
</a>
</g>
</g>
<!-- Node2&#45;&gt;Node3 -->
<g id="edge2" class="edge">
<title>Node2&#45;&gt;Node3</title>
<path fill="none" stroke="#63b8ff" d="M609.09,-235.06C620.81,-236.68 633.32,-238.42 645.61,-240.12"/>
<polygon fill="#63b8ff" stroke="#63b8ff" points="644.91,-243.56 655.3,-241.47 645.88,-236.63 644.91,-243.56"/>
</g>
<!-- Node4 -->
<g id="node4" class="node">
<title>Node4</title>
<g id="a_node4"><a xlink:href="a01497.html#aefe74adeaa48781464ba2fd2ec63d221" target="_top" xlink:title=" ">
<polygon fill="white" stroke="#666666" points="784,-218 666,-218 666,-188 784,-188 784,-218"/>
<text text-anchor="start" x="674" y="-206" font-family="Helvetica,sans-Serif" font-size="10.00">nlohmann::detail::parse</text>
<text text-anchor="middle" x="725" y="-195" font-family="Helvetica,sans-Serif" font-size="10.00">_error::position_string</text>
</a>
</g>
</g>
<!-- Node2&#45;&gt;Node4 -->
<g id="edge3" class="edge">
<title>Node2&#45;&gt;Node4</title>
<path fill="none" stroke="#63b8ff" d="M609.09,-218.94C623.64,-216.92 639.39,-214.74 654.44,-212.65"/>
<polygon fill="#63b8ff" stroke="#63b8ff" points="654.85,-216.13 664.27,-211.29 653.89,-209.19 654.85,-216.13"/>
</g>
<!-- Node7&#45;&gt;Node6 -->
<g id="edge7" class="edge">
<title>Node7&#45;&gt;Node6</title>
<path fill="none" stroke="#63b8ff" d="M283.6,-139C292.66,-139 302.09,-139 311.37,-139"/>
<polygon fill="#63b8ff" stroke="#63b8ff" points="311.06,-142.5 321.06,-139 311.06,-135.5 311.06,-142.5"/>
</g>
<!-- Node7&#45;&gt;Node8 -->
<g id="edge8" class="edge">
<title>Node7&#45;&gt;Node8</title>
<path fill="none" stroke="#63b8ff" d="M275.2,-154.45C289.67,-158.86 305.6,-163.72 320.64,-168.3"/>
<polygon fill="#63b8ff" stroke="#63b8ff" points="319.36,-171.57 329.95,-171.14 321.4,-164.87 319.36,-171.57"/>
</g>
<!-- Node8&#45;&gt;Node2 -->
<g id="edge9" class="edge">
<title>Node8&#45;&gt;Node2</title>
<path fill="none" stroke="#63b8ff" d="M443.1,-201.33C454.93,-204.19 467.45,-207.23 479.58,-210.17"/>
<polygon fill="#63b8ff" stroke="#63b8ff" points="478.57,-213.53 489.12,-212.48 480.22,-206.73 478.57,-213.53"/>
</g>
<!-- Node8&#45;&gt;Node5 -->
<g id="edge10" class="edge">
<title>Node8&#45;&gt;Node5</title>
<path fill="none" stroke="#63b8ff" d="M437.12,-171.55C452.42,-167.09 469.29,-162.19 485.17,-157.57"/>
<polygon fill="#63b8ff" stroke="#63b8ff" points="485.91,-161 494.53,-154.85 483.95,-154.28 485.91,-161"/>
</g>
<!-- Node9&#45;&gt;Node6 -->
<g id="edge13" class="edge">
<title>Node9&#45;&gt;Node6</title>
<path fill="none" stroke="#63b8ff" d="M275.2,-171.55C289.67,-167.14 305.6,-162.28 320.64,-157.7"/>
<polygon fill="#63b8ff" stroke="#63b8ff" points="321.4,-161.13 329.95,-154.86 319.36,-154.43 321.4,-161.13"/>
</g>
<!-- Node9&#45;&gt;Node8 -->
<g id="edge14" class="edge">
<title>Node9&#45;&gt;Node8</title>
<path fill="none" stroke="#63b8ff" d="M283.6,-187C292.66,-187 302.09,-187 311.37,-187"/>
<polygon fill="#63b8ff" stroke="#63b8ff" points="311.06,-190.5 321.06,-187 311.06,-183.5 311.06,-190.5"/>
</g>
</g>
</svg>
