<?xml version="1.0" encoding="UTF-8" standalone="no"?>
<!DOCTYPE svg PUBLIC "-//W3C//DTD SVG 1.1//EN"
 "http://www.w3.org/Graphics/SVG/1.1/DTD/svg11.dtd">
<!-- Generated by graphviz version 2.43.0 (0)
 -->
<!-- Title: HF::SpatialStructures::Path Pages: 1 -->
<svg width="153pt" height="262pt"
 viewBox="0.00 0.00 153.00 262.00" xmlns="http://www.w3.org/2000/svg" xmlns:xlink="http://www.w3.org/1999/xlink">
<g id="graph0" class="graph" transform="scale(1 1) rotate(0) translate(4 258)">
<title>HF::SpatialStructures::Path</title>
<polygon fill="white" stroke="transparent" points="-4,4 -4,-258 149,-258 149,4 -4,4"/>
<!-- Node1 -->
<g id="node1" class="node">
<title>Node1</title>
<g id="a_node1"><a xlink:title="A collection of nodes that form a path.">
<polygon fill="#bfbfbf" stroke="black" points="13,-0.5 13,-30.5 132,-30.5 132,-0.5 13,-0.5"/>
<text text-anchor="start" x="21" y="-18.5" font-family="Helvetica,sans-Serif" font-size="10.00">HF::SpatialStructures</text>
<text text-anchor="middle" x="72.5" y="-7.5" font-family="Helvetica,sans-Serif" font-size="10.00">::Path</text>
</a>
</g>
</g>
<!-- Node2 -->
<g id="node2" class="node">
<title>Node2</title>
<g id="a_node2"><a xlink:title=" ">
<polygon fill="white" stroke="#bfbfbf" points="0,-78.5 0,-108.5 145,-108.5 145,-78.5 0,-78.5"/>
<text text-anchor="start" x="8" y="-96.5" font-family="Helvetica,sans-Serif" font-size="10.00">std::vector&lt; HF::Spatial</text>
<text text-anchor="middle" x="72.5" y="-85.5" font-family="Helvetica,sans-Serif" font-size="10.00">Structures::PathMember &gt;</text>
</a>
</g>
</g>
<!-- Node2&#45;&gt;Node1 -->
<g id="edge1" class="edge">
<title>Node2&#45;&gt;Node1</title>
<path fill="none" stroke="#9a32cd" stroke-dasharray="5,2" d="M72.5,-68.09C72.5,-55.76 72.5,-41.22 72.5,-30.73"/>
<polygon fill="#9a32cd" stroke="#9a32cd" points="69,-68.2 72.5,-78.2 76,-68.21 69,-68.2"/>
<text text-anchor="middle" x="97.5" y="-52" font-family="Helvetica,sans-Serif" font-size="10.00"> members</text>
</g>
<!-- Node3 -->
<g id="node3" class="node">
<title>Node3</title>
<g id="a_node3"><a xlink:href="a02025.html" target="_top" xlink:title="The ID of a node, and the cost cost to the node after it.">
<polygon fill="white" stroke="black" points="13,-156.5 13,-186.5 132,-186.5 132,-156.5 13,-156.5"/>
<text text-anchor="start" x="21" y="-174.5" font-family="Helvetica,sans-Serif" font-size="10.00">HF::SpatialStructures</text>
<text text-anchor="middle" x="72.5" y="-163.5" font-family="Helvetica,sans-Serif" font-size="10.00">::PathMember</text>
</a>
</g>
</g>
<!-- Node3&#45;&gt;Node2 -->
<g id="edge2" class="edge">
<title>Node3&#45;&gt;Node2</title>
<path fill="none" stroke="#9a32cd" stroke-dasharray="5,2" d="M72.5,-146.09C72.5,-133.76 72.5,-119.22 72.5,-108.73"/>
<polygon fill="#9a32cd" stroke="#9a32cd" points="69,-146.2 72.5,-156.2 76,-146.21 69,-146.2"/>
<text text-anchor="middle" x="97" y="-130" font-family="Helvetica,sans-Serif" font-size="10.00"> elements</text>
</g>
<!-- Node4 -->
<g id="node4" class="node">
<title>Node4</title>
<g id="a_node4"><a xlink:title=" ">
<polygon fill="white" stroke="#bfbfbf" points="27.5,-234.5 27.5,-253.5 65.5,-253.5 65.5,-234.5 27.5,-234.5"/>
<text text-anchor="middle" x="46.5" y="-241.5" font-family="Helvetica,sans-Serif" font-size="10.00">float</text>
</a>
</g>
</g>
<!-- Node4&#45;&gt;Node3 -->
<g id="edge3" class="edge">
<title>Node4&#45;&gt;Node3</title>
<path fill="none" stroke="#9a32cd" stroke-dasharray="5,2" d="M47.99,-224.12C48.87,-217.9 50.27,-211.03 52.5,-205 54.84,-198.66 58.49,-192.21 62.04,-186.75"/>
<polygon fill="#9a32cd" stroke="#9a32cd" points="44.48,-223.99 46.9,-234.3 51.44,-224.73 44.48,-223.99"/>
<text text-anchor="middle" x="64.5" y="-208" font-family="Helvetica,sans-Serif" font-size="10.00"> cost</text>
</g>
<!-- Node5 -->
<g id="node5" class="node">
<title>Node5</title>
<g id="a_node5"><a xlink:title=" ">
<polygon fill="white" stroke="#bfbfbf" points="84,-234.5 84,-253.5 113,-253.5 113,-234.5 84,-234.5"/>
<text text-anchor="middle" x="98.5" y="-241.5" font-family="Helvetica,sans-Serif" font-size="10.00">int</text>
</a>
</g>
</g>
<!-- Node5&#45;&gt;Node3 -->
<g id="edge4" class="edge">
<title>Node5&#45;&gt;Node3</title>
<path fill="none" stroke="#9a32cd" stroke-dasharray="5,2" d="M91.85,-224.96C87.45,-213.03 81.76,-197.61 77.69,-186.58"/>
<polygon fill="#9a32cd" stroke="#9a32cd" points="88.57,-226.18 95.31,-234.36 95.14,-223.76 88.57,-226.18"/>
<text text-anchor="middle" x="101.5" y="-208" font-family="Helvetica,sans-Serif" font-size="10.00"> node</text>
</g>
</g>
</svg>
