<?xml version="1.0" encoding="UTF-8" standalone="no"?>
<!DOCTYPE svg PUBLIC "-//W3C//DTD SVG 1.1//EN"
 "http://www.w3.org/Graphics/SVG/1.1/DTD/svg11.dtd">
<!-- Generated by graphviz version 8.0.5 (20230430.1635)
 -->
<!-- Title: HF::SpatialStructures::PathMember Pages: 1 -->
<svg width="118pt" height="108pt"
 viewBox="0.00 0.00 117.75 108.00" xmlns="http://www.w3.org/2000/svg" xmlns:xlink="http://www.w3.org/1999/xlink">
<g id="graph0" class="graph" transform="scale(1 1) rotate(0) translate(4 104)">
<title>HF::SpatialStructures::PathMember</title>
<!-- Node1 -->
<g id="node1" class="node">
<title>Node1</title>
<g id="a_node1"><a xlink:title="The ID of a node, and the cost cost to the node after it.">
<polygon fill="#999999" stroke="#666666" points="109.75,-32 0,-32 0,0 109.75,0 109.75,-32"/>
<text text-anchor="start" x="8" y="-18.5" font-family="Helvetica,sans-Serif" font-size="10.00">HF::SpatialStructures</text>
<text text-anchor="middle" x="54.88" y="-6.5" font-family="Helvetica,sans-Serif" font-size="10.00">::PathMember</text>
</a>
</g>
</g>
<!-- Node2 -->
<g id="node2" class="node">
<title>Node2</title>
<g id="a_node2"><a xlink:title=" ">
<polygon fill="white" stroke="#666666" points="47.88,-100 13.88,-100 13.88,-80 47.88,-80 47.88,-100"/>
<text text-anchor="middle" x="30.88" y="-86.5" font-family="Helvetica,sans-Serif" font-size="10.00">float</text>
</a>
</g>
</g>
<!-- Node2&#45;&gt;Node1 -->
<g id="edge1" class="edge">
<title>Node2&#45;&gt;Node1</title>
<path fill="none" stroke="#9a32cd" stroke-dasharray="5,2" d="M32.09,-68.95C32.86,-62.76 34.1,-56 36.13,-50 38.19,-43.88 41.42,-37.61 44.62,-32.2"/>
<polygon fill="#9a32cd" stroke="#9a32cd" points="28.53,-68.52 31.13,-78.79 35.5,-69.14 28.53,-68.52"/>
<text text-anchor="middle" x="46.75" y="-52.5" font-family="Helvetica,sans-Serif" font-size="10.00"> cost</text>
</g>
<!-- Node3 -->
<g id="node3" class="node">
<title>Node3</title>
<g id="a_node3"><a xlink:title=" ">
<polygon fill="white" stroke="#666666" points="94.28,-100 65.47,-100 65.47,-80 94.28,-80 94.28,-100"/>
<text text-anchor="middle" x="79.88" y="-86.5" font-family="Helvetica,sans-Serif" font-size="10.00">int</text>
</a>
</g>
</g>
<!-- Node3&#45;&gt;Node1 -->
<g id="edge2" class="edge">
<title>Node3&#45;&gt;Node1</title>
<path fill="none" stroke="#9a32cd" stroke-dasharray="5,2" d="M73.12,-69.55C69.08,-57.91 64.01,-43.32 60.25,-32.47"/>
<polygon fill="#9a32cd" stroke="#9a32cd" points="70.02,-70.29 76.61,-78.59 76.63,-67.99 70.02,-70.29"/>
<text text-anchor="middle" x="81.88" y="-52.5" font-family="Helvetica,sans-Serif" font-size="10.00"> node</text>
</g>
</g>
</svg>
