<?xml version="1.0" encoding="UTF-8" standalone="no"?>
<!DOCTYPE svg PUBLIC "-//W3C//DTD SVG 1.1//EN"
 "http://www.w3.org/Graphics/SVG/1.1/DTD/svg11.dtd">
<!-- Generated by graphviz version 8.0.5 (20230430.1635)
 -->
<!-- Title: HF::SpatialStructures::Path Pages: 1 -->
<svg width="140pt" height="268pt"
 viewBox="0.00 0.00 139.50 268.00" xmlns="http://www.w3.org/2000/svg" xmlns:xlink="http://www.w3.org/1999/xlink">
<g id="graph0" class="graph" transform="scale(1 1) rotate(0) translate(4 264)">
<title>HF::SpatialStructures::Path</title>
<!-- Node1 -->
<g id="node1" class="node">
<title>Node1</title>
<g id="a_node1"><a xlink:title="A collection of nodes that form a path.">
<polygon fill="#999999" stroke="#666666" points="120.63,-32 10.88,-32 10.88,0 120.63,0 120.63,-32"/>
<text text-anchor="start" x="18.88" y="-18.5" font-family="Helvetica,sans-Serif" font-size="10.00">HF::SpatialStructures</text>
<text text-anchor="middle" x="65.75" y="-6.5" font-family="Helvetica,sans-Serif" font-size="10.00">::Path</text>
</a>
</g>
</g>
<!-- Node2 -->
<g id="node2" class="node">
<title>Node2</title>
<g id="a_node2"><a xlink:title=" ">
<polygon fill="white" stroke="#666666" points="131.5,-112 0,-112 0,-80 131.5,-80 131.5,-112"/>
<text text-anchor="start" x="8" y="-98.5" font-family="Helvetica,sans-Serif" font-size="10.00">std::vector&lt; HF::Spatial</text>
<text text-anchor="middle" x="65.75" y="-86.5" font-family="Helvetica,sans-Serif" font-size="10.00">Structures::PathMember &gt;</text>
</a>
</g>
</g>
<!-- Node2&#45;&gt;Node1 -->
<g id="edge1" class="edge">
<title>Node2&#45;&gt;Node1</title>
<path fill="none" stroke="#9a32cd" stroke-dasharray="5,2" d="M65.75,-68.74C65.75,-56.65 65.75,-42.73 65.75,-32.38"/>
<polygon fill="#9a32cd" stroke="#9a32cd" points="62.25,-68.59 65.75,-78.59 69.25,-68.59 62.25,-68.59"/>
<text text-anchor="middle" x="87.5" y="-52.5" font-family="Helvetica,sans-Serif" font-size="10.00"> members</text>
</g>
<!-- Node3 -->
<g id="node3" class="node">
<title>Node3</title>
<g id="a_node3"><a xlink:href="a02079.html" target="_top" xlink:title="The ID of a node, and the cost cost to the node after it.">
<polygon fill="white" stroke="#666666" points="120.63,-192 10.88,-192 10.88,-160 120.63,-160 120.63,-192"/>
<text text-anchor="start" x="18.88" y="-178.5" font-family="Helvetica,sans-Serif" font-size="10.00">HF::SpatialStructures</text>
<text text-anchor="middle" x="65.75" y="-166.5" font-family="Helvetica,sans-Serif" font-size="10.00">::PathMember</text>
</a>
</g>
</g>
<!-- Node3&#45;&gt;Node2 -->
<g id="edge2" class="edge">
<title>Node3&#45;&gt;Node2</title>
<path fill="none" stroke="#9a32cd" stroke-dasharray="5,2" d="M65.75,-148.74C65.75,-136.65 65.75,-122.73 65.75,-112.38"/>
<polygon fill="#9a32cd" stroke="#9a32cd" points="62.25,-148.59 65.75,-158.59 69.25,-148.59 62.25,-148.59"/>
<text text-anchor="middle" x="87.13" y="-132.5" font-family="Helvetica,sans-Serif" font-size="10.00"> elements</text>
</g>
<!-- Node4 -->
<g id="node4" class="node">
<title>Node4</title>
<g id="a_node4"><a xlink:title=" ">
<polygon fill="white" stroke="#666666" points="58.75,-260 24.75,-260 24.75,-240 58.75,-240 58.75,-260"/>
<text text-anchor="middle" x="41.75" y="-246.5" font-family="Helvetica,sans-Serif" font-size="10.00">float</text>
</a>
</g>
</g>
<!-- Node4&#45;&gt;Node3 -->
<g id="edge3" class="edge">
<title>Node4&#45;&gt;Node3</title>
<path fill="none" stroke="#9a32cd" stroke-dasharray="5,2" d="M42.96,-228.95C43.73,-222.76 44.98,-216 47,-210 49.06,-203.88 52.29,-197.61 55.5,-192.2"/>
<polygon fill="#9a32cd" stroke="#9a32cd" points="39.4,-228.52 42,-238.79 46.37,-229.14 39.4,-228.52"/>
<text text-anchor="middle" x="57.63" y="-212.5" font-family="Helvetica,sans-Serif" font-size="10.00"> cost</text>
</g>
<!-- Node5 -->
<g id="node5" class="node">
<title>Node5</title>
<g id="a_node5"><a xlink:title=" ">
<polygon fill="white" stroke="#666666" points="105.15,-260 76.35,-260 76.35,-240 105.15,-240 105.15,-260"/>
<text text-anchor="middle" x="90.75" y="-246.5" font-family="Helvetica,sans-Serif" font-size="10.00">int</text>
</a>
</g>
</g>
<!-- Node5&#45;&gt;Node3 -->
<g id="edge4" class="edge">
<title>Node5&#45;&gt;Node3</title>
<path fill="none" stroke="#9a32cd" stroke-dasharray="5,2" d="M84,-229.55C79.96,-217.91 74.89,-203.32 71.12,-192.47"/>
<polygon fill="#9a32cd" stroke="#9a32cd" points="80.9,-230.29 87.48,-238.59 87.51,-227.99 80.9,-230.29"/>
<text text-anchor="middle" x="92.75" y="-212.5" font-family="Helvetica,sans-Serif" font-size="10.00"> node</text>
</g>
</g>
</svg>
