<?xml version="1.0" encoding="UTF-8" standalone="no"?>
<!DOCTYPE svg PUBLIC "-//W3C//DTD SVG 1.1//EN"
 "http://www.w3.org/Graphics/SVG/1.1/DTD/svg11.dtd">
<!-- Generated by graphviz version 2.43.0 (0)
 -->
<!-- Title: HF::SpatialStructures::Node::distanceTo Pages: 1 -->
<svg width="891pt" height="384pt"
 viewBox="0.00 0.00 891.00 384.00" xmlns="http://www.w3.org/2000/svg" xmlns:xlink="http://www.w3.org/1999/xlink">
<g id="graph0" class="graph" transform="scale(1 1) rotate(0) translate(4 380)">
<title>HF::SpatialStructures::Node::distanceTo</title>
<polygon fill="white" stroke="transparent" points="-4,4 -4,-380 887,-380 887,4 -4,4"/>
<!-- Node1 -->
<g id="node1" class="node">
<title>Node1</title>
<g id="a_node1"><a xlink:title="Calculate the distance between this node and n2.">
<polygon fill="#bfbfbf" stroke="black" points="764,-183 764,-213 883,-213 883,-183 764,-183"/>
<text text-anchor="start" x="772" y="-201" font-family="Helvetica,sans-Serif" font-size="10.00">HF::SpatialStructures</text>
<text text-anchor="middle" x="823.5" y="-190" font-family="Helvetica,sans-Serif" font-size="10.00">::Node::distanceTo</text>
</a>
</g>
</g>
<!-- Node2 -->
<g id="node2" class="node">
<title>Node2</title>
<g id="a_node2"><a xlink:href="a00401.html#a12eb1e4c06400c4625cd22d925927b03" target="_top" xlink:title="Generate a Visibility Graph between every node in a set of nodes in parallel.">
<polygon fill="white" stroke="black" points="390,-304 390,-334 497,-334 497,-304 390,-304"/>
<text text-anchor="start" x="398" y="-322" font-family="Helvetica,sans-Serif" font-size="10.00">HF::VisibilityGraph</text>
<text text-anchor="middle" x="443.5" y="-311" font-family="Helvetica,sans-Serif" font-size="10.00">::AllToAll</text>
</a>
</g>
</g>
<!-- Node1&#45;&gt;Node2 -->
<g id="edge1" class="edge">
<title>Node1&#45;&gt;Node2</title>
<path fill="none" stroke="midnightblue" d="M804.9,-221.25C787.74,-242.03 759.66,-271.37 728,-286 653.22,-320.55 556,-324.15 497.03,-322.42"/>
<polygon fill="midnightblue" stroke="midnightblue" points="807.82,-223.2 811.35,-213.21 802.36,-218.82 807.82,-223.2"/>
</g>
<!-- Node6 -->
<g id="node6" class="node">
<title>Node6</title>
<g id="a_node6"><a xlink:href="a00401.html#ab1db87927118f70786a664c3b3cc7905" target="_top" xlink:title="Generate a Visibility Graph with every edge stored twice.">
<polygon fill="white" stroke="black" points="387.5,-235 387.5,-265 499.5,-265 499.5,-235 387.5,-235"/>
<text text-anchor="start" x="395.5" y="-253" font-family="Helvetica,sans-Serif" font-size="10.00">HF::VisibilityGraph</text>
<text text-anchor="middle" x="443.5" y="-242" font-family="Helvetica,sans-Serif" font-size="10.00">::AllToAllUndirected</text>
</a>
</g>
</g>
<!-- Node1&#45;&gt;Node6 -->
<g id="edge5" class="edge">
<title>Node1&#45;&gt;Node6</title>
<path fill="none" stroke="midnightblue" d="M753.84,-207.45C680.87,-217.48 566.92,-233.16 499.59,-242.42"/>
<polygon fill="midnightblue" stroke="midnightblue" points="754.42,-210.9 763.85,-206.07 753.47,-203.96 754.42,-210.9"/>
</g>
<!-- Node10 -->
<g id="node10" class="node">
<title>Node10</title>
<g id="a_node10"><a xlink:href="a00409.html#ac51f2e76c00356f8a6145bee865cd922" target="_top" xlink:title=" ">
<polygon fill="white" stroke="black" points="579,-93.5 579,-134.5 728,-134.5 728,-93.5 579,-93.5"/>
<text text-anchor="start" x="587" y="-122.5" font-family="Helvetica,sans-Serif" font-size="10.00">HF::SpatialStructures</text>
<text text-anchor="start" x="587" y="-111.5" font-family="Helvetica,sans-Serif" font-size="10.00">::CostAlgorithms::Calculate</text>
<text text-anchor="middle" x="653.5" y="-100.5" font-family="Helvetica,sans-Serif" font-size="10.00">EnergyExpenditure</text>
</a>
</g>
</g>
<!-- Node1&#45;&gt;Node10 -->
<g id="edge9" class="edge">
<title>Node1&#45;&gt;Node10</title>
<path fill="none" stroke="midnightblue" d="M783.18,-178.34C756.87,-165.18 722.31,-147.91 695.63,-134.57"/>
<polygon fill="midnightblue" stroke="midnightblue" points="781.96,-181.64 792.46,-182.98 785.09,-175.38 781.96,-181.64"/>
</g>
<!-- Node16 -->
<g id="node16" class="node">
<title>Node16</title>
<g id="a_node16"><a xlink:href="a00401.html#ae42a5aafdfcc29b6a668355c07602efb" target="_top" xlink:title="Generate a Visibility Graph from a set of nodes to another set of nodes.">
<polygon fill="white" stroke="black" points="390,-175 390,-205 497,-205 497,-175 390,-175"/>
<text text-anchor="start" x="398" y="-193" font-family="Helvetica,sans-Serif" font-size="10.00">HF::VisibilityGraph</text>
<text text-anchor="middle" x="443.5" y="-182" font-family="Helvetica,sans-Serif" font-size="10.00">::GroupToGroup</text>
</a>
</g>
</g>
<!-- Node1&#45;&gt;Node16 -->
<g id="edge15" class="edge">
<title>Node1&#45;&gt;Node16</title>
<path fill="none" stroke="midnightblue" d="M753.72,-196.54C679.86,-194.98 564.14,-192.53 497.18,-191.11"/>
<polygon fill="midnightblue" stroke="midnightblue" points="753.78,-200.05 763.85,-196.76 753.93,-193.05 753.78,-200.05"/>
</g>
<!-- Node21 -->
<g id="node21" class="node">
<title>Node21</title>
<g id="a_node21"><a xlink:href="a00401.html#a4d9cf77879eb78075f7f7b0a7e31119a" target="_top" xlink:title="Perform a line of sight check between two nodes.">
<polygon fill="white" stroke="black" points="593,-246 593,-276 714,-276 714,-246 593,-246"/>
<text text-anchor="start" x="601" y="-264" font-family="Helvetica,sans-Serif" font-size="10.00">HF::VisibilityGraph</text>
<text text-anchor="middle" x="653.5" y="-253" font-family="Helvetica,sans-Serif" font-size="10.00">::IsOcclusionBetween</text>
</a>
</g>
</g>
<!-- Node1&#45;&gt;Node21 -->
<g id="edge20" class="edge">
<title>Node1&#45;&gt;Node21</title>
<path fill="none" stroke="midnightblue" d="M772.64,-216.7C747.77,-226.02 718.09,-237.15 694.7,-245.92"/>
<polygon fill="midnightblue" stroke="midnightblue" points="774.13,-219.88 782.26,-213.09 771.67,-213.32 774.13,-219.88"/>
</g>
<!-- Node22 -->
<g id="node22" class="node">
<title>Node22</title>
<g id="a_node22"><a xlink:href="a00419.html#ae531762b8a1cc3bec235915b2f91161e" target="_top" xlink:title=" ">
<polygon fill="white" stroke="black" points="583.5,-55.5 583.5,-74.5 723.5,-74.5 723.5,-55.5 583.5,-55.5"/>
<text text-anchor="middle" x="653.5" y="-62.5" font-family="Helvetica,sans-Serif" font-size="10.00">NodeExampleTests::TEST</text>
</a>
</g>
</g>
<!-- Node1&#45;&gt;Node22 -->
<g id="edge24" class="edge">
<title>Node1&#45;&gt;Node22</title>
<path fill="none" stroke="midnightblue" d="M808.93,-173.96C792.94,-147.85 763.95,-106.83 728,-84 721.88,-80.11 715,-77.02 707.96,-74.56"/>
<polygon fill="midnightblue" stroke="midnightblue" points="806.1,-176.04 814.22,-182.84 812.11,-172.46 806.1,-176.04"/>
</g>
<!-- Node3 -->
<g id="node3" class="node">
<title>Node3</title>
<g id="a_node3"><a xlink:href="a00394.html#ga0255e6c4811298e61110adc64c0f8acd" target="_top" xlink:title="Create a new directed visibility graph between all nodes in parameter nodes.">
<polygon fill="white" stroke="black" points="166,-307 166,-337 300,-337 300,-307 166,-307"/>
<text text-anchor="start" x="174" y="-325" font-family="Helvetica,sans-Serif" font-size="10.00">CreateVisibilityGraphAll</text>
<text text-anchor="middle" x="233" y="-314" font-family="Helvetica,sans-Serif" font-size="10.00">ToAll</text>
</a>
</g>
</g>
<!-- Node2&#45;&gt;Node3 -->
<g id="edge2" class="edge">
<title>Node2&#45;&gt;Node3</title>
<path fill="none" stroke="midnightblue" d="M379.72,-319.9C354.56,-320.27 325.54,-320.68 300.06,-321.05"/>
<polygon fill="midnightblue" stroke="midnightblue" points="379.94,-323.4 389.89,-319.76 379.84,-316.4 379.94,-323.4"/>
</g>
<!-- Node5 -->
<g id="node5" class="node">
<title>Node5</title>
<g id="a_node5"><a xlink:href="a00335.html#a498faa46d59cc333132309d698e1688e" target="_top" xlink:title=" ">
<polygon fill="white" stroke="black" points="212.5,-356.5 212.5,-375.5 253.5,-375.5 253.5,-356.5 212.5,-356.5"/>
<text text-anchor="middle" x="233" y="-363.5" font-family="Helvetica,sans-Serif" font-size="10.00">TEST</text>
</a>
</g>
</g>
<!-- Node2&#45;&gt;Node5 -->
<g id="edge4" class="edge">
<title>Node2&#45;&gt;Node5</title>
<path fill="none" stroke="midnightblue" d="M380.02,-333.08C336.82,-342.82 282.15,-355.15 253.52,-361.6"/>
<polygon fill="midnightblue" stroke="midnightblue" points="380.9,-336.47 389.89,-330.86 379.36,-329.64 380.9,-336.47"/>
</g>
<!-- Node4 -->
<g id="node4" class="node">
<title>Node4</title>
<g id="a_node4"><a xlink:href="a00414.html#ab4db31dd49b37ac0eafa29d6cfbed556" target="_top" xlink:title=" ">
<polygon fill="white" stroke="black" points="0,-312.5 0,-331.5 122,-331.5 122,-312.5 0,-312.5"/>
<text text-anchor="middle" x="61" y="-319.5" font-family="Helvetica,sans-Serif" font-size="10.00">CInterfaceTests::TEST</text>
</a>
</g>
</g>
<!-- Node3&#45;&gt;Node4 -->
<g id="edge3" class="edge">
<title>Node3&#45;&gt;Node4</title>
<path fill="none" stroke="midnightblue" d="M155.59,-322C144.4,-322 133.01,-322 122.21,-322"/>
<polygon fill="midnightblue" stroke="midnightblue" points="155.79,-325.5 165.79,-322 155.79,-318.5 155.79,-325.5"/>
</g>
<!-- Node7 -->
<g id="node7" class="node">
<title>Node7</title>
<g id="a_node7"><a xlink:href="a00394.html#ga9b0664a60bcdf276b0fe0a2023b3d9b8" target="_top" xlink:title="Create a new undirected visibility graph between all nodes in nodes.">
<polygon fill="white" stroke="black" points="166,-219 166,-249 300,-249 300,-219 166,-219"/>
<text text-anchor="start" x="174" y="-237" font-family="Helvetica,sans-Serif" font-size="10.00">CreateVisibilityGraphAll</text>
<text text-anchor="middle" x="233" y="-226" font-family="Helvetica,sans-Serif" font-size="10.00">ToAllUndirected</text>
</a>
</g>
</g>
<!-- Node6&#45;&gt;Node7 -->
<g id="edge6" class="edge">
<title>Node6&#45;&gt;Node7</title>
<path fill="none" stroke="midnightblue" d="M377.16,-244.99C352.63,-243.1 324.74,-240.96 300.14,-239.08"/>
<polygon fill="midnightblue" stroke="midnightblue" points="377.21,-248.5 387.45,-245.78 377.74,-241.52 377.21,-248.5"/>
</g>
<!-- Node9 -->
<g id="node9" class="node">
<title>Node9</title>
<g id="a_node9"><a xlink:href="a00335.html#a6c5b602bf3b5b51b485e370fd5060c2a" target="_top" xlink:title=" ">
<polygon fill="white" stroke="black" points="212.5,-268.5 212.5,-287.5 253.5,-287.5 253.5,-268.5 212.5,-268.5"/>
<text text-anchor="middle" x="233" y="-275.5" font-family="Helvetica,sans-Serif" font-size="10.00">TEST</text>
</a>
</g>
</g>
<!-- Node6&#45;&gt;Node9 -->
<g id="edge8" class="edge">
<title>Node6&#45;&gt;Node9</title>
<path fill="none" stroke="midnightblue" d="M377.38,-258.75C334.63,-264.49 281.6,-271.61 253.54,-275.38"/>
<polygon fill="midnightblue" stroke="midnightblue" points="378,-262.19 387.45,-257.39 377.07,-255.26 378,-262.19"/>
</g>
<!-- Node8 -->
<g id="node8" class="node">
<title>Node8</title>
<g id="a_node8"><a xlink:href="a00414.html#a3d1882bb0ad374a2444c01dd46a92013" target="_top" xlink:title=" ">
<polygon fill="white" stroke="black" points="0,-224.5 0,-243.5 122,-243.5 122,-224.5 0,-224.5"/>
<text text-anchor="middle" x="61" y="-231.5" font-family="Helvetica,sans-Serif" font-size="10.00">CInterfaceTests::TEST</text>
</a>
</g>
</g>
<!-- Node7&#45;&gt;Node8 -->
<g id="edge7" class="edge">
<title>Node7&#45;&gt;Node8</title>
<path fill="none" stroke="midnightblue" d="M155.59,-234C144.4,-234 133.01,-234 122.21,-234"/>
<polygon fill="midnightblue" stroke="midnightblue" points="155.79,-237.5 165.79,-234 155.79,-230.5 155.79,-237.5"/>
</g>
<!-- Node11 -->
<g id="node11" class="node">
<title>Node11</title>
<g id="a_node11"><a xlink:href="a00392.html#ga76d98cf2df63a766a74137dfa815d9a9" target="_top" xlink:title="Calculates energy expenditure for all subgraphs in *g and stores them in the graph at AlgorithmCostTi...">
<polygon fill="white" stroke="black" points="344,-98.5 344,-117.5 543,-117.5 543,-98.5 344,-98.5"/>
<text text-anchor="middle" x="443.5" y="-105.5" font-family="Helvetica,sans-Serif" font-size="10.00">CalculateAndStoreEnergyExpenditure</text>
</a>
</g>
</g>
<!-- Node10&#45;&gt;Node11 -->
<g id="edge10" class="edge">
<title>Node10&#45;&gt;Node11</title>
<path fill="none" stroke="midnightblue" d="M568.72,-111.58C560.31,-111.34 551.71,-111.09 543.16,-110.85"/>
<polygon fill="midnightblue" stroke="midnightblue" points="568.78,-115.09 578.87,-111.88 568.98,-108.09 568.78,-115.09"/>
</g>
<!-- Node13 -->
<g id="node13" class="node">
<title>Node13</title>
<g id="a_node13"><a xlink:href="a00409.html#adbe5e58355a884494d6e99bf17fc5f7b" target="_top" xlink:title=" ">
<polygon fill="white" stroke="black" points="369,-38.5 369,-79.5 518,-79.5 518,-38.5 369,-38.5"/>
<text text-anchor="start" x="377" y="-67.5" font-family="Helvetica,sans-Serif" font-size="10.00">HF::SpatialStructures</text>
<text text-anchor="start" x="377" y="-56.5" font-family="Helvetica,sans-Serif" font-size="10.00">::CostAlgorithms::Calculate</text>
<text text-anchor="middle" x="443.5" y="-45.5" font-family="Helvetica,sans-Serif" font-size="10.00">EnergyExpenditure</text>
</a>
</g>
</g>
<!-- Node10&#45;&gt;Node13 -->
<g id="edge12" class="edge">
<title>Node10&#45;&gt;Node13</title>
<path fill="none" stroke="midnightblue" d="M569.04,-91.93C552.16,-87.47 534.53,-82.81 518.03,-78.44"/>
<polygon fill="midnightblue" stroke="midnightblue" points="568.31,-95.36 578.87,-94.53 570.1,-88.59 568.31,-95.36"/>
</g>
<!-- Node14 -->
<g id="node14" class="node">
<title>Node14</title>
<g id="a_node14"><a xlink:href="a00311.html#a04976105acb669014bac1adcfdaeef06" target="_top" xlink:title=" ">
<polygon fill="white" stroke="black" points="423,-0.5 423,-19.5 464,-19.5 464,-0.5 423,-0.5"/>
<text text-anchor="middle" x="443.5" y="-7.5" font-family="Helvetica,sans-Serif" font-size="10.00">TEST</text>
</a>
</g>
</g>
<!-- Node10&#45;&gt;Node14 -->
<g id="edge13" class="edge">
<title>Node10&#45;&gt;Node14</title>
<path fill="none" stroke="midnightblue" d="M584.4,-88.1C582.53,-86.79 580.73,-85.42 579,-84 556.46,-65.42 567.26,-45.28 543,-29 519.28,-13.09 485.53,-9.77 464.33,-9.43"/>
<polygon fill="midnightblue" stroke="midnightblue" points="582.58,-91.09 592.91,-93.46 586.31,-85.17 582.58,-91.09"/>
</g>
<!-- Node15 -->
<g id="node15" class="node">
<title>Node15</title>
<g id="a_node15"><a xlink:href="a00414.html#ac34c6bfcef0c63962f0daa92bf41ed90" target="_top" xlink:title=" ">
<polygon fill="white" stroke="black" points="382.5,-136.5 382.5,-155.5 504.5,-155.5 504.5,-136.5 382.5,-136.5"/>
<text text-anchor="middle" x="443.5" y="-143.5" font-family="Helvetica,sans-Serif" font-size="10.00">CInterfaceTests::TEST</text>
</a>
</g>
</g>
<!-- Node10&#45;&gt;Node15 -->
<g id="edge14" class="edge">
<title>Node10&#45;&gt;Node15</title>
<path fill="none" stroke="midnightblue" d="M568.78,-126.88C547.32,-130.18 524.66,-133.67 504.65,-136.75"/>
<polygon fill="midnightblue" stroke="midnightblue" points="569.52,-130.31 578.87,-125.33 568.46,-123.39 569.52,-130.31"/>
</g>
<!-- Node12 -->
<g id="node12" class="node">
<title>Node12</title>
<g id="a_node12"><a xlink:href="a00414.html#aa9b2d534bfed16855c6edee67cca51eb" target="_top" xlink:title=" ">
<polygon fill="white" stroke="black" points="172,-92.5 172,-111.5 294,-111.5 294,-92.5 172,-92.5"/>
<text text-anchor="middle" x="233" y="-99.5" font-family="Helvetica,sans-Serif" font-size="10.00">CInterfaceTests::TEST</text>
</a>
</g>
</g>
<!-- Node11&#45;&gt;Node12 -->
<g id="edge11" class="edge">
<title>Node11&#45;&gt;Node12</title>
<path fill="none" stroke="midnightblue" d="M333.41,-104.86C319.9,-104.47 306.5,-104.09 294.12,-103.73"/>
<polygon fill="midnightblue" stroke="midnightblue" points="333.65,-108.37 343.75,-105.16 333.85,-101.37 333.65,-108.37"/>
</g>
<!-- Node17 -->
<g id="node17" class="node">
<title>Node17</title>
<g id="a_node17"><a xlink:href="a00394.html#gaf2e404cb696aee3473cac0d1507576d8" target="_top" xlink:title="Create a new visibility graph from the nodes in group_a, into the nodes of group_b.">
<polygon fill="white" stroke="black" points="158,-131 158,-161 308,-161 308,-131 158,-131"/>
<text text-anchor="start" x="166" y="-149" font-family="Helvetica,sans-Serif" font-size="10.00">CreateVisibilityGraphGroup</text>
<text text-anchor="middle" x="233" y="-138" font-family="Helvetica,sans-Serif" font-size="10.00">ToGroup</text>
</a>
</g>
</g>
<!-- Node16&#45;&gt;Node17 -->
<g id="edge16" class="edge">
<title>Node16&#45;&gt;Node17</title>
<path fill="none" stroke="midnightblue" d="M380.01,-176.81C356.42,-171.83 329.42,-166.14 305.11,-161.01"/>
<polygon fill="midnightblue" stroke="midnightblue" points="379.38,-180.26 389.89,-178.9 380.82,-173.41 379.38,-180.26"/>
</g>
<!-- Node20 -->
<g id="node20" class="node">
<title>Node20</title>
<g id="a_node20"><a xlink:href="a00335.html#aee285dbd489d6166aef1bfc2fd84c595" target="_top" xlink:title=" ">
<polygon fill="white" stroke="black" points="212.5,-180.5 212.5,-199.5 253.5,-199.5 253.5,-180.5 212.5,-180.5"/>
<text text-anchor="middle" x="233" y="-187.5" font-family="Helvetica,sans-Serif" font-size="10.00">TEST</text>
</a>
</g>
</g>
<!-- Node16&#45;&gt;Node20 -->
<g id="edge19" class="edge">
<title>Node16&#45;&gt;Node20</title>
<path fill="none" stroke="midnightblue" d="M379.74,-190C336.59,-190 282.09,-190 253.52,-190"/>
<polygon fill="midnightblue" stroke="midnightblue" points="379.89,-193.5 389.89,-190 379.89,-186.5 379.89,-193.5"/>
</g>
<!-- Node18 -->
<g id="node18" class="node">
<title>Node18</title>
<g id="a_node18"><a xlink:href="a00335.html#aad85acff2b9716aaf14c5a73114822b9" target="_top" xlink:title=" ">
<polygon fill="white" stroke="black" points="40.5,-155.5 40.5,-174.5 81.5,-174.5 81.5,-155.5 40.5,-155.5"/>
<text text-anchor="middle" x="61" y="-162.5" font-family="Helvetica,sans-Serif" font-size="10.00">TEST</text>
</a>
</g>
</g>
<!-- Node17&#45;&gt;Node18 -->
<g id="edge17" class="edge">
<title>Node17&#45;&gt;Node18</title>
<path fill="none" stroke="midnightblue" d="M147.74,-155.42C123.02,-158.18 98.22,-160.95 81.7,-162.8"/>
<polygon fill="midnightblue" stroke="midnightblue" points="148.38,-158.87 157.93,-154.28 147.6,-151.91 148.38,-158.87"/>
</g>
<!-- Node19 -->
<g id="node19" class="node">
<title>Node19</title>
<g id="a_node19"><a xlink:href="a00414.html#ad2cc33eb1f7d0c628289c7d82da986c7" target="_top" xlink:title=" ">
<polygon fill="white" stroke="black" points="0,-117.5 0,-136.5 122,-136.5 122,-117.5 0,-117.5"/>
<text text-anchor="middle" x="61" y="-124.5" font-family="Helvetica,sans-Serif" font-size="10.00">CInterfaceTests::TEST</text>
</a>
</g>
</g>
<!-- Node17&#45;&gt;Node19 -->
<g id="edge18" class="edge">
<title>Node17&#45;&gt;Node19</title>
<path fill="none" stroke="midnightblue" d="M147.77,-136.59C139.08,-135.62 130.39,-134.64 122.05,-133.71"/>
<polygon fill="midnightblue" stroke="midnightblue" points="147.6,-140.09 157.93,-137.72 148.38,-133.13 147.6,-140.09"/>
</g>
<!-- Node21&#45;&gt;Node2 -->
<g id="edge21" class="edge">
<title>Node21&#45;&gt;Node2</title>
<path fill="none" stroke="midnightblue" d="M588.9,-278.73C559.48,-286.94 524.95,-296.57 497.03,-304.35"/>
<polygon fill="midnightblue" stroke="midnightblue" points="589.97,-282.07 598.66,-276.01 588.09,-275.33 589.97,-282.07"/>
</g>
<!-- Node21&#45;&gt;Node6 -->
<g id="edge22" class="edge">
<title>Node21&#45;&gt;Node6</title>
<path fill="none" stroke="midnightblue" d="M582.74,-257.31C555.74,-255.88 525.28,-254.27 499.83,-252.93"/>
<polygon fill="midnightblue" stroke="midnightblue" points="582.72,-260.81 592.9,-257.85 583.09,-253.82 582.72,-260.81"/>
</g>
<!-- Node21&#45;&gt;Node16 -->
<g id="edge23" class="edge">
<title>Node21&#45;&gt;Node16</title>
<path fill="none" stroke="midnightblue" d="M598.56,-242.59C564.35,-230.91 520.66,-216 488.55,-205.04"/>
<polygon fill="midnightblue" stroke="midnightblue" points="597.79,-246.02 608.39,-245.94 600.06,-239.4 597.79,-246.02"/>
</g>
</g>
</svg>
