<?xml version="1.0" encoding="UTF-8" standalone="no"?>
<!DOCTYPE svg PUBLIC "-//W3C//DTD SVG 1.1//EN"
 "http://www.w3.org/Graphics/SVG/1.1/DTD/svg11.dtd">
<!-- Generated by graphviz version 8.0.5 (20230430.1635)
 -->
<!-- Title: nlohmann::detail::binary_writer::write_number_with_ubjson_prefix Pages: 1 -->
<svg width="441pt" height="70pt"
 viewBox="0.00 0.00 440.75 70.00" xmlns="http://www.w3.org/2000/svg" xmlns:xlink="http://www.w3.org/1999/xlink">
<g id="graph0" class="graph" transform="scale(1 1) rotate(0) translate(4 66)">
<title>nlohmann::detail::binary_writer::write_number_with_ubjson_prefix</title>
<!-- Node1 -->
<g id="node1" class="node">
<title>Node1</title>
<g id="a_node1"><a xlink:title=" ">
<polygon fill="#999999" stroke="#666666" points="432.75,-44 302,-44 302,0 432.75,0 432.75,-44"/>
<text text-anchor="start" x="310" y="-30.5" font-family="Helvetica,sans-Serif" font-size="10.00">nlohmann::detail::binary</text>
<text text-anchor="start" x="310" y="-18.5" font-family="Helvetica,sans-Serif" font-size="10.00">_writer::write_number_with</text>
<text text-anchor="middle" x="367.38" y="-6.5" font-family="Helvetica,sans-Serif" font-size="10.00">_ubjson_prefix</text>
</a>
</g>
</g>
<!-- Node1&#45;&gt;Node1 -->
<g id="edge1" class="edge">
<title>Node1&#45;&gt;Node1</title>
<path fill="none" stroke="#63b8ff" d="M394.42,-54.4C390,-58.95 380.99,-62 367.38,-62 345.03,-62 335.08,-53.8 337.53,-44.21"/>
<polygon fill="#63b8ff" stroke="#63b8ff" points="397.94,-55.78 397.22,-45.21 391.19,-53.92 397.94,-55.78"/>
</g>
<!-- Node2 -->
<g id="node2" class="node">
<title>Node2</title>
<g id="a_node2"><a xlink:href="a02039.html#a0f6c65053d859269f88eb4ebb0cd7060" target="_top" xlink:title=" ">
<polygon fill="white" stroke="#666666" points="266,-38 146.5,-38 146.5,-6 266,-6 266,-38"/>
<text text-anchor="start" x="154.5" y="-24.5" font-family="Helvetica,sans-Serif" font-size="10.00">nlohmann::detail::binary</text>
<text text-anchor="middle" x="206.25" y="-12.5" font-family="Helvetica,sans-Serif" font-size="10.00">_writer::write_ubjson</text>
</a>
</g>
</g>
<!-- Node1&#45;&gt;Node2 -->
<g id="edge2" class="edge">
<title>Node1&#45;&gt;Node2</title>
<path fill="none" stroke="#63b8ff" d="M290.86,-22C282.61,-22 274.29,-22 266.28,-22"/>
<polygon fill="#63b8ff" stroke="#63b8ff" points="290.65,-25.5 300.65,-22 290.65,-18.5 290.65,-25.5"/>
</g>
<!-- Node2&#45;&gt;Node2 -->
<g id="edge4" class="edge">
<title>Node2&#45;&gt;Node2</title>
<path fill="none" stroke="#63b8ff" d="M232.09,-49.05C228.16,-53.19 219.55,-56 206.25,-56 183.25,-56 174.26,-47.58 179.29,-38.44"/>
<polygon fill="#63b8ff" stroke="#63b8ff" points="235.64,-49.75 233.21,-39.44 228.68,-49.02 235.64,-49.75"/>
</g>
<!-- Node3 -->
<g id="node3" class="node">
<title>Node3</title>
<g id="a_node3"><a xlink:href="a01659.html#a19dad92c4fe9e6a289a93195e1230e97" target="_top" xlink:title=" ">
<polygon fill="white" stroke="#666666" points="110.5,-38 0,-38 0,-6 110.5,-6 110.5,-38"/>
<text text-anchor="start" x="8" y="-24.5" font-family="Helvetica,sans-Serif" font-size="10.00">nlohmann::basic_json</text>
<text text-anchor="middle" x="55.25" y="-12.5" font-family="Helvetica,sans-Serif" font-size="10.00">::to_ubjson</text>
</a>
</g>
</g>
<!-- Node2&#45;&gt;Node3 -->
<g id="edge3" class="edge">
<title>Node2&#45;&gt;Node3</title>
<path fill="none" stroke="#63b8ff" d="M135.54,-22C127.25,-22 118.87,-22 110.83,-22"/>
<polygon fill="#63b8ff" stroke="#63b8ff" points="135.36,-25.5 145.36,-22 135.36,-18.5 135.36,-25.5"/>
</g>
</g>
</svg>
