<?xml version="1.0" encoding="UTF-8" standalone="no"?>
<!DOCTYPE svg PUBLIC "-//W3C//DTD SVG 1.1//EN"
 "http://www.w3.org/Graphics/SVG/1.1/DTD/svg11.dtd">
<!-- Generated by graphviz version 2.43.0 (0)
 -->
<!-- Title: ModelAndStart Pages: 1 -->
<svg width="827pt" height="382pt"
 viewBox="0.00 0.00 827.00 381.50" xmlns="http://www.w3.org/2000/svg" xmlns:xlink="http://www.w3.org/1999/xlink">
<g id="graph0" class="graph" transform="scale(1 1) rotate(0) translate(4 377.5)">
<title>ModelAndStart</title>
<polygon fill="white" stroke="transparent" points="-4,4 -4,-377.5 823,-377.5 823,4 -4,4"/>
<!-- Node1 -->
<g id="node1" class="node">
<title>Node1</title>
<g id="a_node1"><a xlink:title=" ">
<polygon fill="#bfbfbf" stroke="black" points="730,-283.5 730,-302.5 819,-302.5 819,-283.5 730,-283.5"/>
<text text-anchor="middle" x="774.5" y="-290.5" font-family="Helvetica,sans-Serif" font-size="10.00">ModelAndStart</text>
</a>
</g>
</g>
<!-- Node2 -->
<g id="node2" class="node">
<title>Node2</title>
<g id="a_node2"><a xlink:title=" ">
<polygon fill="white" stroke="#bfbfbf" points="27,-282.5 27,-301.5 56,-301.5 56,-282.5 27,-282.5"/>
<text text-anchor="middle" x="41.5" y="-289.5" font-family="Helvetica,sans-Serif" font-size="10.00">int</text>
</a>
</g>
</g>
<!-- Node2&#45;&gt;Node1 -->
<g id="edge1" class="edge">
<title>Node2&#45;&gt;Node1</title>
<path fill="none" stroke="#9a32cd" stroke-dasharray="5,2" d="M66.52,-296.03C77.07,-297.61 89.61,-299.23 101,-300 122.73,-301.48 128.22,-300.12 150,-300 367.59,-298.78 627.86,-295.16 729.66,-293.66"/>
<polygon fill="#9a32cd" stroke="#9a32cd" points="66.82,-292.54 56.39,-294.44 65.73,-299.45 66.82,-292.54"/>
<text text-anchor="middle" x="403.5" y="-312" font-family="Helvetica,sans-Serif" font-size="10.00"> triangles</text>
<text text-anchor="middle" x="403.5" y="-301" font-family="Helvetica,sans-Serif" font-size="10.00">verts</text>
</g>
<!-- Node14 -->
<g id="node14" class="node">
<title>Node14</title>
<g id="a_node14"><a xlink:href="a00398.html#a01349" target="_top" xlink:title="A triangle. Used internally in Embree.">
<polygon fill="white" stroke="black" points="183,-263.5 183,-282.5 311,-282.5 311,-263.5 183,-263.5"/>
<text text-anchor="middle" x="247" y="-270.5" font-family="Helvetica,sans-Serif" font-size="10.00">HF::RayTracer::Triangle</text>
</a>
</g>
</g>
<!-- Node2&#45;&gt;Node14 -->
<g id="edge14" class="edge">
<title>Node2&#45;&gt;Node14</title>
<path fill="none" stroke="#9a32cd" stroke-dasharray="5,2" d="M65.66,-279.54C76.13,-274.59 88.86,-269.48 101,-267 127.41,-261.59 157.08,-261.75 182.66,-263.77"/>
<polygon fill="#9a32cd" stroke="#9a32cd" points="63.79,-276.56 56.4,-284.16 66.91,-282.83 63.79,-276.56"/>
<text text-anchor="middle" x="125.5" y="-292" font-family="Helvetica,sans-Serif" font-size="10.00"> v2</text>
<text text-anchor="middle" x="125.5" y="-281" font-family="Helvetica,sans-Serif" font-size="10.00">v0</text>
<text text-anchor="middle" x="125.5" y="-270" font-family="Helvetica,sans-Serif" font-size="10.00">v1</text>
</g>
<!-- Node3 -->
<g id="node3" class="node">
<title>Node3</title>
<g id="a_node3"><a xlink:title="STL class.">
<polygon fill="white" stroke="#bfbfbf" points="521.5,-345.5 521.5,-364.5 586.5,-364.5 586.5,-345.5 521.5,-345.5"/>
<text text-anchor="middle" x="554" y="-352.5" font-family="Helvetica,sans-Serif" font-size="10.00">std::string</text>
</a>
</g>
</g>
<!-- Node3&#45;&gt;Node1 -->
<g id="edge2" class="edge">
<title>Node3&#45;&gt;Node1</title>
<path fill="none" stroke="#9a32cd" stroke-dasharray="5,2" d="M596.77,-351.79C629,-348.37 674.29,-341.5 712,-328 729.58,-321.7 747.97,-310.55 760,-302.52"/>
<polygon fill="#9a32cd" stroke="#9a32cd" points="596.4,-348.31 586.8,-352.78 597.09,-355.27 596.4,-348.31"/>
<text text-anchor="middle" x="678.5" y="-347" font-family="Helvetica,sans-Serif" font-size="10.00"> model_name</text>
</g>
<!-- Node4 -->
<g id="node4" class="node">
<title>Node4</title>
<g id="a_node4"><a xlink:title="STL class.">
<polygon fill="white" stroke="#bfbfbf" points="195,-343 195,-373 299,-373 299,-343 195,-343"/>
<text text-anchor="start" x="203" y="-361" font-family="Helvetica,sans-Serif" font-size="10.00">std::basic_string&lt;</text>
<text text-anchor="middle" x="247" y="-350" font-family="Helvetica,sans-Serif" font-size="10.00"> char &gt;</text>
</a>
</g>
</g>
<!-- Node4&#45;&gt;Node3 -->
<g id="edge3" class="edge">
<title>Node4&#45;&gt;Node3</title>
<path fill="none" stroke="midnightblue" d="M309.43,-357.4C373.53,-356.77 471.52,-355.8 521.42,-355.31"/>
<polygon fill="midnightblue" stroke="midnightblue" points="309.02,-353.9 299.05,-357.5 309.08,-360.9 309.02,-353.9"/>
</g>
<!-- Node5 -->
<g id="node5" class="node">
<title>Node5</title>
<g id="a_node5"><a xlink:href="a01357.html" target="_top" xlink:title="A wrapper for Intel&#39;s Embree Library.">
<polygon fill="white" stroke="black" points="481,-163 481,-193 627,-193 627,-163 481,-163"/>
<text text-anchor="start" x="489" y="-181" font-family="Helvetica,sans-Serif" font-size="10.00">HF::RayTracer::EmbreeRay</text>
<text text-anchor="middle" x="554" y="-170" font-family="Helvetica,sans-Serif" font-size="10.00">Tracer</text>
</a>
</g>
</g>
<!-- Node5&#45;&gt;Node1 -->
<g id="edge4" class="edge">
<title>Node5&#45;&gt;Node1</title>
<path fill="none" stroke="#9a32cd" stroke-dasharray="5,2" d="M592.61,-197.79C640.09,-222.78 719.87,-264.77 755.44,-283.49"/>
<polygon fill="#9a32cd" stroke="#9a32cd" points="594.04,-194.59 583.57,-193.03 590.78,-200.79 594.04,-194.59"/>
<text text-anchor="middle" x="678.5" y="-273" font-family="Helvetica,sans-Serif" font-size="10.00"> StandardERT</text>
<text text-anchor="middle" x="678.5" y="-262" font-family="Helvetica,sans-Serif" font-size="10.00">PreciseERT</text>
</g>
<!-- Node6 -->
<g id="node6" class="node">
<title>Node6</title>
<g id="a_node6"><a xlink:title=" ">
<polygon fill="white" stroke="#bfbfbf" points="189,-149.5 189,-168.5 305,-168.5 305,-149.5 189,-149.5"/>
<text text-anchor="middle" x="247" y="-156.5" font-family="Helvetica,sans-Serif" font-size="10.00">RTCIntersectContext</text>
</a>
</g>
</g>
<!-- Node6&#45;&gt;Node5 -->
<g id="edge5" class="edge">
<title>Node6&#45;&gt;Node5</title>
<path fill="none" stroke="#9a32cd" stroke-dasharray="5,2" d="M315.36,-158.31C357.8,-158.43 413.7,-159.61 463,-164 468.83,-164.52 474.85,-165.18 480.89,-165.93"/>
<polygon fill="#9a32cd" stroke="#9a32cd" points="315.15,-154.81 305.15,-158.3 315.15,-161.81 315.15,-154.81"/>
<text text-anchor="middle" x="403.5" y="-167" font-family="Helvetica,sans-Serif" font-size="10.00"> context</text>
</g>
<!-- Node7 -->
<g id="node7" class="node">
<title>Node7</title>
<g id="a_node7"><a xlink:title=" ">
<polygon fill="white" stroke="#bfbfbf" points="215,-111.5 215,-130.5 279,-130.5 279,-111.5 215,-111.5"/>
<text text-anchor="middle" x="247" y="-118.5" font-family="Helvetica,sans-Serif" font-size="10.00">RTCScene</text>
</a>
</g>
</g>
<!-- Node7&#45;&gt;Node5 -->
<g id="edge6" class="edge">
<title>Node7&#45;&gt;Node5</title>
<path fill="none" stroke="#9a32cd" stroke-dasharray="5,2" d="M289.27,-122.3C332.94,-124.4 403.63,-129.85 463,-144 482.17,-148.57 502.79,-156.15 519.45,-162.99"/>
<polygon fill="#9a32cd" stroke="#9a32cd" points="289.18,-118.79 279.04,-121.85 288.87,-125.79 289.18,-118.79"/>
<text text-anchor="middle" x="403.5" y="-147" font-family="Helvetica,sans-Serif" font-size="10.00"> scene</text>
</g>
<!-- Node8 -->
<g id="node8" class="node">
<title>Node8</title>
<g id="a_node8"><a xlink:title=" ">
<polygon fill="white" stroke="#bfbfbf" points="168,-225.5 168,-244.5 326,-244.5 326,-225.5 168,-225.5"/>
<text text-anchor="middle" x="247" y="-232.5" font-family="Helvetica,sans-Serif" font-size="10.00">std::vector&lt; RTCGeometry &gt;</text>
</a>
</g>
</g>
<!-- Node8&#45;&gt;Node5 -->
<g id="edge7" class="edge">
<title>Node8&#45;&gt;Node5</title>
<path fill="none" stroke="#9a32cd" stroke-dasharray="5,2" d="M336.42,-225.75C375.46,-220.87 421.76,-214.01 463,-205 477.66,-201.8 493.41,-197.41 507.57,-193.1"/>
<polygon fill="#9a32cd" stroke="#9a32cd" points="335.63,-222.32 326.13,-227.01 336.48,-229.27 335.63,-222.32"/>
<text text-anchor="middle" x="403.5" y="-227" font-family="Helvetica,sans-Serif" font-size="10.00"> geometry</text>
</g>
<!-- Node9 -->
<g id="node9" class="node">
<title>Node9</title>
<g id="a_node9"><a xlink:title=" ">
<polygon fill="white" stroke="#bfbfbf" points="0,-222.5 0,-241.5 83,-241.5 83,-222.5 0,-222.5"/>
<text text-anchor="middle" x="41.5" y="-229.5" font-family="Helvetica,sans-Serif" font-size="10.00">RTCGeometry</text>
</a>
</g>
</g>
<!-- Node9&#45;&gt;Node8 -->
<g id="edge8" class="edge">
<title>Node9&#45;&gt;Node8</title>
<path fill="none" stroke="#9a32cd" stroke-dasharray="5,2" d="M93.33,-232.35C111.24,-232.51 131.51,-232.72 150,-233 155.83,-233.09 161.87,-233.19 167.94,-233.3"/>
<polygon fill="#9a32cd" stroke="#9a32cd" points="93.11,-228.85 83.08,-232.27 93.05,-235.85 93.11,-228.85"/>
<text text-anchor="middle" x="125.5" y="-236" font-family="Helvetica,sans-Serif" font-size="10.00"> elements</text>
</g>
<!-- Node10 -->
<g id="node10" class="node">
<title>Node10</title>
<g id="a_node10"><a xlink:title=" ">
<polygon fill="white" stroke="#bfbfbf" points="228,-35.5 228,-54.5 266,-54.5 266,-35.5 228,-35.5"/>
<text text-anchor="middle" x="247" y="-42.5" font-family="Helvetica,sans-Serif" font-size="10.00">bool</text>
</a>
</g>
</g>
<!-- Node10&#45;&gt;Node5 -->
<g id="edge9" class="edge">
<title>Node10&#45;&gt;Node5</title>
<path fill="none" stroke="#9a32cd" stroke-dasharray="5,2" d="M276.29,-41.87C319.61,-38.48 403.62,-37.52 463,-72 474.53,-78.7 472.6,-85.65 481,-96 500.47,-119.97 524.33,-146.66 539.1,-162.89"/>
<polygon fill="#9a32cd" stroke="#9a32cd" points="275.84,-38.4 266.19,-42.77 276.46,-45.37 275.84,-38.4"/>
<text text-anchor="middle" x="403.5" y="-75" font-family="Helvetica,sans-Serif" font-size="10.00"> use_precise</text>
</g>
<!-- Node11 -->
<g id="node11" class="node">
<title>Node11</title>
<g id="a_node11"><a xlink:href="a00398.html#a01345" target="_top" xlink:title="A vertex. Used internally in Embree.">
<polygon fill="white" stroke="black" points="186.5,-73.5 186.5,-92.5 307.5,-92.5 307.5,-73.5 186.5,-73.5"/>
<text text-anchor="middle" x="247" y="-80.5" font-family="Helvetica,sans-Serif" font-size="10.00">HF::RayTracer::Vertex</text>
</a>
</g>
</g>
<!-- Node11&#45;&gt;Node5 -->
<g id="edge10" class="edge">
<title>Node11&#45;&gt;Node5</title>
<path fill="none" stroke="#9a32cd" stroke-dasharray="5,2" d="M318.08,-83.73C361.24,-86.28 416.92,-93.41 463,-112 492.29,-123.81 520.77,-147.34 537.59,-162.88"/>
<polygon fill="#9a32cd" stroke="#9a32cd" points="318.13,-80.23 307.96,-83.21 317.76,-87.22 318.13,-80.23"/>
<text text-anchor="middle" x="403.5" y="-115" font-family="Helvetica,sans-Serif" font-size="10.00"> Vertices</text>
</g>
<!-- Node12 -->
<g id="node12" class="node">
<title>Node12</title>
<g id="a_node12"><a xlink:title=" ">
<polygon fill="white" stroke="#bfbfbf" points="22.5,-16.5 22.5,-35.5 60.5,-35.5 60.5,-16.5 22.5,-16.5"/>
<text text-anchor="middle" x="41.5" y="-23.5" font-family="Helvetica,sans-Serif" font-size="10.00">float</text>
</a>
</g>
</g>
<!-- Node12&#45;&gt;Node11 -->
<g id="edge11" class="edge">
<title>Node12&#45;&gt;Node11</title>
<path fill="none" stroke="#9a32cd" stroke-dasharray="5,2" d="M70.38,-34.92C95.73,-42.92 134.22,-54.78 168,-64 179.97,-67.27 193.04,-70.56 205,-73.46"/>
<polygon fill="#9a32cd" stroke="#9a32cd" points="71.29,-31.54 60.7,-31.85 69.17,-38.21 71.29,-31.54"/>
<text text-anchor="middle" x="125.5" y="-84" font-family="Helvetica,sans-Serif" font-size="10.00"> x</text>
<text text-anchor="middle" x="125.5" y="-73" font-family="Helvetica,sans-Serif" font-size="10.00">y</text>
<text text-anchor="middle" x="125.5" y="-62" font-family="Helvetica,sans-Serif" font-size="10.00">z</text>
</g>
<!-- Node15 -->
<g id="node15" class="node">
<title>Node15</title>
<g id="a_node15"><a xlink:title=" ">
<polygon fill="white" stroke="#bfbfbf" points="344,-0.5 344,-19.5 463,-19.5 463,-0.5 344,-0.5"/>
<text text-anchor="middle" x="403.5" y="-7.5" font-family="Helvetica,sans-Serif" font-size="10.00">std::array&lt; float, 3 &gt;</text>
</a>
</g>
</g>
<!-- Node12&#45;&gt;Node15 -->
<g id="edge16" class="edge">
<title>Node12&#45;&gt;Node15</title>
<path fill="none" stroke="#9a32cd" stroke-dasharray="5,2" d="M70.87,-24.74C129.55,-22.13 265.26,-16.1 343.68,-12.61"/>
<polygon fill="#9a32cd" stroke="#9a32cd" points="70.68,-21.24 60.85,-25.18 70.99,-28.24 70.68,-21.24"/>
<text text-anchor="middle" x="125.5" y="-27" font-family="Helvetica,sans-Serif" font-size="10.00"> elements</text>
</g>
<!-- Node13 -->
<g id="node13" class="node">
<title>Node13</title>
<g id="a_node13"><a xlink:title=" ">
<polygon fill="white" stroke="#bfbfbf" points="213,-187.5 213,-206.5 281,-206.5 281,-187.5 213,-187.5"/>
<text text-anchor="middle" x="247" y="-194.5" font-family="Helvetica,sans-Serif" font-size="10.00">RTCDevice</text>
</a>
</g>
</g>
<!-- Node13&#45;&gt;Node5 -->
<g id="edge12" class="edge">
<title>Node13&#45;&gt;Node5</title>
<path fill="none" stroke="#9a32cd" stroke-dasharray="5,2" d="M291.24,-194.31C340.55,-191.23 421.95,-186.16 480.9,-182.49"/>
<polygon fill="#9a32cd" stroke="#9a32cd" points="290.98,-190.82 281.22,-194.93 291.42,-197.8 290.98,-190.82"/>
<text text-anchor="middle" x="403.5" y="-193" font-family="Helvetica,sans-Serif" font-size="10.00"> device</text>
</g>
<!-- Node14&#45;&gt;Node5 -->
<g id="edge13" class="edge">
<title>Node14&#45;&gt;Node5</title>
<path fill="none" stroke="#9a32cd" stroke-dasharray="5,2" d="M321.08,-269.39C363.69,-265.36 417.77,-256.87 463,-239 490.74,-228.04 518.52,-207.37 535.73,-193.16"/>
<polygon fill="#9a32cd" stroke="#9a32cd" points="320.72,-265.91 311.06,-270.28 321.33,-272.89 320.72,-265.91"/>
<text text-anchor="middle" x="403.5" y="-269" font-family="Helvetica,sans-Serif" font-size="10.00"> triangles</text>
</g>
<!-- Node15&#45;&gt;Node1 -->
<g id="edge15" class="edge">
<title>Node15&#45;&gt;Node1</title>
<path fill="none" stroke="#9a32cd" stroke-dasharray="5,2" d="M435.05,-23.78C444.15,-28.11 454.08,-33.06 463,-38 538.5,-79.82 559.15,-88.65 627,-142 668.26,-174.44 675.62,-186.16 712,-224 731.8,-244.59 753.8,-269.91 765.36,-283.42"/>
<polygon fill="#9a32cd" stroke="#9a32cd" points="436.47,-20.58 425.93,-19.51 433.5,-26.92 436.47,-20.58"/>
<text text-anchor="middle" x="554" y="-145" font-family="Helvetica,sans-Serif" font-size="10.00"> start</text>
</g>
</g>
</svg>
