<?xml version="1.0" encoding="UTF-8" standalone="no"?>
<!DOCTYPE svg PUBLIC "-//W3C//DTD SVG 1.1//EN"
 "http://www.w3.org/Graphics/SVG/1.1/DTD/svg11.dtd">
<!-- Generated by graphviz version 2.43.0 (0)
 -->
<!-- Title: nlohmann::detail::serializer::dump_float Pages: 1 -->
<svg width="828pt" height="198pt"
 viewBox="0.00 0.00 828.00 198.00" xmlns="http://www.w3.org/2000/svg" xmlns:xlink="http://www.w3.org/1999/xlink">
<g id="graph0" class="graph" transform="scale(1 1) rotate(0) translate(4 194)">
<title>nlohmann::detail::serializer::dump_float</title>
<polygon fill="white" stroke="transparent" points="-4,4 -4,-194 824,-194 824,4 -4,4"/>
<!-- Node1 -->
<g id="node1" class="node">
<title>Node1</title>
<g id="a_node1"><a xlink:title=" ">
<polygon fill="#bfbfbf" stroke="black" points="0,-100.5 0,-130.5 150,-130.5 150,-100.5 0,-100.5"/>
<text text-anchor="start" x="8" y="-118.5" font-family="Helvetica,sans-Serif" font-size="10.00">nlohmann::detail::serializer</text>
<text text-anchor="middle" x="75" y="-107.5" font-family="Helvetica,sans-Serif" font-size="10.00">::dump_float</text>
</a>
</g>
</g>
<!-- Node2 -->
<g id="node2" class="node">
<title>Node2</title>
<g id="a_node2"><a xlink:href="a00411.html#a6cca370ac6c99294dbe4fe24716a57dd" target="_top" xlink:title="generates a decimal representation of the floating&#45;point number value in [first, last).">
<polygon fill="white" stroke="black" points="186,-100.5 186,-130.5 301,-130.5 301,-100.5 186,-100.5"/>
<text text-anchor="start" x="194" y="-118.5" font-family="Helvetica,sans-Serif" font-size="10.00">nlohmann::detail::to</text>
<text text-anchor="middle" x="243.5" y="-107.5" font-family="Helvetica,sans-Serif" font-size="10.00">_chars</text>
</a>
</g>
</g>
<!-- Node1&#45;&gt;Node2 -->
<g id="edge1" class="edge">
<title>Node1&#45;&gt;Node2</title>
<path fill="none" stroke="midnightblue" d="M150.48,-115.5C158.76,-115.5 167.16,-115.5 175.34,-115.5"/>
<polygon fill="midnightblue" stroke="midnightblue" points="175.56,-119 185.56,-115.5 175.56,-112 175.56,-119"/>
</g>
<!-- Node3 -->
<g id="node3" class="node">
<title>Node3</title>
<g id="a_node3"><a xlink:href="a00413.html#ab441f2761e33839ca48bc2225e14a2a9" target="_top" xlink:title="prettify v = buf * 10^decimal_exponent">
<polygon fill="white" stroke="black" points="337,-142.5 337,-172.5 464,-172.5 464,-142.5 337,-142.5"/>
<text text-anchor="start" x="345" y="-160.5" font-family="Helvetica,sans-Serif" font-size="10.00">nlohmann::detail::dtoa</text>
<text text-anchor="middle" x="400.5" y="-149.5" font-family="Helvetica,sans-Serif" font-size="10.00">_impl::format_buffer</text>
</a>
</g>
</g>
<!-- Node2&#45;&gt;Node3 -->
<g id="edge2" class="edge">
<title>Node2&#45;&gt;Node3</title>
<path fill="none" stroke="midnightblue" d="M300.02,-130.54C311.11,-133.55 322.85,-136.73 334.23,-139.81"/>
<polygon fill="midnightblue" stroke="midnightblue" points="333.54,-143.25 344.11,-142.49 335.37,-136.5 333.54,-143.25"/>
</g>
<!-- Node5 -->
<g id="node5" class="node">
<title>Node5</title>
<g id="a_node5"><a xlink:href="a00413.html#a05b681dcb8569b9784c6dccfadb01633" target="_top" xlink:title=" ">
<polygon fill="white" stroke="black" points="337,-76.5 337,-106.5 464,-106.5 464,-76.5 337,-76.5"/>
<text text-anchor="start" x="345" y="-94.5" font-family="Helvetica,sans-Serif" font-size="10.00">nlohmann::detail::dtoa</text>
<text text-anchor="middle" x="400.5" y="-83.5" font-family="Helvetica,sans-Serif" font-size="10.00">_impl::grisu2</text>
</a>
</g>
</g>
<!-- Node2&#45;&gt;Node5 -->
<g id="edge4" class="edge">
<title>Node2&#45;&gt;Node5</title>
<path fill="none" stroke="midnightblue" d="M301.34,-106.7C309.66,-105.41 318.32,-104.07 326.91,-102.74"/>
<polygon fill="midnightblue" stroke="midnightblue" points="327.57,-106.18 336.92,-101.19 326.5,-99.26 327.57,-106.18"/>
</g>
<!-- Node4 -->
<g id="node4" class="node">
<title>Node4</title>
<g id="a_node4"><a xlink:href="a00413.html#ad90f19ed10d8133b727df4b9bc5ddf5c" target="_top" xlink:title="appends a decimal representation of e to buf">
<polygon fill="white" stroke="black" points="501.5,-159.5 501.5,-189.5 638.5,-189.5 638.5,-159.5 501.5,-159.5"/>
<text text-anchor="start" x="509.5" y="-177.5" font-family="Helvetica,sans-Serif" font-size="10.00">nlohmann::detail::dtoa</text>
<text text-anchor="middle" x="570" y="-166.5" font-family="Helvetica,sans-Serif" font-size="10.00">_impl::append_exponent</text>
</a>
</g>
</g>
<!-- Node3&#45;&gt;Node4 -->
<g id="edge3" class="edge">
<title>Node3&#45;&gt;Node4</title>
<path fill="none" stroke="midnightblue" d="M464.35,-163.88C473.12,-164.77 482.21,-165.69 491.21,-166.61"/>
<polygon fill="midnightblue" stroke="midnightblue" points="491.01,-170.1 501.31,-167.63 491.72,-163.14 491.01,-170.1"/>
</g>
<!-- Node6 -->
<g id="node6" class="node">
<title>Node6</title>
<g id="a_node6"><a xlink:href="a00413.html#adbf329a18c5cf854a3477327afd2200b" target="_top" xlink:title=" ">
<polygon fill="white" stroke="black" points="500,-99 500,-140 640,-140 640,-99 500,-99"/>
<text text-anchor="start" x="508" y="-128" font-family="Helvetica,sans-Serif" font-size="10.00">nlohmann::detail::dtoa</text>
<text text-anchor="start" x="508" y="-117" font-family="Helvetica,sans-Serif" font-size="10.00">_impl::get_cached_power</text>
<text text-anchor="middle" x="570" y="-106" font-family="Helvetica,sans-Serif" font-size="10.00">_for_binary_exponent</text>
</a>
</g>
</g>
<!-- Node5&#45;&gt;Node6 -->
<g id="edge5" class="edge">
<title>Node5&#45;&gt;Node6</title>
<path fill="none" stroke="midnightblue" d="M464.35,-102.01C472.69,-103.4 481.32,-104.84 489.89,-106.28"/>
<polygon fill="midnightblue" stroke="midnightblue" points="489.46,-109.75 499.9,-107.95 490.62,-102.85 489.46,-109.75"/>
</g>
<!-- Node7 -->
<g id="node7" class="node">
<title>Node7</title>
<g id="a_node7"><a xlink:href="a00413.html#a9b899c72b0e1e3dd46d75c2b4e6bcdfb" target="_top" xlink:title=" ">
<polygon fill="white" stroke="black" points="505,-49.5 505,-79.5 635,-79.5 635,-49.5 505,-49.5"/>
<text text-anchor="start" x="513" y="-67.5" font-family="Helvetica,sans-Serif" font-size="10.00">nlohmann::detail::dtoa</text>
<text text-anchor="middle" x="570" y="-56.5" font-family="Helvetica,sans-Serif" font-size="10.00">_impl::grisu2_digit_gen</text>
</a>
</g>
</g>
<!-- Node5&#45;&gt;Node7 -->
<g id="edge6" class="edge">
<title>Node5&#45;&gt;Node7</title>
<path fill="none" stroke="midnightblue" d="M464.35,-81.37C474.3,-79.76 484.68,-78.09 494.87,-76.45"/>
<polygon fill="midnightblue" stroke="midnightblue" points="495.65,-79.87 504.96,-74.82 494.53,-72.96 495.65,-79.87"/>
</g>
<!-- Node11 -->
<g id="node11" class="node">
<title>Node11</title>
<g id="a_node11"><a xlink:href="a01989.html#aa5f250d12ce89c81fdb08900c6a823e8" target="_top" xlink:title="returns x * y">
<polygon fill="white" stroke="black" points="506.5,-0.5 506.5,-30.5 633.5,-30.5 633.5,-0.5 506.5,-0.5"/>
<text text-anchor="start" x="514.5" y="-18.5" font-family="Helvetica,sans-Serif" font-size="10.00">nlohmann::detail::dtoa</text>
<text text-anchor="middle" x="570" y="-7.5" font-family="Helvetica,sans-Serif" font-size="10.00">_impl::diyfp::mul</text>
</a>
</g>
</g>
<!-- Node5&#45;&gt;Node11 -->
<g id="edge10" class="edge">
<title>Node5&#45;&gt;Node11</title>
<path fill="none" stroke="midnightblue" d="M428.22,-76.46C447.77,-65.76 475.13,-51.39 500,-40.5 504.96,-38.33 510.18,-36.19 515.42,-34.13"/>
<polygon fill="midnightblue" stroke="midnightblue" points="516.77,-37.36 524.86,-30.52 514.27,-30.82 516.77,-37.36"/>
</g>
<!-- Node8 -->
<g id="node8" class="node">
<title>Node8</title>
<g id="a_node8"><a xlink:href="a00413.html#a36ded358763b5dbcea9867660fbe4e28" target="_top" xlink:title=" ">
<polygon fill="white" stroke="black" points="676,-98.5 676,-128.5 820,-128.5 820,-98.5 676,-98.5"/>
<text text-anchor="start" x="684" y="-116.5" font-family="Helvetica,sans-Serif" font-size="10.00">nlohmann::detail::dtoa</text>
<text text-anchor="middle" x="748" y="-105.5" font-family="Helvetica,sans-Serif" font-size="10.00">_impl::find_largest_pow10</text>
</a>
</g>
</g>
<!-- Node7&#45;&gt;Node8 -->
<g id="edge7" class="edge">
<title>Node7&#45;&gt;Node8</title>
<path fill="none" stroke="midnightblue" d="M625.24,-79.6C643.56,-84.7 664.18,-90.44 683.17,-95.73"/>
<polygon fill="midnightblue" stroke="midnightblue" points="682.36,-99.14 692.94,-98.45 684.24,-92.39 682.36,-99.14"/>
</g>
<!-- Node9 -->
<g id="node9" class="node">
<title>Node9</title>
<g id="a_node9"><a xlink:href="a00413.html#a5bc841e0bee12fd6489d49cf7bd07bb4" target="_top" xlink:title=" ">
<polygon fill="white" stroke="black" points="684.5,-49.5 684.5,-79.5 811.5,-79.5 811.5,-49.5 684.5,-49.5"/>
<text text-anchor="start" x="692.5" y="-67.5" font-family="Helvetica,sans-Serif" font-size="10.00">nlohmann::detail::dtoa</text>
<text text-anchor="middle" x="748" y="-56.5" font-family="Helvetica,sans-Serif" font-size="10.00">_impl::grisu2_round</text>
</a>
</g>
</g>
<!-- Node7&#45;&gt;Node9 -->
<g id="edge8" class="edge">
<title>Node7&#45;&gt;Node9</title>
<path fill="none" stroke="midnightblue" d="M635.04,-64.5C647.76,-64.5 661.2,-64.5 674.19,-64.5"/>
<polygon fill="midnightblue" stroke="midnightblue" points="674.48,-68 684.48,-64.5 674.48,-61 674.48,-68"/>
</g>
<!-- Node10 -->
<g id="node10" class="node">
<title>Node10</title>
<g id="a_node10"><a xlink:href="a01989.html#aeb26771af54ad73598c1a0430d65d884" target="_top" xlink:title="returns x &#45; y">
<polygon fill="white" stroke="black" points="684.5,-0.5 684.5,-30.5 811.5,-30.5 811.5,-0.5 684.5,-0.5"/>
<text text-anchor="start" x="692.5" y="-18.5" font-family="Helvetica,sans-Serif" font-size="10.00">nlohmann::detail::dtoa</text>
<text text-anchor="middle" x="748" y="-7.5" font-family="Helvetica,sans-Serif" font-size="10.00">_impl::diyfp::sub</text>
</a>
</g>
</g>
<!-- Node7&#45;&gt;Node10 -->
<g id="edge9" class="edge">
<title>Node7&#45;&gt;Node10</title>
<path fill="none" stroke="midnightblue" d="M625.24,-49.4C643.56,-44.3 664.18,-38.56 683.17,-33.27"/>
<polygon fill="midnightblue" stroke="midnightblue" points="684.24,-36.61 692.94,-30.55 682.36,-29.86 684.24,-36.61"/>
</g>
</g>
</svg>
