<?xml version="1.0" encoding="UTF-8" standalone="no"?>
<!DOCTYPE svg PUBLIC "-//W3C//DTD SVG 1.1//EN"
 "http://www.w3.org/Graphics/SVG/1.1/DTD/svg11.dtd">
<!-- Generated by graphviz version 4.0.0 (20220529.0937)
 -->
<!-- Title: HF::SpatialStructures::Path::Path Pages: 1 -->
<svg width="264pt" height="57pt"
 viewBox="0.00 0.00 264.00 57.00" xmlns="http://www.w3.org/2000/svg" xmlns:xlink="http://www.w3.org/1999/xlink">
<g id="graph0" class="graph" transform="scale(1 1) rotate(0) translate(4 53)">
<title>HF::SpatialStructures::Path::Path</title>
<polygon fill="white" stroke="transparent" points="-4,4 -4,-53 260,-53 260,4 -4,4"/>
<!-- Node1 -->
<g id="node1" class="node">
<title>Node1</title>
<g id="a_node1"><a xlink:title="Construct a path from an ordered list of PathMembers.">
<polygon fill="#bfbfbf" stroke="black" points="0,-0.5 0,-30.5 110,-30.5 110,-0.5 0,-0.5"/>
<text text-anchor="start" x="8" y="-18.5" font-family="Helvetica,sans-Serif" font-size="10.00">HF::SpatialStructures</text>
<text text-anchor="middle" x="55" y="-7.5" font-family="Helvetica,sans-Serif" font-size="10.00">::Path::Path</text>
</a>
</g>
</g>
<!-- Node2 -->
<g id="node2" class="node">
<title>Node2</title>
<g id="a_node2"><a xlink:href="a02017.html#a61a8a911a572d91683229a80ede5f541" target="_top" xlink:title="Construct an empty path.">
<polygon fill="white" stroke="black" points="146,-0.5 146,-30.5 256,-30.5 256,-0.5 146,-0.5"/>
<text text-anchor="start" x="154" y="-18.5" font-family="Helvetica,sans-Serif" font-size="10.00">HF::SpatialStructures</text>
<text text-anchor="middle" x="201" y="-7.5" font-family="Helvetica,sans-Serif" font-size="10.00">::Path::Path</text>
</a>
</g>
</g>
<!-- Node1&#45;&gt;Node2 -->
<g id="edge1" class="edge">
<title>Node1&#45;&gt;Node2</title>
<path fill="none" stroke="midnightblue" d="M110.03,-15.5C118.31,-15.5 126.94,-15.5 135.42,-15.5"/>
<polygon fill="midnightblue" stroke="midnightblue" points="135.67,-19 145.67,-15.5 135.67,-12 135.67,-19"/>
</g>
<!-- Node2&#45;&gt;Node2 -->
<g id="edge2" class="edge">
<title>Node2&#45;&gt;Node2</title>
<path fill="none" stroke="midnightblue" d="M175.56,-30.66C169.42,-40.06 177.9,-49 201,-49 215.08,-49 223.72,-45.68 226.94,-40.96"/>
<polygon fill="midnightblue" stroke="midnightblue" points="230.42,-40.48 226.44,-30.66 223.43,-40.82 230.42,-40.48"/>
</g>
</g>
</svg>
