<?xml version="1.0" encoding="UTF-8" standalone="no"?>
<!DOCTYPE svg PUBLIC "-//W3C//DTD SVG 1.1//EN"
 "http://www.w3.org/Graphics/SVG/1.1/DTD/svg11.dtd">
<!-- Generated by graphviz version 2.43.0 (0)
 -->
<!-- Title: CompareMeshInfo Pages: 1 -->
<svg width="284pt" height="116pt"
 viewBox="0.00 0.00 284.00 116.00" xmlns="http://www.w3.org/2000/svg" xmlns:xlink="http://www.w3.org/1999/xlink">
<g id="graph0" class="graph" transform="scale(1 1) rotate(0) translate(4 112)">
<title>CompareMeshInfo</title>
<polygon fill="white" stroke="transparent" points="-4,4 -4,-112 280,-112 280,4 -4,4"/>
<!-- Node1 -->
<g id="node1" class="node">
<title>Node1</title>
<g id="a_node1"><a xlink:title=" ">
<polygon fill="#bfbfbf" stroke="black" points="0,-44.5 0,-63.5 106,-63.5 106,-44.5 0,-44.5"/>
<text text-anchor="middle" x="53" y="-51.5" font-family="Helvetica,sans-Serif" font-size="10.00">CompareMeshInfo</text>
</a>
</g>
</g>
<!-- Node2 -->
<g id="node2" class="node">
<title>Node2</title>
<g id="a_node2"><a xlink:href="a02910.html#a37c22abaa96da9c1dd6be57a5b22c84b" target="_top" xlink:title=" ">
<polygon fill="white" stroke="black" points="178,-88.5 178,-107.5 240,-107.5 240,-88.5 178,-88.5"/>
<text text-anchor="middle" x="209" y="-95.5" font-family="Helvetica,sans-Serif" font-size="10.00">arrayDist</text>
</a>
</g>
</g>
<!-- Node1&#45;&gt;Node2 -->
<g id="edge1" class="edge">
<title>Node1&#45;&gt;Node2</title>
<path fill="none" stroke="midnightblue" d="M87.42,-63.55C111.05,-70.3 142.86,-79.39 167.87,-86.53"/>
<polygon fill="midnightblue" stroke="midnightblue" points="167.2,-89.98 177.78,-89.37 169.13,-83.25 167.2,-89.98"/>
</g>
<!-- Node3 -->
<g id="node3" class="node">
<title>Node3</title>
<g id="a_node3"><a xlink:href="a01297.html#a70a6f6b9270d47e0b8428cdc15b707d3" target="_top" xlink:title="Determine how many vertices are in this mesh.">
<polygon fill="white" stroke="black" points="142,-39 142,-69 276,-69 276,-39 142,-39"/>
<text text-anchor="start" x="150" y="-57" font-family="Helvetica,sans-Serif" font-size="10.00">HF::Geometry::MeshInfo</text>
<text text-anchor="middle" x="209" y="-46" font-family="Helvetica,sans-Serif" font-size="10.00">::NumVerts</text>
</a>
</g>
</g>
<!-- Node1&#45;&gt;Node3 -->
<g id="edge2" class="edge">
<title>Node1&#45;&gt;Node3</title>
<path fill="none" stroke="midnightblue" d="M106.14,-54C114.42,-54 123.12,-54 131.82,-54"/>
<polygon fill="midnightblue" stroke="midnightblue" points="131.99,-57.5 141.99,-54 131.99,-50.5 131.99,-57.5"/>
</g>
<!-- Node4 -->
<g id="node4" class="node">
<title>Node4</title>
<g id="a_node4"><a xlink:href="a02910.html#a6c2c9a67b8a5a4bb71137eab10a76370" target="_top" xlink:title=" ">
<polygon fill="white" stroke="black" points="176.5,-0.5 176.5,-19.5 241.5,-19.5 241.5,-0.5 176.5,-0.5"/>
<text text-anchor="middle" x="209" y="-7.5" font-family="Helvetica,sans-Serif" font-size="10.00">PrintArray</text>
</a>
</g>
</g>
<!-- Node1&#45;&gt;Node4 -->
<g id="edge3" class="edge">
<title>Node1&#45;&gt;Node4</title>
<path fill="none" stroke="midnightblue" d="M87.42,-44.45C110.66,-37.81 141.81,-28.91 166.63,-21.82"/>
<polygon fill="midnightblue" stroke="midnightblue" points="167.84,-25.12 176.49,-19 165.91,-18.39 167.84,-25.12"/>
</g>
</g>
</svg>
