<?xml version="1.0" encoding="UTF-8" standalone="no"?>
<!DOCTYPE svg PUBLIC "-//W3C//DTD SVG 1.1//EN"
 "http://www.w3.org/Graphics/SVG/1.1/DTD/svg11.dtd">
<!-- Generated by graphviz version 2.43.0 (0)
 -->
<!-- Title: TEST Pages: 1 -->
<svg width="431pt" height="209pt"
 viewBox="0.00 0.00 431.00 209.00" xmlns="http://www.w3.org/2000/svg" xmlns:xlink="http://www.w3.org/1999/xlink">
<g id="graph0" class="graph" transform="scale(1 1) rotate(0) translate(4 205)">
<title>TEST</title>
<polygon fill="white" stroke="transparent" points="-4,4 -4,-205 427,-205 427,4 -4,4"/>
<!-- Node1 -->
<g id="node1" class="node">
<title>Node1</title>
<g id="a_node1"><a xlink:title=" ">
<polygon fill="#bfbfbf" stroke="black" points="0,-68.5 0,-87.5 41,-87.5 41,-68.5 0,-68.5"/>
<text text-anchor="middle" x="20.5" y="-75.5" font-family="Helvetica,sans-Serif" font-size="10.00">TEST</text>
</a>
</g>
</g>
<!-- Node2 -->
<g id="node2" class="node">
<title>Node2</title>
<g id="a_node2"><a xlink:href="a02910.html#a58a819aea1e26f09c69d427711b9712b" target="_top" xlink:title=" ">
<polygon fill="white" stroke="black" points="112,-137.5 112,-156.5 218,-156.5 218,-137.5 112,-137.5"/>
<text text-anchor="middle" x="165" y="-144.5" font-family="Helvetica,sans-Serif" font-size="10.00">CompareMeshInfo</text>
</a>
</g>
</g>
<!-- Node1&#45;&gt;Node2 -->
<g id="edge1" class="edge">
<title>Node1&#45;&gt;Node2</title>
<path fill="none" stroke="midnightblue" d="M29.44,-87.73C39.35,-99.19 57.39,-117.93 77,-128 84.79,-132 93.4,-135.16 102.08,-137.66"/>
<polygon fill="midnightblue" stroke="midnightblue" points="101.31,-141.07 111.87,-140.2 103.07,-134.3 101.31,-141.07"/>
</g>
<!-- Node6 -->
<g id="node6" class="node">
<title>Node6</title>
<g id="a_node6"><a xlink:href="a01297.html#af1152233ddbd8fac736f761347e6d3b8" target="_top" xlink:title="Convert a mesh from Y&#45;Up to Z&#45;Up.">
<polygon fill="white" stroke="black" points="86,-88 86,-118 244,-118 244,-88 86,-88"/>
<text text-anchor="start" x="94" y="-106" font-family="Helvetica,sans-Serif" font-size="10.00">HF::Geometry::MeshInfo</text>
<text text-anchor="middle" x="165" y="-95" font-family="Helvetica,sans-Serif" font-size="10.00">::ConvertToRhinoCoordinates</text>
</a>
</g>
</g>
<!-- Node1&#45;&gt;Node6 -->
<g id="edge5" class="edge">
<title>Node1&#45;&gt;Node6</title>
<path fill="none" stroke="midnightblue" d="M41.02,-81.42C50.55,-83.1 62.77,-85.24 75.79,-87.52"/>
<polygon fill="midnightblue" stroke="midnightblue" points="75.42,-91.01 85.88,-89.29 76.63,-84.12 75.42,-91.01"/>
</g>
<!-- Node7 -->
<g id="node7" class="node">
<title>Node7</title>
<g id="a_node7"><a xlink:href="a01297.html#a1d69139377d33e748903a33f6f1b760c" target="_top" xlink:title="Get the ID of this mesh.">
<polygon fill="white" stroke="black" points="98,-39 98,-69 232,-69 232,-39 98,-39"/>
<text text-anchor="start" x="106" y="-57" font-family="Helvetica,sans-Serif" font-size="10.00">HF::Geometry::MeshInfo</text>
<text text-anchor="middle" x="165" y="-46" font-family="Helvetica,sans-Serif" font-size="10.00">::GetMeshID</text>
</a>
</g>
</g>
<!-- Node1&#45;&gt;Node7 -->
<g id="edge6" class="edge">
<title>Node1&#45;&gt;Node7</title>
<path fill="none" stroke="midnightblue" d="M41.02,-74.71C53.38,-72.63 70.25,-69.79 87.53,-66.88"/>
<polygon fill="midnightblue" stroke="midnightblue" points="88.44,-70.28 97.72,-65.16 87.28,-63.37 88.44,-70.28"/>
</g>
<!-- Node8 -->
<g id="node8" class="node">
<title>Node8</title>
<g id="a_node8"><a xlink:href="a00403.html#a06c0c11adb62f8b204e42f75ac1990ac" target="_top" xlink:title="Create MeshInfo instances from the OBJ at path.">
<polygon fill="white" stroke="black" points="77,-0.5 77,-19.5 253,-19.5 253,-0.5 77,-0.5"/>
<text text-anchor="middle" x="165" y="-7.5" font-family="Helvetica,sans-Serif" font-size="10.00">HF::Geometry::LoadMeshObjects</text>
</a>
</g>
</g>
<!-- Node1&#45;&gt;Node8 -->
<g id="edge7" class="edge">
<title>Node1&#45;&gt;Node8</title>
<path fill="none" stroke="midnightblue" d="M29.48,-68.47C39.43,-57.25 57.51,-38.88 77,-29 81.83,-26.55 86.96,-24.42 92.22,-22.56"/>
<polygon fill="midnightblue" stroke="midnightblue" points="93.35,-25.88 101.81,-19.5 91.22,-19.21 93.35,-25.88"/>
</g>
<!-- Node3 -->
<g id="node3" class="node">
<title>Node3</title>
<g id="a_node3"><a xlink:href="a02910.html#a37c22abaa96da9c1dd6be57a5b22c84b" target="_top" xlink:title=" ">
<polygon fill="white" stroke="black" points="325,-181.5 325,-200.5 387,-200.5 387,-181.5 325,-181.5"/>
<text text-anchor="middle" x="356" y="-188.5" font-family="Helvetica,sans-Serif" font-size="10.00">arrayDist</text>
</a>
</g>
</g>
<!-- Node2&#45;&gt;Node3 -->
<g id="edge2" class="edge">
<title>Node2&#45;&gt;Node3</title>
<path fill="none" stroke="midnightblue" d="M207.01,-156.55C239.04,-164.01 283.31,-174.31 315.06,-181.7"/>
<polygon fill="midnightblue" stroke="midnightblue" points="314.37,-185.13 324.9,-183.99 315.96,-178.32 314.37,-185.13"/>
</g>
<!-- Node4 -->
<g id="node4" class="node">
<title>Node4</title>
<g id="a_node4"><a xlink:href="a01297.html#a70a6f6b9270d47e0b8428cdc15b707d3" target="_top" xlink:title="Determine how many vertices are in this mesh.">
<polygon fill="white" stroke="black" points="289,-132 289,-162 423,-162 423,-132 289,-132"/>
<text text-anchor="start" x="297" y="-150" font-family="Helvetica,sans-Serif" font-size="10.00">HF::Geometry::MeshInfo</text>
<text text-anchor="middle" x="356" y="-139" font-family="Helvetica,sans-Serif" font-size="10.00">::NumVerts</text>
</a>
</g>
</g>
<!-- Node2&#45;&gt;Node4 -->
<g id="edge3" class="edge">
<title>Node2&#45;&gt;Node4</title>
<path fill="none" stroke="midnightblue" d="M218.15,-147C236.84,-147 258.32,-147 278.64,-147"/>
<polygon fill="midnightblue" stroke="midnightblue" points="278.82,-150.5 288.82,-147 278.82,-143.5 278.82,-150.5"/>
</g>
<!-- Node5 -->
<g id="node5" class="node">
<title>Node5</title>
<g id="a_node5"><a xlink:href="a02910.html#a6c2c9a67b8a5a4bb71137eab10a76370" target="_top" xlink:title=" ">
<polygon fill="white" stroke="black" points="323.5,-93.5 323.5,-112.5 388.5,-112.5 388.5,-93.5 323.5,-93.5"/>
<text text-anchor="middle" x="356" y="-100.5" font-family="Helvetica,sans-Serif" font-size="10.00">PrintArray</text>
</a>
</g>
</g>
<!-- Node2&#45;&gt;Node5 -->
<g id="edge4" class="edge">
<title>Node2&#45;&gt;Node5</title>
<path fill="none" stroke="midnightblue" d="M210.76,-137.45C224.34,-134.49 239.29,-131.18 253,-128 272.93,-123.38 294.99,-118.01 313.48,-113.43"/>
<polygon fill="midnightblue" stroke="midnightblue" points="314.49,-116.79 323.35,-110.98 312.8,-109.99 314.49,-116.79"/>
</g>
<!-- Node9 -->
<g id="node9" class="node">
<title>Node9</title>
<g id="a_node9"><a xlink:href="a00403.html#a4f0c57b862a0826821217d8c3ac849c4" target="_top" xlink:title=" ">
<polygon fill="white" stroke="black" points="289,-0.5 289,-19.5 423,-19.5 423,-0.5 289,-0.5"/>
<text text-anchor="middle" x="356" y="-7.5" font-family="Helvetica,sans-Serif" font-size="10.00">HF::Geometry::MeshInfo</text>
</a>
</g>
</g>
<!-- Node8&#45;&gt;Node9 -->
<g id="edge8" class="edge">
<title>Node8&#45;&gt;Node9</title>
<path fill="none" stroke="midnightblue" d="M253.03,-10C261.57,-10 270.2,-10 278.62,-10"/>
<polygon fill="midnightblue" stroke="midnightblue" points="278.77,-13.5 288.77,-10 278.77,-6.5 278.77,-13.5"/>
</g>
</g>
</svg>
