<?xml version="1.0" encoding="UTF-8" standalone="no"?>
<!DOCTYPE svg PUBLIC "-//W3C//DTD SVG 1.1//EN"
 "http://www.w3.org/Graphics/SVG/1.1/DTD/svg11.dtd">
<!-- Generated by graphviz version 2.43.0 (0)
 -->
<!-- Title: TEST Pages: 1 -->
<svg width="634pt" height="78pt"
 viewBox="0.00 0.00 634.00 77.50" xmlns="http://www.w3.org/2000/svg" xmlns:xlink="http://www.w3.org/1999/xlink">
<g id="graph0" class="graph" transform="scale(1 1) rotate(0) translate(4 73.5)">
<title>TEST</title>
<polygon fill="white" stroke="transparent" points="-4,4 -4,-73.5 630,-73.5 630,4 -4,4"/>
<!-- Node1 -->
<g id="node1" class="node">
<title>Node1</title>
<g id="a_node1"><a xlink:title=" ">
<polygon fill="#bfbfbf" stroke="black" points="0,-28 0,-47 41,-47 41,-28 0,-28"/>
<text text-anchor="middle" x="20.5" y="-35" font-family="Helvetica,sans-Serif" font-size="10.00">TEST</text>
</a>
</g>
</g>
<!-- Node2 -->
<g id="node2" class="node">
<title>Node2</title>
<g id="a_node2"><a xlink:href="a00403.html#a06c0c11adb62f8b204e42f75ac1990ac" target="_top" xlink:title="Create MeshInfo instances from the OBJ at path.">
<polygon fill="white" stroke="black" points="77,-50 77,-69 253,-69 253,-50 77,-50"/>
<text text-anchor="middle" x="165" y="-57" font-family="Helvetica,sans-Serif" font-size="10.00">HF::Geometry::LoadMeshObjects</text>
</a>
</g>
</g>
<!-- Node1&#45;&gt;Node2 -->
<g id="edge1" class="edge">
<title>Node1&#45;&gt;Node2</title>
<path fill="none" stroke="midnightblue" d="M41.02,-40.51C54.45,-42.59 73.22,-45.49 92.05,-48.39"/>
<polygon fill="midnightblue" stroke="midnightblue" points="91.77,-51.89 102.18,-49.96 92.83,-44.97 91.77,-51.89"/>
</g>
<!-- Node4 -->
<g id="node4" class="node">
<title>Node4</title>
<g id="a_node4"><a xlink:href="a01357.html#a3a7488f8e41c8a9e3dc9c334047c6457" target="_top" xlink:title="Determine if there is an intersection with any geometry.">
<polygon fill="white" stroke="black" points="92,-0.5 92,-30.5 238,-30.5 238,-0.5 92,-0.5"/>
<text text-anchor="start" x="100" y="-18.5" font-family="Helvetica,sans-Serif" font-size="10.00">HF::RayTracer::EmbreeRay</text>
<text text-anchor="middle" x="165" y="-7.5" font-family="Helvetica,sans-Serif" font-size="10.00">Tracer::Occluded</text>
</a>
</g>
</g>
<!-- Node1&#45;&gt;Node4 -->
<g id="edge3" class="edge">
<title>Node1&#45;&gt;Node4</title>
<path fill="none" stroke="midnightblue" d="M41.02,-34.49C52.02,-32.79 66.6,-30.54 81.86,-28.18"/>
<polygon fill="midnightblue" stroke="midnightblue" points="82.61,-31.61 91.95,-26.62 81.54,-24.69 82.61,-31.61"/>
</g>
<!-- Node3 -->
<g id="node3" class="node">
<title>Node3</title>
<g id="a_node3"><a xlink:href="a00403.html#a4f0c57b862a0826821217d8c3ac849c4" target="_top" xlink:title=" ">
<polygon fill="white" stroke="black" points="295,-50 295,-69 429,-69 429,-50 295,-50"/>
<text text-anchor="middle" x="362" y="-57" font-family="Helvetica,sans-Serif" font-size="10.00">HF::Geometry::MeshInfo</text>
</a>
</g>
</g>
<!-- Node2&#45;&gt;Node3 -->
<g id="edge2" class="edge">
<title>Node2&#45;&gt;Node3</title>
<path fill="none" stroke="midnightblue" d="M253.23,-59.5C263.73,-59.5 274.39,-59.5 284.71,-59.5"/>
<polygon fill="midnightblue" stroke="midnightblue" points="284.9,-63 294.9,-59.5 284.9,-56 284.9,-63"/>
</g>
<!-- Node5 -->
<g id="node5" class="node">
<title>Node5</title>
<g id="a_node5"><a xlink:href="a01357.html#ade19fda460dadd98769b347840bd305a" target="_top" xlink:title="Implementation for fundamental occlusion ray intersection.">
<polygon fill="white" stroke="black" points="289,-0.5 289,-30.5 435,-30.5 435,-0.5 289,-0.5"/>
<text text-anchor="start" x="297" y="-18.5" font-family="Helvetica,sans-Serif" font-size="10.00">HF::RayTracer::EmbreeRay</text>
<text text-anchor="middle" x="362" y="-7.5" font-family="Helvetica,sans-Serif" font-size="10.00">Tracer::Occluded_IMPL</text>
</a>
</g>
</g>
<!-- Node4&#45;&gt;Node5 -->
<g id="edge4" class="edge">
<title>Node4&#45;&gt;Node5</title>
<path fill="none" stroke="midnightblue" d="M238.06,-15.5C251.28,-15.5 265.18,-15.5 278.68,-15.5"/>
<polygon fill="midnightblue" stroke="midnightblue" points="278.91,-19 288.91,-15.5 278.91,-12 278.91,-19"/>
</g>
<!-- Node6 -->
<g id="node6" class="node">
<title>Node6</title>
<g id="a_node6"><a xlink:href="a00398.html#a76e5d26b5063f0e5b49b4ba835f1da93" target="_top" xlink:title=" ">
<polygon fill="white" stroke="black" points="471,-6 471,-25 626,-25 626,-6 471,-6"/>
<text text-anchor="middle" x="548.5" y="-13" font-family="Helvetica,sans-Serif" font-size="10.00">HF::RayTracer::ConstructRay</text>
</a>
</g>
</g>
<!-- Node5&#45;&gt;Node6 -->
<g id="edge5" class="edge">
<title>Node5&#45;&gt;Node6</title>
<path fill="none" stroke="midnightblue" d="M435.13,-15.5C443.55,-15.5 452.21,-15.5 460.81,-15.5"/>
<polygon fill="midnightblue" stroke="midnightblue" points="460.86,-19 470.86,-15.5 460.86,-12 460.86,-19"/>
</g>
</g>
</svg>
