<?xml version="1.0" encoding="UTF-8" standalone="no"?>
<!DOCTYPE svg PUBLIC "-//W3C//DTD SVG 1.1//EN"
 "http://www.w3.org/Graphics/SVG/1.1/DTD/svg11.dtd">
<!-- Generated by graphviz version 2.43.0 (0)
 -->
<!-- Title: Cpp/spatialstructures/src/node.cpp Pages: 1 -->
<svg width="297pt" height="151pt"
 viewBox="0.00 0.00 296.50 151.00" xmlns="http://www.w3.org/2000/svg" xmlns:xlink="http://www.w3.org/1999/xlink">
<g id="graph0" class="graph" transform="scale(1 1) rotate(0) translate(4 147)">
<title>Cpp/spatialstructures/src/node.cpp</title>
<polygon fill="white" stroke="transparent" points="-4,4 -4,-147 292.5,-147 292.5,4 -4,4"/>
<!-- Node1 -->
<g id="node1" class="node">
<title>Node1</title>
<g id="a_node1"><a xlink:title="Contains implementation for the Node structure.">
<polygon fill="#bfbfbf" stroke="black" points="102,-112.5 102,-142.5 222,-142.5 222,-112.5 102,-112.5"/>
<text text-anchor="start" x="110" y="-130.5" font-family="Helvetica,sans-Serif" font-size="10.00">Cpp/spatialstructures</text>
<text text-anchor="middle" x="162" y="-119.5" font-family="Helvetica,sans-Serif" font-size="10.00">/src/node.cpp</text>
</a>
</g>
</g>
<!-- Node2 -->
<g id="node2" class="node">
<title>Node2</title>
<g id="a_node2"><a xlink:href="a00209.html" target="_top" xlink:title="Contains definitions for the Node structure.">
<polygon fill="white" stroke="black" points="25,-56.5 25,-75.5 75,-75.5 75,-56.5 25,-56.5"/>
<text text-anchor="middle" x="50" y="-63.5" font-family="Helvetica,sans-Serif" font-size="10.00">node.h</text>
</a>
</g>
</g>
<!-- Node1&#45;&gt;Node2 -->
<g id="edge1" class="edge">
<title>Node1&#45;&gt;Node2</title>
<path fill="none" stroke="midnightblue" d="M135.46,-112.4C117.34,-102.77 93.46,-90.09 75.56,-80.58"/>
<polygon fill="midnightblue" stroke="midnightblue" points="76.77,-77.26 66.3,-75.66 73.49,-83.44 76.77,-77.26"/>
</g>
<!-- Node5 -->
<g id="node5" class="node">
<title>Node5</title>
<g id="a_node5"><a xlink:href="a00185.html" target="_top" xlink:title="Contains definitions for the HF::SpatialStructures namespace.">
<polygon fill="white" stroke="black" points="93,-56.5 93,-75.5 167,-75.5 167,-56.5 93,-56.5"/>
<text text-anchor="middle" x="130" y="-63.5" font-family="Helvetica,sans-Serif" font-size="10.00">Constants.h</text>
</a>
</g>
</g>
<!-- Node1&#45;&gt;Node5 -->
<g id="edge4" class="edge">
<title>Node1&#45;&gt;Node5</title>
<path fill="none" stroke="midnightblue" d="M154.42,-112.4C149.96,-104.11 144.28,-93.55 139.52,-84.71"/>
<polygon fill="midnightblue" stroke="midnightblue" points="142.48,-82.81 134.66,-75.66 136.31,-86.12 142.48,-82.81"/>
</g>
<!-- Node6 -->
<g id="node6" class="node">
<title>Node6</title>
<g id="a_node6"><a xlink:title=" ">
<polygon fill="white" stroke="#bfbfbf" points="153.5,-0.5 153.5,-19.5 200.5,-19.5 200.5,-0.5 153.5,-0.5"/>
<text text-anchor="middle" x="177" y="-7.5" font-family="Helvetica,sans-Serif" font-size="10.00">cmath</text>
</a>
</g>
</g>
<!-- Node1&#45;&gt;Node6 -->
<g id="edge7" class="edge">
<title>Node1&#45;&gt;Node6</title>
<path fill="none" stroke="midnightblue" d="M167.04,-112.12C170.28,-102.13 174.21,-88.43 176,-76 178.21,-60.62 178.33,-42.98 177.97,-29.97"/>
<polygon fill="midnightblue" stroke="midnightblue" points="181.47,-29.74 177.57,-19.89 174.47,-30.02 181.47,-29.74"/>
</g>
<!-- Node7 -->
<g id="node7" class="node">
<title>Node7</title>
<g id="a_node7"><a xlink:title=" ">
<polygon fill="white" stroke="#bfbfbf" points="223.5,-56.5 223.5,-75.5 288.5,-75.5 288.5,-56.5 223.5,-56.5"/>
<text text-anchor="middle" x="256" y="-63.5" font-family="Helvetica,sans-Serif" font-size="10.00">exception</text>
</a>
</g>
</g>
<!-- Node1&#45;&gt;Node7 -->
<g id="edge6" class="edge">
<title>Node1&#45;&gt;Node7</title>
<path fill="none" stroke="midnightblue" d="M184.28,-112.4C199.2,-102.95 218.78,-90.56 233.71,-81.11"/>
<polygon fill="midnightblue" stroke="midnightblue" points="235.74,-83.96 242.32,-75.66 232,-78.05 235.74,-83.96"/>
</g>
<!-- Node3 -->
<g id="node3" class="node">
<title>Node3</title>
<g id="a_node3"><a xlink:title=" ">
<polygon fill="white" stroke="#bfbfbf" points="0,-0.5 0,-19.5 42,-19.5 42,-0.5 0,-0.5"/>
<text text-anchor="middle" x="21" y="-7.5" font-family="Helvetica,sans-Serif" font-size="10.00">array</text>
</a>
</g>
</g>
<!-- Node2&#45;&gt;Node3 -->
<g id="edge2" class="edge">
<title>Node2&#45;&gt;Node3</title>
<path fill="none" stroke="midnightblue" d="M45.21,-56.08C41.24,-48.69 35.47,-37.95 30.57,-28.81"/>
<polygon fill="midnightblue" stroke="midnightblue" points="33.51,-26.91 25.7,-19.75 27.35,-30.22 33.51,-26.91"/>
</g>
<!-- Node4 -->
<g id="node4" class="node">
<title>Node4</title>
<g id="a_node4"><a xlink:title=" ">
<polygon fill="white" stroke="#bfbfbf" points="60.5,-0.5 60.5,-19.5 117.5,-19.5 117.5,-0.5 60.5,-0.5"/>
<text text-anchor="middle" x="89" y="-7.5" font-family="Helvetica,sans-Serif" font-size="10.00">ostream</text>
</a>
</g>
</g>
<!-- Node2&#45;&gt;Node4 -->
<g id="edge3" class="edge">
<title>Node2&#45;&gt;Node4</title>
<path fill="none" stroke="midnightblue" d="M56.44,-56.08C61.95,-48.46 70.03,-37.26 76.76,-27.94"/>
<polygon fill="midnightblue" stroke="midnightblue" points="79.66,-29.91 82.68,-19.75 73.99,-25.81 79.66,-29.91"/>
</g>
<!-- Node5&#45;&gt;Node6 -->
<g id="edge5" class="edge">
<title>Node5&#45;&gt;Node6</title>
<path fill="none" stroke="midnightblue" d="M137.76,-56.08C144.54,-48.3 154.54,-36.8 162.76,-27.37"/>
<polygon fill="midnightblue" stroke="midnightblue" points="165.46,-29.59 169.38,-19.75 160.18,-25 165.46,-29.59"/>
</g>
</g>
</svg>
