<?xml version="1.0" encoding="UTF-8" standalone="no"?>
<!DOCTYPE svg PUBLIC "-//W3C//DTD SVG 1.1//EN"
 "http://www.w3.org/Graphics/SVG/1.1/DTD/svg11.dtd">
<!-- Generated by graphviz version 2.43.0 (0)
 -->
<!-- Title: TEST Pages: 1 -->
<svg width="219pt" height="186pt"
 viewBox="0.00 0.00 219.00 186.00" xmlns="http://www.w3.org/2000/svg" xmlns:xlink="http://www.w3.org/1999/xlink">
<g id="graph0" class="graph" transform="scale(1 1) rotate(0) translate(4 182)">
<title>TEST</title>
<polygon fill="white" stroke="transparent" points="-4,4 -4,-182 215,-182 215,4 -4,4"/>
<!-- Node1 -->
<g id="node1" class="node">
<title>Node1</title>
<g id="a_node1"><a xlink:title=" ">
<polygon fill="#bfbfbf" stroke="black" points="0,-79 0,-98 41,-98 41,-79 0,-79"/>
<text text-anchor="middle" x="20.5" y="-86" font-family="Helvetica,sans-Serif" font-size="10.00">TEST</text>
</a>
</g>
</g>
<!-- Node2 -->
<g id="node2" class="node">
<title>Node2</title>
<g id="a_node2"><a xlink:href="a01297.html#a1ff7bb434d74d25722cc3ab7e6ca3997" target="_top" xlink:title="Add more vertices to this mesh.">
<polygon fill="white" stroke="black" points="77,-147.5 77,-177.5 211,-177.5 211,-147.5 77,-147.5"/>
<text text-anchor="start" x="85" y="-165.5" font-family="Helvetica,sans-Serif" font-size="10.00">HF::Geometry::MeshInfo</text>
<text text-anchor="middle" x="144" y="-154.5" font-family="Helvetica,sans-Serif" font-size="10.00">::AddVerts</text>
</a>
</g>
</g>
<!-- Node1&#45;&gt;Node2 -->
<g id="edge1" class="edge">
<title>Node1&#45;&gt;Node2</title>
<path fill="none" stroke="midnightblue" d="M30.05,-98.18C40.26,-109.25 58.32,-127.28 77,-138.5 79.77,-140.16 82.67,-141.74 85.65,-143.23"/>
<polygon fill="midnightblue" stroke="midnightblue" points="84.22,-146.42 94.76,-147.44 87.15,-140.07 84.22,-146.42"/>
</g>
<!-- Node3 -->
<g id="node3" class="node">
<title>Node3</title>
<g id="a_node3"><a xlink:href="a01297.html#af2d1b696c55aa036cff585d2e7eba50b" target="_top" xlink:title="A copy of every vertex in this array.">
<polygon fill="white" stroke="black" points="77,-98.5 77,-128.5 211,-128.5 211,-98.5 77,-98.5"/>
<text text-anchor="start" x="85" y="-116.5" font-family="Helvetica,sans-Serif" font-size="10.00">HF::Geometry::MeshInfo</text>
<text text-anchor="middle" x="144" y="-105.5" font-family="Helvetica,sans-Serif" font-size="10.00">::GetIndexedVertices</text>
</a>
</g>
</g>
<!-- Node1&#45;&gt;Node3 -->
<g id="edge2" class="edge">
<title>Node1&#45;&gt;Node3</title>
<path fill="none" stroke="midnightblue" d="M41.02,-92.52C48.44,-94.04 57.41,-95.89 66.92,-97.85"/>
<polygon fill="midnightblue" stroke="midnightblue" points="66.48,-101.33 76.98,-99.91 67.89,-94.47 66.48,-101.33"/>
</g>
<!-- Node4 -->
<g id="node4" class="node">
<title>Node4</title>
<g id="a_node4"><a xlink:href="a01297.html#a1d69139377d33e748903a33f6f1b760c" target="_top" xlink:title="Get the ID of this mesh.">
<polygon fill="white" stroke="black" points="77,-49.5 77,-79.5 211,-79.5 211,-49.5 77,-49.5"/>
<text text-anchor="start" x="85" y="-67.5" font-family="Helvetica,sans-Serif" font-size="10.00">HF::Geometry::MeshInfo</text>
<text text-anchor="middle" x="144" y="-56.5" font-family="Helvetica,sans-Serif" font-size="10.00">::GetMeshID</text>
</a>
</g>
</g>
<!-- Node1&#45;&gt;Node4 -->
<g id="edge3" class="edge">
<title>Node1&#45;&gt;Node4</title>
<path fill="none" stroke="midnightblue" d="M41.02,-84.64C48.44,-83.18 57.41,-81.41 66.92,-79.53"/>
<polygon fill="midnightblue" stroke="midnightblue" points="67.84,-82.91 76.98,-77.54 66.49,-76.05 67.84,-82.91"/>
</g>
<!-- Node5 -->
<g id="node5" class="node">
<title>Node5</title>
<g id="a_node5"><a xlink:href="a01297.html#a2fb2b5e7e5815794cb37c9b1e95260e8" target="_top" xlink:title="Retrieve an unindexed array of this mesh&#39;s vertices.">
<polygon fill="white" stroke="black" points="77,-0.5 77,-30.5 211,-30.5 211,-0.5 77,-0.5"/>
<text text-anchor="start" x="85" y="-18.5" font-family="Helvetica,sans-Serif" font-size="10.00">HF::Geometry::MeshInfo</text>
<text text-anchor="middle" x="144" y="-7.5" font-family="Helvetica,sans-Serif" font-size="10.00">::GetUnindexedVertices</text>
</a>
</g>
</g>
<!-- Node1&#45;&gt;Node5 -->
<g id="edge4" class="edge">
<title>Node1&#45;&gt;Node5</title>
<path fill="none" stroke="midnightblue" d="M30.52,-78.89C40.89,-68.3 58.84,-51.33 77,-40.5 80.4,-38.48 83.98,-36.56 87.66,-34.77"/>
<polygon fill="midnightblue" stroke="midnightblue" points="89.28,-37.88 96.93,-30.55 86.38,-31.51 89.28,-37.88"/>
</g>
</g>
</svg>
