<?xml version="1.0" encoding="UTF-8" standalone="no"?>
<!DOCTYPE svg PUBLIC "-//W3C//DTD SVG 1.1//EN"
 "http://www.w3.org/Graphics/SVG/1.1/DTD/svg11.dtd">
<!-- Generated by graphviz version 2.43.0 (0)
 -->
<!-- Title: Cpp/raytracer/src/embree_raytracer.cpp Pages: 1 -->
<svg width="1028pt" height="151pt"
 viewBox="0.00 0.00 1028.00 151.00" xmlns="http://www.w3.org/2000/svg" xmlns:xlink="http://www.w3.org/1999/xlink">
<g id="graph0" class="graph" transform="scale(1 1) rotate(0) translate(4 147)">
<title>Cpp/raytracer/src/embree_raytracer.cpp</title>
<polygon fill="white" stroke="transparent" points="-4,4 -4,-147 1024,-147 1024,4 -4,4"/>
<!-- Node1 -->
<g id="node1" class="node">
<title>Node1</title>
<g id="a_node1"><a xlink:title="Contains implementation for the EmbreeRayTracer">
<polygon fill="#bfbfbf" stroke="black" points="502.5,-112.5 502.5,-142.5 642.5,-142.5 642.5,-112.5 502.5,-112.5"/>
<text text-anchor="start" x="510.5" y="-130.5" font-family="Helvetica,sans-Serif" font-size="10.00">Cpp/raytracer/src/embree</text>
<text text-anchor="middle" x="572.5" y="-119.5" font-family="Helvetica,sans-Serif" font-size="10.00">_raytracer.cpp</text>
</a>
</g>
</g>
<!-- Node2 -->
<g id="node2" class="node">
<title>Node2</title>
<g id="a_node2"><a xlink:href="a00146.html" target="_top" xlink:title="Contains definitions for the EmbreeRayTracer">
<polygon fill="white" stroke="black" points="218.5,-56.5 218.5,-75.5 330.5,-75.5 330.5,-56.5 218.5,-56.5"/>
<text text-anchor="middle" x="274.5" y="-63.5" font-family="Helvetica,sans-Serif" font-size="10.00">embree_raytracer.h</text>
</a>
</g>
</g>
<!-- Node1&#45;&gt;Node2 -->
<g id="edge1" class="edge">
<title>Node1&#45;&gt;Node2</title>
<path fill="none" stroke="midnightblue" d="M502.26,-112.47C448.6,-101.76 375.82,-87.23 327.12,-77.51"/>
<polygon fill="midnightblue" stroke="midnightblue" points="327.6,-74.03 317.1,-75.51 326.22,-80.9 327.6,-74.03"/>
</g>
<!-- Node5 -->
<g id="node5" class="node">
<title>Node5</title>
<g id="a_node5"><a xlink:title=" ">
<polygon fill="white" stroke="#bfbfbf" points="0,-0.5 0,-19.5 131,-19.5 131,-0.5 0,-0.5"/>
<text text-anchor="middle" x="65.5" y="-7.5" font-family="Helvetica,sans-Serif" font-size="10.00">corecrt_math_defines.h</text>
</a>
</g>
</g>
<!-- Node1&#45;&gt;Node5 -->
<g id="edge8" class="edge">
<title>Node1&#45;&gt;Node5</title>
<path fill="none" stroke="midnightblue" d="M502.36,-122.69C428.32,-117.3 308.84,-104.69 209.5,-76 165.42,-63.27 117.46,-39.42 89.52,-24.42"/>
<polygon fill="midnightblue" stroke="midnightblue" points="90.96,-21.23 80.5,-19.52 87.61,-27.37 90.96,-21.23"/>
</g>
<!-- Node9 -->
<g id="node9" class="node">
<title>Node9</title>
<g id="a_node9"><a xlink:title=" ">
<polygon fill="white" stroke="#bfbfbf" points="540,-56.5 540,-75.5 605,-75.5 605,-56.5 540,-56.5"/>
<text text-anchor="middle" x="572.5" y="-63.5" font-family="Helvetica,sans-Serif" font-size="10.00">functional</text>
</a>
</g>
</g>
<!-- Node1&#45;&gt;Node9 -->
<g id="edge9" class="edge">
<title>Node1&#45;&gt;Node9</title>
<path fill="none" stroke="midnightblue" d="M572.5,-112.4C572.5,-104.47 572.5,-94.46 572.5,-85.86"/>
<polygon fill="midnightblue" stroke="midnightblue" points="576,-85.66 572.5,-75.66 569,-85.66 576,-85.66"/>
</g>
<!-- Node10 -->
<g id="node10" class="node">
<title>Node10</title>
<g id="a_node10"><a xlink:title=" ">
<polygon fill="white" stroke="#bfbfbf" points="623.5,-56.5 623.5,-75.5 683.5,-75.5 683.5,-56.5 623.5,-56.5"/>
<text text-anchor="middle" x="653.5" y="-63.5" font-family="Helvetica,sans-Serif" font-size="10.00">iostream</text>
</a>
</g>
</g>
<!-- Node1&#45;&gt;Node10 -->
<g id="edge10" class="edge">
<title>Node1&#45;&gt;Node10</title>
<path fill="none" stroke="midnightblue" d="M591.7,-112.4C604.32,-103.13 620.79,-91.03 633.56,-81.65"/>
<polygon fill="midnightblue" stroke="midnightblue" points="635.73,-84.4 641.71,-75.66 631.58,-78.76 635.73,-84.4"/>
</g>
<!-- Node11 -->
<g id="node11" class="node">
<title>Node11</title>
<g id="a_node11"><a xlink:title=" ">
<polygon fill="white" stroke="#bfbfbf" points="701.5,-56.5 701.5,-75.5 749.5,-75.5 749.5,-56.5 701.5,-56.5"/>
<text text-anchor="middle" x="725.5" y="-63.5" font-family="Helvetica,sans-Serif" font-size="10.00">thread</text>
</a>
</g>
</g>
<!-- Node1&#45;&gt;Node11 -->
<g id="edge11" class="edge">
<title>Node1&#45;&gt;Node11</title>
<path fill="none" stroke="midnightblue" d="M608.76,-112.4C634.54,-102.37 668.86,-89.03 693.6,-79.4"/>
<polygon fill="midnightblue" stroke="midnightblue" points="695.19,-82.54 703.24,-75.66 692.65,-76.02 695.19,-82.54"/>
</g>
<!-- Node12 -->
<g id="node12" class="node">
<title>Node12</title>
<g id="a_node12"><a xlink:title=" ">
<polygon fill="white" stroke="#bfbfbf" points="767.5,-56.5 767.5,-75.5 847.5,-75.5 847.5,-56.5 767.5,-56.5"/>
<text text-anchor="middle" x="807.5" y="-63.5" font-family="Helvetica,sans-Serif" font-size="10.00">robin_hood.h</text>
</a>
</g>
</g>
<!-- Node1&#45;&gt;Node12 -->
<g id="edge12" class="edge">
<title>Node1&#45;&gt;Node12</title>
<path fill="none" stroke="midnightblue" d="M627.89,-112.47C669.5,-101.94 725.68,-87.72 764.06,-78"/>
<polygon fill="midnightblue" stroke="midnightblue" points="765.07,-81.35 773.9,-75.51 763.35,-74.57 765.07,-81.35"/>
</g>
<!-- Node13 -->
<g id="node13" class="node">
<title>Node13</title>
<g id="a_node13"><a xlink:href="a00119.html" target="_top" xlink:title="Contains definitions for the MeshInfo class.">
<polygon fill="white" stroke="black" points="451,-56.5 451,-75.5 522,-75.5 522,-56.5 451,-56.5"/>
<text text-anchor="middle" x="486.5" y="-63.5" font-family="Helvetica,sans-Serif" font-size="10.00">meshinfo.h</text>
</a>
</g>
</g>
<!-- Node1&#45;&gt;Node13 -->
<g id="edge13" class="edge">
<title>Node1&#45;&gt;Node13</title>
<path fill="none" stroke="midnightblue" d="M552.12,-112.4C538.59,-103.04 520.89,-90.79 507.28,-81.38"/>
<polygon fill="midnightblue" stroke="midnightblue" points="509.23,-78.47 499.01,-75.66 505.25,-84.23 509.23,-78.47"/>
</g>
<!-- Node15 -->
<g id="node15" class="node">
<title>Node15</title>
<g id="a_node15"><a xlink:href="a00173.html" target="_top" xlink:title="Contains definitions for the RayTracer namespace.">
<polygon fill="white" stroke="black" points="348.5,-56.5 348.5,-75.5 432.5,-75.5 432.5,-56.5 348.5,-56.5"/>
<text text-anchor="middle" x="390.5" y="-63.5" font-family="Helvetica,sans-Serif" font-size="10.00">RayRequest.h</text>
</a>
</g>
</g>
<!-- Node1&#45;&gt;Node15 -->
<g id="edge16" class="edge">
<title>Node1&#45;&gt;Node15</title>
<path fill="none" stroke="midnightblue" d="M529.37,-112.4C497.92,-102.12 455.81,-88.35 426.23,-78.68"/>
<polygon fill="midnightblue" stroke="midnightblue" points="427.31,-75.35 416.72,-75.57 425.13,-82.01 427.31,-75.35"/>
</g>
<!-- Node16 -->
<g id="node16" class="node">
<title>Node16</title>
<g id="a_node16"><a xlink:href="a00110.html" target="_top" xlink:title="Contains definitions for the Exceptions namespace.">
<polygon fill="white" stroke="black" points="865.5,-56.5 865.5,-75.5 957.5,-75.5 957.5,-56.5 865.5,-56.5"/>
<text text-anchor="middle" x="911.5" y="-63.5" font-family="Helvetica,sans-Serif" font-size="10.00">HFExceptions.h</text>
</a>
</g>
</g>
<!-- Node1&#45;&gt;Node16 -->
<g id="edge19" class="edge">
<title>Node1&#45;&gt;Node16</title>
<path fill="none" stroke="midnightblue" d="M642.74,-114.17C705.68,-103.13 796.8,-87.13 855.1,-76.9"/>
<polygon fill="midnightblue" stroke="midnightblue" points="855.98,-80.3 865.23,-75.12 854.77,-73.4 855.98,-80.3"/>
</g>
<!-- Node3 -->
<g id="node3" class="node">
<title>Node3</title>
<g id="a_node3"><a xlink:title=" ">
<polygon fill="white" stroke="#bfbfbf" points="149,-0.5 149,-19.5 190,-19.5 190,-0.5 149,-0.5"/>
<text text-anchor="middle" x="169.5" y="-7.5" font-family="Helvetica,sans-Serif" font-size="10.00">rpc.h</text>
</a>
</g>
</g>
<!-- Node2&#45;&gt;Node3 -->
<g id="edge2" class="edge">
<title>Node2&#45;&gt;Node3</title>
<path fill="none" stroke="midnightblue" d="M257.63,-56.32C240.79,-47.66 214.69,-34.24 195.26,-24.25"/>
<polygon fill="midnightblue" stroke="midnightblue" points="196.82,-21.12 186.33,-19.65 193.62,-27.34 196.82,-21.12"/>
</g>
<!-- Node4 -->
<g id="node4" class="node">
<title>Node4</title>
<g id="a_node4"><a xlink:title=" ">
<polygon fill="white" stroke="#bfbfbf" points="208.5,-0.5 208.5,-19.5 262.5,-19.5 262.5,-0.5 208.5,-0.5"/>
<text text-anchor="middle" x="235.5" y="-7.5" font-family="Helvetica,sans-Serif" font-size="10.00">rtcore.h</text>
</a>
</g>
</g>
<!-- Node2&#45;&gt;Node4 -->
<g id="edge3" class="edge">
<title>Node2&#45;&gt;Node4</title>
<path fill="none" stroke="midnightblue" d="M268.06,-56.08C262.55,-48.46 254.47,-37.26 247.74,-27.94"/>
<polygon fill="midnightblue" stroke="midnightblue" points="250.51,-25.81 241.82,-19.75 244.84,-29.91 250.51,-25.81"/>
</g>
<!-- Node2&#45;&gt;Node5 -->
<g id="edge4" class="edge">
<title>Node2&#45;&gt;Node5</title>
<path fill="none" stroke="midnightblue" d="M241.38,-56.44C205.38,-47.14 147.73,-32.25 108.31,-22.06"/>
<polygon fill="midnightblue" stroke="midnightblue" points="109.02,-18.63 98.46,-19.52 107.27,-25.41 109.02,-18.63"/>
</g>
<!-- Node6 -->
<g id="node6" class="node">
<title>Node6</title>
<g id="a_node6"><a xlink:title=" ">
<polygon fill="white" stroke="#bfbfbf" points="367,-0.5 367,-19.5 414,-19.5 414,-0.5 367,-0.5"/>
<text text-anchor="middle" x="390.5" y="-7.5" font-family="Helvetica,sans-Serif" font-size="10.00">vector</text>
</a>
</g>
</g>
<!-- Node2&#45;&gt;Node6 -->
<g id="edge5" class="edge">
<title>Node2&#45;&gt;Node6</title>
<path fill="none" stroke="midnightblue" d="M292.88,-56.44C311.72,-47.68 341.23,-33.94 362.88,-23.86"/>
<polygon fill="midnightblue" stroke="midnightblue" points="364.62,-26.91 372.21,-19.52 361.66,-20.56 364.62,-26.91"/>
</g>
<!-- Node7 -->
<g id="node7" class="node">
<title>Node7</title>
<g id="a_node7"><a xlink:title=" ">
<polygon fill="white" stroke="#bfbfbf" points="432.5,-0.5 432.5,-19.5 474.5,-19.5 474.5,-0.5 432.5,-0.5"/>
<text text-anchor="middle" x="453.5" y="-7.5" font-family="Helvetica,sans-Serif" font-size="10.00">array</text>
</a>
</g>
</g>
<!-- Node2&#45;&gt;Node7 -->
<g id="edge6" class="edge">
<title>Node2&#45;&gt;Node7</title>
<path fill="none" stroke="midnightblue" d="M302.86,-56.44C335.47,-46.61 388.82,-30.51 422.5,-20.35"/>
<polygon fill="midnightblue" stroke="midnightblue" points="423.71,-23.64 432.28,-17.4 421.69,-16.94 423.71,-23.64"/>
</g>
<!-- Node8 -->
<g id="node8" class="node">
<title>Node8</title>
<g id="a_node8"><a xlink:href="a00152.html" target="_top" xlink:title=" ">
<polygon fill="white" stroke="black" points="280.5,-0.5 280.5,-19.5 348.5,-19.5 348.5,-0.5 280.5,-0.5"/>
<text text-anchor="middle" x="314.5" y="-7.5" font-family="Helvetica,sans-Serif" font-size="10.00">HitStruct.h</text>
</a>
</g>
</g>
<!-- Node2&#45;&gt;Node8 -->
<g id="edge7" class="edge">
<title>Node2&#45;&gt;Node8</title>
<path fill="none" stroke="midnightblue" d="M281.11,-56.08C286.76,-48.46 295.04,-37.26 301.95,-27.94"/>
<polygon fill="midnightblue" stroke="midnightblue" points="304.88,-29.87 308.02,-19.75 299.25,-25.7 304.88,-29.87"/>
</g>
<!-- Node13&#45;&gt;Node7 -->
<g id="edge15" class="edge">
<title>Node13&#45;&gt;Node7</title>
<path fill="none" stroke="midnightblue" d="M481.05,-56.08C476.49,-48.61 469.83,-37.72 464.21,-28.52"/>
<polygon fill="midnightblue" stroke="midnightblue" points="467.05,-26.46 458.85,-19.75 461.08,-30.11 467.05,-26.46"/>
</g>
<!-- Node14 -->
<g id="node14" class="node">
<title>Node14</title>
<g id="a_node14"><a xlink:title=" ">
<polygon fill="white" stroke="#bfbfbf" points="493,-0.5 493,-19.5 540,-19.5 540,-0.5 493,-0.5"/>
<text text-anchor="middle" x="516.5" y="-7.5" font-family="Helvetica,sans-Serif" font-size="10.00">Dense</text>
</a>
</g>
</g>
<!-- Node13&#45;&gt;Node14 -->
<g id="edge14" class="edge">
<title>Node13&#45;&gt;Node14</title>
<path fill="none" stroke="midnightblue" d="M491.45,-56.08C495.6,-48.61 501.65,-37.72 506.77,-28.52"/>
<polygon fill="midnightblue" stroke="midnightblue" points="509.84,-30.19 511.64,-19.75 503.72,-26.79 509.84,-30.19"/>
</g>
<!-- Node15&#45;&gt;Node6 -->
<g id="edge17" class="edge">
<title>Node15&#45;&gt;Node6</title>
<path fill="none" stroke="midnightblue" d="M390.5,-56.08C390.5,-49.01 390.5,-38.86 390.5,-29.99"/>
<polygon fill="midnightblue" stroke="midnightblue" points="394,-29.75 390.5,-19.75 387,-29.75 394,-29.75"/>
</g>
<!-- Node15&#45;&gt;Node7 -->
<g id="edge18" class="edge">
<title>Node15&#45;&gt;Node7</title>
<path fill="none" stroke="midnightblue" d="M400.62,-56.32C410.03,-48.26 424.24,-36.08 435.57,-26.37"/>
<polygon fill="midnightblue" stroke="midnightblue" points="437.88,-29 443.19,-19.83 433.32,-23.68 437.88,-29"/>
</g>
<!-- Node17 -->
<g id="node17" class="node">
<title>Node17</title>
<g id="a_node17"><a xlink:title=" ">
<polygon fill="white" stroke="#bfbfbf" points="803,-0.5 803,-19.5 868,-19.5 868,-0.5 803,-0.5"/>
<text text-anchor="middle" x="835.5" y="-7.5" font-family="Helvetica,sans-Serif" font-size="10.00">exception</text>
</a>
</g>
</g>
<!-- Node16&#45;&gt;Node17 -->
<g id="edge20" class="edge">
<title>Node16&#45;&gt;Node17</title>
<path fill="none" stroke="midnightblue" d="M899.29,-56.32C887.72,-48.11 870.12,-35.6 856.34,-25.81"/>
<polygon fill="midnightblue" stroke="midnightblue" points="858.11,-22.77 847.93,-19.83 854.06,-28.48 858.11,-22.77"/>
</g>
<!-- Node18 -->
<g id="node18" class="node">
<title>Node18</title>
<g id="a_node18"><a xlink:title=" ">
<polygon fill="white" stroke="#bfbfbf" points="886.5,-0.5 886.5,-19.5 936.5,-19.5 936.5,-0.5 886.5,-0.5"/>
<text text-anchor="middle" x="911.5" y="-7.5" font-family="Helvetica,sans-Serif" font-size="10.00">cstring</text>
</a>
</g>
</g>
<!-- Node16&#45;&gt;Node18 -->
<g id="edge21" class="edge">
<title>Node16&#45;&gt;Node18</title>
<path fill="none" stroke="midnightblue" d="M911.5,-56.08C911.5,-49.01 911.5,-38.86 911.5,-29.99"/>
<polygon fill="midnightblue" stroke="midnightblue" points="915,-29.75 911.5,-19.75 908,-29.75 915,-29.75"/>
</g>
<!-- Node19 -->
<g id="node19" class="node">
<title>Node19</title>
<g id="a_node19"><a xlink:title=" ">
<polygon fill="white" stroke="#bfbfbf" points="955,-0.5 955,-19.5 1020,-19.5 1020,-0.5 955,-0.5"/>
<text text-anchor="middle" x="987.5" y="-7.5" font-family="Helvetica,sans-Serif" font-size="10.00">stdexcept</text>
</a>
</g>
</g>
<!-- Node16&#45;&gt;Node19 -->
<g id="edge22" class="edge">
<title>Node16&#45;&gt;Node19</title>
<path fill="none" stroke="midnightblue" d="M923.71,-56.32C935.28,-48.11 952.88,-35.6 966.66,-25.81"/>
<polygon fill="midnightblue" stroke="midnightblue" points="968.94,-28.48 975.07,-19.83 964.89,-22.77 968.94,-28.48"/>
</g>
</g>
</svg>
