<?xml version="1.0" encoding="UTF-8" standalone="no"?>
<!DOCTYPE svg PUBLIC "-//W3C//DTD SVG 1.1//EN"
 "http://www.w3.org/Graphics/SVG/1.1/DTD/svg11.dtd">
<!-- Generated by graphviz version 5.0.0 (20220707.1540)
 -->
<!-- Title: Cpp/spatialstructures/src/node.cpp Pages: 1 -->
<svg width="280pt" height="151pt"
 viewBox="0.00 0.00 279.50 151.00" xmlns="http://www.w3.org/2000/svg" xmlns:xlink="http://www.w3.org/1999/xlink">
<g id="graph0" class="graph" transform="scale(1 1) rotate(0) translate(4 147)">
<title>Cpp/spatialstructures/src/node.cpp</title>
<polygon fill="white" stroke="transparent" points="-4,4 -4,-147 275.5,-147 275.5,4 -4,4"/>
<!-- Node1 -->
<g id="node1" class="node">
<title>Node1</title>
<g id="a_node1"><a xlink:title="Contains implementation for the Node structure.">
<polygon fill="#bfbfbf" stroke="black" points="97.5,-112.5 97.5,-142.5 206.5,-142.5 206.5,-112.5 97.5,-112.5"/>
<text text-anchor="start" x="105.5" y="-130.5" font-family="Helvetica,sans-Serif" font-size="10.00">Cpp/spatialstructures</text>
<text text-anchor="middle" x="152" y="-119.5" font-family="Helvetica,sans-Serif" font-size="10.00">/src/node.cpp</text>
</a>
</g>
</g>
<!-- Node2 -->
<g id="node2" class="node">
<title>Node2</title>
<g id="a_node2"><a xlink:href="a00209.html" target="_top" xlink:title="Contains definitions for the Node structure.">
<polygon fill="white" stroke="black" points="22,-56.5 22,-75.5 68,-75.5 68,-56.5 22,-56.5"/>
<text text-anchor="middle" x="45" y="-63.5" font-family="Helvetica,sans-Serif" font-size="10.00">node.h</text>
</a>
</g>
</g>
<!-- Node1&#45;&gt;Node2 -->
<g id="edge1" class="edge">
<title>Node1&#45;&gt;Node2</title>
<path fill="none" stroke="midnightblue" d="M126.64,-112.4C109.33,-102.77 86.52,-90.09 69.42,-80.58"/>
<polygon fill="midnightblue" stroke="midnightblue" points="71.01,-77.46 60.57,-75.66 67.61,-83.58 71.01,-77.46"/>
</g>
<!-- Node5 -->
<g id="node5" class="node">
<title>Node5</title>
<g id="a_node5"><a xlink:href="a00185.html" target="_top" xlink:title="Contains definitions for the HF::SpatialStructures namespace.">
<polygon fill="white" stroke="black" points="86.5,-56.5 86.5,-75.5 155.5,-75.5 155.5,-56.5 86.5,-56.5"/>
<text text-anchor="middle" x="121" y="-63.5" font-family="Helvetica,sans-Serif" font-size="10.00">Constants.h</text>
</a>
</g>
</g>
<!-- Node1&#45;&gt;Node5 -->
<g id="edge4" class="edge">
<title>Node1&#45;&gt;Node5</title>
<path fill="none" stroke="midnightblue" d="M144.65,-112.4C140.33,-104.11 134.83,-93.55 130.23,-84.71"/>
<polygon fill="midnightblue" stroke="midnightblue" points="133.24,-82.91 125.51,-75.66 127.03,-86.14 133.24,-82.91"/>
</g>
<!-- Node6 -->
<g id="node6" class="node">
<title>Node6</title>
<g id="a_node6"><a xlink:title=" ">
<polygon fill="white" stroke="#bfbfbf" points="144,-0.5 144,-19.5 188,-19.5 188,-0.5 144,-0.5"/>
<text text-anchor="middle" x="166" y="-7.5" font-family="Helvetica,sans-Serif" font-size="10.00">cmath</text>
</a>
</g>
</g>
<!-- Node1&#45;&gt;Node6 -->
<g id="edge7" class="edge">
<title>Node1&#45;&gt;Node6</title>
<path fill="none" stroke="midnightblue" d="M156.68,-112.1C159.69,-102.09 163.33,-88.38 165,-76 167.07,-60.6 167.2,-42.97 166.88,-29.95"/>
<polygon fill="midnightblue" stroke="midnightblue" points="170.38,-29.75 166.52,-19.88 163.38,-30 170.38,-29.75"/>
</g>
<!-- Node7 -->
<g id="node7" class="node">
<title>Node7</title>
<g id="a_node7"><a xlink:title=" ">
<polygon fill="white" stroke="#bfbfbf" points="212.5,-56.5 212.5,-75.5 271.5,-75.5 271.5,-56.5 212.5,-56.5"/>
<text text-anchor="middle" x="242" y="-63.5" font-family="Helvetica,sans-Serif" font-size="10.00">exception</text>
</a>
</g>
</g>
<!-- Node1&#45;&gt;Node7 -->
<g id="edge6" class="edge">
<title>Node1&#45;&gt;Node7</title>
<path fill="none" stroke="midnightblue" d="M173.33,-112.4C187.49,-103.04 206.01,-90.79 220.25,-81.38"/>
<polygon fill="midnightblue" stroke="midnightblue" points="222.49,-84.09 228.9,-75.66 218.63,-78.25 222.49,-84.09"/>
</g>
<!-- Node3 -->
<g id="node3" class="node">
<title>Node3</title>
<g id="a_node3"><a xlink:title=" ">
<polygon fill="white" stroke="#bfbfbf" points="0,-0.5 0,-19.5 38,-19.5 38,-0.5 0,-0.5"/>
<text text-anchor="middle" x="19" y="-7.5" font-family="Helvetica,sans-Serif" font-size="10.00">array</text>
</a>
</g>
</g>
<!-- Node2&#45;&gt;Node3 -->
<g id="edge2" class="edge">
<title>Node2&#45;&gt;Node3</title>
<path fill="none" stroke="midnightblue" d="M40.71,-56.08C37.15,-48.69 31.98,-37.95 27.58,-28.81"/>
<polygon fill="midnightblue" stroke="midnightblue" points="30.71,-27.24 23.21,-19.75 24.4,-30.28 30.71,-27.24"/>
</g>
<!-- Node4 -->
<g id="node4" class="node">
<title>Node4</title>
<g id="a_node4"><a xlink:title=" ">
<polygon fill="white" stroke="#bfbfbf" points="56,-0.5 56,-19.5 108,-19.5 108,-0.5 56,-0.5"/>
<text text-anchor="middle" x="82" y="-7.5" font-family="Helvetica,sans-Serif" font-size="10.00">ostream</text>
</a>
</g>
</g>
<!-- Node2&#45;&gt;Node4 -->
<g id="edge3" class="edge">
<title>Node2&#45;&gt;Node4</title>
<path fill="none" stroke="midnightblue" d="M51.11,-56.08C56.28,-48.53 63.85,-37.49 70.19,-28.23"/>
<polygon fill="midnightblue" stroke="midnightblue" points="73.24,-29.98 76,-19.75 67.46,-26.02 73.24,-29.98"/>
</g>
<!-- Node5&#45;&gt;Node6 -->
<g id="edge5" class="edge">
<title>Node5&#45;&gt;Node6</title>
<path fill="none" stroke="midnightblue" d="M128.43,-56.08C134.85,-48.38 144.31,-37.03 152.12,-27.65"/>
<polygon fill="midnightblue" stroke="midnightblue" points="154.99,-29.67 158.71,-19.75 149.62,-25.19 154.99,-29.67"/>
</g>
</g>
</svg>
