<?xml version="1.0" encoding="UTF-8" standalone="no"?>
<!DOCTYPE svg PUBLIC "-//W3C//DTD SVG 1.1//EN"
 "http://www.w3.org/Graphics/SVG/1.1/DTD/svg11.dtd">
<!-- Generated by graphviz version 8.0.5 (20230430.1635)
 -->
<!-- Title: Cpp/spatialstructures/src/node.cpp Pages: 1 -->
<svg width="276pt" height="152pt"
 viewBox="0.00 0.00 275.88 152.00" xmlns="http://www.w3.org/2000/svg" xmlns:xlink="http://www.w3.org/1999/xlink">
<g id="graph0" class="graph" transform="scale(1 1) rotate(0) translate(4 148)">
<title>Cpp/spatialstructures/src/node.cpp</title>
<!-- Node1 -->
<g id="node1" class="node">
<title>Node1</title>
<g id="a_node1"><a xlink:title="Contains implementation for the Node structure.">
<polygon fill="#999999" stroke="#666666" points="205,-144 96.75,-144 96.75,-112 205,-112 205,-144"/>
<text text-anchor="start" x="104.75" y="-130.5" font-family="Helvetica,sans-Serif" font-size="10.00">Cpp/spatialstructures</text>
<text text-anchor="middle" x="150.88" y="-118.5" font-family="Helvetica,sans-Serif" font-size="10.00">/src/node.cpp</text>
</a>
</g>
</g>
<!-- Node2 -->
<g id="node2" class="node">
<title>Node2</title>
<g id="a_node2"><a xlink:href="a00275.html" target="_top" xlink:title="Contains definitions for the Node structure.">
<polygon fill="white" stroke="#666666" points="67.5,-76 22.25,-76 22.25,-56 67.5,-56 67.5,-76"/>
<text text-anchor="middle" x="44.88" y="-62.5" font-family="Helvetica,sans-Serif" font-size="10.00">node.h</text>
</a>
</g>
</g>
<!-- Node1&#45;&gt;Node2 -->
<g id="edge1" class="edge">
<title>Node1&#45;&gt;Node2</title>
<path fill="none" stroke="#63b8ff" d="M123.58,-111.55C107.32,-102.35 86.81,-90.74 70.8,-81.68"/>
<polygon fill="#63b8ff" stroke="#63b8ff" points="72.92,-78.29 62.5,-76.41 69.47,-84.38 72.92,-78.29"/>
</g>
<!-- Node5 -->
<g id="node5" class="node">
<title>Node5</title>
<g id="a_node5"><a xlink:href="a00251.html" target="_top" xlink:title="Contains definitions for the HF::SpatialStructures namespace.">
<polygon fill="white" stroke="#666666" points="154.13,-76 85.63,-76 85.63,-56 154.13,-56 154.13,-76"/>
<text text-anchor="middle" x="119.88" y="-62.5" font-family="Helvetica,sans-Serif" font-size="10.00">Constants.h</text>
</a>
</g>
</g>
<!-- Node1&#45;&gt;Node5 -->
<g id="edge4" class="edge">
<title>Node1&#45;&gt;Node5</title>
<path fill="none" stroke="#63b8ff" d="M142.89,-111.55C138.86,-103.74 133.92,-94.19 129.66,-85.94"/>
<polygon fill="#63b8ff" stroke="#63b8ff" points="132.44,-84.69 124.74,-77.41 126.22,-87.9 132.44,-84.69"/>
</g>
<!-- Node6 -->
<g id="node6" class="node">
<title>Node6</title>
<g id="a_node6"><a xlink:title=" ">
<polygon fill="#e0e0e0" stroke="#999999" points="185.38,-20 142.38,-20 142.38,0 185.38,0 185.38,-20"/>
<text text-anchor="middle" x="163.88" y="-6.5" font-family="Helvetica,sans-Serif" font-size="10.00">cmath</text>
</a>
</g>
</g>
<!-- Node1&#45;&gt;Node6 -->
<g id="edge7" class="edge">
<title>Node1&#45;&gt;Node6</title>
<path fill="none" stroke="#63b8ff" d="M155.43,-111.53C158.16,-101.5 161.38,-88.1 162.88,-76 164.73,-61.06 164.92,-44.05 164.68,-31.17"/>
<polygon fill="#63b8ff" stroke="#63b8ff" points="168.15,-31.19 164.36,-21.3 161.16,-31.4 168.15,-31.19"/>
</g>
<!-- Node7 -->
<g id="node7" class="node">
<title>Node7</title>
<g id="a_node7"><a xlink:title=" ">
<polygon fill="#e0e0e0" stroke="#999999" points="267.88,-76 209.88,-76 209.88,-56 267.88,-56 267.88,-76"/>
<text text-anchor="middle" x="238.88" y="-62.5" font-family="Helvetica,sans-Serif" font-size="10.00">exception</text>
</a>
</g>
</g>
<!-- Node1&#45;&gt;Node7 -->
<g id="edge6" class="edge">
<title>Node1&#45;&gt;Node7</title>
<path fill="none" stroke="#63b8ff" d="M173.54,-111.55C186.65,-102.61 203.1,-91.39 216.21,-82.45"/>
<polygon fill="#63b8ff" stroke="#63b8ff" points="217.79,-84.93 224.08,-76.41 213.84,-79.15 217.79,-84.93"/>
</g>
<!-- Node3 -->
<g id="node3" class="node">
<title>Node3</title>
<g id="a_node3"><a xlink:title=" ">
<polygon fill="#e0e0e0" stroke="#999999" points="37.75,-20 0,-20 0,0 37.75,0 37.75,-20"/>
<text text-anchor="middle" x="18.88" y="-6.5" font-family="Helvetica,sans-Serif" font-size="10.00">array</text>
</a>
</g>
</g>
<!-- Node2&#45;&gt;Node3 -->
<g id="edge2" class="edge">
<title>Node2&#45;&gt;Node3</title>
<path fill="none" stroke="#63b8ff" d="M40.35,-55.59C36.95,-48.55 32.2,-38.67 28.02,-30"/>
<polygon fill="#63b8ff" stroke="#63b8ff" points="30.84,-28.79 23.35,-21.3 24.54,-31.83 30.84,-28.79"/>
</g>
<!-- Node4 -->
<g id="node4" class="node">
<title>Node4</title>
<g id="a_node4"><a xlink:title=" ">
<polygon fill="#e0e0e0" stroke="#999999" points="107.5,-20 56.25,-20 56.25,0 107.5,0 107.5,-20"/>
<text text-anchor="middle" x="81.88" y="-6.5" font-family="Helvetica,sans-Serif" font-size="10.00">ostream</text>
</a>
</g>
</g>
<!-- Node2&#45;&gt;Node4 -->
<g id="edge3" class="edge">
<title>Node2&#45;&gt;Node4</title>
<path fill="none" stroke="#63b8ff" d="M51.32,-55.59C56.31,-48.32 63.36,-38.02 69.44,-29.15"/>
<polygon fill="#63b8ff" stroke="#63b8ff" points="72.74,-31.53 75.5,-21.3 66.96,-27.57 72.74,-31.53"/>
</g>
<!-- Node5&#45;&gt;Node6 -->
<g id="edge5" class="edge">
<title>Node5&#45;&gt;Node6</title>
<path fill="none" stroke="#63b8ff" d="M127.54,-55.59C133.6,-48.16 142.22,-37.58 149.55,-28.58"/>
<polygon fill="#63b8ff" stroke="#63b8ff" points="152.7,-31.26 156.3,-21.3 147.27,-26.84 152.7,-31.26"/>
</g>
</g>
</svg>
