<?xml version="1.0" encoding="UTF-8" standalone="no"?>
<!DOCTYPE svg PUBLIC "-//W3C//DTD SVG 1.1//EN"
 "http://www.w3.org/Graphics/SVG/1.1/DTD/svg11.dtd">
<!-- Generated by graphviz version 2.43.0 (0)
 -->
<!-- Title: Cpp/spatialstructures/src Pages: 1 -->
<svg width="191pt" height="151pt"
 viewBox="0.00 0.00 190.50 151.00" xmlns="http://www.w3.org/2000/svg" xmlns:xlink="http://www.w3.org/1999/xlink">
<g id="graph0" class="graph" transform="scale(1 1) rotate(0) translate(4 147)">
<title>Cpp/spatialstructures/src</title>
<polygon fill="white" stroke="transparent" points="-4,4 -4,-147 186.5,-147 186.5,4 -4,4"/>
<g id="clust1" class="cluster">
<title>clusterdir_66731bdf74d76a38b2c500ac62cfdf48</title>
<g id="a_clust1"><a xlink:href="dir_66731bdf74d76a38b2c500ac62cfdf48.html" target="_top" xlink:title="spatialstructures">
<polygon fill="#ddddee" stroke="black" points="8,-64 8,-135 106,-135 106,-64 8,-64"/>
<text text-anchor="middle" x="57" y="-123" font-family="Helvetica,sans-Serif" font-size="10.00">spatialstructures</text>
</a>
</g>
</g>
<!-- dir_7fdf8b1285a3d76ae7bf3420b7ffebee -->
<g id="node1" class="node">
<title>dir_7fdf8b1285a3d76ae7bf3420b7ffebee</title>
<g id="a_node1"><a xlink:href="dir_7fdf8b1285a3d76ae7bf3420b7ffebee.html" target="_top" xlink:title="src">
<polygon fill="#eeeeff" stroke="black" points="97,-108 43,-108 43,-72 97,-72 97,-108"/>
<text text-anchor="middle" x="70" y="-87.5" font-family="Helvetica,sans-Serif" font-size="10.00">src</text>
</a>
</g>
</g>
<!-- dir_37600e7aa46d6eb08a97d98a1c09ffb1 -->
<g id="node2" class="node">
<title>dir_37600e7aa46d6eb08a97d98a1c09ffb1</title>
<g id="a_node2"><a xlink:href="dir_37600e7aa46d6eb08a97d98a1c09ffb1.html" target="_top" xlink:title="Cinterface">
<polygon fill="none" stroke="black" points="182.5,-108 115.5,-108 115.5,-72 182.5,-72 182.5,-108"/>
<text text-anchor="middle" x="149" y="-87.5" font-family="Helvetica,sans-Serif" font-size="10.00">Cinterface</text>
</a>
</g>
</g>
<!-- dir_7fdf8b1285a3d76ae7bf3420b7ffebee&#45;&gt;dir_37600e7aa46d6eb08a97d98a1c09ffb1 -->
<g id="edge1" class="edge">
<title>dir_7fdf8b1285a3d76ae7bf3420b7ffebee&#45;&gt;dir_37600e7aa46d6eb08a97d98a1c09ffb1</title>
<path fill="none" stroke="black" d="M97.16,-90C99.81,-90 102.47,-90 105.13,-90"/>
<polygon fill="black" stroke="black" points="105.38,-93.5 115.38,-90 105.38,-86.5 105.38,-93.5"/>
<g id="a_edge1&#45;headlabel"><a xlink:href="dir_000019_000000.html" target="_top" xlink:title="1">
<text text-anchor="middle" x="101.79" y="-93.84" font-family="Helvetica,sans-Serif" font-size="10.00">1</text>
</a>
</g>
</g>
<!-- dir_7900dd791a76306ff53b19fea9f7cb39 -->
<g id="node3" class="node">
<title>dir_7900dd791a76306ff53b19fea9f7cb39</title>
<g id="a_node3"><a xlink:href="dir_7900dd791a76306ff53b19fea9f7cb39.html" target="_top" xlink:title="exceptions">
<polygon fill="white" stroke="red" points="144,-36 74,-36 74,0 144,0 144,-36"/>
<text text-anchor="middle" x="109" y="-15.5" font-family="Helvetica,sans-Serif" font-size="10.00">exceptions</text>
</a>
</g>
</g>
<!-- dir_7fdf8b1285a3d76ae7bf3420b7ffebee&#45;&gt;dir_7900dd791a76306ff53b19fea9f7cb39 -->
<g id="edge2" class="edge">
<title>dir_7fdf8b1285a3d76ae7bf3420b7ffebee&#45;&gt;dir_7900dd791a76306ff53b19fea9f7cb39</title>
<path fill="none" stroke="black" d="M79.64,-71.7C84.13,-63.64 89.56,-53.89 94.52,-44.98"/>
<polygon fill="black" stroke="black" points="97.66,-46.54 99.47,-36.1 91.55,-43.14 97.66,-46.54"/>
<g id="a_edge2&#45;headlabel"><a xlink:href="dir_000019_000003.html" target="_top" xlink:title="2">
<text text-anchor="middle" x="98.39" y="-48.57" font-family="Helvetica,sans-Serif" font-size="10.00">2</text>
</a>
</g>
</g>
<!-- dir_37600e7aa46d6eb08a97d98a1c09ffb1&#45;&gt;dir_7fdf8b1285a3d76ae7bf3420b7ffebee -->
<g id="edge3" class="edge">
<title>dir_37600e7aa46d6eb08a97d98a1c09ffb1&#45;&gt;dir_7fdf8b1285a3d76ae7bf3420b7ffebee</title>
<path fill="none" stroke="black" d="M115.38,-90C112.72,-90 110.07,-90 107.41,-90"/>
<polygon fill="black" stroke="black" points="107.16,-86.5 97.16,-90 107.16,-93.5 107.16,-86.5"/>
<g id="a_edge3&#45;headlabel"><a xlink:href="dir_000000_000019.html" target="_top" xlink:title="11">
<text text-anchor="middle" x="110.75" y="-81.16" font-family="Helvetica,sans-Serif" font-size="10.00">11</text>
</a>
</g>
</g>
<!-- dir_37600e7aa46d6eb08a97d98a1c09ffb1&#45;&gt;dir_7900dd791a76306ff53b19fea9f7cb39 -->
<g id="edge4" class="edge">
<title>dir_37600e7aa46d6eb08a97d98a1c09ffb1&#45;&gt;dir_7900dd791a76306ff53b19fea9f7cb39</title>
<path fill="none" stroke="black" d="M139.11,-71.7C134.51,-63.64 128.94,-53.89 123.85,-44.98"/>
<polygon fill="black" stroke="black" points="126.77,-43.05 118.77,-36.1 120.7,-46.52 126.77,-43.05"/>
<g id="a_edge4&#45;headlabel"><a xlink:href="dir_000000_000003.html" target="_top" xlink:title="8">
<text text-anchor="middle" x="131.02" y="-42.26" font-family="Helvetica,sans-Serif" font-size="10.00">8</text>
</a>
</g>
</g>
</g>
</svg>
