<?xml version="1.0" encoding="UTF-8" standalone="no"?>
<!DOCTYPE svg PUBLIC "-//W3C//DTD SVG 1.1//EN"
 "http://www.w3.org/Graphics/SVG/1.1/DTD/svg11.dtd">
<!-- Generated by graphviz version 2.43.0 (0)
 -->
<!-- Title: Cpp/raytracer Pages: 1 -->
<svg width="200pt" height="231pt"
 viewBox="0.00 0.00 200.00 231.00" xmlns="http://www.w3.org/2000/svg" xmlns:xlink="http://www.w3.org/1999/xlink">
<g id="graph0" class="graph" transform="scale(1 1) rotate(0) translate(4 227)">
<title>Cpp/raytracer</title>
<polygon fill="white" stroke="transparent" points="-4,4 -4,-227 196,-227 196,4 -4,4"/>
<g id="clust1" class="cluster">
<title>clusterdir_882abde7eca0231e2bae1ceefe5e858a</title>
<g id="a_clust1"><a xlink:href="dir_882abde7eca0231e2bae1ceefe5e858a.html" target="_top" xlink:title="Cpp">
<polygon fill="#ddddee" stroke="black" points="18,-128 18,-215 184,-215 184,-128 18,-128"/>
<text text-anchor="middle" x="101" y="-203" font-family="Helvetica,sans-Serif" font-size="10.00">Cpp</text>
</a>
</g>
</g>
<g id="clust2" class="cluster">
<title>clusterdir_1061d284018fbd45bbbfc991ca095c8e</title>
<g id="a_clust2"><a xlink:href="dir_1061d284018fbd45bbbfc991ca095c8e.html" target="_top">
<polygon fill="#eeeeff" stroke="black" points="26,-136 26,-188 176,-188 176,-136 26,-136"/>
</a>
</g>
</g>
<!-- dir_1061d284018fbd45bbbfc991ca095c8e -->
<g id="node1" class="node">
<title>dir_1061d284018fbd45bbbfc991ca095c8e</title>
<text text-anchor="middle" x="137" y="-159.5" font-family="Helvetica,sans-Serif" font-size="10.00">raytracer</text>
</g>
<!-- dir_198e8c151f4aa06153c41e30091296f4 -->
<g id="node2" class="node">
<title>dir_198e8c151f4aa06153c41e30091296f4</title>
<g id="a_node2"><a xlink:href="dir_198e8c151f4aa06153c41e30091296f4.html" target="_top" xlink:title="src">
<polygon fill="white" stroke="black" points="88,-180 34,-180 34,-144 88,-144 88,-180"/>
<text text-anchor="middle" x="61" y="-159.5" font-family="Helvetica,sans-Serif" font-size="10.00">src</text>
</a>
</g>
</g>
<!-- dir_46f038d98c29b85ae873c4d3a30697d6 -->
<g id="node3" class="node">
<title>dir_46f038d98c29b85ae873c4d3a30697d6</title>
<g id="a_node3"><a xlink:href="dir_46f038d98c29b85ae873c4d3a30697d6.html" target="_top" xlink:title="objloader">
<polygon fill="white" stroke="red" points="62,-108 0,-108 0,-72 62,-72 62,-108"/>
<text text-anchor="middle" x="31" y="-87.5" font-family="Helvetica,sans-Serif" font-size="10.00">objloader</text>
</a>
</g>
</g>
<!-- dir_198e8c151f4aa06153c41e30091296f4&#45;&gt;dir_46f038d98c29b85ae873c4d3a30697d6 -->
<g id="edge1" class="edge">
<title>dir_198e8c151f4aa06153c41e30091296f4&#45;&gt;dir_46f038d98c29b85ae873c4d3a30697d6</title>
<path fill="none" stroke="black" d="M53.58,-143.7C50.21,-135.81 46.13,-126.3 42.38,-117.55"/>
<polygon fill="black" stroke="black" points="45.49,-115.92 38.33,-108.1 39.05,-118.67 45.49,-115.92"/>
<g id="a_edge1&#45;headlabel"><a xlink:href="dir_000016_000004.html" target="_top" xlink:title="2">
<text text-anchor="middle" x="49.51" y="-115.6" font-family="Helvetica,sans-Serif" font-size="10.00">2</text>
</a>
</g>
</g>
<!-- dir_7900dd791a76306ff53b19fea9f7cb39 -->
<g id="node4" class="node">
<title>dir_7900dd791a76306ff53b19fea9f7cb39</title>
<g id="a_node4"><a xlink:href="dir_7900dd791a76306ff53b19fea9f7cb39.html" target="_top" xlink:title="exceptions">
<polygon fill="white" stroke="red" points="95,-36 25,-36 25,0 95,0 95,-36"/>
<text text-anchor="middle" x="60" y="-15.5" font-family="Helvetica,sans-Serif" font-size="10.00">exceptions</text>
</a>
</g>
</g>
<!-- dir_198e8c151f4aa06153c41e30091296f4&#45;&gt;dir_7900dd791a76306ff53b19fea9f7cb39 -->
<g id="edge2" class="edge">
<title>dir_198e8c151f4aa06153c41e30091296f4&#45;&gt;dir_7900dd791a76306ff53b19fea9f7cb39</title>
<path fill="none" stroke="black" d="M65.06,-143.93C67.31,-133.6 69.87,-120.12 71,-108 72.49,-92.07 72.63,-87.92 71,-72 70.12,-63.46 68.47,-54.26 66.71,-45.96"/>
<polygon fill="black" stroke="black" points="70.08,-45.03 64.46,-36.05 63.26,-46.57 70.08,-45.03"/>
<g id="a_edge2&#45;headlabel"><a xlink:href="dir_000016_000003.html" target="_top" xlink:title="1">
<text text-anchor="middle" x="73.65" y="-45.41" font-family="Helvetica,sans-Serif" font-size="10.00">1</text>
</a>
</g>
</g>
<!-- dir_46f038d98c29b85ae873c4d3a30697d6&#45;&gt;dir_7900dd791a76306ff53b19fea9f7cb39 -->
<g id="edge3" class="edge">
<title>dir_46f038d98c29b85ae873c4d3a30697d6&#45;&gt;dir_7900dd791a76306ff53b19fea9f7cb39</title>
<path fill="none" stroke="black" d="M38.17,-71.7C41.43,-63.81 45.37,-54.3 49,-45.55"/>
<polygon fill="black" stroke="black" points="52.32,-46.68 52.91,-36.1 45.85,-44 52.32,-46.68"/>
<g id="a_edge3&#45;headlabel"><a xlink:href="dir_000004_000003.html" target="_top" xlink:title="2">
<text text-anchor="middle" x="53.57" y="-48.59" font-family="Helvetica,sans-Serif" font-size="10.00">2</text>
</a>
</g>
</g>
</g>
</svg>
