<?xml version="1.0" encoding="UTF-8" standalone="no"?>
<!DOCTYPE svg PUBLIC "-//W3C//DTD SVG 1.1//EN"
 "http://www.w3.org/Graphics/SVG/1.1/DTD/svg11.dtd">
<!-- Generated by graphviz version 2.43.0 (0)
 -->
<!-- Title: Cpp Pages: 1 -->
<svg width="411pt" height="387pt"
 viewBox="0.00 0.00 411.35 386.62" xmlns="http://www.w3.org/2000/svg" xmlns:xlink="http://www.w3.org/1999/xlink">
<g id="graph0" class="graph" transform="scale(1 1) rotate(0) translate(4 382.62)">
<title>Cpp</title>
<polygon fill="white" stroke="transparent" points="-4,4 -4,-382.62 407.35,-382.62 407.35,4 -4,4"/>
<g id="clust1" class="cluster">
<title>clusterdir_882abde7eca0231e2bae1ceefe5e858a</title>
<g id="a_clust1"><a xlink:href="dir_882abde7eca0231e2bae1ceefe5e858a.html" target="_top">
<polygon fill="#eeeeff" stroke="black" points="8,-8 8,-348 298,-348 298,-8 8,-8"/>
</a>
</g>
</g>
<!-- dir_882abde7eca0231e2bae1ceefe5e858a -->
<g id="node1" class="node">
<title>dir_882abde7eca0231e2bae1ceefe5e858a</title>
<text text-anchor="middle" x="263" y="-319.5" font-family="Helvetica,sans-Serif" font-size="10.00">Cpp</text>
</g>
<!-- dir_a6a5abadf54e8736d34f0c270b4b3bd4 -->
<g id="node2" class="node">
<title>dir_a6a5abadf54e8736d34f0c270b4b3bd4</title>
<g id="a_node2"><a xlink:href="dir_a6a5abadf54e8736d34f0c270b4b3bd4.html" target="_top" xlink:title="analysismethods">
<polygon fill="white" stroke="red" points="196,-268 96,-268 96,-232 196,-232 196,-268"/>
<text text-anchor="middle" x="146" y="-247.5" font-family="Helvetica,sans-Serif" font-size="10.00">analysismethods</text>
</a>
</g>
</g>
<!-- dir_1061d284018fbd45bbbfc991ca095c8e -->
<g id="node7" class="node">
<title>dir_1061d284018fbd45bbbfc991ca095c8e</title>
<g id="a_node7"><a xlink:href="dir_1061d284018fbd45bbbfc991ca095c8e.html" target="_top" xlink:title="raytracer">
<polygon fill="white" stroke="red" points="173.5,-196 112.5,-196 112.5,-160 173.5,-160 173.5,-196"/>
<text text-anchor="middle" x="143" y="-175.5" font-family="Helvetica,sans-Serif" font-size="10.00">raytracer</text>
</a>
</g>
</g>
<!-- dir_a6a5abadf54e8736d34f0c270b4b3bd4&#45;&gt;dir_1061d284018fbd45bbbfc991ca095c8e -->
<g id="edge15" class="edge">
<title>dir_a6a5abadf54e8736d34f0c270b4b3bd4&#45;&gt;dir_1061d284018fbd45bbbfc991ca095c8e</title>
<path fill="none" stroke="black" d="M145.26,-231.7C144.93,-223.98 144.53,-214.71 144.16,-206.11"/>
<polygon fill="black" stroke="black" points="147.66,-205.95 143.73,-196.1 140.66,-206.25 147.66,-205.95"/>
<g id="a_edge15&#45;headlabel"><a xlink:href="dir_000002_000006.html" target="_top" xlink:title="7">
<text text-anchor="middle" x="150.65" y="-206.92" font-family="Helvetica,sans-Serif" font-size="10.00">7</text>
</a>
</g>
</g>
<!-- dir_66731bdf74d76a38b2c500ac62cfdf48 -->
<g id="node9" class="node">
<title>dir_66731bdf74d76a38b2c500ac62cfdf48</title>
<g id="a_node9"><a xlink:href="dir_66731bdf74d76a38b2c500ac62cfdf48.html" target="_top" xlink:title="spatialstructures">
<polygon fill="white" stroke="red" points="290,-196 192,-196 192,-160 290,-160 290,-196"/>
<text text-anchor="middle" x="241" y="-175.5" font-family="Helvetica,sans-Serif" font-size="10.00">spatialstructures</text>
</a>
</g>
</g>
<!-- dir_a6a5abadf54e8736d34f0c270b4b3bd4&#45;&gt;dir_66731bdf74d76a38b2c500ac62cfdf48 -->
<g id="edge16" class="edge">
<title>dir_a6a5abadf54e8736d34f0c270b4b3bd4&#45;&gt;dir_66731bdf74d76a38b2c500ac62cfdf48</title>
<path fill="none" stroke="black" d="M169.48,-231.7C181.56,-222.8 196.45,-211.82 209.52,-202.2"/>
<polygon fill="black" stroke="black" points="211.81,-204.85 217.79,-196.1 207.66,-199.22 211.81,-204.85"/>
<g id="a_edge16&#45;headlabel"><a xlink:href="dir_000002_000007.html" target="_top" xlink:title="13">
<text text-anchor="middle" x="210.6" y="-206.77" font-family="Helvetica,sans-Serif" font-size="10.00">13</text>
</a>
</g>
</g>
<!-- dir_c7be9ada14d58aa1fdadc5ff6104682e -->
<g id="node3" class="node">
<title>dir_c7be9ada14d58aa1fdadc5ff6104682e</title>
<g id="a_node3"><a xlink:href="dir_c7be9ada14d58aa1fdadc5ff6104682e.html" target="_top" xlink:title="docs">
<polygon fill="white" stroke="red" points="218,-340 164,-340 164,-304 218,-304 218,-340"/>
<text text-anchor="middle" x="191" y="-319.5" font-family="Helvetica,sans-Serif" font-size="10.00">docs</text>
</a>
</g>
</g>
<!-- dir_7900dd791a76306ff53b19fea9f7cb39 -->
<g id="node4" class="node">
<title>dir_7900dd791a76306ff53b19fea9f7cb39</title>
<g id="a_node4"><a xlink:href="dir_7900dd791a76306ff53b19fea9f7cb39.html" target="_top" xlink:title="exceptions">
<polygon fill="white" stroke="red" points="228,-52 158,-52 158,-16 228,-16 228,-52"/>
<text text-anchor="middle" x="193" y="-31.5" font-family="Helvetica,sans-Serif" font-size="10.00">exceptions</text>
</a>
</g>
</g>
<!-- dir_46f038d98c29b85ae873c4d3a30697d6 -->
<g id="node5" class="node">
<title>dir_46f038d98c29b85ae873c4d3a30697d6</title>
<g id="a_node5"><a xlink:href="dir_46f038d98c29b85ae873c4d3a30697d6.html" target="_top" xlink:title="objloader">
<polygon fill="white" stroke="red" points="174,-124 112,-124 112,-88 174,-88 174,-124"/>
<text text-anchor="middle" x="143" y="-103.5" font-family="Helvetica,sans-Serif" font-size="10.00">objloader</text>
</a>
</g>
</g>
<!-- dir_46f038d98c29b85ae873c4d3a30697d6&#45;&gt;dir_7900dd791a76306ff53b19fea9f7cb39 -->
<g id="edge17" class="edge">
<title>dir_46f038d98c29b85ae873c4d3a30697d6&#45;&gt;dir_7900dd791a76306ff53b19fea9f7cb39</title>
<path fill="none" stroke="black" d="M155.36,-87.7C161.23,-79.47 168.37,-69.48 174.84,-60.42"/>
<polygon fill="black" stroke="black" points="177.82,-62.28 180.78,-52.1 172.12,-58.21 177.82,-62.28"/>
<g id="a_edge17&#45;headlabel"><a xlink:href="dir_000004_000003.html" target="_top" xlink:title="2">
<text text-anchor="middle" x="178.04" y="-64.35" font-family="Helvetica,sans-Serif" font-size="10.00">2</text>
</a>
</g>
</g>
<!-- dir_0e02576f053bf9c676481922c38373d1 -->
<g id="node6" class="node">
<title>dir_0e02576f053bf9c676481922c38373d1</title>
<g id="a_node6"><a xlink:href="dir_0e02576f053bf9c676481922c38373d1.html" target="_top" xlink:title="pathfinding">
<polygon fill="white" stroke="red" points="285.5,-268 214.5,-268 214.5,-232 285.5,-232 285.5,-268"/>
<text text-anchor="middle" x="250" y="-247.5" font-family="Helvetica,sans-Serif" font-size="10.00">pathfinding</text>
</a>
</g>
</g>
<!-- dir_0e02576f053bf9c676481922c38373d1&#45;&gt;dir_66731bdf74d76a38b2c500ac62cfdf48 -->
<g id="edge18" class="edge">
<title>dir_0e02576f053bf9c676481922c38373d1&#45;&gt;dir_66731bdf74d76a38b2c500ac62cfdf48</title>
<path fill="none" stroke="black" d="M247.78,-231.7C246.78,-223.98 245.59,-214.71 244.49,-206.11"/>
<polygon fill="black" stroke="black" points="247.95,-205.58 243.2,-196.1 241,-206.47 247.95,-205.58"/>
<g id="a_edge18&#45;headlabel"><a xlink:href="dir_000005_000007.html" target="_top" xlink:title="4">
<text text-anchor="middle" x="251.22" y="-206.28" font-family="Helvetica,sans-Serif" font-size="10.00">4</text>
</a>
</g>
</g>
<!-- dir_1061d284018fbd45bbbfc991ca095c8e&#45;&gt;dir_7900dd791a76306ff53b19fea9f7cb39 -->
<g id="edge20" class="edge">
<title>dir_1061d284018fbd45bbbfc991ca095c8e&#45;&gt;dir_7900dd791a76306ff53b19fea9f7cb39</title>
<path fill="none" stroke="black" d="M159.72,-159.85C168.16,-150.13 177.71,-137.28 183,-124 190.85,-104.29 193.18,-80.31 193.63,-62.2"/>
<polygon fill="black" stroke="black" points="197.13,-62.07 193.71,-52.04 190.13,-62.02 197.13,-62.07"/>
<g id="a_edge20&#45;headlabel"><a xlink:href="dir_000006_000003.html" target="_top" xlink:title="1">
<text text-anchor="middle" x="199.95" y="-63.19" font-family="Helvetica,sans-Serif" font-size="10.00">1</text>
</a>
</g>
</g>
<!-- dir_1061d284018fbd45bbbfc991ca095c8e&#45;&gt;dir_46f038d98c29b85ae873c4d3a30697d6 -->
<g id="edge19" class="edge">
<title>dir_1061d284018fbd45bbbfc991ca095c8e&#45;&gt;dir_46f038d98c29b85ae873c4d3a30697d6</title>
<path fill="none" stroke="black" d="M143,-159.7C143,-151.98 143,-142.71 143,-134.11"/>
<polygon fill="black" stroke="black" points="146.5,-134.1 143,-124.1 139.5,-134.1 146.5,-134.1"/>
<g id="a_edge19&#45;headlabel"><a xlink:href="dir_000006_000004.html" target="_top" xlink:title="2">
<text text-anchor="middle" x="149.34" y="-135.2" font-family="Helvetica,sans-Serif" font-size="10.00">2</text>
</a>
</g>
</g>
<!-- dir_f07d1d5eed6d32fd9119c46008b53704 -->
<g id="node8" class="node">
<title>dir_f07d1d5eed6d32fd9119c46008b53704</title>
<g id="a_node8"><a xlink:href="dir_f07d1d5eed6d32fd9119c46008b53704.html" target="_top" xlink:title="snippets">
<polygon fill="white" stroke="red" points="146,-340 88,-340 88,-304 146,-304 146,-340"/>
<text text-anchor="middle" x="117" y="-319.5" font-family="Helvetica,sans-Serif" font-size="10.00">snippets</text>
</a>
</g>
</g>
<!-- dir_66731bdf74d76a38b2c500ac62cfdf48&#45;&gt;dir_7900dd791a76306ff53b19fea9f7cb39 -->
<g id="edge22" class="edge">
<title>dir_66731bdf74d76a38b2c500ac62cfdf48&#45;&gt;dir_7900dd791a76306ff53b19fea9f7cb39</title>
<path fill="none" stroke="black" d="M235.21,-159.87C226.99,-135.56 211.87,-90.82 202.13,-62.01"/>
<polygon fill="black" stroke="black" points="205.33,-60.54 198.81,-52.19 198.7,-62.78 205.33,-60.54"/>
<g id="a_edge22&#45;headlabel"><a xlink:href="dir_000007_000003.html" target="_top" xlink:title="2">
<text text-anchor="middle" x="209.17" y="-60.54" font-family="Helvetica,sans-Serif" font-size="10.00">2</text>
</a>
</g>
</g>
<!-- dir_37600e7aa46d6eb08a97d98a1c09ffb1 -->
<g id="node11" class="node">
<title>dir_37600e7aa46d6eb08a97d98a1c09ffb1</title>
<g id="a_node11"><a xlink:href="dir_37600e7aa46d6eb08a97d98a1c09ffb1.html" target="_top" xlink:title="Cinterface">
<polygon fill="none" stroke="black" points="375.5,-340 308.5,-340 308.5,-304 375.5,-304 375.5,-340"/>
<text text-anchor="middle" x="342" y="-319.5" font-family="Helvetica,sans-Serif" font-size="10.00">Cinterface</text>
</a>
</g>
</g>
<!-- dir_66731bdf74d76a38b2c500ac62cfdf48&#45;&gt;dir_37600e7aa46d6eb08a97d98a1c09ffb1 -->
<g id="edge21" class="edge">
<title>dir_66731bdf74d76a38b2c500ac62cfdf48&#45;&gt;dir_37600e7aa46d6eb08a97d98a1c09ffb1</title>
<path fill="none" stroke="black" d="M284.86,-196.22C300.86,-204.66 317.57,-216.42 328,-232 340.13,-250.12 343.2,-274.9 343.48,-293.71"/>
<polygon fill="black" stroke="black" points="339.98,-293.7 343.38,-303.73 346.98,-293.77 339.98,-293.7"/>
<g id="a_edge21&#45;headlabel"><a xlink:href="dir_000007_000000.html" target="_top" xlink:title="1">
<text text-anchor="middle" x="337.18" y="-287.58" font-family="Helvetica,sans-Serif" font-size="10.00">1</text>
</a>
</g>
</g>
<!-- dir_5d715898c03dcdb47bf950c413823cbf -->
<g id="node10" class="node">
<title>dir_5d715898c03dcdb47bf950c413823cbf</title>
<g id="a_node10"><a xlink:href="dir_5d715898c03dcdb47bf950c413823cbf.html" target="_top" xlink:title="tests">
<polygon fill="white" stroke="red" points="70,-340 16,-340 16,-304 70,-304 70,-340"/>
<text text-anchor="middle" x="43" y="-319.5" font-family="Helvetica,sans-Serif" font-size="10.00">tests</text>
</a>
</g>
</g>
<!-- dir_5d715898c03dcdb47bf950c413823cbf&#45;&gt;dir_a6a5abadf54e8736d34f0c270b4b3bd4 -->
<g id="edge1" class="edge">
<title>dir_5d715898c03dcdb47bf950c413823cbf&#45;&gt;dir_a6a5abadf54e8736d34f0c270b4b3bd4</title>
<path fill="none" stroke="black" d="M68.2,-303.88C81.41,-294.89 97.79,-283.76 112.11,-274.03"/>
<polygon fill="black" stroke="black" points="114.4,-276.71 120.71,-268.19 110.47,-270.92 114.4,-276.71"/>
<g id="a_edge1&#45;headlabel"><a xlink:href="dir_000008_000002.html" target="_top" xlink:title="13">
<text text-anchor="middle" x="113.03" y="-278.57" font-family="Helvetica,sans-Serif" font-size="10.00">13</text>
</a>
</g>
</g>
<!-- dir_5d715898c03dcdb47bf950c413823cbf&#45;&gt;dir_7900dd791a76306ff53b19fea9f7cb39 -->
<g id="edge4" class="edge">
<title>dir_5d715898c03dcdb47bf950c413823cbf&#45;&gt;dir_7900dd791a76306ff53b19fea9f7cb39</title>
<path fill="none" stroke="black" d="M40.28,-303.78C37.92,-285.74 35.53,-256.64 40,-232 52.46,-163.26 55.33,-139.06 103,-88 115.72,-74.37 132.75,-63.14 148.56,-54.58"/>
<polygon fill="black" stroke="black" points="150.42,-57.56 157.69,-49.85 147.2,-51.34 150.42,-57.56"/>
<g id="a_edge4&#45;headlabel"><a xlink:href="dir_000008_000003.html" target="_top" xlink:title="9">
<text text-anchor="middle" x="148.53" y="-59.23" font-family="Helvetica,sans-Serif" font-size="10.00">9</text>
</a>
</g>
</g>
<!-- dir_5d715898c03dcdb47bf950c413823cbf&#45;&gt;dir_46f038d98c29b85ae873c4d3a30697d6 -->
<g id="edge3" class="edge">
<title>dir_5d715898c03dcdb47bf950c413823cbf&#45;&gt;dir_46f038d98c29b85ae873c4d3a30697d6</title>
<path fill="none" stroke="black" d="M42.18,-303.68C41.9,-285.3 43.12,-255.7 52,-232 66.64,-192.93 97.05,-155.22 118.68,-131.63"/>
<polygon fill="black" stroke="black" points="121.37,-133.88 125.64,-124.19 116.26,-129.1 121.37,-133.88"/>
<g id="a_edge3&#45;headlabel"><a xlink:href="dir_000008_000004.html" target="_top" xlink:title="19">
<text text-anchor="middle" x="120.99" y="-135.94" font-family="Helvetica,sans-Serif" font-size="10.00">19</text>
</a>
</g>
</g>
<!-- dir_5d715898c03dcdb47bf950c413823cbf&#45;&gt;dir_0e02576f053bf9c676481922c38373d1 -->
<g id="edge5" class="edge">
<title>dir_5d715898c03dcdb47bf950c413823cbf&#45;&gt;dir_0e02576f053bf9c676481922c38373d1</title>
<path fill="none" stroke="black" d="M70.32,-307.54C73.22,-306.28 76.15,-305.07 79,-304 130.64,-284.58 147.9,-286.08 204.42,-268.02"/>
<polygon fill="black" stroke="black" points="205.81,-271.25 214.23,-264.82 203.64,-264.59 205.81,-271.25"/>
<g id="a_edge5&#45;headlabel"><a xlink:href="dir_000008_000005.html" target="_top" xlink:title="4">
<text text-anchor="middle" x="203.28" y="-272.56" font-family="Helvetica,sans-Serif" font-size="10.00">4</text>
</a>
</g>
</g>
<!-- dir_5d715898c03dcdb47bf950c413823cbf&#45;&gt;dir_1061d284018fbd45bbbfc991ca095c8e -->
<g id="edge6" class="edge">
<title>dir_5d715898c03dcdb47bf950c413823cbf&#45;&gt;dir_1061d284018fbd45bbbfc991ca095c8e</title>
<path fill="none" stroke="black" d="M45.4,-303.86C48.75,-284.83 56.28,-253.92 72,-232 80.44,-220.23 92.28,-209.95 103.87,-201.66"/>
<polygon fill="black" stroke="black" points="105.92,-204.5 112.21,-195.97 101.98,-198.71 105.92,-204.5"/>
<g id="a_edge6&#45;headlabel"><a xlink:href="dir_000008_000006.html" target="_top" xlink:title="13">
<text text-anchor="middle" x="104.54" y="-206.37" font-family="Helvetica,sans-Serif" font-size="10.00">13</text>
</a>
</g>
</g>
<!-- dir_5d715898c03dcdb47bf950c413823cbf&#45;&gt;dir_66731bdf74d76a38b2c500ac62cfdf48 -->
<g id="edge7" class="edge">
<title>dir_5d715898c03dcdb47bf950c413823cbf&#45;&gt;dir_66731bdf74d76a38b2c500ac62cfdf48</title>
<path fill="none" stroke="black" d="M51.4,-303.92C64.06,-278.16 86.63,-232.33 87,-232 94.6,-225.31 141.88,-209.53 182.07,-196.91"/>
<polygon fill="black" stroke="black" points="183.34,-200.18 191.84,-193.86 181.25,-193.5 183.34,-200.18"/>
<g id="a_edge7&#45;headlabel"><a xlink:href="dir_000008_000007.html" target="_top" xlink:title="44">
<text text-anchor="middle" x="180.75" y="-201.46" font-family="Helvetica,sans-Serif" font-size="10.00">44</text>
</a>
</g>
</g>
<!-- dir_5d715898c03dcdb47bf950c413823cbf&#45;&gt;dir_37600e7aa46d6eb08a97d98a1c09ffb1 -->
<g id="edge2" class="edge">
<title>dir_5d715898c03dcdb47bf950c413823cbf&#45;&gt;dir_37600e7aa46d6eb08a97d98a1c09ffb1</title>
<path fill="none" stroke="black" d="M55.79,-340.04C63.8,-349.72 75.05,-360.72 88,-366 130.19,-383.2 250.46,-382.3 293,-366 303.25,-362.07 312.7,-354.9 320.52,-347.48"/>
<polygon fill="black" stroke="black" points="323.26,-349.67 327.75,-340.07 318.26,-344.78 323.26,-349.67"/>
<g id="a_edge2&#45;headlabel"><a xlink:href="dir_000008_000000.html" target="_top" xlink:title="33">
<text text-anchor="middle" x="322.78" y="-351.73" font-family="Helvetica,sans-Serif" font-size="10.00">33</text>
</a>
</g>
</g>
<!-- dir_37600e7aa46d6eb08a97d98a1c09ffb1&#45;&gt;dir_882abde7eca0231e2bae1ceefe5e858a -->
<g id="edge11" class="edge">
<title>dir_37600e7aa46d6eb08a97d98a1c09ffb1&#45;&gt;dir_882abde7eca0231e2bae1ceefe5e858a</title>
<path fill="none" stroke="black" d="M308.38,-322C305.72,-322 303.07,-322 300.41,-322"/>
<polygon fill="black" stroke="black" points="300.16,-318.5 290.16,-322 300.16,-325.5 300.16,-318.5"/>
<g id="a_edge11&#45;headlabel"><a xlink:href="dir_000000_000001.html" target="_top" xlink:title="30">
<text text-anchor="middle" x="303.75" y="-313.16" font-family="Helvetica,sans-Serif" font-size="10.00">30</text>
</a>
</g>
</g>
<!-- dir_37600e7aa46d6eb08a97d98a1c09ffb1&#45;&gt;dir_a6a5abadf54e8736d34f0c270b4b3bd4 -->
<g id="edge8" class="edge">
<title>dir_37600e7aa46d6eb08a97d98a1c09ffb1&#45;&gt;dir_a6a5abadf54e8736d34f0c270b4b3bd4</title>
<path fill="none" stroke="black" d="M308.46,-306.53C306.28,-305.66 304.11,-304.81 302,-304 270.55,-291.99 235.04,-279.82 205.86,-270.18"/>
<polygon fill="black" stroke="black" points="206.81,-266.81 196.22,-267.01 204.63,-273.46 206.81,-266.81"/>
<g id="a_edge8&#45;headlabel"><a xlink:href="dir_000000_000002.html" target="_top" xlink:title="3">
<text text-anchor="middle" x="211.11" y="-262.73" font-family="Helvetica,sans-Serif" font-size="10.00">3</text>
</a>
</g>
</g>
<!-- dir_37600e7aa46d6eb08a97d98a1c09ffb1&#45;&gt;dir_7900dd791a76306ff53b19fea9f7cb39 -->
<g id="edge10" class="edge">
<title>dir_37600e7aa46d6eb08a97d98a1c09ffb1&#45;&gt;dir_7900dd791a76306ff53b19fea9f7cb39</title>
<path fill="none" stroke="black" d="M368.58,-303.91C380.24,-294.81 392.69,-282.49 399,-268 405.39,-253.33 403.64,-247.31 399,-232 373.99,-149.4 287.44,-87.91 234.81,-57.1"/>
<polygon fill="black" stroke="black" points="236.46,-54.01 226.04,-52.07 232.97,-60.08 236.46,-54.01"/>
<g id="a_edge10&#45;headlabel"><a xlink:href="dir_000000_000003.html" target="_top" xlink:title="8">
<text text-anchor="middle" x="240.99" y="-50.84" font-family="Helvetica,sans-Serif" font-size="10.00">8</text>
</a>
</g>
</g>
<!-- dir_37600e7aa46d6eb08a97d98a1c09ffb1&#45;&gt;dir_46f038d98c29b85ae873c4d3a30697d6 -->
<g id="edge9" class="edge">
<title>dir_37600e7aa46d6eb08a97d98a1c09ffb1&#45;&gt;dir_46f038d98c29b85ae873c4d3a30697d6</title>
<path fill="none" stroke="black" d="M360.17,-303.68C368.88,-294.1 378.41,-281.43 383,-268 388.17,-252.86 389.69,-246.54 383,-232 347.63,-155.1 243.16,-124.52 184.38,-113.16"/>
<polygon fill="black" stroke="black" points="184.78,-109.68 174.31,-111.32 183.51,-116.56 184.78,-109.68"/>
<g id="a_edge9&#45;headlabel"><a xlink:href="dir_000000_000004.html" target="_top" xlink:title="3">
<text text-anchor="middle" x="188.82" y="-105.03" font-family="Helvetica,sans-Serif" font-size="10.00">3</text>
</a>
</g>
</g>
<!-- dir_37600e7aa46d6eb08a97d98a1c09ffb1&#45;&gt;dir_0e02576f053bf9c676481922c38373d1 -->
<g id="edge12" class="edge">
<title>dir_37600e7aa46d6eb08a97d98a1c09ffb1&#45;&gt;dir_0e02576f053bf9c676481922c38373d1</title>
<path fill="none" stroke="black" d="M319.26,-303.7C307.56,-294.8 293.14,-283.82 280.49,-274.2"/>
<polygon fill="black" stroke="black" points="282.56,-271.37 272.48,-268.1 278.32,-276.94 282.56,-271.37"/>
<g id="a_edge12&#45;headlabel"><a xlink:href="dir_000000_000005.html" target="_top" xlink:title="1">
<text text-anchor="middle" x="287.14" y="-268.79" font-family="Helvetica,sans-Serif" font-size="10.00">1</text>
</a>
</g>
</g>
<!-- dir_37600e7aa46d6eb08a97d98a1c09ffb1&#45;&gt;dir_1061d284018fbd45bbbfc991ca095c8e -->
<g id="edge13" class="edge">
<title>dir_37600e7aa46d6eb08a97d98a1c09ffb1&#45;&gt;dir_1061d284018fbd45bbbfc991ca095c8e</title>
<path fill="none" stroke="black" d="M337.24,-303.73C330.86,-283.69 317.62,-250.98 295,-232 257.21,-200.3 234.65,-212.61 183.44,-195.81"/>
<polygon fill="black" stroke="black" points="184.49,-192.47 173.9,-192.46 182.17,-199.08 184.49,-192.47"/>
<g id="a_edge13&#45;headlabel"><a xlink:href="dir_000000_000006.html" target="_top" xlink:title="4">
<text text-anchor="middle" x="188.82" y="-188.49" font-family="Helvetica,sans-Serif" font-size="10.00">4</text>
</a>
</g>
</g>
<!-- dir_37600e7aa46d6eb08a97d98a1c09ffb1&#45;&gt;dir_66731bdf74d76a38b2c500ac62cfdf48 -->
<g id="edge14" class="edge">
<title>dir_37600e7aa46d6eb08a97d98a1c09ffb1&#45;&gt;dir_66731bdf74d76a38b2c500ac62cfdf48</title>
<path fill="none" stroke="black" d="M354.25,-303.95C366.22,-285 380.67,-254.15 366,-232 351.12,-209.53 324.6,-196.56 299.81,-189.09"/>
<polygon fill="black" stroke="black" points="300.63,-185.68 290.06,-186.39 298.76,-192.43 300.63,-185.68"/>
<g id="a_edge14&#45;headlabel"><a xlink:href="dir_000000_000007.html" target="_top" xlink:title="11">
<text text-anchor="middle" x="304.85" y="-181.4" font-family="Helvetica,sans-Serif" font-size="10.00">11</text>
</a>
</g>
</g>
</g>
</svg>
