<?xml version="1.0" encoding="UTF-8" standalone="no"?>
<!DOCTYPE svg PUBLIC "-//W3C//DTD SVG 1.1//EN"
 "http://www.w3.org/Graphics/SVG/1.1/DTD/svg11.dtd">
<!-- Generated by graphviz version 2.43.0 (0)
 -->
<!-- Title: Cpp/analysismethods/src Pages: 1 -->
<svg width="186pt" height="151pt"
 viewBox="0.00 0.00 185.50 151.00" xmlns="http://www.w3.org/2000/svg" xmlns:xlink="http://www.w3.org/1999/xlink">
<g id="graph0" class="graph" transform="scale(1 1) rotate(0) translate(4 147)">
<title>Cpp/analysismethods/src</title>
<polygon fill="white" stroke="transparent" points="-4,4 -4,-147 181.5,-147 181.5,4 -4,4"/>
<g id="clust1" class="cluster">
<title>clusterdir_a6a5abadf54e8736d34f0c270b4b3bd4</title>
<g id="a_clust1"><a xlink:href="dir_a6a5abadf54e8736d34f0c270b4b3bd4.html" target="_top" xlink:title="analysismethods">
<polygon fill="#ddddee" stroke="black" points="29.5,-64 29.5,-135 129.5,-135 129.5,-64 29.5,-64"/>
<text text-anchor="middle" x="79.5" y="-123" font-family="Helvetica,sans-Serif" font-size="10.00">analysismethods</text>
</a>
</g>
</g>
<!-- dir_ac407b7bbfdda039e56715252e7e0537 -->
<g id="node1" class="node">
<title>dir_ac407b7bbfdda039e56715252e7e0537</title>
<g id="a_node1"><a xlink:href="dir_ac407b7bbfdda039e56715252e7e0537.html" target="_top" xlink:title="src">
<polygon fill="#eeeeff" stroke="black" points="106.5,-108 52.5,-108 52.5,-72 106.5,-72 106.5,-108"/>
<text text-anchor="middle" x="79.5" y="-87.5" font-family="Helvetica,sans-Serif" font-size="10.00">src</text>
</a>
</g>
</g>
<!-- dir_1061d284018fbd45bbbfc991ca095c8e -->
<g id="node2" class="node">
<title>dir_1061d284018fbd45bbbfc991ca095c8e</title>
<g id="a_node2"><a xlink:href="dir_1061d284018fbd45bbbfc991ca095c8e.html" target="_top" xlink:title="raytracer">
<polygon fill="white" stroke="red" points="61,-36 0,-36 0,0 61,0 61,-36"/>
<text text-anchor="middle" x="30.5" y="-15.5" font-family="Helvetica,sans-Serif" font-size="10.00">raytracer</text>
</a>
</g>
</g>
<!-- dir_ac407b7bbfdda039e56715252e7e0537&#45;&gt;dir_1061d284018fbd45bbbfc991ca095c8e -->
<g id="edge1" class="edge">
<title>dir_ac407b7bbfdda039e56715252e7e0537&#45;&gt;dir_1061d284018fbd45bbbfc991ca095c8e</title>
<path fill="none" stroke="black" d="M67.39,-71.7C61.63,-63.47 54.64,-53.48 48.29,-44.42"/>
<polygon fill="black" stroke="black" points="51.08,-42.29 42.47,-36.1 45.34,-46.3 51.08,-42.29"/>
<g id="a_edge1&#45;headlabel"><a xlink:href="dir_000009_000006.html" target="_top" xlink:title="7">
<text text-anchor="middle" x="55.46" y="-41.11" font-family="Helvetica,sans-Serif" font-size="10.00">7</text>
</a>
</g>
</g>
<!-- dir_66731bdf74d76a38b2c500ac62cfdf48 -->
<g id="node3" class="node">
<title>dir_66731bdf74d76a38b2c500ac62cfdf48</title>
<g id="a_node3"><a xlink:href="dir_66731bdf74d76a38b2c500ac62cfdf48.html" target="_top" xlink:title="spatialstructures">
<polygon fill="white" stroke="red" points="177.5,-36 79.5,-36 79.5,0 177.5,0 177.5,-36"/>
<text text-anchor="middle" x="128.5" y="-15.5" font-family="Helvetica,sans-Serif" font-size="10.00">spatialstructures</text>
</a>
</g>
</g>
<!-- dir_ac407b7bbfdda039e56715252e7e0537&#45;&gt;dir_66731bdf74d76a38b2c500ac62cfdf48 -->
<g id="edge2" class="edge">
<title>dir_ac407b7bbfdda039e56715252e7e0537&#45;&gt;dir_66731bdf74d76a38b2c500ac62cfdf48</title>
<path fill="none" stroke="black" d="M91.61,-71.7C97.37,-63.47 104.36,-53.48 110.71,-44.42"/>
<polygon fill="black" stroke="black" points="113.66,-46.3 116.53,-36.1 107.92,-42.29 113.66,-46.3"/>
<g id="a_edge2&#45;headlabel"><a xlink:href="dir_000009_000007.html" target="_top" xlink:title="13">
<text text-anchor="middle" x="113.92" y="-48.38" font-family="Helvetica,sans-Serif" font-size="10.00">13</text>
</a>
</g>
</g>
</g>
</svg>
