<?xml version="1.0" encoding="UTF-8" standalone="no"?>
<!DOCTYPE svg PUBLIC "-//W3C//DTD SVG 1.1//EN"
 "http://www.w3.org/Graphics/SVG/1.1/DTD/svg11.dtd">
<!-- Generated by graphviz version 5.0.0 (20220707.1540)
 -->
<!-- Title: Graphical Class Hierarchy Pages: 1 -->
<svg width="260pt" height="100pt"
 viewBox="0.00 0.00 260.00 99.50" xmlns="http://www.w3.org/2000/svg" xmlns:xlink="http://www.w3.org/1999/xlink">
<g id="graph0" class="graph" transform="scale(1 1) rotate(0) translate(4 95.5)">
<title>Graphical Class Hierarchy</title>
<polygon fill="white" stroke="transparent" points="-4,4 -4,-95.5 256,-95.5 256,4 -4,4"/>
<!-- Node0 -->
<g id="node1" class="node">
<title>Node0</title>
<g id="a_node1"><a xlink:title=" ">
<polygon fill="white" stroke="#bfbfbf" points="0,-33 0,-52 96,-52 96,-33 0,-33"/>
<text text-anchor="middle" x="48" y="-40" font-family="Helvetica,sans-Serif" font-size="10.00">std::allocator&lt; T &gt;</text>
</a>
</g>
</g>
<!-- Node1 -->
<g id="node2" class="node">
<title>Node1</title>
<g id="a_node2"><a xlink:href="a01357.html" target="_top" xlink:title=" ">
<polygon fill="white" stroke="black" points="132,-50 132,-91 252,-91 252,-50 132,-50"/>
<text text-anchor="start" x="140" y="-79" font-family="Helvetica,sans-Serif" font-size="10.00">nanort::StackAllocator</text>
<text text-anchor="start" x="140" y="-68" font-family="Helvetica,sans-Serif" font-size="10.00">&lt; ContainedType, stack</text>
<text text-anchor="middle" x="192" y="-57" font-family="Helvetica,sans-Serif" font-size="10.00">_capacity &gt;</text>
</a>
</g>
</g>
<!-- Node0&#45;&gt;Node1 -->
<g id="edge1" class="edge">
<title>Node0&#45;&gt;Node1</title>
<path fill="none" stroke="midnightblue" d="M106.35,-53.81C114.73,-55.46 123.38,-57.17 131.8,-58.83"/>
<polygon fill="midnightblue" stroke="midnightblue" points="106.77,-50.32 96.28,-51.82 105.42,-57.19 106.77,-50.32"/>
</g>
<!-- Node2 -->
<g id="node3" class="node">
<title>Node2</title>
<g id="a_node3"><a xlink:href="a01357.html" target="_top" xlink:title=" ">
<polygon fill="white" stroke="black" points="135.5,-0.5 135.5,-30.5 248.5,-30.5 248.5,-0.5 135.5,-0.5"/>
<text text-anchor="start" x="143.5" y="-18.5" font-family="Helvetica,sans-Serif" font-size="10.00">nanort::StackAllocator</text>
<text text-anchor="middle" x="192" y="-7.5" font-family="Helvetica,sans-Serif" font-size="10.00">&lt; T, stack_capacity &gt;</text>
</a>
</g>
</g>
<!-- Node0&#45;&gt;Node2 -->
<g id="edge2" class="edge">
<title>Node0&#45;&gt;Node2</title>
<path fill="none" stroke="midnightblue" d="M106.38,-31.59C115.84,-29.79 125.64,-27.93 135.06,-26.14"/>
<polygon fill="midnightblue" stroke="midnightblue" points="105.45,-28.2 96.28,-33.51 106.76,-35.08 105.45,-28.2"/>
</g>
</g>
</svg>
