<?xml version="1.0" encoding="UTF-8" standalone="no"?>
<!DOCTYPE svg PUBLIC "-//W3C//DTD SVG 1.1//EN"
 "http://www.w3.org/Graphics/SVG/1.1/DTD/svg11.dtd">
<!-- Generated by graphviz version 5.0.0 (20220707.1540)
 -->
<!-- Title: Graphical Class Hierarchy Pages: 1 -->
<svg width="346pt" height="149pt"
 viewBox="0.00 0.00 346.00 149.00" xmlns="http://www.w3.org/2000/svg" xmlns:xlink="http://www.w3.org/1999/xlink">
<g id="graph0" class="graph" transform="scale(1 1) rotate(0) translate(4 145)">
<title>Graphical Class Hierarchy</title>
<polygon fill="white" stroke="transparent" points="-4,4 -4,-145 342,-145 342,4 -4,4"/>
<!-- Node0 -->
<g id="node1" class="node">
<title>Node0</title>
<g id="a_node1"><a xlink:href="a01953.html" target="_top" xlink:title="abstract output adapter interface">
<polygon fill="white" stroke="black" points="0,-55.5 0,-85.5 153,-85.5 153,-55.5 0,-55.5"/>
<text text-anchor="start" x="8" y="-73.5" font-family="Helvetica,sans-Serif" font-size="10.00">nlohmann::detail::output</text>
<text text-anchor="middle" x="76.5" y="-62.5" font-family="Helvetica,sans-Serif" font-size="10.00">_adapter_protocol&lt; CharType &gt;</text>
</a>
</g>
</g>
<!-- Node1 -->
<g id="node2" class="node">
<title>Node1</title>
<g id="a_node2"><a xlink:href="a01961.html" target="_top" xlink:title="output adapter for output streams">
<polygon fill="white" stroke="black" points="189,-110.5 189,-140.5 338,-140.5 338,-110.5 189,-110.5"/>
<text text-anchor="start" x="197" y="-128.5" font-family="Helvetica,sans-Serif" font-size="10.00">nlohmann::detail::output</text>
<text text-anchor="middle" x="263.5" y="-117.5" font-family="Helvetica,sans-Serif" font-size="10.00">_stream_adapter&lt; CharType &gt;</text>
</a>
</g>
</g>
<!-- Node0&#45;&gt;Node1 -->
<g id="edge1" class="edge">
<title>Node0&#45;&gt;Node1</title>
<path fill="none" stroke="midnightblue" d="M137.76,-88.42C161.76,-95.55 189.07,-103.67 212.01,-110.49"/>
<polygon fill="midnightblue" stroke="midnightblue" points="138.63,-85.02 128.05,-85.53 136.64,-91.73 138.63,-85.02"/>
</g>
<!-- Node2 -->
<g id="node3" class="node">
<title>Node2</title>
<g id="a_node3"><a xlink:href="a01965.html" target="_top" xlink:title="output adapter for basic_string">
<polygon fill="white" stroke="black" points="195,-50 195,-91 332,-91 332,-50 195,-50"/>
<text text-anchor="start" x="203" y="-79" font-family="Helvetica,sans-Serif" font-size="10.00">nlohmann::detail::output</text>
<text text-anchor="start" x="203" y="-68" font-family="Helvetica,sans-Serif" font-size="10.00">_string_adapter&lt; CharType,</text>
<text text-anchor="middle" x="263.5" y="-57" font-family="Helvetica,sans-Serif" font-size="10.00"> StringType &gt;</text>
</a>
</g>
</g>
<!-- Node0&#45;&gt;Node2 -->
<g id="edge2" class="edge">
<title>Node0&#45;&gt;Node2</title>
<path fill="none" stroke="midnightblue" d="M163.18,-70.5C173.84,-70.5 184.62,-70.5 194.95,-70.5"/>
<polygon fill="midnightblue" stroke="midnightblue" points="163.01,-67 153.01,-70.5 163.01,-74 163.01,-67"/>
</g>
<!-- Node3 -->
<g id="node4" class="node">
<title>Node3</title>
<g id="a_node4"><a xlink:href="a01957.html" target="_top" xlink:title="output adapter for byte vectors">
<polygon fill="white" stroke="black" points="191.5,-0.5 191.5,-30.5 335.5,-30.5 335.5,-0.5 191.5,-0.5"/>
<text text-anchor="start" x="199.5" y="-18.5" font-family="Helvetica,sans-Serif" font-size="10.00">nlohmann::detail::output</text>
<text text-anchor="middle" x="263.5" y="-7.5" font-family="Helvetica,sans-Serif" font-size="10.00">_vector_adapter&lt; CharType &gt;</text>
</a>
</g>
</g>
<!-- Node0&#45;&gt;Node3 -->
<g id="edge3" class="edge">
<title>Node0&#45;&gt;Node3</title>
<path fill="none" stroke="midnightblue" d="M137.76,-52.58C161.76,-45.45 189.07,-37.33 212.01,-30.51"/>
<polygon fill="midnightblue" stroke="midnightblue" points="136.64,-49.27 128.05,-55.47 138.63,-55.98 136.64,-49.27"/>
</g>
</g>
</svg>
