<?xml version="1.0" encoding="UTF-8" standalone="no"?>
<!DOCTYPE svg PUBLIC "-//W3C//DTD SVG 1.1//EN"
 "http://www.w3.org/Graphics/SVG/1.1/DTD/svg11.dtd">
<!-- Generated by graphviz version 8.0.5 (20230430.1635)
 -->
<!-- Title: Graphical Class Hierarchy Pages: 1 -->
<svg width="520pt" height="1164pt"
 viewBox="0.00 0.00 520.25 1164.00" xmlns="http://www.w3.org/2000/svg" xmlns:xlink="http://www.w3.org/1999/xlink">
<g id="graph0" class="graph" transform="scale(1 1) rotate(0) translate(4 1160)">
<title>Graphical Class Hierarchy</title>
<!-- Node0 -->
<g id="node1" class="node">
<title>Node0</title>
<g id="a_node1"><a xlink:title=" ">
<polygon fill="#e0e0e0" stroke="#999999" points="79.75,-594 0,-594 0,-574 79.75,-574 79.75,-594"/>
<text text-anchor="middle" x="39.88" y="-580.5" font-family="Helvetica,sans-Serif" font-size="10.00">std::false_type</text>
</a>
</g>
</g>
<!-- Node1 -->
<g id="node2" class="node">
<title>Node1</title>
<g id="a_node2"><a xlink:href="a01759.html" target="_top" xlink:title=" ">
<polygon fill="white" stroke="#666666" points="293,-1156 115.75,-1156 115.75,-1100 293,-1100 293,-1156"/>
<text text-anchor="start" x="123.75" y="-1142.5" font-family="Helvetica,sans-Serif" font-size="10.00">nlohmann::detail::is</text>
<text text-anchor="start" x="123.75" y="-1130.5" font-family="Helvetica,sans-Serif" font-size="10.00">_compatible_string_type</text>
<text text-anchor="start" x="123.75" y="-1118.5" font-family="Helvetica,sans-Serif" font-size="10.00">_impl&lt; BasicJsonType, Constructible</text>
<text text-anchor="middle" x="204.38" y="-1106.5" font-family="Helvetica,sans-Serif" font-size="10.00">StringType &gt;</text>
</a>
</g>
</g>
<!-- Node0&#45;&gt;Node1 -->
<g id="edge1" class="edge">
<title>Node0&#45;&gt;Node1</title>
<path fill="none" stroke="#63b8ff" d="M41.31,-605.33C43.48,-691.54 55.52,-1013.22 115.75,-1091 118.18,-1094.13 120.92,-1097 123.89,-1099.64"/>
<polygon fill="#63b8ff" stroke="#63b8ff" points="44.79,-605.3 41.06,-595.38 37.79,-605.46 44.79,-605.3"/>
</g>
<!-- Node3 -->
<g id="node4" class="node">
<title>Node3</title>
<g id="a_node4"><a xlink:href="a01691.html" target="_top" xlink:title=" ">
<polygon fill="white" stroke="#666666" points="275,-1082 133.75,-1082 133.75,-1038 275,-1038 275,-1082"/>
<text text-anchor="start" x="141.75" y="-1068.5" font-family="Helvetica,sans-Serif" font-size="10.00">nlohmann::detail::has</text>
<text text-anchor="start" x="141.75" y="-1056.5" font-family="Helvetica,sans-Serif" font-size="10.00">_from_json&lt; BasicJsonType,</text>
<text text-anchor="middle" x="204.38" y="-1044.5" font-family="Helvetica,sans-Serif" font-size="10.00"> T, typename &gt;</text>
</a>
</g>
</g>
<!-- Node0&#45;&gt;Node3 -->
<g id="edge3" class="edge">
<title>Node0&#45;&gt;Node3</title>
<path fill="none" stroke="#63b8ff" d="M41.65,-604.82C44.97,-683.73 60.51,-963.24 115.75,-1029 120.63,-1034.81 126.67,-1039.53 133.28,-1043.36"/>
<polygon fill="#63b8ff" stroke="#63b8ff" points="45.12,-605.16 41.23,-595.31 38.13,-605.44 45.12,-605.16"/>
</g>
<!-- Node4 -->
<g id="node5" class="node">
<title>Node4</title>
<g id="a_node5"><a xlink:href="a01703.html" target="_top" xlink:title=" ">
<polygon fill="white" stroke="#666666" points="284.38,-1020 124.38,-1020 124.38,-976 284.38,-976 284.38,-1020"/>
<text text-anchor="start" x="132.38" y="-1006.5" font-family="Helvetica,sans-Serif" font-size="10.00">nlohmann::detail::has</text>
<text text-anchor="start" x="132.38" y="-994.5" font-family="Helvetica,sans-Serif" font-size="10.00">_non_default_from_json</text>
<text text-anchor="middle" x="204.38" y="-982.5" font-family="Helvetica,sans-Serif" font-size="10.00">&lt; BasicJsonType, T, typename &gt;</text>
</a>
</g>
</g>
<!-- Node0&#45;&gt;Node4 -->
<g id="edge4" class="edge">
<title>Node0&#45;&gt;Node4</title>
<path fill="none" stroke="#63b8ff" d="M42.29,-605.07C47.51,-677.02 67.95,-911.6 115.75,-967 118.49,-970.18 121.58,-973.03 124.92,-975.59"/>
<polygon fill="#63b8ff" stroke="#63b8ff" points="45.72,-605.01 41.53,-595.28 38.74,-605.5 45.72,-605.01"/>
</g>
<!-- Node5 -->
<g id="node6" class="node">
<title>Node5</title>
<g id="a_node6"><a xlink:href="a01711.html" target="_top" xlink:title=" ">
<polygon fill="white" stroke="#666666" points="269.75,-958 139,-958 139,-914 269.75,-914 269.75,-958"/>
<text text-anchor="start" x="147" y="-944.5" font-family="Helvetica,sans-Serif" font-size="10.00">nlohmann::detail::has</text>
<text text-anchor="start" x="147" y="-932.5" font-family="Helvetica,sans-Serif" font-size="10.00">_to_json&lt; BasicJsonType,</text>
<text text-anchor="middle" x="204.38" y="-920.5" font-family="Helvetica,sans-Serif" font-size="10.00"> T, typename &gt;</text>
</a>
</g>
</g>
<!-- Node0&#45;&gt;Node5 -->
<g id="edge5" class="edge">
<title>Node0&#45;&gt;Node5</title>
<path fill="none" stroke="#63b8ff" d="M43.13,-604.9C50.42,-668.75 75.24,-859.73 115.75,-905 122.1,-912.09 130.18,-917.57 138.85,-921.78"/>
<polygon fill="#63b8ff" stroke="#63b8ff" points="46.53,-604.76 41.94,-595.21 39.57,-605.53 46.53,-604.76"/>
</g>
<!-- Node6 -->
<g id="node7" class="node">
<title>Node6</title>
<g id="a_node7"><a xlink:href="a01671.html" target="_top" xlink:title=" ">
<polygon fill="white" stroke="#666666" points="268.63,-896 140.13,-896 140.13,-864 268.63,-864 268.63,-896"/>
<text text-anchor="start" x="148.13" y="-882.5" font-family="Helvetica,sans-Serif" font-size="10.00">nlohmann::detail::is</text>
<text text-anchor="middle" x="204.38" y="-870.5" font-family="Helvetica,sans-Serif" font-size="10.00">_basic_json&lt; typename &gt;</text>
</a>
</g>
</g>
<!-- Node0&#45;&gt;Node6 -->
<g id="edge6" class="edge">
<title>Node0&#45;&gt;Node6</title>
<path fill="none" stroke="#63b8ff" d="M40.2,-605.15C39.79,-655.74 46.05,-784.72 115.75,-855 122.43,-861.74 130.8,-866.69 139.69,-870.33"/>
<polygon fill="#63b8ff" stroke="#63b8ff" points="43.72,-605.38 40.41,-595.32 36.72,-605.25 43.72,-605.38"/>
</g>
<!-- Node7 -->
<g id="node8" class="node">
<title>Node7</title>
<g id="a_node8"><a xlink:href="a01783.html" target="_top" xlink:title=" ">
<polygon fill="white" stroke="#666666" points="288.88,-846 119.88,-846 119.88,-790 288.88,-790 288.88,-846"/>
<text text-anchor="start" x="127.88" y="-832.5" font-family="Helvetica,sans-Serif" font-size="10.00">nlohmann::detail::is</text>
<text text-anchor="start" x="127.88" y="-820.5" font-family="Helvetica,sans-Serif" font-size="10.00">_compatible_array_type</text>
<text text-anchor="start" x="127.88" y="-808.5" font-family="Helvetica,sans-Serif" font-size="10.00">_impl&lt; BasicJsonType, Compatible</text>
<text text-anchor="middle" x="204.38" y="-796.5" font-family="Helvetica,sans-Serif" font-size="10.00">ArrayType, typename &gt;</text>
</a>
</g>
</g>
<!-- Node0&#45;&gt;Node7 -->
<g id="edge7" class="edge">
<title>Node0&#45;&gt;Node7</title>
<path fill="none" stroke="#63b8ff" d="M43.38,-604.92C49.14,-644.35 66.83,-730.27 115.75,-781 118.73,-784.09 122.01,-786.94 125.49,-789.55"/>
<polygon fill="#63b8ff" stroke="#63b8ff" points="46.72,-604.51 41.92,-595.06 39.78,-605.43 46.72,-604.51"/>
</g>
<!-- Node9 -->
<g id="node10" class="node">
<title>Node9</title>
<g id="a_node10"><a xlink:href="a01811.html" target="_top" xlink:title=" ">
<polygon fill="white" stroke="#666666" points="281.75,-772 127,-772 127,-704 281.75,-704 281.75,-772"/>
<text text-anchor="start" x="135" y="-758.5" font-family="Helvetica,sans-Serif" font-size="10.00">nlohmann::detail::is</text>
<text text-anchor="start" x="135" y="-746.5" font-family="Helvetica,sans-Serif" font-size="10.00">_compatible_integer_type</text>
<text text-anchor="start" x="135" y="-734.5" font-family="Helvetica,sans-Serif" font-size="10.00">_impl&lt; RealIntegerType,</text>
<text text-anchor="start" x="135" y="-722.5" font-family="Helvetica,sans-Serif" font-size="10.00"> CompatibleNumberIntegerType,</text>
<text text-anchor="middle" x="204.38" y="-710.5" font-family="Helvetica,sans-Serif" font-size="10.00"> typename &gt;</text>
</a>
</g>
</g>
<!-- Node0&#45;&gt;Node9 -->
<g id="edge9" class="edge">
<title>Node0&#45;&gt;Node9</title>
<path fill="none" stroke="#63b8ff" d="M50.28,-604.02C62.49,-628.21 85.81,-668.91 115.75,-695 119.2,-698.01 122.9,-700.86 126.75,-703.55"/>
<polygon fill="#63b8ff" stroke="#63b8ff" points="53.01,-602.62 45.47,-595.18 46.72,-605.7 53.01,-602.62"/>
</g>
<!-- Node11 -->
<g id="node12" class="node">
<title>Node11</title>
<g id="a_node12"><a xlink:href="a01735.html" target="_top" xlink:title=" ">
<polygon fill="white" stroke="#666666" points="288.88,-686 119.88,-686 119.88,-630 288.88,-630 288.88,-686"/>
<text text-anchor="start" x="127.88" y="-672.5" font-family="Helvetica,sans-Serif" font-size="10.00">nlohmann::detail::is</text>
<text text-anchor="start" x="127.88" y="-660.5" font-family="Helvetica,sans-Serif" font-size="10.00">_compatible_object_type</text>
<text text-anchor="start" x="127.88" y="-648.5" font-family="Helvetica,sans-Serif" font-size="10.00">_impl&lt; BasicJsonType, Compatible</text>
<text text-anchor="middle" x="204.38" y="-636.5" font-family="Helvetica,sans-Serif" font-size="10.00">ObjectType, typename &gt;</text>
</a>
</g>
</g>
<!-- Node0&#45;&gt;Node11 -->
<g id="edge11" class="edge">
<title>Node0&#45;&gt;Node11</title>
<path fill="none" stroke="#63b8ff" d="M70.86,-599.33C84.47,-606.15 100.83,-614.17 115.75,-621 121.91,-623.82 128.34,-626.68 134.8,-629.51"/>
<polygon fill="#63b8ff" stroke="#63b8ff" points="72.56,-595.76 62.06,-594.38 69.41,-602.01 72.56,-595.76"/>
</g>
<!-- Node13 -->
<g id="node14" class="node">
<title>Node13</title>
<g id="a_node14"><a xlink:href="a01759.html" target="_top" xlink:title=" ">
<polygon fill="white" stroke="#666666" points="288.88,-612 119.88,-612 119.88,-556 288.88,-556 288.88,-612"/>
<text text-anchor="start" x="127.88" y="-598.5" font-family="Helvetica,sans-Serif" font-size="10.00">nlohmann::detail::is</text>
<text text-anchor="start" x="127.88" y="-586.5" font-family="Helvetica,sans-Serif" font-size="10.00">_compatible_string_type</text>
<text text-anchor="start" x="127.88" y="-574.5" font-family="Helvetica,sans-Serif" font-size="10.00">_impl&lt; BasicJsonType, Compatible</text>
<text text-anchor="middle" x="204.38" y="-562.5" font-family="Helvetica,sans-Serif" font-size="10.00">StringType, typename &gt;</text>
</a>
</g>
</g>
<!-- Node0&#45;&gt;Node13 -->
<g id="edge13" class="edge">
<title>Node0&#45;&gt;Node13</title>
<path fill="none" stroke="#63b8ff" d="M90.94,-584C100.01,-584 109.69,-584 119.42,-584"/>
<polygon fill="#63b8ff" stroke="#63b8ff" points="91.21,-580.5 81.21,-584 91.21,-587.5 91.21,-580.5"/>
</g>
<!-- Node14 -->
<g id="node15" class="node">
<title>Node14</title>
<g id="a_node15"><a xlink:href="a01823.html" target="_top" xlink:title=" ">
<polygon fill="white" stroke="#666666" points="289.25,-538 119.5,-538 119.5,-482 289.25,-482 289.25,-538"/>
<text text-anchor="start" x="127.5" y="-524.5" font-family="Helvetica,sans-Serif" font-size="10.00">nlohmann::detail::is</text>
<text text-anchor="start" x="127.5" y="-512.5" font-family="Helvetica,sans-Serif" font-size="10.00">_compatible_type_impl</text>
<text text-anchor="start" x="127.5" y="-500.5" font-family="Helvetica,sans-Serif" font-size="10.00">&lt; BasicJsonType, CompatibleType,</text>
<text text-anchor="middle" x="204.38" y="-488.5" font-family="Helvetica,sans-Serif" font-size="10.00"> typename &gt;</text>
</a>
</g>
</g>
<!-- Node0&#45;&gt;Node14 -->
<g id="edge14" class="edge">
<title>Node0&#45;&gt;Node14</title>
<path fill="none" stroke="#63b8ff" d="M70.86,-568.67C84.47,-561.85 100.83,-553.83 115.75,-547 121.91,-544.18 128.34,-541.32 134.8,-538.49"/>
<polygon fill="#63b8ff" stroke="#63b8ff" points="69.41,-565.99 62.06,-573.62 72.56,-572.24 69.41,-565.99"/>
</g>
<!-- Node16 -->
<g id="node17" class="node">
<title>Node16</title>
<g id="a_node17"><a xlink:href="a01727.html" target="_top" xlink:title=" ">
<polygon fill="white" stroke="#666666" points="282.88,-464 125.88,-464 125.88,-432 282.88,-432 282.88,-464"/>
<text text-anchor="start" x="133.88" y="-450.5" font-family="Helvetica,sans-Serif" font-size="10.00">nlohmann::detail::is</text>
<text text-anchor="middle" x="204.38" y="-438.5" font-family="Helvetica,sans-Serif" font-size="10.00">_complete_type&lt; T, typename &gt;</text>
</a>
</g>
</g>
<!-- Node0&#45;&gt;Node16 -->
<g id="edge16" class="edge">
<title>Node0&#45;&gt;Node16</title>
<path fill="none" stroke="#63b8ff" d="M49.22,-563.78C60.59,-538.75 83.3,-496.54 115.75,-473 120.23,-469.75 125.13,-466.92 130.24,-464.46"/>
<polygon fill="#63b8ff" stroke="#63b8ff" points="45.71,-562.08 44.93,-572.65 52.13,-564.88 45.71,-562.08"/>
</g>
<!-- Node17 -->
<g id="node18" class="node">
<title>Node17</title>
<g id="a_node18"><a xlink:href="a01795.html" target="_top" xlink:title=" ">
<polygon fill="white" stroke="#666666" points="275,-414 133.75,-414 133.75,-346 275,-346 275,-414"/>
<text text-anchor="start" x="141.75" y="-400.5" font-family="Helvetica,sans-Serif" font-size="10.00">nlohmann::detail::is</text>
<text text-anchor="start" x="141.75" y="-388.5" font-family="Helvetica,sans-Serif" font-size="10.00">_constructible_array</text>
<text text-anchor="start" x="141.75" y="-376.5" font-family="Helvetica,sans-Serif" font-size="10.00">_type_impl&lt; BasicJsonType,</text>
<text text-anchor="start" x="141.75" y="-364.5" font-family="Helvetica,sans-Serif" font-size="10.00"> ConstructibleArrayType,</text>
<text text-anchor="middle" x="204.38" y="-352.5" font-family="Helvetica,sans-Serif" font-size="10.00"> typename &gt;</text>
</a>
</g>
</g>
<!-- Node0&#45;&gt;Node17 -->
<g id="edge17" class="edge">
<title>Node0&#45;&gt;Node17</title>
<path fill="none" stroke="#63b8ff" d="M45.73,-563.21C54.48,-529.8 75.81,-463.78 115.75,-423 120.97,-417.67 126.98,-412.91 133.36,-408.67"/>
<polygon fill="#63b8ff" stroke="#63b8ff" points="42.17,-562.02 43.15,-572.57 48.96,-563.71 42.17,-562.02"/>
</g>
<!-- Node19 -->
<g id="node20" class="node">
<title>Node19</title>
<g id="a_node20"><a xlink:href="a01747.html" target="_top" xlink:title=" ">
<polygon fill="white" stroke="#666666" points="275,-328 133.75,-328 133.75,-260 275,-260 275,-328"/>
<text text-anchor="start" x="141.75" y="-314.5" font-family="Helvetica,sans-Serif" font-size="10.00">nlohmann::detail::is</text>
<text text-anchor="start" x="141.75" y="-302.5" font-family="Helvetica,sans-Serif" font-size="10.00">_constructible_object</text>
<text text-anchor="start" x="141.75" y="-290.5" font-family="Helvetica,sans-Serif" font-size="10.00">_type_impl&lt; BasicJsonType,</text>
<text text-anchor="start" x="141.75" y="-278.5" font-family="Helvetica,sans-Serif" font-size="10.00"> ConstructibleObjectType,</text>
<text text-anchor="middle" x="204.38" y="-266.5" font-family="Helvetica,sans-Serif" font-size="10.00"> typename &gt;</text>
</a>
</g>
</g>
<!-- Node0&#45;&gt;Node19 -->
<g id="edge19" class="edge">
<title>Node0&#45;&gt;Node19</title>
<path fill="none" stroke="#63b8ff" d="M41.76,-562.96C44.76,-516.73 57.94,-405.01 115.75,-337 120.8,-331.06 126.86,-325.87 133.41,-321.34"/>
<polygon fill="#63b8ff" stroke="#63b8ff" points="38.22,-562.53 41.17,-572.71 45.21,-562.91 38.22,-562.53"/>
</g>
<!-- Node21 -->
<g id="node22" class="node">
<title>Node21</title>
<g id="a_node22"><a xlink:href="a01771.html" target="_top" xlink:title=" ">
<polygon fill="white" stroke="#666666" points="275,-242 133.75,-242 133.75,-174 275,-174 275,-242"/>
<text text-anchor="start" x="141.75" y="-228.5" font-family="Helvetica,sans-Serif" font-size="10.00">nlohmann::detail::is</text>
<text text-anchor="start" x="141.75" y="-216.5" font-family="Helvetica,sans-Serif" font-size="10.00">_constructible_string</text>
<text text-anchor="start" x="141.75" y="-204.5" font-family="Helvetica,sans-Serif" font-size="10.00">_type_impl&lt; BasicJsonType,</text>
<text text-anchor="start" x="141.75" y="-192.5" font-family="Helvetica,sans-Serif" font-size="10.00"> ConstructibleStringType,</text>
<text text-anchor="middle" x="204.38" y="-180.5" font-family="Helvetica,sans-Serif" font-size="10.00"> typename &gt;</text>
</a>
</g>
</g>
<!-- Node0&#45;&gt;Node21 -->
<g id="edge21" class="edge">
<title>Node0&#45;&gt;Node21</title>
<path fill="none" stroke="#63b8ff" d="M43.22,-562.94C50.84,-497.72 76.71,-300.49 115.75,-251 120.68,-244.75 126.76,-239.34 133.39,-234.68"/>
<polygon fill="#63b8ff" stroke="#63b8ff" points="39.67,-562.19 42.01,-572.52 46.62,-562.98 39.67,-562.19"/>
</g>
<!-- Node23 -->
<g id="node24" class="node">
<title>Node23</title>
<g id="a_node24"><a xlink:href="a01847.html" target="_top" xlink:title=" ">
<polygon fill="white" stroke="#666666" points="255.88,-156 152.88,-156 152.88,-112 255.88,-112 255.88,-156"/>
<text text-anchor="start" x="160.88" y="-142.5" font-family="Helvetica,sans-Serif" font-size="10.00">nlohmann::detail::is</text>
<text text-anchor="start" x="160.88" y="-130.5" font-family="Helvetica,sans-Serif" font-size="10.00">_constructible_tuple</text>
<text text-anchor="middle" x="204.38" y="-118.5" font-family="Helvetica,sans-Serif" font-size="10.00">&lt; T1, T2 &gt;</text>
</a>
</g>
</g>
<!-- Node0&#45;&gt;Node23 -->
<g id="edge23" class="edge">
<title>Node0&#45;&gt;Node23</title>
<path fill="none" stroke="#63b8ff" d="M41.9,-562.94C46,-486.7 63.66,-226.36 115.75,-165 125.15,-153.93 138.77,-146.81 152.48,-142.23"/>
<polygon fill="#63b8ff" stroke="#63b8ff" points="38.37,-562.37 41.35,-572.54 45.36,-562.73 38.37,-562.37"/>
</g>
<!-- Node24 -->
<g id="node25" class="node">
<title>Node24</title>
<g id="a_node25"><a xlink:href="a01719.html" target="_top" xlink:title=" ">
<polygon fill="white" stroke="#666666" points="254.75,-94 154,-94 154,-50 254.75,-50 254.75,-94"/>
<text text-anchor="start" x="162" y="-80.5" font-family="Helvetica,sans-Serif" font-size="10.00">nlohmann::detail::is</text>
<text text-anchor="start" x="162" y="-68.5" font-family="Helvetica,sans-Serif" font-size="10.00">_iterator_traits&lt; T,</text>
<text text-anchor="middle" x="204.38" y="-56.5" font-family="Helvetica,sans-Serif" font-size="10.00"> typename &gt;</text>
</a>
</g>
</g>
<!-- Node0&#45;&gt;Node24 -->
<g id="edge24" class="edge">
<title>Node0&#45;&gt;Node24</title>
<path fill="none" stroke="#63b8ff" d="M41.37,-562.87C43.71,-479.52 56.28,-174.68 115.75,-103 125.33,-91.45 139.52,-84.2 153.69,-79.65"/>
<polygon fill="#63b8ff" stroke="#63b8ff" points="37.85,-562.61 41.08,-572.7 44.84,-562.79 37.85,-562.61"/>
</g>
<!-- Node25 -->
<g id="node26" class="node">
<title>Node25</title>
<g id="a_node26"><a xlink:href="a01683.html" target="_top" xlink:title=" ">
<polygon fill="white" stroke="#666666" points="262.25,-32 146.5,-32 146.5,0 262.25,0 262.25,-32"/>
<text text-anchor="start" x="154.5" y="-18.5" font-family="Helvetica,sans-Serif" font-size="10.00">nlohmann::detail::is</text>
<text text-anchor="middle" x="204.38" y="-6.5" font-family="Helvetica,sans-Serif" font-size="10.00">_json_ref&lt; typename &gt;</text>
</a>
</g>
</g>
<!-- Node0&#45;&gt;Node25 -->
<g id="edge25" class="edge">
<title>Node0&#45;&gt;Node25</title>
<path fill="none" stroke="#63b8ff" d="M40.82,-562.69C41.02,-472.21 46.33,-120.96 115.75,-41 123.63,-31.92 134.56,-26.03 146.02,-22.23"/>
<polygon fill="#63b8ff" stroke="#63b8ff" points="37.32,-562.67 40.82,-572.67 44.32,-562.67 37.32,-562.67"/>
</g>
<!-- Node2 -->
<g id="node3" class="node">
<title>Node2</title>
<g id="a_node3"><a xlink:href="a01767.html" target="_top" xlink:title=" ">
<polygon fill="white" stroke="#666666" points="497.63,-1156 343.63,-1156 343.63,-1100 497.63,-1100 497.63,-1156"/>
<text text-anchor="start" x="351.63" y="-1142.5" font-family="Helvetica,sans-Serif" font-size="10.00">nlohmann::detail::is</text>
<text text-anchor="start" x="351.63" y="-1130.5" font-family="Helvetica,sans-Serif" font-size="10.00">_compatible_string_type</text>
<text text-anchor="start" x="351.63" y="-1118.5" font-family="Helvetica,sans-Serif" font-size="10.00">&lt; BasicJsonType, Constructible</text>
<text text-anchor="middle" x="420.63" y="-1106.5" font-family="Helvetica,sans-Serif" font-size="10.00">StringType &gt;</text>
</a>
</g>
</g>
<!-- Node1&#45;&gt;Node2 -->
<g id="edge2" class="edge">
<title>Node1&#45;&gt;Node2</title>
<path fill="none" stroke="#63b8ff" d="M304.35,-1128C317.4,-1128 330.6,-1128 343.19,-1128"/>
<polygon fill="#63b8ff" stroke="#63b8ff" points="304.45,-1124.5 294.45,-1128 304.45,-1131.5 304.45,-1124.5"/>
</g>
<!-- Node8 -->
<g id="node9" class="node">
<title>Node8</title>
<g id="a_node9"><a xlink:href="a01791.html" target="_top" xlink:title=" ">
<polygon fill="white" stroke="#666666" points="505.13,-846 336.13,-846 336.13,-790 505.13,-790 505.13,-846"/>
<text text-anchor="start" x="344.13" y="-832.5" font-family="Helvetica,sans-Serif" font-size="10.00">nlohmann::detail::is</text>
<text text-anchor="start" x="344.13" y="-820.5" font-family="Helvetica,sans-Serif" font-size="10.00">_compatible_array_type</text>
<text text-anchor="start" x="344.13" y="-808.5" font-family="Helvetica,sans-Serif" font-size="10.00">&lt; BasicJsonType, CompatibleArray</text>
<text text-anchor="middle" x="420.63" y="-796.5" font-family="Helvetica,sans-Serif" font-size="10.00">Type &gt;</text>
</a>
</g>
</g>
<!-- Node7&#45;&gt;Node8 -->
<g id="edge8" class="edge">
<title>Node7&#45;&gt;Node8</title>
<path fill="none" stroke="#63b8ff" d="M300.03,-818C311.99,-818 324.16,-818 335.93,-818"/>
<polygon fill="#63b8ff" stroke="#63b8ff" points="300.13,-814.5 290.13,-818 300.13,-821.5 300.13,-814.5"/>
</g>
<!-- Node10 -->
<g id="node11" class="node">
<title>Node10</title>
<g id="a_node11"><a xlink:href="a01819.html" target="_top" xlink:title=" ">
<polygon fill="white" stroke="#666666" points="512.25,-766 329,-766 329,-710 512.25,-710 512.25,-766"/>
<text text-anchor="start" x="337" y="-752.5" font-family="Helvetica,sans-Serif" font-size="10.00">nlohmann::detail::is</text>
<text text-anchor="start" x="337" y="-740.5" font-family="Helvetica,sans-Serif" font-size="10.00">_compatible_integer_type</text>
<text text-anchor="start" x="337" y="-728.5" font-family="Helvetica,sans-Serif" font-size="10.00">&lt; RealIntegerType, CompatibleNumber</text>
<text text-anchor="middle" x="420.63" y="-716.5" font-family="Helvetica,sans-Serif" font-size="10.00">IntegerType &gt;</text>
</a>
</g>
</g>
<!-- Node9&#45;&gt;Node10 -->
<g id="edge10" class="edge">
<title>Node9&#45;&gt;Node10</title>
<path fill="none" stroke="#63b8ff" d="M292.88,-738C304.73,-738 316.9,-738 328.8,-738"/>
<polygon fill="#63b8ff" stroke="#63b8ff" points="293.12,-734.5 283.12,-738 293.12,-741.5 293.12,-734.5"/>
</g>
<!-- Node12 -->
<g id="node13" class="node">
<title>Node12</title>
<g id="a_node13"><a xlink:href="a01743.html" target="_top" xlink:title=" ">
<polygon fill="white" stroke="#666666" points="507.75,-686 333.5,-686 333.5,-630 507.75,-630 507.75,-686"/>
<text text-anchor="start" x="341.5" y="-672.5" font-family="Helvetica,sans-Serif" font-size="10.00">nlohmann::detail::is</text>
<text text-anchor="start" x="341.5" y="-660.5" font-family="Helvetica,sans-Serif" font-size="10.00">_compatible_object_type</text>
<text text-anchor="start" x="341.5" y="-648.5" font-family="Helvetica,sans-Serif" font-size="10.00">&lt; BasicJsonType, CompatibleObject</text>
<text text-anchor="middle" x="420.63" y="-636.5" font-family="Helvetica,sans-Serif" font-size="10.00">Type &gt;</text>
</a>
</g>
</g>
<!-- Node11&#45;&gt;Node12 -->
<g id="edge12" class="edge">
<title>Node11&#45;&gt;Node12</title>
<path fill="none" stroke="#63b8ff" d="M300.05,-658C311.05,-658 322.22,-658 333.1,-658"/>
<polygon fill="#63b8ff" stroke="#63b8ff" points="300.13,-654.5 290.13,-658 300.13,-661.5 300.13,-654.5"/>
</g>
<!-- Node15 -->
<g id="node16" class="node">
<title>Node15</title>
<g id="a_node16"><a xlink:href="a01831.html" target="_top" xlink:title=" ">
<polygon fill="white" stroke="#666666" points="493.88,-532 347.38,-532 347.38,-488 493.88,-488 493.88,-532"/>
<text text-anchor="start" x="355.38" y="-518.5" font-family="Helvetica,sans-Serif" font-size="10.00">nlohmann::detail::is</text>
<text text-anchor="start" x="355.38" y="-506.5" font-family="Helvetica,sans-Serif" font-size="10.00">_compatible_type&lt; BasicJson</text>
<text text-anchor="middle" x="420.63" y="-494.5" font-family="Helvetica,sans-Serif" font-size="10.00">Type, CompatibleType &gt;</text>
</a>
</g>
</g>
<!-- Node14&#45;&gt;Node15 -->
<g id="edge15" class="edge">
<title>Node14&#45;&gt;Node15</title>
<path fill="none" stroke="#63b8ff" d="M300.5,-510C316.15,-510 332.14,-510 347.12,-510"/>
<polygon fill="#63b8ff" stroke="#63b8ff" points="300.74,-506.5 290.74,-510 300.74,-513.5 300.74,-506.5"/>
</g>
<!-- Node18 -->
<g id="node19" class="node">
<title>Node18</title>
<g id="a_node19"><a xlink:href="a01807.html" target="_top" xlink:title=" ">
<polygon fill="white" stroke="#666666" points="485.25,-408 356,-408 356,-352 485.25,-352 485.25,-408"/>
<text text-anchor="start" x="364" y="-394.5" font-family="Helvetica,sans-Serif" font-size="10.00">nlohmann::detail::is</text>
<text text-anchor="start" x="364" y="-382.5" font-family="Helvetica,sans-Serif" font-size="10.00">_constructible_array</text>
<text text-anchor="start" x="364" y="-370.5" font-family="Helvetica,sans-Serif" font-size="10.00">_type&lt; BasicJsonType,</text>
<text text-anchor="middle" x="420.63" y="-358.5" font-family="Helvetica,sans-Serif" font-size="10.00"> ConstructibleArrayType &gt;</text>
</a>
</g>
</g>
<!-- Node17&#45;&gt;Node18 -->
<g id="edge18" class="edge">
<title>Node17&#45;&gt;Node18</title>
<path fill="none" stroke="#63b8ff" d="M286.02,-380C309.03,-380 333.79,-380 355.66,-380"/>
<polygon fill="#63b8ff" stroke="#63b8ff" points="286.23,-376.5 276.23,-380 286.23,-383.5 286.23,-376.5"/>
</g>
<!-- Node20 -->
<g id="node21" class="node">
<title>Node20</title>
<g id="a_node21"><a xlink:href="a01755.html" target="_top" xlink:title=" ">
<polygon fill="white" stroke="#666666" points="487.88,-322 353.38,-322 353.38,-266 487.88,-266 487.88,-322"/>
<text text-anchor="start" x="361.38" y="-308.5" font-family="Helvetica,sans-Serif" font-size="10.00">nlohmann::detail::is</text>
<text text-anchor="start" x="361.38" y="-296.5" font-family="Helvetica,sans-Serif" font-size="10.00">_constructible_object</text>
<text text-anchor="start" x="361.38" y="-284.5" font-family="Helvetica,sans-Serif" font-size="10.00">_type&lt; BasicJsonType,</text>
<text text-anchor="middle" x="420.63" y="-272.5" font-family="Helvetica,sans-Serif" font-size="10.00"> ConstructibleObjectType &gt;</text>
</a>
</g>
</g>
<!-- Node19&#45;&gt;Node20 -->
<g id="edge20" class="edge">
<title>Node19&#45;&gt;Node20</title>
<path fill="none" stroke="#63b8ff" d="M285.96,-294C308.11,-294 331.88,-294 353.14,-294"/>
<polygon fill="#63b8ff" stroke="#63b8ff" points="286.23,-290.5 276.23,-294 286.23,-297.5 286.23,-290.5"/>
</g>
<!-- Node22 -->
<g id="node23" class="node">
<title>Node22</title>
<g id="a_node23"><a xlink:href="a01779.html" target="_top" xlink:title=" ">
<polygon fill="white" stroke="#666666" points="486.38,-236 354.88,-236 354.88,-180 486.38,-180 486.38,-236"/>
<text text-anchor="start" x="362.88" y="-222.5" font-family="Helvetica,sans-Serif" font-size="10.00">nlohmann::detail::is</text>
<text text-anchor="start" x="362.88" y="-210.5" font-family="Helvetica,sans-Serif" font-size="10.00">_constructible_string</text>
<text text-anchor="start" x="362.88" y="-198.5" font-family="Helvetica,sans-Serif" font-size="10.00">_type&lt; BasicJsonType,</text>
<text text-anchor="middle" x="420.63" y="-186.5" font-family="Helvetica,sans-Serif" font-size="10.00"> ConstructibleStringType &gt;</text>
</a>
</g>
</g>
<!-- Node21&#45;&gt;Node22 -->
<g id="edge22" class="edge">
<title>Node21&#45;&gt;Node22</title>
<path fill="none" stroke="#63b8ff" d="M286.17,-208C308.77,-208 333.03,-208 354.58,-208"/>
<polygon fill="#63b8ff" stroke="#63b8ff" points="286.23,-204.5 276.23,-208 286.23,-211.5 286.23,-204.5"/>
</g>
</g>
</svg>
